<?xml version="1.0" encoding="UTF-8" standalone="no"?>
<!DOCTYPE svg PUBLIC "-//W3C//DTD SVG 1.1//EN"
 "http://www.w3.org/Graphics/SVG/1.1/DTD/svg11.dtd">
<!-- Generated by graphviz version 2.50.0 (20220203.2022)
 -->
<!-- Title: load_kernel Pages: 1 -->
<svg width="664pt" height="142pt"
 viewBox="0.00 0.00 664.00 142.00" xmlns="http://www.w3.org/2000/svg" xmlns:xlink="http://www.w3.org/1999/xlink">
<g id="graph0" class="graph" transform="scale(1 1) rotate(0) translate(4 138)">
<title>load_kernel</title>
<!-- Node1 -->
<g id="node1" class="node">
<title>Node1</title>
<g id="a_node1"><a xlink:title=" ">
<polygon fill="#bfbfbf" stroke="black" points="0,-57.5 0,-76.5 66,-76.5 66,-57.5 0,-57.5"/>
<text text-anchor="middle" x="33" y="-64.5" font-family="Helvetica,sans-Serif" font-size="10.00">load_kernel</text>
</a>
</g>
</g>
<!-- Node2 -->
<g id="node2" class="node">
<title>Node2</title>
<g id="a_node2"><a xlink:href="x86_8h.html#adfa01b89ceed9e7a87f185f4e441aa16" target="_top" xlink:title=" ">
<polygon fill="none" stroke="black" points="102,-114.5 102,-133.5 170,-133.5 170,-114.5 102,-114.5"/>
<text text-anchor="middle" x="136" y="-121.5" font-family="Helvetica,sans-Serif" font-size="10.00">boot_record</text>
</a>
</g>
</g>
<!-- Node1&#45;&gt;Node2 -->
<g id="edge1" class="edge">
<title>Node1&#45;&gt;Node2</title>
<path fill="none" stroke="midnightblue" d="M51.13,-76.67C67.04,-85.65 90.96,-99.14 109.18,-109.43"/>
<polygon fill="midnightblue" stroke="midnightblue" points="107.69,-112.61 118.12,-114.47 111.13,-106.51 107.69,-112.61"/>
</g>
<!-- Node3 -->
<g id="node3" class="node">
<title>Node3</title>
<g id="a_node3"><a xlink:href="abstract-machine_2am_2src_2x86_2qemu_2boot_2main_8c.html#a053d271297a51949cf46c59a997e8621" target="_top" xlink:title=" ">
<polygon fill="none" stroke="black" points="317,-57.5 317,-76.5 402,-76.5 402,-57.5 317,-57.5"/>
<text text-anchor="middle" x="359.5" y="-64.5" font-family="Helvetica,sans-Serif" font-size="10.00">copy_from_disk</text>
</a>
</g>
</g>
<!-- Node1&#45;&gt;Node3 -->
<g id="edge2" class="edge">
<title>Node1&#45;&gt;Node3</title>
<path fill="none" stroke="midnightblue" d="M66,-67C122.2,-67 239.07,-67 306.84,-67"/>
<polygon fill="midnightblue" stroke="midnightblue" points="306.87,-70.5 316.87,-67 306.87,-63.5 306.87,-70.5"/>
</g>
<!-- Node9 -->
<g id="node9" class="node">
<title>Node9</title>
<g id="a_node9"><a xlink:href="abstract-machine_2am_2src_2x86_2qemu_2boot_2main_8c.html#af9c31bdb55074382c4ac7b48cdaf6653" target="_top" xlink:title=" ">
<polygon fill="none" stroke="black" points="105.5,-38.5 105.5,-57.5 166.5,-57.5 166.5,-38.5 105.5,-38.5"/>
<text text-anchor="middle" x="136" y="-45.5" font-family="Helvetica,sans-Serif" font-size="10.00">load_elf32</text>
</a>
</g>
</g>
<!-- Node1&#45;&gt;Node9 -->
<g id="edge8" class="edge">
<title>Node1&#45;&gt;Node9</title>
<path fill="none" stroke="midnightblue" d="M66.23,-60.94C75.58,-59.18 85.88,-57.24 95.61,-55.41"/>
<polygon fill="midnightblue" stroke="midnightblue" points="96.29,-58.84 105.47,-53.56 94.99,-51.96 96.29,-58.84"/>
</g>
<!-- Node11 -->
<g id="node11" class="node">
<title>Node11</title>
<g id="a_node11"><a xlink:href="abstract-machine_2am_2src_2x86_2qemu_2boot_2main_8c.html#a64c8b07ebf7ef54bc8c4f300db46716e" target="_top" xlink:title=" ">
<polygon fill="none" stroke="black" points="105.5,-0.5 105.5,-19.5 166.5,-19.5 166.5,-0.5 105.5,-0.5"/>
<text text-anchor="middle" x="136" y="-7.5" font-family="Helvetica,sans-Serif" font-size="10.00">load_elf64</text>
</a>
</g>
</g>
<!-- Node1&#45;&gt;Node11 -->
<g id="edge11" class="edge">
<title>Node1&#45;&gt;Node11</title>
<path fill="none" stroke="midnightblue" d="M51.13,-57.33C67.04,-48.35 90.96,-34.86 109.18,-24.57"/>
<polygon fill="midnightblue" stroke="midnightblue" points="111.13,-27.49 118.12,-19.53 107.69,-21.39 111.13,-27.49"/>
</g>
<!-- Node4 -->
<g id="node4" class="node">
<title>Node4</title>
<g id="a_node4"><a xlink:href="abstract-machine_2am_2src_2x86_2qemu_2boot_2main_8c.html#a5c78005e67963b2e5e1c05b5e462f186" target="_top" xlink:title=" ">
<polygon fill="none" stroke="black" points="438,-57.5 438,-76.5 497,-76.5 497,-57.5 438,-57.5"/>
<text text-anchor="middle" x="467.5" y="-64.5" font-family="Helvetica,sans-Serif" font-size="10.00">read_disk</text>
</a>
</g>
</g>
<!-- Node3&#45;&gt;Node4 -->
<g id="edge3" class="edge">
<title>Node3&#45;&gt;Node4</title>
<path fill="none" stroke="midnightblue" d="M402.09,-67C410.49,-67 419.29,-67 427.6,-67"/>
<polygon fill="midnightblue" stroke="midnightblue" points="427.78,-70.5 437.78,-67 427.78,-63.5 427.78,-70.5"/>
</g>
<!-- Node5 -->
<g id="node5" class="node">
<title>Node5</title>
<g id="a_node5"><a xlink:href="x86_8h.html#a4dc39efad1eea8befe2658287ec39913" target="_top" xlink:title=" ">
<polygon fill="none" stroke="black" points="547.5,-95.5 547.5,-114.5 576.5,-114.5 576.5,-95.5 547.5,-95.5"/>
<text text-anchor="middle" x="562" y="-102.5" font-family="Helvetica,sans-Serif" font-size="10.00">inl</text>
</a>
</g>
</g>
<!-- Node4&#45;&gt;Node5 -->
<g id="edge4" class="edge">
<title>Node4&#45;&gt;Node5</title>
<path fill="none" stroke="midnightblue" d="M491.84,-76.59C505.97,-82.39 523.91,-89.76 537.98,-95.54"/>
<polygon fill="midnightblue" stroke="midnightblue" points="536.85,-98.86 547.43,-99.42 539.51,-92.39 536.85,-98.86"/>
</g>
<!-- Node6 -->
<g id="node6" class="node">
<title>Node6</title>
<g id="a_node6"><a xlink:href="x86_8h.html#ade961b44e45ddacbc3c3b7609cf36dc6" target="_top" xlink:title=" ">
<polygon fill="none" stroke="black" points="544.5,-57.5 544.5,-76.5 579.5,-76.5 579.5,-57.5 544.5,-57.5"/>
<text text-anchor="middle" x="562" y="-64.5" font-family="Helvetica,sans-Serif" font-size="10.00">outb</text>
</a>
</g>
</g>
<!-- Node4&#45;&gt;Node6 -->
<g id="edge5" class="edge">
<title>Node4&#45;&gt;Node6</title>
<path fill="none" stroke="midnightblue" d="M497.01,-67C508.88,-67 522.58,-67 534.25,-67"/>
<polygon fill="midnightblue" stroke="midnightblue" points="534.29,-70.5 544.29,-67 534.29,-63.5 534.29,-70.5"/>
</g>
<!-- Node7 -->
<g id="node7" class="node">
<title>Node7</title>
<g id="a_node7"><a xlink:href="abstract-machine_2am_2src_2x86_2qemu_2boot_2main_8c.html#acbf8b730fa8737d9316857c2e9c16cb0" target="_top" xlink:title=" ">
<polygon fill="none" stroke="black" points="533,-19.5 533,-38.5 591,-38.5 591,-19.5 533,-19.5"/>
<text text-anchor="middle" x="562" y="-26.5" font-family="Helvetica,sans-Serif" font-size="10.00">wait_disk</text>
</a>
</g>
</g>
<!-- Node4&#45;&gt;Node7 -->
<g id="edge6" class="edge">
<title>Node4&#45;&gt;Node7</title>
<path fill="none" stroke="midnightblue" d="M491.84,-57.41C502.91,-52.87 516.31,-47.36 528.36,-42.41"/>
<polygon fill="midnightblue" stroke="midnightblue" points="529.75,-45.62 537.67,-38.59 527.09,-39.15 529.75,-45.62"/>
</g>
<!-- Node8 -->
<g id="node8" class="node">
<title>Node8</title>
<g id="a_node8"><a xlink:href="x86_8h.html#afdc603aa210ab8fd9995ce74940f5d7f" target="_top" xlink:title=" ">
<polygon fill="none" stroke="black" points="627,-19.5 627,-38.5 656,-38.5 656,-19.5 627,-19.5"/>
<text text-anchor="middle" x="641.5" y="-26.5" font-family="Helvetica,sans-Serif" font-size="10.00">inb</text>
</a>
</g>
</g>
<!-- Node7&#45;&gt;Node8 -->
<g id="edge7" class="edge">
<title>Node7&#45;&gt;Node8</title>
<path fill="none" stroke="midnightblue" d="M591.42,-29C599.73,-29 608.74,-29 616.73,-29"/>
<polygon fill="midnightblue" stroke="midnightblue" points="616.85,-32.5 626.85,-29 616.85,-25.5 616.85,-32.5"/>
</g>
<!-- Node10 -->
<g id="node10" class="node">
<title>Node10</title>
<g id="a_node10"><a xlink:href="abstract-machine_2am_2src_2x86_2qemu_2boot_2main_8c.html#a3113c23ca15bbe1871820f4d9ae9c015" target="_top" xlink:title=" ">
<polygon fill="none" stroke="black" points="206,-38.5 206,-57.5 281,-57.5 281,-38.5 206,-38.5"/>
<text text-anchor="middle" x="243.5" y="-45.5" font-family="Helvetica,sans-Serif" font-size="10.00">load_program</text>
</a>
</g>
</g>
<!-- Node9&#45;&gt;Node10 -->
<g id="edge9" class="edge">
<title>Node9&#45;&gt;Node10</title>
<path fill="none" stroke="midnightblue" d="M166.67,-48C175.72,-48 185.89,-48 195.78,-48"/>
<polygon fill="midnightblue" stroke="midnightblue" points="195.92,-51.5 205.92,-48 195.92,-44.5 195.92,-51.5"/>
</g>
<!-- Node10&#45;&gt;Node3 -->
<g id="edge10" class="edge">
<title>Node10&#45;&gt;Node3</title>
<path fill="none" stroke="midnightblue" d="M281.2,-54.12C289.34,-55.47 298.11,-56.94 306.73,-58.37"/>
<polygon fill="midnightblue" stroke="midnightblue" points="306.28,-61.85 316.72,-60.04 307.43,-54.94 306.28,-61.85"/>
</g>
<!-- Node11&#45;&gt;Node10 -->
<g id="edge12" class="edge">
<title>Node11&#45;&gt;Node10</title>
<path fill="none" stroke="midnightblue" d="M163.62,-19.59C176.49,-24.22 192.14,-29.86 206.09,-34.89"/>
<polygon fill="midnightblue" stroke="midnightblue" points="205.29,-38.32 215.89,-38.41 207.66,-31.73 205.29,-38.32"/>
</g>
</g>
</svg>
