<?xml version="1.0" encoding="UTF-8" standalone="no"?>
<!DOCTYPE svg PUBLIC "-//W3C//DTD SVG 1.1//EN"
 "http://www.w3.org/Graphics/SVG/1.1/DTD/svg11.dtd">
<!-- Generated by graphviz version 2.50.0 (20220203.2022)
 -->
<!-- Title: copy_from_disk Pages: 1 -->
<svg width="347pt" height="104pt"
 viewBox="0.00 0.00 347.00 104.00" xmlns="http://www.w3.org/2000/svg" xmlns:xlink="http://www.w3.org/1999/xlink">
<g id="graph0" class="graph" transform="scale(1 1) rotate(0) translate(4 100)">
<title>copy_from_disk</title>
<!-- Node1 -->
<g id="node1" class="node">
<title>Node1</title>
<g id="a_node1"><a xlink:title=" ">
<polygon fill="#bfbfbf" stroke="black" points="0,-38.5 0,-57.5 85,-57.5 85,-38.5 0,-38.5"/>
<text text-anchor="middle" x="42.5" y="-45.5" font-family="Helvetica,sans-Serif" font-size="10.00">copy_from_disk</text>
</a>
</g>
</g>
<!-- Node2 -->
<g id="node2" class="node">
<title>Node2</title>
<g id="a_node2"><a xlink:href="abstract-machine_2am_2src_2x86_2qemu_2boot_2main_8c.html#a5c78005e67963b2e5e1c05b5e462f186" target="_top" xlink:title=" ">
<polygon fill="none" stroke="black" points="121,-38.5 121,-57.5 180,-57.5 180,-38.5 121,-38.5"/>
<text text-anchor="middle" x="150.5" y="-45.5" font-family="Helvetica,sans-Serif" font-size="10.00">read_disk</text>
</a>
</g>
</g>
<!-- Node1&#45;&gt;Node2 -->
<g id="edge1" class="edge">
<title>Node1&#45;&gt;Node2</title>
<path fill="none" stroke="midnightblue" d="M85.09,-48C93.49,-48 102.29,-48 110.6,-48"/>
<polygon fill="midnightblue" stroke="midnightblue" points="110.78,-51.5 120.78,-48 110.78,-44.5 110.78,-51.5"/>
</g>
<!-- Node3 -->
<g id="node3" class="node">
<title>Node3</title>
<g id="a_node3"><a xlink:href="x86_8h.html#a4dc39efad1eea8befe2658287ec39913" target="_top" xlink:title=" ">
<polygon fill="none" stroke="black" points="230.5,-76.5 230.5,-95.5 259.5,-95.5 259.5,-76.5 230.5,-76.5"/>
<text text-anchor="middle" x="245" y="-83.5" font-family="Helvetica,sans-Serif" font-size="10.00">inl</text>
</a>
</g>
</g>
<!-- Node2&#45;&gt;Node3 -->
<g id="edge2" class="edge">
<title>Node2&#45;&gt;Node3</title>
<path fill="none" stroke="midnightblue" d="M174.84,-57.59C188.97,-63.39 206.91,-70.76 220.98,-76.54"/>
<polygon fill="midnightblue" stroke="midnightblue" points="219.85,-79.86 230.43,-80.42 222.51,-73.39 219.85,-79.86"/>
</g>
<!-- Node4 -->
<g id="node4" class="node">
<title>Node4</title>
<g id="a_node4"><a xlink:href="x86_8h.html#ade961b44e45ddacbc3c3b7609cf36dc6" target="_top" xlink:title=" ">
<polygon fill="none" stroke="black" points="227.5,-38.5 227.5,-57.5 262.5,-57.5 262.5,-38.5 227.5,-38.5"/>
<text text-anchor="middle" x="245" y="-45.5" font-family="Helvetica,sans-Serif" font-size="10.00">outb</text>
</a>
</g>
</g>
<!-- Node2&#45;&gt;Node4 -->
<g id="edge3" class="edge">
<title>Node2&#45;&gt;Node4</title>
<path fill="none" stroke="midnightblue" d="M180.01,-48C191.88,-48 205.58,-48 217.25,-48"/>
<polygon fill="midnightblue" stroke="midnightblue" points="217.29,-51.5 227.29,-48 217.29,-44.5 217.29,-51.5"/>
</g>
<!-- Node5 -->
<g id="node5" class="node">
<title>Node5</title>
<g id="a_node5"><a xlink:href="abstract-machine_2am_2src_2x86_2qemu_2boot_2main_8c.html#acbf8b730fa8737d9316857c2e9c16cb0" target="_top" xlink:title=" ">
<polygon fill="none" stroke="black" points="216,-0.5 216,-19.5 274,-19.5 274,-0.5 216,-0.5"/>
<text text-anchor="middle" x="245" y="-7.5" font-family="Helvetica,sans-Serif" font-size="10.00">wait_disk</text>
</a>
</g>
</g>
<!-- Node2&#45;&gt;Node5 -->
<g id="edge4" class="edge">
<title>Node2&#45;&gt;Node5</title>
<path fill="none" stroke="midnightblue" d="M174.84,-38.41C185.91,-33.87 199.31,-28.36 211.36,-23.41"/>
<polygon fill="midnightblue" stroke="midnightblue" points="212.75,-26.62 220.67,-19.59 210.09,-20.15 212.75,-26.62"/>
</g>
<!-- Node6 -->
<g id="node6" class="node">
<title>Node6</title>
<g id="a_node6"><a xlink:href="x86_8h.html#afdc603aa210ab8fd9995ce74940f5d7f" target="_top" xlink:title=" ">
<polygon fill="none" stroke="black" points="310,-0.5 310,-19.5 339,-19.5 339,-0.5 310,-0.5"/>
<text text-anchor="middle" x="324.5" y="-7.5" font-family="Helvetica,sans-Serif" font-size="10.00">inb</text>
</a>
</g>
</g>
<!-- Node5&#45;&gt;Node6 -->
<g id="edge5" class="edge">
<title>Node5&#45;&gt;Node6</title>
<path fill="none" stroke="midnightblue" d="M274.42,-10C282.73,-10 291.74,-10 299.73,-10"/>
<polygon fill="midnightblue" stroke="midnightblue" points="299.85,-13.5 309.85,-10 299.85,-6.5 299.85,-13.5"/>
</g>
</g>
</svg>
