<?xml version="1.0" encoding="UTF-8" standalone="no"?>
<!DOCTYPE svg PUBLIC "-//W3C//DTD SVG 1.1//EN"
 "http://www.w3.org/Graphics/SVG/1.1/DTD/svg11.dtd">
<!-- Generated by graphviz version 2.50.0 (20220203.2022)
 -->
<!-- Title: read_disk Pages: 1 -->
<svg width="498pt" height="85pt"
 viewBox="0.00 0.00 498.00 85.00" xmlns="http://www.w3.org/2000/svg" xmlns:xlink="http://www.w3.org/1999/xlink">
<g id="graph0" class="graph" transform="scale(1 1) rotate(0) translate(4 81)">
<title>read_disk</title>
<!-- Node1 -->
<g id="node1" class="node">
<title>Node1</title>
<g id="a_node1"><a xlink:title=" ">
<polygon fill="#bfbfbf" stroke="black" points="431,-57.5 431,-76.5 490,-76.5 490,-57.5 431,-57.5"/>
<text text-anchor="middle" x="460.5" y="-64.5" font-family="Helvetica,sans-Serif" font-size="10.00">read_disk</text>
</a>
</g>
</g>
<!-- Node2 -->
<g id="node2" class="node">
<title>Node2</title>
<g id="a_node2"><a xlink:href="abstract-machine_2am_2src_2x86_2qemu_2boot_2main_8c.html#a053d271297a51949cf46c59a997e8621" target="_top" xlink:title=" ">
<polygon fill="none" stroke="black" points="310,-57.5 310,-76.5 395,-76.5 395,-57.5 310,-57.5"/>
<text text-anchor="middle" x="352.5" y="-64.5" font-family="Helvetica,sans-Serif" font-size="10.00">copy_from_disk</text>
</a>
</g>
</g>
<!-- Node1&#45;&gt;Node2 -->
<g id="edge1" class="edge">
<title>Node1&#45;&gt;Node2</title>
<path fill="none" stroke="midnightblue" d="M420.7,-67C412.45,-67 403.7,-67 395.35,-67"/>
<polygon fill="midnightblue" stroke="midnightblue" points="420.81,-70.5 430.81,-67 420.81,-63.5 420.81,-70.5"/>
</g>
<!-- Node3 -->
<g id="node3" class="node">
<title>Node3</title>
<g id="a_node3"><a xlink:href="abstract-machine_2am_2src_2x86_2qemu_2boot_2main_8c.html#a1799aa2202da76699182c2c1654510bb" target="_top" xlink:title=" ">
<polygon fill="none" stroke="black" points="0,-38.5 0,-57.5 66,-57.5 66,-38.5 0,-38.5"/>
<text text-anchor="middle" x="33" y="-45.5" font-family="Helvetica,sans-Serif" font-size="10.00">load_kernel</text>
</a>
</g>
</g>
<!-- Node2&#45;&gt;Node3 -->
<g id="edge2" class="edge">
<title>Node2&#45;&gt;Node3</title>
<path fill="none" stroke="midnightblue" d="M299.72,-71.08C249.06,-74.11 169.85,-76.3 102,-67 88.4,-65.14 73.68,-61.27 61.43,-57.5"/>
<polygon fill="midnightblue" stroke="midnightblue" points="300.01,-74.57 309.77,-70.44 299.57,-67.58 300.01,-74.57"/>
</g>
<!-- Node4 -->
<g id="node4" class="node">
<title>Node4</title>
<g id="a_node4"><a xlink:href="abstract-machine_2am_2src_2x86_2qemu_2boot_2main_8c.html#a3113c23ca15bbe1871820f4d9ae9c015" target="_top" xlink:title=" ">
<polygon fill="none" stroke="black" points="199,-38.5 199,-57.5 274,-57.5 274,-38.5 199,-38.5"/>
<text text-anchor="middle" x="236.5" y="-45.5" font-family="Helvetica,sans-Serif" font-size="10.00">load_program</text>
</a>
</g>
</g>
<!-- Node2&#45;&gt;Node4 -->
<g id="edge3" class="edge">
<title>Node2&#45;&gt;Node4</title>
<path fill="none" stroke="midnightblue" d="M299.66,-58.36C291.01,-56.92 282.2,-55.45 274.03,-54.09"/>
<polygon fill="midnightblue" stroke="midnightblue" points="299.26,-61.84 309.7,-60.03 300.41,-54.94 299.26,-61.84"/>
</g>
<!-- Node5 -->
<g id="node5" class="node">
<title>Node5</title>
<g id="a_node5"><a xlink:href="abstract-machine_2am_2src_2x86_2qemu_2boot_2main_8c.html#af9c31bdb55074382c4ac7b48cdaf6653" target="_top" xlink:title=" ">
<polygon fill="none" stroke="black" points="102,-38.5 102,-57.5 163,-57.5 163,-38.5 102,-38.5"/>
<text text-anchor="middle" x="132.5" y="-45.5" font-family="Helvetica,sans-Serif" font-size="10.00">load_elf32</text>
</a>
</g>
</g>
<!-- Node4&#45;&gt;Node5 -->
<g id="edge4" class="edge">
<title>Node4&#45;&gt;Node5</title>
<path fill="none" stroke="midnightblue" d="M188.82,-48C180.07,-48 171.14,-48 163.08,-48"/>
<polygon fill="midnightblue" stroke="midnightblue" points="188.96,-51.5 198.96,-48 188.96,-44.5 188.96,-51.5"/>
</g>
<!-- Node6 -->
<g id="node6" class="node">
<title>Node6</title>
<g id="a_node6"><a xlink:href="abstract-machine_2am_2src_2x86_2qemu_2boot_2main_8c.html#a64c8b07ebf7ef54bc8c4f300db46716e" target="_top" xlink:title=" ">
<polygon fill="none" stroke="black" points="102,-0.5 102,-19.5 163,-19.5 163,-0.5 102,-0.5"/>
<text text-anchor="middle" x="132.5" y="-7.5" font-family="Helvetica,sans-Serif" font-size="10.00">load_elf64</text>
</a>
</g>
</g>
<!-- Node4&#45;&gt;Node6 -->
<g id="edge6" class="edge">
<title>Node4&#45;&gt;Node6</title>
<path fill="none" stroke="midnightblue" d="M200.29,-34.88C186.8,-29.86 171.67,-24.22 159.23,-19.59"/>
<polygon fill="midnightblue" stroke="midnightblue" points="199.17,-38.2 209.76,-38.41 201.61,-31.64 199.17,-38.2"/>
</g>
<!-- Node5&#45;&gt;Node3 -->
<g id="edge5" class="edge">
<title>Node5&#45;&gt;Node3</title>
<path fill="none" stroke="midnightblue" d="M91.82,-48C83.28,-48 74.35,-48 66.14,-48"/>
<polygon fill="midnightblue" stroke="midnightblue" points="91.98,-51.5 101.98,-48 91.98,-44.5 91.98,-51.5"/>
</g>
<!-- Node6&#45;&gt;Node3 -->
<g id="edge7" class="edge">
<title>Node6&#45;&gt;Node3</title>
<path fill="none" stroke="midnightblue" d="M97.47,-23.26C84.67,-28.25 70.37,-33.82 58.6,-38.41"/>
<polygon fill="midnightblue" stroke="midnightblue" points="98.85,-26.48 106.9,-19.59 96.31,-19.96 98.85,-26.48"/>
</g>
</g>
</svg>
