<?xml version="1.0" encoding="UTF-8" standalone="no"?>
<!DOCTYPE svg PUBLIC "-//W3C//DTD SVG 1.1//EN"
 "http://www.w3.org/Graphics/SVG/1.1/DTD/svg11.dtd">
<!-- Generated by graphviz version 2.50.0 (20220203.2022)
 -->
<!-- Title: load_elf32 Pages: 1 -->
<svg width="555pt" height="104pt"
 viewBox="0.00 0.00 555.00 104.00" xmlns="http://www.w3.org/2000/svg" xmlns:xlink="http://www.w3.org/1999/xlink">
<g id="graph0" class="graph" transform="scale(1 1) rotate(0) translate(4 100)">
<title>load_elf32</title>
<!-- Node1 -->
<g id="node1" class="node">
<title>Node1</title>
<g id="a_node1"><a xlink:title=" ">
<polygon fill="#bfbfbf" stroke="black" points="0,-38.5 0,-57.5 61,-57.5 61,-38.5 0,-38.5"/>
<text text-anchor="middle" x="30.5" y="-45.5" font-family="Helvetica,sans-Serif" font-size="10.00">load_elf32</text>
</a>
</g>
</g>
<!-- Node2 -->
<g id="node2" class="node">
<title>Node2</title>
<g id="a_node2"><a xlink:href="abstract-machine_2am_2src_2x86_2qemu_2boot_2main_8c.html#a3113c23ca15bbe1871820f4d9ae9c015" target="_top" xlink:title=" ">
<polygon fill="none" stroke="black" points="97,-38.5 97,-57.5 172,-57.5 172,-38.5 97,-38.5"/>
<text text-anchor="middle" x="134.5" y="-45.5" font-family="Helvetica,sans-Serif" font-size="10.00">load_program</text>
</a>
</g>
</g>
<!-- Node1&#45;&gt;Node2 -->
<g id="edge1" class="edge">
<title>Node1&#45;&gt;Node2</title>
<path fill="none" stroke="midnightblue" d="M61,-48C69.04,-48 77.94,-48 86.69,-48"/>
<polygon fill="midnightblue" stroke="midnightblue" points="86.81,-51.5 96.81,-48 86.81,-44.5 86.81,-51.5"/>
</g>
<!-- Node3 -->
<g id="node3" class="node">
<title>Node3</title>
<g id="a_node3"><a xlink:href="abstract-machine_2am_2src_2x86_2qemu_2boot_2main_8c.html#a053d271297a51949cf46c59a997e8621" target="_top" xlink:title=" ">
<polygon fill="none" stroke="black" points="208,-38.5 208,-57.5 293,-57.5 293,-38.5 208,-38.5"/>
<text text-anchor="middle" x="250.5" y="-45.5" font-family="Helvetica,sans-Serif" font-size="10.00">copy_from_disk</text>
</a>
</g>
</g>
<!-- Node2&#45;&gt;Node3 -->
<g id="edge2" class="edge">
<title>Node2&#45;&gt;Node3</title>
<path fill="none" stroke="midnightblue" d="M172.2,-48C180.25,-48 188.92,-48 197.45,-48"/>
<polygon fill="midnightblue" stroke="midnightblue" points="197.72,-51.5 207.72,-48 197.72,-44.5 197.72,-51.5"/>
</g>
<!-- Node4 -->
<g id="node4" class="node">
<title>Node4</title>
<g id="a_node4"><a xlink:href="abstract-machine_2am_2src_2x86_2qemu_2boot_2main_8c.html#a5c78005e67963b2e5e1c05b5e462f186" target="_top" xlink:title=" ">
<polygon fill="none" stroke="black" points="329,-38.5 329,-57.5 388,-57.5 388,-38.5 329,-38.5"/>
<text text-anchor="middle" x="358.5" y="-45.5" font-family="Helvetica,sans-Serif" font-size="10.00">read_disk</text>
</a>
</g>
</g>
<!-- Node3&#45;&gt;Node4 -->
<g id="edge3" class="edge">
<title>Node3&#45;&gt;Node4</title>
<path fill="none" stroke="midnightblue" d="M293.09,-48C301.49,-48 310.29,-48 318.6,-48"/>
<polygon fill="midnightblue" stroke="midnightblue" points="318.78,-51.5 328.78,-48 318.78,-44.5 318.78,-51.5"/>
</g>
<!-- Node5 -->
<g id="node5" class="node">
<title>Node5</title>
<g id="a_node5"><a xlink:href="x86_8h.html#a4dc39efad1eea8befe2658287ec39913" target="_top" xlink:title=" ">
<polygon fill="none" stroke="black" points="438.5,-76.5 438.5,-95.5 467.5,-95.5 467.5,-76.5 438.5,-76.5"/>
<text text-anchor="middle" x="453" y="-83.5" font-family="Helvetica,sans-Serif" font-size="10.00">inl</text>
</a>
</g>
</g>
<!-- Node4&#45;&gt;Node5 -->
<g id="edge4" class="edge">
<title>Node4&#45;&gt;Node5</title>
<path fill="none" stroke="midnightblue" d="M382.84,-57.59C396.97,-63.39 414.91,-70.76 428.98,-76.54"/>
<polygon fill="midnightblue" stroke="midnightblue" points="427.85,-79.86 438.43,-80.42 430.51,-73.39 427.85,-79.86"/>
</g>
<!-- Node6 -->
<g id="node6" class="node">
<title>Node6</title>
<g id="a_node6"><a xlink:href="x86_8h.html#ade961b44e45ddacbc3c3b7609cf36dc6" target="_top" xlink:title=" ">
<polygon fill="none" stroke="black" points="435.5,-38.5 435.5,-57.5 470.5,-57.5 470.5,-38.5 435.5,-38.5"/>
<text text-anchor="middle" x="453" y="-45.5" font-family="Helvetica,sans-Serif" font-size="10.00">outb</text>
</a>
</g>
</g>
<!-- Node4&#45;&gt;Node6 -->
<g id="edge5" class="edge">
<title>Node4&#45;&gt;Node6</title>
<path fill="none" stroke="midnightblue" d="M388.01,-48C399.88,-48 413.58,-48 425.25,-48"/>
<polygon fill="midnightblue" stroke="midnightblue" points="425.29,-51.5 435.29,-48 425.29,-44.5 425.29,-51.5"/>
</g>
<!-- Node7 -->
<g id="node7" class="node">
<title>Node7</title>
<g id="a_node7"><a xlink:href="abstract-machine_2am_2src_2x86_2qemu_2boot_2main_8c.html#acbf8b730fa8737d9316857c2e9c16cb0" target="_top" xlink:title=" ">
<polygon fill="none" stroke="black" points="424,-0.5 424,-19.5 482,-19.5 482,-0.5 424,-0.5"/>
<text text-anchor="middle" x="453" y="-7.5" font-family="Helvetica,sans-Serif" font-size="10.00">wait_disk</text>
</a>
</g>
</g>
<!-- Node4&#45;&gt;Node7 -->
<g id="edge6" class="edge">
<title>Node4&#45;&gt;Node7</title>
<path fill="none" stroke="midnightblue" d="M382.84,-38.41C393.91,-33.87 407.31,-28.36 419.36,-23.41"/>
<polygon fill="midnightblue" stroke="midnightblue" points="420.75,-26.62 428.67,-19.59 418.09,-20.15 420.75,-26.62"/>
</g>
<!-- Node8 -->
<g id="node8" class="node">
<title>Node8</title>
<g id="a_node8"><a xlink:href="x86_8h.html#afdc603aa210ab8fd9995ce74940f5d7f" target="_top" xlink:title=" ">
<polygon fill="none" stroke="black" points="518,-0.5 518,-19.5 547,-19.5 547,-0.5 518,-0.5"/>
<text text-anchor="middle" x="532.5" y="-7.5" font-family="Helvetica,sans-Serif" font-size="10.00">inb</text>
</a>
</g>
</g>
<!-- Node7&#45;&gt;Node8 -->
<g id="edge7" class="edge">
<title>Node7&#45;&gt;Node8</title>
<path fill="none" stroke="midnightblue" d="M482.42,-10C490.73,-10 499.74,-10 507.73,-10"/>
<polygon fill="midnightblue" stroke="midnightblue" points="507.85,-13.5 517.85,-10 507.85,-6.5 507.85,-13.5"/>
</g>
</g>
</svg>
