<?xml version="1.0" encoding="UTF-8" standalone="no"?>
<!DOCTYPE svg PUBLIC "-//W3C//DTD SVG 1.1//EN"
 "http://www.w3.org/Graphics/SVG/1.1/DTD/svg11.dtd">
<!-- Generated by graphviz version 2.50.0 (20220203.2022)
 -->
<!-- Title: load_program Pages: 1 -->
<svg width="282pt" height="66pt"
 viewBox="0.00 0.00 282.00 66.00" xmlns="http://www.w3.org/2000/svg" xmlns:xlink="http://www.w3.org/1999/xlink">
<g id="graph0" class="graph" transform="scale(1 1) rotate(0) translate(4 62)">
<title>load_program</title>
<!-- Node1 -->
<g id="node1" class="node">
<title>Node1</title>
<g id="a_node1"><a xlink:title=" ">
<polygon fill="#bfbfbf" stroke="black" points="199,-19.5 199,-38.5 274,-38.5 274,-19.5 199,-19.5"/>
<text text-anchor="middle" x="236.5" y="-26.5" font-family="Helvetica,sans-Serif" font-size="10.00">load_program</text>
</a>
</g>
</g>
<!-- Node2 -->
<g id="node2" class="node">
<title>Node2</title>
<g id="a_node2"><a xlink:href="abstract-machine_2am_2src_2x86_2qemu_2boot_2main_8c.html#af9c31bdb55074382c4ac7b48cdaf6653" target="_top" xlink:title=" ">
<polygon fill="none" stroke="black" points="102,-38.5 102,-57.5 163,-57.5 163,-38.5 102,-38.5"/>
<text text-anchor="middle" x="132.5" y="-45.5" font-family="Helvetica,sans-Serif" font-size="10.00">load_elf32</text>
</a>
</g>
</g>
<!-- Node1&#45;&gt;Node2 -->
<g id="edge1" class="edge">
<title>Node1&#45;&gt;Node2</title>
<path fill="none" stroke="midnightblue" d="M189.11,-37.64C180.26,-39.29 171.23,-40.97 163.08,-42.49"/>
<polygon fill="midnightblue" stroke="midnightblue" points="189.77,-41.08 198.96,-35.81 188.49,-34.2 189.77,-41.08"/>
</g>
<!-- Node4 -->
<g id="node4" class="node">
<title>Node4</title>
<g id="a_node4"><a xlink:href="abstract-machine_2am_2src_2x86_2qemu_2boot_2main_8c.html#a64c8b07ebf7ef54bc8c4f300db46716e" target="_top" xlink:title=" ">
<polygon fill="none" stroke="black" points="102,-0.5 102,-19.5 163,-19.5 163,-0.5 102,-0.5"/>
<text text-anchor="middle" x="132.5" y="-7.5" font-family="Helvetica,sans-Serif" font-size="10.00">load_elf64</text>
</a>
</g>
</g>
<!-- Node1&#45;&gt;Node4 -->
<g id="edge3" class="edge">
<title>Node1&#45;&gt;Node4</title>
<path fill="none" stroke="midnightblue" d="M189.11,-20.36C180.26,-18.71 171.23,-17.03 163.08,-15.51"/>
<polygon fill="midnightblue" stroke="midnightblue" points="188.49,-23.8 198.96,-22.19 189.77,-16.92 188.49,-23.8"/>
</g>
<!-- Node3 -->
<g id="node3" class="node">
<title>Node3</title>
<g id="a_node3"><a xlink:href="abstract-machine_2am_2src_2x86_2qemu_2boot_2main_8c.html#a1799aa2202da76699182c2c1654510bb" target="_top" xlink:title=" ">
<polygon fill="none" stroke="black" points="0,-19.5 0,-38.5 66,-38.5 66,-19.5 0,-19.5"/>
<text text-anchor="middle" x="33" y="-26.5" font-family="Helvetica,sans-Serif" font-size="10.00">load_kernel</text>
</a>
</g>
</g>
<!-- Node2&#45;&gt;Node3 -->
<g id="edge2" class="edge">
<title>Node2&#45;&gt;Node3</title>
<path fill="none" stroke="midnightblue" d="M92.11,-40.32C83.48,-38.64 74.44,-36.88 66.14,-35.26"/>
<polygon fill="midnightblue" stroke="midnightblue" points="91.5,-43.77 101.98,-42.25 92.84,-36.9 91.5,-43.77"/>
</g>
<!-- Node4&#45;&gt;Node3 -->
<g id="edge4" class="edge">
<title>Node4&#45;&gt;Node3</title>
<path fill="none" stroke="midnightblue" d="M92.11,-17.68C83.48,-19.36 74.44,-21.12 66.14,-22.74"/>
<polygon fill="midnightblue" stroke="midnightblue" points="92.84,-21.1 101.98,-15.75 91.5,-14.23 92.84,-21.1"/>
</g>
</g>
</svg>
