<?xml version="1.0" encoding="UTF-8" standalone="no"?>
<!DOCTYPE svg PUBLIC "-//W3C//DTD SVG 1.1//EN"
 "http://www.w3.org/Graphics/SVG/1.1/DTD/svg11.dtd">
<!-- Generated by graphviz version 2.50.0 (20220203.2022)
 -->
<!-- Title: abstract&#45;machine/am/src/x86/qemu/boot/main.c Pages: 1 -->
<svg width="166pt" height="151pt"
 viewBox="0.00 0.00 166.00 151.00" xmlns="http://www.w3.org/2000/svg" xmlns:xlink="http://www.w3.org/1999/xlink">
<g id="graph0" class="graph" transform="scale(1 1) rotate(0) translate(4 147)">
<title>abstract&#45;machine/am/src/x86/qemu/boot/main.c</title>
<!-- Node1 -->
<g id="node1" class="node">
<title>Node1</title>
<g id="a_node1"><a xlink:title=" ">
<polygon fill="#bfbfbf" stroke="black" points="0,-112.5 0,-142.5 131,-142.5 131,-112.5 0,-112.5"/>
<text text-anchor="start" x="8" y="-130.5" font-family="Helvetica,sans-Serif" font-size="10.00">abstract&#45;machine/am</text>
<text text-anchor="middle" x="65.5" y="-119.5" font-family="Helvetica,sans-Serif" font-size="10.00">/src/x86/qemu/boot/main.c</text>
</a>
</g>
</g>
<!-- Node2 -->
<g id="node2" class="node">
<title>Node2</title>
<g id="a_node2"><a xlink:title=" ">
<polygon fill="none" stroke="#bfbfbf" points="50.5,-0.5 50.5,-19.5 98.5,-19.5 98.5,-0.5 50.5,-0.5"/>
<text text-anchor="middle" x="74.5" y="-7.5" font-family="Helvetica,sans-Serif" font-size="10.00">stdint.h</text>
</a>
</g>
</g>
<!-- Node1&#45;&gt;Node2 -->
<g id="edge1" class="edge">
<title>Node1&#45;&gt;Node2</title>
<path fill="none" stroke="midnightblue" d="M53.84,-112.28C43.69,-98.1 31.6,-75.66 38.5,-56 42.29,-45.21 49.87,-35.08 57.1,-27.18"/>
<polygon fill="midnightblue" stroke="midnightblue" points="59.83,-29.4 64.34,-19.81 54.83,-24.49 59.83,-29.4"/>
</g>
<!-- Node3 -->
<g id="node3" class="node">
<title>Node3</title>
<g id="a_node3"><a xlink:title=" ">
<polygon fill="none" stroke="#bfbfbf" points="48,-56.5 48,-75.5 83,-75.5 83,-56.5 48,-56.5"/>
<text text-anchor="middle" x="65.5" y="-63.5" font-family="Helvetica,sans-Serif" font-size="10.00">elf.h</text>
</a>
</g>
</g>
<!-- Node1&#45;&gt;Node3 -->
<g id="edge2" class="edge">
<title>Node1&#45;&gt;Node3</title>
<path fill="none" stroke="midnightblue" d="M65.5,-112.4C65.5,-104.47 65.5,-94.46 65.5,-85.86"/>
<polygon fill="midnightblue" stroke="midnightblue" points="69,-85.66 65.5,-75.66 62,-85.66 69,-85.66"/>
</g>
<!-- Node4 -->
<g id="node4" class="node">
<title>Node4</title>
<g id="a_node4"><a xlink:href="x86_8h.html" target="_top" xlink:title=" ">
<polygon fill="none" stroke="black" points="101,-56.5 101,-75.5 158,-75.5 158,-56.5 101,-56.5"/>
<text text-anchor="middle" x="129.5" y="-63.5" font-family="Helvetica,sans-Serif" font-size="10.00">x86/x86.h</text>
</a>
</g>
</g>
<!-- Node1&#45;&gt;Node4 -->
<g id="edge3" class="edge">
<title>Node1&#45;&gt;Node4</title>
<path fill="none" stroke="midnightblue" d="M80.67,-112.4C90.25,-103.49 102.66,-91.95 112.57,-82.74"/>
<polygon fill="midnightblue" stroke="midnightblue" points="115.25,-85.03 120.19,-75.66 110.48,-79.9 115.25,-85.03"/>
</g>
<!-- Node4&#45;&gt;Node2 -->
<g id="edge4" class="edge">
<title>Node4&#45;&gt;Node2</title>
<path fill="none" stroke="midnightblue" d="M120.42,-56.08C112.33,-48.14 100.3,-36.34 90.59,-26.8"/>
<polygon fill="midnightblue" stroke="midnightblue" points="93,-24.26 83.41,-19.75 88.1,-29.25 93,-24.26"/>
</g>
</g>
</svg>
