<?xml version="1.0" encoding="UTF-8" standalone="no"?>
<!DOCTYPE svg PUBLIC "-//W3C//DTD SVG 1.1//EN"
 "http://www.w3.org/Graphics/SVG/1.1/DTD/svg11.dtd">
<!-- Generated by graphviz version 2.50.0 (20220203.2022)
 -->
<!-- Title: cpu_current Pages: 1 -->
<svg width="867pt" height="275pt"
 viewBox="0.00 0.00 867.00 275.00" xmlns="http://www.w3.org/2000/svg" xmlns:xlink="http://www.w3.org/1999/xlink">
<g id="graph0" class="graph" transform="scale(1 1) rotate(0) translate(4 271)">
<title>cpu_current</title>
<!-- Node1 -->
<g id="node1" class="node">
<title>Node1</title>
<g id="a_node1"><a xlink:title=" ">
<polygon fill="#bfbfbf" stroke="black" points="791,-95.5 791,-114.5 859,-114.5 859,-95.5 791,-95.5"/>
<text text-anchor="middle" x="825" y="-102.5" font-family="Helvetica,sans-Serif" font-size="10.00">cpu_current</text>
</a>
</g>
</g>
<!-- Node2 -->
<g id="node2" class="node">
<title>Node2</title>
<g id="a_node2"><a xlink:href="x86_2qemu_2mpe_8c.html#a0a540532023afb1f31b6f21ce053483b" target="_top" xlink:title=" ">
<polygon fill="none" stroke="black" points="643,-190.5 643,-209.5 755,-209.5 755,-190.5 643,-190.5"/>
<text text-anchor="middle" x="699" y="-197.5" font-family="Helvetica,sans-Serif" font-size="10.00">__am_stop_the_world</text>
</a>
</g>
</g>
<!-- Node1&#45;&gt;Node2 -->
<g id="edge1" class="edge">
<title>Node1&#45;&gt;Node2</title>
<path fill="none" stroke="midnightblue" d="M810.12,-122.79C797.2,-138.43 776.7,-160.98 755,-176 746.61,-181.81 736.58,-186.69 727.4,-190.5"/>
<polygon fill="midnightblue" stroke="midnightblue" points="812.93,-124.88 816.48,-114.9 807.48,-120.49 812.93,-124.88"/>
</g>
<!-- Node3 -->
<g id="node3" class="node">
<title>Node3</title>
<g id="a_node3"><a xlink:href="x86_2qemu_2trm_8c.html#a483cb97188e557c3c68d3a1572c2cc92" target="_top" xlink:title=" ">
<polygon fill="none" stroke="black" points="549.5,-171.5 549.5,-190.5 581.5,-190.5 581.5,-171.5 549.5,-171.5"/>
<text text-anchor="middle" x="565.5" y="-178.5" font-family="Helvetica,sans-Serif" font-size="10.00">halt</text>
</a>
</g>
</g>
<!-- Node1&#45;&gt;Node3 -->
<g id="edge13" class="edge">
<title>Node1&#45;&gt;Node3</title>
<path fill="none" stroke="midnightblue" d="M801.06,-119.95C788.02,-127.84 771.12,-137.09 755,-143 692.93,-165.74 614.11,-176.03 581.59,-179.53"/>
<polygon fill="midnightblue" stroke="midnightblue" points="803.17,-122.76 809.81,-114.51 799.47,-116.82 803.17,-122.76"/>
</g>
<!-- Node13 -->
<g id="node13" class="node">
<title>Node13</title>
<g id="a_node13"><a xlink:href="x86_2qemu_2cte_8c.html#a14d86719abbc247f8a0dd5eb2662ea88" target="_top" xlink:title=" ">
<polygon fill="none" stroke="black" points="675,-114.5 675,-133.5 723,-133.5 723,-114.5 675,-114.5"/>
<text text-anchor="middle" x="699" y="-121.5" font-family="Helvetica,sans-Serif" font-size="10.00">cte_init</text>
</a>
</g>
</g>
<!-- Node1&#45;&gt;Node13 -->
<g id="edge12" class="edge">
<title>Node1&#45;&gt;Node13</title>
<path fill="none" stroke="midnightblue" d="M780.64,-111.64C761.28,-114.61 739.25,-117.99 723.11,-120.46"/>
<polygon fill="midnightblue" stroke="midnightblue" points="781.42,-115.07 790.77,-110.09 780.36,-108.15 781.42,-115.07"/>
</g>
<!-- Node14 -->
<g id="node14" class="node">
<title>Node14</title>
<g id="a_node14"><a xlink:href="x86_2qemu_2ioe_8c.html#a45ecef4130276c1c79d872c582cd3839" target="_top" xlink:title=" ">
<polygon fill="none" stroke="black" points="675.5,-76.5 675.5,-95.5 722.5,-95.5 722.5,-76.5 675.5,-76.5"/>
<text text-anchor="middle" x="699" y="-83.5" font-family="Helvetica,sans-Serif" font-size="10.00">ioe_init</text>
</a>
</g>
</g>
<!-- Node1&#45;&gt;Node14 -->
<g id="edge14" class="edge">
<title>Node1&#45;&gt;Node14</title>
<path fill="none" stroke="midnightblue" d="M780.84,-98.39C761.28,-95.39 738.96,-91.97 722.73,-89.48"/>
<polygon fill="midnightblue" stroke="midnightblue" points="780.36,-101.85 790.77,-99.91 781.42,-94.93 780.36,-101.85"/>
</g>
<!-- Node15 -->
<g id="node15" class="node">
<title>Node15</title>
<g id="a_node15"><a xlink:href="os_8c.html#a5f9cb32664e017ca15c49ec66e5342e4" target="_top" xlink:title=" ">
<polygon fill="none" stroke="black" points="676,-38.5 676,-57.5 722,-57.5 722,-38.5 676,-38.5"/>
<text text-anchor="middle" x="699" y="-45.5" font-family="Helvetica,sans-Serif" font-size="10.00">os_run</text>
</a>
</g>
</g>
<!-- Node1&#45;&gt;Node15 -->
<g id="edge15" class="edge">
<title>Node1&#45;&gt;Node15</title>
<path fill="none" stroke="midnightblue" d="M799.71,-90.29C786.72,-82.77 770.29,-73.79 755,-67 744.38,-62.28 732.21,-57.97 722.01,-54.65"/>
<polygon fill="midnightblue" stroke="midnightblue" points="798.1,-93.4 808.5,-95.46 801.65,-87.37 798.1,-93.4"/>
</g>
<!-- Node17 -->
<g id="node17" class="node">
<title>Node17</title>
<g id="a_node17"><a xlink:href="x86_2qemu_2vme_8c.html#a102a03634ce449f78facc63eee85d9b8" target="_top" xlink:title=" ">
<polygon fill="none" stroke="black" points="672.5,-0.5 672.5,-19.5 725.5,-19.5 725.5,-0.5 672.5,-0.5"/>
<text text-anchor="middle" x="699" y="-7.5" font-family="Helvetica,sans-Serif" font-size="10.00">vme_init</text>
</a>
</g>
</g>
<!-- Node1&#45;&gt;Node17 -->
<g id="edge17" class="edge">
<title>Node1&#45;&gt;Node17</title>
<path fill="none" stroke="midnightblue" d="M811.69,-86.86C799.22,-69.75 778.47,-44.48 755,-29 746.15,-23.16 735.3,-18.91 725.59,-15.94"/>
<polygon fill="midnightblue" stroke="midnightblue" points="809.1,-89.26 817.73,-95.41 814.82,-85.22 809.1,-89.26"/>
</g>
<!-- Node2&#45;&gt;Node3 -->
<g id="edge2" class="edge">
<title>Node2&#45;&gt;Node3</title>
<path fill="none" stroke="midnightblue" d="M633.01,-190.61C613.85,-187.84 594.59,-185.06 581.77,-183.21"/>
<polygon fill="midnightblue" stroke="midnightblue" points="632.6,-194.09 642.99,-192.05 633.6,-187.16 632.6,-194.09"/>
</g>
<!-- Node4 -->
<g id="node4" class="node">
<title>Node4</title>
<g id="a_node4"><a xlink:href="input_8c.html#a77413c19d2c314aba317257b3cafb1c7" target="_top" xlink:title=" ">
<polygon fill="none" stroke="black" points="415,-190.5 415,-209.5 488,-209.5 488,-190.5 415,-190.5"/>
<text text-anchor="middle" x="451.5" y="-197.5" font-family="Helvetica,sans-Serif" font-size="10.00">event_thread</text>
</a>
</g>
</g>
<!-- Node3&#45;&gt;Node4 -->
<g id="edge3" class="edge">
<title>Node3&#45;&gt;Node4</title>
<path fill="none" stroke="midnightblue" d="M539.26,-185.28C524.15,-187.85 504.7,-191.14 488.06,-193.97"/>
<polygon fill="midnightblue" stroke="midnightblue" points="540.12,-188.69 549.4,-183.56 538.95,-181.78 540.12,-188.69"/>
</g>
<!-- Node12 -->
<g id="node12" class="node">
<title>Node12</title>
<g id="a_node12"><a xlink:href="platform_8c.html#ab518f1443eb1cdfa46deda54dca8c7fc" target="_top" xlink:title=" ">
<polygon fill="none" stroke="black" points="416.5,-152.5 416.5,-171.5 486.5,-171.5 486.5,-152.5 416.5,-152.5"/>
<text text-anchor="middle" x="451.5" y="-159.5" font-family="Helvetica,sans-Serif" font-size="10.00">init_platform</text>
</a>
</g>
</g>
<!-- Node3&#45;&gt;Node12 -->
<g id="edge11" class="edge">
<title>Node3&#45;&gt;Node12</title>
<path fill="none" stroke="midnightblue" d="M539.46,-176.75C523.89,-174.11 503.67,-170.68 486.64,-167.79"/>
<polygon fill="midnightblue" stroke="midnightblue" points="538.95,-180.22 549.4,-178.44 540.12,-173.31 538.95,-180.22"/>
</g>
<!-- Node5 -->
<g id="node5" class="node">
<title>Node5</title>
<g id="a_node5"><a xlink:href="input_8c.html#a02d166c8d2549e580fd16379de9e80f1" target="_top" xlink:title=" ">
<polygon fill="none" stroke="black" points="294,-190.5 294,-209.5 379,-209.5 379,-190.5 294,-190.5"/>
<text text-anchor="middle" x="336.5" y="-197.5" font-family="Helvetica,sans-Serif" font-size="10.00">__am_input_init</text>
</a>
</g>
</g>
<!-- Node4&#45;&gt;Node5 -->
<g id="edge4" class="edge">
<title>Node4&#45;&gt;Node5</title>
<path fill="none" stroke="midnightblue" d="M404.72,-200C396.33,-200 387.61,-200 379.34,-200"/>
<polygon fill="midnightblue" stroke="midnightblue" points="404.75,-203.5 414.75,-200 404.75,-196.5 404.75,-203.5"/>
</g>
<!-- Node6 -->
<g id="node6" class="node">
<title>Node6</title>
<g id="a_node6"><a xlink:href="native_2ioe_8c.html#a85e8849eae1811aa4fa0527476f39782" target="_top" xlink:title=" ">
<polygon fill="none" stroke="black" points="181,-190.5 181,-209.5 258,-209.5 258,-190.5 181,-190.5"/>
<text text-anchor="middle" x="219.5" y="-197.5" font-family="Helvetica,sans-Serif" font-size="10.00">__am_ioe_init</text>
</a>
</g>
</g>
<!-- Node5&#45;&gt;Node6 -->
<g id="edge5" class="edge">
<title>Node5&#45;&gt;Node6</title>
<path fill="none" stroke="midnightblue" d="M283.92,-200C275.24,-200 266.38,-200 258.14,-200"/>
<polygon fill="midnightblue" stroke="midnightblue" points="283.98,-203.5 293.98,-200 283.98,-196.5 283.98,-203.5"/>
</g>
<!-- Node7 -->
<g id="node7" class="node">
<title>Node7</title>
<g id="a_node7"><a xlink:href="native_2ioe_8c.html#ac7243d0dd8589da2317ee06ee132c2f0" target="_top" xlink:title=" ">
<polygon fill="none" stroke="black" points="98.5,-209.5 98.5,-228.5 138.5,-228.5 138.5,-209.5 98.5,-209.5"/>
<text text-anchor="middle" x="118.5" y="-216.5" font-family="Helvetica,sans-Serif" font-size="10.00">do_io</text>
</a>
</g>
</g>
<!-- Node6&#45;&gt;Node7 -->
<g id="edge6" class="edge">
<title>Node6&#45;&gt;Node7</title>
<path fill="none" stroke="midnightblue" d="M170.83,-209.15C159.38,-211.35 147.81,-213.57 138.56,-215.34"/>
<polygon fill="midnightblue" stroke="midnightblue" points="171.63,-212.56 180.79,-207.24 170.31,-205.68 171.63,-212.56"/>
</g>
<!-- Node10 -->
<g id="node10" class="node">
<title>Node10</title>
<g id="a_node10"><a xlink:href="x86_2qemu_2mpe_8c.html#a2e4a724e2d067425ff3fd49bc0bf42e1" target="_top" xlink:title=" ">
<polygon fill="none" stroke="black" points="92,-171.5 92,-190.5 145,-190.5 145,-171.5 92,-171.5"/>
<text text-anchor="middle" x="118.5" y="-178.5" font-family="Helvetica,sans-Serif" font-size="10.00">mpe_init</text>
</a>
</g>
</g>
<!-- Node6&#45;&gt;Node10 -->
<g id="edge9" class="edge">
<title>Node6&#45;&gt;Node10</title>
<path fill="none" stroke="midnightblue" d="M170.86,-190.86C161.98,-189.15 153.03,-187.43 145.13,-185.92"/>
<polygon fill="midnightblue" stroke="midnightblue" points="170.31,-194.32 180.79,-192.76 171.63,-187.44 170.31,-194.32"/>
</g>
<!-- Node8 -->
<g id="node8" class="node">
<title>Node8</title>
<g id="a_node8"><a xlink:href="x86_2qemu_2ioe_8c.html#a9e4d8844a1b291f3594ac00297a918a4" target="_top" xlink:title=" ">
<polygon fill="none" stroke="black" points="1.5,-247.5 1.5,-266.5 54.5,-266.5 54.5,-247.5 1.5,-247.5"/>
<text text-anchor="middle" x="28" y="-254.5" font-family="Helvetica,sans-Serif" font-size="10.00">ioe_read</text>
</a>
</g>
</g>
<!-- Node7&#45;&gt;Node8 -->
<g id="edge7" class="edge">
<title>Node7&#45;&gt;Node8</title>
<path fill="none" stroke="midnightblue" d="M88.98,-231.24C76.77,-236.49 62.72,-242.52 51.29,-247.43"/>
<polygon fill="midnightblue" stroke="midnightblue" points="90.49,-234.41 98.3,-227.25 87.73,-227.97 90.49,-234.41"/>
</g>
<!-- Node9 -->
<g id="node9" class="node">
<title>Node9</title>
<g id="a_node9"><a xlink:href="x86_2qemu_2ioe_8c.html#ad1964375eeefa10b564a3bf2bd322db0" target="_top" xlink:title=" ">
<polygon fill="none" stroke="black" points="0,-209.5 0,-228.5 56,-228.5 56,-209.5 0,-209.5"/>
<text text-anchor="middle" x="28" y="-216.5" font-family="Helvetica,sans-Serif" font-size="10.00">ioe_write</text>
</a>
</g>
</g>
<!-- Node7&#45;&gt;Node9 -->
<g id="edge8" class="edge">
<title>Node7&#45;&gt;Node9</title>
<path fill="none" stroke="midnightblue" d="M88.12,-219C77.83,-219 66.33,-219 56.22,-219"/>
<polygon fill="midnightblue" stroke="midnightblue" points="88.3,-222.5 98.3,-219 88.3,-215.5 88.3,-222.5"/>
</g>
<!-- Node11 -->
<g id="node11" class="node">
<title>Node11</title>
<g id="a_node11"><a xlink:href="kernel_2framework_2main_8c.html#ae66f6b31b5ad750f1fe042a706a4e3d4" target="_top" xlink:title=" ">
<polygon fill="none" stroke="black" points="9,-171.5 9,-190.5 47,-190.5 47,-171.5 9,-171.5"/>
<text text-anchor="middle" x="28" y="-178.5" font-family="Helvetica,sans-Serif" font-size="10.00">main</text>
</a>
</g>
</g>
<!-- Node10&#45;&gt;Node11 -->
<g id="edge10" class="edge">
<title>Node10&#45;&gt;Node11</title>
<path fill="none" stroke="midnightblue" d="M81.79,-181C69.93,-181 57.21,-181 47.24,-181"/>
<polygon fill="midnightblue" stroke="midnightblue" points="81.9,-184.5 91.9,-181 81.9,-177.5 81.9,-184.5"/>
</g>
<!-- Node16 -->
<g id="node16" class="node">
<title>Node16</title>
<g id="a_node16"><a xlink:href="os_8c.html#aafec7046aa50c914df86d0d22d4fc1d1" target="_top" xlink:title=" ">
<polygon fill="none" stroke="black" points="524,-38.5 524,-57.5 607,-57.5 607,-38.5 524,-38.5"/>
<text text-anchor="middle" x="565.5" y="-45.5" font-family="Helvetica,sans-Serif" font-size="10.00">MODULE_DEF</text>
</a>
</g>
</g>
<!-- Node15&#45;&gt;Node16 -->
<g id="edge16" class="edge">
<title>Node15&#45;&gt;Node16</title>
<path fill="none" stroke="midnightblue" d="M665.64,-48C648,-48 626,-48 607.21,-48"/>
<polygon fill="midnightblue" stroke="midnightblue" points="665.99,-51.5 675.99,-48 665.99,-44.5 665.99,-51.5"/>
</g>
</g>
</svg>
