<?xml version="1.0" encoding="UTF-8" standalone="no"?>
<!DOCTYPE svg PUBLIC "-//W3C//DTD SVG 1.1//EN"
 "http://www.w3.org/Graphics/SVG/1.1/DTD/svg11.dtd">
<!-- Generated by graphviz version 3.0.0 (20220413.0106)
 -->
<!-- Title: mpe_init Pages: 1 -->
<svg width="278pt" height="199pt"
 viewBox="0.00 0.00 278.00 199.00" xmlns="http://www.w3.org/2000/svg" xmlns:xlink="http://www.w3.org/1999/xlink">
<g id="graph0" class="graph" transform="scale(1 1) rotate(0) translate(4 195)">
<title>mpe_init</title>
<!-- Node1 -->
<g id="node1" class="node">
<title>Node1</title>
<g id="a_node1"><a xlink:title=" ">
<polygon fill="#bfbfbf" stroke="black" points="0,-76.5 0,-95.5 53,-95.5 53,-76.5 0,-76.5"/>
<text text-anchor="middle" x="26.5" y="-83.5" font-family="Helvetica,sans-Serif" font-size="10.00">mpe_init</text>
</a>
</g>
</g>
<!-- Node2 -->
<g id="node2" class="node">
<title>Node2</title>
<g id="a_node2"><a xlink:href="ioe_8c.html#a88a238fee7cd006afa69ea97e4914a09" target="_top" xlink:title=" ">
<polygon fill="none" stroke="black" points="89,-152.5 89,-171.5 190,-171.5 190,-152.5 89,-152.5"/>
<text text-anchor="middle" x="139.5" y="-159.5" font-family="Helvetica,sans-Serif" font-size="10.00">__am_lapic_bootap</text>
</a>
</g>
</g>
<!-- Node1&#45;&gt;Node2 -->
<g id="edge1" class="edge">
<title>Node1&#45;&gt;Node2</title>
<path fill="none" stroke="midnightblue" d="M35.77,-95.68C46.81,-108.09 67.5,-129.61 89,-143 92.11,-144.94 95.46,-146.73 98.88,-148.38"/>
<polygon fill="midnightblue" stroke="midnightblue" points="97.48,-151.59 108.05,-152.41 100.3,-145.18 97.48,-151.59"/>
</g>
<!-- Node5 -->
<g id="node5" class="node">
<title>Node5</title>
<g id="a_node5"><a xlink:href="x86_8h.html#adfa01b89ceed9e7a87f185f4e441aa16" target="_top" xlink:title=" ">
<polygon fill="none" stroke="black" points="105.5,-114.5 105.5,-133.5 173.5,-133.5 173.5,-114.5 105.5,-114.5"/>
<text text-anchor="middle" x="139.5" y="-121.5" font-family="Helvetica,sans-Serif" font-size="10.00">boot_record</text>
</a>
</g>
</g>
<!-- Node1&#45;&gt;Node5 -->
<g id="edge4" class="edge">
<title>Node1&#45;&gt;Node5</title>
<path fill="none" stroke="midnightblue" d="M53.24,-94.81C67.46,-99.68 85.37,-105.81 101.1,-111.2"/>
<polygon fill="midnightblue" stroke="midnightblue" points="99.97,-114.51 110.56,-114.44 102.23,-107.89 99.97,-114.51"/>
</g>
<!-- Node6 -->
<g id="node6" class="node">
<title>Node6</title>
<g id="a_node6"><a xlink:href="mpe_8c.html#afc800fc7438b6762f113c46d25cab75b" target="_top" xlink:title=" ">
<polygon fill="none" stroke="black" points="98.5,-76.5 98.5,-95.5 180.5,-95.5 180.5,-76.5 98.5,-76.5"/>
<text text-anchor="middle" x="139.5" y="-83.5" font-family="Helvetica,sans-Serif" font-size="10.00">call_user_entry</text>
</a>
</g>
</g>
<!-- Node1&#45;&gt;Node6 -->
<g id="edge5" class="edge">
<title>Node1&#45;&gt;Node6</title>
<path fill="none" stroke="midnightblue" d="M53.24,-86C63.65,-86 76.04,-86 88.11,-86"/>
<polygon fill="midnightblue" stroke="midnightblue" points="88.11,-89.5 98.11,-86 88.11,-82.5 88.11,-89.5"/>
</g>
<!-- Node7 -->
<g id="node7" class="node">
<title>Node7</title>
<g id="a_node7"><a xlink:href="x86_8h.html#a2948382efa6ca2d9520fa9bb11a63ff9" target="_top" xlink:title=" ">
<polygon fill="none" stroke="black" points="118,-38.5 118,-57.5 161,-57.5 161,-38.5 118,-38.5"/>
<text text-anchor="middle" x="139.5" y="-45.5" font-family="Helvetica,sans-Serif" font-size="10.00">pause</text>
</a>
</g>
</g>
<!-- Node1&#45;&gt;Node7 -->
<g id="edge6" class="edge">
<title>Node1&#45;&gt;Node7</title>
<path fill="none" stroke="midnightblue" d="M53.24,-77.19C69.63,-71.58 90.92,-64.29 108.13,-58.4"/>
<polygon fill="midnightblue" stroke="midnightblue" points="109.39,-61.66 117.72,-55.11 107.12,-55.04 109.39,-61.66"/>
</g>
<!-- Node8 -->
<g id="node8" class="node">
<title>Node8</title>
<g id="a_node8"><a xlink:href="x86_8h.html#a48b2a6a16dc8d7e09d327aa3803f1112" target="_top" xlink:title=" ">
<polygon fill="none" stroke="black" points="121,-0.5 121,-19.5 158,-19.5 158,-0.5 121,-0.5"/>
<text text-anchor="middle" x="139.5" y="-7.5" font-family="Helvetica,sans-Serif" font-size="10.00">xchg</text>
</a>
</g>
</g>
<!-- Node1&#45;&gt;Node8 -->
<g id="edge7" class="edge">
<title>Node1&#45;&gt;Node8</title>
<path fill="none" stroke="midnightblue" d="M35.77,-76.32C46.81,-63.91 67.5,-42.39 89,-29 95.85,-24.74 103.8,-21.17 111.31,-18.31"/>
<polygon fill="midnightblue" stroke="midnightblue" points="112.52,-21.6 120.79,-14.98 110.19,-15 112.52,-21.6"/>
</g>
<!-- Node3 -->
<g id="node3" class="node">
<title>Node3</title>
<g id="a_node3"><a xlink:href="ioe_8c.html#a72d9ed0bfe1066367763e044b7a7b7c3" target="_top" xlink:title=" ">
<polygon fill="none" stroke="black" points="226,-171.5 226,-190.5 270,-190.5 270,-171.5 226,-171.5"/>
<text text-anchor="middle" x="248" y="-178.5" font-family="Helvetica,sans-Serif" font-size="10.00">lapicw</text>
</a>
</g>
</g>
<!-- Node2&#45;&gt;Node3 -->
<g id="edge2" class="edge">
<title>Node2&#45;&gt;Node3</title>
<path fill="none" stroke="midnightblue" d="M190.01,-170.83C198.77,-172.4 207.67,-173.98 215.75,-175.42"/>
<polygon fill="midnightblue" stroke="midnightblue" points="215.36,-178.91 225.82,-177.22 216.59,-172.02 215.36,-178.91"/>
</g>
<!-- Node4 -->
<g id="node4" class="node">
<title>Node4</title>
<g id="a_node4"><a xlink:href="x86_8h.html#ade961b44e45ddacbc3c3b7609cf36dc6" target="_top" xlink:title=" ">
<polygon fill="none" stroke="black" points="230.5,-133.5 230.5,-152.5 265.5,-152.5 265.5,-133.5 230.5,-133.5"/>
<text text-anchor="middle" x="248" y="-140.5" font-family="Helvetica,sans-Serif" font-size="10.00">outb</text>
</a>
</g>
</g>
<!-- Node2&#45;&gt;Node4 -->
<g id="edge3" class="edge">
<title>Node2&#45;&gt;Node4</title>
<path fill="none" stroke="midnightblue" d="M190.01,-153.17C200.47,-151.3 211.13,-149.4 220.35,-147.75"/>
<polygon fill="midnightblue" stroke="midnightblue" points="221.2,-151.16 230.43,-145.96 219.97,-144.27 221.2,-151.16"/>
</g>
</g>
</svg>
