<?xml version="1.0" encoding="UTF-8" standalone="no"?>
<!DOCTYPE svg PUBLIC "-//W3C//DTD SVG 1.1//EN"
 "http://www.w3.org/Graphics/SVG/1.1/DTD/svg11.dtd">
<!-- Generated by graphviz version 2.50.0 (20220203.2022)
 -->
<!-- Title: halt Pages: 1 -->
<svg width="405pt" height="313pt"
 viewBox="0.00 0.00 405.00 313.00" xmlns="http://www.w3.org/2000/svg" xmlns:xlink="http://www.w3.org/1999/xlink">
<g id="graph0" class="graph" transform="scale(1 1) rotate(0) translate(4 309)">
<title>halt</title>
<!-- Node1 -->
<g id="node1" class="node">
<title>Node1</title>
<g id="a_node1"><a xlink:title=" ">
<polygon fill="#bfbfbf" stroke="black" points="0,-133.5 0,-152.5 32,-152.5 32,-133.5 0,-133.5"/>
<text text-anchor="middle" x="16" y="-140.5" font-family="Helvetica,sans-Serif" font-size="10.00">halt</text>
</a>
</g>
</g>
<!-- Node2 -->
<g id="node2" class="node">
<title>Node2</title>
<g id="a_node2"><a xlink:href="platform_8c.html#a66cf43dfc7e13b3775d6d2040722da59" target="_top" xlink:title=" ">
<polygon fill="none" stroke="black" points="73.5,-275.5 73.5,-294.5 174.5,-294.5 174.5,-275.5 73.5,-275.5"/>
<text text-anchor="middle" x="124" y="-282.5" font-family="Helvetica,sans-Serif" font-size="10.00">__am_exit_platform</text>
</a>
</g>
</g>
<!-- Node1&#45;&gt;Node2 -->
<g id="edge1" class="edge">
<title>Node1&#45;&gt;Node2</title>
<path fill="none" stroke="midnightblue" d="M19.04,-152.79C23.94,-174.19 38.27,-225.73 68,-257 73.18,-262.44 79.65,-267.01 86.31,-270.76"/>
<polygon fill="midnightblue" stroke="midnightblue" points="84.91,-273.98 95.41,-275.39 88.08,-267.74 84.91,-273.98"/>
</g>
<!-- Node4 -->
<g id="node4" class="node">
<title>Node4</title>
<g id="a_node4"><a xlink:href="x86_2qemu_2mpe_8c.html#a0a540532023afb1f31b6f21ce053483b" target="_top" xlink:title=" ">
<polygon fill="none" stroke="black" points="68,-228.5 68,-247.5 180,-247.5 180,-228.5 68,-228.5"/>
<text text-anchor="middle" x="124" y="-235.5" font-family="Helvetica,sans-Serif" font-size="10.00">__am_stop_the_world</text>
</a>
</g>
</g>
<!-- Node1&#45;&gt;Node4 -->
<g id="edge3" class="edge">
<title>Node1&#45;&gt;Node4</title>
<path fill="none" stroke="midnightblue" d="M20.99,-152.64C28.1,-168.68 44.46,-200.87 68,-219 70.33,-220.79 72.83,-222.42 75.45,-223.9"/>
<polygon fill="midnightblue" stroke="midnightblue" points="74.14,-227.16 84.67,-228.39 77.21,-220.86 74.14,-227.16"/>
</g>
<!-- Node10 -->
<g id="node10" class="node">
<title>Node10</title>
<g id="a_node10"><a xlink:href="x86_8h.html#acc919e7809ef1db2b20aa3804f540b5c" target="_top" xlink:title=" ">
<polygon fill="none" stroke="black" points="109.5,-190.5 109.5,-209.5 138.5,-209.5 138.5,-190.5 109.5,-190.5"/>
<text text-anchor="middle" x="124" y="-197.5" font-family="Helvetica,sans-Serif" font-size="10.00">cli</text>
</a>
</g>
</g>
<!-- Node1&#45;&gt;Node10 -->
<g id="edge9" class="edge">
<title>Node1&#45;&gt;Node10</title>
<path fill="none" stroke="midnightblue" d="M27.68,-152.5C37.57,-160.91 52.97,-173.05 68,-181 77.94,-186.26 89.64,-190.54 99.68,-193.69"/>
<polygon fill="midnightblue" stroke="midnightblue" points="98.83,-197.09 109.41,-196.57 100.81,-190.38 98.83,-197.09"/>
</g>
<!-- Node11 -->
<g id="node11" class="node">
<title>Node11</title>
<g id="a_node11"><a xlink:href="x86_2qemu_2mpe_8c.html#ab701de78cad32896c923ce900087e714" target="_top" xlink:title=" ">
<polygon fill="none" stroke="black" points="90,-152.5 90,-171.5 158,-171.5 158,-152.5 90,-152.5"/>
<text text-anchor="middle" x="124" y="-159.5" font-family="Helvetica,sans-Serif" font-size="10.00">cpu_current</text>
</a>
</g>
</g>
<!-- Node1&#45;&gt;Node11 -->
<g id="edge10" class="edge">
<title>Node1&#45;&gt;Node11</title>
<path fill="none" stroke="midnightblue" d="M32.19,-145.72C44.61,-147.95 62.81,-151.21 79.66,-154.23"/>
<polygon fill="midnightblue" stroke="midnightblue" points="79.46,-157.75 89.92,-156.07 80.69,-150.86 79.46,-157.75"/>
</g>
<!-- Node12 -->
<g id="node12" class="node">
<title>Node12</title>
<g id="a_node12"><a xlink:href="x86_8h.html#a2adfe40c0aadff727889d263815cb8ed" target="_top" xlink:title=" ">
<polygon fill="none" stroke="black" points="109.5,-114.5 109.5,-133.5 138.5,-133.5 138.5,-114.5 109.5,-114.5"/>
<text text-anchor="middle" x="124" y="-121.5" font-family="Helvetica,sans-Serif" font-size="10.00">hlt</text>
</a>
</g>
</g>
<!-- Node1&#45;&gt;Node12 -->
<g id="edge11" class="edge">
<title>Node1&#45;&gt;Node12</title>
<path fill="none" stroke="midnightblue" d="M32.19,-140.28C49.66,-137.15 78.56,-131.97 99.06,-128.29"/>
<polygon fill="midnightblue" stroke="midnightblue" points="99.96,-131.68 109.19,-126.48 98.73,-124.79 99.96,-131.68"/>
</g>
<!-- Node13 -->
<g id="node13" class="node">
<title>Node13</title>
<g id="a_node13"><a xlink:href="x86_8h.html#af92fc55c49437b9152499a13ba2b6585" target="_top" xlink:title=" ">
<polygon fill="none" stroke="black" points="105,-76.5 105,-95.5 143,-95.5 143,-76.5 105,-76.5"/>
<text text-anchor="middle" x="124" y="-83.5" font-family="Helvetica,sans-Serif" font-size="10.00">outw</text>
</a>
</g>
</g>
<!-- Node1&#45;&gt;Node13 -->
<g id="edge12" class="edge">
<title>Node1&#45;&gt;Node13</title>
<path fill="none" stroke="midnightblue" d="M27.68,-133.5C37.57,-125.09 52.97,-112.95 68,-105 76.5,-100.5 86.28,-96.73 95.22,-93.75"/>
<polygon fill="midnightblue" stroke="midnightblue" points="96.34,-97.07 104.83,-90.74 94.25,-90.39 96.34,-97.07"/>
</g>
<!-- Node14 -->
<g id="node14" class="node">
<title>Node14</title>
<g id="a_node14"><a xlink:href="stdio_8c.html#a55f3d956bb2ba20b5059e9e25484a47f" target="_top" xlink:title=" ">
<polygon fill="none" stroke="black" points="105,-38.5 105,-57.5 143,-57.5 143,-38.5 105,-38.5"/>
<text text-anchor="middle" x="124" y="-45.5" font-family="Helvetica,sans-Serif" font-size="10.00">printf</text>
</a>
</g>
</g>
<!-- Node1&#45;&gt;Node14 -->
<g id="edge13" class="edge">
<title>Node1&#45;&gt;Node14</title>
<path fill="none" stroke="midnightblue" d="M20.99,-133.36C28.1,-117.32 44.46,-85.13 68,-67 75.94,-60.89 85.97,-56.66 95.3,-53.78"/>
<polygon fill="midnightblue" stroke="midnightblue" points="96.26,-57.14 105,-51.14 94.43,-50.38 96.26,-57.14"/>
</g>
<!-- Node15 -->
<g id="node15" class="node">
<title>Node15</title>
<g id="a_node15"><a xlink:href="native_2trm_8c.html#a6351d8706733262e7e325926b1a9aab7" target="_top" xlink:title=" ">
<polygon fill="none" stroke="black" points="103.5,-0.5 103.5,-19.5 144.5,-19.5 144.5,-0.5 103.5,-0.5"/>
<text text-anchor="middle" x="124" y="-7.5" font-family="Helvetica,sans-Serif" font-size="10.00">putch</text>
</a>
</g>
</g>
<!-- Node1&#45;&gt;Node15 -->
<g id="edge14" class="edge">
<title>Node1&#45;&gt;Node15</title>
<path fill="none" stroke="midnightblue" d="M18.66,-133.23C22.88,-111.39 36.02,-58.28 68,-29 75.09,-22.51 84.51,-18.22 93.55,-15.39"/>
<polygon fill="midnightblue" stroke="midnightblue" points="94.67,-18.71 103.45,-12.77 92.89,-11.94 94.67,-18.71"/>
</g>
<!-- Node3 -->
<g id="node3" class="node">
<title>Node3</title>
<g id="a_node3"><a xlink:href="x86_2qemu_2mpe_8c.html#af486ec575d47720d28eee63644206110" target="_top" xlink:title=" ">
<polygon fill="none" stroke="black" points="235.5,-285.5 235.5,-304.5 297.5,-304.5 297.5,-285.5 235.5,-285.5"/>
<text text-anchor="middle" x="266.5" y="-292.5" font-family="Helvetica,sans-Serif" font-size="10.00">cpu_count</text>
</a>
</g>
</g>
<!-- Node2&#45;&gt;Node3 -->
<g id="edge2" class="edge">
<title>Node2&#45;&gt;Node3</title>
<path fill="none" stroke="midnightblue" d="M174.54,-288.53C191.13,-289.71 209.41,-291.01 225.21,-292.13"/>
<polygon fill="midnightblue" stroke="midnightblue" points="224.96,-295.62 235.19,-292.84 225.46,-288.64 224.96,-295.62"/>
</g>
<!-- Node5 -->
<g id="node5" class="node">
<title>Node5</title>
<g id="a_node5"><a xlink:href="x86_2qemu_2ioe_8c.html#a88a238fee7cd006afa69ea97e4914a09" target="_top" xlink:title=" ">
<polygon fill="none" stroke="black" points="216,-247.5 216,-266.5 317,-266.5 317,-247.5 216,-247.5"/>
<text text-anchor="middle" x="266.5" y="-254.5" font-family="Helvetica,sans-Serif" font-size="10.00">__am_lapic_bootap</text>
</a>
</g>
</g>
<!-- Node4&#45;&gt;Node5 -->
<g id="edge4" class="edge">
<title>Node4&#45;&gt;Node5</title>
<path fill="none" stroke="midnightblue" d="M180.13,-245.45C188.43,-246.58 197.04,-247.74 205.44,-248.88"/>
<polygon fill="midnightblue" stroke="midnightblue" points="205.18,-252.38 215.56,-250.25 206.12,-245.44 205.18,-252.38"/>
</g>
<!-- Node8 -->
<g id="node8" class="node">
<title>Node8</title>
<g id="a_node8"><a xlink:href="x86_8h.html#adfa01b89ceed9e7a87f185f4e441aa16" target="_top" xlink:title=" ">
<polygon fill="none" stroke="black" points="232.5,-209.5 232.5,-228.5 300.5,-228.5 300.5,-209.5 232.5,-209.5"/>
<text text-anchor="middle" x="266.5" y="-216.5" font-family="Helvetica,sans-Serif" font-size="10.00">boot_record</text>
</a>
</g>
</g>
<!-- Node4&#45;&gt;Node8 -->
<g id="edge7" class="edge">
<title>Node4&#45;&gt;Node8</title>
<path fill="none" stroke="midnightblue" d="M180.13,-230.55C194.08,-228.66 208.87,-226.66 222.14,-224.86"/>
<polygon fill="midnightblue" stroke="midnightblue" points="222.98,-228.28 232.42,-223.47 222.05,-221.34 222.98,-228.28"/>
</g>
<!-- Node9 -->
<g id="node9" class="node">
<title>Node9</title>
<g id="a_node9"><a xlink:href="native_2mpe_8c.html#a806195bfb27a695274680a7ab6400663" target="_top" xlink:title=" ">
<polygon fill="none" stroke="black" points="232.5,-171.5 232.5,-190.5 300.5,-190.5 300.5,-171.5 232.5,-171.5"/>
<text text-anchor="middle" x="266.5" y="-178.5" font-family="Helvetica,sans-Serif" font-size="10.00">cpu_current</text>
</a>
</g>
</g>
<!-- Node4&#45;&gt;Node9 -->
<g id="edge8" class="edge">
<title>Node4&#45;&gt;Node9</title>
<path fill="none" stroke="midnightblue" d="M155.29,-228.47C163.41,-225.66 172.12,-222.42 180,-219 196.6,-211.8 199.53,-207.48 216,-200 220.22,-198.09 224.69,-196.19 229.15,-194.38"/>
<polygon fill="midnightblue" stroke="midnightblue" points="230.78,-197.5 238.8,-190.58 228.21,-190.99 230.78,-197.5"/>
</g>
<!-- Node6 -->
<g id="node6" class="node">
<title>Node6</title>
<g id="a_node6"><a xlink:href="x86_2qemu_2ioe_8c.html#a72d9ed0bfe1066367763e044b7a7b7c3" target="_top" xlink:title=" ">
<polygon fill="none" stroke="black" points="353,-266.5 353,-285.5 397,-285.5 397,-266.5 353,-266.5"/>
<text text-anchor="middle" x="375" y="-273.5" font-family="Helvetica,sans-Serif" font-size="10.00">lapicw</text>
</a>
</g>
</g>
<!-- Node5&#45;&gt;Node6 -->
<g id="edge5" class="edge">
<title>Node5&#45;&gt;Node6</title>
<path fill="none" stroke="midnightblue" d="M317.01,-265.83C325.77,-267.4 334.67,-268.98 342.75,-270.42"/>
<polygon fill="midnightblue" stroke="midnightblue" points="342.36,-273.91 352.82,-272.22 343.59,-267.02 342.36,-273.91"/>
</g>
<!-- Node7 -->
<g id="node7" class="node">
<title>Node7</title>
<g id="a_node7"><a xlink:href="x86_8h.html#ade961b44e45ddacbc3c3b7609cf36dc6" target="_top" xlink:title=" ">
<polygon fill="none" stroke="black" points="357.5,-228.5 357.5,-247.5 392.5,-247.5 392.5,-228.5 357.5,-228.5"/>
<text text-anchor="middle" x="375" y="-235.5" font-family="Helvetica,sans-Serif" font-size="10.00">outb</text>
</a>
</g>
</g>
<!-- Node5&#45;&gt;Node7 -->
<g id="edge6" class="edge">
<title>Node5&#45;&gt;Node7</title>
<path fill="none" stroke="midnightblue" d="M317.01,-248.17C327.47,-246.3 338.13,-244.4 347.35,-242.75"/>
<polygon fill="midnightblue" stroke="midnightblue" points="348.2,-246.16 357.43,-240.96 346.97,-239.27 348.2,-246.16"/>
</g>
</g>
</svg>
