<?xml version="1.0" encoding="UTF-8" standalone="no"?>
<!DOCTYPE svg PUBLIC "-//W3C//DTD SVG 1.1//EN"
 "http://www.w3.org/Graphics/SVG/1.1/DTD/svg11.dtd">
<!-- Generated by graphviz version 2.50.0 (20220203.2022)
 -->
<!-- Title: abstract&#45;machine/am/include/am.h Pages: 1 -->
<svg width="1545pt" height="229pt"
 viewBox="0.00 0.00 1545.00 229.00" xmlns="http://www.w3.org/2000/svg" xmlns:xlink="http://www.w3.org/1999/xlink">
<g id="graph0" class="graph" transform="scale(1 1) rotate(0) translate(4 225)">
<title>abstract&#45;machine/am/include/am.h</title>
<!-- Node1 -->
<g id="node1" class="node">
<title>Node1</title>
<g id="a_node1"><a xlink:title=" ">
<polygon fill="#bfbfbf" stroke="black" points="453,-190.5 453,-220.5 561,-220.5 561,-190.5 453,-190.5"/>
<text text-anchor="start" x="461" y="-208.5" font-family="Helvetica,sans-Serif" font-size="10.00">abstract&#45;machine/am</text>
<text text-anchor="middle" x="507" y="-197.5" font-family="Helvetica,sans-Serif" font-size="10.00">/include/am.h</text>
</a>
</g>
</g>
<!-- Node2 -->
<g id="node2" class="node">
<title>Node2</title>
<g id="a_node2"><a xlink:href="x86-qemu_8h.html" target="_top" xlink:title=" ">
<polygon fill="none" stroke="black" points="911.5,-123.5 911.5,-153.5 1042.5,-153.5 1042.5,-123.5 911.5,-123.5"/>
<text text-anchor="start" x="919.5" y="-141.5" font-family="Helvetica,sans-Serif" font-size="10.00">abstract&#45;machine/am</text>
<text text-anchor="middle" x="977" y="-130.5" font-family="Helvetica,sans-Serif" font-size="10.00">/src/x86/qemu/x86&#45;qemu.h</text>
</a>
</g>
</g>
<!-- Node1&#45;&gt;Node2 -->
<g id="edge1" class="edge">
<title>Node1&#45;&gt;Node2</title>
<path fill="none" stroke="midnightblue" d="M571.38,-195.6C660.74,-183.24 821.5,-161.01 911.47,-148.56"/>
<polygon fill="midnightblue" stroke="midnightblue" points="570.8,-192.14 561.37,-196.98 571.76,-199.08 570.8,-192.14"/>
</g>
<!-- Node8 -->
<g id="node8" class="node">
<title>Node8</title>
<g id="a_node8"><a xlink:href="klib_8h.html" target="_top" xlink:title=" ">
<polygon fill="none" stroke="black" points="384,-123.5 384,-153.5 494,-153.5 494,-123.5 384,-123.5"/>
<text text-anchor="start" x="392" y="-141.5" font-family="Helvetica,sans-Serif" font-size="10.00">abstract&#45;machine/klib</text>
<text text-anchor="middle" x="439" y="-130.5" font-family="Helvetica,sans-Serif" font-size="10.00">/include/klib.h</text>
</a>
</g>
</g>
<!-- Node1&#45;&gt;Node8 -->
<g id="edge7" class="edge">
<title>Node1&#45;&gt;Node8</title>
<path fill="none" stroke="midnightblue" d="M484.83,-183.31C474.63,-173.56 462.81,-162.26 453.73,-153.58"/>
<polygon fill="midnightblue" stroke="midnightblue" points="482.6,-186.02 492.25,-190.4 487.43,-180.96 482.6,-186.02"/>
</g>
<!-- Node9 -->
<g id="node9" class="node">
<title>Node9</title>
<g id="a_node9"><a xlink:href="cpp_8c.html" target="_top" xlink:title=" ">
<polygon fill="none" stroke="black" points="0,-56.5 0,-86.5 110,-86.5 110,-56.5 0,-56.5"/>
<text text-anchor="start" x="8" y="-74.5" font-family="Helvetica,sans-Serif" font-size="10.00">abstract&#45;machine/klib</text>
<text text-anchor="middle" x="55" y="-63.5" font-family="Helvetica,sans-Serif" font-size="10.00">/src/cpp.c</text>
</a>
</g>
</g>
<!-- Node1&#45;&gt;Node9 -->
<g id="edge19" class="edge">
<title>Node1&#45;&gt;Node9</title>
<path fill="none" stroke="midnightblue" d="M442.62,-193.42C394.8,-184.55 328.23,-170.82 271,-154 204.67,-134.51 129.65,-104.28 87.78,-86.63"/>
<polygon fill="midnightblue" stroke="midnightblue" points="442.06,-196.88 452.53,-195.24 443.32,-190 442.06,-196.88"/>
</g>
<!-- Node10 -->
<g id="node10" class="node">
<title>Node10</title>
<g id="a_node10"><a xlink:href="stdio_8c.html" target="_top" xlink:title=" ">
<polygon fill="none" stroke="black" points="128,-56.5 128,-86.5 238,-86.5 238,-56.5 128,-56.5"/>
<text text-anchor="start" x="136" y="-74.5" font-family="Helvetica,sans-Serif" font-size="10.00">abstract&#45;machine/klib</text>
<text text-anchor="middle" x="183" y="-63.5" font-family="Helvetica,sans-Serif" font-size="10.00">/src/stdio.c</text>
</a>
</g>
</g>
<!-- Node1&#45;&gt;Node10 -->
<g id="edge21" class="edge">
<title>Node1&#45;&gt;Node10</title>
<path fill="none" stroke="midnightblue" d="M442.81,-187.9C411.62,-179.1 373.87,-167.35 341,-154 291.81,-134.02 237.4,-104.1 206.98,-86.61"/>
<polygon fill="midnightblue" stroke="midnightblue" points="442.12,-191.34 452.69,-190.65 444,-184.6 442.12,-191.34"/>
</g>
<!-- Node11 -->
<g id="node11" class="node">
<title>Node11</title>
<g id="a_node11"><a xlink:href="stdlib_8c.html" target="_top" xlink:title=" ">
<polygon fill="none" stroke="black" points="256,-56.5 256,-86.5 366,-86.5 366,-56.5 256,-56.5"/>
<text text-anchor="start" x="264" y="-74.5" font-family="Helvetica,sans-Serif" font-size="10.00">abstract&#45;machine/klib</text>
<text text-anchor="middle" x="311" y="-63.5" font-family="Helvetica,sans-Serif" font-size="10.00">/src/stdlib.c</text>
</a>
</g>
</g>
<!-- Node1&#45;&gt;Node11 -->
<g id="edge22" class="edge">
<title>Node1&#45;&gt;Node11</title>
<path fill="none" stroke="midnightblue" d="M443.29,-187.87C420.38,-179.97 395.22,-168.91 375,-154 349.8,-135.43 329.29,-104.45 318.74,-86.51"/>
<polygon fill="midnightblue" stroke="midnightblue" points="442.36,-191.25 452.95,-191.07 444.56,-184.6 442.36,-191.25"/>
</g>
<!-- Node17 -->
<g id="node17" class="node">
<title>Node17</title>
<g id="a_node17"><a xlink:href="logger_8h.html" target="_top" xlink:title=" ">
<polygon fill="none" stroke="black" points="1061,-123.5 1061,-153.5 1171,-153.5 1171,-123.5 1061,-123.5"/>
<text text-anchor="start" x="1069" y="-141.5" font-family="Helvetica,sans-Serif" font-size="10.00">abstract&#45;machine/klib</text>
<text text-anchor="middle" x="1116" y="-130.5" font-family="Helvetica,sans-Serif" font-size="10.00">/include/logger.h</text>
</a>
</g>
</g>
<!-- Node1&#45;&gt;Node17 -->
<g id="edge17" class="edge">
<title>Node1&#45;&gt;Node17</title>
<path fill="none" stroke="midnightblue" d="M571.49,-201.17C673.68,-195.3 878.88,-181.07 1051,-154 1054.2,-153.5 1057.47,-152.93 1060.77,-152.32"/>
<polygon fill="midnightblue" stroke="midnightblue" points="571.12,-197.68 561.33,-201.75 571.51,-204.67 571.12,-197.68"/>
</g>
<!-- Node19 -->
<g id="node19" class="node">
<title>Node19</title>
<g id="a_node19"><a xlink:href="int64_8c.html" target="_top" xlink:title=" ">
<polygon fill="none" stroke="black" points="1189,-123.5 1189,-153.5 1299,-153.5 1299,-123.5 1189,-123.5"/>
<text text-anchor="start" x="1197" y="-141.5" font-family="Helvetica,sans-Serif" font-size="10.00">abstract&#45;machine/klib</text>
<text text-anchor="middle" x="1244" y="-130.5" font-family="Helvetica,sans-Serif" font-size="10.00">/src/int64.c</text>
</a>
</g>
</g>
<!-- Node1&#45;&gt;Node19 -->
<g id="edge20" class="edge">
<title>Node1&#45;&gt;Node19</title>
<path fill="none" stroke="midnightblue" d="M571.53,-202.83C691.81,-199.02 958.19,-187.26 1180,-154 1182.93,-153.56 1185.92,-153.06 1188.94,-152.52"/>
<polygon fill="midnightblue" stroke="midnightblue" points="571.28,-199.34 561.39,-203.14 571.49,-206.33 571.28,-199.34"/>
</g>
<!-- Node20 -->
<g id="node20" class="node">
<title>Node20</title>
<g id="a_node20"><a xlink:href="kernel_8h.html" target="_top" xlink:title=" ">
<polygon fill="none" stroke="black" points="512,-129 512,-148 640,-148 640,-129 512,-129"/>
<text text-anchor="middle" x="576" y="-136" font-family="Helvetica,sans-Serif" font-size="10.00">kernel/framework/kernel.h</text>
</a>
</g>
</g>
<!-- Node1&#45;&gt;Node20 -->
<g id="edge23" class="edge">
<title>Node1&#45;&gt;Node20</title>
<path fill="none" stroke="midnightblue" d="M529.47,-183.34C542.14,-171.4 557.28,-157.14 566.77,-148.19"/>
<polygon fill="midnightblue" stroke="midnightblue" points="526.85,-180.99 521.97,-190.4 531.65,-186.09 526.85,-180.99"/>
</g>
<!-- Node3 -->
<g id="node3" class="node">
<title>Node3</title>
<g id="a_node3"><a xlink:href="cte_8c.html" target="_top" xlink:title=" ">
<polygon fill="none" stroke="black" points="923,-56.5 923,-86.5 1031,-86.5 1031,-56.5 923,-56.5"/>
<text text-anchor="start" x="931" y="-74.5" font-family="Helvetica,sans-Serif" font-size="10.00">abstract&#45;machine/am</text>
<text text-anchor="middle" x="977" y="-63.5" font-family="Helvetica,sans-Serif" font-size="10.00">/src/x86/qemu/cte.c</text>
</a>
</g>
</g>
<!-- Node2&#45;&gt;Node3 -->
<g id="edge2" class="edge">
<title>Node2&#45;&gt;Node3</title>
<path fill="none" stroke="midnightblue" d="M977,-113.11C977,-104.15 977,-94.32 977,-86.58"/>
<polygon fill="midnightblue" stroke="midnightblue" points="973.5,-113.4 977,-123.4 980.5,-113.4 973.5,-113.4"/>
</g>
<!-- Node4 -->
<g id="node4" class="node">
<title>Node4</title>
<g id="a_node4"><a xlink:href="ioe_8c.html" target="_top" xlink:title=" ">
<polygon fill="none" stroke="black" points="797,-56.5 797,-86.5 905,-86.5 905,-56.5 797,-56.5"/>
<text text-anchor="start" x="805" y="-74.5" font-family="Helvetica,sans-Serif" font-size="10.00">abstract&#45;machine/am</text>
<text text-anchor="middle" x="851" y="-63.5" font-family="Helvetica,sans-Serif" font-size="10.00">/src/x86/qemu/ioe.c</text>
</a>
</g>
</g>
<!-- Node2&#45;&gt;Node4 -->
<g id="edge3" class="edge">
<title>Node2&#45;&gt;Node4</title>
<path fill="none" stroke="midnightblue" d="M940.58,-118.71C920.71,-108.46 896.52,-95.98 878.29,-86.58"/>
<polygon fill="midnightblue" stroke="midnightblue" points="939.17,-121.92 949.66,-123.4 942.38,-115.7 939.17,-121.92"/>
</g>
<!-- Node5 -->
<g id="node5" class="node">
<title>Node5</title>
<g id="a_node5"><a xlink:href="mpe_8c.html" target="_top" xlink:title=" ">
<polygon fill="none" stroke="black" points="1049,-56.5 1049,-86.5 1157,-86.5 1157,-56.5 1049,-56.5"/>
<text text-anchor="start" x="1057" y="-74.5" font-family="Helvetica,sans-Serif" font-size="10.00">abstract&#45;machine/am</text>
<text text-anchor="middle" x="1103" y="-63.5" font-family="Helvetica,sans-Serif" font-size="10.00">/src/x86/qemu/mpe.c</text>
</a>
</g>
</g>
<!-- Node2&#45;&gt;Node5 -->
<g id="edge4" class="edge">
<title>Node2&#45;&gt;Node5</title>
<path fill="none" stroke="midnightblue" d="M1013.42,-118.71C1033.29,-108.46 1057.48,-95.98 1075.71,-86.58"/>
<polygon fill="midnightblue" stroke="midnightblue" points="1011.62,-115.7 1004.34,-123.4 1014.83,-121.92 1011.62,-115.7"/>
</g>
<!-- Node6 -->
<g id="node6" class="node">
<title>Node6</title>
<g id="a_node6"><a xlink:href="trm_8c.html" target="_top" xlink:title=" ">
<polygon fill="none" stroke="black" points="1175,-56.5 1175,-86.5 1283,-86.5 1283,-56.5 1175,-56.5"/>
<text text-anchor="start" x="1183" y="-74.5" font-family="Helvetica,sans-Serif" font-size="10.00">abstract&#45;machine/am</text>
<text text-anchor="middle" x="1229" y="-63.5" font-family="Helvetica,sans-Serif" font-size="10.00">/src/x86/qemu/trm.c</text>
</a>
</g>
</g>
<!-- Node2&#45;&gt;Node6 -->
<g id="edge5" class="edge">
<title>Node2&#45;&gt;Node6</title>
<path fill="none" stroke="midnightblue" d="M1041.06,-120.98C1082.37,-110.32 1135.5,-96.62 1174.73,-86.5"/>
<polygon fill="midnightblue" stroke="midnightblue" points="1040.18,-117.59 1031.37,-123.48 1041.93,-124.37 1040.18,-117.59"/>
</g>
<!-- Node7 -->
<g id="node7" class="node">
<title>Node7</title>
<g id="a_node7"><a xlink:href="vme_8c.html" target="_top" xlink:title=" ">
<polygon fill="none" stroke="black" points="1301,-56.5 1301,-86.5 1409,-86.5 1409,-56.5 1301,-56.5"/>
<text text-anchor="start" x="1309" y="-74.5" font-family="Helvetica,sans-Serif" font-size="10.00">abstract&#45;machine/am</text>
<text text-anchor="middle" x="1355" y="-63.5" font-family="Helvetica,sans-Serif" font-size="10.00">/src/x86/qemu/vme.c</text>
</a>
</g>
</g>
<!-- Node2&#45;&gt;Node7 -->
<g id="edge6" class="edge">
<title>Node2&#45;&gt;Node7</title>
<path fill="none" stroke="midnightblue" d="M1052.75,-122.92C1160,-104.88 1189.14,-106.52 1292,-87 1294.87,-86.46 1297.8,-85.87 1300.76,-85.26"/>
<polygon fill="midnightblue" stroke="midnightblue" points="1052.09,-119.48 1042.82,-124.61 1053.27,-126.39 1052.09,-119.48"/>
</g>
<!-- Node8&#45;&gt;Node4 -->
<g id="edge8" class="edge">
<title>Node8&#45;&gt;Node4</title>
<path fill="none" stroke="midnightblue" d="M504.12,-122.92C630.06,-101.31 664.88,-108.52 787,-87 790.25,-86.43 793.59,-85.8 796.95,-85.13"/>
<polygon fill="midnightblue" stroke="midnightblue" points="503.34,-119.5 494.09,-124.66 504.54,-126.39 503.34,-119.5"/>
</g>
<!-- Node8&#45;&gt;Node9 -->
<g id="edge9" class="edge">
<title>Node8&#45;&gt;Node9</title>
<path fill="none" stroke="midnightblue" d="M373.81,-128.5C308.99,-119.26 206.82,-103.86 119,-87 116.09,-86.44 113.11,-85.85 110.11,-85.23"/>
<polygon fill="midnightblue" stroke="midnightblue" points="373.49,-131.99 383.88,-129.93 374.47,-125.06 373.49,-131.99"/>
</g>
<!-- Node8&#45;&gt;Node10 -->
<g id="edge10" class="edge">
<title>Node8&#45;&gt;Node10</title>
<path fill="none" stroke="midnightblue" d="M373.92,-120.98C331.96,-110.32 277.98,-96.62 238.13,-86.5"/>
<polygon fill="midnightblue" stroke="midnightblue" points="373.21,-124.41 383.77,-123.48 374.94,-117.62 373.21,-124.41"/>
</g>
<!-- Node8&#45;&gt;Node11 -->
<g id="edge11" class="edge">
<title>Node8&#45;&gt;Node11</title>
<path fill="none" stroke="midnightblue" d="M402.28,-118.85C382.04,-108.58 357.33,-96.03 338.72,-86.58"/>
<polygon fill="midnightblue" stroke="midnightblue" points="400.72,-121.99 411.23,-123.4 403.89,-115.75 400.72,-121.99"/>
</g>
<!-- Node12 -->
<g id="node12" class="node">
<title>Node12</title>
<g id="a_node12"><a xlink:href="string_8c.html" target="_top" xlink:title=" ">
<polygon fill="none" stroke="black" points="384,-56.5 384,-86.5 494,-86.5 494,-56.5 384,-56.5"/>
<text text-anchor="start" x="392" y="-74.5" font-family="Helvetica,sans-Serif" font-size="10.00">abstract&#45;machine/klib</text>
<text text-anchor="middle" x="439" y="-63.5" font-family="Helvetica,sans-Serif" font-size="10.00">/src/string.c</text>
</a>
</g>
</g>
<!-- Node8&#45;&gt;Node12 -->
<g id="edge12" class="edge">
<title>Node8&#45;&gt;Node12</title>
<path fill="none" stroke="midnightblue" d="M439,-113.11C439,-104.15 439,-94.32 439,-86.58"/>
<polygon fill="midnightblue" stroke="midnightblue" points="435.5,-113.4 439,-123.4 442.5,-113.4 435.5,-113.4"/>
</g>
<!-- Node13 -->
<g id="node13" class="node">
<title>Node13</title>
<g id="a_node13"><a xlink:href="main_8c.html" target="_top" xlink:title=" ">
<polygon fill="none" stroke="black" points="512.5,-62 512.5,-81 635.5,-81 635.5,-62 512.5,-62"/>
<text text-anchor="middle" x="574" y="-69" font-family="Helvetica,sans-Serif" font-size="10.00">kernel/framework/main.c</text>
</a>
</g>
</g>
<!-- Node8&#45;&gt;Node13 -->
<g id="edge13" class="edge">
<title>Node8&#45;&gt;Node13</title>
<path fill="none" stroke="midnightblue" d="M477.49,-118.97C503.42,-106.48 536.41,-90.6 556.33,-81.01"/>
<polygon fill="midnightblue" stroke="midnightblue" points="475.78,-115.9 468.29,-123.4 478.82,-122.21 475.78,-115.9"/>
</g>
<!-- Node14 -->
<g id="node14" class="node">
<title>Node14</title>
<g id="a_node14"><a xlink:href="common_8h.html" target="_top" xlink:title=" ">
<polygon fill="none" stroke="black" points="653.5,-62 653.5,-81 778.5,-81 778.5,-62 653.5,-62"/>
<text text-anchor="middle" x="716" y="-69" font-family="Helvetica,sans-Serif" font-size="10.00">kernel/include/common.h</text>
</a>
</g>
</g>
<!-- Node8&#45;&gt;Node14 -->
<g id="edge14" class="edge">
<title>Node8&#45;&gt;Node14</title>
<path fill="none" stroke="midnightblue" d="M504.01,-122.24C558.74,-109.4 635.01,-91.5 679.58,-81.05"/>
<polygon fill="midnightblue" stroke="midnightblue" points="502.99,-118.89 494.06,-124.58 504.59,-125.7 502.99,-118.89"/>
</g>
<!-- Node15 -->
<g id="node15" class="node">
<title>Node15</title>
<g id="a_node15"><a xlink:href="os_8c.html" target="_top" xlink:title=" ">
<polygon fill="none" stroke="black" points="624,-0.5 624,-19.5 704,-19.5 704,-0.5 624,-0.5"/>
<text text-anchor="middle" x="664" y="-7.5" font-family="Helvetica,sans-Serif" font-size="10.00">kernel/src/os.c</text>
</a>
</g>
</g>
<!-- Node14&#45;&gt;Node15 -->
<g id="edge15" class="edge">
<title>Node14&#45;&gt;Node15</title>
<path fill="none" stroke="midnightblue" d="M701.73,-54.17C691.92,-42.95 679.31,-28.52 671.44,-19.51"/>
<polygon fill="midnightblue" stroke="midnightblue" points="699.33,-56.75 708.55,-61.98 704.6,-52.14 699.33,-56.75"/>
</g>
<!-- Node16 -->
<g id="node16" class="node">
<title>Node16</title>
<g id="a_node16"><a xlink:href="pmm_8c.html" target="_top" xlink:title=" ">
<polygon fill="none" stroke="black" points="722,-0.5 722,-19.5 814,-19.5 814,-0.5 722,-0.5"/>
<text text-anchor="middle" x="768" y="-7.5" font-family="Helvetica,sans-Serif" font-size="10.00">kernel/src/pmm.c</text>
</a>
</g>
</g>
<!-- Node14&#45;&gt;Node16 -->
<g id="edge16" class="edge">
<title>Node14&#45;&gt;Node16</title>
<path fill="none" stroke="midnightblue" d="M730.27,-54.17C740.08,-42.95 752.69,-28.52 760.56,-19.51"/>
<polygon fill="midnightblue" stroke="midnightblue" points="727.4,-52.14 723.45,-61.98 732.67,-56.75 727.4,-52.14"/>
</g>
<!-- Node18 -->
<g id="node18" class="node">
<title>Node18</title>
<g id="a_node18"><a xlink:href="logger_8c.html" target="_top" xlink:title=" ">
<polygon fill="none" stroke="black" points="1427,-56.5 1427,-86.5 1537,-86.5 1537,-56.5 1427,-56.5"/>
<text text-anchor="start" x="1435" y="-74.5" font-family="Helvetica,sans-Serif" font-size="10.00">abstract&#45;machine/klib</text>
<text text-anchor="middle" x="1482" y="-63.5" font-family="Helvetica,sans-Serif" font-size="10.00">/src/logger.c</text>
</a>
</g>
</g>
<!-- Node17&#45;&gt;Node18 -->
<g id="edge18" class="edge">
<title>Node17&#45;&gt;Node18</title>
<path fill="none" stroke="midnightblue" d="M1181.23,-122.86C1286.88,-103.37 1316.06,-106.23 1418,-87 1420.91,-86.45 1423.89,-85.86 1426.89,-85.25"/>
<polygon fill="midnightblue" stroke="midnightblue" points="1180.29,-119.47 1171.11,-124.75 1181.58,-126.35 1180.29,-119.47"/>
</g>
<!-- Node20&#45;&gt;Node13 -->
<g id="edge24" class="edge">
<title>Node20&#45;&gt;Node13</title>
<path fill="none" stroke="midnightblue" d="M575.42,-118.54C575.04,-106.17 574.56,-90.62 574.27,-81.13"/>
<polygon fill="midnightblue" stroke="midnightblue" points="571.92,-118.85 575.73,-128.73 578.92,-118.63 571.92,-118.85"/>
</g>
<!-- Node20&#45;&gt;Node14 -->
<g id="edge25" class="edge">
<title>Node20&#45;&gt;Node14</title>
<path fill="none" stroke="midnightblue" d="M603.76,-124.61C631.49,-111.74 673.34,-92.31 697.33,-81.17"/>
<polygon fill="midnightblue" stroke="midnightblue" points="602.19,-121.48 594.59,-128.87 605.13,-127.83 602.19,-121.48"/>
</g>
</g>
</svg>
