<?xml version="1.0" encoding="UTF-8" standalone="no"?>
<!DOCTYPE svg PUBLIC "-//W3C//DTD SVG 1.1//EN"
 "http://www.w3.org/Graphics/SVG/1.1/DTD/svg11.dtd">
<!-- Generated by graphviz version 3.0.0 (20220413.0106)
 -->
<!-- Title: cpu_current Pages: 1 -->
<svg width="701pt" height="515pt"
 viewBox="0.00 0.00 701.00 514.57" xmlns="http://www.w3.org/2000/svg" xmlns:xlink="http://www.w3.org/1999/xlink">
<g id="graph0" class="graph" transform="scale(1 1) rotate(0) translate(4 510.57)">
<title>cpu_current</title>
<!-- Node1 -->
<g id="node1" class="node">
<title>Node1</title>
<g id="a_node1"><a xlink:title=" ">
<polygon fill="#bfbfbf" stroke="black" points="625,-266.5 625,-285.5 693,-285.5 693,-266.5 625,-266.5"/>
<text text-anchor="middle" x="659" y="-273.5" font-family="Helvetica,sans-Serif" font-size="10.00">cpu_current</text>
</a>
</g>
</g>
<!-- Node2 -->
<g id="node2" class="node">
<title>Node2</title>
<g id="a_node2"><a xlink:href="mpe_8c.html#a0a540532023afb1f31b6f21ce053483b" target="_top" xlink:title=" ">
<polygon fill="none" stroke="black" points="477,-456.5 477,-475.5 589,-475.5 589,-456.5 477,-456.5"/>
<text text-anchor="middle" x="533" y="-463.5" font-family="Helvetica,sans-Serif" font-size="10.00">__am_stop_the_world</text>
</a>
</g>
</g>
<!-- Node1&#45;&gt;Node2 -->
<g id="edge1" class="edge">
<title>Node1&#45;&gt;Node2</title>
<path fill="none" stroke="midnightblue" d="M655.43,-295.66C649.81,-330.89 633.18,-405.01 589,-447 584.9,-450.9 579.96,-454 574.75,-456.47"/>
<polygon fill="midnightblue" stroke="midnightblue" points="658.91,-296.08 656.89,-285.68 651.98,-295.07 658.91,-296.08"/>
</g>
<!-- Node3 -->
<g id="node3" class="node">
<title>Node3</title>
<g id="a_node3"><a xlink:href="trm_8c.html#a483cb97188e557c3c68d3a1572c2cc92" target="_top" xlink:title=" ">
<polygon fill="none" stroke="black" points="387,-475.5 387,-494.5 419,-494.5 419,-475.5 387,-475.5"/>
<text text-anchor="middle" x="403" y="-482.5" font-family="Helvetica,sans-Serif" font-size="10.00">halt</text>
</a>
</g>
</g>
<!-- Node1&#45;&gt;Node3 -->
<g id="edge6" class="edge">
<title>Node1&#45;&gt;Node3</title>
<path fill="none" stroke="midnightblue" d="M658.43,-295.72C658.15,-338.67 650.68,-440.41 589,-485 536.94,-522.63 453.31,-501.47 419.21,-490.4"/>
<polygon fill="midnightblue" stroke="midnightblue" points="661.93,-295.67 658.36,-285.69 654.93,-295.71 661.93,-295.67"/>
</g>
<!-- Node6 -->
<g id="node6" class="node">
<title>Node6</title>
<g id="a_node6"><a xlink:href="cte_8c.html#a14d86719abbc247f8a0dd5eb2662ea88" target="_top" xlink:title=" ">
<polygon fill="none" stroke="black" points="509,-418.5 509,-437.5 557,-437.5 557,-418.5 509,-418.5"/>
<text text-anchor="middle" x="533" y="-425.5" font-family="Helvetica,sans-Serif" font-size="10.00">cte_init</text>
</a>
</g>
</g>
<!-- Node1&#45;&gt;Node6 -->
<g id="edge5" class="edge">
<title>Node1&#45;&gt;Node6</title>
<path fill="none" stroke="midnightblue" d="M652.99,-295.26C644.54,-324.02 624.78,-378.09 589,-409 580.06,-416.73 567.8,-421.36 557.12,-424.11"/>
<polygon fill="midnightblue" stroke="midnightblue" points="656.37,-296.15 655.68,-285.58 649.63,-294.28 656.37,-296.15"/>
</g>
<!-- Node7 -->
<g id="node7" class="node">
<title>Node7</title>
<g id="a_node7"><a xlink:href="ioe_8c.html#a45ecef4130276c1c79d872c582cd3839" target="_top" xlink:title=" ">
<polygon fill="none" stroke="black" points="509.5,-380.5 509.5,-399.5 556.5,-399.5 556.5,-380.5 509.5,-380.5"/>
<text text-anchor="middle" x="533" y="-387.5" font-family="Helvetica,sans-Serif" font-size="10.00">ioe_init</text>
</a>
</g>
</g>
<!-- Node1&#45;&gt;Node7 -->
<g id="edge7" class="edge">
<title>Node1&#45;&gt;Node7</title>
<path fill="none" stroke="midnightblue" d="M647.74,-294.44C635.85,-314.38 614.58,-345.98 589,-366 579.4,-373.51 567.09,-379.17 556.55,-383.1"/>
<polygon fill="midnightblue" stroke="midnightblue" points="650.82,-296.1 652.8,-285.69 644.76,-292.6 650.82,-296.1"/>
</g>
<!-- Node9 -->
<g id="node9" class="node">
<title>Node9</title>
<g id="a_node9"><a xlink:href="kmt_8c.html#af9c485ce0d89d6624e6e80e31d8ed207" target="_top" xlink:title="handler: save context to current task">
<polygon fill="none" stroke="black" points="233,-323.5 233,-342.5 329,-342.5 329,-323.5 233,-323.5"/>
<text text-anchor="middle" x="281" y="-330.5" font-family="Helvetica,sans-Serif" font-size="10.00">kmt_context_save</text>
</a>
</g>
</g>
<!-- Node1&#45;&gt;Node9 -->
<g id="edge9" class="edge">
<title>Node1&#45;&gt;Node9</title>
<path fill="none" stroke="midnightblue" d="M634.01,-290.58C621.1,-297.8 604.65,-306.01 589,-311 500.41,-339.23 390.42,-339.25 329.05,-336.36"/>
<polygon fill="midnightblue" stroke="midnightblue" points="635.8,-293.59 642.72,-285.57 632.31,-287.52 635.8,-293.59"/>
</g>
<!-- Node12 -->
<g id="node12" class="node">
<title>Node12</title>
<g id="a_node12"><a xlink:href="kmt_8c.html#a031a09141c265954f2b609183e573d1c" target="_top" xlink:title="get current cpu&#39;s tasks">
<polygon fill="none" stroke="black" points="365,-304.5 365,-323.5 441,-323.5 441,-304.5 365,-304.5"/>
<text text-anchor="middle" x="403" y="-311.5" font-family="Helvetica,sans-Serif" font-size="10.00">kmt_get_task</text>
</a>
</g>
</g>
<!-- Node1&#45;&gt;Node12 -->
<g id="edge12" class="edge">
<title>Node1&#45;&gt;Node12</title>
<path fill="none" stroke="midnightblue" d="M614.92,-285.23C606.35,-286.93 597.41,-288.6 589,-290 538.04,-298.46 478.77,-305.7 441.32,-309.95"/>
<polygon fill="midnightblue" stroke="midnightblue" points="615.64,-288.66 624.75,-283.24 614.25,-281.8 615.64,-288.66"/>
</g>
<!-- Node13 -->
<g id="node13" class="node">
<title>Node13</title>
<g id="a_node13"><a xlink:href="kmt_8c.html#ad4d70b4093829da1c0b0631abdff7747" target="_top" xlink:title="handler: schedule next task to run Notice: this should be the only handler which returns real Context">
<polygon fill="none" stroke="black" points="242.5,-285.5 242.5,-304.5 319.5,-304.5 319.5,-285.5 242.5,-285.5"/>
<text text-anchor="middle" x="281" y="-292.5" font-family="Helvetica,sans-Serif" font-size="10.00">kmt_schedule</text>
</a>
</g>
</g>
<!-- Node1&#45;&gt;Node13 -->
<g id="edge17" class="edge">
<title>Node1&#45;&gt;Node13</title>
<path fill="none" stroke="midnightblue" d="M614.56,-278.2C540.16,-281.95 389.63,-289.56 319.52,-293.1"/>
<polygon fill="midnightblue" stroke="midnightblue" points="615.15,-281.67 624.96,-277.67 614.8,-274.68 615.15,-281.67"/>
</g>
<!-- Node14 -->
<g id="node14" class="node">
<title>Node14</title>
<g id="a_node14"><a xlink:href="kmt_8c.html#a9ddca6d133a84154c98607bf0ee82c76" target="_top" xlink:title="set cpu&#39;s current task">
<polygon fill="none" stroke="black" points="365,-228.5 365,-247.5 441,-247.5 441,-228.5 365,-228.5"/>
<text text-anchor="middle" x="403" y="-235.5" font-family="Helvetica,sans-Serif" font-size="10.00">kmt_set_task</text>
</a>
</g>
</g>
<!-- Node1&#45;&gt;Node14 -->
<g id="edge18" class="edge">
<title>Node1&#45;&gt;Node14</title>
<path fill="none" stroke="midnightblue" d="M614.92,-266.77C606.35,-265.07 597.41,-263.4 589,-262 538.04,-253.54 478.77,-246.3 441.32,-242.05"/>
<polygon fill="midnightblue" stroke="midnightblue" points="614.25,-270.2 624.75,-268.76 615.64,-263.34 614.25,-270.2"/>
</g>
<!-- Node15 -->
<g id="node15" class="node">
<title>Node15</title>
<g id="a_node15"><a xlink:href="spinlock_8c.html#ad4be0d674a7ca4dc90c2dbf8b34562cc" target="_top" xlink:title="check current cpu has the lock">
<polygon fill="none" stroke="black" points="367.5,-171.5 367.5,-190.5 438.5,-190.5 438.5,-171.5 367.5,-171.5"/>
<text text-anchor="middle" x="403" y="-178.5" font-family="Helvetica,sans-Serif" font-size="10.00">spin_holding</text>
</a>
</g>
</g>
<!-- Node1&#45;&gt;Node15 -->
<g id="edge21" class="edge">
<title>Node1&#45;&gt;Node15</title>
<path fill="none" stroke="midnightblue" d="M631.12,-261.67C618.52,-255.23 603.18,-247.8 589,-242 537.19,-220.82 475.05,-201.53 437.59,-190.54"/>
<polygon fill="midnightblue" stroke="midnightblue" points="629.67,-264.86 640.16,-266.35 632.89,-258.64 629.67,-264.86"/>
</g>
<!-- Node21 -->
<g id="node21" class="node">
<title>Node21</title>
<g id="a_node21"><a xlink:href="spinlock_8c.html#ab6f3c37ec37006951feccc3c05387cce" target="_top" xlink:title="acquire spinlock to current cpu">
<polygon fill="none" stroke="black" points="252,-57.5 252,-76.5 310,-76.5 310,-57.5 252,-57.5"/>
<text text-anchor="middle" x="281" y="-64.5" font-family="Helvetica,sans-Serif" font-size="10.00">spin_lock</text>
</a>
</g>
</g>
<!-- Node1&#45;&gt;Node21 -->
<g id="edge44" class="edge">
<title>Node1&#45;&gt;Node21</title>
<path fill="none" stroke="midnightblue" d="M656.22,-256.02C651.84,-219.65 637.1,-142.91 589,-105 505.9,-39.51 368.9,-52.31 310.16,-61.69"/>
<polygon fill="midnightblue" stroke="midnightblue" points="652.78,-256.73 657.31,-266.3 659.74,-255.99 652.78,-256.73"/>
</g>
<!-- Node24 -->
<g id="node24" class="node">
<title>Node24</title>
<g id="a_node24"><a xlink:href="spinlock_8c.html#afc9565dc7a5ddf77e1fa76f5d91caf78" target="_top" xlink:title="interrupt able">
<polygon fill="none" stroke="black" points="500.5,-152.5 500.5,-171.5 565.5,-171.5 565.5,-152.5 500.5,-152.5"/>
<text text-anchor="middle" x="533" y="-159.5" font-family="Helvetica,sans-Serif" font-size="10.00">spin_popcli</text>
</a>
</g>
</g>
<!-- Node1&#45;&gt;Node24 -->
<g id="edge45" class="edge">
<title>Node1&#45;&gt;Node24</title>
<path fill="none" stroke="midnightblue" d="M647.74,-257.56C635.85,-237.62 614.58,-206.02 589,-186 581.37,-180.03 572.03,-175.23 563.22,-171.54"/>
<polygon fill="midnightblue" stroke="midnightblue" points="644.76,-259.4 652.8,-266.31 650.82,-255.9 644.76,-259.4"/>
</g>
<!-- Node25 -->
<g id="node25" class="node">
<title>Node25</title>
<g id="a_node25"><a xlink:href="spinlock_8c.html#ab213874cda54fdbbeb1bec1e5fa90b28" target="_top" xlink:title="interrupt disable">
<polygon fill="none" stroke="black" points="497.5,-114.5 497.5,-133.5 568.5,-133.5 568.5,-114.5 497.5,-114.5"/>
<text text-anchor="middle" x="533" y="-121.5" font-family="Helvetica,sans-Serif" font-size="10.00">spin_pushcli</text>
</a>
</g>
</g>
<!-- Node1&#45;&gt;Node25 -->
<g id="edge48" class="edge">
<title>Node1&#45;&gt;Node25</title>
<path fill="none" stroke="midnightblue" d="M652.99,-256.74C644.54,-227.98 624.78,-173.91 589,-143 583.19,-137.98 575.98,-134.27 568.72,-131.53"/>
<polygon fill="midnightblue" stroke="midnightblue" points="649.63,-257.72 655.68,-266.42 656.37,-255.85 649.63,-257.72"/>
</g>
<!-- Node26 -->
<g id="node26" class="node">
<title>Node26</title>
<g id="a_node26"><a xlink:href="vme_8c.html#a102a03634ce449f78facc63eee85d9b8" target="_top" xlink:title=" ">
<polygon fill="none" stroke="black" points="506.5,-19.5 506.5,-38.5 559.5,-38.5 559.5,-19.5 506.5,-19.5"/>
<text text-anchor="middle" x="533" y="-26.5" font-family="Helvetica,sans-Serif" font-size="10.00">vme_init</text>
</a>
</g>
</g>
<!-- Node1&#45;&gt;Node26 -->
<g id="edge51" class="edge">
<title>Node1&#45;&gt;Node26</title>
<path fill="none" stroke="midnightblue" d="M657.21,-255.97C654.5,-213.36 642.46,-112.77 589,-53 581.29,-44.38 569.93,-38.72 559.53,-35.08"/>
<polygon fill="midnightblue" stroke="midnightblue" points="653.73,-256.34 657.75,-266.15 660.72,-255.98 653.73,-256.34"/>
</g>
<!-- Node2&#45;&gt;Node3 -->
<g id="edge2" class="edge">
<title>Node2&#45;&gt;Node3</title>
<path fill="none" stroke="midnightblue" d="M467,-475.65C449.01,-478.32 431.12,-480.97 419.03,-482.77"/>
<polygon fill="midnightblue" stroke="midnightblue" points="467.6,-479.1 476.97,-474.17 466.57,-472.17 467.6,-479.1"/>
</g>
<!-- Node4 -->
<g id="node4" class="node">
<title>Node4</title>
<g id="a_node4"><a xlink:href="trm_8c.html#a12a49ff4d3a586b2315e292c5da3df7e" target="_top" xlink:title=" ">
<polygon fill="none" stroke="black" points="252,-475.5 252,-494.5 310,-494.5 310,-475.5 252,-475.5"/>
<text text-anchor="middle" x="281" y="-482.5" font-family="Helvetica,sans-Serif" font-size="10.00">call_main</text>
</a>
</g>
</g>
<!-- Node3&#45;&gt;Node4 -->
<g id="edge3" class="edge">
<title>Node3&#45;&gt;Node4</title>
<path fill="none" stroke="midnightblue" d="M376.6,-485C357.19,-485 330.44,-485 310.34,-485"/>
<polygon fill="midnightblue" stroke="midnightblue" points="376.8,-488.5 386.8,-485 376.8,-481.5 376.8,-488.5"/>
</g>
<!-- Node5 -->
<g id="node5" class="node">
<title>Node5</title>
<g id="a_node5"><a xlink:href="trm_8c.html#a54a85aeee6f6a8ef875d4cca663f9fd8" target="_top" xlink:title=" ">
<polygon fill="none" stroke="black" points="132,-475.5 132,-494.5 184,-494.5 184,-475.5 132,-475.5"/>
<text text-anchor="middle" x="158" y="-482.5" font-family="Helvetica,sans-Serif" font-size="10.00">_start_c</text>
</a>
</g>
</g>
<!-- Node4&#45;&gt;Node5 -->
<g id="edge4" class="edge">
<title>Node4&#45;&gt;Node5</title>
<path fill="none" stroke="midnightblue" d="M241.85,-485C222.98,-485 200.72,-485 184.03,-485"/>
<polygon fill="midnightblue" stroke="midnightblue" points="241.94,-488.5 251.94,-485 241.94,-481.5 241.94,-488.5"/>
</g>
<!-- Node8 -->
<g id="node8" class="node">
<title>Node8</title>
<g id="a_node8"><a xlink:href="main_8c.html#ae66f6b31b5ad750f1fe042a706a4e3d4" target="_top" xlink:title=" ">
<polygon fill="none" stroke="black" points="384,-380.5 384,-399.5 422,-399.5 422,-380.5 384,-380.5"/>
<text text-anchor="middle" x="403" y="-387.5" font-family="Helvetica,sans-Serif" font-size="10.00">main</text>
</a>
</g>
</g>
<!-- Node7&#45;&gt;Node8 -->
<g id="edge8" class="edge">
<title>Node7&#45;&gt;Node8</title>
<path fill="none" stroke="midnightblue" d="M499.15,-390C474.69,-390 442.21,-390 422.23,-390"/>
<polygon fill="midnightblue" stroke="midnightblue" points="499.41,-393.5 509.41,-390 499.41,-386.5 499.41,-393.5"/>
</g>
<!-- Node10 -->
<g id="node10" class="node">
<title>Node10</title>
<g id="a_node10"><a xlink:href="kmt_8c.html#a0c68a294cecc4be7cb4b495f15b883a0" target="_top" xlink:title="initialize kmt module">
<polygon fill="none" stroke="black" points="132.5,-285.5 132.5,-304.5 183.5,-304.5 183.5,-285.5 132.5,-285.5"/>
<text text-anchor="middle" x="158" y="-292.5" font-family="Helvetica,sans-Serif" font-size="10.00">kmt_init</text>
</a>
</g>
</g>
<!-- Node9&#45;&gt;Node10 -->
<g id="edge10" class="edge">
<title>Node9&#45;&gt;Node10</title>
<path fill="none" stroke="midnightblue" d="M239.82,-320.38C221.31,-314.57 199.94,-307.86 183.82,-302.8"/>
<polygon fill="midnightblue" stroke="midnightblue" points="238.88,-323.75 249.47,-323.41 240.97,-317.08 238.88,-323.75"/>
</g>
<!-- Node11 -->
<g id="node11" class="node">
<title>Node11</title>
<g id="a_node11"><a xlink:href="kmt_8c.html#af360ef0d98ca30e481cc58ea3695fd58" target="_top" xlink:title=" ">
<polygon fill="none" stroke="black" points="0,-190.5 0,-209.5 83,-209.5 83,-190.5 0,-190.5"/>
<text text-anchor="middle" x="41.5" y="-197.5" font-family="Helvetica,sans-Serif" font-size="10.00">MODULE_DEF</text>
</a>
</g>
</g>
<!-- Node10&#45;&gt;Node11 -->
<g id="edge11" class="edge">
<title>Node10&#45;&gt;Node11</title>
<path fill="none" stroke="midnightblue" d="M131.64,-279.9C127.33,-277.08 122.97,-274.05 119,-271 93.15,-251.11 65.83,-224.09 51.89,-209.8"/>
<polygon fill="midnightblue" stroke="midnightblue" points="129.96,-282.98 140.28,-285.36 133.7,-277.06 129.96,-282.98"/>
</g>
<!-- Node12&#45;&gt;Node9 -->
<g id="edge13" class="edge">
<title>Node12&#45;&gt;Node9</title>
<path fill="none" stroke="midnightblue" d="M354.64,-321.5C346.22,-322.83 337.45,-324.22 329.03,-325.55"/>
<polygon fill="midnightblue" stroke="midnightblue" points="355.36,-324.93 364.69,-319.91 354.26,-318.01 355.36,-324.93"/>
</g>
<!-- Node12&#45;&gt;Node11 -->
<g id="edge16" class="edge">
<title>Node12&#45;&gt;Node11</title>
<path fill="none" stroke="midnightblue" d="M379.73,-329.19C365.82,-337.73 347.15,-347.56 329,-352 287.56,-362.14 275.12,-358.83 233,-352 180.28,-343.45 161.49,-346.35 119,-314 80.88,-284.98 55.46,-231.25 46.3,-209.51"/>
<polygon fill="midnightblue" stroke="midnightblue" points="381.99,-331.89 388.53,-323.56 378.22,-325.99 381.99,-331.89"/>
</g>
<!-- Node12&#45;&gt;Node13 -->
<g id="edge14" class="edge">
<title>Node12&#45;&gt;Node13</title>
<path fill="none" stroke="midnightblue" d="M354.7,-306.51C343.08,-304.67 330.8,-302.73 319.7,-300.97"/>
<polygon fill="midnightblue" stroke="midnightblue" points="354.26,-309.99 364.69,-308.09 355.36,-303.07 354.26,-309.99"/>
</g>
<!-- Node13&#45;&gt;Node10 -->
<g id="edge15" class="edge">
<title>Node13&#45;&gt;Node10</title>
<path fill="none" stroke="midnightblue" d="M232.24,-295C215.59,-295 197.6,-295 183.61,-295"/>
<polygon fill="midnightblue" stroke="midnightblue" points="232.38,-298.5 242.38,-295 232.38,-291.5 232.38,-298.5"/>
</g>
<!-- Node14&#45;&gt;Node11 -->
<g id="edge20" class="edge">
<title>Node14&#45;&gt;Node11</title>
<path fill="none" stroke="midnightblue" d="M354.57,-240.09C320.65,-241.07 273.94,-241.39 233,-238 181.81,-233.76 169.3,-229.42 119,-219 105.73,-216.25 91.29,-212.79 78.56,-209.57"/>
<polygon fill="midnightblue" stroke="midnightblue" points="354.79,-243.58 364.67,-239.76 354.56,-236.59 354.79,-243.58"/>
</g>
<!-- Node14&#45;&gt;Node13 -->
<g id="edge19" class="edge">
<title>Node14&#45;&gt;Node13</title>
<path fill="none" stroke="midnightblue" d="M372.74,-251.9C350.85,-262.3 321.47,-276.25 302.15,-285.43"/>
<polygon fill="midnightblue" stroke="midnightblue" points="374.38,-254.99 381.91,-247.54 371.38,-248.67 374.38,-254.99"/>
</g>
<!-- Node15&#45;&gt;Node9 -->
<g id="edge22" class="edge">
<title>Node15&#45;&gt;Node9</title>
<path fill="none" stroke="midnightblue" d="M382.74,-197.78C376.46,-203.97 369.87,-211.36 365,-219 340.74,-257.08 360.58,-281.72 329,-314 325.31,-317.77 320.76,-320.82 315.97,-323.28"/>
<polygon fill="midnightblue" stroke="midnightblue" points="385.45,-200.03 390.36,-190.64 380.67,-194.92 385.45,-200.03"/>
</g>
<!-- Node15&#45;&gt;Node13 -->
<g id="edge27" class="edge">
<title>Node15&#45;&gt;Node13</title>
<path fill="none" stroke="midnightblue" d="M384.28,-197.83C358.8,-222.04 312.64,-265.89 292.21,-285.31"/>
<polygon fill="midnightblue" stroke="midnightblue" points="386.93,-200.14 391.77,-190.72 382.11,-195.07 386.93,-200.14"/>
</g>
<!-- Node16 -->
<g id="node16" class="node">
<title>Node16</title>
<g id="a_node16"><a xlink:href="kmt_8c.html#a5ddb8743298012e84cf9cb5faf22212b" target="_top" xlink:title="create thread">
<polygon fill="none" stroke="black" points="125.5,-152.5 125.5,-171.5 190.5,-171.5 190.5,-152.5 125.5,-152.5"/>
<text text-anchor="middle" x="158" y="-159.5" font-family="Helvetica,sans-Serif" font-size="10.00">kmt_create</text>
</a>
</g>
</g>
<!-- Node15&#45;&gt;Node16 -->
<g id="edge23" class="edge">
<title>Node15&#45;&gt;Node16</title>
<path fill="none" stroke="midnightblue" d="M357.38,-171.27C348.04,-169.56 338.23,-168.01 329,-167 281.01,-161.73 224.98,-161.15 190.75,-161.42"/>
<polygon fill="midnightblue" stroke="midnightblue" points="356.79,-174.72 367.27,-173.16 358.1,-167.85 356.79,-174.72"/>
</g>
<!-- Node17 -->
<g id="node17" class="node">
<title>Node17</title>
<g id="a_node17"><a xlink:href="kmt_8c.html#ad3fbc643b7b6092120c5152b4c890354" target="_top" xlink:title="handler: handle program errors">
<polygon fill="none" stroke="black" points="252,-209.5 252,-228.5 310,-228.5 310,-209.5 252,-209.5"/>
<text text-anchor="middle" x="281" y="-216.5" font-family="Helvetica,sans-Serif" font-size="10.00">kmt_error</text>
</a>
</g>
</g>
<!-- Node15&#45;&gt;Node17 -->
<g id="edge25" class="edge">
<title>Node15&#45;&gt;Node17</title>
<path fill="none" stroke="midnightblue" d="M362.05,-193.65C345.06,-199.03 325.66,-205.17 310.21,-210.07"/>
<polygon fill="midnightblue" stroke="midnightblue" points="363.24,-196.94 371.72,-190.59 361.13,-190.27 363.24,-196.94"/>
</g>
<!-- Node18 -->
<g id="node18" class="node">
<title>Node18</title>
<g id="a_node18"><a xlink:href="kmt_8c.html#a47d8887c87041abd5ea3148232b65c93" target="_top" xlink:title="tear down a thread">
<polygon fill="none" stroke="black" points="119,-190.5 119,-209.5 197,-209.5 197,-190.5 119,-190.5"/>
<text text-anchor="middle" x="158" y="-197.5" font-family="Helvetica,sans-Serif" font-size="10.00">kmt_teardown</text>
</a>
</g>
</g>
<!-- Node15&#45;&gt;Node18 -->
<g id="edge28" class="edge">
<title>Node15&#45;&gt;Node18</title>
<path fill="none" stroke="midnightblue" d="M357.46,-184.48C311.47,-188.08 240.48,-193.63 197.04,-197.03"/>
<polygon fill="midnightblue" stroke="midnightblue" points="357.75,-187.97 367.44,-183.7 357.2,-180.99 357.75,-187.97"/>
</g>
<!-- Node19 -->
<g id="node19" class="node">
<title>Node19</title>
<g id="a_node19"><a xlink:href="os_8c.html#a2be1c9facb49d4439f41b1537d0f3ef8" target="_top" xlink:title="System trap entry.">
<polygon fill="none" stroke="black" points="133.5,-0.5 133.5,-19.5 182.5,-19.5 182.5,-0.5 133.5,-0.5"/>
<text text-anchor="middle" x="158" y="-7.5" font-family="Helvetica,sans-Serif" font-size="10.00">os_trap</text>
</a>
</g>
</g>
<!-- Node15&#45;&gt;Node19 -->
<g id="edge30" class="edge">
<title>Node15&#45;&gt;Node19</title>
<path fill="none" stroke="midnightblue" d="M396.93,-161.62C388.2,-132.27 367.47,-76.9 329,-48 285.12,-15.03 218.01,-9.71 182.66,-9.4"/>
<polygon fill="midnightblue" stroke="midnightblue" points="393.63,-162.81 399.7,-171.49 400.37,-160.92 393.63,-162.81"/>
</g>
<!-- Node15&#45;&gt;Node21 -->
<g id="edge32" class="edge">
<title>Node15&#45;&gt;Node21</title>
<path fill="none" stroke="midnightblue" d="M391.8,-162.34C379.42,-141.24 356.73,-107.08 329,-86 323.39,-81.74 316.7,-78.29 310.15,-75.55"/>
<polygon fill="midnightblue" stroke="midnightblue" points="388.9,-164.32 396.88,-171.28 394.98,-160.86 388.9,-164.32"/>
</g>
<!-- Node23 -->
<g id="node23" class="node">
<title>Node23</title>
<g id="a_node23"><a xlink:href="spinlock_8c.html#acdf118d615a4bc4064e991add9a80995" target="_top" xlink:title="release spinlock from current cpu">
<polygon fill="none" stroke="black" points="247,-95.5 247,-114.5 315,-114.5 315,-95.5 247,-95.5"/>
<text text-anchor="middle" x="281" y="-102.5" font-family="Helvetica,sans-Serif" font-size="10.00">spin_unlock</text>
</a>
</g>
</g>
<!-- Node15&#45;&gt;Node23 -->
<g id="edge38" class="edge">
<title>Node15&#45;&gt;Node23</title>
<path fill="none" stroke="midnightblue" d="M378.01,-165.87C373.64,-162.99 369.15,-159.95 365,-157 348.48,-145.25 346.1,-139.88 329,-129 320.81,-123.79 311.34,-118.78 303.06,-114.69"/>
<polygon fill="midnightblue" stroke="midnightblue" points="376.39,-168.98 386.68,-171.48 380.19,-163.11 376.39,-168.98"/>
</g>
<!-- Node16&#45;&gt;Node11 -->
<g id="edge24" class="edge">
<title>Node16&#45;&gt;Node11</title>
<path fill="none" stroke="midnightblue" d="M118.35,-174.83C102.99,-179.92 85.62,-185.69 71.38,-190.41"/>
<polygon fill="midnightblue" stroke="midnightblue" points="119.72,-178.06 128.11,-171.59 117.51,-171.42 119.72,-178.06"/>
</g>
<!-- Node17&#45;&gt;Node10 -->
<g id="edge26" class="edge">
<title>Node17&#45;&gt;Node10</title>
<path fill="none" stroke="midnightblue" d="M256.03,-234.06C231.7,-249.34 194.77,-272.53 174.2,-285.45"/>
<polygon fill="midnightblue" stroke="midnightblue" points="258.07,-236.91 264.68,-228.63 254.35,-230.98 258.07,-236.91"/>
</g>
<!-- Node18&#45;&gt;Node11 -->
<g id="edge29" class="edge">
<title>Node18&#45;&gt;Node11</title>
<path fill="none" stroke="midnightblue" d="M108.71,-200C100.22,-200 91.46,-200 83.21,-200"/>
<polygon fill="midnightblue" stroke="midnightblue" points="108.87,-203.5 118.87,-200 108.87,-196.5 108.87,-203.5"/>
</g>
<!-- Node20 -->
<g id="node20" class="node">
<title>Node20</title>
<g id="a_node20"><a xlink:href="os_8c.html#aafec7046aa50c914df86d0d22d4fc1d1" target="_top" xlink:title=" ">
<polygon fill="none" stroke="black" points="0,-0.5 0,-19.5 83,-19.5 83,-0.5 0,-0.5"/>
<text text-anchor="middle" x="41.5" y="-7.5" font-family="Helvetica,sans-Serif" font-size="10.00">MODULE_DEF</text>
</a>
</g>
</g>
<!-- Node19&#45;&gt;Node20 -->
<g id="edge31" class="edge">
<title>Node19&#45;&gt;Node20</title>
<path fill="none" stroke="midnightblue" d="M123.26,-10C110.74,-10 96.42,-10 83.34,-10"/>
<polygon fill="midnightblue" stroke="midnightblue" points="123.28,-13.5 133.28,-10 123.28,-6.5 123.28,-13.5"/>
</g>
<!-- Node21&#45;&gt;Node11 -->
<g id="edge36" class="edge">
<title>Node21&#45;&gt;Node11</title>
<path fill="none" stroke="midnightblue" d="M241.78,-56.8C207.29,-49.85 156.39,-45.38 119,-67 71.27,-94.61 50.71,-164.53 44.59,-190.28"/>
<polygon fill="midnightblue" stroke="midnightblue" points="241.41,-60.31 251.92,-59.01 242.9,-53.47 241.41,-60.31"/>
</g>
<!-- Node21&#45;&gt;Node16 -->
<g id="edge33" class="edge">
<title>Node21&#45;&gt;Node16</title>
<path fill="none" stroke="midnightblue" d="M242.38,-80.53C239.11,-82.2 235.94,-84.03 233,-86 204.57,-105.1 178.39,-136.56 166.19,-152.34"/>
<polygon fill="midnightblue" stroke="midnightblue" points="244.08,-83.6 251.7,-76.23 241.15,-77.25 244.08,-83.6"/>
</g>
<!-- Node21&#45;&gt;Node18 -->
<g id="edge34" class="edge">
<title>Node21&#45;&gt;Node18</title>
<path fill="none" stroke="midnightblue" d="M242.71,-78.55C239.15,-80.65 235.83,-83.11 233,-86 201.42,-118.28 227.27,-147.5 197,-181 193.64,-184.72 189.38,-187.81 184.94,-190.33"/>
<polygon fill="midnightblue" stroke="midnightblue" points="244.43,-81.6 251.86,-74.05 241.34,-75.32 244.43,-81.6"/>
</g>
<!-- Node21&#45;&gt;Node19 -->
<g id="edge37" class="edge">
<title>Node21&#45;&gt;Node19</title>
<path fill="none" stroke="midnightblue" d="M250.5,-53.1C228.42,-42.7 198.8,-28.75 179.32,-19.57"/>
<polygon fill="midnightblue" stroke="midnightblue" points="249.21,-56.36 259.75,-57.46 252.19,-50.03 249.21,-56.36"/>
</g>
<!-- Node22 -->
<g id="node22" class="node">
<title>Node22</title>
<g id="a_node22"><a xlink:href="kernel_8h.html#a7ef2d722f9c7f8acc1801144a5188825" target="_top" xlink:title=" ">
<polygon fill="none" stroke="black" points="128.5,-76.5 128.5,-95.5 187.5,-95.5 187.5,-76.5 128.5,-76.5"/>
<text text-anchor="middle" x="158" y="-83.5" font-family="Helvetica,sans-Serif" font-size="10.00">MODULE</text>
</a>
</g>
</g>
<!-- Node21&#45;&gt;Node22 -->
<g id="edge35" class="edge">
<title>Node21&#45;&gt;Node22</title>
<path fill="none" stroke="midnightblue" d="M242,-72.97C224.46,-75.72 203.98,-78.94 187.75,-81.49"/>
<polygon fill="midnightblue" stroke="midnightblue" points="242.6,-76.42 251.94,-71.41 241.51,-69.5 242.6,-76.42"/>
</g>
<!-- Node23&#45;&gt;Node11 -->
<g id="edge42" class="edge">
<title>Node23&#45;&gt;Node11</title>
<path fill="none" stroke="midnightblue" d="M237.04,-110.27C203.68,-115.49 156.86,-125.36 119,-143 92.58,-155.31 66.33,-177.64 52.5,-190.39"/>
<polygon fill="midnightblue" stroke="midnightblue" points="237.57,-113.73 246.94,-108.79 236.54,-106.8 237.57,-113.73"/>
</g>
<!-- Node23&#45;&gt;Node16 -->
<g id="edge39" class="edge">
<title>Node23&#45;&gt;Node16</title>
<path fill="none" stroke="midnightblue" d="M250.5,-118.9C228.42,-129.3 198.8,-143.25 179.32,-152.43"/>
<polygon fill="midnightblue" stroke="midnightblue" points="252.19,-121.97 259.75,-114.54 249.21,-115.64 252.19,-121.97"/>
</g>
<!-- Node23&#45;&gt;Node18 -->
<g id="edge40" class="edge">
<title>Node23&#45;&gt;Node18</title>
<path fill="none" stroke="midnightblue" d="M264.04,-122.15C248.13,-138.62 222.45,-163.49 197,-181 192.02,-184.43 186.33,-187.61 180.89,-190.35"/>
<polygon fill="midnightblue" stroke="midnightblue" points="266.67,-124.48 271.03,-114.82 261.6,-119.65 266.67,-124.48"/>
</g>
<!-- Node23&#45;&gt;Node19 -->
<g id="edge43" class="edge">
<title>Node23&#45;&gt;Node19</title>
<path fill="none" stroke="midnightblue" d="M241.6,-91.06C238.61,-89.5 235.7,-87.82 233,-86 204.57,-66.9 178.39,-35.44 166.19,-19.66"/>
<polygon fill="midnightblue" stroke="midnightblue" points="240.17,-94.26 250.71,-95.35 243.15,-87.93 240.17,-94.26"/>
</g>
<!-- Node23&#45;&gt;Node22 -->
<g id="edge41" class="edge">
<title>Node23&#45;&gt;Node22</title>
<path fill="none" stroke="midnightblue" d="M237,-98.25C220.57,-95.67 202.25,-92.79 187.5,-90.48"/>
<polygon fill="midnightblue" stroke="midnightblue" points="236.51,-101.71 246.94,-99.81 237.6,-94.8 236.51,-101.71"/>
</g>
<!-- Node24&#45;&gt;Node15 -->
<g id="edge46" class="edge">
<title>Node24&#45;&gt;Node15</title>
<path fill="none" stroke="midnightblue" d="M490.35,-168.18C473.71,-170.65 454.77,-173.46 438.88,-175.82"/>
<polygon fill="midnightblue" stroke="midnightblue" points="490.98,-171.63 500.36,-166.7 489.95,-164.7 490.98,-171.63"/>
</g>
<!-- Node24&#45;&gt;Node23 -->
<g id="edge47" class="edge">
<title>Node24&#45;&gt;Node23</title>
<path fill="none" stroke="midnightblue" d="M490.36,-152.51C441.25,-141.31 360.6,-122.92 315.39,-112.61"/>
<polygon fill="midnightblue" stroke="midnightblue" points="489.81,-155.97 500.34,-154.78 491.37,-149.15 489.81,-155.97"/>
</g>
<!-- Node25&#45;&gt;Node15 -->
<g id="edge49" class="edge">
<title>Node25&#45;&gt;Node15</title>
<path fill="none" stroke="midnightblue" d="M492.02,-137.03C486.92,-138.92 481.81,-140.93 477,-143 457.18,-151.53 435.34,-163.22 420.77,-171.37"/>
<polygon fill="midnightblue" stroke="midnightblue" points="493.48,-140.23 501.72,-133.56 491.13,-133.64 493.48,-140.23"/>
</g>
<!-- Node25&#45;&gt;Node21 -->
<g id="edge50" class="edge">
<title>Node25&#45;&gt;Node21</title>
<path fill="none" stroke="midnightblue" d="M487.42,-113.84C436.13,-102.14 353.44,-83.29 310.28,-73.45"/>
<polygon fill="midnightblue" stroke="midnightblue" points="486.71,-117.26 497.24,-116.07 488.27,-110.44 486.71,-117.26"/>
</g>
</g>
</svg>
