<?xml version="1.0" encoding="UTF-8" standalone="no"?>
<!DOCTYPE svg PUBLIC "-//W3C//DTD SVG 1.1//EN"
 "http://www.w3.org/Graphics/SVG/1.1/DTD/svg11.dtd">
<!-- Generated by graphviz version 3.0.0 (20220413.0106)
 -->
<!-- Title: abstract&#45;machine/am/include/am.h Pages: 1 -->
<svg width="1934pt" height="408pt"
 viewBox="0.00 0.00 1933.50 408.00" xmlns="http://www.w3.org/2000/svg" xmlns:xlink="http://www.w3.org/1999/xlink">
<g id="graph0" class="graph" transform="scale(1 1) rotate(0) translate(4 404)">
<title>abstract&#45;machine/am/include/am.h</title>
<!-- Node1 -->
<g id="node1" class="node">
<title>Node1</title>
<g id="a_node1"><a xlink:title=" ">
<polygon fill="#bfbfbf" stroke="black" points="1015,-369.5 1015,-399.5 1123,-399.5 1123,-369.5 1015,-369.5"/>
<text text-anchor="start" x="1023" y="-387.5" font-family="Helvetica,sans-Serif" font-size="10.00">abstract&#45;machine/am</text>
<text text-anchor="middle" x="1069" y="-376.5" font-family="Helvetica,sans-Serif" font-size="10.00">/include/am.h</text>
</a>
</g>
</g>
<!-- Node2 -->
<g id="node2" class="node">
<title>Node2</title>
<g id="a_node2"><a xlink:href="x86-qemu_8h.html" target="_top" xlink:title=" ">
<polygon fill="none" stroke="black" points="303.5,-302.5 303.5,-332.5 434.5,-332.5 434.5,-302.5 303.5,-302.5"/>
<text text-anchor="start" x="311.5" y="-320.5" font-family="Helvetica,sans-Serif" font-size="10.00">abstract&#45;machine/am</text>
<text text-anchor="middle" x="369" y="-309.5" font-family="Helvetica,sans-Serif" font-size="10.00">/src/x86/qemu/x86&#45;qemu.h</text>
</a>
</g>
</g>
<!-- Node1&#45;&gt;Node2 -->
<g id="edge1" class="edge">
<title>Node1&#45;&gt;Node2</title>
<path fill="none" stroke="midnightblue" d="M1004.93,-377.55C872.26,-365.23 568.7,-337.04 434.67,-324.6"/>
<polygon fill="midnightblue" stroke="midnightblue" points="1004.66,-381.04 1014.94,-378.48 1005.31,-374.07 1004.66,-381.04"/>
</g>
<!-- Node8 -->
<g id="node8" class="node">
<title>Node8</title>
<g id="a_node8"><a xlink:href="klib_8h.html" target="_top" xlink:title=" ">
<polygon fill="none" stroke="black" points="909,-302.5 909,-332.5 1019,-332.5 1019,-302.5 909,-302.5"/>
<text text-anchor="start" x="917" y="-320.5" font-family="Helvetica,sans-Serif" font-size="10.00">abstract&#45;machine/klib</text>
<text text-anchor="middle" x="964" y="-309.5" font-family="Helvetica,sans-Serif" font-size="10.00">/include/klib.h</text>
</a>
</g>
</g>
<!-- Node1&#45;&gt;Node8 -->
<g id="edge7" class="edge">
<title>Node1&#45;&gt;Node8</title>
<path fill="none" stroke="midnightblue" d="M1037.52,-364.02C1021.18,-353.9 1001.59,-341.77 986.74,-332.58"/>
<polygon fill="midnightblue" stroke="midnightblue" points="1035.87,-367.11 1046.22,-369.4 1039.56,-361.16 1035.87,-367.11"/>
</g>
<!-- Node9 -->
<g id="node9" class="node">
<title>Node9</title>
<g id="a_node9"><a xlink:href="cpp_8c.html" target="_top" xlink:title=" ">
<polygon fill="none" stroke="black" points="630,-235.5 630,-265.5 740,-265.5 740,-235.5 630,-235.5"/>
<text text-anchor="start" x="638" y="-253.5" font-family="Helvetica,sans-Serif" font-size="10.00">abstract&#45;machine/klib</text>
<text text-anchor="middle" x="685" y="-242.5" font-family="Helvetica,sans-Serif" font-size="10.00">/src/cpp.c</text>
</a>
</g>
</g>
<!-- Node1&#45;&gt;Node9 -->
<g id="edge45" class="edge">
<title>Node1&#45;&gt;Node9</title>
<path fill="none" stroke="midnightblue" d="M1005.01,-371.88C962.41,-363.27 905.57,-350.08 857,-333 802.92,-313.98 743.14,-283.31 710.23,-265.51"/>
<polygon fill="midnightblue" stroke="midnightblue" points="1004.47,-375.35 1014.96,-373.87 1005.84,-368.48 1004.47,-375.35"/>
</g>
<!-- Node10 -->
<g id="node10" class="node">
<title>Node10</title>
<g id="a_node10"><a xlink:href="stdio_8c.html" target="_top" xlink:title=" ">
<polygon fill="none" stroke="black" points="758,-235.5 758,-265.5 868,-265.5 868,-235.5 758,-235.5"/>
<text text-anchor="start" x="766" y="-253.5" font-family="Helvetica,sans-Serif" font-size="10.00">abstract&#45;machine/klib</text>
<text text-anchor="middle" x="813" y="-242.5" font-family="Helvetica,sans-Serif" font-size="10.00">/src/stdio.c</text>
</a>
</g>
</g>
<!-- Node1&#45;&gt;Node10 -->
<g id="edge47" class="edge">
<title>Node1&#45;&gt;Node10</title>
<path fill="none" stroke="midnightblue" d="M1004.73,-371.67C971.92,-363.84 932.24,-351.53 900,-333 868.78,-315.06 839.81,-283.85 824.45,-265.71"/>
<polygon fill="midnightblue" stroke="midnightblue" points="1004.15,-375.12 1014.68,-373.95 1005.72,-368.3 1004.15,-375.12"/>
</g>
<!-- Node11 -->
<g id="node11" class="node">
<title>Node11</title>
<g id="a_node11"><a xlink:href="stdlib_8c.html" target="_top" xlink:title=" ">
<polygon fill="none" stroke="black" points="1014,-235.5 1014,-265.5 1124,-265.5 1124,-235.5 1014,-235.5"/>
<text text-anchor="start" x="1022" y="-253.5" font-family="Helvetica,sans-Serif" font-size="10.00">abstract&#45;machine/klib</text>
<text text-anchor="middle" x="1069" y="-242.5" font-family="Helvetica,sans-Serif" font-size="10.00">/src/stdlib.c</text>
</a>
</g>
</g>
<!-- Node1&#45;&gt;Node11 -->
<g id="edge48" class="edge">
<title>Node1&#45;&gt;Node11</title>
<path fill="none" stroke="midnightblue" d="M1069,-359.02C1069,-331.51 1069,-287.79 1069,-265.52"/>
<polygon fill="midnightblue" stroke="midnightblue" points="1065.5,-359.37 1069,-369.37 1072.5,-359.37 1065.5,-359.37"/>
</g>
<!-- Node14 -->
<g id="node14" class="node">
<title>Node14</title>
<g id="a_node14"><a xlink:href="common_8h.html" target="_top" xlink:title=" ">
<polygon fill="none" stroke="black" points="1440.5,-241 1440.5,-260 1565.5,-260 1565.5,-241 1440.5,-241"/>
<text text-anchor="middle" x="1503" y="-248" font-family="Helvetica,sans-Serif" font-size="10.00">kernel/include/common.h</text>
</a>
</g>
</g>
<!-- Node1&#45;&gt;Node14 -->
<g id="edge56" class="edge">
<title>Node1&#45;&gt;Node14</title>
<path fill="none" stroke="midnightblue" d="M1133.35,-375.45C1175.79,-368.36 1231.71,-355.51 1277,-333 1296.52,-323.3 1295.6,-311.94 1315,-302 1356.96,-280.51 1409.02,-267.44 1447.7,-260"/>
<polygon fill="midnightblue" stroke="midnightblue" points="1132.73,-372.01 1123.41,-377.05 1133.84,-378.92 1132.73,-372.01"/>
</g>
<!-- Node29 -->
<g id="node29" class="node">
<title>Node29</title>
<g id="a_node29"><a xlink:href="logger_8h.html" target="_top" xlink:title=" ">
<polygon fill="none" stroke="black" points="1640,-302.5 1640,-332.5 1750,-332.5 1750,-302.5 1640,-302.5"/>
<text text-anchor="start" x="1648" y="-320.5" font-family="Helvetica,sans-Serif" font-size="10.00">abstract&#45;machine/klib</text>
<text text-anchor="middle" x="1695" y="-309.5" font-family="Helvetica,sans-Serif" font-size="10.00">/include/logger.h</text>
</a>
</g>
</g>
<!-- Node1&#45;&gt;Node29 -->
<g id="edge37" class="edge">
<title>Node1&#45;&gt;Node29</title>
<path fill="none" stroke="midnightblue" d="M1133.23,-376.83C1256.41,-364.04 1523.91,-336.27 1639.71,-324.24"/>
<polygon fill="midnightblue" stroke="midnightblue" points="1132.77,-373.36 1123.19,-377.87 1133.49,-380.32 1132.77,-373.36"/>
</g>
<!-- Node32 -->
<g id="node32" class="node">
<title>Node32</title>
<g id="a_node32"><a xlink:href="int64_8c.html" target="_top" xlink:title=" ">
<polygon fill="none" stroke="black" points="1324,-302.5 1324,-332.5 1434,-332.5 1434,-302.5 1324,-302.5"/>
<text text-anchor="start" x="1332" y="-320.5" font-family="Helvetica,sans-Serif" font-size="10.00">abstract&#45;machine/klib</text>
<text text-anchor="middle" x="1379" y="-309.5" font-family="Helvetica,sans-Serif" font-size="10.00">/src/int64.c</text>
</a>
</g>
</g>
<!-- Node1&#45;&gt;Node32 -->
<g id="edge46" class="edge">
<title>Node1&#45;&gt;Node32</title>
<path fill="none" stroke="midnightblue" d="M1133.13,-370.07C1181.69,-359.9 1250.04,-345.58 1310,-333 1314.43,-332.07 1319.03,-331.11 1323.64,-330.14"/>
<polygon fill="midnightblue" stroke="midnightblue" points="1132.15,-366.7 1123.08,-372.18 1133.59,-373.55 1132.15,-366.7"/>
</g>
<!-- Node33 -->
<g id="node33" class="node">
<title>Node33</title>
<g id="a_node33"><a xlink:href="kernel_8h.html" target="_top" xlink:title=" ">
<polygon fill="none" stroke="black" points="1140,-308 1140,-327 1268,-327 1268,-308 1140,-308"/>
<text text-anchor="middle" x="1204" y="-315" font-family="Helvetica,sans-Serif" font-size="10.00">kernel/framework/kernel.h</text>
</a>
</g>
</g>
<!-- Node1&#45;&gt;Node33 -->
<g id="edge49" class="edge">
<title>Node1&#45;&gt;Node33</title>
<path fill="none" stroke="midnightblue" d="M1107.49,-364.97C1133.42,-352.48 1166.41,-336.6 1186.33,-327.01"/>
<polygon fill="midnightblue" stroke="midnightblue" points="1105.78,-361.9 1098.29,-369.4 1108.82,-368.21 1105.78,-361.9"/>
</g>
<!-- Node3 -->
<g id="node3" class="node">
<title>Node3</title>
<g id="a_node3"><a xlink:href="cte_8c.html" target="_top" xlink:title=" ">
<polygon fill="none" stroke="black" points="0,-235.5 0,-265.5 108,-265.5 108,-235.5 0,-235.5"/>
<text text-anchor="start" x="8" y="-253.5" font-family="Helvetica,sans-Serif" font-size="10.00">abstract&#45;machine/am</text>
<text text-anchor="middle" x="54" y="-242.5" font-family="Helvetica,sans-Serif" font-size="10.00">/src/x86/qemu/cte.c</text>
</a>
</g>
</g>
<!-- Node2&#45;&gt;Node3 -->
<g id="edge2" class="edge">
<title>Node2&#45;&gt;Node3</title>
<path fill="none" stroke="midnightblue" d="M293.26,-301.91C243.16,-292.11 176.07,-278.71 117,-266 114.15,-265.39 111.22,-264.75 108.27,-264.09"/>
<polygon fill="midnightblue" stroke="midnightblue" points="292.88,-305.4 303.36,-303.88 294.22,-298.53 292.88,-305.4"/>
</g>
<!-- Node4 -->
<g id="node4" class="node">
<title>Node4</title>
<g id="a_node4"><a xlink:href="ioe_8c.html" target="_top" xlink:title=" ">
<polygon fill="none" stroke="black" points="504,-235.5 504,-265.5 612,-265.5 612,-235.5 504,-235.5"/>
<text text-anchor="start" x="512" y="-253.5" font-family="Helvetica,sans-Serif" font-size="10.00">abstract&#45;machine/am</text>
<text text-anchor="middle" x="558" y="-242.5" font-family="Helvetica,sans-Serif" font-size="10.00">/src/x86/qemu/ioe.c</text>
</a>
</g>
</g>
<!-- Node2&#45;&gt;Node4 -->
<g id="edge3" class="edge">
<title>Node2&#45;&gt;Node4</title>
<path fill="none" stroke="midnightblue" d="M419.62,-299.09C450.13,-288.6 488.48,-275.41 517.07,-265.58"/>
<polygon fill="midnightblue" stroke="midnightblue" points="418.33,-295.83 410.01,-302.4 420.6,-302.45 418.33,-295.83"/>
</g>
<!-- Node5 -->
<g id="node5" class="node">
<title>Node5</title>
<g id="a_node5"><a xlink:href="mpe_8c.html" target="_top" xlink:title=" ">
<polygon fill="none" stroke="black" points="126,-235.5 126,-265.5 234,-265.5 234,-235.5 126,-235.5"/>
<text text-anchor="start" x="134" y="-253.5" font-family="Helvetica,sans-Serif" font-size="10.00">abstract&#45;machine/am</text>
<text text-anchor="middle" x="180" y="-242.5" font-family="Helvetica,sans-Serif" font-size="10.00">/src/x86/qemu/mpe.c</text>
</a>
</g>
</g>
<!-- Node2&#45;&gt;Node5 -->
<g id="edge4" class="edge">
<title>Node2&#45;&gt;Node5</title>
<path fill="none" stroke="midnightblue" d="M318.38,-299.09C287.87,-288.6 249.52,-275.41 220.93,-265.58"/>
<polygon fill="midnightblue" stroke="midnightblue" points="317.4,-302.45 327.99,-302.4 319.67,-295.83 317.4,-302.45"/>
</g>
<!-- Node6 -->
<g id="node6" class="node">
<title>Node6</title>
<g id="a_node6"><a xlink:href="trm_8c.html" target="_top" xlink:title=" ">
<polygon fill="none" stroke="black" points="252,-235.5 252,-265.5 360,-265.5 360,-235.5 252,-235.5"/>
<text text-anchor="start" x="260" y="-253.5" font-family="Helvetica,sans-Serif" font-size="10.00">abstract&#45;machine/am</text>
<text text-anchor="middle" x="306" y="-242.5" font-family="Helvetica,sans-Serif" font-size="10.00">/src/x86/qemu/trm.c</text>
</a>
</g>
</g>
<!-- Node2&#45;&gt;Node6 -->
<g id="edge5" class="edge">
<title>Node2&#45;&gt;Node6</title>
<path fill="none" stroke="midnightblue" d="M348.19,-295.02C338.8,-285.34 327.98,-274.17 319.64,-265.58"/>
<polygon fill="midnightblue" stroke="midnightblue" points="345.86,-297.65 355.33,-302.4 350.88,-292.78 345.86,-297.65"/>
</g>
<!-- Node7 -->
<g id="node7" class="node">
<title>Node7</title>
<g id="a_node7"><a xlink:href="vme_8c.html" target="_top" xlink:title=" ">
<polygon fill="none" stroke="black" points="378,-235.5 378,-265.5 486,-265.5 486,-235.5 378,-235.5"/>
<text text-anchor="start" x="386" y="-253.5" font-family="Helvetica,sans-Serif" font-size="10.00">abstract&#45;machine/am</text>
<text text-anchor="middle" x="432" y="-242.5" font-family="Helvetica,sans-Serif" font-size="10.00">/src/x86/qemu/vme.c</text>
</a>
</g>
</g>
<!-- Node2&#45;&gt;Node7 -->
<g id="edge6" class="edge">
<title>Node2&#45;&gt;Node7</title>
<path fill="none" stroke="midnightblue" d="M389.81,-295.02C399.2,-285.34 410.02,-274.17 418.36,-265.58"/>
<polygon fill="midnightblue" stroke="midnightblue" points="387.12,-292.78 382.67,-302.4 392.14,-297.65 387.12,-292.78"/>
</g>
<!-- Node8&#45;&gt;Node4 -->
<g id="edge8" class="edge">
<title>Node8&#45;&gt;Node4</title>
<path fill="none" stroke="midnightblue" d="M898.51,-308.44C829.3,-299.56 717.07,-284.1 621,-266 618.13,-265.46 615.2,-264.88 612.24,-264.27"/>
<polygon fill="midnightblue" stroke="midnightblue" points="898.46,-311.96 908.82,-309.76 899.35,-305.02 898.46,-311.96"/>
</g>
<!-- Node8&#45;&gt;Node9 -->
<g id="edge9" class="edge">
<title>Node8&#45;&gt;Node9</title>
<path fill="none" stroke="midnightblue" d="M898.85,-301.32C850.62,-290.09 785.64,-274.95 740.01,-264.32"/>
<polygon fill="midnightblue" stroke="midnightblue" points="898.35,-304.8 908.88,-303.66 899.93,-297.98 898.35,-304.8"/>
</g>
<!-- Node8&#45;&gt;Node10 -->
<g id="edge10" class="edge">
<title>Node8&#45;&gt;Node10</title>
<path fill="none" stroke="midnightblue" d="M921.97,-298.41C897.86,-288.03 868.05,-275.2 845.7,-265.58"/>
<polygon fill="midnightblue" stroke="midnightblue" points="920.67,-301.66 931.24,-302.4 923.43,-295.23 920.67,-301.66"/>
</g>
<!-- Node8&#45;&gt;Node11 -->
<g id="edge11" class="edge">
<title>Node8&#45;&gt;Node11</title>
<path fill="none" stroke="midnightblue" d="M995.48,-297.02C1011.82,-286.9 1031.41,-274.77 1046.26,-265.58"/>
<polygon fill="midnightblue" stroke="midnightblue" points="993.44,-294.16 986.78,-302.4 997.13,-300.11 993.44,-294.16"/>
</g>
<!-- Node12 -->
<g id="node12" class="node">
<title>Node12</title>
<g id="a_node12"><a xlink:href="string_8c.html" target="_top" xlink:title=" ">
<polygon fill="none" stroke="black" points="886,-235.5 886,-265.5 996,-265.5 996,-235.5 886,-235.5"/>
<text text-anchor="start" x="894" y="-253.5" font-family="Helvetica,sans-Serif" font-size="10.00">abstract&#45;machine/klib</text>
<text text-anchor="middle" x="941" y="-242.5" font-family="Helvetica,sans-Serif" font-size="10.00">/src/string.c</text>
</a>
</g>
</g>
<!-- Node8&#45;&gt;Node12 -->
<g id="edge12" class="edge">
<title>Node8&#45;&gt;Node12</title>
<path fill="none" stroke="midnightblue" d="M955.58,-292.7C952.35,-283.59 948.78,-273.49 945.98,-265.58"/>
<polygon fill="midnightblue" stroke="midnightblue" points="952.37,-294.14 959.01,-302.4 958.97,-291.8 952.37,-294.14"/>
</g>
<!-- Node13 -->
<g id="node13" class="node">
<title>Node13</title>
<g id="a_node13"><a xlink:href="main_8c.html" target="_top" xlink:title=" ">
<polygon fill="none" stroke="black" points="1142.5,-241 1142.5,-260 1265.5,-260 1265.5,-241 1142.5,-241"/>
<text text-anchor="middle" x="1204" y="-248" font-family="Helvetica,sans-Serif" font-size="10.00">kernel/framework/main.c</text>
</a>
</g>
</g>
<!-- Node8&#45;&gt;Node13 -->
<g id="edge13" class="edge">
<title>Node8&#45;&gt;Node13</title>
<path fill="none" stroke="midnightblue" d="M1025.55,-299.83C1072.52,-287.11 1135.3,-270.11 1172.51,-260.03"/>
<polygon fill="midnightblue" stroke="midnightblue" points="1024.52,-296.48 1015.78,-302.48 1026.35,-303.24 1024.52,-296.48"/>
</g>
<!-- Node8&#45;&gt;Node14 -->
<g id="edge14" class="edge">
<title>Node8&#45;&gt;Node14</title>
<path fill="none" stroke="midnightblue" d="M1029.26,-308.63C1133.85,-296.02 1337.68,-271.44 1440.5,-259.04"/>
<polygon fill="midnightblue" stroke="midnightblue" points="1028.66,-305.18 1019.15,-309.85 1029.5,-312.13 1028.66,-305.18"/>
</g>
<!-- Node15 -->
<g id="node15" class="node">
<title>Node15</title>
<g id="a_node15"><a xlink:href="buddy_8h.html" target="_top" xlink:title=" ">
<polygon fill="none" stroke="black" points="1698.5,-179.5 1698.5,-198.5 1811.5,-198.5 1811.5,-179.5 1698.5,-179.5"/>
<text text-anchor="middle" x="1755" y="-186.5" font-family="Helvetica,sans-Serif" font-size="10.00">kernel/include/buddy.h</text>
</a>
</g>
</g>
<!-- Node14&#45;&gt;Node15 -->
<g id="edge15" class="edge">
<title>Node14&#45;&gt;Node15</title>
<path fill="none" stroke="midnightblue" d="M1549.11,-238.61C1598.02,-227.07 1674.27,-209.06 1718.96,-198.51"/>
<polygon fill="midnightblue" stroke="midnightblue" points="1548.03,-235.27 1539.11,-240.98 1549.64,-242.08 1548.03,-235.27"/>
</g>
<!-- Node16 -->
<g id="node16" class="node">
<title>Node16</title>
<g id="a_node16"><a xlink:href="buddy_8c.html" target="_top" xlink:title="impl of buddy system">
<polygon fill="none" stroke="black" points="1830.5,-123.5 1830.5,-142.5 1925.5,-142.5 1925.5,-123.5 1830.5,-123.5"/>
<text text-anchor="middle" x="1878" y="-130.5" font-family="Helvetica,sans-Serif" font-size="10.00">kernel/src/buddy.c</text>
</a>
</g>
</g>
<!-- Node14&#45;&gt;Node16 -->
<g id="edge33" class="edge">
<title>Node14&#45;&gt;Node16</title>
<path fill="none" stroke="midnightblue" d="M1553.14,-239.05C1560.46,-237.63 1567.92,-236.23 1575,-235 1683.43,-216.13 1723.1,-251.19 1820,-199 1844.77,-185.66 1864.16,-157.39 1872.92,-142.93"/>
<polygon fill="midnightblue" stroke="midnightblue" points="1552.43,-235.62 1543.29,-240.99 1553.78,-242.49 1552.43,-235.62"/>
</g>
<!-- Node17 -->
<g id="node17" class="node">
<title>Node17</title>
<g id="a_node17"><a xlink:href="pmm_8c.html" target="_top" xlink:title=" ">
<polygon fill="none" stroke="black" points="1709,-123.5 1709,-142.5 1801,-142.5 1801,-123.5 1709,-123.5"/>
<text text-anchor="middle" x="1755" y="-130.5" font-family="Helvetica,sans-Serif" font-size="10.00">kernel/src/pmm.c</text>
</a>
</g>
</g>
<!-- Node14&#45;&gt;Node17 -->
<g id="edge36" class="edge">
<title>Node14&#45;&gt;Node17</title>
<path fill="none" stroke="midnightblue" d="M1542.26,-237.95C1571.47,-228.81 1611.99,-214.95 1646,-199 1682.5,-181.88 1722.52,-156.02 1742.37,-142.66"/>
<polygon fill="midnightblue" stroke="midnightblue" points="1540.96,-234.69 1532.43,-240.98 1543.02,-241.38 1540.96,-234.69"/>
</g>
<!-- Node18 -->
<g id="node18" class="node">
<title>Node18</title>
<g id="a_node18"><a xlink:href="devices_8h.html" target="_top" xlink:title=" ">
<polygon fill="none" stroke="black" points="1443.5,-67.5 1443.5,-86.5 1564.5,-86.5 1564.5,-67.5 1443.5,-67.5"/>
<text text-anchor="middle" x="1504" y="-74.5" font-family="Helvetica,sans-Serif" font-size="10.00">kernel/include/devices.h</text>
</a>
</g>
</g>
<!-- Node14&#45;&gt;Node18 -->
<g id="edge18" class="edge">
<title>Node14&#45;&gt;Node18</title>
<path fill="none" stroke="midnightblue" d="M1538.72,-237.22C1577.1,-221.88 1636.08,-191.56 1662,-143 1666.19,-135.16 1667.36,-130.09 1662,-123 1649.41,-106.33 1599.49,-94 1559.08,-86.5"/>
<polygon fill="midnightblue" stroke="midnightblue" points="1537.04,-234.12 1528.96,-240.98 1539.55,-240.65 1537.04,-234.12"/>
</g>
<!-- Node24 -->
<g id="node24" class="node">
<title>Node24</title>
<g id="a_node24"><a xlink:href="spinlock_8h.html" target="_top" xlink:title=" ">
<polygon fill="none" stroke="black" points="1351.5,-179.5 1351.5,-198.5 1474.5,-198.5 1474.5,-179.5 1351.5,-179.5"/>
<text text-anchor="middle" x="1413" y="-186.5" font-family="Helvetica,sans-Serif" font-size="10.00">kernel/include/spinlock.h</text>
</a>
</g>
</g>
<!-- Node14&#45;&gt;Node24 -->
<g id="edge24" class="edge">
<title>Node14&#45;&gt;Node24</title>
<path fill="none" stroke="midnightblue" d="M1481.72,-235.43C1464.37,-223.96 1440.43,-208.13 1425.87,-198.51"/>
<polygon fill="midnightblue" stroke="midnightblue" points="1479.83,-238.38 1490.11,-240.98 1483.69,-232.54 1479.83,-238.38"/>
</g>
<!-- Node25 -->
<g id="node25" class="node">
<title>Node25</title>
<g id="a_node25"><a xlink:href="thread_8h.html" target="_top" xlink:title=" ">
<polygon fill="none" stroke="black" points="1539,-123.5 1539,-142.5 1653,-142.5 1653,-123.5 1539,-123.5"/>
<text text-anchor="middle" x="1596" y="-130.5" font-family="Helvetica,sans-Serif" font-size="10.00">kernel/include/thread.h</text>
</a>
</g>
</g>
<!-- Node14&#45;&gt;Node25 -->
<g id="edge32" class="edge">
<title>Node14&#45;&gt;Node25</title>
<path fill="none" stroke="midnightblue" d="M1516.29,-233C1536.29,-208.16 1573.44,-162.02 1588.93,-142.78"/>
<polygon fill="midnightblue" stroke="midnightblue" points="1513.54,-230.83 1509.99,-240.82 1518.99,-235.22 1513.54,-230.83"/>
</g>
<!-- Node26 -->
<g id="node26" class="node">
<title>Node26</title>
<g id="a_node26"><a xlink:href="kmt_8c.html" target="_top" xlink:title=" ">
<polygon fill="none" stroke="black" points="1202,-67.5 1202,-86.5 1288,-86.5 1288,-67.5 1202,-67.5"/>
<text text-anchor="middle" x="1245" y="-74.5" font-family="Helvetica,sans-Serif" font-size="10.00">kernel/src/kmt.c</text>
</a>
</g>
</g>
<!-- Node14&#45;&gt;Node26 -->
<g id="edge34" class="edge">
<title>Node14&#45;&gt;Node26</title>
<path fill="none" stroke="midnightblue" d="M1430.34,-240.75C1371.07,-229.3 1291.13,-203.05 1253,-143 1241.91,-125.53 1242.54,-100.05 1243.84,-86.77"/>
<polygon fill="midnightblue" stroke="midnightblue" points="1429.94,-244.23 1440.41,-242.59 1431.2,-237.35 1429.94,-244.23"/>
</g>
<!-- Node27 -->
<g id="node27" class="node">
<title>Node27</title>
<g id="a_node27"><a xlink:href="os_8c.html" target="_top" xlink:title=" ">
<polygon fill="none" stroke="black" points="1441,-123.5 1441,-142.5 1521,-142.5 1521,-123.5 1441,-123.5"/>
<text text-anchor="middle" x="1481" y="-130.5" font-family="Helvetica,sans-Serif" font-size="10.00">kernel/src/os.c</text>
</a>
</g>
</g>
<!-- Node14&#45;&gt;Node27 -->
<g id="edge35" class="edge">
<title>Node14&#45;&gt;Node27</title>
<path fill="none" stroke="midnightblue" d="M1499.41,-230.66C1494.59,-205.37 1486.23,-161.44 1482.67,-142.78"/>
<polygon fill="midnightblue" stroke="midnightblue" points="1496.04,-231.65 1501.35,-240.82 1502.91,-230.34 1496.04,-231.65"/>
</g>
<!-- Node15&#45;&gt;Node16 -->
<g id="edge16" class="edge">
<title>Node15&#45;&gt;Node16</title>
<path fill="none" stroke="midnightblue" d="M1783.77,-175.37C1806.81,-165.26 1838.48,-151.35 1858.6,-142.52"/>
<polygon fill="midnightblue" stroke="midnightblue" points="1782.24,-172.22 1774.49,-179.44 1785.05,-178.63 1782.24,-172.22"/>
</g>
<!-- Node15&#45;&gt;Node17 -->
<g id="edge17" class="edge">
<title>Node15&#45;&gt;Node17</title>
<path fill="none" stroke="midnightblue" d="M1755,-168.8C1755,-159.91 1755,-149.78 1755,-142.75"/>
<polygon fill="midnightblue" stroke="midnightblue" points="1751.5,-169.08 1755,-179.08 1758.5,-169.08 1751.5,-169.08"/>
</g>
<!-- Node19 -->
<g id="node19" class="node">
<title>Node19</title>
<g id="a_node19"><a xlink:href="dev_8c.html" target="_top" xlink:title=" ">
<polygon fill="none" stroke="black" points="1207,-6 1207,-25 1311,-25 1311,-6 1207,-6"/>
<text text-anchor="middle" x="1259" y="-13" font-family="Helvetica,sans-Serif" font-size="10.00">kernel/src/dev/dev.c</text>
</a>
</g>
</g>
<!-- Node18&#45;&gt;Node19 -->
<g id="edge19" class="edge">
<title>Node18&#45;&gt;Node19</title>
<path fill="none" stroke="midnightblue" d="M1459.17,-65.11C1411.62,-53.57 1337.49,-35.56 1294.04,-25.01"/>
<polygon fill="midnightblue" stroke="midnightblue" points="1458.35,-68.52 1468.9,-67.48 1460.01,-61.71 1458.35,-68.52"/>
</g>
<!-- Node20 -->
<g id="node20" class="node">
<title>Node20</title>
<g id="a_node20"><a xlink:href="dev__input_8c.html" target="_top" xlink:title=" ">
<polygon fill="none" stroke="black" points="1329.5,-0.5 1329.5,-30.5 1426.5,-30.5 1426.5,-0.5 1329.5,-0.5"/>
<text text-anchor="start" x="1337.5" y="-18.5" font-family="Helvetica,sans-Serif" font-size="10.00">kernel/src/dev/dev</text>
<text text-anchor="middle" x="1378" y="-7.5" font-family="Helvetica,sans-Serif" font-size="10.00">_input.c</text>
</a>
</g>
</g>
<!-- Node18&#45;&gt;Node20 -->
<g id="edge20" class="edge">
<title>Node18&#45;&gt;Node20</title>
<path fill="none" stroke="midnightblue" d="M1476.89,-63.2C1456.53,-53.58 1428.66,-40.42 1407.7,-30.52"/>
<polygon fill="midnightblue" stroke="midnightblue" points="1475.41,-66.37 1485.95,-67.48 1478.4,-60.04 1475.41,-66.37"/>
</g>
<!-- Node21 -->
<g id="node21" class="node">
<title>Node21</title>
<g id="a_node21"><a xlink:href="dev__sd_8c.html" target="_top" xlink:title=" ">
<polygon fill="none" stroke="black" points="1444,-6 1444,-25 1564,-25 1564,-6 1444,-6"/>
<text text-anchor="middle" x="1504" y="-13" font-family="Helvetica,sans-Serif" font-size="10.00">kernel/src/dev/dev_sd.c</text>
</a>
</g>
</g>
<!-- Node18&#45;&gt;Node21 -->
<g id="edge21" class="edge">
<title>Node18&#45;&gt;Node21</title>
<path fill="none" stroke="midnightblue" d="M1504,-57.32C1504,-46.5 1504,-33.4 1504,-25.01"/>
<polygon fill="midnightblue" stroke="midnightblue" points="1500.5,-57.48 1504,-67.48 1507.5,-57.48 1500.5,-57.48"/>
</g>
<!-- Node22 -->
<g id="node22" class="node">
<title>Node22</title>
<g id="a_node22"><a xlink:href="dev__tty_8c.html" target="_top" xlink:title=" ">
<polygon fill="none" stroke="black" points="1581.5,-0.5 1581.5,-30.5 1678.5,-30.5 1678.5,-0.5 1581.5,-0.5"/>
<text text-anchor="start" x="1589.5" y="-18.5" font-family="Helvetica,sans-Serif" font-size="10.00">kernel/src/dev/dev</text>
<text text-anchor="middle" x="1630" y="-7.5" font-family="Helvetica,sans-Serif" font-size="10.00">_tty.c</text>
</a>
</g>
</g>
<!-- Node18&#45;&gt;Node22 -->
<g id="edge22" class="edge">
<title>Node18&#45;&gt;Node22</title>
<path fill="none" stroke="midnightblue" d="M1531.11,-63.2C1551.47,-53.58 1579.34,-40.42 1600.3,-30.52"/>
<polygon fill="midnightblue" stroke="midnightblue" points="1529.6,-60.04 1522.05,-67.48 1532.59,-66.37 1529.6,-60.04"/>
</g>
<!-- Node23 -->
<g id="node23" class="node">
<title>Node23</title>
<g id="a_node23"><a xlink:href="dev__video_8c.html" target="_top" xlink:title=" ">
<polygon fill="none" stroke="black" points="1696.5,-0.5 1696.5,-30.5 1793.5,-30.5 1793.5,-0.5 1696.5,-0.5"/>
<text text-anchor="start" x="1704.5" y="-18.5" font-family="Helvetica,sans-Serif" font-size="10.00">kernel/src/dev/dev</text>
<text text-anchor="middle" x="1745" y="-7.5" font-family="Helvetica,sans-Serif" font-size="10.00">_video.c</text>
</a>
</g>
</g>
<!-- Node18&#45;&gt;Node23 -->
<g id="edge23" class="edge">
<title>Node18&#45;&gt;Node23</title>
<path fill="none" stroke="midnightblue" d="M1548.73,-65.05C1585.79,-55.97 1639.83,-42.7 1687,-31 1690.02,-30.25 1693.13,-29.48 1696.27,-28.7"/>
<polygon fill="midnightblue" stroke="midnightblue" points="1547.63,-61.72 1538.75,-67.5 1549.3,-68.52 1547.63,-61.72"/>
</g>
<!-- Node24&#45;&gt;Node18 -->
<g id="edge25" class="edge">
<title>Node24&#45;&gt;Node18</title>
<path fill="none" stroke="midnightblue" d="M1414.88,-169.2C1417.07,-155.27 1421.8,-136.46 1432,-123 1444.82,-106.08 1466,-93.96 1482.07,-86.59"/>
<polygon fill="midnightblue" stroke="midnightblue" points="1411.4,-168.76 1413.61,-179.12 1418.35,-169.65 1411.4,-168.76"/>
</g>
<!-- Node24&#45;&gt;Node25 -->
<g id="edge26" class="edge">
<title>Node24&#45;&gt;Node25</title>
<path fill="none" stroke="midnightblue" d="M1451.74,-176.57C1486.26,-166.38 1536.01,-151.7 1567.14,-142.52"/>
<polygon fill="midnightblue" stroke="midnightblue" points="1450.6,-173.26 1442,-179.44 1452.58,-179.97 1450.6,-173.26"/>
</g>
<!-- Node24&#45;&gt;Node26 -->
<g id="edge29" class="edge">
<title>Node24&#45;&gt;Node26</title>
<path fill="none" stroke="midnightblue" d="M1341.32,-178.55C1316.19,-172.1 1289.42,-161.25 1270,-143 1253.79,-127.77 1247.97,-100.85 1245.97,-86.92"/>
<polygon fill="midnightblue" stroke="midnightblue" points="1340.68,-182 1351.22,-180.89 1342.29,-175.18 1340.68,-182"/>
</g>
<!-- Node24&#45;&gt;Node27 -->
<g id="edge30" class="edge">
<title>Node24&#45;&gt;Node27</title>
<path fill="none" stroke="midnightblue" d="M1431.76,-173.1C1444,-163.38 1459.56,-151.03 1469.88,-142.83"/>
<polygon fill="midnightblue" stroke="midnightblue" points="1429.58,-170.36 1423.93,-179.32 1433.93,-175.85 1429.58,-170.36"/>
</g>
<!-- Node28 -->
<g id="node28" class="node">
<title>Node28</title>
<g id="a_node28"><a xlink:href="spinlock_8c.html" target="_top" xlink:title=" ">
<polygon fill="none" stroke="black" points="1279,-123.5 1279,-142.5 1385,-142.5 1385,-123.5 1279,-123.5"/>
<text text-anchor="middle" x="1332" y="-130.5" font-family="Helvetica,sans-Serif" font-size="10.00">kernel/src/spinlock.c</text>
</a>
</g>
</g>
<!-- Node24&#45;&gt;Node28 -->
<g id="edge31" class="edge">
<title>Node24&#45;&gt;Node28</title>
<path fill="none" stroke="midnightblue" d="M1391.43,-173.62C1376.64,-163.76 1357.49,-150.99 1344.98,-142.65"/>
<polygon fill="midnightblue" stroke="midnightblue" points="1389.72,-176.69 1399.99,-179.32 1393.61,-170.86 1389.72,-176.69"/>
</g>
<!-- Node25&#45;&gt;Node18 -->
<g id="edge27" class="edge">
<title>Node25&#45;&gt;Node18</title>
<path fill="none" stroke="midnightblue" d="M1572.45,-118.18C1555.52,-108.24 1533.22,-95.15 1518.74,-86.65"/>
<polygon fill="midnightblue" stroke="midnightblue" points="1570.82,-121.28 1581.22,-123.32 1574.37,-115.24 1570.82,-121.28"/>
</g>
<!-- Node25&#45;&gt;Node26 -->
<g id="edge28" class="edge">
<title>Node25&#45;&gt;Node26</title>
<path fill="none" stroke="midnightblue" d="M1530.23,-121.88C1459.4,-110.98 1348.74,-93.96 1288.19,-84.64"/>
<polygon fill="midnightblue" stroke="midnightblue" points="1529.97,-125.38 1540.38,-123.44 1531.03,-118.46 1529.97,-125.38"/>
</g>
<!-- Node29&#45;&gt;Node14 -->
<g id="edge39" class="edge">
<title>Node29&#45;&gt;Node14</title>
<path fill="none" stroke="midnightblue" d="M1643.63,-299.11C1606.27,-286.46 1557.33,-269.89 1528.13,-260.01"/>
<polygon fill="midnightblue" stroke="midnightblue" points="1642.74,-302.5 1653.34,-302.4 1644.99,-295.87 1642.74,-302.5"/>
</g>
<!-- Node29&#45;&gt;Node16 -->
<g id="edge43" class="edge">
<title>Node29&#45;&gt;Node16</title>
<path fill="none" stroke="midnightblue" d="M1760.14,-306.56C1787.11,-299.4 1816.74,-287.09 1837,-266 1871.41,-230.17 1876.98,-165.98 1877.85,-142.72"/>
<polygon fill="midnightblue" stroke="midnightblue" points="1759.22,-303.18 1750.35,-308.98 1760.9,-309.98 1759.22,-303.18"/>
</g>
<!-- Node29&#45;&gt;Node17 -->
<g id="edge44" class="edge">
<title>Node29&#45;&gt;Node17</title>
<path fill="none" stroke="midnightblue" d="M1760.04,-306C1783.25,-298.77 1807.08,-286.58 1821,-266 1826.65,-257.65 1828.63,-195.12 1820,-179 1810.8,-161.82 1791.81,-149.85 1776.72,-142.6"/>
<polygon fill="midnightblue" stroke="midnightblue" points="1758.82,-302.71 1750.16,-308.8 1760.73,-309.44 1758.82,-302.71"/>
</g>
<!-- Node30 -->
<g id="node30" class="node">
<title>Node30</title>
<g id="a_node30"><a xlink:href="logger_8c.html" target="_top" xlink:title=" ">
<polygon fill="none" stroke="black" points="1702,-235.5 1702,-265.5 1812,-265.5 1812,-235.5 1702,-235.5"/>
<text text-anchor="start" x="1710" y="-253.5" font-family="Helvetica,sans-Serif" font-size="10.00">abstract&#45;machine/klib</text>
<text text-anchor="middle" x="1757" y="-242.5" font-family="Helvetica,sans-Serif" font-size="10.00">/src/logger.c</text>
</a>
</g>
</g>
<!-- Node29&#45;&gt;Node30 -->
<g id="edge38" class="edge">
<title>Node29&#45;&gt;Node30</title>
<path fill="none" stroke="midnightblue" d="M1715.48,-295.02C1724.72,-285.34 1735.37,-274.17 1743.57,-265.58"/>
<polygon fill="midnightblue" stroke="midnightblue" points="1712.82,-292.74 1708.45,-302.4 1717.89,-297.58 1712.82,-292.74"/>
</g>
<!-- Node31 -->
<g id="node31" class="node">
<title>Node31</title>
<g id="a_node31"><a xlink:href="list_8h.html" target="_top" xlink:title="double circular linked list impl without concurrency">
<polygon fill="none" stroke="black" points="1584,-241 1584,-260 1684,-260 1684,-241 1584,-241"/>
<text text-anchor="middle" x="1634" y="-248" font-family="Helvetica,sans-Serif" font-size="10.00">kernel/include/list.h</text>
</a>
</g>
</g>
<!-- Node29&#45;&gt;Node31 -->
<g id="edge40" class="edge">
<title>Node29&#45;&gt;Node31</title>
<path fill="none" stroke="midnightblue" d="M1674.82,-295C1663.69,-283.13 1650.47,-269.05 1642.16,-260.19"/>
<polygon fill="midnightblue" stroke="midnightblue" points="1672.37,-297.5 1681.76,-302.4 1677.47,-292.71 1672.37,-297.5"/>
</g>
<!-- Node31&#45;&gt;Node15 -->
<g id="edge41" class="edge">
<title>Node31&#45;&gt;Node15</title>
<path fill="none" stroke="midnightblue" d="M1660.39,-236.52C1683.86,-224.98 1717.49,-208.44 1737.7,-198.51"/>
<polygon fill="midnightblue" stroke="midnightblue" points="1658.77,-233.42 1651.34,-240.98 1661.85,-239.7 1658.77,-233.42"/>
</g>
<!-- Node31&#45;&gt;Node25 -->
<g id="edge42" class="edge">
<title>Node31&#45;&gt;Node25</title>
<path fill="none" stroke="midnightblue" d="M1627.91,-231C1619.61,-205.76 1605.05,-161.52 1598.89,-142.78"/>
<polygon fill="midnightblue" stroke="midnightblue" points="1624.69,-232.41 1631.14,-240.82 1631.34,-230.23 1624.69,-232.41"/>
</g>
<!-- Node33&#45;&gt;Node13 -->
<g id="edge50" class="edge">
<title>Node33&#45;&gt;Node13</title>
<path fill="none" stroke="midnightblue" d="M1204,-297.54C1204,-285.17 1204,-269.62 1204,-260.13"/>
<polygon fill="midnightblue" stroke="midnightblue" points="1200.5,-297.73 1204,-307.73 1207.5,-297.73 1200.5,-297.73"/>
</g>
<!-- Node33&#45;&gt;Node14 -->
<g id="edge51" class="edge">
<title>Node33&#45;&gt;Node14</title>
<path fill="none" stroke="midnightblue" d="M1253.21,-305.8C1312.05,-293.01 1409.35,-271.86 1463.52,-260.08"/>
<polygon fill="midnightblue" stroke="midnightblue" points="1252.42,-302.39 1243.4,-307.94 1253.91,-309.23 1252.42,-302.39"/>
</g>
<!-- Node34 -->
<g id="node34" class="node">
<title>Node34</title>
<g id="a_node34"><a xlink:href="sem_8h.html" target="_top" xlink:title=" ">
<polygon fill="none" stroke="black" points="1079,-123.5 1079,-142.5 1185,-142.5 1185,-123.5 1079,-123.5"/>
<text text-anchor="middle" x="1132" y="-130.5" font-family="Helvetica,sans-Serif" font-size="10.00">kernel/include/sem.h</text>
</a>
</g>
</g>
<!-- Node33&#45;&gt;Node34 -->
<g id="edge52" class="edge">
<title>Node33&#45;&gt;Node34</title>
<path fill="none" stroke="midnightblue" d="M1233.81,-303.31C1248.79,-294.95 1265.52,-282.57 1274,-266 1280.28,-253.73 1280.32,-247.24 1274,-235 1248.96,-186.47 1188.64,-156.16 1155.24,-142.51"/>
<polygon fill="midnightblue" stroke="midnightblue" points="1232.06,-300.27 1224.8,-307.99 1235.29,-306.48 1232.06,-300.27"/>
</g>
<!-- Node34&#45;&gt;Node18 -->
<g id="edge53" class="edge">
<title>Node34&#45;&gt;Node18</title>
<path fill="none" stroke="midnightblue" d="M1195.31,-122.81C1265.32,-112.65 1377.17,-96.41 1445.28,-86.52"/>
<polygon fill="midnightblue" stroke="midnightblue" points="1194.69,-119.36 1185.3,-124.26 1195.7,-126.29 1194.69,-119.36"/>
</g>
<!-- Node34&#45;&gt;Node26 -->
<g id="edge54" class="edge">
<title>Node34&#45;&gt;Node26</title>
<path fill="none" stroke="midnightblue" d="M1159,-119.1C1180.11,-109.01 1208.86,-95.27 1227.18,-86.52"/>
<polygon fill="midnightblue" stroke="midnightblue" points="1157.42,-115.97 1149.91,-123.44 1160.44,-122.29 1157.42,-115.97"/>
</g>
<!-- Node35 -->
<g id="node35" class="node">
<title>Node35</title>
<g id="a_node35"><a xlink:href="sem_8c.html" target="_top" xlink:title=" ">
<polygon fill="none" stroke="black" points="1087.5,-67.5 1087.5,-86.5 1176.5,-86.5 1176.5,-67.5 1087.5,-67.5"/>
<text text-anchor="middle" x="1132" y="-74.5" font-family="Helvetica,sans-Serif" font-size="10.00">kernel/src/sem.c</text>
</a>
</g>
</g>
<!-- Node34&#45;&gt;Node35 -->
<g id="edge55" class="edge">
<title>Node34&#45;&gt;Node35</title>
<path fill="none" stroke="midnightblue" d="M1132,-112.8C1132,-103.91 1132,-93.78 1132,-86.75"/>
<polygon fill="midnightblue" stroke="midnightblue" points="1128.5,-113.08 1132,-123.08 1135.5,-113.08 1128.5,-113.08"/>
</g>
</g>
</svg>
