<?xml version="1.0" encoding="UTF-8" standalone="no"?>
<!DOCTYPE svg PUBLIC "-//W3C//DTD SVG 1.1//EN"
 "http://www.w3.org/Graphics/SVG/1.1/DTD/svg11.dtd">
<!-- Generated by graphviz version 3.0.0 (20220413.0106)
 -->
<!-- Title: abstract&#45;machine/am/include/am.h Pages: 1 -->
<svg width="1923pt" height="464pt"
 viewBox="0.00 0.00 1922.73 464.00" xmlns="http://www.w3.org/2000/svg" xmlns:xlink="http://www.w3.org/1999/xlink">
<g id="graph0" class="graph" transform="scale(1 1) rotate(0) translate(4 460)">
<title>abstract&#45;machine/am/include/am.h</title>
<!-- Node1 -->
<g id="node1" class="node">
<title>Node1</title>
<g id="a_node1"><a xlink:title=" ">
<polygon fill="#bfbfbf" stroke="black" points="1015,-425.5 1015,-455.5 1123,-455.5 1123,-425.5 1015,-425.5"/>
<text text-anchor="start" x="1023" y="-443.5" font-family="Helvetica,sans-Serif" font-size="10.00">abstract&#45;machine/am</text>
<text text-anchor="middle" x="1069" y="-432.5" font-family="Helvetica,sans-Serif" font-size="10.00">/include/am.h</text>
</a>
</g>
</g>
<!-- Node2 -->
<g id="node2" class="node">
<title>Node2</title>
<g id="a_node2"><a xlink:href="x86-qemu_8h.html" target="_top" xlink:title=" ">
<polygon fill="none" stroke="black" points="303.5,-358.5 303.5,-388.5 434.5,-388.5 434.5,-358.5 303.5,-358.5"/>
<text text-anchor="start" x="311.5" y="-376.5" font-family="Helvetica,sans-Serif" font-size="10.00">abstract&#45;machine/am</text>
<text text-anchor="middle" x="369" y="-365.5" font-family="Helvetica,sans-Serif" font-size="10.00">/src/x86/qemu/x86&#45;qemu.h</text>
</a>
</g>
</g>
<!-- Node1&#45;&gt;Node2 -->
<g id="edge1" class="edge">
<title>Node1&#45;&gt;Node2</title>
<path fill="none" stroke="midnightblue" d="M1004.93,-433.55C872.26,-421.23 568.7,-393.04 434.67,-380.6"/>
<polygon fill="midnightblue" stroke="midnightblue" points="1004.66,-437.04 1014.94,-434.48 1005.31,-430.07 1004.66,-437.04"/>
</g>
<!-- Node8 -->
<g id="node8" class="node">
<title>Node8</title>
<g id="a_node8"><a xlink:href="klib_8h.html" target="_top" xlink:title=" ">
<polygon fill="none" stroke="black" points="909,-358.5 909,-388.5 1019,-388.5 1019,-358.5 909,-358.5"/>
<text text-anchor="start" x="917" y="-376.5" font-family="Helvetica,sans-Serif" font-size="10.00">abstract&#45;machine/klib</text>
<text text-anchor="middle" x="964" y="-365.5" font-family="Helvetica,sans-Serif" font-size="10.00">/include/klib.h</text>
</a>
</g>
</g>
<!-- Node1&#45;&gt;Node8 -->
<g id="edge7" class="edge">
<title>Node1&#45;&gt;Node8</title>
<path fill="none" stroke="midnightblue" d="M1037.52,-420.02C1021.18,-409.9 1001.59,-397.77 986.74,-388.58"/>
<polygon fill="midnightblue" stroke="midnightblue" points="1035.87,-423.11 1046.22,-425.4 1039.56,-417.16 1035.87,-423.11"/>
</g>
<!-- Node9 -->
<g id="node9" class="node">
<title>Node9</title>
<g id="a_node9"><a xlink:href="cpp_8c.html" target="_top" xlink:title=" ">
<polygon fill="none" stroke="black" points="630,-291.5 630,-321.5 740,-321.5 740,-291.5 630,-291.5"/>
<text text-anchor="start" x="638" y="-309.5" font-family="Helvetica,sans-Serif" font-size="10.00">abstract&#45;machine/klib</text>
<text text-anchor="middle" x="685" y="-298.5" font-family="Helvetica,sans-Serif" font-size="10.00">/src/cpp.c</text>
</a>
</g>
</g>
<!-- Node1&#45;&gt;Node9 -->
<g id="edge53" class="edge">
<title>Node1&#45;&gt;Node9</title>
<path fill="none" stroke="midnightblue" d="M1005.01,-427.88C962.41,-419.27 905.57,-406.08 857,-389 802.92,-369.98 743.14,-339.31 710.23,-321.51"/>
<polygon fill="midnightblue" stroke="midnightblue" points="1004.47,-431.35 1014.96,-429.87 1005.84,-424.48 1004.47,-431.35"/>
</g>
<!-- Node10 -->
<g id="node10" class="node">
<title>Node10</title>
<g id="a_node10"><a xlink:href="stdio_8c.html" target="_top" xlink:title=" ">
<polygon fill="none" stroke="black" points="758,-291.5 758,-321.5 868,-321.5 868,-291.5 758,-291.5"/>
<text text-anchor="start" x="766" y="-309.5" font-family="Helvetica,sans-Serif" font-size="10.00">abstract&#45;machine/klib</text>
<text text-anchor="middle" x="813" y="-298.5" font-family="Helvetica,sans-Serif" font-size="10.00">/src/stdio.c</text>
</a>
</g>
</g>
<!-- Node1&#45;&gt;Node10 -->
<g id="edge55" class="edge">
<title>Node1&#45;&gt;Node10</title>
<path fill="none" stroke="midnightblue" d="M1004.73,-427.67C971.92,-419.84 932.24,-407.53 900,-389 868.78,-371.06 839.81,-339.85 824.45,-321.71"/>
<polygon fill="midnightblue" stroke="midnightblue" points="1004.15,-431.12 1014.68,-429.95 1005.72,-424.3 1004.15,-431.12"/>
</g>
<!-- Node11 -->
<g id="node11" class="node">
<title>Node11</title>
<g id="a_node11"><a xlink:href="stdlib_8c.html" target="_top" xlink:title=" ">
<polygon fill="none" stroke="black" points="1014,-291.5 1014,-321.5 1124,-321.5 1124,-291.5 1014,-291.5"/>
<text text-anchor="start" x="1022" y="-309.5" font-family="Helvetica,sans-Serif" font-size="10.00">abstract&#45;machine/klib</text>
<text text-anchor="middle" x="1069" y="-298.5" font-family="Helvetica,sans-Serif" font-size="10.00">/src/stdlib.c</text>
</a>
</g>
</g>
<!-- Node1&#45;&gt;Node11 -->
<g id="edge56" class="edge">
<title>Node1&#45;&gt;Node11</title>
<path fill="none" stroke="midnightblue" d="M1069,-415.02C1069,-387.51 1069,-343.79 1069,-321.52"/>
<polygon fill="midnightblue" stroke="midnightblue" points="1065.5,-415.37 1069,-425.37 1072.5,-415.37 1065.5,-415.37"/>
</g>
<!-- Node14 -->
<g id="node14" class="node">
<title>Node14</title>
<g id="a_node14"><a xlink:href="common_8h.html" target="_top" xlink:title=" ">
<polygon fill="none" stroke="black" points="1396.5,-297 1396.5,-316 1521.5,-316 1521.5,-297 1396.5,-297"/>
<text text-anchor="middle" x="1459" y="-304" font-family="Helvetica,sans-Serif" font-size="10.00">kernel/include/common.h</text>
</a>
</g>
</g>
<!-- Node1&#45;&gt;Node14 -->
<g id="edge61" class="edge">
<title>Node1&#45;&gt;Node14</title>
<path fill="none" stroke="midnightblue" d="M1133.35,-431.45C1175.79,-424.36 1231.71,-411.51 1277,-389 1296.52,-379.3 1295.99,-368.66 1315,-358 1350.01,-338.38 1394.02,-324.29 1424.11,-316.07"/>
<polygon fill="midnightblue" stroke="midnightblue" points="1132.73,-428.01 1123.41,-433.05 1133.84,-434.92 1132.73,-428.01"/>
</g>
<!-- Node32 -->
<g id="node32" class="node">
<title>Node32</title>
<g id="a_node32"><a xlink:href="logger_8h.html" target="_top" xlink:title=" ">
<polygon fill="none" stroke="black" points="1662,-358.5 1662,-388.5 1772,-388.5 1772,-358.5 1662,-358.5"/>
<text text-anchor="start" x="1670" y="-376.5" font-family="Helvetica,sans-Serif" font-size="10.00">abstract&#45;machine/klib</text>
<text text-anchor="middle" x="1717" y="-365.5" font-family="Helvetica,sans-Serif" font-size="10.00">/include/logger.h</text>
</a>
</g>
</g>
<!-- Node1&#45;&gt;Node32 -->
<g id="edge45" class="edge">
<title>Node1&#45;&gt;Node32</title>
<path fill="none" stroke="midnightblue" d="M1133.11,-433.07C1260.19,-420.32 1542.07,-392.05 1661.65,-380.05"/>
<polygon fill="midnightblue" stroke="midnightblue" points="1132.73,-429.59 1123.13,-434.07 1133.43,-436.55 1132.73,-429.59"/>
</g>
<!-- Node35 -->
<g id="node35" class="node">
<title>Node35</title>
<g id="a_node35"><a xlink:href="int64_8c.html" target="_top" xlink:title=" ">
<polygon fill="none" stroke="black" points="1324,-358.5 1324,-388.5 1434,-388.5 1434,-358.5 1324,-358.5"/>
<text text-anchor="start" x="1332" y="-376.5" font-family="Helvetica,sans-Serif" font-size="10.00">abstract&#45;machine/klib</text>
<text text-anchor="middle" x="1379" y="-365.5" font-family="Helvetica,sans-Serif" font-size="10.00">/src/int64.c</text>
</a>
</g>
</g>
<!-- Node1&#45;&gt;Node35 -->
<g id="edge54" class="edge">
<title>Node1&#45;&gt;Node35</title>
<path fill="none" stroke="midnightblue" d="M1133.13,-426.07C1181.69,-415.9 1250.04,-401.58 1310,-389 1314.43,-388.07 1319.03,-387.11 1323.64,-386.14"/>
<polygon fill="midnightblue" stroke="midnightblue" points="1132.15,-422.7 1123.08,-428.18 1133.59,-429.55 1132.15,-422.7"/>
</g>
<!-- Node36 -->
<g id="node36" class="node">
<title>Node36</title>
<g id="a_node36"><a xlink:href="kernel_8h.html" target="_top" xlink:title=" ">
<polygon fill="none" stroke="black" points="1140,-364 1140,-383 1268,-383 1268,-364 1140,-364"/>
<text text-anchor="middle" x="1204" y="-371" font-family="Helvetica,sans-Serif" font-size="10.00">kernel/framework/kernel.h</text>
</a>
</g>
</g>
<!-- Node1&#45;&gt;Node36 -->
<g id="edge57" class="edge">
<title>Node1&#45;&gt;Node36</title>
<path fill="none" stroke="midnightblue" d="M1107.49,-420.97C1133.42,-408.48 1166.41,-392.6 1186.33,-383.01"/>
<polygon fill="midnightblue" stroke="midnightblue" points="1105.78,-417.9 1098.29,-425.4 1108.82,-424.21 1105.78,-417.9"/>
</g>
<!-- Node3 -->
<g id="node3" class="node">
<title>Node3</title>
<g id="a_node3"><a xlink:href="cte_8c.html" target="_top" xlink:title=" ">
<polygon fill="none" stroke="black" points="0,-291.5 0,-321.5 108,-321.5 108,-291.5 0,-291.5"/>
<text text-anchor="start" x="8" y="-309.5" font-family="Helvetica,sans-Serif" font-size="10.00">abstract&#45;machine/am</text>
<text text-anchor="middle" x="54" y="-298.5" font-family="Helvetica,sans-Serif" font-size="10.00">/src/x86/qemu/cte.c</text>
</a>
</g>
</g>
<!-- Node2&#45;&gt;Node3 -->
<g id="edge2" class="edge">
<title>Node2&#45;&gt;Node3</title>
<path fill="none" stroke="midnightblue" d="M293.26,-357.91C243.16,-348.11 176.07,-334.71 117,-322 114.15,-321.39 111.22,-320.75 108.27,-320.09"/>
<polygon fill="midnightblue" stroke="midnightblue" points="292.88,-361.4 303.36,-359.88 294.22,-354.53 292.88,-361.4"/>
</g>
<!-- Node4 -->
<g id="node4" class="node">
<title>Node4</title>
<g id="a_node4"><a xlink:href="ioe_8c.html" target="_top" xlink:title=" ">
<polygon fill="none" stroke="black" points="504,-291.5 504,-321.5 612,-321.5 612,-291.5 504,-291.5"/>
<text text-anchor="start" x="512" y="-309.5" font-family="Helvetica,sans-Serif" font-size="10.00">abstract&#45;machine/am</text>
<text text-anchor="middle" x="558" y="-298.5" font-family="Helvetica,sans-Serif" font-size="10.00">/src/x86/qemu/ioe.c</text>
</a>
</g>
</g>
<!-- Node2&#45;&gt;Node4 -->
<g id="edge3" class="edge">
<title>Node2&#45;&gt;Node4</title>
<path fill="none" stroke="midnightblue" d="M419.62,-355.09C450.13,-344.6 488.48,-331.41 517.07,-321.58"/>
<polygon fill="midnightblue" stroke="midnightblue" points="418.33,-351.83 410.01,-358.4 420.6,-358.45 418.33,-351.83"/>
</g>
<!-- Node5 -->
<g id="node5" class="node">
<title>Node5</title>
<g id="a_node5"><a xlink:href="mpe_8c.html" target="_top" xlink:title=" ">
<polygon fill="none" stroke="black" points="126,-291.5 126,-321.5 234,-321.5 234,-291.5 126,-291.5"/>
<text text-anchor="start" x="134" y="-309.5" font-family="Helvetica,sans-Serif" font-size="10.00">abstract&#45;machine/am</text>
<text text-anchor="middle" x="180" y="-298.5" font-family="Helvetica,sans-Serif" font-size="10.00">/src/x86/qemu/mpe.c</text>
</a>
</g>
</g>
<!-- Node2&#45;&gt;Node5 -->
<g id="edge4" class="edge">
<title>Node2&#45;&gt;Node5</title>
<path fill="none" stroke="midnightblue" d="M318.38,-355.09C287.87,-344.6 249.52,-331.41 220.93,-321.58"/>
<polygon fill="midnightblue" stroke="midnightblue" points="317.4,-358.45 327.99,-358.4 319.67,-351.83 317.4,-358.45"/>
</g>
<!-- Node6 -->
<g id="node6" class="node">
<title>Node6</title>
<g id="a_node6"><a xlink:href="trm_8c.html" target="_top" xlink:title=" ">
<polygon fill="none" stroke="black" points="252,-291.5 252,-321.5 360,-321.5 360,-291.5 252,-291.5"/>
<text text-anchor="start" x="260" y="-309.5" font-family="Helvetica,sans-Serif" font-size="10.00">abstract&#45;machine/am</text>
<text text-anchor="middle" x="306" y="-298.5" font-family="Helvetica,sans-Serif" font-size="10.00">/src/x86/qemu/trm.c</text>
</a>
</g>
</g>
<!-- Node2&#45;&gt;Node6 -->
<g id="edge5" class="edge">
<title>Node2&#45;&gt;Node6</title>
<path fill="none" stroke="midnightblue" d="M348.19,-351.02C338.8,-341.34 327.98,-330.17 319.64,-321.58"/>
<polygon fill="midnightblue" stroke="midnightblue" points="345.86,-353.65 355.33,-358.4 350.88,-348.78 345.86,-353.65"/>
</g>
<!-- Node7 -->
<g id="node7" class="node">
<title>Node7</title>
<g id="a_node7"><a xlink:href="vme_8c.html" target="_top" xlink:title=" ">
<polygon fill="none" stroke="black" points="378,-291.5 378,-321.5 486,-321.5 486,-291.5 378,-291.5"/>
<text text-anchor="start" x="386" y="-309.5" font-family="Helvetica,sans-Serif" font-size="10.00">abstract&#45;machine/am</text>
<text text-anchor="middle" x="432" y="-298.5" font-family="Helvetica,sans-Serif" font-size="10.00">/src/x86/qemu/vme.c</text>
</a>
</g>
</g>
<!-- Node2&#45;&gt;Node7 -->
<g id="edge6" class="edge">
<title>Node2&#45;&gt;Node7</title>
<path fill="none" stroke="midnightblue" d="M389.81,-351.02C399.2,-341.34 410.02,-330.17 418.36,-321.58"/>
<polygon fill="midnightblue" stroke="midnightblue" points="387.12,-348.78 382.67,-358.4 392.14,-353.65 387.12,-348.78"/>
</g>
<!-- Node8&#45;&gt;Node4 -->
<g id="edge8" class="edge">
<title>Node8&#45;&gt;Node4</title>
<path fill="none" stroke="midnightblue" d="M898.51,-364.44C829.3,-355.56 717.07,-340.1 621,-322 618.13,-321.46 615.2,-320.88 612.24,-320.27"/>
<polygon fill="midnightblue" stroke="midnightblue" points="898.46,-367.96 908.82,-365.76 899.35,-361.02 898.46,-367.96"/>
</g>
<!-- Node8&#45;&gt;Node9 -->
<g id="edge9" class="edge">
<title>Node8&#45;&gt;Node9</title>
<path fill="none" stroke="midnightblue" d="M898.85,-357.32C850.62,-346.09 785.64,-330.95 740.01,-320.32"/>
<polygon fill="midnightblue" stroke="midnightblue" points="898.35,-360.8 908.88,-359.66 899.93,-353.98 898.35,-360.8"/>
</g>
<!-- Node8&#45;&gt;Node10 -->
<g id="edge10" class="edge">
<title>Node8&#45;&gt;Node10</title>
<path fill="none" stroke="midnightblue" d="M921.97,-354.41C897.86,-344.03 868.05,-331.2 845.7,-321.58"/>
<polygon fill="midnightblue" stroke="midnightblue" points="920.67,-357.66 931.24,-358.4 923.43,-351.23 920.67,-357.66"/>
</g>
<!-- Node8&#45;&gt;Node11 -->
<g id="edge11" class="edge">
<title>Node8&#45;&gt;Node11</title>
<path fill="none" stroke="midnightblue" d="M995.48,-353.02C1011.82,-342.9 1031.41,-330.77 1046.26,-321.58"/>
<polygon fill="midnightblue" stroke="midnightblue" points="993.44,-350.16 986.78,-358.4 997.13,-356.11 993.44,-350.16"/>
</g>
<!-- Node12 -->
<g id="node12" class="node">
<title>Node12</title>
<g id="a_node12"><a xlink:href="string_8c.html" target="_top" xlink:title=" ">
<polygon fill="none" stroke="black" points="886,-291.5 886,-321.5 996,-321.5 996,-291.5 886,-291.5"/>
<text text-anchor="start" x="894" y="-309.5" font-family="Helvetica,sans-Serif" font-size="10.00">abstract&#45;machine/klib</text>
<text text-anchor="middle" x="941" y="-298.5" font-family="Helvetica,sans-Serif" font-size="10.00">/src/string.c</text>
</a>
</g>
</g>
<!-- Node8&#45;&gt;Node12 -->
<g id="edge12" class="edge">
<title>Node8&#45;&gt;Node12</title>
<path fill="none" stroke="midnightblue" d="M955.58,-348.7C952.35,-339.59 948.78,-329.49 945.98,-321.58"/>
<polygon fill="midnightblue" stroke="midnightblue" points="952.37,-350.14 959.01,-358.4 958.97,-347.8 952.37,-350.14"/>
</g>
<!-- Node13 -->
<g id="node13" class="node">
<title>Node13</title>
<g id="a_node13"><a xlink:href="main_8c.html" target="_top" xlink:title=" ">
<polygon fill="none" stroke="black" points="1142.5,-297 1142.5,-316 1265.5,-316 1265.5,-297 1142.5,-297"/>
<text text-anchor="middle" x="1204" y="-304" font-family="Helvetica,sans-Serif" font-size="10.00">kernel/framework/main.c</text>
</a>
</g>
</g>
<!-- Node8&#45;&gt;Node13 -->
<g id="edge13" class="edge">
<title>Node8&#45;&gt;Node13</title>
<path fill="none" stroke="midnightblue" d="M1025.55,-355.83C1072.52,-343.11 1135.3,-326.11 1172.51,-316.03"/>
<polygon fill="midnightblue" stroke="midnightblue" points="1024.52,-352.48 1015.78,-358.48 1026.35,-359.24 1024.52,-352.48"/>
</g>
<!-- Node8&#45;&gt;Node14 -->
<g id="edge14" class="edge">
<title>Node8&#45;&gt;Node14</title>
<path fill="none" stroke="midnightblue" d="M1029.37,-366.33C1112.67,-358.1 1260.99,-342.18 1387,-322 1397.58,-320.31 1408.96,-318.16 1419.49,-316.05"/>
<polygon fill="midnightblue" stroke="midnightblue" points="1028.9,-362.86 1019.29,-367.32 1029.58,-369.83 1028.9,-362.86"/>
</g>
<!-- Node15 -->
<g id="node15" class="node">
<title>Node15</title>
<g id="a_node15"><a xlink:href="buddy_8h.html" target="_top" xlink:title=" ">
<polygon fill="none" stroke="black" points="1620.5,-235.5 1620.5,-254.5 1733.5,-254.5 1733.5,-235.5 1620.5,-235.5"/>
<text text-anchor="middle" x="1677" y="-242.5" font-family="Helvetica,sans-Serif" font-size="10.00">kernel/include/buddy.h</text>
</a>
</g>
</g>
<!-- Node14&#45;&gt;Node15 -->
<g id="edge15" class="edge">
<title>Node14&#45;&gt;Node15</title>
<path fill="none" stroke="midnightblue" d="M1499.95,-294.32C1542.3,-282.76 1607.48,-264.97 1645.82,-254.51"/>
<polygon fill="midnightblue" stroke="midnightblue" points="1498.96,-290.97 1490.23,-296.98 1500.8,-297.72 1498.96,-290.97"/>
</g>
<!-- Node16 -->
<g id="node16" class="node">
<title>Node16</title>
<g id="a_node16"><a xlink:href="buddy_8c.html" target="_top" xlink:title="impl of buddy system">
<polygon fill="none" stroke="black" points="1573.5,-179.5 1573.5,-198.5 1668.5,-198.5 1668.5,-179.5 1573.5,-179.5"/>
<text text-anchor="middle" x="1621" y="-186.5" font-family="Helvetica,sans-Serif" font-size="10.00">kernel/src/buddy.c</text>
</a>
</g>
</g>
<!-- Node14&#45;&gt;Node16 -->
<g id="edge40" class="edge">
<title>Node14&#45;&gt;Node16</title>
<path fill="none" stroke="midnightblue" d="M1479.47,-290.91C1513.57,-266.6 1580.99,-218.53 1608.68,-198.78"/>
<polygon fill="midnightblue" stroke="midnightblue" points="1477.29,-288.16 1471.18,-296.82 1481.35,-293.86 1477.29,-288.16"/>
</g>
<!-- Node17 -->
<g id="node17" class="node">
<title>Node17</title>
<g id="a_node17"><a xlink:href="pmm_8c.html" target="_top" xlink:title=" ">
<polygon fill="none" stroke="black" points="1687,-179.5 1687,-198.5 1779,-198.5 1779,-179.5 1687,-179.5"/>
<text text-anchor="middle" x="1733" y="-186.5" font-family="Helvetica,sans-Serif" font-size="10.00">kernel/src/pmm.c</text>
</a>
</g>
</g>
<!-- Node14&#45;&gt;Node17 -->
<g id="edge43" class="edge">
<title>Node14&#45;&gt;Node17</title>
<path fill="none" stroke="midnightblue" d="M1485.6,-292.36C1515.72,-277.68 1566.4,-253.53 1611,-235 1644.15,-221.23 1683.18,-207.2 1708,-198.55"/>
<polygon fill="midnightblue" stroke="midnightblue" points="1484.02,-289.24 1476.58,-296.78 1487.1,-295.53 1484.02,-289.24"/>
</g>
<!-- Node18 -->
<g id="node18" class="node">
<title>Node18</title>
<g id="a_node18"><a xlink:href="devices_8h.html" target="_top" xlink:title=" ">
<polygon fill="none" stroke="black" points="1130.5,-67.5 1130.5,-86.5 1251.5,-86.5 1251.5,-67.5 1130.5,-67.5"/>
<text text-anchor="middle" x="1191" y="-74.5" font-family="Helvetica,sans-Serif" font-size="10.00">kernel/include/devices.h</text>
</a>
</g>
</g>
<!-- Node14&#45;&gt;Node18 -->
<g id="edge18" class="edge">
<title>Node14&#45;&gt;Node18</title>
<path fill="none" stroke="midnightblue" d="M1463.47,-286.64C1471.07,-249.41 1481.63,-166.3 1437,-123 1411.18,-97.94 1315.67,-86.47 1251.54,-81.49"/>
<polygon fill="midnightblue" stroke="midnightblue" points="1460.01,-286.11 1461.28,-296.63 1466.84,-287.62 1460.01,-286.11"/>
</g>
<!-- Node24 -->
<g id="node24" class="node">
<title>Node24</title>
<g id="a_node24"><a xlink:href="sem_8h.html" target="_top" xlink:title=" ">
<polygon fill="none" stroke="black" points="901,-123.5 901,-142.5 1007,-142.5 1007,-123.5 901,-123.5"/>
<text text-anchor="middle" x="954" y="-130.5" font-family="Helvetica,sans-Serif" font-size="10.00">kernel/include/sem.h</text>
</a>
</g>
</g>
<!-- Node14&#45;&gt;Node24 -->
<g id="edge24" class="edge">
<title>Node14&#45;&gt;Node24</title>
<path fill="none" stroke="midnightblue" d="M1409.67,-295.07C1402.09,-293.61 1394.35,-292.2 1387,-291 1260.56,-270.34 1224.46,-289.2 1101,-255 1041.55,-238.53 1015,-245.09 974,-199 959.56,-182.77 955.55,-156.29 954.43,-142.68"/>
<polygon fill="midnightblue" stroke="midnightblue" points="1409,-298.5 1419.48,-297 1410.35,-291.63 1409,-298.5"/>
</g>
<!-- Node25 -->
<g id="node25" class="node">
<title>Node25</title>
<g id="a_node25"><a xlink:href="kmt_8c.html" target="_top" xlink:title=" ">
<polygon fill="none" stroke="black" points="992,-67.5 992,-86.5 1078,-86.5 1078,-67.5 992,-67.5"/>
<text text-anchor="middle" x="1035" y="-74.5" font-family="Helvetica,sans-Serif" font-size="10.00">kernel/src/kmt.c</text>
</a>
</g>
</g>
<!-- Node14&#45;&gt;Node25 -->
<g id="edge41" class="edge">
<title>Node14&#45;&gt;Node25</title>
<path fill="none" stroke="midnightblue" d="M1410.24,-294.99C1402.49,-293.52 1394.54,-292.13 1387,-291 1224.46,-266.75 1169.71,-320.52 1019,-255 944.34,-222.54 843.84,-188.64 892,-123 903.97,-106.68 954.16,-93.59 991.72,-85.82"/>
<polygon fill="midnightblue" stroke="midnightblue" points="1409.78,-298.46 1420.27,-296.95 1411.12,-291.59 1409.78,-298.46"/>
</g>
<!-- Node27 -->
<g id="node27" class="node">
<title>Node27</title>
<g id="a_node27"><a xlink:href="spinlock_8h.html" target="_top" xlink:title=" ">
<polygon fill="none" stroke="black" points="1110.5,-235.5 1110.5,-254.5 1233.5,-254.5 1233.5,-235.5 1110.5,-235.5"/>
<text text-anchor="middle" x="1172" y="-242.5" font-family="Helvetica,sans-Serif" font-size="10.00">kernel/include/spinlock.h</text>
</a>
</g>
</g>
<!-- Node14&#45;&gt;Node27 -->
<g id="edge28" class="edge">
<title>Node14&#45;&gt;Node27</title>
<path fill="none" stroke="midnightblue" d="M1407.88,-294.9C1352.24,-283.37 1264.37,-265.15 1213.04,-254.51"/>
<polygon fill="midnightblue" stroke="midnightblue" points="1407.38,-298.37 1417.88,-296.98 1408.8,-291.52 1407.38,-298.37"/>
</g>
<!-- Node28 -->
<g id="node28" class="node">
<title>Node28</title>
<g id="a_node28"><a xlink:href="thread_8h.html" target="_top" xlink:title=" ">
<polygon fill="none" stroke="black" points="1298,-179.5 1298,-198.5 1412,-198.5 1412,-179.5 1298,-179.5"/>
<text text-anchor="middle" x="1355" y="-186.5" font-family="Helvetica,sans-Serif" font-size="10.00">kernel/include/thread.h</text>
</a>
</g>
</g>
<!-- Node14&#45;&gt;Node28 -->
<g id="edge39" class="edge">
<title>Node14&#45;&gt;Node28</title>
<path fill="none" stroke="midnightblue" d="M1444.43,-289.32C1422.14,-264.56 1380.31,-218.11 1362.91,-198.78"/>
<polygon fill="midnightblue" stroke="midnightblue" points="1441.89,-291.73 1451.18,-296.82 1447.09,-287.05 1441.89,-291.73"/>
</g>
<!-- Node29 -->
<g id="node29" class="node">
<title>Node29</title>
<g id="a_node29"><a xlink:href="syscall_8c.html" target="_top" xlink:title=" ">
<polygon fill="none" stroke="black" points="1328,-123.5 1328,-142.5 1428,-142.5 1428,-123.5 1328,-123.5"/>
<text text-anchor="middle" x="1378" y="-130.5" font-family="Helvetica,sans-Serif" font-size="10.00">kernel/src/syscall.c</text>
</a>
</g>
</g>
<!-- Node14&#45;&gt;Node29 -->
<g id="edge44" class="edge">
<title>Node14&#45;&gt;Node29</title>
<path fill="none" stroke="midnightblue" d="M1456.2,-286.78C1451.76,-261.07 1441.41,-214.06 1421,-179 1412.52,-164.43 1398.41,-150.91 1388.68,-142.57"/>
<polygon fill="midnightblue" stroke="midnightblue" points="1452.8,-287.65 1457.85,-296.97 1459.71,-286.54 1452.8,-287.65"/>
</g>
<!-- Node30 -->
<g id="node30" class="node">
<title>Node30</title>
<g id="a_node30"><a xlink:href="os_8c.html" target="_top" xlink:title=" ">
<polygon fill="none" stroke="black" points="1200,-179.5 1200,-198.5 1280,-198.5 1280,-179.5 1200,-179.5"/>
<text text-anchor="middle" x="1240" y="-186.5" font-family="Helvetica,sans-Serif" font-size="10.00">kernel/src/os.c</text>
</a>
</g>
</g>
<!-- Node14&#45;&gt;Node30 -->
<g id="edge42" class="edge">
<title>Node14&#45;&gt;Node30</title>
<path fill="none" stroke="midnightblue" d="M1433.62,-292.12C1388.2,-268.16 1294.23,-218.6 1256.35,-198.62"/>
<polygon fill="midnightblue" stroke="midnightblue" points="1432.06,-295.25 1442.54,-296.82 1435.33,-289.06 1432.06,-295.25"/>
</g>
<!-- Node15&#45;&gt;Node16 -->
<g id="edge16" class="edge">
<title>Node15&#45;&gt;Node16</title>
<path fill="none" stroke="midnightblue" d="M1660.67,-228.25C1650.74,-218.67 1638.41,-206.79 1630.16,-198.83"/>
<polygon fill="midnightblue" stroke="midnightblue" points="1658.37,-230.9 1668,-235.32 1663.23,-225.86 1658.37,-230.9"/>
</g>
<!-- Node15&#45;&gt;Node17 -->
<g id="edge17" class="edge">
<title>Node15&#45;&gt;Node17</title>
<path fill="none" stroke="midnightblue" d="M1693.33,-228.25C1703.26,-218.67 1715.59,-206.79 1723.84,-198.83"/>
<polygon fill="midnightblue" stroke="midnightblue" points="1690.77,-225.86 1686,-235.32 1695.63,-230.9 1690.77,-225.86"/>
</g>
<!-- Node19 -->
<g id="node19" class="node">
<title>Node19</title>
<g id="a_node19"><a xlink:href="dev_8c.html" target="_top" xlink:title=" ">
<polygon fill="none" stroke="black" points="894,-6 894,-25 998,-25 998,-6 894,-6"/>
<text text-anchor="middle" x="946" y="-13" font-family="Helvetica,sans-Serif" font-size="10.00">kernel/src/dev/dev.c</text>
</a>
</g>
</g>
<!-- Node18&#45;&gt;Node19 -->
<g id="edge19" class="edge">
<title>Node18&#45;&gt;Node19</title>
<path fill="none" stroke="midnightblue" d="M1146.17,-65.11C1098.62,-53.57 1024.49,-35.56 981.04,-25.01"/>
<polygon fill="midnightblue" stroke="midnightblue" points="1145.35,-68.52 1155.9,-67.48 1147.01,-61.71 1145.35,-68.52"/>
</g>
<!-- Node20 -->
<g id="node20" class="node">
<title>Node20</title>
<g id="a_node20"><a xlink:href="dev__input_8c.html" target="_top" xlink:title=" ">
<polygon fill="none" stroke="black" points="1016.5,-0.5 1016.5,-30.5 1113.5,-30.5 1113.5,-0.5 1016.5,-0.5"/>
<text text-anchor="start" x="1024.5" y="-18.5" font-family="Helvetica,sans-Serif" font-size="10.00">kernel/src/dev/dev</text>
<text text-anchor="middle" x="1065" y="-7.5" font-family="Helvetica,sans-Serif" font-size="10.00">_input.c</text>
</a>
</g>
</g>
<!-- Node18&#45;&gt;Node20 -->
<g id="edge20" class="edge">
<title>Node18&#45;&gt;Node20</title>
<path fill="none" stroke="midnightblue" d="M1163.89,-63.2C1143.53,-53.58 1115.66,-40.42 1094.7,-30.52"/>
<polygon fill="midnightblue" stroke="midnightblue" points="1162.41,-66.37 1172.95,-67.48 1165.4,-60.04 1162.41,-66.37"/>
</g>
<!-- Node21 -->
<g id="node21" class="node">
<title>Node21</title>
<g id="a_node21"><a xlink:href="dev__sd_8c.html" target="_top" xlink:title=" ">
<polygon fill="none" stroke="black" points="1131,-6 1131,-25 1251,-25 1251,-6 1131,-6"/>
<text text-anchor="middle" x="1191" y="-13" font-family="Helvetica,sans-Serif" font-size="10.00">kernel/src/dev/dev_sd.c</text>
</a>
</g>
</g>
<!-- Node18&#45;&gt;Node21 -->
<g id="edge21" class="edge">
<title>Node18&#45;&gt;Node21</title>
<path fill="none" stroke="midnightblue" d="M1191,-57.32C1191,-46.5 1191,-33.4 1191,-25.01"/>
<polygon fill="midnightblue" stroke="midnightblue" points="1187.5,-57.48 1191,-67.48 1194.5,-57.48 1187.5,-57.48"/>
</g>
<!-- Node22 -->
<g id="node22" class="node">
<title>Node22</title>
<g id="a_node22"><a xlink:href="dev__tty_8c.html" target="_top" xlink:title=" ">
<polygon fill="none" stroke="black" points="1268.5,-0.5 1268.5,-30.5 1365.5,-30.5 1365.5,-0.5 1268.5,-0.5"/>
<text text-anchor="start" x="1276.5" y="-18.5" font-family="Helvetica,sans-Serif" font-size="10.00">kernel/src/dev/dev</text>
<text text-anchor="middle" x="1317" y="-7.5" font-family="Helvetica,sans-Serif" font-size="10.00">_tty.c</text>
</a>
</g>
</g>
<!-- Node18&#45;&gt;Node22 -->
<g id="edge22" class="edge">
<title>Node18&#45;&gt;Node22</title>
<path fill="none" stroke="midnightblue" d="M1218.11,-63.2C1238.47,-53.58 1266.34,-40.42 1287.3,-30.52"/>
<polygon fill="midnightblue" stroke="midnightblue" points="1216.6,-60.04 1209.05,-67.48 1219.59,-66.37 1216.6,-60.04"/>
</g>
<!-- Node23 -->
<g id="node23" class="node">
<title>Node23</title>
<g id="a_node23"><a xlink:href="dev__video_8c.html" target="_top" xlink:title=" ">
<polygon fill="none" stroke="black" points="1383.5,-0.5 1383.5,-30.5 1480.5,-30.5 1480.5,-0.5 1383.5,-0.5"/>
<text text-anchor="start" x="1391.5" y="-18.5" font-family="Helvetica,sans-Serif" font-size="10.00">kernel/src/dev/dev</text>
<text text-anchor="middle" x="1432" y="-7.5" font-family="Helvetica,sans-Serif" font-size="10.00">_video.c</text>
</a>
</g>
</g>
<!-- Node18&#45;&gt;Node23 -->
<g id="edge23" class="edge">
<title>Node18&#45;&gt;Node23</title>
<path fill="none" stroke="midnightblue" d="M1235.73,-65.05C1272.79,-55.97 1326.83,-42.7 1374,-31 1377.02,-30.25 1380.13,-29.48 1383.27,-28.7"/>
<polygon fill="midnightblue" stroke="midnightblue" points="1234.63,-61.72 1225.75,-67.5 1236.3,-68.52 1234.63,-61.72"/>
</g>
<!-- Node24&#45;&gt;Node18 -->
<g id="edge25" class="edge">
<title>Node24&#45;&gt;Node18</title>
<path fill="none" stroke="midnightblue" d="M1001.32,-121.22C1046.11,-111.01 1112.44,-95.9 1153.62,-86.52"/>
<polygon fill="midnightblue" stroke="midnightblue" points="1000.53,-117.81 991.55,-123.44 1002.08,-124.63 1000.53,-117.81"/>
</g>
<!-- Node24&#45;&gt;Node25 -->
<g id="edge26" class="edge">
<title>Node24&#45;&gt;Node25</title>
<path fill="none" stroke="midnightblue" d="M975.57,-117.62C990.36,-107.76 1009.51,-94.99 1022.02,-86.65"/>
<polygon fill="midnightblue" stroke="midnightblue" points="973.39,-114.86 967.01,-123.32 977.28,-120.69 973.39,-114.86"/>
</g>
<!-- Node26 -->
<g id="node26" class="node">
<title>Node26</title>
<g id="a_node26"><a xlink:href="sem_8c.html" target="_top" xlink:title=" ">
<polygon fill="none" stroke="black" points="884.5,-67.5 884.5,-86.5 973.5,-86.5 973.5,-67.5 884.5,-67.5"/>
<text text-anchor="middle" x="929" y="-74.5" font-family="Helvetica,sans-Serif" font-size="10.00">kernel/src/sem.c</text>
</a>
</g>
</g>
<!-- Node24&#45;&gt;Node26 -->
<g id="edge27" class="edge">
<title>Node24&#45;&gt;Node26</title>
<path fill="none" stroke="midnightblue" d="M945.66,-113.98C941.42,-104.82 936.45,-94.09 933.05,-86.75"/>
<polygon fill="midnightblue" stroke="midnightblue" points="942.49,-115.48 949.87,-123.08 948.85,-112.54 942.49,-115.48"/>
</g>
<!-- Node27&#45;&gt;Node18 -->
<g id="edge29" class="edge">
<title>Node27&#45;&gt;Node18</title>
<path fill="none" stroke="midnightblue" d="M1174.18,-224.93C1178.3,-188.92 1187.08,-112.23 1190.02,-86.57"/>
<polygon fill="midnightblue" stroke="midnightblue" points="1170.68,-224.74 1173.02,-235.08 1177.64,-225.54 1170.68,-224.74"/>
</g>
<!-- Node27&#45;&gt;Node24 -->
<g id="edge30" class="edge">
<title>Node27&#45;&gt;Node24</title>
<path fill="none" stroke="midnightblue" d="M1100.32,-237.86C1066.18,-232.06 1026.29,-220.8 996,-199 975.72,-184.4 962.74,-156.7 957.15,-142.65"/>
<polygon fill="midnightblue" stroke="midnightblue" points="1099.83,-241.33 1110.25,-239.43 1100.92,-234.42 1099.83,-241.33"/>
</g>
<!-- Node27&#45;&gt;Node25 -->
<g id="edge36" class="edge">
<title>Node27&#45;&gt;Node25</title>
<path fill="none" stroke="midnightblue" d="M1100.02,-238.88C1073.31,-233.06 1045.52,-221.52 1029,-199 1003.62,-164.41 1022.5,-108.11 1031.22,-86.67"/>
<polygon fill="midnightblue" stroke="midnightblue" points="1099.7,-242.38 1110.18,-240.84 1101.03,-235.51 1099.7,-242.38"/>
</g>
<!-- Node27&#45;&gt;Node28 -->
<g id="edge31" class="edge">
<title>Node27&#45;&gt;Node28</title>
<path fill="none" stroke="midnightblue" d="M1210.74,-232.57C1245.26,-222.38 1295.01,-207.7 1326.14,-198.52"/>
<polygon fill="midnightblue" stroke="midnightblue" points="1209.6,-229.26 1201,-235.44 1211.58,-235.97 1209.6,-229.26"/>
</g>
<!-- Node27&#45;&gt;Node30 -->
<g id="edge37" class="edge">
<title>Node27&#45;&gt;Node30</title>
<path fill="none" stroke="midnightblue" d="M1190.76,-229.1C1203,-219.38 1218.56,-207.03 1228.88,-198.83"/>
<polygon fill="midnightblue" stroke="midnightblue" points="1188.58,-226.36 1182.93,-235.32 1192.93,-231.85 1188.58,-226.36"/>
</g>
<!-- Node31 -->
<g id="node31" class="node">
<title>Node31</title>
<g id="a_node31"><a xlink:href="spinlock_8c.html" target="_top" xlink:title=" ">
<polygon fill="none" stroke="black" points="1038,-179.5 1038,-198.5 1144,-198.5 1144,-179.5 1038,-179.5"/>
<text text-anchor="middle" x="1091" y="-186.5" font-family="Helvetica,sans-Serif" font-size="10.00">kernel/src/spinlock.c</text>
</a>
</g>
</g>
<!-- Node27&#45;&gt;Node31 -->
<g id="edge38" class="edge">
<title>Node27&#45;&gt;Node31</title>
<path fill="none" stroke="midnightblue" d="M1150.43,-229.62C1135.64,-219.76 1116.49,-206.99 1103.98,-198.65"/>
<polygon fill="midnightblue" stroke="midnightblue" points="1148.72,-232.69 1158.99,-235.32 1152.61,-226.86 1148.72,-232.69"/>
</g>
<!-- Node28&#45;&gt;Node18 -->
<g id="edge32" class="edge">
<title>Node28&#45;&gt;Node18</title>
<path fill="none" stroke="midnightblue" d="M1333.7,-173.71C1299.14,-150.53 1231.9,-105.43 1203.81,-86.59"/>
<polygon fill="midnightblue" stroke="midnightblue" points="1331.88,-176.7 1342.13,-179.37 1335.78,-170.89 1331.88,-176.7"/>
</g>
<!-- Node28&#45;&gt;Node24 -->
<g id="edge33" class="edge">
<title>Node28&#45;&gt;Node24</title>
<path fill="none" stroke="midnightblue" d="M1287.58,-178.81C1182.2,-164.55 1071.09,-149.66 1007.09,-141.1"/>
<polygon fill="midnightblue" stroke="midnightblue" points="1287.38,-182.32 1297.76,-180.19 1288.32,-175.38 1287.38,-182.32"/>
</g>
<!-- Node28&#45;&gt;Node25 -->
<g id="edge34" class="edge">
<title>Node28&#45;&gt;Node25</title>
<path fill="none" stroke="midnightblue" d="M1320.39,-176.1C1255.47,-153.79 1116.84,-106.13 1060.05,-86.61"/>
<polygon fill="midnightblue" stroke="midnightblue" points="1319.56,-179.52 1330.16,-179.46 1321.84,-172.9 1319.56,-179.52"/>
</g>
<!-- Node28&#45;&gt;Node29 -->
<g id="edge35" class="edge">
<title>Node28&#45;&gt;Node29</title>
<path fill="none" stroke="midnightblue" d="M1362.8,-169.69C1366.68,-160.59 1371.18,-150.01 1374.27,-142.75"/>
<polygon fill="midnightblue" stroke="midnightblue" points="1359.5,-168.51 1358.8,-179.08 1365.94,-171.25 1359.5,-168.51"/>
</g>
<!-- Node32&#45;&gt;Node14 -->
<g id="edge47" class="edge">
<title>Node32&#45;&gt;Node14</title>
<path fill="none" stroke="midnightblue" d="M1652.11,-356.15C1601.55,-343.41 1533.38,-326.24 1493.02,-316.07"/>
<polygon fill="midnightblue" stroke="midnightblue" points="1651.42,-359.59 1661.97,-358.64 1653.13,-352.8 1651.42,-359.59"/>
</g>
<!-- Node32&#45;&gt;Node16 -->
<g id="edge51" class="edge">
<title>Node32&#45;&gt;Node16</title>
<path fill="none" stroke="midnightblue" d="M1730.87,-349.13C1746.23,-319.85 1765.89,-269.37 1742,-235 1731.96,-220.55 1688.72,-206.9 1656.79,-198.5"/>
<polygon fill="midnightblue" stroke="midnightblue" points="1727.64,-347.74 1725.89,-358.19 1733.77,-351.11 1727.64,-347.74"/>
</g>
<!-- Node32&#45;&gt;Node17 -->
<g id="edge52" class="edge">
<title>Node32&#45;&gt;Node17</title>
<path fill="none" stroke="midnightblue" d="M1782.42,-363.48C1830.49,-355.36 1889.93,-341.65 1905,-322 1950.01,-263.31 1824.58,-216.95 1763.85,-198.57"/>
<polygon fill="midnightblue" stroke="midnightblue" points="1781.66,-360.06 1772.36,-365.13 1782.79,-366.97 1781.66,-360.06"/>
</g>
<!-- Node33 -->
<g id="node33" class="node">
<title>Node33</title>
<g id="a_node33"><a xlink:href="logger_8c.html" target="_top" xlink:title=" ">
<polygon fill="none" stroke="black" points="1786,-291.5 1786,-321.5 1896,-321.5 1896,-291.5 1786,-291.5"/>
<text text-anchor="start" x="1794" y="-309.5" font-family="Helvetica,sans-Serif" font-size="10.00">abstract&#45;machine/klib</text>
<text text-anchor="middle" x="1841" y="-298.5" font-family="Helvetica,sans-Serif" font-size="10.00">/src/logger.c</text>
</a>
</g>
</g>
<!-- Node32&#45;&gt;Node33 -->
<g id="edge46" class="edge">
<title>Node32&#45;&gt;Node33</title>
<path fill="none" stroke="midnightblue" d="M1752.84,-353.71C1772.39,-343.46 1796.2,-330.98 1814.15,-321.58"/>
<polygon fill="midnightblue" stroke="midnightblue" points="1751.14,-350.65 1743.91,-358.4 1754.39,-356.85 1751.14,-350.65"/>
</g>
<!-- Node34 -->
<g id="node34" class="node">
<title>Node34</title>
<g id="a_node34"><a xlink:href="list_8h.html" target="_top" xlink:title="double circular linked list impl without concurrency">
<polygon fill="none" stroke="black" points="1627,-297 1627,-316 1727,-316 1727,-297 1627,-297"/>
<text text-anchor="middle" x="1677" y="-304" font-family="Helvetica,sans-Serif" font-size="10.00">kernel/include/list.h</text>
</a>
</g>
</g>
<!-- Node32&#45;&gt;Node34 -->
<g id="edge48" class="edge">
<title>Node32&#45;&gt;Node34</title>
<path fill="none" stroke="midnightblue" d="M1702.93,-349.63C1695.81,-338.07 1687.59,-324.71 1682.35,-316.19"/>
<polygon fill="midnightblue" stroke="midnightblue" points="1700.1,-351.71 1708.32,-358.4 1706.06,-348.05 1700.1,-351.71"/>
</g>
<!-- Node34&#45;&gt;Node15 -->
<g id="edge49" class="edge">
<title>Node34&#45;&gt;Node15</title>
<path fill="none" stroke="midnightblue" d="M1677,-286.82C1677,-276 1677,-262.9 1677,-254.51"/>
<polygon fill="midnightblue" stroke="midnightblue" points="1673.5,-286.98 1677,-296.98 1680.5,-286.98 1673.5,-286.98"/>
</g>
<!-- Node34&#45;&gt;Node28 -->
<g id="edge50" class="edge">
<title>Node34&#45;&gt;Node28</title>
<path fill="none" stroke="midnightblue" d="M1643.27,-293.4C1577.99,-269.99 1435.84,-219 1379.1,-198.64"/>
<polygon fill="midnightblue" stroke="midnightblue" points="1642.47,-296.83 1653.06,-296.91 1644.83,-290.24 1642.47,-296.83"/>
</g>
<!-- Node36&#45;&gt;Node13 -->
<g id="edge58" class="edge">
<title>Node36&#45;&gt;Node13</title>
<path fill="none" stroke="midnightblue" d="M1204,-353.54C1204,-341.17 1204,-325.62 1204,-316.13"/>
<polygon fill="midnightblue" stroke="midnightblue" points="1200.5,-353.73 1204,-363.73 1207.5,-353.73 1200.5,-353.73"/>
</g>
<!-- Node36&#45;&gt;Node14 -->
<g id="edge59" class="edge">
<title>Node36&#45;&gt;Node14</title>
<path fill="none" stroke="midnightblue" d="M1247.53,-361.4C1297.86,-348.58 1379.61,-327.74 1425.33,-316.08"/>
<polygon fill="midnightblue" stroke="midnightblue" points="1246.42,-358.07 1237.6,-363.94 1248.15,-364.86 1246.42,-358.07"/>
</g>
<!-- Node37 -->
<g id="node37" class="node">
<title>Node37</title>
<g id="a_node37"><a xlink:href="uproc_8c.html" target="_top" xlink:title=" ">
<polygon fill="none" stroke="black" points="1284,-297 1284,-316 1378,-316 1378,-297 1284,-297"/>
<text text-anchor="middle" x="1331" y="-304" font-family="Helvetica,sans-Serif" font-size="10.00">kernel/src/uproc.c</text>
</a>
</g>
</g>
<!-- Node36&#45;&gt;Node37 -->
<g id="edge60" class="edge">
<title>Node36&#45;&gt;Node37</title>
<path fill="none" stroke="midnightblue" d="M1229.84,-359.27C1255,-346.4 1292.49,-327.21 1314.07,-316.17"/>
<polygon fill="midnightblue" stroke="midnightblue" points="1228.17,-356.2 1220.86,-363.87 1231.36,-362.43 1228.17,-356.2"/>
</g>
</g>
</svg>
