<?xml version="1.0" encoding="UTF-8" standalone="no"?>
<!DOCTYPE svg PUBLIC "-//W3C//DTD SVG 1.1//EN"
 "http://www.w3.org/Graphics/SVG/1.1/DTD/svg11.dtd">
<!-- Generated by graphviz version 3.0.0 (20220413.0106)
 -->
<!-- Title: abstract&#45;machine/am/include/am.h Pages: 1 -->
<svg width="1761pt" height="352pt"
 viewBox="0.00 0.00 1761.13 352.00" xmlns="http://www.w3.org/2000/svg" xmlns:xlink="http://www.w3.org/1999/xlink">
<g id="graph0" class="graph" transform="scale(1 1) rotate(0) translate(4 348)">
<title>abstract&#45;machine/am/include/am.h</title>
<!-- Node1 -->
<g id="node1" class="node">
<title>Node1</title>
<g id="a_node1"><a xlink:title=" ">
<polygon fill="#bfbfbf" stroke="black" points="1015,-313.5 1015,-343.5 1123,-343.5 1123,-313.5 1015,-313.5"/>
<text text-anchor="start" x="1023" y="-331.5" font-family="Helvetica,sans-Serif" font-size="10.00">abstract&#45;machine/am</text>
<text text-anchor="middle" x="1069" y="-320.5" font-family="Helvetica,sans-Serif" font-size="10.00">/include/am.h</text>
</a>
</g>
</g>
<!-- Node2 -->
<g id="node2" class="node">
<title>Node2</title>
<g id="a_node2"><a xlink:href="x86-qemu_8h.html" target="_top" xlink:title=" ">
<polygon fill="none" stroke="black" points="303.5,-246.5 303.5,-276.5 434.5,-276.5 434.5,-246.5 303.5,-246.5"/>
<text text-anchor="start" x="311.5" y="-264.5" font-family="Helvetica,sans-Serif" font-size="10.00">abstract&#45;machine/am</text>
<text text-anchor="middle" x="369" y="-253.5" font-family="Helvetica,sans-Serif" font-size="10.00">/src/x86/qemu/x86&#45;qemu.h</text>
</a>
</g>
</g>
<!-- Node1&#45;&gt;Node2 -->
<g id="edge1" class="edge">
<title>Node1&#45;&gt;Node2</title>
<path fill="none" stroke="midnightblue" d="M1004.93,-321.55C872.26,-309.23 568.7,-281.04 434.67,-268.6"/>
<polygon fill="midnightblue" stroke="midnightblue" points="1004.66,-325.04 1014.94,-322.48 1005.31,-318.07 1004.66,-325.04"/>
</g>
<!-- Node8 -->
<g id="node8" class="node">
<title>Node8</title>
<g id="a_node8"><a xlink:href="klib_8h.html" target="_top" xlink:title=" ">
<polygon fill="none" stroke="black" points="909,-246.5 909,-276.5 1019,-276.5 1019,-246.5 909,-246.5"/>
<text text-anchor="start" x="917" y="-264.5" font-family="Helvetica,sans-Serif" font-size="10.00">abstract&#45;machine/klib</text>
<text text-anchor="middle" x="964" y="-253.5" font-family="Helvetica,sans-Serif" font-size="10.00">/include/klib.h</text>
</a>
</g>
</g>
<!-- Node1&#45;&gt;Node8 -->
<g id="edge7" class="edge">
<title>Node1&#45;&gt;Node8</title>
<path fill="none" stroke="midnightblue" d="M1037.52,-308.02C1021.18,-297.9 1001.59,-285.77 986.74,-276.58"/>
<polygon fill="midnightblue" stroke="midnightblue" points="1035.87,-311.11 1046.22,-313.4 1039.56,-305.16 1035.87,-311.11"/>
</g>
<!-- Node9 -->
<g id="node9" class="node">
<title>Node9</title>
<g id="a_node9"><a xlink:href="cpp_8c.html" target="_top" xlink:title=" ">
<polygon fill="none" stroke="black" points="630,-179.5 630,-209.5 740,-209.5 740,-179.5 630,-179.5"/>
<text text-anchor="start" x="638" y="-197.5" font-family="Helvetica,sans-Serif" font-size="10.00">abstract&#45;machine/klib</text>
<text text-anchor="middle" x="685" y="-186.5" font-family="Helvetica,sans-Serif" font-size="10.00">/src/cpp.c</text>
</a>
</g>
</g>
<!-- Node1&#45;&gt;Node9 -->
<g id="edge44" class="edge">
<title>Node1&#45;&gt;Node9</title>
<path fill="none" stroke="midnightblue" d="M1005.01,-315.88C962.41,-307.27 905.57,-294.08 857,-277 802.92,-257.98 743.14,-227.31 710.23,-209.51"/>
<polygon fill="midnightblue" stroke="midnightblue" points="1004.47,-319.35 1014.96,-317.87 1005.84,-312.48 1004.47,-319.35"/>
</g>
<!-- Node10 -->
<g id="node10" class="node">
<title>Node10</title>
<g id="a_node10"><a xlink:href="stdio_8c.html" target="_top" xlink:title=" ">
<polygon fill="none" stroke="black" points="758,-179.5 758,-209.5 868,-209.5 868,-179.5 758,-179.5"/>
<text text-anchor="start" x="766" y="-197.5" font-family="Helvetica,sans-Serif" font-size="10.00">abstract&#45;machine/klib</text>
<text text-anchor="middle" x="813" y="-186.5" font-family="Helvetica,sans-Serif" font-size="10.00">/src/stdio.c</text>
</a>
</g>
</g>
<!-- Node1&#45;&gt;Node10 -->
<g id="edge46" class="edge">
<title>Node1&#45;&gt;Node10</title>
<path fill="none" stroke="midnightblue" d="M1004.73,-315.67C971.92,-307.84 932.24,-295.53 900,-277 868.78,-259.06 839.81,-227.85 824.45,-209.71"/>
<polygon fill="midnightblue" stroke="midnightblue" points="1004.15,-319.12 1014.68,-317.95 1005.72,-312.3 1004.15,-319.12"/>
</g>
<!-- Node11 -->
<g id="node11" class="node">
<title>Node11</title>
<g id="a_node11"><a xlink:href="stdlib_8c.html" target="_top" xlink:title=" ">
<polygon fill="none" stroke="black" points="1014,-179.5 1014,-209.5 1124,-209.5 1124,-179.5 1014,-179.5"/>
<text text-anchor="start" x="1022" y="-197.5" font-family="Helvetica,sans-Serif" font-size="10.00">abstract&#45;machine/klib</text>
<text text-anchor="middle" x="1069" y="-186.5" font-family="Helvetica,sans-Serif" font-size="10.00">/src/stdlib.c</text>
</a>
</g>
</g>
<!-- Node1&#45;&gt;Node11 -->
<g id="edge47" class="edge">
<title>Node1&#45;&gt;Node11</title>
<path fill="none" stroke="midnightblue" d="M1069,-303.02C1069,-275.51 1069,-231.79 1069,-209.52"/>
<polygon fill="midnightblue" stroke="midnightblue" points="1065.5,-303.37 1069,-313.37 1072.5,-303.37 1065.5,-303.37"/>
</g>
<!-- Node14 -->
<g id="node14" class="node">
<title>Node14</title>
<g id="a_node14"><a xlink:href="common_8h.html" target="_top" xlink:title=" ">
<polygon fill="none" stroke="black" points="1322.5,-185 1322.5,-204 1447.5,-204 1447.5,-185 1322.5,-185"/>
<text text-anchor="middle" x="1385" y="-192" font-family="Helvetica,sans-Serif" font-size="10.00">kernel/include/common.h</text>
</a>
</g>
</g>
<!-- Node1&#45;&gt;Node14 -->
<g id="edge55" class="edge">
<title>Node1&#45;&gt;Node14</title>
<path fill="none" stroke="midnightblue" d="M1133.35,-319.45C1175.79,-312.36 1231.71,-299.51 1277,-277 1296.52,-267.3 1297.71,-259.27 1315,-246 1334.85,-230.76 1358.59,-213.92 1372.7,-204.04"/>
<polygon fill="midnightblue" stroke="midnightblue" points="1132.73,-316.01 1123.41,-321.05 1133.84,-322.92 1132.73,-316.01"/>
</g>
<!-- Node29 -->
<g id="node29" class="node">
<title>Node29</title>
<g id="a_node29"><a xlink:href="logger_8h.html" target="_top" xlink:title=" ">
<polygon fill="none" stroke="black" points="1501,-246.5 1501,-276.5 1611,-276.5 1611,-246.5 1501,-246.5"/>
<text text-anchor="start" x="1509" y="-264.5" font-family="Helvetica,sans-Serif" font-size="10.00">abstract&#45;machine/klib</text>
<text text-anchor="middle" x="1556" y="-253.5" font-family="Helvetica,sans-Serif" font-size="10.00">/include/logger.h</text>
</a>
</g>
</g>
<!-- Node1&#45;&gt;Node29 -->
<g id="edge36" class="edge">
<title>Node1&#45;&gt;Node29</title>
<path fill="none" stroke="midnightblue" d="M1133.36,-318.91C1229.77,-306.04 1410.02,-281.98 1500.78,-269.87"/>
<polygon fill="midnightblue" stroke="midnightblue" points="1132.9,-315.44 1123.45,-320.23 1133.82,-322.38 1132.9,-315.44"/>
</g>
<!-- Node32 -->
<g id="node32" class="node">
<title>Node32</title>
<g id="a_node32"><a xlink:href="int64_8c.html" target="_top" xlink:title=" ">
<polygon fill="none" stroke="black" points="1324,-246.5 1324,-276.5 1434,-276.5 1434,-246.5 1324,-246.5"/>
<text text-anchor="start" x="1332" y="-264.5" font-family="Helvetica,sans-Serif" font-size="10.00">abstract&#45;machine/klib</text>
<text text-anchor="middle" x="1379" y="-253.5" font-family="Helvetica,sans-Serif" font-size="10.00">/src/int64.c</text>
</a>
</g>
</g>
<!-- Node1&#45;&gt;Node32 -->
<g id="edge45" class="edge">
<title>Node1&#45;&gt;Node32</title>
<path fill="none" stroke="midnightblue" d="M1133.13,-314.07C1181.69,-303.9 1250.04,-289.58 1310,-277 1314.43,-276.07 1319.03,-275.11 1323.64,-274.14"/>
<polygon fill="midnightblue" stroke="midnightblue" points="1132.15,-310.7 1123.08,-316.18 1133.59,-317.55 1132.15,-310.7"/>
</g>
<!-- Node33 -->
<g id="node33" class="node">
<title>Node33</title>
<g id="a_node33"><a xlink:href="kernel_8h.html" target="_top" xlink:title=" ">
<polygon fill="none" stroke="black" points="1140,-252 1140,-271 1268,-271 1268,-252 1140,-252"/>
<text text-anchor="middle" x="1204" y="-259" font-family="Helvetica,sans-Serif" font-size="10.00">kernel/framework/kernel.h</text>
</a>
</g>
</g>
<!-- Node1&#45;&gt;Node33 -->
<g id="edge48" class="edge">
<title>Node1&#45;&gt;Node33</title>
<path fill="none" stroke="midnightblue" d="M1107.49,-308.97C1133.42,-296.48 1166.41,-280.6 1186.33,-271.01"/>
<polygon fill="midnightblue" stroke="midnightblue" points="1105.78,-305.9 1098.29,-313.4 1108.82,-312.21 1105.78,-305.9"/>
</g>
<!-- Node3 -->
<g id="node3" class="node">
<title>Node3</title>
<g id="a_node3"><a xlink:href="cte_8c.html" target="_top" xlink:title=" ">
<polygon fill="none" stroke="black" points="0,-179.5 0,-209.5 108,-209.5 108,-179.5 0,-179.5"/>
<text text-anchor="start" x="8" y="-197.5" font-family="Helvetica,sans-Serif" font-size="10.00">abstract&#45;machine/am</text>
<text text-anchor="middle" x="54" y="-186.5" font-family="Helvetica,sans-Serif" font-size="10.00">/src/x86/qemu/cte.c</text>
</a>
</g>
</g>
<!-- Node2&#45;&gt;Node3 -->
<g id="edge2" class="edge">
<title>Node2&#45;&gt;Node3</title>
<path fill="none" stroke="midnightblue" d="M293.26,-245.91C243.16,-236.11 176.07,-222.71 117,-210 114.15,-209.39 111.22,-208.75 108.27,-208.09"/>
<polygon fill="midnightblue" stroke="midnightblue" points="292.88,-249.4 303.36,-247.88 294.22,-242.53 292.88,-249.4"/>
</g>
<!-- Node4 -->
<g id="node4" class="node">
<title>Node4</title>
<g id="a_node4"><a xlink:href="ioe_8c.html" target="_top" xlink:title=" ">
<polygon fill="none" stroke="black" points="504,-179.5 504,-209.5 612,-209.5 612,-179.5 504,-179.5"/>
<text text-anchor="start" x="512" y="-197.5" font-family="Helvetica,sans-Serif" font-size="10.00">abstract&#45;machine/am</text>
<text text-anchor="middle" x="558" y="-186.5" font-family="Helvetica,sans-Serif" font-size="10.00">/src/x86/qemu/ioe.c</text>
</a>
</g>
</g>
<!-- Node2&#45;&gt;Node4 -->
<g id="edge3" class="edge">
<title>Node2&#45;&gt;Node4</title>
<path fill="none" stroke="midnightblue" d="M419.62,-243.09C450.13,-232.6 488.48,-219.41 517.07,-209.58"/>
<polygon fill="midnightblue" stroke="midnightblue" points="418.33,-239.83 410.01,-246.4 420.6,-246.45 418.33,-239.83"/>
</g>
<!-- Node5 -->
<g id="node5" class="node">
<title>Node5</title>
<g id="a_node5"><a xlink:href="mpe_8c.html" target="_top" xlink:title=" ">
<polygon fill="none" stroke="black" points="126,-179.5 126,-209.5 234,-209.5 234,-179.5 126,-179.5"/>
<text text-anchor="start" x="134" y="-197.5" font-family="Helvetica,sans-Serif" font-size="10.00">abstract&#45;machine/am</text>
<text text-anchor="middle" x="180" y="-186.5" font-family="Helvetica,sans-Serif" font-size="10.00">/src/x86/qemu/mpe.c</text>
</a>
</g>
</g>
<!-- Node2&#45;&gt;Node5 -->
<g id="edge4" class="edge">
<title>Node2&#45;&gt;Node5</title>
<path fill="none" stroke="midnightblue" d="M318.38,-243.09C287.87,-232.6 249.52,-219.41 220.93,-209.58"/>
<polygon fill="midnightblue" stroke="midnightblue" points="317.4,-246.45 327.99,-246.4 319.67,-239.83 317.4,-246.45"/>
</g>
<!-- Node6 -->
<g id="node6" class="node">
<title>Node6</title>
<g id="a_node6"><a xlink:href="trm_8c.html" target="_top" xlink:title=" ">
<polygon fill="none" stroke="black" points="252,-179.5 252,-209.5 360,-209.5 360,-179.5 252,-179.5"/>
<text text-anchor="start" x="260" y="-197.5" font-family="Helvetica,sans-Serif" font-size="10.00">abstract&#45;machine/am</text>
<text text-anchor="middle" x="306" y="-186.5" font-family="Helvetica,sans-Serif" font-size="10.00">/src/x86/qemu/trm.c</text>
</a>
</g>
</g>
<!-- Node2&#45;&gt;Node6 -->
<g id="edge5" class="edge">
<title>Node2&#45;&gt;Node6</title>
<path fill="none" stroke="midnightblue" d="M348.19,-239.02C338.8,-229.34 327.98,-218.17 319.64,-209.58"/>
<polygon fill="midnightblue" stroke="midnightblue" points="345.86,-241.65 355.33,-246.4 350.88,-236.78 345.86,-241.65"/>
</g>
<!-- Node7 -->
<g id="node7" class="node">
<title>Node7</title>
<g id="a_node7"><a xlink:href="vme_8c.html" target="_top" xlink:title=" ">
<polygon fill="none" stroke="black" points="378,-179.5 378,-209.5 486,-209.5 486,-179.5 378,-179.5"/>
<text text-anchor="start" x="386" y="-197.5" font-family="Helvetica,sans-Serif" font-size="10.00">abstract&#45;machine/am</text>
<text text-anchor="middle" x="432" y="-186.5" font-family="Helvetica,sans-Serif" font-size="10.00">/src/x86/qemu/vme.c</text>
</a>
</g>
</g>
<!-- Node2&#45;&gt;Node7 -->
<g id="edge6" class="edge">
<title>Node2&#45;&gt;Node7</title>
<path fill="none" stroke="midnightblue" d="M389.81,-239.02C399.2,-229.34 410.02,-218.17 418.36,-209.58"/>
<polygon fill="midnightblue" stroke="midnightblue" points="387.12,-236.78 382.67,-246.4 392.14,-241.65 387.12,-236.78"/>
</g>
<!-- Node8&#45;&gt;Node4 -->
<g id="edge8" class="edge">
<title>Node8&#45;&gt;Node4</title>
<path fill="none" stroke="midnightblue" d="M898.51,-252.44C829.3,-243.56 717.07,-228.1 621,-210 618.13,-209.46 615.2,-208.88 612.24,-208.27"/>
<polygon fill="midnightblue" stroke="midnightblue" points="898.46,-255.96 908.82,-253.76 899.35,-249.02 898.46,-255.96"/>
</g>
<!-- Node8&#45;&gt;Node9 -->
<g id="edge9" class="edge">
<title>Node8&#45;&gt;Node9</title>
<path fill="none" stroke="midnightblue" d="M898.85,-245.32C850.62,-234.09 785.64,-218.95 740.01,-208.32"/>
<polygon fill="midnightblue" stroke="midnightblue" points="898.35,-248.8 908.88,-247.66 899.93,-241.98 898.35,-248.8"/>
</g>
<!-- Node8&#45;&gt;Node10 -->
<g id="edge10" class="edge">
<title>Node8&#45;&gt;Node10</title>
<path fill="none" stroke="midnightblue" d="M921.97,-242.41C897.86,-232.03 868.05,-219.2 845.7,-209.58"/>
<polygon fill="midnightblue" stroke="midnightblue" points="920.67,-245.66 931.24,-246.4 923.43,-239.23 920.67,-245.66"/>
</g>
<!-- Node8&#45;&gt;Node11 -->
<g id="edge11" class="edge">
<title>Node8&#45;&gt;Node11</title>
<path fill="none" stroke="midnightblue" d="M995.48,-241.02C1011.82,-230.9 1031.41,-218.77 1046.26,-209.58"/>
<polygon fill="midnightblue" stroke="midnightblue" points="993.44,-238.16 986.78,-246.4 997.13,-244.11 993.44,-238.16"/>
</g>
<!-- Node12 -->
<g id="node12" class="node">
<title>Node12</title>
<g id="a_node12"><a xlink:href="string_8c.html" target="_top" xlink:title=" ">
<polygon fill="none" stroke="black" points="886,-179.5 886,-209.5 996,-209.5 996,-179.5 886,-179.5"/>
<text text-anchor="start" x="894" y="-197.5" font-family="Helvetica,sans-Serif" font-size="10.00">abstract&#45;machine/klib</text>
<text text-anchor="middle" x="941" y="-186.5" font-family="Helvetica,sans-Serif" font-size="10.00">/src/string.c</text>
</a>
</g>
</g>
<!-- Node8&#45;&gt;Node12 -->
<g id="edge12" class="edge">
<title>Node8&#45;&gt;Node12</title>
<path fill="none" stroke="midnightblue" d="M955.58,-236.7C952.35,-227.59 948.78,-217.49 945.98,-209.58"/>
<polygon fill="midnightblue" stroke="midnightblue" points="952.37,-238.14 959.01,-246.4 958.97,-235.8 952.37,-238.14"/>
</g>
<!-- Node13 -->
<g id="node13" class="node">
<title>Node13</title>
<g id="a_node13"><a xlink:href="main_8c.html" target="_top" xlink:title=" ">
<polygon fill="none" stroke="black" points="1142.5,-185 1142.5,-204 1265.5,-204 1265.5,-185 1142.5,-185"/>
<text text-anchor="middle" x="1204" y="-192" font-family="Helvetica,sans-Serif" font-size="10.00">kernel/framework/main.c</text>
</a>
</g>
</g>
<!-- Node8&#45;&gt;Node13 -->
<g id="edge13" class="edge">
<title>Node8&#45;&gt;Node13</title>
<path fill="none" stroke="midnightblue" d="M1025.55,-243.83C1072.52,-231.11 1135.3,-214.11 1172.51,-204.03"/>
<polygon fill="midnightblue" stroke="midnightblue" points="1024.52,-240.48 1015.78,-246.48 1026.35,-247.24 1024.52,-240.48"/>
</g>
<!-- Node8&#45;&gt;Node14 -->
<g id="edge14" class="edge">
<title>Node8&#45;&gt;Node14</title>
<path fill="none" stroke="midnightblue" d="M1029.04,-250.46C1111.45,-237.73 1252.08,-216.02 1329.61,-204.05"/>
<polygon fill="midnightblue" stroke="midnightblue" points="1028.39,-247.02 1019.04,-252 1029.46,-253.94 1028.39,-247.02"/>
</g>
<!-- Node15 -->
<g id="node15" class="node">
<title>Node15</title>
<g id="a_node15"><a xlink:href="buddy_8h.html" target="_top" xlink:title=" ">
<polygon fill="none" stroke="black" points="1457.5,-123.5 1457.5,-142.5 1570.5,-142.5 1570.5,-123.5 1457.5,-123.5"/>
<text text-anchor="middle" x="1514" y="-130.5" font-family="Helvetica,sans-Serif" font-size="10.00">kernel/include/buddy.h</text>
</a>
</g>
</g>
<!-- Node14&#45;&gt;Node15 -->
<g id="edge15" class="edge">
<title>Node14&#45;&gt;Node15</title>
<path fill="none" stroke="midnightblue" d="M1412.81,-180.67C1437.84,-169.13 1473.92,-152.49 1495.55,-142.51"/>
<polygon fill="midnightblue" stroke="midnightblue" points="1411.1,-177.61 1403.48,-184.98 1414.03,-183.96 1411.1,-177.61"/>
</g>
<!-- Node16 -->
<g id="node16" class="node">
<title>Node16</title>
<g id="a_node16"><a xlink:href="buddy_8c.html" target="_top" xlink:title="impl of buddy system">
<polygon fill="none" stroke="black" points="1589.5,-67.5 1589.5,-86.5 1684.5,-86.5 1684.5,-67.5 1589.5,-67.5"/>
<text text-anchor="middle" x="1637" y="-74.5" font-family="Helvetica,sans-Serif" font-size="10.00">kernel/src/buddy.c</text>
</a>
</g>
</g>
<!-- Node14&#45;&gt;Node16 -->
<g id="edge32" class="edge">
<title>Node14&#45;&gt;Node16</title>
<path fill="none" stroke="midnightblue" d="M1432.54,-182.65C1485.83,-170.24 1566.44,-150.67 1579,-143 1603,-128.33 1622.75,-100.67 1631.75,-86.63"/>
<polygon fill="midnightblue" stroke="midnightblue" points="1431.56,-179.28 1422.61,-184.95 1433.14,-186.1 1431.56,-179.28"/>
</g>
<!-- Node17 -->
<g id="node17" class="node">
<title>Node17</title>
<g id="a_node17"><a xlink:href="pmm_8c.html" target="_top" xlink:title=" ">
<polygon fill="none" stroke="black" points="1468,-67.5 1468,-86.5 1560,-86.5 1560,-67.5 1468,-67.5"/>
<text text-anchor="middle" x="1514" y="-74.5" font-family="Helvetica,sans-Serif" font-size="10.00">kernel/src/pmm.c</text>
</a>
</g>
</g>
<!-- Node14&#45;&gt;Node17 -->
<g id="edge35" class="edge">
<title>Node14&#45;&gt;Node17</title>
<path fill="none" stroke="midnightblue" d="M1398.03,-176.73C1410.1,-161.74 1429.02,-139.65 1448,-123 1464.37,-108.64 1485.48,-94.97 1499.37,-86.54"/>
<polygon fill="midnightblue" stroke="midnightblue" points="1395.23,-174.62 1391.76,-184.63 1400.71,-178.97 1395.23,-174.62"/>
</g>
<!-- Node18 -->
<g id="node18" class="node">
<title>Node18</title>
<g id="a_node18"><a xlink:href="devices_8h.html" target="_top" xlink:title=" ">
<polygon fill="none" stroke="black" points="993.5,-67.5 993.5,-86.5 1114.5,-86.5 1114.5,-67.5 993.5,-67.5"/>
<text text-anchor="middle" x="1054" y="-74.5" font-family="Helvetica,sans-Serif" font-size="10.00">kernel/include/devices.h</text>
</a>
</g>
</g>
<!-- Node14&#45;&gt;Node18 -->
<g id="edge18" class="edge">
<title>Node14&#45;&gt;Node18</title>
<path fill="none" stroke="midnightblue" d="M1319.86,-183.44C1225.07,-168.79 1060.28,-143.3 1060,-143 1045.72,-127.8 1048.87,-100.87 1051.77,-86.93"/>
<polygon fill="midnightblue" stroke="midnightblue" points="1319.51,-186.93 1329.93,-185 1320.58,-180.01 1319.51,-186.93"/>
</g>
<!-- Node24 -->
<g id="node24" class="node">
<title>Node24</title>
<g id="a_node24"><a xlink:href="spinlock_8h.html" target="_top" xlink:title=" ">
<polygon fill="none" stroke="black" points="1239.5,-123.5 1239.5,-142.5 1362.5,-142.5 1362.5,-123.5 1239.5,-123.5"/>
<text text-anchor="middle" x="1301" y="-130.5" font-family="Helvetica,sans-Serif" font-size="10.00">kernel/include/spinlock.h</text>
</a>
</g>
</g>
<!-- Node14&#45;&gt;Node24 -->
<g id="edge24" class="edge">
<title>Node14&#45;&gt;Node24</title>
<path fill="none" stroke="midnightblue" d="M1364.69,-179.11C1348.53,-167.67 1326.48,-152.05 1313.01,-142.51"/>
<polygon fill="midnightblue" stroke="midnightblue" points="1362.78,-182.05 1372.96,-184.98 1366.83,-176.34 1362.78,-182.05"/>
</g>
<!-- Node25 -->
<g id="node25" class="node">
<title>Node25</title>
<g id="a_node25"><a xlink:href="kmt_8c.html" target="_top" xlink:title=" ">
<polygon fill="none" stroke="black" points="1133,-67.5 1133,-86.5 1219,-86.5 1219,-67.5 1133,-67.5"/>
<text text-anchor="middle" x="1176" y="-74.5" font-family="Helvetica,sans-Serif" font-size="10.00">kernel/src/kmt.c</text>
</a>
</g>
</g>
<!-- Node14&#45;&gt;Node25 -->
<g id="edge33" class="edge">
<title>Node14&#45;&gt;Node25</title>
<path fill="none" stroke="midnightblue" d="M1326.01,-182.53C1295.49,-174.9 1258.72,-162.49 1230,-143 1207.66,-127.84 1189.54,-100.89 1181.11,-86.94"/>
<polygon fill="midnightblue" stroke="midnightblue" points="1325.56,-186.02 1336.1,-184.94 1327.19,-179.22 1325.56,-186.02"/>
</g>
<!-- Node26 -->
<g id="node26" class="node">
<title>Node26</title>
<g id="a_node26"><a xlink:href="os_8c.html" target="_top" xlink:title=" ">
<polygon fill="none" stroke="black" points="1361,-67.5 1361,-86.5 1441,-86.5 1441,-67.5 1361,-67.5"/>
<text text-anchor="middle" x="1401" y="-74.5" font-family="Helvetica,sans-Serif" font-size="10.00">kernel/src/os.c</text>
</a>
</g>
</g>
<!-- Node14&#45;&gt;Node26 -->
<g id="edge34" class="edge">
<title>Node14&#45;&gt;Node26</title>
<path fill="none" stroke="midnightblue" d="M1387.61,-174.66C1391.11,-149.37 1397.2,-105.44 1399.78,-86.78"/>
<polygon fill="midnightblue" stroke="midnightblue" points="1384.11,-174.43 1386.2,-184.82 1391.04,-175.39 1384.11,-174.43"/>
</g>
<!-- Node28 -->
<g id="node28" class="node">
<title>Node28</title>
<g id="a_node28"><a xlink:href="thread_8h.html" target="_top" xlink:title=" ">
<polygon fill="none" stroke="black" points="1069,-123.5 1069,-142.5 1183,-142.5 1183,-123.5 1069,-123.5"/>
<text text-anchor="middle" x="1126" y="-130.5" font-family="Helvetica,sans-Serif" font-size="10.00">kernel/include/thread.h</text>
</a>
</g>
</g>
<!-- Node14&#45;&gt;Node28 -->
<g id="edge29" class="edge">
<title>Node14&#45;&gt;Node28</title>
<path fill="none" stroke="midnightblue" d="M1337.93,-182.69C1287.67,-171.14 1209.07,-153.08 1163.04,-142.51"/>
<polygon fill="midnightblue" stroke="midnightblue" points="1337.36,-186.15 1347.89,-184.98 1338.93,-179.32 1337.36,-186.15"/>
</g>
<!-- Node15&#45;&gt;Node16 -->
<g id="edge16" class="edge">
<title>Node15&#45;&gt;Node16</title>
<path fill="none" stroke="midnightblue" d="M1542.77,-119.37C1565.81,-109.26 1597.48,-95.35 1617.6,-86.52"/>
<polygon fill="midnightblue" stroke="midnightblue" points="1541.24,-116.22 1533.49,-123.44 1544.05,-122.63 1541.24,-116.22"/>
</g>
<!-- Node15&#45;&gt;Node17 -->
<g id="edge17" class="edge">
<title>Node15&#45;&gt;Node17</title>
<path fill="none" stroke="midnightblue" d="M1514,-112.8C1514,-103.91 1514,-93.78 1514,-86.75"/>
<polygon fill="midnightblue" stroke="midnightblue" points="1510.5,-113.08 1514,-123.08 1517.5,-113.08 1510.5,-113.08"/>
</g>
<!-- Node19 -->
<g id="node19" class="node">
<title>Node19</title>
<g id="a_node19"><a xlink:href="dev_8c.html" target="_top" xlink:title=" ">
<polygon fill="none" stroke="black" points="757,-6 757,-25 861,-25 861,-6 757,-6"/>
<text text-anchor="middle" x="809" y="-13" font-family="Helvetica,sans-Serif" font-size="10.00">kernel/src/dev/dev.c</text>
</a>
</g>
</g>
<!-- Node18&#45;&gt;Node19 -->
<g id="edge19" class="edge">
<title>Node18&#45;&gt;Node19</title>
<path fill="none" stroke="midnightblue" d="M1009.17,-65.11C961.62,-53.57 887.49,-35.56 844.04,-25.01"/>
<polygon fill="midnightblue" stroke="midnightblue" points="1008.35,-68.52 1018.9,-67.48 1010.01,-61.71 1008.35,-68.52"/>
</g>
<!-- Node20 -->
<g id="node20" class="node">
<title>Node20</title>
<g id="a_node20"><a xlink:href="dev__input_8c.html" target="_top" xlink:title=" ">
<polygon fill="none" stroke="black" points="879.5,-0.5 879.5,-30.5 976.5,-30.5 976.5,-0.5 879.5,-0.5"/>
<text text-anchor="start" x="887.5" y="-18.5" font-family="Helvetica,sans-Serif" font-size="10.00">kernel/src/dev/dev</text>
<text text-anchor="middle" x="928" y="-7.5" font-family="Helvetica,sans-Serif" font-size="10.00">_input.c</text>
</a>
</g>
</g>
<!-- Node18&#45;&gt;Node20 -->
<g id="edge20" class="edge">
<title>Node18&#45;&gt;Node20</title>
<path fill="none" stroke="midnightblue" d="M1026.89,-63.2C1006.53,-53.58 978.66,-40.42 957.7,-30.52"/>
<polygon fill="midnightblue" stroke="midnightblue" points="1025.41,-66.37 1035.95,-67.48 1028.4,-60.04 1025.41,-66.37"/>
</g>
<!-- Node21 -->
<g id="node21" class="node">
<title>Node21</title>
<g id="a_node21"><a xlink:href="dev__sd_8c.html" target="_top" xlink:title=" ">
<polygon fill="none" stroke="black" points="994,-6 994,-25 1114,-25 1114,-6 994,-6"/>
<text text-anchor="middle" x="1054" y="-13" font-family="Helvetica,sans-Serif" font-size="10.00">kernel/src/dev/dev_sd.c</text>
</a>
</g>
</g>
<!-- Node18&#45;&gt;Node21 -->
<g id="edge21" class="edge">
<title>Node18&#45;&gt;Node21</title>
<path fill="none" stroke="midnightblue" d="M1054,-57.32C1054,-46.5 1054,-33.4 1054,-25.01"/>
<polygon fill="midnightblue" stroke="midnightblue" points="1050.5,-57.48 1054,-67.48 1057.5,-57.48 1050.5,-57.48"/>
</g>
<!-- Node22 -->
<g id="node22" class="node">
<title>Node22</title>
<g id="a_node22"><a xlink:href="dev__tty_8c.html" target="_top" xlink:title=" ">
<polygon fill="none" stroke="black" points="1131.5,-0.5 1131.5,-30.5 1228.5,-30.5 1228.5,-0.5 1131.5,-0.5"/>
<text text-anchor="start" x="1139.5" y="-18.5" font-family="Helvetica,sans-Serif" font-size="10.00">kernel/src/dev/dev</text>
<text text-anchor="middle" x="1180" y="-7.5" font-family="Helvetica,sans-Serif" font-size="10.00">_tty.c</text>
</a>
</g>
</g>
<!-- Node18&#45;&gt;Node22 -->
<g id="edge22" class="edge">
<title>Node18&#45;&gt;Node22</title>
<path fill="none" stroke="midnightblue" d="M1081.11,-63.2C1101.47,-53.58 1129.34,-40.42 1150.3,-30.52"/>
<polygon fill="midnightblue" stroke="midnightblue" points="1079.6,-60.04 1072.05,-67.48 1082.59,-66.37 1079.6,-60.04"/>
</g>
<!-- Node23 -->
<g id="node23" class="node">
<title>Node23</title>
<g id="a_node23"><a xlink:href="dev__video_8c.html" target="_top" xlink:title=" ">
<polygon fill="none" stroke="black" points="1246.5,-0.5 1246.5,-30.5 1343.5,-30.5 1343.5,-0.5 1246.5,-0.5"/>
<text text-anchor="start" x="1254.5" y="-18.5" font-family="Helvetica,sans-Serif" font-size="10.00">kernel/src/dev/dev</text>
<text text-anchor="middle" x="1295" y="-7.5" font-family="Helvetica,sans-Serif" font-size="10.00">_video.c</text>
</a>
</g>
</g>
<!-- Node18&#45;&gt;Node23 -->
<g id="edge23" class="edge">
<title>Node18&#45;&gt;Node23</title>
<path fill="none" stroke="midnightblue" d="M1098.73,-65.05C1135.79,-55.97 1189.83,-42.7 1237,-31 1240.02,-30.25 1243.13,-29.48 1246.27,-28.7"/>
<polygon fill="midnightblue" stroke="midnightblue" points="1097.63,-61.72 1088.75,-67.5 1099.3,-68.52 1097.63,-61.72"/>
</g>
<!-- Node24&#45;&gt;Node18 -->
<g id="edge25" class="edge">
<title>Node24&#45;&gt;Node18</title>
<path fill="none" stroke="midnightblue" d="M1251.97,-121.28C1205.3,-111.08 1135.97,-95.92 1092.95,-86.52"/>
<polygon fill="midnightblue" stroke="midnightblue" points="1251.35,-124.73 1261.86,-123.44 1252.84,-117.89 1251.35,-124.73"/>
</g>
<!-- Node24&#45;&gt;Node25 -->
<g id="edge26" class="edge">
<title>Node24&#45;&gt;Node25</title>
<path fill="none" stroke="midnightblue" d="M1271.76,-119.37C1248.35,-109.26 1216.16,-95.35 1195.71,-86.52"/>
<polygon fill="midnightblue" stroke="midnightblue" points="1270.63,-122.69 1281.19,-123.44 1273.4,-116.26 1270.63,-122.69"/>
</g>
<!-- Node24&#45;&gt;Node26 -->
<g id="edge27" class="edge">
<title>Node24&#45;&gt;Node26</title>
<path fill="none" stroke="midnightblue" d="M1326.09,-118.45C1344.55,-108.48 1369.1,-95.23 1384.97,-86.65"/>
<polygon fill="midnightblue" stroke="midnightblue" points="1324.2,-115.49 1317.07,-123.32 1327.53,-121.65 1324.2,-115.49"/>
</g>
<!-- Node27 -->
<g id="node27" class="node">
<title>Node27</title>
<g id="a_node27"><a xlink:href="spinlock_8c.html" target="_top" xlink:title=" ">
<polygon fill="none" stroke="black" points="1237,-67.5 1237,-86.5 1343,-86.5 1343,-67.5 1237,-67.5"/>
<text text-anchor="middle" x="1290" y="-74.5" font-family="Helvetica,sans-Serif" font-size="10.00">kernel/src/spinlock.c</text>
</a>
</g>
</g>
<!-- Node24&#45;&gt;Node27 -->
<g id="edge28" class="edge">
<title>Node24&#45;&gt;Node27</title>
<path fill="none" stroke="midnightblue" d="M1297.15,-113.1C1295.32,-104.14 1293.23,-93.86 1291.78,-86.75"/>
<polygon fill="midnightblue" stroke="midnightblue" points="1293.76,-113.98 1299.18,-123.08 1300.62,-112.59 1293.76,-113.98"/>
</g>
<!-- Node28&#45;&gt;Node18 -->
<g id="edge30" class="edge">
<title>Node28&#45;&gt;Node18</title>
<path fill="none" stroke="midnightblue" d="M1106.13,-117.1C1093.18,-107.38 1076.7,-95.03 1065.78,-86.83"/>
<polygon fill="midnightblue" stroke="midnightblue" points="1104.33,-120.12 1114.43,-123.32 1108.53,-114.52 1104.33,-120.12"/>
</g>
<!-- Node28&#45;&gt;Node25 -->
<g id="edge31" class="edge">
<title>Node28&#45;&gt;Node25</title>
<path fill="none" stroke="midnightblue" d="M1141.08,-115.72C1149.89,-106.2 1160.67,-94.56 1167.9,-86.75"/>
<polygon fill="midnightblue" stroke="midnightblue" points="1138.48,-113.37 1134.26,-123.08 1143.62,-118.12 1138.48,-113.37"/>
</g>
<!-- Node29&#45;&gt;Node14 -->
<g id="edge38" class="edge">
<title>Node29&#45;&gt;Node14</title>
<path fill="none" stroke="midnightblue" d="M1509.39,-242.78C1476.24,-230.18 1433.16,-213.81 1407.38,-204.01"/>
<polygon fill="midnightblue" stroke="midnightblue" points="1508.3,-246.11 1518.9,-246.4 1510.79,-239.57 1508.3,-246.11"/>
</g>
<!-- Node29&#45;&gt;Node16 -->
<g id="edge42" class="edge">
<title>Node29&#45;&gt;Node16</title>
<path fill="none" stroke="midnightblue" d="M1621.42,-251.48C1669.49,-243.36 1728.93,-229.65 1744,-210 1780.44,-162.48 1691.81,-107.32 1653.55,-86.52"/>
<polygon fill="midnightblue" stroke="midnightblue" points="1620.66,-248.06 1611.36,-253.13 1621.79,-254.97 1620.66,-248.06"/>
</g>
<!-- Node29&#45;&gt;Node17 -->
<g id="edge43" class="edge">
<title>Node29&#45;&gt;Node17</title>
<path fill="none" stroke="midnightblue" d="M1568.31,-237.14C1581.52,-208.61 1598.19,-159.63 1579,-123 1569.95,-105.74 1550.94,-93.78 1535.81,-86.55"/>
<polygon fill="midnightblue" stroke="midnightblue" points="1565.07,-235.8 1563.84,-246.33 1571.36,-238.86 1565.07,-235.8"/>
</g>
<!-- Node30 -->
<g id="node30" class="node">
<title>Node30</title>
<g id="a_node30"><a xlink:href="logger_8c.html" target="_top" xlink:title=" ">
<polygon fill="none" stroke="black" points="1625,-179.5 1625,-209.5 1735,-209.5 1735,-179.5 1625,-179.5"/>
<text text-anchor="start" x="1633" y="-197.5" font-family="Helvetica,sans-Serif" font-size="10.00">abstract&#45;machine/klib</text>
<text text-anchor="middle" x="1680" y="-186.5" font-family="Helvetica,sans-Serif" font-size="10.00">/src/logger.c</text>
</a>
</g>
</g>
<!-- Node29&#45;&gt;Node30 -->
<g id="edge37" class="edge">
<title>Node29&#45;&gt;Node30</title>
<path fill="none" stroke="midnightblue" d="M1591.84,-241.71C1611.39,-231.46 1635.2,-218.98 1653.15,-209.58"/>
<polygon fill="midnightblue" stroke="midnightblue" points="1590.14,-238.65 1582.91,-246.4 1593.39,-244.85 1590.14,-238.65"/>
</g>
<!-- Node31 -->
<g id="node31" class="node">
<title>Node31</title>
<g id="a_node31"><a xlink:href="list_8h.html" target="_top" xlink:title="double circular linked list impl without concurrency">
<polygon fill="none" stroke="black" points="1466,-185 1466,-204 1566,-204 1566,-185 1466,-185"/>
<text text-anchor="middle" x="1516" y="-192" font-family="Helvetica,sans-Serif" font-size="10.00">kernel/include/list.h</text>
</a>
</g>
</g>
<!-- Node29&#45;&gt;Node31 -->
<g id="edge39" class="edge">
<title>Node29&#45;&gt;Node31</title>
<path fill="none" stroke="midnightblue" d="M1541.93,-237.63C1534.81,-226.07 1526.59,-212.71 1521.35,-204.19"/>
<polygon fill="midnightblue" stroke="midnightblue" points="1539.1,-239.71 1547.32,-246.4 1545.06,-236.05 1539.1,-239.71"/>
</g>
<!-- Node31&#45;&gt;Node15 -->
<g id="edge40" class="edge">
<title>Node31&#45;&gt;Node15</title>
<path fill="none" stroke="midnightblue" d="M1515.37,-174.82C1515.01,-164 1514.57,-150.9 1514.29,-142.51"/>
<polygon fill="midnightblue" stroke="midnightblue" points="1511.88,-175.1 1515.71,-184.98 1518.88,-174.86 1511.88,-175.1"/>
</g>
<!-- Node31&#45;&gt;Node28 -->
<g id="edge41" class="edge">
<title>Node31&#45;&gt;Node28</title>
<path fill="none" stroke="midnightblue" d="M1473.65,-182.7C1467.74,-181.36 1461.73,-180.08 1456,-179 1360.97,-161.09 1249.25,-147.37 1183.22,-140.02"/>
<polygon fill="midnightblue" stroke="midnightblue" points="1472.9,-186.12 1483.43,-184.99 1474.5,-179.3 1472.9,-186.12"/>
</g>
<!-- Node33&#45;&gt;Node13 -->
<g id="edge49" class="edge">
<title>Node33&#45;&gt;Node13</title>
<path fill="none" stroke="midnightblue" d="M1204,-241.54C1204,-229.17 1204,-213.62 1204,-204.13"/>
<polygon fill="midnightblue" stroke="midnightblue" points="1200.5,-241.73 1204,-251.73 1207.5,-241.73 1200.5,-241.73"/>
</g>
<!-- Node33&#45;&gt;Node14 -->
<g id="edge50" class="edge">
<title>Node33&#45;&gt;Node14</title>
<path fill="none" stroke="midnightblue" d="M1237.59,-248.44C1273.5,-235.54 1329.52,-215.42 1361.15,-204.06"/>
<polygon fill="midnightblue" stroke="midnightblue" points="1236.26,-245.19 1228.04,-251.87 1238.63,-251.78 1236.26,-245.19"/>
</g>
<!-- Node34 -->
<g id="node34" class="node">
<title>Node34</title>
<g id="a_node34"><a xlink:href="sem_8h.html" target="_top" xlink:title=" ">
<polygon fill="none" stroke="black" points="907,-123.5 907,-142.5 1013,-142.5 1013,-123.5 907,-123.5"/>
<text text-anchor="middle" x="960" y="-130.5" font-family="Helvetica,sans-Serif" font-size="10.00">kernel/include/sem.h</text>
</a>
</g>
</g>
<!-- Node33&#45;&gt;Node34 -->
<g id="edge51" class="edge">
<title>Node33&#45;&gt;Node34</title>
<path fill="none" stroke="midnightblue" d="M1229.96,-246.88C1257.57,-230.68 1294.64,-202.8 1274,-179 1271.87,-176.55 1102.19,-153.25 1013.18,-141.18"/>
<polygon fill="midnightblue" stroke="midnightblue" points="1228.04,-243.95 1221.05,-251.91 1231.48,-250.04 1228.04,-243.95"/>
</g>
<!-- Node34&#45;&gt;Node18 -->
<g id="edge52" class="edge">
<title>Node34&#45;&gt;Node18</title>
<path fill="none" stroke="midnightblue" d="M984.06,-118.18C1001.36,-108.24 1024.15,-95.15 1038.93,-86.65"/>
<polygon fill="midnightblue" stroke="midnightblue" points="982.03,-115.31 975.1,-123.32 985.52,-121.38 982.03,-115.31"/>
</g>
<!-- Node34&#45;&gt;Node25 -->
<g id="edge53" class="edge">
<title>Node34&#45;&gt;Node25</title>
<path fill="none" stroke="midnightblue" d="M1004.16,-120.96C1044.96,-110.76 1104.71,-95.82 1141.93,-86.52"/>
<polygon fill="midnightblue" stroke="midnightblue" points="1003.08,-117.62 994.23,-123.44 1004.78,-124.41 1003.08,-117.62"/>
</g>
<!-- Node35 -->
<g id="node35" class="node">
<title>Node35</title>
<g id="a_node35"><a xlink:href="sem_8c.html" target="_top" xlink:title=" ">
<polygon fill="none" stroke="black" points="886.5,-67.5 886.5,-86.5 975.5,-86.5 975.5,-67.5 886.5,-67.5"/>
<text text-anchor="middle" x="931" y="-74.5" font-family="Helvetica,sans-Serif" font-size="10.00">kernel/src/sem.c</text>
</a>
</g>
</g>
<!-- Node34&#45;&gt;Node35 -->
<g id="edge54" class="edge">
<title>Node34&#45;&gt;Node35</title>
<path fill="none" stroke="midnightblue" d="M950.32,-113.98C945.4,-104.82 939.64,-94.09 935.7,-86.75"/>
<polygon fill="midnightblue" stroke="midnightblue" points="947.4,-115.93 955.21,-123.08 953.56,-112.62 947.4,-115.93"/>
</g>
</g>
</svg>
