<?xml version="1.0" encoding="UTF-8" standalone="no"?>
<!DOCTYPE svg PUBLIC "-//W3C//DTD SVG 1.1//EN"
 "http://www.w3.org/Graphics/SVG/1.1/DTD/svg11.dtd">
<!-- Generated by graphviz version 2.50.0 (20220203.2022)
 -->
<!-- Title: cpu_count Pages: 1 -->
<svg width="799pt" height="139pt"
 viewBox="0.00 0.00 799.00 139.00" xmlns="http://www.w3.org/2000/svg" xmlns:xlink="http://www.w3.org/1999/xlink">
<g id="graph0" class="graph" transform="scale(1 1) rotate(0) translate(4 135)">
<title>cpu_count</title>
<!-- Node1 -->
<g id="node1" class="node">
<title>Node1</title>
<g id="a_node1"><a xlink:title=" ">
<polygon fill="#bfbfbf" stroke="black" points="729,-16.5 729,-35.5 791,-35.5 791,-16.5 729,-16.5"/>
<text text-anchor="middle" x="760" y="-23.5" font-family="Helvetica,sans-Serif" font-size="10.00">cpu_count</text>
</a>
</g>
</g>
<!-- Node2 -->
<g id="node2" class="node">
<title>Node2</title>
<g id="a_node2"><a xlink:href="platform_8c.html#a66cf43dfc7e13b3775d6d2040722da59" target="_top" xlink:title=" ">
<polygon fill="none" stroke="black" points="592,-54.5 592,-73.5 693,-73.5 693,-54.5 592,-54.5"/>
<text text-anchor="middle" x="642.5" y="-61.5" font-family="Helvetica,sans-Serif" font-size="10.00">__am_exit_platform</text>
</a>
</g>
</g>
<!-- Node1&#45;&gt;Node2 -->
<g id="edge1" class="edge">
<title>Node1&#45;&gt;Node2</title>
<path fill="none" stroke="midnightblue" d="M720.02,-38.83C704.52,-43.92 687,-49.69 672.64,-54.41"/>
<polygon fill="midnightblue" stroke="midnightblue" points="721.45,-42.04 729.85,-35.59 719.26,-35.39 721.45,-42.04"/>
</g>
<!-- Node12 -->
<g id="node12" class="node">
<title>Node12</title>
<g id="a_node12"><a xlink:href="x86_2qemu_2mpe_8c.html#a2e4a724e2d067425ff3fd49bc0bf42e1" target="_top" xlink:title=" ">
<polygon fill="none" stroke="black" points="92,-0.5 92,-19.5 145,-19.5 145,-0.5 92,-0.5"/>
<text text-anchor="middle" x="118.5" y="-7.5" font-family="Helvetica,sans-Serif" font-size="10.00">mpe_init</text>
</a>
</g>
</g>
<!-- Node1&#45;&gt;Node12 -->
<g id="edge14" class="edge">
<title>Node1&#45;&gt;Node12</title>
<path fill="none" stroke="midnightblue" d="M718.8,-20.39C675.13,-14.78 603.25,-7 541,-7 541,-7 541,-7 335.5,-7 266.68,-7 185.54,-8.54 145.1,-9.41"/>
<polygon fill="midnightblue" stroke="midnightblue" points="718.37,-23.86 728.74,-21.69 719.28,-16.92 718.37,-23.86"/>
</g>
<!-- Node3 -->
<g id="node3" class="node">
<title>Node3</title>
<g id="a_node3"><a xlink:href="x86_2qemu_2trm_8c.html#a483cb97188e557c3c68d3a1572c2cc92" target="_top" xlink:title=" ">
<polygon fill="none" stroke="black" points="524,-63.5 524,-82.5 556,-82.5 556,-63.5 524,-63.5"/>
<text text-anchor="middle" x="540" y="-70.5" font-family="Helvetica,sans-Serif" font-size="10.00">halt</text>
</a>
</g>
</g>
<!-- Node2&#45;&gt;Node3 -->
<g id="edge2" class="edge">
<title>Node2&#45;&gt;Node3</title>
<path fill="none" stroke="midnightblue" d="M581.79,-69.35C572.26,-70.2 563.19,-71.01 556.04,-71.65"/>
<polygon fill="midnightblue" stroke="midnightblue" points="582.19,-72.83 591.84,-68.45 581.57,-65.85 582.19,-72.83"/>
</g>
<!-- Node4 -->
<g id="node4" class="node">
<title>Node4</title>
<g id="a_node4"><a xlink:href="x86_2qemu_2trm_8c.html#a12a49ff4d3a586b2315e292c5da3df7e" target="_top" xlink:title=" ">
<polygon fill="none" stroke="black" points="422.5,-111.5 422.5,-130.5 480.5,-130.5 480.5,-111.5 422.5,-111.5"/>
<text text-anchor="middle" x="451.5" y="-118.5" font-family="Helvetica,sans-Serif" font-size="10.00">call_main</text>
</a>
</g>
</g>
<!-- Node3&#45;&gt;Node4 -->
<g id="edge3" class="edge">
<title>Node3&#45;&gt;Node4</title>
<path fill="none" stroke="midnightblue" d="M515.17,-86.72C506.63,-91.59 496.91,-97.09 488,-102 482.37,-105.11 476.2,-108.43 470.61,-111.42"/>
<polygon fill="midnightblue" stroke="midnightblue" points="516.94,-89.74 523.88,-81.73 513.46,-83.66 516.94,-89.74"/>
</g>
<!-- Node6 -->
<g id="node6" class="node">
<title>Node6</title>
<g id="a_node6"><a xlink:href="input_8c.html#a77413c19d2c314aba317257b3cafb1c7" target="_top" xlink:title=" ">
<polygon fill="none" stroke="black" points="415,-73.5 415,-92.5 488,-92.5 488,-73.5 415,-73.5"/>
<text text-anchor="middle" x="451.5" y="-80.5" font-family="Helvetica,sans-Serif" font-size="10.00">event_thread</text>
</a>
</g>
</g>
<!-- Node3&#45;&gt;Node6 -->
<g id="edge5" class="edge">
<title>Node3&#45;&gt;Node6</title>
<path fill="none" stroke="midnightblue" d="M513.79,-75.91C505.8,-76.84 496.81,-77.88 488.23,-78.87"/>
<polygon fill="midnightblue" stroke="midnightblue" points="514.4,-79.37 523.93,-74.74 513.6,-72.41 514.4,-79.37"/>
</g>
<!-- Node14 -->
<g id="node14" class="node">
<title>Node14</title>
<g id="a_node14"><a xlink:href="platform_8c.html#ab518f1443eb1cdfa46deda54dca8c7fc" target="_top" xlink:title=" ">
<polygon fill="none" stroke="black" points="416.5,-35.5 416.5,-54.5 486.5,-54.5 486.5,-35.5 416.5,-35.5"/>
<text text-anchor="middle" x="451.5" y="-42.5" font-family="Helvetica,sans-Serif" font-size="10.00">init_platform</text>
</a>
</g>
</g>
<!-- Node3&#45;&gt;Node14 -->
<g id="edge13" class="edge">
<title>Node3&#45;&gt;Node14</title>
<path fill="none" stroke="midnightblue" d="M514.2,-64.97C504.18,-61.73 492.54,-57.96 482.08,-54.57"/>
<polygon fill="midnightblue" stroke="midnightblue" points="513.34,-68.37 523.93,-68.12 515.5,-61.71 513.34,-68.37"/>
</g>
<!-- Node5 -->
<g id="node5" class="node">
<title>Node5</title>
<g id="a_node5"><a xlink:href="x86_2qemu_2trm_8c.html#a54a85aeee6f6a8ef875d4cca663f9fd8" target="_top" xlink:title=" ">
<polygon fill="none" stroke="black" points="310.5,-111.5 310.5,-130.5 362.5,-130.5 362.5,-111.5 310.5,-111.5"/>
<text text-anchor="middle" x="336.5" y="-118.5" font-family="Helvetica,sans-Serif" font-size="10.00">_start_c</text>
</a>
</g>
</g>
<!-- Node4&#45;&gt;Node5 -->
<g id="edge4" class="edge">
<title>Node4&#45;&gt;Node5</title>
<path fill="none" stroke="midnightblue" d="M411.96,-121C395.67,-121 377.16,-121 362.67,-121"/>
<polygon fill="midnightblue" stroke="midnightblue" points="412.28,-124.5 422.28,-121 412.28,-117.5 412.28,-124.5"/>
</g>
<!-- Node7 -->
<g id="node7" class="node">
<title>Node7</title>
<g id="a_node7"><a xlink:href="input_8c.html#a02d166c8d2549e580fd16379de9e80f1" target="_top" xlink:title=" ">
<polygon fill="none" stroke="black" points="294,-71.5 294,-90.5 379,-90.5 379,-71.5 294,-71.5"/>
<text text-anchor="middle" x="336.5" y="-78.5" font-family="Helvetica,sans-Serif" font-size="10.00">__am_input_init</text>
</a>
</g>
</g>
<!-- Node6&#45;&gt;Node7 -->
<g id="edge6" class="edge">
<title>Node6&#45;&gt;Node7</title>
<path fill="none" stroke="midnightblue" d="M404.72,-82.19C396.33,-82.04 387.61,-81.89 379.34,-81.74"/>
<polygon fill="midnightblue" stroke="midnightblue" points="404.69,-85.69 414.75,-82.37 404.81,-78.69 404.69,-85.69"/>
</g>
<!-- Node8 -->
<g id="node8" class="node">
<title>Node8</title>
<g id="a_node8"><a xlink:href="native_2ioe_8c.html#a85e8849eae1811aa4fa0527476f39782" target="_top" xlink:title=" ">
<polygon fill="none" stroke="black" points="181,-66.5 181,-85.5 258,-85.5 258,-66.5 181,-66.5"/>
<text text-anchor="middle" x="219.5" y="-73.5" font-family="Helvetica,sans-Serif" font-size="10.00">__am_ioe_init</text>
</a>
</g>
</g>
<!-- Node7&#45;&gt;Node8 -->
<g id="edge7" class="edge">
<title>Node7&#45;&gt;Node8</title>
<path fill="none" stroke="midnightblue" d="M283.92,-78.76C275.24,-78.38 266.38,-77.99 258.14,-77.64"/>
<polygon fill="midnightblue" stroke="midnightblue" points="283.84,-82.26 293.98,-79.19 284.14,-75.26 283.84,-82.26"/>
</g>
<!-- Node9 -->
<g id="node9" class="node">
<title>Node9</title>
<g id="a_node9"><a xlink:href="native_2ioe_8c.html#ac7243d0dd8589da2317ee06ee132c2f0" target="_top" xlink:title=" ">
<polygon fill="none" stroke="black" points="98.5,-66.5 98.5,-85.5 138.5,-85.5 138.5,-66.5 98.5,-66.5"/>
<text text-anchor="middle" x="118.5" y="-73.5" font-family="Helvetica,sans-Serif" font-size="10.00">do_io</text>
</a>
</g>
</g>
<!-- Node8&#45;&gt;Node9 -->
<g id="edge8" class="edge">
<title>Node8&#45;&gt;Node9</title>
<path fill="none" stroke="midnightblue" d="M170.48,-76C159.15,-76 147.72,-76 138.56,-76"/>
<polygon fill="midnightblue" stroke="midnightblue" points="170.79,-79.5 180.79,-76 170.79,-72.5 170.79,-79.5"/>
</g>
<!-- Node8&#45;&gt;Node12 -->
<g id="edge11" class="edge">
<title>Node8&#45;&gt;Node12</title>
<path fill="none" stroke="midnightblue" d="M195.47,-60.65C176.43,-47.95 149.99,-30.32 133.85,-19.56"/>
<polygon fill="midnightblue" stroke="midnightblue" points="193.63,-63.63 203.89,-66.26 197.51,-57.8 193.63,-63.63"/>
</g>
<!-- Node10 -->
<g id="node10" class="node">
<title>Node10</title>
<g id="a_node10"><a xlink:href="x86_2qemu_2ioe_8c.html#a9e4d8844a1b291f3594ac00297a918a4" target="_top" xlink:title=" ">
<polygon fill="none" stroke="black" points="1.5,-95.5 1.5,-114.5 54.5,-114.5 54.5,-95.5 1.5,-95.5"/>
<text text-anchor="middle" x="28" y="-102.5" font-family="Helvetica,sans-Serif" font-size="10.00">ioe_read</text>
</a>
</g>
</g>
<!-- Node9&#45;&gt;Node10 -->
<g id="edge9" class="edge">
<title>Node9&#45;&gt;Node10</title>
<path fill="none" stroke="midnightblue" d="M88.69,-85.44C77.69,-89.05 65.23,-93.13 54.55,-96.63"/>
<polygon fill="midnightblue" stroke="midnightblue" points="89.88,-88.73 98.3,-82.29 87.7,-82.08 89.88,-88.73"/>
</g>
<!-- Node11 -->
<g id="node11" class="node">
<title>Node11</title>
<g id="a_node11"><a xlink:href="x86_2qemu_2ioe_8c.html#ad1964375eeefa10b564a3bf2bd322db0" target="_top" xlink:title=" ">
<polygon fill="none" stroke="black" points="0,-57.5 0,-76.5 56,-76.5 56,-57.5 0,-57.5"/>
<text text-anchor="middle" x="28" y="-64.5" font-family="Helvetica,sans-Serif" font-size="10.00">ioe_write</text>
</a>
</g>
</g>
<!-- Node9&#45;&gt;Node11 -->
<g id="edge10" class="edge">
<title>Node9&#45;&gt;Node11</title>
<path fill="none" stroke="midnightblue" d="M88.12,-73.01C77.83,-71.97 66.33,-70.8 56.22,-69.77"/>
<polygon fill="midnightblue" stroke="midnightblue" points="87.99,-76.52 98.3,-74.05 88.7,-69.55 87.99,-76.52"/>
</g>
<!-- Node13 -->
<g id="node13" class="node">
<title>Node13</title>
<g id="a_node13"><a xlink:href="kernel_2framework_2main_8c.html#ae66f6b31b5ad750f1fe042a706a4e3d4" target="_top" xlink:title=" ">
<polygon fill="none" stroke="black" points="9,-0.5 9,-19.5 47,-19.5 47,-0.5 9,-0.5"/>
<text text-anchor="middle" x="28" y="-7.5" font-family="Helvetica,sans-Serif" font-size="10.00">main</text>
</a>
</g>
</g>
<!-- Node12&#45;&gt;Node13 -->
<g id="edge12" class="edge">
<title>Node12&#45;&gt;Node13</title>
<path fill="none" stroke="midnightblue" d="M81.79,-10C69.93,-10 57.21,-10 47.24,-10"/>
<polygon fill="midnightblue" stroke="midnightblue" points="81.9,-13.5 91.9,-10 81.9,-6.5 81.9,-13.5"/>
</g>
</g>
</svg>
