<?xml version="1.0" encoding="UTF-8" standalone="no"?>
<!DOCTYPE svg PUBLIC "-//W3C//DTD SVG 1.1//EN"
 "http://www.w3.org/Graphics/SVG/1.1/DTD/svg11.dtd">
<!-- Generated by graphviz version 3.0.0 (20220413.0106)
 -->
<!-- Title: abstract&#45;machine/am/include/amdev.h Pages: 1 -->
<svg width="1778pt" height="419pt"
 viewBox="0.00 0.00 1778.00 419.00" xmlns="http://www.w3.org/2000/svg" xmlns:xlink="http://www.w3.org/1999/xlink">
<g id="graph0" class="graph" transform="scale(1 1) rotate(0) translate(4 415)">
<title>abstract&#45;machine/am/include/amdev.h</title>
<!-- Node1 -->
<g id="node1" class="node">
<title>Node1</title>
<g id="a_node1"><a xlink:title=" ">
<polygon fill="#bfbfbf" stroke="black" points="649,-380.5 649,-410.5 757,-410.5 757,-380.5 649,-380.5"/>
<text text-anchor="start" x="657" y="-398.5" font-family="Helvetica,sans-Serif" font-size="10.00">abstract&#45;machine/am</text>
<text text-anchor="middle" x="703" y="-387.5" font-family="Helvetica,sans-Serif" font-size="10.00">/include/amdev.h</text>
</a>
</g>
</g>
<!-- Node2 -->
<g id="node2" class="node">
<title>Node2</title>
<g id="a_node2"><a xlink:href="am_8h.html" target="_top" xlink:title=" ">
<polygon fill="none" stroke="black" points="589,-313.5 589,-343.5 697,-343.5 697,-313.5 589,-313.5"/>
<text text-anchor="start" x="597" y="-331.5" font-family="Helvetica,sans-Serif" font-size="10.00">abstract&#45;machine/am</text>
<text text-anchor="middle" x="643" y="-320.5" font-family="Helvetica,sans-Serif" font-size="10.00">/include/am.h</text>
</a>
</g>
</g>
<!-- Node1&#45;&gt;Node2 -->
<g id="edge1" class="edge">
<title>Node1&#45;&gt;Node2</title>
<path fill="none" stroke="midnightblue" d="M683.18,-373.02C674.24,-363.34 663.93,-352.17 655.99,-343.58"/>
<polygon fill="midnightblue" stroke="midnightblue" points="680.63,-375.42 689.98,-380.4 685.77,-370.67 680.63,-375.42"/>
</g>
<!-- Node15 -->
<g id="node15" class="node">
<title>Node15</title>
<g id="a_node15"><a xlink:href="common_8h.html" target="_top" xlink:title=" ">
<polygon fill="none" stroke="black" points="692.5,-185 692.5,-204 817.5,-204 817.5,-185 692.5,-185"/>
<text text-anchor="middle" x="755" y="-192" font-family="Helvetica,sans-Serif" font-size="10.00">kernel/include/common.h</text>
</a>
</g>
</g>
<!-- Node1&#45;&gt;Node15 -->
<g id="edge57" class="edge">
<title>Node1&#45;&gt;Node15</title>
<path fill="none" stroke="midnightblue" d="M725.98,-373.38C747.76,-351.66 779.02,-315.63 792,-277 796.39,-263.94 796.28,-259.09 792,-246 786.53,-229.27 773.16,-213.49 764.09,-204.16"/>
<polygon fill="midnightblue" stroke="midnightblue" points="723.44,-370.97 718.71,-380.45 728.32,-375.98 723.44,-370.97"/>
</g>
<!-- Node3 -->
<g id="node3" class="node">
<title>Node3</title>
<g id="a_node3"><a xlink:href="x86-qemu_8h.html" target="_top" xlink:title=" ">
<polygon fill="none" stroke="black" points="1335.5,-246.5 1335.5,-276.5 1466.5,-276.5 1466.5,-246.5 1335.5,-246.5"/>
<text text-anchor="start" x="1343.5" y="-264.5" font-family="Helvetica,sans-Serif" font-size="10.00">abstract&#45;machine/am</text>
<text text-anchor="middle" x="1401" y="-253.5" font-family="Helvetica,sans-Serif" font-size="10.00">/src/x86/qemu/x86&#45;qemu.h</text>
</a>
</g>
</g>
<!-- Node2&#45;&gt;Node3 -->
<g id="edge2" class="edge">
<title>Node2&#45;&gt;Node3</title>
<path fill="none" stroke="midnightblue" d="M707.55,-321.97C850.28,-309.73 1191.43,-280.47 1335.27,-268.14"/>
<polygon fill="midnightblue" stroke="midnightblue" points="706.87,-318.51 697.21,-322.85 707.47,-325.48 706.87,-318.51"/>
</g>
<!-- Node9 -->
<g id="node9" class="node">
<title>Node9</title>
<g id="a_node9"><a xlink:href="klib_8h.html" target="_top" xlink:title=" ">
<polygon fill="none" stroke="black" points="382,-246.5 382,-276.5 492,-276.5 492,-246.5 382,-246.5"/>
<text text-anchor="start" x="390" y="-264.5" font-family="Helvetica,sans-Serif" font-size="10.00">abstract&#45;machine/klib</text>
<text text-anchor="middle" x="437" y="-253.5" font-family="Helvetica,sans-Serif" font-size="10.00">/include/klib.h</text>
</a>
</g>
</g>
<!-- Node2&#45;&gt;Node9 -->
<g id="edge8" class="edge">
<title>Node2&#45;&gt;Node9</title>
<path fill="none" stroke="midnightblue" d="M588.95,-310.44C555.55,-299.91 513.22,-286.55 481.72,-276.61"/>
<polygon fill="midnightblue" stroke="midnightblue" points="587.96,-313.8 598.55,-313.48 590.07,-307.13 587.96,-313.8"/>
</g>
<!-- Node10 -->
<g id="node10" class="node">
<title>Node10</title>
<g id="a_node10"><a xlink:href="cpp_8c.html" target="_top" xlink:title=" ">
<polygon fill="none" stroke="black" points="128,-179.5 128,-209.5 238,-209.5 238,-179.5 128,-179.5"/>
<text text-anchor="start" x="136" y="-197.5" font-family="Helvetica,sans-Serif" font-size="10.00">abstract&#45;machine/klib</text>
<text text-anchor="middle" x="183" y="-186.5" font-family="Helvetica,sans-Serif" font-size="10.00">/src/cpp.c</text>
</a>
</g>
</g>
<!-- Node2&#45;&gt;Node10 -->
<g id="edge45" class="edge">
<title>Node2&#45;&gt;Node10</title>
<path fill="none" stroke="midnightblue" d="M578.53,-323.04C515.37,-317.25 417.06,-304.43 336,-277 286.11,-260.12 232.93,-228.23 204.27,-209.74"/>
<polygon fill="midnightblue" stroke="midnightblue" points="578.48,-326.54 588.75,-323.94 579.09,-319.57 578.48,-326.54"/>
</g>
<!-- Node11 -->
<g id="node11" class="node">
<title>Node11</title>
<g id="a_node11"><a xlink:href="stdio_8c.html" target="_top" xlink:title=" ">
<polygon fill="none" stroke="black" points="256,-179.5 256,-209.5 366,-209.5 366,-179.5 256,-179.5"/>
<text text-anchor="start" x="264" y="-197.5" font-family="Helvetica,sans-Serif" font-size="10.00">abstract&#45;machine/klib</text>
<text text-anchor="middle" x="311" y="-186.5" font-family="Helvetica,sans-Serif" font-size="10.00">/src/stdio.c</text>
</a>
</g>
</g>
<!-- Node2&#45;&gt;Node11 -->
<g id="edge47" class="edge">
<title>Node2&#45;&gt;Node11</title>
<path fill="none" stroke="midnightblue" d="M578.52,-320.83C509.89,-312.8 406.64,-297.75 373,-277 346.37,-260.57 327.05,-228.21 317.58,-209.59"/>
<polygon fill="midnightblue" stroke="midnightblue" points="578.47,-324.35 588.8,-322.01 579.27,-317.39 578.47,-324.35"/>
</g>
<!-- Node12 -->
<g id="node12" class="node">
<title>Node12</title>
<g id="a_node12"><a xlink:href="stdlib_8c.html" target="_top" xlink:title=" ">
<polygon fill="none" stroke="black" points="0,-179.5 0,-209.5 110,-209.5 110,-179.5 0,-179.5"/>
<text text-anchor="start" x="8" y="-197.5" font-family="Helvetica,sans-Serif" font-size="10.00">abstract&#45;machine/klib</text>
<text text-anchor="middle" x="55" y="-186.5" font-family="Helvetica,sans-Serif" font-size="10.00">/src/stdlib.c</text>
</a>
</g>
</g>
<!-- Node2&#45;&gt;Node12 -->
<g id="edge48" class="edge">
<title>Node2&#45;&gt;Node12</title>
<path fill="none" stroke="midnightblue" d="M578.32,-323.67C501.96,-318.06 371.62,-305.06 263,-277 197.1,-259.98 123.8,-227.99 84.22,-209.56"/>
<polygon fill="midnightblue" stroke="midnightblue" points="578.5,-327.19 588.72,-324.41 579,-320.21 578.5,-327.19"/>
</g>
<!-- Node2&#45;&gt;Node15 -->
<g id="edge56" class="edge">
<title>Node2&#45;&gt;Node15</title>
<path fill="none" stroke="midnightblue" d="M707.35,-318.8C732.79,-311.86 759.59,-299.39 775,-277 790.77,-254.08 771.88,-219.99 761.26,-204.16"/>
<polygon fill="midnightblue" stroke="midnightblue" points="706.19,-315.49 697.33,-321.29 707.87,-322.28 706.19,-315.49"/>
</g>
<!-- Node30 -->
<g id="node30" class="node">
<title>Node30</title>
<g id="a_node30"><a xlink:href="logger_8h.html" target="_top" xlink:title=" ">
<polygon fill="none" stroke="black" points="948,-246.5 948,-276.5 1058,-276.5 1058,-246.5 948,-246.5"/>
<text text-anchor="start" x="956" y="-264.5" font-family="Helvetica,sans-Serif" font-size="10.00">abstract&#45;machine/klib</text>
<text text-anchor="middle" x="1003" y="-253.5" font-family="Helvetica,sans-Serif" font-size="10.00">/include/logger.h</text>
</a>
</g>
</g>
<!-- Node2&#45;&gt;Node30 -->
<g id="edge37" class="edge">
<title>Node2&#45;&gt;Node30</title>
<path fill="none" stroke="midnightblue" d="M707.53,-315.85C776.07,-303.47 883.29,-284.11 947.98,-272.43"/>
<polygon fill="midnightblue" stroke="midnightblue" points="706.5,-312.48 697.29,-317.7 707.75,-319.37 706.5,-312.48"/>
</g>
<!-- Node33 -->
<g id="node33" class="node">
<title>Node33</title>
<g id="a_node33"><a xlink:href="int64_8c.html" target="_top" xlink:title=" ">
<polygon fill="none" stroke="black" points="656,-246.5 656,-276.5 766,-276.5 766,-246.5 656,-246.5"/>
<text text-anchor="start" x="664" y="-264.5" font-family="Helvetica,sans-Serif" font-size="10.00">abstract&#45;machine/klib</text>
<text text-anchor="middle" x="711" y="-253.5" font-family="Helvetica,sans-Serif" font-size="10.00">/src/int64.c</text>
</a>
</g>
</g>
<!-- Node2&#45;&gt;Node33 -->
<g id="edge46" class="edge">
<title>Node2&#45;&gt;Node33</title>
<path fill="none" stroke="midnightblue" d="M665.17,-306.31C675.37,-296.56 687.19,-285.26 696.27,-276.58"/>
<polygon fill="midnightblue" stroke="midnightblue" points="662.57,-303.96 657.75,-313.4 667.4,-309.02 662.57,-303.96"/>
</g>
<!-- Node34 -->
<g id="node34" class="node">
<title>Node34</title>
<g id="a_node34"><a xlink:href="kernel_8h.html" target="_top" xlink:title=" ">
<polygon fill="none" stroke="black" points="510,-252 510,-271 638,-271 638,-252 510,-252"/>
<text text-anchor="middle" x="574" y="-259" font-family="Helvetica,sans-Serif" font-size="10.00">kernel/framework/kernel.h</text>
</a>
</g>
</g>
<!-- Node2&#45;&gt;Node34 -->
<g id="edge49" class="edge">
<title>Node2&#45;&gt;Node34</title>
<path fill="none" stroke="midnightblue" d="M620.53,-306.34C607.86,-294.4 592.72,-280.14 583.23,-271.19"/>
<polygon fill="midnightblue" stroke="midnightblue" points="618.35,-309.09 628.03,-313.4 623.15,-303.99 618.35,-309.09"/>
</g>
<!-- Node4 -->
<g id="node4" class="node">
<title>Node4</title>
<g id="a_node4"><a xlink:href="cte_8c.html" target="_top" xlink:title=" ">
<polygon fill="none" stroke="black" points="1284,-179.5 1284,-209.5 1392,-209.5 1392,-179.5 1284,-179.5"/>
<text text-anchor="start" x="1292" y="-197.5" font-family="Helvetica,sans-Serif" font-size="10.00">abstract&#45;machine/am</text>
<text text-anchor="middle" x="1338" y="-186.5" font-family="Helvetica,sans-Serif" font-size="10.00">/src/x86/qemu/cte.c</text>
</a>
</g>
</g>
<!-- Node3&#45;&gt;Node4 -->
<g id="edge3" class="edge">
<title>Node3&#45;&gt;Node4</title>
<path fill="none" stroke="midnightblue" d="M1380.19,-239.02C1370.8,-229.34 1359.98,-218.17 1351.64,-209.58"/>
<polygon fill="midnightblue" stroke="midnightblue" points="1377.86,-241.65 1387.33,-246.4 1382.88,-236.78 1377.86,-241.65"/>
</g>
<!-- Node5 -->
<g id="node5" class="node">
<title>Node5</title>
<g id="a_node5"><a xlink:href="ioe_8c.html" target="_top" xlink:title=" ">
<polygon fill="none" stroke="black" points="954,-179.5 954,-209.5 1062,-209.5 1062,-179.5 954,-179.5"/>
<text text-anchor="start" x="962" y="-197.5" font-family="Helvetica,sans-Serif" font-size="10.00">abstract&#45;machine/am</text>
<text text-anchor="middle" x="1008" y="-186.5" font-family="Helvetica,sans-Serif" font-size="10.00">/src/x86/qemu/ioe.c</text>
</a>
</g>
</g>
<!-- Node3&#45;&gt;Node5 -->
<g id="edge4" class="edge">
<title>Node3&#45;&gt;Node5</title>
<path fill="none" stroke="midnightblue" d="M1325.09,-247.94C1247.98,-235.19 1130.49,-215.76 1062.27,-204.48"/>
<polygon fill="midnightblue" stroke="midnightblue" points="1324.78,-251.44 1335.22,-249.62 1325.93,-244.54 1324.78,-251.44"/>
</g>
<!-- Node6 -->
<g id="node6" class="node">
<title>Node6</title>
<g id="a_node6"><a xlink:href="mpe_8c.html" target="_top" xlink:title=" ">
<polygon fill="none" stroke="black" points="1410,-179.5 1410,-209.5 1518,-209.5 1518,-179.5 1410,-179.5"/>
<text text-anchor="start" x="1418" y="-197.5" font-family="Helvetica,sans-Serif" font-size="10.00">abstract&#45;machine/am</text>
<text text-anchor="middle" x="1464" y="-186.5" font-family="Helvetica,sans-Serif" font-size="10.00">/src/x86/qemu/mpe.c</text>
</a>
</g>
</g>
<!-- Node3&#45;&gt;Node6 -->
<g id="edge5" class="edge">
<title>Node3&#45;&gt;Node6</title>
<path fill="none" stroke="midnightblue" d="M1421.81,-239.02C1431.2,-229.34 1442.02,-218.17 1450.36,-209.58"/>
<polygon fill="midnightblue" stroke="midnightblue" points="1419.12,-236.78 1414.67,-246.4 1424.14,-241.65 1419.12,-236.78"/>
</g>
<!-- Node7 -->
<g id="node7" class="node">
<title>Node7</title>
<g id="a_node7"><a xlink:href="trm_8c.html" target="_top" xlink:title=" ">
<polygon fill="none" stroke="black" points="1536,-179.5 1536,-209.5 1644,-209.5 1644,-179.5 1536,-179.5"/>
<text text-anchor="start" x="1544" y="-197.5" font-family="Helvetica,sans-Serif" font-size="10.00">abstract&#45;machine/am</text>
<text text-anchor="middle" x="1590" y="-186.5" font-family="Helvetica,sans-Serif" font-size="10.00">/src/x86/qemu/trm.c</text>
</a>
</g>
</g>
<!-- Node3&#45;&gt;Node7 -->
<g id="edge6" class="edge">
<title>Node3&#45;&gt;Node7</title>
<path fill="none" stroke="midnightblue" d="M1451.62,-243.09C1482.13,-232.6 1520.48,-219.41 1549.07,-209.58"/>
<polygon fill="midnightblue" stroke="midnightblue" points="1450.33,-239.83 1442.01,-246.4 1452.6,-246.45 1450.33,-239.83"/>
</g>
<!-- Node8 -->
<g id="node8" class="node">
<title>Node8</title>
<g id="a_node8"><a xlink:href="vme_8c.html" target="_top" xlink:title=" ">
<polygon fill="none" stroke="black" points="1662,-179.5 1662,-209.5 1770,-209.5 1770,-179.5 1662,-179.5"/>
<text text-anchor="start" x="1670" y="-197.5" font-family="Helvetica,sans-Serif" font-size="10.00">abstract&#45;machine/am</text>
<text text-anchor="middle" x="1716" y="-186.5" font-family="Helvetica,sans-Serif" font-size="10.00">/src/x86/qemu/vme.c</text>
</a>
</g>
</g>
<!-- Node3&#45;&gt;Node8 -->
<g id="edge7" class="edge">
<title>Node3&#45;&gt;Node8</title>
<path fill="none" stroke="midnightblue" d="M1476.74,-245.91C1526.84,-236.11 1593.93,-222.71 1653,-210 1655.85,-209.39 1658.78,-208.75 1661.73,-208.09"/>
<polygon fill="midnightblue" stroke="midnightblue" points="1475.78,-242.53 1466.64,-247.88 1477.12,-249.4 1475.78,-242.53"/>
</g>
<!-- Node9&#45;&gt;Node5 -->
<g id="edge9" class="edge">
<title>Node9&#45;&gt;Node5</title>
<path fill="none" stroke="midnightblue" d="M502.13,-245.98C698.49,-216.84 752.6,-239.78 945,-210 947.88,-209.55 950.83,-209.05 953.8,-208.5"/>
<polygon fill="midnightblue" stroke="midnightblue" points="501.43,-242.55 492.06,-247.5 502.47,-249.47 501.43,-242.55"/>
</g>
<!-- Node9&#45;&gt;Node10 -->
<g id="edge10" class="edge">
<title>Node9&#45;&gt;Node10</title>
<path fill="none" stroke="midnightblue" d="M372.46,-243.98C330.97,-233.37 277.64,-219.72 238.14,-209.61"/>
<polygon fill="midnightblue" stroke="midnightblue" points="371.64,-247.39 382.2,-246.48 373.38,-240.61 371.64,-247.39"/>
</g>
<!-- Node9&#45;&gt;Node11 -->
<g id="edge11" class="edge">
<title>Node9&#45;&gt;Node11</title>
<path fill="none" stroke="midnightblue" d="M400.58,-241.71C380.71,-231.46 356.52,-218.98 338.29,-209.58"/>
<polygon fill="midnightblue" stroke="midnightblue" points="399.17,-244.92 409.66,-246.4 402.38,-238.7 399.17,-244.92"/>
</g>
<!-- Node9&#45;&gt;Node12 -->
<g id="edge12" class="edge">
<title>Node9&#45;&gt;Node12</title>
<path fill="none" stroke="midnightblue" d="M371.93,-251.44C307.5,-242.16 206.15,-226.77 119,-210 116.09,-209.44 113.11,-208.84 110.11,-208.23"/>
<polygon fill="midnightblue" stroke="midnightblue" points="371.55,-254.92 381.94,-252.87 372.54,-247.99 371.55,-254.92"/>
</g>
<!-- Node13 -->
<g id="node13" class="node">
<title>Node13</title>
<g id="a_node13"><a xlink:href="string_8c.html" target="_top" xlink:title=" ">
<polygon fill="none" stroke="black" points="384,-179.5 384,-209.5 494,-209.5 494,-179.5 384,-179.5"/>
<text text-anchor="start" x="392" y="-197.5" font-family="Helvetica,sans-Serif" font-size="10.00">abstract&#45;machine/klib</text>
<text text-anchor="middle" x="439" y="-186.5" font-family="Helvetica,sans-Serif" font-size="10.00">/src/string.c</text>
</a>
</g>
</g>
<!-- Node9&#45;&gt;Node13 -->
<g id="edge13" class="edge">
<title>Node9&#45;&gt;Node13</title>
<path fill="none" stroke="midnightblue" d="M437.75,-236.11C438.03,-227.15 438.33,-217.32 438.57,-209.58"/>
<polygon fill="midnightblue" stroke="midnightblue" points="434.24,-236.29 437.43,-246.4 441.24,-236.51 434.24,-236.29"/>
</g>
<!-- Node14 -->
<g id="node14" class="node">
<title>Node14</title>
<g id="a_node14"><a xlink:href="main_8c.html" target="_top" xlink:title=" ">
<polygon fill="none" stroke="black" points="512.5,-185 512.5,-204 635.5,-204 635.5,-185 512.5,-185"/>
<text text-anchor="middle" x="574" y="-192" font-family="Helvetica,sans-Serif" font-size="10.00">kernel/framework/main.c</text>
</a>
</g>
</g>
<!-- Node9&#45;&gt;Node14 -->
<g id="edge14" class="edge">
<title>Node9&#45;&gt;Node14</title>
<path fill="none" stroke="midnightblue" d="M476.06,-241.97C502.38,-229.48 535.86,-213.6 556.07,-204.01"/>
<polygon fill="midnightblue" stroke="midnightblue" points="474.26,-238.95 466.73,-246.4 477.26,-245.27 474.26,-238.95"/>
</g>
<!-- Node9&#45;&gt;Node15 -->
<g id="edge15" class="edge">
<title>Node9&#45;&gt;Node15</title>
<path fill="none" stroke="midnightblue" d="M502.22,-245.77C580.93,-229.12 661.21,-213.45 709.96,-204.08"/>
<polygon fill="midnightblue" stroke="midnightblue" points="501.19,-242.41 492.14,-247.91 502.65,-249.26 501.19,-242.41"/>
</g>
<!-- Node16 -->
<g id="node16" class="node">
<title>Node16</title>
<g id="a_node16"><a xlink:href="buddy_8h.html" target="_top" xlink:title=" ">
<polygon fill="none" stroke="black" points="910.5,-123.5 910.5,-142.5 1023.5,-142.5 1023.5,-123.5 910.5,-123.5"/>
<text text-anchor="middle" x="967" y="-130.5" font-family="Helvetica,sans-Serif" font-size="10.00">kernel/include/buddy.h</text>
</a>
</g>
</g>
<!-- Node15&#45;&gt;Node16 -->
<g id="edge16" class="edge">
<title>Node15&#45;&gt;Node16</title>
<path fill="none" stroke="midnightblue" d="M795.09,-182.25C836.27,-170.69 899.48,-152.95 936.68,-142.51"/>
<polygon fill="midnightblue" stroke="midnightblue" points="794.06,-178.9 785.37,-184.98 795.95,-185.64 794.06,-178.9"/>
</g>
<!-- Node17 -->
<g id="node17" class="node">
<title>Node17</title>
<g id="a_node17"><a xlink:href="buddy_8c.html" target="_top" xlink:title="impl of buddy system">
<polygon fill="none" stroke="black" points="915.5,-67.5 915.5,-86.5 1010.5,-86.5 1010.5,-67.5 915.5,-67.5"/>
<text text-anchor="middle" x="963" y="-74.5" font-family="Helvetica,sans-Serif" font-size="10.00">kernel/src/buddy.c</text>
</a>
</g>
</g>
<!-- Node15&#45;&gt;Node17 -->
<g id="edge33" class="edge">
<title>Node15&#45;&gt;Node17</title>
<path fill="none" stroke="midnightblue" d="M779.65,-179.81C822.99,-155.75 911.64,-106.52 947.47,-86.62"/>
<polygon fill="midnightblue" stroke="midnightblue" points="777.68,-176.9 770.63,-184.82 781.08,-183.02 777.68,-176.9"/>
</g>
<!-- Node18 -->
<g id="node18" class="node">
<title>Node18</title>
<g id="a_node18"><a xlink:href="pmm_8c.html" target="_top" xlink:title=" ">
<polygon fill="none" stroke="black" points="1029,-67.5 1029,-86.5 1121,-86.5 1121,-67.5 1029,-67.5"/>
<text text-anchor="middle" x="1075" y="-74.5" font-family="Helvetica,sans-Serif" font-size="10.00">kernel/src/pmm.c</text>
</a>
</g>
</g>
<!-- Node15&#45;&gt;Node18 -->
<g id="edge36" class="edge">
<title>Node15&#45;&gt;Node18</title>
<path fill="none" stroke="midnightblue" d="M806.46,-182.97C813.36,-181.61 820.35,-180.25 827,-179 918.34,-161.82 955.52,-194.33 1033,-143 1053.83,-129.2 1066.56,-101.14 1071.97,-86.83"/>
<polygon fill="midnightblue" stroke="midnightblue" points="805.59,-179.57 796.46,-184.96 806.96,-186.44 805.59,-179.57"/>
</g>
<!-- Node19 -->
<g id="node19" class="node">
<title>Node19</title>
<g id="a_node19"><a xlink:href="devices_8h.html" target="_top" xlink:title=" ">
<polygon fill="none" stroke="black" points="441.5,-67.5 441.5,-86.5 562.5,-86.5 562.5,-67.5 441.5,-67.5"/>
<text text-anchor="middle" x="502" y="-74.5" font-family="Helvetica,sans-Serif" font-size="10.00">kernel/include/devices.h</text>
</a>
</g>
</g>
<!-- Node15&#45;&gt;Node19 -->
<g id="edge19" class="edge">
<title>Node15&#45;&gt;Node19</title>
<path fill="none" stroke="midnightblue" d="M697.49,-183.18C627.98,-170.45 519.45,-149.7 513,-143 498.4,-127.83 499.1,-100.89 500.66,-86.93"/>
<polygon fill="midnightblue" stroke="midnightblue" points="696.98,-186.64 707.44,-184.99 698.23,-179.75 696.98,-186.64"/>
</g>
<!-- Node25 -->
<g id="node25" class="node">
<title>Node25</title>
<g id="a_node25"><a xlink:href="spinlock_8h.html" target="_top" xlink:title=" ">
<polygon fill="none" stroke="black" points="692.5,-123.5 692.5,-142.5 815.5,-142.5 815.5,-123.5 692.5,-123.5"/>
<text text-anchor="middle" x="754" y="-130.5" font-family="Helvetica,sans-Serif" font-size="10.00">kernel/include/spinlock.h</text>
</a>
</g>
</g>
<!-- Node15&#45;&gt;Node25 -->
<g id="edge25" class="edge">
<title>Node15&#45;&gt;Node25</title>
<path fill="none" stroke="midnightblue" d="M754.69,-174.82C754.5,-164 754.28,-150.9 754.14,-142.51"/>
<polygon fill="midnightblue" stroke="midnightblue" points="751.19,-175.04 754.86,-184.98 758.19,-174.92 751.19,-175.04"/>
</g>
<!-- Node26 -->
<g id="node26" class="node">
<title>Node26</title>
<g id="a_node26"><a xlink:href="kmt_8c.html" target="_top" xlink:title=" ">
<polygon fill="none" stroke="black" points="581,-67.5 581,-86.5 667,-86.5 667,-67.5 581,-67.5"/>
<text text-anchor="middle" x="624" y="-74.5" font-family="Helvetica,sans-Serif" font-size="10.00">kernel/src/kmt.c</text>
</a>
</g>
</g>
<!-- Node15&#45;&gt;Node26 -->
<g id="edge34" class="edge">
<title>Node15&#45;&gt;Node26</title>
<path fill="none" stroke="midnightblue" d="M732.53,-179.26C718.1,-169.71 699.27,-156.45 684,-143 663.02,-124.53 641.55,-99.47 630.88,-86.52"/>
<polygon fill="midnightblue" stroke="midnightblue" points="731.01,-182.45 741.3,-184.97 734.83,-176.58 731.01,-182.45"/>
</g>
<!-- Node27 -->
<g id="node27" class="node">
<title>Node27</title>
<g id="a_node27"><a xlink:href="os_8c.html" target="_top" xlink:title=" ">
<polygon fill="none" stroke="black" points="809,-67.5 809,-86.5 889,-86.5 889,-67.5 809,-67.5"/>
<text text-anchor="middle" x="849" y="-74.5" font-family="Helvetica,sans-Serif" font-size="10.00">kernel/src/os.c</text>
</a>
</g>
</g>
<!-- Node15&#45;&gt;Node27 -->
<g id="edge35" class="edge">
<title>Node15&#45;&gt;Node27</title>
<path fill="none" stroke="midnightblue" d="M781.31,-179.7C795.9,-170.89 813.4,-158.27 825,-143 838.25,-125.57 844.79,-100.07 847.46,-86.78"/>
<polygon fill="midnightblue" stroke="midnightblue" points="779.15,-176.9 772.22,-184.92 782.64,-182.97 779.15,-176.9"/>
</g>
<!-- Node29 -->
<g id="node29" class="node">
<title>Node29</title>
<g id="a_node29"><a xlink:href="thread_8h.html" target="_top" xlink:title=" ">
<polygon fill="none" stroke="black" points="522,-123.5 522,-142.5 636,-142.5 636,-123.5 522,-123.5"/>
<text text-anchor="middle" x="579" y="-130.5" font-family="Helvetica,sans-Serif" font-size="10.00">kernel/include/thread.h</text>
</a>
</g>
</g>
<!-- Node15&#45;&gt;Node29 -->
<g id="edge30" class="edge">
<title>Node15&#45;&gt;Node29</title>
<path fill="none" stroke="midnightblue" d="M720.19,-181.73C685.98,-170.17 634.6,-152.8 604.17,-142.51"/>
<polygon fill="midnightblue" stroke="midnightblue" points="719.19,-185.09 729.78,-184.98 721.43,-178.46 719.19,-185.09"/>
</g>
<!-- Node16&#45;&gt;Node17 -->
<g id="edge17" class="edge">
<title>Node16&#45;&gt;Node17</title>
<path fill="none" stroke="midnightblue" d="M965.6,-113.1C964.94,-104.14 964.17,-93.86 963.65,-86.75"/>
<polygon fill="midnightblue" stroke="midnightblue" points="962.11,-113.37 966.34,-123.08 969.09,-112.85 962.11,-113.37"/>
</g>
<!-- Node16&#45;&gt;Node18 -->
<g id="edge18" class="edge">
<title>Node16&#45;&gt;Node18</title>
<path fill="none" stroke="midnightblue" d="M993.55,-118.73C1013.55,-108.73 1040.39,-95.31 1057.69,-86.65"/>
<polygon fill="midnightblue" stroke="midnightblue" points="991.73,-115.72 984.35,-123.32 994.86,-121.98 991.73,-115.72"/>
</g>
<!-- Node20 -->
<g id="node20" class="node">
<title>Node20</title>
<g id="a_node20"><a xlink:href="dev_8c.html" target="_top" xlink:title=" ">
<polygon fill="none" stroke="black" points="205,-6 205,-25 309,-25 309,-6 205,-6"/>
<text text-anchor="middle" x="257" y="-13" font-family="Helvetica,sans-Serif" font-size="10.00">kernel/src/dev/dev.c</text>
</a>
</g>
</g>
<!-- Node19&#45;&gt;Node20 -->
<g id="edge20" class="edge">
<title>Node19&#45;&gt;Node20</title>
<path fill="none" stroke="midnightblue" d="M457.17,-65.11C409.62,-53.57 335.49,-35.56 292.04,-25.01"/>
<polygon fill="midnightblue" stroke="midnightblue" points="456.35,-68.52 466.9,-67.48 458.01,-61.71 456.35,-68.52"/>
</g>
<!-- Node21 -->
<g id="node21" class="node">
<title>Node21</title>
<g id="a_node21"><a xlink:href="dev__input_8c.html" target="_top" xlink:title=" ">
<polygon fill="none" stroke="black" points="327.5,-0.5 327.5,-30.5 424.5,-30.5 424.5,-0.5 327.5,-0.5"/>
<text text-anchor="start" x="335.5" y="-18.5" font-family="Helvetica,sans-Serif" font-size="10.00">kernel/src/dev/dev</text>
<text text-anchor="middle" x="376" y="-7.5" font-family="Helvetica,sans-Serif" font-size="10.00">_input.c</text>
</a>
</g>
</g>
<!-- Node19&#45;&gt;Node21 -->
<g id="edge21" class="edge">
<title>Node19&#45;&gt;Node21</title>
<path fill="none" stroke="midnightblue" d="M474.89,-63.2C454.53,-53.58 426.66,-40.42 405.7,-30.52"/>
<polygon fill="midnightblue" stroke="midnightblue" points="473.41,-66.37 483.95,-67.48 476.4,-60.04 473.41,-66.37"/>
</g>
<!-- Node22 -->
<g id="node22" class="node">
<title>Node22</title>
<g id="a_node22"><a xlink:href="dev__sd_8c.html" target="_top" xlink:title=" ">
<polygon fill="none" stroke="black" points="442,-6 442,-25 562,-25 562,-6 442,-6"/>
<text text-anchor="middle" x="502" y="-13" font-family="Helvetica,sans-Serif" font-size="10.00">kernel/src/dev/dev_sd.c</text>
</a>
</g>
</g>
<!-- Node19&#45;&gt;Node22 -->
<g id="edge22" class="edge">
<title>Node19&#45;&gt;Node22</title>
<path fill="none" stroke="midnightblue" d="M502,-57.32C502,-46.5 502,-33.4 502,-25.01"/>
<polygon fill="midnightblue" stroke="midnightblue" points="498.5,-57.48 502,-67.48 505.5,-57.48 498.5,-57.48"/>
</g>
<!-- Node23 -->
<g id="node23" class="node">
<title>Node23</title>
<g id="a_node23"><a xlink:href="dev__tty_8c.html" target="_top" xlink:title=" ">
<polygon fill="none" stroke="black" points="579.5,-0.5 579.5,-30.5 676.5,-30.5 676.5,-0.5 579.5,-0.5"/>
<text text-anchor="start" x="587.5" y="-18.5" font-family="Helvetica,sans-Serif" font-size="10.00">kernel/src/dev/dev</text>
<text text-anchor="middle" x="628" y="-7.5" font-family="Helvetica,sans-Serif" font-size="10.00">_tty.c</text>
</a>
</g>
</g>
<!-- Node19&#45;&gt;Node23 -->
<g id="edge23" class="edge">
<title>Node19&#45;&gt;Node23</title>
<path fill="none" stroke="midnightblue" d="M529.11,-63.2C549.47,-53.58 577.34,-40.42 598.3,-30.52"/>
<polygon fill="midnightblue" stroke="midnightblue" points="527.6,-60.04 520.05,-67.48 530.59,-66.37 527.6,-60.04"/>
</g>
<!-- Node24 -->
<g id="node24" class="node">
<title>Node24</title>
<g id="a_node24"><a xlink:href="dev__video_8c.html" target="_top" xlink:title=" ">
<polygon fill="none" stroke="black" points="694.5,-0.5 694.5,-30.5 791.5,-30.5 791.5,-0.5 694.5,-0.5"/>
<text text-anchor="start" x="702.5" y="-18.5" font-family="Helvetica,sans-Serif" font-size="10.00">kernel/src/dev/dev</text>
<text text-anchor="middle" x="743" y="-7.5" font-family="Helvetica,sans-Serif" font-size="10.00">_video.c</text>
</a>
</g>
</g>
<!-- Node19&#45;&gt;Node24 -->
<g id="edge24" class="edge">
<title>Node19&#45;&gt;Node24</title>
<path fill="none" stroke="midnightblue" d="M547.34,-65.04C584.6,-55.99 638.75,-42.79 686,-31 688.77,-30.31 691.62,-29.59 694.5,-28.87"/>
<polygon fill="midnightblue" stroke="midnightblue" points="546.19,-61.71 537.3,-67.47 547.84,-68.51 546.19,-61.71"/>
</g>
<!-- Node25&#45;&gt;Node19 -->
<g id="edge26" class="edge">
<title>Node25&#45;&gt;Node19</title>
<path fill="none" stroke="midnightblue" d="M704.28,-121.35C656.66,-111.14 585.72,-95.94 541.74,-86.52"/>
<polygon fill="midnightblue" stroke="midnightblue" points="703.56,-124.77 714.07,-123.44 705.03,-117.93 703.56,-124.77"/>
</g>
<!-- Node25&#45;&gt;Node26 -->
<g id="edge27" class="edge">
<title>Node25&#45;&gt;Node26</title>
<path fill="none" stroke="midnightblue" d="M723.91,-119.5C699.54,-109.38 665.86,-95.39 644.5,-86.52"/>
<polygon fill="midnightblue" stroke="midnightblue" points="722.82,-122.84 733.4,-123.44 725.51,-116.38 722.82,-122.84"/>
</g>
<!-- Node25&#45;&gt;Node27 -->
<g id="edge28" class="edge">
<title>Node25&#45;&gt;Node27</title>
<path fill="none" stroke="midnightblue" d="M778.32,-118.18C795.8,-108.24 818.83,-95.15 833.77,-86.65"/>
<polygon fill="midnightblue" stroke="midnightblue" points="776.23,-115.34 769.26,-123.32 779.69,-121.43 776.23,-115.34"/>
</g>
<!-- Node28 -->
<g id="node28" class="node">
<title>Node28</title>
<g id="a_node28"><a xlink:href="spinlock_8c.html" target="_top" xlink:title=" ">
<polygon fill="none" stroke="black" points="685,-67.5 685,-86.5 791,-86.5 791,-67.5 685,-67.5"/>
<text text-anchor="middle" x="738" y="-74.5" font-family="Helvetica,sans-Serif" font-size="10.00">kernel/src/spinlock.c</text>
</a>
</g>
</g>
<!-- Node25&#45;&gt;Node28 -->
<g id="edge29" class="edge">
<title>Node25&#45;&gt;Node28</title>
<path fill="none" stroke="midnightblue" d="M748.49,-113.4C745.81,-104.36 742.72,-93.94 740.59,-86.75"/>
<polygon fill="midnightblue" stroke="midnightblue" points="745.16,-114.49 751.36,-123.08 751.87,-112.5 745.16,-114.49"/>
</g>
<!-- Node29&#45;&gt;Node19 -->
<g id="edge31" class="edge">
<title>Node29&#45;&gt;Node19</title>
<path fill="none" stroke="midnightblue" d="M558.1,-117.34C544.09,-107.52 526.12,-94.91 514.34,-86.65"/>
<polygon fill="midnightblue" stroke="midnightblue" points="556.43,-120.45 566.63,-123.32 560.45,-114.72 556.43,-120.45"/>
</g>
<!-- Node29&#45;&gt;Node26 -->
<g id="edge32" class="edge">
<title>Node29&#45;&gt;Node26</title>
<path fill="none" stroke="midnightblue" d="M593.05,-115.14C600.89,-105.74 610.33,-94.4 616.71,-86.75"/>
<polygon fill="midnightblue" stroke="midnightblue" points="590.14,-113.16 586.43,-123.08 595.52,-117.64 590.14,-113.16"/>
</g>
<!-- Node30&#45;&gt;Node15 -->
<g id="edge39" class="edge">
<title>Node30&#45;&gt;Node15</title>
<path fill="none" stroke="midnightblue" d="M939.7,-243.91C891.13,-231.18 826.07,-214.13 787.54,-204.03"/>
<polygon fill="midnightblue" stroke="midnightblue" points="938.93,-247.33 949.49,-246.48 940.71,-240.55 938.93,-247.33"/>
</g>
<!-- Node30&#45;&gt;Node17 -->
<g id="edge43" class="edge">
<title>Node30&#45;&gt;Node17</title>
<path fill="none" stroke="midnightblue" d="M1041.9,-240.86C1053.41,-232.96 1064.63,-222.67 1071,-210 1077.19,-197.69 1075.05,-192.17 1071,-179 1062.17,-150.25 1054.53,-144 1033,-123 1017.28,-107.67 995.55,-94.68 980.49,-86.65"/>
<polygon fill="midnightblue" stroke="midnightblue" points="1039.68,-238.13 1033.12,-246.44 1043.43,-244.03 1039.68,-238.13"/>
</g>
<!-- Node30&#45;&gt;Node18 -->
<g id="edge44" class="edge">
<title>Node30&#45;&gt;Node18</title>
<path fill="none" stroke="midnightblue" d="M1051.88,-241.71C1065.34,-234.01 1078.34,-223.63 1086,-210 1109.1,-168.91 1088.15,-108.98 1078.89,-86.74"/>
<polygon fill="midnightblue" stroke="midnightblue" points="1050.23,-238.62 1043.02,-246.38 1053.5,-244.81 1050.23,-238.62"/>
</g>
<!-- Node31 -->
<g id="node31" class="node">
<title>Node31</title>
<g id="a_node31"><a xlink:href="logger_8c.html" target="_top" xlink:title=" ">
<polygon fill="none" stroke="black" points="1156,-179.5 1156,-209.5 1266,-209.5 1266,-179.5 1156,-179.5"/>
<text text-anchor="start" x="1164" y="-197.5" font-family="Helvetica,sans-Serif" font-size="10.00">abstract&#45;machine/klib</text>
<text text-anchor="middle" x="1211" y="-186.5" font-family="Helvetica,sans-Serif" font-size="10.00">/src/logger.c</text>
</a>
</g>
</g>
<!-- Node30&#45;&gt;Node31 -->
<g id="edge38" class="edge">
<title>Node30&#45;&gt;Node31</title>
<path fill="none" stroke="midnightblue" d="M1057.58,-243.44C1091.3,-232.91 1134.04,-219.55 1165.85,-209.61"/>
<polygon fill="midnightblue" stroke="midnightblue" points="1056.38,-240.15 1047.88,-246.48 1058.47,-246.83 1056.38,-240.15"/>
</g>
<!-- Node32 -->
<g id="node32" class="node">
<title>Node32</title>
<g id="a_node32"><a xlink:href="list_8h.html" target="_top" xlink:title="double circular linked list impl without concurrency">
<polygon fill="none" stroke="black" points="836,-185 836,-204 936,-204 936,-185 836,-185"/>
<text text-anchor="middle" x="886" y="-192" font-family="Helvetica,sans-Serif" font-size="10.00">kernel/include/list.h</text>
</a>
</g>
</g>
<!-- Node30&#45;&gt;Node32 -->
<g id="edge40" class="edge">
<title>Node30&#45;&gt;Node32</title>
<path fill="none" stroke="midnightblue" d="M968.75,-241.47C946.42,-229.06 918.35,-213.47 901.31,-204.01"/>
<polygon fill="midnightblue" stroke="midnightblue" points="967.17,-244.6 977.61,-246.4 970.57,-238.48 967.17,-244.6"/>
</g>
<!-- Node32&#45;&gt;Node16 -->
<g id="edge41" class="edge">
<title>Node32&#45;&gt;Node16</title>
<path fill="none" stroke="midnightblue" d="M906.02,-178.79C921.56,-167.38 942.55,-151.96 955.42,-142.51"/>
<polygon fill="midnightblue" stroke="midnightblue" points="903.59,-176.23 897.61,-184.98 907.74,-181.88 903.59,-176.23"/>
</g>
<!-- Node32&#45;&gt;Node29 -->
<g id="edge42" class="edge">
<title>Node32&#45;&gt;Node29</title>
<path fill="none" stroke="midnightblue" d="M842.69,-182.53C837.41,-181.29 832.09,-180.09 827,-179 759.81,-164.66 681.76,-150.99 631.44,-142.55"/>
<polygon fill="midnightblue" stroke="midnightblue" points="842.16,-186 852.7,-184.94 843.79,-179.2 842.16,-186"/>
</g>
<!-- Node34&#45;&gt;Node14 -->
<g id="edge50" class="edge">
<title>Node34&#45;&gt;Node14</title>
<path fill="none" stroke="midnightblue" d="M574,-241.54C574,-229.17 574,-213.62 574,-204.13"/>
<polygon fill="midnightblue" stroke="midnightblue" points="570.5,-241.73 574,-251.73 577.5,-241.73 570.5,-241.73"/>
</g>
<!-- Node34&#45;&gt;Node15 -->
<g id="edge51" class="edge">
<title>Node34&#45;&gt;Node15</title>
<path fill="none" stroke="midnightblue" d="M607.59,-248.44C643.5,-235.54 699.52,-215.42 731.15,-204.06"/>
<polygon fill="midnightblue" stroke="midnightblue" points="606.26,-245.19 598.04,-251.87 608.63,-251.78 606.26,-245.19"/>
</g>
<!-- Node35 -->
<g id="node35" class="node">
<title>Node35</title>
<g id="a_node35"><a xlink:href="sem_8h.html" target="_top" xlink:title=" ">
<polygon fill="none" stroke="black" points="360,-123.5 360,-142.5 466,-142.5 466,-123.5 360,-123.5"/>
<text text-anchor="middle" x="413" y="-130.5" font-family="Helvetica,sans-Serif" font-size="10.00">kernel/include/sem.h</text>
</a>
</g>
</g>
<!-- Node34&#45;&gt;Node35 -->
<g id="edge52" class="edge">
<title>Node34&#45;&gt;Node35</title>
<path fill="none" stroke="midnightblue" d="M600.51,-246.85C628.21,-230.82 665.06,-203.32 645,-179 639.28,-172.07 532.67,-153.54 465.98,-142.54"/>
<polygon fill="midnightblue" stroke="midnightblue" points="598.6,-243.91 591.56,-251.83 602,-250.03 598.6,-243.91"/>
</g>
<!-- Node35&#45;&gt;Node19 -->
<g id="edge53" class="edge">
<title>Node35&#45;&gt;Node19</title>
<path fill="none" stroke="midnightblue" d="M436.24,-117.9C452.56,-108 473.87,-95.07 487.74,-86.65"/>
<polygon fill="midnightblue" stroke="midnightblue" points="434.03,-115.14 427.3,-123.32 437.66,-121.13 434.03,-115.14"/>
</g>
<!-- Node35&#45;&gt;Node26 -->
<g id="edge54" class="edge">
<title>Node35&#45;&gt;Node26</title>
<path fill="none" stroke="midnightblue" d="M456.14,-120.96C495.99,-110.76 554.36,-95.82 590.72,-86.52"/>
<polygon fill="midnightblue" stroke="midnightblue" points="455.25,-117.57 446.43,-123.44 456.99,-124.35 455.25,-117.57"/>
</g>
<!-- Node36 -->
<g id="node36" class="node">
<title>Node36</title>
<g id="a_node36"><a xlink:href="sem_8c.html" target="_top" xlink:title=" ">
<polygon fill="none" stroke="black" points="334.5,-67.5 334.5,-86.5 423.5,-86.5 423.5,-67.5 334.5,-67.5"/>
<text text-anchor="middle" x="379" y="-74.5" font-family="Helvetica,sans-Serif" font-size="10.00">kernel/src/sem.c</text>
</a>
</g>
</g>
<!-- Node35&#45;&gt;Node36 -->
<g id="edge55" class="edge">
<title>Node35&#45;&gt;Node36</title>
<path fill="none" stroke="midnightblue" d="M402.02,-114.57C396.17,-105.27 389.23,-94.25 384.51,-86.75"/>
<polygon fill="midnightblue" stroke="midnightblue" points="399.1,-116.49 407.39,-123.08 405.02,-112.76 399.1,-116.49"/>
</g>
</g>
</svg>
