<?xml version="1.0" encoding="UTF-8" standalone="no"?>
<!DOCTYPE svg PUBLIC "-//W3C//DTD SVG 1.1//EN"
 "http://www.w3.org/Graphics/SVG/1.1/DTD/svg11.dtd">
<!-- Generated by graphviz version 2.50.0 (20220203.2022)
 -->
<!-- Title: abstract&#45;machine/am/include/amdev.h Pages: 1 -->
<svg width="1545pt" height="296pt"
 viewBox="0.00 0.00 1545.00 296.00" xmlns="http://www.w3.org/2000/svg" xmlns:xlink="http://www.w3.org/1999/xlink">
<g id="graph0" class="graph" transform="scale(1 1) rotate(0) translate(4 292)">
<title>abstract&#45;machine/am/include/amdev.h</title>
<!-- Node1 -->
<g id="node1" class="node">
<title>Node1</title>
<g id="a_node1"><a xlink:title=" ">
<polygon fill="#bfbfbf" stroke="black" points="627,-257.5 627,-287.5 735,-287.5 735,-257.5 627,-257.5"/>
<text text-anchor="start" x="635" y="-275.5" font-family="Helvetica,sans-Serif" font-size="10.00">abstract&#45;machine/am</text>
<text text-anchor="middle" x="681" y="-264.5" font-family="Helvetica,sans-Serif" font-size="10.00">/include/amdev.h</text>
</a>
</g>
</g>
<!-- Node2 -->
<g id="node2" class="node">
<title>Node2</title>
<g id="a_node2"><a xlink:href="am_8h.html" target="_top" xlink:title=" ">
<polygon fill="none" stroke="black" points="627,-190.5 627,-220.5 735,-220.5 735,-190.5 627,-190.5"/>
<text text-anchor="start" x="635" y="-208.5" font-family="Helvetica,sans-Serif" font-size="10.00">abstract&#45;machine/am</text>
<text text-anchor="middle" x="681" y="-197.5" font-family="Helvetica,sans-Serif" font-size="10.00">/include/am.h</text>
</a>
</g>
</g>
<!-- Node1&#45;&gt;Node2 -->
<g id="edge1" class="edge">
<title>Node1&#45;&gt;Node2</title>
<path fill="none" stroke="midnightblue" d="M681,-247.11C681,-238.15 681,-228.32 681,-220.58"/>
<polygon fill="midnightblue" stroke="midnightblue" points="677.5,-247.4 681,-257.4 684.5,-247.4 677.5,-247.4"/>
</g>
<!-- Node3 -->
<g id="node3" class="node">
<title>Node3</title>
<g id="a_node3"><a xlink:href="x86-qemu_8h.html" target="_top" xlink:title=" ">
<polygon fill="none" stroke="black" points="911.5,-123.5 911.5,-153.5 1042.5,-153.5 1042.5,-123.5 911.5,-123.5"/>
<text text-anchor="start" x="919.5" y="-141.5" font-family="Helvetica,sans-Serif" font-size="10.00">abstract&#45;machine/am</text>
<text text-anchor="middle" x="977" y="-130.5" font-family="Helvetica,sans-Serif" font-size="10.00">/src/x86/qemu/x86&#45;qemu.h</text>
</a>
</g>
</g>
<!-- Node2&#45;&gt;Node3 -->
<g id="edge2" class="edge">
<title>Node2&#45;&gt;Node3</title>
<path fill="none" stroke="midnightblue" d="M745.28,-190.38C794.96,-179.47 863.41,-164.44 913.01,-153.55"/>
<polygon fill="midnightblue" stroke="midnightblue" points="744.31,-187.01 735.29,-192.58 745.81,-193.85 744.31,-187.01"/>
</g>
<!-- Node9 -->
<g id="node9" class="node">
<title>Node9</title>
<g id="a_node9"><a xlink:href="klib_8h.html" target="_top" xlink:title=" ">
<polygon fill="none" stroke="black" points="419,-123.5 419,-153.5 529,-153.5 529,-123.5 419,-123.5"/>
<text text-anchor="start" x="427" y="-141.5" font-family="Helvetica,sans-Serif" font-size="10.00">abstract&#45;machine/klib</text>
<text text-anchor="middle" x="474" y="-130.5" font-family="Helvetica,sans-Serif" font-size="10.00">/include/klib.h</text>
</a>
</g>
</g>
<!-- Node2&#45;&gt;Node9 -->
<g id="edge8" class="edge">
<title>Node2&#45;&gt;Node9</title>
<path fill="none" stroke="midnightblue" d="M626.68,-187.44C593.13,-176.91 550.59,-163.55 518.94,-153.61"/>
<polygon fill="midnightblue" stroke="midnightblue" points="625.75,-190.82 636.34,-190.48 627.85,-184.14 625.75,-190.82"/>
</g>
<!-- Node10 -->
<g id="node10" class="node">
<title>Node10</title>
<g id="a_node10"><a xlink:href="cpp_8c.html" target="_top" xlink:title=" ">
<polygon fill="none" stroke="black" points="0,-56.5 0,-86.5 110,-86.5 110,-56.5 0,-56.5"/>
<text text-anchor="start" x="8" y="-74.5" font-family="Helvetica,sans-Serif" font-size="10.00">abstract&#45;machine/klib</text>
<text text-anchor="middle" x="55" y="-63.5" font-family="Helvetica,sans-Serif" font-size="10.00">/src/cpp.c</text>
</a>
</g>
</g>
<!-- Node2&#45;&gt;Node10 -->
<g id="edge20" class="edge">
<title>Node2&#45;&gt;Node10</title>
<path fill="none" stroke="midnightblue" d="M616.59,-199.05C542.48,-192.01 417.43,-177.75 312,-154 232.32,-136.05 141.85,-104.7 92.33,-86.56"/>
<polygon fill="midnightblue" stroke="midnightblue" points="616.42,-202.55 626.71,-200 617.08,-195.58 616.42,-202.55"/>
</g>
<!-- Node12 -->
<g id="node12" class="node">
<title>Node12</title>
<g id="a_node12"><a xlink:href="stdlib_8c.html" target="_top" xlink:title=" ">
<polygon fill="none" stroke="black" points="128,-56.5 128,-86.5 238,-86.5 238,-56.5 128,-56.5"/>
<text text-anchor="start" x="136" y="-74.5" font-family="Helvetica,sans-Serif" font-size="10.00">abstract&#45;machine/klib</text>
<text text-anchor="middle" x="183" y="-63.5" font-family="Helvetica,sans-Serif" font-size="10.00">/src/stdlib.c</text>
</a>
</g>
</g>
<!-- Node2&#45;&gt;Node12 -->
<g id="edge22" class="edge">
<title>Node2&#45;&gt;Node12</title>
<path fill="none" stroke="midnightblue" d="M616.94,-195.53C561.61,-187.08 479.8,-172.9 410,-154 339.88,-135.01 260.54,-104.33 216.68,-86.52"/>
<polygon fill="midnightblue" stroke="midnightblue" points="616.54,-199.01 626.95,-197.04 617.59,-192.09 616.54,-199.01"/>
</g>
<!-- Node18 -->
<g id="node18" class="node">
<title>Node18</title>
<g id="a_node18"><a xlink:href="logger_8h.html" target="_top" xlink:title=" ">
<polygon fill="none" stroke="black" points="1061,-123.5 1061,-153.5 1171,-153.5 1171,-123.5 1061,-123.5"/>
<text text-anchor="start" x="1069" y="-141.5" font-family="Helvetica,sans-Serif" font-size="10.00">abstract&#45;machine/klib</text>
<text text-anchor="middle" x="1116" y="-130.5" font-family="Helvetica,sans-Serif" font-size="10.00">/include/logger.h</text>
</a>
</g>
</g>
<!-- Node2&#45;&gt;Node18 -->
<g id="edge18" class="edge">
<title>Node2&#45;&gt;Node18</title>
<path fill="none" stroke="midnightblue" d="M745.24,-197.39C819.24,-188.81 944.34,-173.14 1051,-154 1054.19,-153.43 1057.45,-152.81 1060.75,-152.16"/>
<polygon fill="midnightblue" stroke="midnightblue" points="744.68,-193.93 735.15,-198.55 745.48,-200.88 744.68,-193.93"/>
</g>
<!-- Node20 -->
<g id="node20" class="node">
<title>Node20</title>
<g id="a_node20"><a xlink:href="int64_8c.html" target="_top" xlink:title=" ">
<polygon fill="none" stroke="black" points="1189,-123.5 1189,-153.5 1299,-153.5 1299,-123.5 1189,-123.5"/>
<text text-anchor="start" x="1197" y="-141.5" font-family="Helvetica,sans-Serif" font-size="10.00">abstract&#45;machine/klib</text>
<text text-anchor="middle" x="1244" y="-130.5" font-family="Helvetica,sans-Serif" font-size="10.00">/src/int64.c</text>
</a>
</g>
</g>
<!-- Node2&#45;&gt;Node20 -->
<g id="edge21" class="edge">
<title>Node2&#45;&gt;Node20</title>
<path fill="none" stroke="midnightblue" d="M745.25,-200.51C840.59,-194.03 1024.95,-179.31 1180,-154 1182.92,-153.52 1185.91,-152.99 1188.93,-152.43"/>
<polygon fill="midnightblue" stroke="midnightblue" points="744.93,-197.03 735.19,-201.19 745.4,-204.01 744.93,-197.03"/>
</g>
<!-- Node21 -->
<g id="node21" class="node">
<title>Node21</title>
<g id="a_node21"><a xlink:href="kernel_8h.html" target="_top" xlink:title=" ">
<polygon fill="none" stroke="black" points="617,-129 617,-148 745,-148 745,-129 617,-129"/>
<text text-anchor="middle" x="681" y="-136" font-family="Helvetica,sans-Serif" font-size="10.00">kernel/framework/kernel.h</text>
</a>
</g>
</g>
<!-- Node2&#45;&gt;Node21 -->
<g id="edge23" class="edge">
<title>Node2&#45;&gt;Node21</title>
<path fill="none" stroke="midnightblue" d="M681,-180.25C681,-169.02 681,-156.38 681,-148.19"/>
<polygon fill="midnightblue" stroke="midnightblue" points="677.5,-180.4 681,-190.4 684.5,-180.4 677.5,-180.4"/>
</g>
<!-- Node4 -->
<g id="node4" class="node">
<title>Node4</title>
<g id="a_node4"><a xlink:href="cte_8c.html" target="_top" xlink:title=" ">
<polygon fill="none" stroke="black" points="923,-56.5 923,-86.5 1031,-86.5 1031,-56.5 923,-56.5"/>
<text text-anchor="start" x="931" y="-74.5" font-family="Helvetica,sans-Serif" font-size="10.00">abstract&#45;machine/am</text>
<text text-anchor="middle" x="977" y="-63.5" font-family="Helvetica,sans-Serif" font-size="10.00">/src/x86/qemu/cte.c</text>
</a>
</g>
</g>
<!-- Node3&#45;&gt;Node4 -->
<g id="edge3" class="edge">
<title>Node3&#45;&gt;Node4</title>
<path fill="none" stroke="midnightblue" d="M977,-113.11C977,-104.15 977,-94.32 977,-86.58"/>
<polygon fill="midnightblue" stroke="midnightblue" points="973.5,-113.4 977,-123.4 980.5,-113.4 973.5,-113.4"/>
</g>
<!-- Node5 -->
<g id="node5" class="node">
<title>Node5</title>
<g id="a_node5"><a xlink:href="ioe_8c.html" target="_top" xlink:title=" ">
<polygon fill="none" stroke="black" points="797,-56.5 797,-86.5 905,-86.5 905,-56.5 797,-56.5"/>
<text text-anchor="start" x="805" y="-74.5" font-family="Helvetica,sans-Serif" font-size="10.00">abstract&#45;machine/am</text>
<text text-anchor="middle" x="851" y="-63.5" font-family="Helvetica,sans-Serif" font-size="10.00">/src/x86/qemu/ioe.c</text>
</a>
</g>
</g>
<!-- Node3&#45;&gt;Node5 -->
<g id="edge4" class="edge">
<title>Node3&#45;&gt;Node5</title>
<path fill="none" stroke="midnightblue" d="M940.58,-118.71C920.71,-108.46 896.52,-95.98 878.29,-86.58"/>
<polygon fill="midnightblue" stroke="midnightblue" points="939.17,-121.92 949.66,-123.4 942.38,-115.7 939.17,-121.92"/>
</g>
<!-- Node6 -->
<g id="node6" class="node">
<title>Node6</title>
<g id="a_node6"><a xlink:href="mpe_8c.html" target="_top" xlink:title=" ">
<polygon fill="none" stroke="black" points="1049,-56.5 1049,-86.5 1157,-86.5 1157,-56.5 1049,-56.5"/>
<text text-anchor="start" x="1057" y="-74.5" font-family="Helvetica,sans-Serif" font-size="10.00">abstract&#45;machine/am</text>
<text text-anchor="middle" x="1103" y="-63.5" font-family="Helvetica,sans-Serif" font-size="10.00">/src/x86/qemu/mpe.c</text>
</a>
</g>
</g>
<!-- Node3&#45;&gt;Node6 -->
<g id="edge5" class="edge">
<title>Node3&#45;&gt;Node6</title>
<path fill="none" stroke="midnightblue" d="M1013.42,-118.71C1033.29,-108.46 1057.48,-95.98 1075.71,-86.58"/>
<polygon fill="midnightblue" stroke="midnightblue" points="1011.62,-115.7 1004.34,-123.4 1014.83,-121.92 1011.62,-115.7"/>
</g>
<!-- Node7 -->
<g id="node7" class="node">
<title>Node7</title>
<g id="a_node7"><a xlink:href="trm_8c.html" target="_top" xlink:title=" ">
<polygon fill="none" stroke="black" points="1175,-56.5 1175,-86.5 1283,-86.5 1283,-56.5 1175,-56.5"/>
<text text-anchor="start" x="1183" y="-74.5" font-family="Helvetica,sans-Serif" font-size="10.00">abstract&#45;machine/am</text>
<text text-anchor="middle" x="1229" y="-63.5" font-family="Helvetica,sans-Serif" font-size="10.00">/src/x86/qemu/trm.c</text>
</a>
</g>
</g>
<!-- Node3&#45;&gt;Node7 -->
<g id="edge6" class="edge">
<title>Node3&#45;&gt;Node7</title>
<path fill="none" stroke="midnightblue" d="M1041.06,-120.98C1082.37,-110.32 1135.5,-96.62 1174.73,-86.5"/>
<polygon fill="midnightblue" stroke="midnightblue" points="1040.18,-117.59 1031.37,-123.48 1041.93,-124.37 1040.18,-117.59"/>
</g>
<!-- Node8 -->
<g id="node8" class="node">
<title>Node8</title>
<g id="a_node8"><a xlink:href="vme_8c.html" target="_top" xlink:title=" ">
<polygon fill="none" stroke="black" points="1301,-56.5 1301,-86.5 1409,-86.5 1409,-56.5 1301,-56.5"/>
<text text-anchor="start" x="1309" y="-74.5" font-family="Helvetica,sans-Serif" font-size="10.00">abstract&#45;machine/am</text>
<text text-anchor="middle" x="1355" y="-63.5" font-family="Helvetica,sans-Serif" font-size="10.00">/src/x86/qemu/vme.c</text>
</a>
</g>
</g>
<!-- Node3&#45;&gt;Node8 -->
<g id="edge7" class="edge">
<title>Node3&#45;&gt;Node8</title>
<path fill="none" stroke="midnightblue" d="M1052.75,-122.92C1160,-104.88 1189.14,-106.52 1292,-87 1294.87,-86.46 1297.8,-85.87 1300.76,-85.26"/>
<polygon fill="midnightblue" stroke="midnightblue" points="1052.09,-119.48 1042.82,-124.61 1053.27,-126.39 1052.09,-119.48"/>
</g>
<!-- Node9&#45;&gt;Node5 -->
<g id="edge9" class="edge">
<title>Node9&#45;&gt;Node5</title>
<path fill="none" stroke="midnightblue" d="M539.29,-128.19C602.75,-118.85 701.77,-103.51 787,-87 790.24,-86.37 793.57,-85.7 796.93,-85"/>
<polygon fill="midnightblue" stroke="midnightblue" points="538.42,-124.78 529.03,-129.69 539.43,-131.7 538.42,-124.78"/>
</g>
<!-- Node9&#45;&gt;Node10 -->
<g id="edge10" class="edge">
<title>Node9&#45;&gt;Node10</title>
<path fill="none" stroke="midnightblue" d="M408.54,-129.81C337.11,-121.04 219.51,-105.5 119,-87 116.09,-86.46 113.11,-85.89 110.1,-85.28"/>
<polygon fill="midnightblue" stroke="midnightblue" points="408.39,-133.32 418.74,-131.06 409.23,-126.37 408.39,-133.32"/>
</g>
<!-- Node11 -->
<g id="node11" class="node">
<title>Node11</title>
<g id="a_node11"><a xlink:href="stdio_8c.html" target="_top" xlink:title=" ">
<polygon fill="none" stroke="black" points="256,-56.5 256,-86.5 366,-86.5 366,-56.5 256,-56.5"/>
<text text-anchor="start" x="264" y="-74.5" font-family="Helvetica,sans-Serif" font-size="10.00">abstract&#45;machine/klib</text>
<text text-anchor="middle" x="311" y="-63.5" font-family="Helvetica,sans-Serif" font-size="10.00">/src/stdio.c</text>
</a>
</g>
</g>
<!-- Node9&#45;&gt;Node11 -->
<g id="edge11" class="edge">
<title>Node9&#45;&gt;Node11</title>
<path fill="none" stroke="midnightblue" d="M429.32,-119.68C403.17,-109.26 370.63,-96.28 346.3,-86.58"/>
<polygon fill="midnightblue" stroke="midnightblue" points="428.05,-122.94 438.63,-123.4 430.64,-116.44 428.05,-122.94"/>
</g>
<!-- Node9&#45;&gt;Node12 -->
<g id="edge12" class="edge">
<title>Node9&#45;&gt;Node12</title>
<path fill="none" stroke="midnightblue" d="M408.94,-123.1C363.55,-113.03 301.57,-99.25 247,-87 244.11,-86.35 241.15,-85.68 238.15,-85.01"/>
<polygon fill="midnightblue" stroke="midnightblue" points="408.42,-126.57 418.94,-125.31 409.94,-119.73 408.42,-126.57"/>
</g>
<!-- Node13 -->
<g id="node13" class="node">
<title>Node13</title>
<g id="a_node13"><a xlink:href="string_8c.html" target="_top" xlink:title=" ">
<polygon fill="none" stroke="black" points="384,-56.5 384,-86.5 494,-86.5 494,-56.5 384,-56.5"/>
<text text-anchor="start" x="392" y="-74.5" font-family="Helvetica,sans-Serif" font-size="10.00">abstract&#45;machine/klib</text>
<text text-anchor="middle" x="439" y="-63.5" font-family="Helvetica,sans-Serif" font-size="10.00">/src/string.c</text>
</a>
</g>
</g>
<!-- Node9&#45;&gt;Node13 -->
<g id="edge13" class="edge">
<title>Node9&#45;&gt;Node13</title>
<path fill="none" stroke="midnightblue" d="M461.66,-114.58C456.63,-105.24 450.98,-94.75 446.58,-86.58"/>
<polygon fill="midnightblue" stroke="midnightblue" points="458.58,-116.25 466.41,-123.4 464.75,-112.93 458.58,-116.25"/>
</g>
<!-- Node14 -->
<g id="node14" class="node">
<title>Node14</title>
<g id="a_node14"><a xlink:href="main_8c.html" target="_top" xlink:title=" ">
<polygon fill="none" stroke="black" points="512.5,-62 512.5,-81 635.5,-81 635.5,-62 512.5,-62"/>
<text text-anchor="middle" x="574" y="-69" font-family="Helvetica,sans-Serif" font-size="10.00">kernel/framework/main.c</text>
</a>
</g>
</g>
<!-- Node9&#45;&gt;Node14 -->
<g id="edge14" class="edge">
<title>Node9&#45;&gt;Node14</title>
<path fill="none" stroke="midnightblue" d="M504.3,-117.81C523.21,-105.51 546.61,-90.3 560.91,-81.01"/>
<polygon fill="midnightblue" stroke="midnightblue" points="502.18,-115.01 495.7,-123.4 505.99,-120.88 502.18,-115.01"/>
</g>
<!-- Node15 -->
<g id="node15" class="node">
<title>Node15</title>
<g id="a_node15"><a xlink:href="common_8h.html" target="_top" xlink:title=" ">
<polygon fill="none" stroke="black" points="653.5,-62 653.5,-81 778.5,-81 778.5,-62 653.5,-62"/>
<text text-anchor="middle" x="716" y="-69" font-family="Helvetica,sans-Serif" font-size="10.00">kernel/include/common.h</text>
</a>
</g>
</g>
<!-- Node9&#45;&gt;Node15 -->
<g id="edge15" class="edge">
<title>Node9&#45;&gt;Node15</title>
<path fill="none" stroke="midnightblue" d="M536.06,-120.83C583.42,-108.11 646.73,-91.11 684.25,-81.03"/>
<polygon fill="midnightblue" stroke="midnightblue" points="534.96,-117.5 526.21,-123.48 536.78,-124.26 534.96,-117.5"/>
</g>
<!-- Node16 -->
<g id="node16" class="node">
<title>Node16</title>
<g id="a_node16"><a xlink:href="os_8c.html" target="_top" xlink:title=" ">
<polygon fill="none" stroke="black" points="624,-0.5 624,-19.5 704,-19.5 704,-0.5 624,-0.5"/>
<text text-anchor="middle" x="664" y="-7.5" font-family="Helvetica,sans-Serif" font-size="10.00">kernel/src/os.c</text>
</a>
</g>
</g>
<!-- Node15&#45;&gt;Node16 -->
<g id="edge16" class="edge">
<title>Node15&#45;&gt;Node16</title>
<path fill="none" stroke="midnightblue" d="M701.73,-54.17C691.92,-42.95 679.31,-28.52 671.44,-19.51"/>
<polygon fill="midnightblue" stroke="midnightblue" points="699.33,-56.75 708.55,-61.98 704.6,-52.14 699.33,-56.75"/>
</g>
<!-- Node17 -->
<g id="node17" class="node">
<title>Node17</title>
<g id="a_node17"><a xlink:href="pmm_8c.html" target="_top" xlink:title=" ">
<polygon fill="none" stroke="black" points="722,-0.5 722,-19.5 814,-19.5 814,-0.5 722,-0.5"/>
<text text-anchor="middle" x="768" y="-7.5" font-family="Helvetica,sans-Serif" font-size="10.00">kernel/src/pmm.c</text>
</a>
</g>
</g>
<!-- Node15&#45;&gt;Node17 -->
<g id="edge17" class="edge">
<title>Node15&#45;&gt;Node17</title>
<path fill="none" stroke="midnightblue" d="M730.27,-54.17C740.08,-42.95 752.69,-28.52 760.56,-19.51"/>
<polygon fill="midnightblue" stroke="midnightblue" points="727.4,-52.14 723.45,-61.98 732.67,-56.75 727.4,-52.14"/>
</g>
<!-- Node19 -->
<g id="node19" class="node">
<title>Node19</title>
<g id="a_node19"><a xlink:href="logger_8c.html" target="_top" xlink:title=" ">
<polygon fill="none" stroke="black" points="1427,-56.5 1427,-86.5 1537,-86.5 1537,-56.5 1427,-56.5"/>
<text text-anchor="start" x="1435" y="-74.5" font-family="Helvetica,sans-Serif" font-size="10.00">abstract&#45;machine/klib</text>
<text text-anchor="middle" x="1482" y="-63.5" font-family="Helvetica,sans-Serif" font-size="10.00">/src/logger.c</text>
</a>
</g>
</g>
<!-- Node18&#45;&gt;Node19 -->
<g id="edge19" class="edge">
<title>Node18&#45;&gt;Node19</title>
<path fill="none" stroke="midnightblue" d="M1181.23,-122.86C1286.88,-103.37 1316.06,-106.23 1418,-87 1420.91,-86.45 1423.89,-85.86 1426.89,-85.25"/>
<polygon fill="midnightblue" stroke="midnightblue" points="1180.29,-119.47 1171.11,-124.75 1181.58,-126.35 1180.29,-119.47"/>
</g>
<!-- Node21&#45;&gt;Node14 -->
<g id="edge24" class="edge">
<title>Node21&#45;&gt;Node14</title>
<path fill="none" stroke="midnightblue" d="M657.86,-123.44C636.67,-110.57 605.98,-91.93 588.2,-81.13"/>
<polygon fill="midnightblue" stroke="midnightblue" points="656.21,-126.53 666.57,-128.73 659.84,-120.55 656.21,-126.53"/>
</g>
<!-- Node21&#45;&gt;Node15 -->
<g id="edge25" class="edge">
<title>Node21&#45;&gt;Node15</title>
<path fill="none" stroke="midnightblue" d="M690.6,-119.66C697.35,-107.13 706.09,-90.91 711.35,-81.13"/>
<polygon fill="midnightblue" stroke="midnightblue" points="687.38,-118.27 685.72,-128.73 693.54,-121.59 687.38,-118.27"/>
</g>
</g>
</svg>
