<?xml version="1.0" encoding="UTF-8" standalone="no"?>
<!DOCTYPE svg PUBLIC "-//W3C//DTD SVG 1.1//EN"
 "http://www.w3.org/Graphics/SVG/1.1/DTD/svg11.dtd">
<!-- Generated by graphviz version 2.50.0 (20220203.2022)
 -->
<!-- Title: abstract&#45;machine/am/include/amdev.h Pages: 1 -->
<svg width="1694pt" height="307pt"
 viewBox="0.00 0.00 1693.50 307.00" xmlns="http://www.w3.org/2000/svg" xmlns:xlink="http://www.w3.org/1999/xlink">
<g id="graph0" class="graph" transform="scale(1 1) rotate(0) translate(4 303)">
<title>abstract&#45;machine/am/include/amdev.h</title>
<!-- Node1 -->
<g id="node1" class="node">
<title>Node1</title>
<g id="a_node1"><a xlink:title=" ">
<polygon fill="#bfbfbf" stroke="black" points="759,-268.5 759,-298.5 867,-298.5 867,-268.5 759,-268.5"/>
<text text-anchor="start" x="767" y="-286.5" font-family="Helvetica,sans-Serif" font-size="10.00">abstract&#45;machine/am</text>
<text text-anchor="middle" x="813" y="-275.5" font-family="Helvetica,sans-Serif" font-size="10.00">/include/amdev.h</text>
</a>
</g>
</g>
<!-- Node2 -->
<g id="node2" class="node">
<title>Node2</title>
<g id="a_node2"><a xlink:href="am_8h.html" target="_top" xlink:title=" ">
<polygon fill="none" stroke="black" points="759,-201.5 759,-231.5 867,-231.5 867,-201.5 759,-201.5"/>
<text text-anchor="start" x="767" y="-219.5" font-family="Helvetica,sans-Serif" font-size="10.00">abstract&#45;machine/am</text>
<text text-anchor="middle" x="813" y="-208.5" font-family="Helvetica,sans-Serif" font-size="10.00">/include/am.h</text>
</a>
</g>
</g>
<!-- Node1&#45;&gt;Node2 -->
<g id="edge1" class="edge">
<title>Node1&#45;&gt;Node2</title>
<path fill="none" stroke="midnightblue" d="M813,-258.11C813,-249.15 813,-239.32 813,-231.58"/>
<polygon fill="midnightblue" stroke="midnightblue" points="809.5,-258.4 813,-268.4 816.5,-258.4 809.5,-258.4"/>
</g>
<!-- Node3 -->
<g id="node3" class="node">
<title>Node3</title>
<g id="a_node3"><a xlink:href="native_2ioe_8c.html" target="_top" xlink:title=" ">
<polygon fill="none" stroke="black" points="0,-134.5 0,-164.5 108,-164.5 108,-134.5 0,-134.5"/>
<text text-anchor="start" x="8" y="-152.5" font-family="Helvetica,sans-Serif" font-size="10.00">abstract&#45;machine/am</text>
<text text-anchor="middle" x="54" y="-141.5" font-family="Helvetica,sans-Serif" font-size="10.00">/src/native/ioe.c</text>
</a>
</g>
</g>
<!-- Node2&#45;&gt;Node3 -->
<g id="edge2" class="edge">
<title>Node2&#45;&gt;Node3</title>
<path fill="none" stroke="midnightblue" d="M748.98,-214.14C625.9,-210.8 348.01,-199.75 117,-165 114.11,-164.57 111.17,-164.07 108.19,-163.53"/>
<polygon fill="midnightblue" stroke="midnightblue" points="748.89,-217.64 758.98,-214.4 749.08,-210.64 748.89,-217.64"/>
</g>
<!-- Node4 -->
<g id="node4" class="node">
<title>Node4</title>
<g id="a_node4"><a xlink:href="disk_8c.html" target="_top" xlink:title=" ">
<polygon fill="none" stroke="black" points="126,-134.5 126,-164.5 234,-164.5 234,-134.5 126,-134.5"/>
<text text-anchor="start" x="134" y="-152.5" font-family="Helvetica,sans-Serif" font-size="10.00">abstract&#45;machine/am</text>
<text text-anchor="middle" x="180" y="-141.5" font-family="Helvetica,sans-Serif" font-size="10.00">/src/native/ioe/disk.c</text>
</a>
</g>
</g>
<!-- Node2&#45;&gt;Node4 -->
<g id="edge3" class="edge">
<title>Node2&#45;&gt;Node4</title>
<path fill="none" stroke="midnightblue" d="M748.66,-212.69C642.7,-207.43 425.08,-193.88 243,-165 240.12,-164.54 237.17,-164.03 234.2,-163.47"/>
<polygon fill="midnightblue" stroke="midnightblue" points="748.7,-216.2 758.86,-213.19 749.05,-209.21 748.7,-216.2"/>
</g>
<!-- Node5 -->
<g id="node5" class="node">
<title>Node5</title>
<g id="a_node5"><a xlink:href="gpu_8c.html" target="_top" xlink:title=" ">
<polygon fill="none" stroke="black" points="252,-134.5 252,-164.5 360,-164.5 360,-134.5 252,-134.5"/>
<text text-anchor="start" x="260" y="-152.5" font-family="Helvetica,sans-Serif" font-size="10.00">abstract&#45;machine/am</text>
<text text-anchor="middle" x="306" y="-141.5" font-family="Helvetica,sans-Serif" font-size="10.00">/src/native/ioe/gpu.c</text>
</a>
</g>
</g>
<!-- Node2&#45;&gt;Node5 -->
<g id="edge4" class="edge">
<title>Node2&#45;&gt;Node5</title>
<path fill="none" stroke="midnightblue" d="M748.52,-210.47C661.83,-203.18 503.1,-187.98 369,-165 366.12,-164.51 363.18,-163.96 360.22,-163.39"/>
<polygon fill="midnightblue" stroke="midnightblue" points="748.47,-213.97 758.73,-211.32 749.05,-207 748.47,-213.97"/>
</g>
<!-- Node6 -->
<g id="node6" class="node">
<title>Node6</title>
<g id="a_node6"><a xlink:href="input_8c.html" target="_top" xlink:title=" ">
<polygon fill="none" stroke="black" points="378,-134.5 378,-164.5 488,-164.5 488,-134.5 378,-134.5"/>
<text text-anchor="start" x="386" y="-152.5" font-family="Helvetica,sans-Serif" font-size="10.00">abstract&#45;machine/am</text>
<text text-anchor="middle" x="433" y="-141.5" font-family="Helvetica,sans-Serif" font-size="10.00">/src/native/ioe/input.c</text>
</a>
</g>
</g>
<!-- Node2&#45;&gt;Node6 -->
<g id="edge5" class="edge">
<title>Node2&#45;&gt;Node6</title>
<path fill="none" stroke="midnightblue" d="M748.91,-206.49C684.92,-197.21 583.86,-181.76 497,-165 494.09,-164.44 491.11,-163.84 488.11,-163.22"/>
<polygon fill="midnightblue" stroke="midnightblue" points="748.46,-209.96 758.86,-207.93 749.46,-203.04 748.46,-209.96"/>
</g>
<!-- Node7 -->
<g id="node7" class="node">
<title>Node7</title>
<g id="a_node7"><a xlink:href="timer_8c.html" target="_top" xlink:title=" ">
<polygon fill="none" stroke="black" points="506,-134.5 506,-164.5 616,-164.5 616,-134.5 506,-134.5"/>
<text text-anchor="start" x="514" y="-152.5" font-family="Helvetica,sans-Serif" font-size="10.00">abstract&#45;machine/am</text>
<text text-anchor="middle" x="561" y="-141.5" font-family="Helvetica,sans-Serif" font-size="10.00">/src/native/ioe/timer.c</text>
</a>
</g>
</g>
<!-- Node2&#45;&gt;Node7 -->
<g id="edge6" class="edge">
<title>Node2&#45;&gt;Node7</title>
<path fill="none" stroke="midnightblue" d="M749.25,-199.06C707.94,-188.4 654.72,-174.67 615.41,-164.53"/>
<polygon fill="midnightblue" stroke="midnightblue" points="748.38,-202.45 758.94,-201.56 750.13,-195.67 748.38,-202.45"/>
</g>
<!-- Node8 -->
<g id="node8" class="node">
<title>Node8</title>
<g id="a_node8"><a xlink:href="platform_8h.html" target="_top" xlink:title=" ">
<polygon fill="none" stroke="black" points="651,-67.5 651,-97.5 759,-97.5 759,-67.5 651,-67.5"/>
<text text-anchor="start" x="659" y="-85.5" font-family="Helvetica,sans-Serif" font-size="10.00">abstract&#45;machine/am</text>
<text text-anchor="middle" x="705" y="-74.5" font-family="Helvetica,sans-Serif" font-size="10.00">/src/native/platform.h</text>
</a>
</g>
</g>
<!-- Node2&#45;&gt;Node8 -->
<g id="edge7" class="edge">
<title>Node2&#45;&gt;Node8</title>
<path fill="none" stroke="midnightblue" d="M805.09,-191.46C798.61,-174.21 788.18,-151.09 774,-134 761.77,-119.26 744.35,-106.56 730.07,-97.57"/>
<polygon fill="midnightblue" stroke="midnightblue" points="801.96,-193.1 808.62,-201.34 808.55,-190.74 801.96,-193.1"/>
</g>
<!-- Node13 -->
<g id="node13" class="node">
<title>Node13</title>
<g id="a_node13"><a xlink:href="native_2trm_8c.html" target="_top" xlink:title=" ">
<polygon fill="none" stroke="black" points="1255,-134.5 1255,-164.5 1363,-164.5 1363,-134.5 1255,-134.5"/>
<text text-anchor="start" x="1263" y="-152.5" font-family="Helvetica,sans-Serif" font-size="10.00">abstract&#45;machine/am</text>
<text text-anchor="middle" x="1309" y="-141.5" font-family="Helvetica,sans-Serif" font-size="10.00">/src/native/trm.c</text>
</a>
</g>
</g>
<!-- Node2&#45;&gt;Node13 -->
<g id="edge12" class="edge">
<title>Node2&#45;&gt;Node13</title>
<path fill="none" stroke="midnightblue" d="M877.28,-210.23C962.11,-202.77 1115.93,-187.48 1246,-165 1248.88,-164.5 1251.82,-163.96 1254.78,-163.38"/>
<polygon fill="midnightblue" stroke="midnightblue" points="876.94,-206.75 867.28,-211.1 877.54,-213.72 876.94,-206.75"/>
</g>
<!-- Node14 -->
<g id="node14" class="node">
<title>Node14</title>
<g id="a_node14"><a xlink:href="src_2x86_2qemu_2x86-qemu_8h.html" target="_top" xlink:title=" ">
<polygon fill="none" stroke="black" points="634.5,-134.5 634.5,-164.5 765.5,-164.5 765.5,-134.5 634.5,-134.5"/>
<text text-anchor="start" x="642.5" y="-152.5" font-family="Helvetica,sans-Serif" font-size="10.00">abstract&#45;machine/am</text>
<text text-anchor="middle" x="700" y="-141.5" font-family="Helvetica,sans-Serif" font-size="10.00">/src/x86/qemu/x86&#45;qemu.h</text>
</a>
</g>
</g>
<!-- Node2&#45;&gt;Node14 -->
<g id="edge13" class="edge">
<title>Node2&#45;&gt;Node14</title>
<path fill="none" stroke="midnightblue" d="M779.61,-196.3C761.93,-186.12 740.6,-173.85 724.47,-164.58"/>
<polygon fill="midnightblue" stroke="midnightblue" points="778.07,-199.44 788.48,-201.4 781.56,-193.38 778.07,-199.44"/>
</g>
<!-- Node20 -->
<g id="node20" class="node">
<title>Node20</title>
<g id="a_node20"><a xlink:href="klib_8h.html" target="_top" xlink:title=" ">
<polygon fill="none" stroke="black" points="905,-134.5 905,-164.5 1015,-164.5 1015,-134.5 905,-134.5"/>
<text text-anchor="start" x="913" y="-152.5" font-family="Helvetica,sans-Serif" font-size="10.00">abstract&#45;machine/klib</text>
<text text-anchor="middle" x="960" y="-141.5" font-family="Helvetica,sans-Serif" font-size="10.00">/include/klib.h</text>
</a>
</g>
</g>
<!-- Node2&#45;&gt;Node20 -->
<g id="edge19" class="edge">
<title>Node2&#45;&gt;Node20</title>
<path fill="none" stroke="midnightblue" d="M854.23,-197.27C877.64,-186.92 906.51,-174.15 928.17,-164.58"/>
<polygon fill="midnightblue" stroke="midnightblue" points="852.63,-194.15 844.9,-201.4 855.46,-200.55 852.63,-194.15"/>
</g>
<!-- Node22 -->
<g id="node22" class="node">
<title>Node22</title>
<g id="a_node22"><a xlink:href="cpp_8c.html" target="_top" xlink:title=" ">
<polygon fill="none" stroke="black" points="777,-67.5 777,-97.5 887,-97.5 887,-67.5 777,-67.5"/>
<text text-anchor="start" x="785" y="-85.5" font-family="Helvetica,sans-Serif" font-size="10.00">abstract&#45;machine/klib</text>
<text text-anchor="middle" x="832" y="-74.5" font-family="Helvetica,sans-Serif" font-size="10.00">/src/cpp.c</text>
</a>
</g>
</g>
<!-- Node2&#45;&gt;Node22 -->
<g id="edge31" class="edge">
<title>Node2&#45;&gt;Node22</title>
<path fill="none" stroke="midnightblue" d="M816.47,-191.39C820.43,-163.9 826.76,-119.89 829.98,-97.52"/>
<polygon fill="midnightblue" stroke="midnightblue" points="812.99,-190.98 815.03,-201.37 819.92,-191.97 812.99,-190.98"/>
</g>
<!-- Node23 -->
<g id="node23" class="node">
<title>Node23</title>
<g id="a_node23"><a xlink:href="stdio_8c.html" target="_top" xlink:title=" ">
<polygon fill="none" stroke="black" points="1163,-67.5 1163,-97.5 1273,-97.5 1273,-67.5 1163,-67.5"/>
<text text-anchor="start" x="1171" y="-85.5" font-family="Helvetica,sans-Serif" font-size="10.00">abstract&#45;machine/klib</text>
<text text-anchor="middle" x="1218" y="-74.5" font-family="Helvetica,sans-Serif" font-size="10.00">/src/stdio.c</text>
</a>
</g>
</g>
<!-- Node2&#45;&gt;Node23 -->
<g id="edge33" class="edge">
<title>Node2&#45;&gt;Node23</title>
<path fill="none" stroke="midnightblue" d="M877.4,-206.77C920.33,-199.37 977.24,-186.43 1024,-165 1045.42,-155.18 1046.03,-144.75 1067,-134 1097.38,-118.43 1133.59,-106.13 1162.94,-97.57"/>
<polygon fill="midnightblue" stroke="midnightblue" points="876.65,-203.35 867.36,-208.45 877.8,-210.26 876.65,-203.35"/>
</g>
<!-- Node24 -->
<g id="node24" class="node">
<title>Node24</title>
<g id="a_node24"><a xlink:href="stdlib_8c.html" target="_top" xlink:title=" ">
<polygon fill="none" stroke="black" points="1291,-67.5 1291,-97.5 1401,-97.5 1401,-67.5 1291,-67.5"/>
<text text-anchor="start" x="1299" y="-85.5" font-family="Helvetica,sans-Serif" font-size="10.00">abstract&#45;machine/klib</text>
<text text-anchor="middle" x="1346" y="-74.5" font-family="Helvetica,sans-Serif" font-size="10.00">/src/stdlib.c</text>
</a>
</g>
</g>
<!-- Node2&#45;&gt;Node24 -->
<g id="edge34" class="edge">
<title>Node2&#45;&gt;Node24</title>
<path fill="none" stroke="midnightblue" d="M877.21,-210.46C928.58,-204.55 1001.46,-191.88 1060,-165 1080.44,-155.61 1079.53,-143.32 1100,-134 1175.04,-99.83 1201.34,-115.11 1282,-98 1284.9,-97.39 1287.87,-96.75 1290.86,-96.09"/>
<polygon fill="midnightblue" stroke="midnightblue" points="876.79,-206.98 867.23,-211.55 877.55,-213.94 876.79,-206.98"/>
</g>
<!-- Node30 -->
<g id="node30" class="node">
<title>Node30</title>
<g id="a_node30"><a xlink:href="int64_8c.html" target="_top" xlink:title=" ">
<polygon fill="none" stroke="black" points="1381,-134.5 1381,-164.5 1491,-164.5 1491,-134.5 1381,-134.5"/>
<text text-anchor="start" x="1389" y="-152.5" font-family="Helvetica,sans-Serif" font-size="10.00">abstract&#45;machine/klib</text>
<text text-anchor="middle" x="1436" y="-141.5" font-family="Helvetica,sans-Serif" font-size="10.00">/src/int64.c</text>
</a>
</g>
</g>
<!-- Node2&#45;&gt;Node30 -->
<g id="edge32" class="edge">
<title>Node2&#45;&gt;Node30</title>
<path fill="none" stroke="midnightblue" d="M877.32,-212.47C981.66,-206.93 1194.08,-193.06 1372,-165 1374.93,-164.54 1377.92,-164.02 1380.93,-163.46"/>
<polygon fill="midnightblue" stroke="midnightblue" points="877.06,-208.98 867.26,-212.99 877.43,-215.97 877.06,-208.98"/>
</g>
<!-- Node31 -->
<g id="node31" class="node">
<title>Node31</title>
<g id="a_node31"><a xlink:href="kernel_8h.html" target="_top" xlink:title=" ">
<polygon fill="none" stroke="black" points="1109,-140 1109,-159 1237,-159 1237,-140 1109,-140"/>
<text text-anchor="middle" x="1173" y="-147" font-family="Helvetica,sans-Serif" font-size="10.00">kernel/framework/kernel.h</text>
</a>
</g>
</g>
<!-- Node2&#45;&gt;Node31 -->
<g id="edge35" class="edge">
<title>Node2&#45;&gt;Node31</title>
<path fill="none" stroke="midnightblue" d="M877.06,-204.15C934.23,-194 1020.22,-178.65 1095,-165 1105.43,-163.1 1116.65,-161.03 1127.23,-159.06"/>
<polygon fill="midnightblue" stroke="midnightblue" points="876.31,-200.73 867.08,-205.92 877.54,-207.62 876.31,-200.73"/>
</g>
<!-- Node9 -->
<g id="node9" class="node">
<title>Node9</title>
<g id="a_node9"><a xlink:href="native_2cte_8c.html" target="_top" xlink:title=" ">
<polygon fill="none" stroke="black" points="714,-0.5 714,-30.5 822,-30.5 822,-0.5 714,-0.5"/>
<text text-anchor="start" x="722" y="-18.5" font-family="Helvetica,sans-Serif" font-size="10.00">abstract&#45;machine/am</text>
<text text-anchor="middle" x="768" y="-7.5" font-family="Helvetica,sans-Serif" font-size="10.00">/src/native/cte.c</text>
</a>
</g>
</g>
<!-- Node8&#45;&gt;Node9 -->
<g id="edge8" class="edge">
<title>Node8&#45;&gt;Node9</title>
<path fill="none" stroke="midnightblue" d="M725.81,-60.02C735.2,-50.34 746.02,-39.17 754.36,-30.58"/>
<polygon fill="midnightblue" stroke="midnightblue" points="723.12,-57.78 718.67,-67.4 728.14,-62.65 723.12,-57.78"/>
</g>
<!-- Node10 -->
<g id="node10" class="node">
<title>Node10</title>
<g id="a_node10"><a xlink:href="native_2mpe_8c.html" target="_top" xlink:title=" ">
<polygon fill="none" stroke="black" points="840,-0.5 840,-30.5 948,-30.5 948,-0.5 840,-0.5"/>
<text text-anchor="start" x="848" y="-18.5" font-family="Helvetica,sans-Serif" font-size="10.00">abstract&#45;machine/am</text>
<text text-anchor="middle" x="894" y="-7.5" font-family="Helvetica,sans-Serif" font-size="10.00">/src/native/mpe.c</text>
</a>
</g>
</g>
<!-- Node8&#45;&gt;Node10 -->
<g id="edge9" class="edge">
<title>Node8&#45;&gt;Node10</title>
<path fill="none" stroke="midnightblue" d="M755.62,-64.09C786.13,-53.6 824.48,-40.41 853.07,-30.58"/>
<polygon fill="midnightblue" stroke="midnightblue" points="754.33,-60.83 746.01,-67.4 756.6,-67.45 754.33,-60.83"/>
</g>
<!-- Node11 -->
<g id="node11" class="node">
<title>Node11</title>
<g id="a_node11"><a xlink:href="platform_8c.html" target="_top" xlink:title=" ">
<polygon fill="none" stroke="black" points="462,-0.5 462,-30.5 570,-30.5 570,-0.5 462,-0.5"/>
<text text-anchor="start" x="470" y="-18.5" font-family="Helvetica,sans-Serif" font-size="10.00">abstract&#45;machine/am</text>
<text text-anchor="middle" x="516" y="-7.5" font-family="Helvetica,sans-Serif" font-size="10.00">/src/native/platform.c</text>
</a>
</g>
</g>
<!-- Node8&#45;&gt;Node11 -->
<g id="edge10" class="edge">
<title>Node8&#45;&gt;Node11</title>
<path fill="none" stroke="midnightblue" d="M654.38,-64.09C623.87,-53.6 585.52,-40.41 556.93,-30.58"/>
<polygon fill="midnightblue" stroke="midnightblue" points="653.4,-67.45 663.99,-67.4 655.67,-60.83 653.4,-67.45"/>
</g>
<!-- Node12 -->
<g id="node12" class="node">
<title>Node12</title>
<g id="a_node12"><a xlink:href="native_2vme_8c.html" target="_top" xlink:title=" ">
<polygon fill="none" stroke="black" points="588,-0.5 588,-30.5 696,-30.5 696,-0.5 588,-0.5"/>
<text text-anchor="start" x="596" y="-18.5" font-family="Helvetica,sans-Serif" font-size="10.00">abstract&#45;machine/am</text>
<text text-anchor="middle" x="642" y="-7.5" font-family="Helvetica,sans-Serif" font-size="10.00">/src/native/vme.c</text>
</a>
</g>
</g>
<!-- Node8&#45;&gt;Node12 -->
<g id="edge11" class="edge">
<title>Node8&#45;&gt;Node12</title>
<path fill="none" stroke="midnightblue" d="M684.19,-60.02C674.8,-50.34 663.98,-39.17 655.64,-30.58"/>
<polygon fill="midnightblue" stroke="midnightblue" points="681.86,-62.65 691.33,-67.4 686.88,-57.78 681.86,-62.65"/>
</g>
<!-- Node15 -->
<g id="node15" class="node">
<title>Node15</title>
<g id="a_node15"><a xlink:href="x86_2qemu_2cte_8c.html" target="_top" xlink:title=" ">
<polygon fill="none" stroke="black" points="273,-67.5 273,-97.5 381,-97.5 381,-67.5 273,-67.5"/>
<text text-anchor="start" x="281" y="-85.5" font-family="Helvetica,sans-Serif" font-size="10.00">abstract&#45;machine/am</text>
<text text-anchor="middle" x="327" y="-74.5" font-family="Helvetica,sans-Serif" font-size="10.00">/src/x86/qemu/cte.c</text>
</a>
</g>
</g>
<!-- Node14&#45;&gt;Node15 -->
<g id="edge14" class="edge">
<title>Node14&#45;&gt;Node15</title>
<path fill="none" stroke="midnightblue" d="M624.12,-133.9C519.18,-116.06 490.64,-117.26 390,-98 387.13,-97.45 384.2,-96.86 381.24,-96.25"/>
<polygon fill="midnightblue" stroke="midnightblue" points="623.73,-137.38 634.18,-135.62 624.91,-130.48 623.73,-137.38"/>
</g>
<!-- Node16 -->
<g id="node16" class="node">
<title>Node16</title>
<g id="a_node16"><a xlink:href="x86_2qemu_2ioe_8c.html" target="_top" xlink:title=" ">
<polygon fill="none" stroke="black" points="525,-67.5 525,-97.5 633,-97.5 633,-67.5 525,-67.5"/>
<text text-anchor="start" x="533" y="-85.5" font-family="Helvetica,sans-Serif" font-size="10.00">abstract&#45;machine/am</text>
<text text-anchor="middle" x="579" y="-74.5" font-family="Helvetica,sans-Serif" font-size="10.00">/src/x86/qemu/ioe.c</text>
</a>
</g>
</g>
<!-- Node14&#45;&gt;Node16 -->
<g id="edge15" class="edge">
<title>Node14&#45;&gt;Node16</title>
<path fill="none" stroke="midnightblue" d="M664.77,-129.57C645.74,-119.35 622.63,-106.94 605.2,-97.58"/>
<polygon fill="midnightblue" stroke="midnightblue" points="663.28,-132.75 673.74,-134.4 666.59,-126.58 663.28,-132.75"/>
</g>
<!-- Node17 -->
<g id="node17" class="node">
<title>Node17</title>
<g id="a_node17"><a xlink:href="x86_2qemu_2mpe_8c.html" target="_top" xlink:title=" ">
<polygon fill="none" stroke="black" points="399,-67.5 399,-97.5 507,-97.5 507,-67.5 399,-67.5"/>
<text text-anchor="start" x="407" y="-85.5" font-family="Helvetica,sans-Serif" font-size="10.00">abstract&#45;machine/am</text>
<text text-anchor="middle" x="453" y="-74.5" font-family="Helvetica,sans-Serif" font-size="10.00">/src/x86/qemu/mpe.c</text>
</a>
</g>
</g>
<!-- Node14&#45;&gt;Node17 -->
<g id="edge16" class="edge">
<title>Node14&#45;&gt;Node17</title>
<path fill="none" stroke="midnightblue" d="M636.99,-131.92C596.68,-121.31 544.96,-107.7 506.62,-97.61"/>
<polygon fill="midnightblue" stroke="midnightblue" points="636.15,-135.32 646.71,-134.48 637.93,-128.55 636.15,-135.32"/>
</g>
<!-- Node18 -->
<g id="node18" class="node">
<title>Node18</title>
<g id="a_node18"><a xlink:href="x86_2qemu_2trm_8c.html" target="_top" xlink:title=" ">
<polygon fill="none" stroke="black" points="21,-67.5 21,-97.5 129,-97.5 129,-67.5 21,-67.5"/>
<text text-anchor="start" x="29" y="-85.5" font-family="Helvetica,sans-Serif" font-size="10.00">abstract&#45;machine/am</text>
<text text-anchor="middle" x="75" y="-74.5" font-family="Helvetica,sans-Serif" font-size="10.00">/src/x86/qemu/trm.c</text>
</a>
</g>
</g>
<!-- Node14&#45;&gt;Node18 -->
<g id="edge17" class="edge">
<title>Node14&#45;&gt;Node18</title>
<path fill="none" stroke="midnightblue" d="M624.15,-134.01C408.09,-106.1 349.35,-129.94 138,-98 135.11,-97.56 132.17,-97.07 129.2,-96.53"/>
<polygon fill="midnightblue" stroke="midnightblue" points="623.85,-137.5 634.22,-135.33 624.76,-130.56 623.85,-137.5"/>
</g>
<!-- Node19 -->
<g id="node19" class="node">
<title>Node19</title>
<g id="a_node19"><a xlink:href="x86_2qemu_2vme_8c.html" target="_top" xlink:title=" ">
<polygon fill="none" stroke="black" points="147,-67.5 147,-97.5 255,-97.5 255,-67.5 147,-67.5"/>
<text text-anchor="start" x="155" y="-85.5" font-family="Helvetica,sans-Serif" font-size="10.00">abstract&#45;machine/am</text>
<text text-anchor="middle" x="201" y="-74.5" font-family="Helvetica,sans-Serif" font-size="10.00">/src/x86/qemu/vme.c</text>
</a>
</g>
</g>
<!-- Node14&#45;&gt;Node19 -->
<g id="edge18" class="edge">
<title>Node14&#45;&gt;Node19</title>
<path fill="none" stroke="midnightblue" d="M623.98,-133.95C463.67,-111.21 419.85,-123.6 264,-98 261.12,-97.53 258.18,-97 255.21,-96.44"/>
<polygon fill="midnightblue" stroke="midnightblue" points="623.81,-137.46 634.21,-135.43 624.81,-130.53 623.81,-137.46"/>
</g>
<!-- Node20&#45;&gt;Node8 -->
<g id="edge21" class="edge">
<title>Node20&#45;&gt;Node8</title>
<path fill="none" stroke="midnightblue" d="M895.1,-131.96C853.01,-121.23 798.8,-107.41 759.04,-97.28"/>
<polygon fill="midnightblue" stroke="midnightblue" points="894.43,-135.4 904.98,-134.48 896.16,-128.61 894.43,-135.4"/>
</g>
<!-- Node20&#45;&gt;Node16 -->
<g id="edge22" class="edge">
<title>Node20&#45;&gt;Node16</title>
<path fill="none" stroke="midnightblue" d="M894.92,-139.5C830.48,-130.28 729.12,-114.92 642,-98 639.14,-97.44 636.2,-96.85 633.25,-96.23"/>
<polygon fill="midnightblue" stroke="midnightblue" points="894.54,-142.98 904.93,-140.93 895.53,-136.05 894.54,-142.98"/>
</g>
<!-- Node21 -->
<g id="node21" class="node">
<title>Node21</title>
<g id="a_node21"><a xlink:href="audio_8c.html" target="_top" xlink:title=" ">
<polygon fill="none" stroke="black" points="1033,-67.5 1033,-97.5 1145,-97.5 1145,-67.5 1033,-67.5"/>
<text text-anchor="start" x="1041" y="-85.5" font-family="Helvetica,sans-Serif" font-size="10.00">abstract&#45;machine/am</text>
<text text-anchor="middle" x="1089" y="-74.5" font-family="Helvetica,sans-Serif" font-size="10.00">/src/native/ioe/audio.c</text>
</a>
</g>
</g>
<!-- Node20&#45;&gt;Node21 -->
<g id="edge20" class="edge">
<title>Node20&#45;&gt;Node21</title>
<path fill="none" stroke="midnightblue" d="M997.01,-129.85C1017.4,-119.58 1042.31,-107.03 1061.06,-97.58"/>
<polygon fill="midnightblue" stroke="midnightblue" points="995.35,-126.77 987.99,-134.4 998.5,-133.02 995.35,-126.77"/>
</g>
<!-- Node20&#45;&gt;Node22 -->
<g id="edge23" class="edge">
<title>Node20&#45;&gt;Node22</title>
<path fill="none" stroke="midnightblue" d="M923.28,-129.85C903.04,-119.58 878.33,-107.03 859.72,-97.58"/>
<polygon fill="midnightblue" stroke="midnightblue" points="921.72,-132.99 932.23,-134.4 924.89,-126.75 921.72,-132.99"/>
</g>
<!-- Node20&#45;&gt;Node23 -->
<g id="edge24" class="edge">
<title>Node20&#45;&gt;Node23</title>
<path fill="none" stroke="midnightblue" d="M1024.99,-132.13C1067.42,-121.44 1122.24,-107.62 1162.61,-97.46"/>
<polygon fill="midnightblue" stroke="midnightblue" points="1023.87,-128.8 1015.03,-134.64 1025.58,-135.59 1023.87,-128.8"/>
</g>
<!-- Node20&#45;&gt;Node24 -->
<g id="edge25" class="edge">
<title>Node20&#45;&gt;Node24</title>
<path fill="none" stroke="midnightblue" d="M1025.31,-139.57C1090.52,-130.35 1193.5,-114.94 1282,-98 1284.91,-97.44 1287.89,-96.85 1290.89,-96.23"/>
<polygon fill="midnightblue" stroke="midnightblue" points="1024.59,-136.14 1015.18,-141 1025.57,-143.07 1024.59,-136.14"/>
</g>
<!-- Node25 -->
<g id="node25" class="node">
<title>Node25</title>
<g id="a_node25"><a xlink:href="string_8c.html" target="_top" xlink:title=" ">
<polygon fill="none" stroke="black" points="905,-67.5 905,-97.5 1015,-97.5 1015,-67.5 905,-67.5"/>
<text text-anchor="start" x="913" y="-85.5" font-family="Helvetica,sans-Serif" font-size="10.00">abstract&#45;machine/klib</text>
<text text-anchor="middle" x="960" y="-74.5" font-family="Helvetica,sans-Serif" font-size="10.00">/src/string.c</text>
</a>
</g>
</g>
<!-- Node20&#45;&gt;Node25 -->
<g id="edge26" class="edge">
<title>Node20&#45;&gt;Node25</title>
<path fill="none" stroke="midnightblue" d="M960,-124.11C960,-115.15 960,-105.32 960,-97.58"/>
<polygon fill="midnightblue" stroke="midnightblue" points="956.5,-124.4 960,-134.4 963.5,-124.4 956.5,-124.4"/>
</g>
<!-- Node26 -->
<g id="node26" class="node">
<title>Node26</title>
<g id="a_node26"><a xlink:href="kernel_2framework_2main_8c.html" target="_top" xlink:title=" ">
<polygon fill="none" stroke="black" points="1562.5,-73 1562.5,-92 1685.5,-92 1685.5,-73 1562.5,-73"/>
<text text-anchor="middle" x="1624" y="-80" font-family="Helvetica,sans-Serif" font-size="10.00">kernel/framework/main.c</text>
</a>
</g>
</g>
<!-- Node20&#45;&gt;Node26 -->
<g id="edge27" class="edge">
<title>Node20&#45;&gt;Node26</title>
<path fill="none" stroke="midnightblue" d="M1025.37,-141.4C1048.89,-138.93 1075.62,-136.23 1100,-134 1301.57,-115.57 1353.62,-126.58 1554,-98 1564.81,-96.46 1576.46,-94.26 1587.1,-92.05"/>
<polygon fill="midnightblue" stroke="midnightblue" points="1024.74,-137.95 1015.16,-142.48 1025.47,-144.91 1024.74,-137.95"/>
</g>
<!-- Node27 -->
<g id="node27" class="node">
<title>Node27</title>
<g id="a_node27"><a xlink:href="common_8h.html" target="_top" xlink:title=" ">
<polygon fill="none" stroke="black" points="1419.5,-73 1419.5,-92 1544.5,-92 1544.5,-73 1419.5,-73"/>
<text text-anchor="middle" x="1482" y="-80" font-family="Helvetica,sans-Serif" font-size="10.00">kernel/include/common.h</text>
</a>
</g>
</g>
<!-- Node20&#45;&gt;Node27 -->
<g id="edge28" class="edge">
<title>Node20&#45;&gt;Node27</title>
<path fill="none" stroke="midnightblue" d="M1025.15,-141.51C1140.71,-129.05 1372.92,-103.8 1410,-98 1420.71,-96.32 1432.24,-94.16 1442.87,-92.02"/>
<polygon fill="midnightblue" stroke="midnightblue" points="1024.59,-138.05 1015.02,-142.6 1025.34,-145.01 1024.59,-138.05"/>
</g>
<!-- Node28 -->
<g id="node28" class="node">
<title>Node28</title>
<g id="a_node28"><a xlink:href="os_8c.html" target="_top" xlink:title=" ">
<polygon fill="none" stroke="black" points="1390,-6 1390,-25 1470,-25 1470,-6 1390,-6"/>
<text text-anchor="middle" x="1430" y="-13" font-family="Helvetica,sans-Serif" font-size="10.00">kernel/src/os.c</text>
</a>
</g>
</g>
<!-- Node27&#45;&gt;Node28 -->
<g id="edge29" class="edge">
<title>Node27&#45;&gt;Node28</title>
<path fill="none" stroke="midnightblue" d="M1468.62,-64.77C1458.48,-52.1 1444.96,-35.2 1436.9,-25.13"/>
<polygon fill="midnightblue" stroke="midnightblue" points="1466.01,-67.11 1474.99,-72.73 1471.47,-62.74 1466.01,-67.11"/>
</g>
<!-- Node29 -->
<g id="node29" class="node">
<title>Node29</title>
<g id="a_node29"><a xlink:href="pmm_8c.html" target="_top" xlink:title=" ">
<polygon fill="none" stroke="black" points="1488,-6 1488,-25 1580,-25 1580,-6 1488,-6"/>
<text text-anchor="middle" x="1534" y="-13" font-family="Helvetica,sans-Serif" font-size="10.00">kernel/src/pmm.c</text>
</a>
</g>
</g>
<!-- Node27&#45;&gt;Node29 -->
<g id="edge30" class="edge">
<title>Node27&#45;&gt;Node29</title>
<path fill="none" stroke="midnightblue" d="M1495.38,-64.77C1505.52,-52.1 1519.04,-35.2 1527.1,-25.13"/>
<polygon fill="midnightblue" stroke="midnightblue" points="1492.53,-62.74 1489.01,-72.73 1497.99,-67.11 1492.53,-62.74"/>
</g>
<!-- Node31&#45;&gt;Node26 -->
<g id="edge36" class="edge">
<title>Node31&#45;&gt;Node26</title>
<path fill="none" stroke="midnightblue" d="M1223.01,-138.02C1230.69,-136.57 1238.55,-135.17 1246,-134 1382.14,-112.56 1417.95,-120 1554,-98 1564.41,-96.32 1575.63,-94.15 1585.97,-92.01"/>
<polygon fill="midnightblue" stroke="midnightblue" points="1222.21,-134.61 1213.06,-139.95 1223.54,-141.48 1222.21,-134.61"/>
</g>
<!-- Node31&#45;&gt;Node27 -->
<g id="edge37" class="edge">
<title>Node31&#45;&gt;Node27</title>
<path fill="none" stroke="midnightblue" d="M1223.85,-137.8C1284.66,-125.01 1385.22,-103.86 1441.2,-92.08"/>
<polygon fill="midnightblue" stroke="midnightblue" points="1222.78,-134.45 1213.71,-139.94 1224.22,-141.3 1222.78,-134.45"/>
</g>
</g>
</svg>
