<?xml version="1.0" encoding="UTF-8" standalone="no"?>
<!DOCTYPE svg PUBLIC "-//W3C//DTD SVG 1.1//EN"
 "http://www.w3.org/Graphics/SVG/1.1/DTD/svg11.dtd">
<!-- Generated by graphviz version 3.0.0 (20220413.0106)
 -->
<!-- Title: abstract&#45;machine/am/include/amdev.h Pages: 1 -->
<svg width="1818pt" height="475pt"
 viewBox="0.00 0.00 1818.00 475.00" xmlns="http://www.w3.org/2000/svg" xmlns:xlink="http://www.w3.org/1999/xlink">
<g id="graph0" class="graph" transform="scale(1 1) rotate(0) translate(4 471)">
<title>abstract&#45;machine/am/include/amdev.h</title>
<!-- Node1 -->
<g id="node1" class="node">
<title>Node1</title>
<g id="a_node1"><a xlink:title=" ">
<polygon fill="#bfbfbf" stroke="black" points="650,-436.5 650,-466.5 758,-466.5 758,-436.5 650,-436.5"/>
<text text-anchor="start" x="658" y="-454.5" font-family="Helvetica,sans-Serif" font-size="10.00">abstract&#45;machine/am</text>
<text text-anchor="middle" x="704" y="-443.5" font-family="Helvetica,sans-Serif" font-size="10.00">/include/amdev.h</text>
</a>
</g>
</g>
<!-- Node2 -->
<g id="node2" class="node">
<title>Node2</title>
<g id="a_node2"><a xlink:href="am_8h.html" target="_top" xlink:title=" ">
<polygon fill="none" stroke="black" points="590,-369.5 590,-399.5 698,-399.5 698,-369.5 590,-369.5"/>
<text text-anchor="start" x="598" y="-387.5" font-family="Helvetica,sans-Serif" font-size="10.00">abstract&#45;machine/am</text>
<text text-anchor="middle" x="644" y="-376.5" font-family="Helvetica,sans-Serif" font-size="10.00">/include/am.h</text>
</a>
</g>
</g>
<!-- Node1&#45;&gt;Node2 -->
<g id="edge1" class="edge">
<title>Node1&#45;&gt;Node2</title>
<path fill="none" stroke="midnightblue" d="M684.18,-429.02C675.24,-419.34 664.93,-408.17 656.99,-399.58"/>
<polygon fill="midnightblue" stroke="midnightblue" points="681.63,-431.42 690.98,-436.4 686.77,-426.67 681.63,-431.42"/>
</g>
<!-- Node15 -->
<g id="node15" class="node">
<title>Node15</title>
<g id="a_node15"><a xlink:href="common_8h.html" target="_top" xlink:title=" ">
<polygon fill="none" stroke="black" points="732.5,-241 732.5,-260 857.5,-260 857.5,-241 732.5,-241"/>
<text text-anchor="middle" x="795" y="-248" font-family="Helvetica,sans-Serif" font-size="10.00">kernel/include/common.h</text>
</a>
</g>
</g>
<!-- Node1&#45;&gt;Node15 -->
<g id="edge58" class="edge">
<title>Node1&#45;&gt;Node15</title>
<path fill="none" stroke="midnightblue" d="M728.37,-429.23C751.1,-407.63 783.47,-371.9 797,-333 805.74,-307.87 800.57,-275.7 797.2,-260.38"/>
<polygon fill="midnightblue" stroke="midnightblue" points="725.74,-426.9 720.78,-436.26 730.5,-432.03 725.74,-426.9"/>
</g>
<!-- Node3 -->
<g id="node3" class="node">
<title>Node3</title>
<g id="a_node3"><a xlink:href="x86-qemu_8h.html" target="_top" xlink:title=" ">
<polygon fill="none" stroke="black" points="1375.5,-302.5 1375.5,-332.5 1506.5,-332.5 1506.5,-302.5 1375.5,-302.5"/>
<text text-anchor="start" x="1383.5" y="-320.5" font-family="Helvetica,sans-Serif" font-size="10.00">abstract&#45;machine/am</text>
<text text-anchor="middle" x="1441" y="-309.5" font-family="Helvetica,sans-Serif" font-size="10.00">/src/x86/qemu/x86&#45;qemu.h</text>
</a>
</g>
</g>
<!-- Node2&#45;&gt;Node3 -->
<g id="edge2" class="edge">
<title>Node2&#45;&gt;Node3</title>
<path fill="none" stroke="midnightblue" d="M708.51,-378.24C857.63,-366.08 1224.93,-336.12 1375.25,-323.86"/>
<polygon fill="midnightblue" stroke="midnightblue" points="707.84,-374.78 698.15,-379.08 708.41,-381.76 707.84,-374.78"/>
</g>
<!-- Node9 -->
<g id="node9" class="node">
<title>Node9</title>
<g id="a_node9"><a xlink:href="klib_8h.html" target="_top" xlink:title=" ">
<polygon fill="none" stroke="black" points="383,-302.5 383,-332.5 493,-332.5 493,-302.5 383,-302.5"/>
<text text-anchor="start" x="391" y="-320.5" font-family="Helvetica,sans-Serif" font-size="10.00">abstract&#45;machine/klib</text>
<text text-anchor="middle" x="438" y="-309.5" font-family="Helvetica,sans-Serif" font-size="10.00">/include/klib.h</text>
</a>
</g>
</g>
<!-- Node2&#45;&gt;Node9 -->
<g id="edge8" class="edge">
<title>Node2&#45;&gt;Node9</title>
<path fill="none" stroke="midnightblue" d="M589.95,-366.44C556.55,-355.91 514.22,-342.55 482.72,-332.61"/>
<polygon fill="midnightblue" stroke="midnightblue" points="588.96,-369.8 599.55,-369.48 591.07,-363.13 588.96,-369.8"/>
</g>
<!-- Node10 -->
<g id="node10" class="node">
<title>Node10</title>
<g id="a_node10"><a xlink:href="cpp_8c.html" target="_top" xlink:title=" ">
<polygon fill="none" stroke="black" points="128,-235.5 128,-265.5 238,-265.5 238,-235.5 128,-235.5"/>
<text text-anchor="start" x="136" y="-253.5" font-family="Helvetica,sans-Serif" font-size="10.00">abstract&#45;machine/klib</text>
<text text-anchor="middle" x="183" y="-242.5" font-family="Helvetica,sans-Serif" font-size="10.00">/src/cpp.c</text>
</a>
</g>
</g>
<!-- Node2&#45;&gt;Node10 -->
<g id="edge46" class="edge">
<title>Node2&#45;&gt;Node10</title>
<path fill="none" stroke="midnightblue" d="M579.77,-378.91C516.84,-373.03 418.87,-360.14 338,-333 287.42,-316.02 233.34,-284.02 204.34,-265.57"/>
<polygon fill="midnightblue" stroke="midnightblue" points="579.68,-382.42 589.95,-379.83 580.31,-375.45 579.68,-382.42"/>
</g>
<!-- Node11 -->
<g id="node11" class="node">
<title>Node11</title>
<g id="a_node11"><a xlink:href="stdio_8c.html" target="_top" xlink:title=" ">
<polygon fill="none" stroke="black" points="256,-235.5 256,-265.5 366,-265.5 366,-235.5 256,-235.5"/>
<text text-anchor="start" x="264" y="-253.5" font-family="Helvetica,sans-Serif" font-size="10.00">abstract&#45;machine/klib</text>
<text text-anchor="middle" x="311" y="-242.5" font-family="Helvetica,sans-Serif" font-size="10.00">/src/stdio.c</text>
</a>
</g>
</g>
<!-- Node2&#45;&gt;Node11 -->
<g id="edge48" class="edge">
<title>Node2&#45;&gt;Node11</title>
<path fill="none" stroke="midnightblue" d="M579.55,-376.78C510.95,-368.71 407.72,-353.62 374,-333 347.15,-316.58 327.44,-284.22 317.74,-265.59"/>
<polygon fill="midnightblue" stroke="midnightblue" points="579.49,-380.3 589.83,-377.97 580.3,-373.35 579.49,-380.3"/>
</g>
<!-- Node12 -->
<g id="node12" class="node">
<title>Node12</title>
<g id="a_node12"><a xlink:href="stdlib_8c.html" target="_top" xlink:title=" ">
<polygon fill="none" stroke="black" points="0,-235.5 0,-265.5 110,-265.5 110,-235.5 0,-235.5"/>
<text text-anchor="start" x="8" y="-253.5" font-family="Helvetica,sans-Serif" font-size="10.00">abstract&#45;machine/klib</text>
<text text-anchor="middle" x="55" y="-242.5" font-family="Helvetica,sans-Serif" font-size="10.00">/src/stdlib.c</text>
</a>
</g>
</g>
<!-- Node2&#45;&gt;Node12 -->
<g id="edge49" class="edge">
<title>Node2&#45;&gt;Node12</title>
<path fill="none" stroke="midnightblue" d="M579.32,-379.64C502.98,-374 372.65,-360.97 264,-333 197.81,-315.96 124.15,-283.98 84.37,-265.55"/>
<polygon fill="midnightblue" stroke="midnightblue" points="579.51,-383.16 589.73,-380.39 580.01,-376.18 579.51,-383.16"/>
</g>
<!-- Node2&#45;&gt;Node15 -->
<g id="edge57" class="edge">
<title>Node2&#45;&gt;Node15</title>
<path fill="none" stroke="midnightblue" d="M707.78,-372.43C732.3,-365.11 758.56,-353 776,-333 794.34,-311.98 795.86,-276.64 795.47,-260.29"/>
<polygon fill="midnightblue" stroke="midnightblue" points="706.84,-369.06 698.13,-375.1 708.7,-375.81 706.84,-369.06"/>
</g>
<!-- Node30 -->
<g id="node30" class="node">
<title>Node30</title>
<g id="a_node30"><a xlink:href="logger_8h.html" target="_top" xlink:title=" ">
<polygon fill="none" stroke="black" points="910,-302.5 910,-332.5 1020,-332.5 1020,-302.5 910,-302.5"/>
<text text-anchor="start" x="918" y="-320.5" font-family="Helvetica,sans-Serif" font-size="10.00">abstract&#45;machine/klib</text>
<text text-anchor="middle" x="965" y="-309.5" font-family="Helvetica,sans-Serif" font-size="10.00">/include/logger.h</text>
</a>
</g>
</g>
<!-- Node2&#45;&gt;Node30 -->
<g id="edge38" class="edge">
<title>Node2&#45;&gt;Node30</title>
<path fill="none" stroke="midnightblue" d="M708.05,-370.53C767.1,-358.57 853.85,-341.01 909.88,-329.66"/>
<polygon fill="midnightblue" stroke="midnightblue" points="707.2,-367.13 698.09,-372.55 708.59,-373.99 707.2,-367.13"/>
</g>
<!-- Node33 -->
<g id="node33" class="node">
<title>Node33</title>
<g id="a_node33"><a xlink:href="int64_8c.html" target="_top" xlink:title=" ">
<polygon fill="none" stroke="black" points="657,-302.5 657,-332.5 767,-332.5 767,-302.5 657,-302.5"/>
<text text-anchor="start" x="665" y="-320.5" font-family="Helvetica,sans-Serif" font-size="10.00">abstract&#45;machine/klib</text>
<text text-anchor="middle" x="712" y="-309.5" font-family="Helvetica,sans-Serif" font-size="10.00">/src/int64.c</text>
</a>
</g>
</g>
<!-- Node2&#45;&gt;Node33 -->
<g id="edge47" class="edge">
<title>Node2&#45;&gt;Node33</title>
<path fill="none" stroke="midnightblue" d="M666.17,-362.31C676.37,-352.56 688.19,-341.26 697.27,-332.58"/>
<polygon fill="midnightblue" stroke="midnightblue" points="663.57,-359.96 658.75,-369.4 668.4,-365.02 663.57,-359.96"/>
</g>
<!-- Node34 -->
<g id="node34" class="node">
<title>Node34</title>
<g id="a_node34"><a xlink:href="kernel_8h.html" target="_top" xlink:title=" ">
<polygon fill="none" stroke="black" points="511,-308 511,-327 639,-327 639,-308 511,-308"/>
<text text-anchor="middle" x="575" y="-315" font-family="Helvetica,sans-Serif" font-size="10.00">kernel/framework/kernel.h</text>
</a>
</g>
</g>
<!-- Node2&#45;&gt;Node34 -->
<g id="edge50" class="edge">
<title>Node2&#45;&gt;Node34</title>
<path fill="none" stroke="midnightblue" d="M621.53,-362.34C608.86,-350.4 593.72,-336.14 584.23,-327.19"/>
<polygon fill="midnightblue" stroke="midnightblue" points="619.35,-365.09 629.03,-369.4 624.15,-359.99 619.35,-365.09"/>
</g>
<!-- Node4 -->
<g id="node4" class="node">
<title>Node4</title>
<g id="a_node4"><a xlink:href="cte_8c.html" target="_top" xlink:title=" ">
<polygon fill="none" stroke="black" points="1324,-235.5 1324,-265.5 1432,-265.5 1432,-235.5 1324,-235.5"/>
<text text-anchor="start" x="1332" y="-253.5" font-family="Helvetica,sans-Serif" font-size="10.00">abstract&#45;machine/am</text>
<text text-anchor="middle" x="1378" y="-242.5" font-family="Helvetica,sans-Serif" font-size="10.00">/src/x86/qemu/cte.c</text>
</a>
</g>
</g>
<!-- Node3&#45;&gt;Node4 -->
<g id="edge3" class="edge">
<title>Node3&#45;&gt;Node4</title>
<path fill="none" stroke="midnightblue" d="M1420.19,-295.02C1410.8,-285.34 1399.98,-274.17 1391.64,-265.58"/>
<polygon fill="midnightblue" stroke="midnightblue" points="1417.86,-297.65 1427.33,-302.4 1422.88,-292.78 1417.86,-297.65"/>
</g>
<!-- Node5 -->
<g id="node5" class="node">
<title>Node5</title>
<g id="a_node5"><a xlink:href="ioe_8c.html" target="_top" xlink:title=" ">
<polygon fill="none" stroke="black" points="1032,-235.5 1032,-265.5 1140,-265.5 1140,-235.5 1032,-235.5"/>
<text text-anchor="start" x="1040" y="-253.5" font-family="Helvetica,sans-Serif" font-size="10.00">abstract&#45;machine/am</text>
<text text-anchor="middle" x="1086" y="-242.5" font-family="Helvetica,sans-Serif" font-size="10.00">/src/x86/qemu/ioe.c</text>
</a>
</g>
</g>
<!-- Node3&#45;&gt;Node5 -->
<g id="edge4" class="edge">
<title>Node3&#45;&gt;Node5</title>
<path fill="none" stroke="midnightblue" d="M1365.3,-302.64C1297.65,-290.25 1200.21,-272.41 1140.11,-261.41"/>
<polygon fill="midnightblue" stroke="midnightblue" points="1365.01,-306.14 1375.47,-304.5 1366.27,-299.26 1365.01,-306.14"/>
</g>
<!-- Node6 -->
<g id="node6" class="node">
<title>Node6</title>
<g id="a_node6"><a xlink:href="mpe_8c.html" target="_top" xlink:title=" ">
<polygon fill="none" stroke="black" points="1450,-235.5 1450,-265.5 1558,-265.5 1558,-235.5 1450,-235.5"/>
<text text-anchor="start" x="1458" y="-253.5" font-family="Helvetica,sans-Serif" font-size="10.00">abstract&#45;machine/am</text>
<text text-anchor="middle" x="1504" y="-242.5" font-family="Helvetica,sans-Serif" font-size="10.00">/src/x86/qemu/mpe.c</text>
</a>
</g>
</g>
<!-- Node3&#45;&gt;Node6 -->
<g id="edge5" class="edge">
<title>Node3&#45;&gt;Node6</title>
<path fill="none" stroke="midnightblue" d="M1461.81,-295.02C1471.2,-285.34 1482.02,-274.17 1490.36,-265.58"/>
<polygon fill="midnightblue" stroke="midnightblue" points="1459.12,-292.78 1454.67,-302.4 1464.14,-297.65 1459.12,-292.78"/>
</g>
<!-- Node7 -->
<g id="node7" class="node">
<title>Node7</title>
<g id="a_node7"><a xlink:href="trm_8c.html" target="_top" xlink:title=" ">
<polygon fill="none" stroke="black" points="1576,-235.5 1576,-265.5 1684,-265.5 1684,-235.5 1576,-235.5"/>
<text text-anchor="start" x="1584" y="-253.5" font-family="Helvetica,sans-Serif" font-size="10.00">abstract&#45;machine/am</text>
<text text-anchor="middle" x="1630" y="-242.5" font-family="Helvetica,sans-Serif" font-size="10.00">/src/x86/qemu/trm.c</text>
</a>
</g>
</g>
<!-- Node3&#45;&gt;Node7 -->
<g id="edge6" class="edge">
<title>Node3&#45;&gt;Node7</title>
<path fill="none" stroke="midnightblue" d="M1491.62,-299.09C1522.13,-288.6 1560.48,-275.41 1589.07,-265.58"/>
<polygon fill="midnightblue" stroke="midnightblue" points="1490.33,-295.83 1482.01,-302.4 1492.6,-302.45 1490.33,-295.83"/>
</g>
<!-- Node8 -->
<g id="node8" class="node">
<title>Node8</title>
<g id="a_node8"><a xlink:href="vme_8c.html" target="_top" xlink:title=" ">
<polygon fill="none" stroke="black" points="1702,-235.5 1702,-265.5 1810,-265.5 1810,-235.5 1702,-235.5"/>
<text text-anchor="start" x="1710" y="-253.5" font-family="Helvetica,sans-Serif" font-size="10.00">abstract&#45;machine/am</text>
<text text-anchor="middle" x="1756" y="-242.5" font-family="Helvetica,sans-Serif" font-size="10.00">/src/x86/qemu/vme.c</text>
</a>
</g>
</g>
<!-- Node3&#45;&gt;Node8 -->
<g id="edge7" class="edge">
<title>Node3&#45;&gt;Node8</title>
<path fill="none" stroke="midnightblue" d="M1516.74,-301.91C1566.84,-292.11 1633.93,-278.71 1693,-266 1695.85,-265.39 1698.78,-264.75 1701.73,-264.09"/>
<polygon fill="midnightblue" stroke="midnightblue" points="1515.78,-298.53 1506.64,-303.88 1517.12,-305.4 1515.78,-298.53"/>
</g>
<!-- Node9&#45;&gt;Node5 -->
<g id="edge9" class="edge">
<title>Node9&#45;&gt;Node5</title>
<path fill="none" stroke="midnightblue" d="M503.02,-302C716.62,-270.7 774.24,-288.96 985,-266 1000.23,-264.34 1016.7,-262.15 1031.83,-259.97"/>
<polygon fill="midnightblue" stroke="midnightblue" points="502.44,-298.55 493.06,-303.48 503.47,-305.47 502.44,-298.55"/>
</g>
<!-- Node9&#45;&gt;Node10 -->
<g id="edge10" class="edge">
<title>Node9&#45;&gt;Node10</title>
<path fill="none" stroke="midnightblue" d="M373.21,-299.98C331.56,-289.37 278.02,-275.72 238.36,-265.61"/>
<polygon fill="midnightblue" stroke="midnightblue" points="372.43,-303.4 382.98,-302.48 374.16,-296.61 372.43,-303.4"/>
</g>
<!-- Node9&#45;&gt;Node11 -->
<g id="edge11" class="edge">
<title>Node9&#45;&gt;Node11</title>
<path fill="none" stroke="midnightblue" d="M401.3,-297.71C381.27,-287.46 356.88,-274.98 338.5,-265.58"/>
<polygon fill="midnightblue" stroke="midnightblue" points="399.95,-300.96 410.44,-302.4 403.14,-294.72 399.95,-300.96"/>
</g>
<!-- Node9&#45;&gt;Node12 -->
<g id="edge12" class="edge">
<title>Node9&#45;&gt;Node12</title>
<path fill="none" stroke="midnightblue" d="M372.72,-307.45C308.09,-298.19 206.42,-282.8 119,-266 116.09,-265.44 113.11,-264.85 110.11,-264.23"/>
<polygon fill="midnightblue" stroke="midnightblue" points="372.38,-310.94 382.77,-308.88 373.36,-304.01 372.38,-310.94"/>
</g>
<!-- Node13 -->
<g id="node13" class="node">
<title>Node13</title>
<g id="a_node13"><a xlink:href="string_8c.html" target="_top" xlink:title=" ">
<polygon fill="none" stroke="black" points="384,-235.5 384,-265.5 494,-265.5 494,-235.5 384,-235.5"/>
<text text-anchor="start" x="392" y="-253.5" font-family="Helvetica,sans-Serif" font-size="10.00">abstract&#45;machine/klib</text>
<text text-anchor="middle" x="439" y="-242.5" font-family="Helvetica,sans-Serif" font-size="10.00">/src/string.c</text>
</a>
</g>
</g>
<!-- Node9&#45;&gt;Node13 -->
<g id="edge13" class="edge">
<title>Node9&#45;&gt;Node13</title>
<path fill="none" stroke="midnightblue" d="M438.38,-292.11C438.51,-283.15 438.66,-273.32 438.78,-265.58"/>
<polygon fill="midnightblue" stroke="midnightblue" points="434.87,-292.34 438.22,-302.4 441.87,-292.45 434.87,-292.34"/>
</g>
<!-- Node14 -->
<g id="node14" class="node">
<title>Node14</title>
<g id="a_node14"><a xlink:href="main_8c.html" target="_top" xlink:title=" ">
<polygon fill="none" stroke="black" points="512.5,-241 512.5,-260 635.5,-260 635.5,-241 512.5,-241"/>
<text text-anchor="middle" x="574" y="-248" font-family="Helvetica,sans-Serif" font-size="10.00">kernel/framework/main.c</text>
</a>
</g>
</g>
<!-- Node9&#45;&gt;Node14 -->
<g id="edge14" class="edge">
<title>Node9&#45;&gt;Node14</title>
<path fill="none" stroke="midnightblue" d="M476.78,-297.97C502.9,-285.48 536.13,-269.6 556.2,-260.01"/>
<polygon fill="midnightblue" stroke="midnightblue" points="475.02,-294.93 467.51,-302.4 478.04,-301.24 475.02,-294.93"/>
</g>
<!-- Node9&#45;&gt;Node15 -->
<g id="edge15" class="edge">
<title>Node9&#45;&gt;Node15</title>
<path fill="none" stroke="midnightblue" d="M503.08,-301.84C591.83,-284.33 683.75,-269.09 740.57,-260.01"/>
<polygon fill="midnightblue" stroke="midnightblue" points="502.25,-298.44 493.12,-303.82 503.61,-305.31 502.25,-298.44"/>
</g>
<!-- Node16 -->
<g id="node16" class="node">
<title>Node16</title>
<g id="a_node16"><a xlink:href="buddy_8h.html" target="_top" xlink:title=" ">
<polygon fill="none" stroke="black" points="937.5,-179.5 937.5,-198.5 1050.5,-198.5 1050.5,-179.5 937.5,-179.5"/>
<text text-anchor="middle" x="994" y="-186.5" font-family="Helvetica,sans-Serif" font-size="10.00">kernel/include/buddy.h</text>
</a>
</g>
</g>
<!-- Node15&#45;&gt;Node16 -->
<g id="edge16" class="edge">
<title>Node15&#45;&gt;Node16</title>
<path fill="none" stroke="midnightblue" d="M833.37,-238.03C872.04,-226.46 930.84,-208.88 965.54,-198.51"/>
<polygon fill="midnightblue" stroke="midnightblue" points="832.09,-234.76 823.51,-240.98 834.1,-241.46 832.09,-234.76"/>
</g>
<!-- Node17 -->
<g id="node17" class="node">
<title>Node17</title>
<g id="a_node17"><a xlink:href="buddy_8c.html" target="_top" xlink:title="impl of buddy system">
<polygon fill="none" stroke="black" points="952.5,-123.5 952.5,-142.5 1047.5,-142.5 1047.5,-123.5 952.5,-123.5"/>
<text text-anchor="middle" x="1000" y="-130.5" font-family="Helvetica,sans-Serif" font-size="10.00">kernel/src/buddy.c</text>
</a>
</g>
</g>
<!-- Node15&#45;&gt;Node17 -->
<g id="edge34" class="edge">
<title>Node15&#45;&gt;Node17</title>
<path fill="none" stroke="midnightblue" d="M819.05,-236.03C837.19,-225.87 862.67,-211.58 885,-199 920.77,-178.86 962.74,-155.1 984.75,-142.64"/>
<polygon fill="midnightblue" stroke="midnightblue" points="817.31,-233 810.3,-240.94 820.73,-239.1 817.31,-233"/>
</g>
<!-- Node18 -->
<g id="node18" class="node">
<title>Node18</title>
<g id="a_node18"><a xlink:href="pmm_8c.html" target="_top" xlink:title=" ">
<polygon fill="none" stroke="black" points="1071,-123.5 1071,-142.5 1163,-142.5 1163,-123.5 1071,-123.5"/>
<text text-anchor="middle" x="1117" y="-130.5" font-family="Helvetica,sans-Serif" font-size="10.00">kernel/src/pmm.c</text>
</a>
</g>
</g>
<!-- Node15&#45;&gt;Node18 -->
<g id="edge37" class="edge">
<title>Node15&#45;&gt;Node18</title>
<path fill="none" stroke="midnightblue" d="M846.74,-238.99C853.55,-237.63 860.44,-236.27 867,-235 952.66,-218.39 984.17,-242.18 1060,-199 1084.26,-185.19 1103.36,-157.13 1111.99,-142.82"/>
<polygon fill="midnightblue" stroke="midnightblue" points="845.98,-235.57 836.86,-240.96 847.35,-242.43 845.98,-235.57"/>
</g>
<!-- Node19 -->
<g id="node19" class="node">
<title>Node19</title>
<g id="a_node19"><a xlink:href="devices_8h.html" target="_top" xlink:title=" ">
<polygon fill="none" stroke="black" points="686.5,-67.5 686.5,-86.5 807.5,-86.5 807.5,-67.5 686.5,-67.5"/>
<text text-anchor="middle" x="747" y="-74.5" font-family="Helvetica,sans-Serif" font-size="10.00">kernel/include/devices.h</text>
</a>
</g>
</g>
<!-- Node15&#45;&gt;Node19 -->
<g id="edge19" class="edge">
<title>Node15&#45;&gt;Node19</title>
<path fill="none" stroke="midnightblue" d="M818.37,-235.31C845.12,-217.55 887.47,-184.38 905,-143 908.47,-134.82 910.36,-130.09 905,-123 892.41,-106.33 842.49,-94 802.08,-86.5"/>
<polygon fill="midnightblue" stroke="midnightblue" points="816.15,-232.58 809.63,-240.94 819.94,-238.47 816.15,-232.58"/>
</g>
<!-- Node25 -->
<g id="node25" class="node">
<title>Node25</title>
<g id="a_node25"><a xlink:href="spinlock_8h.html" target="_top" xlink:title=" ">
<polygon fill="none" stroke="black" points="597.5,-179.5 597.5,-198.5 720.5,-198.5 720.5,-179.5 597.5,-179.5"/>
<text text-anchor="middle" x="659" y="-186.5" font-family="Helvetica,sans-Serif" font-size="10.00">kernel/include/spinlock.h</text>
</a>
</g>
</g>
<!-- Node15&#45;&gt;Node25 -->
<g id="edge25" class="edge">
<title>Node15&#45;&gt;Node25</title>
<path fill="none" stroke="midnightblue" d="M766.03,-236.83C739.63,-225.28 701.36,-208.53 678.45,-198.51"/>
<polygon fill="midnightblue" stroke="midnightblue" points="764.95,-240.17 775.51,-240.98 767.76,-233.76 764.95,-240.17"/>
</g>
<!-- Node26 -->
<g id="node26" class="node">
<title>Node26</title>
<g id="a_node26"><a xlink:href="thread_8h.html" target="_top" xlink:title=" ">
<polygon fill="none" stroke="black" points="782,-123.5 782,-142.5 896,-142.5 896,-123.5 782,-123.5"/>
<text text-anchor="middle" x="839" y="-130.5" font-family="Helvetica,sans-Serif" font-size="10.00">kernel/include/thread.h</text>
</a>
</g>
</g>
<!-- Node15&#45;&gt;Node26 -->
<g id="edge33" class="edge">
<title>Node15&#45;&gt;Node26</title>
<path fill="none" stroke="midnightblue" d="M800.77,-231.09C805.37,-216.77 812.16,-196.46 819,-179 824.05,-166.1 830.72,-151.51 834.93,-142.53"/>
<polygon fill="midnightblue" stroke="midnightblue" points="797.4,-230.14 797.71,-240.73 804.07,-232.25 797.4,-230.14"/>
</g>
<!-- Node27 -->
<g id="node27" class="node">
<title>Node27</title>
<g id="a_node27"><a xlink:href="kmt_8c.html" target="_top" xlink:title=" ">
<polygon fill="none" stroke="black" points="445,-67.5 445,-86.5 531,-86.5 531,-67.5 445,-67.5"/>
<text text-anchor="middle" x="488" y="-74.5" font-family="Helvetica,sans-Serif" font-size="10.00">kernel/src/kmt.c</text>
</a>
</g>
</g>
<!-- Node15&#45;&gt;Node27 -->
<g id="edge35" class="edge">
<title>Node15&#45;&gt;Node27</title>
<path fill="none" stroke="midnightblue" d="M732.01,-239.09C690.42,-231.01 635.27,-217.96 589,-199 544,-180.56 521.26,-183.93 495,-143 483.85,-125.61 485.01,-100.1 486.62,-86.8"/>
<polygon fill="midnightblue" stroke="midnightblue" points="731.53,-242.57 742.01,-240.99 732.84,-235.69 731.53,-242.57"/>
</g>
<!-- Node28 -->
<g id="node28" class="node">
<title>Node28</title>
<g id="a_node28"><a xlink:href="os_8c.html" target="_top" xlink:title=" ">
<polygon fill="none" stroke="black" points="684,-123.5 684,-142.5 764,-142.5 764,-123.5 684,-123.5"/>
<text text-anchor="middle" x="724" y="-130.5" font-family="Helvetica,sans-Serif" font-size="10.00">kernel/src/os.c</text>
</a>
</g>
</g>
<!-- Node15&#45;&gt;Node28 -->
<g id="edge36" class="edge">
<title>Node15&#45;&gt;Node28</title>
<path fill="none" stroke="midnightblue" d="M784.25,-232.01C768.85,-206.96 741.07,-161.77 729.4,-142.78"/>
<polygon fill="midnightblue" stroke="midnightblue" points="781.44,-234.13 789.66,-240.82 787.41,-230.47 781.44,-234.13"/>
</g>
<!-- Node16&#45;&gt;Node17 -->
<g id="edge17" class="edge">
<title>Node16&#45;&gt;Node17</title>
<path fill="none" stroke="midnightblue" d="M996.1,-169.1C997.1,-160.14 998.24,-149.86 999.03,-142.75"/>
<polygon fill="midnightblue" stroke="midnightblue" points="992.62,-168.76 994.99,-179.08 999.57,-169.53 992.62,-168.76"/>
</g>
<!-- Node16&#45;&gt;Node18 -->
<g id="edge18" class="edge">
<title>Node16&#45;&gt;Node18</title>
<path fill="none" stroke="midnightblue" d="M1022.77,-175.37C1045.81,-165.26 1077.48,-151.35 1097.6,-142.52"/>
<polygon fill="midnightblue" stroke="midnightblue" points="1021.24,-172.22 1013.49,-179.44 1024.05,-178.63 1021.24,-172.22"/>
</g>
<!-- Node20 -->
<g id="node20" class="node">
<title>Node20</title>
<g id="a_node20"><a xlink:href="dev_8c.html" target="_top" xlink:title=" ">
<polygon fill="none" stroke="black" points="450,-6 450,-25 554,-25 554,-6 450,-6"/>
<text text-anchor="middle" x="502" y="-13" font-family="Helvetica,sans-Serif" font-size="10.00">kernel/src/dev/dev.c</text>
</a>
</g>
</g>
<!-- Node19&#45;&gt;Node20 -->
<g id="edge20" class="edge">
<title>Node19&#45;&gt;Node20</title>
<path fill="none" stroke="midnightblue" d="M702.17,-65.11C654.62,-53.57 580.49,-35.56 537.04,-25.01"/>
<polygon fill="midnightblue" stroke="midnightblue" points="701.35,-68.52 711.9,-67.48 703.01,-61.71 701.35,-68.52"/>
</g>
<!-- Node21 -->
<g id="node21" class="node">
<title>Node21</title>
<g id="a_node21"><a xlink:href="dev__input_8c.html" target="_top" xlink:title=" ">
<polygon fill="none" stroke="black" points="572.5,-0.5 572.5,-30.5 669.5,-30.5 669.5,-0.5 572.5,-0.5"/>
<text text-anchor="start" x="580.5" y="-18.5" font-family="Helvetica,sans-Serif" font-size="10.00">kernel/src/dev/dev</text>
<text text-anchor="middle" x="621" y="-7.5" font-family="Helvetica,sans-Serif" font-size="10.00">_input.c</text>
</a>
</g>
</g>
<!-- Node19&#45;&gt;Node21 -->
<g id="edge21" class="edge">
<title>Node19&#45;&gt;Node21</title>
<path fill="none" stroke="midnightblue" d="M719.89,-63.2C699.53,-53.58 671.66,-40.42 650.7,-30.52"/>
<polygon fill="midnightblue" stroke="midnightblue" points="718.41,-66.37 728.95,-67.48 721.4,-60.04 718.41,-66.37"/>
</g>
<!-- Node22 -->
<g id="node22" class="node">
<title>Node22</title>
<g id="a_node22"><a xlink:href="dev__sd_8c.html" target="_top" xlink:title=" ">
<polygon fill="none" stroke="black" points="687,-6 687,-25 807,-25 807,-6 687,-6"/>
<text text-anchor="middle" x="747" y="-13" font-family="Helvetica,sans-Serif" font-size="10.00">kernel/src/dev/dev_sd.c</text>
</a>
</g>
</g>
<!-- Node19&#45;&gt;Node22 -->
<g id="edge22" class="edge">
<title>Node19&#45;&gt;Node22</title>
<path fill="none" stroke="midnightblue" d="M747,-57.32C747,-46.5 747,-33.4 747,-25.01"/>
<polygon fill="midnightblue" stroke="midnightblue" points="743.5,-57.48 747,-67.48 750.5,-57.48 743.5,-57.48"/>
</g>
<!-- Node23 -->
<g id="node23" class="node">
<title>Node23</title>
<g id="a_node23"><a xlink:href="dev__tty_8c.html" target="_top" xlink:title=" ">
<polygon fill="none" stroke="black" points="824.5,-0.5 824.5,-30.5 921.5,-30.5 921.5,-0.5 824.5,-0.5"/>
<text text-anchor="start" x="832.5" y="-18.5" font-family="Helvetica,sans-Serif" font-size="10.00">kernel/src/dev/dev</text>
<text text-anchor="middle" x="873" y="-7.5" font-family="Helvetica,sans-Serif" font-size="10.00">_tty.c</text>
</a>
</g>
</g>
<!-- Node19&#45;&gt;Node23 -->
<g id="edge23" class="edge">
<title>Node19&#45;&gt;Node23</title>
<path fill="none" stroke="midnightblue" d="M774.11,-63.2C794.47,-53.58 822.34,-40.42 843.3,-30.52"/>
<polygon fill="midnightblue" stroke="midnightblue" points="772.6,-60.04 765.05,-67.48 775.59,-66.37 772.6,-60.04"/>
</g>
<!-- Node24 -->
<g id="node24" class="node">
<title>Node24</title>
<g id="a_node24"><a xlink:href="dev__video_8c.html" target="_top" xlink:title=" ">
<polygon fill="none" stroke="black" points="939.5,-0.5 939.5,-30.5 1036.5,-30.5 1036.5,-0.5 939.5,-0.5"/>
<text text-anchor="start" x="947.5" y="-18.5" font-family="Helvetica,sans-Serif" font-size="10.00">kernel/src/dev/dev</text>
<text text-anchor="middle" x="988" y="-7.5" font-family="Helvetica,sans-Serif" font-size="10.00">_video.c</text>
</a>
</g>
</g>
<!-- Node19&#45;&gt;Node24 -->
<g id="edge24" class="edge">
<title>Node19&#45;&gt;Node24</title>
<path fill="none" stroke="midnightblue" d="M792.34,-65.04C829.6,-55.99 883.75,-42.79 931,-31 933.77,-30.31 936.62,-29.59 939.5,-28.87"/>
<polygon fill="midnightblue" stroke="midnightblue" points="791.19,-61.71 782.3,-67.47 792.84,-68.51 791.19,-61.71"/>
</g>
<!-- Node25&#45;&gt;Node19 -->
<g id="edge26" class="edge">
<title>Node25&#45;&gt;Node19</title>
<path fill="none" stroke="midnightblue" d="M659.93,-168.82C661.45,-154.95 665.31,-136.38 675,-123 687.36,-105.93 708.38,-93.89 724.53,-86.58"/>
<polygon fill="midnightblue" stroke="midnightblue" points="656.41,-168.9 659.13,-179.14 663.39,-169.44 656.41,-168.9"/>
</g>
<!-- Node25&#45;&gt;Node26 -->
<g id="edge27" class="edge">
<title>Node25&#45;&gt;Node26</title>
<path fill="none" stroke="midnightblue" d="M697.11,-176.57C731.06,-166.38 779.99,-151.7 810.61,-142.52"/>
<polygon fill="midnightblue" stroke="midnightblue" points="696.09,-173.22 687.52,-179.44 698.11,-179.92 696.09,-173.22"/>
</g>
<!-- Node25&#45;&gt;Node27 -->
<g id="edge30" class="edge">
<title>Node25&#45;&gt;Node27</title>
<path fill="none" stroke="midnightblue" d="M587.5,-179.28C561.37,-172.92 533.28,-161.94 513,-143 496.74,-127.81 490.94,-100.88 488.96,-86.93"/>
<polygon fill="midnightblue" stroke="midnightblue" points="586.88,-182.72 597.4,-181.49 588.41,-175.89 586.88,-182.72"/>
</g>
<!-- Node25&#45;&gt;Node28 -->
<g id="edge31" class="edge">
<title>Node25&#45;&gt;Node28</title>
<path fill="none" stroke="midnightblue" d="M677.27,-172.82C688.92,-163.15 703.6,-150.95 713.37,-142.83"/>
<polygon fill="midnightblue" stroke="midnightblue" points="674.9,-170.24 669.44,-179.32 679.37,-175.63 674.9,-170.24"/>
</g>
<!-- Node29 -->
<g id="node29" class="node">
<title>Node29</title>
<g id="a_node29"><a xlink:href="spinlock_8c.html" target="_top" xlink:title=" ">
<polygon fill="none" stroke="black" points="522,-123.5 522,-142.5 628,-142.5 628,-123.5 522,-123.5"/>
<text text-anchor="middle" x="575" y="-130.5" font-family="Helvetica,sans-Serif" font-size="10.00">kernel/src/spinlock.c</text>
</a>
</g>
</g>
<!-- Node25&#45;&gt;Node29 -->
<g id="edge32" class="edge">
<title>Node25&#45;&gt;Node29</title>
<path fill="none" stroke="midnightblue" d="M637.07,-173.9C621.66,-164 601.55,-151.07 588.46,-142.65"/>
<polygon fill="midnightblue" stroke="midnightblue" points="635.2,-176.86 645.5,-179.32 638.98,-170.97 635.2,-176.86"/>
</g>
<!-- Node26&#45;&gt;Node19 -->
<g id="edge28" class="edge">
<title>Node26&#45;&gt;Node19</title>
<path fill="none" stroke="midnightblue" d="M815.45,-118.18C798.52,-108.24 776.22,-95.15 761.74,-86.65"/>
<polygon fill="midnightblue" stroke="midnightblue" points="813.82,-121.28 824.22,-123.32 817.37,-115.24 813.82,-121.28"/>
</g>
<!-- Node26&#45;&gt;Node27 -->
<g id="edge29" class="edge">
<title>Node26&#45;&gt;Node27</title>
<path fill="none" stroke="midnightblue" d="M773.23,-121.88C702.4,-110.98 591.74,-93.96 531.19,-84.64"/>
<polygon fill="midnightblue" stroke="midnightblue" points="772.97,-125.38 783.38,-123.44 774.03,-118.46 772.97,-125.38"/>
</g>
<!-- Node30&#45;&gt;Node15 -->
<g id="edge40" class="edge">
<title>Node30&#45;&gt;Node15</title>
<path fill="none" stroke="midnightblue" d="M918.67,-298.78C885.7,-286.18 842.88,-269.81 817.25,-260.01"/>
<polygon fill="midnightblue" stroke="midnightblue" points="917.52,-302.09 928.11,-302.4 920.02,-295.56 917.52,-302.09"/>
</g>
<!-- Node30&#45;&gt;Node17 -->
<g id="edge44" class="edge">
<title>Node30&#45;&gt;Node17</title>
<path fill="none" stroke="midnightblue" d="M979.57,-293.76C990.72,-276.94 1006.88,-253.8 1023,-235 1037.93,-217.58 1051.07,-220.14 1060,-199 1063.46,-190.81 1063.98,-186.95 1060,-179 1051.56,-162.11 1033.43,-149.92 1019.3,-142.52"/>
<polygon fill="midnightblue" stroke="midnightblue" points="976.48,-292.1 973.92,-302.38 982.33,-295.93 976.48,-292.1"/>
</g>
<!-- Node30&#45;&gt;Node18 -->
<g id="edge45" class="edge">
<title>Node30&#45;&gt;Node18</title>
<path fill="none" stroke="midnightblue" d="M1030.24,-307.08C1077.08,-298.83 1134.4,-285.14 1149,-266 1178.45,-227.37 1139.78,-165.44 1123.56,-142.72"/>
<polygon fill="midnightblue" stroke="midnightblue" points="1029.39,-303.67 1020.12,-308.81 1030.57,-310.57 1029.39,-303.67"/>
</g>
<!-- Node31 -->
<g id="node31" class="node">
<title>Node31</title>
<g id="a_node31"><a xlink:href="logger_8c.html" target="_top" xlink:title=" ">
<polygon fill="none" stroke="black" points="1196,-235.5 1196,-265.5 1306,-265.5 1306,-235.5 1196,-235.5"/>
<text text-anchor="start" x="1204" y="-253.5" font-family="Helvetica,sans-Serif" font-size="10.00">abstract&#45;machine/klib</text>
<text text-anchor="middle" x="1251" y="-242.5" font-family="Helvetica,sans-Serif" font-size="10.00">/src/logger.c</text>
</a>
</g>
</g>
<!-- Node30&#45;&gt;Node31 -->
<g id="edge39" class="edge">
<title>Node30&#45;&gt;Node31</title>
<path fill="none" stroke="midnightblue" d="M1030.19,-301.68C1080.11,-290.34 1148.22,-274.86 1195.54,-264.1"/>
<polygon fill="midnightblue" stroke="midnightblue" points="1029.12,-298.34 1020.14,-303.97 1030.67,-305.16 1029.12,-298.34"/>
</g>
<!-- Node32 -->
<g id="node32" class="node">
<title>Node32</title>
<g id="a_node32"><a xlink:href="list_8h.html" target="_top" xlink:title="double circular linked list impl without concurrency">
<polygon fill="none" stroke="black" points="876,-241 876,-260 976,-260 976,-241 876,-241"/>
<text text-anchor="middle" x="926" y="-248" font-family="Helvetica,sans-Serif" font-size="10.00">kernel/include/list.h</text>
</a>
</g>
</g>
<!-- Node30&#45;&gt;Node32 -->
<g id="edge41" class="edge">
<title>Node30&#45;&gt;Node32</title>
<path fill="none" stroke="midnightblue" d="M951.28,-293.63C944.34,-282.07 936.33,-268.71 931.22,-260.19"/>
<polygon fill="midnightblue" stroke="midnightblue" points="948.39,-295.62 956.54,-302.4 954.39,-292.02 948.39,-295.62"/>
</g>
<!-- Node32&#45;&gt;Node16 -->
<g id="edge42" class="edge">
<title>Node32&#45;&gt;Node16</title>
<path fill="none" stroke="midnightblue" d="M943.54,-234.15C956.51,-222.81 973.68,-207.78 984.28,-198.51"/>
<polygon fill="midnightblue" stroke="midnightblue" points="940.96,-231.76 935.74,-240.98 945.57,-237.02 940.96,-231.76"/>
</g>
<!-- Node32&#45;&gt;Node26 -->
<g id="edge43" class="edge">
<title>Node32&#45;&gt;Node26</title>
<path fill="none" stroke="midnightblue" d="M913.33,-232.67C894.56,-207.76 860.05,-161.94 845.62,-142.78"/>
<polygon fill="midnightblue" stroke="midnightblue" points="910.65,-234.94 919.46,-240.82 916.24,-230.73 910.65,-234.94"/>
</g>
<!-- Node34&#45;&gt;Node14 -->
<g id="edge51" class="edge">
<title>Node34&#45;&gt;Node14</title>
<path fill="none" stroke="midnightblue" d="M574.71,-297.54C574.52,-285.17 574.28,-269.62 574.13,-260.13"/>
<polygon fill="midnightblue" stroke="midnightblue" points="571.21,-297.79 574.87,-307.73 578.21,-297.68 571.21,-297.79"/>
</g>
<!-- Node34&#45;&gt;Node15 -->
<g id="edge52" class="edge">
<title>Node34&#45;&gt;Node15</title>
<path fill="none" stroke="midnightblue" d="M613.89,-305.01C657.43,-292.15 726.99,-271.59 766.02,-260.06"/>
<polygon fill="midnightblue" stroke="midnightblue" points="612.81,-301.68 604.21,-307.87 614.8,-308.39 612.81,-301.68"/>
</g>
<!-- Node35 -->
<g id="node35" class="node">
<title>Node35</title>
<g id="a_node35"><a xlink:href="sem_8h.html" target="_top" xlink:title=" ">
<polygon fill="none" stroke="black" points="322,-123.5 322,-142.5 428,-142.5 428,-123.5 322,-123.5"/>
<text text-anchor="middle" x="375" y="-130.5" font-family="Helvetica,sans-Serif" font-size="10.00">kernel/include/sem.h</text>
</a>
</g>
</g>
<!-- Node34&#45;&gt;Node35 -->
<g id="edge53" class="edge">
<title>Node34&#45;&gt;Node35</title>
<path fill="none" stroke="midnightblue" d="M600.98,-302.97C628.15,-287.05 664.34,-259.65 645,-235 603.48,-182.08 560.88,-222.89 498,-199 456.23,-183.13 410.6,-156.25 388.5,-142.56"/>
<polygon fill="midnightblue" stroke="midnightblue" points="599.2,-299.95 592.21,-307.91 602.64,-306.05 599.2,-299.95"/>
</g>
<!-- Node35&#45;&gt;Node19 -->
<g id="edge54" class="edge">
<title>Node35&#45;&gt;Node19</title>
<path fill="none" stroke="midnightblue" d="M438.31,-122.81C508.32,-112.65 620.17,-96.41 688.28,-86.52"/>
<polygon fill="midnightblue" stroke="midnightblue" points="437.69,-119.36 428.3,-124.26 438.7,-126.29 437.69,-119.36"/>
</g>
<!-- Node35&#45;&gt;Node27 -->
<g id="edge55" class="edge">
<title>Node35&#45;&gt;Node27</title>
<path fill="none" stroke="midnightblue" d="M402,-119.1C423.11,-109.01 451.86,-95.27 470.18,-86.52"/>
<polygon fill="midnightblue" stroke="midnightblue" points="400.42,-115.97 392.91,-123.44 403.44,-122.29 400.42,-115.97"/>
</g>
<!-- Node36 -->
<g id="node36" class="node">
<title>Node36</title>
<g id="a_node36"><a xlink:href="sem_8c.html" target="_top" xlink:title=" ">
<polygon fill="none" stroke="black" points="330.5,-67.5 330.5,-86.5 419.5,-86.5 419.5,-67.5 330.5,-67.5"/>
<text text-anchor="middle" x="375" y="-74.5" font-family="Helvetica,sans-Serif" font-size="10.00">kernel/src/sem.c</text>
</a>
</g>
</g>
<!-- Node35&#45;&gt;Node36 -->
<g id="edge56" class="edge">
<title>Node35&#45;&gt;Node36</title>
<path fill="none" stroke="midnightblue" d="M375,-112.8C375,-103.91 375,-93.78 375,-86.75"/>
<polygon fill="midnightblue" stroke="midnightblue" points="371.5,-113.08 375,-123.08 378.5,-113.08 371.5,-113.08"/>
</g>
</g>
</svg>
