<?xml version="1.0" encoding="UTF-8" standalone="no"?>
<!DOCTYPE svg PUBLIC "-//W3C//DTD SVG 1.1//EN"
 "http://www.w3.org/Graphics/SVG/1.1/DTD/svg11.dtd">
<!-- Generated by graphviz version 2.50.0 (20220203.2022)
 -->
<!-- Title: __attribute__ Pages: 1 -->
<svg width="788pt" height="66pt"
 viewBox="0.00 0.00 788.00 66.00" xmlns="http://www.w3.org/2000/svg" xmlns:xlink="http://www.w3.org/1999/xlink">
<g id="graph0" class="graph" transform="scale(1 1) rotate(0) translate(4 62)">
<title>__attribute__</title>
<!-- Node1 -->
<g id="node1" class="node">
<title>Node1</title>
<g id="a_node1"><a xlink:title=" ">
<polygon fill="#bfbfbf" stroke="black" points="707,-19.5 707,-38.5 780,-38.5 780,-19.5 707,-19.5"/>
<text text-anchor="middle" x="743.5" y="-26.5" font-family="Helvetica,sans-Serif" font-size="10.00">__attribute__</text>
</a>
</g>
</g>
<!-- Node2 -->
<g id="node2" class="node">
<title>Node2</title>
<g id="a_node2"><a xlink:href="x86_8h.html#a4dc007b346b1364320af9d9e1c105455" target="_top" xlink:title=" ">
<polygon fill="none" stroke="black" points="622,-38.5 622,-57.5 671,-57.5 671,-38.5 622,-38.5"/>
<text text-anchor="middle" x="646.5" y="-45.5" font-family="Helvetica,sans-Serif" font-size="10.00">set_gdt</text>
</a>
</g>
</g>
<!-- Node1&#45;&gt;Node2 -->
<g id="edge1" class="edge">
<title>Node1&#45;&gt;Node2</title>
<path fill="none" stroke="midnightblue" d="M696.92,-38.12C688.03,-39.89 679.05,-41.69 671.23,-43.25"/>
<polygon fill="midnightblue" stroke="midnightblue" points="697.74,-41.52 706.86,-36.13 696.36,-34.66 697.74,-41.52"/>
</g>
<!-- Node9 -->
<g id="node9" class="node">
<title>Node9</title>
<g id="a_node9"><a xlink:href="x86_8h.html#aec7546614338d8b90023fa2805432e22" target="_top" xlink:title=" ">
<polygon fill="none" stroke="black" points="623.5,-0.5 623.5,-19.5 669.5,-19.5 669.5,-0.5 623.5,-0.5"/>
<text text-anchor="middle" x="646.5" y="-7.5" font-family="Helvetica,sans-Serif" font-size="10.00">set_idt</text>
</a>
</g>
</g>
<!-- Node1&#45;&gt;Node9 -->
<g id="edge9" class="edge">
<title>Node1&#45;&gt;Node9</title>
<path fill="none" stroke="midnightblue" d="M696.99,-19.9C687.43,-17.99 677.76,-16.05 669.54,-14.41"/>
<polygon fill="midnightblue" stroke="midnightblue" points="696.36,-23.34 706.86,-21.87 697.74,-16.48 696.36,-23.34"/>
</g>
<!-- Node3 -->
<g id="node3" class="node">
<title>Node3</title>
<g id="a_node3"><a xlink:href="trm_8c.html#a30657d927e0438fe41ba851aa9d7bc31" target="_top" xlink:title=" ">
<polygon fill="none" stroke="black" points="479,-38.5 479,-57.5 586,-57.5 586,-38.5 479,-38.5"/>
<text text-anchor="middle" x="532.5" y="-45.5" font-family="Helvetica,sans-Serif" font-size="10.00">__am_percpu_initgdt</text>
</a>
</g>
</g>
<!-- Node2&#45;&gt;Node3 -->
<g id="edge2" class="edge">
<title>Node2&#45;&gt;Node3</title>
<path fill="none" stroke="midnightblue" d="M611.68,-48C603.65,-48 594.9,-48 586.25,-48"/>
<polygon fill="midnightblue" stroke="midnightblue" points="611.75,-51.5 621.75,-48 611.75,-44.5 611.75,-51.5"/>
</g>
<!-- Node4 -->
<g id="node4" class="node">
<title>Node4</title>
<g id="a_node4"><a xlink:href="trm_8c.html#abac650c2a0dd8b7f13349871fd6ab6ee" target="_top" xlink:title=" ">
<polygon fill="none" stroke="black" points="350,-19.5 350,-38.5 443,-38.5 443,-19.5 350,-19.5"/>
<text text-anchor="middle" x="396.5" y="-26.5" font-family="Helvetica,sans-Serif" font-size="10.00">__am_percpu_init</text>
</a>
</g>
</g>
<!-- Node3&#45;&gt;Node4 -->
<g id="edge3" class="edge">
<title>Node3&#45;&gt;Node4</title>
<path fill="none" stroke="midnightblue" d="M468.91,-39.13C460.32,-37.91 451.63,-36.67 443.4,-35.51"/>
<polygon fill="midnightblue" stroke="midnightblue" points="468.53,-42.61 478.92,-40.55 469.51,-35.68 468.53,-42.61"/>
</g>
<!-- Node5 -->
<g id="node5" class="node">
<title>Node5</title>
<g id="a_node5"><a xlink:href="trm_8c.html#a75e130ff99ad31f9a1df206b5ff8252a" target="_top" xlink:title=" ">
<polygon fill="none" stroke="black" points="94,-38.5 94,-57.5 192,-57.5 192,-38.5 94,-38.5"/>
<text text-anchor="middle" x="143" y="-45.5" font-family="Helvetica,sans-Serif" font-size="10.00">__am_bootcpu_init</text>
</a>
</g>
</g>
<!-- Node4&#45;&gt;Node5 -->
<g id="edge4" class="edge">
<title>Node4&#45;&gt;Node5</title>
<path fill="none" stroke="midnightblue" d="M339.94,-33.2C295.7,-36.54 234.4,-41.17 192.2,-44.36"/>
<polygon fill="midnightblue" stroke="midnightblue" points="340.25,-36.68 349.96,-32.44 339.72,-29.7 340.25,-36.68"/>
</g>
<!-- Node7 -->
<g id="node7" class="node">
<title>Node7</title>
<g id="a_node7"><a xlink:href="mpe_8c.html#aec8f7f25be4263648b704092672a566b" target="_top" xlink:title=" ">
<polygon fill="none" stroke="black" points="234,-0.5 234,-19.5 314,-19.5 314,-0.5 234,-0.5"/>
<text text-anchor="middle" x="274" y="-7.5" font-family="Helvetica,sans-Serif" font-size="10.00">othercpu_entry</text>
</a>
</g>
</g>
<!-- Node4&#45;&gt;Node7 -->
<g id="edge6" class="edge">
<title>Node4&#45;&gt;Node7</title>
<path fill="none" stroke="midnightblue" d="M339.9,-20.23C331.26,-18.87 322.49,-17.49 314.31,-16.2"/>
<polygon fill="midnightblue" stroke="midnightblue" points="339.52,-23.72 349.94,-21.82 340.61,-16.8 339.52,-23.72"/>
</g>
<!-- Node6 -->
<g id="node6" class="node">
<title>Node6</title>
<g id="a_node6"><a xlink:href="trm_8c.html#a54a85aeee6f6a8ef875d4cca663f9fd8" target="_top" xlink:title=" ">
<polygon fill="none" stroke="black" points="0,-19.5 0,-38.5 52,-38.5 52,-19.5 0,-19.5"/>
<text text-anchor="middle" x="26" y="-26.5" font-family="Helvetica,sans-Serif" font-size="10.00">_start_c</text>
</a>
</g>
</g>
<!-- Node5&#45;&gt;Node6 -->
<g id="edge5" class="edge">
<title>Node5&#45;&gt;Node6</title>
<path fill="none" stroke="midnightblue" d="M84.03,-38.42C72.75,-36.56 61.5,-34.7 52.01,-33.13"/>
<polygon fill="midnightblue" stroke="midnightblue" points="83.46,-41.88 93.9,-40.05 84.6,-34.97 83.46,-41.88"/>
</g>
<!-- Node8 -->
<g id="node8" class="node">
<title>Node8</title>
<g id="a_node8"><a xlink:href="mpe_8c.html#af9524b1c09898b69d9980310682a8bea" target="_top" xlink:title=" ">
<polygon fill="none" stroke="black" points="88,-0.5 88,-19.5 198,-19.5 198,-0.5 88,-0.5"/>
<text text-anchor="middle" x="143" y="-7.5" font-family="Helvetica,sans-Serif" font-size="10.00">__am_othercpu_entry</text>
</a>
</g>
</g>
<!-- Node7&#45;&gt;Node8 -->
<g id="edge7" class="edge">
<title>Node7&#45;&gt;Node8</title>
<path fill="none" stroke="midnightblue" d="M223.9,-10C215.48,-10 206.69,-10 198.15,-10"/>
<polygon fill="midnightblue" stroke="midnightblue" points="223.95,-13.5 233.95,-10 223.95,-6.5 223.95,-13.5"/>
</g>
<!-- Node8&#45;&gt;Node6 -->
<g id="edge8" class="edge">
<title>Node8&#45;&gt;Node6</title>
<path fill="none" stroke="midnightblue" d="M77.93,-20.59C68.82,-22.09 59.92,-23.56 52.19,-24.84"/>
<polygon fill="midnightblue" stroke="midnightblue" points="78.57,-24.03 87.87,-18.94 77.43,-17.12 78.57,-24.03"/>
</g>
<!-- Node10 -->
<g id="node10" class="node">
<title>Node10</title>
<g id="a_node10"><a xlink:href="cte_8c.html#adb128cbf8cb1844d1fef62c3647a3f25" target="_top" xlink:title=" ">
<polygon fill="none" stroke="black" points="480.5,-0.5 480.5,-19.5 584.5,-19.5 584.5,-0.5 480.5,-0.5"/>
<text text-anchor="middle" x="532.5" y="-7.5" font-family="Helvetica,sans-Serif" font-size="10.00">__am_percpu_initirq</text>
</a>
</g>
</g>
<!-- Node9&#45;&gt;Node10 -->
<g id="edge10" class="edge">
<title>Node9&#45;&gt;Node10</title>
<path fill="none" stroke="midnightblue" d="M613.12,-10C604.26,-10 594.43,-10 584.79,-10"/>
<polygon fill="midnightblue" stroke="midnightblue" points="613.37,-13.5 623.37,-10 613.37,-6.5 613.37,-13.5"/>
</g>
<!-- Node10&#45;&gt;Node4 -->
<g id="edge11" class="edge">
<title>Node10&#45;&gt;Node4</title>
<path fill="none" stroke="midnightblue" d="M470.55,-18.64C461.33,-19.95 451.95,-21.28 443.13,-22.53"/>
<polygon fill="midnightblue" stroke="midnightblue" points="471.05,-22.11 480.46,-17.24 470.07,-15.18 471.05,-22.11"/>
</g>
</g>
</svg>
