<?xml version="1.0" encoding="UTF-8" standalone="no"?>
<!DOCTYPE svg PUBLIC "-//W3C//DTD SVG 1.1//EN"
 "http://www.w3.org/Graphics/SVG/1.1/DTD/svg11.dtd">
<!-- Generated by graphviz version 3.0.0 (20220413.0106)
 -->
<!-- Title: abstract&#45;machine/am/include/amdev.h Pages: 1 -->
<svg width="1855pt" height="531pt"
 viewBox="0.00 0.00 1855.00 531.00" xmlns="http://www.w3.org/2000/svg" xmlns:xlink="http://www.w3.org/1999/xlink">
<g id="graph0" class="graph" transform="scale(1 1) rotate(0) translate(4 527)">
<title>abstract&#45;machine/am/include/amdev.h</title>
<!-- Node1 -->
<g id="node1" class="node">
<title>Node1</title>
<g id="a_node1"><a xlink:title=" ">
<polygon fill="#bfbfbf" stroke="black" points="772,-492.5 772,-522.5 880,-522.5 880,-492.5 772,-492.5"/>
<text text-anchor="start" x="780" y="-510.5" font-family="Helvetica,sans-Serif" font-size="10.00">abstract&#45;machine/am</text>
<text text-anchor="middle" x="826" y="-499.5" font-family="Helvetica,sans-Serif" font-size="10.00">/include/amdev.h</text>
</a>
</g>
</g>
<!-- Node2 -->
<g id="node2" class="node">
<title>Node2</title>
<g id="a_node2"><a xlink:href="am_8h.html" target="_top" xlink:title=" ">
<polygon fill="none" stroke="black" points="689,-425.5 689,-455.5 797,-455.5 797,-425.5 689,-425.5"/>
<text text-anchor="start" x="697" y="-443.5" font-family="Helvetica,sans-Serif" font-size="10.00">abstract&#45;machine/am</text>
<text text-anchor="middle" x="743" y="-432.5" font-family="Helvetica,sans-Serif" font-size="10.00">/include/am.h</text>
</a>
</g>
</g>
<!-- Node1&#45;&gt;Node2 -->
<g id="edge1" class="edge">
<title>Node1&#45;&gt;Node2</title>
<path fill="none" stroke="midnightblue" d="M800.04,-486.17C787.35,-476.23 772.39,-464.51 760.97,-455.58"/>
<polygon fill="midnightblue" stroke="midnightblue" points="797.96,-488.99 807.99,-492.4 802.28,-483.47 797.96,-488.99"/>
</g>
<!-- Node15 -->
<g id="node15" class="node">
<title>Node15</title>
<g id="a_node15"><a xlink:href="common_8h.html" target="_top" xlink:title=" ">
<polygon fill="none" stroke="black" points="892.5,-297 892.5,-316 1017.5,-316 1017.5,-297 892.5,-297"/>
<text text-anchor="middle" x="955" y="-304" font-family="Helvetica,sans-Serif" font-size="10.00">kernel/include/common.h</text>
</a>
</g>
</g>
<!-- Node1&#45;&gt;Node15 -->
<g id="edge63" class="edge">
<title>Node1&#45;&gt;Node15</title>
<path fill="none" stroke="midnightblue" d="M852.05,-485.84C877.36,-464.34 914.97,-428.36 936,-389 949.01,-364.65 953.17,-331.55 954.46,-316.1"/>
<polygon fill="midnightblue" stroke="midnightblue" points="849.74,-483.21 844.3,-492.3 854.22,-488.59 849.74,-483.21"/>
</g>
<!-- Node3 -->
<g id="node3" class="node">
<title>Node3</title>
<g id="a_node3"><a xlink:href="x86-qemu_8h.html" target="_top" xlink:title=" ">
<polygon fill="none" stroke="black" points="1087.5,-358.5 1087.5,-388.5 1218.5,-388.5 1218.5,-358.5 1087.5,-358.5"/>
<text text-anchor="start" x="1095.5" y="-376.5" font-family="Helvetica,sans-Serif" font-size="10.00">abstract&#45;machine/am</text>
<text text-anchor="middle" x="1153" y="-365.5" font-family="Helvetica,sans-Serif" font-size="10.00">/src/x86/qemu/x86&#45;qemu.h</text>
</a>
</g>
</g>
<!-- Node2&#45;&gt;Node3 -->
<g id="edge2" class="edge">
<title>Node2&#45;&gt;Node3</title>
<path fill="none" stroke="midnightblue" d="M806.99,-429.36C883.32,-417.25 1010.26,-397.13 1087.33,-384.91"/>
<polygon fill="midnightblue" stroke="midnightblue" points="806.35,-425.91 797.02,-430.94 807.45,-432.83 806.35,-425.91"/>
</g>
<!-- Node9 -->
<g id="node9" class="node">
<title>Node9</title>
<g id="a_node9"><a xlink:href="klib_8h.html" target="_top" xlink:title=" ">
<polygon fill="none" stroke="black" points="444,-358.5 444,-388.5 554,-388.5 554,-358.5 444,-358.5"/>
<text text-anchor="start" x="452" y="-376.5" font-family="Helvetica,sans-Serif" font-size="10.00">abstract&#45;machine/klib</text>
<text text-anchor="middle" x="499" y="-365.5" font-family="Helvetica,sans-Serif" font-size="10.00">/include/klib.h</text>
</a>
</g>
</g>
<!-- Node2&#45;&gt;Node9 -->
<g id="edge8" class="edge">
<title>Node2&#45;&gt;Node9</title>
<path fill="none" stroke="midnightblue" d="M680.5,-422.85C640.72,-412.25 589.76,-398.68 551.97,-388.61"/>
<polygon fill="midnightblue" stroke="midnightblue" points="679.79,-426.28 690.36,-425.48 681.59,-419.52 679.79,-426.28"/>
</g>
<!-- Node10 -->
<g id="node10" class="node">
<title>Node10</title>
<g id="a_node10"><a xlink:href="cpp_8c.html" target="_top" xlink:title=" ">
<polygon fill="none" stroke="black" points="256,-291.5 256,-321.5 366,-321.5 366,-291.5 256,-291.5"/>
<text text-anchor="start" x="264" y="-309.5" font-family="Helvetica,sans-Serif" font-size="10.00">abstract&#45;machine/klib</text>
<text text-anchor="middle" x="311" y="-298.5" font-family="Helvetica,sans-Serif" font-size="10.00">/src/cpp.c</text>
</a>
</g>
</g>
<!-- Node2&#45;&gt;Node10 -->
<g id="edge54" class="edge">
<title>Node2&#45;&gt;Node10</title>
<path fill="none" stroke="midnightblue" d="M678.59,-436.74C614.81,-432.23 515.33,-420.34 435,-389 392.76,-372.52 349.99,-340.18 327.39,-321.57"/>
<polygon fill="midnightblue" stroke="midnightblue" points="678.69,-440.26 688.9,-437.43 679.16,-433.27 678.69,-440.26"/>
</g>
<!-- Node11 -->
<g id="node11" class="node">
<title>Node11</title>
<g id="a_node11"><a xlink:href="stdio_8c.html" target="_top" xlink:title=" ">
<polygon fill="none" stroke="black" points="0,-291.5 0,-321.5 110,-321.5 110,-291.5 0,-291.5"/>
<text text-anchor="start" x="8" y="-309.5" font-family="Helvetica,sans-Serif" font-size="10.00">abstract&#45;machine/klib</text>
<text text-anchor="middle" x="55" y="-298.5" font-family="Helvetica,sans-Serif" font-size="10.00">/src/stdio.c</text>
</a>
</g>
</g>
<!-- Node2&#45;&gt;Node11 -->
<g id="edge56" class="edge">
<title>Node2&#45;&gt;Node11</title>
<path fill="none" stroke="midnightblue" d="M678.49,-437.07C589.11,-432.65 423.01,-420.61 285,-389 212.32,-372.35 130.87,-340.07 87.05,-321.53"/>
<polygon fill="midnightblue" stroke="midnightblue" points="678.58,-440.58 688.74,-437.56 678.92,-433.59 678.58,-440.58"/>
</g>
<!-- Node12 -->
<g id="node12" class="node">
<title>Node12</title>
<g id="a_node12"><a xlink:href="stdlib_8c.html" target="_top" xlink:title=" ">
<polygon fill="none" stroke="black" points="128,-291.5 128,-321.5 238,-321.5 238,-291.5 128,-291.5"/>
<text text-anchor="start" x="136" y="-309.5" font-family="Helvetica,sans-Serif" font-size="10.00">abstract&#45;machine/klib</text>
<text text-anchor="middle" x="183" y="-298.5" font-family="Helvetica,sans-Serif" font-size="10.00">/src/stdlib.c</text>
</a>
</g>
</g>
<!-- Node2&#45;&gt;Node12 -->
<g id="edge57" class="edge">
<title>Node2&#45;&gt;Node12</title>
<path fill="none" stroke="midnightblue" d="M678.77,-435.92C604.32,-430.59 478.46,-417.87 374,-389 313.01,-372.14 245.88,-340.1 209.69,-321.61"/>
<polygon fill="midnightblue" stroke="midnightblue" points="678.71,-439.43 688.93,-436.63 679.2,-432.44 678.71,-439.43"/>
</g>
<!-- Node2&#45;&gt;Node15 -->
<g id="edge62" class="edge">
<title>Node2&#45;&gt;Node15</title>
<path fill="none" stroke="midnightblue" d="M756.22,-416.53C767.76,-398.32 786.09,-373.46 808,-358 838.54,-336.46 879.06,-323.45 909.83,-316.04"/>
<polygon fill="midnightblue" stroke="midnightblue" points="753.05,-415 750.81,-425.36 759.02,-418.66 753.05,-415"/>
</g>
<!-- Node33 -->
<g id="node33" class="node">
<title>Node33</title>
<g id="a_node33"><a xlink:href="logger_8h.html" target="_top" xlink:title=" ">
<polygon fill="none" stroke="black" points="1534,-358.5 1534,-388.5 1644,-388.5 1644,-358.5 1534,-358.5"/>
<text text-anchor="start" x="1542" y="-376.5" font-family="Helvetica,sans-Serif" font-size="10.00">abstract&#45;machine/klib</text>
<text text-anchor="middle" x="1589" y="-365.5" font-family="Helvetica,sans-Serif" font-size="10.00">/include/logger.h</text>
</a>
</g>
</g>
<!-- Node2&#45;&gt;Node33 -->
<g id="edge46" class="edge">
<title>Node2&#45;&gt;Node33</title>
<path fill="none" stroke="midnightblue" d="M807.41,-434.55C967.94,-422.22 1383.71,-390.27 1533.87,-378.74"/>
<polygon fill="midnightblue" stroke="midnightblue" points="806.91,-431.08 797.21,-435.34 807.45,-438.06 806.91,-431.08"/>
</g>
<!-- Node36 -->
<g id="node36" class="node">
<title>Node36</title>
<g id="a_node36"><a xlink:href="int64_8c.html" target="_top" xlink:title=" ">
<polygon fill="none" stroke="black" points="817,-358.5 817,-388.5 927,-388.5 927,-358.5 817,-358.5"/>
<text text-anchor="start" x="825" y="-376.5" font-family="Helvetica,sans-Serif" font-size="10.00">abstract&#45;machine/klib</text>
<text text-anchor="middle" x="872" y="-365.5" font-family="Helvetica,sans-Serif" font-size="10.00">/src/int64.c</text>
</a>
</g>
</g>
<!-- Node2&#45;&gt;Node36 -->
<g id="edge55" class="edge">
<title>Node2&#45;&gt;Node36</title>
<path fill="none" stroke="midnightblue" d="M780.01,-420.85C800.4,-410.58 825.31,-398.03 844.06,-388.58"/>
<polygon fill="midnightblue" stroke="midnightblue" points="778.35,-417.77 770.99,-425.4 781.5,-424.02 778.35,-417.77"/>
</g>
<!-- Node37 -->
<g id="node37" class="node">
<title>Node37</title>
<g id="a_node37"><a xlink:href="kernel_8h.html" target="_top" xlink:title=" ">
<polygon fill="none" stroke="black" points="633,-364 633,-383 761,-383 761,-364 633,-364"/>
<text text-anchor="middle" x="697" y="-371" font-family="Helvetica,sans-Serif" font-size="10.00">kernel/framework/kernel.h</text>
</a>
</g>
</g>
<!-- Node2&#45;&gt;Node37 -->
<g id="edge58" class="edge">
<title>Node2&#45;&gt;Node37</title>
<path fill="none" stroke="midnightblue" d="M727.06,-416.97C718.82,-405.33 709.24,-391.8 703.15,-383.19"/>
<polygon fill="midnightblue" stroke="midnightblue" points="724.39,-419.26 733.02,-425.4 730.1,-415.21 724.39,-419.26"/>
</g>
<!-- Node4 -->
<g id="node4" class="node">
<title>Node4</title>
<g id="a_node4"><a xlink:href="cte_8c.html" target="_top" xlink:title=" ">
<polygon fill="none" stroke="black" points="1036,-291.5 1036,-321.5 1144,-321.5 1144,-291.5 1036,-291.5"/>
<text text-anchor="start" x="1044" y="-309.5" font-family="Helvetica,sans-Serif" font-size="10.00">abstract&#45;machine/am</text>
<text text-anchor="middle" x="1090" y="-298.5" font-family="Helvetica,sans-Serif" font-size="10.00">/src/x86/qemu/cte.c</text>
</a>
</g>
</g>
<!-- Node3&#45;&gt;Node4 -->
<g id="edge3" class="edge">
<title>Node3&#45;&gt;Node4</title>
<path fill="none" stroke="midnightblue" d="M1132.19,-351.02C1122.8,-341.34 1111.98,-330.17 1103.64,-321.58"/>
<polygon fill="midnightblue" stroke="midnightblue" points="1129.86,-353.65 1139.33,-358.4 1134.88,-348.78 1129.86,-353.65"/>
</g>
<!-- Node5 -->
<g id="node5" class="node">
<title>Node5</title>
<g id="a_node5"><a xlink:href="ioe_8c.html" target="_top" xlink:title=" ">
<polygon fill="none" stroke="black" points="766,-291.5 766,-321.5 874,-321.5 874,-291.5 766,-291.5"/>
<text text-anchor="start" x="774" y="-309.5" font-family="Helvetica,sans-Serif" font-size="10.00">abstract&#45;machine/am</text>
<text text-anchor="middle" x="820" y="-298.5" font-family="Helvetica,sans-Serif" font-size="10.00">/src/x86/qemu/ioe.c</text>
</a>
</g>
</g>
<!-- Node3&#45;&gt;Node5 -->
<g id="edge4" class="edge">
<title>Node3&#45;&gt;Node5</title>
<path fill="none" stroke="midnightblue" d="M1077.19,-359.05C1023.21,-349.28 949.02,-335.46 884,-322 880.76,-321.33 877.44,-320.63 874.09,-319.9"/>
<polygon fill="midnightblue" stroke="midnightblue" points="1076.9,-362.55 1087.36,-360.88 1078.14,-355.66 1076.9,-362.55"/>
</g>
<!-- Node6 -->
<g id="node6" class="node">
<title>Node6</title>
<g id="a_node6"><a xlink:href="mpe_8c.html" target="_top" xlink:title=" ">
<polygon fill="none" stroke="black" points="1162,-291.5 1162,-321.5 1270,-321.5 1270,-291.5 1162,-291.5"/>
<text text-anchor="start" x="1170" y="-309.5" font-family="Helvetica,sans-Serif" font-size="10.00">abstract&#45;machine/am</text>
<text text-anchor="middle" x="1216" y="-298.5" font-family="Helvetica,sans-Serif" font-size="10.00">/src/x86/qemu/mpe.c</text>
</a>
</g>
</g>
<!-- Node3&#45;&gt;Node6 -->
<g id="edge5" class="edge">
<title>Node3&#45;&gt;Node6</title>
<path fill="none" stroke="midnightblue" d="M1173.81,-351.02C1183.2,-341.34 1194.02,-330.17 1202.36,-321.58"/>
<polygon fill="midnightblue" stroke="midnightblue" points="1171.12,-348.78 1166.67,-358.4 1176.14,-353.65 1171.12,-348.78"/>
</g>
<!-- Node7 -->
<g id="node7" class="node">
<title>Node7</title>
<g id="a_node7"><a xlink:href="trm_8c.html" target="_top" xlink:title=" ">
<polygon fill="none" stroke="black" points="1288,-291.5 1288,-321.5 1396,-321.5 1396,-291.5 1288,-291.5"/>
<text text-anchor="start" x="1296" y="-309.5" font-family="Helvetica,sans-Serif" font-size="10.00">abstract&#45;machine/am</text>
<text text-anchor="middle" x="1342" y="-298.5" font-family="Helvetica,sans-Serif" font-size="10.00">/src/x86/qemu/trm.c</text>
</a>
</g>
</g>
<!-- Node3&#45;&gt;Node7 -->
<g id="edge6" class="edge">
<title>Node3&#45;&gt;Node7</title>
<path fill="none" stroke="midnightblue" d="M1203.62,-355.09C1234.13,-344.6 1272.48,-331.41 1301.07,-321.58"/>
<polygon fill="midnightblue" stroke="midnightblue" points="1202.33,-351.83 1194.01,-358.4 1204.6,-358.45 1202.33,-351.83"/>
</g>
<!-- Node8 -->
<g id="node8" class="node">
<title>Node8</title>
<g id="a_node8"><a xlink:href="vme_8c.html" target="_top" xlink:title=" ">
<polygon fill="none" stroke="black" points="1414,-291.5 1414,-321.5 1522,-321.5 1522,-291.5 1414,-291.5"/>
<text text-anchor="start" x="1422" y="-309.5" font-family="Helvetica,sans-Serif" font-size="10.00">abstract&#45;machine/am</text>
<text text-anchor="middle" x="1468" y="-298.5" font-family="Helvetica,sans-Serif" font-size="10.00">/src/x86/qemu/vme.c</text>
</a>
</g>
</g>
<!-- Node3&#45;&gt;Node8 -->
<g id="edge7" class="edge">
<title>Node3&#45;&gt;Node8</title>
<path fill="none" stroke="midnightblue" d="M1228.74,-357.91C1278.84,-348.11 1345.93,-334.71 1405,-322 1407.85,-321.39 1410.78,-320.75 1413.73,-320.09"/>
<polygon fill="midnightblue" stroke="midnightblue" points="1227.78,-354.53 1218.64,-359.88 1229.12,-361.4 1227.78,-354.53"/>
</g>
<!-- Node9&#45;&gt;Node5 -->
<g id="edge9" class="edge">
<title>Node9&#45;&gt;Node5</title>
<path fill="none" stroke="midnightblue" d="M564.35,-360.32C616.58,-350.45 691.61,-335.92 757,-322 759.85,-321.39 762.78,-320.76 765.73,-320.11"/>
<polygon fill="midnightblue" stroke="midnightblue" points="563.39,-356.94 554.22,-362.24 564.69,-363.82 563.39,-356.94"/>
</g>
<!-- Node9&#45;&gt;Node10 -->
<g id="edge10" class="edge">
<title>Node9&#45;&gt;Node10</title>
<path fill="none" stroke="midnightblue" d="M448.65,-355.09C418.3,-344.6 380.15,-331.41 351.71,-321.58"/>
<polygon fill="midnightblue" stroke="midnightblue" points="447.61,-358.44 458.21,-358.4 449.9,-351.82 447.61,-358.44"/>
</g>
<!-- Node9&#45;&gt;Node11 -->
<g id="edge11" class="edge">
<title>Node9&#45;&gt;Node11</title>
<path fill="none" stroke="midnightblue" d="M433.33,-365.6C357.36,-357.2 228.64,-341.66 119,-322 116.08,-321.48 113.1,-320.91 110.09,-320.32"/>
<polygon fill="midnightblue" stroke="midnightblue" points="433.37,-369.13 443.69,-366.74 434.13,-362.17 433.37,-369.13"/>
</g>
<!-- Node9&#45;&gt;Node12 -->
<g id="edge12" class="edge">
<title>Node9&#45;&gt;Node12</title>
<path fill="none" stroke="midnightblue" d="M433.97,-359.93C383.03,-349.98 310.41,-335.53 247,-322 244.1,-321.38 241.13,-320.74 238.14,-320.08"/>
<polygon fill="midnightblue" stroke="midnightblue" points="433.37,-363.38 443.86,-361.86 434.72,-356.51 433.37,-363.38"/>
</g>
<!-- Node13 -->
<g id="node13" class="node">
<title>Node13</title>
<g id="a_node13"><a xlink:href="string_8c.html" target="_top" xlink:title=" ">
<polygon fill="none" stroke="black" points="384,-291.5 384,-321.5 494,-321.5 494,-291.5 384,-291.5"/>
<text text-anchor="start" x="392" y="-309.5" font-family="Helvetica,sans-Serif" font-size="10.00">abstract&#45;machine/klib</text>
<text text-anchor="middle" x="439" y="-298.5" font-family="Helvetica,sans-Serif" font-size="10.00">/src/string.c</text>
</a>
</g>
</g>
<!-- Node9&#45;&gt;Node13 -->
<g id="edge13" class="edge">
<title>Node9&#45;&gt;Node13</title>
<path fill="none" stroke="midnightblue" d="M479.18,-351.02C470.24,-341.34 459.93,-330.17 451.99,-321.58"/>
<polygon fill="midnightblue" stroke="midnightblue" points="476.63,-353.42 485.98,-358.4 481.77,-348.67 476.63,-353.42"/>
</g>
<!-- Node14 -->
<g id="node14" class="node">
<title>Node14</title>
<g id="a_node14"><a xlink:href="main_8c.html" target="_top" xlink:title=" ">
<polygon fill="none" stroke="black" points="512.5,-297 512.5,-316 635.5,-316 635.5,-297 512.5,-297"/>
<text text-anchor="middle" x="574" y="-304" font-family="Helvetica,sans-Serif" font-size="10.00">kernel/framework/main.c</text>
</a>
</g>
</g>
<!-- Node9&#45;&gt;Node14 -->
<g id="edge14" class="edge">
<title>Node9&#45;&gt;Node14</title>
<path fill="none" stroke="midnightblue" d="M523.03,-351.67C536.88,-339.67 553.55,-325.22 563.97,-316.19"/>
<polygon fill="midnightblue" stroke="midnightblue" points="520.54,-349.2 515.27,-358.4 525.12,-354.49 520.54,-349.2"/>
</g>
<!-- Node9&#45;&gt;Node15 -->
<g id="edge15" class="edge">
<title>Node9&#45;&gt;Node15</title>
<path fill="none" stroke="midnightblue" d="M564.28,-364.46C657.26,-352.92 823.22,-331.94 883,-322 893.44,-320.26 904.68,-318.13 915.1,-316.04"/>
<polygon fill="midnightblue" stroke="midnightblue" points="563.63,-361.01 554.14,-365.72 564.49,-367.96 563.63,-361.01"/>
</g>
<!-- Node16 -->
<g id="node16" class="node">
<title>Node16</title>
<g id="a_node16"><a xlink:href="buddy_8h.html" target="_top" xlink:title=" ">
<polygon fill="none" stroke="black" points="1567.5,-235.5 1567.5,-254.5 1680.5,-254.5 1680.5,-235.5 1567.5,-235.5"/>
<text text-anchor="middle" x="1624" y="-242.5" font-family="Helvetica,sans-Serif" font-size="10.00">kernel/include/buddy.h</text>
</a>
</g>
</g>
<!-- Node15&#45;&gt;Node16 -->
<g id="edge16" class="edge">
<title>Node15&#45;&gt;Node16</title>
<path fill="none" stroke="midnightblue" d="M1002.93,-294.99C1010.94,-293.48 1019.18,-292.08 1027,-291 1040.3,-289.17 1421.05,-260.98 1567.43,-250.17"/>
<polygon fill="midnightblue" stroke="midnightblue" points="1002.11,-291.59 992.96,-296.94 1003.45,-298.46 1002.11,-291.59"/>
</g>
<!-- Node17 -->
<g id="node17" class="node">
<title>Node17</title>
<g id="a_node17"><a xlink:href="buddy_8c.html" target="_top" xlink:title="impl of buddy system">
<polygon fill="none" stroke="black" points="1477.5,-179.5 1477.5,-198.5 1572.5,-198.5 1572.5,-179.5 1477.5,-179.5"/>
<text text-anchor="middle" x="1525" y="-186.5" font-family="Helvetica,sans-Serif" font-size="10.00">kernel/src/buddy.c</text>
</a>
</g>
</g>
<!-- Node15&#45;&gt;Node17 -->
<g id="edge41" class="edge">
<title>Node15&#45;&gt;Node17</title>
<path fill="none" stroke="midnightblue" d="M1006.18,-294.93C1013.17,-293.56 1020.26,-292.22 1027,-291 1126.66,-273 1152.67,-274.74 1252,-255 1339.45,-237.62 1441.38,-211.87 1492.4,-198.6"/>
<polygon fill="midnightblue" stroke="midnightblue" points="1005.2,-291.56 996.07,-296.93 1006.56,-298.42 1005.2,-291.56"/>
</g>
<!-- Node18 -->
<g id="node18" class="node">
<title>Node18</title>
<g id="a_node18"><a xlink:href="pmm_8c.html" target="_top" xlink:title=" ">
<polygon fill="none" stroke="black" points="1591,-179.5 1591,-198.5 1683,-198.5 1683,-179.5 1591,-179.5"/>
<text text-anchor="middle" x="1637" y="-186.5" font-family="Helvetica,sans-Serif" font-size="10.00">kernel/src/pmm.c</text>
</a>
</g>
</g>
<!-- Node15&#45;&gt;Node18 -->
<g id="edge44" class="edge">
<title>Node15&#45;&gt;Node18</title>
<path fill="none" stroke="midnightblue" d="M1004.85,-294.97C1012.26,-293.55 1019.82,-292.18 1027,-291 1152.56,-270.43 1185.42,-275.45 1311,-255 1415.52,-237.98 1537.7,-211.96 1598.52,-198.59"/>
<polygon fill="midnightblue" stroke="midnightblue" points="1004.03,-291.57 994.89,-296.93 1005.38,-298.44 1004.03,-291.57"/>
</g>
<!-- Node19 -->
<g id="node19" class="node">
<title>Node19</title>
<g id="a_node19"><a xlink:href="devices_8h.html" target="_top" xlink:title=" ">
<polygon fill="none" stroke="black" points="633.5,-67.5 633.5,-86.5 754.5,-86.5 754.5,-67.5 633.5,-67.5"/>
<text text-anchor="middle" x="694" y="-74.5" font-family="Helvetica,sans-Serif" font-size="10.00">kernel/include/devices.h</text>
</a>
</g>
</g>
<!-- Node15&#45;&gt;Node19 -->
<g id="edge19" class="edge">
<title>Node15&#45;&gt;Node19</title>
<path fill="none" stroke="midnightblue" d="M900.3,-294.61C869.26,-286.78 830.63,-274.17 800,-255 745.16,-220.67 732.37,-202.52 707,-143 698.88,-123.94 695.75,-99.55 694.61,-86.75"/>
<polygon fill="midnightblue" stroke="midnightblue" points="899.54,-298.03 910.09,-296.98 901.19,-291.22 899.54,-298.03"/>
</g>
<!-- Node25 -->
<g id="node25" class="node">
<title>Node25</title>
<g id="a_node25"><a xlink:href="sem_8h.html" target="_top" xlink:title=" ">
<polygon fill="none" stroke="black" points="732,-123.5 732,-142.5 838,-142.5 838,-123.5 732,-123.5"/>
<text text-anchor="middle" x="785" y="-130.5" font-family="Helvetica,sans-Serif" font-size="10.00">kernel/include/sem.h</text>
</a>
</g>
</g>
<!-- Node15&#45;&gt;Node25 -->
<g id="edge25" class="edge">
<title>Node15&#45;&gt;Node25</title>
<path fill="none" stroke="midnightblue" d="M908.95,-294.07C864.53,-280.16 800.66,-251.68 777,-199 768.62,-180.33 775.98,-155.78 781.09,-142.85"/>
<polygon fill="midnightblue" stroke="midnightblue" points="908.08,-297.47 918.66,-296.99 910.09,-290.76 908.08,-297.47"/>
</g>
<!-- Node26 -->
<g id="node26" class="node">
<title>Node26</title>
<g id="a_node26"><a xlink:href="kmt_8c.html" target="_top" xlink:title=" ">
<polygon fill="none" stroke="black" points="924,-67.5 924,-86.5 1010,-86.5 1010,-67.5 924,-67.5"/>
<text text-anchor="middle" x="967" y="-74.5" font-family="Helvetica,sans-Serif" font-size="10.00">kernel/src/kmt.c</text>
</a>
</g>
</g>
<!-- Node15&#45;&gt;Node26 -->
<g id="edge42" class="edge">
<title>Node15&#45;&gt;Node26</title>
<path fill="none" stroke="midnightblue" d="M1011.02,-294.73C1045.46,-286.73 1089.78,-273.9 1126,-255 1184.87,-224.28 1238.19,-174.28 1196,-123 1172.96,-95 1070.18,-84.15 1010.44,-80.16"/>
<polygon fill="midnightblue" stroke="midnightblue" points="1010.11,-291.35 1001.12,-296.96 1011.65,-298.18 1010.11,-291.35"/>
</g>
<!-- Node28 -->
<g id="node28" class="node">
<title>Node28</title>
<g id="a_node28"><a xlink:href="spinlock_8h.html" target="_top" xlink:title=" ">
<polygon fill="none" stroke="black" points="848.5,-235.5 848.5,-254.5 971.5,-254.5 971.5,-235.5 848.5,-235.5"/>
<text text-anchor="middle" x="910" y="-242.5" font-family="Helvetica,sans-Serif" font-size="10.00">kernel/include/spinlock.h</text>
</a>
</g>
</g>
<!-- Node15&#45;&gt;Node28 -->
<g id="edge29" class="edge">
<title>Node15&#45;&gt;Node28</title>
<path fill="none" stroke="midnightblue" d="M942.4,-288.84C933.95,-277.67 923.18,-263.43 916.44,-254.51"/>
<polygon fill="midnightblue" stroke="midnightblue" points="939.73,-291.11 948.55,-296.98 945.31,-286.89 939.73,-291.11"/>
</g>
<!-- Node29 -->
<g id="node29" class="node">
<title>Node29</title>
<g id="a_node29"><a xlink:href="thread_8h.html" target="_top" xlink:title=" ">
<polygon fill="none" stroke="black" points="1058,-179.5 1058,-198.5 1172,-198.5 1172,-179.5 1058,-179.5"/>
<text text-anchor="middle" x="1115" y="-186.5" font-family="Helvetica,sans-Serif" font-size="10.00">kernel/include/thread.h</text>
</a>
</g>
</g>
<!-- Node15&#45;&gt;Node29 -->
<g id="edge40" class="edge">
<title>Node15&#45;&gt;Node29</title>
<path fill="none" stroke="midnightblue" d="M975.21,-290.91C1008.89,-266.6 1075.48,-218.53 1102.83,-198.78"/>
<polygon fill="midnightblue" stroke="midnightblue" points="973.09,-288.13 967.03,-296.82 977.18,-293.8 973.09,-288.13"/>
</g>
<!-- Node30 -->
<g id="node30" class="node">
<title>Node30</title>
<g id="a_node30"><a xlink:href="syscall_8c.html" target="_top" xlink:title=" ">
<polygon fill="none" stroke="black" points="1087,-123.5 1087,-142.5 1187,-142.5 1187,-123.5 1087,-123.5"/>
<text text-anchor="middle" x="1137" y="-130.5" font-family="Helvetica,sans-Serif" font-size="10.00">kernel/src/syscall.c</text>
</a>
</g>
</g>
<!-- Node15&#45;&gt;Node30 -->
<g id="edge45" class="edge">
<title>Node15&#45;&gt;Node30</title>
<path fill="none" stroke="midnightblue" d="M991.39,-293.68C1049.61,-273.95 1159.37,-233.11 1181,-199 1194.06,-178.4 1167.35,-154.83 1150.09,-142.51"/>
<polygon fill="midnightblue" stroke="midnightblue" points="990.2,-290.39 981.83,-296.89 992.43,-297.02 990.2,-290.39"/>
</g>
<!-- Node31 -->
<g id="node31" class="node">
<title>Node31</title>
<g id="a_node31"><a xlink:href="os_8c.html" target="_top" xlink:title=" ">
<polygon fill="none" stroke="black" points="960,-179.5 960,-198.5 1040,-198.5 1040,-179.5 960,-179.5"/>
<text text-anchor="middle" x="1000" y="-186.5" font-family="Helvetica,sans-Serif" font-size="10.00">kernel/src/os.c</text>
</a>
</g>
</g>
<!-- Node15&#45;&gt;Node31 -->
<g id="edge43" class="edge">
<title>Node15&#45;&gt;Node31</title>
<path fill="none" stroke="midnightblue" d="M965.09,-287.94C970.3,-278.4 976.49,-266.28 981,-255 988.85,-235.35 995.05,-211.2 998.05,-198.59"/>
<polygon fill="midnightblue" stroke="midnightblue" points="961.96,-286.37 960.13,-296.8 968.07,-289.79 961.96,-286.37"/>
</g>
<!-- Node16&#45;&gt;Node17 -->
<g id="edge17" class="edge">
<title>Node16&#45;&gt;Node17</title>
<path fill="none" stroke="midnightblue" d="M1599.16,-230.45C1580.89,-220.48 1556.58,-207.23 1540.87,-198.65"/>
<polygon fill="midnightblue" stroke="midnightblue" points="1597.64,-233.61 1608.09,-235.32 1600.99,-227.46 1597.64,-233.61"/>
</g>
<!-- Node16&#45;&gt;Node18 -->
<g id="edge18" class="edge">
<title>Node16&#45;&gt;Node18</title>
<path fill="none" stroke="midnightblue" d="M1628.55,-225.1C1630.71,-216.14 1633.18,-205.86 1634.89,-198.75"/>
<polygon fill="midnightblue" stroke="midnightblue" points="1625.08,-224.54 1626.15,-235.08 1631.89,-226.18 1625.08,-224.54"/>
</g>
<!-- Node20 -->
<g id="node20" class="node">
<title>Node20</title>
<g id="a_node20"><a xlink:href="dev_8c.html" target="_top" xlink:title=" ">
<polygon fill="none" stroke="black" points="397,-6 397,-25 501,-25 501,-6 397,-6"/>
<text text-anchor="middle" x="449" y="-13" font-family="Helvetica,sans-Serif" font-size="10.00">kernel/src/dev/dev.c</text>
</a>
</g>
</g>
<!-- Node19&#45;&gt;Node20 -->
<g id="edge20" class="edge">
<title>Node19&#45;&gt;Node20</title>
<path fill="none" stroke="midnightblue" d="M649.17,-65.11C601.62,-53.57 527.49,-35.56 484.04,-25.01"/>
<polygon fill="midnightblue" stroke="midnightblue" points="648.35,-68.52 658.9,-67.48 650.01,-61.71 648.35,-68.52"/>
</g>
<!-- Node21 -->
<g id="node21" class="node">
<title>Node21</title>
<g id="a_node21"><a xlink:href="dev__input_8c.html" target="_top" xlink:title=" ">
<polygon fill="none" stroke="black" points="519.5,-0.5 519.5,-30.5 616.5,-30.5 616.5,-0.5 519.5,-0.5"/>
<text text-anchor="start" x="527.5" y="-18.5" font-family="Helvetica,sans-Serif" font-size="10.00">kernel/src/dev/dev</text>
<text text-anchor="middle" x="568" y="-7.5" font-family="Helvetica,sans-Serif" font-size="10.00">_input.c</text>
</a>
</g>
</g>
<!-- Node19&#45;&gt;Node21 -->
<g id="edge21" class="edge">
<title>Node19&#45;&gt;Node21</title>
<path fill="none" stroke="midnightblue" d="M666.89,-63.2C646.53,-53.58 618.66,-40.42 597.7,-30.52"/>
<polygon fill="midnightblue" stroke="midnightblue" points="665.41,-66.37 675.95,-67.48 668.4,-60.04 665.41,-66.37"/>
</g>
<!-- Node22 -->
<g id="node22" class="node">
<title>Node22</title>
<g id="a_node22"><a xlink:href="dev__sd_8c.html" target="_top" xlink:title=" ">
<polygon fill="none" stroke="black" points="634,-6 634,-25 754,-25 754,-6 634,-6"/>
<text text-anchor="middle" x="694" y="-13" font-family="Helvetica,sans-Serif" font-size="10.00">kernel/src/dev/dev_sd.c</text>
</a>
</g>
</g>
<!-- Node19&#45;&gt;Node22 -->
<g id="edge22" class="edge">
<title>Node19&#45;&gt;Node22</title>
<path fill="none" stroke="midnightblue" d="M694,-57.32C694,-46.5 694,-33.4 694,-25.01"/>
<polygon fill="midnightblue" stroke="midnightblue" points="690.5,-57.48 694,-67.48 697.5,-57.48 690.5,-57.48"/>
</g>
<!-- Node23 -->
<g id="node23" class="node">
<title>Node23</title>
<g id="a_node23"><a xlink:href="dev__tty_8c.html" target="_top" xlink:title=" ">
<polygon fill="none" stroke="black" points="771.5,-0.5 771.5,-30.5 868.5,-30.5 868.5,-0.5 771.5,-0.5"/>
<text text-anchor="start" x="779.5" y="-18.5" font-family="Helvetica,sans-Serif" font-size="10.00">kernel/src/dev/dev</text>
<text text-anchor="middle" x="820" y="-7.5" font-family="Helvetica,sans-Serif" font-size="10.00">_tty.c</text>
</a>
</g>
</g>
<!-- Node19&#45;&gt;Node23 -->
<g id="edge23" class="edge">
<title>Node19&#45;&gt;Node23</title>
<path fill="none" stroke="midnightblue" d="M721.11,-63.2C741.47,-53.58 769.34,-40.42 790.3,-30.52"/>
<polygon fill="midnightblue" stroke="midnightblue" points="719.6,-60.04 712.05,-67.48 722.59,-66.37 719.6,-60.04"/>
</g>
<!-- Node24 -->
<g id="node24" class="node">
<title>Node24</title>
<g id="a_node24"><a xlink:href="dev__video_8c.html" target="_top" xlink:title=" ">
<polygon fill="none" stroke="black" points="886.5,-0.5 886.5,-30.5 983.5,-30.5 983.5,-0.5 886.5,-0.5"/>
<text text-anchor="start" x="894.5" y="-18.5" font-family="Helvetica,sans-Serif" font-size="10.00">kernel/src/dev/dev</text>
<text text-anchor="middle" x="935" y="-7.5" font-family="Helvetica,sans-Serif" font-size="10.00">_video.c</text>
</a>
</g>
</g>
<!-- Node19&#45;&gt;Node24 -->
<g id="edge24" class="edge">
<title>Node19&#45;&gt;Node24</title>
<path fill="none" stroke="midnightblue" d="M739.34,-65.04C776.6,-55.99 830.75,-42.79 878,-31 880.77,-30.31 883.62,-29.59 886.5,-28.87"/>
<polygon fill="midnightblue" stroke="midnightblue" points="738.19,-61.71 729.3,-67.47 739.84,-68.51 738.19,-61.71"/>
</g>
<!-- Node25&#45;&gt;Node19 -->
<g id="edge26" class="edge">
<title>Node25&#45;&gt;Node19</title>
<path fill="none" stroke="midnightblue" d="M761.71,-118.18C744.96,-108.24 722.9,-95.15 708.58,-86.65"/>
<polygon fill="midnightblue" stroke="midnightblue" points="759.99,-121.23 770.38,-123.32 763.57,-115.21 759.99,-121.23"/>
</g>
<!-- Node25&#45;&gt;Node26 -->
<g id="edge27" class="edge">
<title>Node25&#45;&gt;Node26</title>
<path fill="none" stroke="midnightblue" d="M823.53,-120.57C857.86,-110.38 907.33,-95.7 938.3,-86.52"/>
<polygon fill="midnightblue" stroke="midnightblue" points="822.43,-117.24 813.84,-123.44 824.42,-123.95 822.43,-117.24"/>
</g>
<!-- Node27 -->
<g id="node27" class="node">
<title>Node27</title>
<g id="a_node27"><a xlink:href="sem_8c.html" target="_top" xlink:title=" ">
<polygon fill="none" stroke="black" points="772.5,-67.5 772.5,-86.5 861.5,-86.5 861.5,-67.5 772.5,-67.5"/>
<text text-anchor="middle" x="817" y="-74.5" font-family="Helvetica,sans-Serif" font-size="10.00">kernel/src/sem.c</text>
</a>
</g>
</g>
<!-- Node25&#45;&gt;Node27 -->
<g id="edge28" class="edge">
<title>Node25&#45;&gt;Node27</title>
<path fill="none" stroke="midnightblue" d="M795.5,-114.27C800.97,-105.05 807.42,-94.17 811.81,-86.75"/>
<polygon fill="midnightblue" stroke="midnightblue" points="792.37,-112.7 790.28,-123.08 798.39,-116.26 792.37,-112.7"/>
</g>
<!-- Node28&#45;&gt;Node19 -->
<g id="edge30" class="edge">
<title>Node28&#45;&gt;Node19</title>
<path fill="none" stroke="midnightblue" d="M858.8,-232.82C832.96,-225.7 801.9,-214.78 777,-199 747.8,-180.49 742.33,-171.66 723,-143 710.56,-124.56 701.28,-99.92 696.86,-86.91"/>
<polygon fill="midnightblue" stroke="midnightblue" points="858.22,-236.29 868.79,-235.46 860.01,-229.52 858.22,-236.29"/>
</g>
<!-- Node28&#45;&gt;Node25 -->
<g id="edge31" class="edge">
<title>Node28&#45;&gt;Node25</title>
<path fill="none" stroke="midnightblue" d="M838.94,-232.36C819.82,-225.73 801.11,-215.32 789,-199 776.61,-182.29 779.96,-156.02 782.83,-142.57"/>
<polygon fill="midnightblue" stroke="midnightblue" points="838.04,-235.75 848.63,-235.41 840.14,-229.07 838.04,-235.75"/>
</g>
<!-- Node28&#45;&gt;Node26 -->
<g id="edge37" class="edge">
<title>Node28&#45;&gt;Node26</title>
<path fill="none" stroke="midnightblue" d="M916.39,-225.39C928.68,-189.59 955.21,-112.34 964.06,-86.57"/>
<polygon fill="midnightblue" stroke="midnightblue" points="913,-224.48 913.06,-235.08 919.62,-226.75 913,-224.48"/>
</g>
<!-- Node28&#45;&gt;Node29 -->
<g id="edge32" class="edge">
<title>Node28&#45;&gt;Node29</title>
<path fill="none" stroke="midnightblue" d="M952.41,-232.83C991.11,-222.63 1047.49,-207.78 1082.67,-198.52"/>
<polygon fill="midnightblue" stroke="midnightblue" points="951.26,-229.51 942.48,-235.44 953.04,-236.28 951.26,-229.51"/>
</g>
<!-- Node28&#45;&gt;Node31 -->
<g id="edge38" class="edge">
<title>Node28&#45;&gt;Node31</title>
<path fill="none" stroke="midnightblue" d="M933.04,-230.18C949.6,-220.24 971.42,-207.15 985.58,-198.65"/>
<polygon fill="midnightblue" stroke="midnightblue" points="931.23,-227.18 924.46,-235.32 934.84,-233.18 931.23,-227.18"/>
</g>
<!-- Node32 -->
<g id="node32" class="node">
<title>Node32</title>
<g id="a_node32"><a xlink:href="spinlock_8c.html" target="_top" xlink:title=" ">
<polygon fill="none" stroke="black" points="798,-179.5 798,-198.5 904,-198.5 904,-179.5 798,-179.5"/>
<text text-anchor="middle" x="851" y="-186.5" font-family="Helvetica,sans-Serif" font-size="10.00">kernel/src/spinlock.c</text>
</a>
</g>
</g>
<!-- Node28&#45;&gt;Node32 -->
<g id="edge39" class="edge">
<title>Node28&#45;&gt;Node32</title>
<path fill="none" stroke="midnightblue" d="M893.11,-228.54C882.59,-218.91 869.43,-206.87 860.65,-198.83"/>
<polygon fill="midnightblue" stroke="midnightblue" points="890.78,-231.15 900.52,-235.32 895.51,-225.99 890.78,-231.15"/>
</g>
<!-- Node29&#45;&gt;Node19 -->
<g id="edge33" class="edge">
<title>Node29&#45;&gt;Node19</title>
<path fill="none" stroke="midnightblue" d="M1072.58,-176.92C988.45,-154.93 802.11,-106.25 726.66,-86.53"/>
<polygon fill="midnightblue" stroke="midnightblue" points="1071.76,-180.32 1082.32,-179.46 1073.52,-173.55 1071.76,-180.32"/>
</g>
<!-- Node29&#45;&gt;Node25 -->
<g id="edge34" class="edge">
<title>Node29&#45;&gt;Node25</title>
<path fill="none" stroke="midnightblue" d="M1052.61,-177.79C990.25,-167.59 895.48,-152.08 837.04,-142.52"/>
<polygon fill="midnightblue" stroke="midnightblue" points="1052.28,-181.28 1062.71,-179.44 1053.41,-174.37 1052.28,-181.28"/>
</g>
<!-- Node29&#45;&gt;Node26 -->
<g id="edge35" class="edge">
<title>Node29&#45;&gt;Node26</title>
<path fill="none" stroke="midnightblue" d="M1094.98,-173.12C1063.56,-149.77 1003.69,-105.27 978.56,-86.59"/>
<polygon fill="midnightblue" stroke="midnightblue" points="1093.27,-176.21 1103.39,-179.37 1097.45,-170.59 1093.27,-176.21"/>
</g>
<!-- Node29&#45;&gt;Node30 -->
<g id="edge36" class="edge">
<title>Node29&#45;&gt;Node30</title>
<path fill="none" stroke="midnightblue" d="M1122.46,-169.69C1126.17,-160.59 1130.48,-150.01 1133.43,-142.75"/>
<polygon fill="midnightblue" stroke="midnightblue" points="1119.16,-168.5 1118.63,-179.08 1125.65,-171.14 1119.16,-168.5"/>
</g>
<!-- Node33&#45;&gt;Node15 -->
<g id="edge48" class="edge">
<title>Node33&#45;&gt;Node15</title>
<path fill="none" stroke="midnightblue" d="M1523.59,-368.95C1418.5,-362.71 1205.73,-347.95 1027,-322 1016.02,-320.41 1004.19,-318.22 993.35,-316.03"/>
<polygon fill="midnightblue" stroke="midnightblue" points="1523.54,-372.45 1533.72,-369.54 1523.95,-365.46 1523.54,-372.45"/>
</g>
<!-- Node33&#45;&gt;Node17 -->
<g id="edge52" class="edge">
<title>Node33&#45;&gt;Node17</title>
<path fill="none" stroke="midnightblue" d="M1579.43,-349.13C1576.03,-340.62 1572.25,-330.92 1569,-322 1552.21,-275.93 1534.38,-219.92 1527.72,-198.71"/>
<polygon fill="midnightblue" stroke="midnightblue" points="1576.2,-350.47 1583.19,-358.43 1582.69,-347.85 1576.2,-350.47"/>
</g>
<!-- Node33&#45;&gt;Node18 -->
<g id="edge53" class="edge">
<title>Node33&#45;&gt;Node18</title>
<path fill="none" stroke="midnightblue" d="M1648.59,-354.07C1663.56,-346.53 1677.94,-336.15 1687,-322 1707.87,-289.42 1706.25,-270.11 1690,-235 1682.5,-218.79 1665.96,-206.28 1653.33,-198.61"/>
<polygon fill="midnightblue" stroke="midnightblue" points="1646.84,-351.02 1639.23,-358.4 1649.78,-357.37 1646.84,-351.02"/>
</g>
<!-- Node34 -->
<g id="node34" class="node">
<title>Node34</title>
<g id="a_node34"><a xlink:href="logger_8c.html" target="_top" xlink:title=" ">
<polygon fill="none" stroke="black" points="1737,-291.5 1737,-321.5 1847,-321.5 1847,-291.5 1737,-291.5"/>
<text text-anchor="start" x="1745" y="-309.5" font-family="Helvetica,sans-Serif" font-size="10.00">abstract&#45;machine/klib</text>
<text text-anchor="middle" x="1792" y="-298.5" font-family="Helvetica,sans-Serif" font-size="10.00">/src/logger.c</text>
</a>
</g>
</g>
<!-- Node33&#45;&gt;Node34 -->
<g id="edge47" class="edge">
<title>Node33&#45;&gt;Node34</title>
<path fill="none" stroke="midnightblue" d="M1642.94,-355.23C1675.78,-344.71 1717.2,-331.45 1748.04,-321.58"/>
<polygon fill="midnightblue" stroke="midnightblue" points="1641.5,-352.01 1633.05,-358.4 1643.64,-358.68 1641.5,-352.01"/>
</g>
<!-- Node35 -->
<g id="node35" class="node">
<title>Node35</title>
<g id="a_node35"><a xlink:href="list_8h.html" target="_top" xlink:title="double circular linked list impl without concurrency">
<polygon fill="none" stroke="black" points="1578,-297 1578,-316 1678,-316 1678,-297 1578,-297"/>
<text text-anchor="middle" x="1628" y="-304" font-family="Helvetica,sans-Serif" font-size="10.00">kernel/include/list.h</text>
</a>
</g>
</g>
<!-- Node33&#45;&gt;Node35 -->
<g id="edge49" class="edge">
<title>Node33&#45;&gt;Node35</title>
<path fill="none" stroke="midnightblue" d="M1602.72,-349.63C1609.66,-338.07 1617.67,-324.71 1622.78,-316.19"/>
<polygon fill="midnightblue" stroke="midnightblue" points="1599.61,-348.02 1597.46,-358.4 1605.61,-351.62 1599.61,-348.02"/>
</g>
<!-- Node35&#45;&gt;Node16 -->
<g id="edge50" class="edge">
<title>Node35&#45;&gt;Node16</title>
<path fill="none" stroke="midnightblue" d="M1626.74,-286.82C1626.02,-276 1625.14,-262.9 1624.57,-254.51"/>
<polygon fill="midnightblue" stroke="midnightblue" points="1623.26,-287.23 1627.43,-296.98 1630.25,-286.76 1623.26,-287.23"/>
</g>
<!-- Node35&#45;&gt;Node29 -->
<g id="edge51" class="edge">
<title>Node35&#45;&gt;Node29</title>
<path fill="none" stroke="midnightblue" d="M1579.9,-294.67C1478.55,-271.85 1244.87,-219.24 1153.04,-198.56"/>
<polygon fill="midnightblue" stroke="midnightblue" points="1579.34,-298.13 1589.86,-296.91 1580.87,-291.3 1579.34,-298.13"/>
</g>
<!-- Node37&#45;&gt;Node14 -->
<g id="edge59" class="edge">
<title>Node37&#45;&gt;Node14</title>
<path fill="none" stroke="midnightblue" d="M671.65,-359.1C647.29,-346.23 611.2,-327.16 590.4,-316.17"/>
<polygon fill="midnightblue" stroke="midnightblue" points="670.19,-362.29 680.67,-363.87 673.46,-356.1 670.19,-362.29"/>
</g>
<!-- Node37&#45;&gt;Node15 -->
<g id="edge60" class="edge">
<title>Node37&#45;&gt;Node15</title>
<path fill="none" stroke="midnightblue" d="M740.72,-361.48C791.62,-348.66 874.58,-327.76 920.93,-316.08"/>
<polygon fill="midnightblue" stroke="midnightblue" points="739.84,-358.1 730.99,-363.94 741.55,-364.89 739.84,-358.1"/>
</g>
<!-- Node38 -->
<g id="node38" class="node">
<title>Node38</title>
<g id="a_node38"><a xlink:href="uproc_8c.html" target="_top" xlink:title=" ">
<polygon fill="none" stroke="black" points="654,-297 654,-316 748,-316 748,-297 654,-297"/>
<text text-anchor="middle" x="701" y="-304" font-family="Helvetica,sans-Serif" font-size="10.00">kernel/src/uproc.c</text>
</a>
</g>
</g>
<!-- Node37&#45;&gt;Node38 -->
<g id="edge61" class="edge">
<title>Node37&#45;&gt;Node38</title>
<path fill="none" stroke="midnightblue" d="M698.17,-353.54C698.93,-341.17 699.88,-325.62 700.47,-316.13"/>
<polygon fill="midnightblue" stroke="midnightblue" points="694.66,-353.54 697.54,-363.73 701.65,-353.97 694.66,-353.54"/>
</g>
</g>
</svg>
