<?xml version="1.0" encoding="UTF-8" standalone="no"?>
<!DOCTYPE svg PUBLIC "-//W3C//DTD SVG 1.1//EN"
 "http://www.w3.org/Graphics/SVG/1.1/DTD/svg11.dtd">
<!-- Generated by graphviz version 2.50.0 (20220203.2022)
 -->
<!-- Title: abstract&#45;machine/am/src/native/ioe/audio.c Pages: 1 -->
<svg width="327pt" height="207pt"
 viewBox="0.00 0.00 327.00 207.00" xmlns="http://www.w3.org/2000/svg" xmlns:xlink="http://www.w3.org/1999/xlink">
<g id="graph0" class="graph" transform="scale(1 1) rotate(0) translate(4 203)">
<title>abstract&#45;machine/am/src/native/ioe/audio.c</title>
<!-- Node1 -->
<g id="node1" class="node">
<title>Node1</title>
<g id="a_node1"><a xlink:title=" ">
<polygon fill="#bfbfbf" stroke="black" points="61.5,-168.5 61.5,-198.5 173.5,-198.5 173.5,-168.5 61.5,-168.5"/>
<text text-anchor="start" x="69.5" y="-186.5" font-family="Helvetica,sans-Serif" font-size="10.00">abstract&#45;machine/am</text>
<text text-anchor="middle" x="117.5" y="-175.5" font-family="Helvetica,sans-Serif" font-size="10.00">/src/native/ioe/audio.c</text>
</a>
</g>
</g>
<!-- Node2 -->
<g id="node2" class="node">
<title>Node2</title>
<g id="a_node2"><a xlink:title=" ">
<polygon fill="none" stroke="#bfbfbf" points="0,-112.5 0,-131.5 43,-131.5 43,-112.5 0,-112.5"/>
<text text-anchor="middle" x="21.5" y="-119.5" font-family="Helvetica,sans-Serif" font-size="10.00">fcntl.h</text>
</a>
</g>
</g>
<!-- Node1&#45;&gt;Node2 -->
<g id="edge1" class="edge">
<title>Node1&#45;&gt;Node2</title>
<path fill="none" stroke="midnightblue" d="M94.75,-168.4C79.51,-158.95 59.51,-146.56 44.26,-137.11"/>
<polygon fill="midnightblue" stroke="midnightblue" points="45.81,-133.95 35.47,-131.66 42.12,-139.9 45.81,-133.95"/>
</g>
<!-- Node3 -->
<g id="node3" class="node">
<title>Node3</title>
<g id="a_node3"><a xlink:title=" ">
<polygon fill="none" stroke="#bfbfbf" points="61.5,-112.5 61.5,-131.5 111.5,-131.5 111.5,-112.5 61.5,-112.5"/>
<text text-anchor="middle" x="86.5" y="-119.5" font-family="Helvetica,sans-Serif" font-size="10.00">unistd.h</text>
</a>
</g>
</g>
<!-- Node1&#45;&gt;Node3 -->
<g id="edge2" class="edge">
<title>Node1&#45;&gt;Node3</title>
<path fill="none" stroke="midnightblue" d="M110.15,-168.4C105.83,-160.11 100.33,-149.55 95.73,-140.71"/>
<polygon fill="midnightblue" stroke="midnightblue" points="98.74,-138.91 91.01,-131.66 92.53,-142.14 98.74,-138.91"/>
</g>
<!-- Node4 -->
<g id="node4" class="node">
<title>Node4</title>
<g id="a_node4"><a xlink:href="klib_8h.html" target="_top" xlink:title=" ">
<polygon fill="none" stroke="black" points="130,-112.5 130,-131.5 169,-131.5 169,-112.5 130,-112.5"/>
<text text-anchor="middle" x="149.5" y="-119.5" font-family="Helvetica,sans-Serif" font-size="10.00">klib.h</text>
</a>
</g>
</g>
<!-- Node1&#45;&gt;Node4 -->
<g id="edge3" class="edge">
<title>Node1&#45;&gt;Node4</title>
<path fill="none" stroke="midnightblue" d="M125.08,-168.4C129.54,-160.11 135.22,-149.55 139.98,-140.71"/>
<polygon fill="midnightblue" stroke="midnightblue" points="143.19,-142.12 144.84,-131.66 137.02,-138.81 143.19,-142.12"/>
</g>
<!-- Node11 -->
<g id="node11" class="node">
<title>Node11</title>
<g id="a_node11"><a xlink:title=" ">
<polygon fill="none" stroke="#bfbfbf" points="187,-112.5 187,-131.5 258,-131.5 258,-112.5 187,-112.5"/>
<text text-anchor="middle" x="222.5" y="-119.5" font-family="Helvetica,sans-Serif" font-size="10.00">SDL2/SDL.h</text>
</a>
</g>
</g>
<!-- Node1&#45;&gt;Node11 -->
<g id="edge11" class="edge">
<title>Node1&#45;&gt;Node11</title>
<path fill="none" stroke="midnightblue" d="M142.38,-168.4C159.21,-158.86 181.34,-146.32 198.07,-136.84"/>
<polygon fill="midnightblue" stroke="midnightblue" points="200.25,-139.63 207.22,-131.66 196.8,-133.54 200.25,-139.63"/>
</g>
<!-- Node5 -->
<g id="node5" class="node">
<title>Node5</title>
<g id="a_node5"><a xlink:href="am_8h.html" target="_top" xlink:title=" ">
<polygon fill="none" stroke="black" points="130.5,-56.5 130.5,-75.5 168.5,-75.5 168.5,-56.5 130.5,-56.5"/>
<text text-anchor="middle" x="149.5" y="-63.5" font-family="Helvetica,sans-Serif" font-size="10.00">am.h</text>
</a>
</g>
</g>
<!-- Node4&#45;&gt;Node5 -->
<g id="edge4" class="edge">
<title>Node4&#45;&gt;Node5</title>
<path fill="none" stroke="midnightblue" d="M149.5,-112.08C149.5,-105.01 149.5,-94.86 149.5,-85.99"/>
<polygon fill="midnightblue" stroke="midnightblue" points="153,-85.75 149.5,-75.75 146,-85.75 153,-85.75"/>
</g>
<!-- Node7 -->
<g id="node7" class="node">
<title>Node7</title>
<g id="a_node7"><a xlink:title=" ">
<polygon fill="none" stroke="#bfbfbf" points="56,-0.5 56,-19.5 107,-19.5 107,-0.5 56,-0.5"/>
<text text-anchor="middle" x="81.5" y="-7.5" font-family="Helvetica,sans-Serif" font-size="10.00">stddef.h</text>
</a>
</g>
</g>
<!-- Node4&#45;&gt;Node7 -->
<g id="edge9" class="edge">
<title>Node4&#45;&gt;Node7</title>
<path fill="none" stroke="midnightblue" d="M144.12,-112.38C138.47,-103.33 129.34,-88.68 121.5,-76 111.61,-60.02 100.4,-41.79 92.37,-28.71"/>
<polygon fill="midnightblue" stroke="midnightblue" points="95.14,-26.53 86.92,-19.84 89.17,-30.19 95.14,-26.53"/>
</g>
<!-- Node10 -->
<g id="node10" class="node">
<title>Node10</title>
<g id="a_node10"><a xlink:title=" ">
<polygon fill="none" stroke="#bfbfbf" points="187,-56.5 187,-75.5 238,-75.5 238,-56.5 187,-56.5"/>
<text text-anchor="middle" x="212.5" y="-63.5" font-family="Helvetica,sans-Serif" font-size="10.00">stdarg.h</text>
</a>
</g>
</g>
<!-- Node4&#45;&gt;Node10 -->
<g id="edge10" class="edge">
<title>Node4&#45;&gt;Node10</title>
<path fill="none" stroke="midnightblue" d="M159.62,-112.32C169.03,-104.26 183.24,-92.08 194.57,-82.37"/>
<polygon fill="midnightblue" stroke="midnightblue" points="196.88,-85 202.19,-75.83 192.32,-79.68 196.88,-85"/>
</g>
<!-- Node6 -->
<g id="node6" class="node">
<title>Node6</title>
<g id="a_node6"><a xlink:title=" ">
<polygon fill="none" stroke="#bfbfbf" points="125.5,-0.5 125.5,-19.5 173.5,-19.5 173.5,-0.5 125.5,-0.5"/>
<text text-anchor="middle" x="149.5" y="-7.5" font-family="Helvetica,sans-Serif" font-size="10.00">stdint.h</text>
</a>
</g>
</g>
<!-- Node5&#45;&gt;Node6 -->
<g id="edge5" class="edge">
<title>Node5&#45;&gt;Node6</title>
<path fill="none" stroke="midnightblue" d="M149.5,-56.08C149.5,-49.01 149.5,-38.86 149.5,-29.99"/>
<polygon fill="midnightblue" stroke="midnightblue" points="153,-29.75 149.5,-19.75 146,-29.75 153,-29.75"/>
</g>
<!-- Node5&#45;&gt;Node7 -->
<g id="edge6" class="edge">
<title>Node5&#45;&gt;Node7</title>
<path fill="none" stroke="midnightblue" d="M138.57,-56.32C128.33,-48.18 112.78,-35.84 100.5,-26.09"/>
<polygon fill="midnightblue" stroke="midnightblue" points="102.63,-23.31 92.62,-19.83 98.28,-28.79 102.63,-23.31"/>
</g>
<!-- Node8 -->
<g id="node8" class="node">
<title>Node8</title>
<g id="a_node8"><a xlink:title=" ">
<polygon fill="none" stroke="#bfbfbf" points="191.5,-0.5 191.5,-19.5 247.5,-19.5 247.5,-0.5 191.5,-0.5"/>
<text text-anchor="middle" x="219.5" y="-7.5" font-family="Helvetica,sans-Serif" font-size="10.00">stdbool.h</text>
</a>
</g>
</g>
<!-- Node5&#45;&gt;Node8 -->
<g id="edge7" class="edge">
<title>Node5&#45;&gt;Node8</title>
<path fill="none" stroke="midnightblue" d="M160.75,-56.32C171.3,-48.18 187.3,-35.84 199.94,-26.09"/>
<polygon fill="midnightblue" stroke="midnightblue" points="202.27,-28.71 208.05,-19.83 197.99,-23.17 202.27,-28.71"/>
</g>
<!-- Node9 -->
<g id="node9" class="node">
<title>Node9</title>
<g id="a_node9"><a xlink:href="amdev_8h.html" target="_top" xlink:title=" ">
<polygon fill="none" stroke="black" points="266,-0.5 266,-19.5 319,-19.5 319,-0.5 266,-0.5"/>
<text text-anchor="middle" x="292.5" y="-7.5" font-family="Helvetica,sans-Serif" font-size="10.00">amdev.h</text>
</a>
</g>
</g>
<!-- Node5&#45;&gt;Node9 -->
<g id="edge8" class="edge">
<title>Node5&#45;&gt;Node9</title>
<path fill="none" stroke="midnightblue" d="M168.79,-57.72C192.24,-48.86 232.19,-33.77 260.34,-23.15"/>
<polygon fill="midnightblue" stroke="midnightblue" points="261.63,-26.4 269.75,-19.59 259.16,-19.85 261.63,-26.4"/>
</g>
</g>
</svg>
