<?xml version="1.0" encoding="UTF-8" standalone="no"?>
<!DOCTYPE svg PUBLIC "-//W3C//DTD SVG 1.1//EN"
 "http://www.w3.org/Graphics/SVG/1.1/DTD/svg11.dtd">
<!-- Generated by graphviz version 3.0.0 (20220413.0106)
 -->
<!-- Title: buddy_init Pages: 1 -->
<svg width="279pt" height="28pt"
 viewBox="0.00 0.00 279.00 28.00" xmlns="http://www.w3.org/2000/svg" xmlns:xlink="http://www.w3.org/1999/xlink">
<g id="graph0" class="graph" transform="scale(1 1) rotate(0) translate(4 24)">
<title>buddy_init</title>
<!-- Node1 -->
<g id="node1" class="node">
<title>Node1</title>
<g id="a_node1"><a xlink:title="initialize the buddy system">
<polygon fill="#bfbfbf" stroke="black" points="211,-0.5 211,-19.5 271,-19.5 271,-0.5 211,-0.5"/>
<text text-anchor="middle" x="241" y="-7.5" font-family="Helvetica,sans-Serif" font-size="10.00">buddy_init</text>
</a>
</g>
</g>
<!-- Node2 -->
<g id="node2" class="node">
<title>Node2</title>
<g id="a_node2"><a xlink:href="pmm_8c.html#a393796678826afd801058312f851ca43" target="_top" xlink:title=" ">
<polygon fill="none" stroke="black" points="119,-0.5 119,-19.5 175,-19.5 175,-0.5 119,-0.5"/>
<text text-anchor="middle" x="147" y="-7.5" font-family="Helvetica,sans-Serif" font-size="10.00">pmm_init</text>
</a>
</g>
</g>
<!-- Node1&#45;&gt;Node2 -->
<g id="edge1" class="edge">
<title>Node1&#45;&gt;Node2</title>
<path fill="none" stroke="midnightblue" d="M200.61,-10C191.99,-10 183.05,-10 175.04,-10"/>
<polygon fill="midnightblue" stroke="midnightblue" points="200.89,-13.5 210.89,-10 200.89,-6.5 200.89,-13.5"/>
</g>
<!-- Node3 -->
<g id="node3" class="node">
<title>Node3</title>
<g id="a_node3"><a xlink:href="pmm_8c.html#a7ada9deb0ae8705f2cc158b0283aaeb3" target="_top" xlink:title=" ">
<polygon fill="none" stroke="black" points="0,-0.5 0,-19.5 83,-19.5 83,-0.5 0,-0.5"/>
<text text-anchor="middle" x="41.5" y="-7.5" font-family="Helvetica,sans-Serif" font-size="10.00">MODULE_DEF</text>
</a>
</g>
</g>
<!-- Node2&#45;&gt;Node3 -->
<g id="edge2" class="edge">
<title>Node2&#45;&gt;Node3</title>
<path fill="none" stroke="midnightblue" d="M108.67,-10C100.38,-10 91.56,-10 83.15,-10"/>
<polygon fill="midnightblue" stroke="midnightblue" points="108.81,-13.5 118.81,-10 108.81,-6.5 108.81,-13.5"/>
</g>
</g>
</svg>
