<?xml version="1.0" encoding="UTF-8" standalone="no"?>
<!DOCTYPE svg PUBLIC "-//W3C//DTD SVG 1.1//EN"
 "http://www.w3.org/Graphics/SVG/1.1/DTD/svg11.dtd">
<!-- Generated by graphviz version 3.0.0 (20220413.0106)
 -->
<!-- Title: buddy_init Pages: 1 -->
<svg width="661pt" height="256pt"
 viewBox="0.00 0.00 661.00 256.00" xmlns="http://www.w3.org/2000/svg" xmlns:xlink="http://www.w3.org/1999/xlink">
<g id="graph0" class="graph" transform="scale(1 1) rotate(0) translate(4 252)">
<title>buddy_init</title>
<!-- Node1 -->
<g id="node1" class="node">
<title>Node1</title>
<g id="a_node1"><a xlink:title="initialize the buddy system">
<polygon fill="#bfbfbf" stroke="black" points="0,-57.5 0,-76.5 60,-76.5 60,-57.5 0,-57.5"/>
<text text-anchor="middle" x="30" y="-64.5" font-family="Helvetica,sans-Serif" font-size="10.00">buddy_init</text>
</a>
</g>
</g>
<!-- Node2 -->
<g id="node2" class="node">
<title>Node2</title>
<g id="a_node2"><a xlink:href="buddy_8c.html#a77f7615f76209d4083ef2d0826d90a1e" target="_top" xlink:title="free a chunk and process in deep.">
<polygon fill="none" stroke="black" points="111,-114.5 111,-133.5 176,-133.5 176,-114.5 111,-114.5"/>
<text text-anchor="middle" x="143.5" y="-121.5" font-family="Helvetica,sans-Serif" font-size="10.00">chunk_free</text>
</a>
</g>
</g>
<!-- Node1&#45;&gt;Node2 -->
<g id="edge1" class="edge">
<title>Node1&#45;&gt;Node2</title>
<path fill="none" stroke="midnightblue" d="M49.66,-76.54C67.43,-85.62 94.4,-99.41 114.7,-109.79"/>
<polygon fill="midnightblue" stroke="midnightblue" points="113.28,-112.99 123.78,-114.43 116.47,-106.76 113.28,-112.99"/>
</g>
<!-- Node4 -->
<g id="node4" class="node">
<title>Node4</title>
<g id="a_node4"><a xlink:href="structfree__list.html#a338aea6183dad7ec975539e4e1def837" target="_top" xlink:title=" ">
<polygon fill="none" stroke="black" points="466,-76.5 466,-95.5 556,-95.5 556,-76.5 466,-76.5"/>
<text text-anchor="middle" x="511" y="-83.5" font-family="Helvetica,sans-Serif" font-size="10.00">free_list::free_list</text>
</a>
</g>
</g>
<!-- Node1&#45;&gt;Node4 -->
<g id="edge14" class="edge">
<title>Node1&#45;&gt;Node4</title>
<path fill="none" stroke="midnightblue" d="M60.24,-68.16C138.6,-71.27 354.19,-79.82 455.74,-83.85"/>
<polygon fill="midnightblue" stroke="midnightblue" points="455.66,-87.35 465.79,-84.25 455.94,-80.35 455.66,-87.35"/>
</g>
<!-- Node14 -->
<g id="node14" class="node">
<title>Node14</title>
<g id="a_node14"><a xlink:href="list_8h.html#aea85dd50b9129ddaa3e3c67ed55804e4" target="_top" xlink:title=" ">
<polygon fill="none" stroke="black" points="96,-38.5 96,-57.5 191,-57.5 191,-38.5 96,-38.5"/>
<text text-anchor="middle" x="143.5" y="-45.5" font-family="Helvetica,sans-Serif" font-size="10.00">INIT_LIST_HEAD</text>
</a>
</g>
</g>
<!-- Node1&#45;&gt;Node14 -->
<g id="edge15" class="edge">
<title>Node1&#45;&gt;Node14</title>
<path fill="none" stroke="midnightblue" d="M60,-62.06C67.97,-60.7 76.9,-59.18 85.86,-57.65"/>
<polygon fill="midnightblue" stroke="midnightblue" points="86.66,-61.07 95.93,-55.94 85.49,-54.17 86.66,-61.07"/>
</g>
<!-- Node15 -->
<g id="node15" class="node">
<title>Node15</title>
<g id="a_node15"><a xlink:href="string_8c.html#a7a8fd43b209c9ea19addab23a5f23995" target="_top" xlink:title=" ">
<polygon fill="none" stroke="black" points="117.5,-0.5 117.5,-19.5 169.5,-19.5 169.5,-0.5 117.5,-0.5"/>
<text text-anchor="middle" x="143.5" y="-7.5" font-family="Helvetica,sans-Serif" font-size="10.00">memset</text>
</a>
</g>
</g>
<!-- Node1&#45;&gt;Node15 -->
<g id="edge16" class="edge">
<title>Node1&#45;&gt;Node15</title>
<path fill="none" stroke="midnightblue" d="M45.9,-57.47C58.87,-49.39 78.3,-37.74 96,-29 99.78,-27.13 103.8,-25.29 107.82,-23.54"/>
<polygon fill="midnightblue" stroke="midnightblue" points="109.26,-26.73 117.11,-19.62 106.54,-20.28 109.26,-26.73"/>
</g>
<!-- Node3 -->
<g id="node3" class="node">
<title>Node3</title>
<g id="a_node3"><a xlink:href="buddy_8c.html#acd10ee3138eeeac7c91ef5928f2135ea" target="_top" xlink:title="make a chunk added to free list.">
<polygon fill="none" stroke="black" points="344,-114.5 344,-133.5 424,-133.5 424,-114.5 344,-114.5"/>
<text text-anchor="middle" x="384" y="-121.5" font-family="Helvetica,sans-Serif" font-size="10.00">chunk_append</text>
</a>
</g>
</g>
<!-- Node2&#45;&gt;Node3 -->
<g id="edge2" class="edge">
<title>Node2&#45;&gt;Node3</title>
<path fill="none" stroke="midnightblue" d="M176.17,-124C216.43,-124 286.36,-124 333.64,-124"/>
<polygon fill="midnightblue" stroke="midnightblue" points="333.66,-127.5 343.66,-124 333.66,-120.5 333.66,-127.5"/>
</g>
<!-- Node7 -->
<g id="node7" class="node">
<title>Node7</title>
<g id="a_node7"><a xlink:href="buddy_8c.html#a9ae41f7f508f07ceba45065973ce5507" target="_top" xlink:title=" ">
<polygon fill="none" stroke="black" points="227,-152.5 227,-171.5 302,-171.5 302,-152.5 227,-152.5"/>
<text text-anchor="middle" x="264.5" y="-159.5" font-family="Helvetica,sans-Serif" font-size="10.00">chunk_merge</text>
</a>
</g>
</g>
<!-- Node2&#45;&gt;Node7 -->
<g id="edge6" class="edge">
<title>Node2&#45;&gt;Node7</title>
<path fill="none" stroke="midnightblue" d="M174.53,-133.59C189.47,-138.36 207.72,-144.19 223.8,-149.32"/>
<polygon fill="midnightblue" stroke="midnightblue" points="222.89,-152.71 233.48,-152.41 225.02,-146.04 222.89,-152.71"/>
</g>
<!-- Node3&#45;&gt;Node4 -->
<g id="edge3" class="edge">
<title>Node3&#45;&gt;Node4</title>
<path fill="none" stroke="midnightblue" d="M416.54,-114.41C432.38,-109.6 451.77,-103.7 468.78,-98.53"/>
<polygon fill="midnightblue" stroke="midnightblue" points="469.92,-101.84 478.47,-95.59 467.88,-95.15 469.92,-101.84"/>
</g>
<!-- Node5 -->
<g id="node5" class="node">
<title>Node5</title>
<g id="a_node5"><a xlink:href="list_8h.html#a06a80666b3364324fc601ab7ae1ff20b" target="_top" xlink:title=" ">
<polygon fill="none" stroke="black" points="486,-114.5 486,-133.5 536,-133.5 536,-114.5 486,-114.5"/>
<text text-anchor="middle" x="511" y="-121.5" font-family="Helvetica,sans-Serif" font-size="10.00">list_add</text>
</a>
</g>
</g>
<!-- Node3&#45;&gt;Node5 -->
<g id="edge4" class="edge">
<title>Node3&#45;&gt;Node5</title>
<path fill="none" stroke="midnightblue" d="M424.21,-124C440.61,-124 459.52,-124 475.4,-124"/>
<polygon fill="midnightblue" stroke="midnightblue" points="475.84,-127.5 485.84,-124 475.84,-120.5 475.84,-127.5"/>
</g>
<!-- Node6 -->
<g id="node6" class="node">
<title>Node6</title>
<g id="a_node6"><a xlink:href="list_8h.html#a83ecb02c2209a8fd5f6470d45a07f875" target="_top" xlink:title=" ">
<polygon fill="none" stroke="black" points="592,-114.5 592,-133.5 653,-133.5 653,-114.5 592,-114.5"/>
<text text-anchor="middle" x="622.5" y="-121.5" font-family="Helvetica,sans-Serif" font-size="10.00">__list_add</text>
</a>
</g>
</g>
<!-- Node5&#45;&gt;Node6 -->
<g id="edge5" class="edge">
<title>Node5&#45;&gt;Node6</title>
<path fill="none" stroke="midnightblue" d="M536.03,-124C549.33,-124 566.2,-124 581.44,-124"/>
<polygon fill="midnightblue" stroke="midnightblue" points="581.66,-127.5 591.66,-124 581.66,-120.5 581.66,-127.5"/>
</g>
<!-- Node7&#45;&gt;Node3 -->
<g id="edge7" class="edge">
<title>Node7&#45;&gt;Node3</title>
<path fill="none" stroke="midnightblue" d="M295.15,-152.41C309.9,-147.64 327.93,-141.81 343.8,-136.68"/>
<polygon fill="midnightblue" stroke="midnightblue" points="344.92,-139.99 353.36,-133.59 342.77,-133.33 344.92,-139.99"/>
</g>
<!-- Node8 -->
<g id="node8" class="node">
<title>Node8</title>
<g id="a_node8"><a xlink:href="buddy_8c.html#a8a4afbc5643993142db5ad65b87b8c62" target="_top" xlink:title=" ">
<polygon fill="none" stroke="black" points="353.5,-209.5 353.5,-228.5 414.5,-228.5 414.5,-209.5 353.5,-209.5"/>
<text text-anchor="middle" x="384" y="-216.5" font-family="Helvetica,sans-Serif" font-size="10.00">chunk_del</text>
</a>
</g>
</g>
<!-- Node7&#45;&gt;Node8 -->
<g id="edge8" class="edge">
<title>Node7&#45;&gt;Node8</title>
<path fill="none" stroke="midnightblue" d="M285.17,-171.54C303.98,-180.66 332.57,-194.53 353.99,-204.93"/>
<polygon fill="midnightblue" stroke="midnightblue" points="352.74,-208.21 363.27,-209.43 355.8,-201.91 352.74,-208.21"/>
</g>
<!-- Node11 -->
<g id="node11" class="node">
<title>Node11</title>
<g id="a_node11"><a xlink:href="buddy_8c.html#a48594e69fff9b58d5f41dca7d576eb35" target="_top" xlink:title="Get the buddy chunk.">
<polygon fill="none" stroke="black" points="338,-152.5 338,-171.5 430,-171.5 430,-152.5 338,-152.5"/>
<text text-anchor="middle" x="384" y="-159.5" font-family="Helvetica,sans-Serif" font-size="10.00">get_buddy_chunk</text>
</a>
</g>
</g>
<!-- Node7&#45;&gt;Node11 -->
<g id="edge11" class="edge">
<title>Node7&#45;&gt;Node11</title>
<path fill="none" stroke="midnightblue" d="M302.03,-162C310.17,-162 318.97,-162 327.67,-162"/>
<polygon fill="midnightblue" stroke="midnightblue" points="327.79,-165.5 337.79,-162 327.79,-158.5 327.79,-165.5"/>
</g>
<!-- Node9 -->
<g id="node9" class="node">
<title>Node9</title>
<g id="a_node9"><a xlink:href="list_8h.html#ab1708206f0f7e0a56550b35372203ba5" target="_top" xlink:title=" ">
<polygon fill="none" stroke="black" points="487.5,-228.5 487.5,-247.5 534.5,-247.5 534.5,-228.5 487.5,-228.5"/>
<text text-anchor="middle" x="511" y="-235.5" font-family="Helvetica,sans-Serif" font-size="10.00">list_del</text>
</a>
</g>
</g>
<!-- Node8&#45;&gt;Node9 -->
<g id="edge9" class="edge">
<title>Node8&#45;&gt;Node9</title>
<path fill="none" stroke="midnightblue" d="M414.62,-223.5C433.47,-226.37 457.9,-230.08 477.31,-233.03"/>
<polygon fill="midnightblue" stroke="midnightblue" points="476.82,-236.5 487.23,-234.54 477.87,-229.58 476.82,-236.5"/>
</g>
<!-- Node10 -->
<g id="node10" class="node">
<title>Node10</title>
<g id="a_node10"><a xlink:href="list_8h.html#a24b474717d65a296695e8b79b4adefda" target="_top" xlink:title=" ">
<polygon fill="none" stroke="black" points="593.5,-228.5 593.5,-247.5 651.5,-247.5 651.5,-228.5 593.5,-228.5"/>
<text text-anchor="middle" x="622.5" y="-235.5" font-family="Helvetica,sans-Serif" font-size="10.00">__list_del</text>
</a>
</g>
</g>
<!-- Node9&#45;&gt;Node10 -->
<g id="edge10" class="edge">
<title>Node9&#45;&gt;Node10</title>
<path fill="none" stroke="midnightblue" d="M534.69,-238C548.67,-238 566.95,-238 583.13,-238"/>
<polygon fill="midnightblue" stroke="midnightblue" points="583.39,-241.5 593.39,-238 583.39,-234.5 583.39,-241.5"/>
</g>
<!-- Node12 -->
<g id="node12" class="node">
<title>Node12</title>
<g id="a_node12"><a xlink:href="buddy_8c.html#a7d6c4f020f51f2a621ca1ab5a4e6a5bb" target="_top" xlink:title="translate chunk address to virtual address">
<polygon fill="none" stroke="black" points="480,-152.5 480,-171.5 542,-171.5 542,-152.5 480,-152.5"/>
<text text-anchor="middle" x="511" y="-159.5" font-family="Helvetica,sans-Serif" font-size="10.00">chunk2virt</text>
</a>
</g>
</g>
<!-- Node11&#45;&gt;Node12 -->
<g id="edge12" class="edge">
<title>Node11&#45;&gt;Node12</title>
<path fill="none" stroke="midnightblue" d="M430.13,-162C443.02,-162 456.99,-162 469.58,-162"/>
<polygon fill="midnightblue" stroke="midnightblue" points="469.78,-165.5 479.78,-162 469.78,-158.5 469.78,-165.5"/>
</g>
<!-- Node13 -->
<g id="node13" class="node">
<title>Node13</title>
<g id="a_node13"><a xlink:href="buddy_8c.html#ad1eda4b9fbb516f58586845217f68723" target="_top" xlink:title="translate virtual address to chunk address">
<polygon fill="none" stroke="black" points="480,-190.5 480,-209.5 542,-209.5 542,-190.5 480,-190.5"/>
<text text-anchor="middle" x="511" y="-197.5" font-family="Helvetica,sans-Serif" font-size="10.00">virt2chunk</text>
</a>
</g>
</g>
<!-- Node11&#45;&gt;Node13 -->
<g id="edge13" class="edge">
<title>Node11&#45;&gt;Node13</title>
<path fill="none" stroke="midnightblue" d="M416.54,-171.59C432.75,-176.51 452.66,-182.57 469.94,-187.82"/>
<polygon fill="midnightblue" stroke="midnightblue" points="469.18,-191.25 479.76,-190.81 471.21,-184.55 469.18,-191.25"/>
</g>
</g>
</svg>
