<?xml version="1.0" encoding="UTF-8" standalone="no"?>
<!DOCTYPE svg PUBLIC "-//W3C//DTD SVG 1.1//EN"
 "http://www.w3.org/Graphics/SVG/1.1/DTD/svg11.dtd">
<!-- Generated by graphviz version 3.0.0 (20220413.0106)
 -->
<!-- Title: kernel/src/buddy.c Pages: 1 -->
<svg width="418pt" height="308pt"
 viewBox="0.00 0.00 417.50 308.00" xmlns="http://www.w3.org/2000/svg" xmlns:xlink="http://www.w3.org/1999/xlink">
<g id="graph0" class="graph" transform="scale(1 1) rotate(0) translate(4 304)">
<title>kernel/src/buddy.c</title>
<!-- Node1 -->
<g id="node1" class="node">
<title>Node1</title>
<g id="a_node1"><a xlink:title="impl of buddy system">
<polygon fill="#bfbfbf" stroke="black" points="282,-280.5 282,-299.5 377,-299.5 377,-280.5 282,-280.5"/>
<text text-anchor="middle" x="329.5" y="-287.5" font-family="Helvetica,sans-Serif" font-size="10.00">kernel/src/buddy.c</text>
</a>
</g>
</g>
<!-- Node2 -->
<g id="node2" class="node">
<title>Node2</title>
<g id="a_node2"><a xlink:href="buddy_8h.html" target="_top" xlink:title=" ">
<polygon fill="none" stroke="black" points="304.5,-224.5 304.5,-243.5 354.5,-243.5 354.5,-224.5 304.5,-224.5"/>
<text text-anchor="middle" x="329.5" y="-231.5" font-family="Helvetica,sans-Serif" font-size="10.00">buddy.h</text>
</a>
</g>
</g>
<!-- Node1&#45;&gt;Node2 -->
<g id="edge1" class="edge">
<title>Node1&#45;&gt;Node2</title>
<path fill="none" stroke="midnightblue" d="M329.5,-280.08C329.5,-273.01 329.5,-262.86 329.5,-253.99"/>
<polygon fill="midnightblue" stroke="midnightblue" points="333,-253.75 329.5,-243.75 326,-253.75 333,-253.75"/>
</g>
<!-- Node3 -->
<g id="node3" class="node">
<title>Node3</title>
<g id="a_node3"><a xlink:href="common_8h.html" target="_top" xlink:title=" ">
<polygon fill="none" stroke="black" points="238.5,-168.5 238.5,-187.5 300.5,-187.5 300.5,-168.5 238.5,-168.5"/>
<text text-anchor="middle" x="269.5" y="-175.5" font-family="Helvetica,sans-Serif" font-size="10.00">common.h</text>
</a>
</g>
</g>
<!-- Node1&#45;&gt;Node3 -->
<g id="edge21" class="edge">
<title>Node1&#45;&gt;Node3</title>
<path fill="none" stroke="midnightblue" d="M321.71,-280.19C314.27,-271.46 303.1,-257.47 295.5,-244 287.02,-228.97 279.94,-210.61 275.33,-197.24"/>
<polygon fill="midnightblue" stroke="midnightblue" points="278.65,-196.13 272.17,-187.75 272,-198.34 278.65,-196.13"/>
</g>
<!-- Node13 -->
<g id="node13" class="node">
<title>Node13</title>
<g id="a_node13"><a xlink:href="logger_8h.html" target="_top" xlink:title=" ">
<polygon fill="none" stroke="black" points="359.5,-112.5 359.5,-131.5 409.5,-131.5 409.5,-112.5 359.5,-112.5"/>
<text text-anchor="middle" x="384.5" y="-119.5" font-family="Helvetica,sans-Serif" font-size="10.00">logger.h</text>
</a>
</g>
</g>
<!-- Node1&#45;&gt;Node13 -->
<g id="edge22" class="edge">
<title>Node1&#45;&gt;Node13</title>
<path fill="none" stroke="midnightblue" d="M338.23,-280.18C346.12,-271.66 357.42,-258.01 363.5,-244 378.3,-209.89 382.68,-166.11 383.97,-141.65"/>
<polygon fill="midnightblue" stroke="midnightblue" points="387.47,-141.74 384.38,-131.61 380.48,-141.46 387.47,-141.74"/>
</g>
<!-- Node2&#45;&gt;Node3 -->
<g id="edge2" class="edge">
<title>Node2&#45;&gt;Node3</title>
<path fill="none" stroke="midnightblue" d="M319.86,-224.32C310.99,-216.34 297.63,-204.31 286.89,-194.65"/>
<polygon fill="midnightblue" stroke="midnightblue" points="289.09,-191.92 279.32,-187.83 284.41,-197.13 289.09,-191.92"/>
</g>
<!-- Node15 -->
<g id="node15" class="node">
<title>Node15</title>
<g id="a_node15"><a xlink:href="list_8h.html" target="_top" xlink:title="double circular linked list impl without concurrency">
<polygon fill="none" stroke="black" points="319,-168.5 319,-187.5 356,-187.5 356,-168.5 319,-168.5"/>
<text text-anchor="middle" x="337.5" y="-175.5" font-family="Helvetica,sans-Serif" font-size="10.00">list.h</text>
</a>
</g>
</g>
<!-- Node2&#45;&gt;Node15 -->
<g id="edge19" class="edge">
<title>Node2&#45;&gt;Node15</title>
<path fill="none" stroke="midnightblue" d="M330.82,-224.08C331.88,-216.93 333.41,-206.64 334.73,-197.69"/>
<polygon fill="midnightblue" stroke="midnightblue" points="338.2,-198.16 336.2,-187.75 331.28,-197.13 338.2,-198.16"/>
</g>
<!-- Node4 -->
<g id="node4" class="node">
<title>Node4</title>
<g id="a_node4"><a xlink:href="am_8h.html" target="_top" xlink:title=" ">
<polygon fill="none" stroke="black" points="170.5,-56.5 170.5,-75.5 208.5,-75.5 208.5,-56.5 170.5,-56.5"/>
<text text-anchor="middle" x="189.5" y="-63.5" font-family="Helvetica,sans-Serif" font-size="10.00">am.h</text>
</a>
</g>
</g>
<!-- Node3&#45;&gt;Node4 -->
<g id="edge3" class="edge">
<title>Node3&#45;&gt;Node4</title>
<path fill="none" stroke="midnightblue" d="M272.96,-168.27C277.59,-155.06 284.07,-129.65 273.5,-112 261.63,-92.18 237.71,-80.59 218.42,-74.15"/>
<polygon fill="midnightblue" stroke="midnightblue" points="219.43,-70.8 208.85,-71.24 217.4,-77.5 219.43,-70.8"/>
</g>
<!-- Node8 -->
<g id="node8" class="node">
<title>Node8</title>
<g id="a_node8"><a xlink:href="amdev_8h.html" target="_top" xlink:title=" ">
<polygon fill="none" stroke="black" points="292,-0.5 292,-19.5 345,-19.5 345,-0.5 292,-0.5"/>
<text text-anchor="middle" x="318.5" y="-7.5" font-family="Helvetica,sans-Serif" font-size="10.00">amdev.h</text>
</a>
</g>
</g>
<!-- Node3&#45;&gt;Node8 -->
<g id="edge8" class="edge">
<title>Node3&#45;&gt;Node8</title>
<path fill="none" stroke="midnightblue" d="M274.25,-168.26C278.92,-159.36 286,-145.04 290.5,-132 302.7,-96.63 311.22,-53.62 315.45,-29.57"/>
<polygon fill="midnightblue" stroke="midnightblue" points="318.91,-30.13 317.13,-19.68 312.01,-28.95 318.91,-30.13"/>
</g>
<!-- Node9 -->
<g id="node9" class="node">
<title>Node9</title>
<g id="a_node9"><a xlink:href="kernel_8h.html" target="_top" xlink:title=" ">
<polygon fill="none" stroke="black" points="57.5,-112.5 57.5,-131.5 107.5,-131.5 107.5,-112.5 57.5,-112.5"/>
<text text-anchor="middle" x="82.5" y="-119.5" font-family="Helvetica,sans-Serif" font-size="10.00">kernel.h</text>
</a>
</g>
</g>
<!-- Node3&#45;&gt;Node9 -->
<g id="edge9" class="edge">
<title>Node3&#45;&gt;Node9</title>
<path fill="none" stroke="midnightblue" d="M239.87,-168.44C206.59,-158.83 152.65,-143.26 117.37,-133.07"/>
<polygon fill="midnightblue" stroke="midnightblue" points="118.08,-129.63 107.5,-130.22 116.14,-136.36 118.08,-129.63"/>
</g>
<!-- Node10 -->
<g id="node10" class="node">
<title>Node10</title>
<g id="a_node10"><a xlink:href="klib_8h.html" target="_top" xlink:title=" ">
<polygon fill="none" stroke="black" points="0,-112.5 0,-131.5 39,-131.5 39,-112.5 0,-112.5"/>
<text text-anchor="middle" x="19.5" y="-119.5" font-family="Helvetica,sans-Serif" font-size="10.00">klib.h</text>
</a>
</g>
</g>
<!-- Node3&#45;&gt;Node10 -->
<g id="edge11" class="edge">
<title>Node3&#45;&gt;Node10</title>
<path fill="none" stroke="midnightblue" d="M238.17,-171.64C196.98,-164.37 122.23,-150.42 48.94,-131.89"/>
<polygon fill="midnightblue" stroke="midnightblue" points="49.64,-128.46 39.08,-129.37 47.9,-135.24 49.64,-128.46"/>
</g>
<!-- Node12 -->
<g id="node12" class="node">
<title>Node12</title>
<g id="a_node12"><a xlink:href="klib-macros_8h.html" target="_top" xlink:title=" ">
<polygon fill="none" stroke="black" points="125.5,-112.5 125.5,-131.5 199.5,-131.5 199.5,-112.5 125.5,-112.5"/>
<text text-anchor="middle" x="162.5" y="-119.5" font-family="Helvetica,sans-Serif" font-size="10.00">klib&#45;macros.h</text>
</a>
</g>
</g>
<!-- Node3&#45;&gt;Node12 -->
<g id="edge15" class="edge">
<title>Node3&#45;&gt;Node12</title>
<path fill="none" stroke="midnightblue" d="M252.31,-168.32C235.15,-159.66 208.55,-146.24 188.75,-136.25"/>
<polygon fill="midnightblue" stroke="midnightblue" points="190.15,-133.04 179.65,-131.65 187,-139.28 190.15,-133.04"/>
</g>
<!-- Node3&#45;&gt;Node13 -->
<g id="edge16" class="edge">
<title>Node3&#45;&gt;Node13</title>
<path fill="none" stroke="midnightblue" d="M287.72,-168.44C306.4,-159.68 335.66,-145.94 357.12,-135.86"/>
<polygon fill="midnightblue" stroke="midnightblue" points="358.8,-138.93 366.36,-131.52 355.82,-132.6 358.8,-138.93"/>
</g>
<!-- Node14 -->
<g id="node14" class="node">
<title>Node14</title>
<g id="a_node14"><a xlink:title=" ">
<polygon fill="none" stroke="#bfbfbf" points="218,-112.5 218,-131.5 265,-131.5 265,-112.5 218,-112.5"/>
<text text-anchor="middle" x="241.5" y="-119.5" font-family="Helvetica,sans-Serif" font-size="10.00">limits.h</text>
</a>
</g>
</g>
<!-- Node3&#45;&gt;Node14 -->
<g id="edge18" class="edge">
<title>Node3&#45;&gt;Node14</title>
<path fill="none" stroke="midnightblue" d="M264.88,-168.08C261.04,-160.69 255.48,-149.95 250.74,-140.81"/>
<polygon fill="midnightblue" stroke="midnightblue" points="253.75,-139.02 246.04,-131.75 247.53,-142.24 253.75,-139.02"/>
</g>
<!-- Node5 -->
<g id="node5" class="node">
<title>Node5</title>
<g id="a_node5"><a xlink:title=" ">
<polygon fill="none" stroke="#bfbfbf" points="200.5,-0.5 200.5,-19.5 248.5,-19.5 248.5,-0.5 200.5,-0.5"/>
<text text-anchor="middle" x="224.5" y="-7.5" font-family="Helvetica,sans-Serif" font-size="10.00">stdint.h</text>
</a>
</g>
</g>
<!-- Node4&#45;&gt;Node5 -->
<g id="edge4" class="edge">
<title>Node4&#45;&gt;Node5</title>
<path fill="none" stroke="midnightblue" d="M195.28,-56.08C200.17,-48.53 207.33,-37.49 213.33,-28.23"/>
<polygon fill="midnightblue" stroke="midnightblue" points="216.33,-30.05 218.83,-19.75 210.45,-26.24 216.33,-30.05"/>
</g>
<!-- Node6 -->
<g id="node6" class="node">
<title>Node6</title>
<g id="a_node6"><a xlink:title=" ">
<polygon fill="none" stroke="#bfbfbf" points="7,-0.5 7,-19.5 58,-19.5 58,-0.5 7,-0.5"/>
<text text-anchor="middle" x="32.5" y="-7.5" font-family="Helvetica,sans-Serif" font-size="10.00">stddef.h</text>
</a>
</g>
</g>
<!-- Node4&#45;&gt;Node6 -->
<g id="edge5" class="edge">
<title>Node4&#45;&gt;Node6</title>
<path fill="none" stroke="midnightblue" d="M170.25,-58.38C144.61,-49.56 98.81,-33.81 67.1,-22.9"/>
<polygon fill="midnightblue" stroke="midnightblue" points="67.94,-19.49 57.34,-19.55 65.66,-26.11 67.94,-19.49"/>
</g>
<!-- Node7 -->
<g id="node7" class="node">
<title>Node7</title>
<g id="a_node7"><a xlink:title=" ">
<polygon fill="none" stroke="#bfbfbf" points="126.5,-0.5 126.5,-19.5 182.5,-19.5 182.5,-0.5 126.5,-0.5"/>
<text text-anchor="middle" x="154.5" y="-7.5" font-family="Helvetica,sans-Serif" font-size="10.00">stdbool.h</text>
</a>
</g>
</g>
<!-- Node4&#45;&gt;Node7 -->
<g id="edge6" class="edge">
<title>Node4&#45;&gt;Node7</title>
<path fill="none" stroke="midnightblue" d="M183.72,-56.08C178.83,-48.53 171.67,-37.49 165.67,-28.23"/>
<polygon fill="midnightblue" stroke="midnightblue" points="168.55,-26.24 160.17,-19.75 162.67,-30.05 168.55,-26.24"/>
</g>
<!-- Node4&#45;&gt;Node8 -->
<g id="edge7" class="edge">
<title>Node4&#45;&gt;Node8</title>
<path fill="none" stroke="midnightblue" d="M208.53,-57.03C229.69,-48.17 264.14,-33.76 288.84,-23.42"/>
<polygon fill="midnightblue" stroke="midnightblue" points="290.24,-26.63 298.11,-19.54 287.53,-20.17 290.24,-26.63"/>
</g>
<!-- Node9&#45;&gt;Node4 -->
<g id="edge10" class="edge">
<title>Node9&#45;&gt;Node4</title>
<path fill="none" stroke="midnightblue" d="M99.69,-112.32C116.85,-103.66 143.45,-90.24 163.25,-80.25"/>
<polygon fill="midnightblue" stroke="midnightblue" points="165,-83.28 172.35,-75.65 161.85,-77.04 165,-83.28"/>
</g>
<!-- Node10&#45;&gt;Node4 -->
<g id="edge12" class="edge">
<title>Node10&#45;&gt;Node4</title>
<path fill="none" stroke="midnightblue" d="M39,-114.81C68.93,-105.3 126.34,-87.06 160.95,-76.07"/>
<polygon fill="midnightblue" stroke="midnightblue" points="162.01,-79.4 170.49,-73.04 159.9,-72.73 162.01,-79.4"/>
</g>
<!-- Node10&#45;&gt;Node6 -->
<g id="edge13" class="edge">
<title>Node10&#45;&gt;Node6</title>
<path fill="none" stroke="midnightblue" d="M20.52,-112.37C22.62,-94.62 27.46,-53.67 30.3,-29.6"/>
<polygon fill="midnightblue" stroke="midnightblue" points="33.79,-29.93 31.48,-19.59 26.84,-29.11 33.79,-29.93"/>
</g>
<!-- Node11 -->
<g id="node11" class="node">
<title>Node11</title>
<g id="a_node11"><a xlink:title=" ">
<polygon fill="none" stroke="#bfbfbf" points="48,-56.5 48,-75.5 99,-75.5 99,-56.5 48,-56.5"/>
<text text-anchor="middle" x="73.5" y="-63.5" font-family="Helvetica,sans-Serif" font-size="10.00">stdarg.h</text>
</a>
</g>
</g>
<!-- Node10&#45;&gt;Node11 -->
<g id="edge14" class="edge">
<title>Node10&#45;&gt;Node11</title>
<path fill="none" stroke="midnightblue" d="M28.42,-112.08C36.28,-104.22 47.93,-92.57 57.42,-83.08"/>
<polygon fill="midnightblue" stroke="midnightblue" points="60.15,-85.3 64.75,-75.75 55.2,-80.35 60.15,-85.3"/>
</g>
<!-- Node13&#45;&gt;Node4 -->
<g id="edge17" class="edge">
<title>Node13&#45;&gt;Node4</title>
<path fill="none" stroke="midnightblue" d="M359.41,-114.05C323.3,-104.05 256.85,-85.65 218.63,-75.07"/>
<polygon fill="midnightblue" stroke="midnightblue" points="219.21,-71.6 208.64,-72.3 217.34,-78.34 219.21,-71.6"/>
</g>
<!-- Node15&#45;&gt;Node13 -->
<g id="edge20" class="edge">
<title>Node15&#45;&gt;Node13</title>
<path fill="none" stroke="midnightblue" d="M345.26,-168.08C352.04,-160.3 362.04,-148.8 370.26,-139.37"/>
<polygon fill="midnightblue" stroke="midnightblue" points="372.96,-141.59 376.88,-131.75 367.68,-137 372.96,-141.59"/>
</g>
</g>
</svg>
