<?xml version="1.0" encoding="UTF-8" standalone="no"?>
<!DOCTYPE svg PUBLIC "-//W3C//DTD SVG 1.1//EN"
 "http://www.w3.org/Graphics/SVG/1.1/DTD/svg11.dtd">
<!-- Generated by graphviz version 3.0.0 (20220413.0106)
 -->
<!-- Title: chunk_merge Pages: 1 -->
<svg width="434pt" height="180pt"
 viewBox="0.00 0.00 434.00 180.00" xmlns="http://www.w3.org/2000/svg" xmlns:xlink="http://www.w3.org/1999/xlink">
<g id="graph0" class="graph" transform="scale(1 1) rotate(0) translate(4 176)">
<title>chunk_merge</title>
<!-- Node1 -->
<g id="node1" class="node">
<title>Node1</title>
<g id="a_node1"><a xlink:title=" ">
<polygon fill="#bfbfbf" stroke="black" points="0,-76.5 0,-95.5 75,-95.5 75,-76.5 0,-76.5"/>
<text text-anchor="middle" x="37.5" y="-83.5" font-family="Helvetica,sans-Serif" font-size="10.00">chunk_merge</text>
</a>
</g>
</g>
<!-- Node2 -->
<g id="node2" class="node">
<title>Node2</title>
<g id="a_node2"><a xlink:href="buddy_8c.html#acd10ee3138eeeac7c91ef5928f2135ea" target="_top" xlink:title="make a chunk added to free list.">
<polygon fill="none" stroke="black" points="117,-114.5 117,-133.5 197,-133.5 197,-114.5 117,-114.5"/>
<text text-anchor="middle" x="157" y="-121.5" font-family="Helvetica,sans-Serif" font-size="10.00">chunk_append</text>
</a>
</g>
</g>
<!-- Node1&#45;&gt;Node2 -->
<g id="edge1" class="edge">
<title>Node1&#45;&gt;Node2</title>
<path fill="none" stroke="midnightblue" d="M68.15,-95.59C82.9,-100.36 100.93,-106.19 116.8,-111.32"/>
<polygon fill="midnightblue" stroke="midnightblue" points="115.77,-114.67 126.36,-114.41 117.92,-108.01 115.77,-114.67"/>
</g>
<!-- Node6 -->
<g id="node6" class="node">
<title>Node6</title>
<g id="a_node6"><a xlink:href="buddy_8c.html#a8a4afbc5643993142db5ad65b87b8c62" target="_top" xlink:title=" ">
<polygon fill="none" stroke="black" points="126.5,-76.5 126.5,-95.5 187.5,-95.5 187.5,-76.5 126.5,-76.5"/>
<text text-anchor="middle" x="157" y="-83.5" font-family="Helvetica,sans-Serif" font-size="10.00">chunk_del</text>
</a>
</g>
</g>
<!-- Node1&#45;&gt;Node6 -->
<g id="edge5" class="edge">
<title>Node1&#45;&gt;Node6</title>
<path fill="none" stroke="midnightblue" d="M75.03,-86C88,-86 102.67,-86 115.92,-86"/>
<polygon fill="midnightblue" stroke="midnightblue" points="116.18,-89.5 126.18,-86 116.18,-82.5 116.18,-89.5"/>
</g>
<!-- Node9 -->
<g id="node9" class="node">
<title>Node9</title>
<g id="a_node9"><a xlink:href="buddy_8c.html#a48594e69fff9b58d5f41dca7d576eb35" target="_top" xlink:title="Get the buddy chunk.">
<polygon fill="none" stroke="black" points="111,-38.5 111,-57.5 203,-57.5 203,-38.5 111,-38.5"/>
<text text-anchor="middle" x="157" y="-45.5" font-family="Helvetica,sans-Serif" font-size="10.00">get_buddy_chunk</text>
</a>
</g>
</g>
<!-- Node1&#45;&gt;Node9 -->
<g id="edge8" class="edge">
<title>Node1&#45;&gt;Node9</title>
<path fill="none" stroke="midnightblue" d="M68.15,-76.41C82.9,-71.64 100.93,-65.81 116.8,-60.68"/>
<polygon fill="midnightblue" stroke="midnightblue" points="117.92,-63.99 126.36,-57.59 115.77,-57.33 117.92,-63.99"/>
</g>
<!-- Node3 -->
<g id="node3" class="node">
<title>Node3</title>
<g id="a_node3"><a xlink:href="structfree__list.html#a338aea6183dad7ec975539e4e1def837" target="_top" xlink:title=" ">
<polygon fill="none" stroke="black" points="239,-152.5 239,-171.5 329,-171.5 329,-152.5 239,-152.5"/>
<text text-anchor="middle" x="284" y="-159.5" font-family="Helvetica,sans-Serif" font-size="10.00">free_list::free_list</text>
</a>
</g>
</g>
<!-- Node2&#45;&gt;Node3 -->
<g id="edge2" class="edge">
<title>Node2&#45;&gt;Node3</title>
<path fill="none" stroke="midnightblue" d="M189.54,-133.59C205.38,-138.4 224.77,-144.3 241.78,-149.47"/>
<polygon fill="midnightblue" stroke="midnightblue" points="240.88,-152.85 251.47,-152.41 242.92,-146.16 240.88,-152.85"/>
</g>
<!-- Node4 -->
<g id="node4" class="node">
<title>Node4</title>
<g id="a_node4"><a xlink:href="list_8h.html#a06a80666b3364324fc601ab7ae1ff20b" target="_top" xlink:title=" ">
<polygon fill="none" stroke="black" points="259,-114.5 259,-133.5 309,-133.5 309,-114.5 259,-114.5"/>
<text text-anchor="middle" x="284" y="-121.5" font-family="Helvetica,sans-Serif" font-size="10.00">list_add</text>
</a>
</g>
</g>
<!-- Node2&#45;&gt;Node4 -->
<g id="edge3" class="edge">
<title>Node2&#45;&gt;Node4</title>
<path fill="none" stroke="midnightblue" d="M197.21,-124C213.61,-124 232.52,-124 248.4,-124"/>
<polygon fill="midnightblue" stroke="midnightblue" points="248.84,-127.5 258.84,-124 248.84,-120.5 248.84,-127.5"/>
</g>
<!-- Node5 -->
<g id="node5" class="node">
<title>Node5</title>
<g id="a_node5"><a xlink:href="list_8h.html#a83ecb02c2209a8fd5f6470d45a07f875" target="_top" xlink:title=" ">
<polygon fill="none" stroke="black" points="365,-114.5 365,-133.5 426,-133.5 426,-114.5 365,-114.5"/>
<text text-anchor="middle" x="395.5" y="-121.5" font-family="Helvetica,sans-Serif" font-size="10.00">__list_add</text>
</a>
</g>
</g>
<!-- Node4&#45;&gt;Node5 -->
<g id="edge4" class="edge">
<title>Node4&#45;&gt;Node5</title>
<path fill="none" stroke="midnightblue" d="M309.03,-124C322.33,-124 339.2,-124 354.44,-124"/>
<polygon fill="midnightblue" stroke="midnightblue" points="354.66,-127.5 364.66,-124 354.66,-120.5 354.66,-127.5"/>
</g>
<!-- Node7 -->
<g id="node7" class="node">
<title>Node7</title>
<g id="a_node7"><a xlink:href="list_8h.html#ab1708206f0f7e0a56550b35372203ba5" target="_top" xlink:title=" ">
<polygon fill="none" stroke="black" points="260.5,-76.5 260.5,-95.5 307.5,-95.5 307.5,-76.5 260.5,-76.5"/>
<text text-anchor="middle" x="284" y="-83.5" font-family="Helvetica,sans-Serif" font-size="10.00">list_del</text>
</a>
</g>
</g>
<!-- Node6&#45;&gt;Node7 -->
<g id="edge6" class="edge">
<title>Node6&#45;&gt;Node7</title>
<path fill="none" stroke="midnightblue" d="M187.62,-86C206.39,-86 230.67,-86 250.04,-86"/>
<polygon fill="midnightblue" stroke="midnightblue" points="250.23,-89.5 260.23,-86 250.23,-82.5 250.23,-89.5"/>
</g>
<!-- Node8 -->
<g id="node8" class="node">
<title>Node8</title>
<g id="a_node8"><a xlink:href="list_8h.html#a24b474717d65a296695e8b79b4adefda" target="_top" xlink:title=" ">
<polygon fill="none" stroke="black" points="366.5,-76.5 366.5,-95.5 424.5,-95.5 424.5,-76.5 366.5,-76.5"/>
<text text-anchor="middle" x="395.5" y="-83.5" font-family="Helvetica,sans-Serif" font-size="10.00">__list_del</text>
</a>
</g>
</g>
<!-- Node7&#45;&gt;Node8 -->
<g id="edge7" class="edge">
<title>Node7&#45;&gt;Node8</title>
<path fill="none" stroke="midnightblue" d="M307.69,-86C321.67,-86 339.95,-86 356.13,-86"/>
<polygon fill="midnightblue" stroke="midnightblue" points="356.39,-89.5 366.39,-86 356.39,-82.5 356.39,-89.5"/>
</g>
<!-- Node10 -->
<g id="node10" class="node">
<title>Node10</title>
<g id="a_node10"><a xlink:href="buddy_8c.html#a7d6c4f020f51f2a621ca1ab5a4e6a5bb" target="_top" xlink:title="translate chunk address to virtual address">
<polygon fill="none" stroke="black" points="253,-38.5 253,-57.5 315,-57.5 315,-38.5 253,-38.5"/>
<text text-anchor="middle" x="284" y="-45.5" font-family="Helvetica,sans-Serif" font-size="10.00">chunk2virt</text>
</a>
</g>
</g>
<!-- Node9&#45;&gt;Node10 -->
<g id="edge9" class="edge">
<title>Node9&#45;&gt;Node10</title>
<path fill="none" stroke="midnightblue" d="M203.13,-48C216.02,-48 229.99,-48 242.58,-48"/>
<polygon fill="midnightblue" stroke="midnightblue" points="242.78,-51.5 252.78,-48 242.78,-44.5 242.78,-51.5"/>
</g>
<!-- Node11 -->
<g id="node11" class="node">
<title>Node11</title>
<g id="a_node11"><a xlink:href="buddy_8c.html#ad1eda4b9fbb516f58586845217f68723" target="_top" xlink:title="translate virtual address to chunk address">
<polygon fill="none" stroke="black" points="253,-0.5 253,-19.5 315,-19.5 315,-0.5 253,-0.5"/>
<text text-anchor="middle" x="284" y="-7.5" font-family="Helvetica,sans-Serif" font-size="10.00">virt2chunk</text>
</a>
</g>
</g>
<!-- Node9&#45;&gt;Node11 -->
<g id="edge10" class="edge">
<title>Node9&#45;&gt;Node11</title>
<path fill="none" stroke="midnightblue" d="M189.54,-38.41C205.75,-33.49 225.66,-27.43 242.94,-22.18"/>
<polygon fill="midnightblue" stroke="midnightblue" points="244.21,-25.45 252.76,-19.19 242.18,-18.75 244.21,-25.45"/>
</g>
</g>
</svg>
