<?xml version="1.0" encoding="UTF-8" standalone="no"?>
<!DOCTYPE svg PUBLIC "-//W3C//DTD SVG 1.1//EN"
 "http://www.w3.org/Graphics/SVG/1.1/DTD/svg11.dtd">
<!-- Generated by graphviz version 3.0.0 (20220413.0106)
 -->
<!-- Title: chunk2virt Pages: 1 -->
<svg width="730pt" height="104pt"
 viewBox="0.00 0.00 730.00 104.00" xmlns="http://www.w3.org/2000/svg" xmlns:xlink="http://www.w3.org/1999/xlink">
<g id="graph0" class="graph" transform="scale(1 1) rotate(0) translate(4 100)">
<title>chunk2virt</title>
<!-- Node1 -->
<g id="node1" class="node">
<title>Node1</title>
<g id="a_node1"><a xlink:title="translate chunk address to virtual address">
<polygon fill="#bfbfbf" stroke="black" points="660,-0.5 660,-19.5 722,-19.5 722,-0.5 660,-0.5"/>
<text text-anchor="middle" x="691" y="-7.5" font-family="Helvetica,sans-Serif" font-size="10.00">chunk2virt</text>
</a>
</g>
</g>
<!-- Node2 -->
<g id="node2" class="node">
<title>Node2</title>
<g id="a_node2"><a xlink:href="buddy_8c.html#a48594e69fff9b58d5f41dca7d576eb35" target="_top" xlink:title="Get the buddy chunk.">
<polygon fill="none" stroke="black" points="532,-19.5 532,-38.5 624,-38.5 624,-19.5 532,-19.5"/>
<text text-anchor="middle" x="578" y="-26.5" font-family="Helvetica,sans-Serif" font-size="10.00">get_buddy_chunk</text>
</a>
</g>
</g>
<!-- Node1&#45;&gt;Node2 -->
<g id="edge1" class="edge">
<title>Node1&#45;&gt;Node2</title>
<path fill="none" stroke="midnightblue" d="M650.01,-16.84C641.6,-18.28 632.67,-19.81 624.08,-21.28"/>
<polygon fill="midnightblue" stroke="midnightblue" points="650.7,-20.28 659.96,-15.14 649.51,-13.38 650.7,-20.28"/>
</g>
<!-- Node12 -->
<g id="node12" class="node">
<title>Node12</title>
<g id="a_node12"><a xlink:href="pmm_8c.html#a350a830083f55f1886e000edec454a99" target="_top" xlink:title=" ">
<polygon fill="none" stroke="black" points="230,-0.5 230,-19.5 272,-19.5 272,-0.5 230,-0.5"/>
<text text-anchor="middle" x="251" y="-7.5" font-family="Helvetica,sans-Serif" font-size="10.00">kalloc</text>
</a>
</g>
</g>
<!-- Node1&#45;&gt;Node12 -->
<g id="edge15" class="edge">
<title>Node1&#45;&gt;Node12</title>
<path fill="none" stroke="midnightblue" d="M649.7,-10C558.63,-10 339.66,-10 272.16,-10"/>
<polygon fill="midnightblue" stroke="midnightblue" points="649.89,-13.5 659.89,-10 649.89,-6.5 649.89,-13.5"/>
</g>
<!-- Node3 -->
<g id="node3" class="node">
<title>Node3</title>
<g id="a_node3"><a xlink:href="buddy_8c.html#a9ae41f7f508f07ceba45065973ce5507" target="_top" xlink:title=" ">
<polygon fill="none" stroke="black" points="421,-57.5 421,-76.5 496,-76.5 496,-57.5 421,-57.5"/>
<text text-anchor="middle" x="458.5" y="-64.5" font-family="Helvetica,sans-Serif" font-size="10.00">chunk_merge</text>
</a>
</g>
</g>
<!-- Node2&#45;&gt;Node3 -->
<g id="edge2" class="edge">
<title>Node2&#45;&gt;Node3</title>
<path fill="none" stroke="midnightblue" d="M537.79,-41.68C521.91,-46.81 503.89,-52.64 489.14,-57.41"/>
<polygon fill="midnightblue" stroke="midnightblue" points="538.91,-45 547.35,-38.59 536.76,-38.34 538.91,-45"/>
</g>
<!-- Node10 -->
<g id="node10" class="node">
<title>Node10</title>
<g id="a_node10"><a xlink:href="buddy_8c.html#aff6f2614df5664434766dd9c23971227" target="_top" xlink:title=" ">
<polygon fill="none" stroke="black" points="425.5,-19.5 425.5,-38.5 491.5,-38.5 491.5,-19.5 425.5,-19.5"/>
<text text-anchor="middle" x="458.5" y="-26.5" font-family="Helvetica,sans-Serif" font-size="10.00">chunk_split</text>
</a>
</g>
</g>
<!-- Node2&#45;&gt;Node10 -->
<g id="edge10" class="edge">
<title>Node2&#45;&gt;Node10</title>
<path fill="none" stroke="midnightblue" d="M521.67,-29C511.34,-29 500.86,-29 491.53,-29"/>
<polygon fill="midnightblue" stroke="midnightblue" points="521.91,-32.5 531.91,-29 521.91,-25.5 521.91,-32.5"/>
</g>
<!-- Node4 -->
<g id="node4" class="node">
<title>Node4</title>
<g id="a_node4"><a xlink:href="buddy_8c.html#a77f7615f76209d4083ef2d0826d90a1e" target="_top" xlink:title="free a chunk and process in deep.">
<polygon fill="none" stroke="black" points="318.5,-57.5 318.5,-76.5 383.5,-76.5 383.5,-57.5 318.5,-57.5"/>
<text text-anchor="middle" x="351" y="-64.5" font-family="Helvetica,sans-Serif" font-size="10.00">chunk_free</text>
</a>
</g>
</g>
<!-- Node3&#45;&gt;Node4 -->
<g id="edge3" class="edge">
<title>Node3&#45;&gt;Node4</title>
<path fill="none" stroke="midnightblue" d="M410.71,-67C401.55,-67 392.14,-67 383.62,-67"/>
<polygon fill="midnightblue" stroke="midnightblue" points="410.9,-70.5 420.9,-67 410.9,-63.5 410.9,-70.5"/>
</g>
<!-- Node5 -->
<g id="node5" class="node">
<title>Node5</title>
<g id="a_node5"><a xlink:href="buddy_8c.html#a571ce3de5539a52d40d9d11033519237" target="_top" xlink:title="initialize the buddy system">
<polygon fill="none" stroke="black" points="221,-76.5 221,-95.5 281,-95.5 281,-76.5 221,-76.5"/>
<text text-anchor="middle" x="251" y="-83.5" font-family="Helvetica,sans-Serif" font-size="10.00">buddy_init</text>
</a>
</g>
</g>
<!-- Node4&#45;&gt;Node5 -->
<g id="edge4" class="edge">
<title>Node4&#45;&gt;Node5</title>
<path fill="none" stroke="midnightblue" d="M308.34,-75.08C299.19,-76.85 289.69,-78.69 281.16,-80.35"/>
<polygon fill="midnightblue" stroke="midnightblue" points="309.3,-78.46 318.45,-73.12 307.97,-71.58 309.3,-78.46"/>
</g>
<!-- Node8 -->
<g id="node8" class="node">
<title>Node8</title>
<g id="a_node8"><a xlink:href="pmm_8c.html#a2cb876c0d76d35916d27ed1623195fbe" target="_top" xlink:title=" ">
<polygon fill="none" stroke="black" points="232,-38.5 232,-57.5 270,-57.5 270,-38.5 232,-38.5"/>
<text text-anchor="middle" x="251" y="-45.5" font-family="Helvetica,sans-Serif" font-size="10.00">kfree</text>
</a>
</g>
</g>
<!-- Node4&#45;&gt;Node8 -->
<g id="edge7" class="edge">
<title>Node4&#45;&gt;Node8</title>
<path fill="none" stroke="midnightblue" d="M308.42,-58.94C295.01,-56.34 280.84,-53.59 270.06,-51.5"/>
<polygon fill="midnightblue" stroke="midnightblue" points="307.97,-62.42 318.45,-60.88 309.3,-55.54 307.97,-62.42"/>
</g>
<!-- Node6 -->
<g id="node6" class="node">
<title>Node6</title>
<g id="a_node6"><a xlink:href="pmm_8c.html#a393796678826afd801058312f851ca43" target="_top" xlink:title=" ">
<polygon fill="none" stroke="black" points="124,-76.5 124,-95.5 180,-95.5 180,-76.5 124,-76.5"/>
<text text-anchor="middle" x="152" y="-83.5" font-family="Helvetica,sans-Serif" font-size="10.00">pmm_init</text>
</a>
</g>
</g>
<!-- Node5&#45;&gt;Node6 -->
<g id="edge5" class="edge">
<title>Node5&#45;&gt;Node6</title>
<path fill="none" stroke="midnightblue" d="M210.85,-86C200.53,-86 189.62,-86 180.09,-86"/>
<polygon fill="midnightblue" stroke="midnightblue" points="210.9,-89.5 220.9,-86 210.9,-82.5 210.9,-89.5"/>
</g>
<!-- Node7 -->
<g id="node7" class="node">
<title>Node7</title>
<g id="a_node7"><a xlink:href="pmm_8c.html#a7ada9deb0ae8705f2cc158b0283aaeb3" target="_top" xlink:title=" ">
<polygon fill="none" stroke="black" points="0,-38.5 0,-57.5 83,-57.5 83,-38.5 0,-38.5"/>
<text text-anchor="middle" x="41.5" y="-45.5" font-family="Helvetica,sans-Serif" font-size="10.00">MODULE_DEF</text>
</a>
</g>
</g>
<!-- Node6&#45;&gt;Node7 -->
<g id="edge6" class="edge">
<title>Node6&#45;&gt;Node7</title>
<path fill="none" stroke="midnightblue" d="M114.16,-73.1C99.57,-67.99 83.1,-62.22 69.63,-57.5"/>
<polygon fill="midnightblue" stroke="midnightblue" points="113.31,-76.51 123.9,-76.51 115.62,-69.9 113.31,-76.51"/>
</g>
<!-- Node9 -->
<g id="node9" class="node">
<title>Node9</title>
<g id="a_node9"><a xlink:href="pmm_8c.html#af2f46f4bce6a599542ce4d462aec9e2f" target="_top" xlink:title=" ">
<polygon fill="none" stroke="black" points="121,-38.5 121,-57.5 183,-57.5 183,-38.5 121,-38.5"/>
<text text-anchor="middle" x="152" y="-45.5" font-family="Helvetica,sans-Serif" font-size="10.00">kfree_safe</text>
</a>
</g>
</g>
<!-- Node8&#45;&gt;Node9 -->
<g id="edge8" class="edge">
<title>Node8&#45;&gt;Node9</title>
<path fill="none" stroke="midnightblue" d="M221.42,-48C209.45,-48 195.52,-48 183.37,-48"/>
<polygon fill="midnightblue" stroke="midnightblue" points="221.76,-51.5 231.76,-48 221.76,-44.5 221.76,-51.5"/>
</g>
<!-- Node9&#45;&gt;Node7 -->
<g id="edge9" class="edge">
<title>Node9&#45;&gt;Node7</title>
<path fill="none" stroke="midnightblue" d="M110.56,-48C101.59,-48 92.08,-48 83.11,-48"/>
<polygon fill="midnightblue" stroke="midnightblue" points="110.78,-51.5 120.78,-48 110.78,-44.5 110.78,-51.5"/>
</g>
<!-- Node11 -->
<g id="node11" class="node">
<title>Node11</title>
<g id="a_node11"><a xlink:href="buddy_8c.html#a37436a565869aa245cb46355dab020e2" target="_top" xlink:title=" ">
<polygon fill="none" stroke="black" points="317,-19.5 317,-38.5 385,-38.5 385,-19.5 317,-19.5"/>
<text text-anchor="middle" x="351" y="-26.5" font-family="Helvetica,sans-Serif" font-size="10.00">chunk_alloc</text>
</a>
</g>
</g>
<!-- Node10&#45;&gt;Node11 -->
<g id="edge11" class="edge">
<title>Node10&#45;&gt;Node11</title>
<path fill="none" stroke="midnightblue" d="M415.12,-29C405.13,-29 394.63,-29 385.12,-29"/>
<polygon fill="midnightblue" stroke="midnightblue" points="415.27,-32.5 425.27,-29 415.27,-25.5 415.27,-32.5"/>
</g>
<!-- Node11&#45;&gt;Node12 -->
<g id="edge12" class="edge">
<title>Node11&#45;&gt;Node12</title>
<path fill="none" stroke="midnightblue" d="M306.89,-20.64C294.84,-18.31 282.32,-15.88 272.28,-13.93"/>
<polygon fill="midnightblue" stroke="midnightblue" points="306.34,-24.1 316.82,-22.57 307.67,-17.23 306.34,-24.1"/>
</g>
<!-- Node13 -->
<g id="node13" class="node">
<title>Node13</title>
<g id="a_node13"><a xlink:href="pmm_8c.html#a20ccb461126d548299c6c21f157e6668" target="_top" xlink:title=" ">
<polygon fill="none" stroke="black" points="119,-0.5 119,-19.5 185,-19.5 185,-0.5 119,-0.5"/>
<text text-anchor="middle" x="152" y="-7.5" font-family="Helvetica,sans-Serif" font-size="10.00">kalloc_safe</text>
</a>
</g>
</g>
<!-- Node12&#45;&gt;Node13 -->
<g id="edge13" class="edge">
<title>Node12&#45;&gt;Node13</title>
<path fill="none" stroke="midnightblue" d="M219.57,-10C208.67,-10 196.35,-10 185.29,-10"/>
<polygon fill="midnightblue" stroke="midnightblue" points="219.9,-13.5 229.9,-10 219.9,-6.5 219.9,-13.5"/>
</g>
<!-- Node13&#45;&gt;Node7 -->
<g id="edge14" class="edge">
<title>Node13&#45;&gt;Node7</title>
<path fill="none" stroke="midnightblue" d="M113.96,-22.97C99.51,-28.03 83.23,-33.73 69.87,-38.41"/>
<polygon fill="midnightblue" stroke="midnightblue" points="115.34,-26.2 123.62,-19.59 113.03,-19.59 115.34,-26.2"/>
</g>
</g>
</svg>
