<?xml version="1.0" encoding="UTF-8" standalone="no"?>
<!DOCTYPE svg PUBLIC "-//W3C//DTD SVG 1.1//EN"
 "http://www.w3.org/Graphics/SVG/1.1/DTD/svg11.dtd">
<!-- Generated by graphviz version 3.0.0 (20220413.0106)
 -->
<!-- Title: get_buddy_chunk Pages: 1 -->
<svg width="632pt" height="142pt"
 viewBox="0.00 0.00 632.00 142.00" xmlns="http://www.w3.org/2000/svg" xmlns:xlink="http://www.w3.org/1999/xlink">
<g id="graph0" class="graph" transform="scale(1 1) rotate(0) translate(4 138)">
<title>get_buddy_chunk</title>
<!-- Node1 -->
<g id="node1" class="node">
<title>Node1</title>
<g id="a_node1"><a xlink:title="Get the buddy chunk.">
<polygon fill="#bfbfbf" stroke="black" points="532,-57.5 532,-76.5 624,-76.5 624,-57.5 532,-57.5"/>
<text text-anchor="middle" x="578" y="-64.5" font-family="Helvetica,sans-Serif" font-size="10.00">get_buddy_chunk</text>
</a>
</g>
</g>
<!-- Node2 -->
<g id="node2" class="node">
<title>Node2</title>
<g id="a_node2"><a xlink:href="buddy_8c.html#a9ae41f7f508f07ceba45065973ce5507" target="_top" xlink:title=" ">
<polygon fill="none" stroke="black" points="421,-76.5 421,-95.5 496,-95.5 496,-76.5 421,-76.5"/>
<text text-anchor="middle" x="458.5" y="-83.5" font-family="Helvetica,sans-Serif" font-size="10.00">chunk_merge</text>
</a>
</g>
</g>
<!-- Node1&#45;&gt;Node2 -->
<g id="edge1" class="edge">
<title>Node1&#45;&gt;Node2</title>
<path fill="none" stroke="midnightblue" d="M521.83,-75.92C513.17,-77.32 504.4,-78.74 496.28,-80.05"/>
<polygon fill="midnightblue" stroke="midnightblue" points="522.59,-79.34 531.91,-74.29 521.48,-72.43 522.59,-79.34"/>
</g>
<!-- Node9 -->
<g id="node9" class="node">
<title>Node9</title>
<g id="a_node9"><a xlink:href="buddy_8c.html#aff6f2614df5664434766dd9c23971227" target="_top" xlink:title=" ">
<polygon fill="none" stroke="black" points="425.5,-38.5 425.5,-57.5 491.5,-57.5 491.5,-38.5 425.5,-38.5"/>
<text text-anchor="middle" x="458.5" y="-45.5" font-family="Helvetica,sans-Serif" font-size="10.00">chunk_split</text>
</a>
</g>
</g>
<!-- Node1&#45;&gt;Node9 -->
<g id="edge9" class="edge">
<title>Node1&#45;&gt;Node9</title>
<path fill="none" stroke="midnightblue" d="M521.99,-58.11C511.55,-56.42 500.96,-54.7 491.53,-53.18"/>
<polygon fill="midnightblue" stroke="midnightblue" points="521.48,-61.57 531.91,-59.71 522.59,-54.66 521.48,-61.57"/>
</g>
<!-- Node3 -->
<g id="node3" class="node">
<title>Node3</title>
<g id="a_node3"><a xlink:href="buddy_8c.html#a77f7615f76209d4083ef2d0826d90a1e" target="_top" xlink:title="free a chunk and process in deep.">
<polygon fill="none" stroke="black" points="318.5,-76.5 318.5,-95.5 383.5,-95.5 383.5,-76.5 318.5,-76.5"/>
<text text-anchor="middle" x="351" y="-83.5" font-family="Helvetica,sans-Serif" font-size="10.00">chunk_free</text>
</a>
</g>
</g>
<!-- Node2&#45;&gt;Node3 -->
<g id="edge2" class="edge">
<title>Node2&#45;&gt;Node3</title>
<path fill="none" stroke="midnightblue" d="M410.71,-86C401.55,-86 392.14,-86 383.62,-86"/>
<polygon fill="midnightblue" stroke="midnightblue" points="410.9,-89.5 420.9,-86 410.9,-82.5 410.9,-89.5"/>
</g>
<!-- Node4 -->
<g id="node4" class="node">
<title>Node4</title>
<g id="a_node4"><a xlink:href="buddy_8c.html#a571ce3de5539a52d40d9d11033519237" target="_top" xlink:title="initialize the buddy system">
<polygon fill="none" stroke="black" points="221,-114.5 221,-133.5 281,-133.5 281,-114.5 221,-114.5"/>
<text text-anchor="middle" x="251" y="-121.5" font-family="Helvetica,sans-Serif" font-size="10.00">buddy_init</text>
</a>
</g>
</g>
<!-- Node3&#45;&gt;Node4 -->
<g id="edge3" class="edge">
<title>Node3&#45;&gt;Node4</title>
<path fill="none" stroke="midnightblue" d="M315.79,-99.26C302.93,-104.25 288.56,-109.82 276.72,-114.41"/>
<polygon fill="midnightblue" stroke="midnightblue" points="317.21,-102.47 325.27,-95.59 314.68,-95.94 317.21,-102.47"/>
</g>
<!-- Node7 -->
<g id="node7" class="node">
<title>Node7</title>
<g id="a_node7"><a xlink:href="pmm_8c.html#a2cb876c0d76d35916d27ed1623195fbe" target="_top" xlink:title=" ">
<polygon fill="none" stroke="black" points="232,-76.5 232,-95.5 270,-95.5 270,-76.5 232,-76.5"/>
<text text-anchor="middle" x="251" y="-83.5" font-family="Helvetica,sans-Serif" font-size="10.00">kfree</text>
</a>
</g>
</g>
<!-- Node3&#45;&gt;Node7 -->
<g id="edge6" class="edge">
<title>Node3&#45;&gt;Node7</title>
<path fill="none" stroke="midnightblue" d="M308.42,-86C295.01,-86 280.84,-86 270.06,-86"/>
<polygon fill="midnightblue" stroke="midnightblue" points="308.45,-89.5 318.45,-86 308.45,-82.5 308.45,-89.5"/>
</g>
<!-- Node5 -->
<g id="node5" class="node">
<title>Node5</title>
<g id="a_node5"><a xlink:href="pmm_8c.html#a393796678826afd801058312f851ca43" target="_top" xlink:title=" ">
<polygon fill="none" stroke="black" points="124,-114.5 124,-133.5 180,-133.5 180,-114.5 124,-114.5"/>
<text text-anchor="middle" x="152" y="-121.5" font-family="Helvetica,sans-Serif" font-size="10.00">pmm_init</text>
</a>
</g>
</g>
<!-- Node4&#45;&gt;Node5 -->
<g id="edge4" class="edge">
<title>Node4&#45;&gt;Node5</title>
<path fill="none" stroke="midnightblue" d="M210.85,-124C200.53,-124 189.62,-124 180.09,-124"/>
<polygon fill="midnightblue" stroke="midnightblue" points="210.9,-127.5 220.9,-124 210.9,-120.5 210.9,-127.5"/>
</g>
<!-- Node6 -->
<g id="node6" class="node">
<title>Node6</title>
<g id="a_node6"><a xlink:href="pmm_8c.html#a7ada9deb0ae8705f2cc158b0283aaeb3" target="_top" xlink:title=" ">
<polygon fill="none" stroke="black" points="0,-57.5 0,-76.5 83,-76.5 83,-57.5 0,-57.5"/>
<text text-anchor="middle" x="41.5" y="-64.5" font-family="Helvetica,sans-Serif" font-size="10.00">MODULE_DEF</text>
</a>
</g>
</g>
<!-- Node5&#45;&gt;Node6 -->
<g id="edge5" class="edge">
<title>Node5&#45;&gt;Node6</title>
<path fill="none" stroke="midnightblue" d="M123.49,-109.55C103.78,-99.19 77.79,-85.54 60.63,-76.53"/>
<polygon fill="midnightblue" stroke="midnightblue" points="122.11,-112.78 132.59,-114.33 125.37,-106.58 122.11,-112.78"/>
</g>
<!-- Node8 -->
<g id="node8" class="node">
<title>Node8</title>
<g id="a_node8"><a xlink:href="pmm_8c.html#af2f46f4bce6a599542ce4d462aec9e2f" target="_top" xlink:title=" ">
<polygon fill="none" stroke="black" points="121,-76.5 121,-95.5 183,-95.5 183,-76.5 121,-76.5"/>
<text text-anchor="middle" x="152" y="-83.5" font-family="Helvetica,sans-Serif" font-size="10.00">kfree_safe</text>
</a>
</g>
</g>
<!-- Node7&#45;&gt;Node8 -->
<g id="edge7" class="edge">
<title>Node7&#45;&gt;Node8</title>
<path fill="none" stroke="midnightblue" d="M221.42,-86C209.45,-86 195.52,-86 183.37,-86"/>
<polygon fill="midnightblue" stroke="midnightblue" points="221.76,-89.5 231.76,-86 221.76,-82.5 221.76,-89.5"/>
</g>
<!-- Node8&#45;&gt;Node6 -->
<g id="edge8" class="edge">
<title>Node8&#45;&gt;Node6</title>
<path fill="none" stroke="midnightblue" d="M110.85,-78.97C101.8,-77.38 92.18,-75.7 83.11,-74.11"/>
<polygon fill="midnightblue" stroke="midnightblue" points="110.32,-82.43 120.78,-80.71 111.53,-75.53 110.32,-82.43"/>
</g>
<!-- Node10 -->
<g id="node10" class="node">
<title>Node10</title>
<g id="a_node10"><a xlink:href="buddy_8c.html#a37436a565869aa245cb46355dab020e2" target="_top" xlink:title=" ">
<polygon fill="none" stroke="black" points="317,-38.5 317,-57.5 385,-57.5 385,-38.5 317,-38.5"/>
<text text-anchor="middle" x="351" y="-45.5" font-family="Helvetica,sans-Serif" font-size="10.00">chunk_alloc</text>
</a>
</g>
</g>
<!-- Node9&#45;&gt;Node10 -->
<g id="edge10" class="edge">
<title>Node9&#45;&gt;Node10</title>
<path fill="none" stroke="midnightblue" d="M415.12,-48C405.13,-48 394.63,-48 385.12,-48"/>
<polygon fill="midnightblue" stroke="midnightblue" points="415.27,-51.5 425.27,-48 415.27,-44.5 415.27,-51.5"/>
</g>
<!-- Node11 -->
<g id="node11" class="node">
<title>Node11</title>
<g id="a_node11"><a xlink:href="pmm_8c.html#a350a830083f55f1886e000edec454a99" target="_top" xlink:title=" ">
<polygon fill="none" stroke="black" points="230,-38.5 230,-57.5 272,-57.5 272,-38.5 230,-38.5"/>
<text text-anchor="middle" x="251" y="-45.5" font-family="Helvetica,sans-Serif" font-size="10.00">kalloc</text>
</a>
</g>
</g>
<!-- Node10&#45;&gt;Node11 -->
<g id="edge11" class="edge">
<title>Node10&#45;&gt;Node11</title>
<path fill="none" stroke="midnightblue" d="M306.52,-48C294.59,-48 282.22,-48 272.28,-48"/>
<polygon fill="midnightblue" stroke="midnightblue" points="306.82,-51.5 316.82,-48 306.82,-44.5 306.82,-51.5"/>
</g>
<!-- Node12 -->
<g id="node12" class="node">
<title>Node12</title>
<g id="a_node12"><a xlink:href="pmm_8c.html#a20ccb461126d548299c6c21f157e6668" target="_top" xlink:title=" ">
<polygon fill="none" stroke="black" points="119,-38.5 119,-57.5 185,-57.5 185,-38.5 119,-38.5"/>
<text text-anchor="middle" x="152" y="-45.5" font-family="Helvetica,sans-Serif" font-size="10.00">kalloc_safe</text>
</a>
</g>
</g>
<!-- Node11&#45;&gt;Node12 -->
<g id="edge12" class="edge">
<title>Node11&#45;&gt;Node12</title>
<path fill="none" stroke="midnightblue" d="M219.57,-48C208.67,-48 196.35,-48 185.29,-48"/>
<polygon fill="midnightblue" stroke="midnightblue" points="219.9,-51.5 229.9,-48 219.9,-44.5 219.9,-51.5"/>
</g>
<!-- Node13 -->
<g id="node13" class="node">
<title>Node13</title>
<g id="a_node13"><a xlink:href="pmm_8c.html#aa3c60dcf10d21284e763d170dcbfb44f" target="_top" xlink:title=" ">
<polygon fill="none" stroke="black" points="128.5,-0.5 128.5,-19.5 175.5,-19.5 175.5,-0.5 128.5,-0.5"/>
<text text-anchor="middle" x="152" y="-7.5" font-family="Helvetica,sans-Serif" font-size="10.00">pgalloc</text>
</a>
</g>
</g>
<!-- Node11&#45;&gt;Node13 -->
<g id="edge14" class="edge">
<title>Node11&#45;&gt;Node13</title>
<path fill="none" stroke="midnightblue" d="M220.46,-36.43C206.11,-30.81 189.13,-24.15 175.79,-18.93"/>
<polygon fill="midnightblue" stroke="midnightblue" points="219.31,-39.74 229.9,-40.13 221.87,-33.22 219.31,-39.74"/>
</g>
<!-- Node12&#45;&gt;Node6 -->
<g id="edge13" class="edge">
<title>Node12&#45;&gt;Node6</title>
<path fill="none" stroke="midnightblue" d="M108.78,-55.39C100.41,-56.86 91.63,-58.4 83.31,-59.85"/>
<polygon fill="midnightblue" stroke="midnightblue" points="109.49,-58.82 118.74,-53.65 108.29,-51.93 109.49,-58.82"/>
</g>
<!-- Node13&#45;&gt;Node6 -->
<g id="edge15" class="edge">
<title>Node13&#45;&gt;Node6</title>
<path fill="none" stroke="midnightblue" d="M123.49,-24.45C103.78,-34.81 77.79,-48.46 60.63,-57.47"/>
<polygon fill="midnightblue" stroke="midnightblue" points="125.37,-27.42 132.59,-19.67 122.11,-21.22 125.37,-27.42"/>
</g>
</g>
</svg>
