<?xml version="1.0" encoding="UTF-8" standalone="no"?>
<!DOCTYPE svg PUBLIC "-//W3C//DTD SVG 1.1//EN"
 "http://www.w3.org/Graphics/SVG/1.1/DTD/svg11.dtd">
<!-- Generated by graphviz version 3.0.0 (20220413.0106)
 -->
<!-- Title: chunk_free Pages: 1 -->
<svg width="535pt" height="180pt"
 viewBox="0.00 0.00 535.00 180.00" xmlns="http://www.w3.org/2000/svg" xmlns:xlink="http://www.w3.org/1999/xlink">
<g id="graph0" class="graph" transform="scale(1 1) rotate(0) translate(4 176)">
<title>chunk_free</title>
<!-- Node1 -->
<g id="node1" class="node">
<title>Node1</title>
<g id="a_node1"><a xlink:title="free a chunk and process in deep.">
<polygon fill="#bfbfbf" stroke="black" points="0,-95.5 0,-114.5 65,-114.5 65,-95.5 0,-95.5"/>
<text text-anchor="middle" x="32.5" y="-102.5" font-family="Helvetica,sans-Serif" font-size="10.00">chunk_free</text>
</a>
</g>
</g>
<!-- Node2 -->
<g id="node2" class="node">
<title>Node2</title>
<g id="a_node2"><a xlink:href="buddy_8c.html#acd10ee3138eeeac7c91ef5928f2135ea" target="_top" xlink:title="make a chunk added to free list.">
<polygon fill="none" stroke="black" points="218,-114.5 218,-133.5 298,-133.5 298,-114.5 218,-114.5"/>
<text text-anchor="middle" x="258" y="-121.5" font-family="Helvetica,sans-Serif" font-size="10.00">chunk_append</text>
</a>
</g>
</g>
<!-- Node1&#45;&gt;Node2 -->
<g id="edge1" class="edge">
<title>Node1&#45;&gt;Node2</title>
<path fill="none" stroke="midnightblue" d="M65.05,-107.68C102.14,-110.84 164.16,-116.11 207.64,-119.8"/>
<polygon fill="midnightblue" stroke="midnightblue" points="207.45,-123.3 217.71,-120.66 208.04,-116.33 207.45,-123.3"/>
</g>
<!-- Node6 -->
<g id="node6" class="node">
<title>Node6</title>
<g id="a_node6"><a xlink:href="buddy_8c.html#a9ae41f7f508f07ceba45065973ce5507" target="_top" xlink:title=" ">
<polygon fill="none" stroke="black" points="101,-76.5 101,-95.5 176,-95.5 176,-76.5 101,-76.5"/>
<text text-anchor="middle" x="138.5" y="-83.5" font-family="Helvetica,sans-Serif" font-size="10.00">chunk_merge</text>
</a>
</g>
</g>
<!-- Node1&#45;&gt;Node6 -->
<g id="edge5" class="edge">
<title>Node1&#45;&gt;Node6</title>
<path fill="none" stroke="midnightblue" d="M65.27,-99.2C73.34,-97.72 82.18,-96.11 90.83,-94.53"/>
<polygon fill="midnightblue" stroke="midnightblue" points="91.62,-97.94 100.82,-92.7 90.36,-91.05 91.62,-97.94"/>
</g>
<!-- Node3 -->
<g id="node3" class="node">
<title>Node3</title>
<g id="a_node3"><a xlink:href="structfree__list.html#a338aea6183dad7ec975539e4e1def837" target="_top" xlink:title=" ">
<polygon fill="none" stroke="black" points="340,-152.5 340,-171.5 430,-171.5 430,-152.5 340,-152.5"/>
<text text-anchor="middle" x="385" y="-159.5" font-family="Helvetica,sans-Serif" font-size="10.00">free_list::free_list</text>
</a>
</g>
</g>
<!-- Node2&#45;&gt;Node3 -->
<g id="edge2" class="edge">
<title>Node2&#45;&gt;Node3</title>
<path fill="none" stroke="midnightblue" d="M290.54,-133.59C306.38,-138.4 325.77,-144.3 342.78,-149.47"/>
<polygon fill="midnightblue" stroke="midnightblue" points="341.88,-152.85 352.47,-152.41 343.92,-146.16 341.88,-152.85"/>
</g>
<!-- Node4 -->
<g id="node4" class="node">
<title>Node4</title>
<g id="a_node4"><a xlink:href="list_8h.html#a06a80666b3364324fc601ab7ae1ff20b" target="_top" xlink:title=" ">
<polygon fill="none" stroke="black" points="360,-114.5 360,-133.5 410,-133.5 410,-114.5 360,-114.5"/>
<text text-anchor="middle" x="385" y="-121.5" font-family="Helvetica,sans-Serif" font-size="10.00">list_add</text>
</a>
</g>
</g>
<!-- Node2&#45;&gt;Node4 -->
<g id="edge3" class="edge">
<title>Node2&#45;&gt;Node4</title>
<path fill="none" stroke="midnightblue" d="M298.21,-124C314.61,-124 333.52,-124 349.4,-124"/>
<polygon fill="midnightblue" stroke="midnightblue" points="349.84,-127.5 359.84,-124 349.84,-120.5 349.84,-127.5"/>
</g>
<!-- Node5 -->
<g id="node5" class="node">
<title>Node5</title>
<g id="a_node5"><a xlink:href="list_8h.html#a83ecb02c2209a8fd5f6470d45a07f875" target="_top" xlink:title=" ">
<polygon fill="none" stroke="black" points="466,-114.5 466,-133.5 527,-133.5 527,-114.5 466,-114.5"/>
<text text-anchor="middle" x="496.5" y="-121.5" font-family="Helvetica,sans-Serif" font-size="10.00">__list_add</text>
</a>
</g>
</g>
<!-- Node4&#45;&gt;Node5 -->
<g id="edge4" class="edge">
<title>Node4&#45;&gt;Node5</title>
<path fill="none" stroke="midnightblue" d="M410.03,-124C423.33,-124 440.2,-124 455.44,-124"/>
<polygon fill="midnightblue" stroke="midnightblue" points="455.66,-127.5 465.66,-124 455.66,-120.5 455.66,-127.5"/>
</g>
<!-- Node6&#45;&gt;Node2 -->
<g id="edge6" class="edge">
<title>Node6&#45;&gt;Node2</title>
<path fill="none" stroke="midnightblue" d="M169.15,-95.59C183.9,-100.36 201.93,-106.19 217.8,-111.32"/>
<polygon fill="midnightblue" stroke="midnightblue" points="216.77,-114.67 227.36,-114.41 218.92,-108.01 216.77,-114.67"/>
</g>
<!-- Node7 -->
<g id="node7" class="node">
<title>Node7</title>
<g id="a_node7"><a xlink:href="buddy_8c.html#a8a4afbc5643993142db5ad65b87b8c62" target="_top" xlink:title=" ">
<polygon fill="none" stroke="black" points="227.5,-76.5 227.5,-95.5 288.5,-95.5 288.5,-76.5 227.5,-76.5"/>
<text text-anchor="middle" x="258" y="-83.5" font-family="Helvetica,sans-Serif" font-size="10.00">chunk_del</text>
</a>
</g>
</g>
<!-- Node6&#45;&gt;Node7 -->
<g id="edge7" class="edge">
<title>Node6&#45;&gt;Node7</title>
<path fill="none" stroke="midnightblue" d="M176.03,-86C189,-86 203.67,-86 216.92,-86"/>
<polygon fill="midnightblue" stroke="midnightblue" points="217.18,-89.5 227.18,-86 217.18,-82.5 217.18,-89.5"/>
</g>
<!-- Node10 -->
<g id="node10" class="node">
<title>Node10</title>
<g id="a_node10"><a xlink:href="buddy_8c.html#a48594e69fff9b58d5f41dca7d576eb35" target="_top" xlink:title="Get the buddy chunk.">
<polygon fill="none" stroke="black" points="212,-38.5 212,-57.5 304,-57.5 304,-38.5 212,-38.5"/>
<text text-anchor="middle" x="258" y="-45.5" font-family="Helvetica,sans-Serif" font-size="10.00">get_buddy_chunk</text>
</a>
</g>
</g>
<!-- Node6&#45;&gt;Node10 -->
<g id="edge10" class="edge">
<title>Node6&#45;&gt;Node10</title>
<path fill="none" stroke="midnightblue" d="M169.15,-76.41C183.9,-71.64 201.93,-65.81 217.8,-60.68"/>
<polygon fill="midnightblue" stroke="midnightblue" points="218.92,-63.99 227.36,-57.59 216.77,-57.33 218.92,-63.99"/>
</g>
<!-- Node8 -->
<g id="node8" class="node">
<title>Node8</title>
<g id="a_node8"><a xlink:href="list_8h.html#ab1708206f0f7e0a56550b35372203ba5" target="_top" xlink:title=" ">
<polygon fill="none" stroke="black" points="361.5,-76.5 361.5,-95.5 408.5,-95.5 408.5,-76.5 361.5,-76.5"/>
<text text-anchor="middle" x="385" y="-83.5" font-family="Helvetica,sans-Serif" font-size="10.00">list_del</text>
</a>
</g>
</g>
<!-- Node7&#45;&gt;Node8 -->
<g id="edge8" class="edge">
<title>Node7&#45;&gt;Node8</title>
<path fill="none" stroke="midnightblue" d="M288.62,-86C307.39,-86 331.67,-86 351.04,-86"/>
<polygon fill="midnightblue" stroke="midnightblue" points="351.23,-89.5 361.23,-86 351.23,-82.5 351.23,-89.5"/>
</g>
<!-- Node9 -->
<g id="node9" class="node">
<title>Node9</title>
<g id="a_node9"><a xlink:href="list_8h.html#a24b474717d65a296695e8b79b4adefda" target="_top" xlink:title=" ">
<polygon fill="none" stroke="black" points="467.5,-76.5 467.5,-95.5 525.5,-95.5 525.5,-76.5 467.5,-76.5"/>
<text text-anchor="middle" x="496.5" y="-83.5" font-family="Helvetica,sans-Serif" font-size="10.00">__list_del</text>
</a>
</g>
</g>
<!-- Node8&#45;&gt;Node9 -->
<g id="edge9" class="edge">
<title>Node8&#45;&gt;Node9</title>
<path fill="none" stroke="midnightblue" d="M408.69,-86C422.67,-86 440.95,-86 457.13,-86"/>
<polygon fill="midnightblue" stroke="midnightblue" points="457.39,-89.5 467.39,-86 457.39,-82.5 457.39,-89.5"/>
</g>
<!-- Node11 -->
<g id="node11" class="node">
<title>Node11</title>
<g id="a_node11"><a xlink:href="buddy_8c.html#a7d6c4f020f51f2a621ca1ab5a4e6a5bb" target="_top" xlink:title="translate chunk address to virtual address">
<polygon fill="none" stroke="black" points="354,-38.5 354,-57.5 416,-57.5 416,-38.5 354,-38.5"/>
<text text-anchor="middle" x="385" y="-45.5" font-family="Helvetica,sans-Serif" font-size="10.00">chunk2virt</text>
</a>
</g>
</g>
<!-- Node10&#45;&gt;Node11 -->
<g id="edge11" class="edge">
<title>Node10&#45;&gt;Node11</title>
<path fill="none" stroke="midnightblue" d="M304.13,-48C317.02,-48 330.99,-48 343.58,-48"/>
<polygon fill="midnightblue" stroke="midnightblue" points="343.78,-51.5 353.78,-48 343.78,-44.5 343.78,-51.5"/>
</g>
<!-- Node12 -->
<g id="node12" class="node">
<title>Node12</title>
<g id="a_node12"><a xlink:href="buddy_8c.html#ad1eda4b9fbb516f58586845217f68723" target="_top" xlink:title="translate virtual address to chunk address">
<polygon fill="none" stroke="black" points="354,-0.5 354,-19.5 416,-19.5 416,-0.5 354,-0.5"/>
<text text-anchor="middle" x="385" y="-7.5" font-family="Helvetica,sans-Serif" font-size="10.00">virt2chunk</text>
</a>
</g>
</g>
<!-- Node10&#45;&gt;Node12 -->
<g id="edge12" class="edge">
<title>Node10&#45;&gt;Node12</title>
<path fill="none" stroke="midnightblue" d="M290.54,-38.41C306.75,-33.49 326.66,-27.43 343.94,-22.18"/>
<polygon fill="midnightblue" stroke="midnightblue" points="345.21,-25.45 353.76,-19.19 343.18,-18.75 345.21,-25.45"/>
</g>
</g>
</svg>
