<?xml version="1.0" encoding="UTF-8" standalone="no"?>
<!DOCTYPE svg PUBLIC "-//W3C//DTD SVG 1.1//EN"
 "http://www.w3.org/Graphics/SVG/1.1/DTD/svg11.dtd">
<!-- Generated by graphviz version 3.0.0 (20220413.0106)
 -->
<!-- Title: kernel/include/common.h Pages: 1 -->
<svg width="703pt" height="263pt"
 viewBox="0.00 0.00 702.63 263.00" xmlns="http://www.w3.org/2000/svg" xmlns:xlink="http://www.w3.org/1999/xlink">
<g id="graph0" class="graph" transform="scale(1 1) rotate(0) translate(4 259)">
<title>kernel/include/common.h</title>
<!-- Node1 -->
<g id="node1" class="node">
<title>Node1</title>
<g id="a_node1"><a xlink:title=" ">
<polygon fill="#bfbfbf" stroke="black" points="211,-235.5 211,-254.5 336,-254.5 336,-235.5 211,-235.5"/>
<text text-anchor="middle" x="273.5" y="-242.5" font-family="Helvetica,sans-Serif" font-size="10.00">kernel/include/common.h</text>
</a>
</g>
</g>
<!-- Node2 -->
<g id="node2" class="node">
<title>Node2</title>
<g id="a_node2"><a xlink:href="buddy_8h.html" target="_top" xlink:title=" ">
<polygon fill="none" stroke="black" points="65,-179.5 65,-198.5 178,-198.5 178,-179.5 65,-179.5"/>
<text text-anchor="middle" x="121.5" y="-186.5" font-family="Helvetica,sans-Serif" font-size="10.00">kernel/include/buddy.h</text>
</a>
</g>
</g>
<!-- Node1&#45;&gt;Node2 -->
<g id="edge1" class="edge">
<title>Node1&#45;&gt;Node2</title>
<path fill="none" stroke="midnightblue" d="M239.83,-232.04C211.23,-221.88 170.89,-207.55 145.47,-198.52"/>
<polygon fill="midnightblue" stroke="midnightblue" points="238.82,-235.39 249.42,-235.44 241.16,-228.8 238.82,-235.39"/>
</g>
<!-- Node3 -->
<g id="node3" class="node">
<title>Node3</title>
<g id="a_node3"><a xlink:href="buddy_8c.html" target="_top" xlink:title="impl of buddy system">
<polygon fill="none" stroke="black" points="0,-123.5 0,-142.5 95,-142.5 95,-123.5 0,-123.5"/>
<text text-anchor="middle" x="47.5" y="-130.5" font-family="Helvetica,sans-Serif" font-size="10.00">kernel/src/buddy.c</text>
</a>
</g>
</g>
<!-- Node1&#45;&gt;Node3 -->
<g id="edge19" class="edge">
<title>Node1&#45;&gt;Node3</title>
<path fill="none" stroke="midnightblue" d="M200.76,-238.02C145.2,-231.86 74.95,-220.1 55.5,-199 41.32,-183.62 43.39,-156.77 45.68,-142.88"/>
<polygon fill="midnightblue" stroke="midnightblue" points="200.63,-241.53 210.95,-239.11 201.37,-234.57 200.63,-241.53"/>
</g>
<!-- Node4 -->
<g id="node4" class="node">
<title>Node4</title>
<g id="a_node4"><a xlink:href="pmm_8c.html" target="_top" xlink:title=" ">
<polygon fill="none" stroke="black" points="118.5,-123.5 118.5,-142.5 210.5,-142.5 210.5,-123.5 118.5,-123.5"/>
<text text-anchor="middle" x="164.5" y="-130.5" font-family="Helvetica,sans-Serif" font-size="10.00">kernel/src/pmm.c</text>
</a>
</g>
</g>
<!-- Node1&#45;&gt;Node4 -->
<g id="edge22" class="edge">
<title>Node1&#45;&gt;Node4</title>
<path fill="none" stroke="midnightblue" d="M257.85,-228.21C234.49,-204.63 191.28,-161.03 173.01,-142.59"/>
<polygon fill="midnightblue" stroke="midnightblue" points="255.42,-230.73 264.95,-235.37 260.39,-225.8 255.42,-230.73"/>
</g>
<!-- Node5 -->
<g id="node5" class="node">
<title>Node5</title>
<g id="a_node5"><a xlink:href="devices_8h.html" target="_top" xlink:title=" ">
<polygon fill="none" stroke="black" points="266,-67.5 266,-86.5 387,-86.5 387,-67.5 266,-67.5"/>
<text text-anchor="middle" x="326.5" y="-74.5" font-family="Helvetica,sans-Serif" font-size="10.00">kernel/include/devices.h</text>
</a>
</g>
</g>
<!-- Node1&#45;&gt;Node5 -->
<g id="edge4" class="edge">
<title>Node1&#45;&gt;Node5</title>
<path fill="none" stroke="midnightblue" d="M265.53,-225.92C255.91,-201.16 243.04,-156.03 260.5,-123 269.64,-105.71 288.73,-93.82 304.04,-86.62"/>
<polygon fill="midnightblue" stroke="midnightblue" points="262.42,-227.56 269.48,-235.46 268.89,-224.89 262.42,-227.56"/>
</g>
<!-- Node11 -->
<g id="node11" class="node">
<title>Node11</title>
<g id="a_node11"><a xlink:href="spinlock_8h.html" target="_top" xlink:title=" ">
<polygon fill="none" stroke="black" points="357,-179.5 357,-198.5 480,-198.5 480,-179.5 357,-179.5"/>
<text text-anchor="middle" x="418.5" y="-186.5" font-family="Helvetica,sans-Serif" font-size="10.00">kernel/include/spinlock.h</text>
</a>
</g>
</g>
<!-- Node1&#45;&gt;Node11 -->
<g id="edge10" class="edge">
<title>Node1&#45;&gt;Node11</title>
<path fill="none" stroke="midnightblue" d="M305.98,-231.91C333.24,-221.75 371.49,-207.51 395.63,-198.52"/>
<polygon fill="midnightblue" stroke="midnightblue" points="304.63,-228.67 296.48,-235.44 307.07,-235.23 304.63,-228.67"/>
</g>
<!-- Node12 -->
<g id="node12" class="node">
<title>Node12</title>
<g id="a_node12"><a xlink:href="thread_8h.html" target="_top" xlink:title=" ">
<polygon fill="none" stroke="black" points="269.5,-123.5 269.5,-142.5 383.5,-142.5 383.5,-123.5 269.5,-123.5"/>
<text text-anchor="middle" x="326.5" y="-130.5" font-family="Helvetica,sans-Serif" font-size="10.00">kernel/include/thread.h</text>
</a>
</g>
</g>
<!-- Node1&#45;&gt;Node12 -->
<g id="edge18" class="edge">
<title>Node1&#45;&gt;Node12</title>
<path fill="none" stroke="midnightblue" d="M282.02,-226.32C293.56,-202.37 313.71,-160.55 322.36,-142.59"/>
<polygon fill="midnightblue" stroke="midnightblue" points="278.85,-224.84 277.66,-235.37 285.15,-227.88 278.85,-224.84"/>
</g>
<!-- Node13 -->
<g id="node13" class="node">
<title>Node13</title>
<g id="a_node13"><a xlink:href="kmt_8c.html" target="_top" xlink:title=" ">
<polygon fill="none" stroke="black" points="406.5,-67.5 406.5,-86.5 492.5,-86.5 492.5,-67.5 406.5,-67.5"/>
<text text-anchor="middle" x="449.5" y="-74.5" font-family="Helvetica,sans-Serif" font-size="10.00">kernel/src/kmt.c</text>
</a>
</g>
</g>
<!-- Node1&#45;&gt;Node13 -->
<g id="edge20" class="edge">
<title>Node1&#45;&gt;Node13</title>
<path fill="none" stroke="midnightblue" d="M346.5,-237.56C455.18,-226.23 650.99,-198.47 690.5,-143 695.66,-135.76 696.18,-129.84 690.5,-123 665.82,-93.29 555,-83.09 492.58,-79.67"/>
<polygon fill="midnightblue" stroke="midnightblue" points="345.86,-234.11 336.27,-238.61 346.57,-241.07 345.86,-234.11"/>
</g>
<!-- Node14 -->
<g id="node14" class="node">
<title>Node14</title>
<g id="a_node14"><a xlink:href="os_8c.html" target="_top" xlink:title=" ">
<polygon fill="none" stroke="black" points="601.5,-123.5 601.5,-142.5 681.5,-142.5 681.5,-123.5 601.5,-123.5"/>
<text text-anchor="middle" x="641.5" y="-130.5" font-family="Helvetica,sans-Serif" font-size="10.00">kernel/src/os.c</text>
</a>
</g>
</g>
<!-- Node1&#45;&gt;Node14 -->
<g id="edge21" class="edge">
<title>Node1&#45;&gt;Node14</title>
<path fill="none" stroke="midnightblue" d="M339.88,-233.69C383.05,-226.13 440.28,-214.48 489.5,-199 540.15,-183.07 596.97,-156.22 624.6,-142.55"/>
<polygon fill="midnightblue" stroke="midnightblue" points="339.03,-230.29 329.77,-235.43 340.22,-237.18 339.03,-230.29"/>
</g>
<!-- Node2&#45;&gt;Node3 -->
<g id="edge2" class="edge">
<title>Node2&#45;&gt;Node3</title>
<path fill="none" stroke="midnightblue" d="M101.47,-173.38C88.09,-163.62 70.94,-151.11 59.61,-142.83"/>
<polygon fill="midnightblue" stroke="midnightblue" points="99.47,-176.26 109.61,-179.32 103.6,-170.6 99.47,-176.26"/>
</g>
<!-- Node2&#45;&gt;Node4 -->
<g id="edge3" class="edge">
<title>Node2&#45;&gt;Node4</title>
<path fill="none" stroke="midnightblue" d="M134.92,-171.14C142.41,-161.74 151.44,-150.4 157.53,-142.75"/>
<polygon fill="midnightblue" stroke="midnightblue" points="132.09,-169.08 128.6,-179.08 137.57,-173.44 132.09,-169.08"/>
</g>
<!-- Node6 -->
<g id="node6" class="node">
<title>Node6</title>
<g id="a_node6"><a xlink:href="dev_8c.html" target="_top" xlink:title=" ">
<polygon fill="none" stroke="black" points="29.5,-6 29.5,-25 133.5,-25 133.5,-6 29.5,-6"/>
<text text-anchor="middle" x="81.5" y="-13" font-family="Helvetica,sans-Serif" font-size="10.00">kernel/src/dev/dev.c</text>
</a>
</g>
</g>
<!-- Node5&#45;&gt;Node6 -->
<g id="edge5" class="edge">
<title>Node5&#45;&gt;Node6</title>
<path fill="none" stroke="midnightblue" d="M281.67,-65.11C234.12,-53.57 159.99,-35.56 116.54,-25.01"/>
<polygon fill="midnightblue" stroke="midnightblue" points="280.85,-68.52 291.4,-67.48 282.51,-61.71 280.85,-68.52"/>
</g>
<!-- Node7 -->
<g id="node7" class="node">
<title>Node7</title>
<g id="a_node7"><a xlink:href="dev__input_8c.html" target="_top" xlink:title=" ">
<polygon fill="none" stroke="black" points="152,-0.5 152,-30.5 249,-30.5 249,-0.5 152,-0.5"/>
<text text-anchor="start" x="160" y="-18.5" font-family="Helvetica,sans-Serif" font-size="10.00">kernel/src/dev/dev</text>
<text text-anchor="middle" x="200.5" y="-7.5" font-family="Helvetica,sans-Serif" font-size="10.00">_input.c</text>
</a>
</g>
</g>
<!-- Node5&#45;&gt;Node7 -->
<g id="edge6" class="edge">
<title>Node5&#45;&gt;Node7</title>
<path fill="none" stroke="midnightblue" d="M299.39,-63.2C279.03,-53.58 251.16,-40.42 230.2,-30.52"/>
<polygon fill="midnightblue" stroke="midnightblue" points="297.91,-66.37 308.45,-67.48 300.9,-60.04 297.91,-66.37"/>
</g>
<!-- Node8 -->
<g id="node8" class="node">
<title>Node8</title>
<g id="a_node8"><a xlink:href="dev__sd_8c.html" target="_top" xlink:title=" ">
<polygon fill="none" stroke="black" points="266.5,-6 266.5,-25 386.5,-25 386.5,-6 266.5,-6"/>
<text text-anchor="middle" x="326.5" y="-13" font-family="Helvetica,sans-Serif" font-size="10.00">kernel/src/dev/dev_sd.c</text>
</a>
</g>
</g>
<!-- Node5&#45;&gt;Node8 -->
<g id="edge7" class="edge">
<title>Node5&#45;&gt;Node8</title>
<path fill="none" stroke="midnightblue" d="M326.5,-57.32C326.5,-46.5 326.5,-33.4 326.5,-25.01"/>
<polygon fill="midnightblue" stroke="midnightblue" points="323,-57.48 326.5,-67.48 330,-57.48 323,-57.48"/>
</g>
<!-- Node9 -->
<g id="node9" class="node">
<title>Node9</title>
<g id="a_node9"><a xlink:href="dev__tty_8c.html" target="_top" xlink:title=" ">
<polygon fill="none" stroke="black" points="404,-0.5 404,-30.5 501,-30.5 501,-0.5 404,-0.5"/>
<text text-anchor="start" x="412" y="-18.5" font-family="Helvetica,sans-Serif" font-size="10.00">kernel/src/dev/dev</text>
<text text-anchor="middle" x="452.5" y="-7.5" font-family="Helvetica,sans-Serif" font-size="10.00">_tty.c</text>
</a>
</g>
</g>
<!-- Node5&#45;&gt;Node9 -->
<g id="edge8" class="edge">
<title>Node5&#45;&gt;Node9</title>
<path fill="none" stroke="midnightblue" d="M353.61,-63.2C373.97,-53.58 401.84,-40.42 422.8,-30.52"/>
<polygon fill="midnightblue" stroke="midnightblue" points="352.1,-60.04 344.55,-67.48 355.09,-66.37 352.1,-60.04"/>
</g>
<!-- Node10 -->
<g id="node10" class="node">
<title>Node10</title>
<g id="a_node10"><a xlink:href="dev__video_8c.html" target="_top" xlink:title=" ">
<polygon fill="none" stroke="black" points="519,-0.5 519,-30.5 616,-30.5 616,-0.5 519,-0.5"/>
<text text-anchor="start" x="527" y="-18.5" font-family="Helvetica,sans-Serif" font-size="10.00">kernel/src/dev/dev</text>
<text text-anchor="middle" x="567.5" y="-7.5" font-family="Helvetica,sans-Serif" font-size="10.00">_video.c</text>
</a>
</g>
</g>
<!-- Node5&#45;&gt;Node10 -->
<g id="edge9" class="edge">
<title>Node5&#45;&gt;Node10</title>
<path fill="none" stroke="midnightblue" d="M371.84,-65.04C409.1,-55.99 463.25,-42.79 510.5,-31 513.27,-30.31 516.12,-29.59 519,-28.87"/>
<polygon fill="midnightblue" stroke="midnightblue" points="370.69,-61.71 361.8,-67.47 372.34,-68.51 370.69,-61.71"/>
</g>
<!-- Node11&#45;&gt;Node5 -->
<g id="edge11" class="edge">
<title>Node11&#45;&gt;Node5</title>
<path fill="none" stroke="midnightblue" d="M414.18,-169.29C410.28,-155.41 403.43,-136.61 392.5,-123 379.56,-106.89 359.33,-94.29 344.67,-86.57"/>
<polygon fill="midnightblue" stroke="midnightblue" points="410.84,-170.35 416.71,-179.17 417.63,-168.62 410.84,-170.35"/>
</g>
<!-- Node11&#45;&gt;Node12 -->
<g id="edge12" class="edge">
<title>Node11&#45;&gt;Node12</title>
<path fill="none" stroke="midnightblue" d="M394.95,-174.18C378.02,-164.24 355.72,-151.15 341.24,-142.65"/>
<polygon fill="midnightblue" stroke="midnightblue" points="393.32,-177.28 403.72,-179.32 396.87,-171.24 393.32,-177.28"/>
</g>
<!-- Node11&#45;&gt;Node13 -->
<g id="edge15" class="edge">
<title>Node11&#45;&gt;Node13</title>
<path fill="none" stroke="midnightblue" d="M423.66,-169.67C430.44,-145.62 442.06,-104.39 447.08,-86.59"/>
<polygon fill="midnightblue" stroke="midnightblue" points="420.28,-168.79 420.93,-179.37 427.01,-170.69 420.28,-168.79"/>
</g>
<!-- Node11&#45;&gt;Node14 -->
<g id="edge16" class="edge">
<title>Node11&#45;&gt;Node14</title>
<path fill="none" stroke="midnightblue" d="M463.56,-177.09C505.69,-166.89 567.74,-151.86 606.33,-142.52"/>
<polygon fill="midnightblue" stroke="midnightblue" points="462.73,-173.69 453.84,-179.44 464.38,-180.49 462.73,-173.69"/>
</g>
<!-- Node15 -->
<g id="node15" class="node">
<title>Node15</title>
<g id="a_node15"><a xlink:href="spinlock_8c.html" target="_top" xlink:title=" ">
<polygon fill="none" stroke="black" points="477.5,-123.5 477.5,-142.5 583.5,-142.5 583.5,-123.5 477.5,-123.5"/>
<text text-anchor="middle" x="530.5" y="-130.5" font-family="Helvetica,sans-Serif" font-size="10.00">kernel/src/spinlock.c</text>
</a>
</g>
</g>
<!-- Node11&#45;&gt;Node15 -->
<g id="edge17" class="edge">
<title>Node11&#45;&gt;Node15</title>
<path fill="none" stroke="midnightblue" d="M445.75,-174.86C466.52,-164.85 494.52,-151.35 512.55,-142.65"/>
<polygon fill="midnightblue" stroke="midnightblue" points="443.98,-171.83 436.49,-179.32 447.02,-178.13 443.98,-171.83"/>
</g>
<!-- Node12&#45;&gt;Node5 -->
<g id="edge13" class="edge">
<title>Node12&#45;&gt;Node5</title>
<path fill="none" stroke="midnightblue" d="M326.5,-112.8C326.5,-103.91 326.5,-93.78 326.5,-86.75"/>
<polygon fill="midnightblue" stroke="midnightblue" points="323,-113.08 326.5,-123.08 330,-113.08 323,-113.08"/>
</g>
<!-- Node12&#45;&gt;Node13 -->
<g id="edge14" class="edge">
<title>Node12&#45;&gt;Node13</title>
<path fill="none" stroke="midnightblue" d="M355.27,-119.37C378.31,-109.26 409.98,-95.35 430.1,-86.52"/>
<polygon fill="midnightblue" stroke="midnightblue" points="353.74,-116.22 345.99,-123.44 356.55,-122.63 353.74,-116.22"/>
</g>
</g>
</svg>
