<?xml version="1.0" encoding="UTF-8" standalone="no"?>
<!DOCTYPE svg PUBLIC "-//W3C//DTD SVG 1.1//EN"
 "http://www.w3.org/Graphics/SVG/1.1/DTD/svg11.dtd">
<!-- Generated by graphviz version 3.0.0 (20220413.0106)
 -->
<!-- Title: abstract&#45;machine/klib/src/cpp.c Pages: 1 -->
<svg width="303pt" height="207pt"
 viewBox="0.00 0.00 302.50 207.00" xmlns="http://www.w3.org/2000/svg" xmlns:xlink="http://www.w3.org/1999/xlink">
<g id="graph0" class="graph" transform="scale(1 1) rotate(0) translate(4 203)">
<title>abstract&#45;machine/klib/src/cpp.c</title>
<!-- Node1 -->
<g id="node1" class="node">
<title>Node1</title>
<g id="a_node1"><a xlink:title=" ">
<polygon fill="#bfbfbf" stroke="black" points="136,-168.5 136,-198.5 246,-198.5 246,-168.5 136,-168.5"/>
<text text-anchor="start" x="144" y="-186.5" font-family="Helvetica,sans-Serif" font-size="10.00">abstract&#45;machine/klib</text>
<text text-anchor="middle" x="191" y="-175.5" font-family="Helvetica,sans-Serif" font-size="10.00">/src/cpp.c</text>
</a>
</g>
</g>
<!-- Node2 -->
<g id="node2" class="node">
<title>Node2</title>
<g id="a_node2"><a xlink:href="am_8h.html" target="_top" xlink:title=" ">
<polygon fill="none" stroke="black" points="148,-56.5 148,-75.5 186,-75.5 186,-56.5 148,-56.5"/>
<text text-anchor="middle" x="167" y="-63.5" font-family="Helvetica,sans-Serif" font-size="10.00">am.h</text>
</a>
</g>
</g>
<!-- Node1&#45;&gt;Node2 -->
<g id="edge1" class="edge">
<title>Node1&#45;&gt;Node2</title>
<path fill="none" stroke="midnightblue" d="M188.06,-168.34C183.73,-147.53 175.66,-108.66 170.86,-85.58"/>
<polygon fill="midnightblue" stroke="midnightblue" points="174.26,-84.75 168.8,-75.67 167.41,-86.17 174.26,-84.75"/>
</g>
<!-- Node7 -->
<g id="node7" class="node">
<title>Node7</title>
<g id="a_node7"><a xlink:href="klib_8h.html" target="_top" xlink:title=" ">
<polygon fill="none" stroke="black" points="195.5,-112.5 195.5,-131.5 234.5,-131.5 234.5,-112.5 195.5,-112.5"/>
<text text-anchor="middle" x="215" y="-119.5" font-family="Helvetica,sans-Serif" font-size="10.00">klib.h</text>
</a>
</g>
</g>
<!-- Node1&#45;&gt;Node7 -->
<g id="edge6" class="edge">
<title>Node1&#45;&gt;Node7</title>
<path fill="none" stroke="midnightblue" d="M196.69,-168.4C200,-160.2 204.2,-149.78 207.74,-140.99"/>
<polygon fill="midnightblue" stroke="midnightblue" points="211.01,-142.24 211.51,-131.66 204.52,-139.62 211.01,-142.24"/>
</g>
<!-- Node3 -->
<g id="node3" class="node">
<title>Node3</title>
<g id="a_node3"><a xlink:title=" ">
<polygon fill="none" stroke="#bfbfbf" points="0,-0.5 0,-19.5 48,-19.5 48,-0.5 0,-0.5"/>
<text text-anchor="middle" x="24" y="-7.5" font-family="Helvetica,sans-Serif" font-size="10.00">stdint.h</text>
</a>
</g>
</g>
<!-- Node2&#45;&gt;Node3 -->
<g id="edge2" class="edge">
<title>Node2&#45;&gt;Node3</title>
<path fill="none" stroke="midnightblue" d="M147.71,-57.72C124.26,-48.86 84.31,-33.77 56.16,-23.15"/>
<polygon fill="midnightblue" stroke="midnightblue" points="57.34,-19.85 46.75,-19.59 54.87,-26.4 57.34,-19.85"/>
</g>
<!-- Node4 -->
<g id="node4" class="node">
<title>Node4</title>
<g id="a_node4"><a xlink:title=" ">
<polygon fill="none" stroke="#bfbfbf" points="211.5,-0.5 211.5,-19.5 262.5,-19.5 262.5,-0.5 211.5,-0.5"/>
<text text-anchor="middle" x="237" y="-7.5" font-family="Helvetica,sans-Serif" font-size="10.00">stddef.h</text>
</a>
</g>
</g>
<!-- Node2&#45;&gt;Node4 -->
<g id="edge3" class="edge">
<title>Node2&#45;&gt;Node4</title>
<path fill="none" stroke="midnightblue" d="M178.25,-56.32C188.8,-48.18 204.8,-35.84 217.44,-26.09"/>
<polygon fill="midnightblue" stroke="midnightblue" points="219.77,-28.71 225.55,-19.83 215.49,-23.17 219.77,-28.71"/>
</g>
<!-- Node5 -->
<g id="node5" class="node">
<title>Node5</title>
<g id="a_node5"><a xlink:title=" ">
<polygon fill="none" stroke="#bfbfbf" points="66,-0.5 66,-19.5 122,-19.5 122,-0.5 66,-0.5"/>
<text text-anchor="middle" x="94" y="-7.5" font-family="Helvetica,sans-Serif" font-size="10.00">stdbool.h</text>
</a>
</g>
</g>
<!-- Node2&#45;&gt;Node5 -->
<g id="edge4" class="edge">
<title>Node2&#45;&gt;Node5</title>
<path fill="none" stroke="midnightblue" d="M155.27,-56.32C144.16,-48.11 127.26,-35.6 114.02,-25.81"/>
<polygon fill="midnightblue" stroke="midnightblue" points="116.06,-22.97 105.94,-19.83 111.9,-28.59 116.06,-22.97"/>
</g>
<!-- Node6 -->
<g id="node6" class="node">
<title>Node6</title>
<g id="a_node6"><a xlink:href="amdev_8h.html" target="_top" xlink:title=" ">
<polygon fill="none" stroke="black" points="140.5,-0.5 140.5,-19.5 193.5,-19.5 193.5,-0.5 140.5,-0.5"/>
<text text-anchor="middle" x="167" y="-7.5" font-family="Helvetica,sans-Serif" font-size="10.00">amdev.h</text>
</a>
</g>
</g>
<!-- Node2&#45;&gt;Node6 -->
<g id="edge5" class="edge">
<title>Node2&#45;&gt;Node6</title>
<path fill="none" stroke="midnightblue" d="M167,-56.08C167,-49.01 167,-38.86 167,-29.99"/>
<polygon fill="midnightblue" stroke="midnightblue" points="170.5,-29.75 167,-19.75 163.5,-29.75 170.5,-29.75"/>
</g>
<!-- Node7&#45;&gt;Node2 -->
<g id="edge7" class="edge">
<title>Node7&#45;&gt;Node2</title>
<path fill="none" stroke="midnightblue" d="M207.07,-112.08C200.15,-104.3 189.93,-92.8 181.55,-83.37"/>
<polygon fill="midnightblue" stroke="midnightblue" points="184.04,-80.9 174.78,-75.75 178.81,-85.55 184.04,-80.9"/>
</g>
<!-- Node7&#45;&gt;Node4 -->
<g id="edge8" class="edge">
<title>Node7&#45;&gt;Node4</title>
<path fill="none" stroke="midnightblue" d="M216.73,-112.37C220.28,-94.62 228.47,-53.67 233.28,-29.6"/>
<polygon fill="midnightblue" stroke="midnightblue" points="236.75,-30.08 235.28,-19.59 229.89,-28.71 236.75,-30.08"/>
</g>
<!-- Node8 -->
<g id="node8" class="node">
<title>Node8</title>
<g id="a_node8"><a xlink:title=" ">
<polygon fill="none" stroke="#bfbfbf" points="243.5,-56.5 243.5,-75.5 294.5,-75.5 294.5,-56.5 243.5,-56.5"/>
<text text-anchor="middle" x="269" y="-63.5" font-family="Helvetica,sans-Serif" font-size="10.00">stdarg.h</text>
</a>
</g>
</g>
<!-- Node7&#45;&gt;Node8 -->
<g id="edge9" class="edge">
<title>Node7&#45;&gt;Node8</title>
<path fill="none" stroke="midnightblue" d="M223.92,-112.08C231.78,-104.22 243.43,-92.57 252.92,-83.08"/>
<polygon fill="midnightblue" stroke="midnightblue" points="255.65,-85.3 260.25,-75.75 250.7,-80.35 255.65,-85.3"/>
</g>
</g>
</svg>
