<?xml version="1.0" encoding="UTF-8" standalone="no"?>
<!DOCTYPE svg PUBLIC "-//W3C//DTD SVG 1.1//EN"
 "http://www.w3.org/Graphics/SVG/1.1/DTD/svg11.dtd">
<!-- Generated by graphviz version 2.50.0 (20220203.2022)
 -->
<!-- Title: __am_irq_handle Pages: 1 -->
<svg width="298pt" height="180pt"
 viewBox="0.00 0.00 298.00 180.00" xmlns="http://www.w3.org/2000/svg" xmlns:xlink="http://www.w3.org/1999/xlink">
<g id="graph0" class="graph" transform="scale(1 1) rotate(0) translate(4 176)">
<title>__am_irq_handle</title>
<!-- Node1 -->
<g id="node1" class="node">
<title>Node1</title>
<g id="a_node1"><a xlink:title=" ">
<polygon fill="#bfbfbf" stroke="black" points="0,-76.5 0,-95.5 90,-95.5 90,-76.5 0,-76.5"/>
<text text-anchor="middle" x="45" y="-83.5" font-family="Helvetica,sans-Serif" font-size="10.00">__am_irq_handle</text>
</a>
</g>
</g>
<!-- Node2 -->
<g id="node2" class="node">
<title>Node2</title>
<g id="a_node2"><a xlink:href="x86-qemu_8h.html#ad7049e3554cfbb8bc223903ae3d74d72" target="_top" xlink:title=" ">
<polygon fill="none" stroke="black" points="138.5,-152.5 138.5,-171.5 197.5,-171.5 197.5,-152.5 138.5,-152.5"/>
<text text-anchor="middle" x="168" y="-159.5" font-family="Helvetica,sans-Serif" font-size="10.00">__am_iret</text>
</a>
</g>
</g>
<!-- Node1&#45;&gt;Node2 -->
<g id="edge1" class="edge">
<title>Node1&#45;&gt;Node2</title>
<path fill="none" stroke="midnightblue" d="M58,-95.62C73.24,-107.6 100.64,-128.26 126,-143 129.01,-144.75 132.2,-146.46 135.43,-148.1"/>
<polygon fill="midnightblue" stroke="midnightblue" points="133.96,-151.27 144.49,-152.48 137.01,-144.97 133.96,-151.27"/>
</g>
<!-- Node3 -->
<g id="node3" class="node">
<title>Node3</title>
<g id="a_node3"><a xlink:href="ioe_8c.html#ab782c68363d0f254ba753ff69de0ce3f" target="_top" xlink:title=" ">
<polygon fill="none" stroke="black" points="126,-114.5 126,-133.5 210,-133.5 210,-114.5 126,-114.5"/>
<text text-anchor="middle" x="168" y="-121.5" font-family="Helvetica,sans-Serif" font-size="10.00">__am_lapic_eoi</text>
</a>
</g>
</g>
<!-- Node1&#45;&gt;Node3 -->
<g id="edge2" class="edge">
<title>Node1&#45;&gt;Node3</title>
<path fill="none" stroke="midnightblue" d="M76.53,-95.59C91.72,-100.36 110.29,-106.19 126.63,-111.32"/>
<polygon fill="midnightblue" stroke="midnightblue" points="125.89,-114.76 136.48,-114.41 127.98,-108.08 125.89,-114.76"/>
</g>
<!-- Node5 -->
<g id="node5" class="node">
<title>Node5</title>
<g id="a_node5"><a xlink:href="x86_8h.html#a8ed96823526ebd47df1e444424549ae1" target="_top" xlink:title=" ">
<polygon fill="none" stroke="black" points="143.5,-76.5 143.5,-95.5 192.5,-95.5 192.5,-76.5 143.5,-76.5"/>
<text text-anchor="middle" x="168" y="-83.5" font-family="Helvetica,sans-Serif" font-size="10.00">get_cr2</text>
</a>
</g>
</g>
<!-- Node1&#45;&gt;Node5 -->
<g id="edge4" class="edge">
<title>Node1&#45;&gt;Node5</title>
<path fill="none" stroke="midnightblue" d="M90.03,-86C104.21,-86 119.7,-86 133.04,-86"/>
<polygon fill="midnightblue" stroke="midnightblue" points="133.22,-89.5 143.22,-86 133.21,-82.5 133.22,-89.5"/>
</g>
<!-- Node6 -->
<g id="node6" class="node">
<title>Node6</title>
<g id="a_node6"><a xlink:href="x86_8h.html#aa0cce706d7a3321fdd62e48a74284aa3" target="_top" xlink:title=" ">
<polygon fill="none" stroke="black" points="143.5,-38.5 143.5,-57.5 192.5,-57.5 192.5,-38.5 143.5,-38.5"/>
<text text-anchor="middle" x="168" y="-45.5" font-family="Helvetica,sans-Serif" font-size="10.00">get_cr3</text>
</a>
</g>
</g>
<!-- Node1&#45;&gt;Node6 -->
<g id="edge5" class="edge">
<title>Node1&#45;&gt;Node6</title>
<path fill="none" stroke="midnightblue" d="M76.53,-76.41C93.94,-70.95 115.77,-64.09 133.62,-58.48"/>
<polygon fill="midnightblue" stroke="midnightblue" points="134.85,-61.76 143.35,-55.43 132.76,-55.09 134.85,-61.76"/>
</g>
<!-- Node7 -->
<g id="node7" class="node">
<title>Node7</title>
<g id="a_node7"><a xlink:href="x86_8h.html#adae289a554a15acb37df8b8ff3b8c80a" target="_top" xlink:title=" ">
<polygon fill="none" stroke="black" points="143.5,-0.5 143.5,-19.5 192.5,-19.5 192.5,-0.5 143.5,-0.5"/>
<text text-anchor="middle" x="168" y="-7.5" font-family="Helvetica,sans-Serif" font-size="10.00">set_cr3</text>
</a>
</g>
</g>
<!-- Node1&#45;&gt;Node7 -->
<g id="edge6" class="edge">
<title>Node1&#45;&gt;Node7</title>
<path fill="none" stroke="midnightblue" d="M58,-76.38C73.24,-64.4 100.64,-43.74 126,-29 129.01,-27.25 132.2,-25.54 135.43,-23.9"/>
<polygon fill="midnightblue" stroke="midnightblue" points="137.01,-27.03 144.49,-19.52 133.96,-20.73 137.01,-27.03"/>
</g>
<!-- Node4 -->
<g id="node4" class="node">
<title>Node4</title>
<g id="a_node4"><a xlink:href="ioe_8c.html#a72d9ed0bfe1066367763e044b7a7b7c3" target="_top" xlink:title=" ">
<polygon fill="none" stroke="black" points="246,-114.5 246,-133.5 290,-133.5 290,-114.5 246,-114.5"/>
<text text-anchor="middle" x="268" y="-121.5" font-family="Helvetica,sans-Serif" font-size="10.00">lapicw</text>
</a>
</g>
</g>
<!-- Node3&#45;&gt;Node4 -->
<g id="edge3" class="edge">
<title>Node3&#45;&gt;Node4</title>
<path fill="none" stroke="midnightblue" d="M210.28,-124C218.79,-124 227.62,-124 235.7,-124"/>
<polygon fill="midnightblue" stroke="midnightblue" points="235.82,-127.5 245.82,-124 235.82,-120.5 235.82,-127.5"/>
</g>
</g>
</svg>
