<?xml version="1.0" encoding="UTF-8" standalone="no"?>
<!DOCTYPE svg PUBLIC "-//W3C//DTD SVG 1.1//EN"
 "http://www.w3.org/Graphics/SVG/1.1/DTD/svg11.dtd">
<!-- Generated by graphviz version 3.0.0 (20220413.0106)
 -->
<!-- Title: iset Pages: 1 -->
<svg width="838pt" height="592pt"
 viewBox="0.00 0.00 838.00 591.99" xmlns="http://www.w3.org/2000/svg" xmlns:xlink="http://www.w3.org/1999/xlink">
<g id="graph0" class="graph" transform="scale(1 1) rotate(0) translate(4 587.99)">
<title>iset</title>
<!-- Node1 -->
<g id="node1" class="node">
<title>Node1</title>
<g id="a_node1"><a xlink:title=" ">
<polygon fill="#bfbfbf" stroke="black" points="798,-315.23 798,-334.23 830,-334.23 830,-315.23 798,-315.23"/>
<text text-anchor="middle" x="814" y="-322.23" font-family="Helvetica,sans-Serif" font-size="10.00">iset</text>
</a>
</g>
</g>
<!-- Node2 -->
<g id="node2" class="node">
<title>Node2</title>
<g id="a_node2"><a xlink:href="pmm_8c.html#a20ccb461126d548299c6c21f157e6668" target="_top" xlink:title=" ">
<polygon fill="none" stroke="black" points="693.5,-391.23 693.5,-410.23 759.5,-410.23 759.5,-391.23 693.5,-391.23"/>
<text text-anchor="middle" x="726.5" y="-398.23" font-family="Helvetica,sans-Serif" font-size="10.00">kalloc_safe</text>
</a>
</g>
</g>
<!-- Node1&#45;&gt;Node2 -->
<g id="edge1" class="edge">
<title>Node1&#45;&gt;Node2</title>
<path fill="none" stroke="midnightblue" d="M799.71,-342.52C790.12,-354.56 776.38,-370.29 762,-381.73 757.61,-385.22 752.5,-388.43 747.57,-391.17"/>
<polygon fill="midnightblue" stroke="midnightblue" points="802.54,-344.57 805.9,-334.52 797.01,-340.28 802.54,-344.57"/>
</g>
<!-- Node4 -->
<g id="node4" class="node">
<title>Node4</title>
<g id="a_node4"><a xlink:href="pmm_8c.html#af2f46f4bce6a599542ce4d462aec9e2f" target="_top" xlink:title=" ">
<polygon fill="none" stroke="black" points="695.5,-353.23 695.5,-372.23 757.5,-372.23 757.5,-353.23 695.5,-353.23"/>
<text text-anchor="middle" x="726.5" y="-360.23" font-family="Helvetica,sans-Serif" font-size="10.00">kfree_safe</text>
</a>
</g>
</g>
<!-- Node1&#45;&gt;Node4 -->
<g id="edge3" class="edge">
<title>Node1&#45;&gt;Node4</title>
<path fill="none" stroke="midnightblue" d="M788.4,-335.67C775.98,-341.19 761.05,-347.82 749.08,-353.14"/>
<polygon fill="midnightblue" stroke="midnightblue" points="790,-338.79 797.71,-331.53 787.15,-332.39 790,-338.79"/>
</g>
<!-- Node5 -->
<g id="node5" class="node">
<title>Node5</title>
<g id="a_node5"><a xlink:href="os_8c.html#a5f9cb32664e017ca15c49ec66e5342e4" target="_top" xlink:title="cpu start entry">
<polygon fill="none" stroke="black" points="590.5,-339.23 590.5,-358.23 636.5,-358.23 636.5,-339.23 590.5,-339.23"/>
<text text-anchor="middle" x="613.5" y="-346.23" font-family="Helvetica,sans-Serif" font-size="10.00">os_run</text>
</a>
</g>
</g>
<!-- Node1&#45;&gt;Node5 -->
<g id="edge5" class="edge">
<title>Node1&#45;&gt;Node5</title>
<path fill="none" stroke="midnightblue" d="M787.7,-327.79C748.5,-332.53 673.75,-341.57 636.6,-346.06"/>
<polygon fill="midnightblue" stroke="midnightblue" points="788.25,-331.25 797.75,-326.58 787.41,-324.3 788.25,-331.25"/>
</g>
<!-- Node7 -->
<g id="node7" class="node">
<title>Node7</title>
<g id="a_node7"><a xlink:href="spinlock_8c.html#afc9565dc7a5ddf77e1fa76f5d91caf78" target="_top" xlink:title="interrupt able">
<polygon fill="none" stroke="black" points="694,-277.23 694,-296.23 759,-296.23 759,-277.23 694,-277.23"/>
<text text-anchor="middle" x="726.5" y="-284.23" font-family="Helvetica,sans-Serif" font-size="10.00">spin_popcli</text>
</a>
</g>
</g>
<!-- Node1&#45;&gt;Node7 -->
<g id="edge7" class="edge">
<title>Node1&#45;&gt;Node7</title>
<path fill="none" stroke="midnightblue" d="M788.4,-313.8C775.98,-308.28 761.05,-301.64 749.08,-296.32"/>
<polygon fill="midnightblue" stroke="midnightblue" points="787.15,-317.07 797.71,-317.94 790,-310.68 787.15,-317.07"/>
</g>
<!-- Node25 -->
<g id="node25" class="node">
<title>Node25</title>
<g id="a_node25"><a xlink:href="spinlock_8c.html#ab213874cda54fdbbeb1bec1e5fa90b28" target="_top" xlink:title="interrupt disable">
<polygon fill="none" stroke="black" points="691,-239.23 691,-258.23 762,-258.23 762,-239.23 691,-239.23"/>
<text text-anchor="middle" x="726.5" y="-246.23" font-family="Helvetica,sans-Serif" font-size="10.00">spin_pushcli</text>
</a>
</g>
</g>
<!-- Node1&#45;&gt;Node25 -->
<g id="edge63" class="edge">
<title>Node1&#45;&gt;Node25</title>
<path fill="none" stroke="midnightblue" d="M799.71,-306.94C790.12,-294.91 776.38,-279.18 762,-267.73 757.61,-264.24 752.5,-261.04 747.57,-258.29"/>
<polygon fill="midnightblue" stroke="midnightblue" points="797.01,-309.18 805.9,-314.94 802.54,-304.89 797.01,-309.18"/>
</g>
<!-- Node3 -->
<g id="node3" class="node">
<title>Node3</title>
<g id="a_node3"><a xlink:href="pmm_8c.html#a7ada9deb0ae8705f2cc158b0283aaeb3" target="_top" xlink:title=" ">
<polygon fill="none" stroke="black" points="572,-386.23 572,-405.23 655,-405.23 655,-386.23 572,-386.23"/>
<text text-anchor="middle" x="613.5" y="-393.23" font-family="Helvetica,sans-Serif" font-size="10.00">MODULE_DEF</text>
</a>
</g>
</g>
<!-- Node2&#45;&gt;Node3 -->
<g id="edge2" class="edge">
<title>Node2&#45;&gt;Node3</title>
<path fill="none" stroke="midnightblue" d="M683.29,-398.83C674.09,-398.42 664.38,-397.98 655.24,-397.57"/>
<polygon fill="midnightblue" stroke="midnightblue" points="683.25,-402.33 693.39,-399.29 683.56,-395.34 683.25,-402.33"/>
</g>
<!-- Node4&#45;&gt;Node3 -->
<g id="edge4" class="edge">
<title>Node4&#45;&gt;Node3</title>
<path fill="none" stroke="midnightblue" d="M685.5,-374.62C672.69,-378.43 658.67,-382.6 646.51,-386.22"/>
<polygon fill="midnightblue" stroke="midnightblue" points="686.87,-377.87 695.46,-371.66 684.88,-371.16 686.87,-377.87"/>
</g>
<!-- Node6 -->
<g id="node6" class="node">
<title>Node6</title>
<g id="a_node6"><a xlink:href="os_8c.html#aafec7046aa50c914df86d0d22d4fc1d1" target="_top" xlink:title=" ">
<polygon fill="none" stroke="black" points="206,-562.23 206,-581.23 289,-581.23 289,-562.23 206,-562.23"/>
<text text-anchor="middle" x="247.5" y="-569.23" font-family="Helvetica,sans-Serif" font-size="10.00">MODULE_DEF</text>
</a>
</g>
</g>
<!-- Node5&#45;&gt;Node6 -->
<g id="edge6" class="edge">
<title>Node5&#45;&gt;Node6</title>
<path fill="none" stroke="midnightblue" d="M585.18,-363.92C580.28,-367.61 575.6,-371.9 572,-376.73 541.04,-418.34 565.39,-445 536,-487.73 502.33,-536.69 488.02,-551.93 432,-571.73 385.14,-588.29 327.25,-584.67 289.17,-579.31"/>
<polygon fill="midnightblue" stroke="midnightblue" points="587.16,-366.81 593.48,-358.3 583.24,-361.01 587.16,-366.81"/>
</g>
<!-- Node8 -->
<g id="node8" class="node">
<title>Node8</title>
<g id="a_node8"><a xlink:href="spinlock_8c.html#ad4be0d674a7ca4dc90c2dbf8b34562cc" target="_top" xlink:title="check current cpu has the lock">
<polygon fill="none" stroke="black" points="578,-239.23 578,-258.23 649,-258.23 649,-239.23 578,-239.23"/>
<text text-anchor="middle" x="613.5" y="-246.23" font-family="Helvetica,sans-Serif" font-size="10.00">spin_holding</text>
</a>
</g>
</g>
<!-- Node7&#45;&gt;Node8 -->
<g id="edge8" class="edge">
<title>Node7&#45;&gt;Node8</title>
<path fill="none" stroke="midnightblue" d="M687.61,-273.76C672.82,-268.7 656.17,-263 642.5,-258.32"/>
<polygon fill="midnightblue" stroke="midnightblue" points="686.9,-277.21 697.49,-277.14 689.16,-270.59 686.9,-277.21"/>
</g>
<!-- Node24 -->
<g id="node24" class="node">
<title>Node24</title>
<g id="a_node24"><a xlink:href="spinlock_8c.html#acdf118d615a4bc4064e991add9a80995" target="_top" xlink:title="release spinlock from current cpu">
<polygon fill="none" stroke="black" points="468,-315.23 468,-334.23 536,-334.23 536,-315.23 468,-315.23"/>
<text text-anchor="middle" x="502" y="-322.23" font-family="Helvetica,sans-Serif" font-size="10.00">spin_unlock</text>
</a>
</g>
</g>
<!-- Node7&#45;&gt;Node24 -->
<g id="edge62" class="edge">
<title>Node7&#45;&gt;Node24</title>
<path fill="none" stroke="midnightblue" d="M683.55,-293.9C640.86,-301.19 575.53,-312.34 536.27,-319.05"/>
<polygon fill="midnightblue" stroke="midnightblue" points="684.35,-297.31 693.62,-292.18 683.17,-290.41 684.35,-297.31"/>
</g>
<!-- Node9 -->
<g id="node9" class="node">
<title>Node9</title>
<g id="a_node9"><a xlink:href="kmt_8c.html#af9c485ce0d89d6624e6e80e31d8ed207" target="_top" xlink:title="handler: save context to current task">
<polygon fill="none" stroke="black" points="330.5,-239.23 330.5,-258.23 426.5,-258.23 426.5,-239.23 330.5,-239.23"/>
<text text-anchor="middle" x="378.5" y="-246.23" font-family="Helvetica,sans-Serif" font-size="10.00">kmt_context_save</text>
</a>
</g>
</g>
<!-- Node8&#45;&gt;Node9 -->
<g id="edge9" class="edge">
<title>Node8&#45;&gt;Node9</title>
<path fill="none" stroke="midnightblue" d="M567.77,-248.73C527.35,-248.73 468.05,-248.73 426.84,-248.73"/>
<polygon fill="midnightblue" stroke="midnightblue" points="567.87,-252.23 577.87,-248.73 567.87,-245.23 567.87,-252.23"/>
</g>
<!-- Node12 -->
<g id="node12" class="node">
<title>Node12</title>
<g id="a_node12"><a xlink:href="kmt_8c.html#a5ddb8743298012e84cf9cb5faf22212b" target="_top" xlink:title="create thread">
<polygon fill="none" stroke="black" points="346,-467.23 346,-486.23 411,-486.23 411,-467.23 346,-467.23"/>
<text text-anchor="middle" x="378.5" y="-474.23" font-family="Helvetica,sans-Serif" font-size="10.00">kmt_create</text>
</a>
</g>
</g>
<!-- Node8&#45;&gt;Node12 -->
<g id="edge12" class="edge">
<title>Node8&#45;&gt;Node12</title>
<path fill="none" stroke="midnightblue" d="M602.96,-267.47C594.66,-283.84 582.37,-308.28 572,-329.73 555.55,-363.74 562.46,-379.77 536,-406.73 501.39,-441.99 445.86,-460.96 411.09,-469.93"/>
<polygon fill="midnightblue" stroke="midnightblue" points="606.15,-268.92 607.55,-258.42 599.91,-265.75 606.15,-268.92"/>
</g>
<!-- Node13 -->
<g id="node13" class="node">
<title>Node13</title>
<g id="a_node13"><a xlink:href="kmt_8c.html#ad3fbc643b7b6092120c5152b4c890354" target="_top" xlink:title="handler: handle program errors">
<polygon fill="none" stroke="black" points="218.5,-68.23 218.5,-87.23 276.5,-87.23 276.5,-68.23 218.5,-68.23"/>
<text text-anchor="middle" x="247.5" y="-75.23" font-family="Helvetica,sans-Serif" font-size="10.00">kmt_error</text>
</a>
</g>
</g>
<!-- Node8&#45;&gt;Node13 -->
<g id="edge14" class="edge">
<title>Node8&#45;&gt;Node13</title>
<path fill="none" stroke="midnightblue" d="M611.31,-229.06C607.71,-187.82 593.28,-92.15 536,-43.73 464.06,17.08 414.78,4.76 325,-23.73 297.42,-32.49 271.21,-55.17 257.8,-68.19"/>
<polygon fill="midnightblue" stroke="midnightblue" points="607.83,-229.45 612.07,-239.16 614.81,-228.93 607.83,-229.45"/>
</g>
<!-- Node14 -->
<g id="node14" class="node">
<title>Node14</title>
<g id="a_node14"><a xlink:href="kmt_8c.html#a13cbe2d83bf10c3302124613fa18f8a4" target="_top" xlink:title="print all tasks notice: do not garantee concurrency safety">
<polygon fill="none" stroke="black" points="328,-87.23 328,-106.23 429,-106.23 429,-87.23 328,-87.23"/>
<text text-anchor="middle" x="378.5" y="-94.23" font-family="Helvetica,sans-Serif" font-size="10.00">kmt_print_all_tasks</text>
</a>
</g>
</g>
<!-- Node8&#45;&gt;Node14 -->
<g id="edge16" class="edge">
<title>Node8&#45;&gt;Node14</title>
<path fill="none" stroke="midnightblue" d="M598.23,-231.23C583.84,-214.39 560.33,-189.02 536,-171.73 494.12,-141.98 438.61,-118.59 406.2,-106.28"/>
<polygon fill="midnightblue" stroke="midnightblue" points="595.77,-233.74 604.88,-239.16 601.14,-229.25 595.77,-233.74"/>
</g>
<!-- Node15 -->
<g id="node15" class="node">
<title>Node15</title>
<g id="a_node15"><a xlink:href="kmt_8c.html#ad4d70b4093829da1c0b0631abdff7747" target="_top" xlink:title="handler: schedule next task to run Notice: this should be the only handler which returns real Context">
<polygon fill="none" stroke="black" points="209,-116.23 209,-135.23 286,-135.23 286,-116.23 209,-116.23"/>
<text text-anchor="middle" x="247.5" y="-123.23" font-family="Helvetica,sans-Serif" font-size="10.00">kmt_schedule</text>
</a>
</g>
</g>
<!-- Node8&#45;&gt;Node15 -->
<g id="edge23" class="edge">
<title>Node8&#45;&gt;Node15</title>
<path fill="none" stroke="midnightblue" d="M608.23,-229.24C599.91,-195.55 578.5,-126.05 536,-84.73 499.89,-49.62 481.32,-49.94 432,-39.73 385.43,-30.09 366.65,-16.78 325,-39.73 298.76,-54.19 309.56,-74.94 289,-96.73 282,-104.15 272.85,-110.9 265.01,-116.01"/>
<polygon fill="midnightblue" stroke="midnightblue" points="604.87,-230.26 610.56,-239.2 611.69,-228.67 604.87,-230.26"/>
</g>
<!-- Node16 -->
<g id="node16" class="node">
<title>Node16</title>
<g id="a_node16"><a xlink:href="kmt_8c.html#ab4e9dee1880e455874374b44b5785bc3" target="_top" xlink:title="print all current_tasks notice: do not garantee concurrency safety">
<polygon fill="none" stroke="black" points="325,-49.23 325,-68.23 432,-68.23 432,-49.23 325,-49.23"/>
<text text-anchor="middle" x="378.5" y="-56.23" font-family="Helvetica,sans-Serif" font-size="10.00">kmt_print_cpu_tasks</text>
</a>
</g>
</g>
<!-- Node8&#45;&gt;Node16 -->
<g id="edge20" class="edge">
<title>Node8&#45;&gt;Node16</title>
<path fill="none" stroke="midnightblue" d="M604.06,-229.7C592.05,-204.37 567.88,-159.46 536,-130.73 500.79,-99 449.18,-78.96 414.99,-68.3"/>
<polygon fill="midnightblue" stroke="midnightblue" points="600.97,-231.34 608.33,-238.96 607.32,-228.41 600.97,-231.34"/>
</g>
<!-- Node17 -->
<g id="node17" class="node">
<title>Node17</title>
<g id="a_node17"><a xlink:href="kmt_8c.html#a47d8887c87041abd5ea3148232b65c93" target="_top" xlink:title="tear down a thread">
<polygon fill="none" stroke="black" points="339.5,-429.23 339.5,-448.23 417.5,-448.23 417.5,-429.23 339.5,-429.23"/>
<text text-anchor="middle" x="378.5" y="-436.23" font-family="Helvetica,sans-Serif" font-size="10.00">kmt_teardown</text>
</a>
</g>
</g>
<!-- Node8&#45;&gt;Node17 -->
<g id="edge24" class="edge">
<title>Node8&#45;&gt;Node17</title>
<path fill="none" stroke="midnightblue" d="M602.9,-267.32C586.71,-298.15 553.97,-358.01 536,-373.73 501.8,-403.67 451.88,-421.15 417.67,-430.3"/>
<polygon fill="midnightblue" stroke="midnightblue" points="606.02,-268.91 607.54,-258.43 599.81,-265.68 606.02,-268.91"/>
</g>
<!-- Node18 -->
<g id="node18" class="node">
<title>Node18</title>
<g id="a_node18"><a xlink:href="kmt_8c.html#a75ea8dbba16d64a343a45962bd593930" target="_top" xlink:title="handler: handle yield interrupt (0x81)">
<polygon fill="none" stroke="black" points="349.5,-163.23 349.5,-182.23 407.5,-182.23 407.5,-163.23 349.5,-163.23"/>
<text text-anchor="middle" x="378.5" y="-170.23" font-family="Helvetica,sans-Serif" font-size="10.00">kmt_yield</text>
</a>
</g>
</g>
<!-- Node8&#45;&gt;Node18 -->
<g id="edge26" class="edge">
<title>Node8&#45;&gt;Node18</title>
<path fill="none" stroke="midnightblue" d="M595.53,-231.93C581.01,-218.66 558.88,-200.89 536,-191.73 493.56,-174.75 439.89,-171.84 407.71,-171.87"/>
<polygon fill="midnightblue" stroke="midnightblue" points="593.47,-234.81 603.15,-239.13 598.28,-229.72 593.47,-234.81"/>
</g>
<!-- Node19 -->
<g id="node19" class="node">
<title>Node19</title>
<g id="a_node19"><a xlink:href="os_8c.html#a2be1c9facb49d4439f41b1537d0f3ef8" target="_top" xlink:title="System trap entry.">
<polygon fill="none" stroke="black" points="354,-543.23 354,-562.23 403,-562.23 403,-543.23 354,-543.23"/>
<text text-anchor="middle" x="378.5" y="-550.23" font-family="Helvetica,sans-Serif" font-size="10.00">os_trap</text>
</a>
</g>
</g>
<!-- Node8&#45;&gt;Node19 -->
<g id="edge28" class="edge">
<title>Node8&#45;&gt;Node19</title>
<path fill="none" stroke="midnightblue" d="M602.13,-267.43C593.4,-283.61 580.95,-307.79 572,-329.73 552.25,-378.14 565.2,-398.36 536,-441.73 502.34,-491.72 482.97,-496.58 432,-528.73 423.01,-534.4 412.47,-539.49 403.2,-543.51"/>
<polygon fill="midnightblue" stroke="midnightblue" points="605.29,-268.94 607.01,-258.48 599.15,-265.58 605.29,-268.94"/>
</g>
<!-- Node20 -->
<g id="node20" class="node">
<title>Node20</title>
<g id="a_node20"><a xlink:href="sem_8c.html#ad994e433f3a6bf8626272437cb54c114" target="_top" xlink:title="wake up a task form tasks waiting for the semaphore instance">
<polygon fill="none" stroke="black" points="345.5,-277.23 345.5,-296.23 411.5,-296.23 411.5,-277.23 345.5,-277.23"/>
<text text-anchor="middle" x="378.5" y="-284.23" font-family="Helvetica,sans-Serif" font-size="10.00">sem_signal</text>
</a>
</g>
</g>
<!-- Node8&#45;&gt;Node20 -->
<g id="edge30" class="edge">
<title>Node8&#45;&gt;Node20</title>
<path fill="none" stroke="midnightblue" d="M567.74,-257.15C557.33,-259.04 546.29,-261 536,-262.73 493.04,-269.96 443.28,-277.43 411.61,-282.08"/>
<polygon fill="midnightblue" stroke="midnightblue" points="568.68,-260.53 577.88,-255.29 567.41,-253.65 568.68,-260.53"/>
</g>
<!-- Node22 -->
<g id="node22" class="node">
<title>Node22</title>
<g id="a_node22"><a xlink:href="sem_8c.html#a85ca67864bb0af1966a5c2463bd16fe8" target="_top" xlink:title="release semaphore(Mutex) and sleep task holding the sem">
<polygon fill="none" stroke="black" points="349,-391.23 349,-410.23 408,-410.23 408,-391.23 349,-391.23"/>
<text text-anchor="middle" x="378.5" y="-398.23" font-family="Helvetica,sans-Serif" font-size="10.00">sem_wait</text>
</a>
</g>
</g>
<!-- Node8&#45;&gt;Node22 -->
<g id="edge33" class="edge">
<title>Node8&#45;&gt;Node22</title>
<path fill="none" stroke="midnightblue" d="M602.11,-266.94C589.15,-288.13 565.12,-322.89 536,-343.73 496.49,-372 441.44,-387.71 408.26,-395.18"/>
<polygon fill="midnightblue" stroke="midnightblue" points="605.17,-268.64 607.26,-258.25 599.15,-265.06 605.17,-268.64"/>
</g>
<!-- Node23 -->
<g id="node23" class="node">
<title>Node23</title>
<g id="a_node23"><a xlink:href="spinlock_8c.html#ab6f3c37ec37006951feccc3c05387cce" target="_top" xlink:title="acquire spinlock to current cpu">
<polygon fill="none" stroke="black" points="473,-201.23 473,-220.23 531,-220.23 531,-201.23 473,-201.23"/>
<text text-anchor="middle" x="502" y="-208.23" font-family="Helvetica,sans-Serif" font-size="10.00">spin_lock</text>
</a>
</g>
</g>
<!-- Node8&#45;&gt;Node23 -->
<g id="edge36" class="edge">
<title>Node8&#45;&gt;Node23</title>
<path fill="none" stroke="midnightblue" d="M575.12,-235.76C560.53,-230.7 544.11,-225 530.62,-220.32"/>
<polygon fill="midnightblue" stroke="midnightblue" points="574.27,-239.17 584.87,-239.14 576.57,-232.56 574.27,-239.17"/>
</g>
<!-- Node8&#45;&gt;Node24 -->
<g id="edge49" class="edge">
<title>Node8&#45;&gt;Node24</title>
<path fill="none" stroke="midnightblue" d="M590.22,-264.19C568.2,-279.48 535.21,-302.38 516.76,-315.18"/>
<polygon fill="midnightblue" stroke="midnightblue" points="592.41,-266.93 598.63,-258.36 588.42,-261.18 592.41,-266.93"/>
</g>
<!-- Node10 -->
<g id="node10" class="node">
<title>Node10</title>
<g id="a_node10"><a xlink:href="kmt_8c.html#a0c68a294cecc4be7cb4b495f15b883a0" target="_top" xlink:title="initialize kmt module">
<polygon fill="none" stroke="black" points="119,-163.23 119,-182.23 170,-182.23 170,-163.23 119,-163.23"/>
<text text-anchor="middle" x="144.5" y="-170.23" font-family="Helvetica,sans-Serif" font-size="10.00">kmt_init</text>
</a>
</g>
</g>
<!-- Node9&#45;&gt;Node10 -->
<g id="edge10" class="edge">
<title>Node9&#45;&gt;Node10</title>
<path fill="none" stroke="midnightblue" d="M338.37,-235.91C290.31,-220.17 210.23,-193.94 170.06,-180.78"/>
<polygon fill="midnightblue" stroke="midnightblue" points="337.52,-239.32 348.12,-239.11 339.7,-232.67 337.52,-239.32"/>
</g>
<!-- Node11 -->
<g id="node11" class="node">
<title>Node11</title>
<g id="a_node11"><a xlink:href="kmt_8c.html#af360ef0d98ca30e481cc58ea3695fd58" target="_top" xlink:title=" ">
<polygon fill="none" stroke="black" points="0,-391.23 0,-410.23 83,-410.23 83,-391.23 0,-391.23"/>
<text text-anchor="middle" x="41.5" y="-398.23" font-family="Helvetica,sans-Serif" font-size="10.00">MODULE_DEF</text>
</a>
</g>
</g>
<!-- Node10&#45;&gt;Node11 -->
<g id="edge11" class="edge">
<title>Node10&#45;&gt;Node11</title>
<path fill="none" stroke="midnightblue" d="M135.21,-191.44C114.68,-237.78 62.03,-356.64 46.73,-391.18"/>
<polygon fill="midnightblue" stroke="midnightblue" points="138.44,-192.8 139.29,-182.24 132.04,-189.96 138.44,-192.8"/>
</g>
<!-- Node12&#45;&gt;Node11 -->
<g id="edge13" class="edge">
<title>Node12&#45;&gt;Node11</title>
<path fill="none" stroke="midnightblue" d="M335.88,-472.25C284.29,-466.07 193.98,-453.19 119,-431.73 99.44,-426.13 78.04,-417.21 62.86,-410.37"/>
<polygon fill="midnightblue" stroke="midnightblue" points="335.64,-475.75 345.98,-473.44 336.46,-468.8 335.64,-475.75"/>
</g>
<!-- Node13&#45;&gt;Node10 -->
<g id="edge15" class="edge">
<title>Node13&#45;&gt;Node10</title>
<path fill="none" stroke="midnightblue" d="M223.44,-92.99C217.56,-97.21 211.39,-101.95 206,-106.73 185.29,-125.08 164.13,-149.82 153.16,-163.19"/>
<polygon fill="midnightblue" stroke="midnightblue" points="225.5,-95.82 231.7,-87.24 221.5,-90.08 225.5,-95.82"/>
</g>
<!-- Node14&#45;&gt;Node13 -->
<g id="edge17" class="edge">
<title>Node14&#45;&gt;Node13</title>
<path fill="none" stroke="midnightblue" d="M317.7,-87.92C303.44,-85.82 288.86,-83.68 276.79,-81.9"/>
<polygon fill="midnightblue" stroke="midnightblue" points="317.59,-91.45 327.99,-89.44 318.61,-84.52 317.59,-91.45"/>
</g>
<!-- Node14&#45;&gt;Node15 -->
<g id="edge18" class="edge">
<title>Node14&#45;&gt;Node15</title>
<path fill="none" stroke="midnightblue" d="M325.13,-108.51C312.12,-111.43 298.43,-114.51 286.28,-117.24"/>
<polygon fill="midnightblue" stroke="midnightblue" points="325.91,-111.92 334.9,-106.31 324.38,-105.09 325.91,-111.92"/>
</g>
<!-- Node15&#45;&gt;Node10 -->
<g id="edge19" class="edge">
<title>Node15&#45;&gt;Node10</title>
<path fill="none" stroke="midnightblue" d="M216.95,-139.48C200.68,-147.05 180.88,-156.27 166.26,-163.07"/>
<polygon fill="midnightblue" stroke="midnightblue" points="218.47,-142.64 226.06,-135.24 215.52,-136.29 218.47,-142.64"/>
</g>
<!-- Node16&#45;&gt;Node13 -->
<g id="edge21" class="edge">
<title>Node16&#45;&gt;Node13</title>
<path fill="none" stroke="midnightblue" d="M314.56,-68C301.28,-69.96 287.92,-71.93 276.72,-73.58"/>
<polygon fill="midnightblue" stroke="midnightblue" points="315.28,-71.43 324.66,-66.51 314.26,-64.51 315.28,-71.43"/>
</g>
<!-- Node16&#45;&gt;Node15 -->
<g id="edge22" class="edge">
<title>Node16&#45;&gt;Node15</title>
<path fill="none" stroke="midnightblue" d="M337.96,-72.01C333.53,-73.8 329.13,-75.72 325,-77.73 301.75,-89.07 276.69,-105.73 261.81,-116.15"/>
<polygon fill="midnightblue" stroke="midnightblue" points="339.53,-75.15 347.61,-68.3 337.02,-68.62 339.53,-75.15"/>
</g>
<!-- Node17&#45;&gt;Node11 -->
<g id="edge25" class="edge">
<title>Node17&#45;&gt;Node11</title>
<path fill="none" stroke="midnightblue" d="M329,-435.51C276.94,-431.76 191.89,-424.77 119,-414.73 107.36,-413.13 94.8,-411 83.29,-408.89"/>
<polygon fill="midnightblue" stroke="midnightblue" points="329.05,-439.03 339.27,-436.24 329.55,-432.04 329.05,-439.03"/>
</g>
<!-- Node18&#45;&gt;Node10 -->
<g id="edge27" class="edge">
<title>Node18&#45;&gt;Node10</title>
<path fill="none" stroke="midnightblue" d="M338.76,-172.73C290.84,-172.73 210.64,-172.73 170.29,-172.73"/>
<polygon fill="midnightblue" stroke="midnightblue" points="339.05,-176.23 349.05,-172.73 339.05,-169.23 339.05,-176.23"/>
</g>
<!-- Node19&#45;&gt;Node6 -->
<g id="edge29" class="edge">
<title>Node19&#45;&gt;Node6</title>
<path fill="none" stroke="midnightblue" d="M343.48,-557.74C326.85,-560.19 306.7,-563.16 289.25,-565.73"/>
<polygon fill="midnightblue" stroke="midnightblue" points="344.46,-561.14 353.84,-556.22 343.44,-554.21 344.46,-561.14"/>
</g>
<!-- Node20&#45;&gt;Node11 -->
<g id="edge32" class="edge">
<title>Node20&#45;&gt;Node11</title>
<path fill="none" stroke="midnightblue" d="M335.38,-297.13C300.42,-306.09 249.55,-319.9 206,-334.73 154.13,-352.4 94.86,-377.63 63.9,-391.21"/>
<polygon fill="midnightblue" stroke="midnightblue" points="336.42,-300.48 345.25,-294.62 334.7,-293.69 336.42,-300.48"/>
</g>
<!-- Node21 -->
<g id="node21" class="node">
<title>Node21</title>
<g id="a_node21"><a xlink:href="kernel_8h.html#a7ef2d722f9c7f8acc1801144a5188825" target="_top" xlink:title=" ">
<polygon fill="none" stroke="black" points="218,-344.23 218,-363.23 277,-363.23 277,-344.23 218,-344.23"/>
<text text-anchor="middle" x="247.5" y="-351.23" font-family="Helvetica,sans-Serif" font-size="10.00">MODULE</text>
</a>
</g>
</g>
<!-- Node20&#45;&gt;Node21 -->
<g id="edge31" class="edge">
<title>Node20&#45;&gt;Node21</title>
<path fill="none" stroke="midnightblue" d="M350.02,-301C324.98,-314.01 288.68,-332.86 266.95,-344.15"/>
<polygon fill="midnightblue" stroke="midnightblue" points="351.76,-304.05 359.02,-296.33 348.53,-297.83 351.76,-304.05"/>
</g>
<!-- Node22&#45;&gt;Node11 -->
<g id="edge35" class="edge">
<title>Node22&#45;&gt;Node11</title>
<path fill="none" stroke="midnightblue" d="M338.88,-400.73C275.04,-400.73 148.08,-400.73 83.01,-400.73"/>
<polygon fill="midnightblue" stroke="midnightblue" points="338.94,-404.23 348.94,-400.73 338.94,-397.23 338.94,-404.23"/>
</g>
<!-- Node22&#45;&gt;Node21 -->
<g id="edge34" class="edge">
<title>Node22&#45;&gt;Node21</title>
<path fill="none" stroke="midnightblue" d="M341.79,-387.72C320.64,-380.02 294.3,-370.42 275.01,-363.39"/>
<polygon fill="midnightblue" stroke="midnightblue" points="340.8,-391.09 351.39,-391.22 343.2,-384.51 340.8,-391.09"/>
</g>
<!-- Node23&#45;&gt;Node9 -->
<g id="edge37" class="edge">
<title>Node23&#45;&gt;Node9</title>
<path fill="none" stroke="midnightblue" d="M463.15,-222.57C446.08,-227.91 426.18,-234.13 410.08,-239.17"/>
<polygon fill="midnightblue" stroke="midnightblue" points="464.32,-225.87 472.82,-219.55 462.23,-219.19 464.32,-225.87"/>
</g>
<!-- Node23&#45;&gt;Node11 -->
<g id="edge45" class="edge">
<title>Node23&#45;&gt;Node11</title>
<path fill="none" stroke="midnightblue" d="M499.83,-191.06C496.43,-153.96 483.22,-74.3 432,-39.73 348.45,16.65 294.76,-10.95 206,-58.73 74.75,-129.39 47.76,-342.74 43.28,-390.97"/>
<polygon fill="midnightblue" stroke="midnightblue" points="496.34,-191.4 500.6,-201.11 503.32,-190.87 496.34,-191.4"/>
</g>
<!-- Node23&#45;&gt;Node12 -->
<g id="edge38" class="edge">
<title>Node23&#45;&gt;Node12</title>
<path fill="none" stroke="midnightblue" d="M493.68,-229.93C486.58,-248.99 475.75,-279.12 468,-305.73 448.58,-372.39 478.2,-405.91 432,-457.73 426.52,-463.88 418.89,-468.04 411.14,-470.86"/>
<polygon fill="midnightblue" stroke="midnightblue" points="497.05,-230.93 497.3,-220.34 490.5,-228.46 497.05,-230.93"/>
</g>
<!-- Node23&#45;&gt;Node14 -->
<g id="edge39" class="edge">
<title>Node23&#45;&gt;Node14</title>
<path fill="none" stroke="midnightblue" d="M490.67,-192.37C478.73,-172.51 457.41,-140.97 432,-120.73 424.63,-114.86 415.6,-110.07 407.11,-106.35"/>
<polygon fill="midnightblue" stroke="midnightblue" points="487.7,-194.22 495.76,-201.09 493.74,-190.69 487.7,-194.22"/>
</g>
<!-- Node23&#45;&gt;Node15 -->
<g id="edge41" class="edge">
<title>Node23&#45;&gt;Node15</title>
<path fill="none" stroke="midnightblue" d="M485.57,-193.72C472.61,-180.57 452.9,-163.09 432,-153.73 384.79,-132.6 324.65,-126.96 286.35,-125.69"/>
<polygon fill="midnightblue" stroke="midnightblue" points="483.29,-196.4 492.72,-201.23 488.36,-191.57 483.29,-196.4"/>
</g>
<!-- Node23&#45;&gt;Node16 -->
<g id="edge40" class="edge">
<title>Node23&#45;&gt;Node16</title>
<path fill="none" stroke="midnightblue" d="M495.93,-191.53C487.41,-162.86 467.56,-108.9 432,-77.73 427.63,-73.9 422.42,-70.82 417.01,-68.35"/>
<polygon fill="midnightblue" stroke="midnightblue" points="492.57,-192.51 498.65,-201.18 499.31,-190.61 492.57,-192.51"/>
</g>
<!-- Node23&#45;&gt;Node17 -->
<g id="edge42" class="edge">
<title>Node23&#45;&gt;Node17</title>
<path fill="none" stroke="midnightblue" d="M494.1,-230.06C487.31,-249.22 476.72,-279.43 468,-305.73 451.28,-356.17 468.79,-381.39 432,-419.73 427.97,-423.93 422.95,-427.2 417.62,-429.75"/>
<polygon fill="midnightblue" stroke="midnightblue" points="497.48,-231.01 497.54,-220.41 490.89,-228.66 497.48,-231.01"/>
</g>
<!-- Node23&#45;&gt;Node18 -->
<g id="edge43" class="edge">
<title>Node23&#45;&gt;Node18</title>
<path fill="none" stroke="midnightblue" d="M463.2,-198.91C445.2,-193.28 424.06,-186.67 407.53,-181.5"/>
<polygon fill="midnightblue" stroke="midnightblue" points="462.23,-202.27 472.82,-201.92 464.32,-195.59 462.23,-202.27"/>
</g>
<!-- Node23&#45;&gt;Node19 -->
<g id="edge46" class="edge">
<title>Node23&#45;&gt;Node19</title>
<path fill="none" stroke="midnightblue" d="M493.42,-229.86C486.12,-248.86 475.15,-278.95 468,-305.73 445.84,-388.77 470.6,-418.94 432,-495.73 422.21,-515.2 403.79,-532.86 391.58,-543.2"/>
<polygon fill="midnightblue" stroke="midnightblue" points="496.78,-230.88 497.15,-220.3 490.26,-228.34 496.78,-230.88"/>
</g>
<!-- Node23&#45;&gt;Node20 -->
<g id="edge47" class="edge">
<title>Node23&#45;&gt;Node20</title>
<path fill="none" stroke="midnightblue" d="M484.12,-227.52C470.86,-239.97 451.44,-256.63 432,-267.73 425.6,-271.38 418.38,-274.54 411.38,-277.18"/>
<polygon fill="midnightblue" stroke="midnightblue" points="486.74,-229.86 491.52,-220.4 481.89,-224.81 486.74,-229.86"/>
</g>
<!-- Node23&#45;&gt;Node21 -->
<g id="edge44" class="edge">
<title>Node23&#45;&gt;Node21</title>
<path fill="none" stroke="midnightblue" d="M462.83,-205.67C424.91,-202.63 366.58,-203.5 325,-229.73 281.14,-257.4 258.47,-320.27 251.18,-344.22"/>
<polygon fill="midnightblue" stroke="midnightblue" points="462.67,-209.17 472.95,-206.62 463.32,-202.2 462.67,-209.17"/>
</g>
<!-- Node23&#45;&gt;Node22 -->
<g id="edge48" class="edge">
<title>Node23&#45;&gt;Node22</title>
<path fill="none" stroke="midnightblue" d="M489.13,-229.3C463.8,-268.91 405.18,-360.58 385.83,-390.84"/>
<polygon fill="midnightblue" stroke="midnightblue" points="492.37,-230.73 494.81,-220.41 486.47,-226.95 492.37,-230.73"/>
</g>
<!-- Node24&#45;&gt;Node9 -->
<g id="edge50" class="edge">
<title>Node24&#45;&gt;Node9</title>
<path fill="none" stroke="midnightblue" d="M484.12,-307.94C470.86,-295.5 451.44,-278.83 432,-267.73 425.6,-264.08 418.38,-260.92 411.38,-258.28"/>
<polygon fill="midnightblue" stroke="midnightblue" points="481.89,-310.65 491.52,-315.06 486.74,-305.61 481.89,-310.65"/>
</g>
<!-- Node24&#45;&gt;Node11 -->
<g id="edge58" class="edge">
<title>Node24&#45;&gt;Node11</title>
<path fill="none" stroke="midnightblue" d="M496,-344.44C485.14,-385.54 458.25,-478.02 432,-495.73 304.49,-581.78 106.86,-448.46 55.2,-410.4"/>
<polygon fill="midnightblue" stroke="midnightblue" points="499.45,-345.09 498.57,-334.53 492.67,-343.34 499.45,-345.09"/>
</g>
<!-- Node24&#45;&gt;Node12 -->
<g id="edge51" class="edge">
<title>Node24&#45;&gt;Node12</title>
<path fill="none" stroke="midnightblue" d="M495.93,-343.93C487.41,-372.6 467.56,-426.56 432,-457.73 426.02,-462.97 418.49,-466.8 411.01,-469.59"/>
<polygon fill="midnightblue" stroke="midnightblue" points="499.31,-344.85 498.65,-334.28 492.57,-342.95 499.31,-344.85"/>
</g>
<!-- Node24&#45;&gt;Node14 -->
<g id="edge52" class="edge">
<title>Node24&#45;&gt;Node14</title>
<path fill="none" stroke="midnightblue" d="M494.28,-305.64C480.48,-266.86 448.81,-180.32 432,-153.73 420.21,-135.08 401.98,-116.94 390.4,-106.3"/>
<polygon fill="midnightblue" stroke="midnightblue" points="491.04,-306.96 497.67,-315.22 497.63,-304.62 491.04,-306.96"/>
</g>
<!-- Node24&#45;&gt;Node15 -->
<g id="edge54" class="edge">
<title>Node24&#45;&gt;Node15</title>
<path fill="none" stroke="midnightblue" d="M457.56,-331.51C419,-335.08 363.02,-333.93 325,-305.73 266.91,-262.64 252.53,-166.65 249.33,-135.61"/>
<polygon fill="midnightblue" stroke="midnightblue" points="458.38,-334.95 467.95,-330.4 457.63,-327.99 458.38,-334.95"/>
</g>
<!-- Node24&#45;&gt;Node16 -->
<g id="edge53" class="edge">
<title>Node24&#45;&gt;Node16</title>
<path fill="none" stroke="midnightblue" d="M493.68,-305.53C486.58,-286.47 475.75,-256.34 468,-229.73 448.58,-163.08 478.2,-129.55 432,-77.73 428.52,-73.82 424.17,-70.72 419.47,-68.25"/>
<polygon fill="midnightblue" stroke="midnightblue" points="490.5,-307 497.3,-315.13 497.05,-304.53 490.5,-307"/>
</g>
<!-- Node24&#45;&gt;Node17 -->
<g id="edge55" class="edge">
<title>Node24&#45;&gt;Node17</title>
<path fill="none" stroke="midnightblue" d="M491.92,-343.26C480.62,-364.53 459.42,-399.1 432,-419.73 426.89,-423.58 420.92,-426.7 414.88,-429.22"/>
<polygon fill="midnightblue" stroke="midnightblue" points="495.08,-344.77 496.52,-334.27 488.85,-341.57 495.08,-344.77"/>
</g>
<!-- Node24&#45;&gt;Node18 -->
<g id="edge56" class="edge">
<title>Node24&#45;&gt;Node18</title>
<path fill="none" stroke="midnightblue" d="M488.7,-306.51C475.35,-287.03 453.09,-255.48 432,-229.73 417.85,-212.45 399.98,-193.62 389.16,-182.51"/>
<polygon fill="midnightblue" stroke="midnightblue" points="485.98,-308.72 494.5,-315.02 491.76,-304.78 485.98,-308.72"/>
</g>
<!-- Node24&#45;&gt;Node19 -->
<g id="edge59" class="edge">
<title>Node24&#45;&gt;Node19</title>
<path fill="none" stroke="midnightblue" d="M499.45,-344.62C495.34,-384.4 480.89,-474.55 432,-528.73 424.41,-537.14 413.3,-542.8 403.24,-546.5"/>
<polygon fill="midnightblue" stroke="midnightblue" points="502.94,-344.88 500.37,-334.61 495.97,-344.24 502.94,-344.88"/>
</g>
<!-- Node24&#45;&gt;Node20 -->
<g id="edge60" class="edge">
<title>Node24&#45;&gt;Node20</title>
<path fill="none" stroke="midnightblue" d="M460.46,-312.05C444.04,-306.92 425.4,-301.09 410.15,-296.32"/>
<polygon fill="midnightblue" stroke="midnightblue" points="459.75,-315.5 470.34,-315.14 461.84,-308.82 459.75,-315.5"/>
</g>
<!-- Node24&#45;&gt;Node21 -->
<g id="edge57" class="edge">
<title>Node24&#45;&gt;Node21</title>
<path fill="none" stroke="midnightblue" d="M457.97,-334.28C449.4,-335.95 440.44,-337.54 432,-338.73 377.57,-346.45 313.44,-350.57 277.22,-352.44"/>
<polygon fill="midnightblue" stroke="midnightblue" points="458.69,-337.71 467.8,-332.3 457.3,-330.85 458.69,-337.71"/>
</g>
<!-- Node24&#45;&gt;Node22 -->
<g id="edge61" class="edge">
<title>Node24&#45;&gt;Node22</title>
<path fill="none" stroke="midnightblue" d="M481.81,-340.98C468.39,-351.89 449.76,-366.15 432,-376.73 422.96,-382.12 412.5,-387.12 403.31,-391.15"/>
<polygon fill="midnightblue" stroke="midnightblue" points="484.34,-343.44 489.82,-334.37 479.88,-338.04 484.34,-343.44"/>
</g>
<!-- Node25&#45;&gt;Node8 -->
<g id="edge64" class="edge">
<title>Node25&#45;&gt;Node8</title>
<path fill="none" stroke="midnightblue" d="M680.77,-248.73C670.31,-248.73 659.33,-248.73 649.37,-248.73"/>
<polygon fill="midnightblue" stroke="midnightblue" points="680.99,-252.23 690.99,-248.73 680.99,-245.23 680.99,-252.23"/>
</g>
<!-- Node25&#45;&gt;Node23 -->
<g id="edge65" class="edge">
<title>Node25&#45;&gt;Node23</title>
<path fill="none" stroke="midnightblue" d="M683.84,-236.48C674.41,-233.99 664.41,-231.58 655,-229.73 612.2,-221.33 561.86,-215.9 531.2,-213.07"/>
<polygon fill="midnightblue" stroke="midnightblue" points="683.22,-239.94 693.78,-239.18 685.05,-233.18 683.22,-239.94"/>
</g>
</g>
</svg>
