<?xml version="1.0" encoding="UTF-8" standalone="no"?>
<!DOCTYPE svg PUBLIC "-//W3C//DTD SVG 1.1//EN"
 "http://www.w3.org/Graphics/SVG/1.1/DTD/svg11.dtd">
<!-- Generated by graphviz version 3.0.0 (20220413.0106)
 -->
<!-- Title: ienabled Pages: 1 -->
<svg width="859pt" height="632pt"
 viewBox="0.00 0.00 859.00 631.87" xmlns="http://www.w3.org/2000/svg" xmlns:xlink="http://www.w3.org/1999/xlink">
<g id="graph0" class="graph" transform="scale(1 1) rotate(0) translate(4 627.87)">
<title>ienabled</title>
<!-- Node1 -->
<g id="node1" class="node">
<title>Node1</title>
<g id="a_node1"><a xlink:title=" ">
<polygon fill="#bfbfbf" stroke="black" points="798,-509.37 798,-528.37 851,-528.37 851,-509.37 798,-509.37"/>
<text text-anchor="middle" x="824.5" y="-516.37" font-family="Helvetica,sans-Serif" font-size="10.00">ienabled</text>
</a>
</g>
</g>
<!-- Node2 -->
<g id="node2" class="node">
<title>Node2</title>
<g id="a_node2"><a xlink:href="pmm_8c.html#a20ccb461126d548299c6c21f157e6668" target="_top" xlink:title=" ">
<polygon fill="none" stroke="black" points="693.5,-566.37 693.5,-585.37 759.5,-585.37 759.5,-566.37 693.5,-566.37"/>
<text text-anchor="middle" x="726.5" y="-573.37" font-family="Helvetica,sans-Serif" font-size="10.00">kalloc_safe</text>
</a>
</g>
</g>
<!-- Node1&#45;&gt;Node2 -->
<g id="edge1" class="edge">
<title>Node1&#45;&gt;Node2</title>
<path fill="none" stroke="midnightblue" d="M799.95,-533.8C788.57,-540.92 774.66,-549.48 762,-556.87 756.69,-559.97 750.84,-563.24 745.5,-566.17"/>
<polygon fill="midnightblue" stroke="midnightblue" points="801.86,-536.73 808.46,-528.45 798.13,-530.81 801.86,-536.73"/>
</g>
<!-- Node4 -->
<g id="node4" class="node">
<title>Node4</title>
<g id="a_node4"><a xlink:href="pmm_8c.html#af2f46f4bce6a599542ce4d462aec9e2f" target="_top" xlink:title=" ">
<polygon fill="none" stroke="black" points="695.5,-528.37 695.5,-547.37 757.5,-547.37 757.5,-528.37 695.5,-528.37"/>
<text text-anchor="middle" x="726.5" y="-535.37" font-family="Helvetica,sans-Serif" font-size="10.00">kfree_safe</text>
</a>
</g>
</g>
<!-- Node1&#45;&gt;Node4 -->
<g id="edge3" class="edge">
<title>Node1&#45;&gt;Node4</title>
<path fill="none" stroke="midnightblue" d="M787.81,-525.93C777.92,-527.89 767.28,-529.99 757.73,-531.88"/>
<polygon fill="midnightblue" stroke="midnightblue" points="788.64,-529.33 797.77,-523.96 787.28,-522.47 788.64,-529.33"/>
</g>
<!-- Node5 -->
<g id="node5" class="node">
<title>Node5</title>
<g id="a_node5"><a xlink:href="os_8c.html#a5f9cb32664e017ca15c49ec66e5342e4" target="_top" xlink:title="cpu start entry">
<polygon fill="none" stroke="black" points="590.5,-500.37 590.5,-519.37 636.5,-519.37 636.5,-500.37 590.5,-500.37"/>
<text text-anchor="middle" x="613.5" y="-507.37" font-family="Helvetica,sans-Serif" font-size="10.00">os_run</text>
</a>
</g>
</g>
<!-- Node1&#45;&gt;Node5 -->
<g id="edge5" class="edge">
<title>Node1&#45;&gt;Node5</title>
<path fill="none" stroke="midnightblue" d="M787.76,-517.33C744.36,-515.46 672.54,-512.37 636.52,-510.82"/>
<polygon fill="midnightblue" stroke="midnightblue" points="787.73,-520.83 797.87,-517.76 788.03,-513.84 787.73,-520.83"/>
</g>
<!-- Node7 -->
<g id="node7" class="node">
<title>Node7</title>
<g id="a_node7"><a xlink:href="spinlock_8c.html#ab213874cda54fdbbeb1bec1e5fa90b28" target="_top" xlink:title="interrupt disable">
<polygon fill="none" stroke="black" points="691,-357.37 691,-376.37 762,-376.37 762,-357.37 691,-357.37"/>
<text text-anchor="middle" x="726.5" y="-364.37" font-family="Helvetica,sans-Serif" font-size="10.00">spin_pushcli</text>
</a>
</g>
</g>
<!-- Node1&#45;&gt;Node7 -->
<g id="edge7" class="edge">
<title>Node1&#45;&gt;Node7</title>
<path fill="none" stroke="midnightblue" d="M812.11,-500.84C791.62,-468.39 749.19,-401.21 733.5,-376.37"/>
<polygon fill="midnightblue" stroke="midnightblue" points="809.2,-502.77 817.49,-509.36 815.11,-499.03 809.2,-502.77"/>
</g>
<!-- Node3 -->
<g id="node3" class="node">
<title>Node3</title>
<g id="a_node3"><a xlink:href="pmm_8c.html#a7ada9deb0ae8705f2cc158b0283aaeb3" target="_top" xlink:title=" ">
<polygon fill="none" stroke="black" points="572,-557.37 572,-576.37 655,-576.37 655,-557.37 572,-557.37"/>
<text text-anchor="middle" x="613.5" y="-564.37" font-family="Helvetica,sans-Serif" font-size="10.00">MODULE_DEF</text>
</a>
</g>
</g>
<!-- Node2&#45;&gt;Node3 -->
<g id="edge2" class="edge">
<title>Node2&#45;&gt;Node3</title>
<path fill="none" stroke="midnightblue" d="M683.29,-572.44C674.09,-571.7 664.38,-570.91 655.24,-570.17"/>
<polygon fill="midnightblue" stroke="midnightblue" points="683.14,-575.94 693.39,-573.26 683.71,-568.97 683.14,-575.94"/>
</g>
<!-- Node4&#45;&gt;Node3 -->
<g id="edge4" class="edge">
<title>Node4&#45;&gt;Node3</title>
<path fill="none" stroke="midnightblue" d="M685.77,-548.25C674.39,-551.22 662.05,-554.44 650.89,-557.36"/>
<polygon fill="midnightblue" stroke="midnightblue" points="686.67,-551.63 695.46,-545.71 684.9,-544.86 686.67,-551.63"/>
</g>
<!-- Node6 -->
<g id="node6" class="node">
<title>Node6</title>
<g id="a_node6"><a xlink:href="os_8c.html#aafec7046aa50c914df86d0d22d4fc1d1" target="_top" xlink:title=" ">
<polygon fill="none" stroke="black" points="206,-604.37 206,-623.37 289,-623.37 289,-604.37 206,-604.37"/>
<text text-anchor="middle" x="247.5" y="-611.37" font-family="Helvetica,sans-Serif" font-size="10.00">MODULE_DEF</text>
</a>
</g>
</g>
<!-- Node5&#45;&gt;Node6 -->
<g id="edge6" class="edge">
<title>Node5&#45;&gt;Node6</title>
<path fill="none" stroke="midnightblue" d="M592.81,-525.95C561.21,-550.61 496.19,-596.7 432,-613.87 384.14,-626.67 326.72,-623.92 289.01,-619.79"/>
<polygon fill="midnightblue" stroke="midnightblue" points="595.15,-528.56 600.81,-519.6 590.8,-523.08 595.15,-528.56"/>
</g>
<!-- Node8 -->
<g id="node8" class="node">
<title>Node8</title>
<g id="a_node8"><a xlink:href="spinlock_8c.html#ad4be0d674a7ca4dc90c2dbf8b34562cc" target="_top" xlink:title="check current cpu has the lock">
<polygon fill="none" stroke="black" points="578,-262.37 578,-281.37 649,-281.37 649,-262.37 578,-262.37"/>
<text text-anchor="middle" x="613.5" y="-269.37" font-family="Helvetica,sans-Serif" font-size="10.00">spin_holding</text>
</a>
</g>
</g>
<!-- Node7&#45;&gt;Node8 -->
<g id="edge8" class="edge">
<title>Node7&#45;&gt;Node8</title>
<path fill="none" stroke="midnightblue" d="M706.21,-350.36C682.95,-330.45 644.62,-297.65 625.73,-281.48"/>
<polygon fill="midnightblue" stroke="midnightblue" points="704.17,-353.21 714.04,-357.06 708.72,-347.9 704.17,-353.21"/>
</g>
<!-- Node23 -->
<g id="node23" class="node">
<title>Node23</title>
<g id="a_node23"><a xlink:href="spinlock_8c.html#ab6f3c37ec37006951feccc3c05387cce" target="_top" xlink:title="acquire spinlock to current cpu">
<polygon fill="none" stroke="black" points="473,-357.37 473,-376.37 531,-376.37 531,-357.37 473,-357.37"/>
<text text-anchor="middle" x="502" y="-364.37" font-family="Helvetica,sans-Serif" font-size="10.00">spin_lock</text>
</a>
</g>
</g>
<!-- Node7&#45;&gt;Node23 -->
<g id="edge62" class="edge">
<title>Node7&#45;&gt;Node23</title>
<path fill="none" stroke="midnightblue" d="M680.45,-366.87C635.8,-366.87 568.78,-366.87 531.18,-366.87"/>
<polygon fill="midnightblue" stroke="midnightblue" points="680.73,-370.37 690.73,-366.87 680.73,-363.37 680.73,-370.37"/>
</g>
<!-- Node9 -->
<g id="node9" class="node">
<title>Node9</title>
<g id="a_node9"><a xlink:href="kmt_8c.html#af9c485ce0d89d6624e6e80e31d8ed207" target="_top" xlink:title="handler: save context to current task">
<polygon fill="none" stroke="black" points="330.5,-205.37 330.5,-224.37 426.5,-224.37 426.5,-205.37 330.5,-205.37"/>
<text text-anchor="middle" x="378.5" y="-212.37" font-family="Helvetica,sans-Serif" font-size="10.00">kmt_context_save</text>
</a>
</g>
</g>
<!-- Node8&#45;&gt;Node9 -->
<g id="edge9" class="edge">
<title>Node8&#45;&gt;Node9</title>
<path fill="none" stroke="midnightblue" d="M567.92,-260.96C524.72,-250.39 459.85,-234.52 418.61,-224.43"/>
<polygon fill="midnightblue" stroke="midnightblue" points="567.32,-264.42 577.87,-263.39 568.99,-257.62 567.32,-264.42"/>
</g>
<!-- Node12 -->
<g id="node12" class="node">
<title>Node12</title>
<g id="a_node12"><a xlink:href="kmt_8c.html#a5ddb8743298012e84cf9cb5faf22212b" target="_top" xlink:title="create thread">
<polygon fill="none" stroke="black" points="346,-357.37 346,-376.37 411,-376.37 411,-357.37 346,-357.37"/>
<text text-anchor="middle" x="378.5" y="-364.37" font-family="Helvetica,sans-Serif" font-size="10.00">kmt_create</text>
</a>
</g>
</g>
<!-- Node8&#45;&gt;Node12 -->
<g id="edge12" class="edge">
<title>Node8&#45;&gt;Node12</title>
<path fill="none" stroke="midnightblue" d="M585.6,-286.15C571.09,-293.62 552.77,-302.67 536,-309.87 492.42,-328.56 440.45,-346.69 408.72,-357.32"/>
<polygon fill="midnightblue" stroke="midnightblue" points="587.27,-289.23 594.53,-281.51 584.04,-283.01 587.27,-289.23"/>
</g>
<!-- Node13 -->
<g id="node13" class="node">
<title>Node13</title>
<g id="a_node13"><a xlink:href="kmt_8c.html#ad3fbc643b7b6092120c5152b4c890354" target="_top" xlink:title="handler: handle program errors">
<polygon fill="none" stroke="black" points="218.5,-91.37 218.5,-110.37 276.5,-110.37 276.5,-91.37 218.5,-91.37"/>
<text text-anchor="middle" x="247.5" y="-98.37" font-family="Helvetica,sans-Serif" font-size="10.00">kmt_error</text>
</a>
</g>
</g>
<!-- Node8&#45;&gt;Node13 -->
<g id="edge14" class="edge">
<title>Node8&#45;&gt;Node13</title>
<path fill="none" stroke="midnightblue" d="M612.04,-251.81C609.87,-207.5 598.11,-100.96 536,-46.87 464.97,15 412.32,8.46 325,-26.87 292.45,-40.03 266.08,-74.42 254.64,-91.27"/>
<polygon fill="midnightblue" stroke="midnightblue" points="608.55,-252.02 612.42,-261.89 615.54,-251.76 608.55,-252.02"/>
</g>
<!-- Node14 -->
<g id="node14" class="node">
<title>Node14</title>
<g id="a_node14"><a xlink:href="kmt_8c.html#a13cbe2d83bf10c3302124613fa18f8a4" target="_top" xlink:title="print all tasks notice: do not garantee concurrency safety">
<polygon fill="none" stroke="black" points="328,-91.37 328,-110.37 429,-110.37 429,-91.37 328,-91.37"/>
<text text-anchor="middle" x="378.5" y="-98.37" font-family="Helvetica,sans-Serif" font-size="10.00">kmt_print_all_tasks</text>
</a>
</g>
</g>
<!-- Node8&#45;&gt;Node14 -->
<g id="edge16" class="edge">
<title>Node8&#45;&gt;Node14</title>
<path fill="none" stroke="midnightblue" d="M600.14,-254.08C586.11,-234.74 561.82,-203.7 536,-181.87 494.91,-147.12 480.63,-142.91 432,-119.87 424.73,-116.42 416.65,-113.21 409.06,-110.45"/>
<polygon fill="midnightblue" stroke="midnightblue" points="597.34,-256.18 605.99,-262.3 603.04,-252.12 597.34,-256.18"/>
</g>
<!-- Node15 -->
<g id="node15" class="node">
<title>Node15</title>
<g id="a_node15"><a xlink:href="kmt_8c.html#ad4d70b4093829da1c0b0631abdff7747" target="_top" xlink:title="handler: schedule next task to run Notice: this should be the only handler which returns real Context">
<polygon fill="none" stroke="black" points="209,-129.37 209,-148.37 286,-148.37 286,-129.37 209,-129.37"/>
<text text-anchor="middle" x="247.5" y="-136.37" font-family="Helvetica,sans-Serif" font-size="10.00">kmt_schedule</text>
</a>
</g>
</g>
<!-- Node8&#45;&gt;Node15 -->
<g id="edge23" class="edge">
<title>Node8&#45;&gt;Node15</title>
<path fill="none" stroke="midnightblue" d="M609.41,-251.88C602.65,-214.63 583.22,-134.08 536,-86.87 500.63,-51.5 481.06,-53.61 432,-43.87 385.36,-34.6 365.18,-18.44 325,-43.87 293.42,-63.85 315.48,-93.49 289,-119.87 285.26,-123.59 280.65,-126.68 275.89,-129.21"/>
<polygon fill="midnightblue" stroke="midnightblue" points="606,-252.69 611.11,-261.97 612.9,-251.52 606,-252.69"/>
</g>
<!-- Node16 -->
<g id="node16" class="node">
<title>Node16</title>
<g id="a_node16"><a xlink:href="kmt_8c.html#ab4e9dee1880e455874374b44b5785bc3" target="_top" xlink:title="print all current_tasks notice: do not garantee concurrency safety">
<polygon fill="none" stroke="black" points="325,-129.37 325,-148.37 432,-148.37 432,-129.37 325,-129.37"/>
<text text-anchor="middle" x="378.5" y="-136.37" font-family="Helvetica,sans-Serif" font-size="10.00">kmt_print_cpu_tasks</text>
</a>
</g>
</g>
<!-- Node8&#45;&gt;Node16 -->
<g id="edge20" class="edge">
<title>Node8&#45;&gt;Node16</title>
<path fill="none" stroke="midnightblue" d="M589.15,-256.58C555.22,-234.64 489.99,-193.5 432,-162.87 422.34,-157.76 411.39,-152.66 402,-148.47"/>
<polygon fill="midnightblue" stroke="midnightblue" points="587.56,-259.72 597.86,-262.23 591.38,-253.85 587.56,-259.72"/>
</g>
<!-- Node17 -->
<g id="node17" class="node">
<title>Node17</title>
<g id="a_node17"><a xlink:href="kmt_8c.html#a47d8887c87041abd5ea3148232b65c93" target="_top" xlink:title="tear down a thread">
<polygon fill="none" stroke="black" points="339.5,-243.37 339.5,-262.37 417.5,-262.37 417.5,-243.37 339.5,-243.37"/>
<text text-anchor="middle" x="378.5" y="-250.37" font-family="Helvetica,sans-Serif" font-size="10.00">kmt_teardown</text>
</a>
</g>
</g>
<!-- Node8&#45;&gt;Node17 -->
<g id="edge24" class="edge">
<title>Node8&#45;&gt;Node17</title>
<path fill="none" stroke="midnightblue" d="M567.86,-268.23C524.38,-264.68 458.99,-259.35 417.81,-255.99"/>
<polygon fill="midnightblue" stroke="midnightblue" points="567.62,-271.72 577.87,-269.04 568.19,-264.74 567.62,-271.72"/>
</g>
<!-- Node18 -->
<g id="node18" class="node">
<title>Node18</title>
<g id="a_node18"><a xlink:href="kmt_8c.html#a75ea8dbba16d64a343a45962bd593930" target="_top" xlink:title="handler: handle yield interrupt (0x81)">
<polygon fill="none" stroke="black" points="349.5,-53.37 349.5,-72.37 407.5,-72.37 407.5,-53.37 349.5,-53.37"/>
<text text-anchor="middle" x="378.5" y="-60.37" font-family="Helvetica,sans-Serif" font-size="10.00">kmt_yield</text>
</a>
</g>
</g>
<!-- Node8&#45;&gt;Node18 -->
<g id="edge26" class="edge">
<title>Node8&#45;&gt;Node18</title>
<path fill="none" stroke="midnightblue" d="M606.21,-252.69C595.79,-223.48 572.39,-167.58 536,-132.87 499.17,-97.74 441.72,-78.31 407.62,-69.27"/>
<polygon fill="midnightblue" stroke="midnightblue" points="602.9,-253.84 609.47,-262.16 609.52,-251.56 602.9,-253.84"/>
</g>
<!-- Node19 -->
<g id="node19" class="node">
<title>Node19</title>
<g id="a_node19"><a xlink:href="os_8c.html#a2be1c9facb49d4439f41b1537d0f3ef8" target="_top" xlink:title="System trap entry.">
<polygon fill="none" stroke="black" points="354,-585.37 354,-604.37 403,-604.37 403,-585.37 354,-585.37"/>
<text text-anchor="middle" x="378.5" y="-592.37" font-family="Helvetica,sans-Serif" font-size="10.00">os_trap</text>
</a>
</g>
</g>
<!-- Node8&#45;&gt;Node19 -->
<g id="edge28" class="edge">
<title>Node8&#45;&gt;Node19</title>
<path fill="none" stroke="midnightblue" d="M606.89,-291.71C596.38,-326.96 571.54,-402.06 536,-457.87 499.34,-515.44 487.24,-530.78 432,-570.87 423.24,-577.22 412.53,-582.49 403.07,-586.45"/>
<polygon fill="midnightblue" stroke="midnightblue" points="610.36,-292.31 609.79,-281.73 603.64,-290.36 610.36,-292.31"/>
</g>
<!-- Node20 -->
<g id="node20" class="node">
<title>Node20</title>
<g id="a_node20"><a xlink:href="sem_8c.html#ad994e433f3a6bf8626272437cb54c114" target="_top" xlink:title="wake up a task form tasks waiting for the semaphore instance">
<polygon fill="none" stroke="black" points="345.5,-509.37 345.5,-528.37 411.5,-528.37 411.5,-509.37 345.5,-509.37"/>
<text text-anchor="middle" x="378.5" y="-516.37" font-family="Helvetica,sans-Serif" font-size="10.00">sem_signal</text>
</a>
</g>
</g>
<!-- Node8&#45;&gt;Node20 -->
<g id="edge30" class="edge">
<title>Node8&#45;&gt;Node20</title>
<path fill="none" stroke="midnightblue" d="M605.87,-291.33C594.98,-321.07 570.99,-378.44 536,-416.87 496.15,-460.63 433.58,-493.83 400.94,-509.29"/>
<polygon fill="midnightblue" stroke="midnightblue" points="609.23,-292.3 609.28,-281.7 602.64,-289.96 609.23,-292.3"/>
</g>
<!-- Node22 -->
<g id="node22" class="node">
<title>Node22</title>
<g id="a_node22"><a xlink:href="sem_8c.html#a85ca67864bb0af1966a5c2463bd16fe8" target="_top" xlink:title="release semaphore(Mutex) and sleep task holding the sem">
<polygon fill="none" stroke="black" points="349,-433.37 349,-452.37 408,-452.37 408,-433.37 349,-433.37"/>
<text text-anchor="middle" x="378.5" y="-440.37" font-family="Helvetica,sans-Serif" font-size="10.00">sem_wait</text>
</a>
</g>
</g>
<!-- Node8&#45;&gt;Node22 -->
<g id="edge33" class="edge">
<title>Node8&#45;&gt;Node22</title>
<path fill="none" stroke="midnightblue" d="M604.39,-290.82C592.74,-315.93 568.98,-360.03 536,-385.87 497.53,-416 441.65,-431.19 408.11,-438.03"/>
<polygon fill="midnightblue" stroke="midnightblue" points="607.61,-292.18 608.51,-281.63 601.23,-289.32 607.61,-292.18"/>
</g>
<!-- Node8&#45;&gt;Node23 -->
<g id="edge36" class="edge">
<title>Node8&#45;&gt;Node23</title>
<path fill="none" stroke="midnightblue" d="M595.79,-288.46C580.64,-303.25 557.45,-325.22 536,-342.87 529.98,-347.82 523.04,-352.95 517.09,-357.18"/>
<polygon fill="midnightblue" stroke="midnightblue" points="598.26,-290.95 602.94,-281.45 593.35,-285.96 598.26,-290.95"/>
</g>
<!-- Node24 -->
<g id="node24" class="node">
<title>Node24</title>
<g id="a_node24"><a xlink:href="spinlock_8c.html#acdf118d615a4bc4064e991add9a80995" target="_top" xlink:title="release spinlock from current cpu">
<polygon fill="none" stroke="black" points="468,-281.37 468,-300.37 536,-300.37 536,-281.37 468,-281.37"/>
<text text-anchor="middle" x="502" y="-288.37" font-family="Helvetica,sans-Serif" font-size="10.00">spin_unlock</text>
</a>
</g>
</g>
<!-- Node8&#45;&gt;Node24 -->
<g id="edge49" class="edge">
<title>Node8&#45;&gt;Node24</title>
<path fill="none" stroke="midnightblue" d="M567.93,-279.6C557.36,-281.43 546.27,-283.36 536.3,-285.09"/>
<polygon fill="midnightblue" stroke="midnightblue" points="568.6,-283.04 577.85,-277.88 567.4,-276.14 568.6,-283.04"/>
</g>
<!-- Node10 -->
<g id="node10" class="node">
<title>Node10</title>
<g id="a_node10"><a xlink:href="kmt_8c.html#a0c68a294cecc4be7cb4b495f15b883a0" target="_top" xlink:title="initialize kmt module">
<polygon fill="none" stroke="black" points="119,-129.37 119,-148.37 170,-148.37 170,-129.37 119,-129.37"/>
<text text-anchor="middle" x="144.5" y="-136.37" font-family="Helvetica,sans-Serif" font-size="10.00">kmt_init</text>
</a>
</g>
</g>
<!-- Node9&#45;&gt;Node10 -->
<g id="edge10" class="edge">
<title>Node9&#45;&gt;Node10</title>
<path fill="none" stroke="midnightblue" d="M338.37,-202.05C290.31,-186.31 210.23,-160.07 170.06,-146.91"/>
<polygon fill="midnightblue" stroke="midnightblue" points="337.52,-205.45 348.12,-205.24 339.7,-198.8 337.52,-205.45"/>
</g>
<!-- Node11 -->
<g id="node11" class="node">
<title>Node11</title>
<g id="a_node11"><a xlink:href="kmt_8c.html#af360ef0d98ca30e481cc58ea3695fd58" target="_top" xlink:title=" ">
<polygon fill="none" stroke="black" points="0,-357.37 0,-376.37 83,-376.37 83,-357.37 0,-357.37"/>
<text text-anchor="middle" x="41.5" y="-364.37" font-family="Helvetica,sans-Serif" font-size="10.00">MODULE_DEF</text>
</a>
</g>
</g>
<!-- Node10&#45;&gt;Node11 -->
<g id="edge11" class="edge">
<title>Node10&#45;&gt;Node11</title>
<path fill="none" stroke="midnightblue" d="M135.21,-157.58C114.68,-203.92 62.03,-322.78 46.73,-357.32"/>
<polygon fill="midnightblue" stroke="midnightblue" points="138.44,-158.93 139.29,-148.37 132.04,-156.1 138.44,-158.93"/>
</g>
<!-- Node12&#45;&gt;Node11 -->
<g id="edge13" class="edge">
<title>Node12&#45;&gt;Node11</title>
<path fill="none" stroke="midnightblue" d="M335.74,-366.87C271.02,-366.87 147.29,-366.87 83.21,-366.87"/>
<polygon fill="midnightblue" stroke="midnightblue" points="335.98,-370.37 345.98,-366.87 335.98,-363.37 335.98,-370.37"/>
</g>
<!-- Node13&#45;&gt;Node10 -->
<g id="edge15" class="edge">
<title>Node13&#45;&gt;Node10</title>
<path fill="none" stroke="midnightblue" d="M211.49,-114.04C197.91,-119.15 182.68,-124.88 170.28,-129.54"/>
<polygon fill="midnightblue" stroke="midnightblue" points="212.89,-117.25 221.01,-110.46 210.42,-110.7 212.89,-117.25"/>
</g>
<!-- Node14&#45;&gt;Node13 -->
<g id="edge17" class="edge">
<title>Node14&#45;&gt;Node13</title>
<path fill="none" stroke="midnightblue" d="M317.7,-100.87C303.44,-100.87 288.86,-100.87 276.79,-100.87"/>
<polygon fill="midnightblue" stroke="midnightblue" points="317.99,-104.37 327.99,-100.87 317.99,-97.37 317.99,-104.37"/>
</g>
<!-- Node14&#45;&gt;Node15 -->
<g id="edge18" class="edge">
<title>Node14&#45;&gt;Node15</title>
<path fill="none" stroke="midnightblue" d="M334.95,-113.4C317.4,-118.57 297.39,-124.47 281.04,-129.28"/>
<polygon fill="midnightblue" stroke="midnightblue" points="336.34,-116.64 344.95,-110.46 334.37,-109.92 336.34,-116.64"/>
</g>
<!-- Node15&#45;&gt;Node10 -->
<g id="edge19" class="edge">
<title>Node15&#45;&gt;Node10</title>
<path fill="none" stroke="midnightblue" d="M198.74,-138.87C188.89,-138.87 178.89,-138.87 170.27,-138.87"/>
<polygon fill="midnightblue" stroke="midnightblue" points="198.89,-142.37 208.89,-138.87 198.89,-135.37 198.89,-142.37"/>
</g>
<!-- Node16&#45;&gt;Node13 -->
<g id="edge21" class="edge">
<title>Node16&#45;&gt;Node13</title>
<path fill="none" stroke="midnightblue" d="M335.22,-126.41C316,-120.75 293.79,-114.21 276.66,-109.16"/>
<polygon fill="midnightblue" stroke="midnightblue" points="334.37,-129.81 344.95,-129.28 336.34,-123.09 334.37,-129.81"/>
</g>
<!-- Node16&#45;&gt;Node15 -->
<g id="edge22" class="edge">
<title>Node16&#45;&gt;Node15</title>
<path fill="none" stroke="midnightblue" d="M314.56,-138.87C304.81,-138.87 295.02,-138.87 286.07,-138.87"/>
<polygon fill="midnightblue" stroke="midnightblue" points="314.66,-142.37 324.66,-138.87 314.66,-135.37 314.66,-142.37"/>
</g>
<!-- Node17&#45;&gt;Node11 -->
<g id="edge25" class="edge">
<title>Node17&#45;&gt;Node11</title>
<path fill="none" stroke="midnightblue" d="M329.01,-246.91C274.67,-242.51 185.5,-242.3 119,-276.87 83.52,-295.31 57.71,-337.88 47.42,-357.11"/>
<polygon fill="midnightblue" stroke="midnightblue" points="328.79,-250.4 339.06,-247.8 329.41,-243.43 328.79,-250.4"/>
</g>
<!-- Node18&#45;&gt;Node10 -->
<g id="edge27" class="edge">
<title>Node18&#45;&gt;Node10</title>
<path fill="none" stroke="midnightblue" d="M339.23,-60.33C303.21,-59.47 248.57,-62.19 206,-81.87 182.68,-92.64 162.54,-115.99 152.43,-129.22"/>
<polygon fill="midnightblue" stroke="midnightblue" points="339.22,-63.83 349.33,-60.68 339.46,-56.84 339.22,-63.83"/>
</g>
<!-- Node19&#45;&gt;Node6 -->
<g id="edge29" class="edge">
<title>Node19&#45;&gt;Node6</title>
<path fill="none" stroke="midnightblue" d="M343.48,-599.88C326.85,-602.33 306.7,-605.29 289.25,-607.86"/>
<polygon fill="midnightblue" stroke="midnightblue" points="344.46,-603.27 353.84,-598.35 343.44,-596.35 344.46,-603.27"/>
</g>
<!-- Node20&#45;&gt;Node11 -->
<g id="edge32" class="edge">
<title>Node20&#45;&gt;Node11</title>
<path fill="none" stroke="midnightblue" d="M335.17,-517.28C299.46,-514.66 247.66,-507.79 206,-489.87 139.43,-461.23 75.13,-400.13 51.76,-376.49"/>
<polygon fill="midnightblue" stroke="midnightblue" points="335.04,-520.78 345.25,-517.94 335.49,-513.8 335.04,-520.78"/>
</g>
<!-- Node21 -->
<g id="node21" class="node">
<title>Node21</title>
<g id="a_node21"><a xlink:href="kernel_8h.html#a7ef2d722f9c7f8acc1801144a5188825" target="_top" xlink:title=" ">
<polygon fill="none" stroke="black" points="218,-461.37 218,-480.37 277,-480.37 277,-461.37 218,-461.37"/>
<text text-anchor="middle" x="247.5" y="-468.37" font-family="Helvetica,sans-Serif" font-size="10.00">MODULE</text>
</a>
</g>
</g>
<!-- Node20&#45;&gt;Node21 -->
<g id="edge31" class="edge">
<title>Node20&#45;&gt;Node21</title>
<path fill="none" stroke="midnightblue" d="M342.26,-505.75C320.76,-497.75 293.75,-487.7 274.25,-480.45"/>
<polygon fill="midnightblue" stroke="midnightblue" points="341.11,-509.06 351.7,-509.27 343.55,-502.5 341.11,-509.06"/>
</g>
<!-- Node22&#45;&gt;Node11 -->
<g id="edge35" class="edge">
<title>Node22&#45;&gt;Node11</title>
<path fill="none" stroke="midnightblue" d="M338.88,-434.11C275.04,-419.62 148.08,-390.82 83.01,-376.06"/>
<polygon fill="midnightblue" stroke="midnightblue" points="338.41,-437.59 348.94,-436.39 339.96,-430.76 338.41,-437.59"/>
</g>
<!-- Node22&#45;&gt;Node21 -->
<g id="edge34" class="edge">
<title>Node22&#45;&gt;Node21</title>
<path fill="none" stroke="midnightblue" d="M338.89,-451.25C319.03,-455.56 295.24,-460.72 277.05,-464.67"/>
<polygon fill="midnightblue" stroke="midnightblue" points="339.84,-454.62 348.87,-449.08 338.36,-447.78 339.84,-454.62"/>
</g>
<!-- Node23&#45;&gt;Node9 -->
<g id="edge37" class="edge">
<title>Node23&#45;&gt;Node9</title>
<path fill="none" stroke="midnightblue" d="M489.9,-348.58C483.31,-337.51 474.91,-323.02 468,-309.87 450.62,-276.78 459.66,-259.01 432,-233.87 427.77,-230.02 422.7,-226.94 417.4,-224.47"/>
<polygon fill="midnightblue" stroke="midnightblue" points="487,-350.55 495.15,-357.32 493,-346.95 487,-350.55"/>
</g>
<!-- Node23&#45;&gt;Node11 -->
<g id="edge45" class="edge">
<title>Node23&#45;&gt;Node11</title>
<path fill="none" stroke="midnightblue" d="M493.61,-385.97C476.5,-430.11 435.36,-535.6 432,-537.87 313.84,-617.6 227.62,-560.18 119,-467.87 86.32,-440.09 59.04,-396.03 47.89,-376.61"/>
<polygon fill="midnightblue" stroke="midnightblue" points="496.97,-386.99 497.32,-376.4 490.45,-384.46 496.97,-386.99"/>
</g>
<!-- Node23&#45;&gt;Node12 -->
<g id="edge38" class="edge">
<title>Node23&#45;&gt;Node12</title>
<path fill="none" stroke="midnightblue" d="M462.43,-366.87C445.99,-366.87 427.02,-366.87 411.38,-366.87"/>
<polygon fill="midnightblue" stroke="midnightblue" points="462.82,-370.37 472.82,-366.87 462.82,-363.37 462.82,-370.37"/>
</g>
<!-- Node23&#45;&gt;Node14 -->
<g id="edge39" class="edge">
<title>Node23&#45;&gt;Node14</title>
<path fill="none" stroke="midnightblue" d="M488.39,-348.75C481.4,-337.92 473.12,-323.63 468,-309.87 438.04,-229.31 487.72,-185.3 432,-119.87 428.67,-115.96 424.47,-112.85 419.9,-110.38"/>
<polygon fill="midnightblue" stroke="midnightblue" points="485.62,-350.91 494.08,-357.28 491.44,-347.02 485.62,-350.91"/>
</g>
<!-- Node23&#45;&gt;Node15 -->
<g id="edge41" class="edge">
<title>Node23&#45;&gt;Node15</title>
<path fill="none" stroke="midnightblue" d="M463.42,-379.18C453.33,-381.94 442.34,-384.47 432,-385.87 384.87,-392.24 363.28,-414.08 325,-385.87 284.71,-356.17 256.56,-190.79 249.98,-148.64"/>
<polygon fill="midnightblue" stroke="midnightblue" points="464.52,-382.5 473.16,-376.37 462.58,-375.78 464.52,-382.5"/>
</g>
<!-- Node23&#45;&gt;Node16 -->
<g id="edge40" class="edge">
<title>Node23&#45;&gt;Node16</title>
<path fill="none" stroke="midnightblue" d="M488.99,-348.51C482.21,-337.6 473.92,-323.3 468,-309.87 446.56,-261.25 458.64,-241.84 432,-195.87 421.07,-177.01 402.95,-159.19 391.12,-148.65"/>
<polygon fill="midnightblue" stroke="midnightblue" points="486.15,-350.57 494.47,-357.13 492.06,-346.81 486.15,-350.57"/>
</g>
<!-- Node23&#45;&gt;Node17 -->
<g id="edge42" class="edge">
<title>Node23&#45;&gt;Node17</title>
<path fill="none" stroke="midnightblue" d="M483.06,-350.04C457.26,-325.83 410.52,-281.98 389.83,-262.56"/>
<polygon fill="midnightblue" stroke="midnightblue" points="480.95,-352.86 490.64,-357.15 485.74,-347.75 480.95,-352.86"/>
</g>
<!-- Node23&#45;&gt;Node18 -->
<g id="edge43" class="edge">
<title>Node23&#45;&gt;Node18</title>
<path fill="none" stroke="midnightblue" d="M488.23,-348.81C481.19,-338 472.91,-323.7 468,-309.87 433.72,-213.17 497.31,-160.98 432,-81.87 425.89,-74.47 416.66,-69.95 407.63,-67.19"/>
<polygon fill="midnightblue" stroke="midnightblue" points="485.48,-350.99 493.98,-357.32 491.28,-347.07 485.48,-350.99"/>
</g>
<!-- Node23&#45;&gt;Node19 -->
<g id="edge46" class="edge">
<title>Node23&#45;&gt;Node19</title>
<path fill="none" stroke="midnightblue" d="M499.45,-386.76C495.34,-426.53 480.89,-516.69 432,-570.87 424.41,-579.27 413.3,-584.94 403.24,-588.64"/>
<polygon fill="midnightblue" stroke="midnightblue" points="502.94,-387.02 500.37,-376.74 495.97,-386.38 502.94,-387.02"/>
</g>
<!-- Node23&#45;&gt;Node20 -->
<g id="edge47" class="edge">
<title>Node23&#45;&gt;Node20</title>
<path fill="none" stroke="midnightblue" d="M495.01,-386.16C485.63,-413.59 465.02,-463.94 432,-494.87 425.49,-500.96 417.16,-505.72 409.06,-509.34"/>
<polygon fill="midnightblue" stroke="midnightblue" points="498.37,-387.14 498.16,-376.55 491.72,-384.96 498.37,-387.14"/>
</g>
<!-- Node23&#45;&gt;Node21 -->
<g id="edge44" class="edge">
<title>Node23&#45;&gt;Node21</title>
<path fill="none" stroke="midnightblue" d="M493.34,-385.91C483.11,-408.54 462.63,-445.3 432,-461.87 382.9,-488.42 315.18,-482.88 277.24,-476.71"/>
<polygon fill="midnightblue" stroke="midnightblue" points="496.6,-387.2 497.32,-376.63 490.16,-384.44 496.6,-387.2"/>
</g>
<!-- Node23&#45;&gt;Node22 -->
<g id="edge48" class="edge">
<title>Node23&#45;&gt;Node22</title>
<path fill="none" stroke="midnightblue" d="M481.81,-383.12C468.39,-394.03 449.76,-408.29 432,-418.87 422.96,-424.25 412.5,-429.26 403.31,-433.29"/>
<polygon fill="midnightblue" stroke="midnightblue" points="484.34,-385.57 489.82,-376.5 479.88,-380.18 484.34,-385.57"/>
</g>
<!-- Node24&#45;&gt;Node9 -->
<g id="edge50" class="edge">
<title>Node24&#45;&gt;Node9</title>
<path fill="none" stroke="midnightblue" d="M484.12,-274.08C470.86,-261.63 451.44,-244.97 432,-233.87 425.6,-230.21 418.38,-227.06 411.38,-224.42"/>
<polygon fill="midnightblue" stroke="midnightblue" points="481.89,-276.79 491.52,-281.2 486.74,-271.74 481.89,-276.79"/>
</g>
<!-- Node24&#45;&gt;Node11 -->
<g id="edge58" class="edge">
<title>Node24&#45;&gt;Node11</title>
<path fill="none" stroke="midnightblue" d="M457.67,-292.66C421.93,-294.54 369.98,-298.17 325,-304.87 235.35,-318.21 131.68,-343.56 78.33,-357.35"/>
<polygon fill="midnightblue" stroke="midnightblue" points="457.95,-296.15 467.76,-292.16 457.6,-289.16 457.95,-296.15"/>
</g>
<!-- Node24&#45;&gt;Node12 -->
<g id="edge51" class="edge">
<title>Node24&#45;&gt;Node12</title>
<path fill="none" stroke="midnightblue" d="M479.09,-306.65C475.38,-309.37 471.57,-312.18 468,-314.87 451.8,-327.05 449.33,-332.36 432,-342.87 423,-348.32 412.55,-353.34 403.36,-357.36"/>
<polygon fill="midnightblue" stroke="midnightblue" points="481.41,-309.29 487.44,-300.58 477.29,-303.63 481.41,-309.29"/>
</g>
<!-- Node24&#45;&gt;Node14 -->
<g id="edge52" class="edge">
<title>Node24&#45;&gt;Node14</title>
<path fill="none" stroke="midnightblue" d="M498.37,-271.27C492.65,-236.14 475.87,-162.18 432,-119.87 427.95,-115.96 423.05,-112.85 417.87,-110.38"/>
<polygon fill="midnightblue" stroke="midnightblue" points="494.92,-271.85 499.86,-281.22 501.84,-270.81 494.92,-271.85"/>
</g>
<!-- Node24&#45;&gt;Node15 -->
<g id="edge54" class="edge">
<title>Node24&#45;&gt;Node15</title>
<path fill="none" stroke="midnightblue" d="M492.08,-272.11C480.94,-250.64 459.89,-215.86 432,-195.87 419.73,-187.07 333.08,-162.22 283.36,-148.41"/>
<polygon fill="midnightblue" stroke="midnightblue" points="489.02,-273.82 496.62,-281.2 495.28,-270.69 489.02,-273.82"/>
</g>
<!-- Node24&#45;&gt;Node16 -->
<g id="edge53" class="edge">
<title>Node24&#45;&gt;Node16</title>
<path fill="none" stroke="midnightblue" d="M495.01,-271.57C485.63,-244.15 465.02,-193.79 432,-162.87 425.49,-156.77 417.16,-152.01 409.06,-148.4"/>
<polygon fill="midnightblue" stroke="midnightblue" points="491.72,-272.77 498.16,-281.18 498.37,-270.59 491.72,-272.77"/>
</g>
<!-- Node24&#45;&gt;Node17 -->
<g id="edge55" class="edge">
<title>Node24&#45;&gt;Node17</title>
<path fill="none" stroke="midnightblue" d="M460.46,-278.19C444.04,-273.05 425.4,-267.22 410.15,-262.45"/>
<polygon fill="midnightblue" stroke="midnightblue" points="459.75,-281.63 470.34,-281.28 461.84,-274.95 459.75,-281.63"/>
</g>
<!-- Node24&#45;&gt;Node18 -->
<g id="edge56" class="edge">
<title>Node24&#45;&gt;Node18</title>
<path fill="none" stroke="midnightblue" d="M500.03,-270.98C496.98,-230.05 484.34,-135.71 432,-81.87 425.45,-75.12 416.32,-70.76 407.52,-67.95"/>
<polygon fill="midnightblue" stroke="midnightblue" points="496.54,-271.27 500.66,-281.03 503.53,-270.83 496.54,-271.27"/>
</g>
<!-- Node24&#45;&gt;Node19 -->
<g id="edge59" class="edge">
<title>Node24&#45;&gt;Node19</title>
<path fill="none" stroke="midnightblue" d="M488.39,-308.98C481.4,-319.81 473.12,-334.11 468,-347.87 438.04,-428.42 470.6,-461.08 432,-537.87 422.21,-557.34 403.79,-574.99 391.58,-585.33"/>
<polygon fill="midnightblue" stroke="midnightblue" points="491.44,-310.71 494.08,-300.45 485.62,-306.82 491.44,-310.71"/>
</g>
<!-- Node24&#45;&gt;Node20 -->
<g id="edge60" class="edge">
<title>Node24&#45;&gt;Node20</title>
<path fill="none" stroke="midnightblue" d="M488.99,-309.22C482.21,-320.14 473.92,-334.43 468,-347.87 446.56,-396.48 458.64,-415.89 432,-461.87 421.07,-480.73 402.95,-498.54 391.12,-509.08"/>
<polygon fill="midnightblue" stroke="midnightblue" points="492.06,-310.92 494.47,-300.61 486.15,-307.17 492.06,-310.92"/>
</g>
<!-- Node24&#45;&gt;Node21 -->
<g id="edge57" class="edge">
<title>Node24&#45;&gt;Node21</title>
<path fill="none" stroke="midnightblue" d="M458.02,-301.16C412.97,-312.58 345.87,-331.54 325,-347.87 284.79,-379.32 260.25,-438.23 251.81,-461.28"/>
<polygon fill="midnightblue" stroke="midnightblue" points="458.98,-304.53 467.84,-298.7 457.28,-297.74 458.98,-304.53"/>
</g>
<!-- Node24&#45;&gt;Node22 -->
<g id="edge61" class="edge">
<title>Node24&#45;&gt;Node22</title>
<path fill="none" stroke="midnightblue" d="M488.7,-309.09C475.35,-328.57 453.09,-360.12 432,-385.87 417.85,-403.14 399.98,-421.98 389.16,-433.09"/>
<polygon fill="midnightblue" stroke="midnightblue" points="491.76,-310.82 494.5,-300.58 485.98,-306.87 491.76,-310.82"/>
</g>
</g>
</svg>
