<?xml version="1.0" encoding="UTF-8" standalone="no"?>
<!DOCTYPE svg PUBLIC "-//W3C//DTD SVG 1.1//EN"
 "http://www.w3.org/Graphics/SVG/1.1/DTD/svg11.dtd">
<!-- Generated by graphviz version 3.0.0 (20220413.0106)
 -->
<!-- Title: abstract&#45;machine/am/src Pages: 1 -->
<svg width="236pt" height="175pt"
 viewBox="0.00 0.00 236.00 175.00" xmlns="http://www.w3.org/2000/svg" xmlns:xlink="http://www.w3.org/1999/xlink">
<g id="graph0" class="graph" transform="scale(1 1) rotate(0) translate(4 171)">
<title>abstract&#45;machine/am/src</title>
<g id="clust1" class="cluster">
<title>clusterdir_221aa689d77dcd1abd530cb13a599f6c</title>
<g id="a_clust1"><a xlink:href="dir_221aa689d77dcd1abd530cb13a599f6c.html" target="_top" xlink:title="am">
<polygon fill="#daedff" stroke="#7f7f7f" stroke-dasharray="5,2" points="8,-8 8,-159 166,-159 166,-8 8,-8"/>
<text text-anchor="middle" x="87" y="-147" font-family="Helvetica,sans-Serif" font-size="10.00">am</text>
</a>
</g>
</g>
<g id="clust2" class="cluster">
<title>clusterdir_ab9c339ca6939bbe6f6a41b1e4730185</title>
<g id="a_clust2"><a xlink:href="dir_ab9c339ca6939bbe6f6a41b1e4730185.html" target="_top">
<polygon fill="#daedff" stroke="#404040" stroke-width="2" points="16,-80 16,-132 158,-132 158,-80 16,-80"/>
</a>
</g>
</g>
<!-- dir_211194ca62e5b7f591f877ce92090548 -->
<g id="node1" class="node">
<title>dir_211194ca62e5b7f591f877ce92090548</title>
<g id="a_node1"><a xlink:href="dir_211194ca62e5b7f591f877ce92090548.html" target="_top" xlink:title="include">
<polygon fill="#4ea9ff" stroke="#404040" points="78,-52 24,-52 24,-16 78,-16 78,-52"/>
<text text-anchor="middle" x="51" y="-31.5" font-family="Helvetica,sans-Serif" font-size="10.00">include</text>
</a>
</g>
</g>
<!-- dir_ab9c339ca6939bbe6f6a41b1e4730185 -->
<g id="node2" class="node">
<title>dir_ab9c339ca6939bbe6f6a41b1e4730185</title>
<text text-anchor="middle" x="123" y="-103.5" font-family="Helvetica,sans-Serif" font-size="10.00">src</text>
</g>
<!-- dir_84ebb354b97ad405f7394d9a50d5c853 -->
<g id="node3" class="node">
<title>dir_84ebb354b97ad405f7394d9a50d5c853</title>
<g id="a_node3"><a xlink:href="dir_84ebb354b97ad405f7394d9a50d5c853.html" target="_top" xlink:title="x86">
<polygon fill="#4ea9ff" stroke="#404040" points="78,-124 24,-124 24,-88 78,-88 78,-124"/>
<text text-anchor="middle" x="51" y="-103.5" font-family="Helvetica,sans-Serif" font-size="10.00">x86</text>
</a>
</g>
</g>
<!-- dir_84ebb354b97ad405f7394d9a50d5c853&#45;&gt;dir_211194ca62e5b7f591f877ce92090548 -->
<g id="edge1" class="edge">
<title>dir_84ebb354b97ad405f7394d9a50d5c853&#45;&gt;dir_211194ca62e5b7f591f877ce92090548</title>
<path fill="none" stroke="black" d="M51,-87.7C51,-79.98 51,-70.71 51,-62.11"/>
<polygon fill="black" stroke="black" points="54.5,-62.1 51,-52.1 47.5,-62.1 54.5,-62.1"/>
<g id="a_edge1&#45;headlabel"><a xlink:href="dir_000015_000005.html" target="_top" xlink:title="1">
<text text-anchor="middle" x="57.34" y="-63.2" font-family="Helvetica,sans-Serif" font-size="10.00">1</text>
</a>
</g>
</g>
<!-- dir_aa3cdb1224707fe77b1419aa1c7e3873 -->
<g id="node4" class="node">
<title>dir_aa3cdb1224707fe77b1419aa1c7e3873</title>
<g id="a_node4"><a xlink:href="dir_aa3cdb1224707fe77b1419aa1c7e3873.html" target="_top" xlink:title="klib">
<polygon fill="none" stroke="red" stroke-dasharray="5,2" points="228,-52 174,-52 174,-16 228,-16 228,-52"/>
<text text-anchor="middle" x="201" y="-31.5" font-family="Helvetica,sans-Serif" font-size="10.00">klib</text>
</a>
</g>
</g>
<!-- dir_84ebb354b97ad405f7394d9a50d5c853&#45;&gt;dir_aa3cdb1224707fe77b1419aa1c7e3873 -->
<g id="edge2" class="edge">
<title>dir_84ebb354b97ad405f7394d9a50d5c853&#45;&gt;dir_aa3cdb1224707fe77b1419aa1c7e3873</title>
<path fill="none" stroke="black" d="M73.64,-87.86C77.95,-85.01 82.51,-82.26 87,-80 118.79,-64.01 132.02,-66.93 164.15,-54.29"/>
<polygon fill="black" stroke="black" points="165.87,-57.37 173.75,-50.28 163.17,-50.91 165.87,-57.37"/>
<g id="a_edge2&#45;headlabel"><a xlink:href="dir_000015_000009.html" target="_top" xlink:title="2">
<text text-anchor="middle" x="163.64" y="-58.87" font-family="Helvetica,sans-Serif" font-size="10.00">2</text>
</a>
</g>
</g>
</g>
</svg>
