<?xml version="1.0" encoding="UTF-8" standalone="no"?>
<!DOCTYPE svg PUBLIC "-//W3C//DTD SVG 1.1//EN"
 "http://www.w3.org/Graphics/SVG/1.1/DTD/svg11.dtd">
<!-- Generated by graphviz version 3.0.0 (20220413.0106)
 -->
<!-- Title: kernel Pages: 1 -->
<svg width="166pt" height="276pt"
 viewBox="0.00 0.00 166.00 276.00" xmlns="http://www.w3.org/2000/svg" xmlns:xlink="http://www.w3.org/1999/xlink">
<g id="graph0" class="graph" transform="scale(1 1) rotate(0) translate(4 272)">
<title>kernel</title>
<g id="clust1" class="cluster">
<title>clusterdir_dc43877d82dd332f9fb2071fcca799d6</title>
<g id="a_clust1"><a xlink:href="dir_dc43877d82dd332f9fb2071fcca799d6.html" target="_top">
<polygon fill="#daedff" stroke="#404040" stroke-width="2" points="8,-64 8,-260 150,-260 150,-64 8,-64"/>
</a>
</g>
</g>
<!-- dir_dc43877d82dd332f9fb2071fcca799d6 -->
<g id="node1" class="node">
<title>dir_dc43877d82dd332f9fb2071fcca799d6</title>
<text text-anchor="middle" x="115" y="-231.5" font-family="Helvetica,sans-Serif" font-size="10.00">kernel</text>
</g>
<!-- dir_3b56f342b296dbd02822514f463eed17 -->
<g id="node2" class="node">
<title>dir_3b56f342b296dbd02822514f463eed17</title>
<g id="a_node2"><a xlink:href="dir_3b56f342b296dbd02822514f463eed17.html" target="_top" xlink:title="framework">
<polygon fill="#4ea9ff" stroke="#404040" points="78,-108 16,-108 16,-72 78,-72 78,-108"/>
<text text-anchor="middle" x="47" y="-87.5" font-family="Helvetica,sans-Serif" font-size="10.00">framework</text>
</a>
</g>
</g>
<!-- dir_57953e885fa30d3cda66aaff14f5e717 -->
<g id="node5" class="node">
<title>dir_57953e885fa30d3cda66aaff14f5e717</title>
<g id="a_node5"><a xlink:href="dir_57953e885fa30d3cda66aaff14f5e717.html" target="_top" xlink:title="abstract&#45;machine">
<polygon fill="none" stroke="red" points="152,-36 60,-36 60,0 152,0 152,-36"/>
<text text-anchor="middle" x="106" y="-15.5" font-family="Helvetica,sans-Serif" font-size="10.00">abstract&#45;machine</text>
</a>
</g>
</g>
<!-- dir_3b56f342b296dbd02822514f463eed17&#45;&gt;dir_57953e885fa30d3cda66aaff14f5e717 -->
<g id="edge1" class="edge">
<title>dir_3b56f342b296dbd02822514f463eed17&#45;&gt;dir_57953e885fa30d3cda66aaff14f5e717</title>
<path fill="none" stroke="black" d="M61.58,-71.7C68.66,-63.3 77.28,-53.07 85.05,-43.86"/>
<polygon fill="black" stroke="black" points="87.81,-46.01 91.58,-36.1 82.46,-41.49 87.81,-46.01"/>
<g id="a_edge1&#45;headlabel"><a xlink:href="dir_000004_000000.html" target="_top" xlink:title="2">
<text text-anchor="middle" x="87.67" y="-48.08" font-family="Helvetica,sans-Serif" font-size="10.00">2</text>
</a>
</g>
</g>
<!-- dir_009f605b833ac4622acd6c3c0c26c0f0 -->
<g id="node3" class="node">
<title>dir_009f605b833ac4622acd6c3c0c26c0f0</title>
<g id="a_node3"><a xlink:href="dir_009f605b833ac4622acd6c3c0c26c0f0.html" target="_top" xlink:title="include">
<polygon fill="#4ea9ff" stroke="#404040" points="74,-180 20,-180 20,-144 74,-144 74,-180"/>
<text text-anchor="middle" x="47" y="-159.5" font-family="Helvetica,sans-Serif" font-size="10.00">include</text>
</a>
</g>
</g>
<!-- dir_009f605b833ac4622acd6c3c0c26c0f0&#45;&gt;dir_3b56f342b296dbd02822514f463eed17 -->
<g id="edge2" class="edge">
<title>dir_009f605b833ac4622acd6c3c0c26c0f0&#45;&gt;dir_3b56f342b296dbd02822514f463eed17</title>
<path fill="none" stroke="black" d="M47,-143.7C47,-135.98 47,-126.71 47,-118.11"/>
<polygon fill="black" stroke="black" points="50.5,-118.1 47,-108.1 43.5,-118.1 50.5,-118.1"/>
<g id="a_edge2&#45;headlabel"><a xlink:href="dir_000007_000004.html" target="_top" xlink:title="2">
<text text-anchor="middle" x="53.34" y="-119.2" font-family="Helvetica,sans-Serif" font-size="10.00">2</text>
</a>
</g>
</g>
<!-- dir_009f605b833ac4622acd6c3c0c26c0f0&#45;&gt;dir_57953e885fa30d3cda66aaff14f5e717 -->
<g id="edge3" class="edge">
<title>dir_009f605b833ac4622acd6c3c0c26c0f0&#45;&gt;dir_57953e885fa30d3cda66aaff14f5e717</title>
<path fill="none" stroke="black" d="M63.2,-143.63C71.49,-133.84 81.06,-121 87,-108 96,-88.3 100.81,-64.17 103.33,-46.01"/>
<polygon fill="black" stroke="black" points="106.81,-46.45 104.57,-36.09 99.86,-45.58 106.81,-46.45"/>
<g id="a_edge3&#45;headlabel"><a xlink:href="dir_000007_000000.html" target="_top" xlink:title="6">
<text text-anchor="middle" x="109.18" y="-47.86" font-family="Helvetica,sans-Serif" font-size="10.00">6</text>
</a>
</g>
</g>
<!-- dir_3dd30a497388ee684638f120a124721c -->
<g id="node4" class="node">
<title>dir_3dd30a497388ee684638f120a124721c</title>
<g id="a_node4"><a xlink:href="dir_3dd30a497388ee684638f120a124721c.html" target="_top" xlink:title="src">
<polygon fill="#4ea9ff" stroke="#404040" points="70,-252 16,-252 16,-216 70,-216 70,-252"/>
<text text-anchor="middle" x="43" y="-231.5" font-family="Helvetica,sans-Serif" font-size="10.00">src</text>
</a>
</g>
</g>
<!-- dir_3dd30a497388ee684638f120a124721c&#45;&gt;dir_009f605b833ac4622acd6c3c0c26c0f0 -->
<g id="edge4" class="edge">
<title>dir_3dd30a497388ee684638f120a124721c&#45;&gt;dir_009f605b833ac4622acd6c3c0c26c0f0</title>
<path fill="none" stroke="black" d="M43.99,-215.7C44.43,-207.98 44.96,-198.71 45.45,-190.11"/>
<polygon fill="black" stroke="black" points="48.95,-190.29 46.02,-180.1 41.96,-189.89 48.95,-190.29"/>
<g id="a_edge4&#45;headlabel"><a xlink:href="dir_000013_000007.html" target="_top" xlink:title="17">
<text text-anchor="middle" x="51.58" y="-191.54" font-family="Helvetica,sans-Serif" font-size="10.00">17</text>
</a>
</g>
</g>
<!-- dir_3dd30a497388ee684638f120a124721c&#45;&gt;dir_57953e885fa30d3cda66aaff14f5e717 -->
<g id="edge5" class="edge">
<title>dir_3dd30a497388ee684638f120a124721c&#45;&gt;dir_57953e885fa30d3cda66aaff14f5e717</title>
<path fill="none" stroke="black" d="M58.18,-215.79C66.36,-205.85 76.16,-192.81 83,-180 98.95,-150.12 102.37,-141.4 108,-108 111.25,-88.72 108.43,-83.55 108,-64 107.87,-58.23 107.65,-52.06 107.4,-46.18"/>
<polygon fill="black" stroke="black" points="110.89,-45.92 106.94,-36.09 103.9,-46.24 110.89,-45.92"/>
<g id="a_edge5&#45;headlabel"><a xlink:href="dir_000013_000000.html" target="_top" xlink:title="2">
<text text-anchor="middle" x="113.9" y="-46.88" font-family="Helvetica,sans-Serif" font-size="10.00">2</text>
</a>
</g>
</g>
</g>
</svg>
