<?xml version="1.0" encoding="UTF-8" standalone="no"?>
<!DOCTYPE svg PUBLIC "-//W3C//DTD SVG 1.1//EN"
 "http://www.w3.org/Graphics/SVG/1.1/DTD/svg11.dtd">
<!-- Generated by graphviz version 3.0.0 (20220413.0106)
 -->
<!-- Title: kernel Pages: 1 -->
<svg width="166pt" height="276pt"
 viewBox="0.00 0.00 166.00 276.00" xmlns="http://www.w3.org/2000/svg" xmlns:xlink="http://www.w3.org/1999/xlink">
<g id="graph0" class="graph" transform="scale(1 1) rotate(0) translate(4 272)">
<title>kernel</title>
<g id="clust1" class="cluster">
<title>clusterdir_dc43877d82dd332f9fb2071fcca799d6</title>
<g id="a_clust1"><a xlink:href="dir_dc43877d82dd332f9fb2071fcca799d6.html" target="_top">
<polygon fill="#daedff" stroke="#404040" stroke-width="2" points="8,-64 8,-260 150,-260 150,-64 8,-64"/>
</a>
</g>
</g>
<!-- dir_dc43877d82dd332f9fb2071fcca799d6 -->
<g id="node1" class="node">
<title>dir_dc43877d82dd332f9fb2071fcca799d6</title>
<text text-anchor="middle" x="115" y="-231.5" font-family="Helvetica,sans-Serif" font-size="10.00">kernel</text>
</g>
<!-- dir_3b56f342b296dbd02822514f463eed17 -->
<g id="node2" class="node">
<title>dir_3b56f342b296dbd02822514f463eed17</title>
<g id="a_node2"><a xlink:href="dir_3b56f342b296dbd02822514f463eed17.html" target="_top" xlink:title="framework">
<polygon fill="#4ea9ff" stroke="#404040" points="78,-108 16,-108 16,-72 78,-72 78,-108"/>
<text text-anchor="middle" x="47" y="-87.5" font-family="Helvetica,sans-Serif" font-size="10.00">framework</text>
</a>
</g>
</g>
<!-- dir_57953e885fa30d3cda66aaff14f5e717 -->
<g id="node5" class="node">
<title>dir_57953e885fa30d3cda66aaff14f5e717</title>
<g id="a_node5"><a xlink:href="dir_57953e885fa30d3cda66aaff14f5e717.html" target="_top" xlink:title="abstract&#45;machine">
<polygon fill="none" stroke="red" points="152,-36 60,-36 60,0 152,0 152,-36"/>
<text text-anchor="middle" x="106" y="-15.5" font-family="Helvetica,sans-Serif" font-size="10.00">abstract&#45;machine</text>
</a>
</g>
</g>
<!-- dir_3b56f342b296dbd02822514f463eed17&#45;&gt;dir_57953e885fa30d3cda66aaff14f5e717 -->
<g id="edge1" class="edge">
<title>dir_3b56f342b296dbd02822514f463eed17&#45;&gt;dir_57953e885fa30d3cda66aaff14f5e717</title>
<path fill="none" stroke="black" d="M61.58,-71.7C68.66,-63.3 77.28,-53.07 85.05,-43.86"/>
<polygon fill="black" stroke="black" points="87.81,-46.01 91.58,-36.1 82.46,-41.49 87.81,-46.01"/>
<g id="a_edge1&#45;headlabel"><a xlink:href="dir_000004_000000.html" target="_top" xlink:title="2">
<text text-anchor="middle" x="87.67" y="-48.08" font-family="Helvetica,sans-Serif" font-size="10.00">2</text>
</a>
</g>
</g>
<!-- dir_009f605b833ac4622acd6c3c0c26c0f0 -->
<g id="node3" class="node">
<title>dir_009f605b833ac4622acd6c3c0c26c0f0</title>
<g id="a_node3"><a xlink:href="dir_009f605b833ac4622acd6c3c0c26c0f0.html" target="_top" xlink:title="include">
<polygon fill="#4ea9ff" stroke="#404040" points="116,-180 62,-180 62,-144 116,-144 116,-180"/>
<text text-anchor="middle" x="89" y="-159.5" font-family="Helvetica,sans-Serif" font-size="10.00">include</text>
</a>
</g>
</g>
<!-- dir_009f605b833ac4622acd6c3c0c26c0f0&#45;&gt;dir_3b56f342b296dbd02822514f463eed17 -->
<g id="edge2" class="edge">
<title>dir_009f605b833ac4622acd6c3c0c26c0f0&#45;&gt;dir_3b56f342b296dbd02822514f463eed17</title>
<path fill="none" stroke="black" d="M78.62,-143.7C73.74,-135.56 67.81,-125.69 62.42,-116.7"/>
<polygon fill="black" stroke="black" points="65.41,-114.88 57.26,-108.1 59.41,-118.48 65.41,-114.88"/>
<g id="a_edge2&#45;headlabel"><a xlink:href="dir_000007_000004.html" target="_top" xlink:title="1">
<text text-anchor="middle" x="69.69" y="-114" font-family="Helvetica,sans-Serif" font-size="10.00">1</text>
</a>
</g>
</g>
<!-- dir_009f605b833ac4622acd6c3c0c26c0f0&#45;&gt;dir_57953e885fa30d3cda66aaff14f5e717 -->
<g id="edge3" class="edge">
<title>dir_009f605b833ac4622acd6c3c0c26c0f0&#45;&gt;dir_57953e885fa30d3cda66aaff14f5e717</title>
<path fill="none" stroke="black" d="M91.05,-143.87C93.95,-119.67 99.27,-75.21 102.72,-46.39"/>
<polygon fill="black" stroke="black" points="106.23,-46.53 103.94,-36.19 99.28,-45.7 106.23,-46.53"/>
<g id="a_edge3&#45;headlabel"><a xlink:href="dir_000007_000000.html" target="_top" xlink:title="6">
<text text-anchor="middle" x="108.62" y="-47.94" font-family="Helvetica,sans-Serif" font-size="10.00">6</text>
</a>
</g>
</g>
<!-- dir_3dd30a497388ee684638f120a124721c -->
<g id="node4" class="node">
<title>dir_3dd30a497388ee684638f120a124721c</title>
<g id="a_node4"><a xlink:href="dir_3dd30a497388ee684638f120a124721c.html" target="_top" xlink:title="src">
<polygon fill="#4ea9ff" stroke="#404040" points="70,-252 16,-252 16,-216 70,-216 70,-252"/>
<text text-anchor="middle" x="43" y="-231.5" font-family="Helvetica,sans-Serif" font-size="10.00">src</text>
</a>
</g>
</g>
<!-- dir_3dd30a497388ee684638f120a124721c&#45;&gt;dir_3b56f342b296dbd02822514f463eed17 -->
<g id="edge5" class="edge">
<title>dir_3dd30a497388ee684638f120a124721c&#45;&gt;dir_3b56f342b296dbd02822514f463eed17</title>
<path fill="none" stroke="black" d="M43.48,-215.87C44.16,-191.67 45.42,-147.21 46.23,-118.39"/>
<polygon fill="black" stroke="black" points="49.73,-118.28 46.52,-108.19 42.74,-118.09 49.73,-118.28"/>
<g id="a_edge5&#45;headlabel"><a xlink:href="dir_000013_000004.html" target="_top" xlink:title="3">
<text text-anchor="middle" x="52.47" y="-119.46" font-family="Helvetica,sans-Serif" font-size="10.00">3</text>
</a>
</g>
</g>
<!-- dir_3dd30a497388ee684638f120a124721c&#45;&gt;dir_009f605b833ac4622acd6c3c0c26c0f0 -->
<g id="edge4" class="edge">
<title>dir_3dd30a497388ee684638f120a124721c&#45;&gt;dir_009f605b833ac4622acd6c3c0c26c0f0</title>
<path fill="none" stroke="black" d="M54.37,-215.7C59.72,-207.56 66.2,-197.69 72.11,-188.7"/>
<polygon fill="black" stroke="black" points="75.19,-190.38 77.76,-180.1 69.34,-186.54 75.19,-190.38"/>
<g id="a_edge4&#45;headlabel"><a xlink:href="dir_000013_000007.html" target="_top" xlink:title="19">
<text text-anchor="middle" x="75.59" y="-192.45" font-family="Helvetica,sans-Serif" font-size="10.00">19</text>
</a>
</g>
</g>
<!-- dir_3dd30a497388ee684638f120a124721c&#45;&gt;dir_57953e885fa30d3cda66aaff14f5e717 -->
<g id="edge6" class="edge">
<title>dir_3dd30a497388ee684638f120a124721c&#45;&gt;dir_57953e885fa30d3cda66aaff14f5e717</title>
<path fill="none" stroke="black" d="M70.41,-219.01C91.81,-207.44 118.92,-191.17 125,-180 148.17,-137.44 131.58,-79.29 118.23,-45.78"/>
<polygon fill="black" stroke="black" points="121.32,-44.1 114.24,-36.22 114.86,-46.8 121.32,-44.1"/>
<g id="a_edge6&#45;headlabel"><a xlink:href="dir_000013_000000.html" target="_top" xlink:title="2">
<text text-anchor="middle" x="125.32" y="-43.82" font-family="Helvetica,sans-Serif" font-size="10.00">2</text>
</a>
</g>
</g>
</g>
</svg>
