<?xml version="1.0" encoding="UTF-8" standalone="no"?>
<!DOCTYPE svg PUBLIC "-//W3C//DTD SVG 1.1//EN"
 "http://www.w3.org/Graphics/SVG/1.1/DTD/svg11.dtd">
<!-- Generated by graphviz version 2.50.0 (20220203.2022)
 -->
<!-- Title: abstract&#45;machine/am/src Pages: 1 -->
<svg width="308pt" height="175pt"
 viewBox="0.00 0.00 308.00 175.00" xmlns="http://www.w3.org/2000/svg" xmlns:xlink="http://www.w3.org/1999/xlink">
<g id="graph0" class="graph" transform="scale(1 1) rotate(0) translate(4 171)">
<title>abstract&#45;machine/am/src</title>
<g id="clust1" class="cluster">
<title>clusterdir_221aa689d77dcd1abd530cb13a599f6c</title>
<g id="a_clust1"><a xlink:href="dir_221aa689d77dcd1abd530cb13a599f6c.html" target="_top" xlink:title="am">
<polygon fill="#edf0f7" stroke="#7f7f7f" stroke-dasharray="5,2" points="8,-8 8,-159 238,-159 238,-8 8,-8"/>
<text text-anchor="middle" x="123" y="-147" font-family="Helvetica,sans-Serif" font-size="10.00">am</text>
</a>
</g>
</g>
<g id="clust2" class="cluster">
<title>clusterdir_ab9c339ca6939bbe6f6a41b1e4730185</title>
<g id="a_clust2"><a xlink:href="dir_ab9c339ca6939bbe6f6a41b1e4730185.html" target="_top">
<polygon fill="#edf0f7" stroke="#404040" stroke-width="2" points="16,-80 16,-132 230,-132 230,-80 16,-80"/>
</a>
</g>
</g>
<!-- dir_211194ca62e5b7f591f877ce92090548 -->
<g id="node1" class="node">
<title>dir_211194ca62e5b7f591f877ce92090548</title>
<g id="a_node1"><a xlink:href="dir_211194ca62e5b7f591f877ce92090548.html" target="_top" xlink:title="include">
<polygon fill="#a2b4d6" stroke="red" points="114,-52 60,-52 60,-16 114,-16 114,-52"/>
<text text-anchor="middle" x="87" y="-31.5" font-family="Helvetica,sans-Serif" font-size="10.00">include</text>
</a>
</g>
</g>
<!-- dir_ab9c339ca6939bbe6f6a41b1e4730185 -->
<g id="node2" class="node">
<title>dir_ab9c339ca6939bbe6f6a41b1e4730185</title>
<text text-anchor="middle" x="195" y="-103.5" font-family="Helvetica,sans-Serif" font-size="10.00">src</text>
</g>
<!-- dir_26e1a664acda5db86c9818004634fd71 -->
<g id="node3" class="node">
<title>dir_26e1a664acda5db86c9818004634fd71</title>
<g id="a_node3"><a xlink:href="dir_26e1a664acda5db86c9818004634fd71.html" target="_top" xlink:title="native">
<polygon fill="#a2b4d6" stroke="#404040" points="150,-124 96,-124 96,-88 150,-88 150,-124"/>
<text text-anchor="middle" x="123" y="-103.5" font-family="Helvetica,sans-Serif" font-size="10.00">native</text>
</a>
</g>
</g>
<!-- dir_26e1a664acda5db86c9818004634fd71&#45;&gt;dir_211194ca62e5b7f591f877ce92090548 -->
<g id="edge1" class="edge">
<title>dir_26e1a664acda5db86c9818004634fd71&#45;&gt;dir_211194ca62e5b7f591f877ce92090548</title>
<path fill="none" stroke="black" d="M114.1,-87.7C110,-79.73 105.05,-70.1 100.51,-61.26"/>
<polygon fill="black" stroke="black" points="103.48,-59.4 95.8,-52.1 97.26,-62.6 103.48,-59.4"/>
<g id="a_edge1&#45;headlabel"><a xlink:href="dir_000012_000006.html" target="_top" xlink:title="7">
<text text-anchor="middle" x="107.65" y="-58.79" font-family="Helvetica,sans-Serif" font-size="10.00">7</text>
</a>
</g>
</g>
<!-- dir_aa3cdb1224707fe77b1419aa1c7e3873 -->
<g id="node5" class="node">
<title>dir_aa3cdb1224707fe77b1419aa1c7e3873</title>
<g id="a_node5"><a xlink:href="dir_aa3cdb1224707fe77b1419aa1c7e3873.html" target="_top" xlink:title="klib">
<polygon fill="none" stroke="red" stroke-dasharray="5,2" points="300,-52 246,-52 246,-16 300,-16 300,-52"/>
<text text-anchor="middle" x="273" y="-31.5" font-family="Helvetica,sans-Serif" font-size="10.00">klib</text>
</a>
</g>
</g>
<!-- dir_26e1a664acda5db86c9818004634fd71&#45;&gt;dir_aa3cdb1224707fe77b1419aa1c7e3873 -->
<g id="edge2" class="edge">
<title>dir_26e1a664acda5db86c9818004634fd71&#45;&gt;dir_aa3cdb1224707fe77b1419aa1c7e3873</title>
<path fill="none" stroke="black" d="M145.64,-87.86C149.95,-85.01 154.51,-82.26 159,-80 190.79,-64.01 204.02,-66.93 236.15,-54.29"/>
<polygon fill="black" stroke="black" points="237.87,-57.37 245.75,-50.28 235.17,-50.91 237.87,-57.37"/>
<g id="a_edge2&#45;headlabel"><a xlink:href="dir_000012_000011.html" target="_top" xlink:title="4">
<text text-anchor="middle" x="235.64" y="-58.87" font-family="Helvetica,sans-Serif" font-size="10.00">4</text>
</a>
</g>
</g>
<!-- dir_84ebb354b97ad405f7394d9a50d5c853 -->
<g id="node4" class="node">
<title>dir_84ebb354b97ad405f7394d9a50d5c853</title>
<g id="a_node4"><a xlink:href="dir_84ebb354b97ad405f7394d9a50d5c853.html" target="_top" xlink:title="x86">
<polygon fill="#a2b4d6" stroke="#404040" points="78,-124 24,-124 24,-88 78,-88 78,-124"/>
<text text-anchor="middle" x="51" y="-103.5" font-family="Helvetica,sans-Serif" font-size="10.00">x86</text>
</a>
</g>
</g>
<!-- dir_84ebb354b97ad405f7394d9a50d5c853&#45;&gt;dir_211194ca62e5b7f591f877ce92090548 -->
<g id="edge3" class="edge">
<title>dir_84ebb354b97ad405f7394d9a50d5c853&#45;&gt;dir_211194ca62e5b7f591f877ce92090548</title>
<path fill="none" stroke="black" d="M59.9,-87.7C64,-79.73 68.95,-70.1 73.49,-61.26"/>
<polygon fill="black" stroke="black" points="76.74,-62.6 78.2,-52.1 70.52,-59.4 76.74,-62.6"/>
<g id="a_edge3&#45;headlabel"><a xlink:href="dir_000017_000006.html" target="_top" xlink:title="1">
<text text-anchor="middle" x="77.62" y="-64.59" font-family="Helvetica,sans-Serif" font-size="10.00">1</text>
</a>
</g>
</g>
<!-- dir_84ebb354b97ad405f7394d9a50d5c853&#45;&gt;dir_aa3cdb1224707fe77b1419aa1c7e3873 -->
<g id="edge4" class="edge">
<title>dir_84ebb354b97ad405f7394d9a50d5c853&#45;&gt;dir_aa3cdb1224707fe77b1419aa1c7e3873</title>
<path fill="none" stroke="black" d="M72.6,-87.81C77.16,-84.83 82.08,-82.04 87,-80 148.64,-54.46 173.64,-73.39 236.31,-53.71"/>
<polygon fill="black" stroke="black" points="237.47,-57.01 245.84,-50.52 235.24,-50.37 237.47,-57.01"/>
<g id="a_edge4&#45;headlabel"><a xlink:href="dir_000017_000011.html" target="_top" xlink:title="2">
<text text-anchor="middle" x="234.96" y="-58.35" font-family="Helvetica,sans-Serif" font-size="10.00">2</text>
</a>
</g>
</g>
</g>
</svg>
