<?xml version="1.0" encoding="UTF-8" standalone="no"?>
<!DOCTYPE svg PUBLIC "-//W3C//DTD SVG 1.1//EN"
 "http://www.w3.org/Graphics/SVG/1.1/DTD/svg11.dtd">
<!-- Generated by graphviz version 2.50.0 (20220203.2022)
 -->
<!-- Title: abstract&#45;machine/klib/src Pages: 1 -->
<svg width="150pt" height="167pt"
 viewBox="0.00 0.00 150.00 167.00" xmlns="http://www.w3.org/2000/svg" xmlns:xlink="http://www.w3.org/1999/xlink">
<g id="graph0" class="graph" transform="scale(1 1) rotate(0) translate(4 163)">
<title>abstract&#45;machine/klib/src</title>
<g id="clust1" class="cluster">
<title>clusterdir_aa3cdb1224707fe77b1419aa1c7e3873</title>
<g id="a_clust1"><a xlink:href="dir_aa3cdb1224707fe77b1419aa1c7e3873.html" target="_top" xlink:title="klib">
<polygon fill="#daedff" stroke="#7f7f7f" stroke-dasharray="5,2" points="8,-8 8,-151 78,-151 78,-8 8,-8"/>
<text text-anchor="middle" x="43" y="-139" font-family="Helvetica,sans-Serif" font-size="10.00">klib</text>
</a>
</g>
</g>
<!-- dir_164d76c09bb3a95b7a390a02db647bf4 -->
<g id="node1" class="node">
<title>dir_164d76c09bb3a95b7a390a02db647bf4</title>
<g id="a_node1"><a xlink:href="dir_164d76c09bb3a95b7a390a02db647bf4.html" target="_top" xlink:title="include">
<polygon fill="#4ea9ff" stroke="#404040" points="70,-52 16,-52 16,-16 70,-16 70,-52"/>
<text text-anchor="middle" x="43" y="-31.5" font-family="Helvetica,sans-Serif" font-size="10.00">include</text>
</a>
</g>
</g>
<!-- dir_1be009763170158d3fb890e6ce68f3d2 -->
<g id="node2" class="node">
<title>dir_1be009763170158d3fb890e6ce68f3d2</title>
<g id="a_node2"><a xlink:href="dir_1be009763170158d3fb890e6ce68f3d2.html" target="_top" xlink:title="src">
<polygon fill="#daedff" stroke="#404040" stroke-width="2" points="70,-124 16,-124 16,-88 70,-88 70,-124"/>
<text text-anchor="middle" x="43" y="-103.5" font-family="Helvetica,sans-Serif" font-size="10.00">src</text>
</a>
</g>
</g>
<!-- dir_1be009763170158d3fb890e6ce68f3d2&#45;&gt;dir_164d76c09bb3a95b7a390a02db647bf4 -->
<g id="edge1" class="edge">
<title>dir_1be009763170158d3fb890e6ce68f3d2&#45;&gt;dir_164d76c09bb3a95b7a390a02db647bf4</title>
<path fill="none" stroke="black" d="M43,-87.7C43,-79.98 43,-70.71 43,-62.11"/>
<polygon fill="black" stroke="black" points="46.5,-62.1 43,-52.1 39.5,-62.1 46.5,-62.1"/>
<g id="a_edge1&#45;headlabel"><a xlink:href="dir_000011_000005.html" target="_top" xlink:title="7">
<text text-anchor="middle" x="49.34" y="-63.2" font-family="Helvetica,sans-Serif" font-size="10.00">7</text>
</a>
</g>
</g>
<!-- dir_221aa689d77dcd1abd530cb13a599f6c -->
<g id="node3" class="node">
<title>dir_221aa689d77dcd1abd530cb13a599f6c</title>
<g id="a_node3"><a xlink:href="dir_221aa689d77dcd1abd530cb13a599f6c.html" target="_top" xlink:title="am">
<polygon fill="none" stroke="red" stroke-dasharray="5,2" points="142,-52 88,-52 88,-16 142,-16 142,-52"/>
<text text-anchor="middle" x="115" y="-31.5" font-family="Helvetica,sans-Serif" font-size="10.00">am</text>
</a>
</g>
</g>
<!-- dir_1be009763170158d3fb890e6ce68f3d2&#45;&gt;dir_221aa689d77dcd1abd530cb13a599f6c -->
<g id="edge2" class="edge">
<title>dir_1be009763170158d3fb890e6ce68f3d2&#45;&gt;dir_221aa689d77dcd1abd530cb13a599f6c</title>
<path fill="none" stroke="black" d="M60.8,-87.7C69.6,-79.14 80.38,-68.66 90,-59.3"/>
<polygon fill="black" stroke="black" points="92.68,-61.58 97.41,-52.1 87.8,-56.57 92.68,-61.58"/>
<g id="a_edge2&#45;headlabel"><a xlink:href="dir_000011_000001.html" target="_top" xlink:title="3">
<text text-anchor="middle" x="92.08" y="-63.63" font-family="Helvetica,sans-Serif" font-size="10.00">3</text>
</a>
</g>
</g>
</g>
</svg>
