<?xml version="1.0" encoding="UTF-8" standalone="no"?>
<!DOCTYPE svg PUBLIC "-//W3C//DTD SVG 1.1//EN"
 "http://www.w3.org/Graphics/SVG/1.1/DTD/svg11.dtd">
<!-- Generated by graphviz version 2.50.0 (20220203.2022)
 -->
<!-- Title: abstract&#45;machine/am/src/x86/qemu Pages: 1 -->
<svg width="134pt" height="151pt"
 viewBox="0.00 0.00 134.00 151.00" xmlns="http://www.w3.org/2000/svg" xmlns:xlink="http://www.w3.org/1999/xlink">
<g id="graph0" class="graph" transform="scale(1 1) rotate(0) translate(4 147)">
<title>abstract&#45;machine/am/src/x86/qemu</title>
<g id="clust1" class="cluster">
<title>clusterdir_84ebb354b97ad405f7394d9a50d5c853</title>
<g id="a_clust1"><a xlink:href="dir_84ebb354b97ad405f7394d9a50d5c853.html" target="_top" xlink:title="x86">
<polygon fill="#daedff" stroke="#7f7f7f" stroke-dasharray="5,2" points="28,-64 28,-135 98,-135 98,-64 28,-64"/>
<text text-anchor="middle" x="63" y="-123" font-family="Helvetica,sans-Serif" font-size="10.00">x86</text>
</a>
</g>
</g>
<!-- dir_182591d9ec1b85284dfbe5e03d401e71 -->
<g id="node1" class="node">
<title>dir_182591d9ec1b85284dfbe5e03d401e71</title>
<g id="a_node1"><a xlink:href="dir_182591d9ec1b85284dfbe5e03d401e71.html" target="_top" xlink:title="qemu">
<polygon fill="#daedff" stroke="#404040" stroke-width="2" points="90,-108 36,-108 36,-72 90,-72 90,-108"/>
<text text-anchor="middle" x="63" y="-87.5" font-family="Helvetica,sans-Serif" font-size="10.00">qemu</text>
</a>
</g>
</g>
<!-- dir_211194ca62e5b7f591f877ce92090548 -->
<g id="node2" class="node">
<title>dir_211194ca62e5b7f591f877ce92090548</title>
<g id="a_node2"><a xlink:href="dir_211194ca62e5b7f591f877ce92090548.html" target="_top" xlink:title="include">
<polygon fill="none" stroke="#7f7f7f" points="54,-36 0,-36 0,0 54,0 54,-36"/>
<text text-anchor="middle" x="27" y="-15.5" font-family="Helvetica,sans-Serif" font-size="10.00">include</text>
</a>
</g>
</g>
<!-- dir_182591d9ec1b85284dfbe5e03d401e71&#45;&gt;dir_211194ca62e5b7f591f877ce92090548 -->
<g id="edge1" class="edge">
<title>dir_182591d9ec1b85284dfbe5e03d401e71&#45;&gt;dir_211194ca62e5b7f591f877ce92090548</title>
<path fill="none" stroke="black" d="M54.1,-71.7C50,-63.73 45.05,-54.1 40.51,-45.26"/>
<polygon fill="black" stroke="black" points="43.48,-43.4 35.8,-36.1 37.26,-46.6 43.48,-43.4"/>
<g id="a_edge1&#45;headlabel"><a xlink:href="dir_000009_000004.html" target="_top" xlink:title="1">
<text text-anchor="middle" x="47.65" y="-42.79" font-family="Helvetica,sans-Serif" font-size="10.00">1</text>
</a>
</g>
</g>
<!-- dir_aa3cdb1224707fe77b1419aa1c7e3873 -->
<g id="node3" class="node">
<title>dir_aa3cdb1224707fe77b1419aa1c7e3873</title>
<g id="a_node3"><a xlink:href="dir_aa3cdb1224707fe77b1419aa1c7e3873.html" target="_top" xlink:title="klib">
<polygon fill="none" stroke="red" stroke-dasharray="5,2" points="126,-36 72,-36 72,0 126,0 126,-36"/>
<text text-anchor="middle" x="99" y="-15.5" font-family="Helvetica,sans-Serif" font-size="10.00">klib</text>
</a>
</g>
</g>
<!-- dir_182591d9ec1b85284dfbe5e03d401e71&#45;&gt;dir_aa3cdb1224707fe77b1419aa1c7e3873 -->
<g id="edge2" class="edge">
<title>dir_182591d9ec1b85284dfbe5e03d401e71&#45;&gt;dir_aa3cdb1224707fe77b1419aa1c7e3873</title>
<path fill="none" stroke="black" d="M71.9,-71.7C76,-63.73 80.95,-54.1 85.49,-45.26"/>
<polygon fill="black" stroke="black" points="88.74,-46.6 90.2,-36.1 82.52,-43.4 88.74,-46.6"/>
<g id="a_edge2&#45;headlabel"><a xlink:href="dir_000009_000008.html" target="_top" xlink:title="2">
<text text-anchor="middle" x="89.62" y="-48.59" font-family="Helvetica,sans-Serif" font-size="10.00">2</text>
</a>
</g>
</g>
</g>
</svg>
