<?xml version="1.0" encoding="UTF-8" standalone="no"?>
<!DOCTYPE svg PUBLIC "-//W3C//DTD SVG 1.1//EN"
 "http://www.w3.org/Graphics/SVG/1.1/DTD/svg11.dtd">
<!-- Generated by graphviz version 2.50.0 (20220203.2022)
 -->
<!-- Title: abstract&#45;machine/am/src/native Pages: 1 -->
<svg width="182pt" height="159pt"
 viewBox="0.00 0.00 182.00 159.00" xmlns="http://www.w3.org/2000/svg" xmlns:xlink="http://www.w3.org/1999/xlink">
<g id="graph0" class="graph" transform="scale(1 1) rotate(0) translate(4 155)">
<title>abstract&#45;machine/am/src/native</title>
<g id="clust1" class="cluster">
<title>clusterdir_ab9c339ca6939bbe6f6a41b1e4730185</title>
<g id="a_clust1"><a xlink:href="dir_ab9c339ca6939bbe6f6a41b1e4730185.html" target="_top" xlink:title="src">
<polygon fill="#edf0f7" stroke="#7f7f7f" stroke-dasharray="5,2" points="8,-56 8,-143 166,-143 166,-56 8,-56"/>
<text text-anchor="middle" x="87" y="-131" font-family="Helvetica,sans-Serif" font-size="10.00">src</text>
</a>
</g>
</g>
<g id="clust2" class="cluster">
<title>clusterdir_26e1a664acda5db86c9818004634fd71</title>
<g id="a_clust2"><a xlink:href="dir_26e1a664acda5db86c9818004634fd71.html" target="_top">
<polygon fill="#edf0f7" stroke="#404040" stroke-width="2" points="16,-64 16,-116 158,-116 158,-64 16,-64"/>
</a>
</g>
</g>
<!-- dir_26e1a664acda5db86c9818004634fd71 -->
<g id="node1" class="node">
<title>dir_26e1a664acda5db86c9818004634fd71</title>
<text text-anchor="middle" x="123" y="-87.5" font-family="Helvetica,sans-Serif" font-size="10.00">native</text>
</g>
<!-- dir_211194ca62e5b7f591f877ce92090548 -->
<g id="node3" class="node">
<title>dir_211194ca62e5b7f591f877ce92090548</title>
<g id="a_node3"><a xlink:href="dir_211194ca62e5b7f591f877ce92090548.html" target="_top" xlink:title="include">
<polygon fill="none" stroke="red" stroke-dasharray="5,2" points="78,-36 24,-36 24,0 78,0 78,-36"/>
<text text-anchor="middle" x="51" y="-15.5" font-family="Helvetica,sans-Serif" font-size="10.00">include</text>
</a>
</g>
</g>
<!-- dir_26e1a664acda5db86c9818004634fd71&#45;&gt;dir_211194ca62e5b7f591f877ce92090548 -->
<g id="edge1" class="edge">
<title>dir_26e1a664acda5db86c9818004634fd71&#45;&gt;dir_211194ca62e5b7f591f877ce92090548</title>
<path fill="none" stroke="black" d="M105.2,-71.7C96.4,-63.14 85.62,-52.66 76,-43.3"/>
<polygon fill="black" stroke="black" points="78.2,-40.57 68.59,-36.1 73.32,-45.58 78.2,-40.57"/>
<g id="a_edge1&#45;headlabel"><a xlink:href="dir_000012_000006.html" target="_top" xlink:title="7">
<text text-anchor="middle" x="82.76" y="-38.54" font-family="Helvetica,sans-Serif" font-size="10.00">7</text>
</a>
</g>
</g>
<!-- dir_aa3cdb1224707fe77b1419aa1c7e3873 -->
<g id="node4" class="node">
<title>dir_aa3cdb1224707fe77b1419aa1c7e3873</title>
<g id="a_node4"><a xlink:href="dir_aa3cdb1224707fe77b1419aa1c7e3873.html" target="_top" xlink:title="klib">
<polygon fill="none" stroke="red" stroke-dasharray="5,2" points="150,-36 96,-36 96,0 150,0 150,-36"/>
<text text-anchor="middle" x="123" y="-15.5" font-family="Helvetica,sans-Serif" font-size="10.00">klib</text>
</a>
</g>
</g>
<!-- dir_26e1a664acda5db86c9818004634fd71&#45;&gt;dir_aa3cdb1224707fe77b1419aa1c7e3873 -->
<g id="edge2" class="edge">
<title>dir_26e1a664acda5db86c9818004634fd71&#45;&gt;dir_aa3cdb1224707fe77b1419aa1c7e3873</title>
<path fill="none" stroke="black" d="M123,-71.7C123,-63.98 123,-54.71 123,-46.11"/>
<polygon fill="black" stroke="black" points="126.5,-46.1 123,-36.1 119.5,-46.1 126.5,-46.1"/>
<g id="a_edge2&#45;headlabel"><a xlink:href="dir_000012_000011.html" target="_top" xlink:title="4">
<text text-anchor="middle" x="129.34" y="-47.2" font-family="Helvetica,sans-Serif" font-size="10.00">4</text>
</a>
</g>
</g>
<!-- dir_27778207f3aa29020f43ff1601370953 -->
<g id="node2" class="node">
<title>dir_27778207f3aa29020f43ff1601370953</title>
<g id="a_node2"><a xlink:href="dir_27778207f3aa29020f43ff1601370953.html" target="_top" xlink:title="ioe">
<polygon fill="#a2b4d6" stroke="#404040" points="78,-108 24,-108 24,-72 78,-72 78,-108"/>
<text text-anchor="middle" x="51" y="-87.5" font-family="Helvetica,sans-Serif" font-size="10.00">ioe</text>
</a>
</g>
</g>
<!-- dir_27778207f3aa29020f43ff1601370953&#45;&gt;dir_211194ca62e5b7f591f877ce92090548 -->
<g id="edge3" class="edge">
<title>dir_27778207f3aa29020f43ff1601370953&#45;&gt;dir_211194ca62e5b7f591f877ce92090548</title>
<path fill="none" stroke="black" d="M51,-71.7C51,-63.98 51,-54.71 51,-46.11"/>
<polygon fill="black" stroke="black" points="54.5,-46.1 51,-36.1 47.5,-46.1 54.5,-46.1"/>
<g id="a_edge3&#45;headlabel"><a xlink:href="dir_000009_000006.html" target="_top" xlink:title="4">
<text text-anchor="middle" x="57.34" y="-47.2" font-family="Helvetica,sans-Serif" font-size="10.00">4</text>
</a>
</g>
</g>
<!-- dir_27778207f3aa29020f43ff1601370953&#45;&gt;dir_aa3cdb1224707fe77b1419aa1c7e3873 -->
<g id="edge4" class="edge">
<title>dir_27778207f3aa29020f43ff1601370953&#45;&gt;dir_aa3cdb1224707fe77b1419aa1c7e3873</title>
<path fill="none" stroke="black" d="M68.8,-71.7C77.6,-63.14 88.38,-52.66 98,-43.3"/>
<polygon fill="black" stroke="black" points="100.68,-45.58 105.41,-36.1 95.8,-40.57 100.68,-45.58"/>
<g id="a_edge4&#45;headlabel"><a xlink:href="dir_000009_000011.html" target="_top" xlink:title="1">
<text text-anchor="middle" x="100.08" y="-47.63" font-family="Helvetica,sans-Serif" font-size="10.00">1</text>
</a>
</g>
</g>
</g>
</svg>
