<?xml version="1.0" encoding="UTF-8" standalone="no"?>
<!DOCTYPE svg PUBLIC "-//W3C//DTD SVG 1.1//EN"
 "http://www.w3.org/Graphics/SVG/1.1/DTD/svg11.dtd">
<!-- Generated by graphviz version 3.0.0 (20220413.0106)
 -->
<!-- Title: kernel/src Pages: 1 -->
<svg width="275pt" height="175pt"
 viewBox="0.00 0.00 275.00 175.00" xmlns="http://www.w3.org/2000/svg" xmlns:xlink="http://www.w3.org/1999/xlink">
<g id="graph0" class="graph" transform="scale(1 1) rotate(0) translate(4 171)">
<title>kernel/src</title>
<g id="clust1" class="cluster">
<title>clusterdir_dc43877d82dd332f9fb2071fcca799d6</title>
<g id="a_clust1"><a xlink:href="dir_dc43877d82dd332f9fb2071fcca799d6.html" target="_top" xlink:title="kernel">
<polygon fill="#daedff" stroke="#404040" stroke-dasharray="5,2" points="8,-8 8,-159 166,-159 166,-8 8,-8"/>
<text text-anchor="middle" x="87" y="-147" font-family="Helvetica,sans-Serif" font-size="10.00">kernel</text>
</a>
</g>
</g>
<g id="clust2" class="cluster">
<title>clusterdir_3dd30a497388ee684638f120a124721c</title>
<g id="a_clust2"><a xlink:href="dir_3dd30a497388ee684638f120a124721c.html" target="_top">
<polygon fill="#daedff" stroke="#404040" stroke-width="2" points="16,-80 16,-132 158,-132 158,-80 16,-80"/>
</a>
</g>
</g>
<!-- dir_009f605b833ac4622acd6c3c0c26c0f0 -->
<g id="node1" class="node">
<title>dir_009f605b833ac4622acd6c3c0c26c0f0</title>
<g id="a_node1"><a xlink:href="dir_009f605b833ac4622acd6c3c0c26c0f0.html" target="_top" xlink:title="include">
<polygon fill="#4ea9ff" stroke="#404040" points="77,-52 23,-52 23,-16 77,-16 77,-52"/>
<text text-anchor="middle" x="50" y="-31.5" font-family="Helvetica,sans-Serif" font-size="10.00">include</text>
</a>
</g>
</g>
<!-- dir_3b56f342b296dbd02822514f463eed17 -->
<g id="node2" class="node">
<title>dir_3b56f342b296dbd02822514f463eed17</title>
<g id="a_node2"><a xlink:href="dir_3b56f342b296dbd02822514f463eed17.html" target="_top" xlink:title="framework">
<polygon fill="#4ea9ff" stroke="#404040" points="157,-52 95,-52 95,-16 157,-16 157,-52"/>
<text text-anchor="middle" x="126" y="-31.5" font-family="Helvetica,sans-Serif" font-size="10.00">framework</text>
</a>
</g>
</g>
<!-- dir_3dd30a497388ee684638f120a124721c -->
<g id="node3" class="node">
<title>dir_3dd30a497388ee684638f120a124721c</title>
<text text-anchor="middle" x="123" y="-103.5" font-family="Helvetica,sans-Serif" font-size="10.00">src</text>
</g>
<!-- dir_3dd30a497388ee684638f120a124721c&#45;&gt;dir_009f605b833ac4622acd6c3c0c26c0f0 -->
<g id="edge1" class="edge">
<title>dir_3dd30a497388ee684638f120a124721c&#45;&gt;dir_009f605b833ac4622acd6c3c0c26c0f0</title>
<path fill="none" stroke="black" d="M104.96,-87.7C95.94,-79.05 84.88,-68.45 75.06,-59.03"/>
<polygon fill="black" stroke="black" points="77.48,-56.5 67.84,-52.1 72.63,-61.55 77.48,-56.5"/>
<g id="a_edge1&#45;headlabel"><a xlink:href="dir_000013_000007.html" target="_top" xlink:title="19">
<text text-anchor="middle" x="82.04" y="-54.44" font-family="Helvetica,sans-Serif" font-size="10.00">19</text>
</a>
</g>
</g>
<!-- dir_3dd30a497388ee684638f120a124721c&#45;&gt;dir_3b56f342b296dbd02822514f463eed17 -->
<g id="edge2" class="edge">
<title>dir_3dd30a497388ee684638f120a124721c&#45;&gt;dir_3b56f342b296dbd02822514f463eed17</title>
<path fill="none" stroke="black" d="M123.74,-87.7C124.07,-79.98 124.47,-70.71 124.84,-62.11"/>
<polygon fill="black" stroke="black" points="128.34,-62.25 125.27,-52.1 121.34,-61.95 128.34,-62.25"/>
<g id="a_edge2&#45;headlabel"><a xlink:href="dir_000013_000004.html" target="_top" xlink:title="3">
<text text-anchor="middle" x="131.02" y="-63.46" font-family="Helvetica,sans-Serif" font-size="10.00">3</text>
</a>
</g>
</g>
<!-- dir_57953e885fa30d3cda66aaff14f5e717 -->
<g id="node5" class="node">
<title>dir_57953e885fa30d3cda66aaff14f5e717</title>
<g id="a_node5"><a xlink:href="dir_57953e885fa30d3cda66aaff14f5e717.html" target="_top" xlink:title="abstract&#45;machine">
<polygon fill="none" stroke="red" points="267,-52 175,-52 175,-16 267,-16 267,-52"/>
<text text-anchor="middle" x="221" y="-31.5" font-family="Helvetica,sans-Serif" font-size="10.00">abstract&#45;machine</text>
</a>
</g>
</g>
<!-- dir_3dd30a497388ee684638f120a124721c&#45;&gt;dir_57953e885fa30d3cda66aaff14f5e717 -->
<g id="edge3" class="edge">
<title>dir_3dd30a497388ee684638f120a124721c&#45;&gt;dir_57953e885fa30d3cda66aaff14f5e717</title>
<path fill="none" stroke="black" d="M146.97,-87.88C159.55,-78.89 175.13,-67.76 188.75,-58.03"/>
<polygon fill="black" stroke="black" points="190.83,-60.85 196.93,-52.19 186.76,-55.15 190.83,-60.85"/>
<g id="a_edge3&#45;headlabel"><a xlink:href="dir_000013_000000.html" target="_top" xlink:title="2">
<text text-anchor="middle" x="189.56" y="-62.75" font-family="Helvetica,sans-Serif" font-size="10.00">2</text>
</a>
</g>
</g>
<!-- dir_be1f786667d91f6c465a2c1f576864bf -->
<g id="node4" class="node">
<title>dir_be1f786667d91f6c465a2c1f576864bf</title>
<g id="a_node4"><a xlink:href="dir_be1f786667d91f6c465a2c1f576864bf.html" target="_top" xlink:title="dev">
<polygon fill="#4ea9ff" stroke="#404040" points="78,-124 24,-124 24,-88 78,-88 78,-124"/>
<text text-anchor="middle" x="51" y="-103.5" font-family="Helvetica,sans-Serif" font-size="10.00">dev</text>
</a>
</g>
</g>
<!-- dir_be1f786667d91f6c465a2c1f576864bf&#45;&gt;dir_009f605b833ac4622acd6c3c0c26c0f0 -->
<g id="edge4" class="edge">
<title>dir_be1f786667d91f6c465a2c1f576864bf&#45;&gt;dir_009f605b833ac4622acd6c3c0c26c0f0</title>
<path fill="none" stroke="black" d="M50.75,-87.7C50.64,-79.98 50.51,-70.71 50.39,-62.11"/>
<polygon fill="black" stroke="black" points="53.89,-62.05 50.24,-52.1 46.89,-62.15 53.89,-62.05"/>
<g id="a_edge4&#45;headlabel"><a xlink:href="dir_000002_000007.html" target="_top" xlink:title="5">
<text text-anchor="middle" x="56.78" y="-63.11" font-family="Helvetica,sans-Serif" font-size="10.00">5</text>
</a>
</g>
</g>
</g>
</svg>
