<?xml version="1.0" encoding="UTF-8" standalone="no"?>
<!DOCTYPE svg PUBLIC "-//W3C//DTD SVG 1.1//EN"
 "http://www.w3.org/Graphics/SVG/1.1/DTD/svg11.dtd">
<!-- Generated by graphviz version 2.50.0 (20220203.2022)
 -->
<!-- Title: kernel/include Pages: 1 -->
<svg width="196pt" height="167pt"
 viewBox="0.00 0.00 196.00 167.00" xmlns="http://www.w3.org/2000/svg" xmlns:xlink="http://www.w3.org/1999/xlink">
<g id="graph0" class="graph" transform="scale(1 1) rotate(0) translate(4 163)">
<title>kernel/include</title>
<g id="clust1" class="cluster">
<title>clusterdir_dc43877d82dd332f9fb2071fcca799d6</title>
<g id="a_clust1"><a xlink:href="dir_dc43877d82dd332f9fb2071fcca799d6.html" target="_top" xlink:title="kernel">
<polygon fill="#daedff" stroke="#404040" stroke-dasharray="5,2" points="8,-8 8,-151 86,-151 86,-8 8,-8"/>
<text text-anchor="middle" x="47" y="-139" font-family="Helvetica,sans-Serif" font-size="10.00">kernel</text>
</a>
</g>
</g>
<!-- dir_3b56f342b296dbd02822514f463eed17 -->
<g id="node1" class="node">
<title>dir_3b56f342b296dbd02822514f463eed17</title>
<g id="a_node1"><a xlink:href="dir_3b56f342b296dbd02822514f463eed17.html" target="_top" xlink:title="framework">
<polygon fill="#4ea9ff" stroke="#404040" points="78,-52 16,-52 16,-16 78,-16 78,-52"/>
<text text-anchor="middle" x="47" y="-31.5" font-family="Helvetica,sans-Serif" font-size="10.00">framework</text>
</a>
</g>
</g>
<!-- dir_009f605b833ac4622acd6c3c0c26c0f0 -->
<g id="node2" class="node">
<title>dir_009f605b833ac4622acd6c3c0c26c0f0</title>
<g id="a_node2"><a xlink:href="dir_009f605b833ac4622acd6c3c0c26c0f0.html" target="_top" xlink:title="include">
<polygon fill="#daedff" stroke="#404040" stroke-width="2" points="76,-124 22,-124 22,-88 76,-88 76,-124"/>
<text text-anchor="middle" x="49" y="-103.5" font-family="Helvetica,sans-Serif" font-size="10.00">include</text>
</a>
</g>
</g>
<!-- dir_009f605b833ac4622acd6c3c0c26c0f0&#45;&gt;dir_3b56f342b296dbd02822514f463eed17 -->
<g id="edge1" class="edge">
<title>dir_009f605b833ac4622acd6c3c0c26c0f0&#45;&gt;dir_3b56f342b296dbd02822514f463eed17</title>
<path fill="none" stroke="black" d="M48.51,-87.7C48.29,-79.98 48.02,-70.71 47.77,-62.11"/>
<polygon fill="black" stroke="black" points="51.27,-62 47.49,-52.1 44.28,-62.2 51.27,-62"/>
<g id="a_edge1&#45;headlabel"><a xlink:href="dir_000006_000003.html" target="_top" xlink:title="1">
<text text-anchor="middle" x="54.21" y="-63.01" font-family="Helvetica,sans-Serif" font-size="10.00">1</text>
</a>
</g>
</g>
<!-- dir_57953e885fa30d3cda66aaff14f5e717 -->
<g id="node3" class="node">
<title>dir_57953e885fa30d3cda66aaff14f5e717</title>
<g id="a_node3"><a xlink:href="dir_57953e885fa30d3cda66aaff14f5e717.html" target="_top" xlink:title="abstract&#45;machine">
<polygon fill="none" stroke="red" points="188,-52 96,-52 96,-16 188,-16 188,-52"/>
<text text-anchor="middle" x="142" y="-31.5" font-family="Helvetica,sans-Serif" font-size="10.00">abstract&#45;machine</text>
</a>
</g>
</g>
<!-- dir_009f605b833ac4622acd6c3c0c26c0f0&#45;&gt;dir_57953e885fa30d3cda66aaff14f5e717 -->
<g id="edge2" class="edge">
<title>dir_009f605b833ac4622acd6c3c0c26c0f0&#45;&gt;dir_57953e885fa30d3cda66aaff14f5e717</title>
<path fill="none" stroke="black" d="M71.99,-87.7C83.81,-78.8 98.39,-67.82 111.18,-58.2"/>
<polygon fill="black" stroke="black" points="113.39,-60.91 119.28,-52.1 109.18,-55.32 113.39,-60.91"/>
<g id="a_edge2&#45;headlabel"><a xlink:href="dir_000006_000000.html" target="_top" xlink:title="2">
<text text-anchor="middle" x="112.23" y="-62.84" font-family="Helvetica,sans-Serif" font-size="10.00">2</text>
</a>
</g>
</g>
</g>
</svg>
