<?xml version="1.0" encoding="UTF-8" standalone="no"?>
<!DOCTYPE svg PUBLIC "-//W3C//DTD SVG 1.1//EN"
 "http://www.w3.org/Graphics/SVG/1.1/DTD/svg11.dtd">
<!-- Generated by graphviz version 2.50.0 (20220203.2022)
 -->
<!-- Title: abstract&#45;machine/am/src/native/ioe/disk.c Pages: 1 -->
<svg width="353pt" height="151pt"
 viewBox="0.00 0.00 352.50 151.00" xmlns="http://www.w3.org/2000/svg" xmlns:xlink="http://www.w3.org/1999/xlink">
<g id="graph0" class="graph" transform="scale(1 1) rotate(0) translate(4 147)">
<title>abstract&#45;machine/am/src/native/ioe/disk.c</title>
<!-- Node1 -->
<g id="node1" class="node">
<title>Node1</title>
<g id="a_node1"><a xlink:title=" ">
<polygon fill="#bfbfbf" stroke="black" points="167,-112.5 167,-142.5 275,-142.5 275,-112.5 167,-112.5"/>
<text text-anchor="start" x="175" y="-130.5" font-family="Helvetica,sans-Serif" font-size="10.00">abstract&#45;machine/am</text>
<text text-anchor="middle" x="221" y="-119.5" font-family="Helvetica,sans-Serif" font-size="10.00">/src/native/ioe/disk.c</text>
</a>
</g>
</g>
<!-- Node2 -->
<g id="node2" class="node">
<title>Node2</title>
<g id="a_node2"><a xlink:href="am_8h.html" target="_top" xlink:title=" ">
<polygon fill="none" stroke="black" points="109,-56.5 109,-75.5 147,-75.5 147,-56.5 109,-56.5"/>
<text text-anchor="middle" x="128" y="-63.5" font-family="Helvetica,sans-Serif" font-size="10.00">am.h</text>
</a>
</g>
</g>
<!-- Node1&#45;&gt;Node2 -->
<g id="edge1" class="edge">
<title>Node1&#45;&gt;Node2</title>
<path fill="none" stroke="midnightblue" d="M198.96,-112.4C184.19,-102.95 164.82,-90.56 150.05,-81.11"/>
<polygon fill="midnightblue" stroke="midnightblue" points="151.84,-78.1 141.53,-75.66 148.07,-84 151.84,-78.1"/>
</g>
<!-- Node7 -->
<g id="node7" class="node">
<title>Node7</title>
<g id="a_node7"><a xlink:title=" ">
<polygon fill="none" stroke="#bfbfbf" points="165.5,-56.5 165.5,-75.5 212.5,-75.5 212.5,-56.5 165.5,-56.5"/>
<text text-anchor="middle" x="189" y="-63.5" font-family="Helvetica,sans-Serif" font-size="10.00">stdlib.h</text>
</a>
</g>
</g>
<!-- Node1&#45;&gt;Node7 -->
<g id="edge6" class="edge">
<title>Node1&#45;&gt;Node7</title>
<path fill="none" stroke="midnightblue" d="M213.42,-112.4C208.96,-104.11 203.28,-93.55 198.52,-84.71"/>
<polygon fill="midnightblue" stroke="midnightblue" points="201.48,-82.81 193.66,-75.66 195.31,-86.12 201.48,-82.81"/>
</g>
<!-- Node8 -->
<g id="node8" class="node">
<title>Node8</title>
<g id="a_node8"><a xlink:title=" ">
<polygon fill="none" stroke="#bfbfbf" points="230.5,-56.5 230.5,-75.5 275.5,-75.5 275.5,-56.5 230.5,-56.5"/>
<text text-anchor="middle" x="253" y="-63.5" font-family="Helvetica,sans-Serif" font-size="10.00">stdio.h</text>
</a>
</g>
</g>
<!-- Node1&#45;&gt;Node8 -->
<g id="edge7" class="edge">
<title>Node1&#45;&gt;Node8</title>
<path fill="none" stroke="midnightblue" d="M228.58,-112.4C233.04,-104.11 238.72,-93.55 243.48,-84.71"/>
<polygon fill="midnightblue" stroke="midnightblue" points="246.69,-86.12 248.34,-75.66 240.52,-82.81 246.69,-86.12"/>
</g>
<!-- Node9 -->
<g id="node9" class="node">
<title>Node9</title>
<g id="a_node9"><a xlink:title=" ">
<polygon fill="none" stroke="#bfbfbf" points="293.5,-56.5 293.5,-75.5 344.5,-75.5 344.5,-56.5 293.5,-56.5"/>
<text text-anchor="middle" x="319" y="-63.5" font-family="Helvetica,sans-Serif" font-size="10.00">assert.h</text>
</a>
</g>
</g>
<!-- Node1&#45;&gt;Node9 -->
<g id="edge8" class="edge">
<title>Node1&#45;&gt;Node9</title>
<path fill="none" stroke="midnightblue" d="M244.22,-112.4C259.79,-102.95 280.2,-90.56 295.76,-81.11"/>
<polygon fill="midnightblue" stroke="midnightblue" points="298.01,-83.84 304.74,-75.66 294.38,-77.86 298.01,-83.84"/>
</g>
<!-- Node3 -->
<g id="node3" class="node">
<title>Node3</title>
<g id="a_node3"><a xlink:title=" ">
<polygon fill="none" stroke="#bfbfbf" points="0,-0.5 0,-19.5 48,-19.5 48,-0.5 0,-0.5"/>
<text text-anchor="middle" x="24" y="-7.5" font-family="Helvetica,sans-Serif" font-size="10.00">stdint.h</text>
</a>
</g>
</g>
<!-- Node2&#45;&gt;Node3 -->
<g id="edge2" class="edge">
<title>Node2&#45;&gt;Node3</title>
<path fill="none" stroke="midnightblue" d="M111.29,-56.32C94.69,-47.7 69,-34.36 49.78,-24.39"/>
<polygon fill="midnightblue" stroke="midnightblue" points="51.16,-21.16 40.67,-19.65 47.93,-27.37 51.16,-21.16"/>
</g>
<!-- Node4 -->
<g id="node4" class="node">
<title>Node4</title>
<g id="a_node4"><a xlink:title=" ">
<polygon fill="none" stroke="#bfbfbf" points="66.5,-0.5 66.5,-19.5 117.5,-19.5 117.5,-0.5 66.5,-0.5"/>
<text text-anchor="middle" x="92" y="-7.5" font-family="Helvetica,sans-Serif" font-size="10.00">stddef.h</text>
</a>
</g>
</g>
<!-- Node2&#45;&gt;Node4 -->
<g id="edge3" class="edge">
<title>Node2&#45;&gt;Node4</title>
<path fill="none" stroke="midnightblue" d="M122.06,-56.08C117.02,-48.53 109.66,-37.49 103.49,-28.23"/>
<polygon fill="midnightblue" stroke="midnightblue" points="106.29,-26.13 97.83,-19.75 100.47,-30.01 106.29,-26.13"/>
</g>
<!-- Node5 -->
<g id="node5" class="node">
<title>Node5</title>
<g id="a_node5"><a xlink:title=" ">
<polygon fill="none" stroke="#bfbfbf" points="136,-0.5 136,-19.5 192,-19.5 192,-0.5 136,-0.5"/>
<text text-anchor="middle" x="164" y="-7.5" font-family="Helvetica,sans-Serif" font-size="10.00">stdbool.h</text>
</a>
</g>
</g>
<!-- Node2&#45;&gt;Node5 -->
<g id="edge4" class="edge">
<title>Node2&#45;&gt;Node5</title>
<path fill="none" stroke="midnightblue" d="M133.94,-56.08C138.98,-48.53 146.34,-37.49 152.51,-28.23"/>
<polygon fill="midnightblue" stroke="midnightblue" points="155.53,-30.01 158.17,-19.75 149.71,-26.13 155.53,-30.01"/>
</g>
<!-- Node6 -->
<g id="node6" class="node">
<title>Node6</title>
<g id="a_node6"><a xlink:href="amdev_8h.html" target="_top" xlink:title=" ">
<polygon fill="none" stroke="black" points="210.5,-0.5 210.5,-19.5 263.5,-19.5 263.5,-0.5 210.5,-0.5"/>
<text text-anchor="middle" x="237" y="-7.5" font-family="Helvetica,sans-Serif" font-size="10.00">amdev.h</text>
</a>
</g>
</g>
<!-- Node2&#45;&gt;Node6 -->
<g id="edge5" class="edge">
<title>Node2&#45;&gt;Node6</title>
<path fill="none" stroke="midnightblue" d="M145.51,-56.32C163.07,-47.62 190.33,-34.12 210.53,-24.11"/>
<polygon fill="midnightblue" stroke="midnightblue" points="212.12,-27.23 219.53,-19.65 209.02,-20.96 212.12,-27.23"/>
</g>
</g>
</svg>
