<?xml version="1.0" encoding="UTF-8" standalone="no"?>
<!DOCTYPE svg PUBLIC "-//W3C//DTD SVG 1.1//EN"
 "http://www.w3.org/Graphics/SVG/1.1/DTD/svg11.dtd">
<!-- Generated by graphviz version 2.50.0 (20220203.2022)
 -->
<!-- Title: event_thread Pages: 1 -->
<svg width="496pt" height="104pt"
 viewBox="0.00 0.00 496.00 104.00" xmlns="http://www.w3.org/2000/svg" xmlns:xlink="http://www.w3.org/1999/xlink">
<g id="graph0" class="graph" transform="scale(1 1) rotate(0) translate(4 100)">
<title>event_thread</title>
<!-- Node1 -->
<g id="node1" class="node">
<title>Node1</title>
<g id="a_node1"><a xlink:title=" ">
<polygon fill="#bfbfbf" stroke="black" points="415,-19.5 415,-38.5 488,-38.5 488,-19.5 415,-19.5"/>
<text text-anchor="middle" x="451.5" y="-26.5" font-family="Helvetica,sans-Serif" font-size="10.00">event_thread</text>
</a>
</g>
</g>
<!-- Node2 -->
<g id="node2" class="node">
<title>Node2</title>
<g id="a_node2"><a xlink:href="input_8c.html#a02d166c8d2549e580fd16379de9e80f1" target="_top" xlink:title=" ">
<polygon fill="none" stroke="black" points="294,-19.5 294,-38.5 379,-38.5 379,-19.5 294,-19.5"/>
<text text-anchor="middle" x="336.5" y="-26.5" font-family="Helvetica,sans-Serif" font-size="10.00">__am_input_init</text>
</a>
</g>
</g>
<!-- Node1&#45;&gt;Node2 -->
<g id="edge1" class="edge">
<title>Node1&#45;&gt;Node2</title>
<path fill="none" stroke="midnightblue" d="M404.72,-29C396.33,-29 387.61,-29 379.34,-29"/>
<polygon fill="midnightblue" stroke="midnightblue" points="404.75,-32.5 414.75,-29 404.75,-25.5 404.75,-32.5"/>
</g>
<!-- Node3 -->
<g id="node3" class="node">
<title>Node3</title>
<g id="a_node3"><a xlink:href="native_2ioe_8c.html#a85e8849eae1811aa4fa0527476f39782" target="_top" xlink:title=" ">
<polygon fill="none" stroke="black" points="181,-19.5 181,-38.5 258,-38.5 258,-19.5 181,-19.5"/>
<text text-anchor="middle" x="219.5" y="-26.5" font-family="Helvetica,sans-Serif" font-size="10.00">__am_ioe_init</text>
</a>
</g>
</g>
<!-- Node2&#45;&gt;Node3 -->
<g id="edge2" class="edge">
<title>Node2&#45;&gt;Node3</title>
<path fill="none" stroke="midnightblue" d="M283.92,-29C275.24,-29 266.38,-29 258.14,-29"/>
<polygon fill="midnightblue" stroke="midnightblue" points="283.98,-32.5 293.98,-29 283.98,-25.5 283.98,-32.5"/>
</g>
<!-- Node4 -->
<g id="node4" class="node">
<title>Node4</title>
<g id="a_node4"><a xlink:href="native_2ioe_8c.html#ac7243d0dd8589da2317ee06ee132c2f0" target="_top" xlink:title=" ">
<polygon fill="none" stroke="black" points="98.5,-38.5 98.5,-57.5 138.5,-57.5 138.5,-38.5 98.5,-38.5"/>
<text text-anchor="middle" x="118.5" y="-45.5" font-family="Helvetica,sans-Serif" font-size="10.00">do_io</text>
</a>
</g>
</g>
<!-- Node3&#45;&gt;Node4 -->
<g id="edge3" class="edge">
<title>Node3&#45;&gt;Node4</title>
<path fill="none" stroke="midnightblue" d="M170.83,-38.15C159.38,-40.35 147.81,-42.57 138.56,-44.34"/>
<polygon fill="midnightblue" stroke="midnightblue" points="171.63,-41.56 180.79,-36.24 170.31,-34.68 171.63,-41.56"/>
</g>
<!-- Node7 -->
<g id="node7" class="node">
<title>Node7</title>
<g id="a_node7"><a xlink:href="x86_2qemu_2mpe_8c.html#a2e4a724e2d067425ff3fd49bc0bf42e1" target="_top" xlink:title=" ">
<polygon fill="none" stroke="black" points="92,-0.5 92,-19.5 145,-19.5 145,-0.5 92,-0.5"/>
<text text-anchor="middle" x="118.5" y="-7.5" font-family="Helvetica,sans-Serif" font-size="10.00">mpe_init</text>
</a>
</g>
</g>
<!-- Node3&#45;&gt;Node7 -->
<g id="edge6" class="edge">
<title>Node3&#45;&gt;Node7</title>
<path fill="none" stroke="midnightblue" d="M170.86,-19.86C161.98,-18.15 153.03,-16.43 145.13,-14.92"/>
<polygon fill="midnightblue" stroke="midnightblue" points="170.31,-23.32 180.79,-21.76 171.63,-16.44 170.31,-23.32"/>
</g>
<!-- Node5 -->
<g id="node5" class="node">
<title>Node5</title>
<g id="a_node5"><a xlink:href="x86_2qemu_2ioe_8c.html#a9e4d8844a1b291f3594ac00297a918a4" target="_top" xlink:title=" ">
<polygon fill="none" stroke="black" points="1.5,-76.5 1.5,-95.5 54.5,-95.5 54.5,-76.5 1.5,-76.5"/>
<text text-anchor="middle" x="28" y="-83.5" font-family="Helvetica,sans-Serif" font-size="10.00">ioe_read</text>
</a>
</g>
</g>
<!-- Node4&#45;&gt;Node5 -->
<g id="edge4" class="edge">
<title>Node4&#45;&gt;Node5</title>
<path fill="none" stroke="midnightblue" d="M88.98,-60.24C76.77,-65.49 62.72,-71.52 51.29,-76.43"/>
<polygon fill="midnightblue" stroke="midnightblue" points="90.49,-63.41 98.3,-56.25 87.73,-56.97 90.49,-63.41"/>
</g>
<!-- Node6 -->
<g id="node6" class="node">
<title>Node6</title>
<g id="a_node6"><a xlink:href="x86_2qemu_2ioe_8c.html#ad1964375eeefa10b564a3bf2bd322db0" target="_top" xlink:title=" ">
<polygon fill="none" stroke="black" points="0,-38.5 0,-57.5 56,-57.5 56,-38.5 0,-38.5"/>
<text text-anchor="middle" x="28" y="-45.5" font-family="Helvetica,sans-Serif" font-size="10.00">ioe_write</text>
</a>
</g>
</g>
<!-- Node4&#45;&gt;Node6 -->
<g id="edge5" class="edge">
<title>Node4&#45;&gt;Node6</title>
<path fill="none" stroke="midnightblue" d="M88.12,-48C77.83,-48 66.33,-48 56.22,-48"/>
<polygon fill="midnightblue" stroke="midnightblue" points="88.3,-51.5 98.3,-48 88.3,-44.5 88.3,-51.5"/>
</g>
<!-- Node8 -->
<g id="node8" class="node">
<title>Node8</title>
<g id="a_node8"><a xlink:href="kernel_2framework_2main_8c.html#ae66f6b31b5ad750f1fe042a706a4e3d4" target="_top" xlink:title=" ">
<polygon fill="none" stroke="black" points="9,-0.5 9,-19.5 47,-19.5 47,-0.5 9,-0.5"/>
<text text-anchor="middle" x="28" y="-7.5" font-family="Helvetica,sans-Serif" font-size="10.00">main</text>
</a>
</g>
</g>
<!-- Node7&#45;&gt;Node8 -->
<g id="edge7" class="edge">
<title>Node7&#45;&gt;Node8</title>
<path fill="none" stroke="midnightblue" d="M81.79,-10C69.93,-10 57.21,-10 47.24,-10"/>
<polygon fill="midnightblue" stroke="midnightblue" points="81.9,-13.5 91.9,-10 81.9,-6.5 81.9,-13.5"/>
</g>
</g>
</svg>
