<?xml version="1.0" encoding="UTF-8" standalone="no"?>
<!DOCTYPE svg PUBLIC "-//W3C//DTD SVG 1.1//EN"
 "http://www.w3.org/Graphics/SVG/1.1/DTD/svg11.dtd">
<!-- Generated by graphviz version 2.50.0 (20220203.2022)
 -->
<!-- Title: event_thread Pages: 1 -->
<svg width="589pt" height="313pt"
 viewBox="0.00 0.00 589.00 313.00" xmlns="http://www.w3.org/2000/svg" xmlns:xlink="http://www.w3.org/1999/xlink">
<g id="graph0" class="graph" transform="scale(1 1) rotate(0) translate(4 309)">
<title>event_thread</title>
<!-- Node1 -->
<g id="node1" class="node">
<title>Node1</title>
<g id="a_node1"><a xlink:title=" ">
<polygon fill="#bfbfbf" stroke="black" points="0,-152.5 0,-171.5 73,-171.5 73,-152.5 0,-152.5"/>
<text text-anchor="middle" x="36.5" y="-159.5" font-family="Helvetica,sans-Serif" font-size="10.00">event_thread</text>
</a>
</g>
</g>
<!-- Node2 -->
<g id="node2" class="node">
<title>Node2</title>
<g id="a_node2"><a xlink:href="platform_8c.html#ac9a72275bbb5c5a92fdd21dfb051b5d4" target="_top" xlink:title=" ">
<polygon fill="none" stroke="black" points="109,-171.5 109,-190.5 216,-190.5 216,-171.5 109,-171.5"/>
<text text-anchor="middle" x="162.5" y="-178.5" font-family="Helvetica,sans-Serif" font-size="10.00">__am_send_kbd_intr</text>
</a>
</g>
</g>
<!-- Node1&#45;&gt;Node2 -->
<g id="edge1" class="edge">
<title>Node1&#45;&gt;Node2</title>
<path fill="none" stroke="midnightblue" d="M73.03,-167.44C81.14,-168.69 90,-170.04 98.87,-171.4"/>
<polygon fill="midnightblue" stroke="midnightblue" points="98.44,-174.88 108.86,-172.93 99.5,-167.96 98.44,-174.88"/>
</g>
<!-- Node3 -->
<g id="node3" class="node">
<title>Node3</title>
<g id="a_node3"><a xlink:href="x86_2qemu_2trm_8c.html#a483cb97188e557c3c68d3a1572c2cc92" target="_top" xlink:title=" ">
<polygon fill="none" stroke="black" points="146.5,-133.5 146.5,-152.5 178.5,-152.5 178.5,-133.5 146.5,-133.5"/>
<text text-anchor="middle" x="162.5" y="-140.5" font-family="Helvetica,sans-Serif" font-size="10.00">halt</text>
</a>
</g>
</g>
<!-- Node1&#45;&gt;Node3 -->
<g id="edge2" class="edge">
<title>Node1&#45;&gt;Node3</title>
<path fill="none" stroke="midnightblue" d="M73.03,-156.56C93.28,-153.45 118.16,-149.64 136.37,-146.85"/>
<polygon fill="midnightblue" stroke="midnightblue" points="137.14,-150.27 146.49,-145.3 136.08,-143.35 137.14,-150.27"/>
</g>
<!-- Node4 -->
<g id="node4" class="node">
<title>Node4</title>
<g id="a_node4"><a xlink:href="platform_8c.html#a66cf43dfc7e13b3775d6d2040722da59" target="_top" xlink:title=" ">
<polygon fill="none" stroke="black" points="257.5,-275.5 257.5,-294.5 358.5,-294.5 358.5,-275.5 257.5,-275.5"/>
<text text-anchor="middle" x="308" y="-282.5" font-family="Helvetica,sans-Serif" font-size="10.00">__am_exit_platform</text>
</a>
</g>
</g>
<!-- Node3&#45;&gt;Node4 -->
<g id="edge3" class="edge">
<title>Node3&#45;&gt;Node4</title>
<path fill="none" stroke="midnightblue" d="M178.67,-145.01C190.26,-147.29 205.92,-152.07 216,-162 248.17,-193.69 221.85,-223.39 252,-257 256.97,-262.54 263.29,-267.13 269.86,-270.89"/>
<polygon fill="midnightblue" stroke="midnightblue" points="268.38,-274.06 278.87,-275.5 271.56,-267.83 268.38,-274.06"/>
</g>
<!-- Node6 -->
<g id="node6" class="node">
<title>Node6</title>
<g id="a_node6"><a xlink:href="x86_2qemu_2mpe_8c.html#a0a540532023afb1f31b6f21ce053483b" target="_top" xlink:title=" ">
<polygon fill="none" stroke="black" points="252,-228.5 252,-247.5 364,-247.5 364,-228.5 252,-228.5"/>
<text text-anchor="middle" x="308" y="-235.5" font-family="Helvetica,sans-Serif" font-size="10.00">__am_stop_the_world</text>
</a>
</g>
</g>
<!-- Node3&#45;&gt;Node6 -->
<g id="edge5" class="edge">
<title>Node3&#45;&gt;Node6</title>
<path fill="none" stroke="midnightblue" d="M178.61,-145.7C189.87,-148.33 205.12,-153.25 216,-162 239.35,-180.78 228.52,-200.39 252,-219 254.26,-220.79 256.71,-222.42 259.26,-223.9"/>
<polygon fill="midnightblue" stroke="midnightblue" points="257.77,-227.07 268.29,-228.38 260.89,-220.8 257.77,-227.07"/>
</g>
<!-- Node12 -->
<g id="node12" class="node">
<title>Node12</title>
<g id="a_node12"><a xlink:href="x86_8h.html#acc919e7809ef1db2b20aa3804f540b5c" target="_top" xlink:title=" ">
<polygon fill="none" stroke="black" points="293.5,-190.5 293.5,-209.5 322.5,-209.5 322.5,-190.5 293.5,-190.5"/>
<text text-anchor="middle" x="308" y="-197.5" font-family="Helvetica,sans-Serif" font-size="10.00">cli</text>
</a>
</g>
</g>
<!-- Node3&#45;&gt;Node12 -->
<g id="edge11" class="edge">
<title>Node3&#45;&gt;Node12</title>
<path fill="none" stroke="midnightblue" d="M178.88,-147.94C189.47,-151.49 203.77,-156.59 216,-162 232.55,-169.32 235.4,-173.8 252,-181 262.18,-185.41 273.75,-189.54 283.64,-192.81"/>
<polygon fill="midnightblue" stroke="midnightblue" points="282.63,-196.16 293.22,-195.88 284.77,-189.49 282.63,-196.16"/>
</g>
<!-- Node13 -->
<g id="node13" class="node">
<title>Node13</title>
<g id="a_node13"><a xlink:href="x86_2qemu_2mpe_8c.html#ab701de78cad32896c923ce900087e714" target="_top" xlink:title=" ">
<polygon fill="none" stroke="black" points="274,-152.5 274,-171.5 342,-171.5 342,-152.5 274,-152.5"/>
<text text-anchor="middle" x="308" y="-159.5" font-family="Helvetica,sans-Serif" font-size="10.00">cpu_current</text>
</a>
</g>
</g>
<!-- Node3&#45;&gt;Node13 -->
<g id="edge12" class="edge">
<title>Node3&#45;&gt;Node13</title>
<path fill="none" stroke="midnightblue" d="M178.59,-145C198.58,-147.64 234.7,-152.43 263.55,-156.25"/>
<polygon fill="midnightblue" stroke="midnightblue" points="263.43,-159.76 273.8,-157.6 264.35,-152.82 263.43,-159.76"/>
</g>
<!-- Node14 -->
<g id="node14" class="node">
<title>Node14</title>
<g id="a_node14"><a xlink:href="x86_8h.html#a2adfe40c0aadff727889d263815cb8ed" target="_top" xlink:title=" ">
<polygon fill="none" stroke="black" points="293.5,-114.5 293.5,-133.5 322.5,-133.5 322.5,-114.5 293.5,-114.5"/>
<text text-anchor="middle" x="308" y="-121.5" font-family="Helvetica,sans-Serif" font-size="10.00">hlt</text>
</a>
</g>
</g>
<!-- Node3&#45;&gt;Node14 -->
<g id="edge13" class="edge">
<title>Node3&#45;&gt;Node14</title>
<path fill="none" stroke="midnightblue" d="M178.59,-141C203.58,-137.69 253.76,-131.05 283.45,-127.12"/>
<polygon fill="midnightblue" stroke="midnightblue" points="283.93,-130.59 293.38,-125.8 283.01,-123.65 283.93,-130.59"/>
</g>
<!-- Node15 -->
<g id="node15" class="node">
<title>Node15</title>
<g id="a_node15"><a xlink:href="x86_8h.html#af92fc55c49437b9152499a13ba2b6585" target="_top" xlink:title=" ">
<polygon fill="none" stroke="black" points="289,-76.5 289,-95.5 327,-95.5 327,-76.5 289,-76.5"/>
<text text-anchor="middle" x="308" y="-83.5" font-family="Helvetica,sans-Serif" font-size="10.00">outw</text>
</a>
</g>
</g>
<!-- Node3&#45;&gt;Node15 -->
<g id="edge14" class="edge">
<title>Node3&#45;&gt;Node15</title>
<path fill="none" stroke="midnightblue" d="M178.71,-136.07C196.23,-128.18 225.96,-115.07 252,-105 260.67,-101.65 270.21,-98.25 278.88,-95.27"/>
<polygon fill="midnightblue" stroke="midnightblue" points="280.2,-98.52 288.55,-92 277.95,-91.89 280.2,-98.52"/>
</g>
<!-- Node16 -->
<g id="node16" class="node">
<title>Node16</title>
<g id="a_node16"><a xlink:href="stdio_8c.html#a55f3d956bb2ba20b5059e9e25484a47f" target="_top" xlink:title=" ">
<polygon fill="none" stroke="black" points="289,-38.5 289,-57.5 327,-57.5 327,-38.5 289,-38.5"/>
<text text-anchor="middle" x="308" y="-45.5" font-family="Helvetica,sans-Serif" font-size="10.00">printf</text>
</a>
</g>
</g>
<!-- Node3&#45;&gt;Node16 -->
<g id="edge15" class="edge">
<title>Node3&#45;&gt;Node16</title>
<path fill="none" stroke="midnightblue" d="M172.4,-133.27C187.42,-117.38 219.33,-85.75 252,-67 260.4,-62.18 270.23,-58.3 279.23,-55.34"/>
<polygon fill="midnightblue" stroke="midnightblue" points="280.38,-58.65 288.93,-52.38 278.34,-51.95 280.38,-58.65"/>
</g>
<!-- Node17 -->
<g id="node17" class="node">
<title>Node17</title>
<g id="a_node17"><a xlink:href="native_2trm_8c.html#a6351d8706733262e7e325926b1a9aab7" target="_top" xlink:title=" ">
<polygon fill="none" stroke="black" points="287.5,-0.5 287.5,-19.5 328.5,-19.5 328.5,-0.5 287.5,-0.5"/>
<text text-anchor="middle" x="308" y="-7.5" font-family="Helvetica,sans-Serif" font-size="10.00">putch</text>
</a>
</g>
</g>
<!-- Node3&#45;&gt;Node17 -->
<g id="edge16" class="edge">
<title>Node3&#45;&gt;Node17</title>
<path fill="none" stroke="midnightblue" d="M168.5,-133.21C180.16,-111.35 211.26,-58.18 252,-29 259.56,-23.59 268.78,-19.61 277.51,-16.74"/>
<polygon fill="midnightblue" stroke="midnightblue" points="278.77,-20.02 287.38,-13.85 276.8,-13.3 278.77,-20.02"/>
</g>
<!-- Node5 -->
<g id="node5" class="node">
<title>Node5</title>
<g id="a_node5"><a xlink:href="x86_2qemu_2mpe_8c.html#af486ec575d47720d28eee63644206110" target="_top" xlink:title=" ">
<polygon fill="none" stroke="black" points="419.5,-285.5 419.5,-304.5 481.5,-304.5 481.5,-285.5 419.5,-285.5"/>
<text text-anchor="middle" x="450.5" y="-292.5" font-family="Helvetica,sans-Serif" font-size="10.00">cpu_count</text>
</a>
</g>
</g>
<!-- Node4&#45;&gt;Node5 -->
<g id="edge4" class="edge">
<title>Node4&#45;&gt;Node5</title>
<path fill="none" stroke="midnightblue" d="M358.54,-288.53C375.13,-289.71 393.41,-291.01 409.21,-292.13"/>
<polygon fill="midnightblue" stroke="midnightblue" points="408.96,-295.62 419.19,-292.84 409.46,-288.64 408.96,-295.62"/>
</g>
<!-- Node7 -->
<g id="node7" class="node">
<title>Node7</title>
<g id="a_node7"><a xlink:href="x86_2qemu_2ioe_8c.html#a88a238fee7cd006afa69ea97e4914a09" target="_top" xlink:title=" ">
<polygon fill="none" stroke="black" points="400,-247.5 400,-266.5 501,-266.5 501,-247.5 400,-247.5"/>
<text text-anchor="middle" x="450.5" y="-254.5" font-family="Helvetica,sans-Serif" font-size="10.00">__am_lapic_bootap</text>
</a>
</g>
</g>
<!-- Node6&#45;&gt;Node7 -->
<g id="edge6" class="edge">
<title>Node6&#45;&gt;Node7</title>
<path fill="none" stroke="midnightblue" d="M364.13,-245.45C372.43,-246.58 381.04,-247.74 389.44,-248.88"/>
<polygon fill="midnightblue" stroke="midnightblue" points="389.18,-252.38 399.56,-250.25 390.12,-245.44 389.18,-252.38"/>
</g>
<!-- Node10 -->
<g id="node10" class="node">
<title>Node10</title>
<g id="a_node10"><a xlink:href="x86_8h.html#adfa01b89ceed9e7a87f185f4e441aa16" target="_top" xlink:title=" ">
<polygon fill="none" stroke="black" points="416.5,-209.5 416.5,-228.5 484.5,-228.5 484.5,-209.5 416.5,-209.5"/>
<text text-anchor="middle" x="450.5" y="-216.5" font-family="Helvetica,sans-Serif" font-size="10.00">boot_record</text>
</a>
</g>
</g>
<!-- Node6&#45;&gt;Node10 -->
<g id="edge9" class="edge">
<title>Node6&#45;&gt;Node10</title>
<path fill="none" stroke="midnightblue" d="M364.13,-230.55C378.08,-228.66 392.87,-226.66 406.14,-224.86"/>
<polygon fill="midnightblue" stroke="midnightblue" points="406.98,-228.28 416.42,-223.47 406.05,-221.34 406.98,-228.28"/>
</g>
<!-- Node11 -->
<g id="node11" class="node">
<title>Node11</title>
<g id="a_node11"><a xlink:href="native_2mpe_8c.html#a806195bfb27a695274680a7ab6400663" target="_top" xlink:title=" ">
<polygon fill="none" stroke="black" points="416.5,-171.5 416.5,-190.5 484.5,-190.5 484.5,-171.5 416.5,-171.5"/>
<text text-anchor="middle" x="450.5" y="-178.5" font-family="Helvetica,sans-Serif" font-size="10.00">cpu_current</text>
</a>
</g>
</g>
<!-- Node6&#45;&gt;Node11 -->
<g id="edge10" class="edge">
<title>Node6&#45;&gt;Node11</title>
<path fill="none" stroke="midnightblue" d="M339.29,-228.47C347.41,-225.66 356.12,-222.42 364,-219 380.6,-211.8 383.53,-207.48 400,-200 404.22,-198.09 408.69,-196.19 413.15,-194.38"/>
<polygon fill="midnightblue" stroke="midnightblue" points="414.78,-197.5 422.8,-190.58 412.21,-190.99 414.78,-197.5"/>
</g>
<!-- Node8 -->
<g id="node8" class="node">
<title>Node8</title>
<g id="a_node8"><a xlink:href="x86_2qemu_2ioe_8c.html#a72d9ed0bfe1066367763e044b7a7b7c3" target="_top" xlink:title=" ">
<polygon fill="none" stroke="black" points="537,-266.5 537,-285.5 581,-285.5 581,-266.5 537,-266.5"/>
<text text-anchor="middle" x="559" y="-273.5" font-family="Helvetica,sans-Serif" font-size="10.00">lapicw</text>
</a>
</g>
</g>
<!-- Node7&#45;&gt;Node8 -->
<g id="edge7" class="edge">
<title>Node7&#45;&gt;Node8</title>
<path fill="none" stroke="midnightblue" d="M501.01,-265.83C509.77,-267.4 518.67,-268.98 526.75,-270.42"/>
<polygon fill="midnightblue" stroke="midnightblue" points="526.36,-273.91 536.82,-272.22 527.59,-267.02 526.36,-273.91"/>
</g>
<!-- Node9 -->
<g id="node9" class="node">
<title>Node9</title>
<g id="a_node9"><a xlink:href="x86_8h.html#ade961b44e45ddacbc3c3b7609cf36dc6" target="_top" xlink:title=" ">
<polygon fill="none" stroke="black" points="541.5,-228.5 541.5,-247.5 576.5,-247.5 576.5,-228.5 541.5,-228.5"/>
<text text-anchor="middle" x="559" y="-235.5" font-family="Helvetica,sans-Serif" font-size="10.00">outb</text>
</a>
</g>
</g>
<!-- Node7&#45;&gt;Node9 -->
<g id="edge8" class="edge">
<title>Node7&#45;&gt;Node9</title>
<path fill="none" stroke="midnightblue" d="M501.01,-248.17C511.47,-246.3 522.13,-244.4 531.35,-242.75"/>
<polygon fill="midnightblue" stroke="midnightblue" points="532.2,-246.16 541.43,-240.96 530.97,-239.27 532.2,-246.16"/>
</g>
</g>
</svg>
