<?xml version="1.0" encoding="UTF-8" standalone="no"?>
<!DOCTYPE svg PUBLIC "-//W3C//DTD SVG 1.1//EN"
 "http://www.w3.org/Graphics/SVG/1.1/DTD/svg11.dtd">
<!-- Generated by graphviz version 2.50.0 (20220203.2022)
 -->
<!-- Title: __am_input_init Pages: 1 -->
<svg width="710pt" height="313pt"
 viewBox="0.00 0.00 710.00 313.00" xmlns="http://www.w3.org/2000/svg" xmlns:xlink="http://www.w3.org/1999/xlink">
<g id="graph0" class="graph" transform="scale(1 1) rotate(0) translate(4 309)">
<title>__am_input_init</title>
<!-- Node1 -->
<g id="node1" class="node">
<title>Node1</title>
<g id="a_node1"><a xlink:title=" ">
<polygon fill="#bfbfbf" stroke="black" points="0,-152.5 0,-171.5 85,-171.5 85,-152.5 0,-152.5"/>
<text text-anchor="middle" x="42.5" y="-159.5" font-family="Helvetica,sans-Serif" font-size="10.00">__am_input_init</text>
</a>
</g>
</g>
<!-- Node2 -->
<g id="node2" class="node">
<title>Node2</title>
<g id="a_node2"><a xlink:href="input_8c.html#a77413c19d2c314aba317257b3cafb1c7" target="_top" xlink:title=" ">
<polygon fill="none" stroke="black" points="121,-152.5 121,-171.5 194,-171.5 194,-152.5 121,-152.5"/>
<text text-anchor="middle" x="157.5" y="-159.5" font-family="Helvetica,sans-Serif" font-size="10.00">event_thread</text>
</a>
</g>
</g>
<!-- Node1&#45;&gt;Node2 -->
<g id="edge1" class="edge">
<title>Node1&#45;&gt;Node2</title>
<path fill="none" stroke="midnightblue" d="M85.26,-162C93.57,-162 102.34,-162 110.78,-162"/>
<polygon fill="midnightblue" stroke="midnightblue" points="110.85,-165.5 120.85,-162 110.85,-158.5 110.85,-165.5"/>
</g>
<!-- Node3 -->
<g id="node3" class="node">
<title>Node3</title>
<g id="a_node3"><a xlink:href="platform_8c.html#ac9a72275bbb5c5a92fdd21dfb051b5d4" target="_top" xlink:title=" ">
<polygon fill="none" stroke="black" points="230,-171.5 230,-190.5 337,-190.5 337,-171.5 230,-171.5"/>
<text text-anchor="middle" x="283.5" y="-178.5" font-family="Helvetica,sans-Serif" font-size="10.00">__am_send_kbd_intr</text>
</a>
</g>
</g>
<!-- Node2&#45;&gt;Node3 -->
<g id="edge2" class="edge">
<title>Node2&#45;&gt;Node3</title>
<path fill="none" stroke="midnightblue" d="M194.03,-167.44C202.14,-168.69 211,-170.04 219.87,-171.4"/>
<polygon fill="midnightblue" stroke="midnightblue" points="219.44,-174.88 229.86,-172.93 220.5,-167.96 219.44,-174.88"/>
</g>
<!-- Node4 -->
<g id="node4" class="node">
<title>Node4</title>
<g id="a_node4"><a xlink:href="x86_2qemu_2trm_8c.html#a483cb97188e557c3c68d3a1572c2cc92" target="_top" xlink:title=" ">
<polygon fill="none" stroke="black" points="267.5,-133.5 267.5,-152.5 299.5,-152.5 299.5,-133.5 267.5,-133.5"/>
<text text-anchor="middle" x="283.5" y="-140.5" font-family="Helvetica,sans-Serif" font-size="10.00">halt</text>
</a>
</g>
</g>
<!-- Node2&#45;&gt;Node4 -->
<g id="edge3" class="edge">
<title>Node2&#45;&gt;Node4</title>
<path fill="none" stroke="midnightblue" d="M194.03,-156.56C214.28,-153.45 239.16,-149.64 257.37,-146.85"/>
<polygon fill="midnightblue" stroke="midnightblue" points="258.14,-150.27 267.49,-145.3 257.08,-143.35 258.14,-150.27"/>
</g>
<!-- Node5 -->
<g id="node5" class="node">
<title>Node5</title>
<g id="a_node5"><a xlink:href="platform_8c.html#a66cf43dfc7e13b3775d6d2040722da59" target="_top" xlink:title=" ">
<polygon fill="none" stroke="black" points="378.5,-275.5 378.5,-294.5 479.5,-294.5 479.5,-275.5 378.5,-275.5"/>
<text text-anchor="middle" x="429" y="-282.5" font-family="Helvetica,sans-Serif" font-size="10.00">__am_exit_platform</text>
</a>
</g>
</g>
<!-- Node4&#45;&gt;Node5 -->
<g id="edge4" class="edge">
<title>Node4&#45;&gt;Node5</title>
<path fill="none" stroke="midnightblue" d="M299.67,-145.01C311.26,-147.29 326.92,-152.07 337,-162 369.17,-193.69 342.85,-223.39 373,-257 377.97,-262.54 384.29,-267.13 390.86,-270.89"/>
<polygon fill="midnightblue" stroke="midnightblue" points="389.38,-274.06 399.87,-275.5 392.56,-267.83 389.38,-274.06"/>
</g>
<!-- Node7 -->
<g id="node7" class="node">
<title>Node7</title>
<g id="a_node7"><a xlink:href="x86_2qemu_2mpe_8c.html#a0a540532023afb1f31b6f21ce053483b" target="_top" xlink:title=" ">
<polygon fill="none" stroke="black" points="373,-228.5 373,-247.5 485,-247.5 485,-228.5 373,-228.5"/>
<text text-anchor="middle" x="429" y="-235.5" font-family="Helvetica,sans-Serif" font-size="10.00">__am_stop_the_world</text>
</a>
</g>
</g>
<!-- Node4&#45;&gt;Node7 -->
<g id="edge6" class="edge">
<title>Node4&#45;&gt;Node7</title>
<path fill="none" stroke="midnightblue" d="M299.61,-145.7C310.87,-148.33 326.12,-153.25 337,-162 360.35,-180.78 349.52,-200.39 373,-219 375.26,-220.79 377.71,-222.42 380.26,-223.9"/>
<polygon fill="midnightblue" stroke="midnightblue" points="378.77,-227.07 389.29,-228.38 381.89,-220.8 378.77,-227.07"/>
</g>
<!-- Node13 -->
<g id="node13" class="node">
<title>Node13</title>
<g id="a_node13"><a xlink:href="x86_8h.html#acc919e7809ef1db2b20aa3804f540b5c" target="_top" xlink:title=" ">
<polygon fill="none" stroke="black" points="414.5,-190.5 414.5,-209.5 443.5,-209.5 443.5,-190.5 414.5,-190.5"/>
<text text-anchor="middle" x="429" y="-197.5" font-family="Helvetica,sans-Serif" font-size="10.00">cli</text>
</a>
</g>
</g>
<!-- Node4&#45;&gt;Node13 -->
<g id="edge12" class="edge">
<title>Node4&#45;&gt;Node13</title>
<path fill="none" stroke="midnightblue" d="M299.88,-147.94C310.47,-151.49 324.77,-156.59 337,-162 353.55,-169.32 356.4,-173.8 373,-181 383.18,-185.41 394.75,-189.54 404.64,-192.81"/>
<polygon fill="midnightblue" stroke="midnightblue" points="403.63,-196.16 414.22,-195.88 405.77,-189.49 403.63,-196.16"/>
</g>
<!-- Node14 -->
<g id="node14" class="node">
<title>Node14</title>
<g id="a_node14"><a xlink:href="x86_2qemu_2mpe_8c.html#ab701de78cad32896c923ce900087e714" target="_top" xlink:title=" ">
<polygon fill="none" stroke="black" points="395,-152.5 395,-171.5 463,-171.5 463,-152.5 395,-152.5"/>
<text text-anchor="middle" x="429" y="-159.5" font-family="Helvetica,sans-Serif" font-size="10.00">cpu_current</text>
</a>
</g>
</g>
<!-- Node4&#45;&gt;Node14 -->
<g id="edge13" class="edge">
<title>Node4&#45;&gt;Node14</title>
<path fill="none" stroke="midnightblue" d="M299.59,-145C319.58,-147.64 355.7,-152.43 384.55,-156.25"/>
<polygon fill="midnightblue" stroke="midnightblue" points="384.43,-159.76 394.8,-157.6 385.35,-152.82 384.43,-159.76"/>
</g>
<!-- Node15 -->
<g id="node15" class="node">
<title>Node15</title>
<g id="a_node15"><a xlink:href="x86_8h.html#a2adfe40c0aadff727889d263815cb8ed" target="_top" xlink:title=" ">
<polygon fill="none" stroke="black" points="414.5,-114.5 414.5,-133.5 443.5,-133.5 443.5,-114.5 414.5,-114.5"/>
<text text-anchor="middle" x="429" y="-121.5" font-family="Helvetica,sans-Serif" font-size="10.00">hlt</text>
</a>
</g>
</g>
<!-- Node4&#45;&gt;Node15 -->
<g id="edge14" class="edge">
<title>Node4&#45;&gt;Node15</title>
<path fill="none" stroke="midnightblue" d="M299.59,-141C324.58,-137.69 374.76,-131.05 404.45,-127.12"/>
<polygon fill="midnightblue" stroke="midnightblue" points="404.93,-130.59 414.38,-125.8 404.01,-123.65 404.93,-130.59"/>
</g>
<!-- Node16 -->
<g id="node16" class="node">
<title>Node16</title>
<g id="a_node16"><a xlink:href="x86_8h.html#af92fc55c49437b9152499a13ba2b6585" target="_top" xlink:title=" ">
<polygon fill="none" stroke="black" points="410,-76.5 410,-95.5 448,-95.5 448,-76.5 410,-76.5"/>
<text text-anchor="middle" x="429" y="-83.5" font-family="Helvetica,sans-Serif" font-size="10.00">outw</text>
</a>
</g>
</g>
<!-- Node4&#45;&gt;Node16 -->
<g id="edge15" class="edge">
<title>Node4&#45;&gt;Node16</title>
<path fill="none" stroke="midnightblue" d="M299.71,-136.07C317.23,-128.18 346.96,-115.07 373,-105 381.67,-101.65 391.21,-98.25 399.88,-95.27"/>
<polygon fill="midnightblue" stroke="midnightblue" points="401.2,-98.52 409.55,-92 398.95,-91.89 401.2,-98.52"/>
</g>
<!-- Node17 -->
<g id="node17" class="node">
<title>Node17</title>
<g id="a_node17"><a xlink:href="stdio_8c.html#a55f3d956bb2ba20b5059e9e25484a47f" target="_top" xlink:title=" ">
<polygon fill="none" stroke="black" points="410,-38.5 410,-57.5 448,-57.5 448,-38.5 410,-38.5"/>
<text text-anchor="middle" x="429" y="-45.5" font-family="Helvetica,sans-Serif" font-size="10.00">printf</text>
</a>
</g>
</g>
<!-- Node4&#45;&gt;Node17 -->
<g id="edge16" class="edge">
<title>Node4&#45;&gt;Node17</title>
<path fill="none" stroke="midnightblue" d="M293.4,-133.27C308.42,-117.38 340.33,-85.75 373,-67 381.4,-62.18 391.23,-58.3 400.23,-55.34"/>
<polygon fill="midnightblue" stroke="midnightblue" points="401.38,-58.65 409.93,-52.38 399.34,-51.95 401.38,-58.65"/>
</g>
<!-- Node18 -->
<g id="node18" class="node">
<title>Node18</title>
<g id="a_node18"><a xlink:href="native_2trm_8c.html#a6351d8706733262e7e325926b1a9aab7" target="_top" xlink:title=" ">
<polygon fill="none" stroke="black" points="408.5,-0.5 408.5,-19.5 449.5,-19.5 449.5,-0.5 408.5,-0.5"/>
<text text-anchor="middle" x="429" y="-7.5" font-family="Helvetica,sans-Serif" font-size="10.00">putch</text>
</a>
</g>
</g>
<!-- Node4&#45;&gt;Node18 -->
<g id="edge17" class="edge">
<title>Node4&#45;&gt;Node18</title>
<path fill="none" stroke="midnightblue" d="M289.5,-133.21C301.16,-111.35 332.26,-58.18 373,-29 380.56,-23.59 389.78,-19.61 398.51,-16.74"/>
<polygon fill="midnightblue" stroke="midnightblue" points="399.77,-20.02 408.38,-13.85 397.8,-13.3 399.77,-20.02"/>
</g>
<!-- Node6 -->
<g id="node6" class="node">
<title>Node6</title>
<g id="a_node6"><a xlink:href="x86_2qemu_2mpe_8c.html#af486ec575d47720d28eee63644206110" target="_top" xlink:title=" ">
<polygon fill="none" stroke="black" points="540.5,-285.5 540.5,-304.5 602.5,-304.5 602.5,-285.5 540.5,-285.5"/>
<text text-anchor="middle" x="571.5" y="-292.5" font-family="Helvetica,sans-Serif" font-size="10.00">cpu_count</text>
</a>
</g>
</g>
<!-- Node5&#45;&gt;Node6 -->
<g id="edge5" class="edge">
<title>Node5&#45;&gt;Node6</title>
<path fill="none" stroke="midnightblue" d="M479.54,-288.53C496.13,-289.71 514.41,-291.01 530.21,-292.13"/>
<polygon fill="midnightblue" stroke="midnightblue" points="529.96,-295.62 540.19,-292.84 530.46,-288.64 529.96,-295.62"/>
</g>
<!-- Node8 -->
<g id="node8" class="node">
<title>Node8</title>
<g id="a_node8"><a xlink:href="x86_2qemu_2ioe_8c.html#a88a238fee7cd006afa69ea97e4914a09" target="_top" xlink:title=" ">
<polygon fill="none" stroke="black" points="521,-247.5 521,-266.5 622,-266.5 622,-247.5 521,-247.5"/>
<text text-anchor="middle" x="571.5" y="-254.5" font-family="Helvetica,sans-Serif" font-size="10.00">__am_lapic_bootap</text>
</a>
</g>
</g>
<!-- Node7&#45;&gt;Node8 -->
<g id="edge7" class="edge">
<title>Node7&#45;&gt;Node8</title>
<path fill="none" stroke="midnightblue" d="M485.13,-245.45C493.43,-246.58 502.04,-247.74 510.44,-248.88"/>
<polygon fill="midnightblue" stroke="midnightblue" points="510.18,-252.38 520.56,-250.25 511.12,-245.44 510.18,-252.38"/>
</g>
<!-- Node11 -->
<g id="node11" class="node">
<title>Node11</title>
<g id="a_node11"><a xlink:href="x86_8h.html#adfa01b89ceed9e7a87f185f4e441aa16" target="_top" xlink:title=" ">
<polygon fill="none" stroke="black" points="537.5,-209.5 537.5,-228.5 605.5,-228.5 605.5,-209.5 537.5,-209.5"/>
<text text-anchor="middle" x="571.5" y="-216.5" font-family="Helvetica,sans-Serif" font-size="10.00">boot_record</text>
</a>
</g>
</g>
<!-- Node7&#45;&gt;Node11 -->
<g id="edge10" class="edge">
<title>Node7&#45;&gt;Node11</title>
<path fill="none" stroke="midnightblue" d="M485.13,-230.55C499.08,-228.66 513.87,-226.66 527.14,-224.86"/>
<polygon fill="midnightblue" stroke="midnightblue" points="527.98,-228.28 537.42,-223.47 527.05,-221.34 527.98,-228.28"/>
</g>
<!-- Node12 -->
<g id="node12" class="node">
<title>Node12</title>
<g id="a_node12"><a xlink:href="native_2mpe_8c.html#a806195bfb27a695274680a7ab6400663" target="_top" xlink:title=" ">
<polygon fill="none" stroke="black" points="537.5,-171.5 537.5,-190.5 605.5,-190.5 605.5,-171.5 537.5,-171.5"/>
<text text-anchor="middle" x="571.5" y="-178.5" font-family="Helvetica,sans-Serif" font-size="10.00">cpu_current</text>
</a>
</g>
</g>
<!-- Node7&#45;&gt;Node12 -->
<g id="edge11" class="edge">
<title>Node7&#45;&gt;Node12</title>
<path fill="none" stroke="midnightblue" d="M460.29,-228.47C468.41,-225.66 477.12,-222.42 485,-219 501.6,-211.8 504.53,-207.48 521,-200 525.22,-198.09 529.69,-196.19 534.15,-194.38"/>
<polygon fill="midnightblue" stroke="midnightblue" points="535.78,-197.5 543.8,-190.58 533.21,-190.99 535.78,-197.5"/>
</g>
<!-- Node9 -->
<g id="node9" class="node">
<title>Node9</title>
<g id="a_node9"><a xlink:href="x86_2qemu_2ioe_8c.html#a72d9ed0bfe1066367763e044b7a7b7c3" target="_top" xlink:title=" ">
<polygon fill="none" stroke="black" points="658,-266.5 658,-285.5 702,-285.5 702,-266.5 658,-266.5"/>
<text text-anchor="middle" x="680" y="-273.5" font-family="Helvetica,sans-Serif" font-size="10.00">lapicw</text>
</a>
</g>
</g>
<!-- Node8&#45;&gt;Node9 -->
<g id="edge8" class="edge">
<title>Node8&#45;&gt;Node9</title>
<path fill="none" stroke="midnightblue" d="M622.01,-265.83C630.77,-267.4 639.67,-268.98 647.75,-270.42"/>
<polygon fill="midnightblue" stroke="midnightblue" points="647.36,-273.91 657.82,-272.22 648.59,-267.02 647.36,-273.91"/>
</g>
<!-- Node10 -->
<g id="node10" class="node">
<title>Node10</title>
<g id="a_node10"><a xlink:href="x86_8h.html#ade961b44e45ddacbc3c3b7609cf36dc6" target="_top" xlink:title=" ">
<polygon fill="none" stroke="black" points="662.5,-228.5 662.5,-247.5 697.5,-247.5 697.5,-228.5 662.5,-228.5"/>
<text text-anchor="middle" x="680" y="-235.5" font-family="Helvetica,sans-Serif" font-size="10.00">outb</text>
</a>
</g>
</g>
<!-- Node8&#45;&gt;Node10 -->
<g id="edge9" class="edge">
<title>Node8&#45;&gt;Node10</title>
<path fill="none" stroke="midnightblue" d="M622.01,-248.17C632.47,-246.3 643.13,-244.4 652.35,-242.75"/>
<polygon fill="midnightblue" stroke="midnightblue" points="653.2,-246.16 662.43,-240.96 651.97,-239.27 653.2,-246.16"/>
</g>
</g>
</svg>
