<?xml version="1.0" encoding="UTF-8" standalone="no"?>
<!DOCTYPE svg PUBLIC "-//W3C//DTD SVG 1.1//EN"
 "http://www.w3.org/Graphics/SVG/1.1/DTD/svg11.dtd">
<!-- Generated by graphviz version 3.0.0 (20220413.0106)
 -->
<!-- Title: __udivmoddi4 Pages: 1 -->
<svg width="292pt" height="142pt"
 viewBox="0.00 0.00 292.00 142.00" xmlns="http://www.w3.org/2000/svg" xmlns:xlink="http://www.w3.org/1999/xlink">
<g id="graph0" class="graph" transform="scale(1 1) rotate(0) translate(4 138)">
<title>__udivmoddi4</title>
<!-- Node1 -->
<g id="node1" class="node">
<title>Node1</title>
<g id="a_node1"><a xlink:title=" ">
<polygon fill="#bfbfbf" stroke="black" points="207,-57.5 207,-76.5 284,-76.5 284,-57.5 207,-57.5"/>
<text text-anchor="middle" x="245.5" y="-64.5" font-family="Helvetica,sans-Serif" font-size="10.00">__udivmoddi4</text>
</a>
</g>
</g>
<!-- Node2 -->
<g id="node2" class="node">
<title>Node2</title>
<g id="a_node2"><a xlink:href="int64_8c.html#a29b04495bb524d87bcbaea9b63325909" target="_top" xlink:title=" ">
<polygon fill="none" stroke="black" points="112.5,-114.5 112.5,-133.5 165.5,-133.5 165.5,-114.5 112.5,-114.5"/>
<text text-anchor="middle" x="139" y="-121.5" font-family="Helvetica,sans-Serif" font-size="10.00">__divdi3</text>
</a>
</g>
</g>
<!-- Node1&#45;&gt;Node2 -->
<g id="edge1" class="edge">
<title>Node1&#45;&gt;Node2</title>
<path fill="none" stroke="midnightblue" d="M217.74,-81.59C198.79,-91.93 173.91,-105.5 157.47,-114.47"/>
<polygon fill="midnightblue" stroke="midnightblue" points="219.67,-84.53 226.77,-76.67 216.32,-78.39 219.67,-84.53"/>
</g>
<!-- Node4 -->
<g id="node4" class="node">
<title>Node4</title>
<g id="a_node4"><a xlink:href="int64_8c.html#a0729dff5151e9d0a285f7ad8f5e9cffa" target="_top" xlink:title=" ">
<polygon fill="none" stroke="black" points="109.5,-76.5 109.5,-95.5 168.5,-95.5 168.5,-76.5 109.5,-76.5"/>
<text text-anchor="middle" x="139" y="-83.5" font-family="Helvetica,sans-Serif" font-size="10.00">__moddi3</text>
</a>
</g>
</g>
<!-- Node1&#45;&gt;Node4 -->
<g id="edge3" class="edge">
<title>Node1&#45;&gt;Node4</title>
<path fill="none" stroke="midnightblue" d="M196.91,-75.65C187.32,-77.4 177.52,-79.18 168.81,-80.76"/>
<polygon fill="midnightblue" stroke="midnightblue" points="197.56,-79.09 206.77,-73.86 196.31,-72.2 197.56,-79.09"/>
</g>
<!-- Node5 -->
<g id="node5" class="node">
<title>Node5</title>
<g id="a_node5"><a xlink:href="int64_8c.html#a0a06f4a28dd263c570a8aebdb4269225" target="_top" xlink:title=" ">
<polygon fill="none" stroke="black" points="110,-38.5 110,-57.5 168,-57.5 168,-38.5 110,-38.5"/>
<text text-anchor="middle" x="139" y="-45.5" font-family="Helvetica,sans-Serif" font-size="10.00">__udivdi3</text>
</a>
</g>
</g>
<!-- Node1&#45;&gt;Node5 -->
<g id="edge4" class="edge">
<title>Node1&#45;&gt;Node5</title>
<path fill="none" stroke="midnightblue" d="M196.72,-58.31C186.95,-56.54 176.97,-54.72 168.16,-53.12"/>
<polygon fill="midnightblue" stroke="midnightblue" points="196.31,-61.8 206.77,-60.14 197.56,-54.91 196.31,-61.8"/>
</g>
<!-- Node6 -->
<g id="node6" class="node">
<title>Node6</title>
<g id="a_node6"><a xlink:href="int64_8c.html#a1fea4a7b9ebde888133aa19c564e66cd" target="_top" xlink:title=" ">
<polygon fill="none" stroke="black" points="107,-0.5 107,-19.5 171,-19.5 171,-0.5 107,-0.5"/>
<text text-anchor="middle" x="139" y="-7.5" font-family="Helvetica,sans-Serif" font-size="10.00">__umoddi3</text>
</a>
</g>
</g>
<!-- Node1&#45;&gt;Node6 -->
<g id="edge5" class="edge">
<title>Node1&#45;&gt;Node6</title>
<path fill="none" stroke="midnightblue" d="M217.74,-52.41C198.79,-42.07 173.91,-28.5 157.47,-19.53"/>
<polygon fill="midnightblue" stroke="midnightblue" points="216.32,-55.61 226.77,-57.33 219.67,-49.47 216.32,-55.61"/>
</g>
<!-- Node3 -->
<g id="node3" class="node">
<title>Node3</title>
<g id="a_node3"><a xlink:href="int64_8c.html#a49dc27da4cda83dba3c1fee7d1f7fd00" target="_top" xlink:title=" ">
<polygon fill="none" stroke="black" points="0,-114.5 0,-133.5 71,-133.5 71,-114.5 0,-114.5"/>
<text text-anchor="middle" x="35.5" y="-121.5" font-family="Helvetica,sans-Serif" font-size="10.00">__divmoddi4</text>
</a>
</g>
</g>
<!-- Node2&#45;&gt;Node3 -->
<g id="edge2" class="edge">
<title>Node2&#45;&gt;Node3</title>
<path fill="none" stroke="midnightblue" d="M102.29,-124C92.24,-124 81.31,-124 71.31,-124"/>
<polygon fill="midnightblue" stroke="midnightblue" points="102.39,-127.5 112.39,-124 102.39,-120.5 102.39,-127.5"/>
</g>
</g>
</svg>
