<?xml version="1.0" encoding="UTF-8" standalone="no"?>
<!DOCTYPE svg PUBLIC "-//W3C//DTD SVG 1.1//EN"
 "http://www.w3.org/Graphics/SVG/1.1/DTD/svg11.dtd">
<!-- Generated by graphviz version 3.0.0 (20220413.0106)
 -->
<!-- Title: __divmoddi4 Pages: 1 -->
<svg width="281pt" height="28pt"
 viewBox="0.00 0.00 281.00 28.00" xmlns="http://www.w3.org/2000/svg" xmlns:xlink="http://www.w3.org/1999/xlink">
<g id="graph0" class="graph" transform="scale(1 1) rotate(0) translate(4 24)">
<title>__divmoddi4</title>
<!-- Node1 -->
<g id="node1" class="node">
<title>Node1</title>
<g id="a_node1"><a xlink:title=" ">
<polygon fill="#bfbfbf" stroke="black" points="0,-0.5 0,-19.5 71,-19.5 71,-0.5 0,-0.5"/>
<text text-anchor="middle" x="35.5" y="-7.5" font-family="Helvetica,sans-Serif" font-size="10.00">__divmoddi4</text>
</a>
</g>
</g>
<!-- Node2 -->
<g id="node2" class="node">
<title>Node2</title>
<g id="a_node2"><a xlink:href="int64_8c.html#a29b04495bb524d87bcbaea9b63325909" target="_top" xlink:title=" ">
<polygon fill="none" stroke="black" points="107,-0.5 107,-19.5 160,-19.5 160,-0.5 107,-0.5"/>
<text text-anchor="middle" x="133.5" y="-7.5" font-family="Helvetica,sans-Serif" font-size="10.00">__divdi3</text>
</a>
</g>
</g>
<!-- Node1&#45;&gt;Node2 -->
<g id="edge1" class="edge">
<title>Node1&#45;&gt;Node2</title>
<path fill="none" stroke="midnightblue" d="M71.16,-10C79.47,-10 88.35,-10 96.71,-10"/>
<polygon fill="midnightblue" stroke="midnightblue" points="96.93,-13.5 106.93,-10 96.93,-6.5 96.93,-13.5"/>
</g>
<!-- Node3 -->
<g id="node3" class="node">
<title>Node3</title>
<g id="a_node3"><a xlink:href="int64_8c.html#a9fd8eb25e99b81778abdf1872df039c9" target="_top" xlink:title=" ">
<polygon fill="none" stroke="black" points="196,-0.5 196,-19.5 273,-19.5 273,-0.5 196,-0.5"/>
<text text-anchor="middle" x="234.5" y="-7.5" font-family="Helvetica,sans-Serif" font-size="10.00">__udivmoddi4</text>
</a>
</g>
</g>
<!-- Node2&#45;&gt;Node3 -->
<g id="edge2" class="edge">
<title>Node2&#45;&gt;Node3</title>
<path fill="none" stroke="midnightblue" d="M160.25,-10C168.08,-10 176.94,-10 185.73,-10"/>
<polygon fill="midnightblue" stroke="midnightblue" points="185.94,-13.5 195.94,-10 185.94,-6.5 185.94,-13.5"/>
</g>
</g>
</svg>
