<?xml version="1.0" encoding="UTF-8" standalone="no"?>
<!DOCTYPE svg PUBLIC "-//W3C//DTD SVG 1.1//EN"
 "http://www.w3.org/Graphics/SVG/1.1/DTD/svg11.dtd">
<!-- Generated by graphviz version 3.0.0 (20220413.0106)
 -->
<!-- Title: abstract&#45;machine/klib/src/int64.c Pages: 1 -->
<svg width="306pt" height="151pt"
 viewBox="0.00 0.00 306.00 151.00" xmlns="http://www.w3.org/2000/svg" xmlns:xlink="http://www.w3.org/1999/xlink">
<g id="graph0" class="graph" transform="scale(1 1) rotate(0) translate(4 147)">
<title>abstract&#45;machine/klib/src/int64.c</title>
<!-- Node1 -->
<g id="node1" class="node">
<title>Node1</title>
<g id="a_node1"><a xlink:title=" ">
<polygon fill="#bfbfbf" stroke="black" points="58.5,-112.5 58.5,-142.5 168.5,-142.5 168.5,-112.5 58.5,-112.5"/>
<text text-anchor="start" x="66.5" y="-130.5" font-family="Helvetica,sans-Serif" font-size="10.00">abstract&#45;machine/klib</text>
<text text-anchor="middle" x="113.5" y="-119.5" font-family="Helvetica,sans-Serif" font-size="10.00">/src/int64.c</text>
</a>
</g>
</g>
<!-- Node2 -->
<g id="node2" class="node">
<title>Node2</title>
<g id="a_node2"><a xlink:title=" ">
<polygon fill="none" stroke="#bfbfbf" points="0,-56.5 0,-75.5 47,-75.5 47,-56.5 0,-56.5"/>
<text text-anchor="middle" x="23.5" y="-63.5" font-family="Helvetica,sans-Serif" font-size="10.00">limits.h</text>
</a>
</g>
</g>
<!-- Node1&#45;&gt;Node2 -->
<g id="edge1" class="edge">
<title>Node1&#45;&gt;Node2</title>
<path fill="none" stroke="midnightblue" d="M92.17,-112.4C78.01,-103.04 59.49,-90.79 45.25,-81.38"/>
<polygon fill="midnightblue" stroke="midnightblue" points="46.87,-78.25 36.6,-75.66 43.01,-84.09 46.87,-78.25"/>
</g>
<!-- Node3 -->
<g id="node3" class="node">
<title>Node3</title>
<g id="a_node3"><a xlink:title=" ">
<polygon fill="none" stroke="#bfbfbf" points="35.5,-0.5 35.5,-19.5 83.5,-19.5 83.5,-0.5 35.5,-0.5"/>
<text text-anchor="middle" x="59.5" y="-7.5" font-family="Helvetica,sans-Serif" font-size="10.00">stdint.h</text>
</a>
</g>
</g>
<!-- Node1&#45;&gt;Node3 -->
<g id="edge2" class="edge">
<title>Node1&#45;&gt;Node3</title>
<path fill="none" stroke="midnightblue" d="M106.88,-112.34C97.06,-91.34 78.65,-51.96 67.9,-28.96"/>
<polygon fill="midnightblue" stroke="midnightblue" points="70.96,-27.25 63.55,-19.67 64.62,-30.21 70.96,-27.25"/>
</g>
<!-- Node4 -->
<g id="node4" class="node">
<title>Node4</title>
<g id="a_node4"><a xlink:title=" ">
<polygon fill="none" stroke="#bfbfbf" points="101.5,-0.5 101.5,-19.5 157.5,-19.5 157.5,-0.5 101.5,-0.5"/>
<text text-anchor="middle" x="129.5" y="-7.5" font-family="Helvetica,sans-Serif" font-size="10.00">stdbool.h</text>
</a>
</g>
</g>
<!-- Node1&#45;&gt;Node4 -->
<g id="edge3" class="edge">
<title>Node1&#45;&gt;Node4</title>
<path fill="none" stroke="midnightblue" d="M115.46,-112.34C118.34,-91.53 123.73,-52.66 126.93,-29.58"/>
<polygon fill="midnightblue" stroke="midnightblue" points="130.39,-30.06 128.3,-19.67 123.46,-29.09 130.39,-30.06"/>
</g>
<!-- Node5 -->
<g id="node5" class="node">
<title>Node5</title>
<g id="a_node5"><a xlink:title=" ">
<polygon fill="none" stroke="#bfbfbf" points="197.5,-56.5 197.5,-75.5 239.5,-75.5 239.5,-56.5 197.5,-56.5"/>
<text text-anchor="middle" x="218.5" y="-63.5" font-family="Helvetica,sans-Serif" font-size="10.00">float.h</text>
</a>
</g>
</g>
<!-- Node1&#45;&gt;Node5 -->
<g id="edge4" class="edge">
<title>Node1&#45;&gt;Node5</title>
<path fill="none" stroke="midnightblue" d="M138.38,-112.4C155.21,-102.86 177.34,-90.32 194.07,-80.84"/>
<polygon fill="midnightblue" stroke="midnightblue" points="196.25,-83.63 203.22,-75.66 192.8,-77.54 196.25,-83.63"/>
</g>
<!-- Node6 -->
<g id="node6" class="node">
<title>Node6</title>
<g id="a_node6"><a xlink:href="am_8h.html" target="_top" xlink:title=" ">
<polygon fill="none" stroke="black" points="141.5,-56.5 141.5,-75.5 179.5,-75.5 179.5,-56.5 141.5,-56.5"/>
<text text-anchor="middle" x="160.5" y="-63.5" font-family="Helvetica,sans-Serif" font-size="10.00">am.h</text>
</a>
</g>
</g>
<!-- Node1&#45;&gt;Node6 -->
<g id="edge5" class="edge">
<title>Node1&#45;&gt;Node6</title>
<path fill="none" stroke="midnightblue" d="M124.64,-112.4C131.47,-103.75 140.24,-92.64 147.41,-83.58"/>
<polygon fill="midnightblue" stroke="midnightblue" points="150.21,-85.67 153.66,-75.66 144.72,-81.34 150.21,-85.67"/>
</g>
<!-- Node6&#45;&gt;Node3 -->
<g id="edge6" class="edge">
<title>Node6&#45;&gt;Node3</title>
<path fill="none" stroke="midnightblue" d="M144.27,-56.32C128.15,-47.7 103.2,-34.36 84.54,-24.39"/>
<polygon fill="midnightblue" stroke="midnightblue" points="86.16,-21.28 75.69,-19.65 82.86,-27.46 86.16,-21.28"/>
</g>
<!-- Node6&#45;&gt;Node4 -->
<g id="edge8" class="edge">
<title>Node6&#45;&gt;Node4</title>
<path fill="none" stroke="midnightblue" d="M155.38,-56.08C151.09,-48.61 144.84,-37.72 139.56,-28.52"/>
<polygon fill="midnightblue" stroke="midnightblue" points="142.54,-26.68 134.52,-19.75 136.47,-30.17 142.54,-26.68"/>
</g>
<!-- Node7 -->
<g id="node7" class="node">
<title>Node7</title>
<g id="a_node7"><a xlink:title=" ">
<polygon fill="none" stroke="#bfbfbf" points="176,-0.5 176,-19.5 227,-19.5 227,-0.5 176,-0.5"/>
<text text-anchor="middle" x="201.5" y="-7.5" font-family="Helvetica,sans-Serif" font-size="10.00">stddef.h</text>
</a>
</g>
</g>
<!-- Node6&#45;&gt;Node7 -->
<g id="edge7" class="edge">
<title>Node6&#45;&gt;Node7</title>
<path fill="none" stroke="midnightblue" d="M167.27,-56.08C173.06,-48.46 181.56,-37.26 188.64,-27.94"/>
<polygon fill="midnightblue" stroke="midnightblue" points="191.6,-29.83 194.86,-19.75 186.02,-25.6 191.6,-29.83"/>
</g>
<!-- Node8 -->
<g id="node8" class="node">
<title>Node8</title>
<g id="a_node8"><a xlink:href="amdev_8h.html" target="_top" xlink:title=" ">
<polygon fill="none" stroke="black" points="245,-0.5 245,-19.5 298,-19.5 298,-0.5 245,-0.5"/>
<text text-anchor="middle" x="271.5" y="-7.5" font-family="Helvetica,sans-Serif" font-size="10.00">amdev.h</text>
</a>
</g>
</g>
<!-- Node6&#45;&gt;Node8 -->
<g id="edge9" class="edge">
<title>Node6&#45;&gt;Node8</title>
<path fill="none" stroke="midnightblue" d="M178.33,-56.32C196.22,-47.62 223.98,-34.12 244.55,-24.11"/>
<polygon fill="midnightblue" stroke="midnightblue" points="246.25,-27.18 253.71,-19.65 243.19,-20.88 246.25,-27.18"/>
</g>
</g>
</svg>
