<?xml version="1.0" encoding="UTF-8" standalone="no"?>
<!DOCTYPE svg PUBLIC "-//W3C//DTD SVG 1.1//EN"
 "http://www.w3.org/Graphics/SVG/1.1/DTD/svg11.dtd">
<!-- Generated by graphviz version 3.0.0 (20220413.0106)
 -->
<!-- Title: estimate_freq Pages: 1 -->
<svg width="454pt" height="85pt"
 viewBox="0.00 0.00 454.00 85.00" xmlns="http://www.w3.org/2000/svg" xmlns:xlink="http://www.w3.org/1999/xlink">
<g id="graph0" class="graph" transform="scale(1 1) rotate(0) translate(4 81)">
<title>estimate_freq</title>
<!-- Node1 -->
<g id="node1" class="node">
<title>Node1</title>
<g id="a_node1"><a xlink:title=" ">
<polygon fill="#bfbfbf" stroke="black" points="0,-38.5 0,-57.5 76,-57.5 76,-38.5 0,-38.5"/>
<text text-anchor="middle" x="38" y="-45.5" font-family="Helvetica,sans-Serif" font-size="10.00">estimate_freq</text>
</a>
</g>
</g>
<!-- Node1&#45;&gt;Node1 -->
<g id="edge1" class="edge">
<title>Node1&#45;&gt;Node1</title>
<path fill="none" stroke="midnightblue" d="M22.28,-57.76C14.63,-66.57 19.87,-76 38,-76 49.33,-76 55.63,-72.31 56.89,-67.4"/>
<polygon fill="midnightblue" stroke="midnightblue" points="60.17,-66.17 53.72,-57.76 53.52,-68.35 60.17,-66.17"/>
</g>
<!-- Node2 -->
<g id="node2" class="node">
<title>Node2</title>
<g id="a_node2"><a xlink:href="x86_8h.html#a47b9d70be3022fd0b5687d9794ca47bc" target="_top" xlink:title=" ">
<polygon fill="none" stroke="black" points="121,-57.5 121,-76.5 159,-76.5 159,-57.5 121,-57.5"/>
<text text-anchor="middle" x="140" y="-64.5" font-family="Helvetica,sans-Serif" font-size="10.00">rdtsc</text>
</a>
</g>
</g>
<!-- Node1&#45;&gt;Node2 -->
<g id="edge2" class="edge">
<title>Node1&#45;&gt;Node2</title>
<path fill="none" stroke="midnightblue" d="M76.24,-55.07C87.65,-57.24 100.01,-59.59 110.72,-61.63"/>
<polygon fill="midnightblue" stroke="midnightblue" points="110.31,-65.11 120.79,-63.54 111.61,-58.23 110.31,-65.11"/>
</g>
<!-- Node3 -->
<g id="node3" class="node">
<title>Node3</title>
<g id="a_node3"><a xlink:href="ioe_8c.html#a716ac8111009464db83866c3b49adbbb" target="_top" xlink:title=" ">
<polygon fill="none" stroke="black" points="112,-19.5 112,-38.5 168,-38.5 168,-19.5 112,-19.5"/>
<text text-anchor="middle" x="140" y="-26.5" font-family="Helvetica,sans-Serif" font-size="10.00">wait_sec</text>
</a>
</g>
</g>
<!-- Node1&#45;&gt;Node3 -->
<g id="edge3" class="edge">
<title>Node1&#45;&gt;Node3</title>
<path fill="none" stroke="midnightblue" d="M76.24,-40.93C84.61,-39.33 93.49,-37.65 101.85,-36.06"/>
<polygon fill="midnightblue" stroke="midnightblue" points="102.56,-39.49 111.73,-34.18 101.25,-32.61 102.56,-39.49"/>
</g>
<!-- Node4 -->
<g id="node4" class="node">
<title>Node4</title>
<g id="a_node4"><a xlink:href="ioe_8c.html#ad0681f53bec9167d7a8d4d848b3ce2e0" target="_top" xlink:title=" ">
<polygon fill="none" stroke="black" points="204,-19.5 204,-38.5 287,-38.5 287,-19.5 204,-19.5"/>
<text text-anchor="middle" x="245.5" y="-26.5" font-family="Helvetica,sans-Serif" font-size="10.00">read_rtc_async</text>
</a>
</g>
</g>
<!-- Node3&#45;&gt;Node4 -->
<g id="edge4" class="edge">
<title>Node3&#45;&gt;Node4</title>
<path fill="none" stroke="midnightblue" d="M168.19,-29C176.03,-29 184.84,-29 193.62,-29"/>
<polygon fill="midnightblue" stroke="midnightblue" points="193.85,-32.5 203.85,-29 193.85,-25.5 193.85,-32.5"/>
</g>
<!-- Node5 -->
<g id="node5" class="node">
<title>Node5</title>
<g id="a_node5"><a xlink:href="ioe_8c.html#a124b85735169c7add3c491093ffbc00e" target="_top" xlink:title=" ">
<polygon fill="none" stroke="black" points="323,-19.5 323,-38.5 375,-38.5 375,-19.5 323,-19.5"/>
<text text-anchor="middle" x="349" y="-26.5" font-family="Helvetica,sans-Serif" font-size="10.00">read_rtc</text>
</a>
</g>
</g>
<!-- Node4&#45;&gt;Node5 -->
<g id="edge5" class="edge">
<title>Node4&#45;&gt;Node5</title>
<path fill="none" stroke="midnightblue" d="M287.2,-29C295.65,-29 304.49,-29 312.73,-29"/>
<polygon fill="midnightblue" stroke="midnightblue" points="312.77,-32.5 322.77,-29 312.77,-25.5 312.77,-32.5"/>
</g>
<!-- Node6 -->
<g id="node6" class="node">
<title>Node6</title>
<g id="a_node6"><a xlink:href="x86_8h.html#afdc603aa210ab8fd9995ce74940f5d7f" target="_top" xlink:title=" ">
<polygon fill="none" stroke="black" points="414,-38.5 414,-57.5 443,-57.5 443,-38.5 414,-38.5"/>
<text text-anchor="middle" x="428.5" y="-45.5" font-family="Helvetica,sans-Serif" font-size="10.00">inb</text>
</a>
</g>
</g>
<!-- Node5&#45;&gt;Node6 -->
<g id="edge6" class="edge">
<title>Node5&#45;&gt;Node6</title>
<path fill="none" stroke="midnightblue" d="M375.38,-35.22C384.51,-37.46 394.78,-39.98 403.78,-42.18"/>
<polygon fill="midnightblue" stroke="midnightblue" points="403.05,-45.61 413.6,-44.59 404.72,-38.81 403.05,-45.61"/>
</g>
<!-- Node7 -->
<g id="node7" class="node">
<title>Node7</title>
<g id="a_node7"><a xlink:href="x86_8h.html#ade961b44e45ddacbc3c3b7609cf36dc6" target="_top" xlink:title=" ">
<polygon fill="none" stroke="black" points="411,-0.5 411,-19.5 446,-19.5 446,-0.5 411,-0.5"/>
<text text-anchor="middle" x="428.5" y="-7.5" font-family="Helvetica,sans-Serif" font-size="10.00">outb</text>
</a>
</g>
</g>
<!-- Node5&#45;&gt;Node7 -->
<g id="edge7" class="edge">
<title>Node5&#45;&gt;Node7</title>
<path fill="none" stroke="midnightblue" d="M375.38,-22.78C383.57,-20.77 392.67,-18.54 400.95,-16.51"/>
<polygon fill="midnightblue" stroke="midnightblue" points="401.98,-19.86 410.86,-14.08 400.32,-13.06 401.98,-19.86"/>
</g>
</g>
</svg>
