<?xml version="1.0" encoding="UTF-8" standalone="no"?>
<!DOCTYPE svg PUBLIC "-//W3C//DTD SVG 1.1//EN"
 "http://www.w3.org/Graphics/SVG/1.1/DTD/svg11.dtd">
<!-- Generated by graphviz version 3.0.0 (20220413.0106)
 -->
<!-- Title: lapicw Pages: 1 -->
<svg width="699pt" height="142pt"
 viewBox="0.00 0.00 699.00 142.00" xmlns="http://www.w3.org/2000/svg" xmlns:xlink="http://www.w3.org/1999/xlink">
<g id="graph0" class="graph" transform="scale(1 1) rotate(0) translate(4 138)">
<title>lapicw</title>
<!-- Node1 -->
<g id="node1" class="node">
<title>Node1</title>
<g id="a_node1"><a xlink:title=" ">
<polygon fill="#bfbfbf" stroke="black" points="647,-38.5 647,-57.5 691,-57.5 691,-38.5 647,-38.5"/>
<text text-anchor="middle" x="669" y="-45.5" font-family="Helvetica,sans-Serif" font-size="10.00">lapicw</text>
</a>
</g>
</g>
<!-- Node2 -->
<g id="node2" class="node">
<title>Node2</title>
<g id="a_node2"><a xlink:href="ioe_8c.html#a88a238fee7cd006afa69ea97e4914a09" target="_top" xlink:title=" ">
<polygon fill="none" stroke="black" points="504,-76.5 504,-95.5 605,-95.5 605,-76.5 504,-76.5"/>
<text text-anchor="middle" x="554.5" y="-83.5" font-family="Helvetica,sans-Serif" font-size="10.00">__am_lapic_bootap</text>
</a>
</g>
</g>
<!-- Node1&#45;&gt;Node2 -->
<g id="edge1" class="edge">
<title>Node1&#45;&gt;Node2</title>
<path fill="none" stroke="midnightblue" d="M637.03,-58.46C620.38,-64.08 600.01,-70.97 583.79,-76.44"/>
<polygon fill="midnightblue" stroke="midnightblue" points="638.49,-61.66 646.84,-55.15 636.25,-55.03 638.49,-61.66"/>
</g>
<!-- Node9 -->
<g id="node9" class="node">
<title>Node9</title>
<g id="a_node9"><a xlink:href="ioe_8c.html#ab782c68363d0f254ba753ff69de0ce3f" target="_top" xlink:title=" ">
<polygon fill="none" stroke="black" points="512.5,-38.5 512.5,-57.5 596.5,-57.5 596.5,-38.5 512.5,-38.5"/>
<text text-anchor="middle" x="554.5" y="-45.5" font-family="Helvetica,sans-Serif" font-size="10.00">__am_lapic_eoi</text>
</a>
</g>
</g>
<!-- Node1&#45;&gt;Node9 -->
<g id="edge8" class="edge">
<title>Node1&#45;&gt;Node9</title>
<path fill="none" stroke="midnightblue" d="M636.56,-48C624.18,-48 609.8,-48 596.62,-48"/>
<polygon fill="midnightblue" stroke="midnightblue" points="636.84,-51.5 646.84,-48 636.84,-44.5 636.84,-51.5"/>
</g>
<!-- Node11 -->
<g id="node11" class="node">
<title>Node11</title>
<g id="a_node11"><a xlink:href="ioe_8c.html#afd452a54c6657d504fdbc70af4adb9cf" target="_top" xlink:title=" ">
<polygon fill="none" stroke="black" points="498,-0.5 498,-19.5 611,-19.5 611,-0.5 498,-0.5"/>
<text text-anchor="middle" x="554.5" y="-7.5" font-family="Helvetica,sans-Serif" font-size="10.00">__am_percpu_initlapic</text>
</a>
</g>
</g>
<!-- Node1&#45;&gt;Node11 -->
<g id="edge10" class="edge">
<title>Node1&#45;&gt;Node11</title>
<path fill="none" stroke="midnightblue" d="M637.03,-37.54C620.38,-31.92 600.01,-25.03 583.79,-19.56"/>
<polygon fill="midnightblue" stroke="midnightblue" points="636.25,-40.97 646.84,-40.85 638.49,-34.34 636.25,-40.97"/>
</g>
<!-- Node3 -->
<g id="node3" class="node">
<title>Node3</title>
<g id="a_node3"><a xlink:href="mpe_8c.html#a0a540532023afb1f31b6f21ce053483b" target="_top" xlink:title=" ">
<polygon fill="none" stroke="black" points="350,-114.5 350,-133.5 462,-133.5 462,-114.5 350,-114.5"/>
<text text-anchor="middle" x="406" y="-121.5" font-family="Helvetica,sans-Serif" font-size="10.00">__am_stop_the_world</text>
</a>
</g>
</g>
<!-- Node2&#45;&gt;Node3 -->
<g id="edge2" class="edge">
<title>Node2&#45;&gt;Node3</title>
<path fill="none" stroke="midnightblue" d="M506.8,-98.11C486.4,-103.4 462.82,-109.52 443.7,-114.48"/>
<polygon fill="midnightblue" stroke="midnightblue" points="507.73,-101.49 516.53,-95.59 505.97,-94.71 507.73,-101.49"/>
</g>
<!-- Node7 -->
<g id="node7" class="node">
<title>Node7</title>
<g id="a_node7"><a xlink:href="mpe_8c.html#a2e4a724e2d067425ff3fd49bc0bf42e1" target="_top" xlink:title=" ">
<polygon fill="none" stroke="black" points="379.5,-76.5 379.5,-95.5 432.5,-95.5 432.5,-76.5 379.5,-76.5"/>
<text text-anchor="middle" x="406" y="-83.5" font-family="Helvetica,sans-Serif" font-size="10.00">mpe_init</text>
</a>
</g>
</g>
<!-- Node2&#45;&gt;Node7 -->
<g id="edge6" class="edge">
<title>Node2&#45;&gt;Node7</title>
<path fill="none" stroke="midnightblue" d="M493.63,-86C472.37,-86 449.56,-86 432.69,-86"/>
<polygon fill="midnightblue" stroke="midnightblue" points="493.9,-89.5 503.9,-86 493.9,-82.5 493.9,-89.5"/>
</g>
<!-- Node4 -->
<g id="node4" class="node">
<title>Node4</title>
<g id="a_node4"><a xlink:href="trm_8c.html#a483cb97188e557c3c68d3a1572c2cc92" target="_top" xlink:title=" ">
<polygon fill="none" stroke="black" points="258,-114.5 258,-133.5 290,-133.5 290,-114.5 258,-114.5"/>
<text text-anchor="middle" x="274" y="-121.5" font-family="Helvetica,sans-Serif" font-size="10.00">halt</text>
</a>
</g>
</g>
<!-- Node3&#45;&gt;Node4 -->
<g id="edge3" class="edge">
<title>Node3&#45;&gt;Node4</title>
<path fill="none" stroke="midnightblue" d="M339.87,-124C321.26,-124 302.66,-124 290.18,-124"/>
<polygon fill="midnightblue" stroke="midnightblue" points="339.87,-127.5 349.87,-124 339.87,-120.5 339.87,-127.5"/>
</g>
<!-- Node5 -->
<g id="node5" class="node">
<title>Node5</title>
<g id="a_node5"><a xlink:href="trm_8c.html#a12a49ff4d3a586b2315e292c5da3df7e" target="_top" xlink:title=" ">
<polygon fill="none" stroke="black" points="114,-95.5 114,-114.5 172,-114.5 172,-95.5 114,-95.5"/>
<text text-anchor="middle" x="143" y="-102.5" font-family="Helvetica,sans-Serif" font-size="10.00">call_main</text>
</a>
</g>
</g>
<!-- Node4&#45;&gt;Node5 -->
<g id="edge4" class="edge">
<title>Node4&#45;&gt;Node5</title>
<path fill="none" stroke="midnightblue" d="M247.84,-120.29C226.08,-117.09 194.65,-112.46 172.08,-109.14"/>
<polygon fill="midnightblue" stroke="midnightblue" points="247.55,-123.79 257.95,-121.78 248.57,-116.86 247.55,-123.79"/>
</g>
<!-- Node6 -->
<g id="node6" class="node">
<title>Node6</title>
<g id="a_node6"><a xlink:href="trm_8c.html#a54a85aeee6f6a8ef875d4cca663f9fd8" target="_top" xlink:title=" ">
<polygon fill="none" stroke="black" points="0,-38.5 0,-57.5 52,-57.5 52,-38.5 0,-38.5"/>
<text text-anchor="middle" x="26" y="-45.5" font-family="Helvetica,sans-Serif" font-size="10.00">_start_c</text>
</a>
</g>
</g>
<!-- Node5&#45;&gt;Node6 -->
<g id="edge5" class="edge">
<title>Node5&#45;&gt;Node6</title>
<path fill="none" stroke="midnightblue" d="M113.68,-90.96C92.73,-80.58 64.74,-66.71 46.31,-57.57"/>
<polygon fill="midnightblue" stroke="midnightblue" points="112.24,-94.15 122.75,-95.46 115.35,-87.88 112.24,-94.15"/>
</g>
<!-- Node8 -->
<g id="node8" class="node">
<title>Node8</title>
<g id="a_node8"><a xlink:href="main_8c.html#ae66f6b31b5ad750f1fe042a706a4e3d4" target="_top" xlink:title=" ">
<polygon fill="none" stroke="black" points="255,-76.5 255,-95.5 293,-95.5 293,-76.5 255,-76.5"/>
<text text-anchor="middle" x="274" y="-83.5" font-family="Helvetica,sans-Serif" font-size="10.00">main</text>
</a>
</g>
</g>
<!-- Node7&#45;&gt;Node8 -->
<g id="edge7" class="edge">
<title>Node7&#45;&gt;Node8</title>
<path fill="none" stroke="midnightblue" d="M369.22,-86C344.53,-86 312.72,-86 293.1,-86"/>
<polygon fill="midnightblue" stroke="midnightblue" points="369.32,-89.5 379.32,-86 369.32,-82.5 369.32,-89.5"/>
</g>
<!-- Node10 -->
<g id="node10" class="node">
<title>Node10</title>
<g id="a_node10"><a xlink:href="cte_8c.html#a10a4e011ab7b1f7e628c8b1f6b638067" target="_top" xlink:title=" ">
<polygon fill="none" stroke="black" points="361,-38.5 361,-57.5 451,-57.5 451,-38.5 361,-38.5"/>
<text text-anchor="middle" x="406" y="-45.5" font-family="Helvetica,sans-Serif" font-size="10.00">__am_irq_handle</text>
</a>
</g>
</g>
<!-- Node9&#45;&gt;Node10 -->
<g id="edge9" class="edge">
<title>Node9&#45;&gt;Node10</title>
<path fill="none" stroke="midnightblue" d="M502.2,-48C485.57,-48 467.28,-48 451.22,-48"/>
<polygon fill="midnightblue" stroke="midnightblue" points="502.3,-51.5 512.3,-48 502.3,-44.5 502.3,-51.5"/>
</g>
<!-- Node12 -->
<g id="node12" class="node">
<title>Node12</title>
<g id="a_node12"><a xlink:href="trm_8c.html#abac650c2a0dd8b7f13349871fd6ab6ee" target="_top" xlink:title=" ">
<polygon fill="none" stroke="black" points="359.5,-0.5 359.5,-19.5 452.5,-19.5 452.5,-0.5 359.5,-0.5"/>
<text text-anchor="middle" x="406" y="-7.5" font-family="Helvetica,sans-Serif" font-size="10.00">__am_percpu_init</text>
</a>
</g>
</g>
<!-- Node11&#45;&gt;Node12 -->
<g id="edge11" class="edge">
<title>Node11&#45;&gt;Node12</title>
<path fill="none" stroke="midnightblue" d="M487.46,-10C475.7,-10 463.69,-10 452.66,-10"/>
<polygon fill="midnightblue" stroke="midnightblue" points="487.7,-13.5 497.7,-10 487.7,-6.5 487.7,-13.5"/>
</g>
<!-- Node13 -->
<g id="node13" class="node">
<title>Node13</title>
<g id="a_node13"><a xlink:href="trm_8c.html#a75e130ff99ad31f9a1df206b5ff8252a" target="_top" xlink:title=" ">
<polygon fill="none" stroke="black" points="94,-38.5 94,-57.5 192,-57.5 192,-38.5 94,-38.5"/>
<text text-anchor="middle" x="143" y="-45.5" font-family="Helvetica,sans-Serif" font-size="10.00">__am_bootcpu_init</text>
</a>
</g>
</g>
<!-- Node12&#45;&gt;Node13 -->
<g id="edge12" class="edge">
<title>Node12&#45;&gt;Node13</title>
<path fill="none" stroke="midnightblue" d="M353.42,-21.65C340.58,-24.31 326.83,-26.95 314,-29 273.09,-35.54 226.29,-40.6 192.16,-43.84"/>
<polygon fill="midnightblue" stroke="midnightblue" points="354.41,-25.02 363.47,-19.53 352.97,-18.17 354.41,-25.02"/>
</g>
<!-- Node14 -->
<g id="node14" class="node">
<title>Node14</title>
<g id="a_node14"><a xlink:href="mpe_8c.html#aec8f7f25be4263648b704092672a566b" target="_top" xlink:title=" ">
<polygon fill="none" stroke="black" points="234,-0.5 234,-19.5 314,-19.5 314,-0.5 234,-0.5"/>
<text text-anchor="middle" x="274" y="-7.5" font-family="Helvetica,sans-Serif" font-size="10.00">othercpu_entry</text>
</a>
</g>
</g>
<!-- Node12&#45;&gt;Node14 -->
<g id="edge14" class="edge">
<title>Node12&#45;&gt;Node14</title>
<path fill="none" stroke="midnightblue" d="M349.05,-10C337.38,-10 325.31,-10 314.38,-10"/>
<polygon fill="midnightblue" stroke="midnightblue" points="349.17,-13.5 359.17,-10 349.17,-6.5 349.17,-13.5"/>
</g>
<!-- Node13&#45;&gt;Node6 -->
<g id="edge13" class="edge">
<title>Node13&#45;&gt;Node6</title>
<path fill="none" stroke="midnightblue" d="M83.68,-48C72.52,-48 61.41,-48 52.01,-48"/>
<polygon fill="midnightblue" stroke="midnightblue" points="83.9,-51.5 93.9,-48 83.9,-44.5 83.9,-51.5"/>
</g>
<!-- Node15 -->
<g id="node15" class="node">
<title>Node15</title>
<g id="a_node15"><a xlink:href="mpe_8c.html#af9524b1c09898b69d9980310682a8bea" target="_top" xlink:title=" ">
<polygon fill="none" stroke="black" points="88,-0.5 88,-19.5 198,-19.5 198,-0.5 88,-0.5"/>
<text text-anchor="middle" x="143" y="-7.5" font-family="Helvetica,sans-Serif" font-size="10.00">__am_othercpu_entry</text>
</a>
</g>
</g>
<!-- Node14&#45;&gt;Node15 -->
<g id="edge15" class="edge">
<title>Node14&#45;&gt;Node15</title>
<path fill="none" stroke="midnightblue" d="M223.9,-10C215.48,-10 206.69,-10 198.15,-10"/>
<polygon fill="midnightblue" stroke="midnightblue" points="223.95,-13.5 233.95,-10 223.95,-6.5 223.95,-13.5"/>
</g>
<!-- Node15&#45;&gt;Node6 -->
<g id="edge16" class="edge">
<title>Node15&#45;&gt;Node6</title>
<path fill="none" stroke="midnightblue" d="M103.36,-22.77C86.45,-28.36 67.1,-34.75 52.1,-39.7"/>
<polygon fill="midnightblue" stroke="midnightblue" points="104.58,-26.05 112.98,-19.59 102.39,-19.4 104.58,-26.05"/>
</g>
</g>
</svg>
