<?xml version="1.0" encoding="UTF-8" standalone="no"?>
<!DOCTYPE svg PUBLIC "-//W3C//DTD SVG 1.1//EN"
 "http://www.w3.org/Graphics/SVG/1.1/DTD/svg11.dtd">
<!-- Generated by graphviz version 3.0.0 (20220413.0106)
 -->
<!-- Title: read_rtc_async Pages: 1 -->
<svg width="544pt" height="84pt"
 viewBox="0.00 0.00 544.00 84.00" xmlns="http://www.w3.org/2000/svg" xmlns:xlink="http://www.w3.org/1999/xlink">
<g id="graph0" class="graph" transform="scale(1 1) rotate(0) translate(4 80)">
<title>read_rtc_async</title>
<!-- Node1 -->
<g id="node1" class="node">
<title>Node1</title>
<g id="a_node1"><a xlink:title=" ">
<polygon fill="#bfbfbf" stroke="black" points="453,-28.5 453,-47.5 536,-47.5 536,-28.5 453,-28.5"/>
<text text-anchor="middle" x="494.5" y="-35.5" font-family="Helvetica,sans-Serif" font-size="10.00">read_rtc_async</text>
</a>
</g>
</g>
<!-- Node2 -->
<g id="node2" class="node">
<title>Node2</title>
<g id="a_node2"><a xlink:href="ioe_8c.html#a7b167e0bb31c8168406860a278ce693a" target="_top" xlink:title=" ">
<polygon fill="none" stroke="black" points="259.5,-56.5 259.5,-75.5 314.5,-75.5 314.5,-56.5 259.5,-56.5"/>
<text text-anchor="middle" x="287" y="-63.5" font-family="Helvetica,sans-Serif" font-size="10.00">timer_rtc</text>
</a>
</g>
</g>
<!-- Node1&#45;&gt;Node2 -->
<g id="edge1" class="edge">
<title>Node1&#45;&gt;Node2</title>
<path fill="none" stroke="midnightblue" d="M442.94,-44.89C402.43,-50.41 347.19,-57.94 314.78,-62.35"/>
<polygon fill="midnightblue" stroke="midnightblue" points="443.46,-48.35 452.9,-43.53 442.52,-41.41 443.46,-48.35"/>
</g>
<!-- Node6 -->
<g id="node6" class="node">
<title>Node6</title>
<g id="a_node6"><a xlink:href="ioe_8c.html#a716ac8111009464db83866c3b49adbbb" target="_top" xlink:title=" ">
<polygon fill="none" stroke="black" points="361,-9.5 361,-28.5 417,-28.5 417,-9.5 361,-9.5"/>
<text text-anchor="middle" x="389" y="-16.5" font-family="Helvetica,sans-Serif" font-size="10.00">wait_sec</text>
</a>
</g>
</g>
<!-- Node1&#45;&gt;Node6 -->
<g id="edge5" class="edge">
<title>Node1&#45;&gt;Node6</title>
<path fill="none" stroke="midnightblue" d="M442.91,-28.71C434,-27.08 425.05,-25.43 417.11,-23.98"/>
<polygon fill="midnightblue" stroke="midnightblue" points="442.42,-32.18 452.89,-30.55 443.69,-25.3 442.42,-32.18"/>
</g>
<!-- Node3 -->
<g id="node3" class="node">
<title>Node3</title>
<g id="a_node3"><a xlink:href="ioe_8c.html#ac17b85035372c81a45e604e6b4783db2" target="_top" xlink:title=" ">
<polygon fill="none" stroke="black" points="157,-28.5 157,-47.5 213,-47.5 213,-28.5 157,-28.5"/>
<text text-anchor="middle" x="185" y="-35.5" font-family="Helvetica,sans-Serif" font-size="10.00">timer_init</text>
</a>
</g>
</g>
<!-- Node2&#45;&gt;Node3 -->
<g id="edge2" class="edge">
<title>Node2&#45;&gt;Node3</title>
<path fill="none" stroke="midnightblue" d="M249.64,-55.82C237.53,-52.43 224.28,-48.72 213.01,-45.56"/>
<polygon fill="midnightblue" stroke="midnightblue" points="248.89,-59.24 259.46,-58.57 250.78,-52.5 248.89,-59.24"/>
</g>
<!-- Node4 -->
<g id="node4" class="node">
<title>Node4</title>
<g id="a_node4"><a xlink:href="ioe_8c.html#a45ecef4130276c1c79d872c582cd3839" target="_top" xlink:title=" ">
<polygon fill="none" stroke="black" points="74,-28.5 74,-47.5 121,-47.5 121,-28.5 74,-28.5"/>
<text text-anchor="middle" x="97.5" y="-35.5" font-family="Helvetica,sans-Serif" font-size="10.00">ioe_init</text>
</a>
</g>
</g>
<!-- Node3&#45;&gt;Node4 -->
<g id="edge3" class="edge">
<title>Node3&#45;&gt;Node4</title>
<path fill="none" stroke="midnightblue" d="M146.88,-38C138.09,-38 128.99,-38 121.08,-38"/>
<polygon fill="midnightblue" stroke="midnightblue" points="146.95,-41.5 156.95,-38 146.95,-34.5 146.95,-41.5"/>
</g>
<!-- Node5 -->
<g id="node5" class="node">
<title>Node5</title>
<g id="a_node5"><a xlink:href="main_8c.html#ae66f6b31b5ad750f1fe042a706a4e3d4" target="_top" xlink:title=" ">
<polygon fill="none" stroke="black" points="0,-28.5 0,-47.5 38,-47.5 38,-28.5 0,-28.5"/>
<text text-anchor="middle" x="19" y="-35.5" font-family="Helvetica,sans-Serif" font-size="10.00">main</text>
</a>
</g>
</g>
<!-- Node4&#45;&gt;Node5 -->
<g id="edge4" class="edge">
<title>Node4&#45;&gt;Node5</title>
<path fill="none" stroke="midnightblue" d="M63.87,-38C55.01,-38 45.74,-38 38.02,-38"/>
<polygon fill="midnightblue" stroke="midnightblue" points="63.96,-41.5 73.96,-38 63.96,-34.5 63.96,-41.5"/>
</g>
<!-- Node7 -->
<g id="node7" class="node">
<title>Node7</title>
<g id="a_node7"><a xlink:href="ioe_8c.html#a8f4d57167e8d4b53c00c84e504f330ef" target="_top" xlink:title=" ">
<polygon fill="none" stroke="black" points="249,-0.5 249,-19.5 325,-19.5 325,-0.5 249,-0.5"/>
<text text-anchor="middle" x="287" y="-7.5" font-family="Helvetica,sans-Serif" font-size="10.00">estimate_freq</text>
</a>
</g>
</g>
<!-- Node6&#45;&gt;Node7 -->
<g id="edge6" class="edge">
<title>Node6&#45;&gt;Node7</title>
<path fill="none" stroke="midnightblue" d="M350.73,-15.65C342.39,-14.9 333.55,-14.1 325.22,-13.35"/>
<polygon fill="midnightblue" stroke="midnightblue" points="350.67,-19.15 360.94,-16.56 351.29,-12.18 350.67,-19.15"/>
</g>
<!-- Node7&#45;&gt;Node3 -->
<g id="edge8" class="edge">
<title>Node7&#45;&gt;Node3</title>
<path fill="none" stroke="midnightblue" d="M242.13,-22.28C232.24,-25.05 222.01,-27.92 213.04,-30.43"/>
<polygon fill="midnightblue" stroke="midnightblue" points="243.18,-25.62 251.87,-19.56 241.29,-18.88 243.18,-25.62"/>
</g>
<!-- Node7&#45;&gt;Node7 -->
<g id="edge7" class="edge">
<title>Node7&#45;&gt;Node7</title>
<path fill="none" stroke="midnightblue" d="M305.89,-29.4C304.63,-34.31 298.33,-38 287,-38 268.87,-38 263.63,-28.57 271.28,-19.76"/>
<polygon fill="midnightblue" stroke="midnightblue" points="309.17,-28.17 302.72,-19.76 302.52,-30.35 309.17,-28.17"/>
</g>
</g>
</svg>
