<?xml version="1.0" encoding="UTF-8" standalone="no"?>
<!DOCTYPE svg PUBLIC "-//W3C//DTD SVG 1.1//EN"
 "http://www.w3.org/Graphics/SVG/1.1/DTD/svg11.dtd">
<!-- Generated by graphviz version 2.50.0 (20220203.2022)
 -->
<!-- Title: read_rtc Pages: 1 -->
<svg width="558pt" height="79pt"
 viewBox="0.00 0.00 558.00 79.00" xmlns="http://www.w3.org/2000/svg" xmlns:xlink="http://www.w3.org/1999/xlink">
<g id="graph0" class="graph" transform="scale(1 1) rotate(0) translate(4 75)">
<title>read_rtc</title>
<!-- Node1 -->
<g id="node1" class="node">
<title>Node1</title>
<g id="a_node1"><a xlink:title=" ">
<polygon fill="#bfbfbf" stroke="black" points="498,-32.5 498,-51.5 550,-51.5 550,-32.5 498,-32.5"/>
<text text-anchor="middle" x="524" y="-39.5" font-family="Helvetica,sans-Serif" font-size="10.00">read_rtc</text>
</a>
</g>
</g>
<!-- Node2 -->
<g id="node2" class="node">
<title>Node2</title>
<g id="a_node2"><a xlink:href="ioe_8c.html#ad0681f53bec9167d7a8d4d848b3ce2e0" target="_top" xlink:title=" ">
<polygon fill="none" stroke="black" points="379,-13.5 379,-32.5 462,-32.5 462,-13.5 379,-13.5"/>
<text text-anchor="middle" x="420.5" y="-20.5" font-family="Helvetica,sans-Serif" font-size="10.00">read_rtc_async</text>
</a>
</g>
</g>
<!-- Node1&#45;&gt;Node2 -->
<g id="edge1" class="edge">
<title>Node1&#45;&gt;Node2</title>
<path fill="none" stroke="midnightblue" d="M487.81,-35.41C479.52,-33.86 470.61,-32.19 462.1,-30.6"/>
<polygon fill="midnightblue" stroke="midnightblue" points="487.44,-38.9 497.91,-37.3 488.72,-32.02 487.44,-38.9"/>
</g>
<!-- Node3 -->
<g id="node3" class="node">
<title>Node3</title>
<g id="a_node3"><a xlink:href="ioe_8c.html#a7b167e0bb31c8168406860a278ce693a" target="_top" xlink:title=" ">
<polygon fill="none" stroke="black" points="287.5,-51.5 287.5,-70.5 342.5,-70.5 342.5,-51.5 287.5,-51.5"/>
<text text-anchor="middle" x="315" y="-58.5" font-family="Helvetica,sans-Serif" font-size="10.00">timer_rtc</text>
</a>
</g>
</g>
<!-- Node1&#45;&gt;Node3 -->
<g id="edge9" class="edge">
<title>Node1&#45;&gt;Node3</title>
<path fill="none" stroke="midnightblue" d="M487.49,-45.26C446.34,-49.04 379.48,-55.17 342.57,-58.56"/>
<polygon fill="midnightblue" stroke="midnightblue" points="487.98,-48.73 497.62,-44.33 487.34,-41.76 487.98,-48.73"/>
</g>
<!-- Node2&#45;&gt;Node3 -->
<g id="edge2" class="edge">
<title>Node2&#45;&gt;Node3</title>
<path fill="none" stroke="midnightblue" d="M383.77,-36.12C370.08,-41.14 354.73,-46.78 342.11,-51.41"/>
<polygon fill="midnightblue" stroke="midnightblue" points="385.2,-39.32 393.38,-32.59 382.79,-32.75 385.2,-39.32"/>
</g>
<!-- Node6 -->
<g id="node6" class="node">
<title>Node6</title>
<g id="a_node6"><a xlink:href="ioe_8c.html#a716ac8111009464db83866c3b49adbbb" target="_top" xlink:title=" ">
<polygon fill="none" stroke="black" points="287,-9.5 287,-28.5 343,-28.5 343,-9.5 287,-9.5"/>
<text text-anchor="middle" x="315" y="-16.5" font-family="Helvetica,sans-Serif" font-size="10.00">wait_sec</text>
</a>
</g>
</g>
<!-- Node2&#45;&gt;Node6 -->
<g id="edge5" class="edge">
<title>Node2&#45;&gt;Node6</title>
<path fill="none" stroke="midnightblue" d="M368.62,-21.03C359.81,-20.69 350.96,-20.35 343.11,-20.05"/>
<polygon fill="midnightblue" stroke="midnightblue" points="368.76,-24.54 378.89,-21.43 369.03,-17.55 368.76,-24.54"/>
</g>
<!-- Node4 -->
<g id="node4" class="node">
<title>Node4</title>
<g id="a_node4"><a xlink:href="ioe_8c.html#ac17b85035372c81a45e604e6b4783db2" target="_top" xlink:title=" ">
<polygon fill="none" stroke="black" points="83,-28.5 83,-47.5 139,-47.5 139,-28.5 83,-28.5"/>
<text text-anchor="middle" x="111" y="-35.5" font-family="Helvetica,sans-Serif" font-size="10.00">timer_init</text>
</a>
</g>
</g>
<!-- Node3&#45;&gt;Node4 -->
<g id="edge3" class="edge">
<title>Node3&#45;&gt;Node4</title>
<path fill="none" stroke="midnightblue" d="M277.17,-57.71C249.12,-55.1 209.59,-51.21 175,-47 163.26,-45.57 150.33,-43.76 139.26,-42.15"/>
<polygon fill="midnightblue" stroke="midnightblue" points="277.04,-61.21 287.32,-58.64 277.68,-54.24 277.04,-61.21"/>
</g>
<!-- Node5 -->
<g id="node5" class="node">
<title>Node5</title>
<g id="a_node5"><a xlink:href="ioe_8c.html#a45ecef4130276c1c79d872c582cd3839" target="_top" xlink:title=" ">
<polygon fill="none" stroke="black" points="0,-28.5 0,-47.5 47,-47.5 47,-28.5 0,-28.5"/>
<text text-anchor="middle" x="23.5" y="-35.5" font-family="Helvetica,sans-Serif" font-size="10.00">ioe_init</text>
</a>
</g>
</g>
<!-- Node4&#45;&gt;Node5 -->
<g id="edge4" class="edge">
<title>Node4&#45;&gt;Node5</title>
<path fill="none" stroke="midnightblue" d="M72.88,-38C64.09,-38 54.99,-38 47.08,-38"/>
<polygon fill="midnightblue" stroke="midnightblue" points="72.95,-41.5 82.95,-38 72.95,-34.5 72.95,-41.5"/>
</g>
<!-- Node7 -->
<g id="node7" class="node">
<title>Node7</title>
<g id="a_node7"><a xlink:href="ioe_8c.html#a8f4d57167e8d4b53c00c84e504f330ef" target="_top" xlink:title=" ">
<polygon fill="none" stroke="black" points="175,-0.5 175,-19.5 251,-19.5 251,-0.5 175,-0.5"/>
<text text-anchor="middle" x="213" y="-7.5" font-family="Helvetica,sans-Serif" font-size="10.00">estimate_freq</text>
</a>
</g>
</g>
<!-- Node6&#45;&gt;Node7 -->
<g id="edge6" class="edge">
<title>Node6&#45;&gt;Node7</title>
<path fill="none" stroke="midnightblue" d="M276.73,-15.65C268.39,-14.9 259.55,-14.1 251.22,-13.35"/>
<polygon fill="midnightblue" stroke="midnightblue" points="276.67,-19.15 286.94,-16.56 277.29,-12.18 276.67,-19.15"/>
</g>
<!-- Node7&#45;&gt;Node4 -->
<g id="edge8" class="edge">
<title>Node7&#45;&gt;Node4</title>
<path fill="none" stroke="midnightblue" d="M168.13,-22.28C158.24,-25.05 148.01,-27.92 139.04,-30.43"/>
<polygon fill="midnightblue" stroke="midnightblue" points="169.18,-25.62 177.87,-19.56 167.29,-18.88 169.18,-25.62"/>
</g>
<!-- Node7&#45;&gt;Node7 -->
<g id="edge7" class="edge">
<title>Node7&#45;&gt;Node7</title>
<path fill="none" stroke="midnightblue" d="M231.89,-29.4C230.63,-34.31 224.33,-38 213,-38 194.87,-38 189.63,-28.57 197.28,-19.76"/>
<polygon fill="midnightblue" stroke="midnightblue" points="235.17,-28.17 228.72,-19.76 228.52,-30.35 235.17,-28.17"/>
</g>
</g>
</svg>
