<?xml version="1.0" encoding="UTF-8" standalone="no"?>
<!DOCTYPE svg PUBLIC "-//W3C//DTD SVG 1.1//EN"
 "http://www.w3.org/Graphics/SVG/1.1/DTD/svg11.dtd">
<!-- Generated by graphviz version 3.0.0 (20220413.0106)
 -->
<!-- Title: wait_sec Pages: 1 -->
<svg width="342pt" height="66pt"
 viewBox="0.00 0.00 342.00 66.00" xmlns="http://www.w3.org/2000/svg" xmlns:xlink="http://www.w3.org/1999/xlink">
<g id="graph0" class="graph" transform="scale(1 1) rotate(0) translate(4 62)">
<title>wait_sec</title>
<!-- Node1 -->
<g id="node1" class="node">
<title>Node1</title>
<g id="a_node1"><a xlink:title=" ">
<polygon fill="#bfbfbf" stroke="black" points="0,-19.5 0,-38.5 56,-38.5 56,-19.5 0,-19.5"/>
<text text-anchor="middle" x="28" y="-26.5" font-family="Helvetica,sans-Serif" font-size="10.00">wait_sec</text>
</a>
</g>
</g>
<!-- Node2 -->
<g id="node2" class="node">
<title>Node2</title>
<g id="a_node2"><a xlink:href="ioe_8c.html#ad0681f53bec9167d7a8d4d848b3ce2e0" target="_top" xlink:title=" ">
<polygon fill="none" stroke="black" points="92,-19.5 92,-38.5 175,-38.5 175,-19.5 92,-19.5"/>
<text text-anchor="middle" x="133.5" y="-26.5" font-family="Helvetica,sans-Serif" font-size="10.00">read_rtc_async</text>
</a>
</g>
</g>
<!-- Node1&#45;&gt;Node2 -->
<g id="edge1" class="edge">
<title>Node1&#45;&gt;Node2</title>
<path fill="none" stroke="midnightblue" d="M56.19,-29C64.03,-29 72.84,-29 81.62,-29"/>
<polygon fill="midnightblue" stroke="midnightblue" points="81.85,-32.5 91.85,-29 81.85,-25.5 81.85,-32.5"/>
</g>
<!-- Node3 -->
<g id="node3" class="node">
<title>Node3</title>
<g id="a_node3"><a xlink:href="ioe_8c.html#a124b85735169c7add3c491093ffbc00e" target="_top" xlink:title=" ">
<polygon fill="none" stroke="black" points="211,-19.5 211,-38.5 263,-38.5 263,-19.5 211,-19.5"/>
<text text-anchor="middle" x="237" y="-26.5" font-family="Helvetica,sans-Serif" font-size="10.00">read_rtc</text>
</a>
</g>
</g>
<!-- Node2&#45;&gt;Node3 -->
<g id="edge2" class="edge">
<title>Node2&#45;&gt;Node3</title>
<path fill="none" stroke="midnightblue" d="M175.2,-29C183.65,-29 192.49,-29 200.73,-29"/>
<polygon fill="midnightblue" stroke="midnightblue" points="200.77,-32.5 210.77,-29 200.77,-25.5 200.77,-32.5"/>
</g>
<!-- Node4 -->
<g id="node4" class="node">
<title>Node4</title>
<g id="a_node4"><a xlink:href="x86_8h.html#afdc603aa210ab8fd9995ce74940f5d7f" target="_top" xlink:title=" ">
<polygon fill="none" stroke="black" points="302,-38.5 302,-57.5 331,-57.5 331,-38.5 302,-38.5"/>
<text text-anchor="middle" x="316.5" y="-45.5" font-family="Helvetica,sans-Serif" font-size="10.00">inb</text>
</a>
</g>
</g>
<!-- Node3&#45;&gt;Node4 -->
<g id="edge3" class="edge">
<title>Node3&#45;&gt;Node4</title>
<path fill="none" stroke="midnightblue" d="M263.38,-35.22C272.51,-37.46 282.78,-39.98 291.78,-42.18"/>
<polygon fill="midnightblue" stroke="midnightblue" points="291.05,-45.61 301.6,-44.59 292.72,-38.81 291.05,-45.61"/>
</g>
<!-- Node5 -->
<g id="node5" class="node">
<title>Node5</title>
<g id="a_node5"><a xlink:href="x86_8h.html#ade961b44e45ddacbc3c3b7609cf36dc6" target="_top" xlink:title=" ">
<polygon fill="none" stroke="black" points="299,-0.5 299,-19.5 334,-19.5 334,-0.5 299,-0.5"/>
<text text-anchor="middle" x="316.5" y="-7.5" font-family="Helvetica,sans-Serif" font-size="10.00">outb</text>
</a>
</g>
</g>
<!-- Node3&#45;&gt;Node5 -->
<g id="edge4" class="edge">
<title>Node3&#45;&gt;Node5</title>
<path fill="none" stroke="midnightblue" d="M263.38,-22.78C271.57,-20.77 280.67,-18.54 288.95,-16.51"/>
<polygon fill="midnightblue" stroke="midnightblue" points="289.98,-19.86 298.86,-14.08 288.32,-13.06 289.98,-19.86"/>
</g>
</g>
</svg>
