<?xml version="1.0" encoding="UTF-8" standalone="no"?>
<!DOCTYPE svg PUBLIC "-//W3C//DTD SVG 1.1//EN"
 "http://www.w3.org/Graphics/SVG/1.1/DTD/svg11.dtd">
<!-- Generated by graphviz version 3.0.0 (20220413.0106)
 -->
<!-- Title: ioapicread Pages: 1 -->
<svg width="416pt" height="28pt"
 viewBox="0.00 0.00 416.00 28.00" xmlns="http://www.w3.org/2000/svg" xmlns:xlink="http://www.w3.org/1999/xlink">
<g id="graph0" class="graph" transform="scale(1 1) rotate(0) translate(4 24)">
<title>ioapicread</title>
<!-- Node1 -->
<g id="node1" class="node">
<title>Node1</title>
<g id="a_node1"><a xlink:title=" ">
<polygon fill="#bfbfbf" stroke="black" points="347,-0.5 347,-19.5 408,-19.5 408,-0.5 347,-0.5"/>
<text text-anchor="middle" x="377.5" y="-7.5" font-family="Helvetica,sans-Serif" font-size="10.00">ioapicread</text>
</a>
</g>
</g>
<!-- Node2 -->
<g id="node2" class="node">
<title>Node2</title>
<g id="a_node2"><a xlink:href="ioe_8c.html#a0f69ba538f46238680ae9887bf11331a" target="_top" xlink:title=" ">
<polygon fill="none" stroke="black" points="222,-0.5 222,-19.5 311,-19.5 311,-0.5 222,-0.5"/>
<text text-anchor="middle" x="266.5" y="-7.5" font-family="Helvetica,sans-Serif" font-size="10.00">__am_ioapic_init</text>
</a>
</g>
</g>
<!-- Node1&#45;&gt;Node2 -->
<g id="edge1" class="edge">
<title>Node1&#45;&gt;Node2</title>
<path fill="none" stroke="midnightblue" d="M336.56,-10C328.29,-10 319.54,-10 311.15,-10"/>
<polygon fill="midnightblue" stroke="midnightblue" points="336.72,-13.5 346.72,-10 336.72,-6.5 336.72,-13.5"/>
</g>
<!-- Node3 -->
<g id="node3" class="node">
<title>Node3</title>
<g id="a_node3"><a xlink:href="trm_8c.html#a75e130ff99ad31f9a1df206b5ff8252a" target="_top" xlink:title=" ">
<polygon fill="none" stroke="black" points="88,-0.5 88,-19.5 186,-19.5 186,-0.5 88,-0.5"/>
<text text-anchor="middle" x="137" y="-7.5" font-family="Helvetica,sans-Serif" font-size="10.00">__am_bootcpu_init</text>
</a>
</g>
</g>
<!-- Node2&#45;&gt;Node3 -->
<g id="edge2" class="edge">
<title>Node2&#45;&gt;Node3</title>
<path fill="none" stroke="midnightblue" d="M211.76,-10C203.26,-10 194.5,-10 186.13,-10"/>
<polygon fill="midnightblue" stroke="midnightblue" points="211.98,-13.5 221.98,-10 211.98,-6.5 211.98,-13.5"/>
</g>
<!-- Node4 -->
<g id="node4" class="node">
<title>Node4</title>
<g id="a_node4"><a xlink:href="trm_8c.html#a54a85aeee6f6a8ef875d4cca663f9fd8" target="_top" xlink:title=" ">
<polygon fill="none" stroke="black" points="0,-0.5 0,-19.5 52,-19.5 52,-0.5 0,-0.5"/>
<text text-anchor="middle" x="26" y="-7.5" font-family="Helvetica,sans-Serif" font-size="10.00">_start_c</text>
</a>
</g>
</g>
<!-- Node3&#45;&gt;Node4 -->
<g id="edge3" class="edge">
<title>Node3&#45;&gt;Node4</title>
<path fill="none" stroke="midnightblue" d="M77.72,-10C68.74,-10 59.89,-10 52.16,-10"/>
<polygon fill="midnightblue" stroke="midnightblue" points="77.87,-13.5 87.87,-10 77.87,-6.5 77.87,-13.5"/>
</g>
</g>
</svg>
