<?xml version="1.0" encoding="UTF-8" standalone="no"?>
<!DOCTYPE svg PUBLIC "-//W3C//DTD SVG 1.1//EN"
 "http://www.w3.org/Graphics/SVG/1.1/DTD/svg11.dtd">
<!-- Generated by graphviz version 2.50.0 (20220203.2022)
 -->
<!-- Title: read_rtc_async Pages: 1 -->
<svg width="470pt" height="84pt"
 viewBox="0.00 0.00 470.00 84.00" xmlns="http://www.w3.org/2000/svg" xmlns:xlink="http://www.w3.org/1999/xlink">
<g id="graph0" class="graph" transform="scale(1 1) rotate(0) translate(4 80)">
<title>read_rtc_async</title>
<!-- Node1 -->
<g id="node1" class="node">
<title>Node1</title>
<g id="a_node1"><a xlink:title=" ">
<polygon fill="#bfbfbf" stroke="black" points="379,-28.5 379,-47.5 462,-47.5 462,-28.5 379,-28.5"/>
<text text-anchor="middle" x="420.5" y="-35.5" font-family="Helvetica,sans-Serif" font-size="10.00">read_rtc_async</text>
</a>
</g>
</g>
<!-- Node2 -->
<g id="node2" class="node">
<title>Node2</title>
<g id="a_node2"><a xlink:href="ioe_8c.html#a7b167e0bb31c8168406860a278ce693a" target="_top" xlink:title=" ">
<polygon fill="none" stroke="black" points="185.5,-56.5 185.5,-75.5 240.5,-75.5 240.5,-56.5 185.5,-56.5"/>
<text text-anchor="middle" x="213" y="-63.5" font-family="Helvetica,sans-Serif" font-size="10.00">timer_rtc</text>
</a>
</g>
</g>
<!-- Node1&#45;&gt;Node2 -->
<g id="edge1" class="edge">
<title>Node1&#45;&gt;Node2</title>
<path fill="none" stroke="midnightblue" d="M368.94,-44.89C328.43,-50.41 273.19,-57.94 240.78,-62.35"/>
<polygon fill="midnightblue" stroke="midnightblue" points="369.46,-48.35 378.9,-43.53 368.52,-41.41 369.46,-48.35"/>
</g>
<!-- Node5 -->
<g id="node5" class="node">
<title>Node5</title>
<g id="a_node5"><a xlink:href="ioe_8c.html#a716ac8111009464db83866c3b49adbbb" target="_top" xlink:title=" ">
<polygon fill="none" stroke="black" points="287,-9.5 287,-28.5 343,-28.5 343,-9.5 287,-9.5"/>
<text text-anchor="middle" x="315" y="-16.5" font-family="Helvetica,sans-Serif" font-size="10.00">wait_sec</text>
</a>
</g>
</g>
<!-- Node1&#45;&gt;Node5 -->
<g id="edge4" class="edge">
<title>Node1&#45;&gt;Node5</title>
<path fill="none" stroke="midnightblue" d="M368.91,-28.71C360,-27.08 351.05,-25.43 343.11,-23.98"/>
<polygon fill="midnightblue" stroke="midnightblue" points="368.42,-32.18 378.89,-30.55 369.69,-25.3 368.42,-32.18"/>
</g>
<!-- Node3 -->
<g id="node3" class="node">
<title>Node3</title>
<g id="a_node3"><a xlink:href="ioe_8c.html#ac17b85035372c81a45e604e6b4783db2" target="_top" xlink:title=" ">
<polygon fill="none" stroke="black" points="83,-28.5 83,-47.5 139,-47.5 139,-28.5 83,-28.5"/>
<text text-anchor="middle" x="111" y="-35.5" font-family="Helvetica,sans-Serif" font-size="10.00">timer_init</text>
</a>
</g>
</g>
<!-- Node2&#45;&gt;Node3 -->
<g id="edge2" class="edge">
<title>Node2&#45;&gt;Node3</title>
<path fill="none" stroke="midnightblue" d="M175.64,-55.82C163.53,-52.43 150.28,-48.72 139.01,-45.56"/>
<polygon fill="midnightblue" stroke="midnightblue" points="174.89,-59.24 185.46,-58.57 176.78,-52.5 174.89,-59.24"/>
</g>
<!-- Node4 -->
<g id="node4" class="node">
<title>Node4</title>
<g id="a_node4"><a xlink:href="ioe_8c.html#a45ecef4130276c1c79d872c582cd3839" target="_top" xlink:title=" ">
<polygon fill="none" stroke="black" points="0,-28.5 0,-47.5 47,-47.5 47,-28.5 0,-28.5"/>
<text text-anchor="middle" x="23.5" y="-35.5" font-family="Helvetica,sans-Serif" font-size="10.00">ioe_init</text>
</a>
</g>
</g>
<!-- Node3&#45;&gt;Node4 -->
<g id="edge3" class="edge">
<title>Node3&#45;&gt;Node4</title>
<path fill="none" stroke="midnightblue" d="M72.88,-38C64.09,-38 54.99,-38 47.08,-38"/>
<polygon fill="midnightblue" stroke="midnightblue" points="72.95,-41.5 82.95,-38 72.95,-34.5 72.95,-41.5"/>
</g>
<!-- Node6 -->
<g id="node6" class="node">
<title>Node6</title>
<g id="a_node6"><a xlink:href="ioe_8c.html#a8f4d57167e8d4b53c00c84e504f330ef" target="_top" xlink:title=" ">
<polygon fill="none" stroke="black" points="175,-0.5 175,-19.5 251,-19.5 251,-0.5 175,-0.5"/>
<text text-anchor="middle" x="213" y="-7.5" font-family="Helvetica,sans-Serif" font-size="10.00">estimate_freq</text>
</a>
</g>
</g>
<!-- Node5&#45;&gt;Node6 -->
<g id="edge5" class="edge">
<title>Node5&#45;&gt;Node6</title>
<path fill="none" stroke="midnightblue" d="M276.73,-15.65C268.39,-14.9 259.55,-14.1 251.22,-13.35"/>
<polygon fill="midnightblue" stroke="midnightblue" points="276.67,-19.15 286.94,-16.56 277.29,-12.18 276.67,-19.15"/>
</g>
<!-- Node6&#45;&gt;Node3 -->
<g id="edge7" class="edge">
<title>Node6&#45;&gt;Node3</title>
<path fill="none" stroke="midnightblue" d="M168.13,-22.28C158.24,-25.05 148.01,-27.92 139.04,-30.43"/>
<polygon fill="midnightblue" stroke="midnightblue" points="169.18,-25.62 177.87,-19.56 167.29,-18.88 169.18,-25.62"/>
</g>
<!-- Node6&#45;&gt;Node6 -->
<g id="edge6" class="edge">
<title>Node6&#45;&gt;Node6</title>
<path fill="none" stroke="midnightblue" d="M231.89,-29.4C230.63,-34.31 224.33,-38 213,-38 194.87,-38 189.63,-28.57 197.28,-19.76"/>
<polygon fill="midnightblue" stroke="midnightblue" points="235.17,-28.17 228.72,-19.76 228.52,-30.35 235.17,-28.17"/>
</g>
</g>
</svg>
