<?xml version="1.0" encoding="UTF-8" standalone="no"?>
<!DOCTYPE svg PUBLIC "-//W3C//DTD SVG 1.1//EN"
 "http://www.w3.org/Graphics/SVG/1.1/DTD/svg11.dtd">
<!-- Generated by graphviz version 2.50.0 (20220203.2022)
 -->
<!-- Title: disk_blkio Pages: 1 -->
<svg width="227pt" height="142pt"
 viewBox="0.00 0.00 227.00 142.00" xmlns="http://www.w3.org/2000/svg" xmlns:xlink="http://www.w3.org/1999/xlink">
<g id="graph0" class="graph" transform="scale(1 1) rotate(0) translate(4 138)">
<title>disk_blkio</title>
<!-- Node1 -->
<g id="node1" class="node">
<title>Node1</title>
<g id="a_node1"><a xlink:title=" ">
<polygon fill="#bfbfbf" stroke="black" points="0,-57.5 0,-76.5 60,-76.5 60,-57.5 0,-57.5"/>
<text text-anchor="middle" x="30" y="-64.5" font-family="Helvetica,sans-Serif" font-size="10.00">disk_blkio</text>
</a>
</g>
</g>
<!-- Node2 -->
<g id="node2" class="node">
<title>Node2</title>
<g id="a_node2"><a xlink:href="x86_8h.html#a4dc39efad1eea8befe2658287ec39913" target="_top" xlink:title=" ">
<polygon fill="none" stroke="black" points="110.5,-114.5 110.5,-133.5 139.5,-133.5 139.5,-114.5 110.5,-114.5"/>
<text text-anchor="middle" x="125" y="-121.5" font-family="Helvetica,sans-Serif" font-size="10.00">inl</text>
</a>
</g>
</g>
<!-- Node1&#45;&gt;Node2 -->
<g id="edge1" class="edge">
<title>Node1&#45;&gt;Node2</title>
<path fill="none" stroke="midnightblue" d="M46.78,-76.67C61.82,-85.89 84.62,-99.87 101.56,-110.24"/>
<polygon fill="midnightblue" stroke="midnightblue" points="99.92,-113.34 110.27,-115.59 103.57,-107.38 99.92,-113.34"/>
</g>
<!-- Node3 -->
<g id="node3" class="node">
<title>Node3</title>
<g id="a_node3"><a xlink:href="x86_8h.html#ade961b44e45ddacbc3c3b7609cf36dc6" target="_top" xlink:title=" ">
<polygon fill="none" stroke="black" points="107.5,-76.5 107.5,-95.5 142.5,-95.5 142.5,-76.5 107.5,-76.5"/>
<text text-anchor="middle" x="125" y="-83.5" font-family="Helvetica,sans-Serif" font-size="10.00">outb</text>
</a>
</g>
</g>
<!-- Node1&#45;&gt;Node3 -->
<g id="edge2" class="edge">
<title>Node1&#45;&gt;Node3</title>
<path fill="none" stroke="midnightblue" d="M60.17,-72.96C72.08,-75.39 85.76,-78.19 97.39,-80.56"/>
<polygon fill="midnightblue" stroke="midnightblue" points="96.89,-84.03 107.39,-82.61 98.29,-77.18 96.89,-84.03"/>
</g>
<!-- Node4 -->
<g id="node4" class="node">
<title>Node4</title>
<g id="a_node4"><a xlink:href="x86_8h.html#a6732a48aa03137d406ae5f7b346320f3" target="_top" xlink:title=" ">
<polygon fill="none" stroke="black" points="109,-38.5 109,-57.5 141,-57.5 141,-38.5 109,-38.5"/>
<text text-anchor="middle" x="125" y="-45.5" font-family="Helvetica,sans-Serif" font-size="10.00">outl</text>
</a>
</g>
</g>
<!-- Node1&#45;&gt;Node4 -->
<g id="edge3" class="edge">
<title>Node1&#45;&gt;Node4</title>
<path fill="none" stroke="midnightblue" d="M60.17,-61.04C72.57,-58.51 86.89,-55.58 98.81,-53.15"/>
<polygon fill="midnightblue" stroke="midnightblue" points="99.88,-56.5 108.97,-51.07 98.48,-49.64 99.88,-56.5"/>
</g>
<!-- Node5 -->
<g id="node5" class="node">
<title>Node5</title>
<g id="a_node5"><a xlink:href="ioe_8c.html#acbf8b730fa8737d9316857c2e9c16cb0" target="_top" xlink:title=" ">
<polygon fill="none" stroke="black" points="96,-0.5 96,-19.5 154,-19.5 154,-0.5 96,-0.5"/>
<text text-anchor="middle" x="125" y="-7.5" font-family="Helvetica,sans-Serif" font-size="10.00">wait_disk</text>
</a>
</g>
</g>
<!-- Node1&#45;&gt;Node5 -->
<g id="edge4" class="edge">
<title>Node1&#45;&gt;Node5</title>
<path fill="none" stroke="midnightblue" d="M46.78,-57.33C61.29,-48.43 83.04,-35.1 99.76,-24.86"/>
<polygon fill="midnightblue" stroke="midnightblue" points="101.76,-27.74 108.46,-19.53 98.1,-21.77 101.76,-27.74"/>
</g>
<!-- Node6 -->
<g id="node6" class="node">
<title>Node6</title>
<g id="a_node6"><a xlink:href="x86_8h.html#afdc603aa210ab8fd9995ce74940f5d7f" target="_top" xlink:title=" ">
<polygon fill="none" stroke="black" points="190,-0.5 190,-19.5 219,-19.5 219,-0.5 190,-0.5"/>
<text text-anchor="middle" x="204.5" y="-7.5" font-family="Helvetica,sans-Serif" font-size="10.00">inb</text>
</a>
</g>
</g>
<!-- Node5&#45;&gt;Node6 -->
<g id="edge5" class="edge">
<title>Node5&#45;&gt;Node6</title>
<path fill="none" stroke="midnightblue" d="M154.42,-10C162.73,-10 171.74,-10 179.73,-10"/>
<polygon fill="midnightblue" stroke="midnightblue" points="179.85,-13.5 189.85,-10 179.85,-6.5 179.85,-13.5"/>
</g>
</g>
</svg>
