<?xml version="1.0" encoding="UTF-8" standalone="no"?>
<!DOCTYPE svg PUBLIC "-//W3C//DTD SVG 1.1//EN"
 "http://www.w3.org/Graphics/SVG/1.1/DTD/svg11.dtd">
<!-- Generated by graphviz version 3.0.0 (20220413.0106)
 -->
<!-- Title: gpu_fbdraw Pages: 1 -->
<svg width="140pt" height="104pt"
 viewBox="0.00 0.00 140.00 104.00" xmlns="http://www.w3.org/2000/svg" xmlns:xlink="http://www.w3.org/1999/xlink">
<g id="graph0" class="graph" transform="scale(1 1) rotate(0) translate(4 100)">
<title>gpu_fbdraw</title>
<!-- Node1 -->
<g id="node1" class="node">
<title>Node1</title>
<g id="a_node1"><a xlink:title=" ">
<polygon fill="#bfbfbf" stroke="black" points="0,-38.5 0,-57.5 67,-57.5 67,-38.5 0,-38.5"/>
<text text-anchor="middle" x="33.5" y="-45.5" font-family="Helvetica,sans-Serif" font-size="10.00">gpu_fbdraw</text>
</a>
</g>
</g>
<!-- Node2 -->
<g id="node2" class="node">
<title>Node2</title>
<g id="a_node2"><a xlink:href="ioe_8c.html#ad4c46f1dc24721ba42882705c2f04754" target="_top" xlink:title=" ">
<polygon fill="none" stroke="black" points="103,-76.5 103,-95.5 132,-95.5 132,-76.5 103,-76.5"/>
<text text-anchor="middle" x="117.5" y="-83.5" font-family="Helvetica,sans-Serif" font-size="10.00">B</text>
</a>
</g>
</g>
<!-- Node1&#45;&gt;Node2 -->
<g id="edge1" class="edge">
<title>Node1&#45;&gt;Node2</title>
<path fill="none" stroke="midnightblue" d="M55.19,-57.59C66.76,-62.95 81.21,-69.64 93.17,-75.19"/>
<polygon fill="midnightblue" stroke="midnightblue" points="91.98,-78.49 102.52,-79.52 94.92,-72.14 91.98,-78.49"/>
</g>
<!-- Node3 -->
<g id="node3" class="node">
<title>Node3</title>
<g id="a_node3"><a xlink:href="ioe_8c.html#adc21659f3818e47f64bc7d757c49b467" target="_top" xlink:title=" ">
<polygon fill="none" stroke="black" points="103,-38.5 103,-57.5 132,-57.5 132,-38.5 103,-38.5"/>
<text text-anchor="middle" x="117.5" y="-45.5" font-family="Helvetica,sans-Serif" font-size="10.00">G</text>
</a>
</g>
</g>
<!-- Node1&#45;&gt;Node3 -->
<g id="edge2" class="edge">
<title>Node1&#45;&gt;Node3</title>
<path fill="none" stroke="midnightblue" d="M67.38,-48C75.74,-48 84.57,-48 92.4,-48"/>
<polygon fill="midnightblue" stroke="midnightblue" points="92.65,-51.5 102.65,-48 92.65,-44.5 92.65,-51.5"/>
</g>
<!-- Node4 -->
<g id="node4" class="node">
<title>Node4</title>
<g id="a_node4"><a xlink:href="ioe_8c.html#a283a97eb969495ff8d6c70d7cff572d6" target="_top" xlink:title=" ">
<polygon fill="none" stroke="black" points="103,-0.5 103,-19.5 132,-19.5 132,-0.5 103,-0.5"/>
<text text-anchor="middle" x="117.5" y="-7.5" font-family="Helvetica,sans-Serif" font-size="10.00">R</text>
</a>
</g>
</g>
<!-- Node1&#45;&gt;Node4 -->
<g id="edge3" class="edge">
<title>Node1&#45;&gt;Node4</title>
<path fill="none" stroke="midnightblue" d="M55.19,-38.41C66.76,-33.05 81.21,-26.36 93.17,-20.81"/>
<polygon fill="midnightblue" stroke="midnightblue" points="94.92,-23.86 102.52,-16.48 91.98,-17.51 94.92,-23.86"/>
</g>
</g>
</svg>
