<?xml version="1.0" encoding="UTF-8" standalone="no"?>
<!DOCTYPE svg PUBLIC "-//W3C//DTD SVG 1.1//EN"
 "http://www.w3.org/Graphics/SVG/1.1/DTD/svg11.dtd">
<!-- Generated by graphviz version 2.50.0 (20220203.2022)
 -->
<!-- Title: timer_rtc Pages: 1 -->
<svg width="238pt" height="28pt"
 viewBox="0.00 0.00 238.00 28.00" xmlns="http://www.w3.org/2000/svg" xmlns:xlink="http://www.w3.org/1999/xlink">
<g id="graph0" class="graph" transform="scale(1 1) rotate(0) translate(4 24)">
<title>timer_rtc</title>
<!-- Node1 -->
<g id="node1" class="node">
<title>Node1</title>
<g id="a_node1"><a xlink:title=" ">
<polygon fill="#bfbfbf" stroke="black" points="175,-0.5 175,-19.5 230,-19.5 230,-0.5 175,-0.5"/>
<text text-anchor="middle" x="202.5" y="-7.5" font-family="Helvetica,sans-Serif" font-size="10.00">timer_rtc</text>
</a>
</g>
</g>
<!-- Node2 -->
<g id="node2" class="node">
<title>Node2</title>
<g id="a_node2"><a xlink:href="ioe_8c.html#ac17b85035372c81a45e604e6b4783db2" target="_top" xlink:title=" ">
<polygon fill="none" stroke="black" points="83,-0.5 83,-19.5 139,-19.5 139,-0.5 83,-0.5"/>
<text text-anchor="middle" x="111" y="-7.5" font-family="Helvetica,sans-Serif" font-size="10.00">timer_init</text>
</a>
</g>
</g>
<!-- Node1&#45;&gt;Node2 -->
<g id="edge1" class="edge">
<title>Node1&#45;&gt;Node2</title>
<path fill="none" stroke="midnightblue" d="M164.55,-10C156.04,-10 147.15,-10 139.14,-10"/>
<polygon fill="midnightblue" stroke="midnightblue" points="164.65,-13.5 174.65,-10 164.65,-6.5 164.65,-13.5"/>
</g>
<!-- Node3 -->
<g id="node3" class="node">
<title>Node3</title>
<g id="a_node3"><a xlink:href="ioe_8c.html#a45ecef4130276c1c79d872c582cd3839" target="_top" xlink:title=" ">
<polygon fill="none" stroke="black" points="0,-0.5 0,-19.5 47,-19.5 47,-0.5 0,-0.5"/>
<text text-anchor="middle" x="23.5" y="-7.5" font-family="Helvetica,sans-Serif" font-size="10.00">ioe_init</text>
</a>
</g>
</g>
<!-- Node2&#45;&gt;Node3 -->
<g id="edge2" class="edge">
<title>Node2&#45;&gt;Node3</title>
<path fill="none" stroke="midnightblue" d="M72.88,-10C64.09,-10 54.99,-10 47.08,-10"/>
<polygon fill="midnightblue" stroke="midnightblue" points="72.95,-13.5 82.95,-10 72.95,-6.5 72.95,-13.5"/>
</g>
</g>
</svg>
