<?xml version="1.0" encoding="UTF-8" standalone="no"?>
<!DOCTYPE svg PUBLIC "-//W3C//DTD SVG 1.1//EN"
 "http://www.w3.org/Graphics/SVG/1.1/DTD/svg11.dtd">
<!-- Generated by graphviz version 2.50.0 (20220203.2022)
 -->
<!-- Title: ioe_init Pages: 1 -->
<svg width="641pt" height="199pt"
 viewBox="0.00 0.00 641.00 199.00" xmlns="http://www.w3.org/2000/svg" xmlns:xlink="http://www.w3.org/1999/xlink">
<g id="graph0" class="graph" transform="scale(1 1) rotate(0) translate(4 195)">
<title>ioe_init</title>
<!-- Node1 -->
<g id="node1" class="node">
<title>Node1</title>
<g id="a_node1"><a xlink:title=" ">
<polygon fill="#bfbfbf" stroke="black" points="0,-95.5 0,-114.5 47,-114.5 47,-95.5 0,-95.5"/>
<text text-anchor="middle" x="23.5" y="-102.5" font-family="Helvetica,sans-Serif" font-size="10.00">ioe_init</text>
</a>
</g>
</g>
<!-- Node2 -->
<g id="node2" class="node">
<title>Node2</title>
<g id="a_node2"><a xlink:href="mpe_8c.html#ab701de78cad32896c923ce900087e714" target="_top" xlink:title=" ">
<polygon fill="none" stroke="black" points="83,-171.5 83,-190.5 151,-190.5 151,-171.5 83,-171.5"/>
<text text-anchor="middle" x="117" y="-178.5" font-family="Helvetica,sans-Serif" font-size="10.00">cpu_current</text>
</a>
</g>
</g>
<!-- Node1&#45;&gt;Node2 -->
<g id="edge1" class="edge">
<title>Node1&#45;&gt;Node2</title>
<path fill="none" stroke="midnightblue" d="M32.98,-114.63C43.83,-126.62 63.55,-147.29 83,-162 84.8,-163.36 86.71,-164.7 88.66,-165.99"/>
<polygon fill="midnightblue" stroke="midnightblue" points="86.98,-169.06 97.33,-171.33 90.65,-163.1 86.98,-169.06"/>
</g>
<!-- Node3 -->
<g id="node3" class="node">
<title>Node3</title>
<g id="a_node3"><a xlink:href="ioe_8c.html#a6ade281e99f1f270ffeebb9d82416221" target="_top" xlink:title=" ">
<polygon fill="none" stroke="black" points="102.5,-133.5 102.5,-152.5 131.5,-152.5 131.5,-133.5 102.5,-133.5"/>
<text text-anchor="middle" x="117" y="-140.5" font-family="Helvetica,sans-Serif" font-size="10.00">fail</text>
</a>
</g>
</g>
<!-- Node1&#45;&gt;Node3 -->
<g id="edge2" class="edge">
<title>Node1&#45;&gt;Node3</title>
<path fill="none" stroke="midnightblue" d="M47.12,-114.39C61.09,-120.19 78.96,-127.62 93,-133.45"/>
<polygon fill="midnightblue" stroke="midnightblue" points="91.85,-136.76 102.43,-137.36 94.54,-130.3 91.85,-136.76"/>
</g>
<!-- Node4 -->
<g id="node4" class="node">
<title>Node4</title>
<g id="a_node4"><a xlink:href="ioe_8c.html#a581c0cd6946b2b6e0206453e2f80d51c" target="_top" xlink:title=" ">
<polygon fill="none" stroke="black" points="92,-95.5 92,-114.5 142,-114.5 142,-95.5 92,-95.5"/>
<text text-anchor="middle" x="117" y="-102.5" font-family="Helvetica,sans-Serif" font-size="10.00">gpu_init</text>
</a>
</g>
</g>
<!-- Node1&#45;&gt;Node4 -->
<g id="edge3" class="edge">
<title>Node1&#45;&gt;Node4</title>
<path fill="none" stroke="midnightblue" d="M47.12,-105C57.49,-105 70.02,-105 81.53,-105"/>
<polygon fill="midnightblue" stroke="midnightblue" points="81.72,-108.5 91.72,-105 81.72,-101.5 81.72,-108.5"/>
</g>
<!-- Node5 -->
<g id="node5" class="node">
<title>Node5</title>
<g id="a_node5"><a xlink:href="ioe_8c.html#ac17b85035372c81a45e604e6b4783db2" target="_top" xlink:title=" ">
<polygon fill="none" stroke="black" points="89,-57.5 89,-76.5 145,-76.5 145,-57.5 89,-57.5"/>
<text text-anchor="middle" x="117" y="-64.5" font-family="Helvetica,sans-Serif" font-size="10.00">timer_init</text>
</a>
</g>
</g>
<!-- Node1&#45;&gt;Node5 -->
<g id="edge4" class="edge">
<title>Node1&#45;&gt;Node5</title>
<path fill="none" stroke="midnightblue" d="M47.12,-95.61C58.14,-91.03 71.6,-85.44 83.68,-80.42"/>
<polygon fill="midnightblue" stroke="midnightblue" points="85.11,-83.62 93.01,-76.55 82.43,-77.15 85.11,-83.62"/>
</g>
<!-- Node14 -->
<g id="node14" class="node">
<title>Node14</title>
<g id="a_node14"><a xlink:href="ioe_8c.html#aa6bed8ea45612252dec485e7a9331a9d" target="_top" xlink:title=" ">
<polygon fill="none" stroke="black" points="510.5,-0.5 510.5,-19.5 561.5,-19.5 561.5,-0.5 510.5,-0.5"/>
<text text-anchor="middle" x="536" y="-7.5" font-family="Helvetica,sans-Serif" font-size="10.00">uart_init</text>
</a>
</g>
</g>
<!-- Node1&#45;&gt;Node14 -->
<g id="edge17" class="edge">
<title>Node1&#45;&gt;Node14</title>
<path fill="none" stroke="midnightblue" d="M31.72,-95.4C41.8,-82.66 61.31,-60.35 83,-48 139.39,-15.87 159.1,-10 224,-10 224,-10 224,-10 328,-10 388.66,-10 459.33,-10 500.43,-10"/>
<polygon fill="midnightblue" stroke="midnightblue" points="500.46,-13.5 510.46,-10 500.46,-6.5 500.46,-13.5"/>
</g>
<!-- Node6 -->
<g id="node6" class="node">
<title>Node6</title>
<g id="a_node6"><a xlink:href="ioe_8c.html#a8f4d57167e8d4b53c00c84e504f330ef" target="_top" xlink:title=" ">
<polygon fill="none" stroke="black" points="187,-114.5 187,-133.5 263,-133.5 263,-114.5 187,-114.5"/>
<text text-anchor="middle" x="225" y="-121.5" font-family="Helvetica,sans-Serif" font-size="10.00">estimate_freq</text>
</a>
</g>
</g>
<!-- Node5&#45;&gt;Node6 -->
<g id="edge5" class="edge">
<title>Node5&#45;&gt;Node6</title>
<path fill="none" stroke="midnightblue" d="M135.98,-76.67C152.83,-85.73 178.24,-99.39 197.43,-109.71"/>
<polygon fill="midnightblue" stroke="midnightblue" points="195.82,-112.82 206.28,-114.47 199.13,-106.65 195.82,-112.82"/>
</g>
<!-- Node7 -->
<g id="node7" class="node">
<title>Node7</title>
<g id="a_node7"><a xlink:href="x86_8h.html#a47b9d70be3022fd0b5687d9794ca47bc" target="_top" xlink:title=" ">
<polygon fill="none" stroke="black" points="308,-76.5 308,-95.5 346,-95.5 346,-76.5 308,-76.5"/>
<text text-anchor="middle" x="327" y="-83.5" font-family="Helvetica,sans-Serif" font-size="10.00">rdtsc</text>
</a>
</g>
</g>
<!-- Node5&#45;&gt;Node7 -->
<g id="edge13" class="edge">
<title>Node5&#45;&gt;Node7</title>
<path fill="none" stroke="midnightblue" d="M145.19,-69.48C184.73,-73.1 257.74,-79.77 297.83,-83.43"/>
<polygon fill="midnightblue" stroke="midnightblue" points="297.7,-86.93 307.97,-84.35 298.33,-79.96 297.7,-86.93"/>
</g>
<!-- Node13 -->
<g id="node13" class="node">
<title>Node13</title>
<g id="a_node13"><a xlink:href="ioe_8c.html#a7b167e0bb31c8168406860a278ce693a" target="_top" xlink:title=" ">
<polygon fill="none" stroke="black" points="299.5,-38.5 299.5,-57.5 354.5,-57.5 354.5,-38.5 299.5,-38.5"/>
<text text-anchor="middle" x="327" y="-45.5" font-family="Helvetica,sans-Serif" font-size="10.00">timer_rtc</text>
</a>
</g>
</g>
<!-- Node5&#45;&gt;Node13 -->
<g id="edge14" class="edge">
<title>Node5&#45;&gt;Node13</title>
<path fill="none" stroke="midnightblue" d="M145.19,-64.52C182.07,-61.15 248.04,-55.12 289.29,-51.35"/>
<polygon fill="midnightblue" stroke="midnightblue" points="289.82,-54.82 299.46,-50.42 289.18,-47.85 289.82,-54.82"/>
</g>
<!-- Node6&#45;&gt;Node6 -->
<g id="edge6" class="edge">
<title>Node6&#45;&gt;Node6</title>
<path fill="none" stroke="midnightblue" d="M209.28,-133.76C201.63,-142.57 206.87,-152 225,-152 236.33,-152 242.63,-148.31 243.89,-143.4"/>
<polygon fill="midnightblue" stroke="midnightblue" points="247.17,-142.17 240.72,-133.76 240.52,-144.35 247.17,-142.17"/>
</g>
<!-- Node6&#45;&gt;Node7 -->
<g id="edge7" class="edge">
<title>Node6&#45;&gt;Node7</title>
<path fill="none" stroke="midnightblue" d="M251.23,-114.41C265.53,-108.98 283.43,-102.18 298.13,-96.59"/>
<polygon fill="midnightblue" stroke="midnightblue" points="299.61,-99.77 307.72,-92.95 297.13,-93.23 299.61,-99.77"/>
</g>
<!-- Node8 -->
<g id="node8" class="node">
<title>Node8</title>
<g id="a_node8"><a xlink:href="ioe_8c.html#a716ac8111009464db83866c3b49adbbb" target="_top" xlink:title=" ">
<polygon fill="none" stroke="black" points="299,-114.5 299,-133.5 355,-133.5 355,-114.5 299,-114.5"/>
<text text-anchor="middle" x="327" y="-121.5" font-family="Helvetica,sans-Serif" font-size="10.00">wait_sec</text>
</a>
</g>
</g>
<!-- Node6&#45;&gt;Node8 -->
<g id="edge8" class="edge">
<title>Node6&#45;&gt;Node8</title>
<path fill="none" stroke="midnightblue" d="M263.24,-124C271.51,-124 280.29,-124 288.58,-124"/>
<polygon fill="midnightblue" stroke="midnightblue" points="288.73,-127.5 298.73,-124 288.73,-120.5 288.73,-127.5"/>
</g>
<!-- Node9 -->
<g id="node9" class="node">
<title>Node9</title>
<g id="a_node9"><a xlink:href="ioe_8c.html#ad0681f53bec9167d7a8d4d848b3ce2e0" target="_top" xlink:title=" ">
<polygon fill="none" stroke="black" points="391,-76.5 391,-95.5 474,-95.5 474,-76.5 391,-76.5"/>
<text text-anchor="middle" x="432.5" y="-83.5" font-family="Helvetica,sans-Serif" font-size="10.00">read_rtc_async</text>
</a>
</g>
</g>
<!-- Node8&#45;&gt;Node9 -->
<g id="edge9" class="edge">
<title>Node8&#45;&gt;Node9</title>
<path fill="none" stroke="midnightblue" d="M354.12,-114.41C366.74,-109.78 382.09,-104.14 395.78,-99.11"/>
<polygon fill="midnightblue" stroke="midnightblue" points="397.21,-102.32 405.39,-95.59 394.8,-95.75 397.21,-102.32"/>
</g>
<!-- Node10 -->
<g id="node10" class="node">
<title>Node10</title>
<g id="a_node10"><a xlink:href="ioe_8c.html#a124b85735169c7add3c491093ffbc00e" target="_top" xlink:title=" ">
<polygon fill="none" stroke="black" points="510,-38.5 510,-57.5 562,-57.5 562,-38.5 510,-38.5"/>
<text text-anchor="middle" x="536" y="-45.5" font-family="Helvetica,sans-Serif" font-size="10.00">read_rtc</text>
</a>
</g>
</g>
<!-- Node9&#45;&gt;Node10 -->
<g id="edge10" class="edge">
<title>Node9&#45;&gt;Node10</title>
<path fill="none" stroke="midnightblue" d="M459.11,-76.41C471.59,-71.74 486.78,-66.05 500.28,-61"/>
<polygon fill="midnightblue" stroke="midnightblue" points="501.61,-64.24 509.75,-57.45 499.15,-57.68 501.61,-64.24"/>
</g>
<!-- Node11 -->
<g id="node11" class="node">
<title>Node11</title>
<g id="a_node11"><a xlink:href="x86_8h.html#afdc603aa210ab8fd9995ce74940f5d7f" target="_top" xlink:title=" ">
<polygon fill="none" stroke="black" points="601,-38.5 601,-57.5 630,-57.5 630,-38.5 601,-38.5"/>
<text text-anchor="middle" x="615.5" y="-45.5" font-family="Helvetica,sans-Serif" font-size="10.00">inb</text>
</a>
</g>
</g>
<!-- Node10&#45;&gt;Node11 -->
<g id="edge11" class="edge">
<title>Node10&#45;&gt;Node11</title>
<path fill="none" stroke="midnightblue" d="M562.38,-48C571.42,-48 581.56,-48 590.48,-48"/>
<polygon fill="midnightblue" stroke="midnightblue" points="590.6,-51.5 600.6,-48 590.6,-44.5 590.6,-51.5"/>
</g>
<!-- Node12 -->
<g id="node12" class="node">
<title>Node12</title>
<g id="a_node12"><a xlink:href="x86_8h.html#ade961b44e45ddacbc3c3b7609cf36dc6" target="_top" xlink:title=" ">
<polygon fill="none" stroke="black" points="598,-0.5 598,-19.5 633,-19.5 633,-0.5 598,-0.5"/>
<text text-anchor="middle" x="615.5" y="-7.5" font-family="Helvetica,sans-Serif" font-size="10.00">outb</text>
</a>
</g>
</g>
<!-- Node10&#45;&gt;Node12 -->
<g id="edge12" class="edge">
<title>Node10&#45;&gt;Node12</title>
<path fill="none" stroke="midnightblue" d="M556.56,-38.41C566.31,-33.63 578.23,-27.79 588.71,-22.64"/>
<polygon fill="midnightblue" stroke="midnightblue" points="590.4,-25.71 597.84,-18.17 587.32,-19.43 590.4,-25.71"/>
</g>
<!-- Node13&#45;&gt;Node9 -->
<g id="edge16" class="edge">
<title>Node13&#45;&gt;Node9</title>
<path fill="none" stroke="midnightblue" d="M354.12,-57.59C366.74,-62.22 382.09,-67.86 395.78,-72.89"/>
<polygon fill="midnightblue" stroke="midnightblue" points="394.8,-76.25 405.39,-76.41 397.21,-69.68 394.8,-76.25"/>
</g>
<!-- Node13&#45;&gt;Node10 -->
<g id="edge15" class="edge">
<title>Node13&#45;&gt;Node10</title>
<path fill="none" stroke="midnightblue" d="M354.64,-48C391.6,-48 458.54,-48 499.65,-48"/>
<polygon fill="midnightblue" stroke="midnightblue" points="499.76,-51.5 509.76,-48 499.76,-44.5 499.76,-51.5"/>
</g>
<!-- Node14&#45;&gt;Node11 -->
<g id="edge18" class="edge">
<title>Node14&#45;&gt;Node11</title>
<path fill="none" stroke="midnightblue" d="M556.56,-19.59C567.24,-24.83 580.52,-31.34 591.68,-36.81"/>
<polygon fill="midnightblue" stroke="midnightblue" points="590.29,-40.03 600.81,-41.29 593.37,-33.74 590.29,-40.03"/>
</g>
<!-- Node14&#45;&gt;Node12 -->
<g id="edge19" class="edge">
<title>Node14&#45;&gt;Node12</title>
<path fill="none" stroke="midnightblue" d="M561.52,-10C569.88,-10 579.26,-10 587.78,-10"/>
<polygon fill="midnightblue" stroke="midnightblue" points="587.97,-13.5 597.97,-10 587.97,-6.5 587.97,-13.5"/>
</g>
</g>
</svg>
