<?xml version="1.0" encoding="UTF-8" standalone="no"?>
<!DOCTYPE svg PUBLIC "-//W3C//DTD SVG 1.1//EN"
 "http://www.w3.org/Graphics/SVG/1.1/DTD/svg11.dtd">
<!-- Generated by graphviz version 3.0.0 (20220413.0106)
 -->
<!-- Title: read_rtc Pages: 1 -->
<svg width="632pt" height="79pt"
 viewBox="0.00 0.00 632.00 79.00" xmlns="http://www.w3.org/2000/svg" xmlns:xlink="http://www.w3.org/1999/xlink">
<g id="graph0" class="graph" transform="scale(1 1) rotate(0) translate(4 75)">
<title>read_rtc</title>
<!-- Node1 -->
<g id="node1" class="node">
<title>Node1</title>
<g id="a_node1"><a xlink:title=" ">
<polygon fill="#bfbfbf" stroke="black" points="572,-32.5 572,-51.5 624,-51.5 624,-32.5 572,-32.5"/>
<text text-anchor="middle" x="598" y="-39.5" font-family="Helvetica,sans-Serif" font-size="10.00">read_rtc</text>
</a>
</g>
</g>
<!-- Node2 -->
<g id="node2" class="node">
<title>Node2</title>
<g id="a_node2"><a xlink:href="ioe_8c.html#ad0681f53bec9167d7a8d4d848b3ce2e0" target="_top" xlink:title=" ">
<polygon fill="none" stroke="black" points="453,-13.5 453,-32.5 536,-32.5 536,-13.5 453,-13.5"/>
<text text-anchor="middle" x="494.5" y="-20.5" font-family="Helvetica,sans-Serif" font-size="10.00">read_rtc_async</text>
</a>
</g>
</g>
<!-- Node1&#45;&gt;Node2 -->
<g id="edge1" class="edge">
<title>Node1&#45;&gt;Node2</title>
<path fill="none" stroke="midnightblue" d="M561.81,-35.41C553.52,-33.86 544.61,-32.19 536.1,-30.6"/>
<polygon fill="midnightblue" stroke="midnightblue" points="561.44,-38.9 571.91,-37.3 562.72,-32.02 561.44,-38.9"/>
</g>
<!-- Node3 -->
<g id="node3" class="node">
<title>Node3</title>
<g id="a_node3"><a xlink:href="ioe_8c.html#a7b167e0bb31c8168406860a278ce693a" target="_top" xlink:title=" ">
<polygon fill="none" stroke="black" points="361.5,-51.5 361.5,-70.5 416.5,-70.5 416.5,-51.5 361.5,-51.5"/>
<text text-anchor="middle" x="389" y="-58.5" font-family="Helvetica,sans-Serif" font-size="10.00">timer_rtc</text>
</a>
</g>
</g>
<!-- Node1&#45;&gt;Node3 -->
<g id="edge10" class="edge">
<title>Node1&#45;&gt;Node3</title>
<path fill="none" stroke="midnightblue" d="M561.49,-45.26C520.34,-49.04 453.48,-55.17 416.57,-58.56"/>
<polygon fill="midnightblue" stroke="midnightblue" points="561.98,-48.73 571.62,-44.33 561.34,-41.76 561.98,-48.73"/>
</g>
<!-- Node2&#45;&gt;Node3 -->
<g id="edge2" class="edge">
<title>Node2&#45;&gt;Node3</title>
<path fill="none" stroke="midnightblue" d="M457.77,-36.12C444.08,-41.14 428.73,-46.78 416.11,-51.41"/>
<polygon fill="midnightblue" stroke="midnightblue" points="459.2,-39.32 467.38,-32.59 456.79,-32.75 459.2,-39.32"/>
</g>
<!-- Node7 -->
<g id="node7" class="node">
<title>Node7</title>
<g id="a_node7"><a xlink:href="ioe_8c.html#a716ac8111009464db83866c3b49adbbb" target="_top" xlink:title=" ">
<polygon fill="none" stroke="black" points="361,-9.5 361,-28.5 417,-28.5 417,-9.5 361,-9.5"/>
<text text-anchor="middle" x="389" y="-16.5" font-family="Helvetica,sans-Serif" font-size="10.00">wait_sec</text>
</a>
</g>
</g>
<!-- Node2&#45;&gt;Node7 -->
<g id="edge6" class="edge">
<title>Node2&#45;&gt;Node7</title>
<path fill="none" stroke="midnightblue" d="M442.62,-21.03C433.81,-20.69 424.96,-20.35 417.11,-20.05"/>
<polygon fill="midnightblue" stroke="midnightblue" points="442.76,-24.54 452.89,-21.43 443.03,-17.55 442.76,-24.54"/>
</g>
<!-- Node4 -->
<g id="node4" class="node">
<title>Node4</title>
<g id="a_node4"><a xlink:href="ioe_8c.html#ac17b85035372c81a45e604e6b4783db2" target="_top" xlink:title=" ">
<polygon fill="none" stroke="black" points="157,-28.5 157,-47.5 213,-47.5 213,-28.5 157,-28.5"/>
<text text-anchor="middle" x="185" y="-35.5" font-family="Helvetica,sans-Serif" font-size="10.00">timer_init</text>
</a>
</g>
</g>
<!-- Node3&#45;&gt;Node4 -->
<g id="edge3" class="edge">
<title>Node3&#45;&gt;Node4</title>
<path fill="none" stroke="midnightblue" d="M351.17,-57.71C323.12,-55.1 283.59,-51.21 249,-47 237.26,-45.57 224.33,-43.76 213.26,-42.15"/>
<polygon fill="midnightblue" stroke="midnightblue" points="351.04,-61.21 361.32,-58.64 351.68,-54.24 351.04,-61.21"/>
</g>
<!-- Node5 -->
<g id="node5" class="node">
<title>Node5</title>
<g id="a_node5"><a xlink:href="ioe_8c.html#a45ecef4130276c1c79d872c582cd3839" target="_top" xlink:title=" ">
<polygon fill="none" stroke="black" points="74,-28.5 74,-47.5 121,-47.5 121,-28.5 74,-28.5"/>
<text text-anchor="middle" x="97.5" y="-35.5" font-family="Helvetica,sans-Serif" font-size="10.00">ioe_init</text>
</a>
</g>
</g>
<!-- Node4&#45;&gt;Node5 -->
<g id="edge4" class="edge">
<title>Node4&#45;&gt;Node5</title>
<path fill="none" stroke="midnightblue" d="M146.88,-38C138.09,-38 128.99,-38 121.08,-38"/>
<polygon fill="midnightblue" stroke="midnightblue" points="146.95,-41.5 156.95,-38 146.95,-34.5 146.95,-41.5"/>
</g>
<!-- Node6 -->
<g id="node6" class="node">
<title>Node6</title>
<g id="a_node6"><a xlink:href="main_8c.html#ae66f6b31b5ad750f1fe042a706a4e3d4" target="_top" xlink:title=" ">
<polygon fill="none" stroke="black" points="0,-28.5 0,-47.5 38,-47.5 38,-28.5 0,-28.5"/>
<text text-anchor="middle" x="19" y="-35.5" font-family="Helvetica,sans-Serif" font-size="10.00">main</text>
</a>
</g>
</g>
<!-- Node5&#45;&gt;Node6 -->
<g id="edge5" class="edge">
<title>Node5&#45;&gt;Node6</title>
<path fill="none" stroke="midnightblue" d="M63.87,-38C55.01,-38 45.74,-38 38.02,-38"/>
<polygon fill="midnightblue" stroke="midnightblue" points="63.96,-41.5 73.96,-38 63.96,-34.5 63.96,-41.5"/>
</g>
<!-- Node8 -->
<g id="node8" class="node">
<title>Node8</title>
<g id="a_node8"><a xlink:href="ioe_8c.html#a8f4d57167e8d4b53c00c84e504f330ef" target="_top" xlink:title=" ">
<polygon fill="none" stroke="black" points="249,-0.5 249,-19.5 325,-19.5 325,-0.5 249,-0.5"/>
<text text-anchor="middle" x="287" y="-7.5" font-family="Helvetica,sans-Serif" font-size="10.00">estimate_freq</text>
</a>
</g>
</g>
<!-- Node7&#45;&gt;Node8 -->
<g id="edge7" class="edge">
<title>Node7&#45;&gt;Node8</title>
<path fill="none" stroke="midnightblue" d="M350.73,-15.65C342.39,-14.9 333.55,-14.1 325.22,-13.35"/>
<polygon fill="midnightblue" stroke="midnightblue" points="350.67,-19.15 360.94,-16.56 351.29,-12.18 350.67,-19.15"/>
</g>
<!-- Node8&#45;&gt;Node4 -->
<g id="edge9" class="edge">
<title>Node8&#45;&gt;Node4</title>
<path fill="none" stroke="midnightblue" d="M242.13,-22.28C232.24,-25.05 222.01,-27.92 213.04,-30.43"/>
<polygon fill="midnightblue" stroke="midnightblue" points="243.18,-25.62 251.87,-19.56 241.29,-18.88 243.18,-25.62"/>
</g>
<!-- Node8&#45;&gt;Node8 -->
<g id="edge8" class="edge">
<title>Node8&#45;&gt;Node8</title>
<path fill="none" stroke="midnightblue" d="M305.89,-29.4C304.63,-34.31 298.33,-38 287,-38 268.87,-38 263.63,-28.57 271.28,-19.76"/>
<polygon fill="midnightblue" stroke="midnightblue" points="309.17,-28.17 302.72,-19.76 302.52,-30.35 309.17,-28.17"/>
</g>
</g>
</svg>
