<?xml version="1.0" encoding="UTF-8" standalone="no"?>
<!DOCTYPE svg PUBLIC "-//W3C//DTD SVG 1.1//EN"
 "http://www.w3.org/Graphics/SVG/1.1/DTD/svg11.dtd">
<!-- Generated by graphviz version 3.0.0 (20220413.0106)
 -->
<!-- Title: timer_init Pages: 1 -->
<svg width="546pt" height="113pt"
 viewBox="0.00 0.00 546.00 113.00" xmlns="http://www.w3.org/2000/svg" xmlns:xlink="http://www.w3.org/1999/xlink">
<g id="graph0" class="graph" transform="scale(1 1) rotate(0) translate(4 109)">
<title>timer_init</title>
<!-- Node1 -->
<g id="node1" class="node">
<title>Node1</title>
<g id="a_node1"><a xlink:title=" ">
<polygon fill="#bfbfbf" stroke="black" points="0,-38.5 0,-57.5 56,-57.5 56,-38.5 0,-38.5"/>
<text text-anchor="middle" x="28" y="-45.5" font-family="Helvetica,sans-Serif" font-size="10.00">timer_init</text>
</a>
</g>
</g>
<!-- Node2 -->
<g id="node2" class="node">
<title>Node2</title>
<g id="a_node2"><a xlink:href="ioe_8c.html#a8f4d57167e8d4b53c00c84e504f330ef" target="_top" xlink:title=" ">
<polygon fill="none" stroke="black" points="92,-38.5 92,-57.5 168,-57.5 168,-38.5 92,-38.5"/>
<text text-anchor="middle" x="130" y="-45.5" font-family="Helvetica,sans-Serif" font-size="10.00">estimate_freq</text>
</a>
</g>
</g>
<!-- Node1&#45;&gt;Node2 -->
<g id="edge1" class="edge">
<title>Node1&#45;&gt;Node2</title>
<path fill="none" stroke="midnightblue" d="M56.06,-48C63.96,-48 72.83,-48 81.6,-48"/>
<polygon fill="midnightblue" stroke="midnightblue" points="81.78,-51.5 91.78,-48 81.78,-44.5 81.78,-51.5"/>
</g>
<!-- Node3 -->
<g id="node3" class="node">
<title>Node3</title>
<g id="a_node3"><a xlink:href="x86_8h.html#a47b9d70be3022fd0b5687d9794ca47bc" target="_top" xlink:title=" ">
<polygon fill="none" stroke="black" points="213,-85.5 213,-104.5 251,-104.5 251,-85.5 213,-85.5"/>
<text text-anchor="middle" x="232" y="-92.5" font-family="Helvetica,sans-Serif" font-size="10.00">rdtsc</text>
</a>
</g>
</g>
<!-- Node1&#45;&gt;Node3 -->
<g id="edge9" class="edge">
<title>Node1&#45;&gt;Node3</title>
<path fill="none" stroke="midnightblue" d="M41.68,-57.84C53.84,-66.67 73.1,-79.13 92,-85 129.08,-96.53 174.3,-97.53 202.88,-96.68"/>
<polygon fill="midnightblue" stroke="midnightblue" points="203.11,-100.17 212.97,-96.28 202.84,-93.18 203.11,-100.17"/>
</g>
<!-- Node9 -->
<g id="node9" class="node">
<title>Node9</title>
<g id="a_node9"><a xlink:href="ioe_8c.html#a7b167e0bb31c8168406860a278ce693a" target="_top" xlink:title=" ">
<polygon fill="none" stroke="black" points="204.5,-0.5 204.5,-19.5 259.5,-19.5 259.5,-0.5 204.5,-0.5"/>
<text text-anchor="middle" x="232" y="-7.5" font-family="Helvetica,sans-Serif" font-size="10.00">timer_rtc</text>
</a>
</g>
</g>
<!-- Node1&#45;&gt;Node9 -->
<g id="edge10" class="edge">
<title>Node1&#45;&gt;Node9</title>
<path fill="none" stroke="midnightblue" d="M56.04,-38.83C67.09,-35.35 80.06,-31.6 92,-29 126.29,-21.53 166.02,-16.45 194.2,-13.44"/>
<polygon fill="midnightblue" stroke="midnightblue" points="194.81,-16.89 204.39,-12.38 194.09,-9.93 194.81,-16.89"/>
</g>
<!-- Node2&#45;&gt;Node2 -->
<g id="edge2" class="edge">
<title>Node2&#45;&gt;Node2</title>
<path fill="none" stroke="midnightblue" d="M114.28,-57.76C106.63,-66.57 111.87,-76 130,-76 141.33,-76 147.63,-72.31 148.89,-67.4"/>
<polygon fill="midnightblue" stroke="midnightblue" points="152.17,-66.17 145.72,-57.76 145.52,-68.35 152.17,-66.17"/>
</g>
<!-- Node2&#45;&gt;Node3 -->
<g id="edge3" class="edge">
<title>Node2&#45;&gt;Node3</title>
<path fill="none" stroke="midnightblue" d="M151.24,-57.51C166.31,-64.6 187.06,-74.35 203.62,-82.13"/>
<polygon fill="midnightblue" stroke="midnightblue" points="202.27,-85.37 212.81,-86.45 205.25,-79.03 202.27,-85.37"/>
</g>
<!-- Node4 -->
<g id="node4" class="node">
<title>Node4</title>
<g id="a_node4"><a xlink:href="ioe_8c.html#a716ac8111009464db83866c3b49adbbb" target="_top" xlink:title=" ">
<polygon fill="none" stroke="black" points="204,-38.5 204,-57.5 260,-57.5 260,-38.5 204,-38.5"/>
<text text-anchor="middle" x="232" y="-45.5" font-family="Helvetica,sans-Serif" font-size="10.00">wait_sec</text>
</a>
</g>
</g>
<!-- Node2&#45;&gt;Node4 -->
<g id="edge4" class="edge">
<title>Node2&#45;&gt;Node4</title>
<path fill="none" stroke="midnightblue" d="M168.24,-48C176.51,-48 185.29,-48 193.58,-48"/>
<polygon fill="midnightblue" stroke="midnightblue" points="193.73,-51.5 203.73,-48 193.73,-44.5 193.73,-51.5"/>
</g>
<!-- Node5 -->
<g id="node5" class="node">
<title>Node5</title>
<g id="a_node5"><a xlink:href="ioe_8c.html#ad0681f53bec9167d7a8d4d848b3ce2e0" target="_top" xlink:title=" ">
<polygon fill="none" stroke="black" points="296,-38.5 296,-57.5 379,-57.5 379,-38.5 296,-38.5"/>
<text text-anchor="middle" x="337.5" y="-45.5" font-family="Helvetica,sans-Serif" font-size="10.00">read_rtc_async</text>
</a>
</g>
</g>
<!-- Node4&#45;&gt;Node5 -->
<g id="edge5" class="edge">
<title>Node4&#45;&gt;Node5</title>
<path fill="none" stroke="midnightblue" d="M260.19,-48C268.03,-48 276.84,-48 285.62,-48"/>
<polygon fill="midnightblue" stroke="midnightblue" points="285.85,-51.5 295.85,-48 285.85,-44.5 285.85,-51.5"/>
</g>
<!-- Node6 -->
<g id="node6" class="node">
<title>Node6</title>
<g id="a_node6"><a xlink:href="ioe_8c.html#a124b85735169c7add3c491093ffbc00e" target="_top" xlink:title=" ">
<polygon fill="none" stroke="black" points="415,-19.5 415,-38.5 467,-38.5 467,-19.5 415,-19.5"/>
<text text-anchor="middle" x="441" y="-26.5" font-family="Helvetica,sans-Serif" font-size="10.00">read_rtc</text>
</a>
</g>
</g>
<!-- Node5&#45;&gt;Node6 -->
<g id="edge6" class="edge">
<title>Node5&#45;&gt;Node6</title>
<path fill="none" stroke="midnightblue" d="M379.2,-40.38C387.65,-38.8 396.49,-37.14 404.73,-35.6"/>
<polygon fill="midnightblue" stroke="midnightblue" points="405.59,-39 414.77,-33.72 404.3,-32.12 405.59,-39"/>
</g>
<!-- Node7 -->
<g id="node7" class="node">
<title>Node7</title>
<g id="a_node7"><a xlink:href="x86_8h.html#afdc603aa210ab8fd9995ce74940f5d7f" target="_top" xlink:title=" ">
<polygon fill="none" stroke="black" points="506,-38.5 506,-57.5 535,-57.5 535,-38.5 506,-38.5"/>
<text text-anchor="middle" x="520.5" y="-45.5" font-family="Helvetica,sans-Serif" font-size="10.00">inb</text>
</a>
</g>
</g>
<!-- Node6&#45;&gt;Node7 -->
<g id="edge7" class="edge">
<title>Node6&#45;&gt;Node7</title>
<path fill="none" stroke="midnightblue" d="M467.38,-35.22C476.51,-37.46 486.78,-39.98 495.78,-42.18"/>
<polygon fill="midnightblue" stroke="midnightblue" points="495.05,-45.61 505.6,-44.59 496.72,-38.81 495.05,-45.61"/>
</g>
<!-- Node8 -->
<g id="node8" class="node">
<title>Node8</title>
<g id="a_node8"><a xlink:href="x86_8h.html#ade961b44e45ddacbc3c3b7609cf36dc6" target="_top" xlink:title=" ">
<polygon fill="none" stroke="black" points="503,-0.5 503,-19.5 538,-19.5 538,-0.5 503,-0.5"/>
<text text-anchor="middle" x="520.5" y="-7.5" font-family="Helvetica,sans-Serif" font-size="10.00">outb</text>
</a>
</g>
</g>
<!-- Node6&#45;&gt;Node8 -->
<g id="edge8" class="edge">
<title>Node6&#45;&gt;Node8</title>
<path fill="none" stroke="midnightblue" d="M467.38,-22.78C475.57,-20.77 484.67,-18.54 492.95,-16.51"/>
<polygon fill="midnightblue" stroke="midnightblue" points="493.98,-19.86 502.86,-14.08 492.32,-13.06 493.98,-19.86"/>
</g>
<!-- Node9&#45;&gt;Node5 -->
<g id="edge12" class="edge">
<title>Node9&#45;&gt;Node5</title>
<path fill="none" stroke="midnightblue" d="M259.12,-19.59C271.74,-24.22 287.09,-29.86 300.78,-34.89"/>
<polygon fill="midnightblue" stroke="midnightblue" points="299.8,-38.25 310.39,-38.41 302.21,-31.68 299.8,-38.25"/>
</g>
<!-- Node9&#45;&gt;Node6 -->
<g id="edge11" class="edge">
<title>Node9&#45;&gt;Node6</title>
<path fill="none" stroke="midnightblue" d="M259.64,-12.45C296.6,-15.84 363.54,-21.98 404.65,-25.76"/>
<polygon fill="midnightblue" stroke="midnightblue" points="404.48,-29.25 414.76,-26.68 405.12,-22.28 404.48,-29.25"/>
</g>
</g>
</svg>
