<?xml version="1.0" encoding="UTF-8" standalone="no"?>
<!DOCTYPE svg PUBLIC "-//W3C//DTD SVG 1.1//EN"
 "http://www.w3.org/Graphics/SVG/1.1/DTD/svg11.dtd">
<!-- Generated by graphviz version 3.0.0 (20220413.0106)
 -->
<!-- Title: render Pages: 1 -->
<svg width="149pt" height="66pt"
 viewBox="0.00 0.00 149.00 66.00" xmlns="http://www.w3.org/2000/svg" xmlns:xlink="http://www.w3.org/1999/xlink">
<g id="graph0" class="graph" transform="scale(1 1) rotate(0) translate(4 62)">
<title>render</title>
<!-- Node1 -->
<g id="node1" class="node">
<title>Node1</title>
<g id="a_node1"><a xlink:title=" ">
<polygon fill="#bfbfbf" stroke="black" points="0,-19.5 0,-38.5 44,-38.5 44,-19.5 0,-19.5"/>
<text text-anchor="middle" x="22" y="-26.5" font-family="Helvetica,sans-Serif" font-size="10.00">render</text>
</a>
</g>
</g>
<!-- Node1&#45;&gt;Node1 -->
<g id="edge1" class="edge">
<title>Node1&#45;&gt;Node1</title>
<path fill="none" stroke="midnightblue" d="M8.44,-38.76C1.84,-47.57 6.36,-57 22,-57 31.78,-57 37.21,-53.31 38.3,-48.4"/>
<polygon fill="midnightblue" stroke="midnightblue" points="41.66,-47.42 35.56,-38.76 34.92,-49.33 41.66,-47.42"/>
</g>
<!-- Node2 -->
<g id="node2" class="node">
<title>Node2</title>
<g id="a_node2"><a xlink:href="ioe_8c.html#ad547bdc4b74724fe49a28ebf5b929d6f" target="_top" xlink:title=" ">
<polygon fill="none" stroke="black" points="86,-38.5 86,-57.5 135,-57.5 135,-38.5 86,-38.5"/>
<text text-anchor="middle" x="110.5" y="-45.5" font-family="Helvetica,sans-Serif" font-size="10.00">to_host</text>
</a>
</g>
</g>
<!-- Node1&#45;&gt;Node2 -->
<g id="edge2" class="edge">
<title>Node1&#45;&gt;Node2</title>
<path fill="none" stroke="midnightblue" d="M44.38,-33.7C53.94,-35.8 65.42,-38.32 76.07,-40.66"/>
<polygon fill="midnightblue" stroke="midnightblue" points="75.41,-44.1 85.93,-42.82 76.92,-37.26 75.41,-44.1"/>
</g>
<!-- Node3 -->
<g id="node3" class="node">
<title>Node3</title>
<g id="a_node3"><a xlink:href="ioe_8c.html#a34e04c99a364c61e4a902bf80abf9391" target="_top" xlink:title=" ">
<polygon fill="none" stroke="black" points="80,-0.5 80,-19.5 141,-19.5 141,-0.5 80,-0.5"/>
<text text-anchor="middle" x="110.5" y="-7.5" font-family="Helvetica,sans-Serif" font-size="10.00">vbuf_alloc</text>
</a>
</g>
</g>
<!-- Node1&#45;&gt;Node3 -->
<g id="edge3" class="edge">
<title>Node1&#45;&gt;Node3</title>
<path fill="none" stroke="midnightblue" d="M44.38,-24.3C52.16,-22.59 61.22,-20.6 70.07,-18.66"/>
<polygon fill="midnightblue" stroke="midnightblue" points="70.86,-22.07 79.88,-16.51 69.36,-15.23 70.86,-22.07"/>
</g>
</g>
</svg>
