<?xml version="1.0" encoding="UTF-8" standalone="no"?>
<!DOCTYPE svg PUBLIC "-//W3C//DTD SVG 1.1//EN"
 "http://www.w3.org/Graphics/SVG/1.1/DTD/svg11.dtd">
<!-- Generated by graphviz version 3.0.0 (20220413.0106)
 -->
<!-- Title: gpu_render Pages: 1 -->
<svg width="250pt" height="75pt"
 viewBox="0.00 0.00 250.00 75.00" xmlns="http://www.w3.org/2000/svg" xmlns:xlink="http://www.w3.org/1999/xlink">
<g id="graph0" class="graph" transform="scale(1 1) rotate(0) translate(4 71)">
<title>gpu_render</title>
<!-- Node1 -->
<g id="node1" class="node">
<title>Node1</title>
<g id="a_node1"><a xlink:title=" ">
<polygon fill="#bfbfbf" stroke="black" points="0,-28.5 0,-47.5 65,-47.5 65,-28.5 0,-28.5"/>
<text text-anchor="middle" x="32.5" y="-35.5" font-family="Helvetica,sans-Serif" font-size="10.00">gpu_render</text>
</a>
</g>
</g>
<!-- Node2 -->
<g id="node2" class="node">
<title>Node2</title>
<g id="a_node2"><a xlink:href="ioe_8c.html#a9322ebd04418ae42e1488cc280ce1297" target="_top" xlink:title=" ">
<polygon fill="none" stroke="black" points="101,-0.5 101,-19.5 145,-19.5 145,-0.5 101,-0.5"/>
<text text-anchor="middle" x="123" y="-7.5" font-family="Helvetica,sans-Serif" font-size="10.00">render</text>
</a>
</g>
</g>
<!-- Node1&#45;&gt;Node2 -->
<g id="edge1" class="edge">
<title>Node1&#45;&gt;Node2</title>
<path fill="none" stroke="midnightblue" d="M63.96,-28.36C72.82,-25.56 82.51,-22.5 91.38,-19.69"/>
<polygon fill="midnightblue" stroke="midnightblue" points="92.49,-23.01 100.97,-16.65 90.38,-16.33 92.49,-23.01"/>
</g>
<!-- Node3 -->
<g id="node3" class="node">
<title>Node3</title>
<g id="a_node3"><a xlink:href="ioe_8c.html#ad547bdc4b74724fe49a28ebf5b929d6f" target="_top" xlink:title=" ">
<polygon fill="none" stroke="black" points="187,-47.5 187,-66.5 236,-66.5 236,-47.5 187,-47.5"/>
<text text-anchor="middle" x="211.5" y="-54.5" font-family="Helvetica,sans-Serif" font-size="10.00">to_host</text>
</a>
</g>
</g>
<!-- Node1&#45;&gt;Node3 -->
<g id="edge5" class="edge">
<title>Node1&#45;&gt;Node3</title>
<path fill="none" stroke="midnightblue" d="M65.06,-42.48C76.38,-44.02 89.25,-45.68 101,-47 126.43,-49.86 155.26,-52.46 176.95,-54.3"/>
<polygon fill="midnightblue" stroke="midnightblue" points="176.72,-57.79 186.98,-55.14 177.3,-50.82 176.72,-57.79"/>
</g>
<!-- Node2&#45;&gt;Node2 -->
<g id="edge2" class="edge">
<title>Node2&#45;&gt;Node2</title>
<path fill="none" stroke="midnightblue" d="M109.44,-19.76C102.84,-28.57 107.36,-38 123,-38 132.78,-38 138.21,-34.31 139.3,-29.4"/>
<polygon fill="midnightblue" stroke="midnightblue" points="142.66,-28.42 136.56,-19.76 135.92,-30.33 142.66,-28.42"/>
</g>
<!-- Node2&#45;&gt;Node3 -->
<g id="edge3" class="edge">
<title>Node2&#45;&gt;Node3</title>
<path fill="none" stroke="midnightblue" d="M141.5,-19.51C153.62,-26.09 169.97,-34.98 183.71,-42.44"/>
<polygon fill="midnightblue" stroke="midnightblue" points="182.27,-45.64 192.72,-47.34 185.61,-39.49 182.27,-45.64"/>
</g>
<!-- Node4 -->
<g id="node4" class="node">
<title>Node4</title>
<g id="a_node4"><a xlink:href="ioe_8c.html#a34e04c99a364c61e4a902bf80abf9391" target="_top" xlink:title=" ">
<polygon fill="none" stroke="black" points="181,-0.5 181,-19.5 242,-19.5 242,-0.5 181,-0.5"/>
<text text-anchor="middle" x="211.5" y="-7.5" font-family="Helvetica,sans-Serif" font-size="10.00">vbuf_alloc</text>
</a>
</g>
</g>
<!-- Node2&#45;&gt;Node4 -->
<g id="edge4" class="edge">
<title>Node2&#45;&gt;Node4</title>
<path fill="none" stroke="midnightblue" d="M145.38,-10C153.08,-10 162.03,-10 170.78,-10"/>
<polygon fill="midnightblue" stroke="midnightblue" points="170.88,-13.5 180.88,-10 170.88,-6.5 170.88,-13.5"/>
</g>
</g>
</svg>
