<?xml version="1.0" encoding="UTF-8" standalone="no"?>
<!DOCTYPE svg PUBLIC "-//W3C//DTD SVG 1.1//EN"
 "http://www.w3.org/Graphics/SVG/1.1/DTD/svg11.dtd">
<!-- Generated by graphviz version 3.0.0 (20220413.0106)
 -->
<!-- Title: abstract&#45;machine/am/src/x86/qemu/ioe.c Pages: 1 -->
<svg width="321pt" height="207pt"
 viewBox="0.00 0.00 321.00 207.00" xmlns="http://www.w3.org/2000/svg" xmlns:xlink="http://www.w3.org/1999/xlink">
<g id="graph0" class="graph" transform="scale(1 1) rotate(0) translate(4 203)">
<title>abstract&#45;machine/am/src/x86/qemu/ioe.c</title>
<!-- Node1 -->
<g id="node1" class="node">
<title>Node1</title>
<g id="a_node1"><a xlink:title=" ">
<polygon fill="#bfbfbf" stroke="black" points="118.5,-168.5 118.5,-198.5 226.5,-198.5 226.5,-168.5 118.5,-168.5"/>
<text text-anchor="start" x="126.5" y="-186.5" font-family="Helvetica,sans-Serif" font-size="10.00">abstract&#45;machine/am</text>
<text text-anchor="middle" x="172.5" y="-175.5" font-family="Helvetica,sans-Serif" font-size="10.00">/src/x86/qemu/ioe.c</text>
</a>
</g>
</g>
<!-- Node2 -->
<g id="node2" class="node">
<title>Node2</title>
<g id="a_node2"><a xlink:href="x86-qemu_8h.html" target="_top" xlink:title=" ">
<polygon fill="none" stroke="black" points="104.5,-112.5 104.5,-131.5 170.5,-131.5 170.5,-112.5 104.5,-112.5"/>
<text text-anchor="middle" x="137.5" y="-119.5" font-family="Helvetica,sans-Serif" font-size="10.00">x86&#45;qemu.h</text>
</a>
</g>
</g>
<!-- Node1&#45;&gt;Node2 -->
<g id="edge1" class="edge">
<title>Node1&#45;&gt;Node2</title>
<path fill="none" stroke="midnightblue" d="M164.21,-168.4C159.28,-160.02 152.99,-149.33 147.75,-140.42"/>
<polygon fill="midnightblue" stroke="midnightblue" points="150.68,-138.5 142.59,-131.66 144.65,-142.05 150.68,-138.5"/>
</g>
<!-- Node10 -->
<g id="node10" class="node">
<title>Node10</title>
<g id="a_node10"><a xlink:href="klib_8h.html" target="_top" xlink:title=" ">
<polygon fill="none" stroke="black" points="190,-112.5 190,-131.5 229,-131.5 229,-112.5 190,-112.5"/>
<text text-anchor="middle" x="209.5" y="-119.5" font-family="Helvetica,sans-Serif" font-size="10.00">klib.h</text>
</a>
</g>
</g>
<!-- Node1&#45;&gt;Node10 -->
<g id="edge10" class="edge">
<title>Node1&#45;&gt;Node10</title>
<path fill="none" stroke="midnightblue" d="M181.27,-168.4C186.48,-160.02 193.13,-149.33 198.67,-140.42"/>
<polygon fill="midnightblue" stroke="midnightblue" points="201.81,-142 204.12,-131.66 195.86,-138.3 201.81,-142"/>
</g>
<!-- Node3 -->
<g id="node3" class="node">
<title>Node3</title>
<g id="a_node3"><a xlink:href="x86_8h.html" target="_top" xlink:title=" ">
<polygon fill="none" stroke="black" points="0,-56.5 0,-75.5 57,-75.5 57,-56.5 0,-56.5"/>
<text text-anchor="middle" x="28.5" y="-63.5" font-family="Helvetica,sans-Serif" font-size="10.00">x86/x86.h</text>
</a>
</g>
</g>
<!-- Node2&#45;&gt;Node3 -->
<g id="edge2" class="edge">
<title>Node2&#45;&gt;Node3</title>
<path fill="none" stroke="midnightblue" d="M119.99,-112.32C102.43,-103.62 75.17,-90.12 54.97,-80.11"/>
<polygon fill="midnightblue" stroke="midnightblue" points="56.48,-76.96 45.97,-75.65 53.38,-83.23 56.48,-76.96"/>
</g>
<!-- Node5 -->
<g id="node5" class="node">
<title>Node5</title>
<g id="a_node5"><a xlink:href="am_8h.html" target="_top" xlink:title=" ">
<polygon fill="none" stroke="black" points="167.5,-56.5 167.5,-75.5 205.5,-75.5 205.5,-56.5 167.5,-56.5"/>
<text text-anchor="middle" x="186.5" y="-63.5" font-family="Helvetica,sans-Serif" font-size="10.00">am.h</text>
</a>
</g>
</g>
<!-- Node2&#45;&gt;Node5 -->
<g id="edge4" class="edge">
<title>Node2&#45;&gt;Node5</title>
<path fill="none" stroke="midnightblue" d="M145.59,-112.08C152.66,-104.3 163.09,-92.8 171.65,-83.37"/>
<polygon fill="midnightblue" stroke="midnightblue" points="174.43,-85.51 178.56,-75.75 169.25,-80.8 174.43,-85.51"/>
</g>
<!-- Node9 -->
<g id="node9" class="node">
<title>Node9</title>
<g id="a_node9"><a xlink:href="klib-macros_8h.html" target="_top" xlink:title=" ">
<polygon fill="none" stroke="black" points="75.5,-56.5 75.5,-75.5 149.5,-75.5 149.5,-56.5 75.5,-56.5"/>
<text text-anchor="middle" x="112.5" y="-63.5" font-family="Helvetica,sans-Serif" font-size="10.00">klib&#45;macros.h</text>
</a>
</g>
</g>
<!-- Node2&#45;&gt;Node9 -->
<g id="edge9" class="edge">
<title>Node2&#45;&gt;Node9</title>
<path fill="none" stroke="midnightblue" d="M133.37,-112.08C129.99,-104.77 125.08,-94.18 120.88,-85.1"/>
<polygon fill="midnightblue" stroke="midnightblue" points="123.93,-83.36 116.55,-75.75 117.58,-86.3 123.93,-83.36"/>
</g>
<!-- Node4 -->
<g id="node4" class="node">
<title>Node4</title>
<g id="a_node4"><a xlink:title=" ">
<polygon fill="none" stroke="#bfbfbf" points="11.5,-0.5 11.5,-19.5 59.5,-19.5 59.5,-0.5 11.5,-0.5"/>
<text text-anchor="middle" x="35.5" y="-7.5" font-family="Helvetica,sans-Serif" font-size="10.00">stdint.h</text>
</a>
</g>
</g>
<!-- Node3&#45;&gt;Node4 -->
<g id="edge3" class="edge">
<title>Node3&#45;&gt;Node4</title>
<path fill="none" stroke="midnightblue" d="M29.66,-56.08C30.58,-48.93 31.92,-38.64 33.08,-29.69"/>
<polygon fill="midnightblue" stroke="midnightblue" points="36.55,-30.12 34.37,-19.75 29.61,-29.22 36.55,-30.12"/>
</g>
<!-- Node5&#45;&gt;Node4 -->
<g id="edge5" class="edge">
<title>Node5&#45;&gt;Node4</title>
<path fill="none" stroke="midnightblue" d="M167.38,-58.16C142.71,-49.34 99.38,-33.84 69.15,-23.03"/>
<polygon fill="midnightblue" stroke="midnightblue" points="70.03,-19.63 59.44,-19.56 67.68,-26.22 70.03,-19.63"/>
</g>
<!-- Node6 -->
<g id="node6" class="node">
<title>Node6</title>
<g id="a_node6"><a xlink:title=" ">
<polygon fill="none" stroke="#bfbfbf" points="227,-0.5 227,-19.5 278,-19.5 278,-0.5 227,-0.5"/>
<text text-anchor="middle" x="252.5" y="-7.5" font-family="Helvetica,sans-Serif" font-size="10.00">stddef.h</text>
</a>
</g>
</g>
<!-- Node5&#45;&gt;Node6 -->
<g id="edge6" class="edge">
<title>Node5&#45;&gt;Node6</title>
<path fill="none" stroke="midnightblue" d="M197.1,-56.32C206.96,-48.26 221.85,-36.08 233.72,-26.37"/>
<polygon fill="midnightblue" stroke="midnightblue" points="236.18,-28.88 241.7,-19.83 231.75,-23.46 236.18,-28.88"/>
</g>
<!-- Node7 -->
<g id="node7" class="node">
<title>Node7</title>
<g id="a_node7"><a xlink:title=" ">
<polygon fill="none" stroke="#bfbfbf" points="81.5,-0.5 81.5,-19.5 137.5,-19.5 137.5,-0.5 81.5,-0.5"/>
<text text-anchor="middle" x="109.5" y="-7.5" font-family="Helvetica,sans-Serif" font-size="10.00">stdbool.h</text>
</a>
</g>
</g>
<!-- Node5&#45;&gt;Node7 -->
<g id="edge7" class="edge">
<title>Node5&#45;&gt;Node7</title>
<path fill="none" stroke="midnightblue" d="M174.13,-56.32C162.34,-48.06 144.37,-35.45 130.36,-25.63"/>
<polygon fill="midnightblue" stroke="midnightblue" points="132.04,-22.53 121.84,-19.65 128.02,-28.26 132.04,-22.53"/>
</g>
<!-- Node8 -->
<g id="node8" class="node">
<title>Node8</title>
<g id="a_node8"><a xlink:href="amdev_8h.html" target="_top" xlink:title=" ">
<polygon fill="none" stroke="black" points="156,-0.5 156,-19.5 209,-19.5 209,-0.5 156,-0.5"/>
<text text-anchor="middle" x="182.5" y="-7.5" font-family="Helvetica,sans-Serif" font-size="10.00">amdev.h</text>
</a>
</g>
</g>
<!-- Node5&#45;&gt;Node8 -->
<g id="edge8" class="edge">
<title>Node5&#45;&gt;Node8</title>
<path fill="none" stroke="midnightblue" d="M185.84,-56.08C185.32,-49.01 184.56,-38.86 183.91,-29.99"/>
<polygon fill="midnightblue" stroke="midnightblue" points="187.38,-29.47 183.15,-19.75 180.4,-29.98 187.38,-29.47"/>
</g>
<!-- Node10&#45;&gt;Node5 -->
<g id="edge11" class="edge">
<title>Node10&#45;&gt;Node5</title>
<path fill="none" stroke="midnightblue" d="M205.7,-112.08C202.59,-104.77 198.08,-94.18 194.21,-85.1"/>
<polygon fill="midnightblue" stroke="midnightblue" points="197.37,-83.58 190.23,-75.75 190.93,-86.32 197.37,-83.58"/>
</g>
<!-- Node10&#45;&gt;Node6 -->
<g id="edge12" class="edge">
<title>Node10&#45;&gt;Node6</title>
<path fill="none" stroke="midnightblue" d="M212.87,-112.37C219.88,-94.46 236.11,-52.92 245.48,-28.95"/>
<polygon fill="midnightblue" stroke="midnightblue" points="248.76,-30.18 249.14,-19.59 242.24,-27.63 248.76,-30.18"/>
</g>
<!-- Node11 -->
<g id="node11" class="node">
<title>Node11</title>
<g id="a_node11"><a xlink:title=" ">
<polygon fill="none" stroke="#bfbfbf" points="262,-56.5 262,-75.5 313,-75.5 313,-56.5 262,-56.5"/>
<text text-anchor="middle" x="287.5" y="-63.5" font-family="Helvetica,sans-Serif" font-size="10.00">stdarg.h</text>
</a>
</g>
</g>
<!-- Node10&#45;&gt;Node11 -->
<g id="edge13" class="edge">
<title>Node10&#45;&gt;Node11</title>
<path fill="none" stroke="midnightblue" d="M222.03,-112.32C234.09,-103.98 252.53,-91.21 266.77,-81.35"/>
<polygon fill="midnightblue" stroke="midnightblue" points="268.77,-84.22 275,-75.65 264.78,-78.47 268.77,-84.22"/>
</g>
</g>
</svg>
