<?xml version="1.0" encoding="UTF-8" standalone="no"?>
<!DOCTYPE svg PUBLIC "-//W3C//DTD SVG 1.1//EN"
 "http://www.w3.org/Graphics/SVG/1.1/DTD/svg11.dtd">
<!-- Generated by graphviz version 2.50.0 (20220203.2022)
 -->
<!-- Title: ioapicwrite Pages: 1 -->
<svg width="849pt" height="66pt"
 viewBox="0.00 0.00 849.00 66.00" xmlns="http://www.w3.org/2000/svg" xmlns:xlink="http://www.w3.org/1999/xlink">
<g id="graph0" class="graph" transform="scale(1 1) rotate(0) translate(4 62)">
<title>ioapicwrite</title>
<!-- Node1 -->
<g id="node1" class="node">
<title>Node1</title>
<g id="a_node1"><a xlink:title=" ">
<polygon fill="#bfbfbf" stroke="black" points="778,-19.5 778,-38.5 841,-38.5 841,-19.5 778,-19.5"/>
<text text-anchor="middle" x="809.5" y="-26.5" font-family="Helvetica,sans-Serif" font-size="10.00">ioapicwrite</text>
</a>
</g>
</g>
<!-- Node2 -->
<g id="node2" class="node">
<title>Node2</title>
<g id="a_node2"><a xlink:href="ioe_8c.html#aaa8b5de13119943f63fd14ce0cbb748f" target="_top" xlink:title=" ">
<polygon fill="none" stroke="black" points="637,-38.5 637,-57.5 742,-57.5 742,-38.5 637,-38.5"/>
<text text-anchor="middle" x="689.5" y="-45.5" font-family="Helvetica,sans-Serif" font-size="10.00">__am_ioapic_enable</text>
</a>
</g>
</g>
<!-- Node1&#45;&gt;Node2 -->
<g id="edge1" class="edge">
<title>Node1&#45;&gt;Node2</title>
<path fill="none" stroke="midnightblue" d="M767.68,-35.57C759.42,-36.9 750.64,-38.32 742.06,-39.7"/>
<polygon fill="midnightblue" stroke="midnightblue" points="768.49,-38.99 777.8,-33.94 767.38,-32.08 768.49,-38.99"/>
</g>
<!-- Node9 -->
<g id="node9" class="node">
<title>Node9</title>
<g id="a_node9"><a xlink:href="ioe_8c.html#a0f69ba538f46238680ae9887bf11331a" target="_top" xlink:title=" ">
<polygon fill="none" stroke="black" points="504.5,-0.5 504.5,-19.5 593.5,-19.5 593.5,-0.5 504.5,-0.5"/>
<text text-anchor="middle" x="549" y="-7.5" font-family="Helvetica,sans-Serif" font-size="10.00">__am_ioapic_init</text>
</a>
</g>
</g>
<!-- Node1&#45;&gt;Node9 -->
<g id="edge9" class="edge">
<title>Node1&#45;&gt;Node9</title>
<path fill="none" stroke="midnightblue" d="M767.61,-25.99C720.13,-22.5 642.13,-16.77 593.55,-13.2"/>
<polygon fill="midnightblue" stroke="midnightblue" points="767.6,-29.5 777.83,-26.75 768.12,-22.52 767.6,-29.5"/>
</g>
<!-- Node3 -->
<g id="node3" class="node">
<title>Node3</title>
<g id="a_node3"><a xlink:href="cte_8c.html#adb128cbf8cb1844d1fef62c3647a3f25" target="_top" xlink:title=" ">
<polygon fill="none" stroke="black" points="497,-38.5 497,-57.5 601,-57.5 601,-38.5 497,-38.5"/>
<text text-anchor="middle" x="549" y="-45.5" font-family="Helvetica,sans-Serif" font-size="10.00">__am_percpu_initirq</text>
</a>
</g>
</g>
<!-- Node2&#45;&gt;Node3 -->
<g id="edge2" class="edge">
<title>Node2&#45;&gt;Node3</title>
<path fill="none" stroke="midnightblue" d="M626.93,-48C618.31,-48 609.54,-48 601.15,-48"/>
<polygon fill="midnightblue" stroke="midnightblue" points="626.93,-51.5 636.93,-48 626.93,-44.5 626.93,-51.5"/>
</g>
<!-- Node4 -->
<g id="node4" class="node">
<title>Node4</title>
<g id="a_node4"><a xlink:href="trm_8c.html#abac650c2a0dd8b7f13349871fd6ab6ee" target="_top" xlink:title=" ">
<polygon fill="none" stroke="black" points="368,-38.5 368,-57.5 461,-57.5 461,-38.5 368,-38.5"/>
<text text-anchor="middle" x="414.5" y="-45.5" font-family="Helvetica,sans-Serif" font-size="10.00">__am_percpu_init</text>
</a>
</g>
</g>
<!-- Node3&#45;&gt;Node4 -->
<g id="edge3" class="edge">
<title>Node3&#45;&gt;Node4</title>
<path fill="none" stroke="midnightblue" d="M486.54,-48C478.08,-48 469.51,-48 461.4,-48"/>
<polygon fill="midnightblue" stroke="midnightblue" points="486.77,-51.5 496.77,-48 486.77,-44.5 486.77,-51.5"/>
</g>
<!-- Node5 -->
<g id="node5" class="node">
<title>Node5</title>
<g id="a_node5"><a xlink:href="trm_8c.html#a75e130ff99ad31f9a1df206b5ff8252a" target="_top" xlink:title=" ">
<polygon fill="none" stroke="black" points="234,-0.5 234,-19.5 332,-19.5 332,-0.5 234,-0.5"/>
<text text-anchor="middle" x="283" y="-7.5" font-family="Helvetica,sans-Serif" font-size="10.00">__am_bootcpu_init</text>
</a>
</g>
</g>
<!-- Node4&#45;&gt;Node5 -->
<g id="edge4" class="edge">
<title>Node4&#45;&gt;Node5</title>
<path fill="none" stroke="midnightblue" d="M370.78,-35.46C353.16,-30.3 333.08,-24.4 316.67,-19.59"/>
<polygon fill="midnightblue" stroke="midnightblue" points="370.24,-38.95 380.82,-38.41 372.21,-32.24 370.24,-38.95"/>
</g>
<!-- Node7 -->
<g id="node7" class="node">
<title>Node7</title>
<g id="a_node7"><a xlink:href="mpe_8c.html#aec8f7f25be4263648b704092672a566b" target="_top" xlink:title=" ">
<polygon fill="none" stroke="black" points="243,-38.5 243,-57.5 323,-57.5 323,-38.5 243,-38.5"/>
<text text-anchor="middle" x="283" y="-45.5" font-family="Helvetica,sans-Serif" font-size="10.00">othercpu_entry</text>
</a>
</g>
</g>
<!-- Node4&#45;&gt;Node7 -->
<g id="edge6" class="edge">
<title>Node4&#45;&gt;Node7</title>
<path fill="none" stroke="midnightblue" d="M357.76,-48C346.14,-48 334.11,-48 323.23,-48"/>
<polygon fill="midnightblue" stroke="midnightblue" points="357.84,-51.5 367.84,-48 357.84,-44.5 357.84,-51.5"/>
</g>
<!-- Node6 -->
<g id="node6" class="node">
<title>Node6</title>
<g id="a_node6"><a xlink:href="trm_8c.html#a54a85aeee6f6a8ef875d4cca663f9fd8" target="_top" xlink:title=" ">
<polygon fill="none" stroke="black" points="0,-19.5 0,-38.5 52,-38.5 52,-19.5 0,-19.5"/>
<text text-anchor="middle" x="26" y="-26.5" font-family="Helvetica,sans-Serif" font-size="10.00">_start_c</text>
</a>
</g>
</g>
<!-- Node5&#45;&gt;Node6 -->
<g id="edge5" class="edge">
<title>Node5&#45;&gt;Node6</title>
<path fill="none" stroke="midnightblue" d="M223.6,-14.35C169.55,-18.38 91.76,-24.17 52.19,-27.12"/>
<polygon fill="midnightblue" stroke="midnightblue" points="224.02,-17.83 233.74,-13.6 223.5,-10.85 224.02,-17.83"/>
</g>
<!-- Node8 -->
<g id="node8" class="node">
<title>Node8</title>
<g id="a_node8"><a xlink:href="mpe_8c.html#af9524b1c09898b69d9980310682a8bea" target="_top" xlink:title=" ">
<polygon fill="none" stroke="black" points="88,-38.5 88,-57.5 198,-57.5 198,-38.5 88,-38.5"/>
<text text-anchor="middle" x="143" y="-45.5" font-family="Helvetica,sans-Serif" font-size="10.00">__am_othercpu_entry</text>
</a>
</g>
</g>
<!-- Node7&#45;&gt;Node8 -->
<g id="edge7" class="edge">
<title>Node7&#45;&gt;Node8</title>
<path fill="none" stroke="midnightblue" d="M232.79,-48C221.58,-48 209.61,-48 198.21,-48"/>
<polygon fill="midnightblue" stroke="midnightblue" points="232.82,-51.5 242.82,-48 232.82,-44.5 232.82,-51.5"/>
</g>
<!-- Node8&#45;&gt;Node6 -->
<g id="edge8" class="edge">
<title>Node8&#45;&gt;Node6</title>
<path fill="none" stroke="midnightblue" d="M77.93,-37.41C68.82,-35.91 59.92,-34.44 52.19,-33.16"/>
<polygon fill="midnightblue" stroke="midnightblue" points="77.43,-40.88 87.87,-39.06 78.57,-33.97 77.43,-40.88"/>
</g>
<!-- Node9&#45;&gt;Node5 -->
<g id="edge10" class="edge">
<title>Node9&#45;&gt;Node5</title>
<path fill="none" stroke="midnightblue" d="M494.3,-10C446.74,-10 377.94,-10 332.13,-10"/>
<polygon fill="midnightblue" stroke="midnightblue" points="494.41,-13.5 504.41,-10 494.41,-6.5 494.41,-13.5"/>
</g>
</g>
</svg>
