<?xml version="1.0" encoding="UTF-8" standalone="no"?>
<!DOCTYPE svg PUBLIC "-//W3C//DTD SVG 1.1//EN"
 "http://www.w3.org/Graphics/SVG/1.1/DTD/svg11.dtd">
<!-- Generated by graphviz version 2.50.0 (20220203.2022)
 -->
<!-- Title: to_host Pages: 1 -->
<svg width="268pt" height="122pt"
 viewBox="0.00 0.00 268.00 122.00" xmlns="http://www.w3.org/2000/svg" xmlns:xlink="http://www.w3.org/1999/xlink">
<g id="graph0" class="graph" transform="scale(1 1) rotate(0) translate(4 118)">
<title>to_host</title>
<!-- Node1 -->
<g id="node1" class="node">
<title>Node1</title>
<g id="a_node1"><a xlink:title=" ">
<polygon fill="#bfbfbf" stroke="black" points="211,-56.5 211,-75.5 260,-75.5 260,-56.5 211,-56.5"/>
<text text-anchor="middle" x="235.5" y="-63.5" font-family="Helvetica,sans-Serif" font-size="10.00">to_host</text>
</a>
</g>
</g>
<!-- Node2 -->
<g id="node2" class="node">
<title>Node2</title>
<g id="a_node2"><a xlink:href="ioe_8c.html#ae2af63031f26844f3b58e9cfc51bed55" target="_top" xlink:title=" ">
<polygon fill="none" stroke="black" points="101,-94.5 101,-113.5 175,-113.5 175,-94.5 101,-94.5"/>
<text text-anchor="middle" x="138" y="-101.5" font-family="Helvetica,sans-Serif" font-size="10.00">gpu_memcpy</text>
</a>
</g>
</g>
<!-- Node1&#45;&gt;Node2 -->
<g id="edge1" class="edge">
<title>Node1&#45;&gt;Node2</title>
<path fill="none" stroke="midnightblue" d="M201.57,-79.1C188.9,-84.15 174.68,-89.8 163,-94.45"/>
<polygon fill="midnightblue" stroke="midnightblue" points="202.9,-82.34 210.89,-75.39 200.31,-75.84 202.9,-82.34"/>
</g>
<!-- Node3 -->
<g id="node3" class="node">
<title>Node3</title>
<g id="a_node3"><a xlink:href="ioe_8c.html#adf6dc2b4ea77c469ca23a07bf1807a78" target="_top" xlink:title=" ">
<polygon fill="none" stroke="black" points="0,-28.5 0,-47.5 65,-47.5 65,-28.5 0,-28.5"/>
<text text-anchor="middle" x="32.5" y="-35.5" font-family="Helvetica,sans-Serif" font-size="10.00">gpu_render</text>
</a>
</g>
</g>
<!-- Node1&#45;&gt;Node3 -->
<g id="edge2" class="edge">
<title>Node1&#45;&gt;Node3</title>
<path fill="none" stroke="midnightblue" d="M200.64,-61.28C162.84,-56.02 102.16,-47.56 65.25,-42.42"/>
<polygon fill="midnightblue" stroke="midnightblue" points="200.27,-64.76 210.65,-62.68 201.23,-57.83 200.27,-64.76"/>
</g>
<!-- Node4 -->
<g id="node4" class="node">
<title>Node4</title>
<g id="a_node4"><a xlink:href="ioe_8c.html#a9322ebd04418ae42e1488cc280ce1297" target="_top" xlink:title=" ">
<polygon fill="none" stroke="black" points="116,-0.5 116,-19.5 160,-19.5 160,-0.5 116,-0.5"/>
<text text-anchor="middle" x="138" y="-7.5" font-family="Helvetica,sans-Serif" font-size="10.00">render</text>
</a>
</g>
</g>
<!-- Node1&#45;&gt;Node4 -->
<g id="edge3" class="edge">
<title>Node1&#45;&gt;Node4</title>
<path fill="none" stroke="midnightblue" d="M209,-51.05C192.01,-41.08 170.17,-28.28 155.44,-19.64"/>
<polygon fill="midnightblue" stroke="midnightblue" points="207.47,-54.21 217.87,-56.25 211.01,-48.17 207.47,-54.21"/>
</g>
<!-- Node4&#45;&gt;Node3 -->
<g id="edge4" class="edge">
<title>Node4&#45;&gt;Node3</title>
<path fill="none" stroke="midnightblue" d="M106.01,-18.38C93.14,-21.86 78.23,-25.9 65.28,-29.4"/>
<polygon fill="midnightblue" stroke="midnightblue" points="107.07,-21.72 115.81,-15.73 105.24,-14.97 107.07,-21.72"/>
</g>
<!-- Node4&#45;&gt;Node4 -->
<g id="edge5" class="edge">
<title>Node4&#45;&gt;Node4</title>
<path fill="none" stroke="midnightblue" d="M155.78,-29.4C154.59,-34.31 148.66,-38 138,-38 120.94,-38 116.01,-28.57 123.2,-19.76"/>
<polygon fill="midnightblue" stroke="midnightblue" points="159.09,-28.28 152.8,-19.76 152.41,-30.34 159.09,-28.28"/>
</g>
</g>
</svg>
