<?xml version="1.0" encoding="UTF-8" standalone="no"?>
<!DOCTYPE svg PUBLIC "-//W3C//DTD SVG 1.1//EN"
 "http://www.w3.org/Graphics/SVG/1.1/DTD/svg11.dtd">
<!-- Generated by graphviz version 2.50.0 (20220203.2022)
 -->
<!-- Title: lapicw Pages: 1 -->
<svg width="730pt" height="142pt"
 viewBox="0.00 0.00 730.00 142.00" xmlns="http://www.w3.org/2000/svg" xmlns:xlink="http://www.w3.org/1999/xlink">
<g id="graph0" class="graph" transform="scale(1 1) rotate(0) translate(4 138)">
<title>lapicw</title>
<!-- Node1 -->
<g id="node1" class="node">
<title>Node1</title>
<g id="a_node1"><a xlink:title=" ">
<polygon fill="#bfbfbf" stroke="black" points="678,-38.5 678,-57.5 722,-57.5 722,-38.5 678,-38.5"/>
<text text-anchor="middle" x="700" y="-45.5" font-family="Helvetica,sans-Serif" font-size="10.00">lapicw</text>
</a>
</g>
</g>
<!-- Node2 -->
<g id="node2" class="node">
<title>Node2</title>
<g id="a_node2"><a xlink:href="ioe_8c.html#a88a238fee7cd006afa69ea97e4914a09" target="_top" xlink:title=" ">
<polygon fill="none" stroke="black" points="535,-76.5 535,-95.5 636,-95.5 636,-76.5 535,-76.5"/>
<text text-anchor="middle" x="585.5" y="-83.5" font-family="Helvetica,sans-Serif" font-size="10.00">__am_lapic_bootap</text>
</a>
</g>
</g>
<!-- Node1&#45;&gt;Node2 -->
<g id="edge1" class="edge">
<title>Node1&#45;&gt;Node2</title>
<path fill="none" stroke="midnightblue" d="M668.03,-58.46C651.38,-64.08 631.01,-70.97 614.79,-76.44"/>
<polygon fill="midnightblue" stroke="midnightblue" points="669.49,-61.66 677.84,-55.15 667.25,-55.03 669.49,-61.66"/>
</g>
<!-- Node11 -->
<g id="node11" class="node">
<title>Node11</title>
<g id="a_node11"><a xlink:href="ioe_8c.html#ab782c68363d0f254ba753ff69de0ce3f" target="_top" xlink:title=" ">
<polygon fill="none" stroke="black" points="543.5,-38.5 543.5,-57.5 627.5,-57.5 627.5,-38.5 543.5,-38.5"/>
<text text-anchor="middle" x="585.5" y="-45.5" font-family="Helvetica,sans-Serif" font-size="10.00">__am_lapic_eoi</text>
</a>
</g>
</g>
<!-- Node1&#45;&gt;Node11 -->
<g id="edge10" class="edge">
<title>Node1&#45;&gt;Node11</title>
<path fill="none" stroke="midnightblue" d="M667.56,-48C655.18,-48 640.8,-48 627.62,-48"/>
<polygon fill="midnightblue" stroke="midnightblue" points="667.84,-51.5 677.84,-48 667.84,-44.5 667.84,-51.5"/>
</g>
<!-- Node13 -->
<g id="node13" class="node">
<title>Node13</title>
<g id="a_node13"><a xlink:href="ioe_8c.html#afd452a54c6657d504fdbc70af4adb9cf" target="_top" xlink:title=" ">
<polygon fill="none" stroke="black" points="529,-0.5 529,-19.5 642,-19.5 642,-0.5 529,-0.5"/>
<text text-anchor="middle" x="585.5" y="-7.5" font-family="Helvetica,sans-Serif" font-size="10.00">__am_percpu_initlapic</text>
</a>
</g>
</g>
<!-- Node1&#45;&gt;Node13 -->
<g id="edge12" class="edge">
<title>Node1&#45;&gt;Node13</title>
<path fill="none" stroke="midnightblue" d="M668.03,-37.54C651.38,-31.92 631.01,-25.03 614.79,-19.56"/>
<polygon fill="midnightblue" stroke="midnightblue" points="667.25,-40.97 677.84,-40.85 669.49,-34.34 667.25,-40.97"/>
</g>
<!-- Node3 -->
<g id="node3" class="node">
<title>Node3</title>
<g id="a_node3"><a xlink:href="mpe_8c.html#a0a540532023afb1f31b6f21ce053483b" target="_top" xlink:title=" ">
<polygon fill="none" stroke="black" points="381,-114.5 381,-133.5 493,-133.5 493,-114.5 381,-114.5"/>
<text text-anchor="middle" x="437" y="-121.5" font-family="Helvetica,sans-Serif" font-size="10.00">__am_stop_the_world</text>
</a>
</g>
</g>
<!-- Node2&#45;&gt;Node3 -->
<g id="edge2" class="edge">
<title>Node2&#45;&gt;Node3</title>
<path fill="none" stroke="midnightblue" d="M537.8,-98.11C517.4,-103.4 493.82,-109.52 474.7,-114.48"/>
<polygon fill="midnightblue" stroke="midnightblue" points="538.73,-101.49 547.53,-95.59 536.97,-94.71 538.73,-101.49"/>
</g>
<!-- Node9 -->
<g id="node9" class="node">
<title>Node9</title>
<g id="a_node9"><a xlink:href="mpe_8c.html#a2e4a724e2d067425ff3fd49bc0bf42e1" target="_top" xlink:title=" ">
<polygon fill="none" stroke="black" points="410.5,-76.5 410.5,-95.5 463.5,-95.5 463.5,-76.5 410.5,-76.5"/>
<text text-anchor="middle" x="437" y="-83.5" font-family="Helvetica,sans-Serif" font-size="10.00">mpe_init</text>
</a>
</g>
</g>
<!-- Node2&#45;&gt;Node9 -->
<g id="edge8" class="edge">
<title>Node2&#45;&gt;Node9</title>
<path fill="none" stroke="midnightblue" d="M524.63,-86C503.37,-86 480.56,-86 463.69,-86"/>
<polygon fill="midnightblue" stroke="midnightblue" points="524.9,-89.5 534.9,-86 524.9,-82.5 524.9,-89.5"/>
</g>
<!-- Node4 -->
<g id="node4" class="node">
<title>Node4</title>
<g id="a_node4"><a xlink:href="trm_8c.html#a483cb97188e557c3c68d3a1572c2cc92" target="_top" xlink:title=" ">
<polygon fill="none" stroke="black" points="289,-114.5 289,-133.5 321,-133.5 321,-114.5 289,-114.5"/>
<text text-anchor="middle" x="305" y="-121.5" font-family="Helvetica,sans-Serif" font-size="10.00">halt</text>
</a>
</g>
</g>
<!-- Node3&#45;&gt;Node4 -->
<g id="edge3" class="edge">
<title>Node3&#45;&gt;Node4</title>
<path fill="none" stroke="midnightblue" d="M370.87,-124C352.26,-124 333.66,-124 321.18,-124"/>
<polygon fill="midnightblue" stroke="midnightblue" points="370.87,-127.5 380.87,-124 370.87,-120.5 370.87,-127.5"/>
</g>
<!-- Node5 -->
<g id="node5" class="node">
<title>Node5</title>
<g id="a_node5"><a xlink:href="trm_8c.html#a12a49ff4d3a586b2315e292c5da3df7e" target="_top" xlink:title=" ">
<polygon fill="none" stroke="black" points="145,-76.5 145,-95.5 203,-95.5 203,-76.5 145,-76.5"/>
<text text-anchor="middle" x="174" y="-83.5" font-family="Helvetica,sans-Serif" font-size="10.00">call_main</text>
</a>
</g>
</g>
<!-- Node4&#45;&gt;Node5 -->
<g id="edge4" class="edge">
<title>Node4&#45;&gt;Node5</title>
<path fill="none" stroke="midnightblue" d="M279.13,-116.68C257.36,-110.26 225.75,-100.95 203.08,-94.27"/>
<polygon fill="midnightblue" stroke="midnightblue" points="278.37,-120.1 288.95,-119.57 280.35,-113.38 278.37,-120.1"/>
</g>
<!-- Node7 -->
<g id="node7" class="node">
<title>Node7</title>
<g id="a_node7"><a xlink:href="os_8c.html#a5f9cb32664e017ca15c49ec66e5342e4" target="_top" xlink:title=" ">
<polygon fill="none" stroke="black" points="151,-114.5 151,-133.5 197,-133.5 197,-114.5 151,-114.5"/>
<text text-anchor="middle" x="174" y="-121.5" font-family="Helvetica,sans-Serif" font-size="10.00">os_run</text>
</a>
</g>
</g>
<!-- Node4&#45;&gt;Node7 -->
<g id="edge6" class="edge">
<title>Node4&#45;&gt;Node7</title>
<path fill="none" stroke="midnightblue" d="M278.64,-124C254.95,-124 219.93,-124 197.29,-124"/>
<polygon fill="midnightblue" stroke="midnightblue" points="278.95,-127.5 288.95,-124 278.95,-120.5 278.95,-127.5"/>
</g>
<!-- Node6 -->
<g id="node6" class="node">
<title>Node6</title>
<g id="a_node6"><a xlink:href="trm_8c.html#a54a85aeee6f6a8ef875d4cca663f9fd8" target="_top" xlink:title=" ">
<polygon fill="none" stroke="black" points="15.5,-38.5 15.5,-57.5 67.5,-57.5 67.5,-38.5 15.5,-38.5"/>
<text text-anchor="middle" x="41.5" y="-45.5" font-family="Helvetica,sans-Serif" font-size="10.00">_start_c</text>
</a>
</g>
</g>
<!-- Node5&#45;&gt;Node6 -->
<g id="edge5" class="edge">
<title>Node5&#45;&gt;Node6</title>
<path fill="none" stroke="midnightblue" d="M134.81,-74.88C113.18,-68.58 86.71,-60.87 67.67,-55.33"/>
<polygon fill="midnightblue" stroke="midnightblue" points="134.1,-78.32 144.68,-77.75 136.06,-71.6 134.1,-78.32"/>
</g>
<!-- Node8 -->
<g id="node8" class="node">
<title>Node8</title>
<g id="a_node8"><a xlink:href="os_8c.html#aafec7046aa50c914df86d0d22d4fc1d1" target="_top" xlink:title=" ">
<polygon fill="none" stroke="black" points="0,-114.5 0,-133.5 83,-133.5 83,-114.5 0,-114.5"/>
<text text-anchor="middle" x="41.5" y="-121.5" font-family="Helvetica,sans-Serif" font-size="10.00">MODULE_DEF</text>
</a>
</g>
</g>
<!-- Node7&#45;&gt;Node8 -->
<g id="edge7" class="edge">
<title>Node7&#45;&gt;Node8</title>
<path fill="none" stroke="midnightblue" d="M140.66,-124C123.31,-124 101.74,-124 83.25,-124"/>
<polygon fill="midnightblue" stroke="midnightblue" points="140.86,-127.5 150.86,-124 140.86,-120.5 140.86,-127.5"/>
</g>
<!-- Node10 -->
<g id="node10" class="node">
<title>Node10</title>
<g id="a_node10"><a xlink:href="main_8c.html#ae66f6b31b5ad750f1fe042a706a4e3d4" target="_top" xlink:title=" ">
<polygon fill="none" stroke="black" points="286,-76.5 286,-95.5 324,-95.5 324,-76.5 286,-76.5"/>
<text text-anchor="middle" x="305" y="-83.5" font-family="Helvetica,sans-Serif" font-size="10.00">main</text>
</a>
</g>
</g>
<!-- Node9&#45;&gt;Node10 -->
<g id="edge9" class="edge">
<title>Node9&#45;&gt;Node10</title>
<path fill="none" stroke="midnightblue" d="M400.22,-86C375.53,-86 343.72,-86 324.1,-86"/>
<polygon fill="midnightblue" stroke="midnightblue" points="400.32,-89.5 410.32,-86 400.32,-82.5 400.32,-89.5"/>
</g>
<!-- Node12 -->
<g id="node12" class="node">
<title>Node12</title>
<g id="a_node12"><a xlink:href="cte_8c.html#a10a4e011ab7b1f7e628c8b1f6b638067" target="_top" xlink:title=" ">
<polygon fill="none" stroke="black" points="392,-38.5 392,-57.5 482,-57.5 482,-38.5 392,-38.5"/>
<text text-anchor="middle" x="437" y="-45.5" font-family="Helvetica,sans-Serif" font-size="10.00">__am_irq_handle</text>
</a>
</g>
</g>
<!-- Node11&#45;&gt;Node12 -->
<g id="edge11" class="edge">
<title>Node11&#45;&gt;Node12</title>
<path fill="none" stroke="midnightblue" d="M533.2,-48C516.57,-48 498.28,-48 482.22,-48"/>
<polygon fill="midnightblue" stroke="midnightblue" points="533.3,-51.5 543.3,-48 533.3,-44.5 533.3,-51.5"/>
</g>
<!-- Node14 -->
<g id="node14" class="node">
<title>Node14</title>
<g id="a_node14"><a xlink:href="trm_8c.html#abac650c2a0dd8b7f13349871fd6ab6ee" target="_top" xlink:title=" ">
<polygon fill="none" stroke="black" points="390.5,-0.5 390.5,-19.5 483.5,-19.5 483.5,-0.5 390.5,-0.5"/>
<text text-anchor="middle" x="437" y="-7.5" font-family="Helvetica,sans-Serif" font-size="10.00">__am_percpu_init</text>
</a>
</g>
</g>
<!-- Node13&#45;&gt;Node14 -->
<g id="edge13" class="edge">
<title>Node13&#45;&gt;Node14</title>
<path fill="none" stroke="midnightblue" d="M518.46,-10C506.7,-10 494.69,-10 483.66,-10"/>
<polygon fill="midnightblue" stroke="midnightblue" points="518.7,-13.5 528.7,-10 518.7,-6.5 518.7,-13.5"/>
</g>
<!-- Node15 -->
<g id="node15" class="node">
<title>Node15</title>
<g id="a_node15"><a xlink:href="trm_8c.html#a75e130ff99ad31f9a1df206b5ff8252a" target="_top" xlink:title=" ">
<polygon fill="none" stroke="black" points="125,-38.5 125,-57.5 223,-57.5 223,-38.5 125,-38.5"/>
<text text-anchor="middle" x="174" y="-45.5" font-family="Helvetica,sans-Serif" font-size="10.00">__am_bootcpu_init</text>
</a>
</g>
</g>
<!-- Node14&#45;&gt;Node15 -->
<g id="edge14" class="edge">
<title>Node14&#45;&gt;Node15</title>
<path fill="none" stroke="midnightblue" d="M384.42,-21.65C371.58,-24.31 357.83,-26.95 345,-29 304.09,-35.54 257.29,-40.6 223.16,-43.84"/>
<polygon fill="midnightblue" stroke="midnightblue" points="385.41,-25.02 394.47,-19.53 383.97,-18.17 385.41,-25.02"/>
</g>
<!-- Node16 -->
<g id="node16" class="node">
<title>Node16</title>
<g id="a_node16"><a xlink:href="mpe_8c.html#aec8f7f25be4263648b704092672a566b" target="_top" xlink:title=" ">
<polygon fill="none" stroke="black" points="265,-0.5 265,-19.5 345,-19.5 345,-0.5 265,-0.5"/>
<text text-anchor="middle" x="305" y="-7.5" font-family="Helvetica,sans-Serif" font-size="10.00">othercpu_entry</text>
</a>
</g>
</g>
<!-- Node14&#45;&gt;Node16 -->
<g id="edge16" class="edge">
<title>Node14&#45;&gt;Node16</title>
<path fill="none" stroke="midnightblue" d="M380.05,-10C368.38,-10 356.31,-10 345.38,-10"/>
<polygon fill="midnightblue" stroke="midnightblue" points="380.17,-13.5 390.17,-10 380.17,-6.5 380.17,-13.5"/>
</g>
<!-- Node15&#45;&gt;Node6 -->
<g id="edge15" class="edge">
<title>Node15&#45;&gt;Node6</title>
<path fill="none" stroke="midnightblue" d="M114.67,-48C98.25,-48 81.23,-48 67.85,-48"/>
<polygon fill="midnightblue" stroke="midnightblue" points="114.78,-51.5 124.78,-48 114.78,-44.5 114.78,-51.5"/>
</g>
<!-- Node17 -->
<g id="node17" class="node">
<title>Node17</title>
<g id="a_node17"><a xlink:href="mpe_8c.html#af9524b1c09898b69d9980310682a8bea" target="_top" xlink:title=" ">
<polygon fill="none" stroke="black" points="119,-0.5 119,-19.5 229,-19.5 229,-0.5 119,-0.5"/>
<text text-anchor="middle" x="174" y="-7.5" font-family="Helvetica,sans-Serif" font-size="10.00">__am_othercpu_entry</text>
</a>
</g>
</g>
<!-- Node16&#45;&gt;Node17 -->
<g id="edge17" class="edge">
<title>Node16&#45;&gt;Node17</title>
<path fill="none" stroke="midnightblue" d="M254.9,-10C246.48,-10 237.69,-10 229.15,-10"/>
<polygon fill="midnightblue" stroke="midnightblue" points="254.95,-13.5 264.95,-10 254.95,-6.5 254.95,-13.5"/>
</g>
<!-- Node17&#45;&gt;Node6 -->
<g id="edge18" class="edge">
<title>Node17&#45;&gt;Node6</title>
<path fill="none" stroke="midnightblue" d="M130.21,-22.46C109.48,-28.5 85.31,-35.53 67.59,-40.69"/>
<polygon fill="midnightblue" stroke="midnightblue" points="131.45,-25.75 140.07,-19.59 129.49,-19.02 131.45,-25.75"/>
</g>
</g>
</svg>
