<?xml version="1.0" encoding="UTF-8" standalone="no"?>
<!DOCTYPE svg PUBLIC "-//W3C//DTD SVG 1.1//EN"
 "http://www.w3.org/Graphics/SVG/1.1/DTD/svg11.dtd">
<!-- Generated by graphviz version 3.0.0 (20220413.0106)
 -->
<!-- Title: MODULE Pages: 1 -->
<svg width="570pt" height="294pt"
 viewBox="0.00 0.00 570.00 294.00" xmlns="http://www.w3.org/2000/svg" xmlns:xlink="http://www.w3.org/1999/xlink">
<g id="graph0" class="graph" transform="scale(1 1) rotate(0) translate(4 290)">
<title>MODULE</title>
<!-- Node1 -->
<g id="node1" class="node">
<title>Node1</title>
<g id="a_node1"><a xlink:title=" ">
<polygon fill="#bfbfbf" stroke="black" points="0,-152.5 0,-171.5 59,-171.5 59,-152.5 0,-152.5"/>
<text text-anchor="middle" x="29.5" y="-159.5" font-family="Helvetica,sans-Serif" font-size="10.00">MODULE</text>
</a>
</g>
</g>
<!-- Node2 -->
<g id="node2" class="node">
<title>Node2</title>
<g id="a_node2"><a xlink:href="sem_8c.html#a07341aaf6201983d7c7b9ea1b69975f9" target="_top" xlink:title=" ">
<polygon fill="none" stroke="black" points="102.5,-266.5 102.5,-285.5 155.5,-285.5 155.5,-266.5 102.5,-266.5"/>
<text text-anchor="middle" x="129" y="-273.5" font-family="Helvetica,sans-Serif" font-size="10.00">sem_init</text>
</a>
</g>
</g>
<!-- Node1&#45;&gt;Node2 -->
<g id="edge1" class="edge">
<title>Node1&#45;&gt;Node2</title>
<path fill="none" stroke="midnightblue" d="M35.17,-171.67C44.46,-190.12 66.81,-230.82 95,-257 96.3,-258.21 97.69,-259.37 99.13,-260.48"/>
<polygon fill="midnightblue" stroke="midnightblue" points="97.55,-263.64 107.8,-266.31 101.45,-257.82 97.55,-263.64"/>
</g>
<!-- Node3 -->
<g id="node3" class="node">
<title>Node3</title>
<g id="a_node3"><a xlink:href="sem_8c.html#ad994e433f3a6bf8626272437cb54c114" target="_top" xlink:title=" ">
<polygon fill="none" stroke="black" points="96,-228.5 96,-247.5 162,-247.5 162,-228.5 96,-228.5"/>
<text text-anchor="middle" x="129" y="-235.5" font-family="Helvetica,sans-Serif" font-size="10.00">sem_signal</text>
</a>
</g>
</g>
<!-- Node1&#45;&gt;Node3 -->
<g id="edge2" class="edge">
<title>Node1&#45;&gt;Node3</title>
<path fill="none" stroke="midnightblue" d="M40.03,-171.54C52.19,-183.43 74.13,-204 95,-219 96.88,-220.35 98.85,-221.68 100.87,-222.98"/>
<polygon fill="midnightblue" stroke="midnightblue" points="99.41,-226.19 109.78,-228.38 103.04,-220.2 99.41,-226.19"/>
</g>
<!-- Node4 -->
<g id="node4" class="node">
<title>Node4</title>
<g id="a_node4"><a xlink:href="sem_8c.html#a85ca67864bb0af1966a5c2463bd16fe8" target="_top" xlink:title=" ">
<polygon fill="none" stroke="black" points="99.5,-190.5 99.5,-209.5 158.5,-209.5 158.5,-190.5 99.5,-190.5"/>
<text text-anchor="middle" x="129" y="-197.5" font-family="Helvetica,sans-Serif" font-size="10.00">sem_wait</text>
</a>
</g>
</g>
<!-- Node1&#45;&gt;Node4 -->
<g id="edge3" class="edge">
<title>Node1&#45;&gt;Node4</title>
<path fill="none" stroke="midnightblue" d="M55.1,-171.59C66.88,-176.18 81.18,-181.75 93.97,-186.74"/>
<polygon fill="midnightblue" stroke="midnightblue" points="92.82,-190.04 103.4,-190.41 95.36,-183.52 92.82,-190.04"/>
</g>
<!-- Node5 -->
<g id="node5" class="node">
<title>Node5</title>
<g id="a_node5"><a xlink:href="spinlock_8c.html#ab80f529a7b9f49f09fc91a404731c869" target="_top" xlink:title="create spinlock">
<polygon fill="none" stroke="black" points="102.5,-152.5 102.5,-171.5 155.5,-171.5 155.5,-152.5 102.5,-152.5"/>
<text text-anchor="middle" x="129" y="-159.5" font-family="Helvetica,sans-Serif" font-size="10.00">spin_init</text>
</a>
</g>
</g>
<!-- Node1&#45;&gt;Node5 -->
<g id="edge4" class="edge">
<title>Node1&#45;&gt;Node5</title>
<path fill="none" stroke="midnightblue" d="M59.23,-162C69.61,-162 81.47,-162 92.37,-162"/>
<polygon fill="midnightblue" stroke="midnightblue" points="92.46,-165.5 102.46,-162 92.46,-158.5 92.46,-165.5"/>
</g>
<!-- Node6 -->
<g id="node6" class="node">
<title>Node6</title>
<g id="a_node6"><a xlink:href="spinlock_8c.html#ab6f3c37ec37006951feccc3c05387cce" target="_top" xlink:title="acquire spinlock to current cpu">
<polygon fill="none" stroke="black" points="100,-114.5 100,-133.5 158,-133.5 158,-114.5 100,-114.5"/>
<text text-anchor="middle" x="129" y="-121.5" font-family="Helvetica,sans-Serif" font-size="10.00">spin_lock</text>
</a>
</g>
</g>
<!-- Node1&#45;&gt;Node6 -->
<g id="edge5" class="edge">
<title>Node1&#45;&gt;Node6</title>
<path fill="none" stroke="midnightblue" d="M55.1,-152.41C66.88,-147.82 81.18,-142.25 93.97,-137.26"/>
<polygon fill="midnightblue" stroke="midnightblue" points="95.36,-140.48 103.4,-133.59 92.82,-133.96 95.36,-140.48"/>
</g>
<!-- Node18 -->
<g id="node18" class="node">
<title>Node18</title>
<g id="a_node18"><a xlink:href="spinlock_8c.html#acdf118d615a4bc4064e991add9a80995" target="_top" xlink:title="release spinlock from current cpu">
<polygon fill="none" stroke="black" points="95,-76.5 95,-95.5 163,-95.5 163,-76.5 95,-76.5"/>
<text text-anchor="middle" x="129" y="-83.5" font-family="Helvetica,sans-Serif" font-size="10.00">spin_unlock</text>
</a>
</g>
</g>
<!-- Node1&#45;&gt;Node18 -->
<g id="edge22" class="edge">
<title>Node1&#45;&gt;Node18</title>
<path fill="none" stroke="midnightblue" d="M40.03,-152.46C52.19,-140.57 74.13,-120 95,-105 96.88,-103.65 98.85,-102.32 100.87,-101.02"/>
<polygon fill="midnightblue" stroke="midnightblue" points="103.04,-103.8 109.78,-95.62 99.41,-97.81 103.04,-103.8"/>
</g>
<!-- Node19 -->
<g id="node19" class="node">
<title>Node19</title>
<g id="a_node19"><a xlink:href="vme_8c.html#a901011ff1d62f072db4208fa9c1971a2" target="_top" xlink:title=" ">
<polygon fill="none" stroke="black" points="101,-10.5 101,-29.5 157,-29.5 157,-10.5 101,-10.5"/>
<text text-anchor="middle" x="129" y="-17.5" font-family="Helvetica,sans-Serif" font-size="10.00">teardown</text>
</a>
</g>
</g>
<!-- Node1&#45;&gt;Node19 -->
<g id="edge25" class="edge">
<title>Node1&#45;&gt;Node19</title>
<path fill="none" stroke="midnightblue" d="M37.04,-152.26C48.64,-135.01 73.59,-98 95,-67 101.64,-57.38 109.12,-46.71 115.28,-37.97"/>
<polygon fill="midnightblue" stroke="midnightblue" points="118.22,-39.88 121.13,-29.69 112.5,-35.84 118.22,-39.88"/>
</g>
<!-- Node7 -->
<g id="node7" class="node">
<title>Node7</title>
<g id="a_node7"><a xlink:href="mpe_8c.html#aaaad47c97c82065cf463f83b98b23c30" target="_top" xlink:title=" ">
<polygon fill="none" stroke="black" points="199,-190.5 199,-209.5 270,-209.5 270,-190.5 199,-190.5"/>
<text text-anchor="middle" x="234.5" y="-197.5" font-family="Helvetica,sans-Serif" font-size="10.00">atomic_xchg</text>
</a>
</g>
</g>
<!-- Node6&#45;&gt;Node7 -->
<g id="edge6" class="edge">
<title>Node6&#45;&gt;Node7</title>
<path fill="none" stroke="midnightblue" d="M148.26,-133.56C153.18,-136.39 158.41,-139.64 163,-143 180.51,-155.83 182.05,-162.44 199,-176 202.62,-178.9 206.57,-181.84 210.47,-184.62"/>
<polygon fill="midnightblue" stroke="midnightblue" points="208.54,-187.54 218.75,-190.38 212.54,-181.8 208.54,-187.54"/>
</g>
<!-- Node9 -->
<g id="node9" class="node">
<title>Node9</title>
<g id="a_node9"><a xlink:href="mpe_8c.html#ab701de78cad32896c923ce900087e714" target="_top" xlink:title=" ">
<polygon fill="none" stroke="black" points="413,-76.5 413,-95.5 481,-95.5 481,-76.5 413,-76.5"/>
<text text-anchor="middle" x="447" y="-83.5" font-family="Helvetica,sans-Serif" font-size="10.00">cpu_current</text>
</a>
</g>
</g>
<!-- Node6&#45;&gt;Node9 -->
<g id="edge8" class="edge">
<title>Node6&#45;&gt;Node9</title>
<path fill="none" stroke="midnightblue" d="M155.82,-133.58C202.24,-149.18 301.93,-175.29 377,-143 398.37,-133.81 394.73,-119.4 413,-105 414.77,-103.6 416.66,-102.24 418.6,-100.93"/>
<polygon fill="midnightblue" stroke="midnightblue" points="420.6,-103.81 427.23,-95.55 416.9,-97.87 420.6,-103.81"/>
</g>
<!-- Node10 -->
<g id="node10" class="node">
<title>Node10</title>
<g id="a_node10"><a xlink:href="spinlock_8c.html#ad4be0d674a7ca4dc90c2dbf8b34562cc" target="_top" xlink:title="check current cpu has the lock">
<polygon fill="none" stroke="black" points="199,-76.5 199,-95.5 270,-95.5 270,-76.5 199,-76.5"/>
<text text-anchor="middle" x="234.5" y="-83.5" font-family="Helvetica,sans-Serif" font-size="10.00">spin_holding</text>
</a>
</g>
</g>
<!-- Node6&#45;&gt;Node10 -->
<g id="edge9" class="edge">
<title>Node6&#45;&gt;Node10</title>
<path fill="none" stroke="midnightblue" d="M156.12,-114.41C168.74,-109.78 184.09,-104.14 197.78,-99.11"/>
<polygon fill="midnightblue" stroke="midnightblue" points="199.21,-102.32 207.39,-95.59 196.8,-95.75 199.21,-102.32"/>
</g>
<!-- Node15 -->
<g id="node15" class="node">
<title>Node15</title>
<g id="a_node15"><a xlink:href="spinlock_8c.html#ab213874cda54fdbbeb1bec1e5fa90b28" target="_top" xlink:title="interrupt disable">
<polygon fill="none" stroke="black" points="306,-114.5 306,-133.5 377,-133.5 377,-114.5 306,-114.5"/>
<text text-anchor="middle" x="341.5" y="-121.5" font-family="Helvetica,sans-Serif" font-size="10.00">spin_pushcli</text>
</a>
</g>
</g>
<!-- Node6&#45;&gt;Node15 -->
<g id="edge21" class="edge">
<title>Node6&#45;&gt;Node15</title>
<path fill="none" stroke="midnightblue" d="M158.39,-124C193.67,-124 254.28,-124 295.81,-124"/>
<polygon fill="midnightblue" stroke="midnightblue" points="295.93,-127.5 305.93,-124 295.93,-120.5 295.93,-127.5"/>
</g>
<!-- Node8 -->
<g id="node8" class="node">
<title>Node8</title>
<g id="a_node8"><a xlink:href="x86_8h.html#a48b2a6a16dc8d7e09d327aa3803f1112" target="_top" xlink:title=" ">
<polygon fill="none" stroke="black" points="323,-190.5 323,-209.5 360,-209.5 360,-190.5 323,-190.5"/>
<text text-anchor="middle" x="341.5" y="-197.5" font-family="Helvetica,sans-Serif" font-size="10.00">xchg</text>
</a>
</g>
</g>
<!-- Node7&#45;&gt;Node8 -->
<g id="edge7" class="edge">
<title>Node7&#45;&gt;Node8</title>
<path fill="none" stroke="midnightblue" d="M270.17,-200C283.99,-200 299.67,-200 312.71,-200"/>
<polygon fill="midnightblue" stroke="midnightblue" points="312.95,-203.5 322.95,-200 312.95,-196.5 312.95,-203.5"/>
</g>
<!-- Node10&#45;&gt;Node9 -->
<g id="edge10" class="edge">
<title>Node10&#45;&gt;Node9</title>
<path fill="none" stroke="midnightblue" d="M270.26,-86C306.6,-86 363.69,-86 402.88,-86"/>
<polygon fill="midnightblue" stroke="midnightblue" points="402.92,-89.5 412.92,-86 402.92,-82.5 402.92,-89.5"/>
</g>
<!-- Node11 -->
<g id="node11" class="node">
<title>Node11</title>
<g id="a_node11"><a xlink:href="spinlock_8c.html#afc9565dc7a5ddf77e1fa76f5d91caf78" target="_top" xlink:title="interrupt able">
<polygon fill="none" stroke="black" points="309,-38.5 309,-57.5 374,-57.5 374,-38.5 309,-38.5"/>
<text text-anchor="middle" x="341.5" y="-45.5" font-family="Helvetica,sans-Serif" font-size="10.00">spin_popcli</text>
</a>
</g>
</g>
<!-- Node10&#45;&gt;Node11 -->
<g id="edge11" class="edge">
<title>Node10&#45;&gt;Node11</title>
<path fill="none" stroke="midnightblue" d="M262,-76.41C274.8,-71.78 290.38,-66.14 304.26,-61.11"/>
<polygon fill="midnightblue" stroke="midnightblue" points="305.8,-64.28 314.01,-57.59 303.42,-57.7 305.8,-64.28"/>
</g>
<!-- Node10&#45;&gt;Node15 -->
<g id="edge16" class="edge">
<title>Node10&#45;&gt;Node15</title>
<path fill="none" stroke="midnightblue" d="M262,-95.59C274.8,-100.22 290.38,-105.86 304.26,-110.89"/>
<polygon fill="midnightblue" stroke="midnightblue" points="303.42,-114.3 314.01,-114.41 305.8,-107.72 303.42,-114.3"/>
</g>
<!-- Node11&#45;&gt;Node9 -->
<g id="edge12" class="edge">
<title>Node11&#45;&gt;Node9</title>
<path fill="none" stroke="midnightblue" d="M368.62,-57.59C381.24,-62.22 396.59,-67.86 410.28,-72.89"/>
<polygon fill="midnightblue" stroke="midnightblue" points="409.3,-76.25 419.89,-76.41 411.71,-69.68 409.3,-76.25"/>
</g>
<!-- Node12 -->
<g id="node12" class="node">
<title>Node12</title>
<g id="a_node12"><a xlink:href="cte_8c.html#a4a139958742786c5085172be1f69bfd0" target="_top" xlink:title=" ">
<polygon fill="none" stroke="black" points="431,-38.5 431,-57.5 463,-57.5 463,-38.5 431,-38.5"/>
<text text-anchor="middle" x="447" y="-45.5" font-family="Helvetica,sans-Serif" font-size="10.00">iset</text>
</a>
</g>
</g>
<!-- Node11&#45;&gt;Node12 -->
<g id="edge13" class="edge">
<title>Node11&#45;&gt;Node12</title>
<path fill="none" stroke="midnightblue" d="M374.12,-48C388.94,-48 406.37,-48 420.36,-48"/>
<polygon fill="midnightblue" stroke="midnightblue" points="420.72,-51.5 430.72,-48 420.72,-44.5 420.72,-51.5"/>
</g>
<!-- Node13 -->
<g id="node13" class="node">
<title>Node13</title>
<g id="a_node13"><a xlink:href="x86_8h.html#acc919e7809ef1db2b20aa3804f540b5c" target="_top" xlink:title=" ">
<polygon fill="none" stroke="black" points="525,-57.5 525,-76.5 554,-76.5 554,-57.5 525,-57.5"/>
<text text-anchor="middle" x="539.5" y="-64.5" font-family="Helvetica,sans-Serif" font-size="10.00">cli</text>
</a>
</g>
</g>
<!-- Node12&#45;&gt;Node13 -->
<g id="edge14" class="edge">
<title>Node12&#45;&gt;Node13</title>
<path fill="none" stroke="midnightblue" d="M463.35,-51.22C477.5,-54.19 498.71,-58.65 514.99,-62.06"/>
<polygon fill="midnightblue" stroke="midnightblue" points="514.35,-65.51 524.85,-64.13 515.78,-58.65 514.35,-65.51"/>
</g>
<!-- Node14 -->
<g id="node14" class="node">
<title>Node14</title>
<g id="a_node14"><a xlink:href="x86_8h.html#a4657e97b270d7af5a23da2c4d642ada2" target="_top" xlink:title=" ">
<polygon fill="none" stroke="black" points="525,-19.5 525,-38.5 554,-38.5 554,-19.5 525,-19.5"/>
<text text-anchor="middle" x="539.5" y="-26.5" font-family="Helvetica,sans-Serif" font-size="10.00">sti</text>
</a>
</g>
</g>
<!-- Node12&#45;&gt;Node14 -->
<g id="edge15" class="edge">
<title>Node12&#45;&gt;Node14</title>
<path fill="none" stroke="midnightblue" d="M463.35,-44.78C477.5,-41.81 498.71,-37.35 514.99,-33.94"/>
<polygon fill="midnightblue" stroke="midnightblue" points="515.78,-37.35 524.85,-31.87 514.35,-30.49 515.78,-37.35"/>
</g>
<!-- Node15&#45;&gt;Node9 -->
<g id="edge17" class="edge">
<title>Node15&#45;&gt;Node9</title>
<path fill="none" stroke="midnightblue" d="M368.62,-114.41C381.24,-109.78 396.59,-104.14 410.28,-99.11"/>
<polygon fill="midnightblue" stroke="midnightblue" points="411.71,-102.32 419.89,-95.59 409.3,-95.75 411.71,-102.32"/>
</g>
<!-- Node15&#45;&gt;Node12 -->
<g id="edge20" class="edge">
<title>Node15&#45;&gt;Node12</title>
<path fill="none" stroke="midnightblue" d="M353.55,-114.15C367.09,-102.3 390.93,-82.13 413,-67 415.92,-64.99 419.07,-63 422.22,-61.09"/>
<polygon fill="midnightblue" stroke="midnightblue" points="424.03,-64.08 430.91,-56.03 420.51,-58.04 424.03,-64.08"/>
</g>
<!-- Node16 -->
<g id="node16" class="node">
<title>Node16</title>
<g id="a_node16"><a xlink:href="cte_8c.html#a79659a2b801c42951e38f3a8821acbae" target="_top" xlink:title=" ">
<polygon fill="none" stroke="black" points="420.5,-114.5 420.5,-133.5 473.5,-133.5 473.5,-114.5 420.5,-114.5"/>
<text text-anchor="middle" x="447" y="-121.5" font-family="Helvetica,sans-Serif" font-size="10.00">ienabled</text>
</a>
</g>
</g>
<!-- Node15&#45;&gt;Node16 -->
<g id="edge18" class="edge">
<title>Node15&#45;&gt;Node16</title>
<path fill="none" stroke="midnightblue" d="M377.25,-124C387.82,-124 399.46,-124 410.1,-124"/>
<polygon fill="midnightblue" stroke="midnightblue" points="410.34,-127.5 420.34,-124 410.34,-120.5 410.34,-127.5"/>
</g>
<!-- Node17 -->
<g id="node17" class="node">
<title>Node17</title>
<g id="a_node17"><a xlink:href="x86_8h.html#a73d094f09c6a7dd3fc703aa8229933ee" target="_top" xlink:title=" ">
<polygon fill="none" stroke="black" points="517,-114.5 517,-133.5 562,-133.5 562,-114.5 517,-114.5"/>
<text text-anchor="middle" x="539.5" y="-121.5" font-family="Helvetica,sans-Serif" font-size="10.00">get_efl</text>
</a>
</g>
</g>
<!-- Node16&#45;&gt;Node17 -->
<g id="edge19" class="edge">
<title>Node16&#45;&gt;Node17</title>
<path fill="none" stroke="midnightblue" d="M473.69,-124C483.88,-124 495.71,-124 506.45,-124"/>
<polygon fill="midnightblue" stroke="midnightblue" points="506.73,-127.5 516.73,-124 506.73,-120.5 506.73,-127.5"/>
</g>
<!-- Node18&#45;&gt;Node10 -->
<g id="edge23" class="edge">
<title>Node18&#45;&gt;Node10</title>
<path fill="none" stroke="midnightblue" d="M163.03,-86C171.28,-86 180.26,-86 188.97,-86"/>
<polygon fill="midnightblue" stroke="midnightblue" points="189,-89.5 199,-86 189,-82.5 189,-89.5"/>
</g>
<!-- Node18&#45;&gt;Node11 -->
<g id="edge24" class="edge">
<title>Node18&#45;&gt;Node11</title>
<path fill="none" stroke="midnightblue" d="M161.04,-76.49C172.84,-73.13 186.46,-69.56 199,-67 232.31,-60.21 270.55,-55.24 298.87,-52.09"/>
<polygon fill="midnightblue" stroke="midnightblue" points="299.26,-55.57 308.82,-51.01 298.5,-48.61 299.26,-55.57"/>
</g>
<!-- Node19&#45;&gt;Node19 -->
<g id="edge27" class="edge">
<title>Node19&#45;&gt;Node19</title>
<path fill="none" stroke="midnightblue" d="M113.9,-29.76C106.55,-38.57 111.58,-48 129,-48 139.89,-48 145.94,-44.31 147.15,-39.4"/>
<polygon fill="midnightblue" stroke="midnightblue" points="150.45,-38.24 144.1,-29.76 143.78,-40.35 150.45,-38.24"/>
</g>
<!-- Node20 -->
<g id="node20" class="node">
<title>Node20</title>
<g id="a_node20"><a xlink:href="vme_8c.html#a55c43e36b332c6b9adc75d2fb8ec3030" target="_top" xlink:title=" ">
<polygon fill="none" stroke="black" points="211.5,-0.5 211.5,-19.5 257.5,-19.5 257.5,-0.5 211.5,-0.5"/>
<text text-anchor="middle" x="234.5" y="-7.5" font-family="Helvetica,sans-Serif" font-size="10.00">baseof</text>
</a>
</g>
</g>
<!-- Node19&#45;&gt;Node20 -->
<g id="edge26" class="edge">
<title>Node19&#45;&gt;Node20</title>
<path fill="none" stroke="midnightblue" d="M157.19,-17.37C170.65,-16.07 187,-14.49 201.1,-13.13"/>
<polygon fill="midnightblue" stroke="midnightblue" points="201.75,-16.58 211.36,-12.14 201.07,-9.62 201.75,-16.58"/>
</g>
</g>
</svg>
