<?xml version="1.0" encoding="UTF-8" standalone="no"?>
<!DOCTYPE svg PUBLIC "-//W3C//DTD SVG 1.1//EN"
 "http://www.w3.org/Graphics/SVG/1.1/DTD/svg11.dtd">
<!-- Generated by graphviz version 3.0.0 (20220413.0106)
 -->
<!-- Title: MODULE Pages: 1 -->
<svg width="232pt" height="294pt"
 viewBox="0.00 0.00 232.00 294.00" xmlns="http://www.w3.org/2000/svg" xmlns:xlink="http://www.w3.org/1999/xlink">
<g id="graph0" class="graph" transform="scale(1 1) rotate(0) translate(4 290)">
<title>MODULE</title>
<!-- Node1 -->
<g id="node1" class="node">
<title>Node1</title>
<g id="a_node1"><a xlink:title=" ">
<polygon fill="#bfbfbf" stroke="black" points="0,-133.5 0,-152.5 59,-152.5 59,-133.5 0,-133.5"/>
<text text-anchor="middle" x="29.5" y="-140.5" font-family="Helvetica,sans-Serif" font-size="10.00">MODULE</text>
</a>
</g>
</g>
<!-- Node2 -->
<g id="node2" class="node">
<title>Node2</title>
<g id="a_node2"><a xlink:href="ulib_8h.html#a0287d56588c2c988ad4a6b6d020e8996" target="_top" xlink:title=" ">
<polygon fill="none" stroke="black" points="102,-266.5 102,-285.5 134,-285.5 134,-266.5 102,-266.5"/>
<text text-anchor="middle" x="118" y="-273.5" font-family="Helvetica,sans-Serif" font-size="10.00">exit</text>
</a>
</g>
</g>
<!-- Node1&#45;&gt;Node2 -->
<g id="edge1" class="edge">
<title>Node1&#45;&gt;Node2</title>
<path fill="none" stroke="midnightblue" d="M34.54,-152.54C43.48,-173.03 66.46,-222.18 95,-257 95.59,-257.72 96.2,-258.43 96.84,-259.13"/>
<polygon fill="midnightblue" stroke="midnightblue" points="94.57,-261.8 104.19,-266.23 99.43,-256.77 94.57,-261.8"/>
</g>
<!-- Node4 -->
<g id="node4" class="node">
<title>Node4</title>
<g id="a_node4"><a xlink:href="ulib_8h.html#a7c4a087850a341a5631b2faa27d7a93e" target="_top" xlink:title=" ">
<polygon fill="none" stroke="black" points="101.5,-228.5 101.5,-247.5 134.5,-247.5 134.5,-228.5 101.5,-228.5"/>
<text text-anchor="middle" x="118" y="-235.5" font-family="Helvetica,sans-Serif" font-size="10.00">fork</text>
</a>
</g>
</g>
<!-- Node1&#45;&gt;Node4 -->
<g id="edge3" class="edge">
<title>Node1&#45;&gt;Node4</title>
<path fill="none" stroke="midnightblue" d="M37.99,-152.77C49.58,-167.66 72.83,-196.63 95,-219 95.78,-219.79 96.59,-220.58 97.42,-221.37"/>
<polygon fill="midnightblue" stroke="midnightblue" points="95.28,-224.16 105.05,-228.27 99.98,-218.97 95.28,-224.16"/>
</g>
<!-- Node5 -->
<g id="node5" class="node">
<title>Node5</title>
<g id="a_node5"><a xlink:href="ulib_8h.html#a96abb3e623e15f594cf8c8d02af19bc4" target="_top" xlink:title=" ">
<polygon fill="none" stroke="black" points="96.5,-190.5 96.5,-209.5 139.5,-209.5 139.5,-190.5 96.5,-190.5"/>
<text text-anchor="middle" x="118" y="-197.5" font-family="Helvetica,sans-Serif" font-size="10.00">getpid</text>
</a>
</g>
</g>
<!-- Node1&#45;&gt;Node5 -->
<g id="edge5" class="edge">
<title>Node1&#45;&gt;Node5</title>
<path fill="none" stroke="midnightblue" d="M45.17,-152.67C58.55,-161.48 78.53,-174.65 94.02,-184.86"/>
<polygon fill="midnightblue" stroke="midnightblue" points="92.27,-187.89 102.54,-190.47 96.12,-182.05 92.27,-187.89"/>
</g>
<!-- Node6 -->
<g id="node6" class="node">
<title>Node6</title>
<g id="a_node6"><a xlink:href="ulib_8h.html#a56da44e9088a04b0dae5c1ff08553a92" target="_top" xlink:title=" ">
<polygon fill="none" stroke="black" points="103.5,-152.5 103.5,-171.5 132.5,-171.5 132.5,-152.5 103.5,-152.5"/>
<text text-anchor="middle" x="118" y="-159.5" font-family="Helvetica,sans-Serif" font-size="10.00">kill</text>
</a>
</g>
</g>
<!-- Node1&#45;&gt;Node6 -->
<g id="edge7" class="edge">
<title>Node1&#45;&gt;Node6</title>
<path fill="none" stroke="midnightblue" d="M59.3,-149.33C70.25,-151.73 82.58,-154.44 93.03,-156.74"/>
<polygon fill="midnightblue" stroke="midnightblue" points="92.58,-160.22 103.1,-158.95 94.08,-153.38 92.58,-160.22"/>
</g>
<!-- Node7 -->
<g id="node7" class="node">
<title>Node7</title>
<g id="a_node7"><a xlink:href="ulib_8h.html#a4d2d58202491423b6d7db8033189af0b" target="_top" xlink:title=" ">
<polygon fill="none" stroke="black" points="97.5,-114.5 97.5,-133.5 138.5,-133.5 138.5,-114.5 97.5,-114.5"/>
<text text-anchor="middle" x="118" y="-121.5" font-family="Helvetica,sans-Serif" font-size="10.00">kputc</text>
</a>
</g>
</g>
<!-- Node1&#45;&gt;Node7 -->
<g id="edge9" class="edge">
<title>Node1&#45;&gt;Node7</title>
<path fill="none" stroke="midnightblue" d="M59.3,-136.67C68.37,-134.68 78.4,-132.48 87.52,-130.48"/>
<polygon fill="midnightblue" stroke="midnightblue" points="88.31,-133.89 97.32,-128.32 86.8,-127.05 88.31,-133.89"/>
</g>
<!-- Node8 -->
<g id="node8" class="node">
<title>Node8</title>
<g id="a_node8"><a xlink:href="ulib_8h.html#a4a920ec7e1766548b0422c649629d2ac" target="_top" xlink:title=" ">
<polygon fill="none" stroke="black" points="98,-76.5 98,-95.5 138,-95.5 138,-76.5 98,-76.5"/>
<text text-anchor="middle" x="118" y="-83.5" font-family="Helvetica,sans-Serif" font-size="10.00">sleep</text>
</a>
</g>
</g>
<!-- Node1&#45;&gt;Node8 -->
<g id="edge11" class="edge">
<title>Node1&#45;&gt;Node8</title>
<path fill="none" stroke="midnightblue" d="M45.17,-133.33C58.55,-124.52 78.53,-111.35 94.02,-101.14"/>
<polygon fill="midnightblue" stroke="midnightblue" points="96.12,-103.95 102.54,-95.53 92.27,-98.11 96.12,-103.95"/>
</g>
<!-- Node9 -->
<g id="node9" class="node">
<title>Node9</title>
<g id="a_node9"><a xlink:href="ulib_8h.html#accef0faab1366bd6c657070a9889e6d9" target="_top" xlink:title=" ">
<polygon fill="none" stroke="black" points="95,-38.5 95,-57.5 141,-57.5 141,-38.5 95,-38.5"/>
<text text-anchor="middle" x="118" y="-45.5" font-family="Helvetica,sans-Serif" font-size="10.00">uptime</text>
</a>
</g>
</g>
<!-- Node1&#45;&gt;Node9 -->
<g id="edge13" class="edge">
<title>Node1&#45;&gt;Node9</title>
<path fill="none" stroke="midnightblue" d="M37.99,-133.23C49.58,-118.34 72.83,-89.37 95,-67 95.78,-66.21 96.59,-65.42 97.42,-64.63"/>
<polygon fill="midnightblue" stroke="midnightblue" points="99.98,-67.03 105.05,-57.73 95.28,-61.84 99.98,-67.03"/>
</g>
<!-- Node10 -->
<g id="node10" class="node">
<title>Node10</title>
<g id="a_node10"><a xlink:href="ulib_8h.html#ac3388e95bdd865c354a121f4a6d24126" target="_top" xlink:title=" ">
<polygon fill="none" stroke="black" points="100.5,-0.5 100.5,-19.5 135.5,-19.5 135.5,-0.5 100.5,-0.5"/>
<text text-anchor="middle" x="118" y="-7.5" font-family="Helvetica,sans-Serif" font-size="10.00">wait</text>
</a>
</g>
</g>
<!-- Node1&#45;&gt;Node10 -->
<g id="edge15" class="edge">
<title>Node1&#45;&gt;Node10</title>
<path fill="none" stroke="midnightblue" d="M34.54,-133.46C43.48,-112.97 66.46,-63.82 95,-29 95.59,-28.28 96.2,-27.57 96.84,-26.87"/>
<polygon fill="midnightblue" stroke="midnightblue" points="99.43,-29.23 104.19,-19.77 94.57,-24.2 99.43,-29.23"/>
</g>
<!-- Node3 -->
<g id="node3" class="node">
<title>Node3</title>
<g id="a_node3"><a xlink:href="ulib_8h.html#a4e1838566fe4a90effacec77cdcf6227" target="_top" xlink:title=" ">
<polygon fill="none" stroke="black" points="177,-133.5 177,-152.5 224,-152.5 224,-133.5 177,-133.5"/>
<text text-anchor="middle" x="200.5" y="-140.5" font-family="Helvetica,sans-Serif" font-size="10.00">syscall</text>
</a>
</g>
</g>
<!-- Node2&#45;&gt;Node3 -->
<g id="edge2" class="edge">
<title>Node2&#45;&gt;Node3</title>
<path fill="none" stroke="midnightblue" d="M131.9,-266.31C135.11,-263.52 138.38,-260.33 141,-257 164.61,-226.97 182.86,-185.94 192.33,-162.17"/>
<polygon fill="midnightblue" stroke="midnightblue" points="195.7,-163.16 196.04,-152.57 189.17,-160.63 195.7,-163.16"/>
</g>
<!-- Node4&#45;&gt;Node3 -->
<g id="edge4" class="edge">
<title>Node4&#45;&gt;Node3</title>
<path fill="none" stroke="midnightblue" d="M131.05,-228.36C134.4,-225.48 137.95,-222.23 141,-219 158.4,-200.59 175.78,-177.22 187.02,-161.29"/>
<polygon fill="midnightblue" stroke="midnightblue" points="190.04,-163.07 192.88,-152.86 184.3,-159.07 190.04,-163.07"/>
</g>
<!-- Node5&#45;&gt;Node3 -->
<g id="edge6" class="edge">
<title>Node5&#45;&gt;Node3</title>
<path fill="none" stroke="midnightblue" d="M132.66,-190.33C144.99,-181.6 163.35,-168.6 177.71,-158.43"/>
<polygon fill="midnightblue" stroke="midnightblue" points="179.91,-161.16 186.05,-152.53 175.86,-155.45 179.91,-161.16"/>
</g>
<!-- Node6&#45;&gt;Node3 -->
<g id="edge8" class="edge">
<title>Node6&#45;&gt;Node3</title>
<path fill="none" stroke="midnightblue" d="M132.66,-158.78C142.12,-156.54 155.13,-153.47 167.16,-150.63"/>
<polygon fill="midnightblue" stroke="midnightblue" points="168.01,-154.03 176.93,-148.33 166.4,-147.22 168.01,-154.03"/>
</g>
<!-- Node7&#45;&gt;Node3 -->
<g id="edge10" class="edge">
<title>Node7&#45;&gt;Node3</title>
<path fill="none" stroke="midnightblue" d="M138.9,-128.7C147.38,-130.7 157.49,-133.09 167.01,-135.33"/>
<polygon fill="midnightblue" stroke="midnightblue" points="166.45,-138.8 176.99,-137.69 168.06,-131.98 166.45,-138.8"/>
</g>
<!-- Node8&#45;&gt;Node3 -->
<g id="edge12" class="edge">
<title>Node8&#45;&gt;Node3</title>
<path fill="none" stroke="midnightblue" d="M132.66,-95.67C144.99,-104.4 163.35,-117.4 177.71,-127.57"/>
<polygon fill="midnightblue" stroke="midnightblue" points="175.86,-130.55 186.05,-133.47 179.91,-124.84 175.86,-130.55"/>
</g>
<!-- Node9&#45;&gt;Node3 -->
<g id="edge14" class="edge">
<title>Node9&#45;&gt;Node3</title>
<path fill="none" stroke="midnightblue" d="M131.05,-57.64C134.4,-60.52 137.95,-63.77 141,-67 158.4,-85.41 175.78,-108.78 187.02,-124.71"/>
<polygon fill="midnightblue" stroke="midnightblue" points="184.3,-126.93 192.88,-133.14 190.04,-122.93 184.3,-126.93"/>
</g>
<!-- Node10&#45;&gt;Node3 -->
<g id="edge16" class="edge">
<title>Node10&#45;&gt;Node3</title>
<path fill="none" stroke="midnightblue" d="M131.9,-19.69C135.11,-22.48 138.38,-25.67 141,-29 164.61,-59.03 182.86,-100.06 192.33,-123.83"/>
<polygon fill="midnightblue" stroke="midnightblue" points="189.17,-125.37 196.04,-133.43 195.7,-122.84 189.17,-125.37"/>
</g>
</g>
</svg>
