<?xml version="1.0" encoding="UTF-8" standalone="no"?>
<!DOCTYPE svg PUBLIC "-//W3C//DTD SVG 1.1//EN"
 "http://www.w3.org/Graphics/SVG/1.1/DTD/svg11.dtd">
<!-- Generated by graphviz version 2.50.0 (20220203.2022)
 -->
<!-- Title: main Pages: 1 -->
<svg width="1012pt" height="522pt"
 viewBox="0.00 0.00 1012.00 522.00" xmlns="http://www.w3.org/2000/svg" xmlns:xlink="http://www.w3.org/1999/xlink">
<g id="graph0" class="graph" transform="scale(1 1) rotate(0) translate(4 518)">
<title>main</title>
<!-- Node1 -->
<g id="node1" class="node">
<title>Node1</title>
<g id="a_node1"><a xlink:title=" ">
<polygon fill="#bfbfbf" stroke="black" points="0,-133.5 0,-152.5 38,-152.5 38,-133.5 0,-133.5"/>
<text text-anchor="middle" x="19" y="-140.5" font-family="Helvetica,sans-Serif" font-size="10.00">main</text>
</a>
</g>
</g>
<!-- Node2 -->
<g id="node2" class="node">
<title>Node2</title>
<g id="a_node2"><a xlink:href="x86_2qemu_2mpe_8c.html#a2e4a724e2d067425ff3fd49bc0bf42e1" target="_top" xlink:title=" ">
<polygon fill="none" stroke="black" points="74,-133.5 74,-152.5 127,-152.5 127,-133.5 74,-133.5"/>
<text text-anchor="middle" x="100.5" y="-140.5" font-family="Helvetica,sans-Serif" font-size="10.00">mpe_init</text>
</a>
</g>
</g>
<!-- Node1&#45;&gt;Node2 -->
<g id="edge1" class="edge">
<title>Node1&#45;&gt;Node2</title>
<path fill="none" stroke="midnightblue" d="M38.04,-143C45.68,-143 54.86,-143 63.77,-143"/>
<polygon fill="midnightblue" stroke="midnightblue" points="64,-146.5 74,-143 64,-139.5 64,-146.5"/>
</g>
<!-- Node3 -->
<g id="node3" class="node">
<title>Node3</title>
<g id="a_node3"><a xlink:href="native_2cte_8c.html#a324dd5bf3445b32ffc8ce5e6c0f33aa5" target="_top" xlink:title=" ">
<polygon fill="none" stroke="black" points="163,-399.5 163,-418.5 264,-418.5 264,-399.5 163,-399.5"/>
<text text-anchor="middle" x="213.5" y="-406.5" font-family="Helvetica,sans-Serif" font-size="10.00">__am_init_timer_irq</text>
</a>
</g>
</g>
<!-- Node2&#45;&gt;Node3 -->
<g id="edge2" class="edge">
<title>Node2&#45;&gt;Node3</title>
<path fill="none" stroke="midnightblue" d="M103.71,-152.83C110.35,-181.53 131.65,-267.29 163,-333 172.99,-353.95 187.89,-375.97 198.73,-390.88"/>
<polygon fill="midnightblue" stroke="midnightblue" points="196.11,-393.23 204.88,-399.18 201.74,-389.06 196.11,-393.23"/>
</g>
<!-- Node5 -->
<g id="node5" class="node">
<title>Node5</title>
<g id="a_node5"><a xlink:href="native_2ioe_8c.html#a85e8849eae1811aa4fa0527476f39782" target="_top" xlink:title=" ">
<polygon fill="none" stroke="black" points="175,-304.5 175,-323.5 252,-323.5 252,-304.5 175,-304.5"/>
<text text-anchor="middle" x="213.5" y="-311.5" font-family="Helvetica,sans-Serif" font-size="10.00">__am_ioe_init</text>
</a>
</g>
</g>
<!-- Node2&#45;&gt;Node5 -->
<g id="edge4" class="edge">
<title>Node2&#45;&gt;Node5</title>
<path fill="none" stroke="midnightblue" d="M107.79,-152.68C125.72,-180.31 177.34,-259.84 200.73,-295.87"/>
<polygon fill="midnightblue" stroke="midnightblue" points="197.9,-297.94 206.28,-304.42 203.77,-294.13 197.9,-297.94"/>
</g>
<!-- Node17 -->
<g id="node17" class="node">
<title>Node17</title>
<g id="a_node17"><a xlink:href="x86_2qemu_2ioe_8c.html#a88a238fee7cd006afa69ea97e4914a09" target="_top" xlink:title=" ">
<polygon fill="none" stroke="black" points="823,-190.5 823,-209.5 924,-209.5 924,-190.5 823,-190.5"/>
<text text-anchor="middle" x="873.5" y="-197.5" font-family="Helvetica,sans-Serif" font-size="10.00">__am_lapic_bootap</text>
</a>
</g>
</g>
<!-- Node2&#45;&gt;Node17 -->
<g id="edge29" class="edge">
<title>Node2&#45;&gt;Node17</title>
<path fill="none" stroke="midnightblue" d="M119.89,-152.51C131.88,-158.35 148.03,-165.54 163,-170 240.52,-193.1 261.62,-200 342.5,-200 342.5,-200 342.5,-200 586.5,-200 664.72,-200 754.98,-200 812.84,-200"/>
<polygon fill="midnightblue" stroke="midnightblue" points="812.9,-203.5 822.9,-200 812.9,-196.5 812.9,-203.5"/>
</g>
<!-- Node20 -->
<g id="node20" class="node">
<title>Node20</title>
<g id="a_node20"><a xlink:href="x86_8h.html#adfa01b89ceed9e7a87f185f4e441aa16" target="_top" xlink:title=" ">
<polygon fill="none" stroke="black" points="839.5,-152.5 839.5,-171.5 907.5,-171.5 907.5,-152.5 839.5,-152.5"/>
<text text-anchor="middle" x="873.5" y="-159.5" font-family="Helvetica,sans-Serif" font-size="10.00">boot_record</text>
</a>
</g>
</g>
<!-- Node2&#45;&gt;Node20 -->
<g id="edge30" class="edge">
<title>Node2&#45;&gt;Node20</title>
<path fill="none" stroke="midnightblue" d="M127.13,-146.35C171.1,-151.81 263.81,-162 342.5,-162 342.5,-162 342.5,-162 586.5,-162 672.56,-162 773.19,-162 829.21,-162"/>
<polygon fill="midnightblue" stroke="midnightblue" points="829.47,-165.5 839.47,-162 829.47,-158.5 829.47,-165.5"/>
</g>
<!-- Node30 -->
<g id="node30" class="node">
<title>Node30</title>
<g id="a_node30"><a xlink:href="x86_2qemu_2mpe_8c.html#afc800fc7438b6762f113c46d25cab75b" target="_top" xlink:title=" ">
<polygon fill="none" stroke="black" points="172.5,-114.5 172.5,-133.5 254.5,-133.5 254.5,-114.5 172.5,-114.5"/>
<text text-anchor="middle" x="213.5" y="-121.5" font-family="Helvetica,sans-Serif" font-size="10.00">call_user_entry</text>
</a>
</g>
</g>
<!-- Node2&#45;&gt;Node30 -->
<g id="edge31" class="edge">
<title>Node2&#45;&gt;Node30</title>
<path fill="none" stroke="midnightblue" d="M127.24,-138.59C137.65,-136.81 150.04,-134.69 162.11,-132.63"/>
<polygon fill="midnightblue" stroke="midnightblue" points="162.85,-136.05 172.11,-130.91 161.67,-129.15 162.85,-136.05"/>
</g>
<!-- Node31 -->
<g id="node31" class="node">
<title>Node31</title>
<g id="a_node31"><a xlink:href="native_2mpe_8c.html#af486ec575d47720d28eee63644206110" target="_top" xlink:title=" ">
<polygon fill="none" stroke="black" points="182.5,-76.5 182.5,-95.5 244.5,-95.5 244.5,-76.5 182.5,-76.5"/>
<text text-anchor="middle" x="213.5" y="-83.5" font-family="Helvetica,sans-Serif" font-size="10.00">cpu_count</text>
</a>
</g>
</g>
<!-- Node2&#45;&gt;Node31 -->
<g id="edge32" class="edge">
<title>Node2&#45;&gt;Node31</title>
<path fill="none" stroke="midnightblue" d="M115.24,-133.47C127.43,-125.28 145.91,-113.47 163,-105 167.01,-103.02 171.27,-101.1 175.56,-99.3"/>
<polygon fill="midnightblue" stroke="midnightblue" points="176.9,-102.53 184.87,-95.56 174.29,-96.04 176.9,-102.53"/>
</g>
<!-- Node32 -->
<g id="node32" class="node">
<title>Node32</title>
<g id="a_node32"><a xlink:href="x86_8h.html#a2948382efa6ca2d9520fa9bb11a63ff9" target="_top" xlink:title=" ">
<polygon fill="none" stroke="black" points="192,-38.5 192,-57.5 235,-57.5 235,-38.5 192,-38.5"/>
<text text-anchor="middle" x="213.5" y="-45.5" font-family="Helvetica,sans-Serif" font-size="10.00">pause</text>
</a>
</g>
</g>
<!-- Node2&#45;&gt;Node32 -->
<g id="edge33" class="edge">
<title>Node2&#45;&gt;Node32</title>
<path fill="none" stroke="midnightblue" d="M106.9,-133.48C116.34,-117.61 137.32,-85.66 163,-67 168.7,-62.85 175.42,-59.49 182.04,-56.81"/>
<polygon fill="midnightblue" stroke="midnightblue" points="183.34,-60.06 191.54,-53.36 180.95,-53.48 183.34,-60.06"/>
</g>
<!-- Node33 -->
<g id="node33" class="node">
<title>Node33</title>
<g id="a_node33"><a xlink:href="x86_8h.html#a48b2a6a16dc8d7e09d327aa3803f1112" target="_top" xlink:title=" ">
<polygon fill="none" stroke="black" points="195,-0.5 195,-19.5 232,-19.5 232,-0.5 195,-0.5"/>
<text text-anchor="middle" x="213.5" y="-7.5" font-family="Helvetica,sans-Serif" font-size="10.00">xchg</text>
</a>
</g>
</g>
<!-- Node2&#45;&gt;Node33 -->
<g id="edge34" class="edge">
<title>Node2&#45;&gt;Node33</title>
<path fill="none" stroke="midnightblue" d="M104.19,-133.28C110.69,-111.57 129.22,-58.7 163,-29 169.32,-23.44 177.44,-19.43 185.26,-16.57"/>
<polygon fill="midnightblue" stroke="midnightblue" points="186.38,-19.89 194.86,-13.53 184.27,-13.21 186.38,-19.89"/>
</g>
<!-- Node4 -->
<g id="node4" class="node">
<title>Node4</title>
<g id="a_node4"><a xlink:href="native_2cte_8c.html#a4a139958742786c5085172be1f69bfd0" target="_top" xlink:title=" ">
<polygon fill="none" stroke="black" points="327.5,-456.5 327.5,-475.5 359.5,-475.5 359.5,-456.5 327.5,-456.5"/>
<text text-anchor="middle" x="343.5" y="-463.5" font-family="Helvetica,sans-Serif" font-size="10.00">iset</text>
</a>
</g>
</g>
<!-- Node3&#45;&gt;Node4 -->
<g id="edge3" class="edge">
<title>Node3&#45;&gt;Node4</title>
<path fill="none" stroke="midnightblue" d="M235.92,-418.54C258.59,-428.63 294.3,-444.54 318.05,-455.11"/>
<polygon fill="midnightblue" stroke="midnightblue" points="316.87,-458.42 327.43,-459.29 319.72,-452.02 316.87,-458.42"/>
</g>
<!-- Node6 -->
<g id="node6" class="node">
<title>Node6</title>
<g id="a_node6"><a xlink:href="audio_8c.html#aeafbbf0a74478c9fbf1d6bb3e0d359d0" target="_top" xlink:title=" ">
<polygon fill="none" stroke="black" points="300,-304.5 300,-323.5 387,-323.5 387,-304.5 300,-304.5"/>
<text text-anchor="middle" x="343.5" y="-311.5" font-family="Helvetica,sans-Serif" font-size="10.00">__am_audio_init</text>
</a>
</g>
</g>
<!-- Node5&#45;&gt;Node6 -->
<g id="edge5" class="edge">
<title>Node5&#45;&gt;Node6</title>
<path fill="none" stroke="midnightblue" d="M252.21,-314C263.85,-314 276.89,-314 289.36,-314"/>
<polygon fill="midnightblue" stroke="midnightblue" points="289.67,-317.5 299.67,-314 289.67,-310.5 289.67,-317.5"/>
</g>
<!-- Node7 -->
<g id="node7" class="node">
<title>Node7</title>
<g id="a_node7"><a xlink:href="disk_8c.html#a85a821a1956812f3ed4b2ac56f17a3a9" target="_top" xlink:title=" ">
<polygon fill="none" stroke="black" points="302.5,-266.5 302.5,-285.5 384.5,-285.5 384.5,-266.5 302.5,-266.5"/>
<text text-anchor="middle" x="343.5" y="-273.5" font-family="Helvetica,sans-Serif" font-size="10.00">__am_disk_init</text>
</a>
</g>
</g>
<!-- Node5&#45;&gt;Node7 -->
<g id="edge6" class="edge">
<title>Node5&#45;&gt;Node7</title>
<path fill="none" stroke="midnightblue" d="M246.8,-304.41C263.02,-299.6 282.88,-293.7 300.29,-288.53"/>
<polygon fill="midnightblue" stroke="midnightblue" points="301.62,-291.79 310.21,-285.59 299.63,-285.08 301.62,-291.79"/>
</g>
<!-- Node8 -->
<g id="node8" class="node">
<title>Node8</title>
<g id="a_node8"><a xlink:href="gpu_8c.html#a374867a82bb68896aa79bea1f6d5eb2b" target="_top" xlink:title=" ">
<polygon fill="none" stroke="black" points="303.5,-228.5 303.5,-247.5 383.5,-247.5 383.5,-228.5 303.5,-228.5"/>
<text text-anchor="middle" x="343.5" y="-235.5" font-family="Helvetica,sans-Serif" font-size="10.00">__am_gpu_init</text>
</a>
</g>
</g>
<!-- Node5&#45;&gt;Node8 -->
<g id="edge7" class="edge">
<title>Node5&#45;&gt;Node8</title>
<path fill="none" stroke="midnightblue" d="M227.4,-304.4C243.77,-292.46 273.13,-271.82 300,-257 303.23,-255.22 306.67,-253.46 310.12,-251.79"/>
<polygon fill="midnightblue" stroke="midnightblue" points="311.62,-254.95 319.22,-247.57 308.67,-248.6 311.62,-254.95"/>
</g>
<!-- Node10 -->
<g id="node10" class="node">
<title>Node10</title>
<g id="a_node10"><a xlink:href="input_8c.html#a02d166c8d2549e580fd16379de9e80f1" target="_top" xlink:title=" ">
<polygon fill="none" stroke="black" points="301,-418.5 301,-437.5 386,-437.5 386,-418.5 301,-418.5"/>
<text text-anchor="middle" x="343.5" y="-425.5" font-family="Helvetica,sans-Serif" font-size="10.00">__am_input_init</text>
</a>
</g>
</g>
<!-- Node5&#45;&gt;Node10 -->
<g id="edge9" class="edge">
<title>Node5&#45;&gt;Node10</title>
<path fill="none" stroke="midnightblue" d="M220.99,-323.56C234.04,-342.17 265.2,-383.67 300,-409 302.33,-410.69 304.83,-412.29 307.42,-413.77"/>
<polygon fill="midnightblue" stroke="midnightblue" points="305.89,-416.92 316.38,-418.39 309.1,-410.7 305.89,-416.92"/>
</g>
<!-- Node28 -->
<g id="node28" class="node">
<title>Node28</title>
<g id="a_node28"><a xlink:href="timer_8c.html#a6fcdcd5b43b132b68a427c217be894b0" target="_top" xlink:title=" ">
<polygon fill="none" stroke="black" points="300.5,-380.5 300.5,-399.5 386.5,-399.5 386.5,-380.5 300.5,-380.5"/>
<text text-anchor="middle" x="343.5" y="-387.5" font-family="Helvetica,sans-Serif" font-size="10.00">__am_timer_init</text>
</a>
</g>
</g>
<!-- Node5&#45;&gt;Node28 -->
<g id="edge27" class="edge">
<title>Node5&#45;&gt;Node28</title>
<path fill="none" stroke="midnightblue" d="M227.4,-323.6C243.77,-335.54 273.13,-356.18 300,-371 303.23,-372.78 306.67,-374.54 310.12,-376.21"/>
<polygon fill="midnightblue" stroke="midnightblue" points="308.67,-379.4 319.22,-380.43 311.62,-373.05 308.67,-379.4"/>
</g>
<!-- Node29 -->
<g id="node29" class="node">
<title>Node29</title>
<g id="a_node29"><a xlink:href="native_2ioe_8c.html#a6ade281e99f1f270ffeebb9d82416221" target="_top" xlink:title=" ">
<polygon fill="none" stroke="black" points="329,-342.5 329,-361.5 358,-361.5 358,-342.5 329,-342.5"/>
<text text-anchor="middle" x="343.5" y="-349.5" font-family="Helvetica,sans-Serif" font-size="10.00">fail</text>
</a>
</g>
</g>
<!-- Node5&#45;&gt;Node29 -->
<g id="edge28" class="edge">
<title>Node5&#45;&gt;Node29</title>
<path fill="none" stroke="midnightblue" d="M246.8,-323.59C269.38,-330.29 299,-339.09 319.27,-345.1"/>
<polygon fill="midnightblue" stroke="midnightblue" points="318.35,-348.48 328.93,-347.97 320.34,-341.77 318.35,-348.48"/>
</g>
<!-- Node9 -->
<g id="node9" class="node">
<title>Node9</title>
<g id="a_node9"><a xlink:href="gpu_8c.html#a8671032d771362f684c8ee31cad0ed02" target="_top" xlink:title=" ">
<polygon fill="none" stroke="black" points="424,-228.5 424,-247.5 495,-247.5 495,-228.5 424,-228.5"/>
<text text-anchor="middle" x="459.5" y="-235.5" font-family="Helvetica,sans-Serif" font-size="10.00">texture_sync</text>
</a>
</g>
</g>
<!-- Node8&#45;&gt;Node9 -->
<g id="edge8" class="edge">
<title>Node8&#45;&gt;Node9</title>
<path fill="none" stroke="midnightblue" d="M383.73,-238C393.39,-238 403.8,-238 413.7,-238"/>
<polygon fill="midnightblue" stroke="midnightblue" points="413.77,-241.5 423.77,-238 413.77,-234.5 413.77,-241.5"/>
</g>
<!-- Node11 -->
<g id="node11" class="node">
<title>Node11</title>
<g id="a_node11"><a xlink:href="input_8c.html#a77413c19d2c314aba317257b3cafb1c7" target="_top" xlink:title=" ">
<polygon fill="none" stroke="black" points="423,-418.5 423,-437.5 496,-437.5 496,-418.5 423,-418.5"/>
<text text-anchor="middle" x="459.5" y="-425.5" font-family="Helvetica,sans-Serif" font-size="10.00">event_thread</text>
</a>
</g>
</g>
<!-- Node10&#45;&gt;Node11 -->
<g id="edge10" class="edge">
<title>Node10&#45;&gt;Node11</title>
<path fill="none" stroke="midnightblue" d="M386.3,-428C394.89,-428 403.97,-428 412.69,-428"/>
<polygon fill="midnightblue" stroke="midnightblue" points="412.71,-431.5 422.71,-428 412.71,-424.5 412.71,-431.5"/>
</g>
<!-- Node12 -->
<g id="node12" class="node">
<title>Node12</title>
<g id="a_node12"><a xlink:href="platform_8c.html#ac9a72275bbb5c5a92fdd21dfb051b5d4" target="_top" xlink:title=" ">
<polygon fill="none" stroke="black" points="532,-418.5 532,-437.5 639,-437.5 639,-418.5 532,-418.5"/>
<text text-anchor="middle" x="585.5" y="-425.5" font-family="Helvetica,sans-Serif" font-size="10.00">__am_send_kbd_intr</text>
</a>
</g>
</g>
<!-- Node11&#45;&gt;Node12 -->
<g id="edge11" class="edge">
<title>Node11&#45;&gt;Node12</title>
<path fill="none" stroke="midnightblue" d="M496.03,-428C504.06,-428 512.81,-428 521.59,-428"/>
<polygon fill="midnightblue" stroke="midnightblue" points="521.86,-431.5 531.86,-428 521.86,-424.5 521.86,-431.5"/>
</g>
<!-- Node13 -->
<g id="node13" class="node">
<title>Node13</title>
<g id="a_node13"><a xlink:href="x86_2qemu_2trm_8c.html#a483cb97188e557c3c68d3a1572c2cc92" target="_top" xlink:title=" ">
<polygon fill="none" stroke="black" points="569.5,-380.5 569.5,-399.5 601.5,-399.5 601.5,-380.5 569.5,-380.5"/>
<text text-anchor="middle" x="585.5" y="-387.5" font-family="Helvetica,sans-Serif" font-size="10.00">halt</text>
</a>
</g>
</g>
<!-- Node11&#45;&gt;Node13 -->
<g id="edge12" class="edge">
<title>Node11&#45;&gt;Node13</title>
<path fill="none" stroke="midnightblue" d="M491.79,-418.41C512.83,-411.96 540.19,-403.58 559.72,-397.59"/>
<polygon fill="midnightblue" stroke="midnightblue" points="560.88,-400.9 569.41,-394.62 558.82,-394.21 560.88,-400.9"/>
</g>
<!-- Node14 -->
<g id="node14" class="node">
<title>Node14</title>
<g id="a_node14"><a xlink:href="platform_8c.html#a66cf43dfc7e13b3775d6d2040722da59" target="_top" xlink:title=" ">
<polygon fill="none" stroke="black" points="680.5,-266.5 680.5,-285.5 781.5,-285.5 781.5,-266.5 680.5,-266.5"/>
<text text-anchor="middle" x="731" y="-273.5" font-family="Helvetica,sans-Serif" font-size="10.00">__am_exit_platform</text>
</a>
</g>
</g>
<!-- Node13&#45;&gt;Node14 -->
<g id="edge13" class="edge">
<title>Node13&#45;&gt;Node14</title>
<path fill="none" stroke="midnightblue" d="M592.9,-380.47C606.09,-361.54 638.15,-318.97 675,-295 678.1,-292.98 681.45,-291.15 684.9,-289.5"/>
<polygon fill="midnightblue" stroke="midnightblue" points="686.37,-292.67 694.19,-285.52 683.62,-286.24 686.37,-292.67"/>
</g>
<!-- Node16 -->
<g id="node16" class="node">
<title>Node16</title>
<g id="a_node16"><a xlink:href="x86_2qemu_2mpe_8c.html#a0a540532023afb1f31b6f21ce053483b" target="_top" xlink:title=" ">
<polygon fill="none" stroke="black" points="675,-228.5 675,-247.5 787,-247.5 787,-228.5 675,-228.5"/>
<text text-anchor="middle" x="731" y="-235.5" font-family="Helvetica,sans-Serif" font-size="10.00">__am_stop_the_world</text>
</a>
</g>
</g>
<!-- Node13&#45;&gt;Node16 -->
<g id="edge15" class="edge">
<title>Node13&#45;&gt;Node16</title>
<path fill="none" stroke="midnightblue" d="M590.28,-380.41C600.33,-356.14 630.02,-291.78 675,-257 677.32,-255.2 679.83,-253.57 682.44,-252.09"/>
<polygon fill="midnightblue" stroke="midnightblue" points="684.2,-255.12 691.65,-247.6 681.13,-248.83 684.2,-255.12"/>
</g>
<!-- Node22 -->
<g id="node22" class="node">
<title>Node22</title>
<g id="a_node22"><a xlink:href="x86_8h.html#acc919e7809ef1db2b20aa3804f540b5c" target="_top" xlink:title=" ">
<polygon fill="none" stroke="black" points="716.5,-494.5 716.5,-513.5 745.5,-513.5 745.5,-494.5 716.5,-494.5"/>
<text text-anchor="middle" x="731" y="-501.5" font-family="Helvetica,sans-Serif" font-size="10.00">cli</text>
</a>
</g>
</g>
<!-- Node13&#45;&gt;Node22 -->
<g id="edge21" class="edge">
<title>Node13&#45;&gt;Node22</title>
<path fill="none" stroke="midnightblue" d="M601.92,-392.34C613.35,-394.77 628.67,-399.61 639,-409 666.66,-434.14 647.16,-460.06 675,-485 683.69,-492.79 695.74,-497.41 706.34,-500.15"/>
<polygon fill="midnightblue" stroke="midnightblue" points="705.77,-503.61 716.28,-502.3 707.25,-496.76 705.77,-503.61"/>
</g>
<!-- Node23 -->
<g id="node23" class="node">
<title>Node23</title>
<g id="a_node23"><a xlink:href="x86_2qemu_2mpe_8c.html#ab701de78cad32896c923ce900087e714" target="_top" xlink:title=" ">
<polygon fill="none" stroke="black" points="697,-456.5 697,-475.5 765,-475.5 765,-456.5 697,-456.5"/>
<text text-anchor="middle" x="731" y="-463.5" font-family="Helvetica,sans-Serif" font-size="10.00">cpu_current</text>
</a>
</g>
</g>
<!-- Node13&#45;&gt;Node23 -->
<g id="edge22" class="edge">
<title>Node13&#45;&gt;Node23</title>
<path fill="none" stroke="midnightblue" d="M601.61,-393.46C612.59,-396.44 627.49,-401.46 639,-409 658.46,-421.75 655.45,-434.4 675,-447 678.83,-449.47 683.02,-451.66 687.32,-453.59"/>
<polygon fill="midnightblue" stroke="midnightblue" points="686.23,-456.92 696.81,-457.41 688.84,-450.43 686.23,-456.92"/>
</g>
<!-- Node24 -->
<g id="node24" class="node">
<title>Node24</title>
<g id="a_node24"><a xlink:href="x86_8h.html#a2adfe40c0aadff727889d263815cb8ed" target="_top" xlink:title=" ">
<polygon fill="none" stroke="black" points="716.5,-418.5 716.5,-437.5 745.5,-437.5 745.5,-418.5 716.5,-418.5"/>
<text text-anchor="middle" x="731" y="-425.5" font-family="Helvetica,sans-Serif" font-size="10.00">hlt</text>
</a>
</g>
</g>
<!-- Node13&#45;&gt;Node24 -->
<g id="edge23" class="edge">
<title>Node13&#45;&gt;Node24</title>
<path fill="none" stroke="midnightblue" d="M601.59,-393.99C626.58,-400.61 676.76,-413.9 706.45,-421.76"/>
<polygon fill="midnightblue" stroke="midnightblue" points="705.82,-425.22 716.38,-424.39 707.61,-418.45 705.82,-425.22"/>
</g>
<!-- Node25 -->
<g id="node25" class="node">
<title>Node25</title>
<g id="a_node25"><a xlink:href="x86_8h.html#af92fc55c49437b9152499a13ba2b6585" target="_top" xlink:title=" ">
<polygon fill="none" stroke="black" points="712,-380.5 712,-399.5 750,-399.5 750,-380.5 712,-380.5"/>
<text text-anchor="middle" x="731" y="-387.5" font-family="Helvetica,sans-Serif" font-size="10.00">outw</text>
</a>
</g>
</g>
<!-- Node13&#45;&gt;Node25 -->
<g id="edge24" class="edge">
<title>Node13&#45;&gt;Node25</title>
<path fill="none" stroke="midnightblue" d="M601.59,-390C625.3,-390 671.68,-390 701.73,-390"/>
<polygon fill="midnightblue" stroke="midnightblue" points="701.99,-393.5 711.99,-390 701.99,-386.5 701.99,-393.5"/>
</g>
<!-- Node26 -->
<g id="node26" class="node">
<title>Node26</title>
<g id="a_node26"><a xlink:href="stdio_8c.html#a55f3d956bb2ba20b5059e9e25484a47f" target="_top" xlink:title=" ">
<polygon fill="none" stroke="black" points="712,-342.5 712,-361.5 750,-361.5 750,-342.5 712,-342.5"/>
<text text-anchor="middle" x="731" y="-349.5" font-family="Helvetica,sans-Serif" font-size="10.00">printf</text>
</a>
</g>
</g>
<!-- Node13&#45;&gt;Node26 -->
<g id="edge25" class="edge">
<title>Node13&#45;&gt;Node26</title>
<path fill="none" stroke="midnightblue" d="M601.59,-386.01C625.4,-379.7 672.09,-367.34 702.13,-359.38"/>
<polygon fill="midnightblue" stroke="midnightblue" points="703.22,-362.71 711.99,-356.77 701.43,-355.95 703.22,-362.71"/>
</g>
<!-- Node27 -->
<g id="node27" class="node">
<title>Node27</title>
<g id="a_node27"><a xlink:href="native_2trm_8c.html#a6351d8706733262e7e325926b1a9aab7" target="_top" xlink:title=" ">
<polygon fill="none" stroke="black" points="710.5,-304.5 710.5,-323.5 751.5,-323.5 751.5,-304.5 710.5,-304.5"/>
<text text-anchor="middle" x="731" y="-311.5" font-family="Helvetica,sans-Serif" font-size="10.00">putch</text>
</a>
</g>
</g>
<!-- Node13&#45;&gt;Node27 -->
<g id="edge26" class="edge">
<title>Node13&#45;&gt;Node27</title>
<path fill="none" stroke="midnightblue" d="M599.12,-380.48C615.79,-368.24 646.4,-346.9 675,-333 683.16,-329.03 692.37,-325.51 700.88,-322.61"/>
<polygon fill="midnightblue" stroke="midnightblue" points="702.03,-325.92 710.46,-319.5 699.86,-319.26 702.03,-325.92"/>
</g>
<!-- Node15 -->
<g id="node15" class="node">
<title>Node15</title>
<g id="a_node15"><a xlink:href="x86_2qemu_2mpe_8c.html#af486ec575d47720d28eee63644206110" target="_top" xlink:title=" ">
<polygon fill="none" stroke="black" points="842.5,-266.5 842.5,-285.5 904.5,-285.5 904.5,-266.5 842.5,-266.5"/>
<text text-anchor="middle" x="873.5" y="-273.5" font-family="Helvetica,sans-Serif" font-size="10.00">cpu_count</text>
</a>
</g>
</g>
<!-- Node14&#45;&gt;Node15 -->
<g id="edge14" class="edge">
<title>Node14&#45;&gt;Node15</title>
<path fill="none" stroke="midnightblue" d="M781.54,-276C797.97,-276 816.06,-276 831.76,-276"/>
<polygon fill="midnightblue" stroke="midnightblue" points="832.19,-279.5 842.19,-276 832.19,-272.5 832.19,-279.5"/>
</g>
<!-- Node16&#45;&gt;Node17 -->
<g id="edge16" class="edge">
<title>Node16&#45;&gt;Node17</title>
<path fill="none" stroke="midnightblue" d="M767.45,-228.41C785.59,-223.51 807.87,-217.48 827.23,-212.24"/>
<polygon fill="midnightblue" stroke="midnightblue" points="828.32,-215.58 837.06,-209.59 826.49,-208.82 828.32,-215.58"/>
</g>
<!-- Node16&#45;&gt;Node20 -->
<g id="edge19" class="edge">
<title>Node16&#45;&gt;Node20</title>
<path fill="none" stroke="midnightblue" d="M745.39,-228.45C762.73,-216.37 794.15,-195.41 823,-181 827,-179 831.26,-177.08 835.55,-175.28"/>
<polygon fill="midnightblue" stroke="midnightblue" points="836.89,-178.51 844.86,-171.53 834.28,-172.01 836.89,-178.51"/>
</g>
<!-- Node21 -->
<g id="node21" class="node">
<title>Node21</title>
<g id="a_node21"><a xlink:href="native_2mpe_8c.html#a806195bfb27a695274680a7ab6400663" target="_top" xlink:title=" ">
<polygon fill="none" stroke="black" points="839.5,-228.5 839.5,-247.5 907.5,-247.5 907.5,-228.5 839.5,-228.5"/>
<text text-anchor="middle" x="873.5" y="-235.5" font-family="Helvetica,sans-Serif" font-size="10.00">cpu_current</text>
</a>
</g>
</g>
<!-- Node16&#45;&gt;Node21 -->
<g id="edge20" class="edge">
<title>Node16&#45;&gt;Node21</title>
<path fill="none" stroke="midnightblue" d="M787.13,-238C801.08,-238 815.87,-238 829.14,-238"/>
<polygon fill="midnightblue" stroke="midnightblue" points="829.42,-241.5 839.42,-238 829.42,-234.5 829.42,-241.5"/>
</g>
<!-- Node18 -->
<g id="node18" class="node">
<title>Node18</title>
<g id="a_node18"><a xlink:href="x86_2qemu_2ioe_8c.html#a72d9ed0bfe1066367763e044b7a7b7c3" target="_top" xlink:title=" ">
<polygon fill="none" stroke="black" points="960,-209.5 960,-228.5 1004,-228.5 1004,-209.5 960,-209.5"/>
<text text-anchor="middle" x="982" y="-216.5" font-family="Helvetica,sans-Serif" font-size="10.00">lapicw</text>
</a>
</g>
</g>
<!-- Node17&#45;&gt;Node18 -->
<g id="edge17" class="edge">
<title>Node17&#45;&gt;Node18</title>
<path fill="none" stroke="midnightblue" d="M924.01,-208.83C932.77,-210.4 941.67,-211.98 949.75,-213.42"/>
<polygon fill="midnightblue" stroke="midnightblue" points="949.36,-216.91 959.82,-215.22 950.59,-210.02 949.36,-216.91"/>
</g>
<!-- Node19 -->
<g id="node19" class="node">
<title>Node19</title>
<g id="a_node19"><a xlink:href="x86_8h.html#ade961b44e45ddacbc3c3b7609cf36dc6" target="_top" xlink:title=" ">
<polygon fill="none" stroke="black" points="964.5,-171.5 964.5,-190.5 999.5,-190.5 999.5,-171.5 964.5,-171.5"/>
<text text-anchor="middle" x="982" y="-178.5" font-family="Helvetica,sans-Serif" font-size="10.00">outb</text>
</a>
</g>
</g>
<!-- Node17&#45;&gt;Node19 -->
<g id="edge18" class="edge">
<title>Node17&#45;&gt;Node19</title>
<path fill="none" stroke="midnightblue" d="M924.01,-191.17C934.47,-189.3 945.13,-187.4 954.35,-185.75"/>
<polygon fill="midnightblue" stroke="midnightblue" points="955.2,-189.16 964.43,-183.96 953.97,-182.27 955.2,-189.16"/>
</g>
</g>
</svg>
