<?xml version="1.0" encoding="UTF-8" standalone="no"?>
<!DOCTYPE svg PUBLIC "-//W3C//DTD SVG 1.1//EN"
 "http://www.w3.org/Graphics/SVG/1.1/DTD/svg11.dtd">
<!-- Generated by graphviz version 3.0.0 (20220413.0106)
 -->
<!-- Title: kernel/framework/kernel.h Pages: 1 -->
<svg width="804pt" height="375pt"
 viewBox="0.00 0.00 804.39 375.00" xmlns="http://www.w3.org/2000/svg" xmlns:xlink="http://www.w3.org/1999/xlink">
<g id="graph0" class="graph" transform="scale(1 1) rotate(0) translate(4 371)">
<title>kernel/framework/kernel.h</title>
<!-- Node1 -->
<g id="node1" class="node">
<title>Node1</title>
<g id="a_node1"><a xlink:title=" ">
<polygon fill="#bfbfbf" stroke="black" points="301.5,-347.5 301.5,-366.5 429.5,-366.5 429.5,-347.5 301.5,-347.5"/>
<text text-anchor="middle" x="365.5" y="-354.5" font-family="Helvetica,sans-Serif" font-size="10.00">kernel/framework/kernel.h</text>
</a>
</g>
</g>
<!-- Node2 -->
<g id="node2" class="node">
<title>Node2</title>
<g id="a_node2"><a xlink:href="main_8c.html" target="_top" xlink:title=" ">
<polygon fill="none" stroke="black" points="162,-291.5 162,-310.5 285,-310.5 285,-291.5 162,-291.5"/>
<text text-anchor="middle" x="223.5" y="-298.5" font-family="Helvetica,sans-Serif" font-size="10.00">kernel/framework/main.c</text>
</a>
</g>
</g>
<!-- Node1&#45;&gt;Node2 -->
<g id="edge1" class="edge">
<title>Node1&#45;&gt;Node2</title>
<path fill="none" stroke="midnightblue" d="M333.34,-343.77C306.67,-333.63 269.43,-319.47 245.9,-310.52"/>
<polygon fill="midnightblue" stroke="midnightblue" points="332.41,-347.16 343,-347.44 334.9,-340.62 332.41,-347.16"/>
</g>
<!-- Node3 -->
<g id="node3" class="node">
<title>Node3</title>
<g id="a_node3"><a xlink:href="common_8h.html" target="_top" xlink:title=" ">
<polygon fill="none" stroke="black" points="303,-291.5 303,-310.5 428,-310.5 428,-291.5 303,-291.5"/>
<text text-anchor="middle" x="365.5" y="-298.5" font-family="Helvetica,sans-Serif" font-size="10.00">kernel/include/common.h</text>
</a>
</g>
</g>
<!-- Node1&#45;&gt;Node3 -->
<g id="edge2" class="edge">
<title>Node1&#45;&gt;Node3</title>
<path fill="none" stroke="midnightblue" d="M365.5,-336.8C365.5,-327.91 365.5,-317.78 365.5,-310.75"/>
<polygon fill="midnightblue" stroke="midnightblue" points="362,-337.08 365.5,-347.08 369,-337.08 362,-337.08"/>
</g>
<!-- Node21 -->
<g id="node21" class="node">
<title>Node21</title>
<g id="a_node21"><a xlink:href="uproc_8c.html" target="_top" xlink:title=" ">
<polygon fill="none" stroke="black" points="446.5,-291.5 446.5,-310.5 540.5,-310.5 540.5,-291.5 446.5,-291.5"/>
<text text-anchor="middle" x="493.5" y="-298.5" font-family="Helvetica,sans-Serif" font-size="10.00">kernel/src/uproc.c</text>
</a>
</g>
</g>
<!-- Node1&#45;&gt;Node21 -->
<g id="edge33" class="edge">
<title>Node1&#45;&gt;Node21</title>
<path fill="none" stroke="midnightblue" d="M395.12,-343.5C419.12,-333.38 452.28,-319.39 473.31,-310.52"/>
<polygon fill="midnightblue" stroke="midnightblue" points="393.64,-340.33 385.78,-347.44 396.36,-346.78 393.64,-340.33"/>
</g>
<!-- Node4 -->
<g id="node4" class="node">
<title>Node4</title>
<g id="a_node4"><a xlink:href="buddy_8h.html" target="_top" xlink:title=" ">
<polygon fill="none" stroke="black" points="70,-235.5 70,-254.5 183,-254.5 183,-235.5 70,-235.5"/>
<text text-anchor="middle" x="126.5" y="-242.5" font-family="Helvetica,sans-Serif" font-size="10.00">kernel/include/buddy.h</text>
</a>
</g>
</g>
<!-- Node3&#45;&gt;Node4 -->
<g id="edge3" class="edge">
<title>Node3&#45;&gt;Node4</title>
<path fill="none" stroke="midnightblue" d="M317.78,-289.22C272.61,-279.01 205.73,-263.9 164.19,-254.52"/>
<polygon fill="midnightblue" stroke="midnightblue" points="317.1,-292.65 327.63,-291.44 318.65,-285.83 317.1,-292.65"/>
</g>
<!-- Node5 -->
<g id="node5" class="node">
<title>Node5</title>
<g id="a_node5"><a xlink:href="buddy_8c.html" target="_top" xlink:title="impl of buddy system">
<polygon fill="none" stroke="black" points="0,-179.5 0,-198.5 95,-198.5 95,-179.5 0,-179.5"/>
<text text-anchor="middle" x="47.5" y="-186.5" font-family="Helvetica,sans-Serif" font-size="10.00">kernel/src/buddy.c</text>
</a>
</g>
</g>
<!-- Node3&#45;&gt;Node5 -->
<g id="edge28" class="edge">
<title>Node3&#45;&gt;Node5</title>
<path fill="none" stroke="midnightblue" d="M292.66,-290.3C203.79,-278.31 64.71,-259.01 60.5,-255 44.98,-240.25 45.15,-212.62 46.4,-198.61"/>
<polygon fill="midnightblue" stroke="midnightblue" points="292.33,-293.79 302.7,-291.65 293.26,-286.85 292.33,-293.79"/>
</g>
<!-- Node6 -->
<g id="node6" class="node">
<title>Node6</title>
<g id="a_node6"><a xlink:href="pmm_8c.html" target="_top" xlink:title=" ">
<polygon fill="none" stroke="black" points="124.5,-179.5 124.5,-198.5 216.5,-198.5 216.5,-179.5 124.5,-179.5"/>
<text text-anchor="middle" x="170.5" y="-186.5" font-family="Helvetica,sans-Serif" font-size="10.00">kernel/src/pmm.c</text>
</a>
</g>
</g>
<!-- Node3&#45;&gt;Node6 -->
<g id="edge31" class="edge">
<title>Node3&#45;&gt;Node6</title>
<path fill="none" stroke="midnightblue" d="M316.68,-288.75C291.24,-281.53 260.34,-270.55 235.5,-255 210.61,-239.42 187.92,-212.66 177.13,-198.84"/>
<polygon fill="midnightblue" stroke="midnightblue" points="315.92,-292.18 326.49,-291.43 317.77,-285.42 315.92,-292.18"/>
</g>
<!-- Node7 -->
<g id="node7" class="node">
<title>Node7</title>
<g id="a_node7"><a xlink:href="devices_8h.html" target="_top" xlink:title=" ">
<polygon fill="none" stroke="black" points="265,-67.5 265,-86.5 386,-86.5 386,-67.5 265,-67.5"/>
<text text-anchor="middle" x="325.5" y="-74.5" font-family="Helvetica,sans-Serif" font-size="10.00">kernel/include/devices.h</text>
</a>
</g>
</g>
<!-- Node3&#45;&gt;Node7 -->
<g id="edge6" class="edge">
<title>Node3&#45;&gt;Node7</title>
<path fill="none" stroke="midnightblue" d="M360.9,-281.14C353.88,-251.77 340.47,-193.27 332.5,-143 329.34,-123.05 327.19,-99.42 326.17,-86.87"/>
<polygon fill="midnightblue" stroke="midnightblue" points="357.58,-282.31 363.33,-291.2 364.38,-280.66 357.58,-282.31"/>
</g>
<!-- Node13 -->
<g id="node13" class="node">
<title>Node13</title>
<g id="a_node13"><a xlink:href="sem_8h.html" target="_top" xlink:title=" ">
<polygon fill="none" stroke="black" points="372.5,-123.5 372.5,-142.5 478.5,-142.5 478.5,-123.5 372.5,-123.5"/>
<text text-anchor="middle" x="425.5" y="-130.5" font-family="Helvetica,sans-Serif" font-size="10.00">kernel/include/sem.h</text>
</a>
</g>
</g>
<!-- Node3&#45;&gt;Node13 -->
<g id="edge12" class="edge">
<title>Node3&#45;&gt;Node13</title>
<path fill="none" stroke="midnightblue" d="M362.92,-280.99C360.45,-256.14 359.17,-211.93 375.5,-179 383.28,-163.3 399.11,-150.55 410.88,-142.68"/>
<polygon fill="midnightblue" stroke="midnightblue" points="359.48,-281.69 364.12,-291.21 366.43,-280.87 359.48,-281.69"/>
</g>
<!-- Node14 -->
<g id="node14" class="node">
<title>Node14</title>
<g id="a_node14"><a xlink:href="kmt_8c.html" target="_top" xlink:title=" ">
<polygon fill="none" stroke="black" points="537.5,-67.5 537.5,-86.5 623.5,-86.5 623.5,-67.5 537.5,-67.5"/>
<text text-anchor="middle" x="580.5" y="-74.5" font-family="Helvetica,sans-Serif" font-size="10.00">kernel/src/kmt.c</text>
</a>
</g>
</g>
<!-- Node3&#45;&gt;Node14 -->
<g id="edge29" class="edge">
<title>Node3&#45;&gt;Node14</title>
<path fill="none" stroke="midnightblue" d="M438.17,-290.74C510.34,-281.19 615.79,-266.14 655.5,-255 718.04,-237.45 754.43,-253.02 790.5,-199 802.18,-181.5 794.1,-138.79 778.5,-123 757.2,-101.43 675.14,-88.53 623.58,-82.39"/>
<polygon fill="midnightblue" stroke="midnightblue" points="437.67,-287.28 428.21,-292.05 438.59,-294.22 437.67,-287.28"/>
</g>
<!-- Node16 -->
<g id="node16" class="node">
<title>Node16</title>
<g id="a_node16"><a xlink:href="spinlock_8h.html" target="_top" xlink:title=" ">
<polygon fill="none" stroke="black" points="383,-235.5 383,-254.5 506,-254.5 506,-235.5 383,-235.5"/>
<text text-anchor="middle" x="444.5" y="-242.5" font-family="Helvetica,sans-Serif" font-size="10.00">kernel/include/spinlock.h</text>
</a>
</g>
</g>
<!-- Node3&#45;&gt;Node16 -->
<g id="edge16" class="edge">
<title>Node3&#45;&gt;Node16</title>
<path fill="none" stroke="midnightblue" d="M386.53,-285.62C400.97,-275.76 419.64,-262.99 431.84,-254.65"/>
<polygon fill="midnightblue" stroke="midnightblue" points="384.47,-282.79 378.19,-291.32 388.42,-288.57 384.47,-282.79"/>
</g>
<!-- Node17 -->
<g id="node17" class="node">
<title>Node17</title>
<g id="a_node17"><a xlink:href="thread_8h.html" target="_top" xlink:title=" ">
<polygon fill="none" stroke="black" points="553.5,-179.5 553.5,-198.5 667.5,-198.5 667.5,-179.5 553.5,-179.5"/>
<text text-anchor="middle" x="610.5" y="-186.5" font-family="Helvetica,sans-Serif" font-size="10.00">kernel/include/thread.h</text>
</a>
</g>
</g>
<!-- Node3&#45;&gt;Node17 -->
<g id="edge27" class="edge">
<title>Node3&#45;&gt;Node17</title>
<path fill="none" stroke="midnightblue" d="M415.69,-289.07C445.53,-281.57 483.65,-270.22 515.5,-255 548.86,-239.06 583.62,-212.21 600.33,-198.55"/>
<polygon fill="midnightblue" stroke="midnightblue" points="414.79,-285.69 405.9,-291.47 416.45,-292.49 414.79,-285.69"/>
</g>
<!-- Node18 -->
<g id="node18" class="node">
<title>Node18</title>
<g id="a_node18"><a xlink:href="syscall_8c.html" target="_top" xlink:title=" ">
<polygon fill="none" stroke="black" points="669.5,-123.5 669.5,-142.5 769.5,-142.5 769.5,-123.5 669.5,-123.5"/>
<text text-anchor="middle" x="719.5" y="-130.5" font-family="Helvetica,sans-Serif" font-size="10.00">kernel/src/syscall.c</text>
</a>
</g>
</g>
<!-- Node3&#45;&gt;Node18 -->
<g id="edge32" class="edge">
<title>Node3&#45;&gt;Node18</title>
<path fill="none" stroke="midnightblue" d="M424.57,-289.67C532.73,-270.14 753.5,-227.26 774.5,-199 790.2,-177.88 757.47,-154.71 736.08,-142.54"/>
<polygon fill="midnightblue" stroke="midnightblue" points="423.69,-286.27 414.46,-291.48 424.92,-293.16 423.69,-286.27"/>
</g>
<!-- Node19 -->
<g id="node19" class="node">
<title>Node19</title>
<g id="a_node19"><a xlink:href="os_8c.html" target="_top" xlink:title=" ">
<polygon fill="none" stroke="black" points="685.5,-179.5 685.5,-198.5 765.5,-198.5 765.5,-179.5 685.5,-179.5"/>
<text text-anchor="middle" x="725.5" y="-186.5" font-family="Helvetica,sans-Serif" font-size="10.00">kernel/src/os.c</text>
</a>
</g>
</g>
<!-- Node3&#45;&gt;Node19 -->
<g id="edge30" class="edge">
<title>Node3&#45;&gt;Node19</title>
<path fill="none" stroke="midnightblue" d="M414.31,-289.21C450.73,-280.82 501.56,-268.39 545.5,-255 603.66,-237.28 670.65,-211.68 704.13,-198.52"/>
<polygon fill="midnightblue" stroke="midnightblue" points="413.4,-285.83 404.44,-291.47 414.96,-292.65 413.4,-285.83"/>
</g>
<!-- Node4&#45;&gt;Node5 -->
<g id="edge4" class="edge">
<title>Node4&#45;&gt;Node5</title>
<path fill="none" stroke="midnightblue" d="M105.47,-229.62C91.03,-219.76 72.36,-206.99 60.16,-198.65"/>
<polygon fill="midnightblue" stroke="midnightblue" points="103.58,-232.57 113.81,-235.32 107.53,-226.79 103.58,-232.57"/>
</g>
<!-- Node4&#45;&gt;Node6 -->
<g id="edge5" class="edge">
<title>Node4&#45;&gt;Node6</title>
<path fill="none" stroke="midnightblue" d="M140.23,-227.14C147.9,-217.74 157.13,-206.4 163.37,-198.75"/>
<polygon fill="midnightblue" stroke="midnightblue" points="137.37,-225.12 133.77,-235.08 142.8,-229.54 137.37,-225.12"/>
</g>
<!-- Node8 -->
<g id="node8" class="node">
<title>Node8</title>
<g id="a_node8"><a xlink:href="dev_8c.html" target="_top" xlink:title=" ">
<polygon fill="none" stroke="black" points="28.5,-6 28.5,-25 132.5,-25 132.5,-6 28.5,-6"/>
<text text-anchor="middle" x="80.5" y="-13" font-family="Helvetica,sans-Serif" font-size="10.00">kernel/src/dev/dev.c</text>
</a>
</g>
</g>
<!-- Node7&#45;&gt;Node8 -->
<g id="edge7" class="edge">
<title>Node7&#45;&gt;Node8</title>
<path fill="none" stroke="midnightblue" d="M280.67,-65.11C233.12,-53.57 158.99,-35.56 115.54,-25.01"/>
<polygon fill="midnightblue" stroke="midnightblue" points="279.85,-68.52 290.4,-67.48 281.51,-61.71 279.85,-68.52"/>
</g>
<!-- Node9 -->
<g id="node9" class="node">
<title>Node9</title>
<g id="a_node9"><a xlink:href="dev__input_8c.html" target="_top" xlink:title=" ">
<polygon fill="none" stroke="black" points="151,-0.5 151,-30.5 248,-30.5 248,-0.5 151,-0.5"/>
<text text-anchor="start" x="159" y="-18.5" font-family="Helvetica,sans-Serif" font-size="10.00">kernel/src/dev/dev</text>
<text text-anchor="middle" x="199.5" y="-7.5" font-family="Helvetica,sans-Serif" font-size="10.00">_input.c</text>
</a>
</g>
</g>
<!-- Node7&#45;&gt;Node9 -->
<g id="edge8" class="edge">
<title>Node7&#45;&gt;Node9</title>
<path fill="none" stroke="midnightblue" d="M298.39,-63.2C278.03,-53.58 250.16,-40.42 229.2,-30.52"/>
<polygon fill="midnightblue" stroke="midnightblue" points="296.91,-66.37 307.45,-67.48 299.9,-60.04 296.91,-66.37"/>
</g>
<!-- Node10 -->
<g id="node10" class="node">
<title>Node10</title>
<g id="a_node10"><a xlink:href="dev__sd_8c.html" target="_top" xlink:title=" ">
<polygon fill="none" stroke="black" points="265.5,-6 265.5,-25 385.5,-25 385.5,-6 265.5,-6"/>
<text text-anchor="middle" x="325.5" y="-13" font-family="Helvetica,sans-Serif" font-size="10.00">kernel/src/dev/dev_sd.c</text>
</a>
</g>
</g>
<!-- Node7&#45;&gt;Node10 -->
<g id="edge9" class="edge">
<title>Node7&#45;&gt;Node10</title>
<path fill="none" stroke="midnightblue" d="M325.5,-57.32C325.5,-46.5 325.5,-33.4 325.5,-25.01"/>
<polygon fill="midnightblue" stroke="midnightblue" points="322,-57.48 325.5,-67.48 329,-57.48 322,-57.48"/>
</g>
<!-- Node11 -->
<g id="node11" class="node">
<title>Node11</title>
<g id="a_node11"><a xlink:href="dev__tty_8c.html" target="_top" xlink:title=" ">
<polygon fill="none" stroke="black" points="403,-0.5 403,-30.5 500,-30.5 500,-0.5 403,-0.5"/>
<text text-anchor="start" x="411" y="-18.5" font-family="Helvetica,sans-Serif" font-size="10.00">kernel/src/dev/dev</text>
<text text-anchor="middle" x="451.5" y="-7.5" font-family="Helvetica,sans-Serif" font-size="10.00">_tty.c</text>
</a>
</g>
</g>
<!-- Node7&#45;&gt;Node11 -->
<g id="edge10" class="edge">
<title>Node7&#45;&gt;Node11</title>
<path fill="none" stroke="midnightblue" d="M352.61,-63.2C372.97,-53.58 400.84,-40.42 421.8,-30.52"/>
<polygon fill="midnightblue" stroke="midnightblue" points="351.1,-60.04 343.55,-67.48 354.09,-66.37 351.1,-60.04"/>
</g>
<!-- Node12 -->
<g id="node12" class="node">
<title>Node12</title>
<g id="a_node12"><a xlink:href="dev__video_8c.html" target="_top" xlink:title=" ">
<polygon fill="none" stroke="black" points="518,-0.5 518,-30.5 615,-30.5 615,-0.5 518,-0.5"/>
<text text-anchor="start" x="526" y="-18.5" font-family="Helvetica,sans-Serif" font-size="10.00">kernel/src/dev/dev</text>
<text text-anchor="middle" x="566.5" y="-7.5" font-family="Helvetica,sans-Serif" font-size="10.00">_video.c</text>
</a>
</g>
</g>
<!-- Node7&#45;&gt;Node12 -->
<g id="edge11" class="edge">
<title>Node7&#45;&gt;Node12</title>
<path fill="none" stroke="midnightblue" d="M370.84,-65.04C408.1,-55.99 462.25,-42.79 509.5,-31 512.27,-30.31 515.12,-29.59 518,-28.87"/>
<polygon fill="midnightblue" stroke="midnightblue" points="369.69,-61.71 360.8,-67.47 371.34,-68.51 369.69,-61.71"/>
</g>
<!-- Node13&#45;&gt;Node7 -->
<g id="edge13" class="edge">
<title>Node13&#45;&gt;Node7</title>
<path fill="none" stroke="midnightblue" d="M400.41,-118.45C381.95,-108.48 357.4,-95.23 341.53,-86.65"/>
<polygon fill="midnightblue" stroke="midnightblue" points="398.97,-121.65 409.43,-123.32 402.3,-115.49 398.97,-121.65"/>
</g>
<!-- Node13&#45;&gt;Node14 -->
<g id="edge14" class="edge">
<title>Node13&#45;&gt;Node14</title>
<path fill="none" stroke="midnightblue" d="M459.83,-120.04C489,-109.88 530.14,-95.55 556.05,-86.52"/>
<polygon fill="midnightblue" stroke="midnightblue" points="458.35,-116.85 450.06,-123.44 460.66,-123.46 458.35,-116.85"/>
</g>
<!-- Node15 -->
<g id="node15" class="node">
<title>Node15</title>
<g id="a_node15"><a xlink:href="sem_8c.html" target="_top" xlink:title=" ">
<polygon fill="none" stroke="black" points="404,-67.5 404,-86.5 493,-86.5 493,-67.5 404,-67.5"/>
<text text-anchor="middle" x="448.5" y="-74.5" font-family="Helvetica,sans-Serif" font-size="10.00">kernel/src/sem.c</text>
</a>
</g>
</g>
<!-- Node13&#45;&gt;Node15 -->
<g id="edge15" class="edge">
<title>Node13&#45;&gt;Node15</title>
<path fill="none" stroke="midnightblue" d="M433.3,-113.69C437.18,-104.59 441.68,-94.01 444.77,-86.75"/>
<polygon fill="midnightblue" stroke="midnightblue" points="430,-112.51 429.3,-123.08 436.44,-115.25 430,-112.51"/>
</g>
<!-- Node16&#45;&gt;Node7 -->
<g id="edge17" class="edge">
<title>Node16&#45;&gt;Node7</title>
<path fill="none" stroke="midnightblue" d="M416.13,-230.63C402.37,-222.97 386.48,-212.24 375.5,-199 345.9,-163.31 331.72,-107.66 327.19,-86.53"/>
<polygon fill="midnightblue" stroke="midnightblue" points="414.76,-233.86 425.23,-235.43 418.02,-227.67 414.76,-233.86"/>
</g>
<!-- Node16&#45;&gt;Node13 -->
<g id="edge18" class="edge">
<title>Node16&#45;&gt;Node13</title>
<path fill="none" stroke="midnightblue" d="M415.4,-230.65C402.87,-223.25 389.5,-212.73 382.5,-199 371.62,-177.66 396.34,-154.76 412.63,-142.65"/>
<polygon fill="midnightblue" stroke="midnightblue" points="413.82,-233.78 424.28,-235.49 417.17,-227.63 413.82,-233.78"/>
</g>
<!-- Node16&#45;&gt;Node14 -->
<g id="edge24" class="edge">
<title>Node16&#45;&gt;Node14</title>
<path fill="none" stroke="midnightblue" d="M468.05,-230.09C480.43,-222.04 495.31,-211.11 506.5,-199 540.42,-162.29 567.08,-107.71 576.66,-86.69"/>
<polygon fill="midnightblue" stroke="midnightblue" points="466.17,-227.14 459.56,-235.43 469.89,-233.07 466.17,-227.14"/>
</g>
<!-- Node16&#45;&gt;Node17 -->
<g id="edge19" class="edge">
<title>Node16&#45;&gt;Node17</title>
<path fill="none" stroke="midnightblue" d="M480.45,-232.3C511.73,-222.13 556.32,-207.62 584.32,-198.52"/>
<polygon fill="midnightblue" stroke="midnightblue" points="479.23,-229.02 470.8,-235.44 481.4,-235.68 479.23,-229.02"/>
</g>
<!-- Node16&#45;&gt;Node19 -->
<g id="edge25" class="edge">
<title>Node16&#45;&gt;Node19</title>
<path fill="none" stroke="midnightblue" d="M498.88,-233.55C553.48,-223.06 636.33,-207.13 685.28,-197.73"/>
<polygon fill="midnightblue" stroke="midnightblue" points="498.19,-230.12 489.03,-235.44 499.51,-236.99 498.19,-230.12"/>
</g>
<!-- Node20 -->
<g id="node20" class="node">
<title>Node20</title>
<g id="a_node20"><a xlink:href="spinlock_8c.html" target="_top" xlink:title=" ">
<polygon fill="none" stroke="black" points="391.5,-179.5 391.5,-198.5 497.5,-198.5 497.5,-179.5 391.5,-179.5"/>
<text text-anchor="middle" x="444.5" y="-186.5" font-family="Helvetica,sans-Serif" font-size="10.00">kernel/src/spinlock.c</text>
</a>
</g>
</g>
<!-- Node16&#45;&gt;Node20 -->
<g id="edge26" class="edge">
<title>Node16&#45;&gt;Node20</title>
<path fill="none" stroke="midnightblue" d="M444.5,-224.8C444.5,-215.91 444.5,-205.78 444.5,-198.75"/>
<polygon fill="midnightblue" stroke="midnightblue" points="441,-225.08 444.5,-235.08 448,-225.08 441,-225.08"/>
</g>
<!-- Node17&#45;&gt;Node7 -->
<g id="edge20" class="edge">
<title>Node17&#45;&gt;Node7</title>
<path fill="none" stroke="midnightblue" d="M587.83,-174.11C563.67,-159.77 523.96,-137.5 487.5,-123 446.95,-106.87 398.51,-94.23 365.23,-86.51"/>
<polygon fill="midnightblue" stroke="midnightblue" points="586.21,-177.22 596.58,-179.36 589.81,-171.22 586.21,-177.22"/>
</g>
<!-- Node17&#45;&gt;Node13 -->
<g id="edge21" class="edge">
<title>Node17&#45;&gt;Node13</title>
<path fill="none" stroke="midnightblue" d="M571.33,-176.57C536.43,-166.38 486.15,-151.7 454.68,-142.52"/>
<polygon fill="midnightblue" stroke="midnightblue" points="570.61,-180 581.19,-179.44 572.57,-173.28 570.61,-180"/>
</g>
<!-- Node17&#45;&gt;Node14 -->
<g id="edge22" class="edge">
<title>Node17&#45;&gt;Node14</title>
<path fill="none" stroke="midnightblue" d="M605.5,-169.67C598.94,-145.62 587.7,-104.39 582.84,-86.59"/>
<polygon fill="midnightblue" stroke="midnightblue" points="602.14,-170.64 608.15,-179.37 608.89,-168.8 602.14,-170.64"/>
</g>
<!-- Node17&#45;&gt;Node18 -->
<g id="edge23" class="edge">
<title>Node17&#45;&gt;Node18</title>
<path fill="none" stroke="midnightblue" d="M637.02,-174.86C657.23,-164.85 684.49,-151.35 702.03,-142.65"/>
<polygon fill="midnightblue" stroke="midnightblue" points="635.42,-171.75 628.01,-179.32 638.53,-178.02 635.42,-171.75"/>
</g>
</g>
</svg>
