<?xml version="1.0" encoding="UTF-8" standalone="no"?>
<!DOCTYPE svg PUBLIC "-//W3C//DTD SVG 1.1//EN"
 "http://www.w3.org/Graphics/SVG/1.1/DTD/svg11.dtd">
<!-- Generated by graphviz version 3.0.0 (20220413.0106)
 -->
<!-- Title: MODULE Pages: 1 -->
<svg width="672pt" height="274pt"
 viewBox="0.00 0.00 672.00 274.00" xmlns="http://www.w3.org/2000/svg" xmlns:xlink="http://www.w3.org/1999/xlink">
<g id="graph0" class="graph" transform="scale(1 1) rotate(0) translate(4 270)">
<title>MODULE</title>
<!-- Node1 -->
<g id="node1" class="node">
<title>Node1</title>
<g id="a_node1"><a xlink:title=" ">
<polygon fill="#bfbfbf" stroke="black" points="0,-132.5 0,-151.5 59,-151.5 59,-132.5 0,-132.5"/>
<text text-anchor="middle" x="29.5" y="-139.5" font-family="Helvetica,sans-Serif" font-size="10.00">MODULE</text>
</a>
</g>
</g>
<!-- Node2 -->
<g id="node2" class="node">
<title>Node2</title>
<g id="a_node2"><a xlink:href="sem_8c.html#a07341aaf6201983d7c7b9ea1b69975f9" target="_top" xlink:title="init a semaphore">
<polygon fill="none" stroke="black" points="101.5,-246.5 101.5,-265.5 154.5,-265.5 154.5,-246.5 101.5,-246.5"/>
<text text-anchor="middle" x="128" y="-253.5" font-family="Helvetica,sans-Serif" font-size="10.00">sem_init</text>
</a>
</g>
</g>
<!-- Node1&#45;&gt;Node2 -->
<g id="edge1" class="edge">
<title>Node1&#45;&gt;Node2</title>
<path fill="none" stroke="midnightblue" d="M36.06,-151.66C46.3,-168.96 69.45,-205.9 95,-232 97.82,-234.88 101,-237.68 104.23,-240.3"/>
<polygon fill="midnightblue" stroke="midnightblue" points="102.14,-243.1 112.22,-246.36 106.37,-237.52 102.14,-243.1"/>
</g>
<!-- Node3 -->
<g id="node3" class="node">
<title>Node3</title>
<g id="a_node3"><a xlink:href="spinlock_8c.html#ab80f529a7b9f49f09fc91a404731c869" target="_top" xlink:title="create spinlock">
<polygon fill="none" stroke="black" points="204.5,-246.5 204.5,-265.5 257.5,-265.5 257.5,-246.5 204.5,-246.5"/>
<text text-anchor="middle" x="231" y="-253.5" font-family="Helvetica,sans-Serif" font-size="10.00">spin_init</text>
</a>
</g>
</g>
<!-- Node1&#45;&gt;Node3 -->
<g id="edge30" class="edge">
<title>Node1&#45;&gt;Node3</title>
<path fill="none" stroke="midnightblue" d="M46.62,-151.61C59.63,-159.35 78.44,-170.46 95,-180 132.53,-201.62 176.25,-226.11 203.54,-241.3"/>
<polygon fill="midnightblue" stroke="midnightblue" points="202.02,-244.47 212.46,-246.27 205.43,-238.35 202.02,-244.47"/>
</g>
<!-- Node4 -->
<g id="node4" class="node">
<title>Node4</title>
<g id="a_node4"><a xlink:href="sem_8c.html#ad994e433f3a6bf8626272437cb54c114" target="_top" xlink:title="wake up a task form tasks waiting for the semaphore instance">
<polygon fill="none" stroke="black" points="95,-94.5 95,-113.5 161,-113.5 161,-94.5 95,-94.5"/>
<text text-anchor="middle" x="128" y="-101.5" font-family="Helvetica,sans-Serif" font-size="10.00">sem_signal</text>
</a>
</g>
</g>
<!-- Node1&#45;&gt;Node4 -->
<g id="edge3" class="edge">
<title>Node1&#45;&gt;Node4</title>
<path fill="none" stroke="midnightblue" d="M54.85,-132.41C66.51,-127.82 80.66,-122.25 93.32,-117.26"/>
<polygon fill="midnightblue" stroke="midnightblue" points="94.63,-120.51 102.66,-113.59 92.07,-113.99 94.63,-120.51"/>
</g>
<!-- Node14 -->
<g id="node14" class="node">
<title>Node14</title>
<g id="a_node14"><a xlink:href="spinlock_8c.html#ab6f3c37ec37006951feccc3c05387cce" target="_top" xlink:title="acquire spinlock to current cpu">
<polygon fill="none" stroke="black" points="202,-56.5 202,-75.5 260,-75.5 260,-56.5 202,-56.5"/>
<text text-anchor="middle" x="231" y="-63.5" font-family="Helvetica,sans-Serif" font-size="10.00">spin_lock</text>
</a>
</g>
</g>
<!-- Node1&#45;&gt;Node14 -->
<g id="edge31" class="edge">
<title>Node1&#45;&gt;Node14</title>
<path fill="none" stroke="midnightblue" d="M38.09,-132.45C49.1,-119.34 70.84,-96.13 95,-85 125.5,-70.95 163.66,-66.63 191.62,-65.58"/>
<polygon fill="midnightblue" stroke="midnightblue" points="191.89,-69.08 201.8,-65.33 191.71,-62.08 191.89,-69.08"/>
</g>
<!-- Node17 -->
<g id="node17" class="node">
<title>Node17</title>
<g id="a_node17"><a xlink:href="spinlock_8c.html#acdf118d615a4bc4064e991add9a80995" target="_top" xlink:title="release spinlock from current cpu">
<polygon fill="none" stroke="black" points="197,-170.5 197,-189.5 265,-189.5 265,-170.5 197,-170.5"/>
<text text-anchor="middle" x="231" y="-177.5" font-family="Helvetica,sans-Serif" font-size="10.00">spin_unlock</text>
</a>
</g>
</g>
<!-- Node1&#45;&gt;Node17 -->
<g id="edge32" class="edge">
<title>Node1&#45;&gt;Node17</title>
<path fill="none" stroke="midnightblue" d="M59.16,-151.42C70.26,-154.81 83.13,-158.43 95,-161 125.33,-167.56 160,-172.39 186.61,-175.53"/>
<polygon fill="midnightblue" stroke="midnightblue" points="186.42,-179.03 196.75,-176.7 187.21,-172.08 186.42,-179.03"/>
</g>
<!-- Node18 -->
<g id="node18" class="node">
<title>Node18</title>
<g id="a_node18"><a xlink:href="sem_8c.html#a85ca67864bb0af1966a5c2463bd16fe8" target="_top" xlink:title="release semaphore(Mutex) and sleep task holding the sem">
<polygon fill="none" stroke="black" points="98.5,-132.5 98.5,-151.5 157.5,-151.5 157.5,-132.5 98.5,-132.5"/>
<text text-anchor="middle" x="128" y="-139.5" font-family="Helvetica,sans-Serif" font-size="10.00">sem_wait</text>
</a>
</g>
</g>
<!-- Node1&#45;&gt;Node18 -->
<g id="edge25" class="edge">
<title>Node1&#45;&gt;Node18</title>
<path fill="none" stroke="midnightblue" d="M59.19,-142C68.25,-142 78.41,-142 88.06,-142"/>
<polygon fill="midnightblue" stroke="midnightblue" points="88.25,-145.5 98.25,-142 88.25,-138.5 88.25,-145.5"/>
</g>
<!-- Node20 -->
<g id="node20" class="node">
<title>Node20</title>
<g id="a_node20"><a xlink:href="vme_8c.html#a901011ff1d62f072db4208fa9c1971a2" target="_top" xlink:title=" ">
<polygon fill="none" stroke="black" points="100,-0.5 100,-19.5 156,-19.5 156,-0.5 100,-0.5"/>
<text text-anchor="middle" x="128" y="-7.5" font-family="Helvetica,sans-Serif" font-size="10.00">teardown</text>
</a>
</g>
</g>
<!-- Node1&#45;&gt;Node20 -->
<g id="edge33" class="edge">
<title>Node1&#45;&gt;Node20</title>
<path fill="none" stroke="midnightblue" d="M37.19,-132.48C48.8,-115.98 73.52,-81.06 95,-52 100.95,-43.95 107.65,-35.12 113.38,-27.64"/>
<polygon fill="midnightblue" stroke="midnightblue" points="116.23,-29.68 119.55,-19.61 110.68,-25.41 116.23,-29.68"/>
</g>
<!-- Node2&#45;&gt;Node3 -->
<g id="edge2" class="edge">
<title>Node2&#45;&gt;Node3</title>
<path fill="none" stroke="midnightblue" d="M154.75,-256C166.74,-256 181.2,-256 194.23,-256"/>
<polygon fill="midnightblue" stroke="midnightblue" points="194.3,-259.5 204.3,-256 194.3,-252.5 194.3,-259.5"/>
</g>
<!-- Node5 -->
<g id="node5" class="node">
<title>Node5</title>
<g id="a_node5"><a xlink:href="spinlock_8c.html#ad4be0d674a7ca4dc90c2dbf8b34562cc" target="_top" xlink:title="check current cpu has the lock">
<polygon fill="none" stroke="black" points="301,-132.5 301,-151.5 372,-151.5 372,-132.5 301,-132.5"/>
<text text-anchor="middle" x="336.5" y="-139.5" font-family="Helvetica,sans-Serif" font-size="10.00">spin_holding</text>
</a>
</g>
</g>
<!-- Node4&#45;&gt;Node5 -->
<g id="edge4" class="edge">
<title>Node4&#45;&gt;Node5</title>
<path fill="none" stroke="midnightblue" d="M161.27,-109.94C196.04,-116.34 251.65,-126.57 290.67,-133.75"/>
<polygon fill="midnightblue" stroke="midnightblue" points="290.24,-137.23 300.7,-135.6 291.5,-130.34 290.24,-137.23"/>
</g>
<!-- Node4&#45;&gt;Node14 -->
<g id="edge16" class="edge">
<title>Node4&#45;&gt;Node14</title>
<path fill="none" stroke="midnightblue" d="M154.49,-94.41C166.81,-89.78 181.78,-84.14 195.14,-79.11"/>
<polygon fill="midnightblue" stroke="midnightblue" points="196.39,-82.38 204.52,-75.59 193.93,-75.83 196.39,-82.38"/>
</g>
<!-- Node4&#45;&gt;Node17 -->
<g id="edge22" class="edge">
<title>Node4&#45;&gt;Node17</title>
<path fill="none" stroke="midnightblue" d="M146.25,-113.58C151.12,-116.46 156.35,-119.73 161,-123 178.89,-135.59 197.97,-151.57 211.52,-163.4"/>
<polygon fill="midnightblue" stroke="midnightblue" points="209.37,-166.17 219.19,-170.17 214.01,-160.93 209.37,-166.17"/>
</g>
<!-- Node6 -->
<g id="node6" class="node">
<title>Node6</title>
<g id="a_node6"><a xlink:href="mpe_8c.html#ab701de78cad32896c923ce900087e714" target="_top" xlink:title=" ">
<polygon fill="none" stroke="black" points="515,-132.5 515,-151.5 583,-151.5 583,-132.5 515,-132.5"/>
<text text-anchor="middle" x="549" y="-139.5" font-family="Helvetica,sans-Serif" font-size="10.00">cpu_current</text>
</a>
</g>
</g>
<!-- Node5&#45;&gt;Node6 -->
<g id="edge5" class="edge">
<title>Node5&#45;&gt;Node6</title>
<path fill="none" stroke="midnightblue" d="M372.26,-142C408.6,-142 465.69,-142 504.88,-142"/>
<polygon fill="midnightblue" stroke="midnightblue" points="504.92,-145.5 514.92,-142 504.92,-138.5 504.92,-145.5"/>
</g>
<!-- Node7 -->
<g id="node7" class="node">
<title>Node7</title>
<g id="a_node7"><a xlink:href="spinlock_8c.html#afc9565dc7a5ddf77e1fa76f5d91caf78" target="_top" xlink:title="interrupt able">
<polygon fill="none" stroke="black" points="411,-170.5 411,-189.5 476,-189.5 476,-170.5 411,-170.5"/>
<text text-anchor="middle" x="443.5" y="-177.5" font-family="Helvetica,sans-Serif" font-size="10.00">spin_popcli</text>
</a>
</g>
</g>
<!-- Node5&#45;&gt;Node7 -->
<g id="edge6" class="edge">
<title>Node5&#45;&gt;Node7</title>
<path fill="none" stroke="midnightblue" d="M364,-151.59C376.8,-156.22 392.38,-161.86 406.26,-166.89"/>
<polygon fill="midnightblue" stroke="midnightblue" points="405.42,-170.3 416.01,-170.41 407.8,-163.72 405.42,-170.3"/>
</g>
<!-- Node11 -->
<g id="node11" class="node">
<title>Node11</title>
<g id="a_node11"><a xlink:href="spinlock_8c.html#ab213874cda54fdbbeb1bec1e5fa90b28" target="_top" xlink:title="interrupt disable">
<polygon fill="none" stroke="black" points="408,-94.5 408,-113.5 479,-113.5 479,-94.5 408,-94.5"/>
<text text-anchor="middle" x="443.5" y="-101.5" font-family="Helvetica,sans-Serif" font-size="10.00">spin_pushcli</text>
</a>
</g>
</g>
<!-- Node5&#45;&gt;Node11 -->
<g id="edge11" class="edge">
<title>Node5&#45;&gt;Node11</title>
<path fill="none" stroke="midnightblue" d="M364,-132.41C376.8,-127.78 392.38,-122.14 406.26,-117.11"/>
<polygon fill="midnightblue" stroke="midnightblue" points="407.8,-120.28 416.01,-113.59 405.42,-113.7 407.8,-120.28"/>
</g>
<!-- Node7&#45;&gt;Node6 -->
<g id="edge7" class="edge">
<title>Node7&#45;&gt;Node6</title>
<path fill="none" stroke="midnightblue" d="M470.62,-170.41C483.24,-165.78 498.59,-160.14 512.28,-155.11"/>
<polygon fill="midnightblue" stroke="midnightblue" points="513.71,-158.32 521.89,-151.59 511.3,-151.75 513.71,-158.32"/>
</g>
<!-- Node8 -->
<g id="node8" class="node">
<title>Node8</title>
<g id="a_node8"><a xlink:href="cte_8c.html#a4a139958742786c5085172be1f69bfd0" target="_top" xlink:title=" ">
<polygon fill="none" stroke="black" points="533,-170.5 533,-189.5 565,-189.5 565,-170.5 533,-170.5"/>
<text text-anchor="middle" x="549" y="-177.5" font-family="Helvetica,sans-Serif" font-size="10.00">iset</text>
</a>
</g>
</g>
<!-- Node7&#45;&gt;Node8 -->
<g id="edge8" class="edge">
<title>Node7&#45;&gt;Node8</title>
<path fill="none" stroke="midnightblue" d="M476.12,-180C490.94,-180 508.37,-180 522.36,-180"/>
<polygon fill="midnightblue" stroke="midnightblue" points="522.72,-183.5 532.72,-180 522.72,-176.5 522.72,-183.5"/>
</g>
<!-- Node9 -->
<g id="node9" class="node">
<title>Node9</title>
<g id="a_node9"><a xlink:href="x86_8h.html#acc919e7809ef1db2b20aa3804f540b5c" target="_top" xlink:title=" ">
<polygon fill="none" stroke="black" points="627,-151.5 627,-170.5 656,-170.5 656,-151.5 627,-151.5"/>
<text text-anchor="middle" x="641.5" y="-158.5" font-family="Helvetica,sans-Serif" font-size="10.00">cli</text>
</a>
</g>
</g>
<!-- Node8&#45;&gt;Node9 -->
<g id="edge9" class="edge">
<title>Node8&#45;&gt;Node9</title>
<path fill="none" stroke="midnightblue" d="M565.35,-176.78C579.5,-173.81 600.71,-169.35 616.99,-165.94"/>
<polygon fill="midnightblue" stroke="midnightblue" points="617.78,-169.35 626.85,-163.87 616.35,-162.49 617.78,-169.35"/>
</g>
<!-- Node10 -->
<g id="node10" class="node">
<title>Node10</title>
<g id="a_node10"><a xlink:href="x86_8h.html#a4657e97b270d7af5a23da2c4d642ada2" target="_top" xlink:title=" ">
<polygon fill="none" stroke="black" points="627,-189.5 627,-208.5 656,-208.5 656,-189.5 627,-189.5"/>
<text text-anchor="middle" x="641.5" y="-196.5" font-family="Helvetica,sans-Serif" font-size="10.00">sti</text>
</a>
</g>
</g>
<!-- Node8&#45;&gt;Node10 -->
<g id="edge10" class="edge">
<title>Node8&#45;&gt;Node10</title>
<path fill="none" stroke="midnightblue" d="M565.35,-183.22C579.5,-186.19 600.71,-190.65 616.99,-194.06"/>
<polygon fill="midnightblue" stroke="midnightblue" points="616.35,-197.51 626.85,-196.13 617.78,-190.65 616.35,-197.51"/>
</g>
<!-- Node11&#45;&gt;Node6 -->
<g id="edge12" class="edge">
<title>Node11&#45;&gt;Node6</title>
<path fill="none" stroke="midnightblue" d="M470.62,-113.59C483.24,-118.22 498.59,-123.86 512.28,-128.89"/>
<polygon fill="midnightblue" stroke="midnightblue" points="511.3,-132.25 521.89,-132.41 513.71,-125.68 511.3,-132.25"/>
</g>
<!-- Node11&#45;&gt;Node8 -->
<g id="edge15" class="edge">
<title>Node11&#45;&gt;Node8</title>
<path fill="none" stroke="midnightblue" d="M455.55,-113.85C469.09,-125.7 492.93,-145.87 515,-161 517.92,-163.01 521.07,-165 524.22,-166.91"/>
<polygon fill="midnightblue" stroke="midnightblue" points="522.51,-169.96 532.91,-171.97 526.03,-163.92 522.51,-169.96"/>
</g>
<!-- Node12 -->
<g id="node12" class="node">
<title>Node12</title>
<g id="a_node12"><a xlink:href="cte_8c.html#a79659a2b801c42951e38f3a8821acbae" target="_top" xlink:title=" ">
<polygon fill="none" stroke="black" points="522.5,-94.5 522.5,-113.5 575.5,-113.5 575.5,-94.5 522.5,-94.5"/>
<text text-anchor="middle" x="549" y="-101.5" font-family="Helvetica,sans-Serif" font-size="10.00">ienabled</text>
</a>
</g>
</g>
<!-- Node11&#45;&gt;Node12 -->
<g id="edge13" class="edge">
<title>Node11&#45;&gt;Node12</title>
<path fill="none" stroke="midnightblue" d="M479.25,-104C489.82,-104 501.46,-104 512.1,-104"/>
<polygon fill="midnightblue" stroke="midnightblue" points="512.34,-107.5 522.34,-104 512.34,-100.5 512.34,-107.5"/>
</g>
<!-- Node13 -->
<g id="node13" class="node">
<title>Node13</title>
<g id="a_node13"><a xlink:href="x86_8h.html#a73d094f09c6a7dd3fc703aa8229933ee" target="_top" xlink:title=" ">
<polygon fill="none" stroke="black" points="619,-94.5 619,-113.5 664,-113.5 664,-94.5 619,-94.5"/>
<text text-anchor="middle" x="641.5" y="-101.5" font-family="Helvetica,sans-Serif" font-size="10.00">get_efl</text>
</a>
</g>
</g>
<!-- Node12&#45;&gt;Node13 -->
<g id="edge14" class="edge">
<title>Node12&#45;&gt;Node13</title>
<path fill="none" stroke="midnightblue" d="M575.69,-104C585.88,-104 597.71,-104 608.45,-104"/>
<polygon fill="midnightblue" stroke="midnightblue" points="608.73,-107.5 618.73,-104 608.73,-100.5 608.73,-107.5"/>
</g>
<!-- Node14&#45;&gt;Node5 -->
<g id="edge20" class="edge">
<title>Node14&#45;&gt;Node5</title>
<path fill="none" stroke="midnightblue" d="M245.56,-75.71C251.55,-80.04 258.66,-85.23 265,-90 281.2,-102.18 284.67,-105.99 301,-118 304.81,-120.8 308.89,-123.72 312.88,-126.52"/>
<polygon fill="midnightblue" stroke="midnightblue" points="311.07,-129.53 321.28,-132.36 315.07,-123.78 311.07,-129.53"/>
</g>
<!-- Node14&#45;&gt;Node6 -->
<g id="edge19" class="edge">
<title>Node14&#45;&gt;Node6</title>
<path fill="none" stroke="midnightblue" d="M260.33,-61.86C308.06,-56.22 406.39,-50.41 479,-85 500,-95.01 496.73,-108.6 515,-123 516.77,-124.4 518.66,-125.76 520.6,-127.07"/>
<polygon fill="midnightblue" stroke="midnightblue" points="518.9,-130.13 529.23,-132.45 522.6,-124.19 518.9,-130.13"/>
</g>
<!-- Node14&#45;&gt;Node11 -->
<g id="edge21" class="edge">
<title>Node14&#45;&gt;Node11</title>
<path fill="none" stroke="midnightblue" d="M260.16,-71.93C272.65,-74.5 287.54,-77.49 301,-80 333.26,-86.01 369.77,-92.18 397.62,-96.77"/>
<polygon fill="midnightblue" stroke="midnightblue" points="397.41,-100.28 407.84,-98.44 398.54,-93.37 397.41,-100.28"/>
</g>
<!-- Node15 -->
<g id="node15" class="node">
<title>Node15</title>
<g id="a_node15"><a xlink:href="mpe_8c.html#aaaad47c97c82065cf463f83b98b23c30" target="_top" xlink:title=" ">
<polygon fill="none" stroke="black" points="301,-18.5 301,-37.5 372,-37.5 372,-18.5 301,-18.5"/>
<text text-anchor="middle" x="336.5" y="-25.5" font-family="Helvetica,sans-Serif" font-size="10.00">atomic_xchg</text>
</a>
</g>
</g>
<!-- Node14&#45;&gt;Node15 -->
<g id="edge17" class="edge">
<title>Node14&#45;&gt;Node15</title>
<path fill="none" stroke="midnightblue" d="M258.12,-56.41C270.74,-51.78 286.09,-46.14 299.78,-41.11"/>
<polygon fill="midnightblue" stroke="midnightblue" points="301.21,-44.32 309.39,-37.59 298.8,-37.75 301.21,-44.32"/>
</g>
<!-- Node16 -->
<g id="node16" class="node">
<title>Node16</title>
<g id="a_node16"><a xlink:href="x86_8h.html#a48b2a6a16dc8d7e09d327aa3803f1112" target="_top" xlink:title=" ">
<polygon fill="none" stroke="black" points="425,-18.5 425,-37.5 462,-37.5 462,-18.5 425,-18.5"/>
<text text-anchor="middle" x="443.5" y="-25.5" font-family="Helvetica,sans-Serif" font-size="10.00">xchg</text>
</a>
</g>
</g>
<!-- Node15&#45;&gt;Node16 -->
<g id="edge18" class="edge">
<title>Node15&#45;&gt;Node16</title>
<path fill="none" stroke="midnightblue" d="M372.17,-28C385.99,-28 401.67,-28 414.71,-28"/>
<polygon fill="midnightblue" stroke="midnightblue" points="414.95,-31.5 424.95,-28 414.95,-24.5 414.95,-31.5"/>
</g>
<!-- Node17&#45;&gt;Node5 -->
<g id="edge23" class="edge">
<title>Node17&#45;&gt;Node5</title>
<path fill="none" stroke="midnightblue" d="M258.12,-170.41C270.74,-165.78 286.09,-160.14 299.78,-155.11"/>
<polygon fill="midnightblue" stroke="midnightblue" points="301.21,-158.32 309.39,-151.59 298.8,-151.75 301.21,-158.32"/>
</g>
<!-- Node17&#45;&gt;Node7 -->
<g id="edge24" class="edge">
<title>Node17&#45;&gt;Node7</title>
<path fill="none" stroke="midnightblue" d="M265.35,-180C301.96,-180 360.8,-180 400.52,-180"/>
<polygon fill="midnightblue" stroke="midnightblue" points="400.68,-183.5 410.68,-180 400.68,-176.5 400.68,-183.5"/>
</g>
<!-- Node18&#45;&gt;Node5 -->
<g id="edge26" class="edge">
<title>Node18&#45;&gt;Node5</title>
<path fill="none" stroke="midnightblue" d="M157.71,-142C192.17,-142 250.35,-142 290.72,-142"/>
<polygon fill="midnightblue" stroke="midnightblue" points="290.83,-145.5 300.83,-142 290.83,-138.5 290.83,-145.5"/>
</g>
<!-- Node18&#45;&gt;Node14 -->
<g id="edge27" class="edge">
<title>Node18&#45;&gt;Node14</title>
<path fill="none" stroke="midnightblue" d="M146.25,-132.42C151.12,-129.54 156.35,-126.27 161,-123 178.89,-110.41 197.97,-94.43 211.52,-82.6"/>
<polygon fill="midnightblue" stroke="midnightblue" points="214.01,-85.07 219.19,-75.83 209.37,-79.83 214.01,-85.07"/>
</g>
<!-- Node18&#45;&gt;Node17 -->
<g id="edge28" class="edge">
<title>Node18&#45;&gt;Node17</title>
<path fill="none" stroke="midnightblue" d="M154.49,-151.59C166.81,-156.22 181.78,-161.86 195.14,-166.89"/>
<polygon fill="midnightblue" stroke="midnightblue" points="193.93,-170.17 204.52,-170.41 196.39,-163.62 193.93,-170.17"/>
</g>
<!-- Node19 -->
<g id="node19" class="node">
<title>Node19</title>
<g id="a_node19"><a xlink:href="cte_8c.html#a58c8b2ad0ea491a6642e5e1cbd358c89" target="_top" xlink:title=" ">
<polygon fill="none" stroke="black" points="213,-208.5 213,-227.5 249,-227.5 249,-208.5 213,-208.5"/>
<text text-anchor="middle" x="231" y="-215.5" font-family="Helvetica,sans-Serif" font-size="10.00">yield</text>
</a>
</g>
</g>
<!-- Node18&#45;&gt;Node19 -->
<g id="edge29" class="edge">
<title>Node18&#45;&gt;Node19</title>
<path fill="none" stroke="midnightblue" d="M139.6,-151.9C152.59,-163.78 175.54,-184 197,-199 199.26,-200.58 201.66,-202.15 204.09,-203.67"/>
<polygon fill="midnightblue" stroke="midnightblue" points="202.48,-206.78 212.86,-208.89 206.06,-200.77 202.48,-206.78"/>
</g>
<!-- Node20&#45;&gt;Node20 -->
<g id="edge35" class="edge">
<title>Node20&#45;&gt;Node20</title>
<path fill="none" stroke="midnightblue" d="M112.9,-19.76C105.55,-28.57 110.58,-38 128,-38 138.89,-38 144.94,-34.31 146.15,-29.4"/>
<polygon fill="midnightblue" stroke="midnightblue" points="149.45,-28.24 143.1,-19.76 142.78,-30.35 149.45,-28.24"/>
</g>
<!-- Node21 -->
<g id="node21" class="node">
<title>Node21</title>
<g id="a_node21"><a xlink:href="vme_8c.html#a55c43e36b332c6b9adc75d2fb8ec3030" target="_top" xlink:title=" ">
<polygon fill="none" stroke="black" points="208,-0.5 208,-19.5 254,-19.5 254,-0.5 208,-0.5"/>
<text text-anchor="middle" x="231" y="-7.5" font-family="Helvetica,sans-Serif" font-size="10.00">baseof</text>
</a>
</g>
</g>
<!-- Node20&#45;&gt;Node21 -->
<g id="edge34" class="edge">
<title>Node20&#45;&gt;Node21</title>
<path fill="none" stroke="midnightblue" d="M156.07,-10C168.88,-10 184.29,-10 197.71,-10"/>
<polygon fill="midnightblue" stroke="midnightblue" points="197.97,-13.5 207.97,-10 197.97,-6.5 197.97,-13.5"/>
</g>
</g>
</svg>
