<?xml version="1.0" encoding="UTF-8" standalone="no"?>
<!DOCTYPE svg PUBLIC "-//W3C//DTD SVG 1.1//EN"
 "http://www.w3.org/Graphics/SVG/1.1/DTD/svg11.dtd">
<!-- Generated by graphviz version 3.0.0 (20220413.0106)
 -->
<!-- Title: kernel/framework/kernel.h Pages: 1 -->
<svg width="799pt" height="263pt"
 viewBox="0.00 0.00 799.00 263.00" xmlns="http://www.w3.org/2000/svg" xmlns:xlink="http://www.w3.org/1999/xlink">
<g id="graph0" class="graph" transform="scale(1 1) rotate(0) translate(4 259)">
<title>kernel/framework/kernel.h</title>
<!-- Node1 -->
<g id="node1" class="node">
<title>Node1</title>
<g id="a_node1"><a xlink:title=" ">
<polygon fill="#bfbfbf" stroke="black" points="274,-235.5 274,-254.5 402,-254.5 402,-235.5 274,-235.5"/>
<text text-anchor="middle" x="338" y="-242.5" font-family="Helvetica,sans-Serif" font-size="10.00">kernel/framework/kernel.h</text>
</a>
</g>
</g>
<!-- Node2 -->
<g id="node2" class="node">
<title>Node2</title>
<g id="a_node2"><a xlink:href="main_8c.html" target="_top" xlink:title=" ">
<polygon fill="none" stroke="black" points="134.5,-179.5 134.5,-198.5 257.5,-198.5 257.5,-179.5 134.5,-179.5"/>
<text text-anchor="middle" x="196" y="-186.5" font-family="Helvetica,sans-Serif" font-size="10.00">kernel/framework/main.c</text>
</a>
</g>
</g>
<!-- Node1&#45;&gt;Node2 -->
<g id="edge1" class="edge">
<title>Node1&#45;&gt;Node2</title>
<path fill="none" stroke="midnightblue" d="M305.84,-231.77C279.17,-221.63 241.93,-207.47 218.4,-198.52"/>
<polygon fill="midnightblue" stroke="midnightblue" points="304.91,-235.16 315.5,-235.44 307.4,-228.62 304.91,-235.16"/>
</g>
<!-- Node3 -->
<g id="node3" class="node">
<title>Node3</title>
<g id="a_node3"><a xlink:href="common_8h.html" target="_top" xlink:title=" ">
<polygon fill="none" stroke="black" points="275.5,-179.5 275.5,-198.5 400.5,-198.5 400.5,-179.5 275.5,-179.5"/>
<text text-anchor="middle" x="338" y="-186.5" font-family="Helvetica,sans-Serif" font-size="10.00">kernel/include/common.h</text>
</a>
</g>
</g>
<!-- Node1&#45;&gt;Node3 -->
<g id="edge2" class="edge">
<title>Node1&#45;&gt;Node3</title>
<path fill="none" stroke="midnightblue" d="M338,-224.8C338,-215.91 338,-205.78 338,-198.75"/>
<polygon fill="midnightblue" stroke="midnightblue" points="334.5,-225.08 338,-235.08 341.5,-225.08 334.5,-225.08"/>
</g>
<!-- Node18 -->
<g id="node18" class="node">
<title>Node18</title>
<g id="a_node18"><a xlink:href="sem_8h.html" target="_top" xlink:title=" ">
<polygon fill="none" stroke="black" points="451,-123.5 451,-142.5 557,-142.5 557,-123.5 451,-123.5"/>
<text text-anchor="middle" x="504" y="-130.5" font-family="Helvetica,sans-Serif" font-size="10.00">kernel/include/sem.h</text>
</a>
</g>
</g>
<!-- Node1&#45;&gt;Node18 -->
<g id="edge24" class="edge">
<title>Node1&#45;&gt;Node18</title>
<path fill="none" stroke="midnightblue" d="M360.85,-230.09C375.09,-221.33 393.73,-209.7 410,-199 439.84,-179.37 474.19,-155.21 491.95,-142.6"/>
<polygon fill="midnightblue" stroke="midnightblue" points="358.89,-227.19 352.2,-235.4 362.55,-233.16 358.89,-227.19"/>
</g>
<!-- Node4 -->
<g id="node4" class="node">
<title>Node4</title>
<g id="a_node4"><a xlink:href="buddy_8h.html" target="_top" xlink:title=" ">
<polygon fill="none" stroke="black" points="73.5,-123.5 73.5,-142.5 186.5,-142.5 186.5,-123.5 73.5,-123.5"/>
<text text-anchor="middle" x="130" y="-130.5" font-family="Helvetica,sans-Serif" font-size="10.00">kernel/include/buddy.h</text>
</a>
</g>
</g>
<!-- Node3&#45;&gt;Node4 -->
<g id="edge3" class="edge">
<title>Node3&#45;&gt;Node4</title>
<path fill="none" stroke="midnightblue" d="M295.22,-176.89C255.94,-166.7 198.57,-151.8 162.8,-142.52"/>
<polygon fill="midnightblue" stroke="midnightblue" points="294.48,-180.32 305.04,-179.44 296.24,-173.54 294.48,-180.32"/>
</g>
<!-- Node5 -->
<g id="node5" class="node">
<title>Node5</title>
<g id="a_node5"><a xlink:href="buddy_8c.html" target="_top" xlink:title="impl of buddy system">
<polygon fill="none" stroke="black" points="120.5,-67.5 120.5,-86.5 215.5,-86.5 215.5,-67.5 120.5,-67.5"/>
<text text-anchor="middle" x="168" y="-74.5" font-family="Helvetica,sans-Serif" font-size="10.00">kernel/src/buddy.c</text>
</a>
</g>
</g>
<!-- Node3&#45;&gt;Node5 -->
<g id="edge20" class="edge">
<title>Node3&#45;&gt;Node5</title>
<path fill="none" stroke="midnightblue" d="M314.51,-174.12C299.87,-165.36 280.71,-153.73 264,-143 233.51,-123.43 198.44,-99.24 180.3,-86.61"/>
<polygon fill="midnightblue" stroke="midnightblue" points="313.02,-177.3 323.41,-179.41 316.61,-171.29 313.02,-177.3"/>
</g>
<!-- Node6 -->
<g id="node6" class="node">
<title>Node6</title>
<g id="a_node6"><a xlink:href="pmm_8c.html" target="_top" xlink:title=" ">
<polygon fill="none" stroke="black" points="5,-67.5 5,-86.5 97,-86.5 97,-67.5 5,-67.5"/>
<text text-anchor="middle" x="51" y="-74.5" font-family="Helvetica,sans-Serif" font-size="10.00">kernel/src/pmm.c</text>
</a>
</g>
</g>
<!-- Node3&#45;&gt;Node6 -->
<g id="edge23" class="edge">
<title>Node3&#45;&gt;Node6</title>
<path fill="none" stroke="midnightblue" d="M264.98,-178.09C186.29,-167.11 71.26,-150.01 64,-143 48.6,-128.13 48.72,-100.55 49.93,-86.59"/>
<polygon fill="midnightblue" stroke="midnightblue" points="264.96,-181.63 275.34,-179.54 265.92,-174.69 264.96,-181.63"/>
</g>
<!-- Node7 -->
<g id="node7" class="node">
<title>Node7</title>
<g id="a_node7"><a xlink:href="devices_8h.html" target="_top" xlink:title=" ">
<polygon fill="none" stroke="black" points="236.5,-67.5 236.5,-86.5 357.5,-86.5 357.5,-67.5 236.5,-67.5"/>
<text text-anchor="middle" x="297" y="-74.5" font-family="Helvetica,sans-Serif" font-size="10.00">kernel/include/devices.h</text>
</a>
</g>
</g>
<!-- Node3&#45;&gt;Node7 -->
<g id="edge6" class="edge">
<title>Node3&#45;&gt;Node7</title>
<path fill="none" stroke="midnightblue" d="M306.62,-174.83C293.42,-167.53 279.42,-157.05 272,-143 261.83,-123.76 278.32,-99.44 289.01,-86.7"/>
<polygon fill="midnightblue" stroke="midnightblue" points="305.04,-177.96 315.54,-179.38 308.22,-171.72 305.04,-177.96"/>
</g>
<!-- Node13 -->
<g id="node13" class="node">
<title>Node13</title>
<g id="a_node13"><a xlink:href="spinlock_8h.html" target="_top" xlink:title=" ">
<polygon fill="none" stroke="black" points="575.5,-123.5 575.5,-142.5 698.5,-142.5 698.5,-123.5 575.5,-123.5"/>
<text text-anchor="middle" x="637" y="-130.5" font-family="Helvetica,sans-Serif" font-size="10.00">kernel/include/spinlock.h</text>
</a>
</g>
</g>
<!-- Node3&#45;&gt;Node13 -->
<g id="edge12" class="edge">
<title>Node3&#45;&gt;Node13</title>
<path fill="none" stroke="midnightblue" d="M395.23,-177.66C451.74,-167.46 537.12,-152.04 589.84,-142.52"/>
<polygon fill="midnightblue" stroke="midnightblue" points="394.6,-174.22 385.38,-179.44 395.84,-181.11 394.6,-174.22"/>
</g>
<!-- Node14 -->
<g id="node14" class="node">
<title>Node14</title>
<g id="a_node14"><a xlink:href="kmt_8c.html" target="_top" xlink:title=" ">
<polygon fill="none" stroke="black" points="376,-67.5 376,-86.5 462,-86.5 462,-67.5 376,-67.5"/>
<text text-anchor="middle" x="419" y="-74.5" font-family="Helvetica,sans-Serif" font-size="10.00">kernel/src/kmt.c</text>
</a>
</g>
</g>
<!-- Node3&#45;&gt;Node14 -->
<g id="edge21" class="edge">
<title>Node3&#45;&gt;Node14</title>
<path fill="none" stroke="midnightblue" d="M366.6,-174.77C379.87,-167.24 394.72,-156.58 404,-143 415.89,-125.6 418.46,-100.09 418.95,-86.79"/>
<polygon fill="midnightblue" stroke="midnightblue" points="364.94,-171.68 357.76,-179.47 368.23,-177.86 364.94,-171.68"/>
</g>
<!-- Node15 -->
<g id="node15" class="node">
<title>Node15</title>
<g id="a_node15"><a xlink:href="os_8c.html" target="_top" xlink:title=" ">
<polygon fill="none" stroke="black" points="711,-67.5 711,-86.5 791,-86.5 791,-67.5 711,-67.5"/>
<text text-anchor="middle" x="751" y="-74.5" font-family="Helvetica,sans-Serif" font-size="10.00">kernel/src/os.c</text>
</a>
</g>
</g>
<!-- Node3&#45;&gt;Node15 -->
<g id="edge22" class="edge">
<title>Node3&#45;&gt;Node15</title>
<path fill="none" stroke="midnightblue" d="M410.93,-186.29C504.3,-182.89 659.79,-172.8 708,-143 729.41,-129.77 742.41,-101.45 747.91,-86.95"/>
<polygon fill="midnightblue" stroke="midnightblue" points="410.57,-182.8 400.7,-186.64 410.81,-189.79 410.57,-182.8"/>
</g>
<!-- Node17 -->
<g id="node17" class="node">
<title>Node17</title>
<g id="a_node17"><a xlink:href="thread_8h.html" target="_top" xlink:title=" ">
<polygon fill="none" stroke="black" points="281,-123.5 281,-142.5 395,-142.5 395,-123.5 281,-123.5"/>
<text text-anchor="middle" x="338" y="-130.5" font-family="Helvetica,sans-Serif" font-size="10.00">kernel/include/thread.h</text>
</a>
</g>
</g>
<!-- Node3&#45;&gt;Node17 -->
<g id="edge17" class="edge">
<title>Node3&#45;&gt;Node17</title>
<path fill="none" stroke="midnightblue" d="M338,-168.8C338,-159.91 338,-149.78 338,-142.75"/>
<polygon fill="midnightblue" stroke="midnightblue" points="334.5,-169.08 338,-179.08 341.5,-169.08 334.5,-169.08"/>
</g>
<!-- Node4&#45;&gt;Node5 -->
<g id="edge4" class="edge">
<title>Node4&#45;&gt;Node5</title>
<path fill="none" stroke="midnightblue" d="M142.06,-114.86C148.64,-105.5 156.51,-94.33 161.84,-86.75"/>
<polygon fill="midnightblue" stroke="midnightblue" points="139.17,-112.89 136.27,-123.08 144.89,-116.92 139.17,-112.89"/>
</g>
<!-- Node4&#45;&gt;Node6 -->
<g id="edge5" class="edge">
<title>Node4&#45;&gt;Node6</title>
<path fill="none" stroke="midnightblue" d="M108.97,-117.62C94.53,-107.76 75.86,-94.99 63.66,-86.65"/>
<polygon fill="midnightblue" stroke="midnightblue" points="107.08,-120.57 117.31,-123.32 111.03,-114.79 107.08,-120.57"/>
</g>
<!-- Node8 -->
<g id="node8" class="node">
<title>Node8</title>
<g id="a_node8"><a xlink:href="dev_8c.html" target="_top" xlink:title=" ">
<polygon fill="none" stroke="black" points="0,-6 0,-25 104,-25 104,-6 0,-6"/>
<text text-anchor="middle" x="52" y="-13" font-family="Helvetica,sans-Serif" font-size="10.00">kernel/src/dev/dev.c</text>
</a>
</g>
</g>
<!-- Node7&#45;&gt;Node8 -->
<g id="edge7" class="edge">
<title>Node7&#45;&gt;Node8</title>
<path fill="none" stroke="midnightblue" d="M252.17,-65.11C204.62,-53.57 130.49,-35.56 87.04,-25.01"/>
<polygon fill="midnightblue" stroke="midnightblue" points="251.35,-68.52 261.9,-67.48 253.01,-61.71 251.35,-68.52"/>
</g>
<!-- Node9 -->
<g id="node9" class="node">
<title>Node9</title>
<g id="a_node9"><a xlink:href="dev__input_8c.html" target="_top" xlink:title=" ">
<polygon fill="none" stroke="black" points="122.5,-0.5 122.5,-30.5 219.5,-30.5 219.5,-0.5 122.5,-0.5"/>
<text text-anchor="start" x="130.5" y="-18.5" font-family="Helvetica,sans-Serif" font-size="10.00">kernel/src/dev/dev</text>
<text text-anchor="middle" x="171" y="-7.5" font-family="Helvetica,sans-Serif" font-size="10.00">_input.c</text>
</a>
</g>
</g>
<!-- Node7&#45;&gt;Node9 -->
<g id="edge8" class="edge">
<title>Node7&#45;&gt;Node9</title>
<path fill="none" stroke="midnightblue" d="M269.89,-63.2C249.53,-53.58 221.66,-40.42 200.7,-30.52"/>
<polygon fill="midnightblue" stroke="midnightblue" points="268.41,-66.37 278.95,-67.48 271.4,-60.04 268.41,-66.37"/>
</g>
<!-- Node10 -->
<g id="node10" class="node">
<title>Node10</title>
<g id="a_node10"><a xlink:href="dev__sd_8c.html" target="_top" xlink:title=" ">
<polygon fill="none" stroke="black" points="237,-6 237,-25 357,-25 357,-6 237,-6"/>
<text text-anchor="middle" x="297" y="-13" font-family="Helvetica,sans-Serif" font-size="10.00">kernel/src/dev/dev_sd.c</text>
</a>
</g>
</g>
<!-- Node7&#45;&gt;Node10 -->
<g id="edge9" class="edge">
<title>Node7&#45;&gt;Node10</title>
<path fill="none" stroke="midnightblue" d="M297,-57.32C297,-46.5 297,-33.4 297,-25.01"/>
<polygon fill="midnightblue" stroke="midnightblue" points="293.5,-57.48 297,-67.48 300.5,-57.48 293.5,-57.48"/>
</g>
<!-- Node11 -->
<g id="node11" class="node">
<title>Node11</title>
<g id="a_node11"><a xlink:href="dev__tty_8c.html" target="_top" xlink:title=" ">
<polygon fill="none" stroke="black" points="374.5,-0.5 374.5,-30.5 471.5,-30.5 471.5,-0.5 374.5,-0.5"/>
<text text-anchor="start" x="382.5" y="-18.5" font-family="Helvetica,sans-Serif" font-size="10.00">kernel/src/dev/dev</text>
<text text-anchor="middle" x="423" y="-7.5" font-family="Helvetica,sans-Serif" font-size="10.00">_tty.c</text>
</a>
</g>
</g>
<!-- Node7&#45;&gt;Node11 -->
<g id="edge10" class="edge">
<title>Node7&#45;&gt;Node11</title>
<path fill="none" stroke="midnightblue" d="M324.11,-63.2C344.47,-53.58 372.34,-40.42 393.3,-30.52"/>
<polygon fill="midnightblue" stroke="midnightblue" points="322.6,-60.04 315.05,-67.48 325.59,-66.37 322.6,-60.04"/>
</g>
<!-- Node12 -->
<g id="node12" class="node">
<title>Node12</title>
<g id="a_node12"><a xlink:href="dev__video_8c.html" target="_top" xlink:title=" ">
<polygon fill="none" stroke="black" points="489.5,-0.5 489.5,-30.5 586.5,-30.5 586.5,-0.5 489.5,-0.5"/>
<text text-anchor="start" x="497.5" y="-18.5" font-family="Helvetica,sans-Serif" font-size="10.00">kernel/src/dev/dev</text>
<text text-anchor="middle" x="538" y="-7.5" font-family="Helvetica,sans-Serif" font-size="10.00">_video.c</text>
</a>
</g>
</g>
<!-- Node7&#45;&gt;Node12 -->
<g id="edge11" class="edge">
<title>Node7&#45;&gt;Node12</title>
<path fill="none" stroke="midnightblue" d="M342.34,-65.04C379.6,-55.99 433.75,-42.79 481,-31 483.77,-30.31 486.62,-29.59 489.5,-28.87"/>
<polygon fill="midnightblue" stroke="midnightblue" points="341.19,-61.71 332.3,-67.47 342.84,-68.51 341.19,-61.71"/>
</g>
<!-- Node13&#45;&gt;Node7 -->
<g id="edge13" class="edge">
<title>Node13&#45;&gt;Node7</title>
<path fill="none" stroke="midnightblue" d="M573.12,-121.85C508.88,-111.65 410.95,-96.1 350.62,-86.52"/>
<polygon fill="midnightblue" stroke="midnightblue" points="572.7,-125.33 583.13,-123.44 573.8,-118.42 572.7,-125.33"/>
</g>
<!-- Node13&#45;&gt;Node14 -->
<g id="edge14" class="edge">
<title>Node13&#45;&gt;Node14</title>
<path fill="none" stroke="midnightblue" d="M592.69,-121.02C551.51,-110.82 491.03,-95.84 453.38,-86.52"/>
<polygon fill="midnightblue" stroke="midnightblue" points="591.91,-124.44 602.46,-123.44 593.59,-117.64 591.91,-124.44"/>
</g>
<!-- Node13&#45;&gt;Node15 -->
<g id="edge15" class="edge">
<title>Node13&#45;&gt;Node15</title>
<path fill="none" stroke="midnightblue" d="M664.24,-119.1C685.54,-109.01 714.54,-95.27 733.02,-86.52"/>
<polygon fill="midnightblue" stroke="midnightblue" points="662.6,-116 655.06,-123.44 665.6,-122.33 662.6,-116"/>
</g>
<!-- Node16 -->
<g id="node16" class="node">
<title>Node16</title>
<g id="a_node16"><a xlink:href="spinlock_8c.html" target="_top" xlink:title=" ">
<polygon fill="none" stroke="black" points="587,-67.5 587,-86.5 693,-86.5 693,-67.5 587,-67.5"/>
<text text-anchor="middle" x="640" y="-74.5" font-family="Helvetica,sans-Serif" font-size="10.00">kernel/src/spinlock.c</text>
</a>
</g>
</g>
<!-- Node13&#45;&gt;Node16 -->
<g id="edge16" class="edge">
<title>Node13&#45;&gt;Node16</title>
<path fill="none" stroke="midnightblue" d="M638.07,-112.8C638.56,-103.91 639.12,-93.78 639.51,-86.75"/>
<polygon fill="midnightblue" stroke="midnightblue" points="634.56,-112.9 637.5,-123.08 641.54,-113.29 634.56,-112.9"/>
</g>
<!-- Node17&#45;&gt;Node7 -->
<g id="edge18" class="edge">
<title>Node17&#45;&gt;Node7</title>
<path fill="none" stroke="midnightblue" d="M324.98,-114.86C317.88,-105.5 309.4,-94.33 303.64,-86.75"/>
<polygon fill="midnightblue" stroke="midnightblue" points="322.39,-117.24 331.23,-123.08 327.97,-113 322.39,-117.24"/>
</g>
<!-- Node17&#45;&gt;Node14 -->
<g id="edge19" class="edge">
<title>Node17&#45;&gt;Node14</title>
<path fill="none" stroke="midnightblue" d="M359.57,-117.62C374.36,-107.76 393.51,-94.99 406.02,-86.65"/>
<polygon fill="midnightblue" stroke="midnightblue" points="357.39,-114.86 351.01,-123.32 361.28,-120.69 357.39,-114.86"/>
</g>
<!-- Node18&#45;&gt;Node7 -->
<g id="edge25" class="edge">
<title>Node18&#45;&gt;Node7</title>
<path fill="none" stroke="midnightblue" d="M461.18,-120.83C422.09,-110.63 365.17,-95.78 329.65,-86.52"/>
<polygon fill="midnightblue" stroke="midnightblue" points="460.64,-124.31 471.2,-123.44 462.41,-117.53 460.64,-124.31"/>
</g>
<!-- Node18&#45;&gt;Node14 -->
<g id="edge26" class="edge">
<title>Node18&#45;&gt;Node14</title>
<path fill="none" stroke="midnightblue" d="M481.81,-117.9C466.22,-108 445.87,-95.07 432.62,-86.65"/>
<polygon fill="midnightblue" stroke="midnightblue" points="480.03,-120.92 490.34,-123.32 483.78,-115.01 480.03,-120.92"/>
</g>
<!-- Node19 -->
<g id="node19" class="node">
<title>Node19</title>
<g id="a_node19"><a xlink:href="sem_8c.html" target="_top" xlink:title=" ">
<polygon fill="none" stroke="black" points="480.5,-67.5 480.5,-86.5 569.5,-86.5 569.5,-67.5 480.5,-67.5"/>
<text text-anchor="middle" x="525" y="-74.5" font-family="Helvetica,sans-Serif" font-size="10.00">kernel/src/sem.c</text>
</a>
</g>
</g>
<!-- Node18&#45;&gt;Node19 -->
<g id="edge27" class="edge">
<title>Node18&#45;&gt;Node19</title>
<path fill="none" stroke="midnightblue" d="M511.12,-113.69C514.66,-104.59 518.77,-94.01 521.6,-86.75"/>
<polygon fill="midnightblue" stroke="midnightblue" points="507.83,-112.49 507.47,-123.08 514.35,-115.03 507.83,-112.49"/>
</g>
</g>
</svg>
