<?xml version="1.0" encoding="UTF-8" standalone="no"?>
<!DOCTYPE svg PUBLIC "-//W3C//DTD SVG 1.1//EN"
 "http://www.w3.org/Graphics/SVG/1.1/DTD/svg11.dtd">
<!-- Generated by graphviz version 3.0.0 (20220413.0106)
 -->
<!-- Title: kernel/framework/kernel.h Pages: 1 -->
<svg width="851pt" height="319pt"
 viewBox="0.00 0.00 851.00 319.00" xmlns="http://www.w3.org/2000/svg" xmlns:xlink="http://www.w3.org/1999/xlink">
<g id="graph0" class="graph" transform="scale(1 1) rotate(0) translate(4 315)">
<title>kernel/framework/kernel.h</title>
<!-- Node1 -->
<g id="node1" class="node">
<title>Node1</title>
<g id="a_node1"><a xlink:title=" ">
<polygon fill="#bfbfbf" stroke="black" points="262,-291.5 262,-310.5 390,-310.5 390,-291.5 262,-291.5"/>
<text text-anchor="middle" x="326" y="-298.5" font-family="Helvetica,sans-Serif" font-size="10.00">kernel/framework/kernel.h</text>
</a>
</g>
</g>
<!-- Node2 -->
<g id="node2" class="node">
<title>Node2</title>
<g id="a_node2"><a xlink:href="main_8c.html" target="_top" xlink:title=" ">
<polygon fill="none" stroke="black" points="122.5,-235.5 122.5,-254.5 245.5,-254.5 245.5,-235.5 122.5,-235.5"/>
<text text-anchor="middle" x="184" y="-242.5" font-family="Helvetica,sans-Serif" font-size="10.00">kernel/framework/main.c</text>
</a>
</g>
</g>
<!-- Node1&#45;&gt;Node2 -->
<g id="edge1" class="edge">
<title>Node1&#45;&gt;Node2</title>
<path fill="none" stroke="midnightblue" d="M293.84,-287.77C267.17,-277.63 229.93,-263.47 206.4,-254.52"/>
<polygon fill="midnightblue" stroke="midnightblue" points="292.91,-291.16 303.5,-291.44 295.4,-284.62 292.91,-291.16"/>
</g>
<!-- Node3 -->
<g id="node3" class="node">
<title>Node3</title>
<g id="a_node3"><a xlink:href="common_8h.html" target="_top" xlink:title=" ">
<polygon fill="none" stroke="black" points="263.5,-235.5 263.5,-254.5 388.5,-254.5 388.5,-235.5 263.5,-235.5"/>
<text text-anchor="middle" x="326" y="-242.5" font-family="Helvetica,sans-Serif" font-size="10.00">kernel/include/common.h</text>
</a>
</g>
</g>
<!-- Node1&#45;&gt;Node3 -->
<g id="edge2" class="edge">
<title>Node1&#45;&gt;Node3</title>
<path fill="none" stroke="midnightblue" d="M326,-280.8C326,-271.91 326,-261.78 326,-254.75"/>
<polygon fill="midnightblue" stroke="midnightblue" points="322.5,-281.08 326,-291.08 329.5,-281.08 322.5,-281.08"/>
</g>
<!-- Node18 -->
<g id="node18" class="node">
<title>Node18</title>
<g id="a_node18"><a xlink:href="sem_8h.html" target="_top" xlink:title=" ">
<polygon fill="none" stroke="black" points="737,-123.5 737,-142.5 843,-142.5 843,-123.5 737,-123.5"/>
<text text-anchor="middle" x="790" y="-130.5" font-family="Helvetica,sans-Serif" font-size="10.00">kernel/include/sem.h</text>
</a>
</g>
</g>
<!-- Node1&#45;&gt;Node18 -->
<g id="edge25" class="edge">
<title>Node1&#45;&gt;Node18</title>
<path fill="none" stroke="midnightblue" d="M362.17,-288.26C418.28,-269.93 529.55,-233.06 623,-199 675.91,-179.72 737.48,-155.21 769.02,-142.5"/>
<polygon fill="midnightblue" stroke="midnightblue" points="360.78,-285.03 352.36,-291.46 362.95,-291.69 360.78,-285.03"/>
</g>
<!-- Node4 -->
<g id="node4" class="node">
<title>Node4</title>
<g id="a_node4"><a xlink:href="buddy_8h.html" target="_top" xlink:title=" ">
<polygon fill="none" stroke="black" points="64.5,-179.5 64.5,-198.5 177.5,-198.5 177.5,-179.5 64.5,-179.5"/>
<text text-anchor="middle" x="121" y="-186.5" font-family="Helvetica,sans-Serif" font-size="10.00">kernel/include/buddy.h</text>
</a>
</g>
</g>
<!-- Node3&#45;&gt;Node4 -->
<g id="edge3" class="edge">
<title>Node3&#45;&gt;Node4</title>
<path fill="none" stroke="midnightblue" d="M283.59,-232.83C244.89,-222.63 188.51,-207.78 153.33,-198.52"/>
<polygon fill="midnightblue" stroke="midnightblue" points="282.96,-236.28 293.52,-235.44 284.74,-229.51 282.96,-236.28"/>
</g>
<!-- Node5 -->
<g id="node5" class="node">
<title>Node5</title>
<g id="a_node5"><a xlink:href="buddy_8c.html" target="_top" xlink:title="impl of buddy system">
<polygon fill="none" stroke="black" points="115.5,-123.5 115.5,-142.5 210.5,-142.5 210.5,-123.5 115.5,-123.5"/>
<text text-anchor="middle" x="163" y="-130.5" font-family="Helvetica,sans-Serif" font-size="10.00">kernel/src/buddy.c</text>
</a>
</g>
</g>
<!-- Node3&#45;&gt;Node5 -->
<g id="edge21" class="edge">
<title>Node3&#45;&gt;Node5</title>
<path fill="none" stroke="midnightblue" d="M292.8,-231.65C273.61,-223.74 249.48,-212.45 230,-199 205.46,-182.06 181.58,-155.89 170.1,-142.51"/>
<polygon fill="midnightblue" stroke="midnightblue" points="291.76,-235 302.34,-235.47 294.36,-228.5 291.76,-235"/>
</g>
<!-- Node6 -->
<g id="node6" class="node">
<title>Node6</title>
<g id="a_node6"><a xlink:href="pmm_8c.html" target="_top" xlink:title=" ">
<polygon fill="none" stroke="black" points="0,-123.5 0,-142.5 92,-142.5 92,-123.5 0,-123.5"/>
<text text-anchor="middle" x="46" y="-130.5" font-family="Helvetica,sans-Serif" font-size="10.00">kernel/src/pmm.c</text>
</a>
</g>
</g>
<!-- Node3&#45;&gt;Node6 -->
<g id="edge24" class="edge">
<title>Node3&#45;&gt;Node6</title>
<path fill="none" stroke="midnightblue" d="M253.03,-234.05C175.16,-223.11 61.94,-206.13 55,-199 40.22,-183.82 42.17,-156.38 44.34,-142.52"/>
<polygon fill="midnightblue" stroke="midnightblue" points="252.91,-237.57 263.3,-235.49 253.88,-230.64 252.91,-237.57"/>
</g>
<!-- Node7 -->
<g id="node7" class="node">
<title>Node7</title>
<g id="a_node7"><a xlink:href="devices_8h.html" target="_top" xlink:title=" ">
<polygon fill="none" stroke="black" points="308.5,-67.5 308.5,-86.5 429.5,-86.5 429.5,-67.5 308.5,-67.5"/>
<text text-anchor="middle" x="369" y="-74.5" font-family="Helvetica,sans-Serif" font-size="10.00">kernel/include/devices.h</text>
</a>
</g>
</g>
<!-- Node3&#45;&gt;Node7 -->
<g id="edge6" class="edge">
<title>Node3&#45;&gt;Node7</title>
<path fill="none" stroke="midnightblue" d="M307.05,-229C279.87,-205.62 235.64,-159.41 260,-123 272.81,-103.86 295.41,-92.85 316.72,-86.52"/>
<polygon fill="midnightblue" stroke="midnightblue" points="304.92,-231.78 314.84,-235.48 309.39,-226.4 304.92,-231.78"/>
</g>
<!-- Node13 -->
<g id="node13" class="node">
<title>Node13</title>
<g id="a_node13"><a xlink:href="spinlock_8h.html" target="_top" xlink:title=" ">
<polygon fill="none" stroke="black" points="392.5,-179.5 392.5,-198.5 515.5,-198.5 515.5,-179.5 392.5,-179.5"/>
<text text-anchor="middle" x="454" y="-186.5" font-family="Helvetica,sans-Serif" font-size="10.00">kernel/include/spinlock.h</text>
</a>
</g>
</g>
<!-- Node3&#45;&gt;Node13 -->
<g id="edge12" class="edge">
<title>Node3&#45;&gt;Node13</title>
<path fill="none" stroke="midnightblue" d="M355.62,-231.5C379.62,-221.38 412.78,-207.39 433.81,-198.52"/>
<polygon fill="midnightblue" stroke="midnightblue" points="354.14,-228.33 346.28,-235.44 356.86,-234.78 354.14,-228.33"/>
</g>
<!-- Node14 -->
<g id="node14" class="node">
<title>Node14</title>
<g id="a_node14"><a xlink:href="thread_8h.html" target="_top" xlink:title=" ">
<polygon fill="none" stroke="black" points="269,-123.5 269,-142.5 383,-142.5 383,-123.5 269,-123.5"/>
<text text-anchor="middle" x="326" y="-130.5" font-family="Helvetica,sans-Serif" font-size="10.00">kernel/include/thread.h</text>
</a>
</g>
</g>
<!-- Node3&#45;&gt;Node14 -->
<g id="edge20" class="edge">
<title>Node3&#45;&gt;Node14</title>
<path fill="none" stroke="midnightblue" d="M326,-225.35C326,-201.25 326,-160.31 326,-142.59"/>
<polygon fill="midnightblue" stroke="midnightblue" points="322.5,-225.37 326,-235.37 329.5,-225.37 322.5,-225.37"/>
</g>
<!-- Node15 -->
<g id="node15" class="node">
<title>Node15</title>
<g id="a_node15"><a xlink:href="kmt_8c.html" target="_top" xlink:title=" ">
<polygon fill="none" stroke="black" points="585,-67.5 585,-86.5 671,-86.5 671,-67.5 585,-67.5"/>
<text text-anchor="middle" x="628" y="-74.5" font-family="Helvetica,sans-Serif" font-size="10.00">kernel/src/kmt.c</text>
</a>
</g>
</g>
<!-- Node3&#45;&gt;Node15 -->
<g id="edge22" class="edge">
<title>Node3&#45;&gt;Node15</title>
<path fill="none" stroke="midnightblue" d="M398.71,-235.04C495.44,-221.36 658.01,-191.61 690,-143 705,-120.2 670.52,-98.2 647.2,-86.56"/>
<polygon fill="midnightblue" stroke="midnightblue" points="398.12,-231.59 388.7,-236.43 399.09,-238.52 398.12,-231.59"/>
</g>
<!-- Node16 -->
<g id="node16" class="node">
<title>Node16</title>
<g id="a_node16"><a xlink:href="os_8c.html" target="_top" xlink:title=" ">
<polygon fill="none" stroke="black" points="601,-123.5 601,-142.5 681,-142.5 681,-123.5 601,-123.5"/>
<text text-anchor="middle" x="641" y="-130.5" font-family="Helvetica,sans-Serif" font-size="10.00">kernel/src/os.c</text>
</a>
</g>
</g>
<!-- Node3&#45;&gt;Node16 -->
<g id="edge23" class="edge">
<title>Node3&#45;&gt;Node16</title>
<path fill="none" stroke="midnightblue" d="M394.12,-233.62C433.24,-226.43 482.81,-215.2 525,-199 564.87,-183.69 607.69,-156.56 628.38,-142.69"/>
<polygon fill="midnightblue" stroke="midnightblue" points="393.13,-230.24 383.9,-235.45 394.36,-237.13 393.13,-230.24"/>
</g>
<!-- Node4&#45;&gt;Node5 -->
<g id="edge4" class="edge">
<title>Node4&#45;&gt;Node5</title>
<path fill="none" stroke="midnightblue" d="M134.11,-171.14C141.43,-161.74 150.24,-150.4 156.19,-142.75"/>
<polygon fill="midnightblue" stroke="midnightblue" points="131.31,-169.04 127.94,-179.08 136.84,-173.34 131.31,-169.04"/>
</g>
<!-- Node4&#45;&gt;Node6 -->
<g id="edge5" class="edge">
<title>Node4&#45;&gt;Node6</title>
<path fill="none" stroke="midnightblue" d="M100.69,-173.38C87.14,-163.62 69.76,-151.11 58.27,-142.83"/>
<polygon fill="midnightblue" stroke="midnightblue" points="98.79,-176.32 108.95,-179.32 102.88,-170.64 98.79,-176.32"/>
</g>
<!-- Node8 -->
<g id="node8" class="node">
<title>Node8</title>
<g id="a_node8"><a xlink:href="dev_8c.html" target="_top" xlink:title=" ">
<polygon fill="none" stroke="black" points="72,-6 72,-25 176,-25 176,-6 72,-6"/>
<text text-anchor="middle" x="124" y="-13" font-family="Helvetica,sans-Serif" font-size="10.00">kernel/src/dev/dev.c</text>
</a>
</g>
</g>
<!-- Node7&#45;&gt;Node8 -->
<g id="edge7" class="edge">
<title>Node7&#45;&gt;Node8</title>
<path fill="none" stroke="midnightblue" d="M324.17,-65.11C276.62,-53.57 202.49,-35.56 159.04,-25.01"/>
<polygon fill="midnightblue" stroke="midnightblue" points="323.35,-68.52 333.9,-67.48 325.01,-61.71 323.35,-68.52"/>
</g>
<!-- Node9 -->
<g id="node9" class="node">
<title>Node9</title>
<g id="a_node9"><a xlink:href="dev__input_8c.html" target="_top" xlink:title=" ">
<polygon fill="none" stroke="black" points="194.5,-0.5 194.5,-30.5 291.5,-30.5 291.5,-0.5 194.5,-0.5"/>
<text text-anchor="start" x="202.5" y="-18.5" font-family="Helvetica,sans-Serif" font-size="10.00">kernel/src/dev/dev</text>
<text text-anchor="middle" x="243" y="-7.5" font-family="Helvetica,sans-Serif" font-size="10.00">_input.c</text>
</a>
</g>
</g>
<!-- Node7&#45;&gt;Node9 -->
<g id="edge8" class="edge">
<title>Node7&#45;&gt;Node9</title>
<path fill="none" stroke="midnightblue" d="M341.89,-63.2C321.53,-53.58 293.66,-40.42 272.7,-30.52"/>
<polygon fill="midnightblue" stroke="midnightblue" points="340.41,-66.37 350.95,-67.48 343.4,-60.04 340.41,-66.37"/>
</g>
<!-- Node10 -->
<g id="node10" class="node">
<title>Node10</title>
<g id="a_node10"><a xlink:href="dev__sd_8c.html" target="_top" xlink:title=" ">
<polygon fill="none" stroke="black" points="309,-6 309,-25 429,-25 429,-6 309,-6"/>
<text text-anchor="middle" x="369" y="-13" font-family="Helvetica,sans-Serif" font-size="10.00">kernel/src/dev/dev_sd.c</text>
</a>
</g>
</g>
<!-- Node7&#45;&gt;Node10 -->
<g id="edge9" class="edge">
<title>Node7&#45;&gt;Node10</title>
<path fill="none" stroke="midnightblue" d="M369,-57.32C369,-46.5 369,-33.4 369,-25.01"/>
<polygon fill="midnightblue" stroke="midnightblue" points="365.5,-57.48 369,-67.48 372.5,-57.48 365.5,-57.48"/>
</g>
<!-- Node11 -->
<g id="node11" class="node">
<title>Node11</title>
<g id="a_node11"><a xlink:href="dev__tty_8c.html" target="_top" xlink:title=" ">
<polygon fill="none" stroke="black" points="446.5,-0.5 446.5,-30.5 543.5,-30.5 543.5,-0.5 446.5,-0.5"/>
<text text-anchor="start" x="454.5" y="-18.5" font-family="Helvetica,sans-Serif" font-size="10.00">kernel/src/dev/dev</text>
<text text-anchor="middle" x="495" y="-7.5" font-family="Helvetica,sans-Serif" font-size="10.00">_tty.c</text>
</a>
</g>
</g>
<!-- Node7&#45;&gt;Node11 -->
<g id="edge10" class="edge">
<title>Node7&#45;&gt;Node11</title>
<path fill="none" stroke="midnightblue" d="M396.11,-63.2C416.47,-53.58 444.34,-40.42 465.3,-30.52"/>
<polygon fill="midnightblue" stroke="midnightblue" points="394.6,-60.04 387.05,-67.48 397.59,-66.37 394.6,-60.04"/>
</g>
<!-- Node12 -->
<g id="node12" class="node">
<title>Node12</title>
<g id="a_node12"><a xlink:href="dev__video_8c.html" target="_top" xlink:title=" ">
<polygon fill="none" stroke="black" points="561.5,-0.5 561.5,-30.5 658.5,-30.5 658.5,-0.5 561.5,-0.5"/>
<text text-anchor="start" x="569.5" y="-18.5" font-family="Helvetica,sans-Serif" font-size="10.00">kernel/src/dev/dev</text>
<text text-anchor="middle" x="610" y="-7.5" font-family="Helvetica,sans-Serif" font-size="10.00">_video.c</text>
</a>
</g>
</g>
<!-- Node7&#45;&gt;Node12 -->
<g id="edge11" class="edge">
<title>Node7&#45;&gt;Node12</title>
<path fill="none" stroke="midnightblue" d="M414.34,-65.04C451.6,-55.99 505.75,-42.79 553,-31 555.77,-30.31 558.62,-29.59 561.5,-28.87"/>
<polygon fill="midnightblue" stroke="midnightblue" points="413.19,-61.71 404.3,-67.47 414.84,-68.51 413.19,-61.71"/>
</g>
<!-- Node13&#45;&gt;Node7 -->
<g id="edge13" class="edge">
<title>Node13&#45;&gt;Node7</title>
<path fill="none" stroke="midnightblue" d="M441.07,-171.27C422.7,-147.49 389.7,-104.79 375.64,-86.59"/>
<polygon fill="midnightblue" stroke="midnightblue" points="438.45,-173.6 447.33,-179.37 443.99,-169.32 438.45,-173.6"/>
</g>
<!-- Node13&#45;&gt;Node14 -->
<g id="edge14" class="edge">
<title>Node13&#45;&gt;Node14</title>
<path fill="none" stroke="midnightblue" d="M424.38,-175.5C400.38,-165.38 367.22,-151.39 346.19,-142.52"/>
<polygon fill="midnightblue" stroke="midnightblue" points="423.14,-178.78 433.72,-179.44 425.86,-172.33 423.14,-178.78"/>
</g>
<!-- Node13&#45;&gt;Node15 -->
<g id="edge17" class="edge">
<title>Node13&#45;&gt;Node15</title>
<path fill="none" stroke="midnightblue" d="M487.81,-175.72C507.82,-167.75 533.23,-156.37 554,-143 580.17,-126.16 606.53,-100.41 619.59,-86.93"/>
<polygon fill="midnightblue" stroke="midnightblue" points="486.52,-172.46 478.47,-179.35 489.06,-178.99 486.52,-172.46"/>
</g>
<!-- Node13&#45;&gt;Node16 -->
<g id="edge18" class="edge">
<title>Node13&#45;&gt;Node16</title>
<path fill="none" stroke="midnightblue" d="M493.59,-176.57C528.87,-166.38 579.69,-151.7 611.51,-142.52"/>
<polygon fill="midnightblue" stroke="midnightblue" points="492.27,-173.31 483.63,-179.44 494.21,-180.03 492.27,-173.31"/>
</g>
<!-- Node17 -->
<g id="node17" class="node">
<title>Node17</title>
<g id="a_node17"><a xlink:href="spinlock_8c.html" target="_top" xlink:title=" ">
<polygon fill="none" stroke="black" points="439,-123.5 439,-142.5 545,-142.5 545,-123.5 439,-123.5"/>
<text text-anchor="middle" x="492" y="-130.5" font-family="Helvetica,sans-Serif" font-size="10.00">kernel/src/spinlock.c</text>
</a>
</g>
</g>
<!-- Node13&#45;&gt;Node17 -->
<g id="edge19" class="edge">
<title>Node13&#45;&gt;Node17</title>
<path fill="none" stroke="midnightblue" d="M466.06,-170.86C472.64,-161.5 480.51,-150.33 485.84,-142.75"/>
<polygon fill="midnightblue" stroke="midnightblue" points="463.17,-168.89 460.27,-179.08 468.89,-172.92 463.17,-168.89"/>
</g>
<!-- Node14&#45;&gt;Node7 -->
<g id="edge15" class="edge">
<title>Node14&#45;&gt;Node7</title>
<path fill="none" stroke="midnightblue" d="M339.42,-115.14C346.91,-105.74 355.94,-94.4 362.03,-86.75"/>
<polygon fill="midnightblue" stroke="midnightblue" points="336.59,-113.08 333.1,-123.08 342.07,-117.44 336.59,-113.08"/>
</g>
<!-- Node14&#45;&gt;Node15 -->
<g id="edge16" class="edge">
<title>Node14&#45;&gt;Node15</title>
<path fill="none" stroke="midnightblue" d="M383.71,-121.68C442.38,-111.19 531.95,-95.17 584.77,-85.73"/>
<polygon fill="midnightblue" stroke="midnightblue" points="383.08,-118.24 373.85,-123.44 384.31,-125.13 383.08,-118.24"/>
</g>
<!-- Node18&#45;&gt;Node7 -->
<g id="edge26" class="edge">
<title>Node18&#45;&gt;Node7</title>
<path fill="none" stroke="midnightblue" d="M726.7,-123.88C646.37,-113.58 508.78,-95.93 429.71,-85.79"/>
<polygon fill="midnightblue" stroke="midnightblue" points="726.32,-127.36 736.68,-125.16 727.21,-120.42 726.32,-127.36"/>
</g>
<!-- Node18&#45;&gt;Node15 -->
<g id="edge27" class="edge">
<title>Node18&#45;&gt;Node15</title>
<path fill="none" stroke="midnightblue" d="M754.52,-120.17C724.01,-110 680.76,-95.59 653.55,-86.52"/>
<polygon fill="midnightblue" stroke="midnightblue" points="753.74,-123.6 764.33,-123.44 755.95,-116.96 753.74,-123.6"/>
</g>
<!-- Node19 -->
<g id="node19" class="node">
<title>Node19</title>
<g id="a_node19"><a xlink:href="sem_8c.html" target="_top" xlink:title=" ">
<polygon fill="none" stroke="black" points="745.5,-67.5 745.5,-86.5 834.5,-86.5 834.5,-67.5 745.5,-67.5"/>
<text text-anchor="middle" x="790" y="-74.5" font-family="Helvetica,sans-Serif" font-size="10.00">kernel/src/sem.c</text>
</a>
</g>
</g>
<!-- Node18&#45;&gt;Node19 -->
<g id="edge28" class="edge">
<title>Node18&#45;&gt;Node19</title>
<path fill="none" stroke="midnightblue" d="M790,-112.8C790,-103.91 790,-93.78 790,-86.75"/>
<polygon fill="midnightblue" stroke="midnightblue" points="786.5,-113.08 790,-123.08 793.5,-113.08 786.5,-113.08"/>
</g>
</g>
</svg>
