<?xml version="1.0" encoding="UTF-8" standalone="no"?>
<!DOCTYPE svg PUBLIC "-//W3C//DTD SVG 1.1//EN"
 "http://www.w3.org/Graphics/SVG/1.1/DTD/svg11.dtd">
<!-- Generated by graphviz version 3.0.0 (20220413.0106)
 -->
<!-- Title: vsprintf Pages: 1 -->
<svg width="593pt" height="142pt"
 viewBox="0.00 0.00 593.00 142.00" xmlns="http://www.w3.org/2000/svg" xmlns:xlink="http://www.w3.org/1999/xlink">
<g id="graph0" class="graph" transform="scale(1 1) rotate(0) translate(4 138)">
<title>vsprintf</title>
<!-- Node1 -->
<g id="node1" class="node">
<title>Node1</title>
<g id="a_node1"><a xlink:title="write bytes (including the terminating null byte (&#39;\0&#39;)) to out.">
<polygon fill="#bfbfbf" stroke="black" points="536,-57.5 536,-76.5 585,-76.5 585,-57.5 536,-57.5"/>
<text text-anchor="middle" x="560.5" y="-64.5" font-family="Helvetica,sans-Serif" font-size="10.00">vsprintf</text>
</a>
</g>
</g>
<!-- Node2 -->
<g id="node2" class="node">
<title>Node2</title>
<g id="a_node2"><a xlink:href="stdio_8c.html#a55f3d956bb2ba20b5059e9e25484a47f" target="_top" xlink:title=" ">
<polygon fill="none" stroke="black" points="462,-57.5 462,-76.5 500,-76.5 500,-57.5 462,-57.5"/>
<text text-anchor="middle" x="481" y="-64.5" font-family="Helvetica,sans-Serif" font-size="10.00">printf</text>
</a>
</g>
</g>
<!-- Node1&#45;&gt;Node2 -->
<g id="edge1" class="edge">
<title>Node1&#45;&gt;Node2</title>
<path fill="none" stroke="midnightblue" d="M525.55,-67C516.89,-67 507.91,-67 500.37,-67"/>
<polygon fill="midnightblue" stroke="midnightblue" points="525.83,-70.5 535.83,-67 525.83,-63.5 525.83,-70.5"/>
</g>
<!-- Node3 -->
<g id="node3" class="node">
<title>Node3</title>
<g id="a_node3"><a xlink:href="dev__tty_8c.html#a1f58ad55bfbcfcb3de4088f34f76c976" target="_top" xlink:title=" ">
<polygon fill="none" stroke="black" points="336.5,-114.5 336.5,-133.5 408.5,-133.5 408.5,-114.5 336.5,-114.5"/>
<text text-anchor="middle" x="372.5" y="-121.5" font-family="Helvetica,sans-Serif" font-size="10.00">dev_tty_task</text>
</a>
</g>
</g>
<!-- Node2&#45;&gt;Node3 -->
<g id="edge2" class="edge">
<title>Node2&#45;&gt;Node3</title>
<path fill="none" stroke="midnightblue" d="M460.19,-82.86C450.32,-90.25 437.95,-98.77 426,-105 419.12,-108.58 411.42,-111.78 404.07,-114.49"/>
<polygon fill="midnightblue" stroke="midnightblue" points="462.36,-85.6 468.16,-76.73 458.09,-80.05 462.36,-85.6"/>
</g>
<!-- Node4 -->
<g id="node4" class="node">
<title>Node4</title>
<g id="a_node4"><a xlink:href="kmt_8c.html#a13cbe2d83bf10c3302124613fa18f8a4" target="_top" xlink:title="print all tasks notice: do not garantee concurrency safety">
<polygon fill="none" stroke="black" points="322,-76.5 322,-95.5 423,-95.5 423,-76.5 322,-76.5"/>
<text text-anchor="middle" x="372.5" y="-83.5" font-family="Helvetica,sans-Serif" font-size="10.00">kmt_print_all_tasks</text>
</a>
</g>
</g>
<!-- Node2&#45;&gt;Node4 -->
<g id="edge3" class="edge">
<title>Node2&#45;&gt;Node4</title>
<path fill="none" stroke="midnightblue" d="M451.9,-72.01C443.12,-73.58 433.16,-75.36 423.35,-77.11"/>
<polygon fill="midnightblue" stroke="midnightblue" points="452.7,-75.43 461.93,-70.22 451.47,-68.53 452.7,-75.43"/>
</g>
<!-- Node9 -->
<g id="node9" class="node">
<title>Node9</title>
<g id="a_node9"><a xlink:href="kmt_8c.html#ab4e9dee1880e455874374b44b5785bc3" target="_top" xlink:title="print all current_tasks notice: do not garantee concurrency safety">
<polygon fill="none" stroke="black" points="319,-38.5 319,-57.5 426,-57.5 426,-38.5 319,-38.5"/>
<text text-anchor="middle" x="372.5" y="-45.5" font-family="Helvetica,sans-Serif" font-size="10.00">kmt_print_cpu_tasks</text>
</a>
</g>
</g>
<!-- Node2&#45;&gt;Node9 -->
<g id="edge9" class="edge">
<title>Node2&#45;&gt;Node9</title>
<path fill="none" stroke="midnightblue" d="M452.08,-62.02C444.08,-60.59 435.09,-58.99 426.12,-57.39"/>
<polygon fill="midnightblue" stroke="midnightblue" points="451.47,-65.47 461.93,-63.78 452.7,-58.57 451.47,-65.47"/>
</g>
<!-- Node10 -->
<g id="node10" class="node">
<title>Node10</title>
<g id="a_node10"><a xlink:href="init_8c.html#ae66f6b31b5ad750f1fe042a706a4e3d4" target="_top" xlink:title=" ">
<polygon fill="none" stroke="black" points="353.5,-0.5 353.5,-19.5 391.5,-19.5 391.5,-0.5 353.5,-0.5"/>
<text text-anchor="middle" x="372.5" y="-7.5" font-family="Helvetica,sans-Serif" font-size="10.00">main</text>
</a>
</g>
</g>
<!-- Node2&#45;&gt;Node10 -->
<g id="edge12" class="edge">
<title>Node2&#45;&gt;Node10</title>
<path fill="none" stroke="midnightblue" d="M460.19,-51.14C450.32,-43.75 437.95,-35.23 426,-29 415.17,-23.36 402.28,-18.67 391.99,-15.36"/>
<polygon fill="midnightblue" stroke="midnightblue" points="458.09,-53.95 468.16,-57.27 462.36,-48.4 458.09,-53.95"/>
</g>
<!-- Node5 -->
<g id="node5" class="node">
<title>Node5</title>
<g id="a_node5"><a xlink:href="kmt_8c.html#ad3fbc643b7b6092120c5152b4c890354" target="_top" xlink:title="handler: handle program errors">
<polygon fill="none" stroke="black" points="215.5,-76.5 215.5,-95.5 273.5,-95.5 273.5,-76.5 215.5,-76.5"/>
<text text-anchor="middle" x="244.5" y="-83.5" font-family="Helvetica,sans-Serif" font-size="10.00">kmt_error</text>
</a>
</g>
</g>
<!-- Node4&#45;&gt;Node5 -->
<g id="edge4" class="edge">
<title>Node4&#45;&gt;Node5</title>
<path fill="none" stroke="midnightblue" d="M311.61,-86C298.32,-86 284.84,-86 273.55,-86"/>
<polygon fill="midnightblue" stroke="midnightblue" points="311.7,-89.5 321.7,-86 311.7,-82.5 311.7,-89.5"/>
</g>
<!-- Node8 -->
<g id="node8" class="node">
<title>Node8</title>
<g id="a_node8"><a xlink:href="kmt_8c.html#ad4d70b4093829da1c0b0631abdff7747" target="_top" xlink:title="handler: schedule next task to run Notice: this should be the only handler which returns real Context">
<polygon fill="none" stroke="black" points="206,-38.5 206,-57.5 283,-57.5 283,-38.5 206,-38.5"/>
<text text-anchor="middle" x="244.5" y="-45.5" font-family="Helvetica,sans-Serif" font-size="10.00">kmt_schedule</text>
</a>
</g>
</g>
<!-- Node4&#45;&gt;Node8 -->
<g id="edge7" class="edge">
<title>Node4&#45;&gt;Node8</title>
<path fill="none" stroke="midnightblue" d="M329.94,-73.46C312.79,-68.3 293.25,-62.4 277.28,-57.59"/>
<polygon fill="midnightblue" stroke="midnightblue" points="329.12,-76.87 339.7,-76.41 331.14,-70.17 329.12,-76.87"/>
</g>
<!-- Node6 -->
<g id="node6" class="node">
<title>Node6</title>
<g id="a_node6"><a xlink:href="kmt_8c.html#a0c68a294cecc4be7cb4b495f15b883a0" target="_top" xlink:title="initialize kmt module">
<polygon fill="none" stroke="black" points="119,-57.5 119,-76.5 170,-76.5 170,-57.5 119,-57.5"/>
<text text-anchor="middle" x="144.5" y="-64.5" font-family="Helvetica,sans-Serif" font-size="10.00">kmt_init</text>
</a>
</g>
</g>
<!-- Node5&#45;&gt;Node6 -->
<g id="edge5" class="edge">
<title>Node5&#45;&gt;Node6</title>
<path fill="none" stroke="midnightblue" d="M205.36,-78.6C193.56,-76.32 180.89,-73.86 170.25,-71.8"/>
<polygon fill="midnightblue" stroke="midnightblue" points="204.93,-82.09 215.42,-80.56 206.27,-75.22 204.93,-82.09"/>
</g>
<!-- Node7 -->
<g id="node7" class="node">
<title>Node7</title>
<g id="a_node7"><a xlink:href="kmt_8c.html#af360ef0d98ca30e481cc58ea3695fd58" target="_top" xlink:title=" ">
<polygon fill="none" stroke="black" points="0,-57.5 0,-76.5 83,-76.5 83,-57.5 0,-57.5"/>
<text text-anchor="middle" x="41.5" y="-64.5" font-family="Helvetica,sans-Serif" font-size="10.00">MODULE_DEF</text>
</a>
</g>
</g>
<!-- Node6&#45;&gt;Node7 -->
<g id="edge6" class="edge">
<title>Node6&#45;&gt;Node7</title>
<path fill="none" stroke="midnightblue" d="M108.74,-67C100.47,-67 91.58,-67 83.08,-67"/>
<polygon fill="midnightblue" stroke="midnightblue" points="108.79,-70.5 118.79,-67 108.79,-63.5 108.79,-70.5"/>
</g>
<!-- Node8&#45;&gt;Node6 -->
<g id="edge8" class="edge">
<title>Node8&#45;&gt;Node6</title>
<path fill="none" stroke="midnightblue" d="M195.91,-57.23C186.99,-58.96 178,-60.7 170.14,-62.22"/>
<polygon fill="midnightblue" stroke="midnightblue" points="196.74,-60.63 205.89,-55.29 195.41,-53.76 196.74,-60.63"/>
</g>
<!-- Node9&#45;&gt;Node5 -->
<g id="edge10" class="edge">
<title>Node9&#45;&gt;Node5</title>
<path fill="none" stroke="midnightblue" d="M330.08,-60.49C311.66,-66.05 290.43,-72.45 273.85,-77.45"/>
<polygon fill="midnightblue" stroke="midnightblue" points="331.14,-63.83 339.7,-57.59 329.12,-57.13 331.14,-63.83"/>
</g>
<!-- Node9&#45;&gt;Node8 -->
<g id="edge11" class="edge">
<title>Node9&#45;&gt;Node8</title>
<path fill="none" stroke="midnightblue" d="M308.59,-48C299.85,-48 291.12,-48 283.05,-48"/>
<polygon fill="midnightblue" stroke="midnightblue" points="308.79,-51.5 318.79,-48 308.79,-44.5 308.79,-51.5"/>
</g>
</g>
</svg>
