<?xml version="1.0" encoding="UTF-8" standalone="no"?>
<!DOCTYPE svg PUBLIC "-//W3C//DTD SVG 1.1//EN"
 "http://www.w3.org/Graphics/SVG/1.1/DTD/svg11.dtd">
<!-- Generated by graphviz version 3.0.0 (20220413.0106)
 -->
<!-- Title: abstract&#45;machine/klib/include/klib&#45;macros.h Pages: 1 -->
<svg width="1262pt" height="296pt"
 viewBox="0.00 0.00 1262.00 296.00" xmlns="http://www.w3.org/2000/svg" xmlns:xlink="http://www.w3.org/1999/xlink">
<g id="graph0" class="graph" transform="scale(1 1) rotate(0) translate(4 292)">
<title>abstract&#45;machine/klib/include/klib&#45;macros.h</title>
<!-- Node1 -->
<g id="node1" class="node">
<title>Node1</title>
<g id="a_node1"><a xlink:title=" ">
<polygon fill="#bfbfbf" stroke="black" points="612.5,-257.5 612.5,-287.5 723.5,-287.5 723.5,-257.5 612.5,-257.5"/>
<text text-anchor="start" x="620.5" y="-275.5" font-family="Helvetica,sans-Serif" font-size="10.00">abstract&#45;machine/klib</text>
<text text-anchor="middle" x="668" y="-264.5" font-family="Helvetica,sans-Serif" font-size="10.00">/include/klib&#45;macros.h</text>
</a>
</g>
</g>
<!-- Node2 -->
<g id="node2" class="node">
<title>Node2</title>
<g id="a_node2"><a xlink:href="x86-qemu_8h.html" target="_top" xlink:title=" ">
<polygon fill="none" stroke="black" points="303.5,-190.5 303.5,-220.5 434.5,-220.5 434.5,-190.5 303.5,-190.5"/>
<text text-anchor="start" x="311.5" y="-208.5" font-family="Helvetica,sans-Serif" font-size="10.00">abstract&#45;machine/am</text>
<text text-anchor="middle" x="369" y="-197.5" font-family="Helvetica,sans-Serif" font-size="10.00">/src/x86/qemu/x86&#45;qemu.h</text>
</a>
</g>
</g>
<!-- Node1&#45;&gt;Node2 -->
<g id="edge1" class="edge">
<title>Node1&#45;&gt;Node2</title>
<path fill="none" stroke="midnightblue" d="M602.69,-257.3C552.52,-246.4 483.59,-231.41 433.6,-220.54"/>
<polygon fill="midnightblue" stroke="midnightblue" points="601.95,-260.72 612.46,-259.43 603.43,-253.88 601.95,-260.72"/>
</g>
<!-- Node8 -->
<g id="node8" class="node">
<title>Node8</title>
<g id="a_node8"><a xlink:href="stdio_8c.html" target="_top" xlink:title=" ">
<polygon fill="none" stroke="black" points="549,-190.5 549,-220.5 659,-220.5 659,-190.5 549,-190.5"/>
<text text-anchor="start" x="557" y="-208.5" font-family="Helvetica,sans-Serif" font-size="10.00">abstract&#45;machine/klib</text>
<text text-anchor="middle" x="604" y="-197.5" font-family="Helvetica,sans-Serif" font-size="10.00">/src/stdio.c</text>
</a>
</g>
</g>
<!-- Node1&#45;&gt;Node8 -->
<g id="edge7" class="edge">
<title>Node1&#45;&gt;Node8</title>
<path fill="none" stroke="midnightblue" d="M646.85,-250.02C637.32,-240.34 626.33,-229.17 617.86,-220.58"/>
<polygon fill="midnightblue" stroke="midnightblue" points="644.6,-252.73 654.11,-257.4 649.59,-247.81 644.6,-252.73"/>
</g>
<!-- Node9 -->
<g id="node9" class="node">
<title>Node9</title>
<g id="a_node9"><a xlink:href="stdlib_8c.html" target="_top" xlink:title=" ">
<polygon fill="none" stroke="black" points="677,-190.5 677,-220.5 787,-220.5 787,-190.5 677,-190.5"/>
<text text-anchor="start" x="685" y="-208.5" font-family="Helvetica,sans-Serif" font-size="10.00">abstract&#45;machine/klib</text>
<text text-anchor="middle" x="732" y="-197.5" font-family="Helvetica,sans-Serif" font-size="10.00">/src/stdlib.c</text>
</a>
</g>
</g>
<!-- Node1&#45;&gt;Node9 -->
<g id="edge8" class="edge">
<title>Node1&#45;&gt;Node9</title>
<path fill="none" stroke="midnightblue" d="M689.15,-250.02C698.68,-240.34 709.67,-229.17 718.14,-220.58"/>
<polygon fill="midnightblue" stroke="midnightblue" points="686.41,-247.81 681.89,-257.4 691.4,-252.73 686.41,-247.81"/>
</g>
<!-- Node10 -->
<g id="node10" class="node">
<title>Node10</title>
<g id="a_node10"><a xlink:href="common_8h.html" target="_top" xlink:title=" ">
<polygon fill="none" stroke="black" points="837.5,-196 837.5,-215 962.5,-215 962.5,-196 837.5,-196"/>
<text text-anchor="middle" x="900" y="-203" font-family="Helvetica,sans-Serif" font-size="10.00">kernel/include/common.h</text>
</a>
</g>
</g>
<!-- Node1&#45;&gt;Node10 -->
<g id="edge9" class="edge">
<title>Node1&#45;&gt;Node10</title>
<path fill="none" stroke="midnightblue" d="M727.78,-254.75C773.16,-242.04 833.67,-225.09 869.56,-215.03"/>
<polygon fill="midnightblue" stroke="midnightblue" points="726.74,-251.41 718.05,-257.48 728.63,-258.15 726.74,-251.41"/>
</g>
<!-- Node3 -->
<g id="node3" class="node">
<title>Node3</title>
<g id="a_node3"><a xlink:href="cte_8c.html" target="_top" xlink:title=" ">
<polygon fill="none" stroke="black" points="126,-123.5 126,-153.5 234,-153.5 234,-123.5 126,-123.5"/>
<text text-anchor="start" x="134" y="-141.5" font-family="Helvetica,sans-Serif" font-size="10.00">abstract&#45;machine/am</text>
<text text-anchor="middle" x="180" y="-130.5" font-family="Helvetica,sans-Serif" font-size="10.00">/src/x86/qemu/cte.c</text>
</a>
</g>
</g>
<!-- Node2&#45;&gt;Node3 -->
<g id="edge2" class="edge">
<title>Node2&#45;&gt;Node3</title>
<path fill="none" stroke="midnightblue" d="M318.38,-187.09C287.87,-176.6 249.52,-163.41 220.93,-153.58"/>
<polygon fill="midnightblue" stroke="midnightblue" points="317.4,-190.45 327.99,-190.4 319.67,-183.83 317.4,-190.45"/>
</g>
<!-- Node4 -->
<g id="node4" class="node">
<title>Node4</title>
<g id="a_node4"><a xlink:href="ioe_8c.html" target="_top" xlink:title=" ">
<polygon fill="none" stroke="black" points="252,-123.5 252,-153.5 360,-153.5 360,-123.5 252,-123.5"/>
<text text-anchor="start" x="260" y="-141.5" font-family="Helvetica,sans-Serif" font-size="10.00">abstract&#45;machine/am</text>
<text text-anchor="middle" x="306" y="-130.5" font-family="Helvetica,sans-Serif" font-size="10.00">/src/x86/qemu/ioe.c</text>
</a>
</g>
</g>
<!-- Node2&#45;&gt;Node4 -->
<g id="edge3" class="edge">
<title>Node2&#45;&gt;Node4</title>
<path fill="none" stroke="midnightblue" d="M348.19,-183.02C338.8,-173.34 327.98,-162.17 319.64,-153.58"/>
<polygon fill="midnightblue" stroke="midnightblue" points="345.86,-185.65 355.33,-190.4 350.88,-180.78 345.86,-185.65"/>
</g>
<!-- Node5 -->
<g id="node5" class="node">
<title>Node5</title>
<g id="a_node5"><a xlink:href="mpe_8c.html" target="_top" xlink:title=" ">
<polygon fill="none" stroke="black" points="378,-123.5 378,-153.5 486,-153.5 486,-123.5 378,-123.5"/>
<text text-anchor="start" x="386" y="-141.5" font-family="Helvetica,sans-Serif" font-size="10.00">abstract&#45;machine/am</text>
<text text-anchor="middle" x="432" y="-130.5" font-family="Helvetica,sans-Serif" font-size="10.00">/src/x86/qemu/mpe.c</text>
</a>
</g>
</g>
<!-- Node2&#45;&gt;Node5 -->
<g id="edge4" class="edge">
<title>Node2&#45;&gt;Node5</title>
<path fill="none" stroke="midnightblue" d="M389.81,-183.02C399.2,-173.34 410.02,-162.17 418.36,-153.58"/>
<polygon fill="midnightblue" stroke="midnightblue" points="387.12,-180.78 382.67,-190.4 392.14,-185.65 387.12,-180.78"/>
</g>
<!-- Node6 -->
<g id="node6" class="node">
<title>Node6</title>
<g id="a_node6"><a xlink:href="trm_8c.html" target="_top" xlink:title=" ">
<polygon fill="none" stroke="black" points="504,-123.5 504,-153.5 612,-153.5 612,-123.5 504,-123.5"/>
<text text-anchor="start" x="512" y="-141.5" font-family="Helvetica,sans-Serif" font-size="10.00">abstract&#45;machine/am</text>
<text text-anchor="middle" x="558" y="-130.5" font-family="Helvetica,sans-Serif" font-size="10.00">/src/x86/qemu/trm.c</text>
</a>
</g>
</g>
<!-- Node2&#45;&gt;Node6 -->
<g id="edge5" class="edge">
<title>Node2&#45;&gt;Node6</title>
<path fill="none" stroke="midnightblue" d="M419.62,-187.09C450.13,-176.6 488.48,-163.41 517.07,-153.58"/>
<polygon fill="midnightblue" stroke="midnightblue" points="418.33,-183.83 410.01,-190.4 420.6,-190.45 418.33,-183.83"/>
</g>
<!-- Node7 -->
<g id="node7" class="node">
<title>Node7</title>
<g id="a_node7"><a xlink:href="vme_8c.html" target="_top" xlink:title=" ">
<polygon fill="none" stroke="black" points="0,-123.5 0,-153.5 108,-153.5 108,-123.5 0,-123.5"/>
<text text-anchor="start" x="8" y="-141.5" font-family="Helvetica,sans-Serif" font-size="10.00">abstract&#45;machine/am</text>
<text text-anchor="middle" x="54" y="-130.5" font-family="Helvetica,sans-Serif" font-size="10.00">/src/x86/qemu/vme.c</text>
</a>
</g>
</g>
<!-- Node2&#45;&gt;Node7 -->
<g id="edge6" class="edge">
<title>Node2&#45;&gt;Node7</title>
<path fill="none" stroke="midnightblue" d="M293.26,-189.91C243.16,-180.11 176.07,-166.71 117,-154 114.15,-153.39 111.22,-152.75 108.27,-152.09"/>
<polygon fill="midnightblue" stroke="midnightblue" points="292.88,-193.4 303.36,-191.88 294.22,-186.53 292.88,-193.4"/>
</g>
<!-- Node11 -->
<g id="node11" class="node">
<title>Node11</title>
<g id="a_node11"><a xlink:href="buddy_8h.html" target="_top" xlink:title=" ">
<polygon fill="none" stroke="black" points="1056.5,-129 1056.5,-148 1169.5,-148 1169.5,-129 1056.5,-129"/>
<text text-anchor="middle" x="1113" y="-136" font-family="Helvetica,sans-Serif" font-size="10.00">kernel/include/buddy.h</text>
</a>
</g>
</g>
<!-- Node10&#45;&gt;Node11 -->
<g id="edge10" class="edge">
<title>Node10&#45;&gt;Node11</title>
<path fill="none" stroke="midnightblue" d="M937.92,-192.93C980.09,-180.06 1047.23,-159.57 1084.94,-148.06"/>
<polygon fill="midnightblue" stroke="midnightblue" points="936.83,-189.6 928.28,-195.87 938.87,-196.3 936.83,-189.6"/>
</g>
<!-- Node12 -->
<g id="node12" class="node">
<title>Node12</title>
<g id="a_node12"><a xlink:href="buddy_8c.html" target="_top" xlink:title="impl of buddy system">
<polygon fill="none" stroke="black" points="1048.5,-67.5 1048.5,-86.5 1143.5,-86.5 1143.5,-67.5 1048.5,-67.5"/>
<text text-anchor="middle" x="1096" y="-74.5" font-family="Helvetica,sans-Serif" font-size="10.00">kernel/src/buddy.c</text>
</a>
</g>
</g>
<!-- Node10&#45;&gt;Node12 -->
<g id="edge27" class="edge">
<title>Node10&#45;&gt;Node12</title>
<path fill="none" stroke="midnightblue" d="M925.77,-191.26C944.26,-181.51 969.58,-167.63 991,-154 1026.51,-131.41 1066.17,-101.27 1084.97,-86.66"/>
<polygon fill="midnightblue" stroke="midnightblue" points="924.03,-188.22 916.79,-195.96 927.27,-194.43 924.03,-188.22"/>
</g>
<!-- Node13 -->
<g id="node13" class="node">
<title>Node13</title>
<g id="a_node13"><a xlink:href="pmm_8c.html" target="_top" xlink:title=" ">
<polygon fill="none" stroke="black" points="1162,-67.5 1162,-86.5 1254,-86.5 1254,-67.5 1162,-67.5"/>
<text text-anchor="middle" x="1208" y="-74.5" font-family="Helvetica,sans-Serif" font-size="10.00">kernel/src/pmm.c</text>
</a>
</g>
</g>
<!-- Node10&#45;&gt;Node13 -->
<g id="edge30" class="edge">
<title>Node10&#45;&gt;Node13</title>
<path fill="none" stroke="midnightblue" d="M973.09,-199.35C1045.01,-192.89 1148.36,-179.43 1179,-154 1199.87,-136.68 1205.75,-102.59 1207.38,-86.63"/>
<polygon fill="midnightblue" stroke="midnightblue" points="972.38,-195.9 962.72,-200.25 972.99,-202.87 972.38,-195.9"/>
</g>
<!-- Node14 -->
<g id="node14" class="node">
<title>Node14</title>
<g id="a_node14"><a xlink:href="devices_8h.html" target="_top" xlink:title=" ">
<polygon fill="none" stroke="black" points="582.5,-67.5 582.5,-86.5 703.5,-86.5 703.5,-67.5 582.5,-67.5"/>
<text text-anchor="middle" x="643" y="-74.5" font-family="Helvetica,sans-Serif" font-size="10.00">kernel/include/devices.h</text>
</a>
</g>
</g>
<!-- Node10&#45;&gt;Node14 -->
<g id="edge13" class="edge">
<title>Node10&#45;&gt;Node14</title>
<path fill="none" stroke="midnightblue" d="M833.6,-194.39C766.63,-183.6 671.39,-166.38 659,-154 640.78,-135.8 640.84,-102.45 642.05,-86.69"/>
<polygon fill="midnightblue" stroke="midnightblue" points="833.25,-197.88 843.68,-196 834.36,-190.97 833.25,-197.88"/>
</g>
<!-- Node20 -->
<g id="node20" class="node">
<title>Node20</title>
<g id="a_node20"><a xlink:href="spinlock_8h.html" target="_top" xlink:title=" ">
<polygon fill="none" stroke="black" points="838.5,-129 838.5,-148 961.5,-148 961.5,-129 838.5,-129"/>
<text text-anchor="middle" x="900" y="-136" font-family="Helvetica,sans-Serif" font-size="10.00">kernel/include/spinlock.h</text>
</a>
</g>
</g>
<!-- Node10&#45;&gt;Node20 -->
<g id="edge19" class="edge">
<title>Node10&#45;&gt;Node20</title>
<path fill="none" stroke="midnightblue" d="M900,-185.54C900,-173.17 900,-157.62 900,-148.13"/>
<polygon fill="midnightblue" stroke="midnightblue" points="896.5,-185.73 900,-195.73 903.5,-185.73 896.5,-185.73"/>
</g>
<!-- Node21 -->
<g id="node21" class="node">
<title>Node21</title>
<g id="a_node21"><a xlink:href="kmt_8c.html" target="_top" xlink:title=" ">
<polygon fill="none" stroke="black" points="722,-67.5 722,-86.5 808,-86.5 808,-67.5 722,-67.5"/>
<text text-anchor="middle" x="765" y="-74.5" font-family="Helvetica,sans-Serif" font-size="10.00">kernel/src/kmt.c</text>
</a>
</g>
</g>
<!-- Node10&#45;&gt;Node21 -->
<g id="edge28" class="edge">
<title>Node10&#45;&gt;Node21</title>
<path fill="none" stroke="midnightblue" d="M877.43,-190.23C863.18,-180.74 844.74,-167.57 830,-154 805.99,-131.89 782.19,-101.27 771.24,-86.56"/>
<polygon fill="midnightblue" stroke="midnightblue" points="875.83,-193.36 886.11,-195.9 879.65,-187.5 875.83,-193.36"/>
</g>
<!-- Node22 -->
<g id="node22" class="node">
<title>Node22</title>
<g id="a_node22"><a xlink:href="os_8c.html" target="_top" xlink:title=" ">
<polygon fill="none" stroke="black" points="950,-67.5 950,-86.5 1030,-86.5 1030,-67.5 950,-67.5"/>
<text text-anchor="middle" x="990" y="-74.5" font-family="Helvetica,sans-Serif" font-size="10.00">kernel/src/os.c</text>
</a>
</g>
</g>
<!-- Node10&#45;&gt;Node22 -->
<g id="edge29" class="edge">
<title>Node10&#45;&gt;Node22</title>
<path fill="none" stroke="midnightblue" d="M927.77,-190.98C942.7,-182.36 960.2,-169.83 971,-154 985.41,-132.88 988.9,-101.79 989.74,-86.77"/>
<polygon fill="midnightblue" stroke="midnightblue" points="925.99,-187.97 918.9,-195.84 929.35,-194.11 925.99,-187.97"/>
</g>
<!-- Node24 -->
<g id="node24" class="node">
<title>Node24</title>
<g id="a_node24"><a xlink:href="thread_8h.html" target="_top" xlink:title=" ">
<polygon fill="none" stroke="black" points="668,-129 668,-148 782,-148 782,-129 668,-129"/>
<text text-anchor="middle" x="725" y="-136" font-family="Helvetica,sans-Serif" font-size="10.00">kernel/include/thread.h</text>
</a>
</g>
</g>
<!-- Node10&#45;&gt;Node24 -->
<g id="edge24" class="edge">
<title>Node10&#45;&gt;Node24</title>
<path fill="none" stroke="midnightblue" d="M867.07,-192.27C832.34,-179.37 778.51,-159.38 748.06,-148.06"/>
<polygon fill="midnightblue" stroke="midnightblue" points="866.17,-195.67 876.76,-195.87 868.61,-189.11 866.17,-195.67"/>
</g>
<!-- Node11&#45;&gt;Node12 -->
<g id="edge11" class="edge">
<title>Node11&#45;&gt;Node12</title>
<path fill="none" stroke="midnightblue" d="M1107.76,-119.16C1104.65,-108.27 1100.85,-94.99 1098.43,-86.51"/>
<polygon fill="midnightblue" stroke="midnightblue" points="1104.45,-120.32 1110.56,-128.98 1111.18,-118.4 1104.45,-120.32"/>
</g>
<!-- Node11&#45;&gt;Node13 -->
<g id="edge12" class="edge">
<title>Node11&#45;&gt;Node13</title>
<path fill="none" stroke="midnightblue" d="M1135.21,-123.59C1153.55,-112.1 1178.98,-96.18 1194.41,-86.51"/>
<polygon fill="midnightblue" stroke="midnightblue" points="1133.23,-120.7 1126.61,-128.98 1136.94,-126.63 1133.23,-120.7"/>
</g>
<!-- Node15 -->
<g id="node15" class="node">
<title>Node15</title>
<g id="a_node15"><a xlink:href="dev_8c.html" target="_top" xlink:title=" ">
<polygon fill="none" stroke="black" points="346,-6 346,-25 450,-25 450,-6 346,-6"/>
<text text-anchor="middle" x="398" y="-13" font-family="Helvetica,sans-Serif" font-size="10.00">kernel/src/dev/dev.c</text>
</a>
</g>
</g>
<!-- Node14&#45;&gt;Node15 -->
<g id="edge14" class="edge">
<title>Node14&#45;&gt;Node15</title>
<path fill="none" stroke="midnightblue" d="M598.17,-65.11C550.62,-53.57 476.49,-35.56 433.04,-25.01"/>
<polygon fill="midnightblue" stroke="midnightblue" points="597.35,-68.52 607.9,-67.48 599.01,-61.71 597.35,-68.52"/>
</g>
<!-- Node16 -->
<g id="node16" class="node">
<title>Node16</title>
<g id="a_node16"><a xlink:href="dev__input_8c.html" target="_top" xlink:title=" ">
<polygon fill="none" stroke="black" points="468.5,-0.5 468.5,-30.5 565.5,-30.5 565.5,-0.5 468.5,-0.5"/>
<text text-anchor="start" x="476.5" y="-18.5" font-family="Helvetica,sans-Serif" font-size="10.00">kernel/src/dev/dev</text>
<text text-anchor="middle" x="517" y="-7.5" font-family="Helvetica,sans-Serif" font-size="10.00">_input.c</text>
</a>
</g>
</g>
<!-- Node14&#45;&gt;Node16 -->
<g id="edge15" class="edge">
<title>Node14&#45;&gt;Node16</title>
<path fill="none" stroke="midnightblue" d="M615.89,-63.2C595.53,-53.58 567.66,-40.42 546.7,-30.52"/>
<polygon fill="midnightblue" stroke="midnightblue" points="614.41,-66.37 624.95,-67.48 617.4,-60.04 614.41,-66.37"/>
</g>
<!-- Node17 -->
<g id="node17" class="node">
<title>Node17</title>
<g id="a_node17"><a xlink:href="dev__sd_8c.html" target="_top" xlink:title=" ">
<polygon fill="none" stroke="black" points="583,-6 583,-25 703,-25 703,-6 583,-6"/>
<text text-anchor="middle" x="643" y="-13" font-family="Helvetica,sans-Serif" font-size="10.00">kernel/src/dev/dev_sd.c</text>
</a>
</g>
</g>
<!-- Node14&#45;&gt;Node17 -->
<g id="edge16" class="edge">
<title>Node14&#45;&gt;Node17</title>
<path fill="none" stroke="midnightblue" d="M643,-57.32C643,-46.5 643,-33.4 643,-25.01"/>
<polygon fill="midnightblue" stroke="midnightblue" points="639.5,-57.48 643,-67.48 646.5,-57.48 639.5,-57.48"/>
</g>
<!-- Node18 -->
<g id="node18" class="node">
<title>Node18</title>
<g id="a_node18"><a xlink:href="dev__tty_8c.html" target="_top" xlink:title=" ">
<polygon fill="none" stroke="black" points="720.5,-0.5 720.5,-30.5 817.5,-30.5 817.5,-0.5 720.5,-0.5"/>
<text text-anchor="start" x="728.5" y="-18.5" font-family="Helvetica,sans-Serif" font-size="10.00">kernel/src/dev/dev</text>
<text text-anchor="middle" x="769" y="-7.5" font-family="Helvetica,sans-Serif" font-size="10.00">_tty.c</text>
</a>
</g>
</g>
<!-- Node14&#45;&gt;Node18 -->
<g id="edge17" class="edge">
<title>Node14&#45;&gt;Node18</title>
<path fill="none" stroke="midnightblue" d="M670.11,-63.2C690.47,-53.58 718.34,-40.42 739.3,-30.52"/>
<polygon fill="midnightblue" stroke="midnightblue" points="668.6,-60.04 661.05,-67.48 671.59,-66.37 668.6,-60.04"/>
</g>
<!-- Node19 -->
<g id="node19" class="node">
<title>Node19</title>
<g id="a_node19"><a xlink:href="dev__video_8c.html" target="_top" xlink:title=" ">
<polygon fill="none" stroke="black" points="835.5,-0.5 835.5,-30.5 932.5,-30.5 932.5,-0.5 835.5,-0.5"/>
<text text-anchor="start" x="843.5" y="-18.5" font-family="Helvetica,sans-Serif" font-size="10.00">kernel/src/dev/dev</text>
<text text-anchor="middle" x="884" y="-7.5" font-family="Helvetica,sans-Serif" font-size="10.00">_video.c</text>
</a>
</g>
</g>
<!-- Node14&#45;&gt;Node19 -->
<g id="edge18" class="edge">
<title>Node14&#45;&gt;Node19</title>
<path fill="none" stroke="midnightblue" d="M688.34,-65.04C725.6,-55.99 779.75,-42.79 827,-31 829.77,-30.31 832.62,-29.59 835.5,-28.87"/>
<polygon fill="midnightblue" stroke="midnightblue" points="687.19,-61.71 678.3,-67.47 688.84,-68.51 687.19,-61.71"/>
</g>
<!-- Node20&#45;&gt;Node14 -->
<g id="edge20" class="edge">
<title>Node20&#45;&gt;Node14</title>
<path fill="none" stroke="midnightblue" d="M853.29,-126.69C803.42,-115.14 725.43,-97.08 679.75,-86.51"/>
<polygon fill="midnightblue" stroke="midnightblue" points="852.65,-130.13 863.18,-128.98 854.23,-123.31 852.65,-130.13"/>
</g>
<!-- Node20&#45;&gt;Node21 -->
<g id="edge21" class="edge">
<title>Node20&#45;&gt;Node21</title>
<path fill="none" stroke="midnightblue" d="M871.25,-124.83C845.04,-113.28 807.05,-96.53 784.31,-86.51"/>
<polygon fill="midnightblue" stroke="midnightblue" points="870.1,-128.14 880.66,-128.98 872.92,-121.74 870.1,-128.14"/>
</g>
<!-- Node20&#45;&gt;Node22 -->
<g id="edge22" class="edge">
<title>Node20&#45;&gt;Node22</title>
<path fill="none" stroke="midnightblue" d="M921.28,-123.43C938.63,-111.96 962.57,-96.13 977.13,-86.51"/>
<polygon fill="midnightblue" stroke="midnightblue" points="919.31,-120.54 912.89,-128.98 923.17,-126.38 919.31,-120.54"/>
</g>
<!-- Node23 -->
<g id="node23" class="node">
<title>Node23</title>
<g id="a_node23"><a xlink:href="spinlock_8c.html" target="_top" xlink:title=" ">
<polygon fill="none" stroke="black" points="826,-67.5 826,-86.5 932,-86.5 932,-67.5 826,-67.5"/>
<text text-anchor="middle" x="879" y="-74.5" font-family="Helvetica,sans-Serif" font-size="10.00">kernel/src/spinlock.c</text>
</a>
</g>
</g>
<!-- Node20&#45;&gt;Node23 -->
<g id="edge23" class="edge">
<title>Node20&#45;&gt;Node23</title>
<path fill="none" stroke="midnightblue" d="M893.65,-119.5C889.78,-108.55 885.03,-95.07 882,-86.51"/>
<polygon fill="midnightblue" stroke="midnightblue" points="890.36,-120.71 896.99,-128.98 896.96,-118.38 890.36,-120.71"/>
</g>
<!-- Node24&#45;&gt;Node14 -->
<g id="edge25" class="edge">
<title>Node24&#45;&gt;Node14</title>
<path fill="none" stroke="midnightblue" d="M704.73,-122.79C689,-111.38 667.75,-95.96 654.73,-86.51"/>
<polygon fill="midnightblue" stroke="midnightblue" points="703.1,-125.93 713.25,-128.98 707.21,-120.27 703.1,-125.93"/>
</g>
<!-- Node24&#45;&gt;Node21 -->
<g id="edge26" class="edge">
<title>Node24&#45;&gt;Node21</title>
<path fill="none" stroke="midnightblue" d="M736.43,-120.51C743.9,-109.39 753.34,-95.34 759.28,-86.51"/>
<polygon fill="midnightblue" stroke="midnightblue" points="733.41,-118.72 730.73,-128.98 739.21,-122.63 733.41,-118.72"/>
</g>
</g>
</svg>
