<?xml version="1.0" encoding="UTF-8" standalone="no"?>
<!DOCTYPE svg PUBLIC "-//W3C//DTD SVG 1.1//EN"
 "http://www.w3.org/Graphics/SVG/1.1/DTD/svg11.dtd">
<!-- Generated by graphviz version 2.50.0 (20220203.2022)
 -->
<!-- Title: sprintf Pages: 1 -->
<svg width="309pt" height="104pt"
 viewBox="0.00 0.00 309.00 104.00" xmlns="http://www.w3.org/2000/svg" xmlns:xlink="http://www.w3.org/1999/xlink">
<g id="graph0" class="graph" transform="scale(1 1) rotate(0) translate(4 100)">
<title>sprintf</title>
<!-- Node1 -->
<g id="node1" class="node">
<title>Node1</title>
<g id="a_node1"><a xlink:title=" ">
<polygon fill="#bfbfbf" stroke="black" points="0,-38.5 0,-57.5 44,-57.5 44,-38.5 0,-38.5"/>
<text text-anchor="middle" x="22" y="-45.5" font-family="Helvetica,sans-Serif" font-size="10.00">sprintf</text>
</a>
</g>
</g>
<!-- Node2 -->
<g id="node2" class="node">
<title>Node2</title>
<g id="a_node2"><a xlink:href="stdio_8c.html#a44a6734c6f8f81d8e1fa3b9d476c5134" target="_top" xlink:title=" ">
<polygon fill="none" stroke="black" points="80,-38.5 80,-57.5 129,-57.5 129,-38.5 80,-38.5"/>
<text text-anchor="middle" x="104.5" y="-45.5" font-family="Helvetica,sans-Serif" font-size="10.00">vsprintf</text>
</a>
</g>
</g>
<!-- Node1&#45;&gt;Node2 -->
<g id="edge1" class="edge">
<title>Node1&#45;&gt;Node2</title>
<path fill="none" stroke="midnightblue" d="M44.15,-48C51.97,-48 61.03,-48 69.69,-48"/>
<polygon fill="midnightblue" stroke="midnightblue" points="69.94,-51.5 79.94,-48 69.94,-44.5 69.94,-51.5"/>
</g>
<!-- Node3 -->
<g id="node3" class="node">
<title>Node3</title>
<g id="a_node3"><a xlink:href="string_8c.html#a9517a4a50477f651785c09b27826d8ce" target="_top" xlink:title=" ">
<polygon fill="none" stroke="black" points="174,-76.5 174,-95.5 215,-95.5 215,-76.5 174,-76.5"/>
<text text-anchor="middle" x="194.5" y="-83.5" font-family="Helvetica,sans-Serif" font-size="10.00">strcat</text>
</a>
</g>
</g>
<!-- Node2&#45;&gt;Node3 -->
<g id="edge2" class="edge">
<title>Node2&#45;&gt;Node3</title>
<path fill="none" stroke="midnightblue" d="M127.71,-57.59C138.96,-62.45 152.75,-68.4 164.79,-73.6"/>
<polygon fill="midnightblue" stroke="midnightblue" points="163.43,-76.83 174,-77.58 166.2,-70.4 163.43,-76.83"/>
</g>
<!-- Node4 -->
<g id="node4" class="node">
<title>Node4</title>
<g id="a_node4"><a xlink:href="string_8c.html#aa383452fe445bfae989358c9d7d96f4f" target="_top" xlink:title=" ">
<polygon fill="none" stroke="black" points="260,-57.5 260,-76.5 301,-76.5 301,-57.5 260,-57.5"/>
<text text-anchor="middle" x="280.5" y="-64.5" font-family="Helvetica,sans-Serif" font-size="10.00">strlen</text>
</a>
</g>
</g>
<!-- Node2&#45;&gt;Node4 -->
<g id="edge4" class="edge">
<title>Node2&#45;&gt;Node4</title>
<path fill="none" stroke="midnightblue" d="M129.33,-50.6C160.66,-54.02 215.69,-60.03 249.73,-63.75"/>
<polygon fill="midnightblue" stroke="midnightblue" points="249.66,-67.26 259.98,-64.87 250.42,-60.3 249.66,-67.26"/>
</g>
<!-- Node5 -->
<g id="node5" class="node">
<title>Node5</title>
<g id="a_node5"><a xlink:href="stdio_8c.html#a8a0e94b5b0c2a000751f94fd7a5c0071" target="_top" xlink:title=" ">
<polygon fill="none" stroke="black" points="165,-0.5 165,-19.5 224,-19.5 224,-0.5 165,-0.5"/>
<text text-anchor="middle" x="194.5" y="-7.5" font-family="Helvetica,sans-Serif" font-size="10.00">vprintf_int</text>
</a>
</g>
</g>
<!-- Node2&#45;&gt;Node5 -->
<g id="edge5" class="edge">
<title>Node2&#45;&gt;Node5</title>
<path fill="none" stroke="midnightblue" d="M127.71,-38.41C138.13,-33.91 150.73,-28.47 162.11,-23.56"/>
<polygon fill="midnightblue" stroke="midnightblue" points="163.51,-26.76 171.3,-19.59 160.73,-20.34 163.51,-26.76"/>
</g>
<!-- Node3&#45;&gt;Node4 -->
<g id="edge3" class="edge">
<title>Node3&#45;&gt;Node4</title>
<path fill="none" stroke="midnightblue" d="M215.41,-81.5C225.66,-79.18 238.37,-76.3 249.76,-73.73"/>
<polygon fill="midnightblue" stroke="midnightblue" points="250.75,-77.09 259.74,-71.47 249.21,-70.26 250.75,-77.09"/>
</g>
</g>
</svg>
