<?xml version="1.0" encoding="UTF-8" standalone="no"?>
<!DOCTYPE svg PUBLIC "-//W3C//DTD SVG 1.1//EN"
 "http://www.w3.org/Graphics/SVG/1.1/DTD/svg11.dtd">
<!-- Generated by graphviz version 3.0.0 (20220413.0106)
 -->
<!-- Title: memset Pages: 1 -->
<svg width="399pt" height="199pt"
 viewBox="0.00 0.00 399.00 199.00" xmlns="http://www.w3.org/2000/svg" xmlns:xlink="http://www.w3.org/1999/xlink">
<g id="graph0" class="graph" transform="scale(1 1) rotate(0) translate(4 195)">
<title>memset</title>
<!-- Node1 -->
<g id="node1" class="node">
<title>Node1</title>
<g id="a_node1"><a xlink:title=" ">
<polygon fill="#bfbfbf" stroke="black" points="339,-95.5 339,-114.5 391,-114.5 391,-95.5 339,-95.5"/>
<text text-anchor="middle" x="365" y="-102.5" font-family="Helvetica,sans-Serif" font-size="10.00">memset</text>
</a>
</g>
</g>
<!-- Node2 -->
<g id="node2" class="node">
<title>Node2</title>
<g id="a_node2"><a xlink:href="buddy_8c.html#a571ce3de5539a52d40d9d11033519237" target="_top" xlink:title="initialize the buddy system">
<polygon fill="none" stroke="black" points="240.5,-171.5 240.5,-190.5 300.5,-190.5 300.5,-171.5 240.5,-171.5"/>
<text text-anchor="middle" x="270.5" y="-178.5" font-family="Helvetica,sans-Serif" font-size="10.00">buddy_init</text>
</a>
</g>
</g>
<!-- Node1&#45;&gt;Node2 -->
<g id="edge1" class="edge">
<title>Node1&#45;&gt;Node2</title>
<path fill="none" stroke="midnightblue" d="M348.02,-121.69C336.18,-133.62 319.32,-149.67 303,-162 298.62,-165.31 293.63,-168.54 288.93,-171.37"/>
<polygon fill="midnightblue" stroke="midnightblue" points="350.54,-124.12 355.03,-114.53 345.54,-119.23 350.54,-124.12"/>
</g>
<!-- Node5 -->
<g id="node5" class="node">
<title>Node5</title>
<g id="a_node5"><a xlink:href="kmt_8c.html#a5ddb8743298012e84cf9cb5faf22212b" target="_top" xlink:title="create thread">
<polygon fill="none" stroke="black" points="238,-133.5 238,-152.5 303,-152.5 303,-133.5 238,-133.5"/>
<text text-anchor="middle" x="270.5" y="-140.5" font-family="Helvetica,sans-Serif" font-size="10.00">kmt_create</text>
</a>
</g>
</g>
<!-- Node1&#45;&gt;Node5 -->
<g id="edge4" class="edge">
<title>Node1&#45;&gt;Node5</title>
<path fill="none" stroke="midnightblue" d="M331.35,-118.41C319.3,-123.36 305.9,-128.87 294.83,-133.41"/>
<polygon fill="midnightblue" stroke="midnightblue" points="332.74,-121.63 340.66,-114.59 330.08,-115.15 332.74,-121.63"/>
</g>
<!-- Node7 -->
<g id="node7" class="node">
<title>Node7</title>
<g id="a_node7"><a xlink:href="kmt_8c.html#a0c68a294cecc4be7cb4b495f15b883a0" target="_top" xlink:title="initialize kmt module">
<polygon fill="none" stroke="black" points="245,-95.5 245,-114.5 296,-114.5 296,-95.5 245,-95.5"/>
<text text-anchor="middle" x="270.5" y="-102.5" font-family="Helvetica,sans-Serif" font-size="10.00">kmt_init</text>
</a>
</g>
</g>
<!-- Node1&#45;&gt;Node7 -->
<g id="edge6" class="edge">
<title>Node1&#45;&gt;Node7</title>
<path fill="none" stroke="midnightblue" d="M328.66,-105C317.79,-105 306.08,-105 296.11,-105"/>
<polygon fill="midnightblue" stroke="midnightblue" points="328.72,-108.5 338.72,-105 328.72,-101.5 328.72,-108.5"/>
</g>
<!-- Node8 -->
<g id="node8" class="node">
<title>Node8</title>
<g id="a_node8"><a xlink:href="dev__tty_8c.html#a5e46c8baa62e87e974f5c7bf26e20969" target="_top" xlink:title=" ">
<polygon fill="none" stroke="black" points="248,-57.5 248,-76.5 293,-76.5 293,-57.5 248,-57.5"/>
<text text-anchor="middle" x="270.5" y="-64.5" font-family="Helvetica,sans-Serif" font-size="10.00">tty_init</text>
</a>
</g>
</g>
<!-- Node1&#45;&gt;Node8 -->
<g id="edge8" class="edge">
<title>Node1&#45;&gt;Node8</title>
<path fill="none" stroke="midnightblue" d="M331.36,-91.59C318.72,-86.4 304.6,-80.6 293.25,-75.93"/>
<polygon fill="midnightblue" stroke="midnightblue" points="330.08,-94.85 340.66,-95.41 332.74,-88.37 330.08,-94.85"/>
</g>
<!-- Node9 -->
<g id="node9" class="node">
<title>Node9</title>
<g id="a_node9"><a xlink:href="dev__tty_8c.html#abc64ae4eaee62ea37919e633aab151a4" target="_top" xlink:title=" ">
<polygon fill="none" stroke="black" points="241,-19.5 241,-38.5 300,-38.5 300,-19.5 241,-19.5"/>
<text text-anchor="middle" x="270.5" y="-26.5" font-family="Helvetica,sans-Serif" font-size="10.00">tty_render</text>
</a>
</g>
</g>
<!-- Node1&#45;&gt;Node9 -->
<g id="edge9" class="edge">
<title>Node1&#45;&gt;Node9</title>
<path fill="none" stroke="midnightblue" d="M348.02,-88.31C336.18,-76.38 319.32,-60.33 303,-48 298.62,-44.69 293.63,-41.46 288.93,-38.63"/>
<polygon fill="midnightblue" stroke="midnightblue" points="345.54,-90.77 355.03,-95.47 350.54,-85.88 345.54,-90.77"/>
</g>
<!-- Node3 -->
<g id="node3" class="node">
<title>Node3</title>
<g id="a_node3"><a xlink:href="pmm_8c.html#a393796678826afd801058312f851ca43" target="_top" xlink:title=" ">
<polygon fill="none" stroke="black" points="132.5,-171.5 132.5,-190.5 188.5,-190.5 188.5,-171.5 132.5,-171.5"/>
<text text-anchor="middle" x="160.5" y="-178.5" font-family="Helvetica,sans-Serif" font-size="10.00">pmm_init</text>
</a>
</g>
</g>
<!-- Node2&#45;&gt;Node3 -->
<g id="edge2" class="edge">
<title>Node2&#45;&gt;Node3</title>
<path fill="none" stroke="midnightblue" d="M230.05,-181C216.25,-181 201.08,-181 188.53,-181"/>
<polygon fill="midnightblue" stroke="midnightblue" points="230.27,-184.5 240.27,-181 230.27,-177.5 230.27,-184.5"/>
</g>
<!-- Node4 -->
<g id="node4" class="node">
<title>Node4</title>
<g id="a_node4"><a xlink:href="pmm_8c.html#a7ada9deb0ae8705f2cc158b0283aaeb3" target="_top" xlink:title=" ">
<polygon fill="none" stroke="black" points="0,-171.5 0,-190.5 83,-190.5 83,-171.5 0,-171.5"/>
<text text-anchor="middle" x="41.5" y="-178.5" font-family="Helvetica,sans-Serif" font-size="10.00">MODULE_DEF</text>
</a>
</g>
</g>
<!-- Node3&#45;&gt;Node4 -->
<g id="edge3" class="edge">
<title>Node3&#45;&gt;Node4</title>
<path fill="none" stroke="midnightblue" d="M122.32,-181C109.89,-181 95.95,-181 83.26,-181"/>
<polygon fill="midnightblue" stroke="midnightblue" points="122.36,-184.5 132.36,-181 122.36,-177.5 122.36,-184.5"/>
</g>
<!-- Node6 -->
<g id="node6" class="node">
<title>Node6</title>
<g id="a_node6"><a xlink:href="kmt_8c.html#af360ef0d98ca30e481cc58ea3695fd58" target="_top" xlink:title=" ">
<polygon fill="none" stroke="black" points="119,-114.5 119,-133.5 202,-133.5 202,-114.5 119,-114.5"/>
<text text-anchor="middle" x="160.5" y="-121.5" font-family="Helvetica,sans-Serif" font-size="10.00">MODULE_DEF</text>
</a>
</g>
</g>
<!-- Node5&#45;&gt;Node6 -->
<g id="edge5" class="edge">
<title>Node5&#45;&gt;Node6</title>
<path fill="none" stroke="midnightblue" d="M227.92,-135.68C219.45,-134.2 210.56,-132.63 202.13,-131.15"/>
<polygon fill="midnightblue" stroke="midnightblue" points="227.52,-139.17 237.97,-137.45 228.73,-132.27 227.52,-139.17"/>
</g>
<!-- Node7&#45;&gt;Node6 -->
<g id="edge7" class="edge">
<title>Node7&#45;&gt;Node6</title>
<path fill="none" stroke="midnightblue" d="M234.95,-111.08C224.47,-112.92 212.85,-114.97 202.01,-116.87"/>
<polygon fill="midnightblue" stroke="midnightblue" points="235.75,-114.49 244.99,-109.31 234.54,-107.6 235.75,-114.49"/>
</g>
<!-- Node10 -->
<g id="node10" class="node">
<title>Node10</title>
<g id="a_node10"><a xlink:href="dev__tty_8c.html#a1f58ad55bfbcfcb3de4088f34f76c976" target="_top" xlink:title=" ">
<polygon fill="none" stroke="black" points="124.5,-38.5 124.5,-57.5 196.5,-57.5 196.5,-38.5 124.5,-38.5"/>
<text text-anchor="middle" x="160.5" y="-45.5" font-family="Helvetica,sans-Serif" font-size="10.00">dev_tty_task</text>
</a>
</g>
</g>
<!-- Node9&#45;&gt;Node10 -->
<g id="edge10" class="edge">
<title>Node9&#45;&gt;Node10</title>
<path fill="none" stroke="midnightblue" d="M230.96,-35.78C219.84,-37.74 207.77,-39.86 196.86,-41.78"/>
<polygon fill="midnightblue" stroke="midnightblue" points="231.6,-39.22 240.84,-34.04 230.39,-32.33 231.6,-39.22"/>
</g>
<!-- Node11 -->
<g id="node11" class="node">
<title>Node11</title>
<g id="a_node11"><a xlink:href="dev__tty_8c.html#a755a85e188e1ece8c73f0b8001895e79" target="_top" xlink:title=" ">
<polygon fill="none" stroke="black" points="134,-0.5 134,-19.5 187,-19.5 187,-0.5 134,-0.5"/>
<text text-anchor="middle" x="160.5" y="-7.5" font-family="Helvetica,sans-Serif" font-size="10.00">tty_write</text>
</a>
</g>
</g>
<!-- Node9&#45;&gt;Node11 -->
<g id="edge11" class="edge">
<title>Node9&#45;&gt;Node11</title>
<path fill="none" stroke="midnightblue" d="M230.69,-22.17C216.28,-19.64 200.3,-16.83 187.34,-14.55"/>
<polygon fill="midnightblue" stroke="midnightblue" points="230.39,-25.67 240.84,-23.96 231.6,-18.78 230.39,-25.67"/>
</g>
</g>
</svg>
