<?xml version="1.0" encoding="UTF-8" standalone="no"?>
<!DOCTYPE svg PUBLIC "-//W3C//DTD SVG 1.1//EN"
 "http://www.w3.org/Graphics/SVG/1.1/DTD/svg11.dtd">
<!-- Generated by graphviz version 2.50.0 (20220203.2022)
 -->
<!-- Title: snprintf Pages: 1 -->
<svg width="314pt" height="104pt"
 viewBox="0.00 0.00 314.00 104.00" xmlns="http://www.w3.org/2000/svg" xmlns:xlink="http://www.w3.org/1999/xlink">
<g id="graph0" class="graph" transform="scale(1 1) rotate(0) translate(4 100)">
<title>snprintf</title>
<!-- Node1 -->
<g id="node1" class="node">
<title>Node1</title>
<g id="a_node1"><a xlink:title=" ">
<polygon fill="#bfbfbf" stroke="black" points="0,-57.5 0,-76.5 49,-76.5 49,-57.5 0,-57.5"/>
<text text-anchor="middle" x="24.5" y="-64.5" font-family="Helvetica,sans-Serif" font-size="10.00">snprintf</text>
</a>
</g>
</g>
<!-- Node2 -->
<g id="node2" class="node">
<title>Node2</title>
<g id="a_node2"><a xlink:href="string_8c.html#a82f08f2390a9067f3c94b638e90e03bd" target="_top" xlink:title=" ">
<polygon fill="none" stroke="black" points="85.5,-76.5 85.5,-95.5 133.5,-95.5 133.5,-76.5 85.5,-76.5"/>
<text text-anchor="middle" x="109.5" y="-83.5" font-family="Helvetica,sans-Serif" font-size="10.00">strncpy</text>
</a>
</g>
</g>
<!-- Node1&#45;&gt;Node2 -->
<g id="edge1" class="edge">
<title>Node1&#45;&gt;Node2</title>
<path fill="none" stroke="midnightblue" d="M49.06,-72.39C57.26,-74.27 66.62,-76.41 75.44,-78.43"/>
<polygon fill="midnightblue" stroke="midnightblue" points="74.92,-81.9 85.45,-80.72 76.49,-75.08 74.92,-81.9"/>
</g>
<!-- Node3 -->
<g id="node3" class="node">
<title>Node3</title>
<g id="a_node3"><a xlink:href="stdio_8c.html#a44a6734c6f8f81d8e1fa3b9d476c5134" target="_top" xlink:title=" ">
<polygon fill="none" stroke="black" points="85,-38.5 85,-57.5 134,-57.5 134,-38.5 85,-38.5"/>
<text text-anchor="middle" x="109.5" y="-45.5" font-family="Helvetica,sans-Serif" font-size="10.00">vsprintf</text>
</a>
</g>
</g>
<!-- Node1&#45;&gt;Node3 -->
<g id="edge2" class="edge">
<title>Node1&#45;&gt;Node3</title>
<path fill="none" stroke="midnightblue" d="M49.06,-61.61C57.12,-59.76 66.3,-57.66 74.99,-55.67"/>
<polygon fill="midnightblue" stroke="midnightblue" points="75.91,-59.05 84.88,-53.41 74.35,-52.23 75.91,-59.05"/>
</g>
<!-- Node4 -->
<g id="node4" class="node">
<title>Node4</title>
<g id="a_node4"><a xlink:href="string_8c.html#a9517a4a50477f651785c09b27826d8ce" target="_top" xlink:title=" ">
<polygon fill="none" stroke="black" points="179,-76.5 179,-95.5 220,-95.5 220,-76.5 179,-76.5"/>
<text text-anchor="middle" x="199.5" y="-83.5" font-family="Helvetica,sans-Serif" font-size="10.00">strcat</text>
</a>
</g>
</g>
<!-- Node3&#45;&gt;Node4 -->
<g id="edge3" class="edge">
<title>Node3&#45;&gt;Node4</title>
<path fill="none" stroke="midnightblue" d="M132.71,-57.59C143.96,-62.45 157.75,-68.4 169.79,-73.6"/>
<polygon fill="midnightblue" stroke="midnightblue" points="168.43,-76.83 179,-77.58 171.2,-70.4 168.43,-76.83"/>
</g>
<!-- Node5 -->
<g id="node5" class="node">
<title>Node5</title>
<g id="a_node5"><a xlink:href="string_8c.html#aa383452fe445bfae989358c9d7d96f4f" target="_top" xlink:title=" ">
<polygon fill="none" stroke="black" points="265,-57.5 265,-76.5 306,-76.5 306,-57.5 265,-57.5"/>
<text text-anchor="middle" x="285.5" y="-64.5" font-family="Helvetica,sans-Serif" font-size="10.00">strlen</text>
</a>
</g>
</g>
<!-- Node3&#45;&gt;Node5 -->
<g id="edge5" class="edge">
<title>Node3&#45;&gt;Node5</title>
<path fill="none" stroke="midnightblue" d="M134.33,-50.6C165.66,-54.02 220.69,-60.03 254.73,-63.75"/>
<polygon fill="midnightblue" stroke="midnightblue" points="254.66,-67.26 264.98,-64.87 255.42,-60.3 254.66,-67.26"/>
</g>
<!-- Node6 -->
<g id="node6" class="node">
<title>Node6</title>
<g id="a_node6"><a xlink:href="stdio_8c.html#a8a0e94b5b0c2a000751f94fd7a5c0071" target="_top" xlink:title=" ">
<polygon fill="none" stroke="black" points="170,-0.5 170,-19.5 229,-19.5 229,-0.5 170,-0.5"/>
<text text-anchor="middle" x="199.5" y="-7.5" font-family="Helvetica,sans-Serif" font-size="10.00">vprintf_int</text>
</a>
</g>
</g>
<!-- Node3&#45;&gt;Node6 -->
<g id="edge6" class="edge">
<title>Node3&#45;&gt;Node6</title>
<path fill="none" stroke="midnightblue" d="M132.71,-38.41C143.13,-33.91 155.73,-28.47 167.11,-23.56"/>
<polygon fill="midnightblue" stroke="midnightblue" points="168.51,-26.76 176.3,-19.59 165.73,-20.34 168.51,-26.76"/>
</g>
<!-- Node4&#45;&gt;Node5 -->
<g id="edge4" class="edge">
<title>Node4&#45;&gt;Node5</title>
<path fill="none" stroke="midnightblue" d="M220.41,-81.5C230.66,-79.18 243.37,-76.3 254.76,-73.73"/>
<polygon fill="midnightblue" stroke="midnightblue" points="255.75,-77.09 264.74,-71.47 254.21,-70.26 255.75,-77.09"/>
</g>
</g>
</svg>
