<?xml version="1.0" encoding="UTF-8" standalone="no"?>
<!DOCTYPE svg PUBLIC "-//W3C//DTD SVG 1.1//EN"
 "http://www.w3.org/Graphics/SVG/1.1/DTD/svg11.dtd">
<!-- Generated by graphviz version 3.0.0 (20220413.0106)
 -->
<!-- Title: printf Pages: 1 -->
<svg width="316pt" height="104pt"
 viewBox="0.00 0.00 316.00 104.00" xmlns="http://www.w3.org/2000/svg" xmlns:xlink="http://www.w3.org/1999/xlink">
<g id="graph0" class="graph" transform="scale(1 1) rotate(0) translate(4 100)">
<title>printf</title>
<!-- Node1 -->
<g id="node1" class="node">
<title>Node1</title>
<g id="a_node1"><a xlink:title=" ">
<polygon fill="#bfbfbf" stroke="black" points="0,-38.5 0,-57.5 38,-57.5 38,-38.5 0,-38.5"/>
<text text-anchor="middle" x="19" y="-45.5" font-family="Helvetica,sans-Serif" font-size="10.00">printf</text>
</a>
</g>
</g>
<!-- Node2 -->
<g id="node2" class="node">
<title>Node2</title>
<g id="a_node2"><a xlink:href="stdio_8c.html#a44a6734c6f8f81d8e1fa3b9d476c5134" target="_top" xlink:title="write bytes (including the terminating null byte (&#39;\0&#39;)) to out.">
<polygon fill="none" stroke="black" points="74,-38.5 74,-57.5 123,-57.5 123,-38.5 74,-38.5"/>
<text text-anchor="middle" x="98.5" y="-45.5" font-family="Helvetica,sans-Serif" font-size="10.00">vsprintf</text>
</a>
</g>
</g>
<!-- Node1&#45;&gt;Node2 -->
<g id="edge1" class="edge">
<title>Node1&#45;&gt;Node2</title>
<path fill="none" stroke="midnightblue" d="M38.37,-48C46.02,-48 55.16,-48 63.94,-48"/>
<polygon fill="midnightblue" stroke="midnightblue" points="63.97,-51.5 73.97,-48 63.97,-44.5 63.97,-51.5"/>
</g>
<!-- Node3 -->
<g id="node3" class="node">
<title>Node3</title>
<g id="a_node3"><a xlink:href="stdio_8c.html#abf852e417a205348767989f2940059ad" target="_top" xlink:title="write at most n bytes (including the terminating null byte (&#39;\0&#39;)) to out.">
<polygon fill="none" stroke="black" points="159,-38.5 159,-57.5 213,-57.5 213,-38.5 159,-38.5"/>
<text text-anchor="middle" x="186" y="-45.5" font-family="Helvetica,sans-Serif" font-size="10.00">vsnprintf</text>
</a>
</g>
</g>
<!-- Node2&#45;&gt;Node3 -->
<g id="edge2" class="edge">
<title>Node2&#45;&gt;Node3</title>
<path fill="none" stroke="midnightblue" d="M123.32,-48C131.19,-48 140.13,-48 148.71,-48"/>
<polygon fill="midnightblue" stroke="midnightblue" points="148.91,-51.5 158.91,-48 148.91,-44.5 148.91,-51.5"/>
</g>
<!-- Node4 -->
<g id="node4" class="node">
<title>Node4</title>
<g id="a_node4"><a xlink:href="stdio_8c.html#a0e2811092b514de48ac2dd675d6cf2b4" target="_top" xlink:title="print decimal into buffer,return length">
<polygon fill="none" stroke="black" points="249,-76.5 249,-95.5 308,-95.5 308,-76.5 249,-76.5"/>
<text text-anchor="middle" x="278.5" y="-83.5" font-family="Helvetica,sans-Serif" font-size="10.00">print_num</text>
</a>
</g>
</g>
<!-- Node3&#45;&gt;Node4 -->
<g id="edge3" class="edge">
<title>Node3&#45;&gt;Node4</title>
<path fill="none" stroke="midnightblue" d="M209.84,-57.59C220.56,-62.09 233.52,-67.53 245.22,-72.44"/>
<polygon fill="midnightblue" stroke="midnightblue" points="244.1,-75.77 254.67,-76.41 246.81,-69.32 244.1,-75.77"/>
</g>
<!-- Node5 -->
<g id="node5" class="node">
<title>Node5</title>
<g id="a_node5"><a xlink:href="string_8c.html#aa383452fe445bfae989358c9d7d96f4f" target="_top" xlink:title=" ">
<polygon fill="none" stroke="black" points="258,-38.5 258,-57.5 299,-57.5 299,-38.5 258,-38.5"/>
<text text-anchor="middle" x="278.5" y="-45.5" font-family="Helvetica,sans-Serif" font-size="10.00">strlen</text>
</a>
</g>
</g>
<!-- Node3&#45;&gt;Node5 -->
<g id="edge4" class="edge">
<title>Node3&#45;&gt;Node5</title>
<path fill="none" stroke="midnightblue" d="M213.18,-48C224.02,-48 236.64,-48 247.82,-48"/>
<polygon fill="midnightblue" stroke="midnightblue" points="248,-51.5 258,-48 248,-44.5 248,-51.5"/>
</g>
<!-- Node6 -->
<g id="node6" class="node">
<title>Node6</title>
<g id="a_node6"><a xlink:href="string_8c.html#a82f08f2390a9067f3c94b638e90e03bd" target="_top" xlink:title=" ">
<polygon fill="none" stroke="black" points="254.5,-0.5 254.5,-19.5 302.5,-19.5 302.5,-0.5 254.5,-0.5"/>
<text text-anchor="middle" x="278.5" y="-7.5" font-family="Helvetica,sans-Serif" font-size="10.00">strncpy</text>
</a>
</g>
</g>
<!-- Node3&#45;&gt;Node6 -->
<g id="edge5" class="edge">
<title>Node3&#45;&gt;Node6</title>
<path fill="none" stroke="midnightblue" d="M209.84,-38.41C220.56,-33.91 233.52,-28.47 245.22,-23.56"/>
<polygon fill="midnightblue" stroke="midnightblue" points="246.81,-26.68 254.67,-19.59 244.1,-20.23 246.81,-26.68"/>
</g>
</g>
</svg>
