<?xml version="1.0" encoding="UTF-8" standalone="no"?>
<!DOCTYPE svg PUBLIC "-//W3C//DTD SVG 1.1//EN"
 "http://www.w3.org/Graphics/SVG/1.1/DTD/svg11.dtd">
<!-- Generated by graphviz version 2.50.0 (20220203.2022)
 -->
<!-- Title: printf Pages: 1 -->
<svg width="316pt" height="142pt"
 viewBox="0.00 0.00 316.00 142.00" xmlns="http://www.w3.org/2000/svg" xmlns:xlink="http://www.w3.org/1999/xlink">
<g id="graph0" class="graph" transform="scale(1 1) rotate(0) translate(4 138)">
<title>printf</title>
<!-- Node1 -->
<g id="node1" class="node">
<title>Node1</title>
<g id="a_node1"><a xlink:title=" ">
<polygon fill="#bfbfbf" stroke="black" points="0,-57.5 0,-76.5 38,-76.5 38,-57.5 0,-57.5"/>
<text text-anchor="middle" x="19" y="-64.5" font-family="Helvetica,sans-Serif" font-size="10.00">printf</text>
</a>
</g>
</g>
<!-- Node2 -->
<g id="node2" class="node">
<title>Node2</title>
<g id="a_node2"><a xlink:href="stdio_8c.html#a44a6734c6f8f81d8e1fa3b9d476c5134" target="_top" xlink:title="write bytes (including the terminating null byte (&#39;\0&#39;)) to out.">
<polygon fill="none" stroke="black" points="74,-57.5 74,-76.5 123,-76.5 123,-57.5 74,-57.5"/>
<text text-anchor="middle" x="98.5" y="-64.5" font-family="Helvetica,sans-Serif" font-size="10.00">vsprintf</text>
</a>
</g>
</g>
<!-- Node1&#45;&gt;Node2 -->
<g id="edge1" class="edge">
<title>Node1&#45;&gt;Node2</title>
<path fill="none" stroke="midnightblue" d="M38.37,-67C46.02,-67 55.16,-67 63.94,-67"/>
<polygon fill="midnightblue" stroke="midnightblue" points="63.97,-70.5 73.97,-67 63.97,-63.5 63.97,-70.5"/>
</g>
<!-- Node3 -->
<g id="node3" class="node">
<title>Node3</title>
<g id="a_node3"><a xlink:href="stdio_8c.html#abf852e417a205348767989f2940059ad" target="_top" xlink:title="write at most n bytes (including the terminating null byte (&#39;\0&#39;)) to out.">
<polygon fill="none" stroke="black" points="159,-57.5 159,-76.5 213,-76.5 213,-57.5 159,-57.5"/>
<text text-anchor="middle" x="186" y="-64.5" font-family="Helvetica,sans-Serif" font-size="10.00">vsnprintf</text>
</a>
</g>
</g>
<!-- Node2&#45;&gt;Node3 -->
<g id="edge2" class="edge">
<title>Node2&#45;&gt;Node3</title>
<path fill="none" stroke="midnightblue" d="M123.32,-67C131.19,-67 140.13,-67 148.71,-67"/>
<polygon fill="midnightblue" stroke="midnightblue" points="148.91,-70.5 158.91,-67 148.91,-63.5 148.91,-70.5"/>
</g>
<!-- Node4 -->
<g id="node4" class="node">
<title>Node4</title>
<g id="a_node4"><a xlink:href="stdio_8c.html#af978fa291399f159cc8d94cb650cef4d" target="_top" xlink:title="print padding char">
<polygon fill="none" stroke="black" points="252,-114.5 252,-133.5 305,-133.5 305,-114.5 252,-114.5"/>
<text text-anchor="middle" x="278.5" y="-121.5" font-family="Helvetica,sans-Serif" font-size="10.00">add_pad</text>
</a>
</g>
</g>
<!-- Node3&#45;&gt;Node4 -->
<g id="edge3" class="edge">
<title>Node3&#45;&gt;Node4</title>
<path fill="none" stroke="midnightblue" d="M202.35,-76.67C216.35,-85.48 237.25,-98.65 253.46,-108.86"/>
<polygon fill="midnightblue" stroke="midnightblue" points="252.05,-112.11 262.37,-114.47 255.78,-106.18 252.05,-112.11"/>
</g>
<!-- Node5 -->
<g id="node5" class="node">
<title>Node5</title>
<g id="a_node5"><a xlink:href="stdio_8c.html#a0e2811092b514de48ac2dd675d6cf2b4" target="_top" xlink:title="print decimal into buffer,return length">
<polygon fill="none" stroke="black" points="249,-76.5 249,-95.5 308,-95.5 308,-76.5 249,-76.5"/>
<text text-anchor="middle" x="278.5" y="-83.5" font-family="Helvetica,sans-Serif" font-size="10.00">print_num</text>
</a>
</g>
</g>
<!-- Node3&#45;&gt;Node5 -->
<g id="edge4" class="edge">
<title>Node3&#45;&gt;Node5</title>
<path fill="none" stroke="midnightblue" d="M213.18,-72.5C221.21,-74.18 230.22,-76.07 238.89,-77.89"/>
<polygon fill="midnightblue" stroke="midnightblue" points="238.34,-81.36 248.85,-79.98 239.78,-74.5 238.34,-81.36"/>
</g>
<!-- Node6 -->
<g id="node6" class="node">
<title>Node6</title>
<g id="a_node6"><a xlink:href="string_8c.html#aa383452fe445bfae989358c9d7d96f4f" target="_top" xlink:title=" ">
<polygon fill="none" stroke="black" points="258,-38.5 258,-57.5 299,-57.5 299,-38.5 258,-38.5"/>
<text text-anchor="middle" x="278.5" y="-45.5" font-family="Helvetica,sans-Serif" font-size="10.00">strlen</text>
</a>
</g>
</g>
<!-- Node3&#45;&gt;Node6 -->
<g id="edge5" class="edge">
<title>Node3&#45;&gt;Node6</title>
<path fill="none" stroke="midnightblue" d="M213.18,-61.5C224.13,-59.21 236.9,-56.52 248.17,-54.16"/>
<polygon fill="midnightblue" stroke="midnightblue" points="248.93,-57.57 258,-52.09 247.49,-50.72 248.93,-57.57"/>
</g>
<!-- Node7 -->
<g id="node7" class="node">
<title>Node7</title>
<g id="a_node7"><a xlink:href="string_8c.html#a82f08f2390a9067f3c94b638e90e03bd" target="_top" xlink:title=" ">
<polygon fill="none" stroke="black" points="254.5,-0.5 254.5,-19.5 302.5,-19.5 302.5,-0.5 254.5,-0.5"/>
<text text-anchor="middle" x="278.5" y="-7.5" font-family="Helvetica,sans-Serif" font-size="10.00">strncpy</text>
</a>
</g>
</g>
<!-- Node3&#45;&gt;Node7 -->
<g id="edge6" class="edge">
<title>Node3&#45;&gt;Node7</title>
<path fill="none" stroke="midnightblue" d="M202.35,-57.33C216.35,-48.52 237.25,-35.35 253.46,-25.14"/>
<polygon fill="midnightblue" stroke="midnightblue" points="255.78,-27.82 262.37,-19.53 252.05,-21.89 255.78,-27.82"/>
</g>
</g>
</svg>
