<?xml version="1.0" encoding="UTF-8" standalone="no"?>
<!DOCTYPE svg PUBLIC "-//W3C//DTD SVG 1.1//EN"
 "http://www.w3.org/Graphics/SVG/1.1/DTD/svg11.dtd">
<!-- Generated by graphviz version 2.50.0 (20220203.2022)
 -->
<!-- Title: abstract&#45;machine/klib/include/klib&#45;macros.h Pages: 1 -->
<svg width="1353pt" height="173pt"
 viewBox="0.00 0.00 1353.00 173.00" xmlns="http://www.w3.org/2000/svg" xmlns:xlink="http://www.w3.org/1999/xlink">
<g id="graph0" class="graph" transform="scale(1 1) rotate(0) translate(4 169)">
<title>abstract&#45;machine/klib/include/klib&#45;macros.h</title>
<!-- Node1 -->
<g id="node1" class="node">
<title>Node1</title>
<g id="a_node1"><a xlink:title=" ">
<polygon fill="#bfbfbf" stroke="black" points="767.5,-134.5 767.5,-164.5 878.5,-164.5 878.5,-134.5 767.5,-134.5"/>
<text text-anchor="start" x="775.5" y="-152.5" font-family="Helvetica,sans-Serif" font-size="10.00">abstract&#45;machine/klib</text>
<text text-anchor="middle" x="823" y="-141.5" font-family="Helvetica,sans-Serif" font-size="10.00">/include/klib&#45;macros.h</text>
</a>
</g>
</g>
<!-- Node2 -->
<g id="node2" class="node">
<title>Node2</title>
<g id="a_node2"><a xlink:href="native_2ioe_8c.html" target="_top" xlink:title=" ">
<polygon fill="none" stroke="black" points="189,-67.5 189,-97.5 297,-97.5 297,-67.5 189,-67.5"/>
<text text-anchor="start" x="197" y="-85.5" font-family="Helvetica,sans-Serif" font-size="10.00">abstract&#45;machine/am</text>
<text text-anchor="middle" x="243" y="-74.5" font-family="Helvetica,sans-Serif" font-size="10.00">/src/native/ioe.c</text>
</a>
</g>
</g>
<!-- Node1&#45;&gt;Node2 -->
<g id="edge1" class="edge">
<title>Node1&#45;&gt;Node2</title>
<path fill="none" stroke="midnightblue" d="M757.11,-144.79C658.52,-138.63 466.97,-124.27 306,-98 303.12,-97.53 300.18,-97.01 297.21,-96.44"/>
<polygon fill="midnightblue" stroke="midnightblue" points="757.03,-148.29 767.23,-145.42 757.46,-141.31 757.03,-148.29"/>
</g>
<!-- Node3 -->
<g id="node3" class="node">
<title>Node3</title>
<g id="a_node3"><a xlink:href="platform_8h.html" target="_top" xlink:title=" ">
<polygon fill="none" stroke="black" points="315,-67.5 315,-97.5 423,-97.5 423,-67.5 315,-67.5"/>
<text text-anchor="start" x="323" y="-85.5" font-family="Helvetica,sans-Serif" font-size="10.00">abstract&#45;machine/am</text>
<text text-anchor="middle" x="369" y="-74.5" font-family="Helvetica,sans-Serif" font-size="10.00">/src/native/platform.h</text>
</a>
</g>
</g>
<!-- Node1&#45;&gt;Node3 -->
<g id="edge2" class="edge">
<title>Node1&#45;&gt;Node3</title>
<path fill="none" stroke="midnightblue" d="M757.22,-139.08C667.01,-126.17 506.58,-103.2 423,-91.23"/>
<polygon fill="midnightblue" stroke="midnightblue" points="756.94,-142.58 767.33,-140.53 757.93,-135.65 756.94,-142.58"/>
</g>
<!-- Node8 -->
<g id="node8" class="node">
<title>Node8</title>
<g id="a_node8"><a xlink:href="src_2x86_2qemu_2x86-qemu_8h.html" target="_top" xlink:title=" ">
<polygon fill="none" stroke="black" points="618.5,-67.5 618.5,-97.5 749.5,-97.5 749.5,-67.5 618.5,-67.5"/>
<text text-anchor="start" x="626.5" y="-85.5" font-family="Helvetica,sans-Serif" font-size="10.00">abstract&#45;machine/am</text>
<text text-anchor="middle" x="684" y="-74.5" font-family="Helvetica,sans-Serif" font-size="10.00">/src/x86/qemu/x86&#45;qemu.h</text>
</a>
</g>
</g>
<!-- Node1&#45;&gt;Node8 -->
<g id="edge7" class="edge">
<title>Node1&#45;&gt;Node8</title>
<path fill="none" stroke="midnightblue" d="M783.72,-130.13C761.63,-119.8 734.49,-107.11 714.1,-97.58"/>
<polygon fill="midnightblue" stroke="midnightblue" points="782.3,-133.33 792.84,-134.4 785.26,-126.99 782.3,-133.33"/>
</g>
<!-- Node14 -->
<g id="node14" class="node">
<title>Node14</title>
<g id="a_node14"><a xlink:href="stdio_8c.html" target="_top" xlink:title=" ">
<polygon fill="none" stroke="black" points="768,-67.5 768,-97.5 878,-97.5 878,-67.5 768,-67.5"/>
<text text-anchor="start" x="776" y="-85.5" font-family="Helvetica,sans-Serif" font-size="10.00">abstract&#45;machine/klib</text>
<text text-anchor="middle" x="823" y="-74.5" font-family="Helvetica,sans-Serif" font-size="10.00">/src/stdio.c</text>
</a>
</g>
</g>
<!-- Node1&#45;&gt;Node14 -->
<g id="edge13" class="edge">
<title>Node1&#45;&gt;Node14</title>
<path fill="none" stroke="midnightblue" d="M823,-124.11C823,-115.15 823,-105.32 823,-97.58"/>
<polygon fill="midnightblue" stroke="midnightblue" points="819.5,-124.4 823,-134.4 826.5,-124.4 819.5,-124.4"/>
</g>
<!-- Node15 -->
<g id="node15" class="node">
<title>Node15</title>
<g id="a_node15"><a xlink:href="stdlib_8c.html" target="_top" xlink:title=" ">
<polygon fill="none" stroke="black" points="896,-67.5 896,-97.5 1006,-97.5 1006,-67.5 896,-67.5"/>
<text text-anchor="start" x="904" y="-85.5" font-family="Helvetica,sans-Serif" font-size="10.00">abstract&#45;machine/klib</text>
<text text-anchor="middle" x="951" y="-74.5" font-family="Helvetica,sans-Serif" font-size="10.00">/src/stdlib.c</text>
</a>
</g>
</g>
<!-- Node1&#45;&gt;Node15 -->
<g id="edge14" class="edge">
<title>Node1&#45;&gt;Node15</title>
<path fill="none" stroke="midnightblue" d="M859.72,-129.85C879.96,-119.58 904.67,-107.03 923.28,-97.58"/>
<polygon fill="midnightblue" stroke="midnightblue" points="858.11,-126.75 850.77,-134.4 861.28,-132.99 858.11,-126.75"/>
</g>
<!-- Node16 -->
<g id="node16" class="node">
<title>Node16</title>
<g id="a_node16"><a xlink:href="string_8c.html" target="_top" xlink:title=" ">
<polygon fill="none" stroke="black" points="1024,-67.5 1024,-97.5 1134,-97.5 1134,-67.5 1024,-67.5"/>
<text text-anchor="start" x="1032" y="-85.5" font-family="Helvetica,sans-Serif" font-size="10.00">abstract&#45;machine/klib</text>
<text text-anchor="middle" x="1079" y="-74.5" font-family="Helvetica,sans-Serif" font-size="10.00">/src/string.c</text>
</a>
</g>
</g>
<!-- Node1&#45;&gt;Node16 -->
<g id="edge15" class="edge">
<title>Node1&#45;&gt;Node16</title>
<path fill="none" stroke="midnightblue" d="M888.08,-131.98C930.04,-121.32 984.02,-107.62 1023.87,-97.5"/>
<polygon fill="midnightblue" stroke="midnightblue" points="887.06,-128.62 878.23,-134.48 888.79,-135.41 887.06,-128.62"/>
</g>
<!-- Node17 -->
<g id="node17" class="node">
<title>Node17</title>
<g id="a_node17"><a xlink:href="common_8h.html" target="_top" xlink:title=" ">
<polygon fill="none" stroke="black" points="1152.5,-73 1152.5,-92 1277.5,-92 1277.5,-73 1152.5,-73"/>
<text text-anchor="middle" x="1215" y="-80" font-family="Helvetica,sans-Serif" font-size="10.00">kernel/include/common.h</text>
</a>
</g>
</g>
<!-- Node1&#45;&gt;Node17 -->
<g id="edge16" class="edge">
<title>Node1&#45;&gt;Node17</title>
<path fill="none" stroke="midnightblue" d="M888.69,-138.96C953.47,-129.36 1055.25,-113.75 1143,-98 1153.17,-96.18 1164.11,-94.05 1174.31,-92.01"/>
<polygon fill="midnightblue" stroke="midnightblue" points="888,-135.53 878.62,-140.45 889.02,-142.45 888,-135.53"/>
</g>
<!-- Node4 -->
<g id="node4" class="node">
<title>Node4</title>
<g id="a_node4"><a xlink:href="native_2cte_8c.html" target="_top" xlink:title=" ">
<polygon fill="none" stroke="black" points="0,-0.5 0,-30.5 108,-30.5 108,-0.5 0,-0.5"/>
<text text-anchor="start" x="8" y="-18.5" font-family="Helvetica,sans-Serif" font-size="10.00">abstract&#45;machine/am</text>
<text text-anchor="middle" x="54" y="-7.5" font-family="Helvetica,sans-Serif" font-size="10.00">/src/native/cte.c</text>
</a>
</g>
</g>
<!-- Node3&#45;&gt;Node4 -->
<g id="edge3" class="edge">
<title>Node3&#45;&gt;Node4</title>
<path fill="none" stroke="midnightblue" d="M304.73,-66.78C220.63,-49.32 197.58,-47.94 117,-31 114.14,-30.4 111.22,-29.77 108.27,-29.13"/>
<polygon fill="midnightblue" stroke="midnightblue" points="304.23,-70.25 314.73,-68.87 305.66,-63.4 304.23,-70.25"/>
</g>
<!-- Node5 -->
<g id="node5" class="node">
<title>Node5</title>
<g id="a_node5"><a xlink:href="native_2mpe_8c.html" target="_top" xlink:title=" ">
<polygon fill="none" stroke="black" points="126,-0.5 126,-30.5 234,-30.5 234,-0.5 126,-0.5"/>
<text text-anchor="start" x="134" y="-18.5" font-family="Helvetica,sans-Serif" font-size="10.00">abstract&#45;machine/am</text>
<text text-anchor="middle" x="180" y="-7.5" font-family="Helvetica,sans-Serif" font-size="10.00">/src/native/mpe.c</text>
</a>
</g>
</g>
<!-- Node3&#45;&gt;Node5 -->
<g id="edge4" class="edge">
<title>Node3&#45;&gt;Node5</title>
<path fill="none" stroke="midnightblue" d="M318.38,-64.09C287.87,-53.6 249.52,-40.41 220.93,-30.58"/>
<polygon fill="midnightblue" stroke="midnightblue" points="317.4,-67.45 327.99,-67.4 319.67,-60.83 317.4,-67.45"/>
</g>
<!-- Node6 -->
<g id="node6" class="node">
<title>Node6</title>
<g id="a_node6"><a xlink:href="platform_8c.html" target="_top" xlink:title=" ">
<polygon fill="none" stroke="black" points="252,-0.5 252,-30.5 360,-30.5 360,-0.5 252,-0.5"/>
<text text-anchor="start" x="260" y="-18.5" font-family="Helvetica,sans-Serif" font-size="10.00">abstract&#45;machine/am</text>
<text text-anchor="middle" x="306" y="-7.5" font-family="Helvetica,sans-Serif" font-size="10.00">/src/native/platform.c</text>
</a>
</g>
</g>
<!-- Node3&#45;&gt;Node6 -->
<g id="edge5" class="edge">
<title>Node3&#45;&gt;Node6</title>
<path fill="none" stroke="midnightblue" d="M348.19,-60.02C338.8,-50.34 327.98,-39.17 319.64,-30.58"/>
<polygon fill="midnightblue" stroke="midnightblue" points="345.86,-62.65 355.33,-67.4 350.88,-57.78 345.86,-62.65"/>
</g>
<!-- Node7 -->
<g id="node7" class="node">
<title>Node7</title>
<g id="a_node7"><a xlink:href="native_2vme_8c.html" target="_top" xlink:title=" ">
<polygon fill="none" stroke="black" points="378,-0.5 378,-30.5 486,-30.5 486,-0.5 378,-0.5"/>
<text text-anchor="start" x="386" y="-18.5" font-family="Helvetica,sans-Serif" font-size="10.00">abstract&#45;machine/am</text>
<text text-anchor="middle" x="432" y="-7.5" font-family="Helvetica,sans-Serif" font-size="10.00">/src/native/vme.c</text>
</a>
</g>
</g>
<!-- Node3&#45;&gt;Node7 -->
<g id="edge6" class="edge">
<title>Node3&#45;&gt;Node7</title>
<path fill="none" stroke="midnightblue" d="M389.81,-60.02C399.2,-50.34 410.02,-39.17 418.36,-30.58"/>
<polygon fill="midnightblue" stroke="midnightblue" points="387.12,-57.78 382.67,-67.4 392.14,-62.65 387.12,-57.78"/>
</g>
<!-- Node9 -->
<g id="node9" class="node">
<title>Node9</title>
<g id="a_node9"><a xlink:href="x86_2qemu_2cte_8c.html" target="_top" xlink:title=" ">
<polygon fill="none" stroke="black" points="504,-0.5 504,-30.5 612,-30.5 612,-0.5 504,-0.5"/>
<text text-anchor="start" x="512" y="-18.5" font-family="Helvetica,sans-Serif" font-size="10.00">abstract&#45;machine/am</text>
<text text-anchor="middle" x="558" y="-7.5" font-family="Helvetica,sans-Serif" font-size="10.00">/src/x86/qemu/cte.c</text>
</a>
</g>
</g>
<!-- Node8&#45;&gt;Node9 -->
<g id="edge8" class="edge">
<title>Node8&#45;&gt;Node9</title>
<path fill="none" stroke="midnightblue" d="M647.58,-62.71C627.71,-52.46 603.52,-39.98 585.29,-30.58"/>
<polygon fill="midnightblue" stroke="midnightblue" points="646.17,-65.92 656.66,-67.4 649.38,-59.7 646.17,-65.92"/>
</g>
<!-- Node10 -->
<g id="node10" class="node">
<title>Node10</title>
<g id="a_node10"><a xlink:href="x86_2qemu_2ioe_8c.html" target="_top" xlink:title=" ">
<polygon fill="none" stroke="black" points="630,-0.5 630,-30.5 738,-30.5 738,-0.5 630,-0.5"/>
<text text-anchor="start" x="638" y="-18.5" font-family="Helvetica,sans-Serif" font-size="10.00">abstract&#45;machine/am</text>
<text text-anchor="middle" x="684" y="-7.5" font-family="Helvetica,sans-Serif" font-size="10.00">/src/x86/qemu/ioe.c</text>
</a>
</g>
</g>
<!-- Node8&#45;&gt;Node10 -->
<g id="edge9" class="edge">
<title>Node8&#45;&gt;Node10</title>
<path fill="none" stroke="midnightblue" d="M684,-57.11C684,-48.15 684,-38.32 684,-30.58"/>
<polygon fill="midnightblue" stroke="midnightblue" points="680.5,-57.4 684,-67.4 687.5,-57.4 680.5,-57.4"/>
</g>
<!-- Node11 -->
<g id="node11" class="node">
<title>Node11</title>
<g id="a_node11"><a xlink:href="x86_2qemu_2mpe_8c.html" target="_top" xlink:title=" ">
<polygon fill="none" stroke="black" points="756,-0.5 756,-30.5 864,-30.5 864,-0.5 756,-0.5"/>
<text text-anchor="start" x="764" y="-18.5" font-family="Helvetica,sans-Serif" font-size="10.00">abstract&#45;machine/am</text>
<text text-anchor="middle" x="810" y="-7.5" font-family="Helvetica,sans-Serif" font-size="10.00">/src/x86/qemu/mpe.c</text>
</a>
</g>
</g>
<!-- Node8&#45;&gt;Node11 -->
<g id="edge10" class="edge">
<title>Node8&#45;&gt;Node11</title>
<path fill="none" stroke="midnightblue" d="M720.42,-62.71C740.29,-52.46 764.48,-39.98 782.71,-30.58"/>
<polygon fill="midnightblue" stroke="midnightblue" points="718.62,-59.7 711.34,-67.4 721.83,-65.92 718.62,-59.7"/>
</g>
<!-- Node12 -->
<g id="node12" class="node">
<title>Node12</title>
<g id="a_node12"><a xlink:href="x86_2qemu_2trm_8c.html" target="_top" xlink:title=" ">
<polygon fill="none" stroke="black" points="882,-0.5 882,-30.5 990,-30.5 990,-0.5 882,-0.5"/>
<text text-anchor="start" x="890" y="-18.5" font-family="Helvetica,sans-Serif" font-size="10.00">abstract&#45;machine/am</text>
<text text-anchor="middle" x="936" y="-7.5" font-family="Helvetica,sans-Serif" font-size="10.00">/src/x86/qemu/trm.c</text>
</a>
</g>
</g>
<!-- Node8&#45;&gt;Node12 -->
<g id="edge11" class="edge">
<title>Node8&#45;&gt;Node12</title>
<path fill="none" stroke="midnightblue" d="M748.06,-64.98C789.37,-54.32 842.5,-40.62 881.73,-30.5"/>
<polygon fill="midnightblue" stroke="midnightblue" points="747.18,-61.59 738.37,-67.48 748.93,-68.37 747.18,-61.59"/>
</g>
<!-- Node13 -->
<g id="node13" class="node">
<title>Node13</title>
<g id="a_node13"><a xlink:href="x86_2qemu_2vme_8c.html" target="_top" xlink:title=" ">
<polygon fill="none" stroke="black" points="1008,-0.5 1008,-30.5 1116,-30.5 1116,-0.5 1008,-0.5"/>
<text text-anchor="start" x="1016" y="-18.5" font-family="Helvetica,sans-Serif" font-size="10.00">abstract&#45;machine/am</text>
<text text-anchor="middle" x="1062" y="-7.5" font-family="Helvetica,sans-Serif" font-size="10.00">/src/x86/qemu/vme.c</text>
</a>
</g>
</g>
<!-- Node8&#45;&gt;Node13 -->
<g id="edge12" class="edge">
<title>Node8&#45;&gt;Node13</title>
<path fill="none" stroke="midnightblue" d="M759.75,-66.92C867,-48.88 896.14,-50.52 999,-31 1001.87,-30.46 1004.8,-29.87 1007.76,-29.26"/>
<polygon fill="midnightblue" stroke="midnightblue" points="759.09,-63.48 749.82,-68.61 760.27,-70.39 759.09,-63.48"/>
</g>
<!-- Node18 -->
<g id="node18" class="node">
<title>Node18</title>
<g id="a_node18"><a xlink:href="os_8c.html" target="_top" xlink:title=" ">
<polygon fill="none" stroke="black" points="1155,-6 1155,-25 1235,-25 1235,-6 1155,-6"/>
<text text-anchor="middle" x="1195" y="-13" font-family="Helvetica,sans-Serif" font-size="10.00">kernel/src/os.c</text>
</a>
</g>
</g>
<!-- Node17&#45;&gt;Node18 -->
<g id="edge17" class="edge">
<title>Node17&#45;&gt;Node18</title>
<path fill="none" stroke="midnightblue" d="M1209.28,-62.91C1205.46,-50.49 1200.61,-34.72 1197.65,-25.13"/>
<polygon fill="midnightblue" stroke="midnightblue" points="1206.02,-64.21 1212.3,-72.73 1212.71,-62.15 1206.02,-64.21"/>
</g>
<!-- Node19 -->
<g id="node19" class="node">
<title>Node19</title>
<g id="a_node19"><a xlink:href="pmm_8c.html" target="_top" xlink:title=" ">
<polygon fill="none" stroke="black" points="1253,-6 1253,-25 1345,-25 1345,-6 1253,-6"/>
<text text-anchor="middle" x="1299" y="-13" font-family="Helvetica,sans-Serif" font-size="10.00">kernel/src/pmm.c</text>
</a>
</g>
</g>
<!-- Node17&#45;&gt;Node19 -->
<g id="edge18" class="edge">
<title>Node17&#45;&gt;Node19</title>
<path fill="none" stroke="midnightblue" d="M1234.3,-66.57C1250.88,-53.74 1274.21,-35.69 1287.85,-25.13"/>
<polygon fill="midnightblue" stroke="midnightblue" points="1232.1,-63.85 1226.33,-72.73 1236.38,-69.38 1232.1,-63.85"/>
</g>
</g>
</svg>
