<?xml version="1.0" encoding="UTF-8" standalone="no"?>
<!DOCTYPE svg PUBLIC "-//W3C//DTD SVG 1.1//EN"
 "http://www.w3.org/Graphics/SVG/1.1/DTD/svg11.dtd">
<!-- Generated by graphviz version 3.0.0 (20220413.0106)
 -->
<!-- Title: abstract&#45;machine/klib/include/klib.h Pages: 1 -->
<svg width="1279pt" height="397pt"
 viewBox="0.00 0.00 1279.24 397.00" xmlns="http://www.w3.org/2000/svg" xmlns:xlink="http://www.w3.org/1999/xlink">
<g id="graph0" class="graph" transform="scale(1 1) rotate(0) translate(4 393)">
<title>abstract&#45;machine/klib/include/klib.h</title>
<!-- Node1 -->
<g id="node1" class="node">
<title>Node1</title>
<g id="a_node1"><a xlink:title=" ">
<polygon fill="#bfbfbf" stroke="black" points="382,-358.5 382,-388.5 492,-388.5 492,-358.5 382,-358.5"/>
<text text-anchor="start" x="390" y="-376.5" font-family="Helvetica,sans-Serif" font-size="10.00">abstract&#45;machine/klib</text>
<text text-anchor="middle" x="437" y="-365.5" font-family="Helvetica,sans-Serif" font-size="10.00">/include/klib.h</text>
</a>
</g>
</g>
<!-- Node2 -->
<g id="node2" class="node">
<title>Node2</title>
<g id="a_node2"><a xlink:href="ioe_8c.html" target="_top" xlink:title=" ">
<polygon fill="none" stroke="black" points="0,-291.5 0,-321.5 108,-321.5 108,-291.5 0,-291.5"/>
<text text-anchor="start" x="8" y="-309.5" font-family="Helvetica,sans-Serif" font-size="10.00">abstract&#45;machine/am</text>
<text text-anchor="middle" x="54" y="-298.5" font-family="Helvetica,sans-Serif" font-size="10.00">/src/x86/qemu/ioe.c</text>
</a>
</g>
</g>
<!-- Node1&#45;&gt;Node2 -->
<g id="edge1" class="edge">
<title>Node1&#45;&gt;Node2</title>
<path fill="none" stroke="midnightblue" d="M371.8,-363.57C306.97,-354.37 204.79,-339.01 117,-322 114.14,-321.44 111.2,-320.85 108.25,-320.24"/>
<polygon fill="midnightblue" stroke="midnightblue" points="371.48,-367.06 381.87,-364.99 372.46,-360.13 371.48,-367.06"/>
</g>
<!-- Node3 -->
<g id="node3" class="node">
<title>Node3</title>
<g id="a_node3"><a xlink:href="cpp_8c.html" target="_top" xlink:title=" ">
<polygon fill="none" stroke="black" points="126,-291.5 126,-321.5 236,-321.5 236,-291.5 126,-291.5"/>
<text text-anchor="start" x="134" y="-309.5" font-family="Helvetica,sans-Serif" font-size="10.00">abstract&#45;machine/klib</text>
<text text-anchor="middle" x="181" y="-298.5" font-family="Helvetica,sans-Serif" font-size="10.00">/src/cpp.c</text>
</a>
</g>
</g>
<!-- Node1&#45;&gt;Node3 -->
<g id="edge2" class="edge">
<title>Node1&#45;&gt;Node3</title>
<path fill="none" stroke="midnightblue" d="M371.92,-355.98C329.96,-345.32 275.98,-331.62 236.13,-321.5"/>
<polygon fill="midnightblue" stroke="midnightblue" points="371.21,-359.41 381.77,-358.48 372.94,-352.62 371.21,-359.41"/>
</g>
<!-- Node4 -->
<g id="node4" class="node">
<title>Node4</title>
<g id="a_node4"><a xlink:href="stdio_8c.html" target="_top" xlink:title=" ">
<polygon fill="none" stroke="black" points="254,-291.5 254,-321.5 364,-321.5 364,-291.5 254,-291.5"/>
<text text-anchor="start" x="262" y="-309.5" font-family="Helvetica,sans-Serif" font-size="10.00">abstract&#45;machine/klib</text>
<text text-anchor="middle" x="309" y="-298.5" font-family="Helvetica,sans-Serif" font-size="10.00">/src/stdio.c</text>
</a>
</g>
</g>
<!-- Node1&#45;&gt;Node4 -->
<g id="edge3" class="edge">
<title>Node1&#45;&gt;Node4</title>
<path fill="none" stroke="midnightblue" d="M400.28,-353.85C380.04,-343.58 355.33,-331.03 336.72,-321.58"/>
<polygon fill="midnightblue" stroke="midnightblue" points="398.72,-356.99 409.23,-358.4 401.89,-350.75 398.72,-356.99"/>
</g>
<!-- Node5 -->
<g id="node5" class="node">
<title>Node5</title>
<g id="a_node5"><a xlink:href="stdlib_8c.html" target="_top" xlink:title=" ">
<polygon fill="none" stroke="black" points="382,-291.5 382,-321.5 492,-321.5 492,-291.5 382,-291.5"/>
<text text-anchor="start" x="390" y="-309.5" font-family="Helvetica,sans-Serif" font-size="10.00">abstract&#45;machine/klib</text>
<text text-anchor="middle" x="437" y="-298.5" font-family="Helvetica,sans-Serif" font-size="10.00">/src/stdlib.c</text>
</a>
</g>
</g>
<!-- Node1&#45;&gt;Node5 -->
<g id="edge4" class="edge">
<title>Node1&#45;&gt;Node5</title>
<path fill="none" stroke="midnightblue" d="M437,-348.11C437,-339.15 437,-329.32 437,-321.58"/>
<polygon fill="midnightblue" stroke="midnightblue" points="433.5,-348.4 437,-358.4 440.5,-348.4 433.5,-348.4"/>
</g>
<!-- Node6 -->
<g id="node6" class="node">
<title>Node6</title>
<g id="a_node6"><a xlink:href="string_8c.html" target="_top" xlink:title=" ">
<polygon fill="none" stroke="black" points="510,-291.5 510,-321.5 620,-321.5 620,-291.5 510,-291.5"/>
<text text-anchor="start" x="518" y="-309.5" font-family="Helvetica,sans-Serif" font-size="10.00">abstract&#45;machine/klib</text>
<text text-anchor="middle" x="565" y="-298.5" font-family="Helvetica,sans-Serif" font-size="10.00">/src/string.c</text>
</a>
</g>
</g>
<!-- Node1&#45;&gt;Node6 -->
<g id="edge5" class="edge">
<title>Node1&#45;&gt;Node6</title>
<path fill="none" stroke="midnightblue" d="M473.72,-353.85C493.96,-343.58 518.67,-331.03 537.28,-321.58"/>
<polygon fill="midnightblue" stroke="midnightblue" points="472.11,-350.75 464.77,-358.4 475.28,-356.99 472.11,-350.75"/>
</g>
<!-- Node7 -->
<g id="node7" class="node">
<title>Node7</title>
<g id="a_node7"><a xlink:href="main_8c.html" target="_top" xlink:title=" ">
<polygon fill="none" stroke="black" points="638.5,-297 638.5,-316 761.5,-316 761.5,-297 638.5,-297"/>
<text text-anchor="middle" x="700" y="-304" font-family="Helvetica,sans-Serif" font-size="10.00">kernel/framework/main.c</text>
</a>
</g>
</g>
<!-- Node1&#45;&gt;Node7 -->
<g id="edge6" class="edge">
<title>Node1&#45;&gt;Node7</title>
<path fill="none" stroke="midnightblue" d="M501.89,-356.46C553.59,-343.68 623.97,-326.29 665.43,-316.04"/>
<polygon fill="midnightblue" stroke="midnightblue" points="501,-353.08 492.13,-358.87 502.68,-359.87 501,-353.08"/>
</g>
<!-- Node8 -->
<g id="node8" class="node">
<title>Node8</title>
<g id="a_node8"><a xlink:href="common_8h.html" target="_top" xlink:title=" ">
<polygon fill="none" stroke="black" points="779.5,-297 779.5,-316 904.5,-316 904.5,-297 779.5,-297"/>
<text text-anchor="middle" x="842" y="-304" font-family="Helvetica,sans-Serif" font-size="10.00">kernel/include/common.h</text>
</a>
</g>
</g>
<!-- Node1&#45;&gt;Node8 -->
<g id="edge7" class="edge">
<title>Node1&#45;&gt;Node8</title>
<path fill="none" stroke="midnightblue" d="M502.16,-363.66C569.6,-354.27 677.91,-338.53 771,-322 781.03,-320.22 791.83,-318.11 801.89,-316.07"/>
<polygon fill="midnightblue" stroke="midnightblue" points="501.53,-360.21 492.11,-365.05 502.49,-367.15 501.53,-360.21"/>
</g>
<!-- Node9 -->
<g id="node9" class="node">
<title>Node9</title>
<g id="a_node9"><a xlink:href="buddy_8h.html" target="_top" xlink:title=" ">
<polygon fill="none" stroke="black" points="546.5,-235.5 546.5,-254.5 659.5,-254.5 659.5,-235.5 546.5,-235.5"/>
<text text-anchor="middle" x="603" y="-242.5" font-family="Helvetica,sans-Serif" font-size="10.00">kernel/include/buddy.h</text>
</a>
</g>
</g>
<!-- Node8&#45;&gt;Node9 -->
<g id="edge8" class="edge">
<title>Node8&#45;&gt;Node9</title>
<path fill="none" stroke="midnightblue" d="M797.98,-294.54C751.58,-282.99 679.48,-265.04 637.18,-254.51"/>
<polygon fill="midnightblue" stroke="midnightblue" points="797.21,-297.96 807.76,-296.98 798.9,-291.16 797.21,-297.96"/>
</g>
<!-- Node10 -->
<g id="node10" class="node">
<title>Node10</title>
<g id="a_node10"><a xlink:href="buddy_8c.html" target="_top" xlink:title="impl of buddy system">
<polygon fill="none" stroke="black" points="476.5,-179.5 476.5,-198.5 571.5,-198.5 571.5,-179.5 476.5,-179.5"/>
<text text-anchor="middle" x="524" y="-186.5" font-family="Helvetica,sans-Serif" font-size="10.00">kernel/src/buddy.c</text>
</a>
</g>
</g>
<!-- Node8&#45;&gt;Node10 -->
<g id="edge33" class="edge">
<title>Node8&#45;&gt;Node10</title>
<path fill="none" stroke="midnightblue" d="M791.8,-294.93C784.82,-293.55 777.74,-292.21 771,-291 719.21,-281.73 575.03,-291.36 537,-255 521.53,-240.21 521.68,-212.6 522.91,-198.6"/>
<polygon fill="midnightblue" stroke="midnightblue" points="791.4,-298.42 801.89,-296.95 792.77,-291.56 791.4,-298.42"/>
</g>
<!-- Node11 -->
<g id="node11" class="node">
<title>Node11</title>
<g id="a_node11"><a xlink:href="pmm_8c.html" target="_top" xlink:title=" ">
<polygon fill="none" stroke="black" points="601,-179.5 601,-198.5 693,-198.5 693,-179.5 601,-179.5"/>
<text text-anchor="middle" x="647" y="-186.5" font-family="Helvetica,sans-Serif" font-size="10.00">kernel/src/pmm.c</text>
</a>
</g>
</g>
<!-- Node8&#45;&gt;Node11 -->
<g id="edge36" class="edge">
<title>Node8&#45;&gt;Node11</title>
<path fill="none" stroke="midnightblue" d="M799.76,-294C773.24,-285.62 739.06,-272.65 712,-255 687.4,-238.96 664.59,-212.4 653.7,-198.73"/>
<polygon fill="midnightblue" stroke="midnightblue" points="798.93,-297.4 809.51,-296.98 800.97,-290.71 798.93,-297.4"/>
</g>
<!-- Node12 -->
<g id="node12" class="node">
<title>Node12</title>
<g id="a_node12"><a xlink:href="devices_8h.html" target="_top" xlink:title=" ">
<polygon fill="none" stroke="black" points="741.5,-67.5 741.5,-86.5 862.5,-86.5 862.5,-67.5 741.5,-67.5"/>
<text text-anchor="middle" x="802" y="-74.5" font-family="Helvetica,sans-Serif" font-size="10.00">kernel/include/devices.h</text>
</a>
</g>
</g>
<!-- Node8&#45;&gt;Node12 -->
<g id="edge11" class="edge">
<title>Node8&#45;&gt;Node12</title>
<path fill="none" stroke="midnightblue" d="M837.61,-286.8C830.68,-256.68 817.13,-195.47 809,-143 805.9,-123.04 803.73,-99.41 802.69,-86.87"/>
<polygon fill="midnightblue" stroke="midnightblue" points="834.25,-287.8 839.92,-296.74 841.07,-286.21 834.25,-287.8"/>
</g>
<!-- Node18 -->
<g id="node18" class="node">
<title>Node18</title>
<g id="a_node18"><a xlink:href="sem_8h.html" target="_top" xlink:title=" ">
<polygon fill="none" stroke="black" points="849,-123.5 849,-142.5 955,-142.5 955,-123.5 849,-123.5"/>
<text text-anchor="middle" x="902" y="-130.5" font-family="Helvetica,sans-Serif" font-size="10.00">kernel/include/sem.h</text>
</a>
</g>
</g>
<!-- Node8&#45;&gt;Node18 -->
<g id="edge17" class="edge">
<title>Node8&#45;&gt;Node18</title>
<path fill="none" stroke="midnightblue" d="M839.33,-286.74C836.57,-261 834.75,-213.95 852,-179 859.75,-163.29 875.59,-150.54 887.37,-142.68"/>
<polygon fill="midnightblue" stroke="midnightblue" points="835.9,-287.46 840.61,-296.95 842.84,-286.59 835.9,-287.46"/>
</g>
<!-- Node19 -->
<g id="node19" class="node">
<title>Node19</title>
<g id="a_node19"><a xlink:href="kmt_8c.html" target="_top" xlink:title=" ">
<polygon fill="none" stroke="black" points="1014,-67.5 1014,-86.5 1100,-86.5 1100,-67.5 1014,-67.5"/>
<text text-anchor="middle" x="1057" y="-74.5" font-family="Helvetica,sans-Serif" font-size="10.00">kernel/src/kmt.c</text>
</a>
</g>
</g>
<!-- Node8&#45;&gt;Node19 -->
<g id="edge34" class="edge">
<title>Node8&#45;&gt;Node19</title>
<path fill="none" stroke="midnightblue" d="M914.89,-303.9C985.57,-300.25 1094.77,-288.97 1183,-255 1224.87,-238.88 1245.83,-238.56 1267,-199 1277.18,-179.98 1266.29,-134.43 1255,-123 1233.7,-101.43 1151.64,-88.53 1100.08,-82.39"/>
<polygon fill="midnightblue" stroke="midnightblue" points="914.57,-300.41 904.74,-304.39 914.9,-307.4 914.57,-300.41"/>
</g>
<!-- Node21 -->
<g id="node21" class="node">
<title>Node21</title>
<g id="a_node21"><a xlink:href="spinlock_8h.html" target="_top" xlink:title=" ">
<polygon fill="none" stroke="black" points="859.5,-235.5 859.5,-254.5 982.5,-254.5 982.5,-235.5 859.5,-235.5"/>
<text text-anchor="middle" x="921" y="-242.5" font-family="Helvetica,sans-Serif" font-size="10.00">kernel/include/spinlock.h</text>
</a>
</g>
</g>
<!-- Node8&#45;&gt;Node21 -->
<g id="edge21" class="edge">
<title>Node8&#45;&gt;Node21</title>
<path fill="none" stroke="midnightblue" d="M861.53,-290.79C876.68,-279.38 897.16,-263.96 909.7,-254.51"/>
<polygon fill="midnightblue" stroke="midnightblue" points="859.2,-288.16 853.32,-296.98 863.41,-293.75 859.2,-288.16"/>
</g>
<!-- Node22 -->
<g id="node22" class="node">
<title>Node22</title>
<g id="a_node22"><a xlink:href="thread_8h.html" target="_top" xlink:title=" ">
<polygon fill="none" stroke="black" points="1030,-179.5 1030,-198.5 1144,-198.5 1144,-179.5 1030,-179.5"/>
<text text-anchor="middle" x="1087" y="-186.5" font-family="Helvetica,sans-Serif" font-size="10.00">kernel/include/thread.h</text>
</a>
</g>
</g>
<!-- Node8&#45;&gt;Node22 -->
<g id="edge32" class="edge">
<title>Node8&#45;&gt;Node22</title>
<path fill="none" stroke="midnightblue" d="M885.77,-294.22C916.38,-285.51 957.75,-272.07 992,-255 1024.91,-238.6 1059.59,-212.19 1076.49,-198.64"/>
<polygon fill="midnightblue" stroke="midnightblue" points="884.52,-290.94 875.82,-296.99 886.39,-297.68 884.52,-290.94"/>
</g>
<!-- Node23 -->
<g id="node23" class="node">
<title>Node23</title>
<g id="a_node23"><a xlink:href="syscall_8c.html" target="_top" xlink:title=" ">
<polygon fill="none" stroke="black" points="1146,-123.5 1146,-142.5 1246,-142.5 1246,-123.5 1146,-123.5"/>
<text text-anchor="middle" x="1196" y="-130.5" font-family="Helvetica,sans-Serif" font-size="10.00">kernel/src/syscall.c</text>
</a>
</g>
</g>
<!-- Node8&#45;&gt;Node23 -->
<g id="edge37" class="edge">
<title>Node8&#45;&gt;Node23</title>
<path fill="none" stroke="midnightblue" d="M914.54,-297.39C1020.94,-283.82 1211.06,-252.57 1251,-199 1266.73,-177.9 1233.99,-154.72 1212.59,-142.55"/>
<polygon fill="midnightblue" stroke="midnightblue" points="914,-293.94 904.52,-298.65 914.87,-300.88 914,-293.94"/>
</g>
<!-- Node24 -->
<g id="node24" class="node">
<title>Node24</title>
<g id="a_node24"><a xlink:href="os_8c.html" target="_top" xlink:title=" ">
<polygon fill="none" stroke="black" points="1162,-179.5 1162,-198.5 1242,-198.5 1242,-179.5 1162,-179.5"/>
<text text-anchor="middle" x="1202" y="-186.5" font-family="Helvetica,sans-Serif" font-size="10.00">kernel/src/os.c</text>
</a>
</g>
</g>
<!-- Node8&#45;&gt;Node24 -->
<g id="edge35" class="edge">
<title>Node8&#45;&gt;Node24</title>
<path fill="none" stroke="midnightblue" d="M885.25,-294.32C921.87,-284.62 975.67,-269.84 1022,-255 1079.59,-236.55 1146.27,-211.48 1180.01,-198.53"/>
<polygon fill="midnightblue" stroke="midnightblue" points="884.17,-290.98 875.39,-296.91 885.95,-297.75 884.17,-290.98"/>
</g>
<!-- Node9&#45;&gt;Node10 -->
<g id="edge9" class="edge">
<title>Node9&#45;&gt;Node10</title>
<path fill="none" stroke="midnightblue" d="M581.97,-229.62C567.53,-219.76 548.86,-206.99 536.66,-198.65"/>
<polygon fill="midnightblue" stroke="midnightblue" points="580.08,-232.57 590.31,-235.32 584.03,-226.79 580.08,-232.57"/>
</g>
<!-- Node9&#45;&gt;Node11 -->
<g id="edge10" class="edge">
<title>Node9&#45;&gt;Node11</title>
<path fill="none" stroke="midnightblue" d="M616.73,-227.14C624.4,-217.74 633.63,-206.4 639.87,-198.75"/>
<polygon fill="midnightblue" stroke="midnightblue" points="613.87,-225.12 610.27,-235.08 619.3,-229.54 613.87,-225.12"/>
</g>
<!-- Node13 -->
<g id="node13" class="node">
<title>Node13</title>
<g id="a_node13"><a xlink:href="dev_8c.html" target="_top" xlink:title=" ">
<polygon fill="none" stroke="black" points="505,-6 505,-25 609,-25 609,-6 505,-6"/>
<text text-anchor="middle" x="557" y="-13" font-family="Helvetica,sans-Serif" font-size="10.00">kernel/src/dev/dev.c</text>
</a>
</g>
</g>
<!-- Node12&#45;&gt;Node13 -->
<g id="edge12" class="edge">
<title>Node12&#45;&gt;Node13</title>
<path fill="none" stroke="midnightblue" d="M757.17,-65.11C709.62,-53.57 635.49,-35.56 592.04,-25.01"/>
<polygon fill="midnightblue" stroke="midnightblue" points="756.35,-68.52 766.9,-67.48 758.01,-61.71 756.35,-68.52"/>
</g>
<!-- Node14 -->
<g id="node14" class="node">
<title>Node14</title>
<g id="a_node14"><a xlink:href="dev__input_8c.html" target="_top" xlink:title=" ">
<polygon fill="none" stroke="black" points="627.5,-0.5 627.5,-30.5 724.5,-30.5 724.5,-0.5 627.5,-0.5"/>
<text text-anchor="start" x="635.5" y="-18.5" font-family="Helvetica,sans-Serif" font-size="10.00">kernel/src/dev/dev</text>
<text text-anchor="middle" x="676" y="-7.5" font-family="Helvetica,sans-Serif" font-size="10.00">_input.c</text>
</a>
</g>
</g>
<!-- Node12&#45;&gt;Node14 -->
<g id="edge13" class="edge">
<title>Node12&#45;&gt;Node14</title>
<path fill="none" stroke="midnightblue" d="M774.89,-63.2C754.53,-53.58 726.66,-40.42 705.7,-30.52"/>
<polygon fill="midnightblue" stroke="midnightblue" points="773.41,-66.37 783.95,-67.48 776.4,-60.04 773.41,-66.37"/>
</g>
<!-- Node15 -->
<g id="node15" class="node">
<title>Node15</title>
<g id="a_node15"><a xlink:href="dev__sd_8c.html" target="_top" xlink:title=" ">
<polygon fill="none" stroke="black" points="742,-6 742,-25 862,-25 862,-6 742,-6"/>
<text text-anchor="middle" x="802" y="-13" font-family="Helvetica,sans-Serif" font-size="10.00">kernel/src/dev/dev_sd.c</text>
</a>
</g>
</g>
<!-- Node12&#45;&gt;Node15 -->
<g id="edge14" class="edge">
<title>Node12&#45;&gt;Node15</title>
<path fill="none" stroke="midnightblue" d="M802,-57.32C802,-46.5 802,-33.4 802,-25.01"/>
<polygon fill="midnightblue" stroke="midnightblue" points="798.5,-57.48 802,-67.48 805.5,-57.48 798.5,-57.48"/>
</g>
<!-- Node16 -->
<g id="node16" class="node">
<title>Node16</title>
<g id="a_node16"><a xlink:href="dev__tty_8c.html" target="_top" xlink:title=" ">
<polygon fill="none" stroke="black" points="879.5,-0.5 879.5,-30.5 976.5,-30.5 976.5,-0.5 879.5,-0.5"/>
<text text-anchor="start" x="887.5" y="-18.5" font-family="Helvetica,sans-Serif" font-size="10.00">kernel/src/dev/dev</text>
<text text-anchor="middle" x="928" y="-7.5" font-family="Helvetica,sans-Serif" font-size="10.00">_tty.c</text>
</a>
</g>
</g>
<!-- Node12&#45;&gt;Node16 -->
<g id="edge15" class="edge">
<title>Node12&#45;&gt;Node16</title>
<path fill="none" stroke="midnightblue" d="M829.11,-63.2C849.47,-53.58 877.34,-40.42 898.3,-30.52"/>
<polygon fill="midnightblue" stroke="midnightblue" points="827.6,-60.04 820.05,-67.48 830.59,-66.37 827.6,-60.04"/>
</g>
<!-- Node17 -->
<g id="node17" class="node">
<title>Node17</title>
<g id="a_node17"><a xlink:href="dev__video_8c.html" target="_top" xlink:title=" ">
<polygon fill="none" stroke="black" points="994.5,-0.5 994.5,-30.5 1091.5,-30.5 1091.5,-0.5 994.5,-0.5"/>
<text text-anchor="start" x="1002.5" y="-18.5" font-family="Helvetica,sans-Serif" font-size="10.00">kernel/src/dev/dev</text>
<text text-anchor="middle" x="1043" y="-7.5" font-family="Helvetica,sans-Serif" font-size="10.00">_video.c</text>
</a>
</g>
</g>
<!-- Node12&#45;&gt;Node17 -->
<g id="edge16" class="edge">
<title>Node12&#45;&gt;Node17</title>
<path fill="none" stroke="midnightblue" d="M847.34,-65.04C884.6,-55.99 938.75,-42.79 986,-31 988.77,-30.31 991.62,-29.59 994.5,-28.87"/>
<polygon fill="midnightblue" stroke="midnightblue" points="846.19,-61.71 837.3,-67.47 847.84,-68.51 846.19,-61.71"/>
</g>
<!-- Node18&#45;&gt;Node12 -->
<g id="edge18" class="edge">
<title>Node18&#45;&gt;Node12</title>
<path fill="none" stroke="midnightblue" d="M876.91,-118.45C858.45,-108.48 833.9,-95.23 818.03,-86.65"/>
<polygon fill="midnightblue" stroke="midnightblue" points="875.47,-121.65 885.93,-123.32 878.8,-115.49 875.47,-121.65"/>
</g>
<!-- Node18&#45;&gt;Node19 -->
<g id="edge19" class="edge">
<title>Node18&#45;&gt;Node19</title>
<path fill="none" stroke="midnightblue" d="M936.33,-120.04C965.5,-109.88 1006.64,-95.55 1032.55,-86.52"/>
<polygon fill="midnightblue" stroke="midnightblue" points="934.85,-116.85 926.56,-123.44 937.16,-123.46 934.85,-116.85"/>
</g>
<!-- Node20 -->
<g id="node20" class="node">
<title>Node20</title>
<g id="a_node20"><a xlink:href="sem_8c.html" target="_top" xlink:title=" ">
<polygon fill="none" stroke="black" points="880.5,-67.5 880.5,-86.5 969.5,-86.5 969.5,-67.5 880.5,-67.5"/>
<text text-anchor="middle" x="925" y="-74.5" font-family="Helvetica,sans-Serif" font-size="10.00">kernel/src/sem.c</text>
</a>
</g>
</g>
<!-- Node18&#45;&gt;Node20 -->
<g id="edge20" class="edge">
<title>Node18&#45;&gt;Node20</title>
<path fill="none" stroke="midnightblue" d="M909.8,-113.69C913.68,-104.59 918.18,-94.01 921.27,-86.75"/>
<polygon fill="midnightblue" stroke="midnightblue" points="906.5,-112.51 905.8,-123.08 912.94,-115.25 906.5,-112.51"/>
</g>
<!-- Node21&#45;&gt;Node12 -->
<g id="edge22" class="edge">
<title>Node21&#45;&gt;Node12</title>
<path fill="none" stroke="midnightblue" d="M892.63,-230.63C878.87,-222.97 862.98,-212.24 852,-199 822.4,-163.31 808.22,-107.66 803.69,-86.53"/>
<polygon fill="midnightblue" stroke="midnightblue" points="891.26,-233.86 901.73,-235.43 894.52,-227.67 891.26,-233.86"/>
</g>
<!-- Node21&#45;&gt;Node18 -->
<g id="edge23" class="edge">
<title>Node21&#45;&gt;Node18</title>
<path fill="none" stroke="midnightblue" d="M891.9,-230.65C879.37,-223.25 866,-212.73 859,-199 848.12,-177.66 872.84,-154.76 889.13,-142.65"/>
<polygon fill="midnightblue" stroke="midnightblue" points="890.32,-233.78 900.78,-235.49 893.67,-227.63 890.32,-233.78"/>
</g>
<!-- Node21&#45;&gt;Node19 -->
<g id="edge29" class="edge">
<title>Node21&#45;&gt;Node19</title>
<path fill="none" stroke="midnightblue" d="M944.55,-230.09C956.93,-222.04 971.81,-211.11 983,-199 1016.92,-162.29 1043.58,-107.71 1053.16,-86.69"/>
<polygon fill="midnightblue" stroke="midnightblue" points="942.67,-227.14 936.06,-235.43 946.39,-233.07 942.67,-227.14"/>
</g>
<!-- Node21&#45;&gt;Node22 -->
<g id="edge24" class="edge">
<title>Node21&#45;&gt;Node22</title>
<path fill="none" stroke="midnightblue" d="M956.95,-232.3C988.23,-222.13 1032.82,-207.62 1060.82,-198.52"/>
<polygon fill="midnightblue" stroke="midnightblue" points="955.73,-229.02 947.3,-235.44 957.9,-235.68 955.73,-229.02"/>
</g>
<!-- Node21&#45;&gt;Node24 -->
<g id="edge30" class="edge">
<title>Node21&#45;&gt;Node24</title>
<path fill="none" stroke="midnightblue" d="M975.38,-233.55C1029.98,-223.06 1112.83,-207.13 1161.78,-197.73"/>
<polygon fill="midnightblue" stroke="midnightblue" points="974.69,-230.12 965.53,-235.44 976.01,-236.99 974.69,-230.12"/>
</g>
<!-- Node25 -->
<g id="node25" class="node">
<title>Node25</title>
<g id="a_node25"><a xlink:href="spinlock_8c.html" target="_top" xlink:title=" ">
<polygon fill="none" stroke="black" points="868,-179.5 868,-198.5 974,-198.5 974,-179.5 868,-179.5"/>
<text text-anchor="middle" x="921" y="-186.5" font-family="Helvetica,sans-Serif" font-size="10.00">kernel/src/spinlock.c</text>
</a>
</g>
</g>
<!-- Node21&#45;&gt;Node25 -->
<g id="edge31" class="edge">
<title>Node21&#45;&gt;Node25</title>
<path fill="none" stroke="midnightblue" d="M921,-224.8C921,-215.91 921,-205.78 921,-198.75"/>
<polygon fill="midnightblue" stroke="midnightblue" points="917.5,-225.08 921,-235.08 924.5,-225.08 917.5,-225.08"/>
</g>
<!-- Node22&#45;&gt;Node12 -->
<g id="edge25" class="edge">
<title>Node22&#45;&gt;Node12</title>
<path fill="none" stroke="midnightblue" d="M1064.33,-174.11C1040.17,-159.77 1000.46,-137.5 964,-123 923.45,-106.87 875.01,-94.23 841.73,-86.51"/>
<polygon fill="midnightblue" stroke="midnightblue" points="1062.71,-177.22 1073.08,-179.36 1066.31,-171.22 1062.71,-177.22"/>
</g>
<!-- Node22&#45;&gt;Node18 -->
<g id="edge26" class="edge">
<title>Node22&#45;&gt;Node18</title>
<path fill="none" stroke="midnightblue" d="M1047.83,-176.57C1012.93,-166.38 962.65,-151.7 931.18,-142.52"/>
<polygon fill="midnightblue" stroke="midnightblue" points="1047.11,-180 1057.69,-179.44 1049.07,-173.28 1047.11,-180"/>
</g>
<!-- Node22&#45;&gt;Node19 -->
<g id="edge27" class="edge">
<title>Node22&#45;&gt;Node19</title>
<path fill="none" stroke="midnightblue" d="M1082,-169.67C1075.44,-145.62 1064.2,-104.39 1059.34,-86.59"/>
<polygon fill="midnightblue" stroke="midnightblue" points="1078.64,-170.64 1084.65,-179.37 1085.39,-168.8 1078.64,-170.64"/>
</g>
<!-- Node22&#45;&gt;Node23 -->
<g id="edge28" class="edge">
<title>Node22&#45;&gt;Node23</title>
<path fill="none" stroke="midnightblue" d="M1113.52,-174.86C1133.73,-164.85 1160.99,-151.35 1178.53,-142.65"/>
<polygon fill="midnightblue" stroke="midnightblue" points="1111.92,-171.75 1104.51,-179.32 1115.03,-178.02 1111.92,-171.75"/>
</g>
</g>
</svg>
