<?xml version="1.0" encoding="UTF-8" standalone="no"?>
<!DOCTYPE svg PUBLIC "-//W3C//DTD SVG 1.1//EN"
 "http://www.w3.org/Graphics/SVG/1.1/DTD/svg11.dtd">
<!-- Generated by graphviz version 3.0.0 (20220413.0106)
 -->
<!-- Title: abstract&#45;machine/klib/include/klib.h Pages: 1 -->
<svg width="1267pt" height="341pt"
 viewBox="0.00 0.00 1267.13 341.00" xmlns="http://www.w3.org/2000/svg" xmlns:xlink="http://www.w3.org/1999/xlink">
<g id="graph0" class="graph" transform="scale(1 1) rotate(0) translate(4 337)">
<title>abstract&#45;machine/klib/include/klib.h</title>
<!-- Node1 -->
<g id="node1" class="node">
<title>Node1</title>
<g id="a_node1"><a xlink:title=" ">
<polygon fill="#bfbfbf" stroke="black" points="382,-302.5 382,-332.5 492,-332.5 492,-302.5 382,-302.5"/>
<text text-anchor="start" x="390" y="-320.5" font-family="Helvetica,sans-Serif" font-size="10.00">abstract&#45;machine/klib</text>
<text text-anchor="middle" x="437" y="-309.5" font-family="Helvetica,sans-Serif" font-size="10.00">/include/klib.h</text>
</a>
</g>
</g>
<!-- Node2 -->
<g id="node2" class="node">
<title>Node2</title>
<g id="a_node2"><a xlink:href="ioe_8c.html" target="_top" xlink:title=" ">
<polygon fill="none" stroke="black" points="0,-235.5 0,-265.5 108,-265.5 108,-235.5 0,-235.5"/>
<text text-anchor="start" x="8" y="-253.5" font-family="Helvetica,sans-Serif" font-size="10.00">abstract&#45;machine/am</text>
<text text-anchor="middle" x="54" y="-242.5" font-family="Helvetica,sans-Serif" font-size="10.00">/src/x86/qemu/ioe.c</text>
</a>
</g>
</g>
<!-- Node1&#45;&gt;Node2 -->
<g id="edge1" class="edge">
<title>Node1&#45;&gt;Node2</title>
<path fill="none" stroke="midnightblue" d="M371.8,-307.57C306.97,-298.37 204.79,-283.01 117,-266 114.14,-265.44 111.2,-264.85 108.25,-264.24"/>
<polygon fill="midnightblue" stroke="midnightblue" points="371.48,-311.06 381.87,-308.99 372.46,-304.13 371.48,-311.06"/>
</g>
<!-- Node3 -->
<g id="node3" class="node">
<title>Node3</title>
<g id="a_node3"><a xlink:href="cpp_8c.html" target="_top" xlink:title=" ">
<polygon fill="none" stroke="black" points="126,-235.5 126,-265.5 236,-265.5 236,-235.5 126,-235.5"/>
<text text-anchor="start" x="134" y="-253.5" font-family="Helvetica,sans-Serif" font-size="10.00">abstract&#45;machine/klib</text>
<text text-anchor="middle" x="181" y="-242.5" font-family="Helvetica,sans-Serif" font-size="10.00">/src/cpp.c</text>
</a>
</g>
</g>
<!-- Node1&#45;&gt;Node3 -->
<g id="edge2" class="edge">
<title>Node1&#45;&gt;Node3</title>
<path fill="none" stroke="midnightblue" d="M371.92,-299.98C329.96,-289.32 275.98,-275.62 236.13,-265.5"/>
<polygon fill="midnightblue" stroke="midnightblue" points="371.21,-303.41 381.77,-302.48 372.94,-296.62 371.21,-303.41"/>
</g>
<!-- Node4 -->
<g id="node4" class="node">
<title>Node4</title>
<g id="a_node4"><a xlink:href="stdio_8c.html" target="_top" xlink:title=" ">
<polygon fill="none" stroke="black" points="254,-235.5 254,-265.5 364,-265.5 364,-235.5 254,-235.5"/>
<text text-anchor="start" x="262" y="-253.5" font-family="Helvetica,sans-Serif" font-size="10.00">abstract&#45;machine/klib</text>
<text text-anchor="middle" x="309" y="-242.5" font-family="Helvetica,sans-Serif" font-size="10.00">/src/stdio.c</text>
</a>
</g>
</g>
<!-- Node1&#45;&gt;Node4 -->
<g id="edge3" class="edge">
<title>Node1&#45;&gt;Node4</title>
<path fill="none" stroke="midnightblue" d="M400.28,-297.85C380.04,-287.58 355.33,-275.03 336.72,-265.58"/>
<polygon fill="midnightblue" stroke="midnightblue" points="398.72,-300.99 409.23,-302.4 401.89,-294.75 398.72,-300.99"/>
</g>
<!-- Node5 -->
<g id="node5" class="node">
<title>Node5</title>
<g id="a_node5"><a xlink:href="stdlib_8c.html" target="_top" xlink:title=" ">
<polygon fill="none" stroke="black" points="382,-235.5 382,-265.5 492,-265.5 492,-235.5 382,-235.5"/>
<text text-anchor="start" x="390" y="-253.5" font-family="Helvetica,sans-Serif" font-size="10.00">abstract&#45;machine/klib</text>
<text text-anchor="middle" x="437" y="-242.5" font-family="Helvetica,sans-Serif" font-size="10.00">/src/stdlib.c</text>
</a>
</g>
</g>
<!-- Node1&#45;&gt;Node5 -->
<g id="edge4" class="edge">
<title>Node1&#45;&gt;Node5</title>
<path fill="none" stroke="midnightblue" d="M437,-292.11C437,-283.15 437,-273.32 437,-265.58"/>
<polygon fill="midnightblue" stroke="midnightblue" points="433.5,-292.4 437,-302.4 440.5,-292.4 433.5,-292.4"/>
</g>
<!-- Node6 -->
<g id="node6" class="node">
<title>Node6</title>
<g id="a_node6"><a xlink:href="string_8c.html" target="_top" xlink:title=" ">
<polygon fill="none" stroke="black" points="510,-235.5 510,-265.5 620,-265.5 620,-235.5 510,-235.5"/>
<text text-anchor="start" x="518" y="-253.5" font-family="Helvetica,sans-Serif" font-size="10.00">abstract&#45;machine/klib</text>
<text text-anchor="middle" x="565" y="-242.5" font-family="Helvetica,sans-Serif" font-size="10.00">/src/string.c</text>
</a>
</g>
</g>
<!-- Node1&#45;&gt;Node6 -->
<g id="edge5" class="edge">
<title>Node1&#45;&gt;Node6</title>
<path fill="none" stroke="midnightblue" d="M473.72,-297.85C493.96,-287.58 518.67,-275.03 537.28,-265.58"/>
<polygon fill="midnightblue" stroke="midnightblue" points="472.11,-294.75 464.77,-302.4 475.28,-300.99 472.11,-294.75"/>
</g>
<!-- Node7 -->
<g id="node7" class="node">
<title>Node7</title>
<g id="a_node7"><a xlink:href="main_8c.html" target="_top" xlink:title=" ">
<polygon fill="none" stroke="black" points="638.5,-241 638.5,-260 761.5,-260 761.5,-241 638.5,-241"/>
<text text-anchor="middle" x="700" y="-248" font-family="Helvetica,sans-Serif" font-size="10.00">kernel/framework/main.c</text>
</a>
</g>
</g>
<!-- Node1&#45;&gt;Node7 -->
<g id="edge6" class="edge">
<title>Node1&#45;&gt;Node7</title>
<path fill="none" stroke="midnightblue" d="M501.89,-300.46C553.59,-287.68 623.97,-270.29 665.43,-260.04"/>
<polygon fill="midnightblue" stroke="midnightblue" points="501,-297.08 492.13,-302.87 502.68,-303.87 501,-297.08"/>
</g>
<!-- Node8 -->
<g id="node8" class="node">
<title>Node8</title>
<g id="a_node8"><a xlink:href="common_8h.html" target="_top" xlink:title=" ">
<polygon fill="none" stroke="black" points="779.5,-241 779.5,-260 904.5,-260 904.5,-241 779.5,-241"/>
<text text-anchor="middle" x="842" y="-248" font-family="Helvetica,sans-Serif" font-size="10.00">kernel/include/common.h</text>
</a>
</g>
</g>
<!-- Node1&#45;&gt;Node8 -->
<g id="edge7" class="edge">
<title>Node1&#45;&gt;Node8</title>
<path fill="none" stroke="midnightblue" d="M502.25,-307.55C569.5,-298.11 677.3,-282.35 770,-266 780.17,-264.21 791.11,-262.1 801.32,-260.05"/>
<polygon fill="midnightblue" stroke="midnightblue" points="501.64,-304.1 492.23,-308.96 502.61,-311.04 501.64,-304.1"/>
</g>
<!-- Node9 -->
<g id="node9" class="node">
<title>Node9</title>
<g id="a_node9"><a xlink:href="buddy_8h.html" target="_top" xlink:title=" ">
<polygon fill="none" stroke="black" points="629.5,-179.5 629.5,-198.5 742.5,-198.5 742.5,-179.5 629.5,-179.5"/>
<text text-anchor="middle" x="686" y="-186.5" font-family="Helvetica,sans-Serif" font-size="10.00">kernel/include/buddy.h</text>
</a>
</g>
</g>
<!-- Node8&#45;&gt;Node9 -->
<g id="edge8" class="edge">
<title>Node8&#45;&gt;Node9</title>
<path fill="none" stroke="midnightblue" d="M809.97,-237.28C779.65,-225.72 734.93,-208.66 708.31,-198.51"/>
<polygon fill="midnightblue" stroke="midnightblue" points="809.06,-240.68 819.65,-240.98 811.55,-234.14 809.06,-240.68"/>
</g>
<!-- Node10 -->
<g id="node10" class="node">
<title>Node10</title>
<g id="a_node10"><a xlink:href="buddy_8c.html" target="_top" xlink:title="impl of buddy system">
<polygon fill="none" stroke="black" points="564.5,-123.5 564.5,-142.5 659.5,-142.5 659.5,-123.5 564.5,-123.5"/>
<text text-anchor="middle" x="612" y="-130.5" font-family="Helvetica,sans-Serif" font-size="10.00">kernel/src/buddy.c</text>
</a>
</g>
</g>
<!-- Node8&#45;&gt;Node10 -->
<g id="edge26" class="edge">
<title>Node8&#45;&gt;Node10</title>
<path fill="none" stroke="midnightblue" d="M791.71,-238.81C727.13,-224.97 622.92,-202.23 620,-199 605.97,-183.48 607.98,-156.69 610.21,-142.85"/>
<polygon fill="midnightblue" stroke="midnightblue" points="791.21,-242.28 801.72,-240.95 792.67,-235.43 791.21,-242.28"/>
</g>
<!-- Node11 -->
<g id="node11" class="node">
<title>Node11</title>
<g id="a_node11"><a xlink:href="pmm_8c.html" target="_top" xlink:title=" ">
<polygon fill="none" stroke="black" points="683,-123.5 683,-142.5 775,-142.5 775,-123.5 683,-123.5"/>
<text text-anchor="middle" x="729" y="-130.5" font-family="Helvetica,sans-Serif" font-size="10.00">kernel/src/pmm.c</text>
</a>
</g>
</g>
<!-- Node8&#45;&gt;Node11 -->
<g id="edge29" class="edge">
<title>Node8&#45;&gt;Node11</title>
<path fill="none" stroke="midnightblue" d="M826.49,-233.65C802.35,-208.97 756.58,-162.19 737.59,-142.78"/>
<polygon fill="midnightblue" stroke="midnightblue" points="824.01,-236.12 833.51,-240.82 829.02,-231.22 824.01,-236.12"/>
</g>
<!-- Node12 -->
<g id="node12" class="node">
<title>Node12</title>
<g id="a_node12"><a xlink:href="devices_8h.html" target="_top" xlink:title=" ">
<polygon fill="none" stroke="black" points="830.5,-67.5 830.5,-86.5 951.5,-86.5 951.5,-67.5 830.5,-67.5"/>
<text text-anchor="middle" x="891" y="-74.5" font-family="Helvetica,sans-Serif" font-size="10.00">kernel/include/devices.h</text>
</a>
</g>
</g>
<!-- Node8&#45;&gt;Node12 -->
<g id="edge11" class="edge">
<title>Node8&#45;&gt;Node12</title>
<path fill="none" stroke="midnightblue" d="M833.34,-231.7C822.21,-206.1 806.44,-158.13 825,-123 834.14,-105.71 853.23,-93.82 868.54,-86.62"/>
<polygon fill="midnightblue" stroke="midnightblue" points="830.21,-233.28 837.57,-240.91 836.57,-230.36 830.21,-233.28"/>
</g>
<!-- Node18 -->
<g id="node18" class="node">
<title>Node18</title>
<g id="a_node18"><a xlink:href="spinlock_8h.html" target="_top" xlink:title=" ">
<polygon fill="none" stroke="black" points="921.5,-179.5 921.5,-198.5 1044.5,-198.5 1044.5,-179.5 921.5,-179.5"/>
<text text-anchor="middle" x="983" y="-186.5" font-family="Helvetica,sans-Serif" font-size="10.00">kernel/include/spinlock.h</text>
</a>
</g>
</g>
<!-- Node8&#45;&gt;Node18 -->
<g id="edge17" class="edge">
<title>Node8&#45;&gt;Node18</title>
<path fill="none" stroke="midnightblue" d="M871.67,-236.98C899.05,-225.42 938.98,-208.58 962.84,-198.51"/>
<polygon fill="midnightblue" stroke="midnightblue" points="870.05,-233.86 862.2,-240.98 872.78,-240.31 870.05,-233.86"/>
</g>
<!-- Node19 -->
<g id="node19" class="node">
<title>Node19</title>
<g id="a_node19"><a xlink:href="thread_8h.html" target="_top" xlink:title=" ">
<polygon fill="none" stroke="black" points="834,-123.5 834,-142.5 948,-142.5 948,-123.5 834,-123.5"/>
<text text-anchor="middle" x="891" y="-130.5" font-family="Helvetica,sans-Serif" font-size="10.00">kernel/include/thread.h</text>
</a>
</g>
</g>
<!-- Node8&#45;&gt;Node19 -->
<g id="edge25" class="edge">
<title>Node8&#45;&gt;Node19</title>
<path fill="none" stroke="midnightblue" d="M849.7,-231.34C860.39,-206.16 879.29,-161.6 887.27,-142.78"/>
<polygon fill="midnightblue" stroke="midnightblue" points="846.37,-230.25 845.68,-240.82 852.81,-232.98 846.37,-230.25"/>
</g>
<!-- Node20 -->
<g id="node20" class="node">
<title>Node20</title>
<g id="a_node20"><a xlink:href="kmt_8c.html" target="_top" xlink:title=" ">
<polygon fill="none" stroke="black" points="971,-67.5 971,-86.5 1057,-86.5 1057,-67.5 971,-67.5"/>
<text text-anchor="middle" x="1014" y="-74.5" font-family="Helvetica,sans-Serif" font-size="10.00">kernel/src/kmt.c</text>
</a>
</g>
</g>
<!-- Node8&#45;&gt;Node20 -->
<g id="edge27" class="edge">
<title>Node8&#45;&gt;Node20</title>
<path fill="none" stroke="midnightblue" d="M914.7,-241.84C1022.36,-228.76 1215.77,-198.06 1255,-143 1260.16,-135.76 1260.68,-129.84 1255,-123 1230.32,-93.29 1119.5,-83.09 1057.08,-79.67"/>
<polygon fill="midnightblue" stroke="midnightblue" points="914.07,-238.39 904.55,-243.05 914.9,-245.34 914.07,-238.39"/>
</g>
<!-- Node21 -->
<g id="node21" class="node">
<title>Node21</title>
<g id="a_node21"><a xlink:href="os_8c.html" target="_top" xlink:title=" ">
<polygon fill="none" stroke="black" points="1166,-123.5 1166,-142.5 1246,-142.5 1246,-123.5 1166,-123.5"/>
<text text-anchor="middle" x="1206" y="-130.5" font-family="Helvetica,sans-Serif" font-size="10.00">kernel/src/os.c</text>
</a>
</g>
</g>
<!-- Node8&#45;&gt;Node21 -->
<g id="edge28" class="edge">
<title>Node8&#45;&gt;Node21</title>
<path fill="none" stroke="midnightblue" d="M897.73,-238.93C940.91,-230.1 1001.95,-216.19 1054,-199 1104.15,-182.44 1160.73,-156.11 1188.59,-142.6"/>
<polygon fill="midnightblue" stroke="midnightblue" points="896.81,-235.55 887.7,-240.96 898.2,-242.41 896.81,-235.55"/>
</g>
<!-- Node9&#45;&gt;Node10 -->
<g id="edge9" class="edge">
<title>Node9&#45;&gt;Node10</title>
<path fill="none" stroke="midnightblue" d="M665.97,-173.38C652.59,-163.62 635.44,-151.11 624.11,-142.83"/>
<polygon fill="midnightblue" stroke="midnightblue" points="663.97,-176.26 674.11,-179.32 668.1,-170.6 663.97,-176.26"/>
</g>
<!-- Node9&#45;&gt;Node11 -->
<g id="edge10" class="edge">
<title>Node9&#45;&gt;Node11</title>
<path fill="none" stroke="midnightblue" d="M699.42,-171.14C706.91,-161.74 715.94,-150.4 722.03,-142.75"/>
<polygon fill="midnightblue" stroke="midnightblue" points="696.59,-169.08 693.1,-179.08 702.07,-173.44 696.59,-169.08"/>
</g>
<!-- Node13 -->
<g id="node13" class="node">
<title>Node13</title>
<g id="a_node13"><a xlink:href="dev_8c.html" target="_top" xlink:title=" ">
<polygon fill="none" stroke="black" points="594,-6 594,-25 698,-25 698,-6 594,-6"/>
<text text-anchor="middle" x="646" y="-13" font-family="Helvetica,sans-Serif" font-size="10.00">kernel/src/dev/dev.c</text>
</a>
</g>
</g>
<!-- Node12&#45;&gt;Node13 -->
<g id="edge12" class="edge">
<title>Node12&#45;&gt;Node13</title>
<path fill="none" stroke="midnightblue" d="M846.17,-65.11C798.62,-53.57 724.49,-35.56 681.04,-25.01"/>
<polygon fill="midnightblue" stroke="midnightblue" points="845.35,-68.52 855.9,-67.48 847.01,-61.71 845.35,-68.52"/>
</g>
<!-- Node14 -->
<g id="node14" class="node">
<title>Node14</title>
<g id="a_node14"><a xlink:href="dev__input_8c.html" target="_top" xlink:title=" ">
<polygon fill="none" stroke="black" points="716.5,-0.5 716.5,-30.5 813.5,-30.5 813.5,-0.5 716.5,-0.5"/>
<text text-anchor="start" x="724.5" y="-18.5" font-family="Helvetica,sans-Serif" font-size="10.00">kernel/src/dev/dev</text>
<text text-anchor="middle" x="765" y="-7.5" font-family="Helvetica,sans-Serif" font-size="10.00">_input.c</text>
</a>
</g>
</g>
<!-- Node12&#45;&gt;Node14 -->
<g id="edge13" class="edge">
<title>Node12&#45;&gt;Node14</title>
<path fill="none" stroke="midnightblue" d="M863.89,-63.2C843.53,-53.58 815.66,-40.42 794.7,-30.52"/>
<polygon fill="midnightblue" stroke="midnightblue" points="862.41,-66.37 872.95,-67.48 865.4,-60.04 862.41,-66.37"/>
</g>
<!-- Node15 -->
<g id="node15" class="node">
<title>Node15</title>
<g id="a_node15"><a xlink:href="dev__sd_8c.html" target="_top" xlink:title=" ">
<polygon fill="none" stroke="black" points="831,-6 831,-25 951,-25 951,-6 831,-6"/>
<text text-anchor="middle" x="891" y="-13" font-family="Helvetica,sans-Serif" font-size="10.00">kernel/src/dev/dev_sd.c</text>
</a>
</g>
</g>
<!-- Node12&#45;&gt;Node15 -->
<g id="edge14" class="edge">
<title>Node12&#45;&gt;Node15</title>
<path fill="none" stroke="midnightblue" d="M891,-57.32C891,-46.5 891,-33.4 891,-25.01"/>
<polygon fill="midnightblue" stroke="midnightblue" points="887.5,-57.48 891,-67.48 894.5,-57.48 887.5,-57.48"/>
</g>
<!-- Node16 -->
<g id="node16" class="node">
<title>Node16</title>
<g id="a_node16"><a xlink:href="dev__tty_8c.html" target="_top" xlink:title=" ">
<polygon fill="none" stroke="black" points="968.5,-0.5 968.5,-30.5 1065.5,-30.5 1065.5,-0.5 968.5,-0.5"/>
<text text-anchor="start" x="976.5" y="-18.5" font-family="Helvetica,sans-Serif" font-size="10.00">kernel/src/dev/dev</text>
<text text-anchor="middle" x="1017" y="-7.5" font-family="Helvetica,sans-Serif" font-size="10.00">_tty.c</text>
</a>
</g>
</g>
<!-- Node12&#45;&gt;Node16 -->
<g id="edge15" class="edge">
<title>Node12&#45;&gt;Node16</title>
<path fill="none" stroke="midnightblue" d="M918.11,-63.2C938.47,-53.58 966.34,-40.42 987.3,-30.52"/>
<polygon fill="midnightblue" stroke="midnightblue" points="916.6,-60.04 909.05,-67.48 919.59,-66.37 916.6,-60.04"/>
</g>
<!-- Node17 -->
<g id="node17" class="node">
<title>Node17</title>
<g id="a_node17"><a xlink:href="dev__video_8c.html" target="_top" xlink:title=" ">
<polygon fill="none" stroke="black" points="1083.5,-0.5 1083.5,-30.5 1180.5,-30.5 1180.5,-0.5 1083.5,-0.5"/>
<text text-anchor="start" x="1091.5" y="-18.5" font-family="Helvetica,sans-Serif" font-size="10.00">kernel/src/dev/dev</text>
<text text-anchor="middle" x="1132" y="-7.5" font-family="Helvetica,sans-Serif" font-size="10.00">_video.c</text>
</a>
</g>
</g>
<!-- Node12&#45;&gt;Node17 -->
<g id="edge16" class="edge">
<title>Node12&#45;&gt;Node17</title>
<path fill="none" stroke="midnightblue" d="M936.34,-65.04C973.6,-55.99 1027.75,-42.79 1075,-31 1077.77,-30.31 1080.62,-29.59 1083.5,-28.87"/>
<polygon fill="midnightblue" stroke="midnightblue" points="935.19,-61.71 926.3,-67.47 936.84,-68.51 935.19,-61.71"/>
</g>
<!-- Node18&#45;&gt;Node12 -->
<g id="edge18" class="edge">
<title>Node18&#45;&gt;Node12</title>
<path fill="none" stroke="midnightblue" d="M978.68,-169.29C974.78,-155.41 967.93,-136.61 957,-123 944.06,-106.89 923.83,-94.29 909.17,-86.57"/>
<polygon fill="midnightblue" stroke="midnightblue" points="975.34,-170.35 981.21,-179.17 982.13,-168.62 975.34,-170.35"/>
</g>
<!-- Node18&#45;&gt;Node19 -->
<g id="edge19" class="edge">
<title>Node18&#45;&gt;Node19</title>
<path fill="none" stroke="midnightblue" d="M959.45,-174.18C942.52,-164.24 920.22,-151.15 905.74,-142.65"/>
<polygon fill="midnightblue" stroke="midnightblue" points="957.82,-177.28 968.22,-179.32 961.37,-171.24 957.82,-177.28"/>
</g>
<!-- Node18&#45;&gt;Node20 -->
<g id="edge22" class="edge">
<title>Node18&#45;&gt;Node20</title>
<path fill="none" stroke="midnightblue" d="M988.16,-169.67C994.94,-145.62 1006.56,-104.39 1011.58,-86.59"/>
<polygon fill="midnightblue" stroke="midnightblue" points="984.78,-168.79 985.43,-179.37 991.51,-170.69 984.78,-168.79"/>
</g>
<!-- Node18&#45;&gt;Node21 -->
<g id="edge23" class="edge">
<title>Node18&#45;&gt;Node21</title>
<path fill="none" stroke="midnightblue" d="M1028.06,-177.09C1070.19,-166.89 1132.24,-151.86 1170.83,-142.52"/>
<polygon fill="midnightblue" stroke="midnightblue" points="1027.23,-173.69 1018.34,-179.44 1028.88,-180.49 1027.23,-173.69"/>
</g>
<!-- Node22 -->
<g id="node22" class="node">
<title>Node22</title>
<g id="a_node22"><a xlink:href="spinlock_8c.html" target="_top" xlink:title=" ">
<polygon fill="none" stroke="black" points="1042,-123.5 1042,-142.5 1148,-142.5 1148,-123.5 1042,-123.5"/>
<text text-anchor="middle" x="1095" y="-130.5" font-family="Helvetica,sans-Serif" font-size="10.00">kernel/src/spinlock.c</text>
</a>
</g>
</g>
<!-- Node18&#45;&gt;Node22 -->
<g id="edge24" class="edge">
<title>Node18&#45;&gt;Node22</title>
<path fill="none" stroke="midnightblue" d="M1010.25,-174.86C1031.02,-164.85 1059.02,-151.35 1077.05,-142.65"/>
<polygon fill="midnightblue" stroke="midnightblue" points="1008.48,-171.83 1000.99,-179.32 1011.52,-178.13 1008.48,-171.83"/>
</g>
<!-- Node19&#45;&gt;Node12 -->
<g id="edge20" class="edge">
<title>Node19&#45;&gt;Node12</title>
<path fill="none" stroke="midnightblue" d="M891,-112.8C891,-103.91 891,-93.78 891,-86.75"/>
<polygon fill="midnightblue" stroke="midnightblue" points="887.5,-113.08 891,-123.08 894.5,-113.08 887.5,-113.08"/>
</g>
<!-- Node19&#45;&gt;Node20 -->
<g id="edge21" class="edge">
<title>Node19&#45;&gt;Node20</title>
<path fill="none" stroke="midnightblue" d="M919.77,-119.37C942.81,-109.26 974.48,-95.35 994.6,-86.52"/>
<polygon fill="midnightblue" stroke="midnightblue" points="918.24,-116.22 910.49,-123.44 921.05,-122.63 918.24,-116.22"/>
</g>
</g>
</svg>
