<?xml version="1.0" encoding="UTF-8" standalone="no"?>
<!DOCTYPE svg PUBLIC "-//W3C//DTD SVG 1.1//EN"
 "http://www.w3.org/Graphics/SVG/1.1/DTD/svg11.dtd">
<!-- Generated by graphviz version 2.50.0 (20220203.2022)
 -->
<!-- Title: vsprintf Pages: 1 -->
<svg width="353pt" height="123pt"
 viewBox="0.00 0.00 353.00 123.00" xmlns="http://www.w3.org/2000/svg" xmlns:xlink="http://www.w3.org/1999/xlink">
<g id="graph0" class="graph" transform="scale(1 1) rotate(0) translate(4 119)">
<title>vsprintf</title>
<!-- Node1 -->
<g id="node1" class="node">
<title>Node1</title>
<g id="a_node1"><a xlink:title=" ">
<polygon fill="#bfbfbf" stroke="black" points="296,-38.5 296,-57.5 345,-57.5 345,-38.5 296,-38.5"/>
<text text-anchor="middle" x="320.5" y="-45.5" font-family="Helvetica,sans-Serif" font-size="10.00">vsprintf</text>
</a>
</g>
</g>
<!-- Node2 -->
<g id="node2" class="node">
<title>Node2</title>
<g id="a_node2"><a xlink:href="stdio_8c.html#a55f3d956bb2ba20b5059e9e25484a47f" target="_top" xlink:title=" ">
<polygon fill="none" stroke="black" points="216.5,-76.5 216.5,-95.5 254.5,-95.5 254.5,-76.5 216.5,-76.5"/>
<text text-anchor="middle" x="235.5" y="-83.5" font-family="Helvetica,sans-Serif" font-size="10.00">printf</text>
</a>
</g>
</g>
<!-- Node1&#45;&gt;Node2 -->
<g id="edge1" class="edge">
<title>Node1&#45;&gt;Node2</title>
<path fill="none" stroke="midnightblue" d="M289.2,-61.87C277.59,-67.19 264.73,-73.07 254.62,-77.7"/>
<polygon fill="midnightblue" stroke="midnightblue" points="290.92,-64.93 298.56,-57.59 288.01,-58.57 290.92,-64.93"/>
</g>
<!-- Node7 -->
<g id="node7" class="node">
<title>Node7</title>
<g id="a_node7"><a xlink:href="stdio_8c.html#a01e71b83290d0444ab13988f6d3a7ebd" target="_top" xlink:title=" ">
<polygon fill="none" stroke="black" points="211,-38.5 211,-57.5 260,-57.5 260,-38.5 211,-38.5"/>
<text text-anchor="middle" x="235.5" y="-45.5" font-family="Helvetica,sans-Serif" font-size="10.00">snprintf</text>
</a>
</g>
</g>
<!-- Node1&#45;&gt;Node7 -->
<g id="edge6" class="edge">
<title>Node1&#45;&gt;Node7</title>
<path fill="none" stroke="midnightblue" d="M285.77,-48C277.17,-48 268.1,-48 260.12,-48"/>
<polygon fill="midnightblue" stroke="midnightblue" points="285.94,-51.5 295.94,-48 285.94,-44.5 285.94,-51.5"/>
</g>
<!-- Node8 -->
<g id="node8" class="node">
<title>Node8</title>
<g id="a_node8"><a xlink:href="stdio_8c.html#addca8d5b24829d42f4a3f2831349a316" target="_top" xlink:title=" ">
<polygon fill="none" stroke="black" points="213.5,-0.5 213.5,-19.5 257.5,-19.5 257.5,-0.5 213.5,-0.5"/>
<text text-anchor="middle" x="235.5" y="-7.5" font-family="Helvetica,sans-Serif" font-size="10.00">sprintf</text>
</a>
</g>
</g>
<!-- Node1&#45;&gt;Node8 -->
<g id="edge7" class="edge">
<title>Node1&#45;&gt;Node8</title>
<path fill="none" stroke="midnightblue" d="M289.24,-34.15C278.68,-29.31 267.07,-24 257.44,-19.59"/>
<polygon fill="midnightblue" stroke="midnightblue" points="288.01,-37.43 298.56,-38.41 290.92,-31.07 288.01,-37.43"/>
</g>
<!-- Node3 -->
<g id="node3" class="node">
<title>Node3</title>
<g id="a_node3"><a xlink:href="os_8c.html#a5f9cb32664e017ca15c49ec66e5342e4" target="_top" xlink:title=" ">
<polygon fill="none" stroke="black" points="124,-95.5 124,-114.5 170,-114.5 170,-95.5 124,-95.5"/>
<text text-anchor="middle" x="147" y="-102.5" font-family="Helvetica,sans-Serif" font-size="10.00">os_run</text>
</a>
</g>
</g>
<!-- Node2&#45;&gt;Node3 -->
<g id="edge2" class="edge">
<title>Node2&#45;&gt;Node3</title>
<path fill="none" stroke="midnightblue" d="M206.06,-92.25C194.44,-94.8 181.21,-97.71 170.31,-100.1"/>
<polygon fill="midnightblue" stroke="midnightblue" points="207.14,-95.59 216.16,-90.03 205.64,-88.76 207.14,-95.59"/>
</g>
<!-- Node5 -->
<g id="node5" class="node">
<title>Node5</title>
<g id="a_node5"><a xlink:href="pmm_8c.html#a393796678826afd801058312f851ca43" target="_top" xlink:title=" ">
<polygon fill="none" stroke="black" points="119,-57.5 119,-76.5 175,-76.5 175,-57.5 119,-57.5"/>
<text text-anchor="middle" x="147" y="-64.5" font-family="Helvetica,sans-Serif" font-size="10.00">pmm_init</text>
</a>
</g>
</g>
<!-- Node2&#45;&gt;Node5 -->
<g id="edge4" class="edge">
<title>Node2&#45;&gt;Node5</title>
<path fill="none" stroke="midnightblue" d="M206.29,-79.8C196.31,-77.61 185.09,-75.15 175.19,-72.97"/>
<polygon fill="midnightblue" stroke="midnightblue" points="205.64,-83.24 216.16,-81.97 207.14,-76.41 205.64,-83.24"/>
</g>
<!-- Node4 -->
<g id="node4" class="node">
<title>Node4</title>
<g id="a_node4"><a xlink:href="os_8c.html#aafec7046aa50c914df86d0d22d4fc1d1" target="_top" xlink:title=" ">
<polygon fill="none" stroke="black" points="0,-95.5 0,-114.5 83,-114.5 83,-95.5 0,-95.5"/>
<text text-anchor="middle" x="41.5" y="-102.5" font-family="Helvetica,sans-Serif" font-size="10.00">MODULE_DEF</text>
</a>
</g>
</g>
<!-- Node3&#45;&gt;Node4 -->
<g id="edge3" class="edge">
<title>Node3&#45;&gt;Node4</title>
<path fill="none" stroke="midnightblue" d="M113.75,-105C104.03,-105 93.23,-105 83.04,-105"/>
<polygon fill="midnightblue" stroke="midnightblue" points="113.8,-108.5 123.8,-105 113.8,-101.5 113.8,-108.5"/>
</g>
<!-- Node6 -->
<g id="node6" class="node">
<title>Node6</title>
<g id="a_node6"><a xlink:href="pmm_8c.html#a7ada9deb0ae8705f2cc158b0283aaeb3" target="_top" xlink:title=" ">
<polygon fill="none" stroke="black" points="0,-57.5 0,-76.5 83,-76.5 83,-57.5 0,-57.5"/>
<text text-anchor="middle" x="41.5" y="-64.5" font-family="Helvetica,sans-Serif" font-size="10.00">MODULE_DEF</text>
</a>
</g>
</g>
<!-- Node5&#45;&gt;Node6 -->
<g id="edge5" class="edge">
<title>Node5&#45;&gt;Node6</title>
<path fill="none" stroke="midnightblue" d="M108.67,-67C100.38,-67 91.56,-67 83.15,-67"/>
<polygon fill="midnightblue" stroke="midnightblue" points="108.81,-70.5 118.81,-67 108.81,-63.5 108.81,-70.5"/>
</g>
</g>
</svg>
