<?xml version="1.0" encoding="UTF-8" standalone="no"?>
<!DOCTYPE svg PUBLIC "-//W3C//DTD SVG 1.1//EN"
 "http://www.w3.org/Graphics/SVG/1.1/DTD/svg11.dtd">
<!-- Generated by graphviz version 3.0.0 (20220413.0106)
 -->
<!-- Title: abstract&#45;machine/klib/include/klib.h Pages: 1 -->
<svg width="1224pt" height="285pt"
 viewBox="0.00 0.00 1224.00 285.00" xmlns="http://www.w3.org/2000/svg" xmlns:xlink="http://www.w3.org/1999/xlink">
<g id="graph0" class="graph" transform="scale(1 1) rotate(0) translate(4 281)">
<title>abstract&#45;machine/klib/include/klib.h</title>
<!-- Node1 -->
<g id="node1" class="node">
<title>Node1</title>
<g id="a_node1"><a xlink:title=" ">
<polygon fill="#bfbfbf" stroke="black" points="382,-246.5 382,-276.5 492,-276.5 492,-246.5 382,-246.5"/>
<text text-anchor="start" x="390" y="-264.5" font-family="Helvetica,sans-Serif" font-size="10.00">abstract&#45;machine/klib</text>
<text text-anchor="middle" x="437" y="-253.5" font-family="Helvetica,sans-Serif" font-size="10.00">/include/klib.h</text>
</a>
</g>
</g>
<!-- Node2 -->
<g id="node2" class="node">
<title>Node2</title>
<g id="a_node2"><a xlink:href="ioe_8c.html" target="_top" xlink:title=" ">
<polygon fill="none" stroke="black" points="0,-179.5 0,-209.5 108,-209.5 108,-179.5 0,-179.5"/>
<text text-anchor="start" x="8" y="-197.5" font-family="Helvetica,sans-Serif" font-size="10.00">abstract&#45;machine/am</text>
<text text-anchor="middle" x="54" y="-186.5" font-family="Helvetica,sans-Serif" font-size="10.00">/src/x86/qemu/ioe.c</text>
</a>
</g>
</g>
<!-- Node1&#45;&gt;Node2 -->
<g id="edge1" class="edge">
<title>Node1&#45;&gt;Node2</title>
<path fill="none" stroke="midnightblue" d="M371.8,-251.57C306.97,-242.37 204.79,-227.01 117,-210 114.14,-209.44 111.2,-208.85 108.25,-208.24"/>
<polygon fill="midnightblue" stroke="midnightblue" points="371.48,-255.06 381.87,-252.99 372.46,-248.13 371.48,-255.06"/>
</g>
<!-- Node3 -->
<g id="node3" class="node">
<title>Node3</title>
<g id="a_node3"><a xlink:href="cpp_8c.html" target="_top" xlink:title=" ">
<polygon fill="none" stroke="black" points="126,-179.5 126,-209.5 236,-209.5 236,-179.5 126,-179.5"/>
<text text-anchor="start" x="134" y="-197.5" font-family="Helvetica,sans-Serif" font-size="10.00">abstract&#45;machine/klib</text>
<text text-anchor="middle" x="181" y="-186.5" font-family="Helvetica,sans-Serif" font-size="10.00">/src/cpp.c</text>
</a>
</g>
</g>
<!-- Node1&#45;&gt;Node3 -->
<g id="edge2" class="edge">
<title>Node1&#45;&gt;Node3</title>
<path fill="none" stroke="midnightblue" d="M371.92,-243.98C329.96,-233.32 275.98,-219.62 236.13,-209.5"/>
<polygon fill="midnightblue" stroke="midnightblue" points="371.21,-247.41 381.77,-246.48 372.94,-240.62 371.21,-247.41"/>
</g>
<!-- Node4 -->
<g id="node4" class="node">
<title>Node4</title>
<g id="a_node4"><a xlink:href="stdio_8c.html" target="_top" xlink:title=" ">
<polygon fill="none" stroke="black" points="254,-179.5 254,-209.5 364,-209.5 364,-179.5 254,-179.5"/>
<text text-anchor="start" x="262" y="-197.5" font-family="Helvetica,sans-Serif" font-size="10.00">abstract&#45;machine/klib</text>
<text text-anchor="middle" x="309" y="-186.5" font-family="Helvetica,sans-Serif" font-size="10.00">/src/stdio.c</text>
</a>
</g>
</g>
<!-- Node1&#45;&gt;Node4 -->
<g id="edge3" class="edge">
<title>Node1&#45;&gt;Node4</title>
<path fill="none" stroke="midnightblue" d="M400.28,-241.85C380.04,-231.58 355.33,-219.03 336.72,-209.58"/>
<polygon fill="midnightblue" stroke="midnightblue" points="398.72,-244.99 409.23,-246.4 401.89,-238.75 398.72,-244.99"/>
</g>
<!-- Node5 -->
<g id="node5" class="node">
<title>Node5</title>
<g id="a_node5"><a xlink:href="stdlib_8c.html" target="_top" xlink:title=" ">
<polygon fill="none" stroke="black" points="382,-179.5 382,-209.5 492,-209.5 492,-179.5 382,-179.5"/>
<text text-anchor="start" x="390" y="-197.5" font-family="Helvetica,sans-Serif" font-size="10.00">abstract&#45;machine/klib</text>
<text text-anchor="middle" x="437" y="-186.5" font-family="Helvetica,sans-Serif" font-size="10.00">/src/stdlib.c</text>
</a>
</g>
</g>
<!-- Node1&#45;&gt;Node5 -->
<g id="edge4" class="edge">
<title>Node1&#45;&gt;Node5</title>
<path fill="none" stroke="midnightblue" d="M437,-236.11C437,-227.15 437,-217.32 437,-209.58"/>
<polygon fill="midnightblue" stroke="midnightblue" points="433.5,-236.4 437,-246.4 440.5,-236.4 433.5,-236.4"/>
</g>
<!-- Node6 -->
<g id="node6" class="node">
<title>Node6</title>
<g id="a_node6"><a xlink:href="string_8c.html" target="_top" xlink:title=" ">
<polygon fill="none" stroke="black" points="510,-179.5 510,-209.5 620,-209.5 620,-179.5 510,-179.5"/>
<text text-anchor="start" x="518" y="-197.5" font-family="Helvetica,sans-Serif" font-size="10.00">abstract&#45;machine/klib</text>
<text text-anchor="middle" x="565" y="-186.5" font-family="Helvetica,sans-Serif" font-size="10.00">/src/string.c</text>
</a>
</g>
</g>
<!-- Node1&#45;&gt;Node6 -->
<g id="edge5" class="edge">
<title>Node1&#45;&gt;Node6</title>
<path fill="none" stroke="midnightblue" d="M473.72,-241.85C493.96,-231.58 518.67,-219.03 537.28,-209.58"/>
<polygon fill="midnightblue" stroke="midnightblue" points="472.11,-238.75 464.77,-246.4 475.28,-244.99 472.11,-238.75"/>
</g>
<!-- Node7 -->
<g id="node7" class="node">
<title>Node7</title>
<g id="a_node7"><a xlink:href="main_8c.html" target="_top" xlink:title=" ">
<polygon fill="none" stroke="black" points="638.5,-185 638.5,-204 761.5,-204 761.5,-185 638.5,-185"/>
<text text-anchor="middle" x="700" y="-192" font-family="Helvetica,sans-Serif" font-size="10.00">kernel/framework/main.c</text>
</a>
</g>
</g>
<!-- Node1&#45;&gt;Node7 -->
<g id="edge6" class="edge">
<title>Node1&#45;&gt;Node7</title>
<path fill="none" stroke="midnightblue" d="M501.89,-244.46C553.59,-231.68 623.97,-214.29 665.43,-204.04"/>
<polygon fill="midnightblue" stroke="midnightblue" points="501,-241.08 492.13,-246.87 502.68,-247.87 501,-241.08"/>
</g>
<!-- Node8 -->
<g id="node8" class="node">
<title>Node8</title>
<g id="a_node8"><a xlink:href="common_8h.html" target="_top" xlink:title=" ">
<polygon fill="none" stroke="black" points="779.5,-185 779.5,-204 904.5,-204 904.5,-185 779.5,-185"/>
<text text-anchor="middle" x="842" y="-192" font-family="Helvetica,sans-Serif" font-size="10.00">kernel/include/common.h</text>
</a>
</g>
</g>
<!-- Node1&#45;&gt;Node8 -->
<g id="edge7" class="edge">
<title>Node1&#45;&gt;Node8</title>
<path fill="none" stroke="midnightblue" d="M502.25,-251.55C569.5,-242.11 677.3,-226.35 770,-210 780.17,-208.21 791.11,-206.1 801.32,-204.05"/>
<polygon fill="midnightblue" stroke="midnightblue" points="501.64,-248.1 492.23,-252.96 502.61,-255.04 501.64,-248.1"/>
</g>
<!-- Node9 -->
<g id="node9" class="node">
<title>Node9</title>
<g id="a_node9"><a xlink:href="buddy_8h.html" target="_top" xlink:title=" ">
<polygon fill="none" stroke="black" points="620.5,-123.5 620.5,-142.5 733.5,-142.5 733.5,-123.5 620.5,-123.5"/>
<text text-anchor="middle" x="677" y="-130.5" font-family="Helvetica,sans-Serif" font-size="10.00">kernel/include/buddy.h</text>
</a>
</g>
</g>
<!-- Node8&#45;&gt;Node9 -->
<g id="edge8" class="edge">
<title>Node8&#45;&gt;Node9</title>
<path fill="none" stroke="midnightblue" d="M808.95,-181.58C776.88,-170.02 729,-152.75 700.6,-142.51"/>
<polygon fill="midnightblue" stroke="midnightblue" points="807.77,-184.88 818.36,-184.98 810.14,-178.29 807.77,-184.88"/>
</g>
<!-- Node10 -->
<g id="node10" class="node">
<title>Node10</title>
<g id="a_node10"><a xlink:href="buddy_8c.html" target="_top" xlink:title="impl of buddy system">
<polygon fill="none" stroke="black" points="544.5,-67.5 544.5,-86.5 639.5,-86.5 639.5,-67.5 544.5,-67.5"/>
<text text-anchor="middle" x="592" y="-74.5" font-family="Helvetica,sans-Serif" font-size="10.00">kernel/src/buddy.c</text>
</a>
</g>
</g>
<!-- Node8&#45;&gt;Node10 -->
<g id="edge25" class="edge">
<title>Node8&#45;&gt;Node10</title>
<path fill="none" stroke="midnightblue" d="M790.44,-182.91C723.38,-169.03 614.32,-146.1 611,-143 595.01,-128.08 592.23,-100.53 591.9,-86.58"/>
<polygon fill="midnightblue" stroke="midnightblue" points="789.91,-186.37 800.41,-184.97 791.33,-179.52 789.91,-186.37"/>
</g>
<!-- Node11 -->
<g id="node11" class="node">
<title>Node11</title>
<g id="a_node11"><a xlink:href="pmm_8c.html" target="_top" xlink:title=" ">
<polygon fill="none" stroke="black" points="658,-67.5 658,-86.5 750,-86.5 750,-67.5 658,-67.5"/>
<text text-anchor="middle" x="704" y="-74.5" font-family="Helvetica,sans-Serif" font-size="10.00">kernel/src/pmm.c</text>
</a>
</g>
</g>
<!-- Node8&#45;&gt;Node11 -->
<g id="edge28" class="edge">
<title>Node8&#45;&gt;Node11</title>
<path fill="none" stroke="midnightblue" d="M823.82,-178.28C794.54,-153.78 737.88,-106.36 714.49,-86.78"/>
<polygon fill="midnightblue" stroke="midnightblue" points="821.71,-181.08 831.63,-184.82 826.21,-175.72 821.71,-181.08"/>
</g>
<!-- Node12 -->
<g id="node12" class="node">
<title>Node12</title>
<g id="a_node12"><a xlink:href="devices_8h.html" target="_top" xlink:title=" ">
<polygon fill="none" stroke="black" points="768.5,-67.5 768.5,-86.5 889.5,-86.5 889.5,-67.5 768.5,-67.5"/>
<text text-anchor="middle" x="829" y="-74.5" font-family="Helvetica,sans-Serif" font-size="10.00">kernel/include/devices.h</text>
</a>
</g>
</g>
<!-- Node8&#45;&gt;Node12 -->
<g id="edge11" class="edge">
<title>Node8&#45;&gt;Node12</title>
<path fill="none" stroke="midnightblue" d="M831.89,-176.19C826.94,-166.73 821.52,-154.6 819,-143 814.69,-123.14 821.21,-99.47 825.58,-86.89"/>
<polygon fill="midnightblue" stroke="midnightblue" points="828.83,-177.9 836.73,-184.96 834.96,-174.51 828.83,-177.9"/>
</g>
<!-- Node18 -->
<g id="node18" class="node">
<title>Node18</title>
<g id="a_node18"><a xlink:href="spinlock_8h.html" target="_top" xlink:title=" ">
<polygon fill="none" stroke="black" points="998.5,-123.5 998.5,-142.5 1121.5,-142.5 1121.5,-123.5 998.5,-123.5"/>
<text text-anchor="middle" x="1060" y="-130.5" font-family="Helvetica,sans-Serif" font-size="10.00">kernel/include/spinlock.h</text>
</a>
</g>
</g>
<!-- Node8&#45;&gt;Node18 -->
<g id="edge17" class="edge">
<title>Node8&#45;&gt;Node18</title>
<path fill="none" stroke="midnightblue" d="M882.95,-182.32C925.3,-170.76 990.48,-152.97 1028.82,-142.51"/>
<polygon fill="midnightblue" stroke="midnightblue" points="881.96,-178.97 873.23,-184.98 883.8,-185.72 881.96,-178.97"/>
</g>
<!-- Node19 -->
<g id="node19" class="node">
<title>Node19</title>
<g id="a_node19"><a xlink:href="kmt_8c.html" target="_top" xlink:title=" ">
<polygon fill="none" stroke="black" points="908,-67.5 908,-86.5 994,-86.5 994,-67.5 908,-67.5"/>
<text text-anchor="middle" x="951" y="-74.5" font-family="Helvetica,sans-Serif" font-size="10.00">kernel/src/kmt.c</text>
</a>
</g>
</g>
<!-- Node8&#45;&gt;Node19 -->
<g id="edge26" class="edge">
<title>Node8&#45;&gt;Node19</title>
<path fill="none" stroke="midnightblue" d="M895.79,-181.85C916.74,-174.41 938.63,-162.36 951,-143 962.06,-125.69 957.39,-100.14 953.77,-86.82"/>
<polygon fill="midnightblue" stroke="midnightblue" points="894.7,-178.53 886.28,-184.96 896.87,-185.18 894.7,-178.53"/>
</g>
<!-- Node20 -->
<g id="node20" class="node">
<title>Node20</title>
<g id="a_node20"><a xlink:href="os_8c.html" target="_top" xlink:title=" ">
<polygon fill="none" stroke="black" points="1136,-67.5 1136,-86.5 1216,-86.5 1216,-67.5 1136,-67.5"/>
<text text-anchor="middle" x="1176" y="-74.5" font-family="Helvetica,sans-Serif" font-size="10.00">kernel/src/os.c</text>
</a>
</g>
</g>
<!-- Node8&#45;&gt;Node20 -->
<g id="edge27" class="edge">
<title>Node8&#45;&gt;Node20</title>
<path fill="none" stroke="midnightblue" d="M914.76,-187.22C988.32,-179.74 1096.02,-165.38 1131,-143 1152.5,-129.24 1166.52,-101.16 1172.57,-86.84"/>
<polygon fill="midnightblue" stroke="midnightblue" points="914.22,-183.75 904.61,-188.23 914.91,-190.72 914.22,-183.75"/>
</g>
<!-- Node22 -->
<g id="node22" class="node">
<title>Node22</title>
<g id="a_node22"><a xlink:href="thread_8h.html" target="_top" xlink:title=" ">
<polygon fill="none" stroke="black" points="828,-123.5 828,-142.5 942,-142.5 942,-123.5 828,-123.5"/>
<text text-anchor="middle" x="885" y="-130.5" font-family="Helvetica,sans-Serif" font-size="10.00">kernel/include/thread.h</text>
</a>
</g>
</g>
<!-- Node8&#45;&gt;Node22 -->
<g id="edge22" class="edge">
<title>Node8&#45;&gt;Node22</title>
<path fill="none" stroke="midnightblue" d="M854.04,-176.84C862.11,-165.67 872.41,-151.43 878.85,-142.51"/>
<polygon fill="midnightblue" stroke="midnightblue" points="851.18,-174.82 848.16,-184.98 856.86,-178.92 851.18,-174.82"/>
</g>
<!-- Node9&#45;&gt;Node10 -->
<g id="edge9" class="edge">
<title>Node9&#45;&gt;Node10</title>
<path fill="none" stroke="midnightblue" d="M654.81,-117.9C639.22,-108 618.87,-95.07 605.62,-86.65"/>
<polygon fill="midnightblue" stroke="midnightblue" points="653.03,-120.92 663.34,-123.32 656.78,-115.01 653.03,-120.92"/>
</g>
<!-- Node9&#45;&gt;Node11 -->
<g id="edge10" class="edge">
<title>Node9&#45;&gt;Node11</title>
<path fill="none" stroke="midnightblue" d="M686.01,-113.98C690.59,-104.82 695.95,-94.09 699.62,-86.75"/>
<polygon fill="midnightblue" stroke="midnightblue" points="682.8,-112.57 681.46,-123.08 689.06,-115.7 682.8,-112.57"/>
</g>
<!-- Node13 -->
<g id="node13" class="node">
<title>Node13</title>
<g id="a_node13"><a xlink:href="dev_8c.html" target="_top" xlink:title=" ">
<polygon fill="none" stroke="black" points="532,-6 532,-25 636,-25 636,-6 532,-6"/>
<text text-anchor="middle" x="584" y="-13" font-family="Helvetica,sans-Serif" font-size="10.00">kernel/src/dev/dev.c</text>
</a>
</g>
</g>
<!-- Node12&#45;&gt;Node13 -->
<g id="edge12" class="edge">
<title>Node12&#45;&gt;Node13</title>
<path fill="none" stroke="midnightblue" d="M784.17,-65.11C736.62,-53.57 662.49,-35.56 619.04,-25.01"/>
<polygon fill="midnightblue" stroke="midnightblue" points="783.35,-68.52 793.9,-67.48 785.01,-61.71 783.35,-68.52"/>
</g>
<!-- Node14 -->
<g id="node14" class="node">
<title>Node14</title>
<g id="a_node14"><a xlink:href="dev__input_8c.html" target="_top" xlink:title=" ">
<polygon fill="none" stroke="black" points="654.5,-0.5 654.5,-30.5 751.5,-30.5 751.5,-0.5 654.5,-0.5"/>
<text text-anchor="start" x="662.5" y="-18.5" font-family="Helvetica,sans-Serif" font-size="10.00">kernel/src/dev/dev</text>
<text text-anchor="middle" x="703" y="-7.5" font-family="Helvetica,sans-Serif" font-size="10.00">_input.c</text>
</a>
</g>
</g>
<!-- Node12&#45;&gt;Node14 -->
<g id="edge13" class="edge">
<title>Node12&#45;&gt;Node14</title>
<path fill="none" stroke="midnightblue" d="M801.89,-63.2C781.53,-53.58 753.66,-40.42 732.7,-30.52"/>
<polygon fill="midnightblue" stroke="midnightblue" points="800.41,-66.37 810.95,-67.48 803.4,-60.04 800.41,-66.37"/>
</g>
<!-- Node15 -->
<g id="node15" class="node">
<title>Node15</title>
<g id="a_node15"><a xlink:href="dev__sd_8c.html" target="_top" xlink:title=" ">
<polygon fill="none" stroke="black" points="769,-6 769,-25 889,-25 889,-6 769,-6"/>
<text text-anchor="middle" x="829" y="-13" font-family="Helvetica,sans-Serif" font-size="10.00">kernel/src/dev/dev_sd.c</text>
</a>
</g>
</g>
<!-- Node12&#45;&gt;Node15 -->
<g id="edge14" class="edge">
<title>Node12&#45;&gt;Node15</title>
<path fill="none" stroke="midnightblue" d="M829,-57.32C829,-46.5 829,-33.4 829,-25.01"/>
<polygon fill="midnightblue" stroke="midnightblue" points="825.5,-57.48 829,-67.48 832.5,-57.48 825.5,-57.48"/>
</g>
<!-- Node16 -->
<g id="node16" class="node">
<title>Node16</title>
<g id="a_node16"><a xlink:href="dev__tty_8c.html" target="_top" xlink:title=" ">
<polygon fill="none" stroke="black" points="906.5,-0.5 906.5,-30.5 1003.5,-30.5 1003.5,-0.5 906.5,-0.5"/>
<text text-anchor="start" x="914.5" y="-18.5" font-family="Helvetica,sans-Serif" font-size="10.00">kernel/src/dev/dev</text>
<text text-anchor="middle" x="955" y="-7.5" font-family="Helvetica,sans-Serif" font-size="10.00">_tty.c</text>
</a>
</g>
</g>
<!-- Node12&#45;&gt;Node16 -->
<g id="edge15" class="edge">
<title>Node12&#45;&gt;Node16</title>
<path fill="none" stroke="midnightblue" d="M856.11,-63.2C876.47,-53.58 904.34,-40.42 925.3,-30.52"/>
<polygon fill="midnightblue" stroke="midnightblue" points="854.6,-60.04 847.05,-67.48 857.59,-66.37 854.6,-60.04"/>
</g>
<!-- Node17 -->
<g id="node17" class="node">
<title>Node17</title>
<g id="a_node17"><a xlink:href="dev__video_8c.html" target="_top" xlink:title=" ">
<polygon fill="none" stroke="black" points="1021.5,-0.5 1021.5,-30.5 1118.5,-30.5 1118.5,-0.5 1021.5,-0.5"/>
<text text-anchor="start" x="1029.5" y="-18.5" font-family="Helvetica,sans-Serif" font-size="10.00">kernel/src/dev/dev</text>
<text text-anchor="middle" x="1070" y="-7.5" font-family="Helvetica,sans-Serif" font-size="10.00">_video.c</text>
</a>
</g>
</g>
<!-- Node12&#45;&gt;Node17 -->
<g id="edge16" class="edge">
<title>Node12&#45;&gt;Node17</title>
<path fill="none" stroke="midnightblue" d="M874.34,-65.04C911.6,-55.99 965.75,-42.79 1013,-31 1015.77,-30.31 1018.62,-29.59 1021.5,-28.87"/>
<polygon fill="midnightblue" stroke="midnightblue" points="873.19,-61.71 864.3,-67.47 874.84,-68.51 873.19,-61.71"/>
</g>
<!-- Node18&#45;&gt;Node12 -->
<g id="edge18" class="edge">
<title>Node18&#45;&gt;Node12</title>
<path fill="none" stroke="midnightblue" d="M1013.6,-121.15C969.95,-110.95 905.49,-95.88 865.43,-86.52"/>
<polygon fill="midnightblue" stroke="midnightblue" points="1012.86,-124.58 1023.4,-123.44 1014.46,-117.76 1012.86,-124.58"/>
</g>
<!-- Node18&#45;&gt;Node19 -->
<g id="edge19" class="edge">
<title>Node18&#45;&gt;Node19</title>
<path fill="none" stroke="midnightblue" d="M1033.48,-118.86C1013.27,-108.85 986.01,-95.35 968.47,-86.65"/>
<polygon fill="midnightblue" stroke="midnightblue" points="1031.97,-122.02 1042.49,-123.32 1035.08,-115.75 1031.97,-122.02"/>
</g>
<!-- Node18&#45;&gt;Node20 -->
<g id="edge20" class="edge">
<title>Node18&#45;&gt;Node20</title>
<path fill="none" stroke="midnightblue" d="M1087.72,-119.1C1109.39,-109.01 1138.9,-95.27 1157.71,-86.52"/>
<polygon fill="midnightblue" stroke="midnightblue" points="1085.97,-116.05 1078.38,-123.44 1088.92,-122.4 1085.97,-116.05"/>
</g>
<!-- Node21 -->
<g id="node21" class="node">
<title>Node21</title>
<g id="a_node21"><a xlink:href="spinlock_8c.html" target="_top" xlink:title=" ">
<polygon fill="none" stroke="black" points="1012,-67.5 1012,-86.5 1118,-86.5 1118,-67.5 1012,-67.5"/>
<text text-anchor="middle" x="1065" y="-74.5" font-family="Helvetica,sans-Serif" font-size="10.00">kernel/src/spinlock.c</text>
</a>
</g>
</g>
<!-- Node18&#45;&gt;Node21 -->
<g id="edge21" class="edge">
<title>Node18&#45;&gt;Node21</title>
<path fill="none" stroke="midnightblue" d="M1061.75,-113.1C1062.58,-104.14 1063.53,-93.86 1064.19,-86.75"/>
<polygon fill="midnightblue" stroke="midnightblue" points="1058.26,-112.8 1060.83,-123.08 1065.23,-113.45 1058.26,-112.8"/>
</g>
<!-- Node22&#45;&gt;Node12 -->
<g id="edge23" class="edge">
<title>Node22&#45;&gt;Node12</title>
<path fill="none" stroke="midnightblue" d="M868.67,-116.25C858.74,-106.67 846.41,-94.79 838.16,-86.83"/>
<polygon fill="midnightblue" stroke="midnightblue" points="866.37,-118.9 876,-123.32 871.23,-113.86 866.37,-118.9"/>
</g>
<!-- Node22&#45;&gt;Node19 -->
<g id="edge24" class="edge">
<title>Node22&#45;&gt;Node19</title>
<path fill="none" stroke="midnightblue" d="M903.55,-116.82C915.38,-107.15 930.29,-94.95 940.2,-86.83"/>
<polygon fill="midnightblue" stroke="midnightblue" points="901.13,-114.28 895.6,-123.32 905.56,-119.7 901.13,-114.28"/>
</g>
</g>
</svg>
