<?xml version="1.0" encoding="UTF-8" standalone="no"?>
<!DOCTYPE svg PUBLIC "-//W3C//DTD SVG 1.1//EN"
 "http://www.w3.org/Graphics/SVG/1.1/DTD/svg11.dtd">
<!-- Generated by graphviz version 3.0.0 (20220413.0106)
 -->
<!-- Title: abstract&#45;machine/klib/include/klib&#45;macros.h Pages: 1 -->
<svg width="1422pt" height="408pt"
 viewBox="0.00 0.00 1421.75 408.00" xmlns="http://www.w3.org/2000/svg" xmlns:xlink="http://www.w3.org/1999/xlink">
<g id="graph0" class="graph" transform="scale(1 1) rotate(0) translate(4 404)">
<title>abstract&#45;machine/klib/include/klib&#45;macros.h</title>
<!-- Node1 -->
<g id="node1" class="node">
<title>Node1</title>
<g id="a_node1"><a xlink:title=" ">
<polygon fill="#bfbfbf" stroke="black" points="671.5,-369.5 671.5,-399.5 782.5,-399.5 782.5,-369.5 671.5,-369.5"/>
<text text-anchor="start" x="679.5" y="-387.5" font-family="Helvetica,sans-Serif" font-size="10.00">abstract&#45;machine/klib</text>
<text text-anchor="middle" x="727" y="-376.5" font-family="Helvetica,sans-Serif" font-size="10.00">/include/klib&#45;macros.h</text>
</a>
</g>
</g>
<!-- Node2 -->
<g id="node2" class="node">
<title>Node2</title>
<g id="a_node2"><a xlink:href="x86-qemu_8h.html" target="_top" xlink:title=" ">
<polygon fill="none" stroke="black" points="303.5,-302.5 303.5,-332.5 434.5,-332.5 434.5,-302.5 303.5,-302.5"/>
<text text-anchor="start" x="311.5" y="-320.5" font-family="Helvetica,sans-Serif" font-size="10.00">abstract&#45;machine/am</text>
<text text-anchor="middle" x="369" y="-309.5" font-family="Helvetica,sans-Serif" font-size="10.00">/src/x86/qemu/x86&#45;qemu.h</text>
</a>
</g>
</g>
<!-- Node1&#45;&gt;Node2 -->
<g id="edge1" class="edge">
<title>Node1&#45;&gt;Node2</title>
<path fill="none" stroke="midnightblue" d="M661.41,-371.59C596.97,-359.89 499.19,-342.14 434.71,-330.43"/>
<polygon fill="midnightblue" stroke="midnightblue" points="660.99,-375.07 671.46,-373.42 662.24,-368.18 660.99,-375.07"/>
</g>
<!-- Node8 -->
<g id="node8" class="node">
<title>Node8</title>
<g id="a_node8"><a xlink:href="stdio_8c.html" target="_top" xlink:title=" ">
<polygon fill="none" stroke="black" points="608,-302.5 608,-332.5 718,-332.5 718,-302.5 608,-302.5"/>
<text text-anchor="start" x="616" y="-320.5" font-family="Helvetica,sans-Serif" font-size="10.00">abstract&#45;machine/klib</text>
<text text-anchor="middle" x="663" y="-309.5" font-family="Helvetica,sans-Serif" font-size="10.00">/src/stdio.c</text>
</a>
</g>
</g>
<!-- Node1&#45;&gt;Node8 -->
<g id="edge7" class="edge">
<title>Node1&#45;&gt;Node8</title>
<path fill="none" stroke="midnightblue" d="M705.85,-362.02C696.32,-352.34 685.33,-341.17 676.86,-332.58"/>
<polygon fill="midnightblue" stroke="midnightblue" points="703.6,-364.73 713.11,-369.4 708.59,-359.81 703.6,-364.73"/>
</g>
<!-- Node9 -->
<g id="node9" class="node">
<title>Node9</title>
<g id="a_node9"><a xlink:href="stdlib_8c.html" target="_top" xlink:title=" ">
<polygon fill="none" stroke="black" points="736,-302.5 736,-332.5 846,-332.5 846,-302.5 736,-302.5"/>
<text text-anchor="start" x="744" y="-320.5" font-family="Helvetica,sans-Serif" font-size="10.00">abstract&#45;machine/klib</text>
<text text-anchor="middle" x="791" y="-309.5" font-family="Helvetica,sans-Serif" font-size="10.00">/src/stdlib.c</text>
</a>
</g>
</g>
<!-- Node1&#45;&gt;Node9 -->
<g id="edge8" class="edge">
<title>Node1&#45;&gt;Node9</title>
<path fill="none" stroke="midnightblue" d="M748.15,-362.02C757.68,-352.34 768.67,-341.17 777.14,-332.58"/>
<polygon fill="midnightblue" stroke="midnightblue" points="745.41,-359.81 740.89,-369.4 750.4,-364.73 745.41,-359.81"/>
</g>
<!-- Node10 -->
<g id="node10" class="node">
<title>Node10</title>
<g id="a_node10"><a xlink:href="common_8h.html" target="_top" xlink:title=" ">
<polygon fill="none" stroke="black" points="1083.5,-308 1083.5,-327 1208.5,-327 1208.5,-308 1083.5,-308"/>
<text text-anchor="middle" x="1146" y="-315" font-family="Helvetica,sans-Serif" font-size="10.00">kernel/include/common.h</text>
</a>
</g>
</g>
<!-- Node1&#45;&gt;Node10 -->
<g id="edge9" class="edge">
<title>Node1&#45;&gt;Node10</title>
<path fill="none" stroke="midnightblue" d="M792.62,-373.32C874.85,-360.56 1014.29,-338.93 1091.13,-327.01"/>
<polygon fill="midnightblue" stroke="midnightblue" points="791.99,-369.88 782.64,-374.87 793.06,-376.79 791.99,-369.88"/>
</g>
<!-- Node3 -->
<g id="node3" class="node">
<title>Node3</title>
<g id="a_node3"><a xlink:href="cte_8c.html" target="_top" xlink:title=" ">
<polygon fill="none" stroke="black" points="0,-235.5 0,-265.5 108,-265.5 108,-235.5 0,-235.5"/>
<text text-anchor="start" x="8" y="-253.5" font-family="Helvetica,sans-Serif" font-size="10.00">abstract&#45;machine/am</text>
<text text-anchor="middle" x="54" y="-242.5" font-family="Helvetica,sans-Serif" font-size="10.00">/src/x86/qemu/cte.c</text>
</a>
</g>
</g>
<!-- Node2&#45;&gt;Node3 -->
<g id="edge2" class="edge">
<title>Node2&#45;&gt;Node3</title>
<path fill="none" stroke="midnightblue" d="M293.26,-301.91C243.16,-292.11 176.07,-278.71 117,-266 114.15,-265.39 111.22,-264.75 108.27,-264.09"/>
<polygon fill="midnightblue" stroke="midnightblue" points="292.88,-305.4 303.36,-303.88 294.22,-298.53 292.88,-305.4"/>
</g>
<!-- Node4 -->
<g id="node4" class="node">
<title>Node4</title>
<g id="a_node4"><a xlink:href="ioe_8c.html" target="_top" xlink:title=" ">
<polygon fill="none" stroke="black" points="126,-235.5 126,-265.5 234,-265.5 234,-235.5 126,-235.5"/>
<text text-anchor="start" x="134" y="-253.5" font-family="Helvetica,sans-Serif" font-size="10.00">abstract&#45;machine/am</text>
<text text-anchor="middle" x="180" y="-242.5" font-family="Helvetica,sans-Serif" font-size="10.00">/src/x86/qemu/ioe.c</text>
</a>
</g>
</g>
<!-- Node2&#45;&gt;Node4 -->
<g id="edge3" class="edge">
<title>Node2&#45;&gt;Node4</title>
<path fill="none" stroke="midnightblue" d="M318.38,-299.09C287.87,-288.6 249.52,-275.41 220.93,-265.58"/>
<polygon fill="midnightblue" stroke="midnightblue" points="317.4,-302.45 327.99,-302.4 319.67,-295.83 317.4,-302.45"/>
</g>
<!-- Node5 -->
<g id="node5" class="node">
<title>Node5</title>
<g id="a_node5"><a xlink:href="mpe_8c.html" target="_top" xlink:title=" ">
<polygon fill="none" stroke="black" points="252,-235.5 252,-265.5 360,-265.5 360,-235.5 252,-235.5"/>
<text text-anchor="start" x="260" y="-253.5" font-family="Helvetica,sans-Serif" font-size="10.00">abstract&#45;machine/am</text>
<text text-anchor="middle" x="306" y="-242.5" font-family="Helvetica,sans-Serif" font-size="10.00">/src/x86/qemu/mpe.c</text>
</a>
</g>
</g>
<!-- Node2&#45;&gt;Node5 -->
<g id="edge4" class="edge">
<title>Node2&#45;&gt;Node5</title>
<path fill="none" stroke="midnightblue" d="M348.19,-295.02C338.8,-285.34 327.98,-274.17 319.64,-265.58"/>
<polygon fill="midnightblue" stroke="midnightblue" points="345.86,-297.65 355.33,-302.4 350.88,-292.78 345.86,-297.65"/>
</g>
<!-- Node6 -->
<g id="node6" class="node">
<title>Node6</title>
<g id="a_node6"><a xlink:href="trm_8c.html" target="_top" xlink:title=" ">
<polygon fill="none" stroke="black" points="378,-235.5 378,-265.5 486,-265.5 486,-235.5 378,-235.5"/>
<text text-anchor="start" x="386" y="-253.5" font-family="Helvetica,sans-Serif" font-size="10.00">abstract&#45;machine/am</text>
<text text-anchor="middle" x="432" y="-242.5" font-family="Helvetica,sans-Serif" font-size="10.00">/src/x86/qemu/trm.c</text>
</a>
</g>
</g>
<!-- Node2&#45;&gt;Node6 -->
<g id="edge5" class="edge">
<title>Node2&#45;&gt;Node6</title>
<path fill="none" stroke="midnightblue" d="M389.81,-295.02C399.2,-285.34 410.02,-274.17 418.36,-265.58"/>
<polygon fill="midnightblue" stroke="midnightblue" points="387.12,-292.78 382.67,-302.4 392.14,-297.65 387.12,-292.78"/>
</g>
<!-- Node7 -->
<g id="node7" class="node">
<title>Node7</title>
<g id="a_node7"><a xlink:href="vme_8c.html" target="_top" xlink:title=" ">
<polygon fill="none" stroke="black" points="504,-235.5 504,-265.5 612,-265.5 612,-235.5 504,-235.5"/>
<text text-anchor="start" x="512" y="-253.5" font-family="Helvetica,sans-Serif" font-size="10.00">abstract&#45;machine/am</text>
<text text-anchor="middle" x="558" y="-242.5" font-family="Helvetica,sans-Serif" font-size="10.00">/src/x86/qemu/vme.c</text>
</a>
</g>
</g>
<!-- Node2&#45;&gt;Node7 -->
<g id="edge6" class="edge">
<title>Node2&#45;&gt;Node7</title>
<path fill="none" stroke="midnightblue" d="M419.62,-299.09C450.13,-288.6 488.48,-275.41 517.07,-265.58"/>
<polygon fill="midnightblue" stroke="midnightblue" points="418.33,-295.83 410.01,-302.4 420.6,-302.45 418.33,-295.83"/>
</g>
<!-- Node11 -->
<g id="node11" class="node">
<title>Node11</title>
<g id="a_node11"><a xlink:href="buddy_8h.html" target="_top" xlink:title=" ">
<polygon fill="none" stroke="black" points="1212.5,-241 1212.5,-260 1325.5,-260 1325.5,-241 1212.5,-241"/>
<text text-anchor="middle" x="1269" y="-248" font-family="Helvetica,sans-Serif" font-size="10.00">kernel/include/buddy.h</text>
</a>
</g>
</g>
<!-- Node10&#45;&gt;Node11 -->
<g id="edge10" class="edge">
<title>Node10&#45;&gt;Node11</title>
<path fill="none" stroke="midnightblue" d="M1171.35,-303.1C1195.71,-290.23 1231.8,-271.16 1252.6,-260.17"/>
<polygon fill="midnightblue" stroke="midnightblue" points="1169.54,-300.1 1162.33,-307.87 1172.81,-306.29 1169.54,-300.1"/>
</g>
<!-- Node12 -->
<g id="node12" class="node">
<title>Node12</title>
<g id="a_node12"><a xlink:href="buddy_8c.html" target="_top" xlink:title="impl of buddy system">
<polygon fill="none" stroke="black" points="1174.5,-179.5 1174.5,-198.5 1269.5,-198.5 1269.5,-179.5 1174.5,-179.5"/>
<text text-anchor="middle" x="1222" y="-186.5" font-family="Helvetica,sans-Serif" font-size="10.00">kernel/src/buddy.c</text>
</a>
</g>
</g>
<!-- Node10&#45;&gt;Node12 -->
<g id="edge35" class="edge">
<title>Node10&#45;&gt;Node12</title>
<path fill="none" stroke="midnightblue" d="M1156.57,-298.9C1173.07,-271.44 1204.34,-219.4 1216.74,-198.76"/>
<polygon fill="midnightblue" stroke="midnightblue" points="1153.37,-297.43 1151.22,-307.81 1159.37,-301.04 1153.37,-297.43"/>
</g>
<!-- Node13 -->
<g id="node13" class="node">
<title>Node13</title>
<g id="a_node13"><a xlink:href="pmm_8c.html" target="_top" xlink:title=" ">
<polygon fill="none" stroke="black" points="1288,-179.5 1288,-198.5 1380,-198.5 1380,-179.5 1288,-179.5"/>
<text text-anchor="middle" x="1334" y="-186.5" font-family="Helvetica,sans-Serif" font-size="10.00">kernel/src/pmm.c</text>
</a>
</g>
</g>
<!-- Node10&#45;&gt;Node13 -->
<g id="edge38" class="edge">
<title>Node10&#45;&gt;Node13</title>
<path fill="none" stroke="midnightblue" d="M1218.76,-306.33C1265.69,-298.11 1320.56,-284.8 1335,-266 1350.27,-246.11 1342.32,-213.88 1337.21,-198.58"/>
<polygon fill="midnightblue" stroke="midnightblue" points="1218.16,-302.88 1208.89,-308.01 1219.33,-309.78 1218.16,-302.88"/>
</g>
<!-- Node14 -->
<g id="node14" class="node">
<title>Node14</title>
<g id="a_node14"><a xlink:href="devices_8h.html" target="_top" xlink:title=" ">
<polygon fill="none" stroke="black" points="641.5,-67.5 641.5,-86.5 762.5,-86.5 762.5,-67.5 641.5,-67.5"/>
<text text-anchor="middle" x="702" y="-74.5" font-family="Helvetica,sans-Serif" font-size="10.00">kernel/include/devices.h</text>
</a>
</g>
</g>
<!-- Node10&#45;&gt;Node14 -->
<g id="edge13" class="edge">
<title>Node10&#45;&gt;Node14</title>
<path fill="none" stroke="midnightblue" d="M1073.24,-312.96C1003.42,-307.88 895.78,-295.58 807,-266 747.57,-246.2 716.51,-251.92 683,-199 664.92,-170.44 672.38,-155.93 680,-123 683.14,-109.44 690.95,-95.26 696.36,-86.52"/>
<polygon fill="midnightblue" stroke="midnightblue" points="1073.04,-316.45 1083.26,-313.66 1073.52,-309.47 1073.04,-316.45"/>
</g>
<!-- Node20 -->
<g id="node20" class="node">
<title>Node20</title>
<g id="a_node20"><a xlink:href="sem_8h.html" target="_top" xlink:title=" ">
<polygon fill="none" stroke="black" points="889,-123.5 889,-142.5 995,-142.5 995,-123.5 889,-123.5"/>
<text text-anchor="middle" x="942" y="-130.5" font-family="Helvetica,sans-Serif" font-size="10.00">kernel/include/sem.h</text>
</a>
</g>
</g>
<!-- Node10&#45;&gt;Node20 -->
<g id="edge19" class="edge">
<title>Node10&#45;&gt;Node20</title>
<path fill="none" stroke="midnightblue" d="M1149.42,-297.62C1153.55,-268.31 1156.67,-211.83 1127,-179 1109.55,-159.69 1043.55,-147.1 995.34,-140.28"/>
<polygon fill="midnightblue" stroke="midnightblue" points="1145.92,-297.3 1147.79,-307.73 1152.83,-298.42 1145.92,-297.3"/>
</g>
<!-- Node21 -->
<g id="node21" class="node">
<title>Node21</title>
<g id="a_node21"><a xlink:href="kmt_8c.html" target="_top" xlink:title=" ">
<polygon fill="none" stroke="black" points="805,-67.5 805,-86.5 891,-86.5 891,-67.5 805,-67.5"/>
<text text-anchor="middle" x="848" y="-74.5" font-family="Helvetica,sans-Serif" font-size="10.00">kernel/src/kmt.c</text>
</a>
</g>
</g>
<!-- Node10&#45;&gt;Node21 -->
<g id="edge36" class="edge">
<title>Node10&#45;&gt;Node21</title>
<path fill="none" stroke="midnightblue" d="M1218.73,-308.5C1277.93,-300.61 1355.4,-286.71 1379,-266 1409.15,-239.55 1424.65,-212.76 1403,-179 1325.21,-57.7 1014.69,-102.02 901,-87 897.76,-86.57 894.42,-86.09 891.06,-85.58"/>
<polygon fill="midnightblue" stroke="midnightblue" points="1218.12,-305.05 1208.66,-309.81 1219.03,-311.99 1218.12,-305.05"/>
</g>
<!-- Node23 -->
<g id="node23" class="node">
<title>Node23</title>
<g id="a_node23"><a xlink:href="spinlock_8h.html" target="_top" xlink:title=" ">
<polygon fill="none" stroke="black" points="867.5,-241 867.5,-260 990.5,-260 990.5,-241 867.5,-241"/>
<text text-anchor="middle" x="929" y="-248" font-family="Helvetica,sans-Serif" font-size="10.00">kernel/include/spinlock.h</text>
</a>
</g>
</g>
<!-- Node10&#45;&gt;Node23 -->
<g id="edge23" class="edge">
<title>Node10&#45;&gt;Node23</title>
<path fill="none" stroke="midnightblue" d="M1107.37,-304.93C1064.4,-292.06 996,-271.57 957.59,-260.06"/>
<polygon fill="midnightblue" stroke="midnightblue" points="1106.6,-308.35 1117.18,-307.87 1108.61,-301.65 1106.6,-308.35"/>
</g>
<!-- Node24 -->
<g id="node24" class="node">
<title>Node24</title>
<g id="a_node24"><a xlink:href="thread_8h.html" target="_top" xlink:title=" ">
<polygon fill="none" stroke="black" points="706,-179.5 706,-198.5 820,-198.5 820,-179.5 706,-179.5"/>
<text text-anchor="middle" x="763" y="-186.5" font-family="Helvetica,sans-Serif" font-size="10.00">kernel/include/thread.h</text>
</a>
</g>
</g>
<!-- Node10&#45;&gt;Node24 -->
<g id="edge34" class="edge">
<title>Node10&#45;&gt;Node24</title>
<path fill="none" stroke="midnightblue" d="M1073.11,-313.71C1013.06,-309.11 926.88,-297.11 858,-266 821.04,-249.31 786.08,-214.91 770.91,-198.75"/>
<polygon fill="midnightblue" stroke="midnightblue" points="1073.04,-317.22 1083.26,-314.44 1073.54,-310.23 1073.04,-317.22"/>
</g>
<!-- Node25 -->
<g id="node25" class="node">
<title>Node25</title>
<g id="a_node25"><a xlink:href="syscall_8c.html" target="_top" xlink:title=" ">
<polygon fill="none" stroke="black" points="1172,-123.5 1172,-142.5 1272,-142.5 1272,-123.5 1172,-123.5"/>
<text text-anchor="middle" x="1222" y="-130.5" font-family="Helvetica,sans-Serif" font-size="10.00">kernel/src/syscall.c</text>
</a>
</g>
</g>
<!-- Node10&#45;&gt;Node25 -->
<g id="edge39" class="edge">
<title>Node10&#45;&gt;Node25</title>
<path fill="none" stroke="midnightblue" d="M1218.91,-313.29C1261.75,-308.09 1314.81,-295.55 1353,-266 1379.74,-245.31 1380.75,-231.78 1389,-199 1401.76,-148.31 1325.85,-136.16 1272.16,-133.79"/>
<polygon fill="midnightblue" stroke="midnightblue" points="1218.37,-309.83 1208.81,-314.41 1219.14,-316.79 1218.37,-309.83"/>
</g>
<!-- Node26 -->
<g id="node26" class="node">
<title>Node26</title>
<g id="a_node26"><a xlink:href="os_8c.html" target="_top" xlink:title=" ">
<polygon fill="none" stroke="black" points="1038,-179.5 1038,-198.5 1118,-198.5 1118,-179.5 1038,-179.5"/>
<text text-anchor="middle" x="1078" y="-186.5" font-family="Helvetica,sans-Serif" font-size="10.00">kernel/src/os.c</text>
</a>
</g>
</g>
<!-- Node10&#45;&gt;Node26 -->
<g id="edge37" class="edge">
<title>Node10&#45;&gt;Node26</title>
<path fill="none" stroke="midnightblue" d="M1136.54,-298.9C1121.78,-271.44 1093.8,-219.4 1082.71,-198.76"/>
<polygon fill="midnightblue" stroke="midnightblue" points="1133.51,-300.65 1141.33,-307.81 1139.67,-297.34 1133.51,-300.65"/>
</g>
<!-- Node11&#45;&gt;Node12 -->
<g id="edge11" class="edge">
<title>Node11&#45;&gt;Node12</title>
<path fill="none" stroke="midnightblue" d="M1255.84,-232.84C1247.02,-221.67 1235.77,-207.43 1228.72,-198.51"/>
<polygon fill="midnightblue" stroke="midnightblue" points="1253.32,-235.3 1262.27,-240.98 1258.81,-230.96 1253.32,-235.3"/>
</g>
<!-- Node11&#45;&gt;Node13 -->
<g id="edge12" class="edge">
<title>Node11&#45;&gt;Node13</title>
<path fill="none" stroke="midnightblue" d="M1285.77,-234.15C1298.16,-222.81 1314.58,-207.78 1324.7,-198.51"/>
<polygon fill="midnightblue" stroke="midnightblue" points="1283.33,-231.64 1278.31,-240.98 1288.05,-236.8 1283.33,-231.64"/>
</g>
<!-- Node15 -->
<g id="node15" class="node">
<title>Node15</title>
<g id="a_node15"><a xlink:href="dev_8c.html" target="_top" xlink:title=" ">
<polygon fill="none" stroke="black" points="405,-6 405,-25 509,-25 509,-6 405,-6"/>
<text text-anchor="middle" x="457" y="-13" font-family="Helvetica,sans-Serif" font-size="10.00">kernel/src/dev/dev.c</text>
</a>
</g>
</g>
<!-- Node14&#45;&gt;Node15 -->
<g id="edge14" class="edge">
<title>Node14&#45;&gt;Node15</title>
<path fill="none" stroke="midnightblue" d="M657.17,-65.11C609.62,-53.57 535.49,-35.56 492.04,-25.01"/>
<polygon fill="midnightblue" stroke="midnightblue" points="656.35,-68.52 666.9,-67.48 658.01,-61.71 656.35,-68.52"/>
</g>
<!-- Node16 -->
<g id="node16" class="node">
<title>Node16</title>
<g id="a_node16"><a xlink:href="dev__input_8c.html" target="_top" xlink:title=" ">
<polygon fill="none" stroke="black" points="527.5,-0.5 527.5,-30.5 624.5,-30.5 624.5,-0.5 527.5,-0.5"/>
<text text-anchor="start" x="535.5" y="-18.5" font-family="Helvetica,sans-Serif" font-size="10.00">kernel/src/dev/dev</text>
<text text-anchor="middle" x="576" y="-7.5" font-family="Helvetica,sans-Serif" font-size="10.00">_input.c</text>
</a>
</g>
</g>
<!-- Node14&#45;&gt;Node16 -->
<g id="edge15" class="edge">
<title>Node14&#45;&gt;Node16</title>
<path fill="none" stroke="midnightblue" d="M674.89,-63.2C654.53,-53.58 626.66,-40.42 605.7,-30.52"/>
<polygon fill="midnightblue" stroke="midnightblue" points="673.41,-66.37 683.95,-67.48 676.4,-60.04 673.41,-66.37"/>
</g>
<!-- Node17 -->
<g id="node17" class="node">
<title>Node17</title>
<g id="a_node17"><a xlink:href="dev__sd_8c.html" target="_top" xlink:title=" ">
<polygon fill="none" stroke="black" points="642,-6 642,-25 762,-25 762,-6 642,-6"/>
<text text-anchor="middle" x="702" y="-13" font-family="Helvetica,sans-Serif" font-size="10.00">kernel/src/dev/dev_sd.c</text>
</a>
</g>
</g>
<!-- Node14&#45;&gt;Node17 -->
<g id="edge16" class="edge">
<title>Node14&#45;&gt;Node17</title>
<path fill="none" stroke="midnightblue" d="M702,-57.32C702,-46.5 702,-33.4 702,-25.01"/>
<polygon fill="midnightblue" stroke="midnightblue" points="698.5,-57.48 702,-67.48 705.5,-57.48 698.5,-57.48"/>
</g>
<!-- Node18 -->
<g id="node18" class="node">
<title>Node18</title>
<g id="a_node18"><a xlink:href="dev__tty_8c.html" target="_top" xlink:title=" ">
<polygon fill="none" stroke="black" points="779.5,-0.5 779.5,-30.5 876.5,-30.5 876.5,-0.5 779.5,-0.5"/>
<text text-anchor="start" x="787.5" y="-18.5" font-family="Helvetica,sans-Serif" font-size="10.00">kernel/src/dev/dev</text>
<text text-anchor="middle" x="828" y="-7.5" font-family="Helvetica,sans-Serif" font-size="10.00">_tty.c</text>
</a>
</g>
</g>
<!-- Node14&#45;&gt;Node18 -->
<g id="edge17" class="edge">
<title>Node14&#45;&gt;Node18</title>
<path fill="none" stroke="midnightblue" d="M729.11,-63.2C749.47,-53.58 777.34,-40.42 798.3,-30.52"/>
<polygon fill="midnightblue" stroke="midnightblue" points="727.6,-60.04 720.05,-67.48 730.59,-66.37 727.6,-60.04"/>
</g>
<!-- Node19 -->
<g id="node19" class="node">
<title>Node19</title>
<g id="a_node19"><a xlink:href="dev__video_8c.html" target="_top" xlink:title=" ">
<polygon fill="none" stroke="black" points="894.5,-0.5 894.5,-30.5 991.5,-30.5 991.5,-0.5 894.5,-0.5"/>
<text text-anchor="start" x="902.5" y="-18.5" font-family="Helvetica,sans-Serif" font-size="10.00">kernel/src/dev/dev</text>
<text text-anchor="middle" x="943" y="-7.5" font-family="Helvetica,sans-Serif" font-size="10.00">_video.c</text>
</a>
</g>
</g>
<!-- Node14&#45;&gt;Node19 -->
<g id="edge18" class="edge">
<title>Node14&#45;&gt;Node19</title>
<path fill="none" stroke="midnightblue" d="M746.73,-65.05C783.79,-55.97 837.83,-42.7 885,-31 888.02,-30.25 891.13,-29.48 894.27,-28.7"/>
<polygon fill="midnightblue" stroke="midnightblue" points="745.63,-61.72 736.75,-67.5 747.3,-68.52 745.63,-61.72"/>
</g>
<!-- Node20&#45;&gt;Node14 -->
<g id="edge20" class="edge">
<title>Node20&#45;&gt;Node14</title>
<path fill="none" stroke="midnightblue" d="M894.08,-121.22C848.73,-111.01 781.56,-95.9 739.85,-86.52"/>
<polygon fill="midnightblue" stroke="midnightblue" points="893.45,-124.66 903.97,-123.44 894.98,-117.83 893.45,-124.66"/>
</g>
<!-- Node20&#45;&gt;Node21 -->
<g id="edge21" class="edge">
<title>Node20&#45;&gt;Node21</title>
<path fill="none" stroke="midnightblue" d="M917.94,-118.18C900.64,-108.24 877.85,-95.15 863.07,-86.65"/>
<polygon fill="midnightblue" stroke="midnightblue" points="916.48,-121.38 926.9,-123.32 919.97,-115.31 916.48,-121.38"/>
</g>
<!-- Node22 -->
<g id="node22" class="node">
<title>Node22</title>
<g id="a_node22"><a xlink:href="sem_8c.html" target="_top" xlink:title=" ">
<polygon fill="none" stroke="black" points="909.5,-67.5 909.5,-86.5 998.5,-86.5 998.5,-67.5 909.5,-67.5"/>
<text text-anchor="middle" x="954" y="-74.5" font-family="Helvetica,sans-Serif" font-size="10.00">kernel/src/sem.c</text>
</a>
</g>
</g>
<!-- Node20&#45;&gt;Node22 -->
<g id="edge22" class="edge">
<title>Node20&#45;&gt;Node22</title>
<path fill="none" stroke="midnightblue" d="M946.2,-113.1C948.19,-104.14 950.48,-93.86 952.06,-86.75"/>
<polygon fill="midnightblue" stroke="midnightblue" points="942.73,-112.56 943.98,-123.08 949.57,-114.08 942.73,-112.56"/>
</g>
<!-- Node23&#45;&gt;Node14 -->
<g id="edge24" class="edge">
<title>Node23&#45;&gt;Node14</title>
<path fill="none" stroke="midnightblue" d="M857.16,-243.59C796.67,-236.94 716.89,-223.69 697,-199 670.09,-165.6 689.24,-108.6 698.13,-86.82"/>
<polygon fill="midnightblue" stroke="midnightblue" points="857.14,-247.11 867.46,-244.68 857.88,-240.14 857.14,-247.11"/>
</g>
<!-- Node23&#45;&gt;Node20 -->
<g id="edge25" class="edge">
<title>Node23&#45;&gt;Node20</title>
<path fill="none" stroke="midnightblue" d="M955.46,-235.53C968.76,-226.94 983.59,-214.59 991,-199 1001.62,-176.66 974.82,-154.49 956.8,-142.7"/>
<polygon fill="midnightblue" stroke="midnightblue" points="953.36,-232.71 946.61,-240.87 956.98,-238.7 953.36,-232.71"/>
</g>
<!-- Node23&#45;&gt;Node21 -->
<g id="edge31" class="edge">
<title>Node23&#45;&gt;Node21</title>
<path fill="none" stroke="midnightblue" d="M904.25,-235.55C891.05,-226.79 875.77,-214.26 867,-199 845.49,-161.57 846.15,-107.42 847.34,-86.6"/>
<polygon fill="midnightblue" stroke="midnightblue" points="902.62,-238.65 912.95,-241 906.33,-232.72 902.62,-238.65"/>
</g>
<!-- Node23&#45;&gt;Node24 -->
<g id="edge26" class="edge">
<title>Node23&#45;&gt;Node24</title>
<path fill="none" stroke="midnightblue" d="M895.75,-237.58C863.48,-226.02 815.32,-208.75 786.74,-198.51"/>
<polygon fill="midnightblue" stroke="midnightblue" points="894.62,-240.9 905.22,-240.98 896.98,-234.31 894.62,-240.9"/>
</g>
<!-- Node23&#45;&gt;Node26 -->
<g id="edge32" class="edge">
<title>Node23&#45;&gt;Node26</title>
<path fill="none" stroke="midnightblue" d="M959.97,-237.13C988.92,-225.57 1031.37,-208.62 1056.69,-198.51"/>
<polygon fill="midnightblue" stroke="midnightblue" points="958.34,-234.02 950.35,-240.98 960.93,-240.52 958.34,-234.02"/>
</g>
<!-- Node27 -->
<g id="node27" class="node">
<title>Node27</title>
<g id="a_node27"><a xlink:href="spinlock_8c.html" target="_top" xlink:title=" ">
<polygon fill="none" stroke="black" points="876,-179.5 876,-198.5 982,-198.5 982,-179.5 876,-179.5"/>
<text text-anchor="middle" x="929" y="-186.5" font-family="Helvetica,sans-Serif" font-size="10.00">kernel/src/spinlock.c</text>
</a>
</g>
</g>
<!-- Node23&#45;&gt;Node27 -->
<g id="edge33" class="edge">
<title>Node23&#45;&gt;Node27</title>
<path fill="none" stroke="midnightblue" d="M929,-230.82C929,-220 929,-206.9 929,-198.51"/>
<polygon fill="midnightblue" stroke="midnightblue" points="925.5,-230.98 929,-240.98 932.5,-230.98 925.5,-230.98"/>
</g>
<!-- Node24&#45;&gt;Node14 -->
<g id="edge27" class="edge">
<title>Node24&#45;&gt;Node14</title>
<path fill="none" stroke="midnightblue" d="M753.2,-170.32C739.91,-146.37 716.72,-104.55 706.76,-86.59"/>
<polygon fill="midnightblue" stroke="midnightblue" points="750.3,-172.32 758.21,-179.37 756.42,-168.93 750.3,-172.32"/>
</g>
<!-- Node24&#45;&gt;Node20 -->
<g id="edge28" class="edge">
<title>Node24&#45;&gt;Node20</title>
<path fill="none" stroke="midnightblue" d="M801.33,-176.44C835.08,-166.26 883.45,-151.66 913.77,-142.52"/>
<polygon fill="midnightblue" stroke="midnightblue" points="799.93,-173.2 791.36,-179.44 801.95,-179.91 799.93,-173.2"/>
</g>
<!-- Node24&#45;&gt;Node21 -->
<g id="edge29" class="edge">
<title>Node24&#45;&gt;Node21</title>
<path fill="none" stroke="midnightblue" d="M775.93,-171.27C794.3,-147.49 827.3,-104.79 841.36,-86.59"/>
<polygon fill="midnightblue" stroke="midnightblue" points="773.01,-169.32 769.67,-179.37 778.55,-173.6 773.01,-169.32"/>
</g>
<!-- Node24&#45;&gt;Node25 -->
<g id="edge30" class="edge">
<title>Node24&#45;&gt;Node25</title>
<path fill="none" stroke="midnightblue" d="M830.35,-180.08C923.34,-169.14 1088.93,-149.65 1171.83,-139.9"/>
<polygon fill="midnightblue" stroke="midnightblue" points="829.73,-176.63 820.2,-181.27 830.55,-183.58 829.73,-176.63"/>
</g>
</g>
</svg>
