<?xml version="1.0" encoding="UTF-8" standalone="no"?>
<!DOCTYPE svg PUBLIC "-//W3C//DTD SVG 1.1//EN"
 "http://www.w3.org/Graphics/SVG/1.1/DTD/svg11.dtd">
<!-- Generated by graphviz version 2.50.0 (20220203.2022)
 -->
<!-- Title: abstract&#45;machine/klib/include/klib.h Pages: 1 -->
<svg width="1263pt" height="173pt"
 viewBox="0.00 0.00 1263.00 173.00" xmlns="http://www.w3.org/2000/svg" xmlns:xlink="http://www.w3.org/1999/xlink">
<g id="graph0" class="graph" transform="scale(1 1) rotate(0) translate(4 169)">
<title>abstract&#45;machine/klib/include/klib.h</title>
<!-- Node1 -->
<g id="node1" class="node">
<title>Node1</title>
<g id="a_node1"><a xlink:title=" ">
<polygon fill="#bfbfbf" stroke="black" points="569,-134.5 569,-164.5 679,-164.5 679,-134.5 569,-134.5"/>
<text text-anchor="start" x="577" y="-152.5" font-family="Helvetica,sans-Serif" font-size="10.00">abstract&#45;machine/klib</text>
<text text-anchor="middle" x="624" y="-141.5" font-family="Helvetica,sans-Serif" font-size="10.00">/include/klib.h</text>
</a>
</g>
</g>
<!-- Node2 -->
<g id="node2" class="node">
<title>Node2</title>
<g id="a_node2"><a xlink:href="audio_8c.html" target="_top" xlink:title=" ">
<polygon fill="none" stroke="black" points="59,-67.5 59,-97.5 171,-97.5 171,-67.5 59,-67.5"/>
<text text-anchor="start" x="67" y="-85.5" font-family="Helvetica,sans-Serif" font-size="10.00">abstract&#45;machine/am</text>
<text text-anchor="middle" x="115" y="-74.5" font-family="Helvetica,sans-Serif" font-size="10.00">/src/native/ioe/audio.c</text>
</a>
</g>
</g>
<!-- Node1&#45;&gt;Node2 -->
<g id="edge1" class="edge">
<title>Node1&#45;&gt;Node2</title>
<path fill="none" stroke="midnightblue" d="M558.73,-143.26C471.9,-135.8 313.76,-120.46 180,-98 177.15,-97.52 174.24,-97 171.3,-96.44"/>
<polygon fill="midnightblue" stroke="midnightblue" points="558.45,-146.75 568.71,-144.11 559.04,-139.78 558.45,-146.75"/>
</g>
<!-- Node3 -->
<g id="node3" class="node">
<title>Node3</title>
<g id="a_node3"><a xlink:href="platform_8h.html" target="_top" xlink:title=" ">
<polygon fill="none" stroke="black" points="189,-67.5 189,-97.5 297,-97.5 297,-67.5 189,-67.5"/>
<text text-anchor="start" x="197" y="-85.5" font-family="Helvetica,sans-Serif" font-size="10.00">abstract&#45;machine/am</text>
<text text-anchor="middle" x="243" y="-74.5" font-family="Helvetica,sans-Serif" font-size="10.00">/src/native/platform.h</text>
</a>
</g>
</g>
<!-- Node1&#45;&gt;Node3 -->
<g id="edge2" class="edge">
<title>Node1&#45;&gt;Node3</title>
<path fill="none" stroke="midnightblue" d="M558.92,-139.5C494.48,-130.28 393.12,-114.92 306,-98 303.14,-97.44 300.2,-96.85 297.25,-96.23"/>
<polygon fill="midnightblue" stroke="midnightblue" points="558.54,-142.98 568.93,-140.93 559.53,-136.05 558.54,-142.98"/>
</g>
<!-- Node8 -->
<g id="node8" class="node">
<title>Node8</title>
<g id="a_node8"><a xlink:href="x86_2qemu_2ioe_8c.html" target="_top" xlink:title=" ">
<polygon fill="none" stroke="black" points="315,-67.5 315,-97.5 423,-97.5 423,-67.5 315,-67.5"/>
<text text-anchor="start" x="323" y="-85.5" font-family="Helvetica,sans-Serif" font-size="10.00">abstract&#45;machine/am</text>
<text text-anchor="middle" x="369" y="-74.5" font-family="Helvetica,sans-Serif" font-size="10.00">/src/x86/qemu/ioe.c</text>
</a>
</g>
</g>
<!-- Node1&#45;&gt;Node8 -->
<g id="edge7" class="edge">
<title>Node1&#45;&gt;Node8</title>
<path fill="none" stroke="midnightblue" d="M559.1,-131.96C517.01,-121.23 462.8,-107.41 423.04,-97.28"/>
<polygon fill="midnightblue" stroke="midnightblue" points="558.43,-135.4 568.98,-134.48 560.16,-128.61 558.43,-135.4"/>
</g>
<!-- Node9 -->
<g id="node9" class="node">
<title>Node9</title>
<g id="a_node9"><a xlink:href="cpp_8c.html" target="_top" xlink:title=" ">
<polygon fill="none" stroke="black" points="441,-67.5 441,-97.5 551,-97.5 551,-67.5 441,-67.5"/>
<text text-anchor="start" x="449" y="-85.5" font-family="Helvetica,sans-Serif" font-size="10.00">abstract&#45;machine/klib</text>
<text text-anchor="middle" x="496" y="-74.5" font-family="Helvetica,sans-Serif" font-size="10.00">/src/cpp.c</text>
</a>
</g>
</g>
<!-- Node1&#45;&gt;Node9 -->
<g id="edge8" class="edge">
<title>Node1&#45;&gt;Node9</title>
<path fill="none" stroke="midnightblue" d="M587.28,-129.85C567.04,-119.58 542.33,-107.03 523.72,-97.58"/>
<polygon fill="midnightblue" stroke="midnightblue" points="585.72,-132.99 596.23,-134.4 588.89,-126.75 585.72,-132.99"/>
</g>
<!-- Node10 -->
<g id="node10" class="node">
<title>Node10</title>
<g id="a_node10"><a xlink:href="stdio_8c.html" target="_top" xlink:title=" ">
<polygon fill="none" stroke="black" points="569,-67.5 569,-97.5 679,-97.5 679,-67.5 569,-67.5"/>
<text text-anchor="start" x="577" y="-85.5" font-family="Helvetica,sans-Serif" font-size="10.00">abstract&#45;machine/klib</text>
<text text-anchor="middle" x="624" y="-74.5" font-family="Helvetica,sans-Serif" font-size="10.00">/src/stdio.c</text>
</a>
</g>
</g>
<!-- Node1&#45;&gt;Node10 -->
<g id="edge9" class="edge">
<title>Node1&#45;&gt;Node10</title>
<path fill="none" stroke="midnightblue" d="M624,-124.11C624,-115.15 624,-105.32 624,-97.58"/>
<polygon fill="midnightblue" stroke="midnightblue" points="620.5,-124.4 624,-134.4 627.5,-124.4 620.5,-124.4"/>
</g>
<!-- Node11 -->
<g id="node11" class="node">
<title>Node11</title>
<g id="a_node11"><a xlink:href="stdlib_8c.html" target="_top" xlink:title=" ">
<polygon fill="none" stroke="black" points="697,-67.5 697,-97.5 807,-97.5 807,-67.5 697,-67.5"/>
<text text-anchor="start" x="705" y="-85.5" font-family="Helvetica,sans-Serif" font-size="10.00">abstract&#45;machine/klib</text>
<text text-anchor="middle" x="752" y="-74.5" font-family="Helvetica,sans-Serif" font-size="10.00">/src/stdlib.c</text>
</a>
</g>
</g>
<!-- Node1&#45;&gt;Node11 -->
<g id="edge10" class="edge">
<title>Node1&#45;&gt;Node11</title>
<path fill="none" stroke="midnightblue" d="M660.72,-129.85C680.96,-119.58 705.67,-107.03 724.28,-97.58"/>
<polygon fill="midnightblue" stroke="midnightblue" points="659.11,-126.75 651.77,-134.4 662.28,-132.99 659.11,-126.75"/>
</g>
<!-- Node12 -->
<g id="node12" class="node">
<title>Node12</title>
<g id="a_node12"><a xlink:href="string_8c.html" target="_top" xlink:title=" ">
<polygon fill="none" stroke="black" points="825,-67.5 825,-97.5 935,-97.5 935,-67.5 825,-67.5"/>
<text text-anchor="start" x="833" y="-85.5" font-family="Helvetica,sans-Serif" font-size="10.00">abstract&#45;machine/klib</text>
<text text-anchor="middle" x="880" y="-74.5" font-family="Helvetica,sans-Serif" font-size="10.00">/src/string.c</text>
</a>
</g>
</g>
<!-- Node1&#45;&gt;Node12 -->
<g id="edge11" class="edge">
<title>Node1&#45;&gt;Node12</title>
<path fill="none" stroke="midnightblue" d="M689.08,-131.98C731.04,-121.32 785.02,-107.62 824.87,-97.5"/>
<polygon fill="midnightblue" stroke="midnightblue" points="688.06,-128.62 679.23,-134.48 689.79,-135.41 688.06,-128.62"/>
</g>
<!-- Node13 -->
<g id="node13" class="node">
<title>Node13</title>
<g id="a_node13"><a xlink:href="kernel_2framework_2main_8c.html" target="_top" xlink:title=" ">
<polygon fill="none" stroke="black" points="953.5,-73 953.5,-92 1076.5,-92 1076.5,-73 953.5,-73"/>
<text text-anchor="middle" x="1015" y="-80" font-family="Helvetica,sans-Serif" font-size="10.00">kernel/framework/main.c</text>
</a>
</g>
</g>
<!-- Node1&#45;&gt;Node13 -->
<g id="edge12" class="edge">
<title>Node1&#45;&gt;Node13</title>
<path fill="none" stroke="midnightblue" d="M689.12,-139.1C753.88,-129.54 856.01,-113.92 944,-98 954.03,-96.19 964.82,-94.07 974.88,-92.02"/>
<polygon fill="midnightblue" stroke="midnightblue" points="688.44,-135.66 679.05,-140.58 689.45,-142.59 688.44,-135.66"/>
</g>
<!-- Node14 -->
<g id="node14" class="node">
<title>Node14</title>
<g id="a_node14"><a xlink:href="common_8h.html" target="_top" xlink:title=" ">
<polygon fill="none" stroke="black" points="1094.5,-73 1094.5,-92 1219.5,-92 1219.5,-73 1094.5,-73"/>
<text text-anchor="middle" x="1157" y="-80" font-family="Helvetica,sans-Serif" font-size="10.00">kernel/include/common.h</text>
</a>
</g>
</g>
<!-- Node1&#45;&gt;Node14 -->
<g id="edge13" class="edge">
<title>Node1&#45;&gt;Node14</title>
<path fill="none" stroke="midnightblue" d="M689.36,-143.28C779.1,-135.67 945.34,-120 1086,-98 1096.57,-96.35 1107.94,-94.19 1118.43,-92.05"/>
<polygon fill="midnightblue" stroke="midnightblue" points="689,-139.79 679.33,-144.12 689.59,-146.77 689,-139.79"/>
</g>
<!-- Node4 -->
<g id="node4" class="node">
<title>Node4</title>
<g id="a_node4"><a xlink:href="native_2cte_8c.html" target="_top" xlink:title=" ">
<polygon fill="none" stroke="black" points="0,-0.5 0,-30.5 108,-30.5 108,-0.5 0,-0.5"/>
<text text-anchor="start" x="8" y="-18.5" font-family="Helvetica,sans-Serif" font-size="10.00">abstract&#45;machine/am</text>
<text text-anchor="middle" x="54" y="-7.5" font-family="Helvetica,sans-Serif" font-size="10.00">/src/native/cte.c</text>
</a>
</g>
</g>
<!-- Node3&#45;&gt;Node4 -->
<g id="edge3" class="edge">
<title>Node3&#45;&gt;Node4</title>
<path fill="none" stroke="midnightblue" d="M192.38,-64.09C161.87,-53.6 123.52,-40.41 94.93,-30.58"/>
<polygon fill="midnightblue" stroke="midnightblue" points="191.4,-67.45 201.99,-67.4 193.67,-60.83 191.4,-67.45"/>
</g>
<!-- Node5 -->
<g id="node5" class="node">
<title>Node5</title>
<g id="a_node5"><a xlink:href="native_2mpe_8c.html" target="_top" xlink:title=" ">
<polygon fill="none" stroke="black" points="126,-0.5 126,-30.5 234,-30.5 234,-0.5 126,-0.5"/>
<text text-anchor="start" x="134" y="-18.5" font-family="Helvetica,sans-Serif" font-size="10.00">abstract&#45;machine/am</text>
<text text-anchor="middle" x="180" y="-7.5" font-family="Helvetica,sans-Serif" font-size="10.00">/src/native/mpe.c</text>
</a>
</g>
</g>
<!-- Node3&#45;&gt;Node5 -->
<g id="edge4" class="edge">
<title>Node3&#45;&gt;Node5</title>
<path fill="none" stroke="midnightblue" d="M222.19,-60.02C212.8,-50.34 201.98,-39.17 193.64,-30.58"/>
<polygon fill="midnightblue" stroke="midnightblue" points="219.86,-62.65 229.33,-67.4 224.88,-57.78 219.86,-62.65"/>
</g>
<!-- Node6 -->
<g id="node6" class="node">
<title>Node6</title>
<g id="a_node6"><a xlink:href="platform_8c.html" target="_top" xlink:title=" ">
<polygon fill="none" stroke="black" points="252,-0.5 252,-30.5 360,-30.5 360,-0.5 252,-0.5"/>
<text text-anchor="start" x="260" y="-18.5" font-family="Helvetica,sans-Serif" font-size="10.00">abstract&#45;machine/am</text>
<text text-anchor="middle" x="306" y="-7.5" font-family="Helvetica,sans-Serif" font-size="10.00">/src/native/platform.c</text>
</a>
</g>
</g>
<!-- Node3&#45;&gt;Node6 -->
<g id="edge5" class="edge">
<title>Node3&#45;&gt;Node6</title>
<path fill="none" stroke="midnightblue" d="M263.81,-60.02C273.2,-50.34 284.02,-39.17 292.36,-30.58"/>
<polygon fill="midnightblue" stroke="midnightblue" points="261.12,-57.78 256.67,-67.4 266.14,-62.65 261.12,-57.78"/>
</g>
<!-- Node7 -->
<g id="node7" class="node">
<title>Node7</title>
<g id="a_node7"><a xlink:href="native_2vme_8c.html" target="_top" xlink:title=" ">
<polygon fill="none" stroke="black" points="378,-0.5 378,-30.5 486,-30.5 486,-0.5 378,-0.5"/>
<text text-anchor="start" x="386" y="-18.5" font-family="Helvetica,sans-Serif" font-size="10.00">abstract&#45;machine/am</text>
<text text-anchor="middle" x="432" y="-7.5" font-family="Helvetica,sans-Serif" font-size="10.00">/src/native/vme.c</text>
</a>
</g>
</g>
<!-- Node3&#45;&gt;Node7 -->
<g id="edge6" class="edge">
<title>Node3&#45;&gt;Node7</title>
<path fill="none" stroke="midnightblue" d="M293.62,-64.09C324.13,-53.6 362.48,-40.41 391.07,-30.58"/>
<polygon fill="midnightblue" stroke="midnightblue" points="292.33,-60.83 284.01,-67.4 294.6,-67.45 292.33,-60.83"/>
</g>
<!-- Node15 -->
<g id="node15" class="node">
<title>Node15</title>
<g id="a_node15"><a xlink:href="os_8c.html" target="_top" xlink:title=" ">
<polygon fill="none" stroke="black" points="1065,-6 1065,-25 1145,-25 1145,-6 1065,-6"/>
<text text-anchor="middle" x="1105" y="-13" font-family="Helvetica,sans-Serif" font-size="10.00">kernel/src/os.c</text>
</a>
</g>
</g>
<!-- Node14&#45;&gt;Node15 -->
<g id="edge14" class="edge">
<title>Node14&#45;&gt;Node15</title>
<path fill="none" stroke="midnightblue" d="M1143.62,-64.77C1133.48,-52.1 1119.96,-35.2 1111.9,-25.13"/>
<polygon fill="midnightblue" stroke="midnightblue" points="1141.01,-67.11 1149.99,-72.73 1146.47,-62.74 1141.01,-67.11"/>
</g>
<!-- Node16 -->
<g id="node16" class="node">
<title>Node16</title>
<g id="a_node16"><a xlink:href="pmm_8c.html" target="_top" xlink:title=" ">
<polygon fill="none" stroke="black" points="1163,-6 1163,-25 1255,-25 1255,-6 1163,-6"/>
<text text-anchor="middle" x="1209" y="-13" font-family="Helvetica,sans-Serif" font-size="10.00">kernel/src/pmm.c</text>
</a>
</g>
</g>
<!-- Node14&#45;&gt;Node16 -->
<g id="edge15" class="edge">
<title>Node14&#45;&gt;Node16</title>
<path fill="none" stroke="midnightblue" d="M1170.38,-64.77C1180.52,-52.1 1194.04,-35.2 1202.1,-25.13"/>
<polygon fill="midnightblue" stroke="midnightblue" points="1167.53,-62.74 1164.01,-72.73 1172.99,-67.11 1167.53,-62.74"/>
</g>
</g>
</svg>
