<?xml version="1.0" encoding="UTF-8" standalone="no"?>
<!DOCTYPE svg PUBLIC "-//W3C//DTD SVG 1.1//EN"
 "http://www.w3.org/Graphics/SVG/1.1/DTD/svg11.dtd">
<!-- Generated by graphviz version 3.0.0 (20220413.0106)
 -->
<!-- Title: abstract&#45;machine/klib/include/klib&#45;macros.h Pages: 1 -->
<svg width="1365pt" height="352pt"
 viewBox="0.00 0.00 1365.00 352.00" xmlns="http://www.w3.org/2000/svg" xmlns:xlink="http://www.w3.org/1999/xlink">
<g id="graph0" class="graph" transform="scale(1 1) rotate(0) translate(4 348)">
<title>abstract&#45;machine/klib/include/klib&#45;macros.h</title>
<!-- Node1 -->
<g id="node1" class="node">
<title>Node1</title>
<g id="a_node1"><a xlink:title=" ">
<polygon fill="#bfbfbf" stroke="black" points="673.5,-313.5 673.5,-343.5 784.5,-343.5 784.5,-313.5 673.5,-313.5"/>
<text text-anchor="start" x="681.5" y="-331.5" font-family="Helvetica,sans-Serif" font-size="10.00">abstract&#45;machine/klib</text>
<text text-anchor="middle" x="729" y="-320.5" font-family="Helvetica,sans-Serif" font-size="10.00">/include/klib&#45;macros.h</text>
</a>
</g>
</g>
<!-- Node2 -->
<g id="node2" class="node">
<title>Node2</title>
<g id="a_node2"><a xlink:href="x86-qemu_8h.html" target="_top" xlink:title=" ">
<polygon fill="none" stroke="black" points="303.5,-246.5 303.5,-276.5 434.5,-276.5 434.5,-246.5 303.5,-246.5"/>
<text text-anchor="start" x="311.5" y="-264.5" font-family="Helvetica,sans-Serif" font-size="10.00">abstract&#45;machine/am</text>
<text text-anchor="middle" x="369" y="-253.5" font-family="Helvetica,sans-Serif" font-size="10.00">/src/x86/qemu/x86&#45;qemu.h</text>
</a>
</g>
</g>
<!-- Node1&#45;&gt;Node2 -->
<g id="edge1" class="edge">
<title>Node1&#45;&gt;Node2</title>
<path fill="none" stroke="midnightblue" d="M663.03,-315.59C598.12,-303.87 499.59,-286.08 434.76,-274.37"/>
<polygon fill="midnightblue" stroke="midnightblue" points="662.68,-319.08 673.14,-317.42 663.93,-312.19 662.68,-319.08"/>
</g>
<!-- Node8 -->
<g id="node8" class="node">
<title>Node8</title>
<g id="a_node8"><a xlink:href="stdio_8c.html" target="_top" xlink:title=" ">
<polygon fill="none" stroke="black" points="610,-246.5 610,-276.5 720,-276.5 720,-246.5 610,-246.5"/>
<text text-anchor="start" x="618" y="-264.5" font-family="Helvetica,sans-Serif" font-size="10.00">abstract&#45;machine/klib</text>
<text text-anchor="middle" x="665" y="-253.5" font-family="Helvetica,sans-Serif" font-size="10.00">/src/stdio.c</text>
</a>
</g>
</g>
<!-- Node1&#45;&gt;Node8 -->
<g id="edge7" class="edge">
<title>Node1&#45;&gt;Node8</title>
<path fill="none" stroke="midnightblue" d="M707.85,-306.02C698.32,-296.34 687.33,-285.17 678.86,-276.58"/>
<polygon fill="midnightblue" stroke="midnightblue" points="705.6,-308.73 715.11,-313.4 710.59,-303.81 705.6,-308.73"/>
</g>
<!-- Node9 -->
<g id="node9" class="node">
<title>Node9</title>
<g id="a_node9"><a xlink:href="stdlib_8c.html" target="_top" xlink:title=" ">
<polygon fill="none" stroke="black" points="738,-246.5 738,-276.5 848,-276.5 848,-246.5 738,-246.5"/>
<text text-anchor="start" x="746" y="-264.5" font-family="Helvetica,sans-Serif" font-size="10.00">abstract&#45;machine/klib</text>
<text text-anchor="middle" x="793" y="-253.5" font-family="Helvetica,sans-Serif" font-size="10.00">/src/stdlib.c</text>
</a>
</g>
</g>
<!-- Node1&#45;&gt;Node9 -->
<g id="edge8" class="edge">
<title>Node1&#45;&gt;Node9</title>
<path fill="none" stroke="midnightblue" d="M750.15,-306.02C759.68,-296.34 770.67,-285.17 779.14,-276.58"/>
<polygon fill="midnightblue" stroke="midnightblue" points="747.41,-303.81 742.89,-313.4 752.4,-308.73 747.41,-303.81"/>
</g>
<!-- Node10 -->
<g id="node10" class="node">
<title>Node10</title>
<g id="a_node10"><a xlink:href="common_8h.html" target="_top" xlink:title=" ">
<polygon fill="none" stroke="black" points="960.5,-252 960.5,-271 1085.5,-271 1085.5,-252 960.5,-252"/>
<text text-anchor="middle" x="1023" y="-259" font-family="Helvetica,sans-Serif" font-size="10.00">kernel/include/common.h</text>
</a>
</g>
</g>
<!-- Node1&#45;&gt;Node10 -->
<g id="edge9" class="edge">
<title>Node1&#45;&gt;Node10</title>
<path fill="none" stroke="midnightblue" d="M794.51,-313.02C852.84,-300.12 936.2,-281.69 984.45,-271.02"/>
<polygon fill="midnightblue" stroke="midnightblue" points="793.65,-309.62 784.64,-315.2 795.16,-316.46 793.65,-309.62"/>
</g>
<!-- Node3 -->
<g id="node3" class="node">
<title>Node3</title>
<g id="a_node3"><a xlink:href="cte_8c.html" target="_top" xlink:title=" ">
<polygon fill="none" stroke="black" points="126,-179.5 126,-209.5 234,-209.5 234,-179.5 126,-179.5"/>
<text text-anchor="start" x="134" y="-197.5" font-family="Helvetica,sans-Serif" font-size="10.00">abstract&#45;machine/am</text>
<text text-anchor="middle" x="180" y="-186.5" font-family="Helvetica,sans-Serif" font-size="10.00">/src/x86/qemu/cte.c</text>
</a>
</g>
</g>
<!-- Node2&#45;&gt;Node3 -->
<g id="edge2" class="edge">
<title>Node2&#45;&gt;Node3</title>
<path fill="none" stroke="midnightblue" d="M318.38,-243.09C287.87,-232.6 249.52,-219.41 220.93,-209.58"/>
<polygon fill="midnightblue" stroke="midnightblue" points="317.4,-246.45 327.99,-246.4 319.67,-239.83 317.4,-246.45"/>
</g>
<!-- Node4 -->
<g id="node4" class="node">
<title>Node4</title>
<g id="a_node4"><a xlink:href="ioe_8c.html" target="_top" xlink:title=" ">
<polygon fill="none" stroke="black" points="252,-179.5 252,-209.5 360,-209.5 360,-179.5 252,-179.5"/>
<text text-anchor="start" x="260" y="-197.5" font-family="Helvetica,sans-Serif" font-size="10.00">abstract&#45;machine/am</text>
<text text-anchor="middle" x="306" y="-186.5" font-family="Helvetica,sans-Serif" font-size="10.00">/src/x86/qemu/ioe.c</text>
</a>
</g>
</g>
<!-- Node2&#45;&gt;Node4 -->
<g id="edge3" class="edge">
<title>Node2&#45;&gt;Node4</title>
<path fill="none" stroke="midnightblue" d="M348.19,-239.02C338.8,-229.34 327.98,-218.17 319.64,-209.58"/>
<polygon fill="midnightblue" stroke="midnightblue" points="345.86,-241.65 355.33,-246.4 350.88,-236.78 345.86,-241.65"/>
</g>
<!-- Node5 -->
<g id="node5" class="node">
<title>Node5</title>
<g id="a_node5"><a xlink:href="mpe_8c.html" target="_top" xlink:title=" ">
<polygon fill="none" stroke="black" points="378,-179.5 378,-209.5 486,-209.5 486,-179.5 378,-179.5"/>
<text text-anchor="start" x="386" y="-197.5" font-family="Helvetica,sans-Serif" font-size="10.00">abstract&#45;machine/am</text>
<text text-anchor="middle" x="432" y="-186.5" font-family="Helvetica,sans-Serif" font-size="10.00">/src/x86/qemu/mpe.c</text>
</a>
</g>
</g>
<!-- Node2&#45;&gt;Node5 -->
<g id="edge4" class="edge">
<title>Node2&#45;&gt;Node5</title>
<path fill="none" stroke="midnightblue" d="M389.81,-239.02C399.2,-229.34 410.02,-218.17 418.36,-209.58"/>
<polygon fill="midnightblue" stroke="midnightblue" points="387.12,-236.78 382.67,-246.4 392.14,-241.65 387.12,-236.78"/>
</g>
<!-- Node6 -->
<g id="node6" class="node">
<title>Node6</title>
<g id="a_node6"><a xlink:href="trm_8c.html" target="_top" xlink:title=" ">
<polygon fill="none" stroke="black" points="504,-179.5 504,-209.5 612,-209.5 612,-179.5 504,-179.5"/>
<text text-anchor="start" x="512" y="-197.5" font-family="Helvetica,sans-Serif" font-size="10.00">abstract&#45;machine/am</text>
<text text-anchor="middle" x="558" y="-186.5" font-family="Helvetica,sans-Serif" font-size="10.00">/src/x86/qemu/trm.c</text>
</a>
</g>
</g>
<!-- Node2&#45;&gt;Node6 -->
<g id="edge5" class="edge">
<title>Node2&#45;&gt;Node6</title>
<path fill="none" stroke="midnightblue" d="M419.62,-243.09C450.13,-232.6 488.48,-219.41 517.07,-209.58"/>
<polygon fill="midnightblue" stroke="midnightblue" points="418.33,-239.83 410.01,-246.4 420.6,-246.45 418.33,-239.83"/>
</g>
<!-- Node7 -->
<g id="node7" class="node">
<title>Node7</title>
<g id="a_node7"><a xlink:href="vme_8c.html" target="_top" xlink:title=" ">
<polygon fill="none" stroke="black" points="0,-179.5 0,-209.5 108,-209.5 108,-179.5 0,-179.5"/>
<text text-anchor="start" x="8" y="-197.5" font-family="Helvetica,sans-Serif" font-size="10.00">abstract&#45;machine/am</text>
<text text-anchor="middle" x="54" y="-186.5" font-family="Helvetica,sans-Serif" font-size="10.00">/src/x86/qemu/vme.c</text>
</a>
</g>
</g>
<!-- Node2&#45;&gt;Node7 -->
<g id="edge6" class="edge">
<title>Node2&#45;&gt;Node7</title>
<path fill="none" stroke="midnightblue" d="M293.26,-245.91C243.16,-236.11 176.07,-222.71 117,-210 114.15,-209.39 111.22,-208.75 108.27,-208.09"/>
<polygon fill="midnightblue" stroke="midnightblue" points="292.88,-249.4 303.36,-247.88 294.22,-242.53 292.88,-249.4"/>
</g>
<!-- Node11 -->
<g id="node11" class="node">
<title>Node11</title>
<g id="a_node11"><a xlink:href="buddy_8h.html" target="_top" xlink:title=" ">
<polygon fill="none" stroke="black" points="1171.5,-185 1171.5,-204 1284.5,-204 1284.5,-185 1171.5,-185"/>
<text text-anchor="middle" x="1228" y="-192" font-family="Helvetica,sans-Serif" font-size="10.00">kernel/include/buddy.h</text>
</a>
</g>
</g>
<!-- Node10&#45;&gt;Node11 -->
<g id="edge10" class="edge">
<title>Node10&#45;&gt;Node11</title>
<path fill="none" stroke="midnightblue" d="M1060.01,-248.77C1100.63,-235.89 1164.86,-215.52 1200.99,-204.06"/>
<polygon fill="midnightblue" stroke="midnightblue" points="1058.7,-245.51 1050.22,-251.87 1060.81,-252.18 1058.7,-245.51"/>
</g>
<!-- Node12 -->
<g id="node12" class="node">
<title>Node12</title>
<g id="a_node12"><a xlink:href="buddy_8c.html" target="_top" xlink:title="impl of buddy system">
<polygon fill="none" stroke="black" points="1146.5,-123.5 1146.5,-142.5 1241.5,-142.5 1241.5,-123.5 1146.5,-123.5"/>
<text text-anchor="middle" x="1194" y="-130.5" font-family="Helvetica,sans-Serif" font-size="10.00">kernel/src/buddy.c</text>
</a>
</g>
</g>
<!-- Node10&#45;&gt;Node12 -->
<g id="edge28" class="edge">
<title>Node10&#45;&gt;Node12</title>
<path fill="none" stroke="midnightblue" d="M1052.67,-247.8C1072.38,-238.68 1098.33,-225.33 1119,-210 1146.99,-189.24 1174.32,-157.98 1186.86,-142.84"/>
<polygon fill="midnightblue" stroke="midnightblue" points="1051.21,-244.62 1043.54,-251.93 1054.1,-250.99 1051.21,-244.62"/>
</g>
<!-- Node13 -->
<g id="node13" class="node">
<title>Node13</title>
<g id="a_node13"><a xlink:href="pmm_8c.html" target="_top" xlink:title=" ">
<polygon fill="none" stroke="black" points="1265,-123.5 1265,-142.5 1357,-142.5 1357,-123.5 1265,-123.5"/>
<text text-anchor="middle" x="1311" y="-130.5" font-family="Helvetica,sans-Serif" font-size="10.00">kernel/src/pmm.c</text>
</a>
</g>
</g>
<!-- Node10&#45;&gt;Node13 -->
<g id="edge31" class="edge">
<title>Node10&#45;&gt;Node13</title>
<path fill="none" stroke="midnightblue" d="M1095.7,-255.86C1166.14,-249.84 1266.26,-236.76 1294,-210 1312.58,-192.07 1312.9,-158.59 1311.86,-142.74"/>
<polygon fill="midnightblue" stroke="midnightblue" points="1095.22,-252.39 1085.54,-256.7 1095.79,-259.36 1095.22,-252.39"/>
</g>
<!-- Node14 -->
<g id="node14" class="node">
<title>Node14</title>
<g id="a_node14"><a xlink:href="devices_8h.html" target="_top" xlink:title=" ">
<polygon fill="none" stroke="black" points="715.5,-67.5 715.5,-86.5 836.5,-86.5 836.5,-67.5 715.5,-67.5"/>
<text text-anchor="middle" x="776" y="-74.5" font-family="Helvetica,sans-Serif" font-size="10.00">kernel/include/devices.h</text>
</a>
</g>
</g>
<!-- Node10&#45;&gt;Node14 -->
<g id="edge13" class="edge">
<title>Node10&#45;&gt;Node14</title>
<path fill="none" stroke="midnightblue" d="M950.26,-253.23C897.92,-246.31 826.38,-233.37 767,-210 714.44,-189.31 686.47,-192.36 659,-143 642.05,-112.54 685.13,-95.46 723.72,-86.54"/>
<polygon fill="midnightblue" stroke="midnightblue" points="950.1,-256.73 960.46,-254.53 950.99,-249.79 950.1,-256.73"/>
</g>
<!-- Node20 -->
<g id="node20" class="node">
<title>Node20</title>
<g id="a_node20"><a xlink:href="spinlock_8h.html" target="_top" xlink:title=" ">
<polygon fill="none" stroke="black" points="833.5,-185 833.5,-204 956.5,-204 956.5,-185 833.5,-185"/>
<text text-anchor="middle" x="895" y="-192" font-family="Helvetica,sans-Serif" font-size="10.00">kernel/include/spinlock.h</text>
</a>
</g>
</g>
<!-- Node10&#45;&gt;Node20 -->
<g id="edge19" class="edge">
<title>Node10&#45;&gt;Node20</title>
<path fill="none" stroke="midnightblue" d="M996.95,-247.27C971.6,-234.4 933.81,-215.21 912.07,-204.17"/>
<polygon fill="midnightblue" stroke="midnightblue" points="995.5,-250.46 1006,-251.87 998.67,-244.22 995.5,-250.46"/>
</g>
<!-- Node21 -->
<g id="node21" class="node">
<title>Node21</title>
<g id="a_node21"><a xlink:href="thread_8h.html" target="_top" xlink:title=" ">
<polygon fill="none" stroke="black" points="966,-123.5 966,-142.5 1080,-142.5 1080,-123.5 966,-123.5"/>
<text text-anchor="middle" x="1023" y="-130.5" font-family="Helvetica,sans-Serif" font-size="10.00">kernel/include/thread.h</text>
</a>
</g>
</g>
<!-- Node10&#45;&gt;Node21 -->
<g id="edge27" class="edge">
<title>Node10&#45;&gt;Node21</title>
<path fill="none" stroke="midnightblue" d="M1023,-241.44C1023,-213.62 1023,-163.04 1023,-142.76"/>
<polygon fill="midnightblue" stroke="midnightblue" points="1019.5,-241.81 1023,-251.81 1026.5,-241.81 1019.5,-241.81"/>
</g>
<!-- Node22 -->
<g id="node22" class="node">
<title>Node22</title>
<g id="a_node22"><a xlink:href="kmt_8c.html" target="_top" xlink:title=" ">
<polygon fill="none" stroke="black" points="980,-67.5 980,-86.5 1066,-86.5 1066,-67.5 980,-67.5"/>
<text text-anchor="middle" x="1023" y="-74.5" font-family="Helvetica,sans-Serif" font-size="10.00">kernel/src/kmt.c</text>
</a>
</g>
</g>
<!-- Node10&#45;&gt;Node22 -->
<g id="edge29" class="edge">
<title>Node10&#45;&gt;Node22</title>
<path fill="none" stroke="midnightblue" d="M1036.26,-243.57C1052.41,-221.76 1078.79,-182.02 1089,-143 1091.25,-134.4 1093.15,-130.86 1089,-123 1079.86,-105.71 1060.77,-93.82 1045.46,-86.62"/>
<polygon fill="midnightblue" stroke="midnightblue" points="1033.3,-241.68 1030.04,-251.76 1038.88,-245.91 1033.3,-241.68"/>
</g>
<!-- Node23 -->
<g id="node23" class="node">
<title>Node23</title>
<g id="a_node23"><a xlink:href="os_8c.html" target="_top" xlink:title=" ">
<polygon fill="none" stroke="black" points="668,-123.5 668,-142.5 748,-142.5 748,-123.5 668,-123.5"/>
<text text-anchor="middle" x="708" y="-130.5" font-family="Helvetica,sans-Serif" font-size="10.00">kernel/src/os.c</text>
</a>
</g>
</g>
<!-- Node10&#45;&gt;Node23 -->
<g id="edge30" class="edge">
<title>Node10&#45;&gt;Node23</title>
<path fill="none" stroke="midnightblue" d="M959.99,-250.06C919.94,-242.1 867.62,-229.18 824,-210 781.9,-191.49 738.05,-158.29 718.5,-142.63"/>
<polygon fill="midnightblue" stroke="midnightblue" points="959.41,-253.52 969.89,-251.98 960.74,-246.64 959.41,-253.52"/>
</g>
<!-- Node11&#45;&gt;Node12 -->
<g id="edge11" class="edge">
<title>Node11&#45;&gt;Node12</title>
<path fill="none" stroke="midnightblue" d="M1218.1,-176.17C1211.78,-165.11 1203.86,-151.25 1198.86,-142.51"/>
<polygon fill="midnightblue" stroke="midnightblue" points="1215.13,-178.03 1223.13,-184.98 1221.21,-174.56 1215.13,-178.03"/>
</g>
<!-- Node11&#45;&gt;Node13 -->
<g id="edge12" class="edge">
<title>Node11&#45;&gt;Node13</title>
<path fill="none" stroke="midnightblue" d="M1248.07,-179.11C1264.03,-167.67 1285.83,-152.05 1299.13,-142.51"/>
<polygon fill="midnightblue" stroke="midnightblue" points="1245.98,-176.3 1239.89,-184.98 1250.06,-181.99 1245.98,-176.3"/>
</g>
<!-- Node15 -->
<g id="node15" class="node">
<title>Node15</title>
<g id="a_node15"><a xlink:href="dev_8c.html" target="_top" xlink:title=" ">
<polygon fill="none" stroke="black" points="479,-6 479,-25 583,-25 583,-6 479,-6"/>
<text text-anchor="middle" x="531" y="-13" font-family="Helvetica,sans-Serif" font-size="10.00">kernel/src/dev/dev.c</text>
</a>
</g>
</g>
<!-- Node14&#45;&gt;Node15 -->
<g id="edge14" class="edge">
<title>Node14&#45;&gt;Node15</title>
<path fill="none" stroke="midnightblue" d="M731.17,-65.11C683.62,-53.57 609.49,-35.56 566.04,-25.01"/>
<polygon fill="midnightblue" stroke="midnightblue" points="730.35,-68.52 740.9,-67.48 732.01,-61.71 730.35,-68.52"/>
</g>
<!-- Node16 -->
<g id="node16" class="node">
<title>Node16</title>
<g id="a_node16"><a xlink:href="dev__input_8c.html" target="_top" xlink:title=" ">
<polygon fill="none" stroke="black" points="601.5,-0.5 601.5,-30.5 698.5,-30.5 698.5,-0.5 601.5,-0.5"/>
<text text-anchor="start" x="609.5" y="-18.5" font-family="Helvetica,sans-Serif" font-size="10.00">kernel/src/dev/dev</text>
<text text-anchor="middle" x="650" y="-7.5" font-family="Helvetica,sans-Serif" font-size="10.00">_input.c</text>
</a>
</g>
</g>
<!-- Node14&#45;&gt;Node16 -->
<g id="edge15" class="edge">
<title>Node14&#45;&gt;Node16</title>
<path fill="none" stroke="midnightblue" d="M748.89,-63.2C728.53,-53.58 700.66,-40.42 679.7,-30.52"/>
<polygon fill="midnightblue" stroke="midnightblue" points="747.41,-66.37 757.95,-67.48 750.4,-60.04 747.41,-66.37"/>
</g>
<!-- Node17 -->
<g id="node17" class="node">
<title>Node17</title>
<g id="a_node17"><a xlink:href="dev__sd_8c.html" target="_top" xlink:title=" ">
<polygon fill="none" stroke="black" points="716,-6 716,-25 836,-25 836,-6 716,-6"/>
<text text-anchor="middle" x="776" y="-13" font-family="Helvetica,sans-Serif" font-size="10.00">kernel/src/dev/dev_sd.c</text>
</a>
</g>
</g>
<!-- Node14&#45;&gt;Node17 -->
<g id="edge16" class="edge">
<title>Node14&#45;&gt;Node17</title>
<path fill="none" stroke="midnightblue" d="M776,-57.32C776,-46.5 776,-33.4 776,-25.01"/>
<polygon fill="midnightblue" stroke="midnightblue" points="772.5,-57.48 776,-67.48 779.5,-57.48 772.5,-57.48"/>
</g>
<!-- Node18 -->
<g id="node18" class="node">
<title>Node18</title>
<g id="a_node18"><a xlink:href="dev__tty_8c.html" target="_top" xlink:title=" ">
<polygon fill="none" stroke="black" points="853.5,-0.5 853.5,-30.5 950.5,-30.5 950.5,-0.5 853.5,-0.5"/>
<text text-anchor="start" x="861.5" y="-18.5" font-family="Helvetica,sans-Serif" font-size="10.00">kernel/src/dev/dev</text>
<text text-anchor="middle" x="902" y="-7.5" font-family="Helvetica,sans-Serif" font-size="10.00">_tty.c</text>
</a>
</g>
</g>
<!-- Node14&#45;&gt;Node18 -->
<g id="edge17" class="edge">
<title>Node14&#45;&gt;Node18</title>
<path fill="none" stroke="midnightblue" d="M803.11,-63.2C823.47,-53.58 851.34,-40.42 872.3,-30.52"/>
<polygon fill="midnightblue" stroke="midnightblue" points="801.6,-60.04 794.05,-67.48 804.59,-66.37 801.6,-60.04"/>
</g>
<!-- Node19 -->
<g id="node19" class="node">
<title>Node19</title>
<g id="a_node19"><a xlink:href="dev__video_8c.html" target="_top" xlink:title=" ">
<polygon fill="none" stroke="black" points="968.5,-0.5 968.5,-30.5 1065.5,-30.5 1065.5,-0.5 968.5,-0.5"/>
<text text-anchor="start" x="976.5" y="-18.5" font-family="Helvetica,sans-Serif" font-size="10.00">kernel/src/dev/dev</text>
<text text-anchor="middle" x="1017" y="-7.5" font-family="Helvetica,sans-Serif" font-size="10.00">_video.c</text>
</a>
</g>
</g>
<!-- Node14&#45;&gt;Node19 -->
<g id="edge18" class="edge">
<title>Node14&#45;&gt;Node19</title>
<path fill="none" stroke="midnightblue" d="M821.34,-65.04C858.6,-55.99 912.75,-42.79 960,-31 962.77,-30.31 965.62,-29.59 968.5,-28.87"/>
<polygon fill="midnightblue" stroke="midnightblue" points="820.19,-61.71 811.3,-67.47 821.84,-68.51 820.19,-61.71"/>
</g>
<!-- Node20&#45;&gt;Node14 -->
<g id="edge20" class="edge">
<title>Node20&#45;&gt;Node14</title>
<path fill="none" stroke="midnightblue" d="M853.54,-181.31C833.28,-173.4 810.07,-161.12 795,-143 781.17,-126.37 777.4,-100.07 776.38,-86.59"/>
<polygon fill="midnightblue" stroke="midnightblue" points="852.61,-184.7 863.21,-184.85 855.02,-178.12 852.61,-184.7"/>
</g>
<!-- Node20&#45;&gt;Node21 -->
<g id="edge21" class="edge">
<title>Node20&#45;&gt;Node21</title>
<path fill="none" stroke="midnightblue" d="M922.59,-180.67C947.43,-169.13 983.23,-152.49 1004.69,-142.51"/>
<polygon fill="midnightblue" stroke="midnightblue" points="920.93,-177.59 913.34,-184.98 923.88,-183.93 920.93,-177.59"/>
</g>
<!-- Node20&#45;&gt;Node22 -->
<g id="edge24" class="edge">
<title>Node20&#45;&gt;Node22</title>
<path fill="none" stroke="midnightblue" d="M907.77,-176.71C919.62,-161.71 938.22,-139.61 957,-123 973.31,-108.58 994.44,-94.92 1008.34,-86.51"/>
<polygon fill="midnightblue" stroke="midnightblue" points="904.99,-174.58 901.62,-184.62 910.52,-178.87 904.99,-174.58"/>
</g>
<!-- Node20&#45;&gt;Node23 -->
<g id="edge25" class="edge">
<title>Node20&#45;&gt;Node23</title>
<path fill="none" stroke="midnightblue" d="M858.48,-181.88C822.13,-170.32 767.21,-152.84 734.74,-142.51"/>
<polygon fill="midnightblue" stroke="midnightblue" points="857.62,-185.28 868.21,-184.98 859.74,-178.61 857.62,-185.28"/>
</g>
<!-- Node24 -->
<g id="node24" class="node">
<title>Node24</title>
<g id="a_node24"><a xlink:href="spinlock_8c.html" target="_top" xlink:title=" ">
<polygon fill="none" stroke="black" points="804,-123.5 804,-142.5 910,-142.5 910,-123.5 804,-123.5"/>
<text text-anchor="middle" x="857" y="-130.5" font-family="Helvetica,sans-Serif" font-size="10.00">kernel/src/spinlock.c</text>
</a>
</g>
</g>
<!-- Node20&#45;&gt;Node24 -->
<g id="edge26" class="edge">
<title>Node20&#45;&gt;Node24</title>
<path fill="none" stroke="midnightblue" d="M884.15,-176.51C877.05,-165.39 868.07,-151.34 862.43,-142.51"/>
<polygon fill="midnightblue" stroke="midnightblue" points="881.22,-178.43 889.56,-184.98 887.12,-174.66 881.22,-178.43"/>
</g>
<!-- Node21&#45;&gt;Node14 -->
<g id="edge22" class="edge">
<title>Node21&#45;&gt;Node14</title>
<path fill="none" stroke="midnightblue" d="M973.97,-121.28C927.3,-111.08 857.97,-95.92 814.95,-86.52"/>
<polygon fill="midnightblue" stroke="midnightblue" points="973.35,-124.73 983.86,-123.44 974.84,-117.89 973.35,-124.73"/>
</g>
<!-- Node21&#45;&gt;Node22 -->
<g id="edge23" class="edge">
<title>Node21&#45;&gt;Node22</title>
<path fill="none" stroke="midnightblue" d="M1023,-112.8C1023,-103.91 1023,-93.78 1023,-86.75"/>
<polygon fill="midnightblue" stroke="midnightblue" points="1019.5,-113.08 1023,-123.08 1026.5,-113.08 1019.5,-113.08"/>
</g>
</g>
</svg>
