<?xml version="1.0" encoding="UTF-8" standalone="no"?>
<!DOCTYPE svg PUBLIC "-//W3C//DTD SVG 1.1//EN"
 "http://www.w3.org/Graphics/SVG/1.1/DTD/svg11.dtd">
<!-- Generated by graphviz version 2.50.0 (20220203.2022)
 -->
<!-- Title: printf Pages: 1 -->
<svg width="303pt" height="104pt"
 viewBox="0.00 0.00 303.00 104.00" xmlns="http://www.w3.org/2000/svg" xmlns:xlink="http://www.w3.org/1999/xlink">
<g id="graph0" class="graph" transform="scale(1 1) rotate(0) translate(4 100)">
<title>printf</title>
<!-- Node1 -->
<g id="node1" class="node">
<title>Node1</title>
<g id="a_node1"><a xlink:title=" ">
<polygon fill="#bfbfbf" stroke="black" points="0,-38.5 0,-57.5 38,-57.5 38,-38.5 0,-38.5"/>
<text text-anchor="middle" x="19" y="-45.5" font-family="Helvetica,sans-Serif" font-size="10.00">printf</text>
</a>
</g>
</g>
<!-- Node2 -->
<g id="node2" class="node">
<title>Node2</title>
<g id="a_node2"><a xlink:href="stdio_8c.html#a44a6734c6f8f81d8e1fa3b9d476c5134" target="_top" xlink:title=" ">
<polygon fill="none" stroke="black" points="74,-38.5 74,-57.5 123,-57.5 123,-38.5 74,-38.5"/>
<text text-anchor="middle" x="98.5" y="-45.5" font-family="Helvetica,sans-Serif" font-size="10.00">vsprintf</text>
</a>
</g>
</g>
<!-- Node1&#45;&gt;Node2 -->
<g id="edge1" class="edge">
<title>Node1&#45;&gt;Node2</title>
<path fill="none" stroke="midnightblue" d="M38.37,-48C46.02,-48 55.16,-48 63.94,-48"/>
<polygon fill="midnightblue" stroke="midnightblue" points="63.97,-51.5 73.97,-48 63.97,-44.5 63.97,-51.5"/>
</g>
<!-- Node3 -->
<g id="node3" class="node">
<title>Node3</title>
<g id="a_node3"><a xlink:href="string_8c.html#a9517a4a50477f651785c09b27826d8ce" target="_top" xlink:title=" ">
<polygon fill="none" stroke="black" points="168,-76.5 168,-95.5 209,-95.5 209,-76.5 168,-76.5"/>
<text text-anchor="middle" x="188.5" y="-83.5" font-family="Helvetica,sans-Serif" font-size="10.00">strcat</text>
</a>
</g>
</g>
<!-- Node2&#45;&gt;Node3 -->
<g id="edge2" class="edge">
<title>Node2&#45;&gt;Node3</title>
<path fill="none" stroke="midnightblue" d="M121.71,-57.59C132.96,-62.45 146.75,-68.4 158.79,-73.6"/>
<polygon fill="midnightblue" stroke="midnightblue" points="157.43,-76.83 168,-77.58 160.2,-70.4 157.43,-76.83"/>
</g>
<!-- Node4 -->
<g id="node4" class="node">
<title>Node4</title>
<g id="a_node4"><a xlink:href="string_8c.html#aa383452fe445bfae989358c9d7d96f4f" target="_top" xlink:title=" ">
<polygon fill="none" stroke="black" points="254,-57.5 254,-76.5 295,-76.5 295,-57.5 254,-57.5"/>
<text text-anchor="middle" x="274.5" y="-64.5" font-family="Helvetica,sans-Serif" font-size="10.00">strlen</text>
</a>
</g>
</g>
<!-- Node2&#45;&gt;Node4 -->
<g id="edge4" class="edge">
<title>Node2&#45;&gt;Node4</title>
<path fill="none" stroke="midnightblue" d="M123.33,-50.6C154.66,-54.02 209.69,-60.03 243.73,-63.75"/>
<polygon fill="midnightblue" stroke="midnightblue" points="243.66,-67.26 253.98,-64.87 244.42,-60.3 243.66,-67.26"/>
</g>
<!-- Node5 -->
<g id="node5" class="node">
<title>Node5</title>
<g id="a_node5"><a xlink:href="stdio_8c.html#a8a0e94b5b0c2a000751f94fd7a5c0071" target="_top" xlink:title=" ">
<polygon fill="none" stroke="black" points="159,-0.5 159,-19.5 218,-19.5 218,-0.5 159,-0.5"/>
<text text-anchor="middle" x="188.5" y="-7.5" font-family="Helvetica,sans-Serif" font-size="10.00">vprintf_int</text>
</a>
</g>
</g>
<!-- Node2&#45;&gt;Node5 -->
<g id="edge5" class="edge">
<title>Node2&#45;&gt;Node5</title>
<path fill="none" stroke="midnightblue" d="M121.71,-38.41C132.13,-33.91 144.73,-28.47 156.11,-23.56"/>
<polygon fill="midnightblue" stroke="midnightblue" points="157.51,-26.76 165.3,-19.59 154.73,-20.34 157.51,-26.76"/>
</g>
<!-- Node3&#45;&gt;Node4 -->
<g id="edge3" class="edge">
<title>Node3&#45;&gt;Node4</title>
<path fill="none" stroke="midnightblue" d="M209.41,-81.5C219.66,-79.18 232.37,-76.3 243.76,-73.73"/>
<polygon fill="midnightblue" stroke="midnightblue" points="244.75,-77.09 253.74,-71.47 243.21,-70.26 244.75,-77.09"/>
</g>
</g>
</svg>
