<?xml version="1.0" encoding="UTF-8" standalone="no"?>
<!DOCTYPE svg PUBLIC "-//W3C//DTD SVG 1.1//EN"
 "http://www.w3.org/Graphics/SVG/1.1/DTD/svg11.dtd">
<!-- Generated by graphviz version 3.0.0 (20220413.0106)
 -->
<!-- Title: MODULE_DEF Pages: 1 -->
<svg width="996pt" height="740pt"
 viewBox="0.00 0.00 996.00 740.00" xmlns="http://www.w3.org/2000/svg" xmlns:xlink="http://www.w3.org/1999/xlink">
<g id="graph0" class="graph" transform="scale(1 1) rotate(0) translate(4 736)">
<title>MODULE_DEF</title>
<!-- Node1 -->
<g id="node1" class="node">
<title>Node1</title>
<g id="a_node1"><a xlink:title=" ">
<polygon fill="#bfbfbf" stroke="black" points="0,-190.5 0,-209.5 83,-209.5 83,-190.5 0,-190.5"/>
<text text-anchor="middle" x="41.5" y="-197.5" font-family="Helvetica,sans-Serif" font-size="10.00">MODULE_DEF</text>
</a>
</g>
</g>
<!-- Node2 -->
<g id="node2" class="node">
<title>Node2</title>
<g id="a_node2"><a xlink:href="kmt_8c.html#a5ddb8743298012e84cf9cb5faf22212b" target="_top" xlink:title="create thread">
<polygon fill="none" stroke="black" points="355,-674.5 355,-693.5 420,-693.5 420,-674.5 355,-674.5"/>
<text text-anchor="middle" x="387.5" y="-681.5" font-family="Helvetica,sans-Serif" font-size="10.00">kmt_create</text>
</a>
</g>
</g>
<!-- Node1&#45;&gt;Node2 -->
<g id="edge1" class="edge">
<title>Node1&#45;&gt;Node2</title>
<path fill="none" stroke="midnightblue" d="M43.16,-209.58C47.05,-263.08 68.46,-524.58 119,-584 176.73,-651.87 285.23,-673.73 344.77,-680.73"/>
<polygon fill="midnightblue" stroke="midnightblue" points="344.62,-684.24 354.94,-681.84 345.38,-677.28 344.62,-684.24"/>
</g>
<!-- Node15 -->
<g id="node15" class="node">
<title>Node15</title>
<g id="a_node15"><a xlink:href="spinlock_8c.html#ab6f3c37ec37006951feccc3c05387cce" target="_top" xlink:title="acquire spinlock to current cpu">
<polygon fill="none" stroke="black" points="486,-294.5 486,-313.5 544,-313.5 544,-294.5 486,-294.5"/>
<text text-anchor="middle" x="515" y="-301.5" font-family="Helvetica,sans-Serif" font-size="10.00">spin_lock</text>
</a>
</g>
</g>
<!-- Node1&#45;&gt;Node15 -->
<g id="edge75" class="edge">
<title>Node1&#45;&gt;Node15</title>
<path fill="none" stroke="midnightblue" d="M83.11,-208.96C173.14,-228.82 388.44,-276.3 476,-295.62"/>
<polygon fill="midnightblue" stroke="midnightblue" points="475.26,-299.04 485.78,-297.78 476.77,-292.2 475.26,-299.04"/>
</g>
<!-- Node18 -->
<g id="node18" class="node">
<title>Node18</title>
<g id="a_node18"><a xlink:href="spinlock_8c.html#acdf118d615a4bc4064e991add9a80995" target="_top" xlink:title="release spinlock from current cpu">
<polygon fill="none" stroke="black" points="481,-522.5 481,-541.5 549,-541.5 549,-522.5 481,-522.5"/>
<text text-anchor="middle" x="515" y="-529.5" font-family="Helvetica,sans-Serif" font-size="10.00">spin_unlock</text>
</a>
</g>
</g>
<!-- Node1&#45;&gt;Node18 -->
<g id="edge76" class="edge">
<title>Node1&#45;&gt;Node18</title>
<path fill="none" stroke="midnightblue" d="M43.28,-209.79C46.5,-244.7 61.47,-365.08 119,-441 183.83,-526.55 228.43,-531.59 334,-551 380.77,-559.6 393.83,-557.04 441,-551 452.03,-549.59 463.76,-547.02 474.53,-544.23"/>
<polygon fill="midnightblue" stroke="midnightblue" points="475.78,-547.52 484.5,-541.5 473.93,-540.76 475.78,-547.52"/>
</g>
<!-- Node19 -->
<g id="node19" class="node">
<title>Node19</title>
<g id="a_node19"><a xlink:href="kmt_8c.html#a031a09141c265954f2b609183e573d1c" target="_top" xlink:title="get current cpu&#39;s tasks">
<polygon fill="none" stroke="black" points="477,-142.5 477,-161.5 553,-161.5 553,-142.5 477,-142.5"/>
<text text-anchor="middle" x="515" y="-149.5" font-family="Helvetica,sans-Serif" font-size="10.00">kmt_get_task</text>
</a>
</g>
</g>
<!-- Node1&#45;&gt;Node19 -->
<g id="edge26" class="edge">
<title>Node1&#45;&gt;Node19</title>
<path fill="none" stroke="midnightblue" d="M65.7,-190.46C124.68,-166.41 279.55,-104.51 334,-95 380.85,-86.82 396.03,-79.52 441,-95 463.88,-102.87 485.08,-121.18 498.67,-134.94"/>
<polygon fill="midnightblue" stroke="midnightblue" points="496.33,-137.56 505.75,-142.4 501.41,-132.74 496.33,-137.56"/>
</g>
<!-- Node20 -->
<g id="node20" class="node">
<title>Node20</title>
<g id="a_node20"><a xlink:href="kmt_8c.html#a0c68a294cecc4be7cb4b495f15b883a0" target="_top" xlink:title="initialize kmt module">
<polygon fill="none" stroke="black" points="126.5,-370.5 126.5,-389.5 177.5,-389.5 177.5,-370.5 126.5,-370.5"/>
<text text-anchor="middle" x="152" y="-377.5" font-family="Helvetica,sans-Serif" font-size="10.00">kmt_init</text>
</a>
</g>
</g>
<!-- Node1&#45;&gt;Node20 -->
<g id="edge28" class="edge">
<title>Node1&#45;&gt;Node20</title>
<path fill="none" stroke="midnightblue" d="M48.33,-209.68C65.63,-238.37 116.83,-323.32 139.72,-361.29"/>
<polygon fill="midnightblue" stroke="midnightblue" points="136.98,-363.52 145.14,-370.27 142.97,-359.9 136.98,-363.52"/>
</g>
<!-- Node33 -->
<g id="node33" class="node">
<title>Node33</title>
<g id="a_node33"><a xlink:href="kmt_8c.html#a9ddca6d133a84154c98607bf0ee82c76" target="_top" xlink:title="set cpu&#39;s current task">
<polygon fill="none" stroke="black" points="349.5,-104.5 349.5,-123.5 425.5,-123.5 425.5,-104.5 349.5,-104.5"/>
<text text-anchor="middle" x="387.5" y="-111.5" font-family="Helvetica,sans-Serif" font-size="10.00">kmt_set_task</text>
</a>
</g>
</g>
<!-- Node1&#45;&gt;Node33 -->
<g id="edge66" class="edge">
<title>Node1&#45;&gt;Node33</title>
<path fill="none" stroke="midnightblue" d="M83.02,-194.63C111.69,-190.47 150.95,-184.07 185,-176 243.44,-162.15 309.75,-140.58 349.83,-126.88"/>
<polygon fill="midnightblue" stroke="midnightblue" points="351.12,-130.14 359.44,-123.58 348.84,-123.52 351.12,-130.14"/>
</g>
<!-- Node36 -->
<g id="node36" class="node">
<title>Node36</title>
<g id="a_node36"><a xlink:href="kmt_8c.html#a47d8887c87041abd5ea3148232b65c93" target="_top" xlink:title="tear down a thread">
<polygon fill="none" stroke="black" points="348.5,-522.5 348.5,-541.5 426.5,-541.5 426.5,-522.5 348.5,-522.5"/>
<text text-anchor="middle" x="387.5" y="-529.5" font-family="Helvetica,sans-Serif" font-size="10.00">kmt_teardown</text>
</a>
</g>
</g>
<!-- Node1&#45;&gt;Node36 -->
<g id="edge67" class="edge">
<title>Node1&#45;&gt;Node36</title>
<path fill="none" stroke="midnightblue" d="M44.22,-209.64C50.04,-240.13 71.37,-336.18 119,-399 173.47,-470.84 277.3,-506.44 338.34,-521.89"/>
<polygon fill="midnightblue" stroke="midnightblue" points="337.58,-525.31 348.12,-524.29 339.24,-518.51 337.58,-525.31"/>
</g>
<!-- Node37 -->
<g id="node37" class="node">
<title>Node37</title>
<g id="a_node37"><a xlink:href="sem_8c.html#a07341aaf6201983d7c7b9ea1b69975f9" target="_top" xlink:title=" ">
<polygon fill="none" stroke="black" points="125.5,-114.5 125.5,-133.5 178.5,-133.5 178.5,-114.5 125.5,-114.5"/>
<text text-anchor="middle" x="152" y="-121.5" font-family="Helvetica,sans-Serif" font-size="10.00">sem_init</text>
</a>
</g>
</g>
<!-- Node1&#45;&gt;Node37 -->
<g id="edge71" class="edge">
<title>Node1&#45;&gt;Node37</title>
<path fill="none" stroke="midnightblue" d="M56.24,-190.37C74.58,-177.53 107.28,-154.62 129.06,-139.37"/>
<polygon fill="midnightblue" stroke="midnightblue" points="131.19,-142.15 137.37,-133.55 127.17,-136.42 131.19,-142.15"/>
</g>
<!-- Node38 -->
<g id="node38" class="node">
<title>Node38</title>
<g id="a_node38"><a xlink:href="sem_8c.html#ad994e433f3a6bf8626272437cb54c114" target="_top" xlink:title=" ">
<polygon fill="none" stroke="black" points="119,-76.5 119,-95.5 185,-95.5 185,-76.5 119,-76.5"/>
<text text-anchor="middle" x="152" y="-83.5" font-family="Helvetica,sans-Serif" font-size="10.00">sem_signal</text>
</a>
</g>
</g>
<!-- Node1&#45;&gt;Node38 -->
<g id="edge72" class="edge">
<title>Node1&#45;&gt;Node38</title>
<path fill="none" stroke="midnightblue" d="M48.51,-190.44C60.32,-172.17 88.12,-131.77 119,-105 120.5,-103.7 122.1,-102.44 123.76,-101.22"/>
<polygon fill="midnightblue" stroke="midnightblue" points="125.87,-104.02 132.29,-95.59 122.02,-98.18 125.87,-104.02"/>
</g>
<!-- Node39 -->
<g id="node39" class="node">
<title>Node39</title>
<g id="a_node39"><a xlink:href="sem_8c.html#a85ca67864bb0af1966a5c2463bd16fe8" target="_top" xlink:title=" ">
<polygon fill="none" stroke="black" points="122.5,-38.5 122.5,-57.5 181.5,-57.5 181.5,-38.5 122.5,-38.5"/>
<text text-anchor="middle" x="152" y="-45.5" font-family="Helvetica,sans-Serif" font-size="10.00">sem_wait</text>
</a>
</g>
</g>
<!-- Node1&#45;&gt;Node39 -->
<g id="edge73" class="edge">
<title>Node1&#45;&gt;Node39</title>
<path fill="none" stroke="midnightblue" d="M46.1,-190.21C55.17,-166.57 81.03,-105.5 119,-67 120.22,-65.77 121.53,-64.58 122.9,-63.45"/>
<polygon fill="midnightblue" stroke="midnightblue" points="125.08,-66.2 131.23,-57.58 121.04,-60.48 125.08,-66.2"/>
</g>
<!-- Node40 -->
<g id="node40" class="node">
<title>Node40</title>
<g id="a_node40"><a xlink:href="spinlock_8c.html#ab80f529a7b9f49f09fc91a404731c869" target="_top" xlink:title="create spinlock">
<polygon fill="none" stroke="black" points="125.5,-0.5 125.5,-19.5 178.5,-19.5 178.5,-0.5 125.5,-0.5"/>
<text text-anchor="middle" x="152" y="-7.5" font-family="Helvetica,sans-Serif" font-size="10.00">spin_init</text>
</a>
</g>
</g>
<!-- Node1&#45;&gt;Node40 -->
<g id="edge74" class="edge">
<title>Node1&#45;&gt;Node40</title>
<path fill="none" stroke="midnightblue" d="M44.62,-190.36C51.19,-162.39 73.56,-79.99 119,-29 120.02,-27.85 121.13,-26.76 122.3,-25.71"/>
<polygon fill="midnightblue" stroke="midnightblue" points="124.68,-28.3 130.63,-19.53 120.51,-22.68 124.68,-28.3"/>
</g>
<!-- Node3 -->
<g id="node3" class="node">
<title>Node3</title>
<g id="a_node3"><a xlink:href="cte_8c.html#a90a17e3cfc268f5b8ed0a92ffda13a58" target="_top" xlink:title=" ">
<polygon fill="none" stroke="black" points="488.5,-712.5 488.5,-731.5 541.5,-731.5 541.5,-712.5 488.5,-712.5"/>
<text text-anchor="middle" x="515" y="-719.5" font-family="Helvetica,sans-Serif" font-size="10.00">kcontext</text>
</a>
</g>
</g>
<!-- Node2&#45;&gt;Node3 -->
<g id="edge2" class="edge">
<title>Node2&#45;&gt;Node3</title>
<path fill="none" stroke="midnightblue" d="M420.17,-693.59C437.94,-698.97 460.15,-705.7 478.51,-711.25"/>
<polygon fill="midnightblue" stroke="midnightblue" points="477.67,-714.66 488.25,-714.2 479.7,-707.96 477.67,-714.66"/>
</g>
<!-- Node5 -->
<g id="node5" class="node">
<title>Node5</title>
<g id="a_node5"><a xlink:href="string_8c.html#a7a8fd43b209c9ea19addab23a5f23995" target="_top" xlink:title=" ">
<polygon fill="none" stroke="black" points="489,-636.5 489,-655.5 541,-655.5 541,-636.5 489,-636.5"/>
<text text-anchor="middle" x="515" y="-643.5" font-family="Helvetica,sans-Serif" font-size="10.00">memset</text>
</a>
</g>
</g>
<!-- Node2&#45;&gt;Node5 -->
<g id="edge4" class="edge">
<title>Node2&#45;&gt;Node5</title>
<path fill="none" stroke="midnightblue" d="M420.17,-674.41C438.06,-668.99 460.46,-662.21 478.89,-656.63"/>
<polygon fill="midnightblue" stroke="midnightblue" points="480.1,-659.92 488.66,-653.67 478.07,-653.22 480.1,-659.92"/>
</g>
<!-- Node6 -->
<g id="node6" class="node">
<title>Node6</title>
<g id="a_node6"><a xlink:href="spinlock_8c.html#ad4be0d674a7ca4dc90c2dbf8b34562cc" target="_top" xlink:title="check current cpu has the lock">
<polygon fill="none" stroke="black" points="607,-408.5 607,-427.5 678,-427.5 678,-408.5 607,-408.5"/>
<text text-anchor="middle" x="642.5" y="-415.5" font-family="Helvetica,sans-Serif" font-size="10.00">spin_holding</text>
</a>
</g>
</g>
<!-- Node2&#45;&gt;Node6 -->
<g id="edge5" class="edge">
<title>Node2&#45;&gt;Node6</title>
<path fill="none" stroke="midnightblue" d="M420.26,-690.37C457.13,-695.77 517.43,-698.09 553,-665 615.93,-606.46 550.4,-551.79 589,-475 596.88,-459.33 610.35,-444.84 621.67,-434.39"/>
<polygon fill="midnightblue" stroke="midnightblue" points="624.25,-436.78 629.42,-427.54 619.61,-431.54 624.25,-436.78"/>
</g>
<!-- Node2&#45;&gt;Node15 -->
<g id="edge17" class="edge">
<title>Node2&#45;&gt;Node15</title>
<path fill="none" stroke="midnightblue" d="M393.11,-674.21C403.16,-652.5 427.27,-598.45 441,-551 464.88,-468.44 445,-440.77 477,-361 482.63,-346.97 491.89,-332.71 499.74,-321.96"/>
<polygon fill="midnightblue" stroke="midnightblue" points="502.64,-323.92 505.89,-313.84 497.06,-319.69 502.64,-323.92"/>
</g>
<!-- Node2&#45;&gt;Node18 -->
<g id="edge23" class="edge">
<title>Node2&#45;&gt;Node18</title>
<path fill="none" stroke="midnightblue" d="M396.35,-674.49C416.95,-649.54 472.8,-581.89 499.46,-549.61"/>
<polygon fill="midnightblue" stroke="midnightblue" points="502.48,-551.44 506.15,-541.5 497.09,-546.99 502.48,-551.44"/>
</g>
<!-- Node4 -->
<g id="node4" class="node">
<title>Node4</title>
<g id="a_node4"><a xlink:href="cte_8c.html#a8a4bbd700f2686cea6a3f2d756580237" target="_top" xlink:title=" ">
<polygon fill="none" stroke="black" points="589,-712.5 589,-731.5 696,-731.5 696,-712.5 589,-712.5"/>
<text text-anchor="middle" x="642.5" y="-719.5" font-family="Helvetica,sans-Serif" font-size="10.00">__am_kcontext_start</text>
</a>
</g>
</g>
<!-- Node3&#45;&gt;Node4 -->
<g id="edge3" class="edge">
<title>Node3&#45;&gt;Node4</title>
<path fill="none" stroke="midnightblue" d="M541.7,-722C552.56,-722 565.72,-722 578.88,-722"/>
<polygon fill="midnightblue" stroke="midnightblue" points="578.9,-725.5 588.9,-722 578.9,-718.5 578.9,-725.5"/>
</g>
<!-- Node7 -->
<g id="node7" class="node">
<title>Node7</title>
<g id="a_node7"><a xlink:href="mpe_8c.html#ab701de78cad32896c923ce900087e714" target="_top" xlink:title=" ">
<polygon fill="none" stroke="black" points="839,-237.5 839,-256.5 907,-256.5 907,-237.5 839,-237.5"/>
<text text-anchor="middle" x="873" y="-244.5" font-family="Helvetica,sans-Serif" font-size="10.00">cpu_current</text>
</a>
</g>
</g>
<!-- Node6&#45;&gt;Node7 -->
<g id="edge6" class="edge">
<title>Node6&#45;&gt;Node7</title>
<path fill="none" stroke="midnightblue" d="M657.69,-408.36C674.98,-396.72 705.22,-376.75 732,-361 762.85,-342.85 774.78,-345.02 803,-323 824.81,-305.98 845.55,-281.65 858.49,-265.14"/>
<polygon fill="midnightblue" stroke="midnightblue" points="861.52,-266.93 864.83,-256.87 855.97,-262.67 861.52,-266.93"/>
</g>
<!-- Node8 -->
<g id="node8" class="node">
<title>Node8</title>
<g id="a_node8"><a xlink:href="spinlock_8c.html#afc9565dc7a5ddf77e1fa76f5d91caf78" target="_top" xlink:title="interrupt able">
<polygon fill="none" stroke="black" points="735,-408.5 735,-427.5 800,-427.5 800,-408.5 735,-408.5"/>
<text text-anchor="middle" x="767.5" y="-415.5" font-family="Helvetica,sans-Serif" font-size="10.00">spin_popcli</text>
</a>
</g>
</g>
<!-- Node6&#45;&gt;Node8 -->
<g id="edge7" class="edge">
<title>Node6&#45;&gt;Node8</title>
<path fill="none" stroke="midnightblue" d="M678.09,-418C692.52,-418 709.42,-418 724.55,-418"/>
<polygon fill="midnightblue" stroke="midnightblue" points="724.7,-421.5 734.7,-418 724.7,-414.5 724.7,-421.5"/>
</g>
<!-- Node12 -->
<g id="node12" class="node">
<title>Node12</title>
<g id="a_node12"><a xlink:href="spinlock_8c.html#ab213874cda54fdbbeb1bec1e5fa90b28" target="_top" xlink:title="interrupt disable">
<polygon fill="none" stroke="black" points="732,-370.5 732,-389.5 803,-389.5 803,-370.5 732,-370.5"/>
<text text-anchor="middle" x="767.5" y="-377.5" font-family="Helvetica,sans-Serif" font-size="10.00">spin_pushcli</text>
</a>
</g>
</g>
<!-- Node6&#45;&gt;Node12 -->
<g id="edge12" class="edge">
<title>Node6&#45;&gt;Node12</title>
<path fill="none" stroke="midnightblue" d="M674.54,-408.41C689.98,-403.64 708.85,-397.81 725.47,-392.68"/>
<polygon fill="midnightblue" stroke="midnightblue" points="726.95,-395.88 735.47,-389.59 724.88,-389.19 726.95,-395.88"/>
</g>
<!-- Node8&#45;&gt;Node7 -->
<g id="edge8" class="edge">
<title>Node8&#45;&gt;Node7</title>
<path fill="none" stroke="midnightblue" d="M790.81,-408.48C795.23,-405.87 799.56,-402.71 803,-399 839.29,-359.79 859.1,-298.22 867.34,-266.84"/>
<polygon fill="midnightblue" stroke="midnightblue" points="870.84,-267.29 869.86,-256.74 864.04,-265.59 870.84,-267.29"/>
</g>
<!-- Node9 -->
<g id="node9" class="node">
<title>Node9</title>
<g id="a_node9"><a xlink:href="cte_8c.html#a4a139958742786c5085172be1f69bfd0" target="_top" xlink:title=" ">
<polygon fill="none" stroke="black" points="857,-408.5 857,-427.5 889,-427.5 889,-408.5 857,-408.5"/>
<text text-anchor="middle" x="873" y="-415.5" font-family="Helvetica,sans-Serif" font-size="10.00">iset</text>
</a>
</g>
</g>
<!-- Node8&#45;&gt;Node9 -->
<g id="edge9" class="edge">
<title>Node8&#45;&gt;Node9</title>
<path fill="none" stroke="midnightblue" d="M800.12,-418C814.94,-418 832.37,-418 846.36,-418"/>
<polygon fill="midnightblue" stroke="midnightblue" points="846.72,-421.5 856.72,-418 846.72,-414.5 846.72,-421.5"/>
</g>
<!-- Node10 -->
<g id="node10" class="node">
<title>Node10</title>
<g id="a_node10"><a xlink:href="x86_8h.html#acc919e7809ef1db2b20aa3804f540b5c" target="_top" xlink:title=" ">
<polygon fill="none" stroke="black" points="951,-446.5 951,-465.5 980,-465.5 980,-446.5 951,-446.5"/>
<text text-anchor="middle" x="965.5" y="-453.5" font-family="Helvetica,sans-Serif" font-size="10.00">cli</text>
</a>
</g>
</g>
<!-- Node9&#45;&gt;Node10 -->
<g id="edge10" class="edge">
<title>Node9&#45;&gt;Node10</title>
<path fill="none" stroke="midnightblue" d="M889.35,-424.45C903.63,-430.44 925.11,-439.46 941.45,-446.32"/>
<polygon fill="midnightblue" stroke="midnightblue" points="940.28,-449.62 950.85,-450.27 942.99,-443.17 940.28,-449.62"/>
</g>
<!-- Node11 -->
<g id="node11" class="node">
<title>Node11</title>
<g id="a_node11"><a xlink:href="x86_8h.html#a4657e97b270d7af5a23da2c4d642ada2" target="_top" xlink:title=" ">
<polygon fill="none" stroke="black" points="951,-408.5 951,-427.5 980,-427.5 980,-408.5 951,-408.5"/>
<text text-anchor="middle" x="965.5" y="-415.5" font-family="Helvetica,sans-Serif" font-size="10.00">sti</text>
</a>
</g>
</g>
<!-- Node9&#45;&gt;Node11 -->
<g id="edge11" class="edge">
<title>Node9&#45;&gt;Node11</title>
<path fill="none" stroke="midnightblue" d="M889.35,-418C903.37,-418 924.3,-418 940.52,-418"/>
<polygon fill="midnightblue" stroke="midnightblue" points="940.85,-421.5 950.85,-418 940.85,-414.5 940.85,-421.5"/>
</g>
<!-- Node12&#45;&gt;Node7 -->
<g id="edge13" class="edge">
<title>Node12&#45;&gt;Node7</title>
<path fill="none" stroke="midnightblue" d="M784.99,-370.46C791.07,-366.47 797.75,-361.48 803,-356 829.58,-328.24 851.53,-288.72 863.11,-265.68"/>
<polygon fill="midnightblue" stroke="midnightblue" points="866.29,-267.14 867.56,-256.62 860.01,-264.06 866.29,-267.14"/>
</g>
<!-- Node12&#45;&gt;Node9 -->
<g id="edge16" class="edge">
<title>Node12&#45;&gt;Node9</title>
<path fill="none" stroke="midnightblue" d="M794.62,-389.59C810.73,-395.5 831.28,-403.05 847.15,-408.88"/>
<polygon fill="midnightblue" stroke="midnightblue" points="846.22,-412.26 856.81,-412.42 848.63,-405.69 846.22,-412.26"/>
</g>
<!-- Node13 -->
<g id="node13" class="node">
<title>Node13</title>
<g id="a_node13"><a xlink:href="cte_8c.html#a79659a2b801c42951e38f3a8821acbae" target="_top" xlink:title=" ">
<polygon fill="none" stroke="black" points="846.5,-370.5 846.5,-389.5 899.5,-389.5 899.5,-370.5 846.5,-370.5"/>
<text text-anchor="middle" x="873" y="-377.5" font-family="Helvetica,sans-Serif" font-size="10.00">ienabled</text>
</a>
</g>
</g>
<!-- Node12&#45;&gt;Node13 -->
<g id="edge14" class="edge">
<title>Node12&#45;&gt;Node13</title>
<path fill="none" stroke="midnightblue" d="M803.25,-380C813.82,-380 825.46,-380 836.1,-380"/>
<polygon fill="midnightblue" stroke="midnightblue" points="836.34,-383.5 846.34,-380 836.34,-376.5 836.34,-383.5"/>
</g>
<!-- Node14 -->
<g id="node14" class="node">
<title>Node14</title>
<g id="a_node14"><a xlink:href="x86_8h.html#a73d094f09c6a7dd3fc703aa8229933ee" target="_top" xlink:title=" ">
<polygon fill="none" stroke="black" points="943,-370.5 943,-389.5 988,-389.5 988,-370.5 943,-370.5"/>
<text text-anchor="middle" x="965.5" y="-377.5" font-family="Helvetica,sans-Serif" font-size="10.00">get_efl</text>
</a>
</g>
</g>
<!-- Node13&#45;&gt;Node14 -->
<g id="edge15" class="edge">
<title>Node13&#45;&gt;Node14</title>
<path fill="none" stroke="midnightblue" d="M899.69,-380C909.88,-380 921.71,-380 932.45,-380"/>
<polygon fill="midnightblue" stroke="midnightblue" points="932.73,-383.5 942.73,-380 932.73,-376.5 932.73,-383.5"/>
</g>
<!-- Node15&#45;&gt;Node6 -->
<g id="edge21" class="edge">
<title>Node15&#45;&gt;Node6</title>
<path fill="none" stroke="midnightblue" d="M533.46,-313.62C539.95,-317.62 547.15,-322.59 553,-328 572.32,-345.86 570.7,-356.09 589,-375 598.38,-384.69 609.87,-394.31 619.7,-401.99"/>
<polygon fill="midnightblue" stroke="midnightblue" points="617.75,-404.9 627.83,-408.19 622,-399.34 617.75,-404.9"/>
</g>
<!-- Node15&#45;&gt;Node7 -->
<g id="edge20" class="edge">
<title>Node15&#45;&gt;Node7</title>
<path fill="none" stroke="midnightblue" d="M544.24,-295.8C557.71,-292.11 574.09,-287.93 589,-285 673.08,-268.48 772.65,-256.94 828.45,-251.19"/>
<polygon fill="midnightblue" stroke="midnightblue" points="829.08,-254.65 838.67,-250.15 828.37,-247.68 829.08,-254.65"/>
</g>
<!-- Node15&#45;&gt;Node12 -->
<g id="edge22" class="edge">
<title>Node15&#45;&gt;Node12</title>
<path fill="none" stroke="midnightblue" d="M544.25,-312.57C588.39,-325.96 673.96,-351.92 725.08,-367.43"/>
<polygon fill="midnightblue" stroke="midnightblue" points="724.24,-370.83 734.82,-370.39 726.27,-364.14 724.24,-370.83"/>
</g>
<!-- Node16 -->
<g id="node16" class="node">
<title>Node16</title>
<g id="a_node16"><a xlink:href="mpe_8c.html#aaaad47c97c82065cf463f83b98b23c30" target="_top" xlink:title=" ">
<polygon fill="none" stroke="black" points="607,-294.5 607,-313.5 678,-313.5 678,-294.5 607,-294.5"/>
<text text-anchor="middle" x="642.5" y="-301.5" font-family="Helvetica,sans-Serif" font-size="10.00">atomic_xchg</text>
</a>
</g>
</g>
<!-- Node15&#45;&gt;Node16 -->
<g id="edge18" class="edge">
<title>Node15&#45;&gt;Node16</title>
<path fill="none" stroke="midnightblue" d="M544.16,-304C559.63,-304 579.17,-304 596.68,-304"/>
<polygon fill="midnightblue" stroke="midnightblue" points="596.71,-307.5 606.71,-304 596.71,-300.5 596.71,-307.5"/>
</g>
<!-- Node17 -->
<g id="node17" class="node">
<title>Node17</title>
<g id="a_node17"><a xlink:href="x86_8h.html#a48b2a6a16dc8d7e09d327aa3803f1112" target="_top" xlink:title=" ">
<polygon fill="none" stroke="black" points="749,-294.5 749,-313.5 786,-313.5 786,-294.5 749,-294.5"/>
<text text-anchor="middle" x="767.5" y="-301.5" font-family="Helvetica,sans-Serif" font-size="10.00">xchg</text>
</a>
</g>
</g>
<!-- Node16&#45;&gt;Node17 -->
<g id="edge19" class="edge">
<title>Node16&#45;&gt;Node17</title>
<path fill="none" stroke="midnightblue" d="M678.09,-304C697.24,-304 720.74,-304 738.69,-304"/>
<polygon fill="midnightblue" stroke="midnightblue" points="738.81,-307.5 748.81,-304 738.81,-300.5 738.81,-307.5"/>
</g>
<!-- Node18&#45;&gt;Node6 -->
<g id="edge24" class="edge">
<title>Node18&#45;&gt;Node6</title>
<path fill="none" stroke="midnightblue" d="M540.18,-522.38C544.8,-519.8 549.33,-516.69 553,-513 577.95,-487.92 563.48,-466.51 589,-442 592.98,-438.18 597.67,-434.9 602.58,-432.09"/>
<polygon fill="midnightblue" stroke="midnightblue" points="604.22,-435.19 611.56,-427.55 601.06,-428.94 604.22,-435.19"/>
</g>
<!-- Node18&#45;&gt;Node8 -->
<g id="edge25" class="edge">
<title>Node18&#45;&gt;Node8</title>
<path fill="none" stroke="midnightblue" d="M537.86,-522.32C543.03,-519.62 548.38,-516.47 553,-513 571.61,-499.04 569.31,-487.39 589,-475 600.76,-467.6 676.57,-444.49 725.24,-430.07"/>
<polygon fill="midnightblue" stroke="midnightblue" points="726.28,-433.41 734.88,-427.22 724.3,-426.7 726.28,-433.41"/>
</g>
<!-- Node19&#45;&gt;Node7 -->
<g id="edge27" class="edge">
<title>Node19&#45;&gt;Node7</title>
<path fill="none" stroke="midnightblue" d="M553.46,-147.11C610.38,-141.39 720.73,-137.11 803,-176 827.52,-187.59 848.02,-211.86 860.15,-228.78"/>
<polygon fill="midnightblue" stroke="midnightblue" points="857.45,-231.04 866,-237.3 863.22,-227.08 857.45,-231.04"/>
</g>
<!-- Node20&#45;&gt;Node5 -->
<g id="edge65" class="edge">
<title>Node20&#45;&gt;Node5</title>
<path fill="none" stroke="midnightblue" d="M158.38,-389.81C177.41,-423.57 245.25,-535.85 334,-590 379.84,-617.97 440.86,-633.09 478.77,-640.34"/>
<polygon fill="midnightblue" stroke="midnightblue" points="478.35,-643.82 488.82,-642.18 479.61,-636.94 478.35,-643.82"/>
</g>
<!-- Node21 -->
<g id="node21" class="node">
<title>Node21</title>
<g id="a_node21"><a xlink:href="kmt_8c.html#af9c485ce0d89d6624e6e80e31d8ed207" target="_top" xlink:title="handler: save context to current task">
<polygon fill="none" stroke="black" points="339.5,-218.5 339.5,-237.5 435.5,-237.5 435.5,-218.5 339.5,-218.5"/>
<text text-anchor="middle" x="387.5" y="-225.5" font-family="Helvetica,sans-Serif" font-size="10.00">kmt_context_save</text>
</a>
</g>
</g>
<!-- Node20&#45;&gt;Node21 -->
<g id="edge29" class="edge">
<title>Node20&#45;&gt;Node21</title>
<path fill="none" stroke="midnightblue" d="M163.6,-370.1C176.59,-358.21 199.53,-337.99 221,-323 266.99,-290.9 324.53,-259.71 358.23,-242.27"/>
<polygon fill="midnightblue" stroke="midnightblue" points="360.18,-245.2 367.48,-237.51 356.98,-238.97 360.18,-245.2"/>
</g>
<!-- Node22 -->
<g id="node22" class="node">
<title>Node22</title>
<g id="a_node22"><a xlink:href="kmt_8c.html#ad3fbc643b7b6092120c5152b4c890354" target="_top" xlink:title="handler: handle program errors">
<polygon fill="none" stroke="black" points="230.5,-446.5 230.5,-465.5 288.5,-465.5 288.5,-446.5 230.5,-446.5"/>
<text text-anchor="middle" x="259.5" y="-453.5" font-family="Helvetica,sans-Serif" font-size="10.00">kmt_error</text>
</a>
</g>
</g>
<!-- Node20&#45;&gt;Node22 -->
<g id="edge35" class="edge">
<title>Node20&#45;&gt;Node22</title>
<path fill="none" stroke="midnightblue" d="M163.02,-389.67C175.79,-401.69 198.89,-422.41 221,-437 223.4,-438.58 225.95,-440.13 228.54,-441.61"/>
<polygon fill="midnightblue" stroke="midnightblue" points="226.93,-444.72 237.39,-446.37 230.24,-438.55 226.93,-444.72"/>
</g>
<!-- Node32 -->
<g id="node32" class="node">
<title>Node32</title>
<g id="a_node32"><a xlink:href="kmt_8c.html#ad4d70b4093829da1c0b0631abdff7747" target="_top" xlink:title="handler: schedule next task to run Notice: this should be the only handler which returns real Context">
<polygon fill="none" stroke="black" points="221,-332.5 221,-351.5 298,-351.5 298,-332.5 221,-332.5"/>
<text text-anchor="middle" x="259.5" y="-339.5" font-family="Helvetica,sans-Serif" font-size="10.00">kmt_schedule</text>
</a>
</g>
</g>
<!-- Node20&#45;&gt;Node32 -->
<g id="edge53" class="edge">
<title>Node20&#45;&gt;Node32</title>
<path fill="none" stroke="midnightblue" d="M177.74,-371.09C191,-366.31 207.59,-360.34 222.27,-355.05"/>
<polygon fill="midnightblue" stroke="midnightblue" points="223.85,-358.2 232.08,-351.52 221.48,-351.61 223.85,-358.2"/>
</g>
<!-- Node34 -->
<g id="node34" class="node">
<title>Node34</title>
<g id="a_node34"><a xlink:href="kmt_8c.html#a046a92c2d695ccdd1ad42210135ed597" target="_top" xlink:title="handler: triggered when aipc timer fired up">
<polygon fill="none" stroke="black" points="229.5,-370.5 229.5,-389.5 289.5,-389.5 289.5,-370.5 229.5,-370.5"/>
<text text-anchor="middle" x="259.5" y="-377.5" font-family="Helvetica,sans-Serif" font-size="10.00">kmt_timer</text>
</a>
</g>
</g>
<!-- Node20&#45;&gt;Node34 -->
<g id="edge63" class="edge">
<title>Node20&#45;&gt;Node34</title>
<path fill="none" stroke="midnightblue" d="M177.74,-380C190.06,-380 205.27,-380 219.14,-380"/>
<polygon fill="midnightblue" stroke="midnightblue" points="219.43,-383.5 229.43,-380 219.43,-376.5 219.43,-383.5"/>
</g>
<!-- Node35 -->
<g id="node35" class="node">
<title>Node35</title>
<g id="a_node35"><a xlink:href="kmt_8c.html#a75ea8dbba16d64a343a45962bd593930" target="_top" xlink:title="handler: handle yield interrupt (0x81)">
<polygon fill="none" stroke="black" points="230.5,-408.5 230.5,-427.5 288.5,-427.5 288.5,-408.5 230.5,-408.5"/>
<text text-anchor="middle" x="259.5" y="-415.5" font-family="Helvetica,sans-Serif" font-size="10.00">kmt_yield</text>
</a>
</g>
</g>
<!-- Node20&#45;&gt;Node35 -->
<g id="edge64" class="edge">
<title>Node20&#45;&gt;Node35</title>
<path fill="none" stroke="midnightblue" d="M177.74,-388.91C191,-393.69 207.59,-399.66 222.27,-404.95"/>
<polygon fill="midnightblue" stroke="midnightblue" points="221.48,-408.39 232.08,-408.48 223.85,-401.8 221.48,-408.39"/>
</g>
<!-- Node21&#45;&gt;Node6 -->
<g id="edge32" class="edge">
<title>Node21&#45;&gt;Node6</title>
<path fill="none" stroke="midnightblue" d="M435.64,-235.89C470.83,-243.66 518.58,-258.36 553,-285 573.87,-301.15 612.62,-366.79 631.13,-399.41"/>
<polygon fill="midnightblue" stroke="midnightblue" points="628.23,-401.39 636.19,-408.39 634.33,-397.96 628.23,-401.39"/>
</g>
<!-- Node21&#45;&gt;Node7 -->
<g id="edge30" class="edge">
<title>Node21&#45;&gt;Node7</title>
<path fill="none" stroke="midnightblue" d="M435.74,-229.86C529.57,-233.54 738.15,-241.74 828.68,-245.3"/>
<polygon fill="midnightblue" stroke="midnightblue" points="828.73,-248.8 838.86,-245.7 829.01,-241.81 828.73,-248.8"/>
</g>
<!-- Node21&#45;&gt;Node15 -->
<g id="edge33" class="edge">
<title>Node21&#45;&gt;Node15</title>
<path fill="none" stroke="midnightblue" d="M412.36,-237.51C421.55,-241.53 432,-246.55 441,-252 458.33,-262.51 460.48,-268.25 477,-280 481.15,-282.95 485.64,-285.99 490.01,-288.87"/>
<polygon fill="midnightblue" stroke="midnightblue" points="488.39,-291.98 498.68,-294.48 492.19,-286.11 488.39,-291.98"/>
</g>
<!-- Node21&#45;&gt;Node18 -->
<g id="edge34" class="edge">
<title>Node21&#45;&gt;Node18</title>
<path fill="none" stroke="midnightblue" d="M391.5,-237.76C406.84,-287.61 475.82,-511.59 477,-513 477.99,-514.17 479.07,-515.29 480.21,-516.33"/>
<polygon fill="midnightblue" stroke="midnightblue" points="478.41,-519.35 488.56,-522.39 482.52,-513.68 478.41,-519.35"/>
</g>
<!-- Node21&#45;&gt;Node19 -->
<g id="edge31" class="edge">
<title>Node21&#45;&gt;Node19</title>
<path fill="none" stroke="midnightblue" d="M404.39,-218.37C425.89,-205.35 464.45,-182.01 489.62,-166.76"/>
<polygon fill="midnightblue" stroke="midnightblue" points="491.49,-169.72 498.23,-161.55 487.87,-163.73 491.49,-169.72"/>
</g>
<!-- Node22&#45;&gt;Node6 -->
<g id="edge52" class="edge">
<title>Node22&#45;&gt;Node6</title>
<path fill="none" stroke="midnightblue" d="M279.91,-465.72C286.23,-469.55 292.92,-474.38 298,-480 321.74,-506.24 305.21,-530.44 334,-551 413.53,-607.81 472.67,-626.67 553,-571 590.45,-545.04 565.12,-513.81 589,-475 598.3,-459.88 611.97,-445.2 623.02,-434.53"/>
<polygon fill="midnightblue" stroke="midnightblue" points="625.6,-436.9 630.51,-427.51 620.82,-431.79 625.6,-436.9"/>
</g>
<!-- Node23 -->
<g id="node23" class="node">
<title>Node23</title>
<g id="a_node23"><a xlink:href="kmt_8c.html#a0ac321d3074b24b276695a080e835866" target="_top" xlink:title="print all tasks notice: do not garantee concurrency safety">
<polygon fill="none" stroke="black" points="337,-446.5 337,-465.5 438,-465.5 438,-446.5 337,-446.5"/>
<text text-anchor="middle" x="387.5" y="-453.5" font-family="Helvetica,sans-Serif" font-size="10.00">kmt_print_all_tasks</text>
</a>
</g>
</g>
<!-- Node22&#45;&gt;Node23 -->
<g id="edge36" class="edge">
<title>Node22&#45;&gt;Node23</title>
<path fill="none" stroke="midnightblue" d="M288.78,-456C300.05,-456 313.48,-456 326.73,-456"/>
<polygon fill="midnightblue" stroke="midnightblue" points="326.78,-459.5 336.78,-456 326.78,-452.5 326.78,-459.5"/>
</g>
<!-- Node30 -->
<g id="node30" class="node">
<title>Node30</title>
<g id="a_node30"><a xlink:href="kmt_8c.html#ac69761d0146d9aacda65da757868d3c7" target="_top" xlink:title="print all current_tasks notice: do not garantee concurrency safety">
<polygon fill="none" stroke="black" points="334,-408.5 334,-427.5 441,-427.5 441,-408.5 334,-408.5"/>
<text text-anchor="middle" x="387.5" y="-415.5" font-family="Helvetica,sans-Serif" font-size="10.00">kmt_print_cpu_tasks</text>
</a>
</g>
</g>
<!-- Node22&#45;&gt;Node30 -->
<g id="edge46" class="edge">
<title>Node22&#45;&gt;Node30</title>
<path fill="none" stroke="midnightblue" d="M288.78,-447.47C305.38,-442.46 326.67,-436.04 345.13,-430.48"/>
<polygon fill="midnightblue" stroke="midnightblue" points="346.21,-433.81 354.77,-427.57 344.19,-427.11 346.21,-433.81"/>
</g>
<!-- Node23&#45;&gt;Node6 -->
<g id="edge43" class="edge">
<title>Node23&#45;&gt;Node6</title>
<path fill="none" stroke="midnightblue" d="M438.19,-448.91C470.84,-444.21 514.48,-437.86 553,-432 567.23,-429.84 582.74,-427.41 596.74,-425.19"/>
<polygon fill="midnightblue" stroke="midnightblue" points="597.3,-428.64 606.63,-423.62 596.2,-421.73 597.3,-428.64"/>
</g>
<!-- Node23&#45;&gt;Node15 -->
<g id="edge44" class="edge">
<title>Node23&#45;&gt;Node15</title>
<path fill="none" stroke="midnightblue" d="M426.4,-446.4C431.7,-443.93 436.77,-440.85 441,-437 468.66,-411.86 458.78,-393.64 477,-361 484.46,-347.64 493.85,-333.19 501.31,-322.18"/>
<polygon fill="midnightblue" stroke="midnightblue" points="504.26,-324.07 507.04,-313.84 498.49,-320.1 504.26,-324.07"/>
</g>
<!-- Node23&#45;&gt;Node18 -->
<g id="edge45" class="edge">
<title>Node23&#45;&gt;Node18</title>
<path fill="none" stroke="midnightblue" d="M413.65,-465.59C422.61,-469.49 432.56,-474.41 441,-480 459.09,-491.99 459.19,-500.6 477,-513 479.26,-514.57 481.66,-516.09 484.11,-517.55"/>
<polygon fill="midnightblue" stroke="midnightblue" points="482.63,-520.73 493.08,-522.49 486.01,-514.6 482.63,-520.73"/>
</g>
<!-- Node24 -->
<g id="node24" class="node">
<title>Node24</title>
<g id="a_node24"><a xlink:href="stdio_8c.html#a55f3d956bb2ba20b5059e9e25484a47f" target="_top" xlink:title=" ">
<polygon fill="none" stroke="black" points="496,-484.5 496,-503.5 534,-503.5 534,-484.5 496,-484.5"/>
<text text-anchor="middle" x="515" y="-491.5" font-family="Helvetica,sans-Serif" font-size="10.00">printf</text>
</a>
</g>
</g>
<!-- Node23&#45;&gt;Node24 -->
<g id="edge37" class="edge">
<title>Node23&#45;&gt;Node24</title>
<path fill="none" stroke="midnightblue" d="M420.17,-465.59C440.48,-471.74 466.61,-479.65 486.13,-485.56"/>
<polygon fill="midnightblue" stroke="midnightblue" points="485.36,-488.98 495.94,-488.53 487.39,-482.28 485.36,-488.98"/>
</g>
<!-- Node25 -->
<g id="node25" class="node">
<title>Node25</title>
<g id="a_node25"><a xlink:href="stdio_8c.html#a44a6734c6f8f81d8e1fa3b9d476c5134" target="_top" xlink:title="write bytes (including the terminating null byte (&#39;\0&#39;)) to out.">
<polygon fill="none" stroke="black" points="618,-484.5 618,-503.5 667,-503.5 667,-484.5 618,-484.5"/>
<text text-anchor="middle" x="642.5" y="-491.5" font-family="Helvetica,sans-Serif" font-size="10.00">vsprintf</text>
</a>
</g>
</g>
<!-- Node24&#45;&gt;Node25 -->
<g id="edge38" class="edge">
<title>Node24&#45;&gt;Node25</title>
<path fill="none" stroke="midnightblue" d="M534.25,-494C553.35,-494 583.78,-494 607.36,-494"/>
<polygon fill="midnightblue" stroke="midnightblue" points="607.65,-497.5 617.65,-494 607.65,-490.5 607.65,-497.5"/>
</g>
<!-- Node26 -->
<g id="node26" class="node">
<title>Node26</title>
<g id="a_node26"><a xlink:href="stdio_8c.html#abf852e417a205348767989f2940059ad" target="_top" xlink:title="write at most n bytes (including the terminating null byte (&#39;\0&#39;)) to out.">
<polygon fill="none" stroke="black" points="740.5,-484.5 740.5,-503.5 794.5,-503.5 794.5,-484.5 740.5,-484.5"/>
<text text-anchor="middle" x="767.5" y="-491.5" font-family="Helvetica,sans-Serif" font-size="10.00">vsnprintf</text>
</a>
</g>
</g>
<!-- Node25&#45;&gt;Node26 -->
<g id="edge39" class="edge">
<title>Node25&#45;&gt;Node26</title>
<path fill="none" stroke="midnightblue" d="M667.22,-494C685.05,-494 709.8,-494 730.13,-494"/>
<polygon fill="midnightblue" stroke="midnightblue" points="730.3,-497.5 740.3,-494 730.3,-490.5 730.3,-497.5"/>
</g>
<!-- Node27 -->
<g id="node27" class="node">
<title>Node27</title>
<g id="a_node27"><a xlink:href="stdio_8c.html#a0e2811092b514de48ac2dd675d6cf2b4" target="_top" xlink:title="print decimal into buffer,return length">
<polygon fill="none" stroke="black" points="843.5,-522.5 843.5,-541.5 902.5,-541.5 902.5,-522.5 843.5,-522.5"/>
<text text-anchor="middle" x="873" y="-529.5" font-family="Helvetica,sans-Serif" font-size="10.00">print_num</text>
</a>
</g>
</g>
<!-- Node26&#45;&gt;Node27 -->
<g id="edge40" class="edge">
<title>Node26&#45;&gt;Node27</title>
<path fill="none" stroke="midnightblue" d="M794.62,-503.59C807.24,-508.22 822.59,-513.86 836.28,-518.89"/>
<polygon fill="midnightblue" stroke="midnightblue" points="835.3,-522.25 845.89,-522.41 837.71,-515.68 835.3,-522.25"/>
</g>
<!-- Node28 -->
<g id="node28" class="node">
<title>Node28</title>
<g id="a_node28"><a xlink:href="string_8c.html#aa383452fe445bfae989358c9d7d96f4f" target="_top" xlink:title=" ">
<polygon fill="none" stroke="black" points="852.5,-484.5 852.5,-503.5 893.5,-503.5 893.5,-484.5 852.5,-484.5"/>
<text text-anchor="middle" x="873" y="-491.5" font-family="Helvetica,sans-Serif" font-size="10.00">strlen</text>
</a>
</g>
</g>
<!-- Node26&#45;&gt;Node28 -->
<g id="edge41" class="edge">
<title>Node26&#45;&gt;Node28</title>
<path fill="none" stroke="midnightblue" d="M794.62,-494C809.07,-494 827.1,-494 842.12,-494"/>
<polygon fill="midnightblue" stroke="midnightblue" points="842.43,-497.5 852.43,-494 842.43,-490.5 842.43,-497.5"/>
</g>
<!-- Node29 -->
<g id="node29" class="node">
<title>Node29</title>
<g id="a_node29"><a xlink:href="string_8c.html#a82f08f2390a9067f3c94b638e90e03bd" target="_top" xlink:title=" ">
<polygon fill="none" stroke="black" points="849,-446.5 849,-465.5 897,-465.5 897,-446.5 849,-446.5"/>
<text text-anchor="middle" x="873" y="-453.5" font-family="Helvetica,sans-Serif" font-size="10.00">strncpy</text>
</a>
</g>
</g>
<!-- Node26&#45;&gt;Node29 -->
<g id="edge42" class="edge">
<title>Node26&#45;&gt;Node29</title>
<path fill="none" stroke="midnightblue" d="M794.62,-484.41C808.14,-479.44 824.8,-473.33 839.18,-468.05"/>
<polygon fill="midnightblue" stroke="midnightblue" points="840.54,-471.28 848.72,-464.55 838.12,-464.71 840.54,-471.28"/>
</g>
<!-- Node30&#45;&gt;Node6 -->
<g id="edge49" class="edge">
<title>Node30&#45;&gt;Node6</title>
<path fill="none" stroke="midnightblue" d="M441.23,-418C487.22,-418 553.19,-418 596.68,-418"/>
<polygon fill="midnightblue" stroke="midnightblue" points="596.68,-421.5 606.68,-418 596.68,-414.5 596.68,-421.5"/>
</g>
<!-- Node30&#45;&gt;Node15 -->
<g id="edge50" class="edge">
<title>Node30&#45;&gt;Node15</title>
<path fill="none" stroke="midnightblue" d="M399.2,-408.28C420.69,-388.76 469.29,-344.61 495.85,-320.49"/>
<polygon fill="midnightblue" stroke="midnightblue" points="498.28,-323.01 503.33,-313.69 493.57,-317.83 498.28,-323.01"/>
</g>
<!-- Node30&#45;&gt;Node18 -->
<g id="edge51" class="edge">
<title>Node30&#45;&gt;Node18</title>
<path fill="none" stroke="midnightblue" d="M426.4,-427.6C431.7,-430.07 436.77,-433.15 441,-437 468.66,-462.14 451,-486.15 477,-513 478.24,-514.28 479.59,-515.5 481.01,-516.64"/>
<polygon fill="midnightblue" stroke="midnightblue" points="479.48,-519.82 489.74,-522.45 483.36,-514 479.48,-519.82"/>
</g>
<!-- Node30&#45;&gt;Node24 -->
<g id="edge48" class="edge">
<title>Node30&#45;&gt;Node24</title>
<path fill="none" stroke="midnightblue" d="M420.03,-427.58C427.12,-430.23 434.47,-433.39 441,-437 461.47,-448.32 482.24,-465.17 496.37,-477.62"/>
<polygon fill="midnightblue" stroke="midnightblue" points="494.09,-480.28 503.87,-484.37 498.77,-475.08 494.09,-480.28"/>
</g>
<!-- Node31 -->
<g id="node31" class="node">
<title>Node31</title>
<g id="a_node31"><a xlink:href="mpe_8c.html#af486ec575d47720d28eee63644206110" target="_top" xlink:title=" ">
<polygon fill="none" stroke="black" points="484,-370.5 484,-389.5 546,-389.5 546,-370.5 484,-370.5"/>
<text text-anchor="middle" x="515" y="-377.5" font-family="Helvetica,sans-Serif" font-size="10.00">cpu_count</text>
</a>
</g>
</g>
<!-- Node30&#45;&gt;Node31 -->
<g id="edge47" class="edge">
<title>Node30&#45;&gt;Node31</title>
<path fill="none" stroke="midnightblue" d="M420.17,-408.41C436.44,-403.49 456.43,-397.43 473.78,-392.18"/>
<polygon fill="midnightblue" stroke="midnightblue" points="475.08,-395.44 483.64,-389.19 473.05,-388.74 475.08,-395.44"/>
</g>
<!-- Node32&#45;&gt;Node6 -->
<g id="edge60" class="edge">
<title>Node32&#45;&gt;Node6</title>
<path fill="none" stroke="midnightblue" d="M298.11,-338.54C354.92,-334.61 465.28,-332.07 553,-361 579.46,-369.72 605.78,-388.27 622.76,-401.84"/>
<polygon fill="midnightblue" stroke="midnightblue" points="620.79,-404.76 630.73,-408.41 625.24,-399.35 620.79,-404.76"/>
</g>
<!-- Node32&#45;&gt;Node7 -->
<g id="edge54" class="edge">
<title>Node32&#45;&gt;Node7</title>
<path fill="none" stroke="midnightblue" d="M262.63,-332.2C268.71,-306.85 288.71,-239.03 334,-209 401.04,-164.54 433.56,-190 514,-190 514,-190 514,-190 643.5,-190 715.38,-190 796.3,-216.88 839.94,-233.72"/>
<polygon fill="midnightblue" stroke="midnightblue" points="838.85,-237.06 849.44,-237.46 841.41,-230.54 838.85,-237.06"/>
</g>
<!-- Node32&#45;&gt;Node15 -->
<g id="edge61" class="edge">
<title>Node32&#45;&gt;Node15</title>
<path fill="none" stroke="midnightblue" d="M298.2,-334.4C309.67,-332.2 322.33,-329.89 334,-328 382.72,-320.12 439.16,-312.9 475.67,-308.48"/>
<polygon fill="midnightblue" stroke="midnightblue" points="476.36,-311.93 485.87,-307.26 475.52,-304.98 476.36,-311.93"/>
</g>
<!-- Node32&#45;&gt;Node18 -->
<g id="edge62" class="edge">
<title>Node32&#45;&gt;Node18</title>
<path fill="none" stroke="midnightblue" d="M286.27,-351.57C290.64,-354.1 294.79,-357.22 298,-361 332.39,-401.51 296.44,-437.41 334,-475 343.89,-484.9 420.65,-506.95 470.69,-520.54"/>
<polygon fill="midnightblue" stroke="midnightblue" points="470.05,-523.99 480.62,-523.22 471.88,-517.23 470.05,-523.99"/>
</g>
<!-- Node32&#45;&gt;Node19 -->
<g id="edge55" class="edge">
<title>Node32&#45;&gt;Node19</title>
<path fill="none" stroke="midnightblue" d="M261.58,-332.11C265.36,-302.79 280.79,-215.89 334,-176 371.98,-147.53 427.54,-144.25 466.87,-146.37"/>
<polygon fill="midnightblue" stroke="midnightblue" points="466.78,-149.87 477,-147.06 467.26,-142.89 466.78,-149.87"/>
</g>
<!-- Node32&#45;&gt;Node23 -->
<g id="edge56" class="edge">
<title>Node32&#45;&gt;Node23</title>
<path fill="none" stroke="midnightblue" d="M285.09,-351.5C289.76,-354.09 294.33,-357.24 298,-361 324.07,-387.78 306.34,-411.86 334,-437 335.72,-438.56 337.58,-440 339.53,-441.32"/>
<polygon fill="midnightblue" stroke="midnightblue" points="338.16,-444.57 348.6,-446.4 341.58,-438.46 338.16,-444.57"/>
</g>
<!-- Node32&#45;&gt;Node30 -->
<g id="edge57" class="edge">
<title>Node32&#45;&gt;Node30</title>
<path fill="none" stroke="midnightblue" d="M280.55,-351.68C286.26,-354.56 292.43,-357.81 298,-361 321.09,-374.24 346.54,-390.86 364.2,-402.73"/>
<polygon fill="midnightblue" stroke="midnightblue" points="362.43,-405.76 372.68,-408.46 366.36,-399.96 362.43,-405.76"/>
</g>
<!-- Node32&#45;&gt;Node33 -->
<g id="edge58" class="edge">
<title>Node32&#45;&gt;Node33</title>
<path fill="none" stroke="midnightblue" d="M263.46,-332.46C275.37,-294.22 319.92,-153.3 334,-138 337.47,-134.23 341.66,-131 346.13,-128.26"/>
<polygon fill="midnightblue" stroke="midnightblue" points="347.78,-131.34 354.97,-123.56 344.5,-125.16 347.78,-131.34"/>
</g>
<!-- Node33&#45;&gt;Node7 -->
<g id="edge59" class="edge">
<title>Node33&#45;&gt;Node7</title>
<path fill="none" stroke="midnightblue" d="M425.61,-107.31C502.02,-95.51 680.06,-78.48 803,-149 833.99,-166.78 854.45,-204.79 864.56,-227.9"/>
<polygon fill="midnightblue" stroke="midnightblue" points="861.42,-229.45 868.48,-237.34 867.88,-226.77 861.42,-229.45"/>
</g>
<!-- Node36&#45;&gt;Node6 -->
<g id="edge68" class="edge">
<title>Node36&#45;&gt;Node6</title>
<path fill="none" stroke="midnightblue" d="M407.75,-541.54C440.38,-556.23 507.45,-579.83 553,-551 584.58,-531.01 568.1,-505.99 589,-475 598.93,-460.28 612.57,-445.59 623.46,-434.81"/>
<polygon fill="midnightblue" stroke="midnightblue" points="626.05,-437.17 630.81,-427.71 621.19,-432.14 626.05,-437.17"/>
</g>
<!-- Node36&#45;&gt;Node15 -->
<g id="edge69" class="edge">
<title>Node36&#45;&gt;Node15</title>
<path fill="none" stroke="midnightblue" d="M400.12,-522.22C411.95,-511.68 430.07,-493.86 441,-475 467.64,-429.03 454.33,-409.05 477,-361 483.53,-347.16 492.94,-332.72 500.63,-321.83"/>
<polygon fill="midnightblue" stroke="midnightblue" points="503.56,-323.76 506.59,-313.61 497.89,-319.65 503.56,-323.76"/>
</g>
<!-- Node36&#45;&gt;Node18 -->
<g id="edge70" class="edge">
<title>Node36&#45;&gt;Node18</title>
<path fill="none" stroke="midnightblue" d="M426.84,-532C440.76,-532 456.58,-532 470.88,-532"/>
<polygon fill="midnightblue" stroke="midnightblue" points="470.99,-535.5 480.99,-532 470.99,-528.5 470.99,-535.5"/>
</g>
</g>
</svg>
