<?xml version="1.0" encoding="UTF-8" standalone="no"?>
<!DOCTYPE svg PUBLIC "-//W3C//DTD SVG 1.1//EN"
 "http://www.w3.org/Graphics/SVG/1.1/DTD/svg11.dtd">
<!-- Generated by graphviz version 3.0.0 (20220413.0106)
 -->
<!-- Title: MODULE_DEF Pages: 1 -->
<svg width="983pt" height="798pt"
 viewBox="0.00 0.00 983.00 798.40" xmlns="http://www.w3.org/2000/svg" xmlns:xlink="http://www.w3.org/1999/xlink">
<g id="graph0" class="graph" transform="scale(1 1) rotate(0) translate(4 794.4)">
<title>MODULE_DEF</title>
<!-- Node1 -->
<g id="node1" class="node">
<title>Node1</title>
<g id="a_node1"><a xlink:title=" ">
<polygon fill="#bfbfbf" stroke="black" points="0,-238.9 0,-257.9 83,-257.9 83,-238.9 0,-238.9"/>
<text text-anchor="middle" x="41.5" y="-245.9" font-family="Helvetica,sans-Serif" font-size="10.00">MODULE_DEF</text>
</a>
</g>
</g>
<!-- Node2 -->
<g id="node2" class="node">
<title>Node2</title>
<g id="a_node2"><a xlink:href="kmt_8c.html#a5ddb8743298012e84cf9cb5faf22212b" target="_top" xlink:title="create thread">
<polygon fill="none" stroke="black" points="342,-694.9 342,-713.9 407,-713.9 407,-694.9 342,-694.9"/>
<text text-anchor="middle" x="374.5" y="-701.9" font-family="Helvetica,sans-Serif" font-size="10.00">kmt_create</text>
</a>
</g>
</g>
<!-- Node1&#45;&gt;Node2 -->
<g id="edge1" class="edge">
<title>Node1&#45;&gt;Node2</title>
<path fill="none" stroke="midnightblue" d="M43,-257.97C46.02,-312.59 63.69,-584.41 119,-642.4 174.55,-700.64 274.93,-707.98 331.61,-706.97"/>
<polygon fill="midnightblue" stroke="midnightblue" points="331.76,-710.47 341.66,-706.69 331.57,-703.47 331.76,-710.47"/>
</g>
<!-- Node15 -->
<g id="node15" class="node">
<title>Node15</title>
<g id="a_node15"><a xlink:href="spinlock_8c.html#ab6f3c37ec37006951feccc3c05387cce" target="_top" xlink:title="acquire spinlock to current cpu">
<polygon fill="none" stroke="black" points="473,-276.9 473,-295.9 531,-295.9 531,-276.9 473,-276.9"/>
<text text-anchor="middle" x="502" y="-283.9" font-family="Helvetica,sans-Serif" font-size="10.00">spin_lock</text>
</a>
</g>
</g>
<!-- Node1&#45;&gt;Node15 -->
<g id="edge87" class="edge">
<title>Node1&#45;&gt;Node15</title>
<path fill="none" stroke="midnightblue" d="M83.01,-247.67C153.55,-247.02 303.31,-248.3 428,-267.4 439.5,-269.16 451.8,-271.98 462.97,-274.92"/>
<polygon fill="midnightblue" stroke="midnightblue" points="462.29,-278.36 472.85,-277.63 464.13,-271.61 462.29,-278.36"/>
</g>
<!-- Node18 -->
<g id="node18" class="node">
<title>Node18</title>
<g id="a_node18"><a xlink:href="spinlock_8c.html#acdf118d615a4bc4064e991add9a80995" target="_top" xlink:title="release spinlock from current cpu">
<polygon fill="none" stroke="black" points="468,-504.9 468,-523.9 536,-523.9 536,-504.9 468,-504.9"/>
<text text-anchor="middle" x="502" y="-511.9" font-family="Helvetica,sans-Serif" font-size="10.00">spin_unlock</text>
</a>
</g>
</g>
<!-- Node1&#45;&gt;Node18 -->
<g id="edge88" class="edge">
<title>Node1&#45;&gt;Node18</title>
<path fill="none" stroke="midnightblue" d="M45.28,-258.27C53.46,-286.25 79.36,-367.74 119,-425.4 150.34,-470.98 163.23,-479.91 208,-512.4 289.94,-571.84 332.28,-604.34 428,-571.4 450.88,-563.52 472.08,-545.21 485.67,-531.46"/>
<polygon fill="midnightblue" stroke="midnightblue" points="488.41,-533.66 492.75,-523.99 483.33,-528.84 488.41,-533.66"/>
</g>
<!-- Node19 -->
<g id="node19" class="node">
<title>Node19</title>
<g id="a_node19"><a xlink:href="kmt_8c.html#a031a09141c265954f2b609183e573d1c" target="_top" xlink:title="get current cpu&#39;s tasks">
<polygon fill="none" stroke="black" points="464,-48.9 464,-67.9 540,-67.9 540,-48.9 464,-48.9"/>
<text text-anchor="middle" x="502" y="-55.9" font-family="Helvetica,sans-Serif" font-size="10.00">kmt_get_task</text>
</a>
</g>
</g>
<!-- Node1&#45;&gt;Node19 -->
<g id="edge26" class="edge">
<title>Node1&#45;&gt;Node19</title>
<path fill="none" stroke="midnightblue" d="M58.2,-238.77C96.94,-214.96 200.09,-151.3 285,-96.4 301.15,-85.96 302.83,-78.68 321,-72.4 364.19,-57.47 416.57,-55 453.66,-55.65"/>
<polygon fill="midnightblue" stroke="midnightblue" points="453.61,-59.15 463.69,-55.9 453.79,-52.15 453.61,-59.15"/>
</g>
<!-- Node20 -->
<g id="node20" class="node">
<title>Node20</title>
<g id="a_node20"><a xlink:href="kmt_8c.html#a0c68a294cecc4be7cb4b495f15b883a0" target="_top" xlink:title="initialize kmt module">
<polygon fill="none" stroke="black" points="120,-314.9 120,-333.9 171,-333.9 171,-314.9 120,-314.9"/>
<text text-anchor="middle" x="145.5" y="-321.9" font-family="Helvetica,sans-Serif" font-size="10.00">kmt_init</text>
</a>
</g>
</g>
<!-- Node1&#45;&gt;Node20 -->
<g id="edge28" class="edge">
<title>Node1&#45;&gt;Node20</title>
<path fill="none" stroke="midnightblue" d="M55.42,-258.02C72.59,-270.81 103.13,-293.57 123.6,-308.82"/>
<polygon fill="midnightblue" stroke="midnightblue" points="121.58,-311.68 131.69,-314.85 125.76,-306.07 121.58,-311.68"/>
</g>
<!-- Node33 -->
<g id="node33" class="node">
<title>Node33</title>
<g id="a_node33"><a xlink:href="kmt_8c.html#a9ddca6d133a84154c98607bf0ee82c76" target="_top" xlink:title="set cpu&#39;s current task">
<polygon fill="none" stroke="black" points="336.5,-10.9 336.5,-29.9 412.5,-29.9 412.5,-10.9 336.5,-10.9"/>
<text text-anchor="middle" x="374.5" y="-17.9" font-family="Helvetica,sans-Serif" font-size="10.00">kmt_set_task</text>
</a>
</g>
</g>
<!-- Node1&#45;&gt;Node33 -->
<g id="edge70" class="edge">
<title>Node1&#45;&gt;Node33</title>
<path fill="none" stroke="midnightblue" d="M42.63,-238.84C43.65,-204.97 52.11,-89.95 119,-39.4 178.9,5.87 271.01,-0.46 326.44,-9.92"/>
<polygon fill="midnightblue" stroke="midnightblue" points="325.89,-13.38 336.35,-11.71 327.13,-6.49 325.89,-13.38"/>
</g>
<!-- Node36 -->
<g id="node36" class="node">
<title>Node36</title>
<g id="a_node36"><a xlink:href="kmt_8c.html#a47d8887c87041abd5ea3148232b65c93" target="_top" xlink:title="tear down a thread">
<polygon fill="none" stroke="black" points="335.5,-390.9 335.5,-409.9 413.5,-409.9 413.5,-390.9 335.5,-390.9"/>
<text text-anchor="middle" x="374.5" y="-397.9" font-family="Helvetica,sans-Serif" font-size="10.00">kmt_teardown</text>
</a>
</g>
</g>
<!-- Node1&#45;&gt;Node36 -->
<g id="edge71" class="edge">
<title>Node1&#45;&gt;Node36</title>
<path fill="none" stroke="midnightblue" d="M48.03,-258.05C59.2,-276.83 86.25,-318.59 119,-343.4 179.53,-389.24 269.96,-399.48 325.15,-401.09"/>
<polygon fill="midnightblue" stroke="midnightblue" points="325.29,-404.6 335.36,-401.3 325.44,-397.6 325.29,-404.6"/>
</g>
<!-- Node37 -->
<g id="node37" class="node">
<title>Node37</title>
<g id="a_node37"><a xlink:href="sem_8c.html#a07341aaf6201983d7c7b9ea1b69975f9" target="_top" xlink:title="init a semaphore">
<polygon fill="none" stroke="black" points="119,-48.9 119,-67.9 172,-67.9 172,-48.9 119,-48.9"/>
<text text-anchor="middle" x="145.5" y="-55.9" font-family="Helvetica,sans-Serif" font-size="10.00">sem_init</text>
</a>
</g>
</g>
<!-- Node1&#45;&gt;Node37 -->
<g id="edge75" class="edge">
<title>Node1&#45;&gt;Node37</title>
<path fill="none" stroke="midnightblue" d="M45.49,-238.73C54.04,-212.07 80.45,-135.97 119,-82.4 120.76,-79.94 122.8,-77.54 124.95,-75.26"/>
<polygon fill="midnightblue" stroke="midnightblue" points="127.62,-77.54 132.37,-68.07 122.75,-72.51 127.62,-77.54"/>
</g>
<!-- Node38 -->
<g id="node38" class="node">
<title>Node38</title>
<g id="a_node38"><a xlink:href="spinlock_8c.html#ab80f529a7b9f49f09fc91a404731c869" target="_top" xlink:title="create spinlock">
<polygon fill="none" stroke="black" points="220,-67.9 220,-86.9 273,-86.9 273,-67.9 220,-67.9"/>
<text text-anchor="middle" x="246.5" y="-74.9" font-family="Helvetica,sans-Serif" font-size="10.00">spin_init</text>
</a>
</g>
</g>
<!-- Node1&#45;&gt;Node38 -->
<g id="edge86" class="edge">
<title>Node1&#45;&gt;Node38</title>
<path fill="none" stroke="midnightblue" d="M45.6,-238.81C53.74,-215.17 77.93,-153.6 119,-120.4 145.23,-99.19 182.48,-88.2 209.77,-82.66"/>
<polygon fill="midnightblue" stroke="midnightblue" points="210.51,-86.09 219.69,-80.8 209.22,-79.21 210.51,-86.09"/>
</g>
<!-- Node39 -->
<g id="node39" class="node">
<title>Node39</title>
<g id="a_node39"><a xlink:href="sem_8c.html#ad994e433f3a6bf8626272437cb54c114" target="_top" xlink:title="wake up a task form tasks waiting for the semaphore instance">
<polygon fill="none" stroke="black" points="341.5,-542.9 341.5,-561.9 407.5,-561.9 407.5,-542.9 341.5,-542.9"/>
<text text-anchor="middle" x="374.5" y="-549.9" font-family="Helvetica,sans-Serif" font-size="10.00">sem_signal</text>
</a>
</g>
</g>
<!-- Node1&#45;&gt;Node39 -->
<g id="edge77" class="edge">
<title>Node1&#45;&gt;Node39</title>
<path fill="none" stroke="midnightblue" d="M47.05,-258.08C63.68,-292.56 124.64,-410.7 208,-476.4 245.68,-506.09 296.83,-527.28 332.25,-539.62"/>
<polygon fill="midnightblue" stroke="midnightblue" points="331.21,-542.96 341.8,-542.87 333.46,-536.34 331.21,-542.96"/>
</g>
<!-- Node40 -->
<g id="node40" class="node">
<title>Node40</title>
<g id="a_node40"><a xlink:href="sem_8c.html#a85ca67864bb0af1966a5c2463bd16fe8" target="_top" xlink:title="release semaphore(Mutex) and sleep task holding the sem">
<polygon fill="none" stroke="black" points="345,-200.9 345,-219.9 404,-219.9 404,-200.9 345,-200.9"/>
<text text-anchor="middle" x="374.5" y="-207.9" font-family="Helvetica,sans-Serif" font-size="10.00">sem_wait</text>
</a>
</g>
</g>
<!-- Node1&#45;&gt;Node40 -->
<g id="edge81" class="edge">
<title>Node1&#45;&gt;Node40</title>
<path fill="none" stroke="midnightblue" d="M83.29,-240.25C94.8,-238.14 107.36,-236.01 119,-234.4 195.13,-223.86 284.73,-216.6 334.73,-213"/>
<polygon fill="midnightblue" stroke="midnightblue" points="335.05,-216.49 344.78,-212.29 334.56,-209.5 335.05,-216.49"/>
</g>
<!-- Node3 -->
<g id="node3" class="node">
<title>Node3</title>
<g id="a_node3"><a xlink:href="cte_8c.html#a90a17e3cfc268f5b8ed0a92ffda13a58" target="_top" xlink:title=" ">
<polygon fill="none" stroke="black" points="475.5,-732.9 475.5,-751.9 528.5,-751.9 528.5,-732.9 475.5,-732.9"/>
<text text-anchor="middle" x="502" y="-739.9" font-family="Helvetica,sans-Serif" font-size="10.00">kcontext</text>
</a>
</g>
</g>
<!-- Node2&#45;&gt;Node3 -->
<g id="edge2" class="edge">
<title>Node2&#45;&gt;Node3</title>
<path fill="none" stroke="midnightblue" d="M407.17,-713.99C424.94,-719.37 447.15,-726.09 465.51,-731.65"/>
<polygon fill="midnightblue" stroke="midnightblue" points="464.67,-735.05 475.25,-734.6 466.7,-728.35 464.67,-735.05"/>
</g>
<!-- Node5 -->
<g id="node5" class="node">
<title>Node5</title>
<g id="a_node5"><a xlink:href="string_8c.html#a7a8fd43b209c9ea19addab23a5f23995" target="_top" xlink:title=" ">
<polygon fill="none" stroke="black" points="476,-770.9 476,-789.9 528,-789.9 528,-770.9 476,-770.9"/>
<text text-anchor="middle" x="502" y="-777.9" font-family="Helvetica,sans-Serif" font-size="10.00">memset</text>
</a>
</g>
</g>
<!-- Node2&#45;&gt;Node5 -->
<g id="edge4" class="edge">
<title>Node2&#45;&gt;Node5</title>
<path fill="none" stroke="midnightblue" d="M400.65,-713.99C409.61,-717.89 419.56,-722.8 428,-728.4 446.09,-740.39 446.19,-749 464,-761.4 466.26,-762.97 468.66,-764.49 471.11,-765.95"/>
<polygon fill="midnightblue" stroke="midnightblue" points="469.63,-769.12 480.08,-770.88 473.01,-762.99 469.63,-769.12"/>
</g>
<!-- Node6 -->
<g id="node6" class="node">
<title>Node6</title>
<g id="a_node6"><a xlink:href="spinlock_8c.html#ad4be0d674a7ca4dc90c2dbf8b34562cc" target="_top" xlink:title="check current cpu has the lock">
<polygon fill="none" stroke="black" points="594,-366.9 594,-385.9 665,-385.9 665,-366.9 594,-366.9"/>
<text text-anchor="middle" x="629.5" y="-373.9" font-family="Helvetica,sans-Serif" font-size="10.00">spin_holding</text>
</a>
</g>
</g>
<!-- Node2&#45;&gt;Node6 -->
<g id="edge5" class="edge">
<title>Node2&#45;&gt;Node6</title>
<path fill="none" stroke="midnightblue" d="M407.16,-709.09C443.66,-712.62 503.32,-712.32 540,-680.4 545.6,-675.52 604.76,-462.44 623.1,-395.98"/>
<polygon fill="midnightblue" stroke="midnightblue" points="626.58,-396.56 625.86,-385.99 619.83,-394.7 626.58,-396.56"/>
</g>
<!-- Node2&#45;&gt;Node15 -->
<g id="edge17" class="edge">
<title>Node2&#45;&gt;Node15</title>
<path fill="none" stroke="midnightblue" d="M379.74,-694.87C389.26,-673.24 412.7,-618.63 428,-571.4 459.78,-473.32 486.83,-352.71 496.85,-306.09"/>
<polygon fill="midnightblue" stroke="midnightblue" points="500.31,-306.63 498.97,-296.12 493.47,-305.17 500.31,-306.63"/>
</g>
<!-- Node2&#45;&gt;Node18 -->
<g id="edge23" class="edge">
<title>Node2&#45;&gt;Node18</title>
<path fill="none" stroke="midnightblue" d="M384.8,-694.87C395.94,-683.16 414.74,-662.37 428,-642.4 447.56,-612.92 446.34,-602.06 464,-571.4 471.64,-558.14 481.03,-543.68 488.44,-532.65"/>
<polygon fill="midnightblue" stroke="midnightblue" points="491.4,-534.53 494.12,-524.29 485.61,-530.59 491.4,-534.53"/>
</g>
<!-- Node4 -->
<g id="node4" class="node">
<title>Node4</title>
<g id="a_node4"><a xlink:href="cte_8c.html#a8a4bbd700f2686cea6a3f2d756580237" target="_top" xlink:title=" ">
<polygon fill="none" stroke="black" points="576,-732.9 576,-751.9 683,-751.9 683,-732.9 576,-732.9"/>
<text text-anchor="middle" x="629.5" y="-739.9" font-family="Helvetica,sans-Serif" font-size="10.00">__am_kcontext_start</text>
</a>
</g>
</g>
<!-- Node3&#45;&gt;Node4 -->
<g id="edge3" class="edge">
<title>Node3&#45;&gt;Node4</title>
<path fill="none" stroke="midnightblue" d="M528.7,-742.4C539.56,-742.4 552.72,-742.4 565.88,-742.4"/>
<polygon fill="midnightblue" stroke="midnightblue" points="565.9,-745.9 575.9,-742.4 565.9,-738.9 565.9,-745.9"/>
</g>
<!-- Node7 -->
<g id="node7" class="node">
<title>Node7</title>
<g id="a_node7"><a xlink:href="mpe_8c.html#ab701de78cad32896c923ce900087e714" target="_top" xlink:title=" ">
<polygon fill="none" stroke="black" points="826,-153.9 826,-172.9 894,-172.9 894,-153.9 826,-153.9"/>
<text text-anchor="middle" x="860" y="-160.9" font-family="Helvetica,sans-Serif" font-size="10.00">cpu_current</text>
</a>
</g>
</g>
<!-- Node6&#45;&gt;Node7 -->
<g id="edge6" class="edge">
<title>Node6&#45;&gt;Node7</title>
<path fill="none" stroke="midnightblue" d="M644.69,-366.75C661.98,-355.12 692.22,-335.15 719,-319.4 749.85,-301.25 764.22,-306.22 790,-281.4 819.91,-252.59 841.17,-208.03 851.63,-182.71"/>
<polygon fill="midnightblue" stroke="midnightblue" points="855,-183.72 855.45,-173.14 848.49,-181.13 855,-183.72"/>
</g>
<!-- Node8 -->
<g id="node8" class="node">
<title>Node8</title>
<g id="a_node8"><a xlink:href="spinlock_8c.html#afc9565dc7a5ddf77e1fa76f5d91caf78" target="_top" xlink:title="interrupt able">
<polygon fill="none" stroke="black" points="722,-366.9 722,-385.9 787,-385.9 787,-366.9 722,-366.9"/>
<text text-anchor="middle" x="754.5" y="-373.9" font-family="Helvetica,sans-Serif" font-size="10.00">spin_popcli</text>
</a>
</g>
</g>
<!-- Node6&#45;&gt;Node8 -->
<g id="edge7" class="edge">
<title>Node6&#45;&gt;Node8</title>
<path fill="none" stroke="midnightblue" d="M665.09,-376.4C679.52,-376.4 696.42,-376.4 711.55,-376.4"/>
<polygon fill="midnightblue" stroke="midnightblue" points="711.7,-379.9 721.7,-376.4 711.7,-372.9 711.7,-379.9"/>
</g>
<!-- Node12 -->
<g id="node12" class="node">
<title>Node12</title>
<g id="a_node12"><a xlink:href="spinlock_8c.html#ab213874cda54fdbbeb1bec1e5fa90b28" target="_top" xlink:title="interrupt disable">
<polygon fill="none" stroke="black" points="719,-328.9 719,-347.9 790,-347.9 790,-328.9 719,-328.9"/>
<text text-anchor="middle" x="754.5" y="-335.9" font-family="Helvetica,sans-Serif" font-size="10.00">spin_pushcli</text>
</a>
</g>
</g>
<!-- Node6&#45;&gt;Node12 -->
<g id="edge12" class="edge">
<title>Node6&#45;&gt;Node12</title>
<path fill="none" stroke="midnightblue" d="M661.54,-366.81C676.98,-362.04 695.85,-356.21 712.47,-351.07"/>
<polygon fill="midnightblue" stroke="midnightblue" points="713.95,-354.28 722.47,-347.98 711.88,-347.59 713.95,-354.28"/>
</g>
<!-- Node8&#45;&gt;Node7 -->
<g id="edge8" class="edge">
<title>Node8&#45;&gt;Node7</title>
<path fill="none" stroke="midnightblue" d="M778.41,-366.87C782.69,-364.29 786.81,-361.15 790,-357.4 834.69,-304.82 851.22,-221.23 856.64,-183.29"/>
<polygon fill="midnightblue" stroke="midnightblue" points="860.15,-183.44 857.99,-173.07 853.21,-182.53 860.15,-183.44"/>
</g>
<!-- Node9 -->
<g id="node9" class="node">
<title>Node9</title>
<g id="a_node9"><a xlink:href="cte_8c.html#a4a139958742786c5085172be1f69bfd0" target="_top" xlink:title=" ">
<polygon fill="none" stroke="black" points="844,-366.9 844,-385.9 876,-385.9 876,-366.9 844,-366.9"/>
<text text-anchor="middle" x="860" y="-373.9" font-family="Helvetica,sans-Serif" font-size="10.00">iset</text>
</a>
</g>
</g>
<!-- Node8&#45;&gt;Node9 -->
<g id="edge9" class="edge">
<title>Node8&#45;&gt;Node9</title>
<path fill="none" stroke="midnightblue" d="M787.12,-376.4C801.94,-376.4 819.37,-376.4 833.36,-376.4"/>
<polygon fill="midnightblue" stroke="midnightblue" points="833.72,-379.9 843.72,-376.4 833.72,-372.9 833.72,-379.9"/>
</g>
<!-- Node10 -->
<g id="node10" class="node">
<title>Node10</title>
<g id="a_node10"><a xlink:href="x86_8h.html#acc919e7809ef1db2b20aa3804f540b5c" target="_top" xlink:title=" ">
<polygon fill="none" stroke="black" points="938,-366.9 938,-385.9 967,-385.9 967,-366.9 938,-366.9"/>
<text text-anchor="middle" x="952.5" y="-373.9" font-family="Helvetica,sans-Serif" font-size="10.00">cli</text>
</a>
</g>
</g>
<!-- Node9&#45;&gt;Node10 -->
<g id="edge10" class="edge">
<title>Node9&#45;&gt;Node10</title>
<path fill="none" stroke="midnightblue" d="M876.35,-376.4C890.37,-376.4 911.3,-376.4 927.52,-376.4"/>
<polygon fill="midnightblue" stroke="midnightblue" points="927.85,-379.9 937.85,-376.4 927.85,-372.9 927.85,-379.9"/>
</g>
<!-- Node11 -->
<g id="node11" class="node">
<title>Node11</title>
<g id="a_node11"><a xlink:href="x86_8h.html#a4657e97b270d7af5a23da2c4d642ada2" target="_top" xlink:title=" ">
<polygon fill="none" stroke="black" points="938,-404.9 938,-423.9 967,-423.9 967,-404.9 938,-404.9"/>
<text text-anchor="middle" x="952.5" y="-411.9" font-family="Helvetica,sans-Serif" font-size="10.00">sti</text>
</a>
</g>
</g>
<!-- Node9&#45;&gt;Node11 -->
<g id="edge11" class="edge">
<title>Node9&#45;&gt;Node11</title>
<path fill="none" stroke="midnightblue" d="M876.35,-382.84C890.63,-388.84 912.11,-397.86 928.45,-404.72"/>
<polygon fill="midnightblue" stroke="midnightblue" points="927.28,-408.02 937.85,-408.67 929.99,-401.57 927.28,-408.02"/>
</g>
<!-- Node12&#45;&gt;Node7 -->
<g id="edge13" class="edge">
<title>Node12&#45;&gt;Node7</title>
<path fill="none" stroke="midnightblue" d="M773.11,-328.76C779.04,-324.88 785.32,-320 790,-314.4 823.9,-273.81 844.65,-213.84 853.69,-183.12"/>
<polygon fill="midnightblue" stroke="midnightblue" points="857.13,-183.79 856.49,-173.21 850.4,-181.88 857.13,-183.79"/>
</g>
<!-- Node12&#45;&gt;Node9 -->
<g id="edge16" class="edge">
<title>Node12&#45;&gt;Node9</title>
<path fill="none" stroke="midnightblue" d="M781.62,-347.99C797.73,-353.9 818.28,-361.45 834.15,-367.27"/>
<polygon fill="midnightblue" stroke="midnightblue" points="833.22,-370.66 843.81,-370.82 835.63,-364.09 833.22,-370.66"/>
</g>
<!-- Node13 -->
<g id="node13" class="node">
<title>Node13</title>
<g id="a_node13"><a xlink:href="cte_8c.html#a79659a2b801c42951e38f3a8821acbae" target="_top" xlink:title=" ">
<polygon fill="none" stroke="black" points="833.5,-328.9 833.5,-347.9 886.5,-347.9 886.5,-328.9 833.5,-328.9"/>
<text text-anchor="middle" x="860" y="-335.9" font-family="Helvetica,sans-Serif" font-size="10.00">ienabled</text>
</a>
</g>
</g>
<!-- Node12&#45;&gt;Node13 -->
<g id="edge14" class="edge">
<title>Node12&#45;&gt;Node13</title>
<path fill="none" stroke="midnightblue" d="M790.25,-338.4C800.82,-338.4 812.46,-338.4 823.1,-338.4"/>
<polygon fill="midnightblue" stroke="midnightblue" points="823.34,-341.9 833.34,-338.4 823.34,-334.9 823.34,-341.9"/>
</g>
<!-- Node14 -->
<g id="node14" class="node">
<title>Node14</title>
<g id="a_node14"><a xlink:href="x86_8h.html#a73d094f09c6a7dd3fc703aa8229933ee" target="_top" xlink:title=" ">
<polygon fill="none" stroke="black" points="930,-328.9 930,-347.9 975,-347.9 975,-328.9 930,-328.9"/>
<text text-anchor="middle" x="952.5" y="-335.9" font-family="Helvetica,sans-Serif" font-size="10.00">get_efl</text>
</a>
</g>
</g>
<!-- Node13&#45;&gt;Node14 -->
<g id="edge15" class="edge">
<title>Node13&#45;&gt;Node14</title>
<path fill="none" stroke="midnightblue" d="M886.69,-338.4C896.88,-338.4 908.71,-338.4 919.45,-338.4"/>
<polygon fill="midnightblue" stroke="midnightblue" points="919.73,-341.9 929.73,-338.4 919.73,-334.9 919.73,-341.9"/>
</g>
<!-- Node15&#45;&gt;Node6 -->
<g id="edge21" class="edge">
<title>Node15&#45;&gt;Node6</title>
<path fill="none" stroke="midnightblue" d="M518.27,-295.98C525,-300.29 532.96,-305.5 540,-310.4 563.79,-326.96 590.36,-346.99 608.12,-360.61"/>
<polygon fill="midnightblue" stroke="midnightblue" points="606.03,-363.41 616.09,-366.74 610.3,-357.86 606.03,-363.41"/>
</g>
<!-- Node15&#45;&gt;Node7 -->
<g id="edge20" class="edge">
<title>Node15&#45;&gt;Node7</title>
<path fill="none" stroke="midnightblue" d="M522.57,-276.8C537.12,-269.85 557.56,-260.47 576,-253.4 659.61,-221.33 760.04,-191.35 815.98,-175.38"/>
<polygon fill="midnightblue" stroke="midnightblue" points="817.22,-178.66 825.89,-172.57 815.31,-171.93 817.22,-178.66"/>
</g>
<!-- Node15&#45;&gt;Node12 -->
<g id="edge22" class="edge">
<title>Node15&#45;&gt;Node12</title>
<path fill="none" stroke="midnightblue" d="M531.25,-292.26C574.55,-301.25 657.72,-318.51 709.12,-329.19"/>
<polygon fill="midnightblue" stroke="midnightblue" points="708.46,-332.62 718.96,-331.23 709.88,-325.77 708.46,-332.62"/>
</g>
<!-- Node16 -->
<g id="node16" class="node">
<title>Node16</title>
<g id="a_node16"><a xlink:href="mpe_8c.html#aaaad47c97c82065cf463f83b98b23c30" target="_top" xlink:title=" ">
<polygon fill="none" stroke="black" points="594,-262.9 594,-281.9 665,-281.9 665,-262.9 594,-262.9"/>
<text text-anchor="middle" x="629.5" y="-269.9" font-family="Helvetica,sans-Serif" font-size="10.00">atomic_xchg</text>
</a>
</g>
</g>
<!-- Node15&#45;&gt;Node16 -->
<g id="edge18" class="edge">
<title>Node15&#45;&gt;Node16</title>
<path fill="none" stroke="midnightblue" d="M531.16,-283.25C546.63,-281.53 566.17,-279.35 583.68,-277.4"/>
<polygon fill="midnightblue" stroke="midnightblue" points="584.16,-280.87 593.71,-276.28 583.38,-273.91 584.16,-280.87"/>
</g>
<!-- Node17 -->
<g id="node17" class="node">
<title>Node17</title>
<g id="a_node17"><a xlink:href="x86_8h.html#a48b2a6a16dc8d7e09d327aa3803f1112" target="_top" xlink:title=" ">
<polygon fill="none" stroke="black" points="736,-252.9 736,-271.9 773,-271.9 773,-252.9 736,-252.9"/>
<text text-anchor="middle" x="754.5" y="-259.9" font-family="Helvetica,sans-Serif" font-size="10.00">xchg</text>
</a>
</g>
</g>
<!-- Node16&#45;&gt;Node17 -->
<g id="edge19" class="edge">
<title>Node16&#45;&gt;Node17</title>
<path fill="none" stroke="midnightblue" d="M665.09,-269.58C684.24,-268.03 707.74,-266.12 725.69,-264.66"/>
<polygon fill="midnightblue" stroke="midnightblue" points="726.12,-268.13 735.81,-263.84 725.55,-261.16 726.12,-268.13"/>
</g>
<!-- Node18&#45;&gt;Node6 -->
<g id="edge24" class="edge">
<title>Node18&#45;&gt;Node6</title>
<path fill="none" stroke="midnightblue" d="M526.03,-504.79C530.94,-502.16 535.87,-499.01 540,-495.4 561.14,-476.87 559.32,-466.02 576,-443.4 588.51,-426.42 603.39,-407.54 614.11,-394.17"/>
<polygon fill="midnightblue" stroke="midnightblue" points="616.94,-396.23 620.49,-386.24 611.49,-391.84 616.94,-396.23"/>
</g>
<!-- Node18&#45;&gt;Node8 -->
<g id="edge25" class="edge">
<title>Node18&#45;&gt;Node8</title>
<path fill="none" stroke="midnightblue" d="M521.89,-504.85C527.72,-501.87 534.14,-498.53 540,-495.4 608.41,-458.78 688.01,-413.77 727.92,-391.03"/>
<polygon fill="midnightblue" stroke="midnightblue" points="729.77,-394 736.72,-386 726.3,-387.92 729.77,-394"/>
</g>
<!-- Node19&#45;&gt;Node7 -->
<g id="edge27" class="edge">
<title>Node19&#45;&gt;Node7</title>
<path fill="none" stroke="midnightblue" d="M540.31,-52.89C597.53,-46.27 708.82,-40.72 790,-82.4 816.99,-96.26 837.75,-125.67 849.17,-144.98"/>
<polygon fill="midnightblue" stroke="midnightblue" points="846.17,-146.79 854.13,-153.78 852.26,-143.35 846.17,-146.79"/>
</g>
<!-- Node20&#45;&gt;Node5 -->
<g id="edge69" class="edge">
<title>Node20&#45;&gt;Node5</title>
<path fill="none" stroke="midnightblue" d="M147.76,-334.22C154.67,-383.91 192.45,-609.69 321,-723.4 362.02,-759.68 426.16,-772.88 465.78,-777.68"/>
<polygon fill="midnightblue" stroke="midnightblue" points="465.45,-781.16 475.78,-778.77 466.22,-774.2 465.45,-781.16"/>
</g>
<!-- Node21 -->
<g id="node21" class="node">
<title>Node21</title>
<g id="a_node21"><a xlink:href="kmt_8c.html#af9c485ce0d89d6624e6e80e31d8ed207" target="_top" xlink:title="handler: save context to current task">
<polygon fill="none" stroke="black" points="326.5,-162.9 326.5,-181.9 422.5,-181.9 422.5,-162.9 326.5,-162.9"/>
<text text-anchor="middle" x="374.5" y="-169.9" font-family="Helvetica,sans-Serif" font-size="10.00">kmt_context_save</text>
</a>
</g>
</g>
<!-- Node20&#45;&gt;Node21 -->
<g id="edge29" class="edge">
<title>Node20&#45;&gt;Node21</title>
<path fill="none" stroke="midnightblue" d="M156.73,-314.77C182.48,-290.97 252.78,-228.6 321,-191.4 324.73,-189.36 328.73,-187.46 332.79,-185.72"/>
<polygon fill="midnightblue" stroke="midnightblue" points="334.29,-188.89 342.28,-181.93 331.69,-182.39 334.29,-188.89"/>
</g>
<!-- Node22 -->
<g id="node22" class="node">
<title>Node22</title>
<g id="a_node22"><a xlink:href="kmt_8c.html#ad3fbc643b7b6092120c5152b4c890354" target="_top" xlink:title="handler: handle program errors">
<polygon fill="none" stroke="black" points="217.5,-447.9 217.5,-466.9 275.5,-466.9 275.5,-447.9 217.5,-447.9"/>
<text text-anchor="middle" x="246.5" y="-454.9" font-family="Helvetica,sans-Serif" font-size="10.00">kmt_error</text>
</a>
</g>
</g>
<!-- Node20&#45;&gt;Node22 -->
<g id="edge35" class="edge">
<title>Node20&#45;&gt;Node22</title>
<path fill="none" stroke="midnightblue" d="M153.62,-333.96C170.02,-356 210.69,-410.64 232,-439.26"/>
<polygon fill="midnightblue" stroke="midnightblue" points="229.4,-441.63 238.18,-447.56 235.01,-437.45 229.4,-441.63"/>
</g>
<!-- Node32 -->
<g id="node32" class="node">
<title>Node32</title>
<g id="a_node32"><a xlink:href="kmt_8c.html#ad4d70b4093829da1c0b0631abdff7747" target="_top" xlink:title="handler: schedule next task to run Notice: this should be the only handler which returns real Context">
<polygon fill="none" stroke="black" points="208,-314.9 208,-333.9 285,-333.9 285,-314.9 208,-314.9"/>
<text text-anchor="middle" x="246.5" y="-321.9" font-family="Helvetica,sans-Serif" font-size="10.00">kmt_schedule</text>
</a>
</g>
</g>
<!-- Node20&#45;&gt;Node32 -->
<g id="edge53" class="edge">
<title>Node20&#45;&gt;Node32</title>
<path fill="none" stroke="midnightblue" d="M171.23,-324.4C179.3,-324.4 188.56,-324.4 197.73,-324.4"/>
<polygon fill="midnightblue" stroke="midnightblue" points="197.99,-327.9 207.99,-324.4 197.99,-320.9 197.99,-327.9"/>
</g>
<!-- Node34 -->
<g id="node34" class="node">
<title>Node34</title>
<g id="a_node34"><a xlink:href="kmt_8c.html#a046a92c2d695ccdd1ad42210135ed597" target="_top" xlink:title="handler: triggered when aipc timer fired up">
<polygon fill="none" stroke="black" points="216.5,-352.9 216.5,-371.9 276.5,-371.9 276.5,-352.9 216.5,-352.9"/>
<text text-anchor="middle" x="246.5" y="-359.9" font-family="Helvetica,sans-Serif" font-size="10.00">kmt_timer</text>
</a>
</g>
</g>
<!-- Node20&#45;&gt;Node34 -->
<g id="edge63" class="edge">
<title>Node20&#45;&gt;Node34</title>
<path fill="none" stroke="midnightblue" d="M171.23,-333.89C183.28,-338.51 197.96,-344.15 211.08,-349.19"/>
<polygon fill="midnightblue" stroke="midnightblue" points="210.16,-352.58 220.75,-352.9 212.66,-346.04 210.16,-352.58"/>
</g>
<!-- Node35 -->
<g id="node35" class="node">
<title>Node35</title>
<g id="a_node35"><a xlink:href="kmt_8c.html#a75ea8dbba16d64a343a45962bd593930" target="_top" xlink:title="handler: handle yield interrupt (0x81)">
<polygon fill="none" stroke="black" points="345.5,-276.9 345.5,-295.9 403.5,-295.9 403.5,-276.9 345.5,-276.9"/>
<text text-anchor="middle" x="374.5" y="-283.9" font-family="Helvetica,sans-Serif" font-size="10.00">kmt_yield</text>
</a>
</g>
</g>
<!-- Node20&#45;&gt;Node35 -->
<g id="edge64" class="edge">
<title>Node20&#45;&gt;Node35</title>
<path fill="none" stroke="midnightblue" d="M171.06,-315.66C182.21,-312 195.64,-307.99 208,-305.4 251.03,-296.36 301.33,-291.36 335.08,-288.78"/>
<polygon fill="midnightblue" stroke="midnightblue" points="335.71,-292.24 345.43,-288.03 335.2,-285.26 335.71,-292.24"/>
</g>
<!-- Node21&#45;&gt;Node6 -->
<g id="edge32" class="edge">
<title>Node21&#45;&gt;Node6</title>
<path fill="none" stroke="midnightblue" d="M422.66,-165.44C458.56,-162.83 507.22,-165.42 540,-191.4 577.02,-220.73 555.48,-248.85 576,-291.4 587.7,-315.65 604.52,-341.75 615.94,-358.53"/>
<polygon fill="midnightblue" stroke="midnightblue" points="613.11,-360.59 621.67,-366.83 618.87,-356.61 613.11,-360.59"/>
</g>
<!-- Node21&#45;&gt;Node7 -->
<g id="edge30" class="edge">
<title>Node21&#45;&gt;Node7</title>
<path fill="none" stroke="midnightblue" d="M422.71,-165.43C436.03,-163.77 450.56,-162.23 464,-161.4 591.7,-153.49 743.07,-158.17 815.78,-161.29"/>
<polygon fill="midnightblue" stroke="midnightblue" points="815.78,-164.79 825.93,-161.74 816.09,-157.8 815.78,-164.79"/>
</g>
<!-- Node21&#45;&gt;Node15 -->
<g id="edge33" class="edge">
<title>Node21&#45;&gt;Node15</title>
<path fill="none" stroke="midnightblue" d="M410.52,-181.91C416.66,-184.43 422.76,-187.56 428,-191.4 442.96,-202.34 472.47,-244.09 489.02,-268.45"/>
<polygon fill="midnightblue" stroke="midnightblue" points="486.18,-270.5 494.68,-276.83 491.99,-266.59 486.18,-270.5"/>
</g>
<!-- Node21&#45;&gt;Node18 -->
<g id="edge34" class="edge">
<title>Node21&#45;&gt;Node18</title>
<path fill="none" stroke="midnightblue" d="M416.67,-181.99C421,-184.44 424.93,-187.52 428,-191.4 512.56,-297.98 386.38,-383.66 464,-495.4 464.74,-496.46 465.56,-497.48 466.45,-498.43"/>
<polygon fill="midnightblue" stroke="midnightblue" points="464.27,-501.17 474.23,-504.77 468.68,-495.74 464.27,-501.17"/>
</g>
<!-- Node21&#45;&gt;Node19 -->
<g id="edge31" class="edge">
<title>Node21&#45;&gt;Node19</title>
<path fill="none" stroke="midnightblue" d="M386.2,-162.68C407.69,-143.16 456.29,-99.01 482.85,-74.88"/>
<polygon fill="midnightblue" stroke="midnightblue" points="485.28,-77.41 490.33,-68.09 480.57,-72.22 485.28,-77.41"/>
</g>
<!-- Node22&#45;&gt;Node6 -->
<g id="edge52" class="edge">
<title>Node22&#45;&gt;Node6</title>
<path fill="none" stroke="midnightblue" d="M251.29,-467.08C260.23,-488.72 284.64,-541.46 321,-571.4 398.65,-635.32 457.94,-686.55 540,-628.4 579.47,-600.42 613.39,-450.64 624.59,-396.19"/>
<polygon fill="midnightblue" stroke="midnightblue" points="628.08,-396.6 626.63,-386.1 621.22,-395.21 628.08,-396.6"/>
</g>
<!-- Node23 -->
<g id="node23" class="node">
<title>Node23</title>
<g id="a_node23"><a xlink:href="kmt_8c.html#a13cbe2d83bf10c3302124613fa18f8a4" target="_top" xlink:title="print all tasks notice: do not garantee concurrency safety">
<polygon fill="none" stroke="black" points="324,-504.9 324,-523.9 425,-523.9 425,-504.9 324,-504.9"/>
<text text-anchor="middle" x="374.5" y="-511.9" font-family="Helvetica,sans-Serif" font-size="10.00">kmt_print_all_tasks</text>
</a>
</g>
</g>
<!-- Node22&#45;&gt;Node23 -->
<g id="edge36" class="edge">
<title>Node22&#45;&gt;Node23</title>
<path fill="none" stroke="midnightblue" d="M268.59,-466.94C288.94,-476.14 319.97,-490.18 343.01,-500.6"/>
<polygon fill="midnightblue" stroke="midnightblue" points="341.79,-503.89 352.34,-504.83 344.67,-497.51 341.79,-503.89"/>
</g>
<!-- Node30 -->
<g id="node30" class="node">
<title>Node30</title>
<g id="a_node30"><a xlink:href="kmt_8c.html#ab4e9dee1880e455874374b44b5785bc3" target="_top" xlink:title="print all current_tasks notice: do not garantee concurrency safety">
<polygon fill="none" stroke="black" points="321,-428.9 321,-447.9 428,-447.9 428,-428.9 321,-428.9"/>
<text text-anchor="middle" x="374.5" y="-435.9" font-family="Helvetica,sans-Serif" font-size="10.00">kmt_print_cpu_tasks</text>
</a>
</g>
</g>
<!-- Node22&#45;&gt;Node30 -->
<g id="edge46" class="edge">
<title>Node22&#45;&gt;Node30</title>
<path fill="none" stroke="midnightblue" d="M275.78,-453.13C286.15,-451.57 298.35,-449.73 310.55,-447.89"/>
<polygon fill="midnightblue" stroke="midnightblue" points="311.39,-451.3 320.75,-446.35 310.34,-444.38 311.39,-451.3"/>
</g>
<!-- Node23&#45;&gt;Node6 -->
<g id="edge43" class="edge">
<title>Node23&#45;&gt;Node6</title>
<path fill="none" stroke="midnightblue" d="M413.06,-523.91C454.82,-533.59 519.15,-545.58 540,-533.4 591.44,-503.34 615.32,-431.15 624.18,-396.12"/>
<polygon fill="midnightblue" stroke="midnightblue" points="627.64,-396.7 626.54,-386.16 620.83,-395.08 627.64,-396.7"/>
</g>
<!-- Node23&#45;&gt;Node15 -->
<g id="edge44" class="edge">
<title>Node23&#45;&gt;Node15</title>
<path fill="none" stroke="midnightblue" d="M386.33,-504.78C397.84,-494.11 416.02,-475.93 428,-457.4 460.75,-406.74 484.59,-338.92 495.07,-305.99"/>
<polygon fill="midnightblue" stroke="midnightblue" points="498.48,-306.82 498.11,-296.23 491.79,-304.74 498.48,-306.82"/>
</g>
<!-- Node23&#45;&gt;Node18 -->
<g id="edge45" class="edge">
<title>Node23&#45;&gt;Node18</title>
<path fill="none" stroke="midnightblue" d="M425.1,-514.4C435.89,-514.4 447.23,-514.4 457.75,-514.4"/>
<polygon fill="midnightblue" stroke="midnightblue" points="457.95,-517.9 467.95,-514.4 457.95,-510.9 457.95,-517.9"/>
</g>
<!-- Node24 -->
<g id="node24" class="node">
<title>Node24</title>
<g id="a_node24"><a xlink:href="stdio_8c.html#a55f3d956bb2ba20b5059e9e25484a47f" target="_top" xlink:title=" ">
<polygon fill="none" stroke="black" points="483,-580.9 483,-599.9 521,-599.9 521,-580.9 483,-580.9"/>
<text text-anchor="middle" x="502" y="-587.9" font-family="Helvetica,sans-Serif" font-size="10.00">printf</text>
</a>
</g>
</g>
<!-- Node23&#45;&gt;Node24 -->
<g id="edge37" class="edge">
<title>Node23&#45;&gt;Node24</title>
<path fill="none" stroke="midnightblue" d="M408.07,-523.92C414.89,-526.53 421.86,-529.68 428,-533.4 446.57,-544.64 446.84,-553.11 464,-566.4 467.88,-569.4 472.14,-572.41 476.35,-575.22"/>
<polygon fill="midnightblue" stroke="midnightblue" points="474.46,-578.18 484.76,-580.68 478.27,-572.3 474.46,-578.18"/>
</g>
<!-- Node25 -->
<g id="node25" class="node">
<title>Node25</title>
<g id="a_node25"><a xlink:href="stdio_8c.html#a44a6734c6f8f81d8e1fa3b9d476c5134" target="_top" xlink:title="write bytes (including the terminating null byte (&#39;\0&#39;)) to out.">
<polygon fill="none" stroke="black" points="605,-580.9 605,-599.9 654,-599.9 654,-580.9 605,-580.9"/>
<text text-anchor="middle" x="629.5" y="-587.9" font-family="Helvetica,sans-Serif" font-size="10.00">vsprintf</text>
</a>
</g>
</g>
<!-- Node24&#45;&gt;Node25 -->
<g id="edge38" class="edge">
<title>Node24&#45;&gt;Node25</title>
<path fill="none" stroke="midnightblue" d="M521.25,-590.4C540.35,-590.4 570.78,-590.4 594.36,-590.4"/>
<polygon fill="midnightblue" stroke="midnightblue" points="594.65,-593.9 604.65,-590.4 594.65,-586.9 594.65,-593.9"/>
</g>
<!-- Node26 -->
<g id="node26" class="node">
<title>Node26</title>
<g id="a_node26"><a xlink:href="stdio_8c.html#abf852e417a205348767989f2940059ad" target="_top" xlink:title="write at most n bytes (including the terminating null byte (&#39;\0&#39;)) to out.">
<polygon fill="none" stroke="black" points="727.5,-580.9 727.5,-599.9 781.5,-599.9 781.5,-580.9 727.5,-580.9"/>
<text text-anchor="middle" x="754.5" y="-587.9" font-family="Helvetica,sans-Serif" font-size="10.00">vsnprintf</text>
</a>
</g>
</g>
<!-- Node25&#45;&gt;Node26 -->
<g id="edge39" class="edge">
<title>Node25&#45;&gt;Node26</title>
<path fill="none" stroke="midnightblue" d="M654.22,-590.4C672.05,-590.4 696.8,-590.4 717.13,-590.4"/>
<polygon fill="midnightblue" stroke="midnightblue" points="717.3,-593.9 727.3,-590.4 717.3,-586.9 717.3,-593.9"/>
</g>
<!-- Node27 -->
<g id="node27" class="node">
<title>Node27</title>
<g id="a_node27"><a xlink:href="stdio_8c.html#a0e2811092b514de48ac2dd675d6cf2b4" target="_top" xlink:title="print decimal into buffer,return length">
<polygon fill="none" stroke="black" points="830.5,-618.9 830.5,-637.9 889.5,-637.9 889.5,-618.9 830.5,-618.9"/>
<text text-anchor="middle" x="860" y="-625.9" font-family="Helvetica,sans-Serif" font-size="10.00">print_num</text>
</a>
</g>
</g>
<!-- Node26&#45;&gt;Node27 -->
<g id="edge40" class="edge">
<title>Node26&#45;&gt;Node27</title>
<path fill="none" stroke="midnightblue" d="M781.62,-599.99C794.24,-604.62 809.59,-610.26 823.28,-615.28"/>
<polygon fill="midnightblue" stroke="midnightblue" points="822.3,-618.65 832.89,-618.81 824.71,-612.08 822.3,-618.65"/>
</g>
<!-- Node28 -->
<g id="node28" class="node">
<title>Node28</title>
<g id="a_node28"><a xlink:href="string_8c.html#aa383452fe445bfae989358c9d7d96f4f" target="_top" xlink:title=" ">
<polygon fill="none" stroke="black" points="839.5,-580.9 839.5,-599.9 880.5,-599.9 880.5,-580.9 839.5,-580.9"/>
<text text-anchor="middle" x="860" y="-587.9" font-family="Helvetica,sans-Serif" font-size="10.00">strlen</text>
</a>
</g>
</g>
<!-- Node26&#45;&gt;Node28 -->
<g id="edge41" class="edge">
<title>Node26&#45;&gt;Node28</title>
<path fill="none" stroke="midnightblue" d="M781.62,-590.4C796.07,-590.4 814.1,-590.4 829.12,-590.4"/>
<polygon fill="midnightblue" stroke="midnightblue" points="829.43,-593.9 839.43,-590.4 829.43,-586.9 829.43,-593.9"/>
</g>
<!-- Node29 -->
<g id="node29" class="node">
<title>Node29</title>
<g id="a_node29"><a xlink:href="string_8c.html#a82f08f2390a9067f3c94b638e90e03bd" target="_top" xlink:title=" ">
<polygon fill="none" stroke="black" points="836,-542.9 836,-561.9 884,-561.9 884,-542.9 836,-542.9"/>
<text text-anchor="middle" x="860" y="-549.9" font-family="Helvetica,sans-Serif" font-size="10.00">strncpy</text>
</a>
</g>
</g>
<!-- Node26&#45;&gt;Node29 -->
<g id="edge42" class="edge">
<title>Node26&#45;&gt;Node29</title>
<path fill="none" stroke="midnightblue" d="M781.62,-580.81C795.14,-575.84 811.8,-569.73 826.18,-564.45"/>
<polygon fill="midnightblue" stroke="midnightblue" points="827.54,-567.68 835.72,-560.95 825.12,-561.11 827.54,-567.68"/>
</g>
<!-- Node30&#45;&gt;Node6 -->
<g id="edge49" class="edge">
<title>Node30&#45;&gt;Node6</title>
<path fill="none" stroke="midnightblue" d="M423.22,-428.88C456.17,-422.08 500.92,-412.4 540,-402.4 555.76,-398.36 572.94,-393.44 587.94,-388.96"/>
<polygon fill="midnightblue" stroke="midnightblue" points="589.36,-392.19 597.93,-385.95 587.34,-385.49 589.36,-392.19"/>
</g>
<!-- Node30&#45;&gt;Node15 -->
<g id="edge50" class="edge">
<title>Node30&#45;&gt;Node15</title>
<path fill="none" stroke="midnightblue" d="M412.66,-428.81C418.18,-426.33 423.51,-423.24 428,-419.4 464.37,-388.26 485.9,-334.28 495.32,-305.6"/>
<polygon fill="midnightblue" stroke="midnightblue" points="498.7,-306.54 498.35,-295.95 492.02,-304.44 498.7,-306.54"/>
</g>
<!-- Node30&#45;&gt;Node18 -->
<g id="edge51" class="edge">
<title>Node30&#45;&gt;Node18</title>
<path fill="none" stroke="midnightblue" d="M400.65,-447.99C409.61,-451.89 419.56,-456.8 428,-462.4 446.09,-474.39 446.19,-483 464,-495.4 466.26,-496.97 468.66,-498.49 471.11,-499.95"/>
<polygon fill="midnightblue" stroke="midnightblue" points="469.63,-503.12 480.08,-504.88 473.01,-496.99 469.63,-503.12"/>
</g>
<!-- Node30&#45;&gt;Node24 -->
<g id="edge48" class="edge">
<title>Node30&#45;&gt;Node24</title>
<path fill="none" stroke="midnightblue" d="M385.07,-448.24C395.81,-459.42 413.62,-478.31 428,-495.4 449.97,-521.5 473.76,-553.15 488.01,-572.53"/>
<polygon fill="midnightblue" stroke="midnightblue" points="485.29,-574.74 494.02,-580.74 490.94,-570.6 485.29,-574.74"/>
</g>
<!-- Node31 -->
<g id="node31" class="node">
<title>Node31</title>
<g id="a_node31"><a xlink:href="mpe_8c.html#af486ec575d47720d28eee63644206110" target="_top" xlink:title=" ">
<polygon fill="none" stroke="black" points="471,-466.9 471,-485.9 533,-485.9 533,-466.9 471,-466.9"/>
<text text-anchor="middle" x="502" y="-473.9" font-family="Helvetica,sans-Serif" font-size="10.00">cpu_count</text>
</a>
</g>
</g>
<!-- Node30&#45;&gt;Node31 -->
<g id="edge47" class="edge">
<title>Node30&#45;&gt;Node31</title>
<path fill="none" stroke="midnightblue" d="M407.17,-447.99C423.44,-452.91 443.43,-458.97 460.78,-464.22"/>
<polygon fill="midnightblue" stroke="midnightblue" points="460.05,-467.66 470.64,-467.2 462.08,-460.96 460.05,-467.66"/>
</g>
<!-- Node32&#45;&gt;Node6 -->
<g id="edge60" class="edge">
<title>Node32&#45;&gt;Node6</title>
<path fill="none" stroke="midnightblue" d="M285.07,-329.53C355.72,-339.17 508.03,-359.95 583.8,-370.3"/>
<polygon fill="midnightblue" stroke="midnightblue" points="583.59,-373.8 593.97,-371.68 584.54,-366.86 583.59,-373.8"/>
</g>
<!-- Node32&#45;&gt;Node7 -->
<g id="edge54" class="edge">
<title>Node32&#45;&gt;Node7</title>
<path fill="none" stroke="midnightblue" d="M248.17,-314.76C250.83,-284.53 263.59,-191.37 321,-153.4 401.56,-100.11 703.03,-139.44 815.94,-156.52"/>
<polygon fill="midnightblue" stroke="midnightblue" points="815.54,-160 825.95,-158.06 816.6,-153.08 815.54,-160"/>
</g>
<!-- Node32&#45;&gt;Node15 -->
<g id="edge61" class="edge">
<title>Node32&#45;&gt;Node15</title>
<path fill="none" stroke="midnightblue" d="M285.07,-322.09C321.74,-319.45 379.02,-314.3 428,-305.4 439.44,-303.32 451.73,-300.39 462.9,-297.46"/>
<polygon fill="midnightblue" stroke="midnightblue" points="464.05,-300.78 472.79,-294.79 462.23,-294.02 464.05,-300.78"/>
</g>
<!-- Node32&#45;&gt;Node18 -->
<g id="edge62" class="edge">
<title>Node32&#45;&gt;Node18</title>
<path fill="none" stroke="midnightblue" d="M273.27,-333.97C277.64,-336.5 281.79,-339.61 285,-343.4 319.39,-383.9 283.44,-419.81 321,-457.4 330.89,-467.29 407.65,-489.34 457.69,-502.93"/>
<polygon fill="midnightblue" stroke="midnightblue" points="457.05,-506.39 467.62,-505.62 458.88,-499.63 457.05,-506.39"/>
</g>
<!-- Node32&#45;&gt;Node19 -->
<g id="edge55" class="edge">
<title>Node32&#45;&gt;Node19</title>
<path fill="none" stroke="midnightblue" d="M248.12,-314.75C250.7,-282.49 263.37,-177.22 321,-120.4 340.08,-101.59 407.17,-81.74 453.82,-69.71"/>
<polygon fill="midnightblue" stroke="midnightblue" points="454.9,-73.05 463.73,-67.19 453.18,-66.26 454.9,-73.05"/>
</g>
<!-- Node32&#45;&gt;Node23 -->
<g id="edge56" class="edge">
<title>Node32&#45;&gt;Node23</title>
<path fill="none" stroke="midnightblue" d="M273.86,-334.02C278.06,-336.53 282,-339.62 285,-343.4 326.82,-396.08 278.13,-438.57 321,-490.4 324.07,-494.11 327.84,-497.28 331.94,-499.97"/>
<polygon fill="midnightblue" stroke="midnightblue" points="330.26,-503.04 340.7,-504.85 333.67,-496.92 330.26,-503.04"/>
</g>
<!-- Node32&#45;&gt;Node30 -->
<g id="edge57" class="edge">
<title>Node32&#45;&gt;Node30</title>
<path fill="none" stroke="midnightblue" d="M272.09,-333.9C276.76,-336.48 281.33,-339.63 285,-343.4 311.07,-370.17 293.34,-394.25 321,-419.4 322.72,-420.96 324.58,-422.4 326.53,-423.72"/>
<polygon fill="midnightblue" stroke="midnightblue" points="325.16,-426.96 335.6,-428.79 328.58,-420.85 325.16,-426.96"/>
</g>
<!-- Node32&#45;&gt;Node33 -->
<g id="edge58" class="edge">
<title>Node32&#45;&gt;Node33</title>
<path fill="none" stroke="midnightblue" d="M249,-314.62C254.5,-280.71 275.63,-165.69 321,-82.4 330.21,-65.49 344.52,-48.99 355.88,-37.26"/>
<polygon fill="midnightblue" stroke="midnightblue" points="358.58,-39.51 363.17,-29.96 353.63,-34.56 358.58,-39.51"/>
</g>
<!-- Node33&#45;&gt;Node7 -->
<g id="edge59" class="edge">
<title>Node33&#45;&gt;Node7</title>
<path fill="none" stroke="midnightblue" d="M412.72,-12.95C489.71,0.36 669.37,20.3 790,-54.4 823.49,-75.13 843.53,-118.82 852.8,-144.14"/>
<polygon fill="midnightblue" stroke="midnightblue" points="849.54,-145.44 856.11,-153.75 856.16,-143.15 849.54,-145.44"/>
</g>
<!-- Node35&#45;&gt;Node6 -->
<g id="edge66" class="edge">
<title>Node35&#45;&gt;Node6</title>
<path fill="none" stroke="midnightblue" d="M402.58,-296.03C448.23,-312.27 540.55,-345.11 591.92,-363.38"/>
<polygon fill="midnightblue" stroke="midnightblue" points="591.02,-366.78 601.62,-366.83 593.37,-360.19 591.02,-366.78"/>
</g>
<!-- Node35&#45;&gt;Node15 -->
<g id="edge67" class="edge">
<title>Node35&#45;&gt;Node15</title>
<path fill="none" stroke="midnightblue" d="M403.66,-286.4C421.1,-286.4 443.73,-286.4 462.77,-286.4"/>
<polygon fill="midnightblue" stroke="midnightblue" points="462.93,-289.9 472.93,-286.4 462.93,-282.9 462.93,-289.9"/>
</g>
<!-- Node35&#45;&gt;Node18 -->
<g id="edge68" class="edge">
<title>Node35&#45;&gt;Node18</title>
<path fill="none" stroke="midnightblue" d="M381.69,-296.05C392.26,-312.87 414.03,-348.84 428,-381.4 448.95,-430.22 429.72,-454.8 464,-495.4 464.99,-496.57 466.07,-497.68 467.22,-498.73"/>
<polygon fill="midnightblue" stroke="midnightblue" points="465.42,-501.74 475.57,-504.78 469.53,-496.07 465.42,-501.74"/>
</g>
<!-- Node35&#45;&gt;Node19 -->
<g id="edge65" class="edge">
<title>Node35&#45;&gt;Node19</title>
<path fill="none" stroke="midnightblue" d="M386.33,-276.78C397.84,-266.11 416.02,-247.93 428,-229.4 460.75,-178.74 484.59,-110.92 495.07,-77.99"/>
<polygon fill="midnightblue" stroke="midnightblue" points="498.48,-78.82 498.11,-68.23 491.79,-76.74 498.48,-78.82"/>
</g>
<!-- Node36&#45;&gt;Node6 -->
<g id="edge72" class="edge">
<title>Node36&#45;&gt;Node6</title>
<path fill="none" stroke="midnightblue" d="M413.65,-396.78C459.18,-392.46 535.2,-385.25 583.54,-380.66"/>
<polygon fill="midnightblue" stroke="midnightblue" points="584.08,-384.13 593.71,-379.7 583.42,-377.16 584.08,-384.13"/>
</g>
<!-- Node36&#45;&gt;Node15 -->
<g id="edge73" class="edge">
<title>Node36&#45;&gt;Node15</title>
<path fill="none" stroke="midnightblue" d="M386.2,-390.68C407.69,-371.16 456.29,-327.01 482.85,-302.88"/>
<polygon fill="midnightblue" stroke="midnightblue" points="485.28,-305.41 490.33,-296.09 480.57,-300.22 485.28,-305.41"/>
</g>
<!-- Node36&#45;&gt;Node18 -->
<g id="edge74" class="edge">
<title>Node36&#45;&gt;Node18</title>
<path fill="none" stroke="midnightblue" d="M413.4,-410C418.7,-412.47 423.77,-415.55 428,-419.4 455.66,-444.54 438,-468.55 464,-495.4 465.24,-496.68 466.59,-497.89 468.01,-499.04"/>
<polygon fill="midnightblue" stroke="midnightblue" points="466.48,-502.22 476.74,-504.85 470.36,-496.39 466.48,-502.22"/>
</g>
<!-- Node37&#45;&gt;Node38 -->
<g id="edge76" class="edge">
<title>Node37&#45;&gt;Node38</title>
<path fill="none" stroke="midnightblue" d="M172.25,-63.34C183.71,-65.54 197.39,-68.16 209.82,-70.55"/>
<polygon fill="midnightblue" stroke="midnightblue" points="209.4,-74.03 219.88,-72.48 210.72,-67.16 209.4,-74.03"/>
</g>
<!-- Node39&#45;&gt;Node6 -->
<g id="edge78" class="edge">
<title>Node39&#45;&gt;Node6</title>
<path fill="none" stroke="midnightblue" d="M386.01,-562.12C413.46,-586.3 488.75,-644.75 540,-609.4 576.92,-583.93 612.07,-446.94 624.12,-395.73"/>
<polygon fill="midnightblue" stroke="midnightblue" points="627.54,-396.45 626.39,-385.92 620.72,-394.87 627.54,-396.45"/>
</g>
<!-- Node39&#45;&gt;Node15 -->
<g id="edge79" class="edge">
<title>Node39&#45;&gt;Node15</title>
<path fill="none" stroke="midnightblue" d="M407.74,-546.02C415.21,-543.21 422.55,-539.18 428,-533.4 459.78,-499.66 487.96,-358.61 497.53,-306.16"/>
<polygon fill="midnightblue" stroke="midnightblue" points="501.01,-306.58 499.33,-296.12 494.12,-305.34 501.01,-306.58"/>
</g>
<!-- Node39&#45;&gt;Node18 -->
<g id="edge80" class="edge">
<title>Node39&#45;&gt;Node18</title>
<path fill="none" stroke="midnightblue" d="M407.17,-542.81C423.07,-537.99 442.54,-532.1 459.61,-526.93"/>
<polygon fill="midnightblue" stroke="midnightblue" points="460.78,-530.23 469.34,-523.98 458.76,-523.53 460.78,-530.23"/>
</g>
<!-- Node40&#45;&gt;Node6 -->
<g id="edge82" class="edge">
<title>Node40&#45;&gt;Node6</title>
<path fill="none" stroke="midnightblue" d="M404.17,-215.33C438.84,-222.36 497.8,-237.82 540,-267.4 574.92,-291.86 603.43,-333.78 617.99,-357.88"/>
<polygon fill="midnightblue" stroke="midnightblue" points="615.11,-359.88 623.2,-366.73 621.15,-356.34 615.11,-359.88"/>
</g>
<!-- Node40&#45;&gt;Node15 -->
<g id="edge83" class="edge">
<title>Node40&#45;&gt;Node15</title>
<path fill="none" stroke="midnightblue" d="M399.36,-219.9C408.55,-223.92 419,-228.94 428,-234.4 445.33,-244.9 447.48,-250.65 464,-262.4 468.15,-265.35 472.64,-268.39 477.01,-271.26"/>
<polygon fill="midnightblue" stroke="midnightblue" points="475.39,-274.38 485.68,-276.88 479.19,-268.5 475.39,-274.38"/>
</g>
<!-- Node40&#45;&gt;Node18 -->
<g id="edge84" class="edge">
<title>Node40&#45;&gt;Node18</title>
<path fill="none" stroke="midnightblue" d="M388.16,-220.26C400.46,-230.6 418.63,-248.02 428,-267.4 472.67,-359.75 403.85,-412.29 464,-495.4 464.76,-496.45 465.6,-497.45 466.5,-498.4"/>
<polygon fill="midnightblue" stroke="midnightblue" points="464.36,-501.17 474.35,-504.68 468.73,-495.7 464.36,-501.17"/>
</g>
<!-- Node41 -->
<g id="node41" class="node">
<title>Node41</title>
<g id="a_node41"><a xlink:href="cte_8c.html#a58c8b2ad0ea491a6642e5e1cbd358c89" target="_top" xlink:title=" ">
<polygon fill="none" stroke="black" points="484,-200.9 484,-219.9 520,-219.9 520,-200.9 484,-200.9"/>
<text text-anchor="middle" x="502" y="-207.9" font-family="Helvetica,sans-Serif" font-size="10.00">yield</text>
</a>
</g>
</g>
<!-- Node40&#45;&gt;Node41 -->
<g id="edge85" class="edge">
<title>Node40&#45;&gt;Node41</title>
<path fill="none" stroke="midnightblue" d="M404.29,-210.4C425.15,-210.4 453.17,-210.4 473.68,-210.4"/>
<polygon fill="midnightblue" stroke="midnightblue" points="473.92,-213.9 483.92,-210.4 473.92,-206.9 473.92,-213.9"/>
</g>
</g>
</svg>
