<?xml version="1.0" encoding="UTF-8" standalone="no"?>
<!DOCTYPE svg PUBLIC "-//W3C//DTD SVG 1.1//EN"
 "http://www.w3.org/Graphics/SVG/1.1/DTD/svg11.dtd">
<!-- Generated by graphviz version 3.0.0 (20220413.0106)
 -->
<!-- Title: kmt_teardown Pages: 1 -->
<svg width="589pt" height="199pt"
 viewBox="0.00 0.00 589.00 199.00" xmlns="http://www.w3.org/2000/svg" xmlns:xlink="http://www.w3.org/1999/xlink">
<g id="graph0" class="graph" transform="scale(1 1) rotate(0) translate(4 195)">
<title>kmt_teardown</title>
<!-- Node1 -->
<g id="node1" class="node">
<title>Node1</title>
<g id="a_node1"><a xlink:title="tear down a thread">
<polygon fill="#bfbfbf" stroke="black" points="0,-114.5 0,-133.5 78,-133.5 78,-114.5 0,-114.5"/>
<text text-anchor="middle" x="39" y="-121.5" font-family="Helvetica,sans-Serif" font-size="10.00">kmt_teardown</text>
</a>
</g>
</g>
<!-- Node2 -->
<g id="node2" class="node">
<title>Node2</title>
<g id="a_node2"><a xlink:href="spinlock_8c.html#ad4be0d674a7ca4dc90c2dbf8b34562cc" target="_top" xlink:title="check current cpu has the lock">
<polygon fill="none" stroke="black" points="218,-114.5 218,-133.5 289,-133.5 289,-114.5 218,-114.5"/>
<text text-anchor="middle" x="253.5" y="-121.5" font-family="Helvetica,sans-Serif" font-size="10.00">spin_holding</text>
</a>
</g>
</g>
<!-- Node1&#45;&gt;Node2 -->
<g id="edge1" class="edge">
<title>Node1&#45;&gt;Node2</title>
<path fill="none" stroke="midnightblue" d="M78.48,-124C114.78,-124 169.18,-124 207.48,-124"/>
<polygon fill="midnightblue" stroke="midnightblue" points="207.82,-127.5 217.82,-124 207.82,-120.5 207.82,-127.5"/>
</g>
<!-- Node11 -->
<g id="node11" class="node">
<title>Node11</title>
<g id="a_node11"><a xlink:href="spinlock_8c.html#ab6f3c37ec37006951feccc3c05387cce" target="_top" xlink:title="acquire spinlock to current cpu">
<polygon fill="none" stroke="black" points="119,-76.5 119,-95.5 177,-95.5 177,-76.5 119,-76.5"/>
<text text-anchor="middle" x="148" y="-83.5" font-family="Helvetica,sans-Serif" font-size="10.00">spin_lock</text>
</a>
</g>
</g>
<!-- Node1&#45;&gt;Node11 -->
<g id="edge13" class="edge">
<title>Node1&#45;&gt;Node11</title>
<path fill="none" stroke="midnightblue" d="M67,-114.41C80.18,-109.73 96.23,-104.03 110.48,-98.97"/>
<polygon fill="midnightblue" stroke="midnightblue" points="111.76,-102.23 120.01,-95.59 109.41,-95.63 111.76,-102.23"/>
</g>
<!-- Node14 -->
<g id="node14" class="node">
<title>Node14</title>
<g id="a_node14"><a xlink:href="spinlock_8c.html#acdf118d615a4bc4064e991add9a80995" target="_top" xlink:title="release spinlock from current cpu">
<polygon fill="none" stroke="black" points="114,-152.5 114,-171.5 182,-171.5 182,-152.5 114,-152.5"/>
<text text-anchor="middle" x="148" y="-159.5" font-family="Helvetica,sans-Serif" font-size="10.00">spin_unlock</text>
</a>
</g>
</g>
<!-- Node1&#45;&gt;Node14 -->
<g id="edge19" class="edge">
<title>Node1&#45;&gt;Node14</title>
<path fill="none" stroke="midnightblue" d="M67,-133.59C80.18,-138.27 96.23,-143.97 110.48,-149.03"/>
<polygon fill="midnightblue" stroke="midnightblue" points="109.41,-152.37 120.01,-152.41 111.76,-145.77 109.41,-152.37"/>
</g>
<!-- Node3 -->
<g id="node3" class="node">
<title>Node3</title>
<g id="a_node3"><a xlink:href="mpe_8c.html#ab701de78cad32896c923ce900087e714" target="_top" xlink:title=" ">
<polygon fill="none" stroke="black" points="432,-114.5 432,-133.5 500,-133.5 500,-114.5 432,-114.5"/>
<text text-anchor="middle" x="466" y="-121.5" font-family="Helvetica,sans-Serif" font-size="10.00">cpu_current</text>
</a>
</g>
</g>
<!-- Node2&#45;&gt;Node3 -->
<g id="edge2" class="edge">
<title>Node2&#45;&gt;Node3</title>
<path fill="none" stroke="midnightblue" d="M289.26,-124C325.6,-124 382.69,-124 421.88,-124"/>
<polygon fill="midnightblue" stroke="midnightblue" points="421.92,-127.5 431.92,-124 421.92,-120.5 421.92,-127.5"/>
</g>
<!-- Node4 -->
<g id="node4" class="node">
<title>Node4</title>
<g id="a_node4"><a xlink:href="spinlock_8c.html#afc9565dc7a5ddf77e1fa76f5d91caf78" target="_top" xlink:title="interrupt able">
<polygon fill="none" stroke="black" points="328,-152.5 328,-171.5 393,-171.5 393,-152.5 328,-152.5"/>
<text text-anchor="middle" x="360.5" y="-159.5" font-family="Helvetica,sans-Serif" font-size="10.00">spin_popcli</text>
</a>
</g>
</g>
<!-- Node2&#45;&gt;Node4 -->
<g id="edge3" class="edge">
<title>Node2&#45;&gt;Node4</title>
<path fill="none" stroke="midnightblue" d="M281,-133.59C293.8,-138.22 309.38,-143.86 323.26,-148.89"/>
<polygon fill="midnightblue" stroke="midnightblue" points="322.42,-152.3 333.01,-152.41 324.8,-145.72 322.42,-152.3"/>
</g>
<!-- Node8 -->
<g id="node8" class="node">
<title>Node8</title>
<g id="a_node8"><a xlink:href="spinlock_8c.html#ab213874cda54fdbbeb1bec1e5fa90b28" target="_top" xlink:title="interrupt disable">
<polygon fill="none" stroke="black" points="325,-76.5 325,-95.5 396,-95.5 396,-76.5 325,-76.5"/>
<text text-anchor="middle" x="360.5" y="-83.5" font-family="Helvetica,sans-Serif" font-size="10.00">spin_pushcli</text>
</a>
</g>
</g>
<!-- Node2&#45;&gt;Node8 -->
<g id="edge8" class="edge">
<title>Node2&#45;&gt;Node8</title>
<path fill="none" stroke="midnightblue" d="M281,-114.41C293.8,-109.78 309.38,-104.14 323.26,-99.11"/>
<polygon fill="midnightblue" stroke="midnightblue" points="324.8,-102.28 333.01,-95.59 322.42,-95.7 324.8,-102.28"/>
</g>
<!-- Node4&#45;&gt;Node3 -->
<g id="edge4" class="edge">
<title>Node4&#45;&gt;Node3</title>
<path fill="none" stroke="midnightblue" d="M387.62,-152.41C400.24,-147.78 415.59,-142.14 429.28,-137.11"/>
<polygon fill="midnightblue" stroke="midnightblue" points="430.71,-140.32 438.89,-133.59 428.3,-133.75 430.71,-140.32"/>
</g>
<!-- Node5 -->
<g id="node5" class="node">
<title>Node5</title>
<g id="a_node5"><a xlink:href="cte_8c.html#a4a139958742786c5085172be1f69bfd0" target="_top" xlink:title=" ">
<polygon fill="none" stroke="black" points="450,-152.5 450,-171.5 482,-171.5 482,-152.5 450,-152.5"/>
<text text-anchor="middle" x="466" y="-159.5" font-family="Helvetica,sans-Serif" font-size="10.00">iset</text>
</a>
</g>
</g>
<!-- Node4&#45;&gt;Node5 -->
<g id="edge5" class="edge">
<title>Node4&#45;&gt;Node5</title>
<path fill="none" stroke="midnightblue" d="M393.12,-162C407.94,-162 425.37,-162 439.36,-162"/>
<polygon fill="midnightblue" stroke="midnightblue" points="439.72,-165.5 449.72,-162 439.72,-158.5 439.72,-165.5"/>
</g>
<!-- Node6 -->
<g id="node6" class="node">
<title>Node6</title>
<g id="a_node6"><a xlink:href="x86_8h.html#acc919e7809ef1db2b20aa3804f540b5c" target="_top" xlink:title=" ">
<polygon fill="none" stroke="black" points="544,-133.5 544,-152.5 573,-152.5 573,-133.5 544,-133.5"/>
<text text-anchor="middle" x="558.5" y="-140.5" font-family="Helvetica,sans-Serif" font-size="10.00">cli</text>
</a>
</g>
</g>
<!-- Node5&#45;&gt;Node6 -->
<g id="edge6" class="edge">
<title>Node5&#45;&gt;Node6</title>
<path fill="none" stroke="midnightblue" d="M482.35,-158.78C496.5,-155.81 517.71,-151.35 533.99,-147.94"/>
<polygon fill="midnightblue" stroke="midnightblue" points="534.78,-151.35 543.85,-145.87 533.35,-144.49 534.78,-151.35"/>
</g>
<!-- Node7 -->
<g id="node7" class="node">
<title>Node7</title>
<g id="a_node7"><a xlink:href="x86_8h.html#a4657e97b270d7af5a23da2c4d642ada2" target="_top" xlink:title=" ">
<polygon fill="none" stroke="black" points="544,-171.5 544,-190.5 573,-190.5 573,-171.5 544,-171.5"/>
<text text-anchor="middle" x="558.5" y="-178.5" font-family="Helvetica,sans-Serif" font-size="10.00">sti</text>
</a>
</g>
</g>
<!-- Node5&#45;&gt;Node7 -->
<g id="edge7" class="edge">
<title>Node5&#45;&gt;Node7</title>
<path fill="none" stroke="midnightblue" d="M482.35,-165.22C496.5,-168.19 517.71,-172.65 533.99,-176.06"/>
<polygon fill="midnightblue" stroke="midnightblue" points="533.35,-179.51 543.85,-178.13 534.78,-172.65 533.35,-179.51"/>
</g>
<!-- Node8&#45;&gt;Node3 -->
<g id="edge9" class="edge">
<title>Node8&#45;&gt;Node3</title>
<path fill="none" stroke="midnightblue" d="M387.62,-95.59C400.24,-100.22 415.59,-105.86 429.28,-110.89"/>
<polygon fill="midnightblue" stroke="midnightblue" points="428.3,-114.25 438.89,-114.41 430.71,-107.68 428.3,-114.25"/>
</g>
<!-- Node8&#45;&gt;Node5 -->
<g id="edge12" class="edge">
<title>Node8&#45;&gt;Node5</title>
<path fill="none" stroke="midnightblue" d="M372.55,-95.85C386.09,-107.7 409.93,-127.87 432,-143 434.92,-145.01 438.07,-147 441.22,-148.91"/>
<polygon fill="midnightblue" stroke="midnightblue" points="439.51,-151.96 449.91,-153.97 443.03,-145.92 439.51,-151.96"/>
</g>
<!-- Node9 -->
<g id="node9" class="node">
<title>Node9</title>
<g id="a_node9"><a xlink:href="cte_8c.html#a79659a2b801c42951e38f3a8821acbae" target="_top" xlink:title=" ">
<polygon fill="none" stroke="black" points="439.5,-76.5 439.5,-95.5 492.5,-95.5 492.5,-76.5 439.5,-76.5"/>
<text text-anchor="middle" x="466" y="-83.5" font-family="Helvetica,sans-Serif" font-size="10.00">ienabled</text>
</a>
</g>
</g>
<!-- Node8&#45;&gt;Node9 -->
<g id="edge10" class="edge">
<title>Node8&#45;&gt;Node9</title>
<path fill="none" stroke="midnightblue" d="M396.25,-86C406.82,-86 418.46,-86 429.1,-86"/>
<polygon fill="midnightblue" stroke="midnightblue" points="429.34,-89.5 439.34,-86 429.34,-82.5 429.34,-89.5"/>
</g>
<!-- Node10 -->
<g id="node10" class="node">
<title>Node10</title>
<g id="a_node10"><a xlink:href="x86_8h.html#a73d094f09c6a7dd3fc703aa8229933ee" target="_top" xlink:title=" ">
<polygon fill="none" stroke="black" points="536,-76.5 536,-95.5 581,-95.5 581,-76.5 536,-76.5"/>
<text text-anchor="middle" x="558.5" y="-83.5" font-family="Helvetica,sans-Serif" font-size="10.00">get_efl</text>
</a>
</g>
</g>
<!-- Node9&#45;&gt;Node10 -->
<g id="edge11" class="edge">
<title>Node9&#45;&gt;Node10</title>
<path fill="none" stroke="midnightblue" d="M492.69,-86C502.88,-86 514.71,-86 525.45,-86"/>
<polygon fill="midnightblue" stroke="midnightblue" points="525.73,-89.5 535.73,-86 525.73,-82.5 525.73,-89.5"/>
</g>
<!-- Node11&#45;&gt;Node2 -->
<g id="edge17" class="edge">
<title>Node11&#45;&gt;Node2</title>
<path fill="none" stroke="midnightblue" d="M175.12,-95.59C187.74,-100.22 203.09,-105.86 216.78,-110.89"/>
<polygon fill="midnightblue" stroke="midnightblue" points="215.8,-114.25 226.39,-114.41 218.21,-107.68 215.8,-114.25"/>
</g>
<!-- Node11&#45;&gt;Node3 -->
<g id="edge16" class="edge">
<title>Node11&#45;&gt;Node3</title>
<path fill="none" stroke="midnightblue" d="M174.82,-76.42C221.24,-60.82 320.93,-34.71 396,-67 417.37,-76.19 413.73,-90.6 432,-105 433.77,-106.4 435.66,-107.76 437.6,-109.07"/>
<polygon fill="midnightblue" stroke="midnightblue" points="435.9,-112.13 446.23,-114.45 439.6,-106.19 435.9,-112.13"/>
</g>
<!-- Node11&#45;&gt;Node8 -->
<g id="edge18" class="edge">
<title>Node11&#45;&gt;Node8</title>
<path fill="none" stroke="midnightblue" d="M177.39,-86C212.67,-86 273.28,-86 314.81,-86"/>
<polygon fill="midnightblue" stroke="midnightblue" points="314.93,-89.5 324.93,-86 314.93,-82.5 314.93,-89.5"/>
</g>
<!-- Node12 -->
<g id="node12" class="node">
<title>Node12</title>
<g id="a_node12"><a xlink:href="mpe_8c.html#aaaad47c97c82065cf463f83b98b23c30" target="_top" xlink:title=" ">
<polygon fill="none" stroke="black" points="218,-0.5 218,-19.5 289,-19.5 289,-0.5 218,-0.5"/>
<text text-anchor="middle" x="253.5" y="-7.5" font-family="Helvetica,sans-Serif" font-size="10.00">atomic_xchg</text>
</a>
</g>
</g>
<!-- Node11&#45;&gt;Node12 -->
<g id="edge14" class="edge">
<title>Node11&#45;&gt;Node12</title>
<path fill="none" stroke="midnightblue" d="M161.61,-76.27C175.36,-65.71 198.08,-48.43 218,-34 221.83,-31.23 225.92,-28.32 229.91,-25.53"/>
<polygon fill="midnightblue" stroke="midnightblue" points="232.1,-28.27 238.31,-19.69 228.11,-22.52 232.1,-28.27"/>
</g>
<!-- Node13 -->
<g id="node13" class="node">
<title>Node13</title>
<g id="a_node13"><a xlink:href="x86_8h.html#a48b2a6a16dc8d7e09d327aa3803f1112" target="_top" xlink:title=" ">
<polygon fill="none" stroke="black" points="342,-0.5 342,-19.5 379,-19.5 379,-0.5 342,-0.5"/>
<text text-anchor="middle" x="360.5" y="-7.5" font-family="Helvetica,sans-Serif" font-size="10.00">xchg</text>
</a>
</g>
</g>
<!-- Node12&#45;&gt;Node13 -->
<g id="edge15" class="edge">
<title>Node12&#45;&gt;Node13</title>
<path fill="none" stroke="midnightblue" d="M289.17,-10C302.99,-10 318.67,-10 331.71,-10"/>
<polygon fill="midnightblue" stroke="midnightblue" points="331.95,-13.5 341.95,-10 331.95,-6.5 331.95,-13.5"/>
</g>
<!-- Node14&#45;&gt;Node2 -->
<g id="edge20" class="edge">
<title>Node14&#45;&gt;Node2</title>
<path fill="none" stroke="midnightblue" d="M175.12,-152.41C187.74,-147.78 203.09,-142.14 216.78,-137.11"/>
<polygon fill="midnightblue" stroke="midnightblue" points="218.21,-140.32 226.39,-133.59 215.8,-133.75 218.21,-140.32"/>
</g>
<!-- Node14&#45;&gt;Node4 -->
<g id="edge21" class="edge">
<title>Node14&#45;&gt;Node4</title>
<path fill="none" stroke="midnightblue" d="M182.35,-162C218.96,-162 277.8,-162 317.52,-162"/>
<polygon fill="midnightblue" stroke="midnightblue" points="317.68,-165.5 327.68,-162 317.68,-158.5 317.68,-165.5"/>
</g>
</g>
</svg>
