<?xml version="1.0" encoding="UTF-8" standalone="no"?>
<!DOCTYPE svg PUBLIC "-//W3C//DTD SVG 1.1//EN"
 "http://www.w3.org/Graphics/SVG/1.1/DTD/svg11.dtd">
<!-- Generated by graphviz version 3.0.0 (20220413.0106)
 -->
<!-- Title: kmt_create Pages: 1 -->
<svg width="612pt" height="256pt"
 viewBox="0.00 0.00 612.00 256.00" xmlns="http://www.w3.org/2000/svg" xmlns:xlink="http://www.w3.org/1999/xlink">
<g id="graph0" class="graph" transform="scale(1 1) rotate(0) translate(4 252)">
<title>kmt_create</title>
<!-- Node1 -->
<g id="node1" class="node">
<title>Node1</title>
<g id="a_node1"><a xlink:title="create thread">
<polygon fill="#bfbfbf" stroke="black" points="0,-152.5 0,-171.5 65,-171.5 65,-152.5 0,-152.5"/>
<text text-anchor="middle" x="32.5" y="-159.5" font-family="Helvetica,sans-Serif" font-size="10.00">kmt_create</text>
</a>
</g>
</g>
<!-- Node2 -->
<g id="node2" class="node">
<title>Node2</title>
<g id="a_node2"><a xlink:href="cte_8c.html#a90a17e3cfc268f5b8ed0a92ffda13a58" target="_top" xlink:title=" ">
<polygon fill="none" stroke="black" points="108.5,-228.5 108.5,-247.5 161.5,-247.5 161.5,-228.5 108.5,-228.5"/>
<text text-anchor="middle" x="135" y="-235.5" font-family="Helvetica,sans-Serif" font-size="10.00">kcontext</text>
</a>
</g>
</g>
<!-- Node1&#45;&gt;Node2 -->
<g id="edge1" class="edge">
<title>Node1&#45;&gt;Node2</title>
<path fill="none" stroke="midnightblue" d="M44.01,-171.91C56.89,-183.8 79.66,-204.02 101,-219 102.89,-220.33 104.88,-221.65 106.91,-222.93"/>
<polygon fill="midnightblue" stroke="midnightblue" points="105.46,-226.15 115.83,-228.31 109.07,-220.15 105.46,-226.15"/>
</g>
<!-- Node4 -->
<g id="node4" class="node">
<title>Node4</title>
<g id="a_node4"><a xlink:href="string_8c.html#a7a8fd43b209c9ea19addab23a5f23995" target="_top" xlink:title=" ">
<polygon fill="none" stroke="black" points="109,-190.5 109,-209.5 161,-209.5 161,-190.5 109,-190.5"/>
<text text-anchor="middle" x="135" y="-197.5" font-family="Helvetica,sans-Serif" font-size="10.00">memset</text>
</a>
</g>
</g>
<!-- Node1&#45;&gt;Node4 -->
<g id="edge3" class="edge">
<title>Node1&#45;&gt;Node4</title>
<path fill="none" stroke="midnightblue" d="M58.86,-171.59C71.21,-176.26 86.25,-181.95 99.62,-187"/>
<polygon fill="midnightblue" stroke="midnightblue" points="98.4,-190.28 109,-190.55 100.88,-183.74 98.4,-190.28"/>
</g>
<!-- Node5 -->
<g id="node5" class="node">
<title>Node5</title>
<g id="a_node5"><a xlink:href="spinlock_8c.html#ad4be0d674a7ca4dc90c2dbf8b34562cc" target="_top" xlink:title="check current cpu has the lock">
<polygon fill="none" stroke="black" points="223,-114.5 223,-133.5 294,-133.5 294,-114.5 223,-114.5"/>
<text text-anchor="middle" x="258.5" y="-121.5" font-family="Helvetica,sans-Serif" font-size="10.00">spin_holding</text>
</a>
</g>
</g>
<!-- Node1&#45;&gt;Node5 -->
<g id="edge4" class="edge">
<title>Node1&#45;&gt;Node5</title>
<path fill="none" stroke="midnightblue" d="M63.5,-152.49C75.12,-149.09 88.59,-145.49 101,-143 138.25,-135.54 181.12,-130.59 212.56,-127.61"/>
<polygon fill="midnightblue" stroke="midnightblue" points="213.12,-131.07 222.76,-126.68 212.48,-124.1 213.12,-131.07"/>
</g>
<!-- Node14 -->
<g id="node14" class="node">
<title>Node14</title>
<g id="a_node14"><a xlink:href="spinlock_8c.html#ab6f3c37ec37006951feccc3c05387cce" target="_top" xlink:title="acquire spinlock to current cpu">
<polygon fill="none" stroke="black" points="106,-76.5 106,-95.5 164,-95.5 164,-76.5 106,-76.5"/>
<text text-anchor="middle" x="135" y="-83.5" font-family="Helvetica,sans-Serif" font-size="10.00">spin_lock</text>
</a>
</g>
</g>
<!-- Node1&#45;&gt;Node14 -->
<g id="edge16" class="edge">
<title>Node1&#45;&gt;Node14</title>
<path fill="none" stroke="midnightblue" d="M45.86,-152.31C59.34,-141.79 81.58,-124.54 101,-110 104.57,-107.33 108.39,-104.51 112.1,-101.79"/>
<polygon fill="midnightblue" stroke="midnightblue" points="114.42,-104.44 120.45,-95.72 110.31,-98.78 114.42,-104.44"/>
</g>
<!-- Node17 -->
<g id="node17" class="node">
<title>Node17</title>
<g id="a_node17"><a xlink:href="spinlock_8c.html#acdf118d615a4bc4064e991add9a80995" target="_top" xlink:title="release spinlock from current cpu">
<polygon fill="none" stroke="black" points="101,-152.5 101,-171.5 169,-171.5 169,-152.5 101,-152.5"/>
<text text-anchor="middle" x="135" y="-159.5" font-family="Helvetica,sans-Serif" font-size="10.00">spin_unlock</text>
</a>
</g>
</g>
<!-- Node1&#45;&gt;Node17 -->
<g id="edge22" class="edge">
<title>Node1&#45;&gt;Node17</title>
<path fill="none" stroke="midnightblue" d="M65.02,-162C73.13,-162 81.99,-162 90.58,-162"/>
<polygon fill="midnightblue" stroke="midnightblue" points="90.85,-165.5 100.85,-162 90.85,-158.5 90.85,-165.5"/>
</g>
<!-- Node3 -->
<g id="node3" class="node">
<title>Node3</title>
<g id="a_node3"><a xlink:href="cte_8c.html#a8a4bbd700f2686cea6a3f2d756580237" target="_top" xlink:title=" ">
<polygon fill="none" stroke="black" points="205,-228.5 205,-247.5 312,-247.5 312,-228.5 205,-228.5"/>
<text text-anchor="middle" x="258.5" y="-235.5" font-family="Helvetica,sans-Serif" font-size="10.00">__am_kcontext_start</text>
</a>
</g>
</g>
<!-- Node2&#45;&gt;Node3 -->
<g id="edge2" class="edge">
<title>Node2&#45;&gt;Node3</title>
<path fill="none" stroke="midnightblue" d="M161.77,-238C171.46,-238 182.97,-238 194.57,-238"/>
<polygon fill="midnightblue" stroke="midnightblue" points="194.76,-241.5 204.76,-238 194.76,-234.5 194.76,-241.5"/>
</g>
<!-- Node6 -->
<g id="node6" class="node">
<title>Node6</title>
<g id="a_node6"><a xlink:href="mpe_8c.html#ab701de78cad32896c923ce900087e714" target="_top" xlink:title=" ">
<polygon fill="none" stroke="black" points="455,-114.5 455,-133.5 523,-133.5 523,-114.5 455,-114.5"/>
<text text-anchor="middle" x="489" y="-121.5" font-family="Helvetica,sans-Serif" font-size="10.00">cpu_current</text>
</a>
</g>
</g>
<!-- Node5&#45;&gt;Node6 -->
<g id="edge5" class="edge">
<title>Node5&#45;&gt;Node6</title>
<path fill="none" stroke="midnightblue" d="M294.2,-124C334.54,-124 401.14,-124 444.8,-124"/>
<polygon fill="midnightblue" stroke="midnightblue" points="444.83,-127.5 454.83,-124 444.83,-120.5 444.83,-127.5"/>
</g>
<!-- Node7 -->
<g id="node7" class="node">
<title>Node7</title>
<g id="a_node7"><a xlink:href="spinlock_8c.html#afc9565dc7a5ddf77e1fa76f5d91caf78" target="_top" xlink:title="interrupt able">
<polygon fill="none" stroke="black" points="351,-152.5 351,-171.5 416,-171.5 416,-152.5 351,-152.5"/>
<text text-anchor="middle" x="383.5" y="-159.5" font-family="Helvetica,sans-Serif" font-size="10.00">spin_popcli</text>
</a>
</g>
</g>
<!-- Node5&#45;&gt;Node7 -->
<g id="edge6" class="edge">
<title>Node5&#45;&gt;Node7</title>
<path fill="none" stroke="midnightblue" d="M290.54,-133.59C305.98,-138.36 324.85,-144.19 341.47,-149.32"/>
<polygon fill="midnightblue" stroke="midnightblue" points="340.88,-152.81 351.47,-152.41 342.95,-146.12 340.88,-152.81"/>
</g>
<!-- Node11 -->
<g id="node11" class="node">
<title>Node11</title>
<g id="a_node11"><a xlink:href="spinlock_8c.html#ab213874cda54fdbbeb1bec1e5fa90b28" target="_top" xlink:title="interrupt disable">
<polygon fill="none" stroke="black" points="348,-76.5 348,-95.5 419,-95.5 419,-76.5 348,-76.5"/>
<text text-anchor="middle" x="383.5" y="-83.5" font-family="Helvetica,sans-Serif" font-size="10.00">spin_pushcli</text>
</a>
</g>
</g>
<!-- Node5&#45;&gt;Node11 -->
<g id="edge11" class="edge">
<title>Node5&#45;&gt;Node11</title>
<path fill="none" stroke="midnightblue" d="M290.54,-114.41C305.98,-109.64 324.85,-103.81 341.47,-98.68"/>
<polygon fill="midnightblue" stroke="midnightblue" points="342.95,-101.88 351.47,-95.59 340.88,-95.19 342.95,-101.88"/>
</g>
<!-- Node7&#45;&gt;Node6 -->
<g id="edge7" class="edge">
<title>Node7&#45;&gt;Node6</title>
<path fill="none" stroke="midnightblue" d="M410.62,-152.41C423.24,-147.78 438.59,-142.14 452.28,-137.11"/>
<polygon fill="midnightblue" stroke="midnightblue" points="453.71,-140.32 461.89,-133.59 451.3,-133.75 453.71,-140.32"/>
</g>
<!-- Node8 -->
<g id="node8" class="node">
<title>Node8</title>
<g id="a_node8"><a xlink:href="cte_8c.html#a4a139958742786c5085172be1f69bfd0" target="_top" xlink:title=" ">
<polygon fill="none" stroke="black" points="473,-152.5 473,-171.5 505,-171.5 505,-152.5 473,-152.5"/>
<text text-anchor="middle" x="489" y="-159.5" font-family="Helvetica,sans-Serif" font-size="10.00">iset</text>
</a>
</g>
</g>
<!-- Node7&#45;&gt;Node8 -->
<g id="edge8" class="edge">
<title>Node7&#45;&gt;Node8</title>
<path fill="none" stroke="midnightblue" d="M416.12,-162C430.94,-162 448.37,-162 462.36,-162"/>
<polygon fill="midnightblue" stroke="midnightblue" points="462.72,-165.5 472.72,-162 462.72,-158.5 462.72,-165.5"/>
</g>
<!-- Node9 -->
<g id="node9" class="node">
<title>Node9</title>
<g id="a_node9"><a xlink:href="x86_8h.html#acc919e7809ef1db2b20aa3804f540b5c" target="_top" xlink:title=" ">
<polygon fill="none" stroke="black" points="567,-133.5 567,-152.5 596,-152.5 596,-133.5 567,-133.5"/>
<text text-anchor="middle" x="581.5" y="-140.5" font-family="Helvetica,sans-Serif" font-size="10.00">cli</text>
</a>
</g>
</g>
<!-- Node8&#45;&gt;Node9 -->
<g id="edge9" class="edge">
<title>Node8&#45;&gt;Node9</title>
<path fill="none" stroke="midnightblue" d="M505.35,-158.78C519.5,-155.81 540.71,-151.35 556.99,-147.94"/>
<polygon fill="midnightblue" stroke="midnightblue" points="557.78,-151.35 566.85,-145.87 556.35,-144.49 557.78,-151.35"/>
</g>
<!-- Node10 -->
<g id="node10" class="node">
<title>Node10</title>
<g id="a_node10"><a xlink:href="x86_8h.html#a4657e97b270d7af5a23da2c4d642ada2" target="_top" xlink:title=" ">
<polygon fill="none" stroke="black" points="567,-171.5 567,-190.5 596,-190.5 596,-171.5 567,-171.5"/>
<text text-anchor="middle" x="581.5" y="-178.5" font-family="Helvetica,sans-Serif" font-size="10.00">sti</text>
</a>
</g>
</g>
<!-- Node8&#45;&gt;Node10 -->
<g id="edge10" class="edge">
<title>Node8&#45;&gt;Node10</title>
<path fill="none" stroke="midnightblue" d="M505.35,-165.22C519.5,-168.19 540.71,-172.65 556.99,-176.06"/>
<polygon fill="midnightblue" stroke="midnightblue" points="556.35,-179.51 566.85,-178.13 557.78,-172.65 556.35,-179.51"/>
</g>
<!-- Node11&#45;&gt;Node6 -->
<g id="edge12" class="edge">
<title>Node11&#45;&gt;Node6</title>
<path fill="none" stroke="midnightblue" d="M410.62,-95.59C423.24,-100.22 438.59,-105.86 452.28,-110.89"/>
<polygon fill="midnightblue" stroke="midnightblue" points="451.3,-114.25 461.89,-114.41 453.71,-107.68 451.3,-114.25"/>
</g>
<!-- Node11&#45;&gt;Node8 -->
<g id="edge15" class="edge">
<title>Node11&#45;&gt;Node8</title>
<path fill="none" stroke="midnightblue" d="M395.55,-95.85C409.09,-107.7 432.93,-127.87 455,-143 457.92,-145.01 461.07,-147 464.22,-148.91"/>
<polygon fill="midnightblue" stroke="midnightblue" points="462.51,-151.96 472.91,-153.97 466.03,-145.92 462.51,-151.96"/>
</g>
<!-- Node12 -->
<g id="node12" class="node">
<title>Node12</title>
<g id="a_node12"><a xlink:href="cte_8c.html#a79659a2b801c42951e38f3a8821acbae" target="_top" xlink:title=" ">
<polygon fill="none" stroke="black" points="462.5,-76.5 462.5,-95.5 515.5,-95.5 515.5,-76.5 462.5,-76.5"/>
<text text-anchor="middle" x="489" y="-83.5" font-family="Helvetica,sans-Serif" font-size="10.00">ienabled</text>
</a>
</g>
</g>
<!-- Node11&#45;&gt;Node12 -->
<g id="edge13" class="edge">
<title>Node11&#45;&gt;Node12</title>
<path fill="none" stroke="midnightblue" d="M419.25,-86C429.82,-86 441.46,-86 452.1,-86"/>
<polygon fill="midnightblue" stroke="midnightblue" points="452.34,-89.5 462.34,-86 452.34,-82.5 452.34,-89.5"/>
</g>
<!-- Node13 -->
<g id="node13" class="node">
<title>Node13</title>
<g id="a_node13"><a xlink:href="x86_8h.html#a73d094f09c6a7dd3fc703aa8229933ee" target="_top" xlink:title=" ">
<polygon fill="none" stroke="black" points="559,-76.5 559,-95.5 604,-95.5 604,-76.5 559,-76.5"/>
<text text-anchor="middle" x="581.5" y="-83.5" font-family="Helvetica,sans-Serif" font-size="10.00">get_efl</text>
</a>
</g>
</g>
<!-- Node12&#45;&gt;Node13 -->
<g id="edge14" class="edge">
<title>Node12&#45;&gt;Node13</title>
<path fill="none" stroke="midnightblue" d="M515.69,-86C525.88,-86 537.71,-86 548.45,-86"/>
<polygon fill="midnightblue" stroke="midnightblue" points="548.73,-89.5 558.73,-86 548.73,-82.5 548.73,-89.5"/>
</g>
<!-- Node14&#45;&gt;Node5 -->
<g id="edge20" class="edge">
<title>Node14&#45;&gt;Node5</title>
<path fill="none" stroke="midnightblue" d="M164.18,-94.81C179.89,-99.73 199.71,-105.93 217.05,-111.35"/>
<polygon fill="midnightblue" stroke="midnightblue" points="216.33,-114.79 226.92,-114.44 218.42,-108.11 216.33,-114.79"/>
</g>
<!-- Node14&#45;&gt;Node6 -->
<g id="edge19" class="edge">
<title>Node14&#45;&gt;Node6</title>
<path fill="none" stroke="midnightblue" d="M162.72,-76.42C214.58,-59.47 331.47,-29.35 419,-67 440.37,-76.19 436.73,-90.6 455,-105 456.77,-106.4 458.66,-107.76 460.6,-109.07"/>
<polygon fill="midnightblue" stroke="midnightblue" points="458.9,-112.13 469.23,-114.45 462.6,-106.19 458.9,-112.13"/>
</g>
<!-- Node14&#45;&gt;Node11 -->
<g id="edge21" class="edge">
<title>Node14&#45;&gt;Node11</title>
<path fill="none" stroke="midnightblue" d="M164.28,-86C206.66,-86 287.07,-86 337.55,-86"/>
<polygon fill="midnightblue" stroke="midnightblue" points="337.85,-89.5 347.85,-86 337.85,-82.5 337.85,-89.5"/>
</g>
<!-- Node15 -->
<g id="node15" class="node">
<title>Node15</title>
<g id="a_node15"><a xlink:href="mpe_8c.html#aaaad47c97c82065cf463f83b98b23c30" target="_top" xlink:title=" ">
<polygon fill="none" stroke="black" points="223,-0.5 223,-19.5 294,-19.5 294,-0.5 223,-0.5"/>
<text text-anchor="middle" x="258.5" y="-7.5" font-family="Helvetica,sans-Serif" font-size="10.00">atomic_xchg</text>
</a>
</g>
</g>
<!-- Node14&#45;&gt;Node15 -->
<g id="edge17" class="edge">
<title>Node14&#45;&gt;Node15</title>
<path fill="none" stroke="midnightblue" d="M147.18,-76.36C160.4,-65.26 183.35,-46.9 205,-34 211.07,-30.38 217.79,-26.93 224.33,-23.84"/>
<polygon fill="midnightblue" stroke="midnightblue" points="226.04,-26.91 233.69,-19.58 223.14,-20.54 226.04,-26.91"/>
</g>
<!-- Node16 -->
<g id="node16" class="node">
<title>Node16</title>
<g id="a_node16"><a xlink:href="x86_8h.html#a48b2a6a16dc8d7e09d327aa3803f1112" target="_top" xlink:title=" ">
<polygon fill="none" stroke="black" points="365,-0.5 365,-19.5 402,-19.5 402,-0.5 365,-0.5"/>
<text text-anchor="middle" x="383.5" y="-7.5" font-family="Helvetica,sans-Serif" font-size="10.00">xchg</text>
</a>
</g>
</g>
<!-- Node15&#45;&gt;Node16 -->
<g id="edge18" class="edge">
<title>Node15&#45;&gt;Node16</title>
<path fill="none" stroke="midnightblue" d="M294.09,-10C313.24,-10 336.74,-10 354.69,-10"/>
<polygon fill="midnightblue" stroke="midnightblue" points="354.81,-13.5 364.81,-10 354.81,-6.5 354.81,-13.5"/>
</g>
<!-- Node17&#45;&gt;Node5 -->
<g id="edge23" class="edge">
<title>Node17&#45;&gt;Node5</title>
<path fill="none" stroke="midnightblue" d="M166.66,-152.41C181.91,-147.64 200.55,-141.81 216.97,-136.68"/>
<polygon fill="midnightblue" stroke="midnightblue" points="218.35,-139.91 226.85,-133.59 216.26,-133.23 218.35,-139.91"/>
</g>
<!-- Node17&#45;&gt;Node7 -->
<g id="edge24" class="edge">
<title>Node17&#45;&gt;Node7</title>
<path fill="none" stroke="midnightblue" d="M169.24,-162C213.69,-162 292.46,-162 340.82,-162"/>
<polygon fill="midnightblue" stroke="midnightblue" points="340.95,-165.5 350.95,-162 340.95,-158.5 340.95,-165.5"/>
</g>
</g>
</svg>
