<?xml version="1.0" encoding="UTF-8" standalone="no"?>
<!DOCTYPE svg PUBLIC "-//W3C//DTD SVG 1.1//EN"
 "http://www.w3.org/Graphics/SVG/1.1/DTD/svg11.dtd">
<!-- Generated by graphviz version 3.0.0 (20220413.0106)
 -->
<!-- Title: kmt_get_task Pages: 1 -->
<svg width="422pt" height="125pt"
 viewBox="0.00 0.00 422.00 125.22" xmlns="http://www.w3.org/2000/svg" xmlns:xlink="http://www.w3.org/1999/xlink">
<g id="graph0" class="graph" transform="scale(1 1) rotate(0) translate(4 121.22)">
<title>kmt_get_task</title>
<!-- Node1 -->
<g id="node1" class="node">
<title>Node1</title>
<g id="a_node1"><a xlink:title="get current cpu&#39;s tasks">
<polygon fill="#bfbfbf" stroke="black" points="338,-40.72 338,-59.72 414,-59.72 414,-40.72 338,-40.72"/>
<text text-anchor="middle" x="376" y="-47.72" font-family="Helvetica,sans-Serif" font-size="10.00">kmt_get_task</text>
</a>
</g>
</g>
<!-- Node2 -->
<g id="node2" class="node">
<title>Node2</title>
<g id="a_node2"><a xlink:href="kmt_8c.html#af9c485ce0d89d6624e6e80e31d8ed207" target="_top" xlink:title="handler: save context to current task">
<polygon fill="none" stroke="black" points="206,-97.72 206,-116.72 302,-116.72 302,-97.72 206,-97.72"/>
<text text-anchor="middle" x="254" y="-104.72" font-family="Helvetica,sans-Serif" font-size="10.00">kmt_context_save</text>
</a>
</g>
</g>
<!-- Node1&#45;&gt;Node2 -->
<g id="edge1" class="edge">
<title>Node1&#45;&gt;Node2</title>
<path fill="none" stroke="midnightblue" d="M348.9,-64.57C335.12,-71.96 317.81,-80.92 302,-88.22 294.97,-91.46 287.22,-94.72 280.07,-97.6"/>
<polygon fill="midnightblue" stroke="midnightblue" points="350.7,-67.58 357.83,-59.75 347.37,-61.43 350.7,-67.58"/>
</g>
<!-- Node4 -->
<g id="node4" class="node">
<title>Node4</title>
<g id="a_node4"><a xlink:href="kmt_8c.html#af360ef0d98ca30e481cc58ea3695fd58" target="_top" xlink:title=" ">
<polygon fill="none" stroke="black" points="0,-2.72 0,-21.72 83,-21.72 83,-2.72 0,-2.72"/>
<text text-anchor="middle" x="41.5" y="-9.72" font-family="Helvetica,sans-Serif" font-size="10.00">MODULE_DEF</text>
</a>
</g>
</g>
<!-- Node1&#45;&gt;Node4 -->
<g id="edge8" class="edge">
<title>Node1&#45;&gt;Node4</title>
<path fill="none" stroke="midnightblue" d="M352.73,-35.03C338.82,-26.48 320.15,-16.66 302,-12.22 226.51,6.26 134.93,-0.17 83.22,-6.32"/>
<polygon fill="midnightblue" stroke="midnightblue" points="351.22,-38.22 361.53,-40.66 354.99,-32.32 351.22,-38.22"/>
</g>
<!-- Node5 -->
<g id="node5" class="node">
<title>Node5</title>
<g id="a_node5"><a xlink:href="kmt_8c.html#ad4d70b4093829da1c0b0631abdff7747" target="_top" xlink:title="handler: schedule next task to run Notice: this should be the only handler which returns real Context">
<polygon fill="none" stroke="black" points="215.5,-59.72 215.5,-78.72 292.5,-78.72 292.5,-59.72 215.5,-59.72"/>
<text text-anchor="middle" x="254" y="-66.72" font-family="Helvetica,sans-Serif" font-size="10.00">kmt_schedule</text>
</a>
</g>
</g>
<!-- Node1&#45;&gt;Node5 -->
<g id="edge4" class="edge">
<title>Node1&#45;&gt;Node5</title>
<path fill="none" stroke="midnightblue" d="M327.7,-57.7C316.08,-59.54 303.8,-61.49 292.7,-63.25"/>
<polygon fill="midnightblue" stroke="midnightblue" points="328.36,-61.14 337.69,-56.12 327.26,-54.23 328.36,-61.14"/>
</g>
<!-- Node6 -->
<g id="node6" class="node">
<title>Node6</title>
<g id="a_node6"><a xlink:href="kmt_8c.html#a75ea8dbba16d64a343a45962bd593930" target="_top" xlink:title="handler: handle yield interrupt (0x81)">
<polygon fill="none" stroke="black" points="225,-21.72 225,-40.72 283,-40.72 283,-21.72 225,-21.72"/>
<text text-anchor="middle" x="254" y="-28.72" font-family="Helvetica,sans-Serif" font-size="10.00">kmt_yield</text>
</a>
</g>
</g>
<!-- Node1&#45;&gt;Node6 -->
<g id="edge6" class="edge">
<title>Node1&#45;&gt;Node6</title>
<path fill="none" stroke="midnightblue" d="M327.51,-42.7C312.48,-40.32 296.35,-37.76 283.13,-35.67"/>
<polygon fill="midnightblue" stroke="midnightblue" points="327.26,-46.2 337.69,-44.31 328.36,-39.29 327.26,-46.2"/>
</g>
<!-- Node3 -->
<g id="node3" class="node">
<title>Node3</title>
<g id="a_node3"><a xlink:href="kmt_8c.html#a0c68a294cecc4be7cb4b495f15b883a0" target="_top" xlink:title="initialize kmt module">
<polygon fill="none" stroke="black" points="119,-40.72 119,-59.72 170,-59.72 170,-40.72 119,-40.72"/>
<text text-anchor="middle" x="144.5" y="-47.72" font-family="Helvetica,sans-Serif" font-size="10.00">kmt_init</text>
</a>
</g>
</g>
<!-- Node2&#45;&gt;Node3 -->
<g id="edge2" class="edge">
<title>Node2&#45;&gt;Node3</title>
<path fill="none" stroke="midnightblue" d="M217.27,-93.55C213.42,-91.85 209.6,-90.06 206,-88.22 189.43,-79.75 171.51,-68.16 159.51,-60.01"/>
<polygon fill="midnightblue" stroke="midnightblue" points="216.2,-96.9 226.78,-97.57 218.93,-90.45 216.2,-96.9"/>
</g>
<!-- Node3&#45;&gt;Node4 -->
<g id="edge3" class="edge">
<title>Node3&#45;&gt;Node4</title>
<path fill="none" stroke="midnightblue" d="M109.32,-37.36C95.8,-32.27 80.53,-26.52 68.01,-21.81"/>
<polygon fill="midnightblue" stroke="midnightblue" points="108.2,-40.67 118.79,-40.92 110.67,-34.12 108.2,-40.67"/>
</g>
<!-- Node5&#45;&gt;Node3 -->
<g id="edge5" class="edge">
<title>Node5&#45;&gt;Node3</title>
<path fill="none" stroke="midnightblue" d="M205.34,-60.79C193.17,-58.64 180.58,-56.42 170.11,-54.57"/>
<polygon fill="midnightblue" stroke="midnightblue" points="204.95,-64.28 215.4,-62.57 206.16,-57.38 204.95,-64.28"/>
</g>
<!-- Node6&#45;&gt;Node3 -->
<g id="edge7" class="edge">
<title>Node6&#45;&gt;Node3</title>
<path fill="none" stroke="midnightblue" d="M214.84,-37.96C200.02,-40.58 183.48,-43.5 170.26,-45.84"/>
<polygon fill="midnightblue" stroke="midnightblue" points="215.52,-41.39 224.76,-36.21 214.3,-34.5 215.52,-41.39"/>
</g>
</g>
</svg>
