<?xml version="1.0" encoding="UTF-8" standalone="no"?>
<!DOCTYPE svg PUBLIC "-//W3C//DTD SVG 1.1//EN"
 "http://www.w3.org/Graphics/SVG/1.1/DTD/svg11.dtd">
<!-- Generated by graphviz version 3.0.0 (20220413.0106)
 -->
<!-- Title: MODULE_DEF Pages: 1 -->
<svg width="876pt" height="541pt"
 viewBox="0.00 0.00 876.00 541.00" xmlns="http://www.w3.org/2000/svg" xmlns:xlink="http://www.w3.org/1999/xlink">
<g id="graph0" class="graph" transform="scale(1 1) rotate(0) translate(4 537)">
<title>MODULE_DEF</title>
<!-- Node1 -->
<g id="node1" class="node">
<title>Node1</title>
<g id="a_node1"><a xlink:title=" ">
<polygon fill="#bfbfbf" stroke="black" points="0,-190.5 0,-209.5 83,-209.5 83,-190.5 0,-190.5"/>
<text text-anchor="middle" x="41.5" y="-197.5" font-family="Helvetica,sans-Serif" font-size="10.00">MODULE_DEF</text>
</a>
</g>
</g>
<!-- Node2 -->
<g id="node2" class="node">
<title>Node2</title>
<g id="a_node2"><a xlink:href="kmt_8c.html#a5ddb8743298012e84cf9cb5faf22212b" target="_top" xlink:title="create thread">
<polygon fill="none" stroke="black" points="125.5,-361.5 125.5,-380.5 190.5,-380.5 190.5,-361.5 125.5,-361.5"/>
<text text-anchor="middle" x="158" y="-368.5" font-family="Helvetica,sans-Serif" font-size="10.00">kmt_create</text>
</a>
</g>
</g>
<!-- Node1&#45;&gt;Node2 -->
<g id="edge1" class="edge">
<title>Node1&#45;&gt;Node2</title>
<path fill="none" stroke="midnightblue" d="M48.98,-209.68C67.48,-237.31 120.74,-316.84 144.86,-352.87"/>
<polygon fill="midnightblue" stroke="midnightblue" points="142.11,-355.06 150.59,-361.42 147.93,-351.17 142.11,-355.06"/>
</g>
<!-- Node15 -->
<g id="node15" class="node">
<title>Node15</title>
<g id="a_node15"><a xlink:href="spinlock_8c.html#ab6f3c37ec37006951feccc3c05387cce" target="_top" xlink:title="acquire spinlock to current cpu">
<polygon fill="none" stroke="black" points="252,-494.5 252,-513.5 310,-513.5 310,-494.5 252,-494.5"/>
<text text-anchor="middle" x="281" y="-501.5" font-family="Helvetica,sans-Serif" font-size="10.00">spin_lock</text>
</a>
</g>
</g>
<!-- Node1&#45;&gt;Node15 -->
<g id="edge65" class="edge">
<title>Node1&#45;&gt;Node15</title>
<path fill="none" stroke="midnightblue" d="M43.73,-209.67C49.64,-254.59 76.61,-442.36 119,-480 152.28,-509.54 205.53,-511.82 241.59,-509.2"/>
<polygon fill="midnightblue" stroke="midnightblue" points="242.08,-512.67 251.73,-508.3 241.46,-505.7 242.08,-512.67"/>
</g>
<!-- Node18 -->
<g id="node18" class="node">
<title>Node18</title>
<g id="a_node18"><a xlink:href="spinlock_8c.html#acdf118d615a4bc4064e991add9a80995" target="_top" xlink:title="release spinlock from current cpu">
<polygon fill="none" stroke="black" points="247,-418.5 247,-437.5 315,-437.5 315,-418.5 247,-418.5"/>
<text text-anchor="middle" x="281" y="-425.5" font-family="Helvetica,sans-Serif" font-size="10.00">spin_unlock</text>
</a>
</g>
</g>
<!-- Node1&#45;&gt;Node18 -->
<g id="edge66" class="edge">
<title>Node1&#45;&gt;Node18</title>
<path fill="none" stroke="midnightblue" d="M43.34,-209.66C46.61,-240.96 61.29,-340.4 119,-390 151.61,-418.02 201.15,-426.27 236.66,-428.28"/>
<polygon fill="midnightblue" stroke="midnightblue" points="236.59,-431.78 246.73,-428.71 236.89,-424.79 236.59,-431.78"/>
</g>
<!-- Node19 -->
<g id="node19" class="node">
<title>Node19</title>
<g id="a_node19"><a xlink:href="kmt_8c.html#a031a09141c265954f2b609183e573d1c" target="_top" xlink:title="get current cpu&#39;s tasks">
<polygon fill="none" stroke="black" points="380.5,-266.5 380.5,-285.5 456.5,-285.5 456.5,-266.5 380.5,-266.5"/>
<text text-anchor="middle" x="418.5" y="-273.5" font-family="Helvetica,sans-Serif" font-size="10.00">kmt_get_task</text>
</a>
</g>
</g>
<!-- Node1&#45;&gt;Node19 -->
<g id="edge26" class="edge">
<title>Node1&#45;&gt;Node19</title>
<path fill="none" stroke="midnightblue" d="M68.61,-209.52C104.95,-222.38 173.07,-245.06 233,-257 279.19,-266.2 332.82,-271.09 370.31,-273.59"/>
<polygon fill="midnightblue" stroke="midnightblue" points="370.24,-277.09 380.44,-274.24 370.68,-270.11 370.24,-277.09"/>
</g>
<!-- Node20 -->
<g id="node20" class="node">
<title>Node20</title>
<g id="a_node20"><a xlink:href="kmt_8c.html#a0c68a294cecc4be7cb4b495f15b883a0" target="_top" xlink:title="initialize kmt module">
<polygon fill="none" stroke="black" points="132.5,-190.5 132.5,-209.5 183.5,-209.5 183.5,-190.5 132.5,-190.5"/>
<text text-anchor="middle" x="158" y="-197.5" font-family="Helvetica,sans-Serif" font-size="10.00">kmt_init</text>
</a>
</g>
</g>
<!-- Node1&#45;&gt;Node20 -->
<g id="edge28" class="edge">
<title>Node1&#45;&gt;Node20</title>
<path fill="none" stroke="midnightblue" d="M83.19,-200C95.92,-200 109.84,-200 122.13,-200"/>
<polygon fill="midnightblue" stroke="midnightblue" points="122.44,-203.5 132.44,-200 122.44,-196.5 122.44,-203.5"/>
</g>
<!-- Node33 -->
<g id="node33" class="node">
<title>Node33</title>
<g id="a_node33"><a xlink:href="kmt_8c.html#a9ddca6d133a84154c98607bf0ee82c76" target="_top" xlink:title="set cpu&#39;s current task">
<polygon fill="none" stroke="black" points="380.5,-76.5 380.5,-95.5 456.5,-95.5 456.5,-76.5 380.5,-76.5"/>
<text text-anchor="middle" x="418.5" y="-83.5" font-family="Helvetica,sans-Serif" font-size="10.00">kmt_set_task</text>
</a>
</g>
</g>
<!-- Node1&#45;&gt;Node33 -->
<g id="edge56" class="edge">
<title>Node1&#45;&gt;Node33</title>
<path fill="none" stroke="midnightblue" d="M77.37,-190.48C117.19,-179.04 179.12,-159.35 197,-143 224.58,-117.77 201.42,-86.99 233,-67 280.58,-36.89 349.25,-56.78 387.99,-72.41"/>
<polygon fill="midnightblue" stroke="midnightblue" points="387.05,-75.81 397.63,-76.46 389.76,-69.36 387.05,-75.81"/>
</g>
<!-- Node36 -->
<g id="node36" class="node">
<title>Node36</title>
<g id="a_node36"><a xlink:href="kmt_8c.html#a47d8887c87041abd5ea3148232b65c93" target="_top" xlink:title="tear down a thread">
<polygon fill="none" stroke="black" points="119,-451.5 119,-470.5 197,-470.5 197,-451.5 119,-451.5"/>
<text text-anchor="middle" x="158" y="-458.5" font-family="Helvetica,sans-Serif" font-size="10.00">kmt_teardown</text>
</a>
</g>
</g>
<!-- Node1&#45;&gt;Node36 -->
<g id="edge57" class="edge">
<title>Node1&#45;&gt;Node36</title>
<path fill="none" stroke="midnightblue" d="M43.63,-209.76C47.93,-243.52 65.87,-357.37 119,-432 122.52,-436.94 127.12,-441.42 131.9,-445.3"/>
<polygon fill="midnightblue" stroke="midnightblue" points="129.83,-448.13 139.96,-451.24 133.99,-442.49 129.83,-448.13"/>
</g>
<!-- Node37 -->
<g id="node37" class="node">
<title>Node37</title>
<g id="a_node37"><a xlink:href="sem_8c.html#a07341aaf6201983d7c7b9ea1b69975f9" target="_top" xlink:title=" ">
<polygon fill="none" stroke="black" points="131.5,-114.5 131.5,-133.5 184.5,-133.5 184.5,-114.5 131.5,-114.5"/>
<text text-anchor="middle" x="158" y="-121.5" font-family="Helvetica,sans-Serif" font-size="10.00">sem_init</text>
</a>
</g>
</g>
<!-- Node1&#45;&gt;Node37 -->
<g id="edge61" class="edge">
<title>Node1&#45;&gt;Node37</title>
<path fill="none" stroke="midnightblue" d="M56.23,-190.47C71.46,-179.93 96.84,-162.52 119,-148 123.45,-145.08 128.23,-142.01 132.85,-139.08"/>
<polygon fill="midnightblue" stroke="midnightblue" points="134.8,-141.99 141.39,-133.69 131.07,-136.07 134.8,-141.99"/>
</g>
<!-- Node38 -->
<g id="node38" class="node">
<title>Node38</title>
<g id="a_node38"><a xlink:href="sem_8c.html#ad994e433f3a6bf8626272437cb54c114" target="_top" xlink:title=" ">
<polygon fill="none" stroke="black" points="125,-76.5 125,-95.5 191,-95.5 191,-76.5 125,-76.5"/>
<text text-anchor="middle" x="158" y="-83.5" font-family="Helvetica,sans-Serif" font-size="10.00">sem_signal</text>
</a>
</g>
</g>
<!-- Node1&#45;&gt;Node38 -->
<g id="edge62" class="edge">
<title>Node1&#45;&gt;Node38</title>
<path fill="none" stroke="midnightblue" d="M48.34,-190.23C59.86,-171.62 87.18,-130.64 119,-105 120.82,-103.53 122.77,-102.14 124.79,-100.82"/>
<polygon fill="midnightblue" stroke="midnightblue" points="127.02,-103.58 133.93,-95.55 123.52,-97.52 127.02,-103.58"/>
</g>
<!-- Node39 -->
<g id="node39" class="node">
<title>Node39</title>
<g id="a_node39"><a xlink:href="sem_8c.html#a85ca67864bb0af1966a5c2463bd16fe8" target="_top" xlink:title=" ">
<polygon fill="none" stroke="black" points="128.5,-38.5 128.5,-57.5 187.5,-57.5 187.5,-38.5 128.5,-38.5"/>
<text text-anchor="middle" x="158" y="-45.5" font-family="Helvetica,sans-Serif" font-size="10.00">sem_wait</text>
</a>
</g>
</g>
<!-- Node1&#45;&gt;Node39 -->
<g id="edge63" class="edge">
<title>Node1&#45;&gt;Node39</title>
<path fill="none" stroke="midnightblue" d="M45.79,-190.38C54.36,-166.6 79.47,-104.29 119,-67 120.45,-65.63 122.01,-64.34 123.66,-63.13"/>
<polygon fill="midnightblue" stroke="midnightblue" points="125.71,-65.97 132.31,-57.69 121.98,-60.05 125.71,-65.97"/>
</g>
<!-- Node40 -->
<g id="node40" class="node">
<title>Node40</title>
<g id="a_node40"><a xlink:href="spinlock_8c.html#ab80f529a7b9f49f09fc91a404731c869" target="_top" xlink:title="create spinlock">
<polygon fill="none" stroke="black" points="131.5,-0.5 131.5,-19.5 184.5,-19.5 184.5,-0.5 131.5,-0.5"/>
<text text-anchor="middle" x="158" y="-7.5" font-family="Helvetica,sans-Serif" font-size="10.00">spin_init</text>
</a>
</g>
</g>
<!-- Node1&#45;&gt;Node40 -->
<g id="edge64" class="edge">
<title>Node1&#45;&gt;Node40</title>
<path fill="none" stroke="midnightblue" d="M44.45,-190.2C50.54,-161.79 71.75,-78.32 119,-29 120.23,-27.72 121.56,-26.51 122.97,-25.37"/>
<polygon fill="midnightblue" stroke="midnightblue" points="125.24,-28.06 131.63,-19.61 121.36,-22.24 125.24,-28.06"/>
</g>
<!-- Node3 -->
<g id="node3" class="node">
<title>Node3</title>
<g id="a_node3"><a xlink:href="cte_8c.html#a90a17e3cfc268f5b8ed0a92ffda13a58" target="_top" xlink:title=" ">
<polygon fill="none" stroke="black" points="254.5,-342.5 254.5,-361.5 307.5,-361.5 307.5,-342.5 254.5,-342.5"/>
<text text-anchor="middle" x="281" y="-349.5" font-family="Helvetica,sans-Serif" font-size="10.00">kcontext</text>
</a>
</g>
</g>
<!-- Node2&#45;&gt;Node3 -->
<g id="edge2" class="edge">
<title>Node2&#45;&gt;Node3</title>
<path fill="none" stroke="midnightblue" d="M190.79,-366.01C207.14,-363.44 227.14,-360.3 244.05,-357.65"/>
<polygon fill="midnightblue" stroke="midnightblue" points="244.79,-361.07 254.12,-356.06 243.7,-354.16 244.79,-361.07"/>
</g>
<!-- Node5 -->
<g id="node5" class="node">
<title>Node5</title>
<g id="a_node5"><a xlink:href="string_8c.html#a7a8fd43b209c9ea19addab23a5f23995" target="_top" xlink:title=" ">
<polygon fill="none" stroke="black" points="255,-304.5 255,-323.5 307,-323.5 307,-304.5 255,-304.5"/>
<text text-anchor="middle" x="281" y="-311.5" font-family="Helvetica,sans-Serif" font-size="10.00">memset</text>
</a>
</g>
</g>
<!-- Node2&#45;&gt;Node5 -->
<g id="edge4" class="edge">
<title>Node2&#45;&gt;Node5</title>
<path fill="none" stroke="midnightblue" d="M176.42,-361.49C191.28,-353.51 213.3,-342.02 233,-333 237.07,-331.14 241.38,-329.26 245.67,-327.46"/>
<polygon fill="midnightblue" stroke="midnightblue" points="247.03,-330.69 254.94,-323.64 244.36,-324.21 247.03,-330.69"/>
</g>
<!-- Node6 -->
<g id="node6" class="node">
<title>Node6</title>
<g id="a_node6"><a xlink:href="spinlock_8c.html#ad4be0d674a7ca4dc90c2dbf8b34562cc" target="_top" xlink:title="check current cpu has the lock">
<polygon fill="none" stroke="black" points="383,-361.5 383,-380.5 454,-380.5 454,-361.5 383,-361.5"/>
<text text-anchor="middle" x="418.5" y="-368.5" font-family="Helvetica,sans-Serif" font-size="10.00">spin_holding</text>
</a>
</g>
</g>
<!-- Node2&#45;&gt;Node6 -->
<g id="edge5" class="edge">
<title>Node2&#45;&gt;Node6</title>
<path fill="none" stroke="midnightblue" d="M190.7,-371C236.23,-371 320.38,-371 372.39,-371"/>
<polygon fill="midnightblue" stroke="midnightblue" points="372.65,-374.5 382.65,-371 372.65,-367.5 372.65,-374.5"/>
</g>
<!-- Node2&#45;&gt;Node15 -->
<g id="edge17" class="edge">
<title>Node2&#45;&gt;Node15</title>
<path fill="none" stroke="midnightblue" d="M167.7,-380.57C187.92,-402.79 238.32,-458.19 264.17,-486.6"/>
<polygon fill="midnightblue" stroke="midnightblue" points="261.73,-489.12 271.05,-494.16 266.91,-484.41 261.73,-489.12"/>
</g>
<!-- Node2&#45;&gt;Node18 -->
<g id="edge23" class="edge">
<title>Node2&#45;&gt;Node18</title>
<path fill="none" stroke="midnightblue" d="M179.25,-380.54C198.71,-389.71 228.33,-403.66 250.42,-414.07"/>
<polygon fill="midnightblue" stroke="midnightblue" points="249.14,-417.33 259.68,-418.43 252.13,-411 249.14,-417.33"/>
</g>
<!-- Node4 -->
<g id="node4" class="node">
<title>Node4</title>
<g id="a_node4"><a xlink:href="cte_8c.html#a8a4bbd700f2686cea6a3f2d756580237" target="_top" xlink:title=" ">
<polygon fill="none" stroke="black" points="365,-323.5 365,-342.5 472,-342.5 472,-323.5 365,-323.5"/>
<text text-anchor="middle" x="418.5" y="-330.5" font-family="Helvetica,sans-Serif" font-size="10.00">__am_kcontext_start</text>
</a>
</g>
</g>
<!-- Node3&#45;&gt;Node4 -->
<g id="edge3" class="edge">
<title>Node3&#45;&gt;Node4</title>
<path fill="none" stroke="midnightblue" d="M307.81,-348.38C321.16,-346.51 338.1,-344.13 354.64,-341.81"/>
<polygon fill="midnightblue" stroke="midnightblue" points="355.44,-345.24 364.86,-340.38 354.47,-338.3 355.44,-345.24"/>
</g>
<!-- Node7 -->
<g id="node7" class="node">
<title>Node7</title>
<g id="a_node7"><a xlink:href="mpe_8c.html#ab701de78cad32896c923ce900087e714" target="_top" xlink:title=" ">
<polygon fill="none" stroke="black" points="615,-316.5 615,-335.5 683,-335.5 683,-316.5 615,-316.5"/>
<text text-anchor="middle" x="649" y="-323.5" font-family="Helvetica,sans-Serif" font-size="10.00">cpu_current</text>
</a>
</g>
</g>
<!-- Node6&#45;&gt;Node7 -->
<g id="edge6" class="edge">
<title>Node6&#45;&gt;Node7</title>
<path fill="none" stroke="midnightblue" d="M454.2,-364.17C494.54,-356.22 561.14,-343.11 604.8,-334.51"/>
<polygon fill="midnightblue" stroke="midnightblue" points="605.69,-337.9 614.83,-332.53 604.34,-331.03 605.69,-337.9"/>
</g>
<!-- Node8 -->
<g id="node8" class="node">
<title>Node8</title>
<g id="a_node8"><a xlink:href="spinlock_8c.html#afc9565dc7a5ddf77e1fa76f5d91caf78" target="_top" xlink:title="interrupt able">
<polygon fill="none" stroke="black" points="511,-394.5 511,-413.5 576,-413.5 576,-394.5 511,-394.5"/>
<text text-anchor="middle" x="543.5" y="-401.5" font-family="Helvetica,sans-Serif" font-size="10.00">spin_popcli</text>
</a>
</g>
</g>
<!-- Node6&#45;&gt;Node8 -->
<g id="edge7" class="edge">
<title>Node6&#45;&gt;Node8</title>
<path fill="none" stroke="midnightblue" d="M454.09,-380.28C468.66,-384.19 485.74,-388.77 500.99,-392.86"/>
<polygon fill="midnightblue" stroke="midnightblue" points="500.13,-396.26 510.7,-395.47 501.94,-389.5 500.13,-396.26"/>
</g>
<!-- Node12 -->
<g id="node12" class="node">
<title>Node12</title>
<g id="a_node12"><a xlink:href="spinlock_8c.html#ab213874cda54fdbbeb1bec1e5fa90b28" target="_top" xlink:title="interrupt disable">
<polygon fill="none" stroke="black" points="508,-475.5 508,-494.5 579,-494.5 579,-475.5 508,-475.5"/>
<text text-anchor="middle" x="543.5" y="-482.5" font-family="Helvetica,sans-Serif" font-size="10.00">spin_pushcli</text>
</a>
</g>
</g>
<!-- Node6&#45;&gt;Node12 -->
<g id="edge12" class="edge">
<title>Node6&#45;&gt;Node12</title>
<path fill="none" stroke="midnightblue" d="M429.99,-380.72C450.96,-400.15 498.28,-444.01 524.37,-468.2"/>
<polygon fill="midnightblue" stroke="midnightblue" points="522.33,-471.07 532.04,-475.31 527.08,-465.94 522.33,-471.07"/>
</g>
<!-- Node8&#45;&gt;Node7 -->
<g id="edge8" class="edge">
<title>Node8&#45;&gt;Node7</title>
<path fill="none" stroke="midnightblue" d="M557.19,-394.44C574.57,-381.34 606.01,-357.65 626.95,-341.87"/>
<polygon fill="midnightblue" stroke="midnightblue" points="629.33,-344.46 635.21,-335.64 625.11,-338.87 629.33,-344.46"/>
</g>
<!-- Node9 -->
<g id="node9" class="node">
<title>Node9</title>
<g id="a_node9"><a xlink:href="cte_8c.html#a4a139958742786c5085172be1f69bfd0" target="_top" xlink:title=" ">
<polygon fill="none" stroke="black" points="633,-416.5 633,-435.5 665,-435.5 665,-416.5 633,-416.5"/>
<text text-anchor="middle" x="649" y="-423.5" font-family="Helvetica,sans-Serif" font-size="10.00">iset</text>
</a>
</g>
</g>
<!-- Node8&#45;&gt;Node9 -->
<g id="edge9" class="edge">
<title>Node8&#45;&gt;Node9</title>
<path fill="none" stroke="midnightblue" d="M576.12,-410.72C591.09,-413.9 608.72,-417.65 622.77,-420.64"/>
<polygon fill="midnightblue" stroke="midnightblue" points="622.21,-424.1 632.72,-422.75 623.67,-417.25 622.21,-424.1"/>
</g>
<!-- Node10 -->
<g id="node10" class="node">
<title>Node10</title>
<g id="a_node10"><a xlink:href="x86_8h.html#acc919e7809ef1db2b20aa3804f540b5c" target="_top" xlink:title=" ">
<polygon fill="none" stroke="black" points="731.5,-378.5 731.5,-397.5 760.5,-397.5 760.5,-378.5 731.5,-378.5"/>
<text text-anchor="middle" x="746" y="-385.5" font-family="Helvetica,sans-Serif" font-size="10.00">cli</text>
</a>
</g>
</g>
<!-- Node9&#45;&gt;Node10 -->
<g id="edge10" class="edge">
<title>Node9&#45;&gt;Node10</title>
<path fill="none" stroke="midnightblue" d="M665.26,-419.89C680.52,-413.79 704.18,-404.33 721.77,-397.29"/>
<polygon fill="midnightblue" stroke="midnightblue" points="723.33,-400.44 731.32,-393.47 720.73,-393.94 723.33,-400.44"/>
</g>
<!-- Node11 -->
<g id="node11" class="node">
<title>Node11</title>
<g id="a_node11"><a xlink:href="x86_8h.html#a4657e97b270d7af5a23da2c4d642ada2" target="_top" xlink:title=" ">
<polygon fill="none" stroke="black" points="731.5,-416.5 731.5,-435.5 760.5,-435.5 760.5,-416.5 731.5,-416.5"/>
<text text-anchor="middle" x="746" y="-423.5" font-family="Helvetica,sans-Serif" font-size="10.00">sti</text>
</a>
</g>
</g>
<!-- Node9&#45;&gt;Node11 -->
<g id="edge11" class="edge">
<title>Node9&#45;&gt;Node11</title>
<path fill="none" stroke="midnightblue" d="M665.26,-426C680.38,-426 703.74,-426 721.28,-426"/>
<polygon fill="midnightblue" stroke="midnightblue" points="721.32,-429.5 731.32,-426 721.32,-422.5 721.32,-429.5"/>
</g>
<!-- Node12&#45;&gt;Node7 -->
<g id="edge13" class="edge">
<title>Node12&#45;&gt;Node7</title>
<path fill="none" stroke="midnightblue" d="M561.62,-475.48C567.63,-471.55 574.11,-466.61 579,-461 610.02,-425.47 631.43,-373.52 641.47,-345.56"/>
<polygon fill="midnightblue" stroke="midnightblue" points="644.89,-346.38 644.87,-335.79 638.28,-344.08 644.89,-346.38"/>
</g>
<!-- Node12&#45;&gt;Node9 -->
<g id="edge16" class="edge">
<title>Node12&#45;&gt;Node9</title>
<path fill="none" stroke="midnightblue" d="M561.59,-475.26C578.66,-465.53 605.05,-450.48 624.17,-439.58"/>
<polygon fill="midnightblue" stroke="midnightblue" points="625.95,-442.6 632.91,-434.6 622.48,-436.52 625.95,-442.6"/>
</g>
<!-- Node13 -->
<g id="node13" class="node">
<title>Node13</title>
<g id="a_node13"><a xlink:href="cte_8c.html#a79659a2b801c42951e38f3a8821acbae" target="_top" xlink:title=" ">
<polygon fill="none" stroke="black" points="622.5,-475.5 622.5,-494.5 675.5,-494.5 675.5,-475.5 622.5,-475.5"/>
<text text-anchor="middle" x="649" y="-482.5" font-family="Helvetica,sans-Serif" font-size="10.00">ienabled</text>
</a>
</g>
</g>
<!-- Node12&#45;&gt;Node13 -->
<g id="edge14" class="edge">
<title>Node12&#45;&gt;Node13</title>
<path fill="none" stroke="midnightblue" d="M579.25,-485C589.82,-485 601.46,-485 612.1,-485"/>
<polygon fill="midnightblue" stroke="midnightblue" points="612.34,-488.5 622.34,-485 612.34,-481.5 612.34,-488.5"/>
</g>
<!-- Node14 -->
<g id="node14" class="node">
<title>Node14</title>
<g id="a_node14"><a xlink:href="x86_8h.html#a73d094f09c6a7dd3fc703aa8229933ee" target="_top" xlink:title=" ">
<polygon fill="none" stroke="black" points="723.5,-475.5 723.5,-494.5 768.5,-494.5 768.5,-475.5 723.5,-475.5"/>
<text text-anchor="middle" x="746" y="-482.5" font-family="Helvetica,sans-Serif" font-size="10.00">get_efl</text>
</a>
</g>
</g>
<!-- Node13&#45;&gt;Node14 -->
<g id="edge15" class="edge">
<title>Node13&#45;&gt;Node14</title>
<path fill="none" stroke="midnightblue" d="M675.96,-485C687.43,-485 701.03,-485 713.11,-485"/>
<polygon fill="midnightblue" stroke="midnightblue" points="713.25,-488.5 723.25,-485 713.25,-481.5 713.25,-488.5"/>
</g>
<!-- Node15&#45;&gt;Node6 -->
<g id="edge21" class="edge">
<title>Node15&#45;&gt;Node6</title>
<path fill="none" stroke="midnightblue" d="M305.73,-494.43C313.6,-490.61 322.1,-485.75 329,-480 349.22,-463.16 348.49,-453.49 365,-433 377.37,-417.65 391.88,-400.58 402.5,-388.25"/>
<polygon fill="midnightblue" stroke="midnightblue" points="405.27,-390.4 409.17,-380.54 399.98,-385.82 405.27,-390.4"/>
</g>
<!-- Node15&#45;&gt;Node7 -->
<g id="edge20" class="edge">
<title>Node15&#45;&gt;Node7</title>
<path fill="none" stroke="midnightblue" d="M310.25,-497.44C380.03,-481.08 556.57,-438.66 579,-423 607.67,-402.99 628.59,-367.05 639.47,-344.99"/>
<polygon fill="midnightblue" stroke="midnightblue" points="642.77,-346.2 643.88,-335.67 636.44,-343.21 642.77,-346.2"/>
</g>
<!-- Node15&#45;&gt;Node12 -->
<g id="edge22" class="edge">
<title>Node15&#45;&gt;Node12</title>
<path fill="none" stroke="midnightblue" d="M310.37,-501.93C355.5,-498.64 443.99,-492.19 497.73,-488.27"/>
<polygon fill="midnightblue" stroke="midnightblue" points="498.27,-491.74 507.99,-487.52 497.76,-484.75 498.27,-491.74"/>
</g>
<!-- Node16 -->
<g id="node16" class="node">
<title>Node16</title>
<g id="a_node16"><a xlink:href="mpe_8c.html#aaaad47c97c82065cf463f83b98b23c30" target="_top" xlink:title=" ">
<polygon fill="none" stroke="black" points="383,-513.5 383,-532.5 454,-532.5 454,-513.5 383,-513.5"/>
<text text-anchor="middle" x="418.5" y="-520.5" font-family="Helvetica,sans-Serif" font-size="10.00">atomic_xchg</text>
</a>
</g>
</g>
<!-- Node15&#45;&gt;Node16 -->
<g id="edge18" class="edge">
<title>Node15&#45;&gt;Node16</title>
<path fill="none" stroke="midnightblue" d="M310.08,-507.94C328.11,-510.47 351.94,-513.81 372.58,-516.7"/>
<polygon fill="midnightblue" stroke="midnightblue" points="372.33,-520.2 382.72,-518.12 373.3,-513.27 372.33,-520.2"/>
</g>
<!-- Node17 -->
<g id="node17" class="node">
<title>Node17</title>
<g id="a_node17"><a xlink:href="x86_8h.html#a48b2a6a16dc8d7e09d327aa3803f1112" target="_top" xlink:title=" ">
<polygon fill="none" stroke="black" points="525,-513.5 525,-532.5 562,-532.5 562,-513.5 525,-513.5"/>
<text text-anchor="middle" x="543.5" y="-520.5" font-family="Helvetica,sans-Serif" font-size="10.00">xchg</text>
</a>
</g>
</g>
<!-- Node16&#45;&gt;Node17 -->
<g id="edge19" class="edge">
<title>Node16&#45;&gt;Node17</title>
<path fill="none" stroke="midnightblue" d="M454.09,-523C473.24,-523 496.74,-523 514.69,-523"/>
<polygon fill="midnightblue" stroke="midnightblue" points="514.81,-526.5 524.81,-523 514.81,-519.5 514.81,-526.5"/>
</g>
<!-- Node18&#45;&gt;Node6 -->
<g id="edge24" class="edge">
<title>Node18&#45;&gt;Node6</title>
<path fill="none" stroke="midnightblue" d="M304.68,-418.46C326.76,-409.17 360.53,-394.96 385.37,-384.51"/>
<polygon fill="midnightblue" stroke="midnightblue" points="386.89,-387.68 394.75,-380.57 384.17,-381.22 386.89,-387.68"/>
</g>
<!-- Node18&#45;&gt;Node8 -->
<g id="edge25" class="edge">
<title>Node18&#45;&gt;Node8</title>
<path fill="none" stroke="midnightblue" d="M315.26,-424.94C362.48,-420.59 448.94,-412.62 500.52,-407.87"/>
<polygon fill="midnightblue" stroke="midnightblue" points="501.03,-411.34 510.66,-406.93 500.38,-404.37 501.03,-411.34"/>
</g>
<!-- Node19&#45;&gt;Node7 -->
<g id="edge27" class="edge">
<title>Node19&#45;&gt;Node7</title>
<path fill="none" stroke="midnightblue" d="M456.72,-284.14C497.35,-293.03 562.29,-307.25 605.05,-316.6"/>
<polygon fill="midnightblue" stroke="midnightblue" points="604.36,-320.03 614.88,-318.75 605.86,-313.2 604.36,-320.03"/>
</g>
<!-- Node20&#45;&gt;Node5 -->
<g id="edge55" class="edge">
<title>Node20&#45;&gt;Node5</title>
<path fill="none" stroke="midnightblue" d="M169.32,-209.72C189.94,-229.15 236.49,-273.01 262.17,-297.2"/>
<polygon fill="midnightblue" stroke="midnightblue" points="260.03,-300 269.71,-304.31 264.83,-294.9 260.03,-300"/>
</g>
<!-- Node21 -->
<g id="node21" class="node">
<title>Node21</title>
<g id="a_node21"><a xlink:href="kmt_8c.html#af9c485ce0d89d6624e6e80e31d8ed207" target="_top" xlink:title="handler: save context to current task">
<polygon fill="none" stroke="black" points="233,-228.5 233,-247.5 329,-247.5 329,-228.5 233,-228.5"/>
<text text-anchor="middle" x="281" y="-235.5" font-family="Helvetica,sans-Serif" font-size="10.00">kmt_context_save</text>
</a>
</g>
</g>
<!-- Node20&#45;&gt;Node21 -->
<g id="edge29" class="edge">
<title>Node20&#45;&gt;Node21</title>
<path fill="none" stroke="midnightblue" d="M183.78,-207.78C199.95,-212.86 221.44,-219.61 240,-225.44"/>
<polygon fill="midnightblue" stroke="midnightblue" points="239.09,-228.82 249.68,-228.48 241.19,-222.14 239.09,-228.82"/>
</g>
<!-- Node22 -->
<g id="node22" class="node">
<title>Node22</title>
<g id="a_node22"><a xlink:href="kmt_8c.html#ad3fbc643b7b6092120c5152b4c890354" target="_top" xlink:title="handler: handle program errors">
<polygon fill="none" stroke="black" points="252,-152.5 252,-171.5 310,-171.5 310,-152.5 252,-152.5"/>
<text text-anchor="middle" x="281" y="-159.5" font-family="Helvetica,sans-Serif" font-size="10.00">kmt_error</text>
</a>
</g>
</g>
<!-- Node20&#45;&gt;Node22 -->
<g id="edge33" class="edge">
<title>Node20&#45;&gt;Node22</title>
<path fill="none" stroke="midnightblue" d="M183.78,-192.22C200.62,-186.93 223.21,-179.84 242.27,-173.85"/>
<polygon fill="midnightblue" stroke="midnightblue" points="243.37,-177.17 251.87,-170.84 241.28,-170.49 243.37,-177.17"/>
</g>
<!-- Node32 -->
<g id="node32" class="node">
<title>Node32</title>
<g id="a_node32"><a xlink:href="kmt_8c.html#ad4d70b4093829da1c0b0631abdff7747" target="_top" xlink:title="handler: schedule next task to run Notice: this should be the only handler which returns real Context">
<polygon fill="none" stroke="black" points="242.5,-114.5 242.5,-133.5 319.5,-133.5 319.5,-114.5 242.5,-114.5"/>
<text text-anchor="middle" x="281" y="-121.5" font-family="Helvetica,sans-Serif" font-size="10.00">kmt_schedule</text>
</a>
</g>
</g>
<!-- Node20&#45;&gt;Node32 -->
<g id="edge45" class="edge">
<title>Node20&#45;&gt;Node32</title>
<path fill="none" stroke="midnightblue" d="M175.7,-190.34C182.5,-186.19 190.3,-181.12 197,-176 214.24,-162.82 214.65,-154.59 233,-143 235.92,-141.16 239.04,-139.44 242.24,-137.84"/>
<polygon fill="midnightblue" stroke="midnightblue" points="243.72,-141.01 251.36,-133.68 240.81,-134.65 243.72,-141.01"/>
</g>
<!-- Node34 -->
<g id="node34" class="node">
<title>Node34</title>
<g id="a_node34"><a xlink:href="kmt_8c.html#a046a92c2d695ccdd1ad42210135ed597" target="_top" xlink:title="handler: triggered when aipc timer fired up">
<polygon fill="none" stroke="black" points="251,-190.5 251,-209.5 311,-209.5 311,-190.5 251,-190.5"/>
<text text-anchor="middle" x="281" y="-197.5" font-family="Helvetica,sans-Serif" font-size="10.00">kmt_timer</text>
</a>
</g>
</g>
<!-- Node20&#45;&gt;Node34 -->
<g id="edge53" class="edge">
<title>Node20&#45;&gt;Node34</title>
<path fill="none" stroke="midnightblue" d="M183.78,-200C200.23,-200 222.17,-200 240.95,-200"/>
<polygon fill="midnightblue" stroke="midnightblue" points="241,-203.5 251,-200 241,-196.5 241,-203.5"/>
</g>
<!-- Node35 -->
<g id="node35" class="node">
<title>Node35</title>
<g id="a_node35"><a xlink:href="kmt_8c.html#a75ea8dbba16d64a343a45962bd593930" target="_top" xlink:title="handler: handle yield interrupt (0x81)">
<polygon fill="none" stroke="black" points="252,-76.5 252,-95.5 310,-95.5 310,-76.5 252,-76.5"/>
<text text-anchor="middle" x="281" y="-83.5" font-family="Helvetica,sans-Serif" font-size="10.00">kmt_yield</text>
</a>
</g>
</g>
<!-- Node20&#45;&gt;Node35 -->
<g id="edge54" class="edge">
<title>Node20&#45;&gt;Node35</title>
<path fill="none" stroke="midnightblue" d="M178.68,-190.32C185.08,-186.5 191.85,-181.66 197,-176 220.81,-149.83 206.94,-128.93 233,-105 235.82,-102.41 239.05,-100.15 242.45,-98.18"/>
<polygon fill="midnightblue" stroke="midnightblue" points="244.3,-101.17 251.74,-93.64 241.22,-94.88 244.3,-101.17"/>
</g>
<!-- Node21&#45;&gt;Node6 -->
<g id="edge32" class="edge">
<title>Node21&#45;&gt;Node6</title>
<path fill="none" stroke="midnightblue" d="M290.71,-247.79C300.46,-258.91 316.52,-277.75 329,-295 346.57,-319.27 341.65,-333.22 365,-352 367.61,-354.1 370.46,-355.97 373.46,-357.65"/>
<polygon fill="midnightblue" stroke="midnightblue" points="372.2,-360.93 382.73,-362.11 375.23,-354.62 372.2,-360.93"/>
</g>
<!-- Node21&#45;&gt;Node7 -->
<g id="edge30" class="edge">
<title>Node21&#45;&gt;Node7</title>
<path fill="none" stroke="midnightblue" d="M329.28,-239.88C367.99,-242.11 423.99,-246.87 472,-257 520.96,-267.33 532.66,-273.12 579,-292 593.29,-297.82 608.74,-305.32 621.39,-311.79"/>
<polygon fill="midnightblue" stroke="midnightblue" points="619.96,-314.99 630.45,-316.49 623.18,-308.78 619.96,-314.99"/>
</g>
<!-- Node21&#45;&gt;Node19 -->
<g id="edge31" class="edge">
<title>Node21&#45;&gt;Node19</title>
<path fill="none" stroke="midnightblue" d="M316.19,-247.59C333.6,-252.47 354.97,-258.46 373.59,-263.68"/>
<polygon fill="midnightblue" stroke="midnightblue" points="372.74,-267.08 383.32,-266.41 374.64,-260.34 372.74,-267.08"/>
</g>
<!-- Node22&#45;&gt;Node6 -->
<g id="edge44" class="edge">
<title>Node22&#45;&gt;Node6</title>
<path fill="none" stroke="midnightblue" d="M310.22,-168.33C317.24,-171.15 324.14,-175.2 329,-181 378.86,-240.55 314.05,-293.38 365,-352 367.5,-354.88 370.47,-357.32 373.71,-359.39"/>
<polygon fill="midnightblue" stroke="midnightblue" points="372.27,-362.58 382.76,-364.05 375.47,-356.36 372.27,-362.58"/>
</g>
<!-- Node23 -->
<g id="node23" class="node">
<title>Node23</title>
<g id="a_node23"><a xlink:href="kmt_8c.html#a0ac321d3074b24b276695a080e835866" target="_top" xlink:title="print all tasks notice: do not garantee concurrency safety">
<polygon fill="none" stroke="black" points="368,-114.5 368,-133.5 469,-133.5 469,-114.5 368,-114.5"/>
<text text-anchor="middle" x="418.5" y="-121.5" font-family="Helvetica,sans-Serif" font-size="10.00">kmt_print_all_tasks</text>
</a>
</g>
</g>
<!-- Node22&#45;&gt;Node23 -->
<g id="edge34" class="edge">
<title>Node22&#45;&gt;Node23</title>
<path fill="none" stroke="midnightblue" d="M310.08,-154.13C328.33,-149.01 352.51,-142.22 373.31,-136.39"/>
<polygon fill="midnightblue" stroke="midnightblue" points="374.53,-139.69 383.21,-133.62 372.64,-132.95 374.53,-139.69"/>
</g>
<!-- Node30 -->
<g id="node30" class="node">
<title>Node30</title>
<g id="a_node30"><a xlink:href="kmt_8c.html#ac69761d0146d9aacda65da757868d3c7" target="_top" xlink:title="print all current_tasks notice: do not garantee concurrency safety">
<polygon fill="none" stroke="black" points="365,-152.5 365,-171.5 472,-171.5 472,-152.5 365,-152.5"/>
<text text-anchor="middle" x="418.5" y="-159.5" font-family="Helvetica,sans-Serif" font-size="10.00">kmt_print_cpu_tasks</text>
</a>
</g>
</g>
<!-- Node22&#45;&gt;Node30 -->
<g id="edge41" class="edge">
<title>Node22&#45;&gt;Node30</title>
<path fill="none" stroke="midnightblue" d="M310.08,-162C323.05,-162 339.02,-162 354.64,-162"/>
<polygon fill="midnightblue" stroke="midnightblue" points="354.82,-165.5 364.82,-162 354.82,-158.5 354.82,-165.5"/>
</g>
<!-- Node24 -->
<g id="node24" class="node">
<title>Node24</title>
<g id="a_node24"><a xlink:href="stdio_8c.html#a55f3d956bb2ba20b5059e9e25484a47f" target="_top" xlink:title=" ">
<polygon fill="none" stroke="black" points="524.5,-114.5 524.5,-133.5 562.5,-133.5 562.5,-114.5 524.5,-114.5"/>
<text text-anchor="middle" x="543.5" y="-121.5" font-family="Helvetica,sans-Serif" font-size="10.00">printf</text>
</a>
</g>
</g>
<!-- Node23&#45;&gt;Node24 -->
<g id="edge35" class="edge">
<title>Node23&#45;&gt;Node24</title>
<path fill="none" stroke="midnightblue" d="M469.17,-124C484.54,-124 500.92,-124 514.3,-124"/>
<polygon fill="midnightblue" stroke="midnightblue" points="514.3,-127.5 524.3,-124 514.3,-120.5 514.3,-127.5"/>
</g>
<!-- Node25 -->
<g id="node25" class="node">
<title>Node25</title>
<g id="a_node25"><a xlink:href="stdio_8c.html#a44a6734c6f8f81d8e1fa3b9d476c5134" target="_top" xlink:title="write bytes (including the terminating null byte (&#39;\0&#39;)) to out.">
<polygon fill="none" stroke="black" points="624.5,-114.5 624.5,-133.5 673.5,-133.5 673.5,-114.5 624.5,-114.5"/>
<text text-anchor="middle" x="649" y="-121.5" font-family="Helvetica,sans-Serif" font-size="10.00">vsprintf</text>
</a>
</g>
</g>
<!-- Node24&#45;&gt;Node25 -->
<g id="edge36" class="edge">
<title>Node24&#45;&gt;Node25</title>
<path fill="none" stroke="midnightblue" d="M562.53,-124C576.73,-124 596.92,-124 614.11,-124"/>
<polygon fill="midnightblue" stroke="midnightblue" points="614.35,-127.5 624.35,-124 614.35,-120.5 614.35,-127.5"/>
</g>
<!-- Node26 -->
<g id="node26" class="node">
<title>Node26</title>
<g id="a_node26"><a xlink:href="stdio_8c.html#abf852e417a205348767989f2940059ad" target="_top" xlink:title="write at most n bytes (including the terminating null byte (&#39;\0&#39;)) to out.">
<polygon fill="none" stroke="black" points="719,-114.5 719,-133.5 773,-133.5 773,-114.5 719,-114.5"/>
<text text-anchor="middle" x="746" y="-121.5" font-family="Helvetica,sans-Serif" font-size="10.00">vsnprintf</text>
</a>
</g>
</g>
<!-- Node25&#45;&gt;Node26 -->
<g id="edge37" class="edge">
<title>Node25&#45;&gt;Node26</title>
<path fill="none" stroke="midnightblue" d="M673.97,-124C684.41,-124 696.87,-124 708.43,-124"/>
<polygon fill="midnightblue" stroke="midnightblue" points="708.69,-127.5 718.69,-124 708.69,-120.5 708.69,-127.5"/>
</g>
<!-- Node27 -->
<g id="node27" class="node">
<title>Node27</title>
<g id="a_node27"><a xlink:href="stdio_8c.html#a0e2811092b514de48ac2dd675d6cf2b4" target="_top" xlink:title="print decimal into buffer,return length">
<polygon fill="none" stroke="black" points="809,-152.5 809,-171.5 868,-171.5 868,-152.5 809,-152.5"/>
<text text-anchor="middle" x="838.5" y="-159.5" font-family="Helvetica,sans-Serif" font-size="10.00">print_num</text>
</a>
</g>
</g>
<!-- Node26&#45;&gt;Node27 -->
<g id="edge38" class="edge">
<title>Node26&#45;&gt;Node27</title>
<path fill="none" stroke="midnightblue" d="M769.84,-133.59C780.56,-138.09 793.52,-143.53 805.22,-148.44"/>
<polygon fill="midnightblue" stroke="midnightblue" points="804.1,-151.77 814.67,-152.41 806.81,-145.32 804.1,-151.77"/>
</g>
<!-- Node28 -->
<g id="node28" class="node">
<title>Node28</title>
<g id="a_node28"><a xlink:href="string_8c.html#aa383452fe445bfae989358c9d7d96f4f" target="_top" xlink:title=" ">
<polygon fill="none" stroke="black" points="818,-114.5 818,-133.5 859,-133.5 859,-114.5 818,-114.5"/>
<text text-anchor="middle" x="838.5" y="-121.5" font-family="Helvetica,sans-Serif" font-size="10.00">strlen</text>
</a>
</g>
</g>
<!-- Node26&#45;&gt;Node28 -->
<g id="edge39" class="edge">
<title>Node26&#45;&gt;Node28</title>
<path fill="none" stroke="midnightblue" d="M773.18,-124C784.02,-124 796.64,-124 807.82,-124"/>
<polygon fill="midnightblue" stroke="midnightblue" points="808,-127.5 818,-124 808,-120.5 808,-127.5"/>
</g>
<!-- Node29 -->
<g id="node29" class="node">
<title>Node29</title>
<g id="a_node29"><a xlink:href="string_8c.html#a82f08f2390a9067f3c94b638e90e03bd" target="_top" xlink:title=" ">
<polygon fill="none" stroke="black" points="814.5,-76.5 814.5,-95.5 862.5,-95.5 862.5,-76.5 814.5,-76.5"/>
<text text-anchor="middle" x="838.5" y="-83.5" font-family="Helvetica,sans-Serif" font-size="10.00">strncpy</text>
</a>
</g>
</g>
<!-- Node26&#45;&gt;Node29 -->
<g id="edge40" class="edge">
<title>Node26&#45;&gt;Node29</title>
<path fill="none" stroke="midnightblue" d="M769.84,-114.41C780.56,-109.91 793.52,-104.47 805.22,-99.56"/>
<polygon fill="midnightblue" stroke="midnightblue" points="806.81,-102.68 814.67,-95.59 804.1,-96.23 806.81,-102.68"/>
</g>
<!-- Node30&#45;&gt;Node24 -->
<g id="edge43" class="edge">
<title>Node30&#45;&gt;Node24</title>
<path fill="none" stroke="midnightblue" d="M450.54,-152.41C470.32,-146.3 495.74,-138.45 514.84,-132.55"/>
<polygon fill="midnightblue" stroke="midnightblue" points="515.93,-135.87 524.45,-129.58 513.86,-129.18 515.93,-135.87"/>
</g>
<!-- Node31 -->
<g id="node31" class="node">
<title>Node31</title>
<g id="a_node31"><a xlink:href="mpe_8c.html#af486ec575d47720d28eee63644206110" target="_top" xlink:title=" ">
<polygon fill="none" stroke="black" points="512.5,-152.5 512.5,-171.5 574.5,-171.5 574.5,-152.5 512.5,-152.5"/>
<text text-anchor="middle" x="543.5" y="-159.5" font-family="Helvetica,sans-Serif" font-size="10.00">cpu_count</text>
</a>
</g>
</g>
<!-- Node30&#45;&gt;Node31 -->
<g id="edge42" class="edge">
<title>Node30&#45;&gt;Node31</title>
<path fill="none" stroke="midnightblue" d="M472.02,-162C482.09,-162 492.49,-162 502.1,-162"/>
<polygon fill="midnightblue" stroke="midnightblue" points="502.18,-165.5 512.18,-162 502.18,-158.5 502.18,-165.5"/>
</g>
<!-- Node32&#45;&gt;Node6 -->
<g id="edge52" class="edge">
<title>Node32&#45;&gt;Node6</title>
<path fill="none" stroke="midnightblue" d="M317.57,-133.64C321.92,-136.1 325.91,-139.16 329,-143 388.17,-216.37 304.49,-279.73 365,-352 367.48,-354.96 370.46,-357.46 373.72,-359.57"/>
<polygon fill="midnightblue" stroke="midnightblue" points="372.39,-362.82 382.88,-364.3 375.6,-356.6 372.39,-362.82"/>
</g>
<!-- Node32&#45;&gt;Node7 -->
<g id="edge46" class="edge">
<title>Node32&#45;&gt;Node7</title>
<path fill="none" stroke="midnightblue" d="M311.33,-133.59C317.42,-136.2 323.62,-139.33 329,-143 348.22,-156.1 345.61,-168.15 365,-181 449.65,-237.08 492.79,-207.35 579,-261 600.02,-274.08 620.17,-294.24 633.21,-308.64"/>
<polygon fill="midnightblue" stroke="midnightblue" points="630.78,-311.17 640.02,-316.35 636.02,-306.54 630.78,-311.17"/>
</g>
<!-- Node32&#45;&gt;Node19 -->
<g id="edge47" class="edge">
<title>Node32&#45;&gt;Node19</title>
<path fill="none" stroke="midnightblue" d="M314.66,-133.6C319.84,-136.1 324.85,-139.19 329,-143 355.06,-166.93 345.44,-184.52 365,-214 375.77,-230.23 390.2,-247 401.21,-258.99"/>
<polygon fill="midnightblue" stroke="midnightblue" points="398.81,-261.55 408.2,-266.47 403.93,-256.78 398.81,-261.55"/>
</g>
<!-- Node32&#45;&gt;Node23 -->
<g id="edge48" class="edge">
<title>Node32&#45;&gt;Node23</title>
<path fill="none" stroke="midnightblue" d="M319.74,-124C331.48,-124 344.73,-124 357.59,-124"/>
<polygon fill="midnightblue" stroke="midnightblue" points="357.79,-127.5 367.79,-124 357.79,-120.5 357.79,-127.5"/>
</g>
<!-- Node32&#45;&gt;Node30 -->
<g id="edge49" class="edge">
<title>Node32&#45;&gt;Node30</title>
<path fill="none" stroke="midnightblue" d="M316.19,-133.59C333.6,-138.47 354.97,-144.46 373.59,-149.68"/>
<polygon fill="midnightblue" stroke="midnightblue" points="372.74,-153.08 383.32,-152.41 374.64,-146.34 372.74,-153.08"/>
</g>
<!-- Node32&#45;&gt;Node33 -->
<g id="edge50" class="edge">
<title>Node32&#45;&gt;Node33</title>
<path fill="none" stroke="midnightblue" d="M316.19,-114.41C333.6,-109.53 354.97,-103.54 373.59,-98.32"/>
<polygon fill="midnightblue" stroke="midnightblue" points="374.64,-101.66 383.32,-95.59 372.74,-94.92 374.64,-101.66"/>
</g>
<!-- Node33&#45;&gt;Node7 -->
<g id="edge51" class="edge">
<title>Node33&#45;&gt;Node7</title>
<path fill="none" stroke="midnightblue" d="M456.83,-79.84C492.3,-76.2 545.11,-76.84 579,-105 640.71,-156.28 648.14,-261.97 648.41,-306.03"/>
<polygon fill="midnightblue" stroke="midnightblue" points="644.91,-306.04 648.35,-316.06 651.91,-306.08 644.91,-306.04"/>
</g>
<!-- Node36&#45;&gt;Node6 -->
<g id="edge58" class="edge">
<title>Node36&#45;&gt;Node6</title>
<path fill="none" stroke="midnightblue" d="M197.04,-464.41C232.57,-466.12 286.38,-464.81 329,-447 359.51,-434.25 387.1,-406.85 403.09,-388.67"/>
<polygon fill="midnightblue" stroke="midnightblue" points="406.15,-390.47 409.97,-380.59 400.82,-385.94 406.15,-390.47"/>
</g>
<!-- Node36&#45;&gt;Node15 -->
<g id="edge59" class="edge">
<title>Node36&#45;&gt;Node15</title>
<path fill="none" stroke="midnightblue" d="M185.85,-470.54C202.85,-476.58 225.04,-484.47 243.61,-491.07"/>
<polygon fill="midnightblue" stroke="midnightblue" points="242.63,-494.43 253.22,-494.48 244.97,-487.84 242.63,-494.43"/>
</g>
<!-- Node36&#45;&gt;Node18 -->
<g id="edge60" class="edge">
<title>Node36&#45;&gt;Node18</title>
<path fill="none" stroke="midnightblue" d="M194,-451.46C207.37,-447.81 222.77,-443.61 236.81,-439.78"/>
<polygon fill="midnightblue" stroke="midnightblue" points="238.02,-443.08 246.74,-437.07 236.18,-436.32 238.02,-443.08"/>
</g>
</g>
</svg>
