<?xml version="1.0" encoding="UTF-8" standalone="no"?>
<!DOCTYPE svg PUBLIC "-//W3C//DTD SVG 1.1//EN"
 "http://www.w3.org/Graphics/SVG/1.1/DTD/svg11.dtd">
<!-- Generated by graphviz version 3.0.0 (20220413.0106)
 -->
<!-- Title: kmt_context_save Pages: 1 -->
<svg width="612pt" height="294pt"
 viewBox="0.00 0.00 612.00 294.00" xmlns="http://www.w3.org/2000/svg" xmlns:xlink="http://www.w3.org/1999/xlink">
<g id="graph0" class="graph" transform="scale(1 1) rotate(0) translate(4 290)">
<title>kmt_context_save</title>
<!-- Node1 -->
<g id="node1" class="node">
<title>Node1</title>
<g id="a_node1"><a xlink:title="handler: save context to current task">
<polygon fill="#bfbfbf" stroke="black" points="0,-152.5 0,-171.5 96,-171.5 96,-152.5 0,-152.5"/>
<text text-anchor="middle" x="48" y="-159.5" font-family="Helvetica,sans-Serif" font-size="10.00">kmt_context_save</text>
</a>
</g>
</g>
<!-- Node2 -->
<g id="node2" class="node">
<title>Node2</title>
<g id="a_node2"><a xlink:href="mpe_8c.html#ab701de78cad32896c923ce900087e714" target="_top" xlink:title=" ">
<polygon fill="none" stroke="black" points="455,-152.5 455,-171.5 523,-171.5 523,-152.5 455,-152.5"/>
<text text-anchor="middle" x="489" y="-159.5" font-family="Helvetica,sans-Serif" font-size="10.00">cpu_current</text>
</a>
</g>
</g>
<!-- Node1&#45;&gt;Node2 -->
<g id="edge1" class="edge">
<title>Node1&#45;&gt;Node2</title>
<path fill="none" stroke="midnightblue" d="M78.74,-171.54C142.2,-190.45 295.2,-228.35 419,-198 435.68,-193.91 452.82,-185 465.83,-177.07"/>
<polygon fill="midnightblue" stroke="midnightblue" points="467.96,-179.87 474.52,-171.55 464.2,-173.96 467.96,-179.87"/>
</g>
<!-- Node3 -->
<g id="node3" class="node">
<title>Node3</title>
<g id="a_node3"><a xlink:href="kmt_8c.html#a031a09141c265954f2b609183e573d1c" target="_top" xlink:title="get current cpu&#39;s tasks">
<polygon fill="none" stroke="black" points="236,-266.5 236,-285.5 312,-285.5 312,-266.5 236,-266.5"/>
<text text-anchor="middle" x="274" y="-273.5" font-family="Helvetica,sans-Serif" font-size="10.00">kmt_get_task</text>
</a>
</g>
</g>
<!-- Node1&#45;&gt;Node3 -->
<g id="edge2" class="edge">
<title>Node1&#45;&gt;Node3</title>
<path fill="none" stroke="midnightblue" d="M54.69,-171.53C66.48,-190.36 95.57,-232.23 132,-252 160.67,-267.56 197.05,-273.47 225.67,-275.54"/>
<polygon fill="midnightblue" stroke="midnightblue" points="225.64,-279.04 235.83,-276.14 226.06,-272.05 225.64,-279.04"/>
</g>
<!-- Node4 -->
<g id="node4" class="node">
<title>Node4</title>
<g id="a_node4"><a xlink:href="spinlock_8c.html#ad4be0d674a7ca4dc90c2dbf8b34562cc" target="_top" xlink:title="check current cpu has the lock">
<polygon fill="none" stroke="black" points="238.5,-76.5 238.5,-95.5 309.5,-95.5 309.5,-76.5 238.5,-76.5"/>
<text text-anchor="middle" x="274" y="-83.5" font-family="Helvetica,sans-Serif" font-size="10.00">spin_holding</text>
</a>
</g>
</g>
<!-- Node1&#45;&gt;Node4 -->
<g id="edge4" class="edge">
<title>Node1&#45;&gt;Node4</title>
<path fill="none" stroke="midnightblue" d="M77.37,-152.37C117.43,-138.78 190.65,-113.94 235.26,-98.81"/>
<polygon fill="midnightblue" stroke="midnightblue" points="236.52,-102.07 244.86,-95.55 234.27,-95.45 236.52,-102.07"/>
</g>
<!-- Node12 -->
<g id="node12" class="node">
<title>Node12</title>
<g id="a_node12"><a xlink:href="spinlock_8c.html#ab6f3c37ec37006951feccc3c05387cce" target="_top" xlink:title="acquire spinlock to current cpu">
<polygon fill="none" stroke="black" points="137,-152.5 137,-171.5 195,-171.5 195,-152.5 137,-152.5"/>
<text text-anchor="middle" x="166" y="-159.5" font-family="Helvetica,sans-Serif" font-size="10.00">spin_lock</text>
</a>
</g>
</g>
<!-- Node1&#45;&gt;Node12 -->
<g id="edge16" class="edge">
<title>Node1&#45;&gt;Node12</title>
<path fill="none" stroke="midnightblue" d="M96.18,-162C106.32,-162 116.91,-162 126.66,-162"/>
<polygon fill="midnightblue" stroke="midnightblue" points="126.85,-165.5 136.85,-162 126.85,-158.5 126.85,-165.5"/>
</g>
<!-- Node15 -->
<g id="node15" class="node">
<title>Node15</title>
<g id="a_node15"><a xlink:href="spinlock_8c.html#acdf118d615a4bc4064e991add9a80995" target="_top" xlink:title="release spinlock from current cpu">
<polygon fill="none" stroke="black" points="132,-76.5 132,-95.5 200,-95.5 200,-76.5 132,-76.5"/>
<text text-anchor="middle" x="166" y="-83.5" font-family="Helvetica,sans-Serif" font-size="10.00">spin_unlock</text>
</a>
</g>
</g>
<!-- Node1&#45;&gt;Node15 -->
<g id="edge22" class="edge">
<title>Node1&#45;&gt;Node15</title>
<path fill="none" stroke="midnightblue" d="M63.69,-152.37C83.39,-139.47 118.57,-116.42 141.85,-101.17"/>
<polygon fill="midnightblue" stroke="midnightblue" points="143.98,-103.96 150.43,-95.55 140.15,-98.1 143.98,-103.96"/>
</g>
<!-- Node3&#45;&gt;Node2 -->
<g id="edge3" class="edge">
<title>Node3&#45;&gt;Node2</title>
<path fill="none" stroke="midnightblue" d="M312.17,-277.13C342.87,-276.42 386.52,-271.51 419,-252 447.28,-235.01 468.1,-201.7 479.11,-180.71"/>
<polygon fill="midnightblue" stroke="midnightblue" points="482.37,-182.04 483.72,-171.53 476.11,-178.9 482.37,-182.04"/>
</g>
<!-- Node4&#45;&gt;Node2 -->
<g id="edge5" class="edge">
<title>Node4&#45;&gt;Node2</title>
<path fill="none" stroke="midnightblue" d="M301.98,-95.63C339.91,-109.16 409.11,-133.85 451.57,-149"/>
<polygon fill="midnightblue" stroke="midnightblue" points="450.65,-152.39 461.24,-152.45 453,-145.8 450.65,-152.39"/>
</g>
<!-- Node5 -->
<g id="node5" class="node">
<title>Node5</title>
<g id="a_node5"><a xlink:href="spinlock_8c.html#afc9565dc7a5ddf77e1fa76f5d91caf78" target="_top" xlink:title="interrupt able">
<polygon fill="none" stroke="black" points="351,-38.5 351,-57.5 416,-57.5 416,-38.5 351,-38.5"/>
<text text-anchor="middle" x="383.5" y="-45.5" font-family="Helvetica,sans-Serif" font-size="10.00">spin_popcli</text>
</a>
</g>
</g>
<!-- Node4&#45;&gt;Node5 -->
<g id="edge6" class="edge">
<title>Node4&#45;&gt;Node5</title>
<path fill="none" stroke="midnightblue" d="M302.13,-76.41C315.37,-71.73 331.49,-66.03 345.81,-60.97"/>
<polygon fill="midnightblue" stroke="midnightblue" points="347.12,-64.22 355.38,-57.59 344.79,-57.62 347.12,-64.22"/>
</g>
<!-- Node9 -->
<g id="node9" class="node">
<title>Node9</title>
<g id="a_node9"><a xlink:href="spinlock_8c.html#ab213874cda54fdbbeb1bec1e5fa90b28" target="_top" xlink:title="interrupt disable">
<polygon fill="none" stroke="black" points="348,-76.5 348,-95.5 419,-95.5 419,-76.5 348,-76.5"/>
<text text-anchor="middle" x="383.5" y="-83.5" font-family="Helvetica,sans-Serif" font-size="10.00">spin_pushcli</text>
</a>
</g>
</g>
<!-- Node4&#45;&gt;Node9 -->
<g id="edge11" class="edge">
<title>Node4&#45;&gt;Node9</title>
<path fill="none" stroke="midnightblue" d="M309.61,-86C318.62,-86 328.46,-86 337.91,-86"/>
<polygon fill="midnightblue" stroke="midnightblue" points="337.96,-89.5 347.96,-86 337.96,-82.5 337.96,-89.5"/>
</g>
<!-- Node5&#45;&gt;Node2 -->
<g id="edge7" class="edge">
<title>Node5&#45;&gt;Node2</title>
<path fill="none" stroke="midnightblue" d="M405.54,-57.67C410.24,-60.33 415,-63.47 419,-67 444.47,-89.47 466.01,-122.93 477.95,-143.56"/>
<polygon fill="midnightblue" stroke="midnightblue" points="474.92,-145.31 482.88,-152.3 481.02,-141.87 474.92,-145.31"/>
</g>
<!-- Node6 -->
<g id="node6" class="node">
<title>Node6</title>
<g id="a_node6"><a xlink:href="cte_8c.html#a4a139958742786c5085172be1f69bfd0" target="_top" xlink:title=" ">
<polygon fill="none" stroke="black" points="473,-38.5 473,-57.5 505,-57.5 505,-38.5 473,-38.5"/>
<text text-anchor="middle" x="489" y="-45.5" font-family="Helvetica,sans-Serif" font-size="10.00">iset</text>
</a>
</g>
</g>
<!-- Node5&#45;&gt;Node6 -->
<g id="edge8" class="edge">
<title>Node5&#45;&gt;Node6</title>
<path fill="none" stroke="midnightblue" d="M416.12,-48C430.94,-48 448.37,-48 462.36,-48"/>
<polygon fill="midnightblue" stroke="midnightblue" points="462.72,-51.5 472.72,-48 462.72,-44.5 462.72,-51.5"/>
</g>
<!-- Node7 -->
<g id="node7" class="node">
<title>Node7</title>
<g id="a_node7"><a xlink:href="x86_8h.html#acc919e7809ef1db2b20aa3804f540b5c" target="_top" xlink:title=" ">
<polygon fill="none" stroke="black" points="567,-0.5 567,-19.5 596,-19.5 596,-0.5 567,-0.5"/>
<text text-anchor="middle" x="581.5" y="-7.5" font-family="Helvetica,sans-Serif" font-size="10.00">cli</text>
</a>
</g>
</g>
<!-- Node6&#45;&gt;Node7 -->
<g id="edge9" class="edge">
<title>Node6&#45;&gt;Node7</title>
<path fill="none" stroke="midnightblue" d="M505.35,-41.55C519.63,-35.56 541.11,-26.54 557.45,-19.68"/>
<polygon fill="midnightblue" stroke="midnightblue" points="558.99,-22.83 566.85,-15.73 556.28,-16.38 558.99,-22.83"/>
</g>
<!-- Node8 -->
<g id="node8" class="node">
<title>Node8</title>
<g id="a_node8"><a xlink:href="x86_8h.html#a4657e97b270d7af5a23da2c4d642ada2" target="_top" xlink:title=" ">
<polygon fill="none" stroke="black" points="567,-38.5 567,-57.5 596,-57.5 596,-38.5 567,-38.5"/>
<text text-anchor="middle" x="581.5" y="-45.5" font-family="Helvetica,sans-Serif" font-size="10.00">sti</text>
</a>
</g>
</g>
<!-- Node6&#45;&gt;Node8 -->
<g id="edge10" class="edge">
<title>Node6&#45;&gt;Node8</title>
<path fill="none" stroke="midnightblue" d="M505.35,-48C519.37,-48 540.3,-48 556.52,-48"/>
<polygon fill="midnightblue" stroke="midnightblue" points="556.85,-51.5 566.85,-48 556.85,-44.5 556.85,-51.5"/>
</g>
<!-- Node9&#45;&gt;Node2 -->
<g id="edge12" class="edge">
<title>Node9&#45;&gt;Node2</title>
<path fill="none" stroke="midnightblue" d="M398.69,-95.69C404.95,-100.01 412.38,-105.21 419,-110 435.34,-121.84 453.56,-135.59 467.18,-145.98"/>
<polygon fill="midnightblue" stroke="midnightblue" points="465.32,-148.97 475.39,-152.27 469.58,-143.41 465.32,-148.97"/>
</g>
<!-- Node9&#45;&gt;Node6 -->
<g id="edge15" class="edge">
<title>Node9&#45;&gt;Node6</title>
<path fill="none" stroke="midnightblue" d="M410.62,-76.41C426.73,-70.5 447.28,-62.95 463.15,-57.12"/>
<polygon fill="midnightblue" stroke="midnightblue" points="464.63,-60.31 472.81,-53.58 462.22,-53.74 464.63,-60.31"/>
</g>
<!-- Node10 -->
<g id="node10" class="node">
<title>Node10</title>
<g id="a_node10"><a xlink:href="cte_8c.html#a79659a2b801c42951e38f3a8821acbae" target="_top" xlink:title=" ">
<polygon fill="none" stroke="black" points="462.5,-76.5 462.5,-95.5 515.5,-95.5 515.5,-76.5 462.5,-76.5"/>
<text text-anchor="middle" x="489" y="-83.5" font-family="Helvetica,sans-Serif" font-size="10.00">ienabled</text>
</a>
</g>
</g>
<!-- Node9&#45;&gt;Node10 -->
<g id="edge13" class="edge">
<title>Node9&#45;&gt;Node10</title>
<path fill="none" stroke="midnightblue" d="M419.25,-86C429.82,-86 441.46,-86 452.1,-86"/>
<polygon fill="midnightblue" stroke="midnightblue" points="452.34,-89.5 462.34,-86 452.34,-82.5 452.34,-89.5"/>
</g>
<!-- Node11 -->
<g id="node11" class="node">
<title>Node11</title>
<g id="a_node11"><a xlink:href="x86_8h.html#a73d094f09c6a7dd3fc703aa8229933ee" target="_top" xlink:title=" ">
<polygon fill="none" stroke="black" points="559,-76.5 559,-95.5 604,-95.5 604,-76.5 559,-76.5"/>
<text text-anchor="middle" x="581.5" y="-83.5" font-family="Helvetica,sans-Serif" font-size="10.00">get_efl</text>
</a>
</g>
</g>
<!-- Node10&#45;&gt;Node11 -->
<g id="edge14" class="edge">
<title>Node10&#45;&gt;Node11</title>
<path fill="none" stroke="midnightblue" d="M515.69,-86C525.88,-86 537.71,-86 548.45,-86"/>
<polygon fill="midnightblue" stroke="midnightblue" points="548.73,-89.5 558.73,-86 548.73,-82.5 548.73,-89.5"/>
</g>
<!-- Node12&#45;&gt;Node2 -->
<g id="edge19" class="edge">
<title>Node12&#45;&gt;Node2</title>
<path fill="none" stroke="midnightblue" d="M194.84,-171.5C207.28,-175.27 222.21,-179.14 236,-181 316.6,-191.89 338.4,-191.89 419,-181 429.34,-179.6 440.33,-177.08 450.42,-174.31"/>
<polygon fill="midnightblue" stroke="midnightblue" points="451.52,-177.64 460.16,-171.5 449.58,-170.91 451.52,-177.64"/>
</g>
<!-- Node12&#45;&gt;Node4 -->
<g id="edge20" class="edge">
<title>Node12&#45;&gt;Node4</title>
<path fill="none" stroke="midnightblue" d="M180.56,-152.29C186.55,-147.96 193.66,-142.77 200,-138 216.2,-125.82 219.48,-121.75 236,-110 240.15,-107.05 244.64,-104.01 249.01,-101.13"/>
<polygon fill="midnightblue" stroke="midnightblue" points="251.19,-103.89 257.68,-95.52 247.39,-98.02 251.19,-103.89"/>
</g>
<!-- Node12&#45;&gt;Node9 -->
<g id="edge21" class="edge">
<title>Node12&#45;&gt;Node9</title>
<path fill="none" stroke="midnightblue" d="M194.29,-152.37C232.75,-138.81 302.97,-114.05 345.92,-98.9"/>
<polygon fill="midnightblue" stroke="midnightblue" points="347.16,-102.17 355.43,-95.55 344.83,-95.57 347.16,-102.17"/>
</g>
<!-- Node13 -->
<g id="node13" class="node">
<title>Node13</title>
<g id="a_node13"><a xlink:href="mpe_8c.html#aaaad47c97c82065cf463f83b98b23c30" target="_top" xlink:title=" ">
<polygon fill="none" stroke="black" points="238.5,-152.5 238.5,-171.5 309.5,-171.5 309.5,-152.5 238.5,-152.5"/>
<text text-anchor="middle" x="274" y="-159.5" font-family="Helvetica,sans-Serif" font-size="10.00">atomic_xchg</text>
</a>
</g>
</g>
<!-- Node12&#45;&gt;Node13 -->
<g id="edge17" class="edge">
<title>Node12&#45;&gt;Node13</title>
<path fill="none" stroke="midnightblue" d="M195.13,-162C205.27,-162 216.99,-162 228.2,-162"/>
<polygon fill="midnightblue" stroke="midnightblue" points="228.3,-165.5 238.3,-162 228.3,-158.5 228.3,-165.5"/>
</g>
<!-- Node14 -->
<g id="node14" class="node">
<title>Node14</title>
<g id="a_node14"><a xlink:href="x86_8h.html#a48b2a6a16dc8d7e09d327aa3803f1112" target="_top" xlink:title=" ">
<polygon fill="none" stroke="black" points="365,-152.5 365,-171.5 402,-171.5 402,-152.5 365,-152.5"/>
<text text-anchor="middle" x="383.5" y="-159.5" font-family="Helvetica,sans-Serif" font-size="10.00">xchg</text>
</a>
</g>
</g>
<!-- Node13&#45;&gt;Node14 -->
<g id="edge18" class="edge">
<title>Node13&#45;&gt;Node14</title>
<path fill="none" stroke="midnightblue" d="M309.61,-162C324.13,-162 340.81,-162 354.54,-162"/>
<polygon fill="midnightblue" stroke="midnightblue" points="354.83,-165.5 364.83,-162 354.83,-158.5 354.83,-165.5"/>
</g>
<!-- Node15&#45;&gt;Node4 -->
<g id="edge23" class="edge">
<title>Node15&#45;&gt;Node4</title>
<path fill="none" stroke="midnightblue" d="M200.25,-86C209.17,-86 218.95,-86 228.38,-86"/>
<polygon fill="midnightblue" stroke="midnightblue" points="228.41,-89.5 238.41,-86 228.41,-82.5 228.41,-89.5"/>
</g>
<!-- Node15&#45;&gt;Node5 -->
<g id="edge24" class="edge">
<title>Node15&#45;&gt;Node5</title>
<path fill="none" stroke="midnightblue" d="M198.04,-76.46C209.83,-73.1 223.45,-69.53 236,-67 270.93,-59.96 311.1,-54.97 340.53,-51.87"/>
<polygon fill="midnightblue" stroke="midnightblue" points="341.26,-55.31 350.86,-50.81 340.55,-48.35 341.26,-55.31"/>
</g>
</g>
</svg>
