<?xml version="1.0" encoding="UTF-8" standalone="no"?>
<!DOCTYPE svg PUBLIC "-//W3C//DTD SVG 1.1//EN"
 "http://www.w3.org/Graphics/SVG/1.1/DTD/svg11.dtd">
<!-- Generated by graphviz version 3.0.0 (20220413.0106)
 -->
<!-- Title: kmt_init Pages: 1 -->
<svg width="735pt" height="360pt"
 viewBox="0.00 0.00 735.00 360.43" xmlns="http://www.w3.org/2000/svg" xmlns:xlink="http://www.w3.org/1999/xlink">
<g id="graph0" class="graph" transform="scale(1 1) rotate(0) translate(4 356.43)">
<title>kmt_init</title>
<!-- Node1 -->
<g id="node1" class="node">
<title>Node1</title>
<g id="a_node1"><a xlink:title="initialize kmt module">
<polygon fill="#bfbfbf" stroke="black" points="0,-152.5 0,-171.5 51,-171.5 51,-152.5 0,-152.5"/>
<text text-anchor="middle" x="25.5" y="-159.5" font-family="Helvetica,sans-Serif" font-size="10.00">kmt_init</text>
</a>
</g>
</g>
<!-- Node2 -->
<g id="node2" class="node">
<title>Node2</title>
<g id="a_node2"><a xlink:href="kmt_8c.html#af9c485ce0d89d6624e6e80e31d8ed207" target="_top" xlink:title="handler: save context to current task">
<polygon fill="none" stroke="black" points="87,-276.5 87,-295.5 183,-295.5 183,-276.5 87,-276.5"/>
<text text-anchor="middle" x="135" y="-283.5" font-family="Helvetica,sans-Serif" font-size="10.00">kmt_context_save</text>
</a>
</g>
</g>
<!-- Node1&#45;&gt;Node2 -->
<g id="edge1" class="edge">
<title>Node1&#45;&gt;Node2</title>
<path fill="none" stroke="midnightblue" d="M33.65,-171.61C44.67,-186.29 66.68,-215 87,-238 96.44,-248.68 107.57,-260.1 116.64,-269.12"/>
<polygon fill="midnightblue" stroke="midnightblue" points="114.4,-271.83 123.97,-276.35 119.31,-266.84 114.4,-271.83"/>
</g>
<!-- Node13 -->
<g id="node13" class="node">
<title>Node13</title>
<g id="a_node13"><a xlink:href="kmt_8c.html#ad3fbc643b7b6092120c5152b4c890354" target="_top" xlink:title="handler: handle program errors">
<polygon fill="none" stroke="black" points="106,-171.5 106,-190.5 164,-190.5 164,-171.5 106,-171.5"/>
<text text-anchor="middle" x="135" y="-178.5" font-family="Helvetica,sans-Serif" font-size="10.00">kmt_error</text>
</a>
</g>
</g>
<!-- Node1&#45;&gt;Node13 -->
<g id="edge17" class="edge">
<title>Node1&#45;&gt;Node13</title>
<path fill="none" stroke="midnightblue" d="M51.16,-166.36C64.36,-168.69 80.9,-171.62 95.73,-174.24"/>
<polygon fill="midnightblue" stroke="midnightblue" points="95.2,-177.7 105.65,-175.99 96.42,-170.8 95.2,-177.7"/>
</g>
<!-- Node23 -->
<g id="node23" class="node">
<title>Node23</title>
<g id="a_node23"><a xlink:href="kmt_8c.html#ad4d70b4093829da1c0b0631abdff7747" target="_top" xlink:title="handler: schedule next task to run Notice: this should be the only handler which returns real Context">
<polygon fill="none" stroke="black" points="96.5,-209.5 96.5,-228.5 173.5,-228.5 173.5,-209.5 96.5,-209.5"/>
<text text-anchor="middle" x="135" y="-216.5" font-family="Helvetica,sans-Serif" font-size="10.00">kmt_schedule</text>
</a>
</g>
</g>
<!-- Node1&#45;&gt;Node23 -->
<g id="edge29" class="edge">
<title>Node1&#45;&gt;Node23</title>
<path fill="none" stroke="midnightblue" d="M40.51,-171.79C52.51,-179.94 70.43,-191.53 87,-200 90.6,-201.84 94.42,-203.63 98.27,-205.33"/>
<polygon fill="midnightblue" stroke="midnightblue" points="97.2,-208.68 107.78,-209.35 99.93,-202.23 97.2,-208.68"/>
</g>
<!-- Node25 -->
<g id="node25" class="node">
<title>Node25</title>
<g id="a_node25"><a xlink:href="kmt_8c.html#a046a92c2d695ccdd1ad42210135ed597" target="_top" xlink:title="handler: triggered when aipc timer fired up">
<polygon fill="none" stroke="black" points="105,-133.5 105,-152.5 165,-152.5 165,-133.5 105,-133.5"/>
<text text-anchor="middle" x="135" y="-140.5" font-family="Helvetica,sans-Serif" font-size="10.00">kmt_timer</text>
</a>
</g>
</g>
<!-- Node1&#45;&gt;Node25 -->
<g id="edge37" class="edge">
<title>Node1&#45;&gt;Node25</title>
<path fill="none" stroke="midnightblue" d="M51.16,-157.64C64.03,-155.37 80.08,-152.53 94.62,-149.96"/>
<polygon fill="midnightblue" stroke="midnightblue" points="95.64,-153.33 104.87,-148.15 94.42,-146.44 95.64,-153.33"/>
</g>
<!-- Node26 -->
<g id="node26" class="node">
<title>Node26</title>
<g id="a_node26"><a xlink:href="kmt_8c.html#a75ea8dbba16d64a343a45962bd593930" target="_top" xlink:title="handler: handle yield interrupt (0x81)">
<polygon fill="none" stroke="black" points="106,-95.5 106,-114.5 164,-114.5 164,-95.5 106,-95.5"/>
<text text-anchor="middle" x="135" y="-102.5" font-family="Helvetica,sans-Serif" font-size="10.00">kmt_yield</text>
</a>
</g>
</g>
<!-- Node1&#45;&gt;Node26 -->
<g id="edge38" class="edge">
<title>Node1&#45;&gt;Node26</title>
<path fill="none" stroke="midnightblue" d="M40.51,-152.21C52.51,-144.06 70.43,-132.47 87,-124 90.6,-122.16 94.42,-120.37 98.27,-118.67"/>
<polygon fill="midnightblue" stroke="midnightblue" points="99.93,-121.77 107.78,-114.65 97.2,-115.32 99.93,-121.77"/>
</g>
<!-- Node27 -->
<g id="node27" class="node">
<title>Node27</title>
<g id="a_node27"><a xlink:href="string_8c.html#a7a8fd43b209c9ea19addab23a5f23995" target="_top" xlink:title=" ">
<polygon fill="none" stroke="black" points="109,-57.5 109,-76.5 161,-76.5 161,-57.5 109,-57.5"/>
<text text-anchor="middle" x="135" y="-64.5" font-family="Helvetica,sans-Serif" font-size="10.00">memset</text>
</a>
</g>
</g>
<!-- Node1&#45;&gt;Node27 -->
<g id="edge39" class="edge">
<title>Node1&#45;&gt;Node27</title>
<path fill="none" stroke="midnightblue" d="M31.96,-152.27C41.32,-136.38 61.86,-104.77 87,-86 90.85,-83.12 95.2,-80.61 99.66,-78.43"/>
<polygon fill="midnightblue" stroke="midnightblue" points="101.06,-81.64 108.84,-74.44 98.27,-75.22 101.06,-81.64"/>
</g>
<!-- Node3 -->
<g id="node3" class="node">
<title>Node3</title>
<g id="a_node3"><a xlink:href="mpe_8c.html#ab701de78cad32896c923ce900087e714" target="_top" xlink:title=" ">
<polygon fill="none" stroke="black" points="474,-228.5 474,-247.5 542,-247.5 542,-228.5 474,-228.5"/>
<text text-anchor="middle" x="508" y="-235.5" font-family="Helvetica,sans-Serif" font-size="10.00">cpu_current</text>
</a>
</g>
</g>
<!-- Node2&#45;&gt;Node3 -->
<g id="edge2" class="edge">
<title>Node2&#45;&gt;Node3</title>
<path fill="none" stroke="midnightblue" d="M148.05,-295.52C163.46,-307.02 191.46,-325.74 219,-333 313.37,-357.86 352.23,-363.56 438,-317 463.89,-302.94 484.62,-275.1 496.37,-256.51"/>
<polygon fill="midnightblue" stroke="midnightblue" points="499.48,-258.12 501.67,-247.75 493.49,-254.49 499.48,-258.12"/>
</g>
<!-- Node4 -->
<g id="node4" class="node">
<title>Node4</title>
<g id="a_node4"><a xlink:href="kmt_8c.html#a031a09141c265954f2b609183e573d1c" target="_top" xlink:title="get current cpu&#39;s tasks">
<polygon fill="none" stroke="black" points="234.5,-304.5 234.5,-323.5 310.5,-323.5 310.5,-304.5 234.5,-304.5"/>
<text text-anchor="middle" x="272.5" y="-311.5" font-family="Helvetica,sans-Serif" font-size="10.00">kmt_get_task</text>
</a>
</g>
</g>
<!-- Node2&#45;&gt;Node4 -->
<g id="edge3" class="edge">
<title>Node2&#45;&gt;Node4</title>
<path fill="none" stroke="midnightblue" d="M182.25,-295.56C195.82,-298.36 210.66,-301.43 224.28,-304.24"/>
<polygon fill="midnightblue" stroke="midnightblue" points="223.92,-307.74 234.42,-306.34 225.33,-300.89 223.92,-307.74"/>
</g>
<!-- Node5 -->
<g id="node5" class="node">
<title>Node5</title>
<g id="a_node5"><a xlink:href="spinlock_8c.html#ad4be0d674a7ca4dc90c2dbf8b34562cc" target="_top" xlink:title="check current cpu has the lock">
<polygon fill="none" stroke="black" points="237,-190.5 237,-209.5 308,-209.5 308,-190.5 237,-190.5"/>
<text text-anchor="middle" x="272.5" y="-197.5" font-family="Helvetica,sans-Serif" font-size="10.00">spin_holding</text>
</a>
</g>
</g>
<!-- Node2&#45;&gt;Node5 -->
<g id="edge5" class="edge">
<title>Node2&#45;&gt;Node5</title>
<path fill="none" stroke="midnightblue" d="M151.02,-276.47C174.42,-261.62 219.78,-232.82 247.68,-215.12"/>
<polygon fill="midnightblue" stroke="midnightblue" points="249.85,-217.89 256.41,-209.57 246.1,-211.98 249.85,-217.89"/>
</g>
<!-- Node4&#45;&gt;Node3 -->
<g id="edge4" class="edge">
<title>Node4&#45;&gt;Node3</title>
<path fill="none" stroke="midnightblue" d="M310.64,-315.62C345.01,-315.77 396.87,-312.52 438,-295 459.07,-286.02 478.75,-268.49 491.66,-255.22"/>
<polygon fill="midnightblue" stroke="midnightblue" points="494.49,-257.32 498.77,-247.63 489.38,-252.54 494.49,-257.32"/>
</g>
<!-- Node5&#45;&gt;Node3 -->
<g id="edge6" class="edge">
<title>Node5&#45;&gt;Node3</title>
<path fill="none" stroke="midnightblue" d="M308.25,-204.5C341.6,-208.96 393.36,-216.22 438,-224 446.4,-225.46 455.34,-227.17 463.9,-228.87"/>
<polygon fill="midnightblue" stroke="midnightblue" points="463.23,-232.31 473.73,-230.86 464.62,-225.45 463.23,-232.31"/>
</g>
<!-- Node6 -->
<g id="node6" class="node">
<title>Node6</title>
<g id="a_node6"><a xlink:href="spinlock_8c.html#afc9565dc7a5ddf77e1fa76f5d91caf78" target="_top" xlink:title="interrupt able">
<polygon fill="none" stroke="black" points="367.5,-152.5 367.5,-171.5 432.5,-171.5 432.5,-152.5 367.5,-152.5"/>
<text text-anchor="middle" x="400" y="-159.5" font-family="Helvetica,sans-Serif" font-size="10.00">spin_popcli</text>
</a>
</g>
</g>
<!-- Node5&#45;&gt;Node6 -->
<g id="edge7" class="edge">
<title>Node5&#45;&gt;Node6</title>
<path fill="none" stroke="midnightblue" d="M305.17,-190.41C321.07,-185.6 340.54,-179.7 357.61,-174.53"/>
<polygon fill="midnightblue" stroke="midnightblue" points="358.78,-177.83 367.34,-171.59 356.76,-171.13 358.78,-177.83"/>
</g>
<!-- Node10 -->
<g id="node10" class="node">
<title>Node10</title>
<g id="a_node10"><a xlink:href="spinlock_8c.html#ab213874cda54fdbbeb1bec1e5fa90b28" target="_top" xlink:title="interrupt disable">
<polygon fill="none" stroke="black" points="364.5,-114.5 364.5,-133.5 435.5,-133.5 435.5,-114.5 364.5,-114.5"/>
<text text-anchor="middle" x="400" y="-121.5" font-family="Helvetica,sans-Serif" font-size="10.00">spin_pushcli</text>
</a>
</g>
</g>
<!-- Node5&#45;&gt;Node10 -->
<g id="edge12" class="edge">
<title>Node5&#45;&gt;Node10</title>
<path fill="none" stroke="midnightblue" d="M307.11,-190.48C313.64,-187.91 320.24,-184.77 326,-181 345.46,-168.25 343.39,-156.96 362,-143 364.02,-141.48 366.18,-140.03 368.41,-138.64"/>
<polygon fill="midnightblue" stroke="midnightblue" points="370.17,-141.66 377.14,-133.68 366.71,-135.58 370.17,-141.66"/>
</g>
<!-- Node6&#45;&gt;Node3 -->
<g id="edge8" class="edge">
<title>Node6&#45;&gt;Node3</title>
<path fill="none" stroke="midnightblue" d="M416.28,-171.57C423.01,-175.87 430.97,-181.08 438,-186 454.53,-197.57 472.74,-211.34 486.3,-221.8"/>
<polygon fill="midnightblue" stroke="midnightblue" points="484.43,-224.78 494.48,-228.14 488.72,-219.25 484.43,-224.78"/>
</g>
<!-- Node7 -->
<g id="node7" class="node">
<title>Node7</title>
<g id="a_node7"><a xlink:href="cte_8c.html#a4a139958742786c5085172be1f69bfd0" target="_top" xlink:title=" ">
<polygon fill="none" stroke="black" points="492,-152.5 492,-171.5 524,-171.5 524,-152.5 492,-152.5"/>
<text text-anchor="middle" x="508" y="-159.5" font-family="Helvetica,sans-Serif" font-size="10.00">iset</text>
</a>
</g>
</g>
<!-- Node6&#45;&gt;Node7 -->
<g id="edge9" class="edge">
<title>Node6&#45;&gt;Node7</title>
<path fill="none" stroke="midnightblue" d="M432.52,-162C448.18,-162 466.85,-162 481.58,-162"/>
<polygon fill="midnightblue" stroke="midnightblue" points="481.96,-165.5 491.96,-162 481.96,-158.5 481.96,-165.5"/>
</g>
<!-- Node8 -->
<g id="node8" class="node">
<title>Node8</title>
<g id="a_node8"><a xlink:href="x86_8h.html#acc919e7809ef1db2b20aa3804f540b5c" target="_top" xlink:title=" ">
<polygon fill="none" stroke="black" points="590.5,-190.5 590.5,-209.5 619.5,-209.5 619.5,-190.5 590.5,-190.5"/>
<text text-anchor="middle" x="605" y="-197.5" font-family="Helvetica,sans-Serif" font-size="10.00">cli</text>
</a>
</g>
</g>
<!-- Node7&#45;&gt;Node8 -->
<g id="edge10" class="edge">
<title>Node7&#45;&gt;Node8</title>
<path fill="none" stroke="midnightblue" d="M524.26,-168.11C539.52,-174.21 563.18,-183.67 580.77,-190.71"/>
<polygon fill="midnightblue" stroke="midnightblue" points="579.73,-194.06 590.32,-194.53 582.33,-187.56 579.73,-194.06"/>
</g>
<!-- Node9 -->
<g id="node9" class="node">
<title>Node9</title>
<g id="a_node9"><a xlink:href="x86_8h.html#a4657e97b270d7af5a23da2c4d642ada2" target="_top" xlink:title=" ">
<polygon fill="none" stroke="black" points="590.5,-152.5 590.5,-171.5 619.5,-171.5 619.5,-152.5 590.5,-152.5"/>
<text text-anchor="middle" x="605" y="-159.5" font-family="Helvetica,sans-Serif" font-size="10.00">sti</text>
</a>
</g>
</g>
<!-- Node7&#45;&gt;Node9 -->
<g id="edge11" class="edge">
<title>Node7&#45;&gt;Node9</title>
<path fill="none" stroke="midnightblue" d="M524.26,-162C539.38,-162 562.74,-162 580.28,-162"/>
<polygon fill="midnightblue" stroke="midnightblue" points="580.32,-165.5 590.32,-162 580.32,-158.5 580.32,-165.5"/>
</g>
<!-- Node10&#45;&gt;Node3 -->
<g id="edge13" class="edge">
<title>Node10&#45;&gt;Node3</title>
<path fill="none" stroke="midnightblue" d="M423.97,-133.67C428.88,-136.3 433.83,-139.43 438,-143 463.79,-165.1 485.24,-198.67 497.07,-219.42"/>
<polygon fill="midnightblue" stroke="midnightblue" points="494.04,-221.17 501.95,-228.22 500.16,-217.78 494.04,-221.17"/>
</g>
<!-- Node10&#45;&gt;Node7 -->
<g id="edge16" class="edge">
<title>Node10&#45;&gt;Node7</title>
<path fill="none" stroke="midnightblue" d="M427.75,-133.59C444.51,-139.6 465.96,-147.29 482.31,-153.15"/>
<polygon fill="midnightblue" stroke="midnightblue" points="481.15,-156.45 491.75,-156.53 483.52,-149.86 481.15,-156.45"/>
</g>
<!-- Node11 -->
<g id="node11" class="node">
<title>Node11</title>
<g id="a_node11"><a xlink:href="cte_8c.html#a79659a2b801c42951e38f3a8821acbae" target="_top" xlink:title=" ">
<polygon fill="none" stroke="black" points="481.5,-114.5 481.5,-133.5 534.5,-133.5 534.5,-114.5 481.5,-114.5"/>
<text text-anchor="middle" x="508" y="-121.5" font-family="Helvetica,sans-Serif" font-size="10.00">ienabled</text>
</a>
</g>
</g>
<!-- Node10&#45;&gt;Node11 -->
<g id="edge14" class="edge">
<title>Node10&#45;&gt;Node11</title>
<path fill="none" stroke="midnightblue" d="M435.71,-124C447.08,-124 459.73,-124 471.19,-124"/>
<polygon fill="midnightblue" stroke="midnightblue" points="471.29,-127.5 481.29,-124 471.29,-120.5 471.29,-127.5"/>
</g>
<!-- Node12 -->
<g id="node12" class="node">
<title>Node12</title>
<g id="a_node12"><a xlink:href="x86_8h.html#a73d094f09c6a7dd3fc703aa8229933ee" target="_top" xlink:title=" ">
<polygon fill="none" stroke="black" points="582.5,-114.5 582.5,-133.5 627.5,-133.5 627.5,-114.5 582.5,-114.5"/>
<text text-anchor="middle" x="605" y="-121.5" font-family="Helvetica,sans-Serif" font-size="10.00">get_efl</text>
</a>
</g>
</g>
<!-- Node11&#45;&gt;Node12 -->
<g id="edge15" class="edge">
<title>Node11&#45;&gt;Node12</title>
<path fill="none" stroke="midnightblue" d="M534.96,-124C546.43,-124 560.03,-124 572.11,-124"/>
<polygon fill="midnightblue" stroke="midnightblue" points="572.25,-127.5 582.25,-124 572.25,-120.5 572.25,-127.5"/>
</g>
<!-- Node13&#45;&gt;Node5 -->
<g id="edge28" class="edge">
<title>Node13&#45;&gt;Node5</title>
<path fill="none" stroke="midnightblue" d="M164.08,-184.94C182.11,-187.47 205.94,-190.81 226.58,-193.7"/>
<polygon fill="midnightblue" stroke="midnightblue" points="226.33,-197.2 236.72,-195.12 227.3,-190.27 226.33,-197.2"/>
</g>
<!-- Node14 -->
<g id="node14" class="node">
<title>Node14</title>
<g id="a_node14"><a xlink:href="kmt_8c.html#a0ac321d3074b24b276695a080e835866" target="_top" xlink:title="print all tasks notice: do not garantee concurrency safety">
<polygon fill="none" stroke="black" points="222,-114.5 222,-133.5 323,-133.5 323,-114.5 222,-114.5"/>
<text text-anchor="middle" x="272.5" y="-121.5" font-family="Helvetica,sans-Serif" font-size="10.00">kmt_print_all_tasks</text>
</a>
</g>
</g>
<!-- Node13&#45;&gt;Node14 -->
<g id="edge18" class="edge">
<title>Node13&#45;&gt;Node14</title>
<path fill="none" stroke="midnightblue" d="M161.08,-171.41C168.23,-168.53 175.98,-165.26 183,-162 199.41,-154.38 202.45,-150.32 219,-143 223.53,-141 228.34,-139.04 233.14,-137.18"/>
<polygon fill="midnightblue" stroke="midnightblue" points="234.74,-140.32 242.88,-133.55 232.29,-133.77 234.74,-140.32"/>
</g>
<!-- Node21 -->
<g id="node21" class="node">
<title>Node21</title>
<g id="a_node21"><a xlink:href="kmt_8c.html#ac69761d0146d9aacda65da757868d3c7" target="_top" xlink:title="print all current_tasks notice: do not garantee concurrency safety">
<polygon fill="none" stroke="black" points="219,-152.5 219,-171.5 326,-171.5 326,-152.5 219,-152.5"/>
<text text-anchor="middle" x="272.5" y="-159.5" font-family="Helvetica,sans-Serif" font-size="10.00">kmt_print_cpu_tasks</text>
</a>
</g>
</g>
<!-- Node13&#45;&gt;Node21 -->
<g id="edge25" class="edge">
<title>Node13&#45;&gt;Node21</title>
<path fill="none" stroke="midnightblue" d="M164.08,-177.06C177.05,-175.24 193.02,-173.01 208.64,-170.81"/>
<polygon fill="midnightblue" stroke="midnightblue" points="209.4,-174.24 218.82,-169.39 208.43,-167.31 209.4,-174.24"/>
</g>
<!-- Node15 -->
<g id="node15" class="node">
<title>Node15</title>
<g id="a_node15"><a xlink:href="stdio_8c.html#a55f3d956bb2ba20b5059e9e25484a47f" target="_top" xlink:title=" ">
<polygon fill="none" stroke="black" points="381,-38.5 381,-57.5 419,-57.5 419,-38.5 381,-38.5"/>
<text text-anchor="middle" x="400" y="-45.5" font-family="Helvetica,sans-Serif" font-size="10.00">printf</text>
</a>
</g>
</g>
<!-- Node14&#45;&gt;Node15 -->
<g id="edge19" class="edge">
<title>Node14&#45;&gt;Node15</title>
<path fill="none" stroke="midnightblue" d="M287.34,-114.49C304.54,-102.8 334.93,-82.62 362,-67 365.1,-65.21 368.38,-63.41 371.66,-61.66"/>
<polygon fill="midnightblue" stroke="midnightblue" points="373.49,-64.65 380.74,-56.93 370.26,-58.44 373.49,-64.65"/>
</g>
<!-- Node16 -->
<g id="node16" class="node">
<title>Node16</title>
<g id="a_node16"><a xlink:href="stdio_8c.html#a44a6734c6f8f81d8e1fa3b9d476c5134" target="_top" xlink:title="write bytes (including the terminating null byte (&#39;\0&#39;)) to out.">
<polygon fill="none" stroke="black" points="483.5,-38.5 483.5,-57.5 532.5,-57.5 532.5,-38.5 483.5,-38.5"/>
<text text-anchor="middle" x="508" y="-45.5" font-family="Helvetica,sans-Serif" font-size="10.00">vsprintf</text>
</a>
</g>
</g>
<!-- Node15&#45;&gt;Node16 -->
<g id="edge20" class="edge">
<title>Node15&#45;&gt;Node16</title>
<path fill="none" stroke="midnightblue" d="M419.46,-48C434.24,-48 455.36,-48 473.15,-48"/>
<polygon fill="midnightblue" stroke="midnightblue" points="473.17,-51.5 483.17,-48 473.17,-44.5 473.17,-51.5"/>
</g>
<!-- Node17 -->
<g id="node17" class="node">
<title>Node17</title>
<g id="a_node17"><a xlink:href="stdio_8c.html#abf852e417a205348767989f2940059ad" target="_top" xlink:title="write at most n bytes (including the terminating null byte (&#39;\0&#39;)) to out.">
<polygon fill="none" stroke="black" points="578,-38.5 578,-57.5 632,-57.5 632,-38.5 578,-38.5"/>
<text text-anchor="middle" x="605" y="-45.5" font-family="Helvetica,sans-Serif" font-size="10.00">vsnprintf</text>
</a>
</g>
</g>
<!-- Node16&#45;&gt;Node17 -->
<g id="edge21" class="edge">
<title>Node16&#45;&gt;Node17</title>
<path fill="none" stroke="midnightblue" d="M532.97,-48C543.41,-48 555.87,-48 567.43,-48"/>
<polygon fill="midnightblue" stroke="midnightblue" points="567.69,-51.5 577.69,-48 567.69,-44.5 567.69,-51.5"/>
</g>
<!-- Node18 -->
<g id="node18" class="node">
<title>Node18</title>
<g id="a_node18"><a xlink:href="stdio_8c.html#a0e2811092b514de48ac2dd675d6cf2b4" target="_top" xlink:title="print decimal into buffer,return length">
<polygon fill="none" stroke="black" points="668,-76.5 668,-95.5 727,-95.5 727,-76.5 668,-76.5"/>
<text text-anchor="middle" x="697.5" y="-83.5" font-family="Helvetica,sans-Serif" font-size="10.00">print_num</text>
</a>
</g>
</g>
<!-- Node17&#45;&gt;Node18 -->
<g id="edge22" class="edge">
<title>Node17&#45;&gt;Node18</title>
<path fill="none" stroke="midnightblue" d="M628.84,-57.59C639.56,-62.09 652.52,-67.53 664.22,-72.44"/>
<polygon fill="midnightblue" stroke="midnightblue" points="663.1,-75.77 673.67,-76.41 665.81,-69.32 663.1,-75.77"/>
</g>
<!-- Node19 -->
<g id="node19" class="node">
<title>Node19</title>
<g id="a_node19"><a xlink:href="string_8c.html#aa383452fe445bfae989358c9d7d96f4f" target="_top" xlink:title=" ">
<polygon fill="none" stroke="black" points="677,-38.5 677,-57.5 718,-57.5 718,-38.5 677,-38.5"/>
<text text-anchor="middle" x="697.5" y="-45.5" font-family="Helvetica,sans-Serif" font-size="10.00">strlen</text>
</a>
</g>
</g>
<!-- Node17&#45;&gt;Node19 -->
<g id="edge23" class="edge">
<title>Node17&#45;&gt;Node19</title>
<path fill="none" stroke="midnightblue" d="M632.18,-48C643.02,-48 655.64,-48 666.82,-48"/>
<polygon fill="midnightblue" stroke="midnightblue" points="667,-51.5 677,-48 667,-44.5 667,-51.5"/>
</g>
<!-- Node20 -->
<g id="node20" class="node">
<title>Node20</title>
<g id="a_node20"><a xlink:href="string_8c.html#a82f08f2390a9067f3c94b638e90e03bd" target="_top" xlink:title=" ">
<polygon fill="none" stroke="black" points="673.5,-0.5 673.5,-19.5 721.5,-19.5 721.5,-0.5 673.5,-0.5"/>
<text text-anchor="middle" x="697.5" y="-7.5" font-family="Helvetica,sans-Serif" font-size="10.00">strncpy</text>
</a>
</g>
</g>
<!-- Node17&#45;&gt;Node20 -->
<g id="edge24" class="edge">
<title>Node17&#45;&gt;Node20</title>
<path fill="none" stroke="midnightblue" d="M628.84,-38.41C639.56,-33.91 652.52,-28.47 664.22,-23.56"/>
<polygon fill="midnightblue" stroke="midnightblue" points="665.81,-26.68 673.67,-19.59 663.1,-20.23 665.81,-26.68"/>
</g>
<!-- Node21&#45;&gt;Node15 -->
<g id="edge27" class="edge">
<title>Node21&#45;&gt;Node15</title>
<path fill="none" stroke="midnightblue" d="M311.4,-152.4C316.7,-149.93 321.77,-146.85 326,-143 353.66,-117.86 336,-93.85 362,-67 364.86,-64.05 368.27,-61.47 371.85,-59.25"/>
<polygon fill="midnightblue" stroke="midnightblue" points="373.71,-62.23 380.88,-54.44 370.41,-56.05 373.71,-62.23"/>
</g>
<!-- Node22 -->
<g id="node22" class="node">
<title>Node22</title>
<g id="a_node22"><a xlink:href="mpe_8c.html#af486ec575d47720d28eee63644206110" target="_top" xlink:title=" ">
<polygon fill="none" stroke="black" points="369,-76.5 369,-95.5 431,-95.5 431,-76.5 369,-76.5"/>
<text text-anchor="middle" x="400" y="-83.5" font-family="Helvetica,sans-Serif" font-size="10.00">cpu_count</text>
</a>
</g>
</g>
<!-- Node21&#45;&gt;Node22 -->
<g id="edge26" class="edge">
<title>Node21&#45;&gt;Node22</title>
<path fill="none" stroke="midnightblue" d="M307.11,-152.48C313.64,-149.91 320.24,-146.77 326,-143 345.46,-130.25 343.39,-118.96 362,-105 364.02,-103.48 366.18,-102.03 368.41,-100.64"/>
<polygon fill="midnightblue" stroke="midnightblue" points="370.17,-103.66 377.14,-95.68 366.71,-97.58 370.17,-103.66"/>
</g>
<!-- Node23&#45;&gt;Node3 -->
<g id="edge30" class="edge">
<title>Node23&#45;&gt;Node3</title>
<path fill="none" stroke="midnightblue" d="M173.62,-220.93C242.88,-224.47 390.22,-232.02 463.59,-235.78"/>
<polygon fill="midnightblue" stroke="midnightblue" points="463.7,-239.29 473.87,-236.3 464.06,-232.3 463.7,-239.29"/>
</g>
<!-- Node23&#45;&gt;Node4 -->
<g id="edge31" class="edge">
<title>Node23&#45;&gt;Node4</title>
<path fill="none" stroke="midnightblue" d="M145.5,-228.71C160.23,-243.38 189.91,-271.43 219,-290 224.85,-293.73 231.37,-297.2 237.77,-300.27"/>
<polygon fill="midnightblue" stroke="midnightblue" points="236.43,-303.51 246.98,-304.48 239.34,-297.14 236.43,-303.51"/>
</g>
<!-- Node23&#45;&gt;Node5 -->
<g id="edge36" class="edge">
<title>Node23&#45;&gt;Node5</title>
<path fill="none" stroke="midnightblue" d="M173.74,-213.71C190.09,-211.42 209.35,-208.72 226.43,-206.32"/>
<polygon fill="midnightblue" stroke="midnightblue" points="227.33,-209.73 236.74,-204.87 226.35,-202.8 227.33,-209.73"/>
</g>
<!-- Node23&#45;&gt;Node14 -->
<g id="edge32" class="edge">
<title>Node23&#45;&gt;Node14</title>
<path fill="none" stroke="midnightblue" d="M167.87,-209.29C173.26,-206.79 178.54,-203.72 183,-200 206,-180.79 195.65,-161.78 219,-143 221.16,-141.27 223.48,-139.68 225.92,-138.24"/>
<polygon fill="midnightblue" stroke="midnightblue" points="227.75,-141.23 235.09,-133.59 224.59,-134.99 227.75,-141.23"/>
</g>
<!-- Node23&#45;&gt;Node21 -->
<g id="edge33" class="edge">
<title>Node23&#45;&gt;Node21</title>
<path fill="none" stroke="midnightblue" d="M161.08,-209.41C168.23,-206.53 175.98,-203.26 183,-200 199.41,-192.38 202.45,-188.32 219,-181 223.53,-179 228.34,-177.04 233.14,-175.18"/>
<polygon fill="midnightblue" stroke="midnightblue" points="234.74,-178.32 242.88,-171.55 232.29,-171.77 234.74,-178.32"/>
</g>
<!-- Node24 -->
<g id="node24" class="node">
<title>Node24</title>
<g id="a_node24"><a xlink:href="kmt_8c.html#a9ddca6d133a84154c98607bf0ee82c76" target="_top" xlink:title="set cpu&#39;s current task">
<polygon fill="none" stroke="black" points="362,-266.5 362,-285.5 438,-285.5 438,-266.5 362,-266.5"/>
<text text-anchor="middle" x="400" y="-273.5" font-family="Helvetica,sans-Serif" font-size="10.00">kmt_set_task</text>
</a>
</g>
</g>
<!-- Node23&#45;&gt;Node24 -->
<g id="edge34" class="edge">
<title>Node23&#45;&gt;Node24</title>
<path fill="none" stroke="midnightblue" d="M156,-228.57C172.52,-236.08 196.79,-246.2 219,-252 263.14,-263.53 314.9,-269.69 351.55,-272.87"/>
<polygon fill="midnightblue" stroke="midnightblue" points="351.69,-276.4 361.95,-273.73 352.27,-269.42 351.69,-276.4"/>
</g>
<!-- Node24&#45;&gt;Node3 -->
<g id="edge35" class="edge">
<title>Node24&#45;&gt;Node3</title>
<path fill="none" stroke="midnightblue" d="M427.75,-266.41C440.8,-261.73 456.7,-256.03 470.82,-250.97"/>
<polygon fill="midnightblue" stroke="midnightblue" points="472.03,-254.26 480.26,-247.59 469.67,-247.67 472.03,-254.26"/>
</g>
</g>
</svg>
