<?xml version="1.0" encoding="UTF-8" standalone="no"?>
<!DOCTYPE svg PUBLIC "-//W3C//DTD SVG 1.1//EN"
 "http://www.w3.org/Graphics/SVG/1.1/DTD/svg11.dtd">
<!-- Generated by graphviz version 3.0.0 (20220413.0106)
 -->
<!-- Title: kmt_get_task Pages: 1 -->
<svg width="422pt" height="85pt"
 viewBox="0.00 0.00 422.00 85.00" xmlns="http://www.w3.org/2000/svg" xmlns:xlink="http://www.w3.org/1999/xlink">
<g id="graph0" class="graph" transform="scale(1 1) rotate(0) translate(4 81)">
<title>kmt_get_task</title>
<!-- Node1 -->
<g id="node1" class="node">
<title>Node1</title>
<g id="a_node1"><a xlink:title="get current cpu&#39;s tasks">
<polygon fill="#bfbfbf" stroke="black" points="338,-19.5 338,-38.5 414,-38.5 414,-19.5 338,-19.5"/>
<text text-anchor="middle" x="376" y="-26.5" font-family="Helvetica,sans-Serif" font-size="10.00">kmt_get_task</text>
</a>
</g>
</g>
<!-- Node2 -->
<g id="node2" class="node">
<title>Node2</title>
<g id="a_node2"><a xlink:href="kmt_8c.html#af9c485ce0d89d6624e6e80e31d8ed207" target="_top" xlink:title="handler: save context to current task">
<polygon fill="none" stroke="black" points="206,-57.5 206,-76.5 302,-76.5 302,-57.5 206,-57.5"/>
<text text-anchor="middle" x="254" y="-64.5" font-family="Helvetica,sans-Serif" font-size="10.00">kmt_context_save</text>
</a>
</g>
</g>
<!-- Node1&#45;&gt;Node2 -->
<g id="edge1" class="edge">
<title>Node1&#45;&gt;Node2</title>
<path fill="none" stroke="midnightblue" d="M334.96,-41.68C318.74,-46.81 300.33,-52.64 285.27,-57.41"/>
<polygon fill="midnightblue" stroke="midnightblue" points="336.24,-44.94 344.72,-38.59 334.13,-38.27 336.24,-44.94"/>
</g>
<!-- Node4 -->
<g id="node4" class="node">
<title>Node4</title>
<g id="a_node4"><a xlink:href="kmt_8c.html#af360ef0d98ca30e481cc58ea3695fd58" target="_top" xlink:title=" ">
<polygon fill="none" stroke="black" points="0,-0.5 0,-19.5 83,-19.5 83,-0.5 0,-0.5"/>
<text text-anchor="middle" x="41.5" y="-7.5" font-family="Helvetica,sans-Serif" font-size="10.00">MODULE_DEF</text>
</a>
</g>
</g>
<!-- Node1&#45;&gt;Node4 -->
<g id="edge6" class="edge">
<title>Node1&#45;&gt;Node4</title>
<path fill="none" stroke="midnightblue" d="M335.53,-16.77C324.76,-13.98 313.03,-11.41 302,-10 225.14,-0.16 134.42,-3.54 83.16,-6.82"/>
<polygon fill="midnightblue" stroke="midnightblue" points="334.93,-20.24 345.5,-19.5 336.78,-13.48 334.93,-20.24"/>
</g>
<!-- Node5 -->
<g id="node5" class="node">
<title>Node5</title>
<g id="a_node5"><a xlink:href="kmt_8c.html#ad4d70b4093829da1c0b0631abdff7747" target="_top" xlink:title="handler: schedule next task to run Notice: this should be the only handler which returns real Context">
<polygon fill="none" stroke="black" points="215.5,-19.5 215.5,-38.5 292.5,-38.5 292.5,-19.5 215.5,-19.5"/>
<text text-anchor="middle" x="254" y="-26.5" font-family="Helvetica,sans-Serif" font-size="10.00">kmt_schedule</text>
</a>
</g>
</g>
<!-- Node1&#45;&gt;Node5 -->
<g id="edge4" class="edge">
<title>Node1&#45;&gt;Node5</title>
<path fill="none" stroke="midnightblue" d="M327.35,-29C315.83,-29 303.69,-29 292.7,-29"/>
<polygon fill="midnightblue" stroke="midnightblue" points="327.69,-32.5 337.69,-29 327.69,-25.5 327.69,-32.5"/>
</g>
<!-- Node3 -->
<g id="node3" class="node">
<title>Node3</title>
<g id="a_node3"><a xlink:href="kmt_8c.html#a0c68a294cecc4be7cb4b495f15b883a0" target="_top" xlink:title="initialize kmt module">
<polygon fill="none" stroke="black" points="119,-19.5 119,-38.5 170,-38.5 170,-19.5 119,-19.5"/>
<text text-anchor="middle" x="144.5" y="-26.5" font-family="Helvetica,sans-Serif" font-size="10.00">kmt_init</text>
</a>
</g>
</g>
<!-- Node2&#45;&gt;Node3 -->
<g id="edge2" class="edge">
<title>Node2&#45;&gt;Node3</title>
<path fill="none" stroke="midnightblue" d="M216.21,-53.99C200.97,-48.61 183.7,-42.5 170.04,-37.68"/>
<polygon fill="midnightblue" stroke="midnightblue" points="215.28,-57.38 225.87,-57.41 217.61,-50.78 215.28,-57.38"/>
</g>
<!-- Node3&#45;&gt;Node4 -->
<g id="edge3" class="edge">
<title>Node3&#45;&gt;Node4</title>
<path fill="none" stroke="midnightblue" d="M108.74,-22.46C100.47,-20.91 91.58,-19.23 83.08,-17.63"/>
<polygon fill="midnightblue" stroke="midnightblue" points="108.32,-25.94 118.79,-24.35 109.61,-19.06 108.32,-25.94"/>
</g>
<!-- Node5&#45;&gt;Node3 -->
<g id="edge5" class="edge">
<title>Node5&#45;&gt;Node3</title>
<path fill="none" stroke="midnightblue" d="M205.34,-29C193.17,-29 180.58,-29 170.11,-29"/>
<polygon fill="midnightblue" stroke="midnightblue" points="205.4,-32.5 215.4,-29 205.4,-25.5 205.4,-32.5"/>
</g>
</g>
</svg>
