<?xml version="1.0" encoding="UTF-8" standalone="no"?>
<!DOCTYPE svg PUBLIC "-//W3C//DTD SVG 1.1//EN"
 "http://www.w3.org/Graphics/SVG/1.1/DTD/svg11.dtd">
<!-- Generated by graphviz version 3.0.0 (20220413.0106)
 -->
<!-- Title: kernel/src/kmt.c Pages: 1 -->
<svg width="408pt" height="420pt"
 viewBox="0.00 0.00 407.50 420.00" xmlns="http://www.w3.org/2000/svg" xmlns:xlink="http://www.w3.org/1999/xlink">
<g id="graph0" class="graph" transform="scale(1 1) rotate(0) translate(4 416)">
<title>kernel/src/kmt.c</title>
<!-- Node1 -->
<g id="node1" class="node">
<title>Node1</title>
<g id="a_node1"><a xlink:title=" ">
<polygon fill="#bfbfbf" stroke="black" points="116,-392.5 116,-411.5 202,-411.5 202,-392.5 116,-392.5"/>
<text text-anchor="middle" x="159" y="-399.5" font-family="Helvetica,sans-Serif" font-size="10.00">kernel/src/kmt.c</text>
</a>
</g>
</g>
<!-- Node2 -->
<g id="node2" class="node">
<title>Node2</title>
<g id="a_node2"><a xlink:href="common_8h.html" target="_top" xlink:title=" ">
<polygon fill="none" stroke="black" points="179,-168.5 179,-187.5 241,-187.5 241,-168.5 179,-168.5"/>
<text text-anchor="middle" x="210" y="-175.5" font-family="Helvetica,sans-Serif" font-size="10.00">common.h</text>
</a>
</g>
</g>
<!-- Node1&#45;&gt;Node2 -->
<g id="edge1" class="edge">
<title>Node1&#45;&gt;Node2</title>
<path fill="none" stroke="midnightblue" d="M176.5,-392.46C189.79,-384.92 207.08,-372.53 215,-356 240.31,-303.2 225.19,-230.99 215.79,-197.48"/>
<polygon fill="midnightblue" stroke="midnightblue" points="219.08,-196.27 212.89,-187.68 212.37,-198.26 219.08,-196.27"/>
</g>
<!-- Node14 -->
<g id="node14" class="node">
<title>Node14</title>
<g id="a_node14"><a xlink:href="sem_8h.html" target="_top" xlink:title=" ">
<polygon fill="none" stroke="black" points="162.5,-336.5 162.5,-355.5 205.5,-355.5 205.5,-336.5 162.5,-336.5"/>
<text text-anchor="middle" x="184" y="-343.5" font-family="Helvetica,sans-Serif" font-size="10.00">sem.h</text>
</a>
</g>
</g>
<!-- Node1&#45;&gt;Node14 -->
<g id="edge18" class="edge">
<title>Node1&#45;&gt;Node14</title>
<path fill="none" stroke="midnightblue" d="M163.13,-392.08C166.51,-384.77 171.42,-374.18 175.62,-365.1"/>
<polygon fill="midnightblue" stroke="midnightblue" points="178.92,-366.3 179.95,-355.75 172.57,-363.36 178.92,-366.3"/>
</g>
<!-- Node15 -->
<g id="node15" class="node">
<title>Node15</title>
<g id="a_node15"><a xlink:href="spinlock_8h.html" target="_top" xlink:title=" ">
<polygon fill="none" stroke="black" points="121,-224.5 121,-243.5 181,-243.5 181,-224.5 121,-224.5"/>
<text text-anchor="middle" x="151" y="-231.5" font-family="Helvetica,sans-Serif" font-size="10.00">spinlock.h</text>
</a>
</g>
</g>
<!-- Node1&#45;&gt;Node15 -->
<g id="edge27" class="edge">
<title>Node1&#45;&gt;Node15</title>
<path fill="none" stroke="midnightblue" d="M157.82,-392.39C156.64,-383.35 154.86,-368.7 154,-356 151.54,-319.79 151.04,-277.35 150.97,-253.58"/>
<polygon fill="midnightblue" stroke="midnightblue" points="154.47,-253.52 150.96,-243.52 147.47,-253.52 154.47,-253.52"/>
</g>
<!-- Node16 -->
<g id="node16" class="node">
<title>Node16</title>
<g id="a_node16"><a xlink:href="thread_8h.html" target="_top" xlink:title=" ">
<polygon fill="none" stroke="black" points="54.5,-280.5 54.5,-299.5 105.5,-299.5 105.5,-280.5 54.5,-280.5"/>
<text text-anchor="middle" x="80" y="-287.5" font-family="Helvetica,sans-Serif" font-size="10.00">thread.h</text>
</a>
</g>
</g>
<!-- Node1&#45;&gt;Node16 -->
<g id="edge28" class="edge">
<title>Node1&#45;&gt;Node16</title>
<path fill="none" stroke="midnightblue" d="M150.79,-392.39C142.57,-383.58 129.78,-369.34 120,-356 108.76,-340.67 97.56,-322.12 89.88,-308.76"/>
<polygon fill="midnightblue" stroke="midnightblue" points="92.72,-306.68 84.75,-299.7 86.63,-310.13 92.72,-306.68"/>
</g>
<!-- Node3 -->
<g id="node3" class="node">
<title>Node3</title>
<g id="a_node3"><a xlink:href="am_8h.html" target="_top" xlink:title=" ">
<polygon fill="none" stroke="black" points="132,-56.5 132,-75.5 170,-75.5 170,-56.5 132,-56.5"/>
<text text-anchor="middle" x="151" y="-63.5" font-family="Helvetica,sans-Serif" font-size="10.00">am.h</text>
</a>
</g>
</g>
<!-- Node2&#45;&gt;Node3 -->
<g id="edge2" class="edge">
<title>Node2&#45;&gt;Node3</title>
<path fill="none" stroke="midnightblue" d="M198.14,-168.38C187.77,-160.19 173.14,-146.94 165,-132 157.15,-117.59 153.7,-99.13 152.19,-85.57"/>
<polygon fill="midnightblue" stroke="midnightblue" points="155.67,-85.19 151.31,-75.53 148.69,-85.79 155.67,-85.19"/>
</g>
<!-- Node7 -->
<g id="node7" class="node">
<title>Node7</title>
<g id="a_node7"><a xlink:href="amdev_8h.html" target="_top" xlink:title=" ">
<polygon fill="none" stroke="black" points="346.5,-0.5 346.5,-19.5 399.5,-19.5 399.5,-0.5 346.5,-0.5"/>
<text text-anchor="middle" x="373" y="-7.5" font-family="Helvetica,sans-Serif" font-size="10.00">amdev.h</text>
</a>
</g>
</g>
<!-- Node2&#45;&gt;Node7 -->
<g id="edge7" class="edge">
<title>Node2&#45;&gt;Node7</title>
<path fill="none" stroke="midnightblue" d="M241.25,-173.26C285.57,-167.25 363.19,-153.83 380,-132 403.01,-102.1 390.36,-54.73 380.71,-29.03"/>
<polygon fill="midnightblue" stroke="midnightblue" points="383.95,-27.72 376.99,-19.74 377.46,-30.32 383.95,-27.72"/>
</g>
<!-- Node8 -->
<g id="node8" class="node">
<title>Node8</title>
<g id="a_node8"><a xlink:href="kernel_8h.html" target="_top" xlink:title=" ">
<polygon fill="none" stroke="black" points="68,-112.5 68,-131.5 118,-131.5 118,-112.5 68,-112.5"/>
<text text-anchor="middle" x="93" y="-119.5" font-family="Helvetica,sans-Serif" font-size="10.00">kernel.h</text>
</a>
</g>
</g>
<!-- Node2&#45;&gt;Node8 -->
<g id="edge8" class="edge">
<title>Node2&#45;&gt;Node8</title>
<path fill="none" stroke="midnightblue" d="M191.46,-168.44C172.38,-159.64 142.43,-145.81 120.56,-135.72"/>
<polygon fill="midnightblue" stroke="midnightblue" points="122,-132.53 111.45,-131.52 119.07,-138.88 122,-132.53"/>
</g>
<!-- Node9 -->
<g id="node9" class="node">
<title>Node9</title>
<g id="a_node9"><a xlink:href="klib_8h.html" target="_top" xlink:title=" ">
<polygon fill="none" stroke="black" points="331.5,-112.5 331.5,-131.5 370.5,-131.5 370.5,-112.5 331.5,-112.5"/>
<text text-anchor="middle" x="351" y="-119.5" font-family="Helvetica,sans-Serif" font-size="10.00">klib.h</text>
</a>
</g>
</g>
<!-- Node2&#45;&gt;Node9 -->
<g id="edge10" class="edge">
<title>Node2&#45;&gt;Node9</title>
<path fill="none" stroke="midnightblue" d="M232.34,-168.44C256.58,-159.16 295.36,-144.31 321.95,-134.13"/>
<polygon fill="midnightblue" stroke="midnightblue" points="323.4,-137.32 331.49,-130.47 320.9,-130.78 323.4,-137.32"/>
</g>
<!-- Node11 -->
<g id="node11" class="node">
<title>Node11</title>
<g id="a_node11"><a xlink:href="klib-macros_8h.html" target="_top" xlink:title=" ">
<polygon fill="none" stroke="black" points="174,-112.5 174,-131.5 248,-131.5 248,-112.5 174,-112.5"/>
<text text-anchor="middle" x="211" y="-119.5" font-family="Helvetica,sans-Serif" font-size="10.00">klib&#45;macros.h</text>
</a>
</g>
</g>
<!-- Node2&#45;&gt;Node11 -->
<g id="edge14" class="edge">
<title>Node2&#45;&gt;Node11</title>
<path fill="none" stroke="midnightblue" d="M210.17,-168.08C210.3,-161.01 210.48,-150.86 210.65,-141.99"/>
<polygon fill="midnightblue" stroke="midnightblue" points="214.15,-141.81 210.84,-131.75 207.15,-141.68 214.15,-141.81"/>
</g>
<!-- Node12 -->
<g id="node12" class="node">
<title>Node12</title>
<g id="a_node12"><a xlink:href="logger_8h.html" target="_top" xlink:title=" ">
<polygon fill="none" stroke="black" points="0,-112.5 0,-131.5 50,-131.5 50,-112.5 0,-112.5"/>
<text text-anchor="middle" x="25" y="-119.5" font-family="Helvetica,sans-Serif" font-size="10.00">logger.h</text>
</a>
</g>
</g>
<!-- Node2&#45;&gt;Node12 -->
<g id="edge15" class="edge">
<title>Node2&#45;&gt;Node12</title>
<path fill="none" stroke="midnightblue" d="M180.69,-168.44C147.86,-158.86 94.7,-143.34 59.79,-133.15"/>
<polygon fill="midnightblue" stroke="midnightblue" points="60.6,-129.75 50.02,-130.3 58.64,-136.47 60.6,-129.75"/>
</g>
<!-- Node13 -->
<g id="node13" class="node">
<title>Node13</title>
<g id="a_node13"><a xlink:title=" ">
<polygon fill="none" stroke="#bfbfbf" points="266.5,-112.5 266.5,-131.5 313.5,-131.5 313.5,-112.5 266.5,-112.5"/>
<text text-anchor="middle" x="290" y="-119.5" font-family="Helvetica,sans-Serif" font-size="10.00">limits.h</text>
</a>
</g>
</g>
<!-- Node2&#45;&gt;Node13 -->
<g id="edge17" class="edge">
<title>Node2&#45;&gt;Node13</title>
<path fill="none" stroke="midnightblue" d="M222.85,-168.32C235.22,-159.98 254.13,-147.21 268.74,-137.35"/>
<polygon fill="midnightblue" stroke="midnightblue" points="270.85,-140.15 277.18,-131.65 266.93,-134.35 270.85,-140.15"/>
</g>
<!-- Node4 -->
<g id="node4" class="node">
<title>Node4</title>
<g id="a_node4"><a xlink:title=" ">
<polygon fill="none" stroke="#bfbfbf" points="92,-0.5 92,-19.5 140,-19.5 140,-0.5 92,-0.5"/>
<text text-anchor="middle" x="116" y="-7.5" font-family="Helvetica,sans-Serif" font-size="10.00">stdint.h</text>
</a>
</g>
</g>
<!-- Node3&#45;&gt;Node4 -->
<g id="edge3" class="edge">
<title>Node3&#45;&gt;Node4</title>
<path fill="none" stroke="midnightblue" d="M145.22,-56.08C140.33,-48.53 133.17,-37.49 127.17,-28.23"/>
<polygon fill="midnightblue" stroke="midnightblue" points="130.05,-26.24 121.67,-19.75 124.17,-30.05 130.05,-26.24"/>
</g>
<!-- Node5 -->
<g id="node5" class="node">
<title>Node5</title>
<g id="a_node5"><a xlink:title=" ">
<polygon fill="none" stroke="#bfbfbf" points="251.5,-0.5 251.5,-19.5 302.5,-19.5 302.5,-0.5 251.5,-0.5"/>
<text text-anchor="middle" x="277" y="-7.5" font-family="Helvetica,sans-Serif" font-size="10.00">stddef.h</text>
</a>
</g>
</g>
<!-- Node3&#45;&gt;Node5 -->
<g id="edge4" class="edge">
<title>Node3&#45;&gt;Node5</title>
<path fill="none" stroke="midnightblue" d="M170.14,-56.8C190.71,-47.98 223.67,-33.86 247.55,-23.62"/>
<polygon fill="midnightblue" stroke="midnightblue" points="249.03,-26.79 256.85,-19.64 246.28,-20.36 249.03,-26.79"/>
</g>
<!-- Node6 -->
<g id="node6" class="node">
<title>Node6</title>
<g id="a_node6"><a xlink:title=" ">
<polygon fill="none" stroke="#bfbfbf" points="158,-0.5 158,-19.5 214,-19.5 214,-0.5 158,-0.5"/>
<text text-anchor="middle" x="186" y="-7.5" font-family="Helvetica,sans-Serif" font-size="10.00">stdbool.h</text>
</a>
</g>
</g>
<!-- Node3&#45;&gt;Node6 -->
<g id="edge5" class="edge">
<title>Node3&#45;&gt;Node6</title>
<path fill="none" stroke="midnightblue" d="M156.78,-56.08C161.67,-48.53 168.83,-37.49 174.83,-28.23"/>
<polygon fill="midnightblue" stroke="midnightblue" points="177.83,-30.05 180.33,-19.75 171.95,-26.24 177.83,-30.05"/>
</g>
<!-- Node3&#45;&gt;Node7 -->
<g id="edge6" class="edge">
<title>Node3&#45;&gt;Node7</title>
<path fill="none" stroke="midnightblue" d="M170.31,-60.3C207.36,-51.29 288.96,-31.44 336.56,-19.86"/>
<polygon fill="midnightblue" stroke="midnightblue" points="337.56,-23.22 346.45,-17.46 335.91,-16.42 337.56,-23.22"/>
</g>
<!-- Node8&#45;&gt;Node3 -->
<g id="edge9" class="edge">
<title>Node8&#45;&gt;Node3</title>
<path fill="none" stroke="midnightblue" d="M102.32,-112.32C110.89,-104.34 123.81,-92.31 134.19,-82.65"/>
<polygon fill="midnightblue" stroke="midnightblue" points="136.58,-85.21 141.51,-75.83 131.81,-80.09 136.58,-85.21"/>
</g>
<!-- Node9&#45;&gt;Node3 -->
<g id="edge11" class="edge">
<title>Node9&#45;&gt;Node3</title>
<path fill="none" stroke="midnightblue" d="M331.46,-114.57C328.63,-113.68 325.75,-112.8 323,-112 273.05,-97.45 214.31,-82.55 180.01,-74.07"/>
<polygon fill="midnightblue" stroke="midnightblue" points="180.73,-70.64 170.18,-71.65 179.06,-77.44 180.73,-70.64"/>
</g>
<!-- Node9&#45;&gt;Node5 -->
<g id="edge12" class="edge">
<title>Node9&#45;&gt;Node5</title>
<path fill="none" stroke="midnightblue" d="M342.03,-112.24C333.42,-103.55 320.38,-89.59 311,-76 300.62,-60.97 291.2,-42.37 284.92,-28.93"/>
<polygon fill="midnightblue" stroke="midnightblue" points="288.09,-27.45 280.77,-19.8 281.72,-30.35 288.09,-27.45"/>
</g>
<!-- Node10 -->
<g id="node10" class="node">
<title>Node10</title>
<g id="a_node10"><a xlink:title=" ">
<polygon fill="none" stroke="#bfbfbf" points="319.5,-56.5 319.5,-75.5 370.5,-75.5 370.5,-56.5 319.5,-56.5"/>
<text text-anchor="middle" x="345" y="-63.5" font-family="Helvetica,sans-Serif" font-size="10.00">stdarg.h</text>
</a>
</g>
</g>
<!-- Node9&#45;&gt;Node10 -->
<g id="edge13" class="edge">
<title>Node9&#45;&gt;Node10</title>
<path fill="none" stroke="midnightblue" d="M350.01,-112.08C349.21,-104.93 348.07,-94.64 347.08,-85.69"/>
<polygon fill="midnightblue" stroke="midnightblue" points="350.56,-85.3 345.97,-75.75 343.6,-86.08 350.56,-85.3"/>
</g>
<!-- Node12&#45;&gt;Node3 -->
<g id="edge16" class="edge">
<title>Node12&#45;&gt;Node3</title>
<path fill="none" stroke="midnightblue" d="M44.97,-112.44C65.85,-103.49 98.83,-89.36 122.46,-79.23"/>
<polygon fill="midnightblue" stroke="midnightblue" points="124.14,-82.32 131.95,-75.16 121.38,-75.89 124.14,-82.32"/>
</g>
<!-- Node14&#45;&gt;Node2 -->
<g id="edge19" class="edge">
<title>Node14&#45;&gt;Node2</title>
<path fill="none" stroke="midnightblue" d="M185.4,-336.08C189.49,-309.95 201.51,-233.21 207.09,-197.58"/>
<polygon fill="midnightblue" stroke="midnightblue" points="210.57,-197.99 208.66,-187.57 203.65,-196.91 210.57,-197.99"/>
</g>
<!-- Node14&#45;&gt;Node15 -->
<g id="edge20" class="edge">
<title>Node14&#45;&gt;Node15</title>
<path fill="none" stroke="midnightblue" d="M181.41,-336.37C176.06,-318.54 163.69,-277.3 156.48,-253.27"/>
<polygon fill="midnightblue" stroke="midnightblue" points="159.8,-252.16 153.58,-243.59 153.1,-254.18 159.8,-252.16"/>
</g>
<!-- Node14&#45;&gt;Node16 -->
<g id="edge22" class="edge">
<title>Node14&#45;&gt;Node16</title>
<path fill="none" stroke="midnightblue" d="M167.29,-336.32C150.69,-327.7 125,-314.36 105.78,-304.39"/>
<polygon fill="midnightblue" stroke="midnightblue" points="107.16,-301.16 96.67,-299.65 103.93,-307.37 107.16,-301.16"/>
</g>
<!-- Node15&#45;&gt;Node2 -->
<g id="edge21" class="edge">
<title>Node15&#45;&gt;Node2</title>
<path fill="none" stroke="midnightblue" d="M160.48,-224.32C169.2,-216.34 182.34,-204.31 192.9,-194.65"/>
<polygon fill="midnightblue" stroke="midnightblue" points="195.33,-197.17 200.35,-187.83 190.61,-192 195.33,-197.17"/>
</g>
<!-- Node16&#45;&gt;Node2 -->
<g id="edge23" class="edge">
<title>Node16&#45;&gt;Node2</title>
<path fill="none" stroke="midnightblue" d="M82.23,-280.3C86.14,-266.66 95.42,-240.14 112,-224 127.95,-208.47 150.23,-197.66 169.51,-190.53"/>
<polygon fill="midnightblue" stroke="midnightblue" points="170.7,-193.83 178.99,-187.23 168.39,-187.22 170.7,-193.83"/>
</g>
<!-- Node16&#45;&gt;Node15 -->
<g id="edge26" class="edge">
<title>Node16&#45;&gt;Node15</title>
<path fill="none" stroke="midnightblue" d="M91.41,-280.32C102.11,-272.18 118.34,-259.84 131.16,-250.09"/>
<polygon fill="midnightblue" stroke="midnightblue" points="133.54,-252.67 139.39,-243.83 129.31,-247.1 133.54,-252.67"/>
</g>
<!-- Node17 -->
<g id="node17" class="node">
<title>Node17</title>
<g id="a_node17"><a xlink:href="list_8h.html" target="_top" xlink:title="double circular linked list impl without concurrency">
<polygon fill="none" stroke="black" points="14.5,-168.5 14.5,-187.5 51.5,-187.5 51.5,-168.5 14.5,-168.5"/>
<text text-anchor="middle" x="33" y="-175.5" font-family="Helvetica,sans-Serif" font-size="10.00">list.h</text>
</a>
</g>
</g>
<!-- Node16&#45;&gt;Node17 -->
<g id="edge24" class="edge">
<title>Node16&#45;&gt;Node17</title>
<path fill="none" stroke="midnightblue" d="M76.31,-280.37C68.66,-262.46 50.91,-220.92 40.67,-196.95"/>
<polygon fill="midnightblue" stroke="midnightblue" points="43.82,-195.41 36.67,-187.59 37.38,-198.16 43.82,-195.41"/>
</g>
<!-- Node17&#45;&gt;Node12 -->
<g id="edge25" class="edge">
<title>Node17&#45;&gt;Node12</title>
<path fill="none" stroke="midnightblue" d="M31.68,-168.08C30.62,-160.93 29.09,-150.64 27.77,-141.69"/>
<polygon fill="midnightblue" stroke="midnightblue" points="31.22,-141.13 26.3,-131.75 24.3,-142.16 31.22,-141.13"/>
</g>
</g>
</svg>
