<?xml version="1.0" encoding="UTF-8" standalone="no"?>
<!DOCTYPE svg PUBLIC "-//W3C//DTD SVG 1.1//EN"
 "http://www.w3.org/Graphics/SVG/1.1/DTD/svg11.dtd">
<!-- Generated by graphviz version 3.0.0 (20220413.0106)
 -->
<!-- Title: kmt_init Pages: 1 -->
<svg width="831pt" height="507pt"
 viewBox="0.00 0.00 831.00 507.43" xmlns="http://www.w3.org/2000/svg" xmlns:xlink="http://www.w3.org/1999/xlink">
<g id="graph0" class="graph" transform="scale(1 1) rotate(0) translate(4 503.43)">
<title>kmt_init</title>
<!-- Node1 -->
<g id="node1" class="node">
<title>Node1</title>
<g id="a_node1"><a xlink:title="initialize kmt module">
<polygon fill="#bfbfbf" stroke="black" points="0,-185.78 0,-204.78 51,-204.78 51,-185.78 0,-185.78"/>
<text text-anchor="middle" x="25.5" y="-192.78" font-family="Helvetica,sans-Serif" font-size="10.00">kmt_init</text>
</a>
</g>
</g>
<!-- Node2 -->
<g id="node2" class="node">
<title>Node2</title>
<g id="a_node2"><a xlink:href="kmt_8c.html#af9c485ce0d89d6624e6e80e31d8ed207" target="_top" xlink:title="handler: save context to current task">
<polygon fill="none" stroke="black" points="205.5,-337.78 205.5,-356.78 301.5,-356.78 301.5,-337.78 205.5,-337.78"/>
<text text-anchor="middle" x="253.5" y="-344.78" font-family="Helvetica,sans-Serif" font-size="10.00">kmt_context_save</text>
</a>
</g>
</g>
<!-- Node1&#45;&gt;Node2 -->
<g id="edge1" class="edge">
<title>Node1&#45;&gt;Node2</title>
<path fill="none" stroke="midnightblue" d="M31.59,-204.92C40.71,-221.37 61.28,-255.03 87,-275.28 123.12,-303.71 172.2,-323.2 207.51,-334.66"/>
<polygon fill="midnightblue" stroke="midnightblue" points="206.5,-338.01 217.09,-337.68 208.6,-331.33 206.5,-338.01"/>
</g>
<!-- Node17 -->
<g id="node17" class="node">
<title>Node17</title>
<g id="a_node17"><a xlink:href="kmt_8c.html#ad3fbc643b7b6092120c5152b4c890354" target="_top" xlink:title="handler: handle program errors">
<polygon fill="none" stroke="black" points="96.5,-166.78 96.5,-185.78 154.5,-185.78 154.5,-166.78 96.5,-166.78"/>
<text text-anchor="middle" x="125.5" y="-173.78" font-family="Helvetica,sans-Serif" font-size="10.00">kmt_error</text>
</a>
</g>
</g>
<!-- Node1&#45;&gt;Node17 -->
<g id="edge26" class="edge">
<title>Node1&#45;&gt;Node17</title>
<path fill="none" stroke="midnightblue" d="M51.23,-190.48C61.84,-188.42 74.49,-185.97 86.26,-183.69"/>
<polygon fill="midnightblue" stroke="midnightblue" points="87.16,-187.08 96.31,-181.74 85.83,-180.21 87.16,-187.08"/>
</g>
<!-- Node27 -->
<g id="node27" class="node">
<title>Node27</title>
<g id="a_node27"><a xlink:href="kmt_8c.html#ad4d70b4093829da1c0b0631abdff7747" target="_top" xlink:title="handler: schedule next task to run Notice: this should be the only handler which returns real Context">
<polygon fill="none" stroke="black" points="87,-223.78 87,-242.78 164,-242.78 164,-223.78 87,-223.78"/>
<text text-anchor="middle" x="125.5" y="-230.78" font-family="Helvetica,sans-Serif" font-size="10.00">kmt_schedule</text>
</a>
</g>
</g>
<!-- Node1&#45;&gt;Node27 -->
<g id="edge44" class="edge">
<title>Node1&#45;&gt;Node27</title>
<path fill="none" stroke="midnightblue" d="M51.23,-204.86C63.07,-209.45 77.44,-215.03 90.3,-220.01"/>
<polygon fill="midnightblue" stroke="midnightblue" points="89.19,-223.34 99.78,-223.69 91.72,-216.81 89.19,-223.34"/>
</g>
<!-- Node29 -->
<g id="node29" class="node">
<title>Node29</title>
<g id="a_node29"><a xlink:href="kmt_8c.html#a046a92c2d695ccdd1ad42210135ed597" target="_top" xlink:title="handler: triggered when aipc timer fired up">
<polygon fill="none" stroke="black" points="95.5,-128.78 95.5,-147.78 155.5,-147.78 155.5,-128.78 95.5,-128.78"/>
<text text-anchor="middle" x="125.5" y="-135.78" font-family="Helvetica,sans-Serif" font-size="10.00">kmt_timer</text>
</a>
</g>
</g>
<!-- Node1&#45;&gt;Node29 -->
<g id="edge54" class="edge">
<title>Node1&#45;&gt;Node29</title>
<path fill="none" stroke="midnightblue" d="M41.19,-185.52C53.3,-177.6 71.02,-166.31 87,-157.28 89.86,-155.66 92.87,-154.02 95.89,-152.42"/>
<polygon fill="midnightblue" stroke="midnightblue" points="97.57,-155.5 104.86,-147.8 94.37,-149.27 97.57,-155.5"/>
</g>
<!-- Node30 -->
<g id="node30" class="node">
<title>Node30</title>
<g id="a_node30"><a xlink:href="kmt_8c.html#a75ea8dbba16d64a343a45962bd593930" target="_top" xlink:title="handler: handle yield interrupt (0x81)">
<polygon fill="none" stroke="black" points="224.5,-261.78 224.5,-280.78 282.5,-280.78 282.5,-261.78 224.5,-261.78"/>
<text text-anchor="middle" x="253.5" y="-268.78" font-family="Helvetica,sans-Serif" font-size="10.00">kmt_yield</text>
</a>
</g>
</g>
<!-- Node1&#45;&gt;Node30 -->
<g id="edge55" class="edge">
<title>Node1&#45;&gt;Node30</title>
<path fill="none" stroke="midnightblue" d="M33.44,-204.91C43.56,-218.12 63.7,-241.45 87,-252.28 127.53,-271.11 179.42,-274.13 214.2,-273.56"/>
<polygon fill="midnightblue" stroke="midnightblue" points="214.51,-277.06 224.41,-273.29 214.32,-270.06 214.51,-277.06"/>
</g>
<!-- Node31 -->
<g id="node31" class="node">
<title>Node31</title>
<g id="a_node31"><a xlink:href="string_8c.html#a7a8fd43b209c9ea19addab23a5f23995" target="_top" xlink:title=" ">
<polygon fill="none" stroke="black" points="99.5,-90.78 99.5,-109.78 151.5,-109.78 151.5,-90.78 99.5,-90.78"/>
<text text-anchor="middle" x="125.5" y="-97.78" font-family="Helvetica,sans-Serif" font-size="10.00">memset</text>
</a>
</g>
</g>
<!-- Node1&#45;&gt;Node31 -->
<g id="edge60" class="edge">
<title>Node1&#45;&gt;Node31</title>
<path fill="none" stroke="midnightblue" d="M32.46,-185.27C42.21,-169.56 62.94,-138.88 87,-119.28 88.79,-117.81 90.72,-116.42 92.71,-115.11"/>
<polygon fill="midnightblue" stroke="midnightblue" points="94.86,-117.91 101.72,-109.84 91.32,-111.87 94.86,-117.91"/>
</g>
<!-- Node3 -->
<g id="node3" class="node">
<title>Node3</title>
<g id="a_node3"><a xlink:href="mpe_8c.html#ab701de78cad32896c923ce900087e714" target="_top" xlink:title=" ">
<polygon fill="none" stroke="black" points="674,-337.78 674,-356.78 742,-356.78 742,-337.78 674,-337.78"/>
<text text-anchor="middle" x="708" y="-344.78" font-family="Helvetica,sans-Serif" font-size="10.00">cpu_current</text>
</a>
</g>
</g>
<!-- Node2&#45;&gt;Node3 -->
<g id="edge2" class="edge">
<title>Node2&#45;&gt;Node3</title>
<path fill="none" stroke="midnightblue" d="M264.92,-356.91C280.51,-370.58 311.44,-394.99 343,-404.28 469.07,-441.36 512.35,-422.77 638,-384.28 654.42,-379.24 671.44,-370.17 684.46,-362.26"/>
<polygon fill="midnightblue" stroke="midnightblue" points="686.57,-365.07 693.18,-356.79 682.85,-359.15 686.57,-365.07"/>
</g>
<!-- Node4 -->
<g id="node4" class="node">
<title>Node4</title>
<g id="a_node4"><a xlink:href="kmt_8c.html#a031a09141c265954f2b609183e573d1c" target="_top" xlink:title="get current cpu&#39;s tasks">
<polygon fill="none" stroke="black" points="343,-375.78 343,-394.78 419,-394.78 419,-375.78 343,-375.78"/>
<text text-anchor="middle" x="381" y="-382.78" font-family="Helvetica,sans-Serif" font-size="10.00">kmt_get_task</text>
</a>
</g>
</g>
<!-- Node2&#45;&gt;Node4 -->
<g id="edge3" class="edge">
<title>Node2&#45;&gt;Node4</title>
<path fill="none" stroke="midnightblue" d="M286.17,-356.86C302.07,-361.68 321.54,-367.57 338.61,-372.74"/>
<polygon fill="midnightblue" stroke="midnightblue" points="337.76,-376.14 348.34,-375.69 339.78,-369.44 337.76,-376.14"/>
</g>
<!-- Node5 -->
<g id="node5" class="node">
<title>Node5</title>
<g id="a_node5"><a xlink:href="spinlock_8c.html#ad4be0d674a7ca4dc90c2dbf8b34562cc" target="_top" xlink:title="check current cpu has the lock">
<polygon fill="none" stroke="black" points="457.5,-223.78 457.5,-242.78 528.5,-242.78 528.5,-223.78 457.5,-223.78"/>
<text text-anchor="middle" x="493" y="-230.78" font-family="Helvetica,sans-Serif" font-size="10.00">spin_holding</text>
</a>
</g>
</g>
<!-- Node2&#45;&gt;Node5 -->
<g id="edge5" class="edge">
<title>Node2&#45;&gt;Node5</title>
<path fill="none" stroke="midnightblue" d="M301.81,-351.29C336.42,-352.06 383.35,-348.46 419,-328.28 449.92,-310.76 472.08,-274.32 483.4,-252.01"/>
<polygon fill="midnightblue" stroke="midnightblue" points="486.62,-253.39 487.84,-242.87 480.32,-250.34 486.62,-253.39"/>
</g>
<!-- Node13 -->
<g id="node13" class="node">
<title>Node13</title>
<g id="a_node13"><a xlink:href="spinlock_8c.html#ab6f3c37ec37006951feccc3c05387cce" target="_top" xlink:title="acquire spinlock to current cpu">
<polygon fill="none" stroke="black" points="352,-299.78 352,-318.78 410,-318.78 410,-299.78 352,-299.78"/>
<text text-anchor="middle" x="381" y="-306.78" font-family="Helvetica,sans-Serif" font-size="10.00">spin_lock</text>
</a>
</g>
</g>
<!-- Node2&#45;&gt;Node13 -->
<g id="edge17" class="edge">
<title>Node2&#45;&gt;Node13</title>
<path fill="none" stroke="midnightblue" d="M286.17,-337.69C303.04,-332.58 323.93,-326.25 341.71,-320.87"/>
<polygon fill="midnightblue" stroke="midnightblue" points="343.21,-324.07 351.77,-317.82 341.18,-317.37 343.21,-324.07"/>
</g>
<!-- Node16 -->
<g id="node16" class="node">
<title>Node16</title>
<g id="a_node16"><a xlink:href="spinlock_8c.html#acdf118d615a4bc4064e991add9a80995" target="_top" xlink:title="release spinlock from current cpu">
<polygon fill="none" stroke="black" points="347,-185.78 347,-204.78 415,-204.78 415,-185.78 347,-185.78"/>
<text text-anchor="middle" x="381" y="-192.78" font-family="Helvetica,sans-Serif" font-size="10.00">spin_unlock</text>
</a>
</g>
</g>
<!-- Node2&#45;&gt;Node16 -->
<g id="edge23" class="edge">
<title>Node2&#45;&gt;Node16</title>
<path fill="none" stroke="midnightblue" d="M264.07,-337.43C274.81,-326.25 292.62,-307.36 307,-290.28 328.97,-264.18 352.76,-232.52 367.01,-213.15"/>
<polygon fill="midnightblue" stroke="midnightblue" points="369.94,-215.07 373.02,-204.93 364.29,-210.94 369.94,-215.07"/>
</g>
<!-- Node4&#45;&gt;Node3 -->
<g id="edge4" class="edge">
<title>Node4&#45;&gt;Node3</title>
<path fill="none" stroke="midnightblue" d="M419.16,-384.78C469.22,-383.59 560.93,-379.61 638,-366.28 647.72,-364.59 658.05,-362.12 667.68,-359.52"/>
<polygon fill="midnightblue" stroke="midnightblue" points="668.72,-362.86 677.4,-356.79 666.83,-356.13 668.72,-362.86"/>
</g>
<!-- Node5&#45;&gt;Node3 -->
<g id="edge6" class="edge">
<title>Node5&#45;&gt;Node3</title>
<path fill="none" stroke="midnightblue" d="M521.47,-242.86C551.16,-253.72 599.4,-272.86 638,-295.28 655.88,-305.66 674.5,-319.93 687.89,-330.9"/>
<polygon fill="midnightblue" stroke="midnightblue" points="685.95,-333.84 695.87,-337.55 690.43,-328.46 685.95,-333.84"/>
</g>
<!-- Node6 -->
<g id="node6" class="node">
<title>Node6</title>
<g id="a_node6"><a xlink:href="spinlock_8c.html#afc9565dc7a5ddf77e1fa76f5d91caf78" target="_top" xlink:title="interrupt able">
<polygon fill="none" stroke="black" points="570,-185.78 570,-204.78 635,-204.78 635,-185.78 570,-185.78"/>
<text text-anchor="middle" x="602.5" y="-192.78" font-family="Helvetica,sans-Serif" font-size="10.00">spin_popcli</text>
</a>
</g>
</g>
<!-- Node5&#45;&gt;Node6 -->
<g id="edge7" class="edge">
<title>Node5&#45;&gt;Node6</title>
<path fill="none" stroke="midnightblue" d="M521.13,-223.69C534.37,-219.01 550.49,-213.31 564.81,-208.24"/>
<polygon fill="midnightblue" stroke="midnightblue" points="566.12,-211.49 574.38,-204.86 563.79,-204.89 566.12,-211.49"/>
</g>
<!-- Node10 -->
<g id="node10" class="node">
<title>Node10</title>
<g id="a_node10"><a xlink:href="spinlock_8c.html#ab213874cda54fdbbeb1bec1e5fa90b28" target="_top" xlink:title="interrupt disable">
<polygon fill="none" stroke="black" points="567,-223.78 567,-242.78 638,-242.78 638,-223.78 567,-223.78"/>
<text text-anchor="middle" x="602.5" y="-230.78" font-family="Helvetica,sans-Serif" font-size="10.00">spin_pushcli</text>
</a>
</g>
</g>
<!-- Node5&#45;&gt;Node10 -->
<g id="edge12" class="edge">
<title>Node5&#45;&gt;Node10</title>
<path fill="none" stroke="midnightblue" d="M528.61,-233.28C537.62,-233.28 547.46,-233.28 556.91,-233.28"/>
<polygon fill="midnightblue" stroke="midnightblue" points="556.96,-236.78 566.96,-233.28 556.96,-229.78 556.96,-236.78"/>
</g>
<!-- Node6&#45;&gt;Node3 -->
<g id="edge8" class="edge">
<title>Node6&#45;&gt;Node3</title>
<path fill="none" stroke="midnightblue" d="M625.66,-204.94C630.09,-207.54 634.47,-210.65 638,-214.28 670.71,-247.81 691.55,-299.98 701.03,-327.98"/>
<polygon fill="midnightblue" stroke="midnightblue" points="697.78,-329.32 704.2,-337.74 704.44,-327.15 697.78,-329.32"/>
</g>
<!-- Node7 -->
<g id="node7" class="node">
<title>Node7</title>
<g id="a_node7"><a xlink:href="cte_8c.html#a4a139958742786c5085172be1f69bfd0" target="_top" xlink:title=" ">
<polygon fill="none" stroke="black" points="692,-185.78 692,-204.78 724,-204.78 724,-185.78 692,-185.78"/>
<text text-anchor="middle" x="708" y="-192.78" font-family="Helvetica,sans-Serif" font-size="10.00">iset</text>
</a>
</g>
</g>
<!-- Node6&#45;&gt;Node7 -->
<g id="edge9" class="edge">
<title>Node6&#45;&gt;Node7</title>
<path fill="none" stroke="midnightblue" d="M635.12,-195.28C649.94,-195.28 667.37,-195.28 681.36,-195.28"/>
<polygon fill="midnightblue" stroke="midnightblue" points="681.72,-198.78 691.72,-195.28 681.72,-191.78 681.72,-198.78"/>
</g>
<!-- Node8 -->
<g id="node8" class="node">
<title>Node8</title>
<g id="a_node8"><a xlink:href="x86_8h.html#acc919e7809ef1db2b20aa3804f540b5c" target="_top" xlink:title=" ">
<polygon fill="none" stroke="black" points="786,-185.78 786,-204.78 815,-204.78 815,-185.78 786,-185.78"/>
<text text-anchor="middle" x="800.5" y="-192.78" font-family="Helvetica,sans-Serif" font-size="10.00">cli</text>
</a>
</g>
</g>
<!-- Node7&#45;&gt;Node8 -->
<g id="edge10" class="edge">
<title>Node7&#45;&gt;Node8</title>
<path fill="none" stroke="midnightblue" d="M724.35,-195.28C738.37,-195.28 759.3,-195.28 775.52,-195.28"/>
<polygon fill="midnightblue" stroke="midnightblue" points="775.85,-198.78 785.85,-195.28 775.85,-191.78 775.85,-198.78"/>
</g>
<!-- Node9 -->
<g id="node9" class="node">
<title>Node9</title>
<g id="a_node9"><a xlink:href="x86_8h.html#a4657e97b270d7af5a23da2c4d642ada2" target="_top" xlink:title=" ">
<polygon fill="none" stroke="black" points="786,-147.78 786,-166.78 815,-166.78 815,-147.78 786,-147.78"/>
<text text-anchor="middle" x="800.5" y="-154.78" font-family="Helvetica,sans-Serif" font-size="10.00">sti</text>
</a>
</g>
</g>
<!-- Node7&#45;&gt;Node9 -->
<g id="edge11" class="edge">
<title>Node7&#45;&gt;Node9</title>
<path fill="none" stroke="midnightblue" d="M724.35,-188.83C738.63,-182.83 760.11,-173.81 776.45,-166.95"/>
<polygon fill="midnightblue" stroke="midnightblue" points="777.99,-170.1 785.85,-163.01 775.28,-163.65 777.99,-170.1"/>
</g>
<!-- Node10&#45;&gt;Node3 -->
<g id="edge13" class="edge">
<title>Node10&#45;&gt;Node3</title>
<path fill="none" stroke="midnightblue" d="M619.39,-242.84C625.53,-246.9 632.41,-251.93 638,-257.28 661.25,-279.47 682.91,-309.97 695.55,-329.15"/>
<polygon fill="midnightblue" stroke="midnightblue" points="692.63,-331.07 701,-337.56 698.51,-327.27 692.63,-331.07"/>
</g>
<!-- Node10&#45;&gt;Node7 -->
<g id="edge16" class="edge">
<title>Node10&#45;&gt;Node7</title>
<path fill="none" stroke="midnightblue" d="M629.62,-223.69C645.73,-217.77 666.28,-210.23 682.15,-204.4"/>
<polygon fill="midnightblue" stroke="midnightblue" points="683.63,-207.58 691.81,-200.85 681.22,-201.01 683.63,-207.58"/>
</g>
<!-- Node11 -->
<g id="node11" class="node">
<title>Node11</title>
<g id="a_node11"><a xlink:href="cte_8c.html#a79659a2b801c42951e38f3a8821acbae" target="_top" xlink:title=" ">
<polygon fill="none" stroke="black" points="681.5,-223.78 681.5,-242.78 734.5,-242.78 734.5,-223.78 681.5,-223.78"/>
<text text-anchor="middle" x="708" y="-230.78" font-family="Helvetica,sans-Serif" font-size="10.00">ienabled</text>
</a>
</g>
</g>
<!-- Node10&#45;&gt;Node11 -->
<g id="edge14" class="edge">
<title>Node10&#45;&gt;Node11</title>
<path fill="none" stroke="midnightblue" d="M638.25,-233.28C648.82,-233.28 660.46,-233.28 671.1,-233.28"/>
<polygon fill="midnightblue" stroke="midnightblue" points="671.34,-236.78 681.34,-233.28 671.34,-229.78 671.34,-236.78"/>
</g>
<!-- Node12 -->
<g id="node12" class="node">
<title>Node12</title>
<g id="a_node12"><a xlink:href="x86_8h.html#a73d094f09c6a7dd3fc703aa8229933ee" target="_top" xlink:title=" ">
<polygon fill="none" stroke="black" points="778,-223.78 778,-242.78 823,-242.78 823,-223.78 778,-223.78"/>
<text text-anchor="middle" x="800.5" y="-230.78" font-family="Helvetica,sans-Serif" font-size="10.00">get_efl</text>
</a>
</g>
</g>
<!-- Node11&#45;&gt;Node12 -->
<g id="edge15" class="edge">
<title>Node11&#45;&gt;Node12</title>
<path fill="none" stroke="midnightblue" d="M734.69,-233.28C744.88,-233.28 756.71,-233.28 767.45,-233.28"/>
<polygon fill="midnightblue" stroke="midnightblue" points="767.73,-236.78 777.73,-233.28 767.73,-229.78 767.73,-236.78"/>
</g>
<!-- Node13&#45;&gt;Node3 -->
<g id="edge20" class="edge">
<title>Node13&#45;&gt;Node3</title>
<path fill="none" stroke="midnightblue" d="M410.25,-309.58C457.66,-310.49 556.1,-314.1 638,-328.28 647.72,-329.96 658.05,-332.43 667.68,-335.03"/>
<polygon fill="midnightblue" stroke="midnightblue" points="666.83,-338.42 677.4,-337.76 668.72,-331.69 666.83,-338.42"/>
</g>
<!-- Node13&#45;&gt;Node5 -->
<g id="edge21" class="edge">
<title>Node13&#45;&gt;Node5</title>
<path fill="none" stroke="midnightblue" d="M397.32,-299.75C404.06,-295.46 412.01,-290.25 419,-285.28 435.52,-273.53 438.48,-269.02 455,-257.28 459.15,-254.32 463.64,-251.29 468.01,-248.41"/>
<polygon fill="midnightblue" stroke="midnightblue" points="470.19,-251.17 476.68,-242.8 466.39,-245.29 470.19,-251.17"/>
</g>
<!-- Node13&#45;&gt;Node10 -->
<g id="edge22" class="edge">
<title>Node13&#45;&gt;Node10</title>
<path fill="none" stroke="midnightblue" d="M409.8,-299.65C448.97,-286.09 520.5,-261.32 564.24,-246.18"/>
<polygon fill="midnightblue" stroke="midnightblue" points="565.62,-249.4 573.93,-242.82 563.33,-242.79 565.62,-249.4"/>
</g>
<!-- Node14 -->
<g id="node14" class="node">
<title>Node14</title>
<g id="a_node14"><a xlink:href="mpe_8c.html#aaaad47c97c82065cf463f83b98b23c30" target="_top" xlink:title=" ">
<polygon fill="none" stroke="black" points="457.5,-337.78 457.5,-356.78 528.5,-356.78 528.5,-337.78 457.5,-337.78"/>
<text text-anchor="middle" x="493" y="-344.78" font-family="Helvetica,sans-Serif" font-size="10.00">atomic_xchg</text>
</a>
</g>
</g>
<!-- Node13&#45;&gt;Node14 -->
<g id="edge18" class="edge">
<title>Node13&#45;&gt;Node14</title>
<path fill="none" stroke="midnightblue" d="M409.76,-318.86C423.31,-323.54 439.81,-329.24 454.46,-334.31"/>
<polygon fill="midnightblue" stroke="midnightblue" points="453.66,-337.73 464.25,-337.69 455.94,-331.12 453.66,-337.73"/>
</g>
<!-- Node15 -->
<g id="node15" class="node">
<title>Node15</title>
<g id="a_node15"><a xlink:href="x86_8h.html#a48b2a6a16dc8d7e09d327aa3803f1112" target="_top" xlink:title=" ">
<polygon fill="none" stroke="black" points="584,-337.78 584,-356.78 621,-356.78 621,-337.78 584,-337.78"/>
<text text-anchor="middle" x="602.5" y="-344.78" font-family="Helvetica,sans-Serif" font-size="10.00">xchg</text>
</a>
</g>
</g>
<!-- Node14&#45;&gt;Node15 -->
<g id="edge19" class="edge">
<title>Node14&#45;&gt;Node15</title>
<path fill="none" stroke="midnightblue" d="M528.61,-347.28C543.13,-347.28 559.81,-347.28 573.54,-347.28"/>
<polygon fill="midnightblue" stroke="midnightblue" points="573.83,-350.78 583.83,-347.28 573.83,-343.78 573.83,-350.78"/>
</g>
<!-- Node16&#45;&gt;Node5 -->
<g id="edge24" class="edge">
<title>Node16&#45;&gt;Node5</title>
<path fill="none" stroke="midnightblue" d="M409.76,-204.86C423.31,-209.54 439.81,-215.24 454.46,-220.31"/>
<polygon fill="midnightblue" stroke="midnightblue" points="453.66,-223.73 464.25,-223.69 455.94,-217.12 453.66,-223.73"/>
</g>
<!-- Node16&#45;&gt;Node6 -->
<g id="edge25" class="edge">
<title>Node16&#45;&gt;Node6</title>
<path fill="none" stroke="midnightblue" d="M415.34,-195.28C454.03,-195.28 517.89,-195.28 559.83,-195.28"/>
<polygon fill="midnightblue" stroke="midnightblue" points="559.99,-198.78 569.99,-195.28 559.99,-191.78 559.99,-198.78"/>
</g>
<!-- Node17&#45;&gt;Node5 -->
<g id="edge43" class="edge">
<title>Node17&#45;&gt;Node5</title>
<path fill="none" stroke="midnightblue" d="M150.35,-166.63C155.19,-164.03 160.01,-160.91 164,-157.28 186.16,-137.11 178.04,-120.65 200,-100.28 275.53,-30.2 335.9,36.63 419,-24.28 461.86,-55.68 437.35,-88.16 455,-138.28 464.38,-164.9 476.43,-195.22 484.18,-214.3"/>
<polygon fill="midnightblue" stroke="midnightblue" points="480.98,-215.71 488.01,-223.64 487.46,-213.06 480.98,-215.71"/>
</g>
<!-- Node18 -->
<g id="node18" class="node">
<title>Node18</title>
<g id="a_node18"><a xlink:href="kmt_8c.html#a13cbe2d83bf10c3302124613fa18f8a4" target="_top" xlink:title="print all tasks notice: do not garantee concurrency safety">
<polygon fill="none" stroke="black" points="203,-147.78 203,-166.78 304,-166.78 304,-147.78 203,-147.78"/>
<text text-anchor="middle" x="253.5" y="-154.78" font-family="Helvetica,sans-Serif" font-size="10.00">kmt_print_all_tasks</text>
</a>
</g>
</g>
<!-- Node17&#45;&gt;Node18 -->
<g id="edge27" class="edge">
<title>Node17&#45;&gt;Node18</title>
<path fill="none" stroke="midnightblue" d="M154.78,-172.01C166.05,-170.31 179.48,-168.29 192.73,-166.29"/>
<polygon fill="midnightblue" stroke="midnightblue" points="193.41,-169.73 202.78,-164.77 192.37,-162.8 193.41,-169.73"/>
</g>
<!-- Node25 -->
<g id="node25" class="node">
<title>Node25</title>
<g id="a_node25"><a xlink:href="kmt_8c.html#ab4e9dee1880e455874374b44b5785bc3" target="_top" xlink:title="print all current_tasks notice: do not garantee concurrency safety">
<polygon fill="none" stroke="black" points="200,-109.78 200,-128.78 307,-128.78 307,-109.78 200,-109.78"/>
<text text-anchor="middle" x="253.5" y="-116.78" font-family="Helvetica,sans-Serif" font-size="10.00">kmt_print_cpu_tasks</text>
</a>
</g>
</g>
<!-- Node17&#45;&gt;Node25 -->
<g id="edge37" class="edge">
<title>Node17&#45;&gt;Node25</title>
<path fill="none" stroke="midnightblue" d="M145.61,-166.67C151.52,-163.68 158.04,-160.36 164,-157.28 180.07,-148.96 183.45,-145.59 200,-138.28 204.53,-136.27 209.34,-134.31 214.14,-132.46"/>
<polygon fill="midnightblue" stroke="midnightblue" points="215.74,-135.6 223.88,-128.82 213.29,-129.04 215.74,-135.6"/>
</g>
<!-- Node18&#45;&gt;Node5 -->
<g id="edge34" class="edge">
<title>Node18&#45;&gt;Node5</title>
<path fill="none" stroke="midnightblue" d="M304.1,-156.08C337.68,-156.92 382.42,-161.28 419,-176.28 441.14,-185.35 462.2,-203.13 475.96,-216.43"/>
<polygon fill="midnightblue" stroke="midnightblue" points="473.63,-219.05 483.17,-223.65 478.58,-214.1 473.63,-219.05"/>
</g>
<!-- Node18&#45;&gt;Node13 -->
<g id="edge35" class="edge">
<title>Node18&#45;&gt;Node13</title>
<path fill="none" stroke="midnightblue" d="M262.35,-166.78C282.95,-191.73 338.8,-259.38 365.46,-291.67"/>
<polygon fill="midnightblue" stroke="midnightblue" points="363.09,-294.29 372.15,-299.77 368.48,-289.83 363.09,-294.29"/>
</g>
<!-- Node18&#45;&gt;Node16 -->
<g id="edge36" class="edge">
<title>Node18&#45;&gt;Node16</title>
<path fill="none" stroke="midnightblue" d="M286.17,-166.86C302.07,-171.68 321.54,-177.57 338.61,-182.74"/>
<polygon fill="midnightblue" stroke="midnightblue" points="337.76,-186.14 348.34,-185.69 339.78,-179.44 337.76,-186.14"/>
</g>
<!-- Node19 -->
<g id="node19" class="node">
<title>Node19</title>
<g id="a_node19"><a xlink:href="stdio_8c.html#a55f3d956bb2ba20b5059e9e25484a47f" target="_top" xlink:title=" ">
<polygon fill="none" stroke="black" points="362,-109.78 362,-128.78 400,-128.78 400,-109.78 362,-109.78"/>
<text text-anchor="middle" x="381" y="-116.78" font-family="Helvetica,sans-Serif" font-size="10.00">printf</text>
</a>
</g>
</g>
<!-- Node18&#45;&gt;Node19 -->
<g id="edge28" class="edge">
<title>Node18&#45;&gt;Node19</title>
<path fill="none" stroke="midnightblue" d="M286.17,-147.69C306.48,-141.54 332.61,-133.63 352.13,-127.71"/>
<polygon fill="midnightblue" stroke="midnightblue" points="353.39,-130.99 361.94,-124.74 351.36,-124.29 353.39,-130.99"/>
</g>
<!-- Node20 -->
<g id="node20" class="node">
<title>Node20</title>
<g id="a_node20"><a xlink:href="stdio_8c.html#a44a6734c6f8f81d8e1fa3b9d476c5134" target="_top" xlink:title="write bytes (including the terminating null byte (&#39;\0&#39;)) to out.">
<polygon fill="none" stroke="black" points="468.5,-109.78 468.5,-128.78 517.5,-128.78 517.5,-109.78 468.5,-109.78"/>
<text text-anchor="middle" x="493" y="-116.78" font-family="Helvetica,sans-Serif" font-size="10.00">vsprintf</text>
</a>
</g>
</g>
<!-- Node19&#45;&gt;Node20 -->
<g id="edge29" class="edge">
<title>Node19&#45;&gt;Node20</title>
<path fill="none" stroke="midnightblue" d="M400.16,-119.28C415.92,-119.28 439.14,-119.28 458.29,-119.28"/>
<polygon fill="midnightblue" stroke="midnightblue" points="458.43,-122.78 468.43,-119.28 458.43,-115.78 458.43,-122.78"/>
</g>
<!-- Node21 -->
<g id="node21" class="node">
<title>Node21</title>
<g id="a_node21"><a xlink:href="stdio_8c.html#abf852e417a205348767989f2940059ad" target="_top" xlink:title="write at most n bytes (including the terminating null byte (&#39;\0&#39;)) to out.">
<polygon fill="none" stroke="black" points="575.5,-109.78 575.5,-128.78 629.5,-128.78 629.5,-109.78 575.5,-109.78"/>
<text text-anchor="middle" x="602.5" y="-116.78" font-family="Helvetica,sans-Serif" font-size="10.00">vsnprintf</text>
</a>
</g>
</g>
<!-- Node20&#45;&gt;Node21 -->
<g id="edge30" class="edge">
<title>Node20&#45;&gt;Node21</title>
<path fill="none" stroke="midnightblue" d="M517.59,-119.28C531.45,-119.28 549.27,-119.28 564.91,-119.28"/>
<polygon fill="midnightblue" stroke="midnightblue" points="565.33,-122.78 575.32,-119.28 565.32,-115.78 565.33,-122.78"/>
</g>
<!-- Node22 -->
<g id="node22" class="node">
<title>Node22</title>
<g id="a_node22"><a xlink:href="stdio_8c.html#a0e2811092b514de48ac2dd675d6cf2b4" target="_top" xlink:title="print decimal into buffer,return length">
<polygon fill="none" stroke="black" points="678.5,-147.78 678.5,-166.78 737.5,-166.78 737.5,-147.78 678.5,-147.78"/>
<text text-anchor="middle" x="708" y="-154.78" font-family="Helvetica,sans-Serif" font-size="10.00">print_num</text>
</a>
</g>
</g>
<!-- Node21&#45;&gt;Node22 -->
<g id="edge31" class="edge">
<title>Node21&#45;&gt;Node22</title>
<path fill="none" stroke="midnightblue" d="M629.62,-128.86C642.24,-133.5 657.59,-139.13 671.28,-144.16"/>
<polygon fill="midnightblue" stroke="midnightblue" points="670.3,-147.53 680.89,-147.69 672.71,-140.96 670.3,-147.53"/>
</g>
<!-- Node23 -->
<g id="node23" class="node">
<title>Node23</title>
<g id="a_node23"><a xlink:href="string_8c.html#aa383452fe445bfae989358c9d7d96f4f" target="_top" xlink:title=" ">
<polygon fill="none" stroke="black" points="687.5,-109.78 687.5,-128.78 728.5,-128.78 728.5,-109.78 687.5,-109.78"/>
<text text-anchor="middle" x="708" y="-116.78" font-family="Helvetica,sans-Serif" font-size="10.00">strlen</text>
</a>
</g>
</g>
<!-- Node21&#45;&gt;Node23 -->
<g id="edge32" class="edge">
<title>Node21&#45;&gt;Node23</title>
<path fill="none" stroke="midnightblue" d="M629.62,-119.28C644.07,-119.28 662.1,-119.28 677.12,-119.28"/>
<polygon fill="midnightblue" stroke="midnightblue" points="677.43,-122.78 687.43,-119.28 677.43,-115.78 677.43,-122.78"/>
</g>
<!-- Node24 -->
<g id="node24" class="node">
<title>Node24</title>
<g id="a_node24"><a xlink:href="string_8c.html#a82f08f2390a9067f3c94b638e90e03bd" target="_top" xlink:title=" ">
<polygon fill="none" stroke="black" points="684,-71.78 684,-90.78 732,-90.78 732,-71.78 684,-71.78"/>
<text text-anchor="middle" x="708" y="-78.78" font-family="Helvetica,sans-Serif" font-size="10.00">strncpy</text>
</a>
</g>
</g>
<!-- Node21&#45;&gt;Node24 -->
<g id="edge33" class="edge">
<title>Node21&#45;&gt;Node24</title>
<path fill="none" stroke="midnightblue" d="M629.62,-109.69C643.14,-104.72 659.8,-98.61 674.18,-93.32"/>
<polygon fill="midnightblue" stroke="midnightblue" points="675.54,-96.56 683.72,-89.82 673.12,-89.98 675.54,-96.56"/>
</g>
<!-- Node25&#45;&gt;Node5 -->
<g id="edge40" class="edge">
<title>Node25&#45;&gt;Node5</title>
<path fill="none" stroke="midnightblue" d="M274.35,-109.68C307,-95.41 372.98,-73.04 419,-100.28 440.58,-113.05 470.44,-180.39 484.33,-214.06"/>
<polygon fill="midnightblue" stroke="midnightblue" points="481.24,-215.76 488.24,-223.7 487.72,-213.12 481.24,-215.76"/>
</g>
<!-- Node25&#45;&gt;Node13 -->
<g id="edge41" class="edge">
<title>Node25&#45;&gt;Node13</title>
<path fill="none" stroke="midnightblue" d="M292.8,-128.86C297.99,-131.33 302.91,-134.41 307,-138.28 312.91,-143.86 354.7,-246.49 372.26,-290.02"/>
<polygon fill="midnightblue" stroke="midnightblue" points="369.09,-291.52 376.07,-299.49 375.59,-288.91 369.09,-291.52"/>
</g>
<!-- Node25&#45;&gt;Node16 -->
<g id="edge42" class="edge">
<title>Node25&#45;&gt;Node16</title>
<path fill="none" stroke="midnightblue" d="M286.03,-128.86C293.12,-131.51 300.47,-134.66 307,-138.28 327.47,-149.59 348.24,-166.45 362.37,-178.9"/>
<polygon fill="midnightblue" stroke="midnightblue" points="360.09,-181.56 369.87,-185.64 364.77,-176.35 360.09,-181.56"/>
</g>
<!-- Node25&#45;&gt;Node19 -->
<g id="edge39" class="edge">
<title>Node25&#45;&gt;Node19</title>
<path fill="none" stroke="midnightblue" d="M307.36,-119.28C322.54,-119.28 338.51,-119.28 351.59,-119.28"/>
<polygon fill="midnightblue" stroke="midnightblue" points="351.83,-122.78 361.83,-119.28 351.83,-115.78 351.83,-122.78"/>
</g>
<!-- Node26 -->
<g id="node26" class="node">
<title>Node26</title>
<g id="a_node26"><a xlink:href="mpe_8c.html#af486ec575d47720d28eee63644206110" target="_top" xlink:title=" ">
<polygon fill="none" stroke="black" points="350,-33.78 350,-52.78 412,-52.78 412,-33.78 350,-33.78"/>
<text text-anchor="middle" x="381" y="-40.78" font-family="Helvetica,sans-Serif" font-size="10.00">cpu_count</text>
</a>
</g>
</g>
<!-- Node25&#45;&gt;Node26 -->
<g id="edge38" class="edge">
<title>Node25&#45;&gt;Node26</title>
<path fill="none" stroke="midnightblue" d="M270.39,-109.65C291.89,-96.63 330.45,-73.28 355.62,-58.04"/>
<polygon fill="midnightblue" stroke="midnightblue" points="357.49,-61 364.23,-52.82 353.87,-55.01 357.49,-61"/>
</g>
<!-- Node27&#45;&gt;Node3 -->
<g id="edge45" class="edge">
<title>Node27&#45;&gt;Node3</title>
<path fill="none" stroke="midnightblue" d="M127.29,-243.08C130.38,-274.91 144.34,-376.47 200,-432.28 260.28,-492.71 294.64,-499.28 380,-499.28 380,-499.28 380,-499.28 494,-499.28 560.08,-499.28 585.04,-501.79 638,-462.28 670.82,-437.79 691.11,-392.67 700.6,-366.82"/>
<polygon fill="midnightblue" stroke="midnightblue" points="704.02,-367.64 704.01,-357.04 697.41,-365.33 704.02,-367.64"/>
</g>
<!-- Node27&#45;&gt;Node4 -->
<g id="edge46" class="edge">
<title>Node27&#45;&gt;Node4</title>
<path fill="none" stroke="midnightblue" d="M128.63,-243.08C134.71,-268.42 154.71,-336.24 200,-366.28 239.19,-392.26 294.06,-394.36 332.89,-391.62"/>
<polygon fill="midnightblue" stroke="midnightblue" points="333.22,-395.1 342.89,-390.78 332.64,-388.13 333.22,-395.1"/>
</g>
<!-- Node27&#45;&gt;Node5 -->
<g id="edge51" class="edge">
<title>Node27&#45;&gt;Node5</title>
<path fill="none" stroke="midnightblue" d="M164.24,-233.28C232.12,-233.28 374.52,-233.28 447.22,-233.28"/>
<polygon fill="midnightblue" stroke="midnightblue" points="447.42,-236.78 457.42,-233.28 447.42,-229.78 447.42,-236.78"/>
</g>
<!-- Node27&#45;&gt;Node13 -->
<g id="edge52" class="edge">
<title>Node27&#45;&gt;Node13</title>
<path fill="none" stroke="midnightblue" d="M135.39,-242.94C148.22,-256.18 173.33,-279.55 200,-290.28 246.04,-308.79 303.77,-311.69 341.25,-311.2"/>
<polygon fill="midnightblue" stroke="midnightblue" points="341.81,-314.69 351.73,-310.97 341.65,-307.69 341.81,-314.69"/>
</g>
<!-- Node27&#45;&gt;Node16 -->
<g id="edge53" class="edge">
<title>Node27&#45;&gt;Node16</title>
<path fill="none" stroke="midnightblue" d="M164.2,-225.68C175.67,-223.48 188.33,-221.16 200,-219.28 246.45,-211.76 299.93,-204.85 336.45,-200.39"/>
<polygon fill="midnightblue" stroke="midnightblue" points="337.24,-203.82 346.74,-199.15 336.39,-196.87 337.24,-203.82"/>
</g>
<!-- Node27&#45;&gt;Node18 -->
<g id="edge47" class="edge">
<title>Node27&#45;&gt;Node18</title>
<path fill="none" stroke="midnightblue" d="M138.52,-223.71C152.7,-212.68 177.24,-194.37 200,-181.28 206.19,-177.71 212.99,-174.28 219.6,-171.17"/>
<polygon fill="midnightblue" stroke="midnightblue" points="221.38,-174.21 229.03,-166.88 218.48,-167.83 221.38,-174.21"/>
</g>
<!-- Node27&#45;&gt;Node25 -->
<g id="edge48" class="edge">
<title>Node27&#45;&gt;Node25</title>
<path fill="none" stroke="midnightblue" d="M137.32,-223.51C145.17,-216.15 155.82,-205.58 164,-195.28 182.63,-171.81 176.65,-157.05 200,-138.28 202.16,-136.54 204.48,-134.96 206.92,-133.51"/>
<polygon fill="midnightblue" stroke="midnightblue" points="208.75,-136.51 216.09,-128.86 205.59,-130.26 208.75,-136.51"/>
</g>
<!-- Node28 -->
<g id="node28" class="node">
<title>Node28</title>
<g id="a_node28"><a xlink:href="kmt_8c.html#a9ddca6d133a84154c98607bf0ee82c76" target="_top" xlink:title="set cpu&#39;s current task">
<polygon fill="none" stroke="black" points="455,-451.78 455,-470.78 531,-470.78 531,-451.78 455,-451.78"/>
<text text-anchor="middle" x="493" y="-458.78" font-family="Helvetica,sans-Serif" font-size="10.00">kmt_set_task</text>
</a>
</g>
</g>
<!-- Node27&#45;&gt;Node28 -->
<g id="edge49" class="edge">
<title>Node27&#45;&gt;Node28</title>
<path fill="none" stroke="midnightblue" d="M128.09,-242.82C133.19,-270.41 151.71,-350.98 200,-393.28 268.99,-453.7 381.33,-463.16 444.67,-463.19"/>
<polygon fill="midnightblue" stroke="midnightblue" points="444.81,-466.69 454.78,-463.11 444.75,-459.69 444.81,-466.69"/>
</g>
<!-- Node28&#45;&gt;Node3 -->
<g id="edge50" class="edge">
<title>Node28&#45;&gt;Node3</title>
<path fill="none" stroke="midnightblue" d="M531.17,-462.4C561.87,-461.69 605.52,-456.79 638,-437.28 666.28,-420.29 687.1,-386.97 698.11,-365.99"/>
<polygon fill="midnightblue" stroke="midnightblue" points="701.37,-367.31 702.72,-356.8 695.11,-364.17 701.37,-367.31"/>
</g>
<!-- Node30&#45;&gt;Node4 -->
<g id="edge56" class="edge">
<title>Node30&#45;&gt;Node4</title>
<path fill="none" stroke="midnightblue" d="M265.2,-280.99C286.69,-300.51 335.29,-344.67 361.85,-368.79"/>
<polygon fill="midnightblue" stroke="midnightblue" points="359.57,-371.45 369.33,-375.58 364.28,-366.27 359.57,-371.45"/>
</g>
<!-- Node30&#45;&gt;Node5 -->
<g id="edge57" class="edge">
<title>Node30&#45;&gt;Node5</title>
<path fill="none" stroke="midnightblue" d="M282.5,-267.58C315.29,-263.16 371.19,-255.34 419,-247.28 428.16,-245.73 437.94,-243.95 447.26,-242.18"/>
<polygon fill="midnightblue" stroke="midnightblue" points="447.99,-245.61 457.15,-240.29 446.67,-238.73 447.99,-245.61"/>
</g>
<!-- Node30&#45;&gt;Node13 -->
<g id="edge58" class="edge">
<title>Node30&#45;&gt;Node13</title>
<path fill="none" stroke="midnightblue" d="M282.66,-279.8C300.27,-285.13 323.15,-292.06 342.3,-297.86"/>
<polygon fill="midnightblue" stroke="midnightblue" points="341.34,-301.23 351.93,-300.78 343.37,-294.53 341.34,-301.23"/>
</g>
<!-- Node30&#45;&gt;Node16 -->
<g id="edge59" class="edge">
<title>Node30&#45;&gt;Node16</title>
<path fill="none" stroke="midnightblue" d="M270.39,-261.65C291.89,-248.63 330.45,-225.28 355.62,-210.04"/>
<polygon fill="midnightblue" stroke="midnightblue" points="357.49,-213 364.23,-204.82 353.87,-207.01 357.49,-213"/>
</g>
</g>
</svg>
