<?xml version="1.0" encoding="UTF-8" standalone="no"?>
<!DOCTYPE svg PUBLIC "-//W3C//DTD SVG 1.1//EN"
 "http://www.w3.org/Graphics/SVG/1.1/DTD/svg11.dtd">
<!-- Generated by graphviz version 3.0.0 (20220413.0106)
 -->
<!-- Title: kmt_schedule Pages: 1 -->
<svg width="736pt" height="417pt"
 viewBox="0.00 0.00 736.00 417.14" xmlns="http://www.w3.org/2000/svg" xmlns:xlink="http://www.w3.org/1999/xlink">
<g id="graph0" class="graph" transform="scale(1 1) rotate(0) translate(4 413.14)">
<title>kmt_schedule</title>
<!-- Node1 -->
<g id="node1" class="node">
<title>Node1</title>
<g id="a_node1"><a xlink:title="handler: schedule next task to run Notice: this should be the only handler which returns real Context">
<polygon fill="#bfbfbf" stroke="black" points="0,-209.5 0,-228.5 77,-228.5 77,-209.5 0,-209.5"/>
<text text-anchor="middle" x="38.5" y="-216.5" font-family="Helvetica,sans-Serif" font-size="10.00">kmt_schedule</text>
</a>
</g>
</g>
<!-- Node2 -->
<g id="node2" class="node">
<title>Node2</title>
<g id="a_node2"><a xlink:href="mpe_8c.html#ab701de78cad32896c923ce900087e714" target="_top" xlink:title=" ">
<polygon fill="none" stroke="black" points="579,-266.5 579,-285.5 647,-285.5 647,-266.5 579,-266.5"/>
<text text-anchor="middle" x="613" y="-273.5" font-family="Helvetica,sans-Serif" font-size="10.00">cpu_current</text>
</a>
</g>
</g>
<!-- Node1&#45;&gt;Node2 -->
<g id="edge1" class="edge">
<title>Node1&#45;&gt;Node2</title>
<path fill="none" stroke="midnightblue" d="M48.96,-228.57C80.18,-259.06 183.96,-352 289,-352 289,-352 289,-352 399,-352 471.03,-352 549.21,-312.97 587.73,-290.85"/>
<polygon fill="midnightblue" stroke="midnightblue" points="589.79,-293.7 596.64,-285.63 586.25,-287.66 589.79,-293.7"/>
</g>
<!-- Node3 -->
<g id="node3" class="node">
<title>Node3</title>
<g id="a_node3"><a xlink:href="kmt_8c.html#a031a09141c265954f2b609183e573d1c" target="_top" xlink:title="get current cpu&#39;s tasks">
<polygon fill="none" stroke="black" points="360,-304.5 360,-323.5 436,-323.5 436,-304.5 360,-304.5"/>
<text text-anchor="middle" x="398" y="-311.5" font-family="Helvetica,sans-Serif" font-size="10.00">kmt_get_task</text>
</a>
</g>
</g>
<!-- Node1&#45;&gt;Node3 -->
<g id="edge2" class="edge">
<title>Node1&#45;&gt;Node3</title>
<path fill="none" stroke="midnightblue" d="M68.72,-228.55C82.15,-232.83 98.33,-237.85 113,-242 195.71,-265.41 292.97,-289.28 349.53,-302.81"/>
<polygon fill="midnightblue" stroke="midnightblue" points="349.07,-306.3 359.61,-305.21 350.7,-299.49 349.07,-306.3"/>
</g>
<!-- Node4 -->
<g id="node4" class="node">
<title>Node4</title>
<g id="a_node4"><a xlink:href="kmt_8c.html#a13cbe2d83bf10c3302124613fa18f8a4" target="_top" xlink:title="print all tasks notice: do not garantee concurrency safety">
<polygon fill="none" stroke="black" points="116,-152.5 116,-171.5 217,-171.5 217,-152.5 116,-152.5"/>
<text text-anchor="middle" x="166.5" y="-159.5" font-family="Helvetica,sans-Serif" font-size="10.00">kmt_print_all_tasks</text>
</a>
</g>
</g>
<!-- Node1&#45;&gt;Node4 -->
<g id="edge4" class="edge">
<title>Node1&#45;&gt;Node4</title>
<path fill="none" stroke="midnightblue" d="M60.59,-209.46C80.94,-200.25 111.97,-186.22 135.01,-175.79"/>
<polygon fill="midnightblue" stroke="midnightblue" points="136.67,-178.88 144.34,-171.57 133.79,-172.5 136.67,-178.88"/>
</g>
<!-- Node11 -->
<g id="node11" class="node">
<title>Node11</title>
<g id="a_node11"><a xlink:href="spinlock_8c.html#ad4be0d674a7ca4dc90c2dbf8b34562cc" target="_top" xlink:title="check current cpu has the lock">
<polygon fill="none" stroke="black" points="362.5,-152.5 362.5,-171.5 433.5,-171.5 433.5,-152.5 362.5,-152.5"/>
<text text-anchor="middle" x="398" y="-159.5" font-family="Helvetica,sans-Serif" font-size="10.00">spin_holding</text>
</a>
</g>
</g>
<!-- Node1&#45;&gt;Node11 -->
<g id="edge40" class="edge">
<title>Node1&#45;&gt;Node11</title>
<path fill="none" stroke="midnightblue" d="M77.31,-213.77C131.89,-206.11 235.87,-191.11 324,-176 333.15,-174.43 342.93,-172.64 352.26,-170.87"/>
<polygon fill="midnightblue" stroke="midnightblue" points="352.98,-174.29 362.15,-168.97 351.67,-167.42 352.98,-174.29"/>
</g>
<!-- Node19 -->
<g id="node19" class="node">
<title>Node19</title>
<g id="a_node19"><a xlink:href="spinlock_8c.html#ab6f3c37ec37006951feccc3c05387cce" target="_top" xlink:title="acquire spinlock to current cpu">
<polygon fill="none" stroke="black" points="261,-228.5 261,-247.5 319,-247.5 319,-228.5 261,-228.5"/>
<text text-anchor="middle" x="290" y="-235.5" font-family="Helvetica,sans-Serif" font-size="10.00">spin_lock</text>
</a>
</g>
</g>
<!-- Node1&#45;&gt;Node19 -->
<g id="edge41" class="edge">
<title>Node1&#45;&gt;Node19</title>
<path fill="none" stroke="midnightblue" d="M77.12,-221.87C123.95,-225.43 203.49,-231.49 250.65,-235.08"/>
<polygon fill="midnightblue" stroke="midnightblue" points="250.53,-238.58 260.77,-235.85 251.07,-231.6 250.53,-238.58"/>
</g>
<!-- Node22 -->
<g id="node22" class="node">
<title>Node22</title>
<g id="a_node22"><a xlink:href="spinlock_8c.html#acdf118d615a4bc4064e991add9a80995" target="_top" xlink:title="release spinlock from current cpu">
<polygon fill="none" stroke="black" points="256,-114.5 256,-133.5 324,-133.5 324,-114.5 256,-114.5"/>
<text text-anchor="middle" x="290" y="-121.5" font-family="Helvetica,sans-Serif" font-size="10.00">spin_unlock</text>
</a>
</g>
</g>
<!-- Node1&#45;&gt;Node22 -->
<g id="edge42" class="edge">
<title>Node1&#45;&gt;Node22</title>
<path fill="none" stroke="midnightblue" d="M45.56,-209.24C56.63,-192.4 81.84,-158.24 113,-143 154.59,-122.66 208.17,-119.68 245.23,-120.67"/>
<polygon fill="midnightblue" stroke="midnightblue" points="245.57,-124.19 255.7,-121.07 245.84,-117.19 245.57,-124.19"/>
</g>
<!-- Node23 -->
<g id="node23" class="node">
<title>Node23</title>
<g id="a_node23"><a xlink:href="kmt_8c.html#ab4e9dee1880e455874374b44b5785bc3" target="_top" xlink:title="print all current_tasks notice: do not garantee concurrency safety">
<polygon fill="none" stroke="black" points="113,-76.5 113,-95.5 220,-95.5 220,-76.5 113,-76.5"/>
<text text-anchor="middle" x="166.5" y="-83.5" font-family="Helvetica,sans-Serif" font-size="10.00">kmt_print_cpu_tasks</text>
</a>
</g>
</g>
<!-- Node1&#45;&gt;Node23 -->
<g id="edge32" class="edge">
<title>Node1&#45;&gt;Node23</title>
<path fill="none" stroke="midnightblue" d="M43.8,-209.25C53.41,-188.45 78.53,-139.22 113,-110 117.51,-106.18 122.72,-102.85 128.08,-99.98"/>
<polygon fill="midnightblue" stroke="midnightblue" points="129.66,-103.1 137.13,-95.59 126.6,-96.8 129.66,-103.1"/>
</g>
<!-- Node25 -->
<g id="node25" class="node">
<title>Node25</title>
<g id="a_node25"><a xlink:href="kmt_8c.html#a9ddca6d133a84154c98607bf0ee82c76" target="_top" xlink:title="set cpu&#39;s current task">
<polygon fill="none" stroke="black" points="128.5,-380.5 128.5,-399.5 204.5,-399.5 204.5,-380.5 128.5,-380.5"/>
<text text-anchor="middle" x="166.5" y="-387.5" font-family="Helvetica,sans-Serif" font-size="10.00">kmt_set_task</text>
</a>
</g>
</g>
<!-- Node1&#45;&gt;Node25 -->
<g id="edge38" class="edge">
<title>Node1&#45;&gt;Node25</title>
<path fill="none" stroke="midnightblue" d="M41.88,-228.59C48.68,-254.18 70.51,-324.97 113,-366 116.96,-369.83 121.65,-373.12 126.56,-375.93"/>
<polygon fill="midnightblue" stroke="midnightblue" points="125.04,-379.08 135.54,-380.47 128.2,-372.84 125.04,-379.08"/>
</g>
<!-- Node3&#45;&gt;Node2 -->
<g id="edge3" class="edge">
<title>Node3&#45;&gt;Node2</title>
<path fill="none" stroke="midnightblue" d="M436.06,-308.19C465.18,-303.54 506.74,-296.7 543,-290 551.38,-288.45 560.31,-286.71 568.88,-284.99"/>
<polygon fill="midnightblue" stroke="midnightblue" points="569.6,-288.42 578.7,-283 568.21,-281.56 569.6,-288.42"/>
</g>
<!-- Node5 -->
<g id="node5" class="node">
<title>Node5</title>
<g id="a_node5"><a xlink:href="stdio_8c.html#a55f3d956bb2ba20b5059e9e25484a47f" target="_top" xlink:title=" ">
<polygon fill="none" stroke="black" points="271,-38.5 271,-57.5 309,-57.5 309,-38.5 271,-38.5"/>
<text text-anchor="middle" x="290" y="-45.5" font-family="Helvetica,sans-Serif" font-size="10.00">printf</text>
</a>
</g>
</g>
<!-- Node4&#45;&gt;Node5 -->
<g id="edge5" class="edge">
<title>Node4&#45;&gt;Node5</title>
<path fill="none" stroke="midnightblue" d="M177.86,-152.28C198.57,-132.85 245.31,-88.99 271.09,-64.8"/>
<polygon fill="midnightblue" stroke="midnightblue" points="273.77,-67.09 278.67,-57.69 268.98,-61.99 273.77,-67.09"/>
</g>
<!-- Node4&#45;&gt;Node11 -->
<g id="edge11" class="edge">
<title>Node4&#45;&gt;Node11</title>
<path fill="none" stroke="midnightblue" d="M217.02,-162C257.12,-162 313.16,-162 352,-162"/>
<polygon fill="midnightblue" stroke="midnightblue" points="352.48,-165.5 362.48,-162 352.48,-158.5 352.48,-165.5"/>
</g>
<!-- Node4&#45;&gt;Node19 -->
<g id="edge23" class="edge">
<title>Node4&#45;&gt;Node19</title>
<path fill="none" stroke="midnightblue" d="M182.89,-171.63C203.61,-184.59 240.7,-207.79 265.08,-223.04"/>
<polygon fill="midnightblue" stroke="midnightblue" points="263.4,-226.12 273.74,-228.45 267.11,-220.18 263.4,-226.12"/>
</g>
<!-- Node4&#45;&gt;Node22 -->
<g id="edge29" class="edge">
<title>Node4&#45;&gt;Node22</title>
<path fill="none" stroke="midnightblue" d="M198.16,-152.41C213.41,-147.64 232.05,-141.81 248.47,-136.68"/>
<polygon fill="midnightblue" stroke="midnightblue" points="249.85,-139.91 258.35,-133.59 247.76,-133.23 249.85,-139.91"/>
</g>
<!-- Node6 -->
<g id="node6" class="node">
<title>Node6</title>
<g id="a_node6"><a xlink:href="stdio_8c.html#a44a6734c6f8f81d8e1fa3b9d476c5134" target="_top" xlink:title="write bytes (including the terminating null byte (&#39;\0&#39;)) to out.">
<polygon fill="none" stroke="black" points="373.5,-38.5 373.5,-57.5 422.5,-57.5 422.5,-38.5 373.5,-38.5"/>
<text text-anchor="middle" x="398" y="-45.5" font-family="Helvetica,sans-Serif" font-size="10.00">vsprintf</text>
</a>
</g>
</g>
<!-- Node5&#45;&gt;Node6 -->
<g id="edge6" class="edge">
<title>Node5&#45;&gt;Node6</title>
<path fill="none" stroke="midnightblue" d="M309.46,-48C324.24,-48 345.36,-48 363.15,-48"/>
<polygon fill="midnightblue" stroke="midnightblue" points="363.17,-51.5 373.17,-48 363.17,-44.5 363.17,-51.5"/>
</g>
<!-- Node7 -->
<g id="node7" class="node">
<title>Node7</title>
<g id="a_node7"><a xlink:href="stdio_8c.html#abf852e417a205348767989f2940059ad" target="_top" xlink:title="write at most n bytes (including the terminating null byte (&#39;\0&#39;)) to out.">
<polygon fill="none" stroke="black" points="480.5,-38.5 480.5,-57.5 534.5,-57.5 534.5,-38.5 480.5,-38.5"/>
<text text-anchor="middle" x="507.5" y="-45.5" font-family="Helvetica,sans-Serif" font-size="10.00">vsnprintf</text>
</a>
</g>
</g>
<!-- Node6&#45;&gt;Node7 -->
<g id="edge7" class="edge">
<title>Node6&#45;&gt;Node7</title>
<path fill="none" stroke="midnightblue" d="M422.59,-48C436.45,-48 454.27,-48 469.91,-48"/>
<polygon fill="midnightblue" stroke="midnightblue" points="470.33,-51.5 480.32,-48 470.32,-44.5 470.33,-51.5"/>
</g>
<!-- Node8 -->
<g id="node8" class="node">
<title>Node8</title>
<g id="a_node8"><a xlink:href="stdio_8c.html#a0e2811092b514de48ac2dd675d6cf2b4" target="_top" xlink:title="print decimal into buffer,return length">
<polygon fill="none" stroke="black" points="583.5,-76.5 583.5,-95.5 642.5,-95.5 642.5,-76.5 583.5,-76.5"/>
<text text-anchor="middle" x="613" y="-83.5" font-family="Helvetica,sans-Serif" font-size="10.00">print_num</text>
</a>
</g>
</g>
<!-- Node7&#45;&gt;Node8 -->
<g id="edge8" class="edge">
<title>Node7&#45;&gt;Node8</title>
<path fill="none" stroke="midnightblue" d="M534.62,-57.59C547.24,-62.22 562.59,-67.86 576.28,-72.89"/>
<polygon fill="midnightblue" stroke="midnightblue" points="575.3,-76.25 585.89,-76.41 577.71,-69.68 575.3,-76.25"/>
</g>
<!-- Node9 -->
<g id="node9" class="node">
<title>Node9</title>
<g id="a_node9"><a xlink:href="string_8c.html#aa383452fe445bfae989358c9d7d96f4f" target="_top" xlink:title=" ">
<polygon fill="none" stroke="black" points="592.5,-38.5 592.5,-57.5 633.5,-57.5 633.5,-38.5 592.5,-38.5"/>
<text text-anchor="middle" x="613" y="-45.5" font-family="Helvetica,sans-Serif" font-size="10.00">strlen</text>
</a>
</g>
</g>
<!-- Node7&#45;&gt;Node9 -->
<g id="edge9" class="edge">
<title>Node7&#45;&gt;Node9</title>
<path fill="none" stroke="midnightblue" d="M534.62,-48C549.07,-48 567.1,-48 582.12,-48"/>
<polygon fill="midnightblue" stroke="midnightblue" points="582.43,-51.5 592.43,-48 582.43,-44.5 582.43,-51.5"/>
</g>
<!-- Node10 -->
<g id="node10" class="node">
<title>Node10</title>
<g id="a_node10"><a xlink:href="string_8c.html#a82f08f2390a9067f3c94b638e90e03bd" target="_top" xlink:title=" ">
<polygon fill="none" stroke="black" points="589,-0.5 589,-19.5 637,-19.5 637,-0.5 589,-0.5"/>
<text text-anchor="middle" x="613" y="-7.5" font-family="Helvetica,sans-Serif" font-size="10.00">strncpy</text>
</a>
</g>
</g>
<!-- Node7&#45;&gt;Node10 -->
<g id="edge10" class="edge">
<title>Node7&#45;&gt;Node10</title>
<path fill="none" stroke="midnightblue" d="M534.62,-38.41C548.14,-33.44 564.8,-27.33 579.18,-22.05"/>
<polygon fill="midnightblue" stroke="midnightblue" points="580.54,-25.28 588.72,-18.55 578.12,-18.71 580.54,-25.28"/>
</g>
<!-- Node11&#45;&gt;Node2 -->
<g id="edge12" class="edge">
<title>Node11&#45;&gt;Node2</title>
<path fill="none" stroke="midnightblue" d="M431.22,-171.53C461.32,-181.16 506.89,-197.66 543,-219 562.28,-230.39 581.71,-247.02 595.02,-259.38"/>
<polygon fill="midnightblue" stroke="midnightblue" points="592.8,-262.09 602.46,-266.44 597.62,-257.01 592.8,-262.09"/>
</g>
<!-- Node12 -->
<g id="node12" class="node">
<title>Node12</title>
<g id="a_node12"><a xlink:href="spinlock_8c.html#afc9565dc7a5ddf77e1fa76f5d91caf78" target="_top" xlink:title="interrupt able">
<polygon fill="none" stroke="black" points="475,-114.5 475,-133.5 540,-133.5 540,-114.5 475,-114.5"/>
<text text-anchor="middle" x="507.5" y="-121.5" font-family="Helvetica,sans-Serif" font-size="10.00">spin_popcli</text>
</a>
</g>
</g>
<!-- Node11&#45;&gt;Node12 -->
<g id="edge13" class="edge">
<title>Node11&#45;&gt;Node12</title>
<path fill="none" stroke="midnightblue" d="M426.13,-152.41C439.37,-147.73 455.49,-142.03 469.81,-136.97"/>
<polygon fill="midnightblue" stroke="midnightblue" points="471.12,-140.22 479.38,-133.59 468.79,-133.62 471.12,-140.22"/>
</g>
<!-- Node16 -->
<g id="node16" class="node">
<title>Node16</title>
<g id="a_node16"><a xlink:href="spinlock_8c.html#ab213874cda54fdbbeb1bec1e5fa90b28" target="_top" xlink:title="interrupt disable">
<polygon fill="none" stroke="black" points="472,-152.5 472,-171.5 543,-171.5 543,-152.5 472,-152.5"/>
<text text-anchor="middle" x="507.5" y="-159.5" font-family="Helvetica,sans-Serif" font-size="10.00">spin_pushcli</text>
</a>
</g>
</g>
<!-- Node11&#45;&gt;Node16 -->
<g id="edge18" class="edge">
<title>Node11&#45;&gt;Node16</title>
<path fill="none" stroke="midnightblue" d="M433.61,-162C442.62,-162 452.46,-162 461.91,-162"/>
<polygon fill="midnightblue" stroke="midnightblue" points="461.96,-165.5 471.96,-162 461.96,-158.5 461.96,-165.5"/>
</g>
<!-- Node12&#45;&gt;Node2 -->
<g id="edge14" class="edge">
<title>Node12&#45;&gt;Node2</title>
<path fill="none" stroke="midnightblue" d="M530.66,-133.66C535.09,-136.26 539.47,-139.38 543,-143 575.71,-176.53 596.55,-228.71 606.03,-256.7"/>
<polygon fill="midnightblue" stroke="midnightblue" points="602.78,-258.04 609.2,-266.47 609.44,-255.88 602.78,-258.04"/>
</g>
<!-- Node13 -->
<g id="node13" class="node">
<title>Node13</title>
<g id="a_node13"><a xlink:href="cte_8c.html#a4a139958742786c5085172be1f69bfd0" target="_top" xlink:title=" ">
<polygon fill="none" stroke="black" points="597,-114.5 597,-133.5 629,-133.5 629,-114.5 597,-114.5"/>
<text text-anchor="middle" x="613" y="-121.5" font-family="Helvetica,sans-Serif" font-size="10.00">iset</text>
</a>
</g>
</g>
<!-- Node12&#45;&gt;Node13 -->
<g id="edge15" class="edge">
<title>Node12&#45;&gt;Node13</title>
<path fill="none" stroke="midnightblue" d="M540.12,-124C554.94,-124 572.37,-124 586.36,-124"/>
<polygon fill="midnightblue" stroke="midnightblue" points="586.72,-127.5 596.72,-124 586.72,-120.5 586.72,-127.5"/>
</g>
<!-- Node14 -->
<g id="node14" class="node">
<title>Node14</title>
<g id="a_node14"><a xlink:href="x86_8h.html#acc919e7809ef1db2b20aa3804f540b5c" target="_top" xlink:title=" ">
<polygon fill="none" stroke="black" points="691,-76.5 691,-95.5 720,-95.5 720,-76.5 691,-76.5"/>
<text text-anchor="middle" x="705.5" y="-83.5" font-family="Helvetica,sans-Serif" font-size="10.00">cli</text>
</a>
</g>
</g>
<!-- Node13&#45;&gt;Node14 -->
<g id="edge16" class="edge">
<title>Node13&#45;&gt;Node14</title>
<path fill="none" stroke="midnightblue" d="M629.35,-117.55C643.63,-111.56 665.11,-102.54 681.45,-95.68"/>
<polygon fill="midnightblue" stroke="midnightblue" points="682.99,-98.83 690.85,-91.73 680.28,-92.38 682.99,-98.83"/>
</g>
<!-- Node15 -->
<g id="node15" class="node">
<title>Node15</title>
<g id="a_node15"><a xlink:href="x86_8h.html#a4657e97b270d7af5a23da2c4d642ada2" target="_top" xlink:title=" ">
<polygon fill="none" stroke="black" points="691,-114.5 691,-133.5 720,-133.5 720,-114.5 691,-114.5"/>
<text text-anchor="middle" x="705.5" y="-121.5" font-family="Helvetica,sans-Serif" font-size="10.00">sti</text>
</a>
</g>
</g>
<!-- Node13&#45;&gt;Node15 -->
<g id="edge17" class="edge">
<title>Node13&#45;&gt;Node15</title>
<path fill="none" stroke="midnightblue" d="M629.35,-124C643.37,-124 664.3,-124 680.52,-124"/>
<polygon fill="midnightblue" stroke="midnightblue" points="680.85,-127.5 690.85,-124 680.85,-120.5 680.85,-127.5"/>
</g>
<!-- Node16&#45;&gt;Node2 -->
<g id="edge19" class="edge">
<title>Node16&#45;&gt;Node2</title>
<path fill="none" stroke="midnightblue" d="M524.39,-171.56C530.53,-175.63 537.41,-180.66 543,-186 566.25,-208.2 587.91,-238.69 600.55,-257.87"/>
<polygon fill="midnightblue" stroke="midnightblue" points="597.63,-259.8 606,-266.29 603.51,-255.99 597.63,-259.8"/>
</g>
<!-- Node16&#45;&gt;Node13 -->
<g id="edge22" class="edge">
<title>Node16&#45;&gt;Node13</title>
<path fill="none" stroke="midnightblue" d="M534.62,-152.41C550.73,-146.5 571.28,-138.95 587.15,-133.12"/>
<polygon fill="midnightblue" stroke="midnightblue" points="588.63,-136.31 596.81,-129.58 586.22,-129.74 588.63,-136.31"/>
</g>
<!-- Node17 -->
<g id="node17" class="node">
<title>Node17</title>
<g id="a_node17"><a xlink:href="cte_8c.html#a79659a2b801c42951e38f3a8821acbae" target="_top" xlink:title=" ">
<polygon fill="none" stroke="black" points="586.5,-152.5 586.5,-171.5 639.5,-171.5 639.5,-152.5 586.5,-152.5"/>
<text text-anchor="middle" x="613" y="-159.5" font-family="Helvetica,sans-Serif" font-size="10.00">ienabled</text>
</a>
</g>
</g>
<!-- Node16&#45;&gt;Node17 -->
<g id="edge20" class="edge">
<title>Node16&#45;&gt;Node17</title>
<path fill="none" stroke="midnightblue" d="M543.25,-162C553.82,-162 565.46,-162 576.1,-162"/>
<polygon fill="midnightblue" stroke="midnightblue" points="576.34,-165.5 586.34,-162 576.34,-158.5 576.34,-165.5"/>
</g>
<!-- Node18 -->
<g id="node18" class="node">
<title>Node18</title>
<g id="a_node18"><a xlink:href="x86_8h.html#a73d094f09c6a7dd3fc703aa8229933ee" target="_top" xlink:title=" ">
<polygon fill="none" stroke="black" points="683,-152.5 683,-171.5 728,-171.5 728,-152.5 683,-152.5"/>
<text text-anchor="middle" x="705.5" y="-159.5" font-family="Helvetica,sans-Serif" font-size="10.00">get_efl</text>
</a>
</g>
</g>
<!-- Node17&#45;&gt;Node18 -->
<g id="edge21" class="edge">
<title>Node17&#45;&gt;Node18</title>
<path fill="none" stroke="midnightblue" d="M639.69,-162C649.88,-162 661.71,-162 672.45,-162"/>
<polygon fill="midnightblue" stroke="midnightblue" points="672.73,-165.5 682.73,-162 672.73,-158.5 672.73,-165.5"/>
</g>
<!-- Node19&#45;&gt;Node2 -->
<g id="edge26" class="edge">
<title>Node19&#45;&gt;Node2</title>
<path fill="none" stroke="midnightblue" d="M319.25,-247.11C331.63,-250.75 346.41,-254.64 360,-257 432.44,-269.58 518.03,-273.83 568.5,-275.27"/>
<polygon fill="midnightblue" stroke="midnightblue" points="568.64,-278.77 578.73,-275.53 568.82,-271.78 568.64,-278.77"/>
</g>
<!-- Node19&#45;&gt;Node11 -->
<g id="edge27" class="edge">
<title>Node19&#45;&gt;Node11</title>
<path fill="none" stroke="midnightblue" d="M304.56,-228.29C310.55,-223.96 317.66,-218.77 324,-214 340.2,-201.82 343.48,-197.75 360,-186 364.15,-183.05 368.64,-180.01 373.01,-177.13"/>
<polygon fill="midnightblue" stroke="midnightblue" points="375.19,-179.89 381.68,-171.52 371.39,-174.02 375.19,-179.89"/>
</g>
<!-- Node19&#45;&gt;Node16 -->
<g id="edge28" class="edge">
<title>Node19&#45;&gt;Node16</title>
<path fill="none" stroke="midnightblue" d="M318.29,-228.37C356.75,-214.81 426.97,-190.05 469.92,-174.9"/>
<polygon fill="midnightblue" stroke="midnightblue" points="471.16,-178.17 479.43,-171.55 468.83,-171.57 471.16,-178.17"/>
</g>
<!-- Node20 -->
<g id="node20" class="node">
<title>Node20</title>
<g id="a_node20"><a xlink:href="mpe_8c.html#aaaad47c97c82065cf463f83b98b23c30" target="_top" xlink:title=" ">
<polygon fill="none" stroke="black" points="362.5,-228.5 362.5,-247.5 433.5,-247.5 433.5,-228.5 362.5,-228.5"/>
<text text-anchor="middle" x="398" y="-235.5" font-family="Helvetica,sans-Serif" font-size="10.00">atomic_xchg</text>
</a>
</g>
</g>
<!-- Node19&#45;&gt;Node20 -->
<g id="edge24" class="edge">
<title>Node19&#45;&gt;Node20</title>
<path fill="none" stroke="midnightblue" d="M319.13,-238C329.27,-238 340.99,-238 352.2,-238"/>
<polygon fill="midnightblue" stroke="midnightblue" points="352.3,-241.5 362.3,-238 352.3,-234.5 352.3,-241.5"/>
</g>
<!-- Node21 -->
<g id="node21" class="node">
<title>Node21</title>
<g id="a_node21"><a xlink:href="x86_8h.html#a48b2a6a16dc8d7e09d327aa3803f1112" target="_top" xlink:title=" ">
<polygon fill="none" stroke="black" points="489,-228.5 489,-247.5 526,-247.5 526,-228.5 489,-228.5"/>
<text text-anchor="middle" x="507.5" y="-235.5" font-family="Helvetica,sans-Serif" font-size="10.00">xchg</text>
</a>
</g>
</g>
<!-- Node20&#45;&gt;Node21 -->
<g id="edge25" class="edge">
<title>Node20&#45;&gt;Node21</title>
<path fill="none" stroke="midnightblue" d="M433.61,-238C448.13,-238 464.81,-238 478.54,-238"/>
<polygon fill="midnightblue" stroke="midnightblue" points="478.83,-241.5 488.83,-238 478.83,-234.5 478.83,-241.5"/>
</g>
<!-- Node22&#45;&gt;Node11 -->
<g id="edge30" class="edge">
<title>Node22&#45;&gt;Node11</title>
<path fill="none" stroke="midnightblue" d="M317.75,-133.59C330.8,-138.27 346.7,-143.97 360.82,-149.03"/>
<polygon fill="midnightblue" stroke="midnightblue" points="359.67,-152.33 370.26,-152.41 362.03,-145.74 359.67,-152.33"/>
</g>
<!-- Node22&#45;&gt;Node12 -->
<g id="edge31" class="edge">
<title>Node22&#45;&gt;Node12</title>
<path fill="none" stroke="midnightblue" d="M324.2,-124C361.89,-124 423.44,-124 464.45,-124"/>
<polygon fill="midnightblue" stroke="midnightblue" points="464.67,-127.5 474.67,-124 464.67,-120.5 464.67,-127.5"/>
</g>
<!-- Node23&#45;&gt;Node5 -->
<g id="edge34" class="edge">
<title>Node23&#45;&gt;Node5</title>
<path fill="none" stroke="midnightblue" d="M198.16,-76.41C217.5,-70.36 242.27,-62.61 261.07,-56.74"/>
<polygon fill="midnightblue" stroke="midnightblue" points="262.32,-60.01 270.82,-53.69 260.23,-53.33 262.32,-60.01"/>
</g>
<!-- Node23&#45;&gt;Node11 -->
<g id="edge35" class="edge">
<title>Node23&#45;&gt;Node11</title>
<path fill="none" stroke="midnightblue" d="M220.02,-85.4C251.27,-86.72 291.12,-91.41 324,-105 346.11,-114.14 367.18,-131.91 380.95,-145.19"/>
<polygon fill="midnightblue" stroke="midnightblue" points="378.62,-147.81 388.17,-152.39 383.56,-142.85 378.62,-147.81"/>
</g>
<!-- Node23&#45;&gt;Node19 -->
<g id="edge36" class="edge">
<title>Node23&#45;&gt;Node19</title>
<path fill="none" stroke="midnightblue" d="M177.16,-95.78C187.98,-106.88 205.85,-125.72 220,-143 241.09,-168.75 263.35,-200.3 276.7,-219.77"/>
<polygon fill="midnightblue" stroke="midnightblue" points="273.98,-221.99 282.5,-228.29 279.76,-218.05 273.98,-221.99"/>
</g>
<!-- Node23&#45;&gt;Node22 -->
<g id="edge37" class="edge">
<title>Node23&#45;&gt;Node22</title>
<path fill="none" stroke="midnightblue" d="M198.16,-95.59C213.41,-100.36 232.05,-106.19 248.47,-111.32"/>
<polygon fill="midnightblue" stroke="midnightblue" points="247.76,-114.77 258.35,-114.41 249.85,-108.09 247.76,-114.77"/>
</g>
<!-- Node24 -->
<g id="node24" class="node">
<title>Node24</title>
<g id="a_node24"><a xlink:href="mpe_8c.html#af486ec575d47720d28eee63644206110" target="_top" xlink:title=" ">
<polygon fill="none" stroke="black" points="259,-0.5 259,-19.5 321,-19.5 321,-0.5 259,-0.5"/>
<text text-anchor="middle" x="290" y="-7.5" font-family="Helvetica,sans-Serif" font-size="10.00">cpu_count</text>
</a>
</g>
</g>
<!-- Node23&#45;&gt;Node24 -->
<g id="edge33" class="edge">
<title>Node23&#45;&gt;Node24</title>
<path fill="none" stroke="midnightblue" d="M181.77,-76.5C199.15,-65 229.47,-45.17 256,-29 258.35,-27.57 260.82,-26.09 263.29,-24.64"/>
<polygon fill="midnightblue" stroke="midnightblue" points="265.23,-27.56 272.12,-19.51 261.71,-21.5 265.23,-27.56"/>
</g>
<!-- Node25&#45;&gt;Node2 -->
<g id="edge39" class="edge">
<title>Node25&#45;&gt;Node2</title>
<path fill="none" stroke="midnightblue" d="M204.6,-397.19C275.24,-408.9 431.92,-425.29 543,-366 572.39,-350.31 593.07,-316.05 603.72,-294.61"/>
<polygon fill="midnightblue" stroke="midnightblue" points="606.91,-296.06 608.02,-285.52 600.58,-293.07 606.91,-296.06"/>
</g>
</g>
</svg>
