<?xml version="1.0" encoding="UTF-8" standalone="no"?>
<!DOCTYPE svg PUBLIC "-//W3C//DTD SVG 1.1//EN"
 "http://www.w3.org/Graphics/SVG/1.1/DTD/svg11.dtd">
<!-- Generated by graphviz version 3.0.0 (20220413.0106)
 -->
<!-- Title: kmt_schedule Pages: 1 -->
<svg width="629pt" height="272pt"
 viewBox="0.00 0.00 629.00 271.92" xmlns="http://www.w3.org/2000/svg" xmlns:xlink="http://www.w3.org/1999/xlink">
<g id="graph0" class="graph" transform="scale(1 1) rotate(0) translate(4 267.92)">
<title>kmt_schedule</title>
<!-- Node1 -->
<g id="node1" class="node">
<title>Node1</title>
<g id="a_node1"><a xlink:title="handler: schedule next task to run Notice: this should be the only handler which returns real Context">
<polygon fill="#bfbfbf" stroke="black" points="0,-155.5 0,-174.5 77,-174.5 77,-155.5 0,-155.5"/>
<text text-anchor="middle" x="38.5" y="-162.5" font-family="Helvetica,sans-Serif" font-size="10.00">kmt_schedule</text>
</a>
</g>
</g>
<!-- Node2 -->
<g id="node2" class="node">
<title>Node2</title>
<g id="a_node2"><a xlink:href="mpe_8c.html#ab701de78cad32896c923ce900087e714" target="_top" xlink:title=" ">
<polygon fill="none" stroke="black" points="368,-171.5 368,-190.5 436,-190.5 436,-171.5 368,-171.5"/>
<text text-anchor="middle" x="402" y="-178.5" font-family="Helvetica,sans-Serif" font-size="10.00">cpu_current</text>
</a>
</g>
</g>
<!-- Node1&#45;&gt;Node2 -->
<g id="edge1" class="edge">
<title>Node1&#45;&gt;Node2</title>
<path fill="none" stroke="midnightblue" d="M46.11,-174.66C57.62,-190.64 83.02,-222.26 113,-237 170.59,-265.32 191.98,-252.54 256,-257 289.7,-259.34 301.11,-270.68 332,-257 358.5,-245.26 379.18,-217.76 390.74,-199.27"/>
<polygon fill="midnightblue" stroke="midnightblue" points="393.82,-200.93 395.93,-190.55 387.81,-197.35 393.82,-200.93"/>
</g>
<!-- Node3 -->
<g id="node3" class="node">
<title>Node3</title>
<g id="a_node3"><a xlink:href="kmt_8c.html#a031a09141c265954f2b609183e573d1c" target="_top" xlink:title="get current cpu&#39;s tasks">
<polygon fill="none" stroke="black" points="256,-228.5 256,-247.5 332,-247.5 332,-228.5 256,-228.5"/>
<text text-anchor="middle" x="294" y="-235.5" font-family="Helvetica,sans-Serif" font-size="10.00">kmt_get_task</text>
</a>
</g>
</g>
<!-- Node1&#45;&gt;Node3 -->
<g id="edge2" class="edge">
<title>Node1&#45;&gt;Node3</title>
<path fill="none" stroke="midnightblue" d="M51.13,-174.7C64.95,-185.66 89.15,-203.13 113,-212 156.14,-228.05 208.53,-234.25 245.63,-236.62"/>
<polygon fill="midnightblue" stroke="midnightblue" points="245.49,-240.12 255.67,-237.19 245.89,-233.13 245.49,-240.12"/>
</g>
<!-- Node4 -->
<g id="node4" class="node">
<title>Node4</title>
<g id="a_node4"><a xlink:href="kmt_8c.html#a0ac321d3074b24b276695a080e835866" target="_top" xlink:title="print all tasks notice: do not garantee concurrency safety">
<polygon fill="none" stroke="black" points="116,-79.5 116,-98.5 217,-98.5 217,-79.5 116,-79.5"/>
<text text-anchor="middle" x="166.5" y="-86.5" font-family="Helvetica,sans-Serif" font-size="10.00">kmt_print_all_tasks</text>
</a>
</g>
</g>
<!-- Node1&#45;&gt;Node4 -->
<g id="edge4" class="edge">
<title>Node1&#45;&gt;Node4</title>
<path fill="none" stroke="midnightblue" d="M55.46,-155.37C77.04,-142.35 115.75,-119.01 141.02,-103.76"/>
<polygon fill="midnightblue" stroke="midnightblue" points="142.92,-106.71 149.67,-98.55 139.3,-100.72 142.92,-106.71"/>
</g>
<!-- Node11 -->
<g id="node11" class="node">
<title>Node11</title>
<g id="a_node11"><a xlink:href="kmt_8c.html#ac69761d0146d9aacda65da757868d3c7" target="_top" xlink:title="print all current_tasks notice: do not garantee concurrency safety">
<polygon fill="none" stroke="black" points="113,-38.5 113,-57.5 220,-57.5 220,-38.5 113,-38.5"/>
<text text-anchor="middle" x="166.5" y="-45.5" font-family="Helvetica,sans-Serif" font-size="10.00">kmt_print_cpu_tasks</text>
</a>
</g>
</g>
<!-- Node1&#45;&gt;Node11 -->
<g id="edge11" class="edge">
<title>Node1&#45;&gt;Node11</title>
<path fill="none" stroke="midnightblue" d="M44.7,-155.32C55.25,-136.49 80.91,-94.63 113,-70 116.91,-67 121.29,-64.33 125.81,-61.98"/>
<polygon fill="midnightblue" stroke="midnightblue" points="127.59,-65.01 135.17,-57.6 124.63,-58.67 127.59,-65.01"/>
</g>
<!-- Node13 -->
<g id="node13" class="node">
<title>Node13</title>
<g id="a_node13"><a xlink:href="kmt_8c.html#a9ddca6d133a84154c98607bf0ee82c76" target="_top" xlink:title="set cpu&#39;s current task">
<polygon fill="none" stroke="black" points="128.5,-183.5 128.5,-202.5 204.5,-202.5 204.5,-183.5 128.5,-183.5"/>
<text text-anchor="middle" x="166.5" y="-190.5" font-family="Helvetica,sans-Serif" font-size="10.00">kmt_set_task</text>
</a>
</g>
</g>
<!-- Node1&#45;&gt;Node13 -->
<g id="edge14" class="edge">
<title>Node1&#45;&gt;Node13</title>
<path fill="none" stroke="midnightblue" d="M77.3,-173.4C90.13,-176.25 104.62,-179.47 118.09,-182.47"/>
<polygon fill="midnightblue" stroke="midnightblue" points="117.64,-185.95 128.16,-184.7 119.15,-179.12 117.64,-185.95"/>
</g>
<!-- Node14 -->
<g id="node14" class="node">
<title>Node14</title>
<g id="a_node14"><a xlink:href="spinlock_8c.html#ad4be0d674a7ca4dc90c2dbf8b34562cc" target="_top" xlink:title="check current cpu has the lock">
<polygon fill="none" stroke="black" points="131,-136.5 131,-155.5 202,-155.5 202,-136.5 131,-136.5"/>
<text text-anchor="middle" x="166.5" y="-143.5" font-family="Helvetica,sans-Serif" font-size="10.00">spin_holding</text>
</a>
</g>
</g>
<!-- Node1&#45;&gt;Node14 -->
<g id="edge16" class="edge">
<title>Node1&#45;&gt;Node14</title>
<path fill="none" stroke="midnightblue" d="M77.3,-159.3C90.95,-157.24 106.49,-154.9 120.68,-152.76"/>
<polygon fill="midnightblue" stroke="midnightblue" points="121.37,-156.19 130.73,-151.24 120.32,-149.27 121.37,-156.19"/>
</g>
<!-- Node3&#45;&gt;Node2 -->
<g id="edge3" class="edge">
<title>Node3&#45;&gt;Node2</title>
<path fill="none" stroke="midnightblue" d="M312.98,-228.33C329.83,-219.27 355.24,-205.61 374.43,-195.29"/>
<polygon fill="midnightblue" stroke="midnightblue" points="376.13,-198.35 383.28,-190.53 372.82,-192.18 376.13,-198.35"/>
</g>
<!-- Node5 -->
<g id="node5" class="node">
<title>Node5</title>
<g id="a_node5"><a xlink:href="stdio_8c.html#a55f3d956bb2ba20b5059e9e25484a47f" target="_top" xlink:title=" ">
<polygon fill="none" stroke="black" points="275,-38.5 275,-57.5 313,-57.5 313,-38.5 275,-38.5"/>
<text text-anchor="middle" x="294" y="-45.5" font-family="Helvetica,sans-Serif" font-size="10.00">printf</text>
</a>
</g>
</g>
<!-- Node4&#45;&gt;Node5 -->
<g id="edge5" class="edge">
<title>Node4&#45;&gt;Node5</title>
<path fill="none" stroke="midnightblue" d="M196.61,-79.49C217.3,-72.73 244.91,-63.71 265.28,-57.05"/>
<polygon fill="midnightblue" stroke="midnightblue" points="266.5,-60.34 274.92,-53.91 264.33,-53.69 266.5,-60.34"/>
</g>
<!-- Node6 -->
<g id="node6" class="node">
<title>Node6</title>
<g id="a_node6"><a xlink:href="stdio_8c.html#a44a6734c6f8f81d8e1fa3b9d476c5134" target="_top" xlink:title="write bytes (including the terminating null byte (&#39;\0&#39;)) to out.">
<polygon fill="none" stroke="black" points="377.5,-38.5 377.5,-57.5 426.5,-57.5 426.5,-38.5 377.5,-38.5"/>
<text text-anchor="middle" x="402" y="-45.5" font-family="Helvetica,sans-Serif" font-size="10.00">vsprintf</text>
</a>
</g>
</g>
<!-- Node5&#45;&gt;Node6 -->
<g id="edge6" class="edge">
<title>Node5&#45;&gt;Node6</title>
<path fill="none" stroke="midnightblue" d="M313.46,-48C328.24,-48 349.36,-48 367.15,-48"/>
<polygon fill="midnightblue" stroke="midnightblue" points="367.17,-51.5 377.17,-48 367.17,-44.5 367.17,-51.5"/>
</g>
<!-- Node7 -->
<g id="node7" class="node">
<title>Node7</title>
<g id="a_node7"><a xlink:href="stdio_8c.html#abf852e417a205348767989f2940059ad" target="_top" xlink:title="write at most n bytes (including the terminating null byte (&#39;\0&#39;)) to out.">
<polygon fill="none" stroke="black" points="472,-38.5 472,-57.5 526,-57.5 526,-38.5 472,-38.5"/>
<text text-anchor="middle" x="499" y="-45.5" font-family="Helvetica,sans-Serif" font-size="10.00">vsnprintf</text>
</a>
</g>
</g>
<!-- Node6&#45;&gt;Node7 -->
<g id="edge7" class="edge">
<title>Node6&#45;&gt;Node7</title>
<path fill="none" stroke="midnightblue" d="M426.97,-48C437.41,-48 449.87,-48 461.43,-48"/>
<polygon fill="midnightblue" stroke="midnightblue" points="461.69,-51.5 471.69,-48 461.69,-44.5 461.69,-51.5"/>
</g>
<!-- Node8 -->
<g id="node8" class="node">
<title>Node8</title>
<g id="a_node8"><a xlink:href="stdio_8c.html#a0e2811092b514de48ac2dd675d6cf2b4" target="_top" xlink:title="print decimal into buffer,return length">
<polygon fill="none" stroke="black" points="562,-76.5 562,-95.5 621,-95.5 621,-76.5 562,-76.5"/>
<text text-anchor="middle" x="591.5" y="-83.5" font-family="Helvetica,sans-Serif" font-size="10.00">print_num</text>
</a>
</g>
</g>
<!-- Node7&#45;&gt;Node8 -->
<g id="edge8" class="edge">
<title>Node7&#45;&gt;Node8</title>
<path fill="none" stroke="midnightblue" d="M522.84,-57.59C533.56,-62.09 546.52,-67.53 558.22,-72.44"/>
<polygon fill="midnightblue" stroke="midnightblue" points="557.1,-75.77 567.67,-76.41 559.81,-69.32 557.1,-75.77"/>
</g>
<!-- Node9 -->
<g id="node9" class="node">
<title>Node9</title>
<g id="a_node9"><a xlink:href="string_8c.html#aa383452fe445bfae989358c9d7d96f4f" target="_top" xlink:title=" ">
<polygon fill="none" stroke="black" points="571,-38.5 571,-57.5 612,-57.5 612,-38.5 571,-38.5"/>
<text text-anchor="middle" x="591.5" y="-45.5" font-family="Helvetica,sans-Serif" font-size="10.00">strlen</text>
</a>
</g>
</g>
<!-- Node7&#45;&gt;Node9 -->
<g id="edge9" class="edge">
<title>Node7&#45;&gt;Node9</title>
<path fill="none" stroke="midnightblue" d="M526.18,-48C537.02,-48 549.64,-48 560.82,-48"/>
<polygon fill="midnightblue" stroke="midnightblue" points="561,-51.5 571,-48 561,-44.5 561,-51.5"/>
</g>
<!-- Node10 -->
<g id="node10" class="node">
<title>Node10</title>
<g id="a_node10"><a xlink:href="string_8c.html#a82f08f2390a9067f3c94b638e90e03bd" target="_top" xlink:title=" ">
<polygon fill="none" stroke="black" points="567.5,-0.5 567.5,-19.5 615.5,-19.5 615.5,-0.5 567.5,-0.5"/>
<text text-anchor="middle" x="591.5" y="-7.5" font-family="Helvetica,sans-Serif" font-size="10.00">strncpy</text>
</a>
</g>
</g>
<!-- Node7&#45;&gt;Node10 -->
<g id="edge10" class="edge">
<title>Node7&#45;&gt;Node10</title>
<path fill="none" stroke="midnightblue" d="M522.84,-38.41C533.56,-33.91 546.52,-28.47 558.22,-23.56"/>
<polygon fill="midnightblue" stroke="midnightblue" points="559.81,-26.68 567.67,-19.59 557.1,-20.23 559.81,-26.68"/>
</g>
<!-- Node11&#45;&gt;Node5 -->
<g id="edge13" class="edge">
<title>Node11&#45;&gt;Node5</title>
<path fill="none" stroke="midnightblue" d="M220.36,-48C235.54,-48 251.51,-48 264.59,-48"/>
<polygon fill="midnightblue" stroke="midnightblue" points="264.83,-51.5 274.83,-48 264.83,-44.5 264.83,-51.5"/>
</g>
<!-- Node12 -->
<g id="node12" class="node">
<title>Node12</title>
<g id="a_node12"><a xlink:href="mpe_8c.html#af486ec575d47720d28eee63644206110" target="_top" xlink:title=" ">
<polygon fill="none" stroke="black" points="263,-0.5 263,-19.5 325,-19.5 325,-0.5 263,-0.5"/>
<text text-anchor="middle" x="294" y="-7.5" font-family="Helvetica,sans-Serif" font-size="10.00">cpu_count</text>
</a>
</g>
</g>
<!-- Node11&#45;&gt;Node12 -->
<g id="edge12" class="edge">
<title>Node11&#45;&gt;Node12</title>
<path fill="none" stroke="midnightblue" d="M199.17,-38.41C215.44,-33.49 235.43,-27.43 252.78,-22.18"/>
<polygon fill="midnightblue" stroke="midnightblue" points="254.08,-25.44 262.64,-19.19 252.05,-18.74 254.08,-25.44"/>
</g>
<!-- Node13&#45;&gt;Node2 -->
<g id="edge15" class="edge">
<title>Node13&#45;&gt;Node2</title>
<path fill="none" stroke="midnightblue" d="M204.76,-191.09C246.36,-188.95 313.6,-185.49 357.56,-183.23"/>
<polygon fill="midnightblue" stroke="midnightblue" points="357.85,-186.72 367.66,-182.71 357.49,-179.73 357.85,-186.72"/>
</g>
<!-- Node14&#45;&gt;Node2 -->
<g id="edge17" class="edge">
<title>Node14&#45;&gt;Node2</title>
<path fill="none" stroke="midnightblue" d="M202.21,-151.2C243.69,-157.42 313.13,-167.83 357.98,-174.55"/>
<polygon fill="midnightblue" stroke="midnightblue" points="357.59,-178.03 367.99,-176.05 358.62,-171.11 357.59,-178.03"/>
</g>
<!-- Node15 -->
<g id="node15" class="node">
<title>Node15</title>
<g id="a_node15"><a xlink:href="spinlock_8c.html#afc9565dc7a5ddf77e1fa76f5d91caf78" target="_top" xlink:title="interrupt able">
<polygon fill="none" stroke="black" points="261.5,-114.5 261.5,-133.5 326.5,-133.5 326.5,-114.5 261.5,-114.5"/>
<text text-anchor="middle" x="294" y="-121.5" font-family="Helvetica,sans-Serif" font-size="10.00">spin_popcli</text>
</a>
</g>
</g>
<!-- Node14&#45;&gt;Node15 -->
<g id="edge18" class="edge">
<title>Node14&#45;&gt;Node15</title>
<path fill="none" stroke="midnightblue" d="M202.13,-139.93C217.36,-137.26 235.39,-134.1 251.35,-131.3"/>
<polygon fill="midnightblue" stroke="midnightblue" points="252.25,-134.7 261.49,-129.52 251.04,-127.8 252.25,-134.7"/>
</g>
<!-- Node19 -->
<g id="node19" class="node">
<title>Node19</title>
<g id="a_node19"><a xlink:href="spinlock_8c.html#ab213874cda54fdbbeb1bec1e5fa90b28" target="_top" xlink:title="interrupt disable">
<polygon fill="none" stroke="black" points="258.5,-76.5 258.5,-95.5 329.5,-95.5 329.5,-76.5 258.5,-76.5"/>
<text text-anchor="middle" x="294" y="-83.5" font-family="Helvetica,sans-Serif" font-size="10.00">spin_pushcli</text>
</a>
</g>
</g>
<!-- Node14&#45;&gt;Node19 -->
<g id="edge23" class="edge">
<title>Node14&#45;&gt;Node19</title>
<path fill="none" stroke="midnightblue" d="M187.39,-136.49C207.92,-126.68 240.18,-111.25 263.65,-100.03"/>
<polygon fill="midnightblue" stroke="midnightblue" points="265.28,-103.13 272.79,-95.66 262.26,-96.82 265.28,-103.13"/>
</g>
<!-- Node15&#45;&gt;Node2 -->
<g id="edge19" class="edge">
<title>Node15&#45;&gt;Node2</title>
<path fill="none" stroke="midnightblue" d="M312.98,-133.67C329.83,-142.73 355.24,-156.39 374.43,-166.71"/>
<polygon fill="midnightblue" stroke="midnightblue" points="372.82,-169.82 383.28,-171.47 376.13,-163.65 372.82,-169.82"/>
</g>
<!-- Node16 -->
<g id="node16" class="node">
<title>Node16</title>
<g id="a_node16"><a xlink:href="cte_8c.html#a4a139958742786c5085172be1f69bfd0" target="_top" xlink:title=" ">
<polygon fill="none" stroke="black" points="386,-114.5 386,-133.5 418,-133.5 418,-114.5 386,-114.5"/>
<text text-anchor="middle" x="402" y="-121.5" font-family="Helvetica,sans-Serif" font-size="10.00">iset</text>
</a>
</g>
</g>
<!-- Node15&#45;&gt;Node16 -->
<g id="edge20" class="edge">
<title>Node15&#45;&gt;Node16</title>
<path fill="none" stroke="midnightblue" d="M326.52,-124C342.18,-124 360.85,-124 375.58,-124"/>
<polygon fill="midnightblue" stroke="midnightblue" points="375.96,-127.5 385.96,-124 375.96,-120.5 375.96,-127.5"/>
</g>
<!-- Node17 -->
<g id="node17" class="node">
<title>Node17</title>
<g id="a_node17"><a xlink:href="x86_8h.html#acc919e7809ef1db2b20aa3804f540b5c" target="_top" xlink:title=" ">
<polygon fill="none" stroke="black" points="484.5,-152.5 484.5,-171.5 513.5,-171.5 513.5,-152.5 484.5,-152.5"/>
<text text-anchor="middle" x="499" y="-159.5" font-family="Helvetica,sans-Serif" font-size="10.00">cli</text>
</a>
</g>
</g>
<!-- Node16&#45;&gt;Node17 -->
<g id="edge21" class="edge">
<title>Node16&#45;&gt;Node17</title>
<path fill="none" stroke="midnightblue" d="M418.26,-130.11C433.52,-136.21 457.18,-145.67 474.77,-152.71"/>
<polygon fill="midnightblue" stroke="midnightblue" points="473.73,-156.06 484.32,-156.53 476.33,-149.56 473.73,-156.06"/>
</g>
<!-- Node18 -->
<g id="node18" class="node">
<title>Node18</title>
<g id="a_node18"><a xlink:href="x86_8h.html#a4657e97b270d7af5a23da2c4d642ada2" target="_top" xlink:title=" ">
<polygon fill="none" stroke="black" points="484.5,-114.5 484.5,-133.5 513.5,-133.5 513.5,-114.5 484.5,-114.5"/>
<text text-anchor="middle" x="499" y="-121.5" font-family="Helvetica,sans-Serif" font-size="10.00">sti</text>
</a>
</g>
</g>
<!-- Node16&#45;&gt;Node18 -->
<g id="edge22" class="edge">
<title>Node16&#45;&gt;Node18</title>
<path fill="none" stroke="midnightblue" d="M418.26,-124C433.38,-124 456.74,-124 474.28,-124"/>
<polygon fill="midnightblue" stroke="midnightblue" points="474.32,-127.5 484.32,-124 474.32,-120.5 474.32,-127.5"/>
</g>
<!-- Node19&#45;&gt;Node2 -->
<g id="edge24" class="edge">
<title>Node19&#45;&gt;Node2</title>
<path fill="none" stroke="midnightblue" d="M316.92,-95.61C322.08,-98.31 327.42,-101.49 332,-105 338.12,-109.69 367.49,-142.76 385.88,-163.7"/>
<polygon fill="midnightblue" stroke="midnightblue" points="383.32,-166.09 392.55,-171.31 388.59,-161.48 383.32,-166.09"/>
</g>
<!-- Node19&#45;&gt;Node16 -->
<g id="edge27" class="edge">
<title>Node19&#45;&gt;Node16</title>
<path fill="none" stroke="midnightblue" d="M321.75,-95.59C338.51,-101.6 359.96,-109.29 376.31,-115.15"/>
<polygon fill="midnightblue" stroke="midnightblue" points="375.15,-118.45 385.75,-118.53 377.52,-111.86 375.15,-118.45"/>
</g>
<!-- Node20 -->
<g id="node20" class="node">
<title>Node20</title>
<g id="a_node20"><a xlink:href="cte_8c.html#a79659a2b801c42951e38f3a8821acbae" target="_top" xlink:title=" ">
<polygon fill="none" stroke="black" points="375.5,-76.5 375.5,-95.5 428.5,-95.5 428.5,-76.5 375.5,-76.5"/>
<text text-anchor="middle" x="402" y="-83.5" font-family="Helvetica,sans-Serif" font-size="10.00">ienabled</text>
</a>
</g>
</g>
<!-- Node19&#45;&gt;Node20 -->
<g id="edge25" class="edge">
<title>Node19&#45;&gt;Node20</title>
<path fill="none" stroke="midnightblue" d="M329.71,-86C341.08,-86 353.73,-86 365.19,-86"/>
<polygon fill="midnightblue" stroke="midnightblue" points="365.29,-89.5 375.29,-86 365.29,-82.5 365.29,-89.5"/>
</g>
<!-- Node21 -->
<g id="node21" class="node">
<title>Node21</title>
<g id="a_node21"><a xlink:href="x86_8h.html#a73d094f09c6a7dd3fc703aa8229933ee" target="_top" xlink:title=" ">
<polygon fill="none" stroke="black" points="476.5,-76.5 476.5,-95.5 521.5,-95.5 521.5,-76.5 476.5,-76.5"/>
<text text-anchor="middle" x="499" y="-83.5" font-family="Helvetica,sans-Serif" font-size="10.00">get_efl</text>
</a>
</g>
</g>
<!-- Node20&#45;&gt;Node21 -->
<g id="edge26" class="edge">
<title>Node20&#45;&gt;Node21</title>
<path fill="none" stroke="midnightblue" d="M428.96,-86C440.43,-86 454.03,-86 466.11,-86"/>
<polygon fill="midnightblue" stroke="midnightblue" points="466.25,-89.5 476.25,-86 466.25,-82.5 466.25,-89.5"/>
</g>
</g>
</svg>
