<?xml version="1.0" encoding="UTF-8" standalone="no"?>
<!DOCTYPE svg PUBLIC "-//W3C//DTD SVG 1.1//EN"
 "http://www.w3.org/Graphics/SVG/1.1/DTD/svg11.dtd">
<!-- Generated by graphviz version 3.0.0 (20220413.0106)
 -->
<!-- Title: kmt_init Pages: 1 -->
<svg width="831pt" height="482pt"
 viewBox="0.00 0.00 831.00 482.44" xmlns="http://www.w3.org/2000/svg" xmlns:xlink="http://www.w3.org/1999/xlink">
<g id="graph0" class="graph" transform="scale(1 1) rotate(0) translate(4 478.44)">
<title>kmt_init</title>
<!-- Node1 -->
<g id="node1" class="node">
<title>Node1</title>
<g id="a_node1"><a xlink:title="initialize kmt module">
<polygon fill="#bfbfbf" stroke="black" points="0,-165.73 0,-184.73 51,-184.73 51,-165.73 0,-165.73"/>
<text text-anchor="middle" x="25.5" y="-172.73" font-family="Helvetica,sans-Serif" font-size="10.00">kmt_init</text>
</a>
</g>
</g>
<!-- Node2 -->
<g id="node2" class="node">
<title>Node2</title>
<g id="a_node2"><a xlink:href="kmt_8c.html#af9c485ce0d89d6624e6e80e31d8ed207" target="_top" xlink:title="handler: save context to current task">
<polygon fill="none" stroke="black" points="205.5,-298.73 205.5,-317.73 301.5,-317.73 301.5,-298.73 205.5,-298.73"/>
<text text-anchor="middle" x="253.5" y="-305.73" font-family="Helvetica,sans-Serif" font-size="10.00">kmt_context_save</text>
</a>
</g>
</g>
<!-- Node1&#45;&gt;Node2 -->
<g id="edge1" class="edge">
<title>Node1&#45;&gt;Node2</title>
<path fill="none" stroke="midnightblue" d="M31.7,-184.86C40.83,-200.87 61.24,-233.04 87,-251.23 119.42,-274.14 161.83,-288.51 195.61,-297.09"/>
<polygon fill="midnightblue" stroke="midnightblue" points="194.8,-300.49 205.34,-299.46 196.46,-293.69 194.8,-300.49"/>
</g>
<!-- Node17 -->
<g id="node17" class="node">
<title>Node17</title>
<g id="a_node17"><a xlink:href="kmt_8c.html#ad3fbc643b7b6092120c5152b4c890354" target="_top" xlink:title="handler: handle program errors">
<polygon fill="none" stroke="black" points="96.5,-184.73 96.5,-203.73 154.5,-203.73 154.5,-184.73 96.5,-184.73"/>
<text text-anchor="middle" x="125.5" y="-191.73" font-family="Helvetica,sans-Serif" font-size="10.00">kmt_error</text>
</a>
</g>
</g>
<!-- Node1&#45;&gt;Node17 -->
<g id="edge26" class="edge">
<title>Node1&#45;&gt;Node17</title>
<path fill="none" stroke="midnightblue" d="M51.23,-180.03C61.84,-182.09 74.49,-184.54 86.26,-186.82"/>
<polygon fill="midnightblue" stroke="midnightblue" points="85.83,-190.3 96.31,-188.77 87.16,-183.43 85.83,-190.3"/>
</g>
<!-- Node27 -->
<g id="node27" class="node">
<title>Node27</title>
<g id="a_node27"><a xlink:href="kmt_8c.html#ad4d70b4093829da1c0b0631abdff7747" target="_top" xlink:title="handler: schedule next task to run Notice: this should be the only handler which returns real Context">
<polygon fill="none" stroke="black" points="87,-222.73 87,-241.73 164,-241.73 164,-222.73 87,-222.73"/>
<text text-anchor="middle" x="125.5" y="-229.73" font-family="Helvetica,sans-Serif" font-size="10.00">kmt_schedule</text>
</a>
</g>
</g>
<!-- Node1&#45;&gt;Node27 -->
<g id="edge44" class="edge">
<title>Node1&#45;&gt;Node27</title>
<path fill="none" stroke="midnightblue" d="M41.19,-184.99C53.3,-192.91 71.02,-204.19 87,-213.23 89.86,-214.85 92.87,-216.49 95.89,-218.09"/>
<polygon fill="midnightblue" stroke="midnightblue" points="94.37,-221.24 104.86,-222.71 97.57,-215.01 94.37,-221.24"/>
</g>
<!-- Node29 -->
<g id="node29" class="node">
<title>Node29</title>
<g id="a_node29"><a xlink:href="kmt_8c.html#a046a92c2d695ccdd1ad42210135ed597" target="_top" xlink:title="handler: triggered when aipc timer fired up">
<polygon fill="none" stroke="black" points="95.5,-146.73 95.5,-165.73 155.5,-165.73 155.5,-146.73 95.5,-146.73"/>
<text text-anchor="middle" x="125.5" y="-153.73" font-family="Helvetica,sans-Serif" font-size="10.00">kmt_timer</text>
</a>
</g>
</g>
<!-- Node1&#45;&gt;Node29 -->
<g id="edge54" class="edge">
<title>Node1&#45;&gt;Node29</title>
<path fill="none" stroke="midnightblue" d="M51.23,-170.44C61.58,-168.43 73.86,-166.05 85.38,-163.82"/>
<polygon fill="midnightblue" stroke="midnightblue" points="86.1,-167.25 95.25,-161.91 84.76,-160.37 86.1,-167.25"/>
</g>
<!-- Node30 -->
<g id="node30" class="node">
<title>Node30</title>
<g id="a_node30"><a xlink:href="kmt_8c.html#a75ea8dbba16d64a343a45962bd593930" target="_top" xlink:title="handler: handle yield interrupt (0x81)">
<polygon fill="none" stroke="black" points="96.5,-108.73 96.5,-127.73 154.5,-127.73 154.5,-108.73 96.5,-108.73"/>
<text text-anchor="middle" x="125.5" y="-115.73" font-family="Helvetica,sans-Serif" font-size="10.00">kmt_yield</text>
</a>
</g>
</g>
<!-- Node1&#45;&gt;Node30 -->
<g id="edge55" class="edge">
<title>Node1&#45;&gt;Node30</title>
<path fill="none" stroke="midnightblue" d="M41.19,-165.48C53.3,-157.56 71.02,-146.27 87,-137.23 89.86,-135.62 92.87,-133.98 95.89,-132.38"/>
<polygon fill="midnightblue" stroke="midnightblue" points="97.57,-135.46 104.86,-127.76 94.37,-129.23 97.57,-135.46"/>
</g>
<!-- Node31 -->
<g id="node31" class="node">
<title>Node31</title>
<g id="a_node31"><a xlink:href="string_8c.html#a7a8fd43b209c9ea19addab23a5f23995" target="_top" xlink:title=" ">
<polygon fill="none" stroke="black" points="99.5,-70.73 99.5,-89.73 151.5,-89.73 151.5,-70.73 99.5,-70.73"/>
<text text-anchor="middle" x="125.5" y="-77.73" font-family="Helvetica,sans-Serif" font-size="10.00">memset</text>
</a>
</g>
</g>
<!-- Node1&#45;&gt;Node31 -->
<g id="edge56" class="edge">
<title>Node1&#45;&gt;Node31</title>
<path fill="none" stroke="midnightblue" d="M32.46,-165.23C42.21,-149.52 62.94,-118.84 87,-99.23 88.79,-97.77 90.72,-96.38 92.71,-95.07"/>
<polygon fill="midnightblue" stroke="midnightblue" points="94.86,-97.87 101.72,-89.8 91.32,-91.83 94.86,-97.87"/>
</g>
<!-- Node3 -->
<g id="node3" class="node">
<title>Node3</title>
<g id="a_node3"><a xlink:href="mpe_8c.html#ab701de78cad32896c923ce900087e714" target="_top" xlink:title=" ">
<polygon fill="none" stroke="black" points="674,-317.73 674,-336.73 742,-336.73 742,-317.73 674,-317.73"/>
<text text-anchor="middle" x="708" y="-324.73" font-family="Helvetica,sans-Serif" font-size="10.00">cpu_current</text>
</a>
</g>
</g>
<!-- Node2&#45;&gt;Node3 -->
<g id="edge2" class="edge">
<title>Node2&#45;&gt;Node3</title>
<path fill="none" stroke="midnightblue" d="M301.58,-311.99C362.71,-316.66 472.74,-324.37 567,-327.23 599.42,-328.22 636.08,-328.18 663.76,-327.91"/>
<polygon fill="midnightblue" stroke="midnightblue" points="663.93,-331.41 673.9,-327.8 663.86,-324.41 663.93,-331.41"/>
</g>
<!-- Node4 -->
<g id="node4" class="node">
<title>Node4</title>
<g id="a_node4"><a xlink:href="kmt_8c.html#a031a09141c265954f2b609183e573d1c" target="_top" xlink:title="get current cpu&#39;s tasks">
<polygon fill="none" stroke="black" points="343,-412.73 343,-431.73 419,-431.73 419,-412.73 343,-412.73"/>
<text text-anchor="middle" x="381" y="-419.73" font-family="Helvetica,sans-Serif" font-size="10.00">kmt_get_task</text>
</a>
</g>
</g>
<!-- Node2&#45;&gt;Node4 -->
<g id="edge3" class="edge">
<title>Node2&#45;&gt;Node4</title>
<path fill="none" stroke="midnightblue" d="M265.2,-317.95C286.69,-337.47 335.29,-381.63 361.85,-405.75"/>
<polygon fill="midnightblue" stroke="midnightblue" points="359.57,-408.41 369.33,-412.54 364.28,-403.23 359.57,-408.41"/>
</g>
<!-- Node5 -->
<g id="node5" class="node">
<title>Node5</title>
<g id="a_node5"><a xlink:href="spinlock_8c.html#ad4be0d674a7ca4dc90c2dbf8b34562cc" target="_top" xlink:title="check current cpu has the lock">
<polygon fill="none" stroke="black" points="457.5,-184.73 457.5,-203.73 528.5,-203.73 528.5,-184.73 457.5,-184.73"/>
<text text-anchor="middle" x="493" y="-191.73" font-family="Helvetica,sans-Serif" font-size="10.00">spin_holding</text>
</a>
</g>
</g>
<!-- Node2&#45;&gt;Node5 -->
<g id="edge5" class="edge">
<title>Node2&#45;&gt;Node5</title>
<path fill="none" stroke="midnightblue" d="M301.81,-312.25C336.42,-313.02 383.35,-309.42 419,-289.23 435.21,-280.05 464.47,-237.21 480.59,-212.31"/>
<polygon fill="midnightblue" stroke="midnightblue" points="483.62,-214.06 486.07,-203.75 477.73,-210.29 483.62,-214.06"/>
</g>
<!-- Node13 -->
<g id="node13" class="node">
<title>Node13</title>
<g id="a_node13"><a xlink:href="spinlock_8c.html#ab6f3c37ec37006951feccc3c05387cce" target="_top" xlink:title="acquire spinlock to current cpu">
<polygon fill="none" stroke="black" points="352,-260.73 352,-279.73 410,-279.73 410,-260.73 352,-260.73"/>
<text text-anchor="middle" x="381" y="-267.73" font-family="Helvetica,sans-Serif" font-size="10.00">spin_lock</text>
</a>
</g>
</g>
<!-- Node2&#45;&gt;Node13 -->
<g id="edge17" class="edge">
<title>Node2&#45;&gt;Node13</title>
<path fill="none" stroke="midnightblue" d="M286.17,-298.65C303.04,-293.54 323.93,-287.21 341.71,-281.83"/>
<polygon fill="midnightblue" stroke="midnightblue" points="343.21,-285.03 351.77,-278.78 341.18,-278.33 343.21,-285.03"/>
</g>
<!-- Node16 -->
<g id="node16" class="node">
<title>Node16</title>
<g id="a_node16"><a xlink:href="spinlock_8c.html#acdf118d615a4bc4064e991add9a80995" target="_top" xlink:title="release spinlock from current cpu">
<polygon fill="none" stroke="black" points="347,-146.73 347,-165.73 415,-165.73 415,-146.73 347,-146.73"/>
<text text-anchor="middle" x="381" y="-153.73" font-family="Helvetica,sans-Serif" font-size="10.00">spin_unlock</text>
</a>
</g>
</g>
<!-- Node2&#45;&gt;Node16 -->
<g id="edge23" class="edge">
<title>Node2&#45;&gt;Node16</title>
<path fill="none" stroke="midnightblue" d="M262.35,-298.73C282.95,-273.78 338.8,-206.13 365.46,-173.84"/>
<polygon fill="midnightblue" stroke="midnightblue" points="368.48,-175.68 372.15,-165.74 363.09,-171.22 368.48,-175.68"/>
</g>
<!-- Node4&#45;&gt;Node3 -->
<g id="edge4" class="edge">
<title>Node4&#45;&gt;Node3</title>
<path fill="none" stroke="midnightblue" d="M419.29,-426.5C471.1,-430.76 566.54,-432.45 638,-398.23 662.46,-386.52 682.98,-362.28 695.12,-345.4"/>
<polygon fill="midnightblue" stroke="midnightblue" points="698.19,-347.12 700.98,-336.9 692.42,-343.15 698.19,-347.12"/>
</g>
<!-- Node5&#45;&gt;Node3 -->
<g id="edge6" class="edge">
<title>Node5&#45;&gt;Node3</title>
<path fill="none" stroke="midnightblue" d="M528.75,-203.12C559.34,-212.04 604.17,-227.83 638,-251.23 661,-267.15 681.73,-292.11 694.33,-309.05"/>
<polygon fill="midnightblue" stroke="midnightblue" points="691.76,-311.47 700.46,-317.53 697.44,-307.37 691.76,-311.47"/>
</g>
<!-- Node6 -->
<g id="node6" class="node">
<title>Node6</title>
<g id="a_node6"><a xlink:href="spinlock_8c.html#afc9565dc7a5ddf77e1fa76f5d91caf78" target="_top" xlink:title="interrupt able">
<polygon fill="none" stroke="black" points="570,-146.73 570,-165.73 635,-165.73 635,-146.73 570,-146.73"/>
<text text-anchor="middle" x="602.5" y="-153.73" font-family="Helvetica,sans-Serif" font-size="10.00">spin_popcli</text>
</a>
</g>
</g>
<!-- Node5&#45;&gt;Node6 -->
<g id="edge7" class="edge">
<title>Node5&#45;&gt;Node6</title>
<path fill="none" stroke="midnightblue" d="M521.13,-184.65C534.37,-179.97 550.49,-174.27 564.81,-169.2"/>
<polygon fill="midnightblue" stroke="midnightblue" points="566.12,-172.45 574.38,-165.82 563.79,-165.85 566.12,-172.45"/>
</g>
<!-- Node10 -->
<g id="node10" class="node">
<title>Node10</title>
<g id="a_node10"><a xlink:href="spinlock_8c.html#ab213874cda54fdbbeb1bec1e5fa90b28" target="_top" xlink:title="interrupt disable">
<polygon fill="none" stroke="black" points="567,-184.73 567,-203.73 638,-203.73 638,-184.73 567,-184.73"/>
<text text-anchor="middle" x="602.5" y="-191.73" font-family="Helvetica,sans-Serif" font-size="10.00">spin_pushcli</text>
</a>
</g>
</g>
<!-- Node5&#45;&gt;Node10 -->
<g id="edge12" class="edge">
<title>Node5&#45;&gt;Node10</title>
<path fill="none" stroke="midnightblue" d="M528.61,-194.23C537.62,-194.23 547.46,-194.23 556.91,-194.23"/>
<polygon fill="midnightblue" stroke="midnightblue" points="556.96,-197.73 566.96,-194.23 556.96,-190.73 556.96,-197.73"/>
</g>
<!-- Node6&#45;&gt;Node3 -->
<g id="edge8" class="edge">
<title>Node6&#45;&gt;Node3</title>
<path fill="none" stroke="midnightblue" d="M625.81,-165.76C630.23,-168.37 634.56,-171.52 638,-175.23 674.29,-214.45 694.1,-276.01 702.34,-307.4"/>
<polygon fill="midnightblue" stroke="midnightblue" points="699.04,-308.65 704.86,-317.5 705.84,-306.95 699.04,-308.65"/>
</g>
<!-- Node7 -->
<g id="node7" class="node">
<title>Node7</title>
<g id="a_node7"><a xlink:href="cte_8c.html#a4a139958742786c5085172be1f69bfd0" target="_top" xlink:title=" ">
<polygon fill="none" stroke="black" points="692,-146.73 692,-165.73 724,-165.73 724,-146.73 692,-146.73"/>
<text text-anchor="middle" x="708" y="-153.73" font-family="Helvetica,sans-Serif" font-size="10.00">iset</text>
</a>
</g>
</g>
<!-- Node6&#45;&gt;Node7 -->
<g id="edge9" class="edge">
<title>Node6&#45;&gt;Node7</title>
<path fill="none" stroke="midnightblue" d="M635.12,-156.23C649.94,-156.23 667.37,-156.23 681.36,-156.23"/>
<polygon fill="midnightblue" stroke="midnightblue" points="681.72,-159.73 691.72,-156.23 681.72,-152.73 681.72,-159.73"/>
</g>
<!-- Node8 -->
<g id="node8" class="node">
<title>Node8</title>
<g id="a_node8"><a xlink:href="x86_8h.html#acc919e7809ef1db2b20aa3804f540b5c" target="_top" xlink:title=" ">
<polygon fill="none" stroke="black" points="786,-146.73 786,-165.73 815,-165.73 815,-146.73 786,-146.73"/>
<text text-anchor="middle" x="800.5" y="-153.73" font-family="Helvetica,sans-Serif" font-size="10.00">cli</text>
</a>
</g>
</g>
<!-- Node7&#45;&gt;Node8 -->
<g id="edge10" class="edge">
<title>Node7&#45;&gt;Node8</title>
<path fill="none" stroke="midnightblue" d="M724.35,-156.23C738.37,-156.23 759.3,-156.23 775.52,-156.23"/>
<polygon fill="midnightblue" stroke="midnightblue" points="775.85,-159.73 785.85,-156.23 775.85,-152.73 775.85,-159.73"/>
</g>
<!-- Node9 -->
<g id="node9" class="node">
<title>Node9</title>
<g id="a_node9"><a xlink:href="x86_8h.html#a4657e97b270d7af5a23da2c4d642ada2" target="_top" xlink:title=" ">
<polygon fill="none" stroke="black" points="786,-108.73 786,-127.73 815,-127.73 815,-108.73 786,-108.73"/>
<text text-anchor="middle" x="800.5" y="-115.73" font-family="Helvetica,sans-Serif" font-size="10.00">sti</text>
</a>
</g>
</g>
<!-- Node7&#45;&gt;Node9 -->
<g id="edge11" class="edge">
<title>Node7&#45;&gt;Node9</title>
<path fill="none" stroke="midnightblue" d="M724.35,-149.79C738.63,-143.79 760.11,-134.77 776.45,-127.91"/>
<polygon fill="midnightblue" stroke="midnightblue" points="777.99,-131.06 785.85,-123.97 775.28,-124.61 777.99,-131.06"/>
</g>
<!-- Node10&#45;&gt;Node3 -->
<g id="edge13" class="edge">
<title>Node10&#45;&gt;Node3</title>
<path fill="none" stroke="midnightblue" d="M619.99,-203.77C626.07,-207.77 632.75,-212.75 638,-218.23 664.58,-246 686.53,-285.52 698.11,-308.56"/>
<polygon fill="midnightblue" stroke="midnightblue" points="695.01,-310.18 702.56,-317.61 701.29,-307.09 695.01,-310.18"/>
</g>
<!-- Node10&#45;&gt;Node7 -->
<g id="edge16" class="edge">
<title>Node10&#45;&gt;Node7</title>
<path fill="none" stroke="midnightblue" d="M629.62,-184.65C645.73,-178.73 666.28,-171.19 682.15,-165.36"/>
<polygon fill="midnightblue" stroke="midnightblue" points="683.63,-168.54 691.81,-161.81 681.22,-161.97 683.63,-168.54"/>
</g>
<!-- Node11 -->
<g id="node11" class="node">
<title>Node11</title>
<g id="a_node11"><a xlink:href="cte_8c.html#a79659a2b801c42951e38f3a8821acbae" target="_top" xlink:title=" ">
<polygon fill="none" stroke="black" points="681.5,-184.73 681.5,-203.73 734.5,-203.73 734.5,-184.73 681.5,-184.73"/>
<text text-anchor="middle" x="708" y="-191.73" font-family="Helvetica,sans-Serif" font-size="10.00">ienabled</text>
</a>
</g>
</g>
<!-- Node10&#45;&gt;Node11 -->
<g id="edge14" class="edge">
<title>Node10&#45;&gt;Node11</title>
<path fill="none" stroke="midnightblue" d="M638.25,-194.23C648.82,-194.23 660.46,-194.23 671.1,-194.23"/>
<polygon fill="midnightblue" stroke="midnightblue" points="671.34,-197.73 681.34,-194.23 671.34,-190.73 671.34,-197.73"/>
</g>
<!-- Node12 -->
<g id="node12" class="node">
<title>Node12</title>
<g id="a_node12"><a xlink:href="x86_8h.html#a73d094f09c6a7dd3fc703aa8229933ee" target="_top" xlink:title=" ">
<polygon fill="none" stroke="black" points="778,-184.73 778,-203.73 823,-203.73 823,-184.73 778,-184.73"/>
<text text-anchor="middle" x="800.5" y="-191.73" font-family="Helvetica,sans-Serif" font-size="10.00">get_efl</text>
</a>
</g>
</g>
<!-- Node11&#45;&gt;Node12 -->
<g id="edge15" class="edge">
<title>Node11&#45;&gt;Node12</title>
<path fill="none" stroke="midnightblue" d="M734.69,-194.23C744.88,-194.23 756.71,-194.23 767.45,-194.23"/>
<polygon fill="midnightblue" stroke="midnightblue" points="767.73,-197.73 777.73,-194.23 767.73,-190.73 767.73,-197.73"/>
</g>
<!-- Node13&#45;&gt;Node3 -->
<g id="edge20" class="edge">
<title>Node13&#45;&gt;Node3</title>
<path fill="none" stroke="midnightblue" d="M410.27,-278.33C423.73,-282 440.12,-286.18 455,-289.23 527.64,-304.12 613.16,-315.8 663.57,-322.09"/>
<polygon fill="midnightblue" stroke="midnightblue" points="663.43,-325.6 673.78,-323.35 664.29,-318.66 663.43,-325.6"/>
</g>
<!-- Node13&#45;&gt;Node5 -->
<g id="edge21" class="edge">
<title>Node13&#45;&gt;Node5</title>
<path fill="none" stroke="midnightblue" d="M397.32,-260.71C404.06,-256.42 412.01,-251.21 419,-246.23 435.52,-234.49 438.48,-229.98 455,-218.23 459.15,-215.28 463.64,-212.25 468.01,-209.37"/>
<polygon fill="midnightblue" stroke="midnightblue" points="470.19,-212.13 476.68,-203.76 466.39,-206.25 470.19,-212.13"/>
</g>
<!-- Node13&#45;&gt;Node10 -->
<g id="edge22" class="edge">
<title>Node13&#45;&gt;Node10</title>
<path fill="none" stroke="midnightblue" d="M409.8,-260.61C448.97,-247.05 520.5,-222.28 564.24,-207.14"/>
<polygon fill="midnightblue" stroke="midnightblue" points="565.62,-210.36 573.93,-203.78 563.33,-203.75 565.62,-210.36"/>
</g>
<!-- Node14 -->
<g id="node14" class="node">
<title>Node14</title>
<g id="a_node14"><a xlink:href="mpe_8c.html#aaaad47c97c82065cf463f83b98b23c30" target="_top" xlink:title=" ">
<polygon fill="none" stroke="black" points="457.5,-260.73 457.5,-279.73 528.5,-279.73 528.5,-260.73 457.5,-260.73"/>
<text text-anchor="middle" x="493" y="-267.73" font-family="Helvetica,sans-Serif" font-size="10.00">atomic_xchg</text>
</a>
</g>
</g>
<!-- Node13&#45;&gt;Node14 -->
<g id="edge18" class="edge">
<title>Node13&#45;&gt;Node14</title>
<path fill="none" stroke="midnightblue" d="M410.04,-270.23C421.28,-270.23 434.51,-270.23 447.03,-270.23"/>
<polygon fill="midnightblue" stroke="midnightblue" points="447.32,-273.73 457.32,-270.23 447.32,-266.73 447.32,-273.73"/>
</g>
<!-- Node15 -->
<g id="node15" class="node">
<title>Node15</title>
<g id="a_node15"><a xlink:href="x86_8h.html#a48b2a6a16dc8d7e09d327aa3803f1112" target="_top" xlink:title=" ">
<polygon fill="none" stroke="black" points="584,-260.73 584,-279.73 621,-279.73 621,-260.73 584,-260.73"/>
<text text-anchor="middle" x="602.5" y="-267.73" font-family="Helvetica,sans-Serif" font-size="10.00">xchg</text>
</a>
</g>
</g>
<!-- Node14&#45;&gt;Node15 -->
<g id="edge19" class="edge">
<title>Node14&#45;&gt;Node15</title>
<path fill="none" stroke="midnightblue" d="M528.61,-270.23C543.13,-270.23 559.81,-270.23 573.54,-270.23"/>
<polygon fill="midnightblue" stroke="midnightblue" points="573.83,-273.73 583.83,-270.23 573.83,-266.73 573.83,-273.73"/>
</g>
<!-- Node16&#45;&gt;Node5 -->
<g id="edge24" class="edge">
<title>Node16&#45;&gt;Node5</title>
<path fill="none" stroke="midnightblue" d="M409.76,-165.82C423.31,-170.5 439.81,-176.2 454.46,-181.27"/>
<polygon fill="midnightblue" stroke="midnightblue" points="453.66,-184.69 464.25,-184.65 455.94,-178.08 453.66,-184.69"/>
</g>
<!-- Node16&#45;&gt;Node6 -->
<g id="edge25" class="edge">
<title>Node16&#45;&gt;Node6</title>
<path fill="none" stroke="midnightblue" d="M415.34,-156.23C454.03,-156.23 517.89,-156.23 559.83,-156.23"/>
<polygon fill="midnightblue" stroke="midnightblue" points="559.99,-159.73 569.99,-156.23 559.99,-152.73 559.99,-159.73"/>
</g>
<!-- Node17&#45;&gt;Node5 -->
<g id="edge43" class="edge">
<title>Node17&#45;&gt;Node5</title>
<path fill="none" stroke="midnightblue" d="M151.09,-184.73C155.76,-182.15 160.33,-179 164,-175.23 190.07,-148.46 174.19,-126.27 200,-99.23 271.15,-24.72 333.03,33.54 419,-23.23 425.78,-27.71 467.07,-130.98 484.38,-174.82"/>
<polygon fill="midnightblue" stroke="midnightblue" points="481.22,-176.35 488.14,-184.37 487.73,-173.78 481.22,-176.35"/>
</g>
<!-- Node18 -->
<g id="node18" class="node">
<title>Node18</title>
<g id="a_node18"><a xlink:href="kmt_8c.html#a0ac321d3074b24b276695a080e835866" target="_top" xlink:title="print all tasks notice: do not garantee concurrency safety">
<polygon fill="none" stroke="black" points="203,-184.73 203,-203.73 304,-203.73 304,-184.73 203,-184.73"/>
<text text-anchor="middle" x="253.5" y="-191.73" font-family="Helvetica,sans-Serif" font-size="10.00">kmt_print_all_tasks</text>
</a>
</g>
</g>
<!-- Node17&#45;&gt;Node18 -->
<g id="edge27" class="edge">
<title>Node17&#45;&gt;Node18</title>
<path fill="none" stroke="midnightblue" d="M154.78,-194.23C166.05,-194.23 179.48,-194.23 192.73,-194.23"/>
<polygon fill="midnightblue" stroke="midnightblue" points="192.78,-197.73 202.78,-194.23 192.78,-190.73 192.78,-197.73"/>
</g>
<!-- Node25 -->
<g id="node25" class="node">
<title>Node25</title>
<g id="a_node25"><a xlink:href="kmt_8c.html#ac69761d0146d9aacda65da757868d3c7" target="_top" xlink:title="print all current_tasks notice: do not garantee concurrency safety">
<polygon fill="none" stroke="black" points="200,-108.73 200,-127.73 307,-127.73 307,-108.73 200,-108.73"/>
<text text-anchor="middle" x="253.5" y="-115.73" font-family="Helvetica,sans-Serif" font-size="10.00">kmt_print_cpu_tasks</text>
</a>
</g>
</g>
<!-- Node17&#45;&gt;Node25 -->
<g id="edge37" class="edge">
<title>Node17&#45;&gt;Node25</title>
<path fill="none" stroke="midnightblue" d="M148.1,-184.55C153.46,-181.81 159.08,-178.64 164,-175.23 181.85,-162.88 181.91,-154.23 200,-142.23 205.54,-138.56 211.73,-135.19 217.86,-132.19"/>
<polygon fill="midnightblue" stroke="midnightblue" points="219.73,-135.19 227.35,-127.82 216.8,-128.83 219.73,-135.19"/>
</g>
<!-- Node18&#45;&gt;Node5 -->
<g id="edge34" class="edge">
<title>Node18&#45;&gt;Node5</title>
<path fill="none" stroke="midnightblue" d="M304.29,-194.23C346.46,-194.23 406.38,-194.23 447.1,-194.23"/>
<polygon fill="midnightblue" stroke="midnightblue" points="447.27,-197.73 457.27,-194.23 447.27,-190.73 447.27,-197.73"/>
</g>
<!-- Node18&#45;&gt;Node13 -->
<g id="edge35" class="edge">
<title>Node18&#45;&gt;Node13</title>
<path fill="none" stroke="midnightblue" d="M270.39,-203.86C291.89,-216.88 330.45,-240.23 355.62,-255.47"/>
<polygon fill="midnightblue" stroke="midnightblue" points="353.87,-258.5 364.23,-260.69 357.49,-252.51 353.87,-258.5"/>
</g>
<!-- Node18&#45;&gt;Node16 -->
<g id="edge36" class="edge">
<title>Node18&#45;&gt;Node16</title>
<path fill="none" stroke="midnightblue" d="M286.17,-184.65C302.07,-179.83 321.54,-173.94 338.61,-168.77"/>
<polygon fill="midnightblue" stroke="midnightblue" points="339.78,-172.07 348.34,-165.82 337.76,-165.37 339.78,-172.07"/>
</g>
<!-- Node19 -->
<g id="node19" class="node">
<title>Node19</title>
<g id="a_node19"><a xlink:href="stdio_8c.html#a55f3d956bb2ba20b5059e9e25484a47f" target="_top" xlink:title=" ">
<polygon fill="none" stroke="black" points="362,-70.73 362,-89.73 400,-89.73 400,-70.73 362,-70.73"/>
<text text-anchor="middle" x="381" y="-77.73" font-family="Helvetica,sans-Serif" font-size="10.00">printf</text>
</a>
</g>
</g>
<!-- Node18&#45;&gt;Node19 -->
<g id="edge28" class="edge">
<title>Node18&#45;&gt;Node19</title>
<path fill="none" stroke="midnightblue" d="M265.2,-184.52C286.69,-165 335.29,-120.84 361.85,-96.72"/>
<polygon fill="midnightblue" stroke="midnightblue" points="364.28,-99.24 369.33,-89.93 359.57,-94.06 364.28,-99.24"/>
</g>
<!-- Node20 -->
<g id="node20" class="node">
<title>Node20</title>
<g id="a_node20"><a xlink:href="stdio_8c.html#a44a6734c6f8f81d8e1fa3b9d476c5134" target="_top" xlink:title="write bytes (including the terminating null byte (&#39;\0&#39;)) to out.">
<polygon fill="none" stroke="black" points="468.5,-70.73 468.5,-89.73 517.5,-89.73 517.5,-70.73 468.5,-70.73"/>
<text text-anchor="middle" x="493" y="-77.73" font-family="Helvetica,sans-Serif" font-size="10.00">vsprintf</text>
</a>
</g>
</g>
<!-- Node19&#45;&gt;Node20 -->
<g id="edge29" class="edge">
<title>Node19&#45;&gt;Node20</title>
<path fill="none" stroke="midnightblue" d="M400.16,-80.23C415.92,-80.23 439.14,-80.23 458.29,-80.23"/>
<polygon fill="midnightblue" stroke="midnightblue" points="458.43,-83.73 468.43,-80.23 458.43,-76.73 458.43,-83.73"/>
</g>
<!-- Node21 -->
<g id="node21" class="node">
<title>Node21</title>
<g id="a_node21"><a xlink:href="stdio_8c.html#abf852e417a205348767989f2940059ad" target="_top" xlink:title="write at most n bytes (including the terminating null byte (&#39;\0&#39;)) to out.">
<polygon fill="none" stroke="black" points="575.5,-70.73 575.5,-89.73 629.5,-89.73 629.5,-70.73 575.5,-70.73"/>
<text text-anchor="middle" x="602.5" y="-77.73" font-family="Helvetica,sans-Serif" font-size="10.00">vsnprintf</text>
</a>
</g>
</g>
<!-- Node20&#45;&gt;Node21 -->
<g id="edge30" class="edge">
<title>Node20&#45;&gt;Node21</title>
<path fill="none" stroke="midnightblue" d="M517.59,-80.23C531.45,-80.23 549.27,-80.23 564.91,-80.23"/>
<polygon fill="midnightblue" stroke="midnightblue" points="565.33,-83.73 575.32,-80.23 565.32,-76.73 565.33,-83.73"/>
</g>
<!-- Node22 -->
<g id="node22" class="node">
<title>Node22</title>
<g id="a_node22"><a xlink:href="stdio_8c.html#a0e2811092b514de48ac2dd675d6cf2b4" target="_top" xlink:title="print decimal into buffer,return length">
<polygon fill="none" stroke="black" points="678.5,-108.73 678.5,-127.73 737.5,-127.73 737.5,-108.73 678.5,-108.73"/>
<text text-anchor="middle" x="708" y="-115.73" font-family="Helvetica,sans-Serif" font-size="10.00">print_num</text>
</a>
</g>
</g>
<!-- Node21&#45;&gt;Node22 -->
<g id="edge31" class="edge">
<title>Node21&#45;&gt;Node22</title>
<path fill="none" stroke="midnightblue" d="M629.62,-89.82C642.24,-94.46 657.59,-100.09 671.28,-105.12"/>
<polygon fill="midnightblue" stroke="midnightblue" points="670.3,-108.49 680.89,-108.65 672.71,-101.92 670.3,-108.49"/>
</g>
<!-- Node23 -->
<g id="node23" class="node">
<title>Node23</title>
<g id="a_node23"><a xlink:href="string_8c.html#aa383452fe445bfae989358c9d7d96f4f" target="_top" xlink:title=" ">
<polygon fill="none" stroke="black" points="687.5,-70.73 687.5,-89.73 728.5,-89.73 728.5,-70.73 687.5,-70.73"/>
<text text-anchor="middle" x="708" y="-77.73" font-family="Helvetica,sans-Serif" font-size="10.00">strlen</text>
</a>
</g>
</g>
<!-- Node21&#45;&gt;Node23 -->
<g id="edge32" class="edge">
<title>Node21&#45;&gt;Node23</title>
<path fill="none" stroke="midnightblue" d="M629.62,-80.23C644.07,-80.23 662.1,-80.23 677.12,-80.23"/>
<polygon fill="midnightblue" stroke="midnightblue" points="677.43,-83.73 687.43,-80.23 677.43,-76.73 677.43,-83.73"/>
</g>
<!-- Node24 -->
<g id="node24" class="node">
<title>Node24</title>
<g id="a_node24"><a xlink:href="string_8c.html#a82f08f2390a9067f3c94b638e90e03bd" target="_top" xlink:title=" ">
<polygon fill="none" stroke="black" points="684,-32.73 684,-51.73 732,-51.73 732,-32.73 684,-32.73"/>
<text text-anchor="middle" x="708" y="-39.73" font-family="Helvetica,sans-Serif" font-size="10.00">strncpy</text>
</a>
</g>
</g>
<!-- Node21&#45;&gt;Node24 -->
<g id="edge33" class="edge">
<title>Node21&#45;&gt;Node24</title>
<path fill="none" stroke="midnightblue" d="M629.62,-70.65C643.14,-65.68 659.8,-59.57 674.18,-54.28"/>
<polygon fill="midnightblue" stroke="midnightblue" points="675.54,-57.52 683.72,-50.78 673.12,-50.94 675.54,-57.52"/>
</g>
<!-- Node25&#45;&gt;Node5 -->
<g id="edge40" class="edge">
<title>Node25&#45;&gt;Node5</title>
<path fill="none" stroke="midnightblue" d="M307.06,-117.12C340.28,-118.14 383.49,-122.68 419,-137.23 441.14,-146.31 462.2,-164.09 475.96,-177.39"/>
<polygon fill="midnightblue" stroke="midnightblue" points="473.63,-180.01 483.17,-184.61 478.58,-175.06 473.63,-180.01"/>
</g>
<!-- Node25&#45;&gt;Node13 -->
<g id="edge41" class="edge">
<title>Node25&#45;&gt;Node13</title>
<path fill="none" stroke="midnightblue" d="M264.07,-128.08C274.81,-139.26 292.62,-158.15 307,-175.23 328.97,-201.33 352.76,-232.99 367.01,-252.36"/>
<polygon fill="midnightblue" stroke="midnightblue" points="364.29,-254.57 373.02,-260.58 369.94,-250.44 364.29,-254.57"/>
</g>
<!-- Node25&#45;&gt;Node16 -->
<g id="edge42" class="edge">
<title>Node25&#45;&gt;Node16</title>
<path fill="none" stroke="midnightblue" d="M286.17,-127.82C302.07,-132.64 321.54,-138.53 338.61,-143.7"/>
<polygon fill="midnightblue" stroke="midnightblue" points="337.76,-147.1 348.34,-146.65 339.78,-140.4 337.76,-147.1"/>
</g>
<!-- Node25&#45;&gt;Node19 -->
<g id="edge39" class="edge">
<title>Node25&#45;&gt;Node19</title>
<path fill="none" stroke="midnightblue" d="M286.17,-108.65C306.48,-102.5 332.61,-94.59 352.13,-88.67"/>
<polygon fill="midnightblue" stroke="midnightblue" points="353.39,-91.95 361.94,-85.7 351.36,-85.25 353.39,-91.95"/>
</g>
<!-- Node26 -->
<g id="node26" class="node">
<title>Node26</title>
<g id="a_node26"><a xlink:href="mpe_8c.html#af486ec575d47720d28eee63644206110" target="_top" xlink:title=" ">
<polygon fill="none" stroke="black" points="350,-32.73 350,-51.73 412,-51.73 412,-32.73 350,-32.73"/>
<text text-anchor="middle" x="381" y="-39.73" font-family="Helvetica,sans-Serif" font-size="10.00">cpu_count</text>
</a>
</g>
</g>
<!-- Node25&#45;&gt;Node26 -->
<g id="edge38" class="edge">
<title>Node25&#45;&gt;Node26</title>
<path fill="none" stroke="midnightblue" d="M268.34,-108.72C285.54,-97.04 315.93,-76.85 343,-61.23 345.73,-59.66 348.6,-58.07 351.48,-56.52"/>
<polygon fill="midnightblue" stroke="midnightblue" points="353.37,-59.48 360.6,-51.74 350.12,-53.28 353.37,-59.48"/>
</g>
<!-- Node27&#45;&gt;Node3 -->
<g id="edge45" class="edge">
<title>Node27&#45;&gt;Node3</title>
<path fill="none" stroke="midnightblue" d="M131.35,-241.88C141.46,-261.02 166.66,-303.96 200,-327.23 268.81,-375.27 296.08,-384.23 380,-384.23 380,-384.23 380,-384.23 494,-384.23 561.02,-384.23 635.98,-357.58 676.69,-340.72"/>
<polygon fill="midnightblue" stroke="midnightblue" points="678.18,-343.89 686.03,-336.78 675.46,-337.44 678.18,-343.89"/>
</g>
<!-- Node27&#45;&gt;Node4 -->
<g id="edge46" class="edge">
<title>Node27&#45;&gt;Node4</title>
<path fill="none" stroke="midnightblue" d="M127.58,-242.12C131.36,-271.44 146.79,-358.35 200,-398.23 237.98,-426.7 293.54,-429.99 332.87,-427.86"/>
<polygon fill="midnightblue" stroke="midnightblue" points="333.26,-431.35 343,-427.18 332.78,-424.36 333.26,-431.35"/>
</g>
<!-- Node27&#45;&gt;Node5 -->
<g id="edge51" class="edge">
<title>Node27&#45;&gt;Node5</title>
<path fill="none" stroke="midnightblue" d="M164.04,-230.45C219.84,-227.5 327.88,-220.67 419,-208.23 428.2,-206.98 438,-205.32 447.33,-203.59"/>
<polygon fill="midnightblue" stroke="midnightblue" points="448.06,-207.01 457.22,-201.7 446.74,-200.14 448.06,-207.01"/>
</g>
<!-- Node27&#45;&gt;Node13 -->
<g id="edge52" class="edge">
<title>Node27&#45;&gt;Node13</title>
<path fill="none" stroke="midnightblue" d="M164.2,-239.83C175.67,-242.03 188.33,-244.35 200,-246.23 248.72,-254.12 305.16,-261.33 341.67,-265.75"/>
<polygon fill="midnightblue" stroke="midnightblue" points="341.52,-269.26 351.87,-266.98 342.36,-262.31 341.52,-269.26"/>
</g>
<!-- Node27&#45;&gt;Node16 -->
<g id="edge53" class="edge">
<title>Node27&#45;&gt;Node16</title>
<path fill="none" stroke="midnightblue" d="M148.67,-222.59C153.9,-219.89 159.32,-216.72 164,-213.23 182.65,-199.33 179.14,-185.54 200,-175.23 243.01,-153.99 298.73,-151.33 336.7,-152.64"/>
<polygon fill="midnightblue" stroke="midnightblue" points="336.77,-156.14 346.92,-153.1 337.09,-149.15 336.77,-156.14"/>
</g>
<!-- Node27&#45;&gt;Node18 -->
<g id="edge47" class="edge">
<title>Node27&#45;&gt;Node18</title>
<path fill="none" stroke="midnightblue" d="M158.3,-222.65C174.26,-217.83 193.81,-211.94 210.95,-206.77"/>
<polygon fill="midnightblue" stroke="midnightblue" points="212.15,-210.06 220.72,-203.82 210.13,-203.36 212.15,-210.06"/>
</g>
<!-- Node27&#45;&gt;Node25 -->
<g id="edge48" class="edge">
<title>Node27&#45;&gt;Node25</title>
<path fill="none" stroke="midnightblue" d="M151.01,-222.66C155.69,-220.08 160.28,-216.95 164,-213.23 189.02,-188.22 174.48,-166.74 200,-142.23 203.98,-138.42 208.67,-135.13 213.58,-132.33"/>
<polygon fill="midnightblue" stroke="midnightblue" points="215.22,-135.42 222.56,-127.78 212.06,-129.17 215.22,-135.42"/>
</g>
<!-- Node28 -->
<g id="node28" class="node">
<title>Node28</title>
<g id="a_node28"><a xlink:href="kmt_8c.html#a9ddca6d133a84154c98607bf0ee82c76" target="_top" xlink:title="set cpu&#39;s current task">
<polygon fill="none" stroke="black" points="455,-450.73 455,-469.73 531,-469.73 531,-450.73 455,-450.73"/>
<text text-anchor="middle" x="493" y="-457.73" font-family="Helvetica,sans-Serif" font-size="10.00">kmt_set_task</text>
</a>
</g>
</g>
<!-- Node27&#45;&gt;Node28 -->
<g id="edge49" class="edge">
<title>Node27&#45;&gt;Node28</title>
<path fill="none" stroke="midnightblue" d="M126.83,-241.96C128.5,-274.39 138.62,-379.45 200,-427.23 270.74,-482.3 381.94,-477.32 444.73,-468.78"/>
<polygon fill="midnightblue" stroke="midnightblue" points="445.36,-472.23 454.75,-467.33 444.35,-465.3 445.36,-472.23"/>
</g>
<!-- Node28&#45;&gt;Node3 -->
<g id="edge50" class="edge">
<title>Node28&#45;&gt;Node3</title>
<path fill="none" stroke="midnightblue" d="M531.02,-462.11C562.03,-461.91 606.22,-457.32 638,-436.23 670.66,-414.57 690.91,-371.59 700.46,-346.56"/>
<polygon fill="midnightblue" stroke="midnightblue" points="703.79,-347.64 703.9,-337.05 697.2,-345.26 703.79,-347.64"/>
</g>
</g>
</svg>
