<?xml version="1.0" encoding="UTF-8" standalone="no"?>
<!DOCTYPE svg PUBLIC "-//W3C//DTD SVG 1.1//EN"
 "http://www.w3.org/Graphics/SVG/1.1/DTD/svg11.dtd">
<!-- Generated by graphviz version 3.0.0 (20220413.0106)
 -->
<!-- Title: kmt_error Pages: 1 -->
<svg width="712pt" height="275pt"
 viewBox="0.00 0.00 712.00 275.00" xmlns="http://www.w3.org/2000/svg" xmlns:xlink="http://www.w3.org/1999/xlink">
<g id="graph0" class="graph" transform="scale(1 1) rotate(0) translate(4 271)">
<title>kmt_error</title>
<!-- Node1 -->
<g id="node1" class="node">
<title>Node1</title>
<g id="a_node1"><a xlink:title="handler: handle program errors">
<polygon fill="#bfbfbf" stroke="black" points="0,-76.5 0,-95.5 58,-95.5 58,-76.5 0,-76.5"/>
<text text-anchor="middle" x="29" y="-83.5" font-family="Helvetica,sans-Serif" font-size="10.00">kmt_error</text>
</a>
</g>
</g>
<!-- Node2 -->
<g id="node2" class="node">
<title>Node2</title>
<g id="a_node2"><a xlink:href="kmt_8c.html#a0ac321d3074b24b276695a080e835866" target="_top" xlink:title="print all tasks notice: do not garantee concurrency safety">
<polygon fill="none" stroke="black" points="97,-76.5 97,-95.5 198,-95.5 198,-76.5 97,-76.5"/>
<text text-anchor="middle" x="147.5" y="-83.5" font-family="Helvetica,sans-Serif" font-size="10.00">kmt_print_all_tasks</text>
</a>
</g>
</g>
<!-- Node1&#45;&gt;Node2 -->
<g id="edge1" class="edge">
<title>Node1&#45;&gt;Node2</title>
<path fill="none" stroke="midnightblue" d="M58.2,-86C66.8,-86 76.6,-86 86.46,-86"/>
<polygon fill="midnightblue" stroke="midnightblue" points="86.72,-89.5 96.72,-86 86.72,-82.5 86.72,-89.5"/>
</g>
<!-- Node9 -->
<g id="node9" class="node">
<title>Node9</title>
<g id="a_node9"><a xlink:href="spinlock_8c.html#ad4be0d674a7ca4dc90c2dbf8b34562cc" target="_top" xlink:title="check current cpu has the lock">
<polygon fill="none" stroke="black" points="341,-57.5 341,-76.5 412,-76.5 412,-57.5 341,-57.5"/>
<text text-anchor="middle" x="376.5" y="-64.5" font-family="Helvetica,sans-Serif" font-size="10.00">spin_holding</text>
</a>
</g>
</g>
<!-- Node1&#45;&gt;Node9 -->
<g id="edge35" class="edge">
<title>Node1&#45;&gt;Node9</title>
<path fill="none" stroke="midnightblue" d="M49.05,-76.4C84.8,-58.99 164.82,-22.83 237,-10 266.76,-4.71 276.51,0.08 305,-10 327.33,-17.9 347.76,-36.2 360.82,-49.95"/>
<polygon fill="midnightblue" stroke="midnightblue" points="358.29,-52.37 367.61,-57.41 363.46,-47.66 358.29,-52.37"/>
</g>
<!-- Node22 -->
<g id="node22" class="node">
<title>Node22</title>
<g id="a_node22"><a xlink:href="kmt_8c.html#ac69761d0146d9aacda65da757868d3c7" target="_top" xlink:title="print all current_tasks notice: do not garantee concurrency safety">
<polygon fill="none" stroke="black" points="94,-123.5 94,-142.5 201,-142.5 201,-123.5 94,-123.5"/>
<text text-anchor="middle" x="147.5" y="-130.5" font-family="Helvetica,sans-Serif" font-size="10.00">kmt_print_cpu_tasks</text>
</a>
</g>
</g>
<!-- Node1&#45;&gt;Node22 -->
<g id="edge29" class="edge">
<title>Node1&#45;&gt;Node22</title>
<path fill="none" stroke="midnightblue" d="M53.58,-95.51C70.67,-102.41 94.04,-111.84 113.06,-119.51"/>
<polygon fill="midnightblue" stroke="midnightblue" points="111.98,-122.85 122.56,-123.34 114.6,-116.35 111.98,-122.85"/>
</g>
<!-- Node3 -->
<g id="node3" class="node">
<title>Node3</title>
<g id="a_node3"><a xlink:href="stdio_8c.html#a55f3d956bb2ba20b5059e9e25484a47f" target="_top" xlink:title=" ">
<polygon fill="none" stroke="black" points="252,-171.5 252,-190.5 290,-190.5 290,-171.5 252,-171.5"/>
<text text-anchor="middle" x="271" y="-178.5" font-family="Helvetica,sans-Serif" font-size="10.00">printf</text>
</a>
</g>
</g>
<!-- Node2&#45;&gt;Node3 -->
<g id="edge2" class="edge">
<title>Node2&#45;&gt;Node3</title>
<path fill="none" stroke="midnightblue" d="M171.57,-95.59C181.27,-100.28 192.29,-106.54 201,-114 221.25,-131.35 217.04,-144.32 237,-162 238.95,-163.73 241.08,-165.37 243.29,-166.92"/>
<polygon fill="midnightblue" stroke="midnightblue" points="241.65,-170.02 251.99,-172.37 245.37,-164.09 241.65,-170.02"/>
</g>
<!-- Node2&#45;&gt;Node9 -->
<g id="edge8" class="edge">
<title>Node2&#45;&gt;Node9</title>
<path fill="none" stroke="midnightblue" d="M198.04,-81.85C237.51,-78.55 292.3,-73.96 330.52,-70.76"/>
<polygon fill="midnightblue" stroke="midnightblue" points="331.16,-74.22 340.83,-69.9 330.58,-67.25 331.16,-74.22"/>
</g>
<!-- Node18 -->
<g id="node18" class="node">
<title>Node18</title>
<g id="a_node18"><a xlink:href="spinlock_8c.html#ab6f3c37ec37006951feccc3c05387cce" target="_top" xlink:title="acquire spinlock to current cpu">
<polygon fill="none" stroke="black" points="242,-133.5 242,-152.5 300,-152.5 300,-133.5 242,-133.5"/>
<text text-anchor="middle" x="271" y="-140.5" font-family="Helvetica,sans-Serif" font-size="10.00">spin_lock</text>
</a>
</g>
</g>
<!-- Node2&#45;&gt;Node18 -->
<g id="edge20" class="edge">
<title>Node2&#45;&gt;Node18</title>
<path fill="none" stroke="midnightblue" d="M168.84,-95.54C188.37,-104.71 218.12,-118.66 240.3,-129.07"/>
<polygon fill="midnightblue" stroke="midnightblue" points="239.06,-132.35 249.6,-133.43 242.03,-126.01 239.06,-132.35"/>
</g>
<!-- Node21 -->
<g id="node21" class="node">
<title>Node21</title>
<g id="a_node21"><a xlink:href="spinlock_8c.html#acdf118d615a4bc4064e991add9a80995" target="_top" xlink:title="release spinlock from current cpu">
<polygon fill="none" stroke="black" points="237,-19.5 237,-38.5 305,-38.5 305,-19.5 237,-19.5"/>
<text text-anchor="middle" x="271" y="-26.5" font-family="Helvetica,sans-Serif" font-size="10.00">spin_unlock</text>
</a>
</g>
</g>
<!-- Node2&#45;&gt;Node21 -->
<g id="edge26" class="edge">
<title>Node2&#45;&gt;Node21</title>
<path fill="none" stroke="midnightblue" d="M168.84,-76.46C188.37,-67.29 218.12,-53.34 240.3,-42.93"/>
<polygon fill="midnightblue" stroke="midnightblue" points="242.03,-45.99 249.6,-38.57 239.06,-39.65 242.03,-45.99"/>
</g>
<!-- Node4 -->
<g id="node4" class="node">
<title>Node4</title>
<g id="a_node4"><a xlink:href="stdio_8c.html#a44a6734c6f8f81d8e1fa3b9d476c5134" target="_top" xlink:title="write bytes (including the terminating null byte (&#39;\0&#39;)) to out.">
<polygon fill="none" stroke="black" points="352,-209.5 352,-228.5 401,-228.5 401,-209.5 352,-209.5"/>
<text text-anchor="middle" x="376.5" y="-216.5" font-family="Helvetica,sans-Serif" font-size="10.00">vsprintf</text>
</a>
</g>
</g>
<!-- Node3&#45;&gt;Node4 -->
<g id="edge3" class="edge">
<title>Node3&#45;&gt;Node4</title>
<path fill="none" stroke="midnightblue" d="M290.03,-187.62C304.36,-192.88 324.8,-200.39 342.1,-206.74"/>
<polygon fill="midnightblue" stroke="midnightblue" points="341.26,-210.16 351.85,-210.32 343.67,-203.59 341.26,-210.16"/>
</g>
<!-- Node5 -->
<g id="node5" class="node">
<title>Node5</title>
<g id="a_node5"><a xlink:href="stdio_8c.html#abf852e417a205348767989f2940059ad" target="_top" xlink:title="write at most n bytes (including the terminating null byte (&#39;\0&#39;)) to out.">
<polygon fill="none" stroke="black" points="456.5,-209.5 456.5,-228.5 510.5,-228.5 510.5,-209.5 456.5,-209.5"/>
<text text-anchor="middle" x="483.5" y="-216.5" font-family="Helvetica,sans-Serif" font-size="10.00">vsnprintf</text>
</a>
</g>
</g>
<!-- Node4&#45;&gt;Node5 -->
<g id="edge4" class="edge">
<title>Node4&#45;&gt;Node5</title>
<path fill="none" stroke="midnightblue" d="M401.06,-219C414.43,-219 431.43,-219 446.43,-219"/>
<polygon fill="midnightblue" stroke="midnightblue" points="446.44,-222.5 456.44,-219 446.44,-215.5 446.44,-222.5"/>
</g>
<!-- Node6 -->
<g id="node6" class="node">
<title>Node6</title>
<g id="a_node6"><a xlink:href="stdio_8c.html#a0e2811092b514de48ac2dd675d6cf2b4" target="_top" xlink:title="print decimal into buffer,return length">
<polygon fill="none" stroke="black" points="559.5,-247.5 559.5,-266.5 618.5,-266.5 618.5,-247.5 559.5,-247.5"/>
<text text-anchor="middle" x="589" y="-254.5" font-family="Helvetica,sans-Serif" font-size="10.00">print_num</text>
</a>
</g>
</g>
<!-- Node5&#45;&gt;Node6 -->
<g id="edge5" class="edge">
<title>Node5&#45;&gt;Node6</title>
<path fill="none" stroke="midnightblue" d="M510.62,-228.59C523.24,-233.22 538.59,-238.86 552.28,-243.89"/>
<polygon fill="midnightblue" stroke="midnightblue" points="551.3,-247.25 561.89,-247.41 553.71,-240.68 551.3,-247.25"/>
</g>
<!-- Node7 -->
<g id="node7" class="node">
<title>Node7</title>
<g id="a_node7"><a xlink:href="string_8c.html#aa383452fe445bfae989358c9d7d96f4f" target="_top" xlink:title=" ">
<polygon fill="none" stroke="black" points="568.5,-209.5 568.5,-228.5 609.5,-228.5 609.5,-209.5 568.5,-209.5"/>
<text text-anchor="middle" x="589" y="-216.5" font-family="Helvetica,sans-Serif" font-size="10.00">strlen</text>
</a>
</g>
</g>
<!-- Node5&#45;&gt;Node7 -->
<g id="edge6" class="edge">
<title>Node5&#45;&gt;Node7</title>
<path fill="none" stroke="midnightblue" d="M510.62,-219C525.07,-219 543.1,-219 558.12,-219"/>
<polygon fill="midnightblue" stroke="midnightblue" points="558.43,-222.5 568.43,-219 558.43,-215.5 558.43,-222.5"/>
</g>
<!-- Node8 -->
<g id="node8" class="node">
<title>Node8</title>
<g id="a_node8"><a xlink:href="string_8c.html#a82f08f2390a9067f3c94b638e90e03bd" target="_top" xlink:title=" ">
<polygon fill="none" stroke="black" points="565,-171.5 565,-190.5 613,-190.5 613,-171.5 565,-171.5"/>
<text text-anchor="middle" x="589" y="-178.5" font-family="Helvetica,sans-Serif" font-size="10.00">strncpy</text>
</a>
</g>
</g>
<!-- Node5&#45;&gt;Node8 -->
<g id="edge7" class="edge">
<title>Node5&#45;&gt;Node8</title>
<path fill="none" stroke="midnightblue" d="M510.62,-209.41C524.14,-204.44 540.8,-198.33 555.18,-193.05"/>
<polygon fill="midnightblue" stroke="midnightblue" points="556.54,-196.28 564.72,-189.55 554.12,-189.71 556.54,-196.28"/>
</g>
<!-- Node10 -->
<g id="node10" class="node">
<title>Node10</title>
<g id="a_node10"><a xlink:href="mpe_8c.html#ab701de78cad32896c923ce900087e714" target="_top" xlink:title=" ">
<polygon fill="none" stroke="black" points="555,-57.5 555,-76.5 623,-76.5 623,-57.5 555,-57.5"/>
<text text-anchor="middle" x="589" y="-64.5" font-family="Helvetica,sans-Serif" font-size="10.00">cpu_current</text>
</a>
</g>
</g>
<!-- Node9&#45;&gt;Node10 -->
<g id="edge9" class="edge">
<title>Node9&#45;&gt;Node10</title>
<path fill="none" stroke="midnightblue" d="M412.26,-67C448.6,-67 505.69,-67 544.88,-67"/>
<polygon fill="midnightblue" stroke="midnightblue" points="544.92,-70.5 554.92,-67 544.92,-63.5 544.92,-70.5"/>
</g>
<!-- Node11 -->
<g id="node11" class="node">
<title>Node11</title>
<g id="a_node11"><a xlink:href="spinlock_8c.html#afc9565dc7a5ddf77e1fa76f5d91caf78" target="_top" xlink:title="interrupt able">
<polygon fill="none" stroke="black" points="451,-19.5 451,-38.5 516,-38.5 516,-19.5 451,-19.5"/>
<text text-anchor="middle" x="483.5" y="-26.5" font-family="Helvetica,sans-Serif" font-size="10.00">spin_popcli</text>
</a>
</g>
</g>
<!-- Node9&#45;&gt;Node11 -->
<g id="edge10" class="edge">
<title>Node9&#45;&gt;Node11</title>
<path fill="none" stroke="midnightblue" d="M404,-57.41C416.8,-52.78 432.38,-47.14 446.26,-42.11"/>
<polygon fill="midnightblue" stroke="midnightblue" points="447.8,-45.28 456.01,-38.59 445.42,-38.7 447.8,-45.28"/>
</g>
<!-- Node15 -->
<g id="node15" class="node">
<title>Node15</title>
<g id="a_node15"><a xlink:href="spinlock_8c.html#ab213874cda54fdbbeb1bec1e5fa90b28" target="_top" xlink:title="interrupt disable">
<polygon fill="none" stroke="black" points="448,-95.5 448,-114.5 519,-114.5 519,-95.5 448,-95.5"/>
<text text-anchor="middle" x="483.5" y="-102.5" font-family="Helvetica,sans-Serif" font-size="10.00">spin_pushcli</text>
</a>
</g>
</g>
<!-- Node9&#45;&gt;Node15 -->
<g id="edge15" class="edge">
<title>Node9&#45;&gt;Node15</title>
<path fill="none" stroke="midnightblue" d="M404,-76.59C416.8,-81.22 432.38,-86.86 446.26,-91.89"/>
<polygon fill="midnightblue" stroke="midnightblue" points="445.42,-95.3 456.01,-95.41 447.8,-88.72 445.42,-95.3"/>
</g>
<!-- Node11&#45;&gt;Node10 -->
<g id="edge11" class="edge">
<title>Node11&#45;&gt;Node10</title>
<path fill="none" stroke="midnightblue" d="M510.62,-38.59C523.24,-43.22 538.59,-48.86 552.28,-53.89"/>
<polygon fill="midnightblue" stroke="midnightblue" points="551.3,-57.25 561.89,-57.41 553.71,-50.68 551.3,-57.25"/>
</g>
<!-- Node12 -->
<g id="node12" class="node">
<title>Node12</title>
<g id="a_node12"><a xlink:href="cte_8c.html#a4a139958742786c5085172be1f69bfd0" target="_top" xlink:title=" ">
<polygon fill="none" stroke="black" points="573,-19.5 573,-38.5 605,-38.5 605,-19.5 573,-19.5"/>
<text text-anchor="middle" x="589" y="-26.5" font-family="Helvetica,sans-Serif" font-size="10.00">iset</text>
</a>
</g>
</g>
<!-- Node11&#45;&gt;Node12 -->
<g id="edge12" class="edge">
<title>Node11&#45;&gt;Node12</title>
<path fill="none" stroke="midnightblue" d="M516.12,-29C530.94,-29 548.37,-29 562.36,-29"/>
<polygon fill="midnightblue" stroke="midnightblue" points="562.72,-32.5 572.72,-29 562.72,-25.5 562.72,-32.5"/>
</g>
<!-- Node13 -->
<g id="node13" class="node">
<title>Node13</title>
<g id="a_node13"><a xlink:href="x86_8h.html#acc919e7809ef1db2b20aa3804f540b5c" target="_top" xlink:title=" ">
<polygon fill="none" stroke="black" points="667,-38.5 667,-57.5 696,-57.5 696,-38.5 667,-38.5"/>
<text text-anchor="middle" x="681.5" y="-45.5" font-family="Helvetica,sans-Serif" font-size="10.00">cli</text>
</a>
</g>
</g>
<!-- Node12&#45;&gt;Node13 -->
<g id="edge13" class="edge">
<title>Node12&#45;&gt;Node13</title>
<path fill="none" stroke="midnightblue" d="M605.35,-32.22C619.5,-35.19 640.71,-39.65 656.99,-43.06"/>
<polygon fill="midnightblue" stroke="midnightblue" points="656.35,-46.51 666.85,-45.13 657.78,-39.65 656.35,-46.51"/>
</g>
<!-- Node14 -->
<g id="node14" class="node">
<title>Node14</title>
<g id="a_node14"><a xlink:href="x86_8h.html#a4657e97b270d7af5a23da2c4d642ada2" target="_top" xlink:title=" ">
<polygon fill="none" stroke="black" points="667,-0.5 667,-19.5 696,-19.5 696,-0.5 667,-0.5"/>
<text text-anchor="middle" x="681.5" y="-7.5" font-family="Helvetica,sans-Serif" font-size="10.00">sti</text>
</a>
</g>
</g>
<!-- Node12&#45;&gt;Node14 -->
<g id="edge14" class="edge">
<title>Node12&#45;&gt;Node14</title>
<path fill="none" stroke="midnightblue" d="M605.35,-25.78C619.5,-22.81 640.71,-18.35 656.99,-14.94"/>
<polygon fill="midnightblue" stroke="midnightblue" points="657.78,-18.35 666.85,-12.87 656.35,-11.49 657.78,-18.35"/>
</g>
<!-- Node15&#45;&gt;Node10 -->
<g id="edge16" class="edge">
<title>Node15&#45;&gt;Node10</title>
<path fill="none" stroke="midnightblue" d="M510.62,-95.41C523.24,-90.78 538.59,-85.14 552.28,-80.11"/>
<polygon fill="midnightblue" stroke="midnightblue" points="553.71,-83.32 561.89,-76.59 551.3,-76.75 553.71,-83.32"/>
</g>
<!-- Node15&#45;&gt;Node12 -->
<g id="edge19" class="edge">
<title>Node15&#45;&gt;Node12</title>
<path fill="none" stroke="midnightblue" d="M495.55,-95.15C509.09,-83.3 532.93,-63.13 555,-48 557.92,-45.99 561.07,-44 564.22,-42.09"/>
<polygon fill="midnightblue" stroke="midnightblue" points="566.03,-45.08 572.91,-37.03 562.51,-39.04 566.03,-45.08"/>
</g>
<!-- Node16 -->
<g id="node16" class="node">
<title>Node16</title>
<g id="a_node16"><a xlink:href="cte_8c.html#a79659a2b801c42951e38f3a8821acbae" target="_top" xlink:title=" ">
<polygon fill="none" stroke="black" points="562.5,-95.5 562.5,-114.5 615.5,-114.5 615.5,-95.5 562.5,-95.5"/>
<text text-anchor="middle" x="589" y="-102.5" font-family="Helvetica,sans-Serif" font-size="10.00">ienabled</text>
</a>
</g>
</g>
<!-- Node15&#45;&gt;Node16 -->
<g id="edge17" class="edge">
<title>Node15&#45;&gt;Node16</title>
<path fill="none" stroke="midnightblue" d="M519.25,-105C529.82,-105 541.46,-105 552.1,-105"/>
<polygon fill="midnightblue" stroke="midnightblue" points="552.34,-108.5 562.34,-105 552.34,-101.5 552.34,-108.5"/>
</g>
<!-- Node17 -->
<g id="node17" class="node">
<title>Node17</title>
<g id="a_node17"><a xlink:href="x86_8h.html#a73d094f09c6a7dd3fc703aa8229933ee" target="_top" xlink:title=" ">
<polygon fill="none" stroke="black" points="659,-95.5 659,-114.5 704,-114.5 704,-95.5 659,-95.5"/>
<text text-anchor="middle" x="681.5" y="-102.5" font-family="Helvetica,sans-Serif" font-size="10.00">get_efl</text>
</a>
</g>
</g>
<!-- Node16&#45;&gt;Node17 -->
<g id="edge18" class="edge">
<title>Node16&#45;&gt;Node17</title>
<path fill="none" stroke="midnightblue" d="M615.69,-105C625.88,-105 637.71,-105 648.45,-105"/>
<polygon fill="midnightblue" stroke="midnightblue" points="648.73,-108.5 658.73,-105 648.73,-101.5 648.73,-108.5"/>
</g>
<!-- Node18&#45;&gt;Node9 -->
<g id="edge24" class="edge">
<title>Node18&#45;&gt;Node9</title>
<path fill="none" stroke="midnightblue" d="M285.56,-133.29C291.55,-128.96 298.66,-123.77 305,-119 321.2,-106.82 324.67,-103.01 341,-91 344.81,-88.2 348.89,-85.28 352.88,-82.48"/>
<polygon fill="midnightblue" stroke="midnightblue" points="355.07,-85.22 361.28,-76.64 351.07,-79.47 355.07,-85.22"/>
</g>
<!-- Node18&#45;&gt;Node10 -->
<g id="edge23" class="edge">
<title>Node18&#45;&gt;Node10</title>
<path fill="none" stroke="midnightblue" d="M293.56,-152.64C339.18,-171.45 447.22,-207.42 519,-162 550.58,-142.01 529.65,-113.46 555,-86 556.04,-84.88 557.16,-83.8 558.33,-82.77"/>
<polygon fill="midnightblue" stroke="midnightblue" points="560.67,-85.41 566.71,-76.7 556.56,-79.74 560.67,-85.41"/>
</g>
<!-- Node18&#45;&gt;Node15 -->
<g id="edge25" class="edge">
<title>Node18&#45;&gt;Node15</title>
<path fill="none" stroke="midnightblue" d="M300.33,-134.27C312.72,-130.69 327.49,-126.75 341,-124 373.09,-117.46 409.74,-112.61 437.71,-109.45"/>
<polygon fill="midnightblue" stroke="midnightblue" points="438.41,-112.89 447.97,-108.32 437.65,-105.93 438.41,-112.89"/>
</g>
<!-- Node19 -->
<g id="node19" class="node">
<title>Node19</title>
<g id="a_node19"><a xlink:href="mpe_8c.html#aaaad47c97c82065cf463f83b98b23c30" target="_top" xlink:title=" ">
<polygon fill="none" stroke="black" points="341,-133.5 341,-152.5 412,-152.5 412,-133.5 341,-133.5"/>
<text text-anchor="middle" x="376.5" y="-140.5" font-family="Helvetica,sans-Serif" font-size="10.00">atomic_xchg</text>
</a>
</g>
</g>
<!-- Node18&#45;&gt;Node19 -->
<g id="edge21" class="edge">
<title>Node18&#45;&gt;Node19</title>
<path fill="none" stroke="midnightblue" d="M300.01,-143C309.44,-143 320.21,-143 330.61,-143"/>
<polygon fill="midnightblue" stroke="midnightblue" points="330.81,-146.5 340.81,-143 330.81,-139.5 330.81,-146.5"/>
</g>
<!-- Node20 -->
<g id="node20" class="node">
<title>Node20</title>
<g id="a_node20"><a xlink:href="x86_8h.html#a48b2a6a16dc8d7e09d327aa3803f1112" target="_top" xlink:title=" ">
<polygon fill="none" stroke="black" points="465,-133.5 465,-152.5 502,-152.5 502,-133.5 465,-133.5"/>
<text text-anchor="middle" x="483.5" y="-140.5" font-family="Helvetica,sans-Serif" font-size="10.00">xchg</text>
</a>
</g>
</g>
<!-- Node19&#45;&gt;Node20 -->
<g id="edge22" class="edge">
<title>Node19&#45;&gt;Node20</title>
<path fill="none" stroke="midnightblue" d="M412.17,-143C425.99,-143 441.67,-143 454.71,-143"/>
<polygon fill="midnightblue" stroke="midnightblue" points="454.95,-146.5 464.95,-143 454.95,-139.5 454.95,-146.5"/>
</g>
<!-- Node21&#45;&gt;Node9 -->
<g id="edge27" class="edge">
<title>Node21&#45;&gt;Node9</title>
<path fill="none" stroke="midnightblue" d="M298.12,-38.59C310.74,-43.22 326.09,-48.86 339.78,-53.89"/>
<polygon fill="midnightblue" stroke="midnightblue" points="338.8,-57.25 349.39,-57.41 341.21,-50.68 338.8,-57.25"/>
</g>
<!-- Node21&#45;&gt;Node11 -->
<g id="edge28" class="edge">
<title>Node21&#45;&gt;Node11</title>
<path fill="none" stroke="midnightblue" d="M305.35,-29C341.96,-29 400.8,-29 440.52,-29"/>
<polygon fill="midnightblue" stroke="midnightblue" points="440.68,-32.5 450.68,-29 440.68,-25.5 440.68,-32.5"/>
</g>
<!-- Node22&#45;&gt;Node3 -->
<g id="edge31" class="edge">
<title>Node22&#45;&gt;Node3</title>
<path fill="none" stroke="midnightblue" d="M172.8,-142.6C192.88,-150.53 221.41,-161.8 242.36,-170.08"/>
<polygon fill="midnightblue" stroke="midnightblue" points="241.1,-173.35 251.69,-173.77 243.67,-166.84 241.1,-173.35"/>
</g>
<!-- Node22&#45;&gt;Node9 -->
<g id="edge32" class="edge">
<title>Node22&#45;&gt;Node9</title>
<path fill="none" stroke="midnightblue" d="M183.39,-123.5C215.16,-114.77 263.33,-101.36 305,-89 315.05,-86.02 325.87,-82.7 335.94,-79.56"/>
<polygon fill="midnightblue" stroke="midnightblue" points="337.22,-82.83 345.71,-76.5 335.12,-76.15 337.22,-82.83"/>
</g>
<!-- Node22&#45;&gt;Node18 -->
<g id="edge33" class="edge">
<title>Node22&#45;&gt;Node18</title>
<path fill="none" stroke="midnightblue" d="M201.09,-137.33C211.35,-138.17 221.94,-139.04 231.64,-139.84"/>
<polygon fill="midnightblue" stroke="midnightblue" points="231.5,-143.34 241.76,-140.68 232.08,-136.37 231.5,-143.34"/>
</g>
<!-- Node22&#45;&gt;Node21 -->
<g id="edge34" class="edge">
<title>Node22&#45;&gt;Node21</title>
<path fill="none" stroke="midnightblue" d="M170.46,-123.39C180.28,-118.58 191.71,-112.24 201,-105 222.83,-88 243.56,-63.67 256.49,-47.15"/>
<polygon fill="midnightblue" stroke="midnightblue" points="259.53,-48.94 262.83,-38.87 253.97,-44.68 259.53,-48.94"/>
</g>
<!-- Node23 -->
<g id="node23" class="node">
<title>Node23</title>
<g id="a_node23"><a xlink:href="mpe_8c.html#af486ec575d47720d28eee63644206110" target="_top" xlink:title=" ">
<polygon fill="none" stroke="black" points="240,-209.5 240,-228.5 302,-228.5 302,-209.5 240,-209.5"/>
<text text-anchor="middle" x="271" y="-216.5" font-family="Helvetica,sans-Serif" font-size="10.00">cpu_count</text>
</a>
</g>
</g>
<!-- Node22&#45;&gt;Node23 -->
<g id="edge30" class="edge">
<title>Node22&#45;&gt;Node23</title>
<path fill="none" stroke="midnightblue" d="M160.18,-142.59C176.79,-156.06 208.41,-181.05 237,-200 239.12,-201.41 241.35,-202.82 243.61,-204.2"/>
<polygon fill="midnightblue" stroke="midnightblue" points="241.9,-207.26 252.28,-209.34 245.46,-201.24 241.9,-207.26"/>
</g>
</g>
</svg>
