<?xml version="1.0" encoding="UTF-8" standalone="no"?>
<!DOCTYPE svg PUBLIC "-//W3C//DTD SVG 1.1//EN"
 "http://www.w3.org/Graphics/SVG/1.1/DTD/svg11.dtd">
<!-- Generated by graphviz version 3.0.0 (20220413.0106)
 -->
<!-- Title: kmt_error Pages: 1 -->
<svg width="605pt" height="199pt"
 viewBox="0.00 0.00 605.00 199.00" xmlns="http://www.w3.org/2000/svg" xmlns:xlink="http://www.w3.org/1999/xlink">
<g id="graph0" class="graph" transform="scale(1 1) rotate(0) translate(4 195)">
<title>kmt_error</title>
<!-- Node1 -->
<g id="node1" class="node">
<title>Node1</title>
<g id="a_node1"><a xlink:title="handler: handle program errors">
<polygon fill="#bfbfbf" stroke="black" points="0,-95.5 0,-114.5 58,-114.5 58,-95.5 0,-95.5"/>
<text text-anchor="middle" x="29" y="-102.5" font-family="Helvetica,sans-Serif" font-size="10.00">kmt_error</text>
</a>
</g>
</g>
<!-- Node2 -->
<g id="node2" class="node">
<title>Node2</title>
<g id="a_node2"><a xlink:href="kmt_8c.html#a0ac321d3074b24b276695a080e835866" target="_top" xlink:title="print all tasks notice: do not garantee concurrency safety">
<polygon fill="none" stroke="black" points="97,-133.5 97,-152.5 198,-152.5 198,-133.5 97,-133.5"/>
<text text-anchor="middle" x="147.5" y="-140.5" font-family="Helvetica,sans-Serif" font-size="10.00">kmt_print_all_tasks</text>
</a>
</g>
</g>
<!-- Node1&#45;&gt;Node2 -->
<g id="edge1" class="edge">
<title>Node1&#45;&gt;Node2</title>
<path fill="none" stroke="midnightblue" d="M58.2,-114.2C73.04,-119.04 91.45,-125.04 107.62,-130.32"/>
<polygon fill="midnightblue" stroke="midnightblue" points="106.75,-133.72 117.34,-133.49 108.92,-127.06 106.75,-133.72"/>
</g>
<!-- Node9 -->
<g id="node9" class="node">
<title>Node9</title>
<g id="a_node9"><a xlink:href="kmt_8c.html#ac69761d0146d9aacda65da757868d3c7" target="_top" xlink:title="print all current_tasks notice: do not garantee concurrency safety">
<polygon fill="none" stroke="black" points="94,-95.5 94,-114.5 201,-114.5 201,-95.5 94,-95.5"/>
<text text-anchor="middle" x="147.5" y="-102.5" font-family="Helvetica,sans-Serif" font-size="10.00">kmt_print_cpu_tasks</text>
</a>
</g>
</g>
<!-- Node1&#45;&gt;Node9 -->
<g id="edge8" class="edge">
<title>Node1&#45;&gt;Node9</title>
<path fill="none" stroke="midnightblue" d="M58.2,-105C66.03,-105 74.86,-105 83.82,-105"/>
<polygon fill="midnightblue" stroke="midnightblue" points="83.96,-108.5 93.96,-105 83.96,-101.5 83.96,-108.5"/>
</g>
<!-- Node11 -->
<g id="node11" class="node">
<title>Node11</title>
<g id="a_node11"><a xlink:href="spinlock_8c.html#ad4be0d674a7ca4dc90c2dbf8b34562cc" target="_top" xlink:title="check current cpu has the lock">
<polygon fill="none" stroke="black" points="112,-38.5 112,-57.5 183,-57.5 183,-38.5 112,-38.5"/>
<text text-anchor="middle" x="147.5" y="-45.5" font-family="Helvetica,sans-Serif" font-size="10.00">spin_holding</text>
</a>
</g>
</g>
<!-- Node1&#45;&gt;Node11 -->
<g id="edge11" class="edge">
<title>Node1&#45;&gt;Node11</title>
<path fill="none" stroke="midnightblue" d="M49.5,-95.46C68.15,-86.34 96.5,-72.47 117.74,-62.07"/>
<polygon fill="midnightblue" stroke="midnightblue" points="119.49,-65.11 126.94,-57.57 116.42,-58.82 119.49,-65.11"/>
</g>
<!-- Node3 -->
<g id="node3" class="node">
<title>Node3</title>
<g id="a_node3"><a xlink:href="stdio_8c.html#a55f3d956bb2ba20b5059e9e25484a47f" target="_top" xlink:title=" ">
<polygon fill="none" stroke="black" points="253.5,-133.5 253.5,-152.5 291.5,-152.5 291.5,-133.5 253.5,-133.5"/>
<text text-anchor="middle" x="272.5" y="-140.5" font-family="Helvetica,sans-Serif" font-size="10.00">printf</text>
</a>
</g>
</g>
<!-- Node2&#45;&gt;Node3 -->
<g id="edge2" class="edge">
<title>Node2&#45;&gt;Node3</title>
<path fill="none" stroke="midnightblue" d="M198.17,-143C213.54,-143 229.92,-143 243.3,-143"/>
<polygon fill="midnightblue" stroke="midnightblue" points="243.3,-146.5 253.3,-143 243.3,-139.5 243.3,-146.5"/>
</g>
<!-- Node4 -->
<g id="node4" class="node">
<title>Node4</title>
<g id="a_node4"><a xlink:href="stdio_8c.html#a44a6734c6f8f81d8e1fa3b9d476c5134" target="_top" xlink:title="write bytes (including the terminating null byte (&#39;\0&#39;)) to out.">
<polygon fill="none" stroke="black" points="353.5,-133.5 353.5,-152.5 402.5,-152.5 402.5,-133.5 353.5,-133.5"/>
<text text-anchor="middle" x="378" y="-140.5" font-family="Helvetica,sans-Serif" font-size="10.00">vsprintf</text>
</a>
</g>
</g>
<!-- Node3&#45;&gt;Node4 -->
<g id="edge3" class="edge">
<title>Node3&#45;&gt;Node4</title>
<path fill="none" stroke="midnightblue" d="M291.53,-143C305.73,-143 325.92,-143 343.11,-143"/>
<polygon fill="midnightblue" stroke="midnightblue" points="343.35,-146.5 353.35,-143 343.35,-139.5 343.35,-146.5"/>
</g>
<!-- Node5 -->
<g id="node5" class="node">
<title>Node5</title>
<g id="a_node5"><a xlink:href="stdio_8c.html#abf852e417a205348767989f2940059ad" target="_top" xlink:title="write at most n bytes (including the terminating null byte (&#39;\0&#39;)) to out.">
<polygon fill="none" stroke="black" points="448,-133.5 448,-152.5 502,-152.5 502,-133.5 448,-133.5"/>
<text text-anchor="middle" x="475" y="-140.5" font-family="Helvetica,sans-Serif" font-size="10.00">vsnprintf</text>
</a>
</g>
</g>
<!-- Node4&#45;&gt;Node5 -->
<g id="edge4" class="edge">
<title>Node4&#45;&gt;Node5</title>
<path fill="none" stroke="midnightblue" d="M402.97,-143C413.41,-143 425.87,-143 437.43,-143"/>
<polygon fill="midnightblue" stroke="midnightblue" points="437.69,-146.5 447.69,-143 437.69,-139.5 437.69,-146.5"/>
</g>
<!-- Node6 -->
<g id="node6" class="node">
<title>Node6</title>
<g id="a_node6"><a xlink:href="stdio_8c.html#a0e2811092b514de48ac2dd675d6cf2b4" target="_top" xlink:title="print decimal into buffer,return length">
<polygon fill="none" stroke="black" points="538,-171.5 538,-190.5 597,-190.5 597,-171.5 538,-171.5"/>
<text text-anchor="middle" x="567.5" y="-178.5" font-family="Helvetica,sans-Serif" font-size="10.00">print_num</text>
</a>
</g>
</g>
<!-- Node5&#45;&gt;Node6 -->
<g id="edge5" class="edge">
<title>Node5&#45;&gt;Node6</title>
<path fill="none" stroke="midnightblue" d="M498.84,-152.59C509.56,-157.09 522.52,-162.53 534.22,-167.44"/>
<polygon fill="midnightblue" stroke="midnightblue" points="533.1,-170.77 543.67,-171.41 535.81,-164.32 533.1,-170.77"/>
</g>
<!-- Node7 -->
<g id="node7" class="node">
<title>Node7</title>
<g id="a_node7"><a xlink:href="string_8c.html#aa383452fe445bfae989358c9d7d96f4f" target="_top" xlink:title=" ">
<polygon fill="none" stroke="black" points="547,-133.5 547,-152.5 588,-152.5 588,-133.5 547,-133.5"/>
<text text-anchor="middle" x="567.5" y="-140.5" font-family="Helvetica,sans-Serif" font-size="10.00">strlen</text>
</a>
</g>
</g>
<!-- Node5&#45;&gt;Node7 -->
<g id="edge6" class="edge">
<title>Node5&#45;&gt;Node7</title>
<path fill="none" stroke="midnightblue" d="M502.18,-143C513.02,-143 525.64,-143 536.82,-143"/>
<polygon fill="midnightblue" stroke="midnightblue" points="537,-146.5 547,-143 537,-139.5 537,-146.5"/>
</g>
<!-- Node8 -->
<g id="node8" class="node">
<title>Node8</title>
<g id="a_node8"><a xlink:href="string_8c.html#a82f08f2390a9067f3c94b638e90e03bd" target="_top" xlink:title=" ">
<polygon fill="none" stroke="black" points="543.5,-95.5 543.5,-114.5 591.5,-114.5 591.5,-95.5 543.5,-95.5"/>
<text text-anchor="middle" x="567.5" y="-102.5" font-family="Helvetica,sans-Serif" font-size="10.00">strncpy</text>
</a>
</g>
</g>
<!-- Node5&#45;&gt;Node8 -->
<g id="edge7" class="edge">
<title>Node5&#45;&gt;Node8</title>
<path fill="none" stroke="midnightblue" d="M498.84,-133.41C509.56,-128.91 522.52,-123.47 534.22,-118.56"/>
<polygon fill="midnightblue" stroke="midnightblue" points="535.81,-121.68 543.67,-114.59 533.1,-115.23 535.81,-121.68"/>
</g>
<!-- Node9&#45;&gt;Node3 -->
<g id="edge10" class="edge">
<title>Node9&#45;&gt;Node3</title>
<path fill="none" stroke="midnightblue" d="M179.54,-114.59C199.32,-120.7 224.74,-128.55 243.84,-134.45"/>
<polygon fill="midnightblue" stroke="midnightblue" points="242.86,-137.82 253.45,-137.42 244.93,-131.13 242.86,-137.82"/>
</g>
<!-- Node10 -->
<g id="node10" class="node">
<title>Node10</title>
<g id="a_node10"><a xlink:href="mpe_8c.html#af486ec575d47720d28eee63644206110" target="_top" xlink:title=" ">
<polygon fill="none" stroke="black" points="241.5,-95.5 241.5,-114.5 303.5,-114.5 303.5,-95.5 241.5,-95.5"/>
<text text-anchor="middle" x="272.5" y="-102.5" font-family="Helvetica,sans-Serif" font-size="10.00">cpu_count</text>
</a>
</g>
</g>
<!-- Node9&#45;&gt;Node10 -->
<g id="edge9" class="edge">
<title>Node9&#45;&gt;Node10</title>
<path fill="none" stroke="midnightblue" d="M201.02,-105C211.09,-105 221.49,-105 231.1,-105"/>
<polygon fill="midnightblue" stroke="midnightblue" points="231.18,-108.5 241.18,-105 231.18,-101.5 231.18,-108.5"/>
</g>
<!-- Node12 -->
<g id="node12" class="node">
<title>Node12</title>
<g id="a_node12"><a xlink:href="mpe_8c.html#ab701de78cad32896c923ce900087e714" target="_top" xlink:title=" ">
<polygon fill="none" stroke="black" points="344,-0.5 344,-19.5 412,-19.5 412,-0.5 344,-0.5"/>
<text text-anchor="middle" x="378" y="-7.5" font-family="Helvetica,sans-Serif" font-size="10.00">cpu_current</text>
</a>
</g>
</g>
<!-- Node11&#45;&gt;Node12 -->
<g id="edge12" class="edge">
<title>Node11&#45;&gt;Node12</title>
<path fill="none" stroke="midnightblue" d="M165.12,-38.42C182.43,-29.05 210.63,-15.42 237,-10 268.88,-3.45 305.71,-3.75 333.59,-5.53"/>
<polygon fill="midnightblue" stroke="midnightblue" points="333.58,-9.04 343.81,-6.27 334.09,-2.05 333.58,-9.04"/>
</g>
<!-- Node13 -->
<g id="node13" class="node">
<title>Node13</title>
<g id="a_node13"><a xlink:href="spinlock_8c.html#afc9565dc7a5ddf77e1fa76f5d91caf78" target="_top" xlink:title="interrupt able">
<polygon fill="none" stroke="black" points="240,-19.5 240,-38.5 305,-38.5 305,-19.5 240,-19.5"/>
<text text-anchor="middle" x="272.5" y="-26.5" font-family="Helvetica,sans-Serif" font-size="10.00">spin_popcli</text>
</a>
</g>
</g>
<!-- Node11&#45;&gt;Node13 -->
<g id="edge13" class="edge">
<title>Node11&#45;&gt;Node13</title>
<path fill="none" stroke="midnightblue" d="M183.09,-42.66C197.52,-40.43 214.42,-37.82 229.55,-35.48"/>
<polygon fill="midnightblue" stroke="midnightblue" points="230.35,-38.9 239.7,-33.91 229.28,-31.98 230.35,-38.9"/>
</g>
<!-- Node17 -->
<g id="node17" class="node">
<title>Node17</title>
<g id="a_node17"><a xlink:href="spinlock_8c.html#ab213874cda54fdbbeb1bec1e5fa90b28" target="_top" xlink:title="interrupt disable">
<polygon fill="none" stroke="black" points="237,-57.5 237,-76.5 308,-76.5 308,-57.5 237,-57.5"/>
<text text-anchor="middle" x="272.5" y="-64.5" font-family="Helvetica,sans-Serif" font-size="10.00">spin_pushcli</text>
</a>
</g>
</g>
<!-- Node11&#45;&gt;Node17 -->
<g id="edge18" class="edge">
<title>Node11&#45;&gt;Node17</title>
<path fill="none" stroke="midnightblue" d="M183.09,-53.34C196.58,-55.43 212.23,-57.84 226.58,-60.06"/>
<polygon fill="midnightblue" stroke="midnightblue" points="226.33,-63.56 236.74,-61.63 227.4,-56.65 226.33,-63.56"/>
</g>
<!-- Node13&#45;&gt;Node12 -->
<g id="edge14" class="edge">
<title>Node13&#45;&gt;Node12</title>
<path fill="none" stroke="midnightblue" d="M305.12,-23.2C314.2,-21.53 324.28,-19.68 333.93,-17.91"/>
<polygon fill="midnightblue" stroke="midnightblue" points="334.58,-21.35 343.78,-16.1 333.32,-14.46 334.58,-21.35"/>
</g>
<!-- Node14 -->
<g id="node14" class="node">
<title>Node14</title>
<g id="a_node14"><a xlink:href="cte_8c.html#a4a139958742786c5085172be1f69bfd0" target="_top" xlink:title=" ">
<polygon fill="none" stroke="black" points="362,-38.5 362,-57.5 394,-57.5 394,-38.5 362,-38.5"/>
<text text-anchor="middle" x="378" y="-45.5" font-family="Helvetica,sans-Serif" font-size="10.00">iset</text>
</a>
</g>
</g>
<!-- Node13&#45;&gt;Node14 -->
<g id="edge15" class="edge">
<title>Node13&#45;&gt;Node14</title>
<path fill="none" stroke="midnightblue" d="M305.12,-34.8C320.09,-37.55 337.72,-40.79 351.77,-43.37"/>
<polygon fill="midnightblue" stroke="midnightblue" points="351.25,-46.83 361.72,-45.2 352.52,-39.95 351.25,-46.83"/>
</g>
<!-- Node15 -->
<g id="node15" class="node">
<title>Node15</title>
<g id="a_node15"><a xlink:href="x86_8h.html#acc919e7809ef1db2b20aa3804f540b5c" target="_top" xlink:title=" ">
<polygon fill="none" stroke="black" points="460.5,-38.5 460.5,-57.5 489.5,-57.5 489.5,-38.5 460.5,-38.5"/>
<text text-anchor="middle" x="475" y="-45.5" font-family="Helvetica,sans-Serif" font-size="10.00">cli</text>
</a>
</g>
</g>
<!-- Node14&#45;&gt;Node15 -->
<g id="edge16" class="edge">
<title>Node14&#45;&gt;Node15</title>
<path fill="none" stroke="midnightblue" d="M394.26,-48C409.38,-48 432.74,-48 450.28,-48"/>
<polygon fill="midnightblue" stroke="midnightblue" points="450.32,-51.5 460.32,-48 450.32,-44.5 450.32,-51.5"/>
</g>
<!-- Node16 -->
<g id="node16" class="node">
<title>Node16</title>
<g id="a_node16"><a xlink:href="x86_8h.html#a4657e97b270d7af5a23da2c4d642ada2" target="_top" xlink:title=" ">
<polygon fill="none" stroke="black" points="460.5,-0.5 460.5,-19.5 489.5,-19.5 489.5,-0.5 460.5,-0.5"/>
<text text-anchor="middle" x="475" y="-7.5" font-family="Helvetica,sans-Serif" font-size="10.00">sti</text>
</a>
</g>
</g>
<!-- Node14&#45;&gt;Node16 -->
<g id="edge17" class="edge">
<title>Node14&#45;&gt;Node16</title>
<path fill="none" stroke="midnightblue" d="M394.26,-41.89C409.52,-35.79 433.18,-26.33 450.77,-19.29"/>
<polygon fill="midnightblue" stroke="midnightblue" points="452.33,-22.44 460.32,-15.47 449.73,-15.94 452.33,-22.44"/>
</g>
<!-- Node17&#45;&gt;Node12 -->
<g id="edge19" class="edge">
<title>Node17&#45;&gt;Node12</title>
<path fill="none" stroke="midnightblue" d="M291.06,-57.33C307.44,-48.31 332.09,-34.73 350.8,-24.43"/>
<polygon fill="midnightblue" stroke="midnightblue" points="352.63,-27.42 359.7,-19.53 349.25,-21.28 352.63,-27.42"/>
</g>
<!-- Node17&#45;&gt;Node14 -->
<g id="edge22" class="edge">
<title>Node17&#45;&gt;Node14</title>
<path fill="none" stroke="midnightblue" d="M308.25,-60.62C322.47,-58.01 338.62,-55.04 351.7,-52.65"/>
<polygon fill="midnightblue" stroke="midnightblue" points="352.64,-56.03 361.84,-50.78 351.37,-49.15 352.64,-56.03"/>
</g>
<!-- Node18 -->
<g id="node18" class="node">
<title>Node18</title>
<g id="a_node18"><a xlink:href="cte_8c.html#a79659a2b801c42951e38f3a8821acbae" target="_top" xlink:title=" ">
<polygon fill="none" stroke="black" points="351.5,-76.5 351.5,-95.5 404.5,-95.5 404.5,-76.5 351.5,-76.5"/>
<text text-anchor="middle" x="378" y="-83.5" font-family="Helvetica,sans-Serif" font-size="10.00">ienabled</text>
</a>
</g>
</g>
<!-- Node17&#45;&gt;Node18 -->
<g id="edge20" class="edge">
<title>Node17&#45;&gt;Node18</title>
<path fill="none" stroke="midnightblue" d="M308.25,-73.38C318.93,-75.34 330.7,-77.5 341.43,-79.47"/>
<polygon fill="midnightblue" stroke="midnightblue" points="340.87,-82.93 351.34,-81.29 342.14,-76.04 340.87,-82.93"/>
</g>
<!-- Node19 -->
<g id="node19" class="node">
<title>Node19</title>
<g id="a_node19"><a xlink:href="x86_8h.html#a73d094f09c6a7dd3fc703aa8229933ee" target="_top" xlink:title=" ">
<polygon fill="none" stroke="black" points="452.5,-76.5 452.5,-95.5 497.5,-95.5 497.5,-76.5 452.5,-76.5"/>
<text text-anchor="middle" x="475" y="-83.5" font-family="Helvetica,sans-Serif" font-size="10.00">get_efl</text>
</a>
</g>
</g>
<!-- Node18&#45;&gt;Node19 -->
<g id="edge21" class="edge">
<title>Node18&#45;&gt;Node19</title>
<path fill="none" stroke="midnightblue" d="M404.96,-86C416.43,-86 430.03,-86 442.11,-86"/>
<polygon fill="midnightblue" stroke="midnightblue" points="442.25,-89.5 452.25,-86 442.25,-82.5 442.25,-89.5"/>
</g>
</g>
</svg>
