<?xml version="1.0" encoding="UTF-8" standalone="no"?>
<!DOCTYPE svg PUBLIC "-//W3C//DTD SVG 1.1//EN"
 "http://www.w3.org/Graphics/SVG/1.1/DTD/svg11.dtd">
<!-- Generated by graphviz version 3.0.0 (20220413.0106)
 -->
<!-- Title: kmt_yield Pages: 1 -->
<svg width="574pt" height="256pt"
 viewBox="0.00 0.00 574.00 256.00" xmlns="http://www.w3.org/2000/svg" xmlns:xlink="http://www.w3.org/1999/xlink">
<g id="graph0" class="graph" transform="scale(1 1) rotate(0) translate(4 252)">
<title>kmt_yield</title>
<!-- Node1 -->
<g id="node1" class="node">
<title>Node1</title>
<g id="a_node1"><a xlink:title="handler: handle yield interrupt (0x81)">
<polygon fill="#bfbfbf" stroke="black" points="0,-114.5 0,-133.5 58,-133.5 58,-114.5 0,-114.5"/>
<text text-anchor="middle" x="29" y="-121.5" font-family="Helvetica,sans-Serif" font-size="10.00">kmt_yield</text>
</a>
</g>
</g>
<!-- Node2 -->
<g id="node2" class="node">
<title>Node2</title>
<g id="a_node2"><a xlink:href="kmt_8c.html#a031a09141c265954f2b609183e573d1c" target="_top" xlink:title="get current cpu&#39;s tasks">
<polygon fill="none" stroke="black" points="198,-0.5 198,-19.5 274,-19.5 274,-0.5 198,-0.5"/>
<text text-anchor="middle" x="236" y="-7.5" font-family="Helvetica,sans-Serif" font-size="10.00">kmt_get_task</text>
</a>
</g>
</g>
<!-- Node1&#45;&gt;Node2 -->
<g id="edge1" class="edge">
<title>Node1&#45;&gt;Node2</title>
<path fill="none" stroke="midnightblue" d="M45.67,-114.45C58.57,-106.65 77.36,-95.42 94,-86 133.14,-63.85 179.09,-39.35 207.64,-24.32"/>
<polygon fill="midnightblue" stroke="midnightblue" points="209.39,-27.35 216.62,-19.6 206.14,-21.15 209.39,-27.35"/>
</g>
<!-- Node4 -->
<g id="node4" class="node">
<title>Node4</title>
<g id="a_node4"><a xlink:href="spinlock_8c.html#ad4be0d674a7ca4dc90c2dbf8b34562cc" target="_top" xlink:title="check current cpu has the lock">
<polygon fill="none" stroke="black" points="200.5,-152.5 200.5,-171.5 271.5,-171.5 271.5,-152.5 200.5,-152.5"/>
<text text-anchor="middle" x="236" y="-159.5" font-family="Helvetica,sans-Serif" font-size="10.00">spin_holding</text>
</a>
</g>
</g>
<!-- Node1&#45;&gt;Node4 -->
<g id="edge3" class="edge">
<title>Node1&#45;&gt;Node4</title>
<path fill="none" stroke="midnightblue" d="M58.07,-129.2C92.17,-135.52 150.1,-146.26 190.35,-153.72"/>
<polygon fill="midnightblue" stroke="midnightblue" points="189.96,-157.21 200.43,-155.59 191.23,-150.33 189.96,-157.21"/>
</g>
<!-- Node12 -->
<g id="node12" class="node">
<title>Node12</title>
<g id="a_node12"><a xlink:href="spinlock_8c.html#ab6f3c37ec37006951feccc3c05387cce" target="_top" xlink:title="acquire spinlock to current cpu">
<polygon fill="none" stroke="black" points="99,-95.5 99,-114.5 157,-114.5 157,-95.5 99,-95.5"/>
<text text-anchor="middle" x="128" y="-102.5" font-family="Helvetica,sans-Serif" font-size="10.00">spin_lock</text>
</a>
</g>
</g>
<!-- Node1&#45;&gt;Node12 -->
<g id="edge15" class="edge">
<title>Node1&#45;&gt;Node12</title>
<path fill="none" stroke="midnightblue" d="M58.06,-118.5C67.62,-116.63 78.49,-114.5 88.72,-112.5"/>
<polygon fill="midnightblue" stroke="midnightblue" points="89.53,-115.91 98.67,-110.55 88.18,-109.04 89.53,-115.91"/>
</g>
<!-- Node15 -->
<g id="node15" class="node">
<title>Node15</title>
<g id="a_node15"><a xlink:href="spinlock_8c.html#acdf118d615a4bc4064e991add9a80995" target="_top" xlink:title="release spinlock from current cpu">
<polygon fill="none" stroke="black" points="94,-171.5 94,-190.5 162,-190.5 162,-171.5 94,-171.5"/>
<text text-anchor="middle" x="128" y="-178.5" font-family="Helvetica,sans-Serif" font-size="10.00">spin_unlock</text>
</a>
</g>
</g>
<!-- Node1&#45;&gt;Node15 -->
<g id="edge21" class="edge">
<title>Node1&#45;&gt;Node15</title>
<path fill="none" stroke="midnightblue" d="M46.45,-133.67C61.6,-142.57 84.28,-155.9 101.72,-166.14"/>
<polygon fill="midnightblue" stroke="midnightblue" points="100.39,-169.42 110.79,-171.47 103.94,-163.39 100.39,-169.42"/>
</g>
<!-- Node3 -->
<g id="node3" class="node">
<title>Node3</title>
<g id="a_node3"><a xlink:href="mpe_8c.html#ab701de78cad32896c923ce900087e714" target="_top" xlink:title=" ">
<polygon fill="none" stroke="black" points="417,-114.5 417,-133.5 485,-133.5 485,-114.5 417,-114.5"/>
<text text-anchor="middle" x="451" y="-121.5" font-family="Helvetica,sans-Serif" font-size="10.00">cpu_current</text>
</a>
</g>
</g>
<!-- Node2&#45;&gt;Node3 -->
<g id="edge2" class="edge">
<title>Node2&#45;&gt;Node3</title>
<path fill="none" stroke="midnightblue" d="M274.17,-8.87C304.87,-9.58 348.52,-14.49 381,-34 409.28,-50.99 430.1,-84.3 441.11,-105.29"/>
<polygon fill="midnightblue" stroke="midnightblue" points="438.11,-107.1 445.72,-114.47 444.37,-103.96 438.11,-107.1"/>
</g>
<!-- Node4&#45;&gt;Node3 -->
<g id="edge4" class="edge">
<title>Node4&#45;&gt;Node3</title>
<path fill="none" stroke="midnightblue" d="M270.24,-152.45C282.64,-149.13 296.89,-145.59 310,-143 342.11,-136.67 378.79,-131.77 406.55,-128.54"/>
<polygon fill="midnightblue" stroke="midnightblue" points="407.18,-131.99 416.72,-127.38 406.39,-125.03 407.18,-131.99"/>
</g>
<!-- Node5 -->
<g id="node5" class="node">
<title>Node5</title>
<g id="a_node5"><a xlink:href="spinlock_8c.html#afc9565dc7a5ddf77e1fa76f5d91caf78" target="_top" xlink:title="interrupt able">
<polygon fill="none" stroke="black" points="313,-190.5 313,-209.5 378,-209.5 378,-190.5 313,-190.5"/>
<text text-anchor="middle" x="345.5" y="-197.5" font-family="Helvetica,sans-Serif" font-size="10.00">spin_popcli</text>
</a>
</g>
</g>
<!-- Node4&#45;&gt;Node5 -->
<g id="edge5" class="edge">
<title>Node4&#45;&gt;Node5</title>
<path fill="none" stroke="midnightblue" d="M264.13,-171.59C277.37,-176.27 293.49,-181.97 307.81,-187.03"/>
<polygon fill="midnightblue" stroke="midnightblue" points="306.79,-190.38 317.38,-190.41 309.12,-183.78 306.79,-190.38"/>
</g>
<!-- Node9 -->
<g id="node9" class="node">
<title>Node9</title>
<g id="a_node9"><a xlink:href="spinlock_8c.html#ab213874cda54fdbbeb1bec1e5fa90b28" target="_top" xlink:title="interrupt disable">
<polygon fill="none" stroke="black" points="310,-152.5 310,-171.5 381,-171.5 381,-152.5 310,-152.5"/>
<text text-anchor="middle" x="345.5" y="-159.5" font-family="Helvetica,sans-Serif" font-size="10.00">spin_pushcli</text>
</a>
</g>
</g>
<!-- Node4&#45;&gt;Node9 -->
<g id="edge10" class="edge">
<title>Node4&#45;&gt;Node9</title>
<path fill="none" stroke="midnightblue" d="M271.61,-162C280.62,-162 290.46,-162 299.91,-162"/>
<polygon fill="midnightblue" stroke="midnightblue" points="299.96,-165.5 309.96,-162 299.96,-158.5 299.96,-165.5"/>
</g>
<!-- Node5&#45;&gt;Node3 -->
<g id="edge6" class="edge">
<title>Node5&#45;&gt;Node3</title>
<path fill="none" stroke="midnightblue" d="M366.5,-190.35C371.43,-187.61 376.56,-184.43 381,-181 399.41,-166.77 398.73,-157.4 417,-143 418.77,-141.6 420.66,-140.24 422.6,-138.93"/>
<polygon fill="midnightblue" stroke="midnightblue" points="424.6,-141.81 431.23,-133.55 420.9,-135.87 424.6,-141.81"/>
</g>
<!-- Node6 -->
<g id="node6" class="node">
<title>Node6</title>
<g id="a_node6"><a xlink:href="cte_8c.html#a4a139958742786c5085172be1f69bfd0" target="_top" xlink:title=" ">
<polygon fill="none" stroke="black" points="435,-190.5 435,-209.5 467,-209.5 467,-190.5 435,-190.5"/>
<text text-anchor="middle" x="451" y="-197.5" font-family="Helvetica,sans-Serif" font-size="10.00">iset</text>
</a>
</g>
</g>
<!-- Node5&#45;&gt;Node6 -->
<g id="edge7" class="edge">
<title>Node5&#45;&gt;Node6</title>
<path fill="none" stroke="midnightblue" d="M378.12,-200C392.94,-200 410.37,-200 424.36,-200"/>
<polygon fill="midnightblue" stroke="midnightblue" points="424.72,-203.5 434.72,-200 424.72,-196.5 424.72,-203.5"/>
</g>
<!-- Node7 -->
<g id="node7" class="node">
<title>Node7</title>
<g id="a_node7"><a xlink:href="x86_8h.html#acc919e7809ef1db2b20aa3804f540b5c" target="_top" xlink:title=" ">
<polygon fill="none" stroke="black" points="529,-228.5 529,-247.5 558,-247.5 558,-228.5 529,-228.5"/>
<text text-anchor="middle" x="543.5" y="-235.5" font-family="Helvetica,sans-Serif" font-size="10.00">cli</text>
</a>
</g>
</g>
<!-- Node6&#45;&gt;Node7 -->
<g id="edge8" class="edge">
<title>Node6&#45;&gt;Node7</title>
<path fill="none" stroke="midnightblue" d="M467.35,-206.45C481.63,-212.44 503.11,-221.46 519.45,-228.32"/>
<polygon fill="midnightblue" stroke="midnightblue" points="518.28,-231.62 528.85,-232.27 520.99,-225.17 518.28,-231.62"/>
</g>
<!-- Node8 -->
<g id="node8" class="node">
<title>Node8</title>
<g id="a_node8"><a xlink:href="x86_8h.html#a4657e97b270d7af5a23da2c4d642ada2" target="_top" xlink:title=" ">
<polygon fill="none" stroke="black" points="529,-190.5 529,-209.5 558,-209.5 558,-190.5 529,-190.5"/>
<text text-anchor="middle" x="543.5" y="-197.5" font-family="Helvetica,sans-Serif" font-size="10.00">sti</text>
</a>
</g>
</g>
<!-- Node6&#45;&gt;Node8 -->
<g id="edge9" class="edge">
<title>Node6&#45;&gt;Node8</title>
<path fill="none" stroke="midnightblue" d="M467.35,-200C481.37,-200 502.3,-200 518.52,-200"/>
<polygon fill="midnightblue" stroke="midnightblue" points="518.85,-203.5 528.85,-200 518.85,-196.5 518.85,-203.5"/>
</g>
<!-- Node9&#45;&gt;Node3 -->
<g id="edge11" class="edge">
<title>Node9&#45;&gt;Node3</title>
<path fill="none" stroke="midnightblue" d="M372.62,-152.41C385.24,-147.78 400.59,-142.14 414.28,-137.11"/>
<polygon fill="midnightblue" stroke="midnightblue" points="415.71,-140.32 423.89,-133.59 413.3,-133.75 415.71,-140.32"/>
</g>
<!-- Node9&#45;&gt;Node6 -->
<g id="edge14" class="edge">
<title>Node9&#45;&gt;Node6</title>
<path fill="none" stroke="midnightblue" d="M372.62,-171.59C388.73,-177.5 409.28,-185.05 425.15,-190.88"/>
<polygon fill="midnightblue" stroke="midnightblue" points="424.22,-194.26 434.81,-194.42 426.63,-187.69 424.22,-194.26"/>
</g>
<!-- Node10 -->
<g id="node10" class="node">
<title>Node10</title>
<g id="a_node10"><a xlink:href="cte_8c.html#a79659a2b801c42951e38f3a8821acbae" target="_top" xlink:title=" ">
<polygon fill="none" stroke="black" points="424.5,-152.5 424.5,-171.5 477.5,-171.5 477.5,-152.5 424.5,-152.5"/>
<text text-anchor="middle" x="451" y="-159.5" font-family="Helvetica,sans-Serif" font-size="10.00">ienabled</text>
</a>
</g>
</g>
<!-- Node9&#45;&gt;Node10 -->
<g id="edge12" class="edge">
<title>Node9&#45;&gt;Node10</title>
<path fill="none" stroke="midnightblue" d="M381.25,-162C391.82,-162 403.46,-162 414.1,-162"/>
<polygon fill="midnightblue" stroke="midnightblue" points="414.34,-165.5 424.34,-162 414.34,-158.5 414.34,-165.5"/>
</g>
<!-- Node11 -->
<g id="node11" class="node">
<title>Node11</title>
<g id="a_node11"><a xlink:href="x86_8h.html#a73d094f09c6a7dd3fc703aa8229933ee" target="_top" xlink:title=" ">
<polygon fill="none" stroke="black" points="521,-152.5 521,-171.5 566,-171.5 566,-152.5 521,-152.5"/>
<text text-anchor="middle" x="543.5" y="-159.5" font-family="Helvetica,sans-Serif" font-size="10.00">get_efl</text>
</a>
</g>
</g>
<!-- Node10&#45;&gt;Node11 -->
<g id="edge13" class="edge">
<title>Node10&#45;&gt;Node11</title>
<path fill="none" stroke="midnightblue" d="M477.69,-162C487.88,-162 499.71,-162 510.45,-162"/>
<polygon fill="midnightblue" stroke="midnightblue" points="510.73,-165.5 520.73,-162 510.73,-158.5 510.73,-165.5"/>
</g>
<!-- Node12&#45;&gt;Node3 -->
<g id="edge18" class="edge">
<title>Node12&#45;&gt;Node3</title>
<path fill="none" stroke="midnightblue" d="M141.89,-95.28C155.15,-85.93 176.81,-72.45 198,-67 276.77,-46.74 304.47,-39.48 381,-67 402.79,-74.84 422.6,-92.87 435.35,-106.57"/>
<polygon fill="midnightblue" stroke="midnightblue" points="433.06,-109.27 442.33,-114.41 438.29,-104.62 433.06,-109.27"/>
</g>
<!-- Node12&#45;&gt;Node4 -->
<g id="edge19" class="edge">
<title>Node12&#45;&gt;Node4</title>
<path fill="none" stroke="midnightblue" d="M146.98,-114.67C163.83,-123.73 189.24,-137.39 208.43,-147.71"/>
<polygon fill="midnightblue" stroke="midnightblue" points="206.82,-150.82 217.28,-152.47 210.13,-144.65 206.82,-150.82"/>
</g>
<!-- Node12&#45;&gt;Node9 -->
<g id="edge20" class="edge">
<title>Node12&#45;&gt;Node9</title>
<path fill="none" stroke="midnightblue" d="M157.08,-112.3C186.3,-119.91 233.38,-132.2 274,-143 282.37,-145.22 291.28,-147.61 299.86,-149.92"/>
<polygon fill="midnightblue" stroke="midnightblue" points="299.16,-153.36 309.73,-152.58 300.98,-146.6 299.16,-153.36"/>
</g>
<!-- Node13 -->
<g id="node13" class="node">
<title>Node13</title>
<g id="a_node13"><a xlink:href="mpe_8c.html#aaaad47c97c82065cf463f83b98b23c30" target="_top" xlink:title=" ">
<polygon fill="none" stroke="black" points="200.5,-76.5 200.5,-95.5 271.5,-95.5 271.5,-76.5 200.5,-76.5"/>
<text text-anchor="middle" x="236" y="-83.5" font-family="Helvetica,sans-Serif" font-size="10.00">atomic_xchg</text>
</a>
</g>
</g>
<!-- Node12&#45;&gt;Node13 -->
<g id="edge16" class="edge">
<title>Node12&#45;&gt;Node13</title>
<path fill="none" stroke="midnightblue" d="M157.13,-99.96C167.27,-98.14 178.99,-96.04 190.2,-94.03"/>
<polygon fill="midnightblue" stroke="midnightblue" points="191.07,-97.43 200.3,-92.22 189.84,-90.54 191.07,-97.43"/>
</g>
<!-- Node14 -->
<g id="node14" class="node">
<title>Node14</title>
<g id="a_node14"><a xlink:href="x86_8h.html#a48b2a6a16dc8d7e09d327aa3803f1112" target="_top" xlink:title=" ">
<polygon fill="none" stroke="black" points="327,-76.5 327,-95.5 364,-95.5 364,-76.5 327,-76.5"/>
<text text-anchor="middle" x="345.5" y="-83.5" font-family="Helvetica,sans-Serif" font-size="10.00">xchg</text>
</a>
</g>
</g>
<!-- Node13&#45;&gt;Node14 -->
<g id="edge17" class="edge">
<title>Node13&#45;&gt;Node14</title>
<path fill="none" stroke="midnightblue" d="M271.61,-86C286.13,-86 302.81,-86 316.54,-86"/>
<polygon fill="midnightblue" stroke="midnightblue" points="316.83,-89.5 326.83,-86 316.83,-82.5 316.83,-89.5"/>
</g>
<!-- Node15&#45;&gt;Node4 -->
<g id="edge22" class="edge">
<title>Node15&#45;&gt;Node4</title>
<path fill="none" stroke="midnightblue" d="M162.25,-175.04C171.17,-173.44 180.95,-171.69 190.38,-170"/>
<polygon fill="midnightblue" stroke="midnightblue" points="191.18,-173.41 200.41,-168.2 189.95,-166.52 191.18,-173.41"/>
</g>
<!-- Node15&#45;&gt;Node5 -->
<g id="edge23" class="edge">
<title>Node15&#45;&gt;Node5</title>
<path fill="none" stroke="midnightblue" d="M162.2,-183.93C199.89,-187.25 261.44,-192.68 302.45,-196.29"/>
<polygon fill="midnightblue" stroke="midnightblue" points="302.4,-199.8 312.67,-197.19 303.01,-192.83 302.4,-199.8"/>
</g>
</g>
</svg>
