<?xml version="1.0" encoding="UTF-8" standalone="no"?>
<!DOCTYPE svg PUBLIC "-//W3C//DTD SVG 1.1//EN"
 "http://www.w3.org/Graphics/SVG/1.1/DTD/svg11.dtd">
<!-- Generated by graphviz version 3.0.0 (20220413.0106)
 -->
<!-- Title: kmt_context_save Pages: 1 -->
<svg width="508pt" height="180pt"
 viewBox="0.00 0.00 508.00 180.00" xmlns="http://www.w3.org/2000/svg" xmlns:xlink="http://www.w3.org/1999/xlink">
<g id="graph0" class="graph" transform="scale(1 1) rotate(0) translate(4 176)">
<title>kmt_context_save</title>
<!-- Node1 -->
<g id="node1" class="node">
<title>Node1</title>
<g id="a_node1"><a xlink:title="handler: save context to current task">
<polygon fill="#bfbfbf" stroke="black" points="0,-114.5 0,-133.5 96,-133.5 96,-114.5 0,-114.5"/>
<text text-anchor="middle" x="48" y="-121.5" font-family="Helvetica,sans-Serif" font-size="10.00">kmt_context_save</text>
</a>
</g>
</g>
<!-- Node2 -->
<g id="node2" class="node">
<title>Node2</title>
<g id="a_node2"><a xlink:href="mpe_8c.html#ab701de78cad32896c923ce900087e714" target="_top" xlink:title=" ">
<polygon fill="none" stroke="black" points="351,-76.5 351,-95.5 419,-95.5 419,-76.5 351,-76.5"/>
<text text-anchor="middle" x="385" y="-83.5" font-family="Helvetica,sans-Serif" font-size="10.00">cpu_current</text>
</a>
</g>
</g>
<!-- Node1&#45;&gt;Node2 -->
<g id="edge1" class="edge">
<title>Node1&#45;&gt;Node2</title>
<path fill="none" stroke="midnightblue" d="M96.29,-118.64C161.38,-111.25 277.66,-98.06 340.63,-90.92"/>
<polygon fill="midnightblue" stroke="midnightblue" points="341.09,-94.39 350.63,-89.79 340.3,-87.43 341.09,-94.39"/>
</g>
<!-- Node3 -->
<g id="node3" class="node">
<title>Node3</title>
<g id="a_node3"><a xlink:href="kmt_8c.html#a031a09141c265954f2b609183e573d1c" target="_top" xlink:title="get current cpu&#39;s tasks">
<polygon fill="none" stroke="black" points="132,-152.5 132,-171.5 208,-171.5 208,-152.5 132,-152.5"/>
<text text-anchor="middle" x="170" y="-159.5" font-family="Helvetica,sans-Serif" font-size="10.00">kmt_get_task</text>
</a>
</g>
</g>
<!-- Node1&#45;&gt;Node3 -->
<g id="edge2" class="edge">
<title>Node1&#45;&gt;Node3</title>
<path fill="none" stroke="midnightblue" d="M79.28,-133.59C94.35,-138.36 112.75,-144.19 128.97,-149.32"/>
<polygon fill="midnightblue" stroke="midnightblue" points="128.14,-152.73 138.73,-152.41 130.25,-146.06 128.14,-152.73"/>
</g>
<!-- Node4 -->
<g id="node4" class="node">
<title>Node4</title>
<g id="a_node4"><a xlink:href="spinlock_8c.html#ad4be0d674a7ca4dc90c2dbf8b34562cc" target="_top" xlink:title="check current cpu has the lock">
<polygon fill="none" stroke="black" points="134.5,-57.5 134.5,-76.5 205.5,-76.5 205.5,-57.5 134.5,-57.5"/>
<text text-anchor="middle" x="170" y="-64.5" font-family="Helvetica,sans-Serif" font-size="10.00">spin_holding</text>
</a>
</g>
</g>
<!-- Node1&#45;&gt;Node4 -->
<g id="edge4" class="edge">
<title>Node1&#45;&gt;Node4</title>
<path fill="none" stroke="midnightblue" d="M69.09,-114.46C88.38,-105.29 117.76,-91.34 139.67,-80.93"/>
<polygon fill="midnightblue" stroke="midnightblue" points="141.32,-84.02 148.85,-76.57 138.31,-77.7 141.32,-84.02"/>
</g>
<!-- Node3&#45;&gt;Node2 -->
<g id="edge3" class="edge">
<title>Node3&#45;&gt;Node2</title>
<path fill="none" stroke="midnightblue" d="M208.16,-160.67C238.08,-158.47 280.65,-152.75 315,-138 334.63,-129.57 353.78,-114.42 366.9,-102.64"/>
<polygon fill="midnightblue" stroke="midnightblue" points="369.29,-105.2 374.25,-95.83 364.53,-100.07 369.29,-105.2"/>
</g>
<!-- Node4&#45;&gt;Node2 -->
<g id="edge5" class="edge">
<title>Node4&#45;&gt;Node2</title>
<path fill="none" stroke="midnightblue" d="M205.7,-70.09C242.49,-73.38 300.68,-78.57 340.51,-82.12"/>
<polygon fill="midnightblue" stroke="midnightblue" points="340.45,-85.63 350.72,-83.03 341.07,-78.66 340.45,-85.63"/>
</g>
<!-- Node5 -->
<g id="node5" class="node">
<title>Node5</title>
<g id="a_node5"><a xlink:href="spinlock_8c.html#afc9565dc7a5ddf77e1fa76f5d91caf78" target="_top" xlink:title="interrupt able">
<polygon fill="none" stroke="black" points="247,-38.5 247,-57.5 312,-57.5 312,-38.5 247,-38.5"/>
<text text-anchor="middle" x="279.5" y="-45.5" font-family="Helvetica,sans-Serif" font-size="10.00">spin_popcli</text>
</a>
</g>
</g>
<!-- Node4&#45;&gt;Node5 -->
<g id="edge6" class="edge">
<title>Node4&#45;&gt;Node5</title>
<path fill="none" stroke="midnightblue" d="M205.61,-60.88C215.55,-59.13 226.5,-57.19 236.82,-55.37"/>
<polygon fill="midnightblue" stroke="midnightblue" points="237.64,-58.78 246.87,-53.59 236.42,-51.88 237.64,-58.78"/>
</g>
<!-- Node9 -->
<g id="node9" class="node">
<title>Node9</title>
<g id="a_node9"><a xlink:href="spinlock_8c.html#ab213874cda54fdbbeb1bec1e5fa90b28" target="_top" xlink:title="interrupt disable">
<polygon fill="none" stroke="black" points="244,-0.5 244,-19.5 315,-19.5 315,-0.5 244,-0.5"/>
<text text-anchor="middle" x="279.5" y="-7.5" font-family="Helvetica,sans-Serif" font-size="10.00">spin_pushcli</text>
</a>
</g>
</g>
<!-- Node4&#45;&gt;Node9 -->
<g id="edge11" class="edge">
<title>Node4&#45;&gt;Node9</title>
<path fill="none" stroke="midnightblue" d="M189.24,-57.33C206.33,-48.27 232.09,-34.61 251.55,-24.29"/>
<polygon fill="midnightblue" stroke="midnightblue" points="253.34,-27.3 260.53,-19.53 250.06,-21.12 253.34,-27.3"/>
</g>
<!-- Node5&#45;&gt;Node2 -->
<g id="edge7" class="edge">
<title>Node5&#45;&gt;Node2</title>
<path fill="none" stroke="midnightblue" d="M306.62,-57.59C319.24,-62.22 334.59,-67.86 348.28,-72.89"/>
<polygon fill="midnightblue" stroke="midnightblue" points="347.3,-76.25 357.89,-76.41 349.71,-69.68 347.3,-76.25"/>
</g>
<!-- Node6 -->
<g id="node6" class="node">
<title>Node6</title>
<g id="a_node6"><a xlink:href="cte_8c.html#a4a139958742786c5085172be1f69bfd0" target="_top" xlink:title=" ">
<polygon fill="none" stroke="black" points="369,-38.5 369,-57.5 401,-57.5 401,-38.5 369,-38.5"/>
<text text-anchor="middle" x="385" y="-45.5" font-family="Helvetica,sans-Serif" font-size="10.00">iset</text>
</a>
</g>
</g>
<!-- Node5&#45;&gt;Node6 -->
<g id="edge8" class="edge">
<title>Node5&#45;&gt;Node6</title>
<path fill="none" stroke="midnightblue" d="M312.12,-48C326.94,-48 344.37,-48 358.36,-48"/>
<polygon fill="midnightblue" stroke="midnightblue" points="358.72,-51.5 368.72,-48 358.72,-44.5 358.72,-51.5"/>
</g>
<!-- Node7 -->
<g id="node7" class="node">
<title>Node7</title>
<g id="a_node7"><a xlink:href="x86_8h.html#acc919e7809ef1db2b20aa3804f540b5c" target="_top" xlink:title=" ">
<polygon fill="none" stroke="black" points="463,-38.5 463,-57.5 492,-57.5 492,-38.5 463,-38.5"/>
<text text-anchor="middle" x="477.5" y="-45.5" font-family="Helvetica,sans-Serif" font-size="10.00">cli</text>
</a>
</g>
</g>
<!-- Node6&#45;&gt;Node7 -->
<g id="edge9" class="edge">
<title>Node6&#45;&gt;Node7</title>
<path fill="none" stroke="midnightblue" d="M401.35,-48C415.37,-48 436.3,-48 452.52,-48"/>
<polygon fill="midnightblue" stroke="midnightblue" points="452.85,-51.5 462.85,-48 452.85,-44.5 452.85,-51.5"/>
</g>
<!-- Node8 -->
<g id="node8" class="node">
<title>Node8</title>
<g id="a_node8"><a xlink:href="x86_8h.html#a4657e97b270d7af5a23da2c4d642ada2" target="_top" xlink:title=" ">
<polygon fill="none" stroke="black" points="463,-76.5 463,-95.5 492,-95.5 492,-76.5 463,-76.5"/>
<text text-anchor="middle" x="477.5" y="-83.5" font-family="Helvetica,sans-Serif" font-size="10.00">sti</text>
</a>
</g>
</g>
<!-- Node6&#45;&gt;Node8 -->
<g id="edge10" class="edge">
<title>Node6&#45;&gt;Node8</title>
<path fill="none" stroke="midnightblue" d="M401.35,-54.45C415.63,-60.44 437.11,-69.46 453.45,-76.32"/>
<polygon fill="midnightblue" stroke="midnightblue" points="452.28,-79.62 462.85,-80.27 454.99,-73.17 452.28,-79.62"/>
</g>
<!-- Node9&#45;&gt;Node2 -->
<g id="edge12" class="edge">
<title>Node9&#45;&gt;Node2</title>
<path fill="none" stroke="midnightblue" d="M300.5,-19.65C305.43,-22.39 310.56,-25.57 315,-29 333.41,-43.23 332.73,-52.6 351,-67 352.77,-68.4 354.66,-69.76 356.6,-71.07"/>
<polygon fill="midnightblue" stroke="midnightblue" points="354.9,-74.13 365.23,-76.45 358.6,-68.19 354.9,-74.13"/>
</g>
<!-- Node9&#45;&gt;Node6 -->
<g id="edge15" class="edge">
<title>Node9&#45;&gt;Node6</title>
<path fill="none" stroke="midnightblue" d="M306.62,-19.59C322.73,-25.5 343.28,-33.05 359.15,-38.88"/>
<polygon fill="midnightblue" stroke="midnightblue" points="358.22,-42.26 368.81,-42.42 360.63,-35.69 358.22,-42.26"/>
</g>
<!-- Node10 -->
<g id="node10" class="node">
<title>Node10</title>
<g id="a_node10"><a xlink:href="cte_8c.html#a79659a2b801c42951e38f3a8821acbae" target="_top" xlink:title=" ">
<polygon fill="none" stroke="black" points="358.5,-0.5 358.5,-19.5 411.5,-19.5 411.5,-0.5 358.5,-0.5"/>
<text text-anchor="middle" x="385" y="-7.5" font-family="Helvetica,sans-Serif" font-size="10.00">ienabled</text>
</a>
</g>
</g>
<!-- Node9&#45;&gt;Node10 -->
<g id="edge13" class="edge">
<title>Node9&#45;&gt;Node10</title>
<path fill="none" stroke="midnightblue" d="M315.25,-10C325.82,-10 337.46,-10 348.1,-10"/>
<polygon fill="midnightblue" stroke="midnightblue" points="348.34,-13.5 358.34,-10 348.34,-6.5 348.34,-13.5"/>
</g>
<!-- Node11 -->
<g id="node11" class="node">
<title>Node11</title>
<g id="a_node11"><a xlink:href="x86_8h.html#a73d094f09c6a7dd3fc703aa8229933ee" target="_top" xlink:title=" ">
<polygon fill="none" stroke="black" points="455,-0.5 455,-19.5 500,-19.5 500,-0.5 455,-0.5"/>
<text text-anchor="middle" x="477.5" y="-7.5" font-family="Helvetica,sans-Serif" font-size="10.00">get_efl</text>
</a>
</g>
</g>
<!-- Node10&#45;&gt;Node11 -->
<g id="edge14" class="edge">
<title>Node10&#45;&gt;Node11</title>
<path fill="none" stroke="midnightblue" d="M411.69,-10C421.88,-10 433.71,-10 444.45,-10"/>
<polygon fill="midnightblue" stroke="midnightblue" points="444.73,-13.5 454.73,-10 444.73,-6.5 444.73,-13.5"/>
</g>
</g>
</svg>
