<?xml version="1.0" encoding="UTF-8" standalone="no"?>
<!DOCTYPE svg PUBLIC "-//W3C//DTD SVG 1.1//EN"
 "http://www.w3.org/Graphics/SVG/1.1/DTD/svg11.dtd">
<!-- Generated by graphviz version 3.0.0 (20220413.0106)
 -->
<!-- Title: kmt_print_cpu_tasks Pages: 1 -->
<svg width="618pt" height="275pt"
 viewBox="0.00 0.00 618.00 275.00" xmlns="http://www.w3.org/2000/svg" xmlns:xlink="http://www.w3.org/1999/xlink">
<g id="graph0" class="graph" transform="scale(1 1) rotate(0) translate(4 271)">
<title>kmt_print_cpu_tasks</title>
<!-- Node1 -->
<g id="node1" class="node">
<title>Node1</title>
<g id="a_node1"><a xlink:title="print all current_tasks notice: do not garantee concurrency safety">
<polygon fill="#bfbfbf" stroke="black" points="0,-114.5 0,-133.5 107,-133.5 107,-114.5 0,-114.5"/>
<text text-anchor="middle" x="53.5" y="-121.5" font-family="Helvetica,sans-Serif" font-size="10.00">kmt_print_cpu_tasks</text>
</a>
</g>
</g>
<!-- Node2 -->
<g id="node2" class="node">
<title>Node2</title>
<g id="a_node2"><a xlink:href="mpe_8c.html#af486ec575d47720d28eee63644206110" target="_top" xlink:title=" ">
<polygon fill="none" stroke="black" points="146,-190.5 146,-209.5 208,-209.5 208,-190.5 146,-190.5"/>
<text text-anchor="middle" x="177" y="-197.5" font-family="Helvetica,sans-Serif" font-size="10.00">cpu_count</text>
</a>
</g>
</g>
<!-- Node1&#45;&gt;Node2 -->
<g id="edge1" class="edge">
<title>Node1&#45;&gt;Node2</title>
<path fill="none" stroke="midnightblue" d="M68.77,-133.5C86.15,-145 116.47,-164.83 143,-181 145.35,-182.43 147.82,-183.91 150.29,-185.36"/>
<polygon fill="midnightblue" stroke="midnightblue" points="148.71,-188.5 159.12,-190.49 152.23,-182.44 148.71,-188.5"/>
</g>
<!-- Node3 -->
<g id="node3" class="node">
<title>Node3</title>
<g id="a_node3"><a xlink:href="stdio_8c.html#a55f3d956bb2ba20b5059e9e25484a47f" target="_top" xlink:title=" ">
<polygon fill="none" stroke="black" points="158,-152.5 158,-171.5 196,-171.5 196,-152.5 158,-152.5"/>
<text text-anchor="middle" x="177" y="-159.5" font-family="Helvetica,sans-Serif" font-size="10.00">printf</text>
</a>
</g>
</g>
<!-- Node1&#45;&gt;Node3 -->
<g id="edge2" class="edge">
<title>Node1&#45;&gt;Node3</title>
<path fill="none" stroke="midnightblue" d="M85.16,-133.59C104.5,-139.64 129.27,-147.39 148.07,-153.26"/>
<polygon fill="midnightblue" stroke="midnightblue" points="147.23,-156.67 157.82,-156.31 149.32,-149.99 147.23,-156.67"/>
</g>
<!-- Node9 -->
<g id="node9" class="node">
<title>Node9</title>
<g id="a_node9"><a xlink:href="spinlock_8c.html#ad4be0d674a7ca4dc90c2dbf8b34562cc" target="_top" xlink:title="check current cpu has the lock">
<polygon fill="none" stroke="black" points="247,-57.5 247,-76.5 318,-76.5 318,-57.5 247,-57.5"/>
<text text-anchor="middle" x="282.5" y="-64.5" font-family="Helvetica,sans-Serif" font-size="10.00">spin_holding</text>
</a>
</g>
</g>
<!-- Node1&#45;&gt;Node9 -->
<g id="edge8" class="edge">
<title>Node1&#45;&gt;Node9</title>
<path fill="none" stroke="midnightblue" d="M92.49,-114.46C132.34,-104.45 194.9,-88.74 237.02,-78.17"/>
<polygon fill="midnightblue" stroke="midnightblue" points="237.89,-81.56 246.74,-75.73 236.19,-74.77 237.89,-81.56"/>
</g>
<!-- Node18 -->
<g id="node18" class="node">
<title>Node18</title>
<g id="a_node18"><a xlink:href="spinlock_8c.html#ab6f3c37ec37006951feccc3c05387cce" target="_top" xlink:title="acquire spinlock to current cpu">
<polygon fill="none" stroke="black" points="148,-114.5 148,-133.5 206,-133.5 206,-114.5 148,-114.5"/>
<text text-anchor="middle" x="177" y="-121.5" font-family="Helvetica,sans-Serif" font-size="10.00">spin_lock</text>
</a>
</g>
</g>
<!-- Node1&#45;&gt;Node18 -->
<g id="edge20" class="edge">
<title>Node1&#45;&gt;Node18</title>
<path fill="none" stroke="midnightblue" d="M107.09,-124C117.35,-124 127.94,-124 137.64,-124"/>
<polygon fill="midnightblue" stroke="midnightblue" points="137.76,-127.5 147.76,-124 137.76,-120.5 137.76,-127.5"/>
</g>
<!-- Node21 -->
<g id="node21" class="node">
<title>Node21</title>
<g id="a_node21"><a xlink:href="spinlock_8c.html#acdf118d615a4bc4064e991add9a80995" target="_top" xlink:title="release spinlock from current cpu">
<polygon fill="none" stroke="black" points="143,-38.5 143,-57.5 211,-57.5 211,-38.5 143,-38.5"/>
<text text-anchor="middle" x="177" y="-45.5" font-family="Helvetica,sans-Serif" font-size="10.00">spin_unlock</text>
</a>
</g>
</g>
<!-- Node1&#45;&gt;Node21 -->
<g id="edge26" class="edge">
<title>Node1&#45;&gt;Node21</title>
<path fill="none" stroke="midnightblue" d="M69.89,-114.37C90.61,-101.41 127.7,-78.21 152.08,-62.96"/>
<polygon fill="midnightblue" stroke="midnightblue" points="154.11,-65.82 160.74,-57.55 150.4,-59.88 154.11,-65.82"/>
</g>
<!-- Node4 -->
<g id="node4" class="node">
<title>Node4</title>
<g id="a_node4"><a xlink:href="stdio_8c.html#a44a6734c6f8f81d8e1fa3b9d476c5134" target="_top" xlink:title="write bytes (including the terminating null byte (&#39;\0&#39;)) to out.">
<polygon fill="none" stroke="black" points="258,-209.5 258,-228.5 307,-228.5 307,-209.5 258,-209.5"/>
<text text-anchor="middle" x="282.5" y="-216.5" font-family="Helvetica,sans-Serif" font-size="10.00">vsprintf</text>
</a>
</g>
</g>
<!-- Node3&#45;&gt;Node4 -->
<g id="edge3" class="edge">
<title>Node3&#45;&gt;Node4</title>
<path fill="none" stroke="midnightblue" d="M195.56,-171.67C211.94,-180.69 236.59,-194.27 255.3,-204.57"/>
<polygon fill="midnightblue" stroke="midnightblue" points="253.75,-207.72 264.2,-209.47 257.13,-201.58 253.75,-207.72"/>
</g>
<!-- Node5 -->
<g id="node5" class="node">
<title>Node5</title>
<g id="a_node5"><a xlink:href="stdio_8c.html#abf852e417a205348767989f2940059ad" target="_top" xlink:title="write at most n bytes (including the terminating null byte (&#39;\0&#39;)) to out.">
<polygon fill="none" stroke="black" points="362.5,-209.5 362.5,-228.5 416.5,-228.5 416.5,-209.5 362.5,-209.5"/>
<text text-anchor="middle" x="389.5" y="-216.5" font-family="Helvetica,sans-Serif" font-size="10.00">vsnprintf</text>
</a>
</g>
</g>
<!-- Node4&#45;&gt;Node5 -->
<g id="edge4" class="edge">
<title>Node4&#45;&gt;Node5</title>
<path fill="none" stroke="midnightblue" d="M307.06,-219C320.43,-219 337.43,-219 352.43,-219"/>
<polygon fill="midnightblue" stroke="midnightblue" points="352.44,-222.5 362.44,-219 352.44,-215.5 352.44,-222.5"/>
</g>
<!-- Node6 -->
<g id="node6" class="node">
<title>Node6</title>
<g id="a_node6"><a xlink:href="stdio_8c.html#a0e2811092b514de48ac2dd675d6cf2b4" target="_top" xlink:title="print decimal into buffer,return length">
<polygon fill="none" stroke="black" points="465.5,-247.5 465.5,-266.5 524.5,-266.5 524.5,-247.5 465.5,-247.5"/>
<text text-anchor="middle" x="495" y="-254.5" font-family="Helvetica,sans-Serif" font-size="10.00">print_num</text>
</a>
</g>
</g>
<!-- Node5&#45;&gt;Node6 -->
<g id="edge5" class="edge">
<title>Node5&#45;&gt;Node6</title>
<path fill="none" stroke="midnightblue" d="M416.62,-228.59C429.24,-233.22 444.59,-238.86 458.28,-243.89"/>
<polygon fill="midnightblue" stroke="midnightblue" points="457.3,-247.25 467.89,-247.41 459.71,-240.68 457.3,-247.25"/>
</g>
<!-- Node7 -->
<g id="node7" class="node">
<title>Node7</title>
<g id="a_node7"><a xlink:href="string_8c.html#aa383452fe445bfae989358c9d7d96f4f" target="_top" xlink:title=" ">
<polygon fill="none" stroke="black" points="474.5,-209.5 474.5,-228.5 515.5,-228.5 515.5,-209.5 474.5,-209.5"/>
<text text-anchor="middle" x="495" y="-216.5" font-family="Helvetica,sans-Serif" font-size="10.00">strlen</text>
</a>
</g>
</g>
<!-- Node5&#45;&gt;Node7 -->
<g id="edge6" class="edge">
<title>Node5&#45;&gt;Node7</title>
<path fill="none" stroke="midnightblue" d="M416.62,-219C431.07,-219 449.1,-219 464.12,-219"/>
<polygon fill="midnightblue" stroke="midnightblue" points="464.43,-222.5 474.43,-219 464.43,-215.5 464.43,-222.5"/>
</g>
<!-- Node8 -->
<g id="node8" class="node">
<title>Node8</title>
<g id="a_node8"><a xlink:href="string_8c.html#a82f08f2390a9067f3c94b638e90e03bd" target="_top" xlink:title=" ">
<polygon fill="none" stroke="black" points="471,-171.5 471,-190.5 519,-190.5 519,-171.5 471,-171.5"/>
<text text-anchor="middle" x="495" y="-178.5" font-family="Helvetica,sans-Serif" font-size="10.00">strncpy</text>
</a>
</g>
</g>
<!-- Node5&#45;&gt;Node8 -->
<g id="edge7" class="edge">
<title>Node5&#45;&gt;Node8</title>
<path fill="none" stroke="midnightblue" d="M416.62,-209.41C430.14,-204.44 446.8,-198.33 461.18,-193.05"/>
<polygon fill="midnightblue" stroke="midnightblue" points="462.54,-196.28 470.72,-189.55 460.12,-189.71 462.54,-196.28"/>
</g>
<!-- Node10 -->
<g id="node10" class="node">
<title>Node10</title>
<g id="a_node10"><a xlink:href="mpe_8c.html#ab701de78cad32896c923ce900087e714" target="_top" xlink:title=" ">
<polygon fill="none" stroke="black" points="461,-57.5 461,-76.5 529,-76.5 529,-57.5 461,-57.5"/>
<text text-anchor="middle" x="495" y="-64.5" font-family="Helvetica,sans-Serif" font-size="10.00">cpu_current</text>
</a>
</g>
</g>
<!-- Node9&#45;&gt;Node10 -->
<g id="edge9" class="edge">
<title>Node9&#45;&gt;Node10</title>
<path fill="none" stroke="midnightblue" d="M318.26,-67C354.6,-67 411.69,-67 450.88,-67"/>
<polygon fill="midnightblue" stroke="midnightblue" points="450.92,-70.5 460.92,-67 450.92,-63.5 450.92,-70.5"/>
</g>
<!-- Node11 -->
<g id="node11" class="node">
<title>Node11</title>
<g id="a_node11"><a xlink:href="spinlock_8c.html#afc9565dc7a5ddf77e1fa76f5d91caf78" target="_top" xlink:title="interrupt able">
<polygon fill="none" stroke="black" points="357,-19.5 357,-38.5 422,-38.5 422,-19.5 357,-19.5"/>
<text text-anchor="middle" x="389.5" y="-26.5" font-family="Helvetica,sans-Serif" font-size="10.00">spin_popcli</text>
</a>
</g>
</g>
<!-- Node9&#45;&gt;Node11 -->
<g id="edge10" class="edge">
<title>Node9&#45;&gt;Node11</title>
<path fill="none" stroke="midnightblue" d="M310,-57.41C322.8,-52.78 338.38,-47.14 352.26,-42.11"/>
<polygon fill="midnightblue" stroke="midnightblue" points="353.8,-45.28 362.01,-38.59 351.42,-38.7 353.8,-45.28"/>
</g>
<!-- Node15 -->
<g id="node15" class="node">
<title>Node15</title>
<g id="a_node15"><a xlink:href="spinlock_8c.html#ab213874cda54fdbbeb1bec1e5fa90b28" target="_top" xlink:title="interrupt disable">
<polygon fill="none" stroke="black" points="354,-95.5 354,-114.5 425,-114.5 425,-95.5 354,-95.5"/>
<text text-anchor="middle" x="389.5" y="-102.5" font-family="Helvetica,sans-Serif" font-size="10.00">spin_pushcli</text>
</a>
</g>
</g>
<!-- Node9&#45;&gt;Node15 -->
<g id="edge15" class="edge">
<title>Node9&#45;&gt;Node15</title>
<path fill="none" stroke="midnightblue" d="M310,-76.59C322.8,-81.22 338.38,-86.86 352.26,-91.89"/>
<polygon fill="midnightblue" stroke="midnightblue" points="351.42,-95.3 362.01,-95.41 353.8,-88.72 351.42,-95.3"/>
</g>
<!-- Node11&#45;&gt;Node10 -->
<g id="edge11" class="edge">
<title>Node11&#45;&gt;Node10</title>
<path fill="none" stroke="midnightblue" d="M416.62,-38.59C429.24,-43.22 444.59,-48.86 458.28,-53.89"/>
<polygon fill="midnightblue" stroke="midnightblue" points="457.3,-57.25 467.89,-57.41 459.71,-50.68 457.3,-57.25"/>
</g>
<!-- Node12 -->
<g id="node12" class="node">
<title>Node12</title>
<g id="a_node12"><a xlink:href="cte_8c.html#a4a139958742786c5085172be1f69bfd0" target="_top" xlink:title=" ">
<polygon fill="none" stroke="black" points="479,-19.5 479,-38.5 511,-38.5 511,-19.5 479,-19.5"/>
<text text-anchor="middle" x="495" y="-26.5" font-family="Helvetica,sans-Serif" font-size="10.00">iset</text>
</a>
</g>
</g>
<!-- Node11&#45;&gt;Node12 -->
<g id="edge12" class="edge">
<title>Node11&#45;&gt;Node12</title>
<path fill="none" stroke="midnightblue" d="M422.12,-29C436.94,-29 454.37,-29 468.36,-29"/>
<polygon fill="midnightblue" stroke="midnightblue" points="468.72,-32.5 478.72,-29 468.72,-25.5 468.72,-32.5"/>
</g>
<!-- Node13 -->
<g id="node13" class="node">
<title>Node13</title>
<g id="a_node13"><a xlink:href="x86_8h.html#acc919e7809ef1db2b20aa3804f540b5c" target="_top" xlink:title=" ">
<polygon fill="none" stroke="black" points="573,-38.5 573,-57.5 602,-57.5 602,-38.5 573,-38.5"/>
<text text-anchor="middle" x="587.5" y="-45.5" font-family="Helvetica,sans-Serif" font-size="10.00">cli</text>
</a>
</g>
</g>
<!-- Node12&#45;&gt;Node13 -->
<g id="edge13" class="edge">
<title>Node12&#45;&gt;Node13</title>
<path fill="none" stroke="midnightblue" d="M511.35,-32.22C525.5,-35.19 546.71,-39.65 562.99,-43.06"/>
<polygon fill="midnightblue" stroke="midnightblue" points="562.35,-46.51 572.85,-45.13 563.78,-39.65 562.35,-46.51"/>
</g>
<!-- Node14 -->
<g id="node14" class="node">
<title>Node14</title>
<g id="a_node14"><a xlink:href="x86_8h.html#a4657e97b270d7af5a23da2c4d642ada2" target="_top" xlink:title=" ">
<polygon fill="none" stroke="black" points="573,-0.5 573,-19.5 602,-19.5 602,-0.5 573,-0.5"/>
<text text-anchor="middle" x="587.5" y="-7.5" font-family="Helvetica,sans-Serif" font-size="10.00">sti</text>
</a>
</g>
</g>
<!-- Node12&#45;&gt;Node14 -->
<g id="edge14" class="edge">
<title>Node12&#45;&gt;Node14</title>
<path fill="none" stroke="midnightblue" d="M511.35,-25.78C525.5,-22.81 546.71,-18.35 562.99,-14.94"/>
<polygon fill="midnightblue" stroke="midnightblue" points="563.78,-18.35 572.85,-12.87 562.35,-11.49 563.78,-18.35"/>
</g>
<!-- Node15&#45;&gt;Node10 -->
<g id="edge16" class="edge">
<title>Node15&#45;&gt;Node10</title>
<path fill="none" stroke="midnightblue" d="M416.62,-95.41C429.24,-90.78 444.59,-85.14 458.28,-80.11"/>
<polygon fill="midnightblue" stroke="midnightblue" points="459.71,-83.32 467.89,-76.59 457.3,-76.75 459.71,-83.32"/>
</g>
<!-- Node15&#45;&gt;Node12 -->
<g id="edge19" class="edge">
<title>Node15&#45;&gt;Node12</title>
<path fill="none" stroke="midnightblue" d="M401.55,-95.15C415.09,-83.3 438.93,-63.13 461,-48 463.92,-45.99 467.07,-44 470.22,-42.09"/>
<polygon fill="midnightblue" stroke="midnightblue" points="472.03,-45.08 478.91,-37.03 468.51,-39.04 472.03,-45.08"/>
</g>
<!-- Node16 -->
<g id="node16" class="node">
<title>Node16</title>
<g id="a_node16"><a xlink:href="cte_8c.html#a79659a2b801c42951e38f3a8821acbae" target="_top" xlink:title=" ">
<polygon fill="none" stroke="black" points="468.5,-95.5 468.5,-114.5 521.5,-114.5 521.5,-95.5 468.5,-95.5"/>
<text text-anchor="middle" x="495" y="-102.5" font-family="Helvetica,sans-Serif" font-size="10.00">ienabled</text>
</a>
</g>
</g>
<!-- Node15&#45;&gt;Node16 -->
<g id="edge17" class="edge">
<title>Node15&#45;&gt;Node16</title>
<path fill="none" stroke="midnightblue" d="M425.25,-105C435.82,-105 447.46,-105 458.1,-105"/>
<polygon fill="midnightblue" stroke="midnightblue" points="458.34,-108.5 468.34,-105 458.34,-101.5 458.34,-108.5"/>
</g>
<!-- Node17 -->
<g id="node17" class="node">
<title>Node17</title>
<g id="a_node17"><a xlink:href="x86_8h.html#a73d094f09c6a7dd3fc703aa8229933ee" target="_top" xlink:title=" ">
<polygon fill="none" stroke="black" points="565,-95.5 565,-114.5 610,-114.5 610,-95.5 565,-95.5"/>
<text text-anchor="middle" x="587.5" y="-102.5" font-family="Helvetica,sans-Serif" font-size="10.00">get_efl</text>
</a>
</g>
</g>
<!-- Node16&#45;&gt;Node17 -->
<g id="edge18" class="edge">
<title>Node16&#45;&gt;Node17</title>
<path fill="none" stroke="midnightblue" d="M521.69,-105C531.88,-105 543.71,-105 554.45,-105"/>
<polygon fill="midnightblue" stroke="midnightblue" points="554.73,-108.5 564.73,-105 554.73,-101.5 554.73,-108.5"/>
</g>
<!-- Node18&#45;&gt;Node9 -->
<g id="edge24" class="edge">
<title>Node18&#45;&gt;Node9</title>
<path fill="none" stroke="midnightblue" d="M195.56,-114.33C211.94,-105.31 236.59,-91.73 255.3,-81.43"/>
<polygon fill="midnightblue" stroke="midnightblue" points="257.13,-84.42 264.2,-76.53 253.75,-78.28 257.13,-84.42"/>
</g>
<!-- Node18&#45;&gt;Node10 -->
<g id="edge23" class="edge">
<title>Node18&#45;&gt;Node10</title>
<path fill="none" stroke="midnightblue" d="M194.83,-133.55C214.33,-144.56 244.17,-161.27 247,-162 323.62,-181.7 358.15,-204.3 425,-162 456.58,-142.01 435.65,-113.46 461,-86 462.04,-84.88 463.16,-83.8 464.33,-82.77"/>
<polygon fill="midnightblue" stroke="midnightblue" points="466.67,-85.41 472.71,-76.7 462.56,-79.74 466.67,-85.41"/>
</g>
<!-- Node18&#45;&gt;Node15 -->
<g id="edge25" class="edge">
<title>Node18&#45;&gt;Node15</title>
<path fill="none" stroke="midnightblue" d="M206.39,-121.44C241.67,-118.25 302.28,-112.78 343.81,-109.03"/>
<polygon fill="midnightblue" stroke="midnightblue" points="344.29,-112.5 353.93,-108.12 343.66,-105.53 344.29,-112.5"/>
</g>
<!-- Node19 -->
<g id="node19" class="node">
<title>Node19</title>
<g id="a_node19"><a xlink:href="mpe_8c.html#aaaad47c97c82065cf463f83b98b23c30" target="_top" xlink:title=" ">
<polygon fill="none" stroke="black" points="247,-133.5 247,-152.5 318,-152.5 318,-133.5 247,-133.5"/>
<text text-anchor="middle" x="282.5" y="-140.5" font-family="Helvetica,sans-Serif" font-size="10.00">atomic_xchg</text>
</a>
</g>
</g>
<!-- Node18&#45;&gt;Node19 -->
<g id="edge21" class="edge">
<title>Node18&#45;&gt;Node19</title>
<path fill="none" stroke="midnightblue" d="M206.01,-129.14C215.54,-130.89 226.43,-132.89 236.93,-134.82"/>
<polygon fill="midnightblue" stroke="midnightblue" points="236.34,-138.27 246.81,-136.63 237.61,-131.38 236.34,-138.27"/>
</g>
<!-- Node20 -->
<g id="node20" class="node">
<title>Node20</title>
<g id="a_node20"><a xlink:href="x86_8h.html#a48b2a6a16dc8d7e09d327aa3803f1112" target="_top" xlink:title=" ">
<polygon fill="none" stroke="black" points="371,-133.5 371,-152.5 408,-152.5 408,-133.5 371,-133.5"/>
<text text-anchor="middle" x="389.5" y="-140.5" font-family="Helvetica,sans-Serif" font-size="10.00">xchg</text>
</a>
</g>
</g>
<!-- Node19&#45;&gt;Node20 -->
<g id="edge22" class="edge">
<title>Node19&#45;&gt;Node20</title>
<path fill="none" stroke="midnightblue" d="M318.17,-143C331.99,-143 347.67,-143 360.71,-143"/>
<polygon fill="midnightblue" stroke="midnightblue" points="360.95,-146.5 370.95,-143 360.95,-139.5 360.95,-146.5"/>
</g>
<!-- Node21&#45;&gt;Node9 -->
<g id="edge27" class="edge">
<title>Node21&#45;&gt;Node9</title>
<path fill="none" stroke="midnightblue" d="M211.03,-54.06C219.28,-55.58 228.26,-57.23 236.97,-58.83"/>
<polygon fill="midnightblue" stroke="midnightblue" points="236.53,-62.3 247,-60.67 237.8,-55.42 236.53,-62.3"/>
</g>
<!-- Node21&#45;&gt;Node11 -->
<g id="edge28" class="edge">
<title>Node21&#45;&gt;Node11</title>
<path fill="none" stroke="midnightblue" d="M211.35,-44.99C247.96,-41.69 306.8,-36.37 346.52,-32.79"/>
<polygon fill="midnightblue" stroke="midnightblue" points="347.03,-36.26 356.68,-31.87 346.41,-29.29 347.03,-36.26"/>
</g>
</g>
</svg>
