<?xml version="1.0" encoding="UTF-8" standalone="no"?>
<!DOCTYPE svg PUBLIC "-//W3C//DTD SVG 1.1//EN"
 "http://www.w3.org/Graphics/SVG/1.1/DTD/svg11.dtd">
<!-- Generated by graphviz version 3.0.0 (20220413.0106)
 -->
<!-- Title: __list_del Pages: 1 -->
<svg width="808pt" height="161pt"
 viewBox="0.00 0.00 808.00 161.00" xmlns="http://www.w3.org/2000/svg" xmlns:xlink="http://www.w3.org/1999/xlink">
<g id="graph0" class="graph" transform="scale(1 1) rotate(0) translate(4 157)">
<title>__list_del</title>
<!-- Node1 -->
<g id="node1" class="node">
<title>Node1</title>
<g id="a_node1"><a xlink:title=" ">
<polygon fill="#bfbfbf" stroke="black" points="742,-38.5 742,-57.5 800,-57.5 800,-38.5 742,-38.5"/>
<text text-anchor="middle" x="771" y="-45.5" font-family="Helvetica,sans-Serif" font-size="10.00">__list_del</text>
</a>
</g>
</g>
<!-- Node2 -->
<g id="node2" class="node">
<title>Node2</title>
<g id="a_node2"><a xlink:href="list_8h.html#ab1708206f0f7e0a56550b35372203ba5" target="_top" xlink:title=" ">
<polygon fill="none" stroke="black" points="644,-76.5 644,-95.5 691,-95.5 691,-76.5 644,-76.5"/>
<text text-anchor="middle" x="667.5" y="-83.5" font-family="Helvetica,sans-Serif" font-size="10.00">list_del</text>
</a>
</g>
</g>
<!-- Node1&#45;&gt;Node2 -->
<g id="edge1" class="edge">
<title>Node1&#45;&gt;Node2</title>
<path fill="none" stroke="midnightblue" d="M734.78,-61.19C720.38,-66.58 704.14,-72.66 691.33,-77.45"/>
<polygon fill="midnightblue" stroke="midnightblue" points="736.25,-64.37 744.39,-57.59 733.79,-57.82 736.25,-64.37"/>
</g>
<!-- Node16 -->
<g id="node16" class="node">
<title>Node16</title>
<g id="a_node16"><a xlink:href="list_8h.html#aee8df43e41969c2272acfd6ed6e75d4c" target="_top" xlink:title=" ">
<polygon fill="none" stroke="black" points="638,-38.5 638,-57.5 697,-57.5 697,-38.5 638,-38.5"/>
<text text-anchor="middle" x="667.5" y="-45.5" font-family="Helvetica,sans-Serif" font-size="10.00">list_move</text>
</a>
</g>
</g>
<!-- Node1&#45;&gt;Node16 -->
<g id="edge18" class="edge">
<title>Node1&#45;&gt;Node16</title>
<path fill="none" stroke="midnightblue" d="M731.77,-48C720.28,-48 707.87,-48 697.12,-48"/>
<polygon fill="midnightblue" stroke="midnightblue" points="732,-51.5 742,-48 732,-44.5 732,-51.5"/>
</g>
<!-- Node17 -->
<g id="node17" class="node">
<title>Node17</title>
<g id="a_node17"><a xlink:href="list_8h.html#a1c5ac6a6b04a03f5782e818daacf96e9" target="_top" xlink:title=" ">
<polygon fill="none" stroke="black" points="629,-0.5 629,-19.5 706,-19.5 706,-0.5 629,-0.5"/>
<text text-anchor="middle" x="667.5" y="-7.5" font-family="Helvetica,sans-Serif" font-size="10.00">list_move_tail</text>
</a>
</g>
</g>
<!-- Node1&#45;&gt;Node17 -->
<g id="edge19" class="edge">
<title>Node1&#45;&gt;Node17</title>
<path fill="none" stroke="midnightblue" d="M734.96,-34.88C721.54,-29.86 706.48,-24.22 694.1,-19.59"/>
<polygon fill="midnightblue" stroke="midnightblue" points="733.79,-38.18 744.39,-38.41 736.25,-31.63 733.79,-38.18"/>
</g>
<!-- Node3 -->
<g id="node3" class="node">
<title>Node3</title>
<g id="a_node3"><a xlink:href="buddy_8c.html#a8a4afbc5643993142db5ad65b87b8c62" target="_top" xlink:title=" ">
<polygon fill="none" stroke="black" points="532,-76.5 532,-95.5 593,-95.5 593,-76.5 532,-76.5"/>
<text text-anchor="middle" x="562.5" y="-83.5" font-family="Helvetica,sans-Serif" font-size="10.00">chunk_del</text>
</a>
</g>
</g>
<!-- Node2&#45;&gt;Node3 -->
<g id="edge2" class="edge">
<title>Node2&#45;&gt;Node3</title>
<path fill="none" stroke="midnightblue" d="M633.89,-86C620.82,-86 605.85,-86 593.1,-86"/>
<polygon fill="midnightblue" stroke="midnightblue" points="633.9,-89.5 643.9,-86 633.9,-82.5 633.9,-89.5"/>
</g>
<!-- Node4 -->
<g id="node4" class="node">
<title>Node4</title>
<g id="a_node4"><a xlink:href="buddy_8c.html#a9ae41f7f508f07ceba45065973ce5507" target="_top" xlink:title=" ">
<polygon fill="none" stroke="black" points="421,-95.5 421,-114.5 496,-114.5 496,-95.5 421,-95.5"/>
<text text-anchor="middle" x="458.5" y="-102.5" font-family="Helvetica,sans-Serif" font-size="10.00">chunk_merge</text>
</a>
</g>
</g>
<!-- Node3&#45;&gt;Node4 -->
<g id="edge3" class="edge">
<title>Node3&#45;&gt;Node4</title>
<path fill="none" stroke="midnightblue" d="M521.95,-93.37C513.47,-94.95 504.55,-96.61 496.19,-98.17"/>
<polygon fill="midnightblue" stroke="midnightblue" points="522.81,-96.77 532,-91.5 521.53,-89.89 522.81,-96.77"/>
</g>
<!-- Node11 -->
<g id="node11" class="node">
<title>Node11</title>
<g id="a_node11"><a xlink:href="buddy_8c.html#aff6f2614df5664434766dd9c23971227" target="_top" xlink:title=" ">
<polygon fill="none" stroke="black" points="425.5,-57.5 425.5,-76.5 491.5,-76.5 491.5,-57.5 425.5,-57.5"/>
<text text-anchor="middle" x="458.5" y="-64.5" font-family="Helvetica,sans-Serif" font-size="10.00">chunk_split</text>
</a>
</g>
</g>
<!-- Node3&#45;&gt;Node11 -->
<g id="edge11" class="edge">
<title>Node3&#45;&gt;Node11</title>
<path fill="none" stroke="midnightblue" d="M521.9,-78.62C511.93,-76.77 501.35,-74.8 491.79,-73.02"/>
<polygon fill="midnightblue" stroke="midnightblue" points="521.53,-82.11 532,-80.5 522.81,-75.23 521.53,-82.11"/>
</g>
<!-- Node5 -->
<g id="node5" class="node">
<title>Node5</title>
<g id="a_node5"><a xlink:href="buddy_8c.html#a77f7615f76209d4083ef2d0826d90a1e" target="_top" xlink:title="free a chunk and process in deep.">
<polygon fill="none" stroke="black" points="318.5,-95.5 318.5,-114.5 383.5,-114.5 383.5,-95.5 318.5,-95.5"/>
<text text-anchor="middle" x="351" y="-102.5" font-family="Helvetica,sans-Serif" font-size="10.00">chunk_free</text>
</a>
</g>
</g>
<!-- Node4&#45;&gt;Node5 -->
<g id="edge4" class="edge">
<title>Node4&#45;&gt;Node5</title>
<path fill="none" stroke="midnightblue" d="M410.71,-105C401.55,-105 392.14,-105 383.62,-105"/>
<polygon fill="midnightblue" stroke="midnightblue" points="410.9,-108.5 420.9,-105 410.9,-101.5 410.9,-108.5"/>
</g>
<!-- Node6 -->
<g id="node6" class="node">
<title>Node6</title>
<g id="a_node6"><a xlink:href="buddy_8c.html#a571ce3de5539a52d40d9d11033519237" target="_top" xlink:title="initialize the buddy system">
<polygon fill="none" stroke="black" points="221,-133.5 221,-152.5 281,-152.5 281,-133.5 221,-133.5"/>
<text text-anchor="middle" x="251" y="-140.5" font-family="Helvetica,sans-Serif" font-size="10.00">buddy_init</text>
</a>
</g>
</g>
<!-- Node5&#45;&gt;Node6 -->
<g id="edge5" class="edge">
<title>Node5&#45;&gt;Node6</title>
<path fill="none" stroke="midnightblue" d="M315.79,-118.26C302.93,-123.25 288.56,-128.82 276.72,-133.41"/>
<polygon fill="midnightblue" stroke="midnightblue" points="317.21,-121.47 325.27,-114.59 314.68,-114.94 317.21,-121.47"/>
</g>
<!-- Node9 -->
<g id="node9" class="node">
<title>Node9</title>
<g id="a_node9"><a xlink:href="pmm_8c.html#a2cb876c0d76d35916d27ed1623195fbe" target="_top" xlink:title=" ">
<polygon fill="none" stroke="black" points="232,-95.5 232,-114.5 270,-114.5 270,-95.5 232,-95.5"/>
<text text-anchor="middle" x="251" y="-102.5" font-family="Helvetica,sans-Serif" font-size="10.00">kfree</text>
</a>
</g>
</g>
<!-- Node5&#45;&gt;Node9 -->
<g id="edge8" class="edge">
<title>Node5&#45;&gt;Node9</title>
<path fill="none" stroke="midnightblue" d="M308.42,-105C295.01,-105 280.84,-105 270.06,-105"/>
<polygon fill="midnightblue" stroke="midnightblue" points="308.45,-108.5 318.45,-105 308.45,-101.5 308.45,-108.5"/>
</g>
<!-- Node7 -->
<g id="node7" class="node">
<title>Node7</title>
<g id="a_node7"><a xlink:href="pmm_8c.html#a393796678826afd801058312f851ca43" target="_top" xlink:title=" ">
<polygon fill="none" stroke="black" points="124,-133.5 124,-152.5 180,-152.5 180,-133.5 124,-133.5"/>
<text text-anchor="middle" x="152" y="-140.5" font-family="Helvetica,sans-Serif" font-size="10.00">pmm_init</text>
</a>
</g>
</g>
<!-- Node6&#45;&gt;Node7 -->
<g id="edge6" class="edge">
<title>Node6&#45;&gt;Node7</title>
<path fill="none" stroke="midnightblue" d="M210.85,-143C200.53,-143 189.62,-143 180.09,-143"/>
<polygon fill="midnightblue" stroke="midnightblue" points="210.9,-146.5 220.9,-143 210.9,-139.5 210.9,-146.5"/>
</g>
<!-- Node8 -->
<g id="node8" class="node">
<title>Node8</title>
<g id="a_node8"><a xlink:href="pmm_8c.html#a7ada9deb0ae8705f2cc158b0283aaeb3" target="_top" xlink:title=" ">
<polygon fill="none" stroke="black" points="0,-76.5 0,-95.5 83,-95.5 83,-76.5 0,-76.5"/>
<text text-anchor="middle" x="41.5" y="-83.5" font-family="Helvetica,sans-Serif" font-size="10.00">MODULE_DEF</text>
</a>
</g>
</g>
<!-- Node7&#45;&gt;Node8 -->
<g id="edge7" class="edge">
<title>Node7&#45;&gt;Node8</title>
<path fill="none" stroke="midnightblue" d="M123.49,-128.55C103.78,-118.19 77.79,-104.54 60.63,-95.53"/>
<polygon fill="midnightblue" stroke="midnightblue" points="122.11,-131.78 132.59,-133.33 125.37,-125.58 122.11,-131.78"/>
</g>
<!-- Node10 -->
<g id="node10" class="node">
<title>Node10</title>
<g id="a_node10"><a xlink:href="pmm_8c.html#af2f46f4bce6a599542ce4d462aec9e2f" target="_top" xlink:title=" ">
<polygon fill="none" stroke="black" points="121,-95.5 121,-114.5 183,-114.5 183,-95.5 121,-95.5"/>
<text text-anchor="middle" x="152" y="-102.5" font-family="Helvetica,sans-Serif" font-size="10.00">kfree_safe</text>
</a>
</g>
</g>
<!-- Node9&#45;&gt;Node10 -->
<g id="edge9" class="edge">
<title>Node9&#45;&gt;Node10</title>
<path fill="none" stroke="midnightblue" d="M221.42,-105C209.45,-105 195.52,-105 183.37,-105"/>
<polygon fill="midnightblue" stroke="midnightblue" points="221.76,-108.5 231.76,-105 221.76,-101.5 221.76,-108.5"/>
</g>
<!-- Node10&#45;&gt;Node8 -->
<g id="edge10" class="edge">
<title>Node10&#45;&gt;Node8</title>
<path fill="none" stroke="midnightblue" d="M110.85,-97.97C101.8,-96.38 92.18,-94.7 83.11,-93.11"/>
<polygon fill="midnightblue" stroke="midnightblue" points="110.32,-101.43 120.78,-99.71 111.53,-94.53 110.32,-101.43"/>
</g>
<!-- Node12 -->
<g id="node12" class="node">
<title>Node12</title>
<g id="a_node12"><a xlink:href="buddy_8c.html#a37436a565869aa245cb46355dab020e2" target="_top" xlink:title=" ">
<polygon fill="none" stroke="black" points="317,-57.5 317,-76.5 385,-76.5 385,-57.5 317,-57.5"/>
<text text-anchor="middle" x="351" y="-64.5" font-family="Helvetica,sans-Serif" font-size="10.00">chunk_alloc</text>
</a>
</g>
</g>
<!-- Node11&#45;&gt;Node12 -->
<g id="edge12" class="edge">
<title>Node11&#45;&gt;Node12</title>
<path fill="none" stroke="midnightblue" d="M415.12,-67C405.13,-67 394.63,-67 385.12,-67"/>
<polygon fill="midnightblue" stroke="midnightblue" points="415.27,-70.5 425.27,-67 415.27,-63.5 415.27,-70.5"/>
</g>
<!-- Node13 -->
<g id="node13" class="node">
<title>Node13</title>
<g id="a_node13"><a xlink:href="pmm_8c.html#a350a830083f55f1886e000edec454a99" target="_top" xlink:title=" ">
<polygon fill="none" stroke="black" points="230,-57.5 230,-76.5 272,-76.5 272,-57.5 230,-57.5"/>
<text text-anchor="middle" x="251" y="-64.5" font-family="Helvetica,sans-Serif" font-size="10.00">kalloc</text>
</a>
</g>
</g>
<!-- Node12&#45;&gt;Node13 -->
<g id="edge13" class="edge">
<title>Node12&#45;&gt;Node13</title>
<path fill="none" stroke="midnightblue" d="M306.52,-67C294.59,-67 282.22,-67 272.28,-67"/>
<polygon fill="midnightblue" stroke="midnightblue" points="306.82,-70.5 316.82,-67 306.82,-63.5 306.82,-70.5"/>
</g>
<!-- Node14 -->
<g id="node14" class="node">
<title>Node14</title>
<g id="a_node14"><a xlink:href="pmm_8c.html#a20ccb461126d548299c6c21f157e6668" target="_top" xlink:title=" ">
<polygon fill="none" stroke="black" points="119,-57.5 119,-76.5 185,-76.5 185,-57.5 119,-57.5"/>
<text text-anchor="middle" x="152" y="-64.5" font-family="Helvetica,sans-Serif" font-size="10.00">kalloc_safe</text>
</a>
</g>
</g>
<!-- Node13&#45;&gt;Node14 -->
<g id="edge14" class="edge">
<title>Node13&#45;&gt;Node14</title>
<path fill="none" stroke="midnightblue" d="M219.57,-67C208.67,-67 196.35,-67 185.29,-67"/>
<polygon fill="midnightblue" stroke="midnightblue" points="219.9,-70.5 229.9,-67 219.9,-63.5 219.9,-70.5"/>
</g>
<!-- Node15 -->
<g id="node15" class="node">
<title>Node15</title>
<g id="a_node15"><a xlink:href="pmm_8c.html#aa3c60dcf10d21284e763d170dcbfb44f" target="_top" xlink:title=" ">
<polygon fill="none" stroke="black" points="128.5,-19.5 128.5,-38.5 175.5,-38.5 175.5,-19.5 128.5,-19.5"/>
<text text-anchor="middle" x="152" y="-26.5" font-family="Helvetica,sans-Serif" font-size="10.00">pgalloc</text>
</a>
</g>
</g>
<!-- Node13&#45;&gt;Node15 -->
<g id="edge16" class="edge">
<title>Node13&#45;&gt;Node15</title>
<path fill="none" stroke="midnightblue" d="M220.46,-55.43C206.11,-49.81 189.13,-43.15 175.79,-37.93"/>
<polygon fill="midnightblue" stroke="midnightblue" points="219.31,-58.74 229.9,-59.13 221.87,-52.22 219.31,-58.74"/>
</g>
<!-- Node14&#45;&gt;Node8 -->
<g id="edge15" class="edge">
<title>Node14&#45;&gt;Node8</title>
<path fill="none" stroke="midnightblue" d="M108.78,-74.39C100.41,-75.86 91.63,-77.4 83.31,-78.85"/>
<polygon fill="midnightblue" stroke="midnightblue" points="109.49,-77.82 118.74,-72.65 108.29,-70.93 109.49,-77.82"/>
</g>
<!-- Node15&#45;&gt;Node8 -->
<g id="edge17" class="edge">
<title>Node15&#45;&gt;Node8</title>
<path fill="none" stroke="midnightblue" d="M123.49,-43.45C103.78,-53.81 77.79,-67.46 60.63,-76.47"/>
<polygon fill="midnightblue" stroke="midnightblue" points="125.37,-46.42 132.59,-38.67 122.11,-40.22 125.37,-46.42"/>
</g>
</g>
</svg>
