<?xml version="1.0" encoding="UTF-8" standalone="no"?>
<!DOCTYPE svg PUBLIC "-//W3C//DTD SVG 1.1//EN"
 "http://www.w3.org/Graphics/SVG/1.1/DTD/svg11.dtd">
<!-- Generated by graphviz version 3.0.0 (20220413.0106)
 -->
<!-- Title: __list_add Pages: 1 -->
<svg width="821pt" height="142pt"
 viewBox="0.00 0.00 821.00 142.00" xmlns="http://www.w3.org/2000/svg" xmlns:xlink="http://www.w3.org/1999/xlink">
<g id="graph0" class="graph" transform="scale(1 1) rotate(0) translate(4 138)">
<title>__list_add</title>
<!-- Node1 -->
<g id="node1" class="node">
<title>Node1</title>
<g id="a_node1"><a xlink:title=" ">
<polygon fill="#bfbfbf" stroke="black" points="752,-19.5 752,-38.5 813,-38.5 813,-19.5 752,-19.5"/>
<text text-anchor="middle" x="782.5" y="-26.5" font-family="Helvetica,sans-Serif" font-size="10.00">__list_add</text>
</a>
</g>
</g>
<!-- Node2 -->
<g id="node2" class="node">
<title>Node2</title>
<g id="a_node2"><a xlink:href="list_8h.html#a06a80666b3364324fc601ab7ae1ff20b" target="_top" xlink:title=" ">
<polygon fill="none" stroke="black" points="657,-38.5 657,-57.5 707,-57.5 707,-38.5 657,-38.5"/>
<text text-anchor="middle" x="682" y="-45.5" font-family="Helvetica,sans-Serif" font-size="10.00">list_add</text>
</a>
</g>
</g>
<!-- Node1&#45;&gt;Node2 -->
<g id="edge1" class="edge">
<title>Node1&#45;&gt;Node2</title>
<path fill="none" stroke="midnightblue" d="M741.9,-36.64C730.17,-38.9 717.68,-41.31 707.23,-43.33"/>
<polygon fill="midnightblue" stroke="midnightblue" points="742.79,-40.03 751.95,-34.7 741.46,-33.16 742.79,-40.03"/>
</g>
<!-- Node16 -->
<g id="node16" class="node">
<title>Node16</title>
<g id="a_node16"><a xlink:href="list_8h.html#a8cd2cde4d6c647371a73250b92140935" target="_top" xlink:title=" ">
<polygon fill="none" stroke="black" points="648,-0.5 648,-19.5 716,-19.5 716,-0.5 648,-0.5"/>
<text text-anchor="middle" x="682" y="-7.5" font-family="Helvetica,sans-Serif" font-size="10.00">list_add_tail</text>
</a>
</g>
</g>
<!-- Node1&#45;&gt;Node16 -->
<g id="edge18" class="edge">
<title>Node1&#45;&gt;Node16</title>
<path fill="none" stroke="midnightblue" d="M741.88,-21.36C733.41,-19.72 724.54,-18.01 716.33,-16.43"/>
<polygon fill="midnightblue" stroke="midnightblue" points="741.46,-24.84 751.95,-23.3 742.79,-17.97 741.46,-24.84"/>
</g>
<!-- Node3 -->
<g id="node3" class="node">
<title>Node3</title>
<g id="a_node3"><a xlink:href="buddy_8c.html#acd10ee3138eeeac7c91ef5928f2135ea" target="_top" xlink:title="make a chunk added to free list.">
<polygon fill="none" stroke="black" points="532,-76.5 532,-95.5 612,-95.5 612,-76.5 532,-76.5"/>
<text text-anchor="middle" x="572" y="-83.5" font-family="Helvetica,sans-Serif" font-size="10.00">chunk_append</text>
</a>
</g>
</g>
<!-- Node2&#45;&gt;Node3 -->
<g id="edge2" class="edge">
<title>Node2&#45;&gt;Node3</title>
<path fill="none" stroke="midnightblue" d="M647.23,-59.88C632.09,-65.21 614.47,-71.41 600.2,-76.43"/>
<polygon fill="midnightblue" stroke="midnightblue" points="648.49,-63.15 656.76,-56.53 646.17,-56.55 648.49,-63.15"/>
</g>
<!-- Node15 -->
<g id="node15" class="node">
<title>Node15</title>
<g id="a_node15"><a xlink:href="list_8h.html#aee8df43e41969c2272acfd6ed6e75d4c" target="_top" xlink:title=" ">
<polygon fill="none" stroke="black" points="542.5,-38.5 542.5,-57.5 601.5,-57.5 601.5,-38.5 542.5,-38.5"/>
<text text-anchor="middle" x="572" y="-45.5" font-family="Helvetica,sans-Serif" font-size="10.00">list_move</text>
</a>
</g>
</g>
<!-- Node2&#45;&gt;Node15 -->
<g id="edge17" class="edge">
<title>Node2&#45;&gt;Node15</title>
<path fill="none" stroke="midnightblue" d="M646.69,-48C632.22,-48 615.56,-48 601.75,-48"/>
<polygon fill="midnightblue" stroke="midnightblue" points="646.76,-51.5 656.76,-48 646.76,-44.5 646.76,-51.5"/>
</g>
<!-- Node4 -->
<g id="node4" class="node">
<title>Node4</title>
<g id="a_node4"><a xlink:href="buddy_8c.html#a77f7615f76209d4083ef2d0826d90a1e" target="_top" xlink:title="free a chunk and process in deep.">
<polygon fill="none" stroke="black" points="318.5,-95.5 318.5,-114.5 383.5,-114.5 383.5,-95.5 318.5,-95.5"/>
<text text-anchor="middle" x="351" y="-102.5" font-family="Helvetica,sans-Serif" font-size="10.00">chunk_free</text>
</a>
</g>
</g>
<!-- Node3&#45;&gt;Node4 -->
<g id="edge3" class="edge">
<title>Node3&#45;&gt;Node4</title>
<path fill="none" stroke="midnightblue" d="M530.77,-98.14C519.62,-100.97 507.43,-103.57 496,-105 457.55,-109.79 412.87,-108.78 383.6,-107.24"/>
<polygon fill="midnightblue" stroke="midnightblue" points="531.91,-101.46 540.68,-95.5 530.11,-94.7 531.91,-101.46"/>
</g>
<!-- Node10 -->
<g id="node10" class="node">
<title>Node10</title>
<g id="a_node10"><a xlink:href="buddy_8c.html#a9ae41f7f508f07ceba45065973ce5507" target="_top" xlink:title=" ">
<polygon fill="none" stroke="black" points="421,-76.5 421,-95.5 496,-95.5 496,-76.5 421,-76.5"/>
<text text-anchor="middle" x="458.5" y="-83.5" font-family="Helvetica,sans-Serif" font-size="10.00">chunk_merge</text>
</a>
</g>
</g>
<!-- Node3&#45;&gt;Node10 -->
<g id="edge10" class="edge">
<title>Node3&#45;&gt;Node10</title>
<path fill="none" stroke="midnightblue" d="M521.48,-86C512.99,-86 504.3,-86 496.22,-86"/>
<polygon fill="midnightblue" stroke="midnightblue" points="521.69,-89.5 531.69,-86 521.69,-82.5 521.69,-89.5"/>
</g>
<!-- Node11 -->
<g id="node11" class="node">
<title>Node11</title>
<g id="a_node11"><a xlink:href="buddy_8c.html#aff6f2614df5664434766dd9c23971227" target="_top" xlink:title=" ">
<polygon fill="none" stroke="black" points="425.5,-38.5 425.5,-57.5 491.5,-57.5 491.5,-38.5 425.5,-38.5"/>
<text text-anchor="middle" x="458.5" y="-45.5" font-family="Helvetica,sans-Serif" font-size="10.00">chunk_split</text>
</a>
</g>
</g>
<!-- Node3&#45;&gt;Node11 -->
<g id="edge12" class="edge">
<title>Node3&#45;&gt;Node11</title>
<path fill="none" stroke="midnightblue" d="M533.37,-73.17C518.41,-68.08 501.49,-62.31 487.63,-57.59"/>
<polygon fill="midnightblue" stroke="midnightblue" points="532.27,-76.5 542.86,-76.41 534.53,-69.87 532.27,-76.5"/>
</g>
<!-- Node5 -->
<g id="node5" class="node">
<title>Node5</title>
<g id="a_node5"><a xlink:href="buddy_8c.html#a571ce3de5539a52d40d9d11033519237" target="_top" xlink:title="initialize the buddy system">
<polygon fill="none" stroke="black" points="221,-114.5 221,-133.5 281,-133.5 281,-114.5 221,-114.5"/>
<text text-anchor="middle" x="251" y="-121.5" font-family="Helvetica,sans-Serif" font-size="10.00">buddy_init</text>
</a>
</g>
</g>
<!-- Node4&#45;&gt;Node5 -->
<g id="edge4" class="edge">
<title>Node4&#45;&gt;Node5</title>
<path fill="none" stroke="midnightblue" d="M308.34,-113.08C299.19,-114.85 289.69,-116.69 281.16,-118.35"/>
<polygon fill="midnightblue" stroke="midnightblue" points="309.3,-116.46 318.45,-111.12 307.97,-109.58 309.3,-116.46"/>
</g>
<!-- Node8 -->
<g id="node8" class="node">
<title>Node8</title>
<g id="a_node8"><a xlink:href="pmm_8c.html#a2cb876c0d76d35916d27ed1623195fbe" target="_top" xlink:title=" ">
<polygon fill="none" stroke="black" points="232,-76.5 232,-95.5 270,-95.5 270,-76.5 232,-76.5"/>
<text text-anchor="middle" x="251" y="-83.5" font-family="Helvetica,sans-Serif" font-size="10.00">kfree</text>
</a>
</g>
</g>
<!-- Node4&#45;&gt;Node8 -->
<g id="edge7" class="edge">
<title>Node4&#45;&gt;Node8</title>
<path fill="none" stroke="midnightblue" d="M308.42,-96.94C295.01,-94.34 280.84,-91.59 270.06,-89.5"/>
<polygon fill="midnightblue" stroke="midnightblue" points="307.97,-100.42 318.45,-98.88 309.3,-93.54 307.97,-100.42"/>
</g>
<!-- Node6 -->
<g id="node6" class="node">
<title>Node6</title>
<g id="a_node6"><a xlink:href="pmm_8c.html#a393796678826afd801058312f851ca43" target="_top" xlink:title=" ">
<polygon fill="none" stroke="black" points="124,-114.5 124,-133.5 180,-133.5 180,-114.5 124,-114.5"/>
<text text-anchor="middle" x="152" y="-121.5" font-family="Helvetica,sans-Serif" font-size="10.00">pmm_init</text>
</a>
</g>
</g>
<!-- Node5&#45;&gt;Node6 -->
<g id="edge5" class="edge">
<title>Node5&#45;&gt;Node6</title>
<path fill="none" stroke="midnightblue" d="M210.85,-124C200.53,-124 189.62,-124 180.09,-124"/>
<polygon fill="midnightblue" stroke="midnightblue" points="210.9,-127.5 220.9,-124 210.9,-120.5 210.9,-127.5"/>
</g>
<!-- Node7 -->
<g id="node7" class="node">
<title>Node7</title>
<g id="a_node7"><a xlink:href="pmm_8c.html#a7ada9deb0ae8705f2cc158b0283aaeb3" target="_top" xlink:title=" ">
<polygon fill="none" stroke="black" points="0,-76.5 0,-95.5 83,-95.5 83,-76.5 0,-76.5"/>
<text text-anchor="middle" x="41.5" y="-83.5" font-family="Helvetica,sans-Serif" font-size="10.00">MODULE_DEF</text>
</a>
</g>
</g>
<!-- Node6&#45;&gt;Node7 -->
<g id="edge6" class="edge">
<title>Node6&#45;&gt;Node7</title>
<path fill="none" stroke="midnightblue" d="M114.16,-111.1C99.57,-105.99 83.1,-100.22 69.63,-95.5"/>
<polygon fill="midnightblue" stroke="midnightblue" points="113.31,-114.51 123.9,-114.51 115.62,-107.9 113.31,-114.51"/>
</g>
<!-- Node9 -->
<g id="node9" class="node">
<title>Node9</title>
<g id="a_node9"><a xlink:href="pmm_8c.html#af2f46f4bce6a599542ce4d462aec9e2f" target="_top" xlink:title=" ">
<polygon fill="none" stroke="black" points="121,-76.5 121,-95.5 183,-95.5 183,-76.5 121,-76.5"/>
<text text-anchor="middle" x="152" y="-83.5" font-family="Helvetica,sans-Serif" font-size="10.00">kfree_safe</text>
</a>
</g>
</g>
<!-- Node8&#45;&gt;Node9 -->
<g id="edge8" class="edge">
<title>Node8&#45;&gt;Node9</title>
<path fill="none" stroke="midnightblue" d="M221.42,-86C209.45,-86 195.52,-86 183.37,-86"/>
<polygon fill="midnightblue" stroke="midnightblue" points="221.76,-89.5 231.76,-86 221.76,-82.5 221.76,-89.5"/>
</g>
<!-- Node9&#45;&gt;Node7 -->
<g id="edge9" class="edge">
<title>Node9&#45;&gt;Node7</title>
<path fill="none" stroke="midnightblue" d="M110.56,-86C101.59,-86 92.08,-86 83.11,-86"/>
<polygon fill="midnightblue" stroke="midnightblue" points="110.78,-89.5 120.78,-86 110.78,-82.5 110.78,-89.5"/>
</g>
<!-- Node10&#45;&gt;Node4 -->
<g id="edge11" class="edge">
<title>Node10&#45;&gt;Node4</title>
<path fill="none" stroke="midnightblue" d="M411.01,-94.37C401.75,-96.04 392.24,-97.75 383.62,-99.31"/>
<polygon fill="midnightblue" stroke="midnightblue" points="411.68,-97.81 420.9,-92.59 410.44,-90.92 411.68,-97.81"/>
</g>
<!-- Node12 -->
<g id="node12" class="node">
<title>Node12</title>
<g id="a_node12"><a xlink:href="buddy_8c.html#a37436a565869aa245cb46355dab020e2" target="_top" xlink:title=" ">
<polygon fill="none" stroke="black" points="317,-38.5 317,-57.5 385,-57.5 385,-38.5 317,-38.5"/>
<text text-anchor="middle" x="351" y="-45.5" font-family="Helvetica,sans-Serif" font-size="10.00">chunk_alloc</text>
</a>
</g>
</g>
<!-- Node11&#45;&gt;Node12 -->
<g id="edge13" class="edge">
<title>Node11&#45;&gt;Node12</title>
<path fill="none" stroke="midnightblue" d="M415.12,-48C405.13,-48 394.63,-48 385.12,-48"/>
<polygon fill="midnightblue" stroke="midnightblue" points="415.27,-51.5 425.27,-48 415.27,-44.5 415.27,-51.5"/>
</g>
<!-- Node13 -->
<g id="node13" class="node">
<title>Node13</title>
<g id="a_node13"><a xlink:href="pmm_8c.html#a350a830083f55f1886e000edec454a99" target="_top" xlink:title=" ">
<polygon fill="none" stroke="black" points="230,-38.5 230,-57.5 272,-57.5 272,-38.5 230,-38.5"/>
<text text-anchor="middle" x="251" y="-45.5" font-family="Helvetica,sans-Serif" font-size="10.00">kalloc</text>
</a>
</g>
</g>
<!-- Node12&#45;&gt;Node13 -->
<g id="edge14" class="edge">
<title>Node12&#45;&gt;Node13</title>
<path fill="none" stroke="midnightblue" d="M306.52,-48C294.59,-48 282.22,-48 272.28,-48"/>
<polygon fill="midnightblue" stroke="midnightblue" points="306.82,-51.5 316.82,-48 306.82,-44.5 306.82,-51.5"/>
</g>
<!-- Node14 -->
<g id="node14" class="node">
<title>Node14</title>
<g id="a_node14"><a xlink:href="pmm_8c.html#a20ccb461126d548299c6c21f157e6668" target="_top" xlink:title=" ">
<polygon fill="none" stroke="black" points="119,-38.5 119,-57.5 185,-57.5 185,-38.5 119,-38.5"/>
<text text-anchor="middle" x="152" y="-45.5" font-family="Helvetica,sans-Serif" font-size="10.00">kalloc_safe</text>
</a>
</g>
</g>
<!-- Node13&#45;&gt;Node14 -->
<g id="edge15" class="edge">
<title>Node13&#45;&gt;Node14</title>
<path fill="none" stroke="midnightblue" d="M219.57,-48C208.67,-48 196.35,-48 185.29,-48"/>
<polygon fill="midnightblue" stroke="midnightblue" points="219.9,-51.5 229.9,-48 219.9,-44.5 219.9,-51.5"/>
</g>
<!-- Node14&#45;&gt;Node7 -->
<g id="edge16" class="edge">
<title>Node14&#45;&gt;Node7</title>
<path fill="none" stroke="midnightblue" d="M113.96,-60.97C99.51,-66.03 83.23,-71.73 69.87,-76.41"/>
<polygon fill="midnightblue" stroke="midnightblue" points="115.34,-64.2 123.62,-57.59 113.03,-57.59 115.34,-64.2"/>
</g>
<!-- Node17 -->
<g id="node17" class="node">
<title>Node17</title>
<g id="a_node17"><a xlink:href="list_8h.html#a1c5ac6a6b04a03f5782e818daacf96e9" target="_top" xlink:title=" ">
<polygon fill="none" stroke="black" points="533.5,-0.5 533.5,-19.5 610.5,-19.5 610.5,-0.5 533.5,-0.5"/>
<text text-anchor="middle" x="572" y="-7.5" font-family="Helvetica,sans-Serif" font-size="10.00">list_move_tail</text>
</a>
</g>
</g>
<!-- Node16&#45;&gt;Node17 -->
<g id="edge19" class="edge">
<title>Node16&#45;&gt;Node17</title>
<path fill="none" stroke="midnightblue" d="M637.47,-10C628.54,-10 619.21,-10 610.51,-10"/>
<polygon fill="midnightblue" stroke="midnightblue" points="637.72,-13.5 647.72,-10 637.72,-6.5 637.72,-13.5"/>
</g>
</g>
</svg>
