<?xml version="1.0" encoding="UTF-8" standalone="no"?>
<!DOCTYPE svg PUBLIC "-//W3C//DTD SVG 1.1//EN"
 "http://www.w3.org/Graphics/SVG/1.1/DTD/svg11.dtd">
<!-- Generated by graphviz version 3.0.0 (20220413.0106)
 -->
<!-- Title: kernel/include/list.h Pages: 1 -->
<svg width="637pt" height="263pt"
 viewBox="0.00 0.00 637.00 263.00" xmlns="http://www.w3.org/2000/svg" xmlns:xlink="http://www.w3.org/1999/xlink">
<g id="graph0" class="graph" transform="scale(1 1) rotate(0) translate(4 259)">
<title>kernel/include/list.h</title>
<!-- Node1 -->
<g id="node1" class="node">
<title>Node1</title>
<g id="a_node1"><a xlink:title="double circular linked list impl without concurrency">
<polygon fill="#bfbfbf" stroke="black" points="292,-235.5 292,-254.5 392,-254.5 392,-235.5 292,-235.5"/>
<text text-anchor="middle" x="342" y="-242.5" font-family="Helvetica,sans-Serif" font-size="10.00">kernel/include/list.h</text>
</a>
</g>
</g>
<!-- Node2 -->
<g id="node2" class="node">
<title>Node2</title>
<g id="a_node2"><a xlink:href="buddy_8h.html" target="_top" xlink:title=" ">
<polygon fill="none" stroke="black" points="208.5,-179.5 208.5,-198.5 321.5,-198.5 321.5,-179.5 208.5,-179.5"/>
<text text-anchor="middle" x="265" y="-186.5" font-family="Helvetica,sans-Serif" font-size="10.00">kernel/include/buddy.h</text>
</a>
</g>
</g>
<!-- Node1&#45;&gt;Node2 -->
<g id="edge1" class="edge">
<title>Node1&#45;&gt;Node2</title>
<path fill="none" stroke="midnightblue" d="M321.1,-229.34C307.09,-219.52 289.12,-206.91 277.34,-198.65"/>
<polygon fill="midnightblue" stroke="midnightblue" points="319.43,-232.45 329.63,-235.32 323.45,-226.72 319.43,-232.45"/>
</g>
<!-- Node5 -->
<g id="node5" class="node">
<title>Node5</title>
<g id="a_node5"><a xlink:href="thread_8h.html" target="_top" xlink:title=" ">
<polygon fill="none" stroke="black" points="363,-179.5 363,-198.5 477,-198.5 477,-179.5 363,-179.5"/>
<text text-anchor="middle" x="420" y="-186.5" font-family="Helvetica,sans-Serif" font-size="10.00">kernel/include/thread.h</text>
</a>
</g>
</g>
<!-- Node1&#45;&gt;Node5 -->
<g id="edge4" class="edge">
<title>Node1&#45;&gt;Node5</title>
<path fill="none" stroke="midnightblue" d="M362.77,-229.62C377.02,-219.76 395.46,-206.99 407.5,-198.65"/>
<polygon fill="midnightblue" stroke="midnightblue" points="360.76,-226.75 354.53,-235.32 364.75,-232.51 360.76,-226.75"/>
</g>
<!-- Node3 -->
<g id="node3" class="node">
<title>Node3</title>
<g id="a_node3"><a xlink:href="buddy_8c.html" target="_top" xlink:title="impl of buddy system">
<polygon fill="none" stroke="black" points="105.5,-123.5 105.5,-142.5 200.5,-142.5 200.5,-123.5 105.5,-123.5"/>
<text text-anchor="middle" x="153" y="-130.5" font-family="Helvetica,sans-Serif" font-size="10.00">kernel/src/buddy.c</text>
</a>
</g>
</g>
<!-- Node2&#45;&gt;Node3 -->
<g id="edge2" class="edge">
<title>Node2&#45;&gt;Node3</title>
<path fill="none" stroke="midnightblue" d="M237.75,-174.86C216.98,-164.85 188.98,-151.35 170.95,-142.65"/>
<polygon fill="midnightblue" stroke="midnightblue" points="236.48,-178.13 247.01,-179.32 239.52,-171.83 236.48,-178.13"/>
</g>
<!-- Node4 -->
<g id="node4" class="node">
<title>Node4</title>
<g id="a_node4"><a xlink:href="pmm_8c.html" target="_top" xlink:title=" ">
<polygon fill="none" stroke="black" points="219,-123.5 219,-142.5 311,-142.5 311,-123.5 219,-123.5"/>
<text text-anchor="middle" x="265" y="-130.5" font-family="Helvetica,sans-Serif" font-size="10.00">kernel/src/pmm.c</text>
</a>
</g>
</g>
<!-- Node2&#45;&gt;Node4 -->
<g id="edge3" class="edge">
<title>Node2&#45;&gt;Node4</title>
<path fill="none" stroke="midnightblue" d="M265,-168.8C265,-159.91 265,-149.78 265,-142.75"/>
<polygon fill="midnightblue" stroke="midnightblue" points="261.5,-169.08 265,-179.08 268.5,-169.08 261.5,-169.08"/>
</g>
<!-- Node6 -->
<g id="node6" class="node">
<title>Node6</title>
<g id="a_node6"><a xlink:href="devices_8h.html" target="_top" xlink:title=" ">
<polygon fill="none" stroke="black" points="236.5,-67.5 236.5,-86.5 357.5,-86.5 357.5,-67.5 236.5,-67.5"/>
<text text-anchor="middle" x="297" y="-74.5" font-family="Helvetica,sans-Serif" font-size="10.00">kernel/include/devices.h</text>
</a>
</g>
</g>
<!-- Node5&#45;&gt;Node6 -->
<g id="edge5" class="edge">
<title>Node5&#45;&gt;Node6</title>
<path fill="none" stroke="midnightblue" d="M398.33,-173.77C386.06,-165.36 370.69,-154.18 358,-143 337.1,-124.58 315.44,-99.93 304.41,-86.91"/>
<polygon fill="midnightblue" stroke="midnightblue" points="396.38,-176.68 406.63,-179.37 400.3,-170.88 396.38,-176.68"/>
</g>
<!-- Node12 -->
<g id="node12" class="node">
<title>Node12</title>
<g id="a_node12"><a xlink:href="sem_8h.html" target="_top" xlink:title=" ">
<polygon fill="none" stroke="black" points="367,-123.5 367,-142.5 473,-142.5 473,-123.5 367,-123.5"/>
<text text-anchor="middle" x="420" y="-130.5" font-family="Helvetica,sans-Serif" font-size="10.00">kernel/include/sem.h</text>
</a>
</g>
</g>
<!-- Node5&#45;&gt;Node12 -->
<g id="edge11" class="edge">
<title>Node5&#45;&gt;Node12</title>
<path fill="none" stroke="midnightblue" d="M420,-168.8C420,-159.91 420,-149.78 420,-142.75"/>
<polygon fill="midnightblue" stroke="midnightblue" points="416.5,-169.08 420,-179.08 423.5,-169.08 416.5,-169.08"/>
</g>
<!-- Node13 -->
<g id="node13" class="node">
<title>Node13</title>
<g id="a_node13"><a xlink:href="kmt_8c.html" target="_top" xlink:title=" ">
<polygon fill="none" stroke="black" points="483,-67.5 483,-86.5 569,-86.5 569,-67.5 483,-67.5"/>
<text text-anchor="middle" x="526" y="-74.5" font-family="Helvetica,sans-Serif" font-size="10.00">kernel/src/kmt.c</text>
</a>
</g>
</g>
<!-- Node5&#45;&gt;Node13 -->
<g id="edge15" class="edge">
<title>Node5&#45;&gt;Node13</title>
<path fill="none" stroke="midnightblue" d="M443.09,-174.04C455.45,-165.91 470.46,-154.92 482,-143 499.25,-125.18 514.21,-99.84 521.42,-86.69"/>
<polygon fill="midnightblue" stroke="midnightblue" points="441.19,-171.1 434.64,-179.43 444.95,-177 441.19,-171.1"/>
</g>
<!-- Node15 -->
<g id="node15" class="node">
<title>Node15</title>
<g id="a_node15"><a xlink:href="syscall_8c.html" target="_top" xlink:title=" ">
<polygon fill="none" stroke="black" points="529,-123.5 529,-142.5 629,-142.5 629,-123.5 529,-123.5"/>
<text text-anchor="middle" x="579" y="-130.5" font-family="Helvetica,sans-Serif" font-size="10.00">kernel/src/syscall.c</text>
</a>
</g>
</g>
<!-- Node5&#45;&gt;Node15 -->
<g id="edge16" class="edge">
<title>Node5&#45;&gt;Node15</title>
<path fill="none" stroke="midnightblue" d="M454.83,-176.17C484.77,-166 527.22,-151.59 553.92,-142.52"/>
<polygon fill="midnightblue" stroke="midnightblue" points="453.54,-172.91 445.19,-179.44 455.79,-179.54 453.54,-172.91"/>
</g>
<!-- Node7 -->
<g id="node7" class="node">
<title>Node7</title>
<g id="a_node7"><a xlink:href="dev_8c.html" target="_top" xlink:title=" ">
<polygon fill="none" stroke="black" points="0,-6 0,-25 104,-25 104,-6 0,-6"/>
<text text-anchor="middle" x="52" y="-13" font-family="Helvetica,sans-Serif" font-size="10.00">kernel/src/dev/dev.c</text>
</a>
</g>
</g>
<!-- Node6&#45;&gt;Node7 -->
<g id="edge6" class="edge">
<title>Node6&#45;&gt;Node7</title>
<path fill="none" stroke="midnightblue" d="M252.17,-65.11C204.62,-53.57 130.49,-35.56 87.04,-25.01"/>
<polygon fill="midnightblue" stroke="midnightblue" points="251.35,-68.52 261.9,-67.48 253.01,-61.71 251.35,-68.52"/>
</g>
<!-- Node8 -->
<g id="node8" class="node">
<title>Node8</title>
<g id="a_node8"><a xlink:href="dev__input_8c.html" target="_top" xlink:title=" ">
<polygon fill="none" stroke="black" points="122.5,-0.5 122.5,-30.5 219.5,-30.5 219.5,-0.5 122.5,-0.5"/>
<text text-anchor="start" x="130.5" y="-18.5" font-family="Helvetica,sans-Serif" font-size="10.00">kernel/src/dev/dev</text>
<text text-anchor="middle" x="171" y="-7.5" font-family="Helvetica,sans-Serif" font-size="10.00">_input.c</text>
</a>
</g>
</g>
<!-- Node6&#45;&gt;Node8 -->
<g id="edge7" class="edge">
<title>Node6&#45;&gt;Node8</title>
<path fill="none" stroke="midnightblue" d="M269.89,-63.2C249.53,-53.58 221.66,-40.42 200.7,-30.52"/>
<polygon fill="midnightblue" stroke="midnightblue" points="268.41,-66.37 278.95,-67.48 271.4,-60.04 268.41,-66.37"/>
</g>
<!-- Node9 -->
<g id="node9" class="node">
<title>Node9</title>
<g id="a_node9"><a xlink:href="dev__sd_8c.html" target="_top" xlink:title=" ">
<polygon fill="none" stroke="black" points="237,-6 237,-25 357,-25 357,-6 237,-6"/>
<text text-anchor="middle" x="297" y="-13" font-family="Helvetica,sans-Serif" font-size="10.00">kernel/src/dev/dev_sd.c</text>
</a>
</g>
</g>
<!-- Node6&#45;&gt;Node9 -->
<g id="edge8" class="edge">
<title>Node6&#45;&gt;Node9</title>
<path fill="none" stroke="midnightblue" d="M297,-57.32C297,-46.5 297,-33.4 297,-25.01"/>
<polygon fill="midnightblue" stroke="midnightblue" points="293.5,-57.48 297,-67.48 300.5,-57.48 293.5,-57.48"/>
</g>
<!-- Node10 -->
<g id="node10" class="node">
<title>Node10</title>
<g id="a_node10"><a xlink:href="dev__tty_8c.html" target="_top" xlink:title=" ">
<polygon fill="none" stroke="black" points="374.5,-0.5 374.5,-30.5 471.5,-30.5 471.5,-0.5 374.5,-0.5"/>
<text text-anchor="start" x="382.5" y="-18.5" font-family="Helvetica,sans-Serif" font-size="10.00">kernel/src/dev/dev</text>
<text text-anchor="middle" x="423" y="-7.5" font-family="Helvetica,sans-Serif" font-size="10.00">_tty.c</text>
</a>
</g>
</g>
<!-- Node6&#45;&gt;Node10 -->
<g id="edge9" class="edge">
<title>Node6&#45;&gt;Node10</title>
<path fill="none" stroke="midnightblue" d="M324.11,-63.2C344.47,-53.58 372.34,-40.42 393.3,-30.52"/>
<polygon fill="midnightblue" stroke="midnightblue" points="322.6,-60.04 315.05,-67.48 325.59,-66.37 322.6,-60.04"/>
</g>
<!-- Node11 -->
<g id="node11" class="node">
<title>Node11</title>
<g id="a_node11"><a xlink:href="dev__video_8c.html" target="_top" xlink:title=" ">
<polygon fill="none" stroke="black" points="489.5,-0.5 489.5,-30.5 586.5,-30.5 586.5,-0.5 489.5,-0.5"/>
<text text-anchor="start" x="497.5" y="-18.5" font-family="Helvetica,sans-Serif" font-size="10.00">kernel/src/dev/dev</text>
<text text-anchor="middle" x="538" y="-7.5" font-family="Helvetica,sans-Serif" font-size="10.00">_video.c</text>
</a>
</g>
</g>
<!-- Node6&#45;&gt;Node11 -->
<g id="edge10" class="edge">
<title>Node6&#45;&gt;Node11</title>
<path fill="none" stroke="midnightblue" d="M342.34,-65.04C379.6,-55.99 433.75,-42.79 481,-31 483.77,-30.31 486.62,-29.59 489.5,-28.87"/>
<polygon fill="midnightblue" stroke="midnightblue" points="341.19,-61.71 332.3,-67.47 342.84,-68.51 341.19,-61.71"/>
</g>
<!-- Node12&#45;&gt;Node6 -->
<g id="edge12" class="edge">
<title>Node12&#45;&gt;Node6</title>
<path fill="none" stroke="midnightblue" d="M391.23,-119.37C368.19,-109.26 336.52,-95.35 316.4,-86.52"/>
<polygon fill="midnightblue" stroke="midnightblue" points="389.95,-122.63 400.51,-123.44 392.76,-116.22 389.95,-122.63"/>
</g>
<!-- Node12&#45;&gt;Node13 -->
<g id="edge13" class="edge">
<title>Node12&#45;&gt;Node13</title>
<path fill="none" stroke="midnightblue" d="M446.06,-118.73C465.68,-108.73 492.03,-95.31 509.01,-86.65"/>
<polygon fill="midnightblue" stroke="midnightblue" points="444.35,-115.67 437.03,-123.32 447.53,-121.9 444.35,-115.67"/>
</g>
<!-- Node14 -->
<g id="node14" class="node">
<title>Node14</title>
<g id="a_node14"><a xlink:href="sem_8c.html" target="_top" xlink:title=" ">
<polygon fill="none" stroke="black" points="375.5,-67.5 375.5,-86.5 464.5,-86.5 464.5,-67.5 375.5,-67.5"/>
<text text-anchor="middle" x="420" y="-74.5" font-family="Helvetica,sans-Serif" font-size="10.00">kernel/src/sem.c</text>
</a>
</g>
</g>
<!-- Node12&#45;&gt;Node14 -->
<g id="edge14" class="edge">
<title>Node12&#45;&gt;Node14</title>
<path fill="none" stroke="midnightblue" d="M420,-112.8C420,-103.91 420,-93.78 420,-86.75"/>
<polygon fill="midnightblue" stroke="midnightblue" points="416.5,-113.08 420,-123.08 423.5,-113.08 416.5,-113.08"/>
</g>
</g>
</svg>
