<?xml version="1.0" encoding="UTF-8" standalone="no"?>
<!DOCTYPE svg PUBLIC "-//W3C//DTD SVG 1.1//EN"
 "http://www.w3.org/Graphics/SVG/1.1/DTD/svg11.dtd">
<!-- Generated by graphviz version 3.0.0 (20220413.0106)
 -->
<!-- Title: abstract&#45;machine/klib/include/logger.h Pages: 1 -->
<svg width="908pt" height="397pt"
 viewBox="0.00 0.00 908.15 397.00" xmlns="http://www.w3.org/2000/svg" xmlns:xlink="http://www.w3.org/1999/xlink">
<g id="graph0" class="graph" transform="scale(1 1) rotate(0) translate(4 393)">
<title>abstract&#45;machine/klib/include/logger.h</title>
<!-- Node1 -->
<g id="node1" class="node">
<title>Node1</title>
<g id="a_node1"><a xlink:title=" ">
<polygon fill="#bfbfbf" stroke="black" points="709.15,-358.5 709.15,-388.5 819.15,-388.5 819.15,-358.5 709.15,-358.5"/>
<text text-anchor="start" x="717.15" y="-376.5" font-family="Helvetica,sans-Serif" font-size="10.00">abstract&#45;machine/klib</text>
<text text-anchor="middle" x="764.15" y="-365.5" font-family="Helvetica,sans-Serif" font-size="10.00">/include/logger.h</text>
</a>
</g>
</g>
<!-- Node2 -->
<g id="node2" class="node">
<title>Node2</title>
<g id="a_node2"><a xlink:href="logger_8c.html" target="_top" xlink:title=" ">
<polygon fill="none" stroke="black" points="389.15,-291.5 389.15,-321.5 499.15,-321.5 499.15,-291.5 389.15,-291.5"/>
<text text-anchor="start" x="397.15" y="-309.5" font-family="Helvetica,sans-Serif" font-size="10.00">abstract&#45;machine/klib</text>
<text text-anchor="middle" x="444.15" y="-298.5" font-family="Helvetica,sans-Serif" font-size="10.00">/src/logger.c</text>
</a>
</g>
</g>
<!-- Node1&#45;&gt;Node2 -->
<g id="edge1" class="edge">
<title>Node1&#45;&gt;Node2</title>
<path fill="none" stroke="midnightblue" d="M698.85,-360.01C647.28,-350.05 573.53,-335.55 509.15,-322 505.98,-321.33 502.73,-320.64 499.45,-319.93"/>
<polygon fill="midnightblue" stroke="midnightblue" points="698.37,-363.49 708.85,-361.95 699.7,-356.61 698.37,-363.49"/>
</g>
<!-- Node3 -->
<g id="node3" class="node">
<title>Node3</title>
<g id="a_node3"><a xlink:href="common_8h.html" target="_top" xlink:title=" ">
<polygon fill="none" stroke="black" points="517.65,-297 517.65,-316 642.65,-316 642.65,-297 517.65,-297"/>
<text text-anchor="middle" x="580.15" y="-304" font-family="Helvetica,sans-Serif" font-size="10.00">kernel/include/common.h</text>
</a>
</g>
</g>
<!-- Node1&#45;&gt;Node3 -->
<g id="edge2" class="edge">
<title>Node1&#45;&gt;Node3</title>
<path fill="none" stroke="midnightblue" d="M714.46,-354.95C678.72,-342.32 632.09,-325.85 604.23,-316.01"/>
<polygon fill="midnightblue" stroke="midnightblue" points="713.63,-358.37 724.22,-358.4 715.96,-351.76 713.63,-358.37"/>
</g>
<!-- Node5 -->
<g id="node5" class="node">
<title>Node5</title>
<g id="a_node5"><a xlink:href="buddy_8c.html" target="_top" xlink:title="impl of buddy system">
<polygon fill="none" stroke="black" points="694.65,-179.5 694.65,-198.5 789.65,-198.5 789.65,-179.5 694.65,-179.5"/>
<text text-anchor="middle" x="742.15" y="-186.5" font-family="Helvetica,sans-Serif" font-size="10.00">kernel/src/buddy.c</text>
</a>
</g>
</g>
<!-- Node1&#45;&gt;Node5 -->
<g id="edge36" class="edge">
<title>Node1&#45;&gt;Node5</title>
<path fill="none" stroke="midnightblue" d="M796.55,-352.75C835.95,-326.21 893.73,-277.44 864.15,-235 854.05,-220.51 810.7,-206.92 778.53,-198.54"/>
<polygon fill="midnightblue" stroke="midnightblue" points="794.41,-349.97 787.97,-358.38 798.25,-355.82 794.41,-349.97"/>
</g>
<!-- Node6 -->
<g id="node6" class="node">
<title>Node6</title>
<g id="a_node6"><a xlink:href="pmm_8c.html" target="_top" xlink:title=" ">
<polygon fill="none" stroke="black" points="808.15,-179.5 808.15,-198.5 900.15,-198.5 900.15,-179.5 808.15,-179.5"/>
<text text-anchor="middle" x="854.15" y="-186.5" font-family="Helvetica,sans-Serif" font-size="10.00">kernel/src/pmm.c</text>
</a>
</g>
</g>
<!-- Node1&#45;&gt;Node6 -->
<g id="edge37" class="edge">
<title>Node1&#45;&gt;Node6</title>
<path fill="none" stroke="midnightblue" d="M819.39,-354.27C835.48,-346.56 851.78,-336.04 863.15,-322 888,-291.32 891.69,-273.05 881.15,-235 877.3,-221.13 867.92,-207.24 861.3,-198.64"/>
<polygon fill="midnightblue" stroke="midnightblue" points="817.67,-351.2 809.97,-358.48 820.53,-357.59 817.67,-351.2"/>
</g>
<!-- Node21 -->
<g id="node21" class="node">
<title>Node21</title>
<g id="a_node21"><a xlink:href="list_8h.html" target="_top" xlink:title="double circular linked list impl without concurrency">
<polygon fill="none" stroke="black" points="714.15,-297 714.15,-316 814.15,-316 814.15,-297 714.15,-297"/>
<text text-anchor="middle" x="764.15" y="-304" font-family="Helvetica,sans-Serif" font-size="10.00">kernel/include/list.h</text>
</a>
</g>
</g>
<!-- Node1&#45;&gt;Node21 -->
<g id="edge33" class="edge">
<title>Node1&#45;&gt;Node21</title>
<path fill="none" stroke="midnightblue" d="M764.15,-348.25C764.15,-337.02 764.15,-324.38 764.15,-316.19"/>
<polygon fill="midnightblue" stroke="midnightblue" points="760.65,-348.4 764.15,-358.4 767.65,-348.4 760.65,-348.4"/>
</g>
<!-- Node4 -->
<g id="node4" class="node">
<title>Node4</title>
<g id="a_node4"><a xlink:href="buddy_8h.html" target="_top" xlink:title=" ">
<polygon fill="none" stroke="black" points="741.65,-235.5 741.65,-254.5 854.65,-254.5 854.65,-235.5 741.65,-235.5"/>
<text text-anchor="middle" x="798.15" y="-242.5" font-family="Helvetica,sans-Serif" font-size="10.00">kernel/include/buddy.h</text>
</a>
</g>
</g>
<!-- Node3&#45;&gt;Node4 -->
<g id="edge3" class="edge">
<title>Node3&#45;&gt;Node4</title>
<path fill="none" stroke="midnightblue" d="M621.1,-294.32C663.45,-282.76 728.63,-264.97 766.97,-254.51"/>
<polygon fill="midnightblue" stroke="midnightblue" points="620.11,-290.97 611.38,-296.98 621.95,-297.72 620.11,-290.97"/>
</g>
<!-- Node3&#45;&gt;Node5 -->
<g id="edge28" class="edge">
<title>Node3&#45;&gt;Node5</title>
<path fill="none" stroke="midnightblue" d="M600.61,-290.91C634.71,-266.6 702.13,-218.53 729.83,-198.78"/>
<polygon fill="midnightblue" stroke="midnightblue" points="598.43,-288.16 592.32,-296.82 602.5,-293.86 598.43,-288.16"/>
</g>
<!-- Node3&#45;&gt;Node6 -->
<g id="edge31" class="edge">
<title>Node3&#45;&gt;Node6</title>
<path fill="none" stroke="midnightblue" d="M606.94,-292.4C637.27,-277.75 688.31,-253.64 733.15,-235 766.05,-221.32 804.76,-207.28 829.37,-198.59"/>
<polygon fill="midnightblue" stroke="midnightblue" points="605.33,-289.3 597.85,-296.81 608.38,-295.6 605.33,-289.3"/>
</g>
<!-- Node7 -->
<g id="node7" class="node">
<title>Node7</title>
<g id="a_node7"><a xlink:href="devices_8h.html" target="_top" xlink:title=" ">
<polygon fill="none" stroke="black" points="251.65,-67.5 251.65,-86.5 372.65,-86.5 372.65,-67.5 251.65,-67.5"/>
<text text-anchor="middle" x="312.15" y="-74.5" font-family="Helvetica,sans-Serif" font-size="10.00">kernel/include/devices.h</text>
</a>
</g>
</g>
<!-- Node3&#45;&gt;Node7 -->
<g id="edge6" class="edge">
<title>Node3&#45;&gt;Node7</title>
<path fill="none" stroke="midnightblue" d="M584.51,-286.62C591.89,-249.34 601.97,-166.16 557.15,-123 531.37,-98.18 436.52,-86.64 372.69,-81.59"/>
<polygon fill="midnightblue" stroke="midnightblue" points="581.04,-286.11 582.37,-296.62 587.89,-287.57 581.04,-286.11"/>
</g>
<!-- Node13 -->
<g id="node13" class="node">
<title>Node13</title>
<g id="a_node13"><a xlink:href="sem_8h.html" target="_top" xlink:title=" ">
<polygon fill="none" stroke="black" points="22.15,-123.5 22.15,-142.5 128.15,-142.5 128.15,-123.5 22.15,-123.5"/>
<text text-anchor="middle" x="75.15" y="-130.5" font-family="Helvetica,sans-Serif" font-size="10.00">kernel/include/sem.h</text>
</a>
</g>
</g>
<!-- Node3&#45;&gt;Node13 -->
<g id="edge12" class="edge">
<title>Node3&#45;&gt;Node13</title>
<path fill="none" stroke="midnightblue" d="M530.82,-295.07C523.24,-293.61 515.5,-292.2 508.15,-291 381.71,-270.34 345.61,-289.2 222.15,-255 162.7,-238.53 136.15,-245.09 95.15,-199 80.71,-182.77 76.69,-156.29 75.58,-142.68"/>
<polygon fill="midnightblue" stroke="midnightblue" points="530.14,-298.5 540.63,-297 531.49,-291.63 530.14,-298.5"/>
</g>
<!-- Node14 -->
<g id="node14" class="node">
<title>Node14</title>
<g id="a_node14"><a xlink:href="kmt_8c.html" target="_top" xlink:title=" ">
<polygon fill="none" stroke="black" points="113.15,-67.5 113.15,-86.5 199.15,-86.5 199.15,-67.5 113.15,-67.5"/>
<text text-anchor="middle" x="156.15" y="-74.5" font-family="Helvetica,sans-Serif" font-size="10.00">kernel/src/kmt.c</text>
</a>
</g>
</g>
<!-- Node3&#45;&gt;Node14 -->
<g id="edge29" class="edge">
<title>Node3&#45;&gt;Node14</title>
<path fill="none" stroke="midnightblue" d="M531.39,-294.99C523.63,-293.52 515.69,-292.13 508.15,-291 345.61,-266.75 290.86,-320.52 140.15,-255 65.49,-222.54 -35.01,-188.64 13.15,-123 25.12,-106.68 75.31,-93.59 112.87,-85.82"/>
<polygon fill="midnightblue" stroke="midnightblue" points="530.93,-298.46 541.41,-296.95 532.27,-291.59 530.93,-298.46"/>
</g>
<!-- Node16 -->
<g id="node16" class="node">
<title>Node16</title>
<g id="a_node16"><a xlink:href="spinlock_8h.html" target="_top" xlink:title=" ">
<polygon fill="none" stroke="black" points="231.65,-235.5 231.65,-254.5 354.65,-254.5 354.65,-235.5 231.65,-235.5"/>
<text text-anchor="middle" x="293.15" y="-242.5" font-family="Helvetica,sans-Serif" font-size="10.00">kernel/include/spinlock.h</text>
</a>
</g>
</g>
<!-- Node3&#45;&gt;Node16 -->
<g id="edge16" class="edge">
<title>Node3&#45;&gt;Node16</title>
<path fill="none" stroke="midnightblue" d="M529.03,-294.9C473.39,-283.37 385.52,-265.15 334.19,-254.51"/>
<polygon fill="midnightblue" stroke="midnightblue" points="528.52,-298.37 539.03,-296.98 529.95,-291.52 528.52,-298.37"/>
</g>
<!-- Node17 -->
<g id="node17" class="node">
<title>Node17</title>
<g id="a_node17"><a xlink:href="thread_8h.html" target="_top" xlink:title=" ">
<polygon fill="none" stroke="black" points="419.15,-179.5 419.15,-198.5 533.15,-198.5 533.15,-179.5 419.15,-179.5"/>
<text text-anchor="middle" x="476.15" y="-186.5" font-family="Helvetica,sans-Serif" font-size="10.00">kernel/include/thread.h</text>
</a>
</g>
</g>
<!-- Node3&#45;&gt;Node17 -->
<g id="edge27" class="edge">
<title>Node3&#45;&gt;Node17</title>
<path fill="none" stroke="midnightblue" d="M565.58,-289.32C543.29,-264.56 501.46,-218.11 484.05,-198.78"/>
<polygon fill="midnightblue" stroke="midnightblue" points="563.04,-291.73 572.33,-296.82 568.24,-287.05 563.04,-291.73"/>
</g>
<!-- Node18 -->
<g id="node18" class="node">
<title>Node18</title>
<g id="a_node18"><a xlink:href="syscall_8c.html" target="_top" xlink:title=" ">
<polygon fill="none" stroke="black" points="448.15,-123.5 448.15,-142.5 548.15,-142.5 548.15,-123.5 448.15,-123.5"/>
<text text-anchor="middle" x="498.15" y="-130.5" font-family="Helvetica,sans-Serif" font-size="10.00">kernel/src/syscall.c</text>
</a>
</g>
</g>
<!-- Node3&#45;&gt;Node18 -->
<g id="edge32" class="edge">
<title>Node3&#45;&gt;Node18</title>
<path fill="none" stroke="midnightblue" d="M577.41,-286.74C573.03,-261 562.76,-213.94 542.15,-179 533.49,-164.32 519.04,-150.82 509.08,-142.51"/>
<polygon fill="midnightblue" stroke="midnightblue" points="574,-287.62 579.02,-296.95 580.92,-286.53 574,-287.62"/>
</g>
<!-- Node19 -->
<g id="node19" class="node">
<title>Node19</title>
<g id="a_node19"><a xlink:href="os_8c.html" target="_top" xlink:title=" ">
<polygon fill="none" stroke="black" points="321.15,-179.5 321.15,-198.5 401.15,-198.5 401.15,-179.5 321.15,-179.5"/>
<text text-anchor="middle" x="361.15" y="-186.5" font-family="Helvetica,sans-Serif" font-size="10.00">kernel/src/os.c</text>
</a>
</g>
</g>
<!-- Node3&#45;&gt;Node19 -->
<g id="edge30" class="edge">
<title>Node3&#45;&gt;Node19</title>
<path fill="none" stroke="midnightblue" d="M554.77,-292.12C509.35,-268.16 415.38,-218.6 377.5,-198.62"/>
<polygon fill="midnightblue" stroke="midnightblue" points="553.21,-295.25 563.69,-296.82 556.47,-289.06 553.21,-295.25"/>
</g>
<!-- Node4&#45;&gt;Node5 -->
<g id="edge4" class="edge">
<title>Node4&#45;&gt;Node5</title>
<path fill="none" stroke="midnightblue" d="M781.82,-228.25C771.88,-218.67 759.56,-206.79 751.31,-198.83"/>
<polygon fill="midnightblue" stroke="midnightblue" points="779.52,-230.9 789.15,-235.32 784.38,-225.86 779.52,-230.9"/>
</g>
<!-- Node4&#45;&gt;Node6 -->
<g id="edge5" class="edge">
<title>Node4&#45;&gt;Node6</title>
<path fill="none" stroke="midnightblue" d="M814.48,-228.25C824.41,-218.67 836.73,-206.79 844.99,-198.83"/>
<polygon fill="midnightblue" stroke="midnightblue" points="811.91,-225.86 807.14,-235.32 816.77,-230.9 811.91,-225.86"/>
</g>
<!-- Node8 -->
<g id="node8" class="node">
<title>Node8</title>
<g id="a_node8"><a xlink:href="dev_8c.html" target="_top" xlink:title=" ">
<polygon fill="none" stroke="black" points="15.15,-6 15.15,-25 119.15,-25 119.15,-6 15.15,-6"/>
<text text-anchor="middle" x="67.15" y="-13" font-family="Helvetica,sans-Serif" font-size="10.00">kernel/src/dev/dev.c</text>
</a>
</g>
</g>
<!-- Node7&#45;&gt;Node8 -->
<g id="edge7" class="edge">
<title>Node7&#45;&gt;Node8</title>
<path fill="none" stroke="midnightblue" d="M267.32,-65.11C219.77,-53.57 145.64,-35.56 102.18,-25.01"/>
<polygon fill="midnightblue" stroke="midnightblue" points="266.5,-68.52 277.04,-67.48 268.15,-61.71 266.5,-68.52"/>
</g>
<!-- Node9 -->
<g id="node9" class="node">
<title>Node9</title>
<g id="a_node9"><a xlink:href="dev__input_8c.html" target="_top" xlink:title=" ">
<polygon fill="none" stroke="black" points="137.65,-0.5 137.65,-30.5 234.65,-30.5 234.65,-0.5 137.65,-0.5"/>
<text text-anchor="start" x="145.65" y="-18.5" font-family="Helvetica,sans-Serif" font-size="10.00">kernel/src/dev/dev</text>
<text text-anchor="middle" x="186.15" y="-7.5" font-family="Helvetica,sans-Serif" font-size="10.00">_input.c</text>
</a>
</g>
</g>
<!-- Node7&#45;&gt;Node9 -->
<g id="edge8" class="edge">
<title>Node7&#45;&gt;Node9</title>
<path fill="none" stroke="midnightblue" d="M285.04,-63.2C264.68,-53.58 236.81,-40.42 215.84,-30.52"/>
<polygon fill="midnightblue" stroke="midnightblue" points="283.56,-66.37 294.09,-67.48 286.55,-60.04 283.56,-66.37"/>
</g>
<!-- Node10 -->
<g id="node10" class="node">
<title>Node10</title>
<g id="a_node10"><a xlink:href="dev__sd_8c.html" target="_top" xlink:title=" ">
<polygon fill="none" stroke="black" points="252.15,-6 252.15,-25 372.15,-25 372.15,-6 252.15,-6"/>
<text text-anchor="middle" x="312.15" y="-13" font-family="Helvetica,sans-Serif" font-size="10.00">kernel/src/dev/dev_sd.c</text>
</a>
</g>
</g>
<!-- Node7&#45;&gt;Node10 -->
<g id="edge9" class="edge">
<title>Node7&#45;&gt;Node10</title>
<path fill="none" stroke="midnightblue" d="M312.15,-57.32C312.15,-46.5 312.15,-33.4 312.15,-25.01"/>
<polygon fill="midnightblue" stroke="midnightblue" points="308.65,-57.48 312.15,-67.48 315.65,-57.48 308.65,-57.48"/>
</g>
<!-- Node11 -->
<g id="node11" class="node">
<title>Node11</title>
<g id="a_node11"><a xlink:href="dev__tty_8c.html" target="_top" xlink:title=" ">
<polygon fill="none" stroke="black" points="389.65,-0.5 389.65,-30.5 486.65,-30.5 486.65,-0.5 389.65,-0.5"/>
<text text-anchor="start" x="397.65" y="-18.5" font-family="Helvetica,sans-Serif" font-size="10.00">kernel/src/dev/dev</text>
<text text-anchor="middle" x="438.15" y="-7.5" font-family="Helvetica,sans-Serif" font-size="10.00">_tty.c</text>
</a>
</g>
</g>
<!-- Node7&#45;&gt;Node11 -->
<g id="edge10" class="edge">
<title>Node7&#45;&gt;Node11</title>
<path fill="none" stroke="midnightblue" d="M339.25,-63.2C359.61,-53.58 387.49,-40.42 408.45,-30.52"/>
<polygon fill="midnightblue" stroke="midnightblue" points="337.75,-60.04 330.2,-67.48 340.74,-66.37 337.75,-60.04"/>
</g>
<!-- Node12 -->
<g id="node12" class="node">
<title>Node12</title>
<g id="a_node12"><a xlink:href="dev__video_8c.html" target="_top" xlink:title=" ">
<polygon fill="none" stroke="black" points="504.65,-0.5 504.65,-30.5 601.65,-30.5 601.65,-0.5 504.65,-0.5"/>
<text text-anchor="start" x="512.65" y="-18.5" font-family="Helvetica,sans-Serif" font-size="10.00">kernel/src/dev/dev</text>
<text text-anchor="middle" x="553.15" y="-7.5" font-family="Helvetica,sans-Serif" font-size="10.00">_video.c</text>
</a>
</g>
</g>
<!-- Node7&#45;&gt;Node12 -->
<g id="edge11" class="edge">
<title>Node7&#45;&gt;Node12</title>
<path fill="none" stroke="midnightblue" d="M356.88,-65.05C393.94,-55.97 447.98,-42.7 495.15,-31 498.17,-30.25 501.28,-29.48 504.42,-28.7"/>
<polygon fill="midnightblue" stroke="midnightblue" points="355.78,-61.72 346.9,-67.5 357.44,-68.52 355.78,-61.72"/>
</g>
<!-- Node13&#45;&gt;Node7 -->
<g id="edge13" class="edge">
<title>Node13&#45;&gt;Node7</title>
<path fill="none" stroke="midnightblue" d="M122.47,-121.22C167.25,-111.01 233.58,-95.9 274.77,-86.52"/>
<polygon fill="midnightblue" stroke="midnightblue" points="121.67,-117.81 112.7,-123.44 123.23,-124.63 121.67,-117.81"/>
</g>
<!-- Node13&#45;&gt;Node14 -->
<g id="edge14" class="edge">
<title>Node13&#45;&gt;Node14</title>
<path fill="none" stroke="midnightblue" d="M96.71,-117.62C111.51,-107.76 130.66,-94.99 143.16,-86.65"/>
<polygon fill="midnightblue" stroke="midnightblue" points="94.54,-114.86 88.16,-123.32 98.42,-120.69 94.54,-114.86"/>
</g>
<!-- Node15 -->
<g id="node15" class="node">
<title>Node15</title>
<g id="a_node15"><a xlink:href="sem_8c.html" target="_top" xlink:title=" ">
<polygon fill="none" stroke="black" points="5.65,-67.5 5.65,-86.5 94.65,-86.5 94.65,-67.5 5.65,-67.5"/>
<text text-anchor="middle" x="50.15" y="-74.5" font-family="Helvetica,sans-Serif" font-size="10.00">kernel/src/sem.c</text>
</a>
</g>
</g>
<!-- Node13&#45;&gt;Node15 -->
<g id="edge15" class="edge">
<title>Node13&#45;&gt;Node15</title>
<path fill="none" stroke="midnightblue" d="M66.81,-113.98C62.56,-104.82 57.6,-94.09 54.2,-86.75"/>
<polygon fill="midnightblue" stroke="midnightblue" points="63.64,-115.48 71.02,-123.08 69.99,-112.54 63.64,-115.48"/>
</g>
<!-- Node16&#45;&gt;Node7 -->
<g id="edge17" class="edge">
<title>Node16&#45;&gt;Node7</title>
<path fill="none" stroke="midnightblue" d="M295.33,-224.93C299.45,-188.92 308.23,-112.23 311.17,-86.57"/>
<polygon fill="midnightblue" stroke="midnightblue" points="291.83,-224.74 294.17,-235.08 298.78,-225.54 291.83,-224.74"/>
</g>
<!-- Node16&#45;&gt;Node13 -->
<g id="edge18" class="edge">
<title>Node16&#45;&gt;Node13</title>
<path fill="none" stroke="midnightblue" d="M221.47,-237.86C187.32,-232.06 147.44,-220.8 117.15,-199 96.86,-184.4 83.88,-156.7 78.3,-142.65"/>
<polygon fill="midnightblue" stroke="midnightblue" points="220.97,-241.33 231.4,-239.43 222.06,-234.42 220.97,-241.33"/>
</g>
<!-- Node16&#45;&gt;Node14 -->
<g id="edge24" class="edge">
<title>Node16&#45;&gt;Node14</title>
<path fill="none" stroke="midnightblue" d="M221.17,-238.88C194.46,-233.06 166.67,-221.52 150.15,-199 124.77,-164.41 143.65,-108.11 152.36,-86.67"/>
<polygon fill="midnightblue" stroke="midnightblue" points="220.85,-242.38 231.33,-240.84 222.17,-235.51 220.85,-242.38"/>
</g>
<!-- Node16&#45;&gt;Node17 -->
<g id="edge19" class="edge">
<title>Node16&#45;&gt;Node17</title>
<path fill="none" stroke="midnightblue" d="M331.89,-232.57C366.41,-222.38 416.15,-207.7 447.29,-198.52"/>
<polygon fill="midnightblue" stroke="midnightblue" points="330.74,-229.26 322.14,-235.44 332.73,-235.97 330.74,-229.26"/>
</g>
<!-- Node16&#45;&gt;Node19 -->
<g id="edge25" class="edge">
<title>Node16&#45;&gt;Node19</title>
<path fill="none" stroke="midnightblue" d="M311.91,-229.1C324.15,-219.38 339.71,-207.03 350.02,-198.83"/>
<polygon fill="midnightblue" stroke="midnightblue" points="309.73,-226.36 304.07,-235.32 314.08,-231.85 309.73,-226.36"/>
</g>
<!-- Node20 -->
<g id="node20" class="node">
<title>Node20</title>
<g id="a_node20"><a xlink:href="spinlock_8c.html" target="_top" xlink:title=" ">
<polygon fill="none" stroke="black" points="159.15,-179.5 159.15,-198.5 265.15,-198.5 265.15,-179.5 159.15,-179.5"/>
<text text-anchor="middle" x="212.15" y="-186.5" font-family="Helvetica,sans-Serif" font-size="10.00">kernel/src/spinlock.c</text>
</a>
</g>
</g>
<!-- Node16&#45;&gt;Node20 -->
<g id="edge26" class="edge">
<title>Node16&#45;&gt;Node20</title>
<path fill="none" stroke="midnightblue" d="M271.58,-229.62C256.78,-219.76 237.63,-206.99 225.13,-198.65"/>
<polygon fill="midnightblue" stroke="midnightblue" points="269.87,-232.69 280.13,-235.32 273.75,-226.86 269.87,-232.69"/>
</g>
<!-- Node17&#45;&gt;Node7 -->
<g id="edge20" class="edge">
<title>Node17&#45;&gt;Node7</title>
<path fill="none" stroke="midnightblue" d="M454.85,-173.71C420.29,-150.53 353.04,-105.43 324.96,-86.59"/>
<polygon fill="midnightblue" stroke="midnightblue" points="453.02,-176.7 463.28,-179.37 456.92,-170.89 453.02,-176.7"/>
</g>
<!-- Node17&#45;&gt;Node13 -->
<g id="edge21" class="edge">
<title>Node17&#45;&gt;Node13</title>
<path fill="none" stroke="midnightblue" d="M408.73,-178.81C303.34,-164.55 192.24,-149.66 128.24,-141.1"/>
<polygon fill="midnightblue" stroke="midnightblue" points="408.53,-182.32 418.91,-180.19 409.47,-175.38 408.53,-182.32"/>
</g>
<!-- Node17&#45;&gt;Node14 -->
<g id="edge22" class="edge">
<title>Node17&#45;&gt;Node14</title>
<path fill="none" stroke="midnightblue" d="M441.54,-176.1C376.62,-153.79 237.98,-106.13 181.2,-86.61"/>
<polygon fill="midnightblue" stroke="midnightblue" points="440.71,-179.52 451.3,-179.46 442.98,-172.9 440.71,-179.52"/>
</g>
<!-- Node17&#45;&gt;Node18 -->
<g id="edge23" class="edge">
<title>Node17&#45;&gt;Node18</title>
<path fill="none" stroke="midnightblue" d="M483.61,-169.69C487.31,-160.59 491.62,-150.01 494.58,-142.75"/>
<polygon fill="midnightblue" stroke="midnightblue" points="480.31,-168.5 479.78,-179.08 486.79,-171.14 480.31,-168.5"/>
</g>
<!-- Node21&#45;&gt;Node4 -->
<g id="edge34" class="edge">
<title>Node21&#45;&gt;Node4</title>
<path fill="none" stroke="midnightblue" d="M774.05,-288.17C780.37,-277.11 788.29,-263.25 793.28,-254.51"/>
<polygon fill="midnightblue" stroke="midnightblue" points="770.94,-286.56 769.02,-296.98 777.02,-290.03 770.94,-286.56"/>
</g>
<!-- Node21&#45;&gt;Node17 -->
<g id="edge35" class="edge">
<title>Node21&#45;&gt;Node17</title>
<path fill="none" stroke="midnightblue" d="M732.99,-293.01C674.16,-269.41 548.09,-218.85 497.65,-198.62"/>
<polygon fill="midnightblue" stroke="midnightblue" points="731.92,-296.34 742.5,-296.82 734.52,-289.85 731.92,-296.34"/>
</g>
</g>
</svg>
