<?xml version="1.0" encoding="UTF-8" standalone="no"?>
<!DOCTYPE svg PUBLIC "-//W3C//DTD SVG 1.1//EN"
 "http://www.w3.org/Graphics/SVG/1.1/DTD/svg11.dtd">
<!-- Generated by graphviz version 3.0.0 (20220413.0106)
 -->
<!-- Title: abstract&#45;machine/klib/include/logger.h Pages: 1 -->
<svg width="864pt" height="285pt"
 viewBox="0.00 0.00 864.00 285.00" xmlns="http://www.w3.org/2000/svg" xmlns:xlink="http://www.w3.org/1999/xlink">
<g id="graph0" class="graph" transform="scale(1 1) rotate(0) translate(4 281)">
<title>abstract&#45;machine/klib/include/logger.h</title>
<!-- Node1 -->
<g id="node1" class="node">
<title>Node1</title>
<g id="a_node1"><a xlink:title=" ">
<polygon fill="#bfbfbf" stroke="black" points="121,-246.5 121,-276.5 231,-276.5 231,-246.5 121,-246.5"/>
<text text-anchor="start" x="129" y="-264.5" font-family="Helvetica,sans-Serif" font-size="10.00">abstract&#45;machine/klib</text>
<text text-anchor="middle" x="176" y="-253.5" font-family="Helvetica,sans-Serif" font-size="10.00">/include/logger.h</text>
</a>
</g>
</g>
<!-- Node2 -->
<g id="node2" class="node">
<title>Node2</title>
<g id="a_node2"><a xlink:href="logger_8c.html" target="_top" xlink:title=" ">
<polygon fill="none" stroke="black" points="0,-179.5 0,-209.5 110,-209.5 110,-179.5 0,-179.5"/>
<text text-anchor="start" x="8" y="-197.5" font-family="Helvetica,sans-Serif" font-size="10.00">abstract&#45;machine/klib</text>
<text text-anchor="middle" x="55" y="-186.5" font-family="Helvetica,sans-Serif" font-size="10.00">/src/logger.c</text>
</a>
</g>
</g>
<!-- Node1&#45;&gt;Node2 -->
<g id="edge1" class="edge">
<title>Node1&#45;&gt;Node2</title>
<path fill="none" stroke="midnightblue" d="M140.77,-241.57C121.74,-231.35 98.63,-218.94 81.2,-209.58"/>
<polygon fill="midnightblue" stroke="midnightblue" points="139.28,-244.75 149.74,-246.4 142.59,-238.58 139.28,-244.75"/>
</g>
<!-- Node3 -->
<g id="node3" class="node">
<title>Node3</title>
<g id="a_node3"><a xlink:href="common_8h.html" target="_top" xlink:title=" ">
<polygon fill="none" stroke="black" points="406.5,-185 406.5,-204 531.5,-204 531.5,-185 406.5,-185"/>
<text text-anchor="middle" x="469" y="-192" font-family="Helvetica,sans-Serif" font-size="10.00">kernel/include/common.h</text>
</a>
</g>
</g>
<!-- Node1&#45;&gt;Node3 -->
<g id="edge2" class="edge">
<title>Node1&#45;&gt;Node3</title>
<path fill="none" stroke="midnightblue" d="M240.93,-246.1C299.05,-233.2 382.29,-214.74 430.49,-204.04"/>
<polygon fill="midnightblue" stroke="midnightblue" points="240.12,-242.69 231.11,-248.27 241.63,-249.53 240.12,-242.69"/>
</g>
<!-- Node5 -->
<g id="node5" class="node">
<title>Node5</title>
<g id="a_node5"><a xlink:href="buddy_8c.html" target="_top" xlink:title="impl of buddy system">
<polygon fill="none" stroke="black" points="152.5,-67.5 152.5,-86.5 247.5,-86.5 247.5,-67.5 152.5,-67.5"/>
<text text-anchor="middle" x="200" y="-74.5" font-family="Helvetica,sans-Serif" font-size="10.00">kernel/src/buddy.c</text>
</a>
</g>
</g>
<!-- Node1&#45;&gt;Node5 -->
<g id="edge27" class="edge">
<title>Node1&#45;&gt;Node5</title>
<path fill="none" stroke="midnightblue" d="M167.34,-236.59C158.57,-208.51 148.11,-160.97 162,-123 167.41,-108.21 180.06,-94.93 189.29,-86.7"/>
<polygon fill="midnightblue" stroke="midnightblue" points="164.1,-237.94 170.57,-246.33 170.75,-235.74 164.1,-237.94"/>
</g>
<!-- Node6 -->
<g id="node6" class="node">
<title>Node6</title>
<g id="a_node6"><a xlink:href="pmm_8c.html" target="_top" xlink:title=" ">
<polygon fill="none" stroke="black" points="266,-67.5 266,-86.5 358,-86.5 358,-67.5 266,-67.5"/>
<text text-anchor="middle" x="312" y="-74.5" font-family="Helvetica,sans-Serif" font-size="10.00">kernel/src/pmm.c</text>
</a>
</g>
</g>
<!-- Node1&#45;&gt;Node6 -->
<g id="edge28" class="edge">
<title>Node1&#45;&gt;Node6</title>
<path fill="none" stroke="midnightblue" d="M180.9,-236.51C187.99,-206.88 203.61,-156.31 233,-123 248.04,-105.96 271.15,-93.85 288.5,-86.52"/>
<polygon fill="midnightblue" stroke="midnightblue" points="177.45,-235.89 178.66,-246.41 184.28,-237.43 177.45,-235.89"/>
</g>
<!-- Node18 -->
<g id="node18" class="node">
<title>Node18</title>
<g id="a_node18"><a xlink:href="list_8h.html" target="_top" xlink:title="double circular linked list impl without concurrency">
<polygon fill="none" stroke="black" points="249,-185 249,-204 349,-204 349,-185 249,-185"/>
<text text-anchor="middle" x="299" y="-192" font-family="Helvetica,sans-Serif" font-size="10.00">kernel/include/list.h</text>
</a>
</g>
</g>
<!-- Node1&#45;&gt;Node18 -->
<g id="edge24" class="edge">
<title>Node1&#45;&gt;Node18</title>
<path fill="none" stroke="midnightblue" d="M211.69,-241.64C235.22,-229.2 264.91,-213.51 282.9,-204.01"/>
<polygon fill="midnightblue" stroke="midnightblue" points="209.9,-238.63 202.69,-246.4 213.17,-244.82 209.9,-238.63"/>
</g>
<!-- Node4 -->
<g id="node4" class="node">
<title>Node4</title>
<g id="a_node4"><a xlink:href="buddy_8h.html" target="_top" xlink:title=" ">
<polygon fill="none" stroke="black" points="242.5,-123.5 242.5,-142.5 355.5,-142.5 355.5,-123.5 242.5,-123.5"/>
<text text-anchor="middle" x="299" y="-130.5" font-family="Helvetica,sans-Serif" font-size="10.00">kernel/include/buddy.h</text>
</a>
</g>
</g>
<!-- Node3&#45;&gt;Node4 -->
<g id="edge3" class="edge">
<title>Node3&#45;&gt;Node4</title>
<path fill="none" stroke="midnightblue" d="M434.95,-181.58C401.91,-170.02 352.58,-152.75 323.31,-142.51"/>
<polygon fill="midnightblue" stroke="midnightblue" points="434.05,-184.98 444.64,-184.98 436.36,-178.37 434.05,-184.98"/>
</g>
<!-- Node3&#45;&gt;Node5 -->
<g id="edge20" class="edge">
<title>Node3&#45;&gt;Node5</title>
<path fill="none" stroke="midnightblue" d="M407.8,-183.22C342.6,-171.82 246.83,-153.64 233,-143 214.34,-128.64 205.38,-100.84 201.87,-86.7"/>
<polygon fill="midnightblue" stroke="midnightblue" points="407.54,-186.72 417.99,-184.99 408.74,-179.83 407.54,-186.72"/>
</g>
<!-- Node3&#45;&gt;Node6 -->
<g id="edge23" class="edge">
<title>Node3&#45;&gt;Node6</title>
<path fill="none" stroke="midnightblue" d="M448.74,-178.6C415.56,-154.19 350.66,-106.44 323.94,-86.78"/>
<polygon fill="midnightblue" stroke="midnightblue" points="447.07,-181.71 457.2,-184.82 451.22,-176.07 447.07,-181.71"/>
</g>
<!-- Node7 -->
<g id="node7" class="node">
<title>Node7</title>
<g id="a_node7"><a xlink:href="devices_8h.html" target="_top" xlink:title=" ">
<polygon fill="none" stroke="black" points="408.5,-67.5 408.5,-86.5 529.5,-86.5 529.5,-67.5 408.5,-67.5"/>
<text text-anchor="middle" x="469" y="-74.5" font-family="Helvetica,sans-Serif" font-size="10.00">kernel/include/devices.h</text>
</a>
</g>
</g>
<!-- Node3&#45;&gt;Node7 -->
<g id="edge6" class="edge">
<title>Node3&#45;&gt;Node7</title>
<path fill="none" stroke="midnightblue" d="M496.82,-180.28C519.95,-167.31 547.24,-146.16 535,-123 525.86,-105.71 506.77,-93.82 491.46,-86.62"/>
<polygon fill="midnightblue" stroke="midnightblue" points="495.13,-177.22 487.94,-185 498.41,-183.4 495.13,-177.22"/>
</g>
<!-- Node13 -->
<g id="node13" class="node">
<title>Node13</title>
<g id="a_node13"><a xlink:href="spinlock_8h.html" target="_top" xlink:title=" ">
<polygon fill="none" stroke="black" points="620.5,-123.5 620.5,-142.5 743.5,-142.5 743.5,-123.5 620.5,-123.5"/>
<text text-anchor="middle" x="682" y="-130.5" font-family="Helvetica,sans-Serif" font-size="10.00">kernel/include/spinlock.h</text>
</a>
</g>
</g>
<!-- Node3&#45;&gt;Node13 -->
<g id="edge12" class="edge">
<title>Node3&#45;&gt;Node13</title>
<path fill="none" stroke="midnightblue" d="M509.28,-182.25C550.66,-170.69 614.16,-152.95 651.54,-142.51"/>
<polygon fill="midnightblue" stroke="midnightblue" points="508.21,-178.91 499.52,-184.98 510.09,-185.66 508.21,-178.91"/>
</g>
<!-- Node14 -->
<g id="node14" class="node">
<title>Node14</title>
<g id="a_node14"><a xlink:href="kmt_8c.html" target="_top" xlink:title=" ">
<polygon fill="none" stroke="black" points="548,-67.5 548,-86.5 634,-86.5 634,-67.5 548,-67.5"/>
<text text-anchor="middle" x="591" y="-74.5" font-family="Helvetica,sans-Serif" font-size="10.00">kernel/src/kmt.c</text>
</a>
</g>
</g>
<!-- Node3&#45;&gt;Node14 -->
<g id="edge21" class="edge">
<title>Node3&#45;&gt;Node14</title>
<path fill="none" stroke="midnightblue" d="M497.71,-180.1C514.6,-171.23 535.59,-158.42 551,-143 568.05,-125.94 581.07,-100.29 587.18,-86.88"/>
<polygon fill="midnightblue" stroke="midnightblue" points="495.66,-177.21 488.32,-184.85 498.82,-183.46 495.66,-177.21"/>
</g>
<!-- Node15 -->
<g id="node15" class="node">
<title>Node15</title>
<g id="a_node15"><a xlink:href="os_8c.html" target="_top" xlink:title=" ">
<polygon fill="none" stroke="black" points="776,-67.5 776,-86.5 856,-86.5 856,-67.5 776,-67.5"/>
<text text-anchor="middle" x="816" y="-74.5" font-family="Helvetica,sans-Serif" font-size="10.00">kernel/src/os.c</text>
</a>
</g>
</g>
<!-- Node3&#45;&gt;Node15 -->
<g id="edge22" class="edge">
<title>Node3&#45;&gt;Node15</title>
<path fill="none" stroke="midnightblue" d="M541.69,-192.77C601.57,-189.4 687.06,-178.05 753,-143 778.81,-129.28 800.37,-101.18 810.23,-86.84"/>
<polygon fill="midnightblue" stroke="midnightblue" points="541.37,-189.28 531.56,-193.28 541.72,-196.27 541.37,-189.28"/>
</g>
<!-- Node17 -->
<g id="node17" class="node">
<title>Node17</title>
<g id="a_node17"><a xlink:href="thread_8h.html" target="_top" xlink:title=" ">
<polygon fill="none" stroke="black" points="412,-123.5 412,-142.5 526,-142.5 526,-123.5 412,-123.5"/>
<text text-anchor="middle" x="469" y="-130.5" font-family="Helvetica,sans-Serif" font-size="10.00">kernel/include/thread.h</text>
</a>
</g>
</g>
<!-- Node3&#45;&gt;Node17 -->
<g id="edge17" class="edge">
<title>Node3&#45;&gt;Node17</title>
<path fill="none" stroke="midnightblue" d="M469,-174.82C469,-164 469,-150.9 469,-142.51"/>
<polygon fill="midnightblue" stroke="midnightblue" points="465.5,-174.98 469,-184.98 472.5,-174.98 465.5,-174.98"/>
</g>
<!-- Node4&#45;&gt;Node5 -->
<g id="edge4" class="edge">
<title>Node4&#45;&gt;Node5</title>
<path fill="none" stroke="midnightblue" d="M274.16,-118.45C255.89,-108.48 231.58,-95.23 215.87,-86.65"/>
<polygon fill="midnightblue" stroke="midnightblue" points="272.64,-121.61 283.09,-123.32 275.99,-115.46 272.64,-121.61"/>
</g>
<!-- Node4&#45;&gt;Node6 -->
<g id="edge5" class="edge">
<title>Node4&#45;&gt;Node6</title>
<path fill="none" stroke="midnightblue" d="M303.55,-113.1C305.71,-104.14 308.18,-93.86 309.89,-86.75"/>
<polygon fill="midnightblue" stroke="midnightblue" points="300.08,-112.54 301.15,-123.08 306.89,-114.18 300.08,-112.54"/>
</g>
<!-- Node8 -->
<g id="node8" class="node">
<title>Node8</title>
<g id="a_node8"><a xlink:href="dev_8c.html" target="_top" xlink:title=" ">
<polygon fill="none" stroke="black" points="172,-6 172,-25 276,-25 276,-6 172,-6"/>
<text text-anchor="middle" x="224" y="-13" font-family="Helvetica,sans-Serif" font-size="10.00">kernel/src/dev/dev.c</text>
</a>
</g>
</g>
<!-- Node7&#45;&gt;Node8 -->
<g id="edge7" class="edge">
<title>Node7&#45;&gt;Node8</title>
<path fill="none" stroke="midnightblue" d="M424.17,-65.11C376.62,-53.57 302.49,-35.56 259.04,-25.01"/>
<polygon fill="midnightblue" stroke="midnightblue" points="423.35,-68.52 433.9,-67.48 425.01,-61.71 423.35,-68.52"/>
</g>
<!-- Node9 -->
<g id="node9" class="node">
<title>Node9</title>
<g id="a_node9"><a xlink:href="dev__input_8c.html" target="_top" xlink:title=" ">
<polygon fill="none" stroke="black" points="294.5,-0.5 294.5,-30.5 391.5,-30.5 391.5,-0.5 294.5,-0.5"/>
<text text-anchor="start" x="302.5" y="-18.5" font-family="Helvetica,sans-Serif" font-size="10.00">kernel/src/dev/dev</text>
<text text-anchor="middle" x="343" y="-7.5" font-family="Helvetica,sans-Serif" font-size="10.00">_input.c</text>
</a>
</g>
</g>
<!-- Node7&#45;&gt;Node9 -->
<g id="edge8" class="edge">
<title>Node7&#45;&gt;Node9</title>
<path fill="none" stroke="midnightblue" d="M441.89,-63.2C421.53,-53.58 393.66,-40.42 372.7,-30.52"/>
<polygon fill="midnightblue" stroke="midnightblue" points="440.41,-66.37 450.95,-67.48 443.4,-60.04 440.41,-66.37"/>
</g>
<!-- Node10 -->
<g id="node10" class="node">
<title>Node10</title>
<g id="a_node10"><a xlink:href="dev__sd_8c.html" target="_top" xlink:title=" ">
<polygon fill="none" stroke="black" points="409,-6 409,-25 529,-25 529,-6 409,-6"/>
<text text-anchor="middle" x="469" y="-13" font-family="Helvetica,sans-Serif" font-size="10.00">kernel/src/dev/dev_sd.c</text>
</a>
</g>
</g>
<!-- Node7&#45;&gt;Node10 -->
<g id="edge9" class="edge">
<title>Node7&#45;&gt;Node10</title>
<path fill="none" stroke="midnightblue" d="M469,-57.32C469,-46.5 469,-33.4 469,-25.01"/>
<polygon fill="midnightblue" stroke="midnightblue" points="465.5,-57.48 469,-67.48 472.5,-57.48 465.5,-57.48"/>
</g>
<!-- Node11 -->
<g id="node11" class="node">
<title>Node11</title>
<g id="a_node11"><a xlink:href="dev__tty_8c.html" target="_top" xlink:title=" ">
<polygon fill="none" stroke="black" points="546.5,-0.5 546.5,-30.5 643.5,-30.5 643.5,-0.5 546.5,-0.5"/>
<text text-anchor="start" x="554.5" y="-18.5" font-family="Helvetica,sans-Serif" font-size="10.00">kernel/src/dev/dev</text>
<text text-anchor="middle" x="595" y="-7.5" font-family="Helvetica,sans-Serif" font-size="10.00">_tty.c</text>
</a>
</g>
</g>
<!-- Node7&#45;&gt;Node11 -->
<g id="edge10" class="edge">
<title>Node7&#45;&gt;Node11</title>
<path fill="none" stroke="midnightblue" d="M496.11,-63.2C516.47,-53.58 544.34,-40.42 565.3,-30.52"/>
<polygon fill="midnightblue" stroke="midnightblue" points="494.6,-60.04 487.05,-67.48 497.59,-66.37 494.6,-60.04"/>
</g>
<!-- Node12 -->
<g id="node12" class="node">
<title>Node12</title>
<g id="a_node12"><a xlink:href="dev__video_8c.html" target="_top" xlink:title=" ">
<polygon fill="none" stroke="black" points="661.5,-0.5 661.5,-30.5 758.5,-30.5 758.5,-0.5 661.5,-0.5"/>
<text text-anchor="start" x="669.5" y="-18.5" font-family="Helvetica,sans-Serif" font-size="10.00">kernel/src/dev/dev</text>
<text text-anchor="middle" x="710" y="-7.5" font-family="Helvetica,sans-Serif" font-size="10.00">_video.c</text>
</a>
</g>
</g>
<!-- Node7&#45;&gt;Node12 -->
<g id="edge11" class="edge">
<title>Node7&#45;&gt;Node12</title>
<path fill="none" stroke="midnightblue" d="M514.34,-65.04C551.6,-55.99 605.75,-42.79 653,-31 655.77,-30.31 658.62,-29.59 661.5,-28.87"/>
<polygon fill="midnightblue" stroke="midnightblue" points="513.19,-61.71 504.3,-67.47 514.84,-68.51 513.19,-61.71"/>
</g>
<!-- Node13&#45;&gt;Node7 -->
<g id="edge13" class="edge">
<title>Node13&#45;&gt;Node7</title>
<path fill="none" stroke="midnightblue" d="M638.45,-120.96C598.22,-110.76 539.3,-95.82 502.59,-86.52"/>
<polygon fill="midnightblue" stroke="midnightblue" points="637.7,-124.38 648.25,-123.44 639.42,-117.59 637.7,-124.38"/>
</g>
<!-- Node13&#45;&gt;Node14 -->
<g id="edge14" class="edge">
<title>Node13&#45;&gt;Node14</title>
<path fill="none" stroke="midnightblue" d="M658.71,-118.18C641.96,-108.24 619.9,-95.15 605.58,-86.65"/>
<polygon fill="midnightblue" stroke="midnightblue" points="656.99,-121.23 667.38,-123.32 660.57,-115.21 656.99,-121.23"/>
</g>
<!-- Node13&#45;&gt;Node15 -->
<g id="edge15" class="edge">
<title>Node13&#45;&gt;Node15</title>
<path fill="none" stroke="midnightblue" d="M712.68,-119.64C737.82,-109.5 772.75,-95.43 794.87,-86.52"/>
<polygon fill="midnightblue" stroke="midnightblue" points="711.2,-116.46 703.23,-123.44 713.82,-122.95 711.2,-116.46"/>
</g>
<!-- Node16 -->
<g id="node16" class="node">
<title>Node16</title>
<g id="a_node16"><a xlink:href="spinlock_8c.html" target="_top" xlink:title=" ">
<polygon fill="none" stroke="black" points="652,-67.5 652,-86.5 758,-86.5 758,-67.5 652,-67.5"/>
<text text-anchor="middle" x="705" y="-74.5" font-family="Helvetica,sans-Serif" font-size="10.00">kernel/src/spinlock.c</text>
</a>
</g>
</g>
<!-- Node13&#45;&gt;Node16 -->
<g id="edge16" class="edge">
<title>Node13&#45;&gt;Node16</title>
<path fill="none" stroke="midnightblue" d="M689.8,-113.69C693.68,-104.59 698.18,-94.01 701.27,-86.75"/>
<polygon fill="midnightblue" stroke="midnightblue" points="686.5,-112.51 685.8,-123.08 692.94,-115.25 686.5,-112.51"/>
</g>
<!-- Node17&#45;&gt;Node7 -->
<g id="edge18" class="edge">
<title>Node17&#45;&gt;Node7</title>
<path fill="none" stroke="midnightblue" d="M469,-112.8C469,-103.91 469,-93.78 469,-86.75"/>
<polygon fill="midnightblue" stroke="midnightblue" points="465.5,-113.08 469,-123.08 472.5,-113.08 465.5,-113.08"/>
</g>
<!-- Node17&#45;&gt;Node14 -->
<g id="edge19" class="edge">
<title>Node17&#45;&gt;Node14</title>
<path fill="none" stroke="midnightblue" d="M497.54,-119.37C520.39,-109.26 551.81,-95.35 571.76,-86.52"/>
<polygon fill="midnightblue" stroke="midnightblue" points="496.06,-116.2 488.33,-123.44 498.89,-122.6 496.06,-116.2"/>
</g>
<!-- Node18&#45;&gt;Node4 -->
<g id="edge25" class="edge">
<title>Node18&#45;&gt;Node4</title>
<path fill="none" stroke="midnightblue" d="M299,-174.82C299,-164 299,-150.9 299,-142.51"/>
<polygon fill="midnightblue" stroke="midnightblue" points="295.5,-174.98 299,-184.98 302.5,-174.98 295.5,-174.98"/>
</g>
<!-- Node18&#45;&gt;Node17 -->
<g id="edge26" class="edge">
<title>Node18&#45;&gt;Node17</title>
<path fill="none" stroke="midnightblue" d="M333.05,-181.58C366.09,-170.02 415.42,-152.75 444.69,-142.51"/>
<polygon fill="midnightblue" stroke="midnightblue" points="331.64,-178.37 323.36,-184.98 333.95,-184.98 331.64,-178.37"/>
</g>
</g>
</svg>
