<?xml version="1.0" encoding="UTF-8" standalone="no"?>
<!DOCTYPE svg PUBLIC "-//W3C//DTD SVG 1.1//EN"
 "http://www.w3.org/Graphics/SVG/1.1/DTD/svg11.dtd">
<!-- Generated by graphviz version 3.0.0 (20220413.0106)
 -->
<!-- Title: abstract&#45;machine/klib/include/logger.h Pages: 1 -->
<svg width="746pt" height="341pt"
 viewBox="0.00 0.00 746.23 341.00" xmlns="http://www.w3.org/2000/svg" xmlns:xlink="http://www.w3.org/1999/xlink">
<g id="graph0" class="graph" transform="scale(1 1) rotate(0) translate(4 337)">
<title>abstract&#45;machine/klib/include/logger.h</title>
<!-- Node1 -->
<g id="node1" class="node">
<title>Node1</title>
<g id="a_node1"><a xlink:title=" ">
<polygon fill="#bfbfbf" stroke="black" points="515.73,-302.5 515.73,-332.5 625.73,-332.5 625.73,-302.5 515.73,-302.5"/>
<text text-anchor="start" x="523.73" y="-320.5" font-family="Helvetica,sans-Serif" font-size="10.00">abstract&#45;machine/klib</text>
<text text-anchor="middle" x="570.73" y="-309.5" font-family="Helvetica,sans-Serif" font-size="10.00">/include/logger.h</text>
</a>
</g>
</g>
<!-- Node2 -->
<g id="node2" class="node">
<title>Node2</title>
<g id="a_node2"><a xlink:href="logger_8c.html" target="_top" xlink:title=" ">
<polygon fill="none" stroke="black" points="248.73,-235.5 248.73,-265.5 358.73,-265.5 358.73,-235.5 248.73,-235.5"/>
<text text-anchor="start" x="256.73" y="-253.5" font-family="Helvetica,sans-Serif" font-size="10.00">abstract&#45;machine/klib</text>
<text text-anchor="middle" x="303.73" y="-242.5" font-family="Helvetica,sans-Serif" font-size="10.00">/src/logger.c</text>
</a>
</g>
</g>
<!-- Node1&#45;&gt;Node2 -->
<g id="edge1" class="edge">
<title>Node1&#45;&gt;Node2</title>
<path fill="none" stroke="midnightblue" d="M505.48,-300.61C460.57,-289.68 401.57,-275.32 358.99,-264.95"/>
<polygon fill="midnightblue" stroke="midnightblue" points="504.87,-304.07 515.41,-303.03 506.52,-297.27 504.87,-304.07"/>
</g>
<!-- Node3 -->
<g id="node3" class="node">
<title>Node3</title>
<g id="a_node3"><a xlink:href="common_8h.html" target="_top" xlink:title=" ">
<polygon fill="none" stroke="black" points="377.23,-241 377.23,-260 502.23,-260 502.23,-241 377.23,-241"/>
<text text-anchor="middle" x="439.73" y="-248" font-family="Helvetica,sans-Serif" font-size="10.00">kernel/include/common.h</text>
</a>
</g>
</g>
<!-- Node1&#45;&gt;Node3 -->
<g id="edge2" class="edge">
<title>Node1&#45;&gt;Node3</title>
<path fill="none" stroke="midnightblue" d="M533.05,-297.8C507.94,-285.34 476.12,-269.56 456.88,-260.01"/>
<polygon fill="midnightblue" stroke="midnightblue" points="531.8,-301.09 542.31,-302.4 534.91,-294.82 531.8,-301.09"/>
</g>
<!-- Node5 -->
<g id="node5" class="node">
<title>Node5</title>
<g id="a_node5"><a xlink:href="buddy_8c.html" target="_top" xlink:title="impl of buddy system">
<polygon fill="none" stroke="black" points="643.23,-123.5 643.23,-142.5 738.23,-142.5 738.23,-123.5 643.23,-123.5"/>
<text text-anchor="middle" x="690.73" y="-130.5" font-family="Helvetica,sans-Serif" font-size="10.00">kernel/src/buddy.c</text>
</a>
</g>
</g>
<!-- Node1&#45;&gt;Node5 -->
<g id="edge28" class="edge">
<title>Node1&#45;&gt;Node5</title>
<path fill="none" stroke="midnightblue" d="M611.96,-297.53C625.63,-289.5 639.85,-278.95 649.73,-266 679.71,-226.69 687.99,-165.17 690.08,-142.64"/>
<polygon fill="midnightblue" stroke="midnightblue" points="610.15,-294.54 603.11,-302.46 613.55,-300.65 610.15,-294.54"/>
</g>
<!-- Node6 -->
<g id="node6" class="node">
<title>Node6</title>
<g id="a_node6"><a xlink:href="pmm_8c.html" target="_top" xlink:title=" ">
<polygon fill="none" stroke="black" points="521.73,-123.5 521.73,-142.5 613.73,-142.5 613.73,-123.5 521.73,-123.5"/>
<text text-anchor="middle" x="567.73" y="-130.5" font-family="Helvetica,sans-Serif" font-size="10.00">kernel/src/pmm.c</text>
</a>
</g>
</g>
<!-- Node1&#45;&gt;Node6 -->
<g id="edge29" class="edge">
<title>Node1&#45;&gt;Node6</title>
<path fill="none" stroke="midnightblue" d="M603.25,-296.41C613.54,-288.3 623.77,-278 629.73,-266 646.96,-231.34 651.82,-213.22 633.73,-179 624.6,-161.71 605.5,-149.82 590.19,-142.62"/>
<polygon fill="midnightblue" stroke="midnightblue" points="601.05,-293.68 595.08,-302.43 605.2,-299.32 601.05,-293.68"/>
</g>
<!-- Node18 -->
<g id="node18" class="node">
<title>Node18</title>
<g id="a_node18"><a xlink:href="list_8h.html" target="_top" xlink:title="double circular linked list impl without concurrency">
<polygon fill="none" stroke="black" points="520.73,-241 520.73,-260 620.73,-260 620.73,-241 520.73,-241"/>
<text text-anchor="middle" x="570.73" y="-248" font-family="Helvetica,sans-Serif" font-size="10.00">kernel/include/list.h</text>
</a>
</g>
</g>
<!-- Node1&#45;&gt;Node18 -->
<g id="edge25" class="edge">
<title>Node1&#45;&gt;Node18</title>
<path fill="none" stroke="midnightblue" d="M570.73,-292.25C570.73,-281.02 570.73,-268.38 570.73,-260.19"/>
<polygon fill="midnightblue" stroke="midnightblue" points="567.23,-292.4 570.73,-302.4 574.23,-292.4 567.23,-292.4"/>
</g>
<!-- Node4 -->
<g id="node4" class="node">
<title>Node4</title>
<g id="a_node4"><a xlink:href="buddy_8h.html" target="_top" xlink:title=" ">
<polygon fill="none" stroke="black" points="511.23,-179.5 511.23,-198.5 624.23,-198.5 624.23,-179.5 511.23,-179.5"/>
<text text-anchor="middle" x="567.73" y="-186.5" font-family="Helvetica,sans-Serif" font-size="10.00">kernel/include/buddy.h</text>
</a>
</g>
</g>
<!-- Node3&#45;&gt;Node4 -->
<g id="edge3" class="edge">
<title>Node3&#45;&gt;Node4</title>
<path fill="none" stroke="midnightblue" d="M467.33,-236.67C492.16,-225.13 527.96,-208.49 549.43,-198.51"/>
<polygon fill="midnightblue" stroke="midnightblue" points="465.67,-233.59 458.07,-240.98 468.62,-239.93 465.67,-233.59"/>
</g>
<!-- Node3&#45;&gt;Node5 -->
<g id="edge21" class="edge">
<title>Node3&#45;&gt;Node5</title>
<path fill="none" stroke="midnightblue" d="M487.29,-238.66C540.58,-226.28 621.21,-206.73 633.73,-199 657.49,-184.34 676.82,-156.67 685.61,-142.63"/>
<polygon fill="midnightblue" stroke="midnightblue" points="486.31,-235.3 477.35,-240.96 487.88,-242.12 486.31,-235.3"/>
</g>
<!-- Node3&#45;&gt;Node6 -->
<g id="edge24" class="edge">
<title>Node3&#45;&gt;Node6</title>
<path fill="none" stroke="midnightblue" d="M452.79,-232.76C464.88,-217.79 483.81,-195.71 502.73,-179 518.88,-164.73 539.67,-151.04 553.34,-142.58"/>
<polygon fill="midnightblue" stroke="midnightblue" points="450,-230.65 446.51,-240.65 455.47,-235.01 450,-230.65"/>
</g>
<!-- Node7 -->
<g id="node7" class="node">
<title>Node7</title>
<g id="a_node7"><a xlink:href="devices_8h.html" target="_top" xlink:title=" ">
<polygon fill="none" stroke="black" points="308.23,-67.5 308.23,-86.5 429.23,-86.5 429.23,-67.5 308.23,-67.5"/>
<text text-anchor="middle" x="368.73" y="-74.5" font-family="Helvetica,sans-Serif" font-size="10.00">kernel/include/devices.h</text>
</a>
</g>
</g>
<!-- Node3&#45;&gt;Node7 -->
<g id="edge6" class="edge">
<title>Node3&#45;&gt;Node7</title>
<path fill="none" stroke="midnightblue" d="M443.93,-230.83C448.72,-204.85 453.66,-157.16 434.73,-123 425.19,-105.77 405.93,-93.81 390.66,-86.58"/>
<polygon fill="midnightblue" stroke="midnightblue" points="440.46,-230.32 441.89,-240.82 447.32,-231.72 440.46,-230.32"/>
</g>
<!-- Node13 -->
<g id="node13" class="node">
<title>Node13</title>
<g id="a_node13"><a xlink:href="spinlock_8h.html" target="_top" xlink:title=" ">
<polygon fill="none" stroke="black" points="179.23,-179.5 179.23,-198.5 302.23,-198.5 302.23,-179.5 179.23,-179.5"/>
<text text-anchor="middle" x="240.73" y="-186.5" font-family="Helvetica,sans-Serif" font-size="10.00">kernel/include/spinlock.h</text>
</a>
</g>
</g>
<!-- Node3&#45;&gt;Node13 -->
<g id="edge12" class="edge">
<title>Node3&#45;&gt;Node13</title>
<path fill="none" stroke="midnightblue" d="M401.37,-238.03C362.69,-226.46 303.89,-208.88 269.19,-198.51"/>
<polygon fill="midnightblue" stroke="midnightblue" points="400.64,-241.46 411.22,-240.98 402.64,-234.76 400.64,-241.46"/>
</g>
<!-- Node14 -->
<g id="node14" class="node">
<title>Node14</title>
<g id="a_node14"><a xlink:href="thread_8h.html" target="_top" xlink:title=" ">
<polygon fill="none" stroke="black" points="311.73,-123.5 311.73,-142.5 425.73,-142.5 425.73,-123.5 311.73,-123.5"/>
<text text-anchor="middle" x="368.73" y="-130.5" font-family="Helvetica,sans-Serif" font-size="10.00">kernel/include/thread.h</text>
</a>
</g>
</g>
<!-- Node3&#45;&gt;Node14 -->
<g id="edge20" class="edge">
<title>Node3&#45;&gt;Node14</title>
<path fill="none" stroke="midnightblue" d="M421.93,-233.73C412.25,-224.4 400.68,-211.91 392.73,-199 381.39,-180.56 374.13,-155.92 370.82,-142.91"/>
<polygon fill="midnightblue" stroke="midnightblue" points="419.78,-236.51 429.49,-240.76 424.55,-231.38 419.78,-236.51"/>
</g>
<!-- Node15 -->
<g id="node15" class="node">
<title>Node15</title>
<g id="a_node15"><a xlink:href="kmt_8c.html" target="_top" xlink:title=" ">
<polygon fill="none" stroke="black" points="78.73,-67.5 78.73,-86.5 164.73,-86.5 164.73,-67.5 78.73,-67.5"/>
<text text-anchor="middle" x="121.73" y="-74.5" font-family="Helvetica,sans-Serif" font-size="10.00">kernel/src/kmt.c</text>
</a>
</g>
</g>
<!-- Node3&#45;&gt;Node15 -->
<g id="edge22" class="edge">
<title>Node3&#45;&gt;Node15</title>
<path fill="none" stroke="midnightblue" d="M389.59,-239.05C382.27,-237.63 374.82,-236.23 367.73,-235 203.76,-206.46 93.68,-283.67 4.73,-143 -15.51,-110.99 37.46,-93.39 78.62,-84.83"/>
<polygon fill="midnightblue" stroke="midnightblue" points="388.95,-242.49 399.44,-240.99 390.31,-235.62 388.95,-242.49"/>
</g>
<!-- Node16 -->
<g id="node16" class="node">
<title>Node16</title>
<g id="a_node16"><a xlink:href="os_8c.html" target="_top" xlink:title=" ">
<polygon fill="none" stroke="black" points="13.73,-123.5 13.73,-142.5 93.73,-142.5 93.73,-123.5 13.73,-123.5"/>
<text text-anchor="middle" x="53.73" y="-130.5" font-family="Helvetica,sans-Serif" font-size="10.00">kernel/src/os.c</text>
</a>
</g>
</g>
<!-- Node3&#45;&gt;Node16 -->
<g id="edge23" class="edge">
<title>Node3&#45;&gt;Node16</title>
<path fill="none" stroke="midnightblue" d="M388,-238.96C381.19,-237.61 374.3,-236.26 367.73,-235 279.89,-218.17 253.9,-229.27 169.73,-199 129.33,-184.47 86.4,-156.74 65.95,-142.66"/>
<polygon fill="midnightblue" stroke="midnightblue" points="387.39,-242.41 397.88,-240.93 388.76,-235.54 387.39,-242.41"/>
</g>
<!-- Node4&#45;&gt;Node5 -->
<g id="edge4" class="edge">
<title>Node4&#45;&gt;Node5</title>
<path fill="none" stroke="midnightblue" d="M596.51,-175.37C619.54,-165.26 651.22,-151.35 671.34,-142.52"/>
<polygon fill="midnightblue" stroke="midnightblue" points="594.97,-172.22 587.22,-179.44 597.79,-178.63 594.97,-172.22"/>
</g>
<!-- Node4&#45;&gt;Node6 -->
<g id="edge5" class="edge">
<title>Node4&#45;&gt;Node6</title>
<path fill="none" stroke="midnightblue" d="M567.73,-168.8C567.73,-159.91 567.73,-149.78 567.73,-142.75"/>
<polygon fill="midnightblue" stroke="midnightblue" points="564.23,-169.08 567.73,-179.08 571.23,-169.08 564.23,-169.08"/>
</g>
<!-- Node8 -->
<g id="node8" class="node">
<title>Node8</title>
<g id="a_node8"><a xlink:href="dev_8c.html" target="_top" xlink:title=" ">
<polygon fill="none" stroke="black" points="71.73,-6 71.73,-25 175.73,-25 175.73,-6 71.73,-6"/>
<text text-anchor="middle" x="123.73" y="-13" font-family="Helvetica,sans-Serif" font-size="10.00">kernel/src/dev/dev.c</text>
</a>
</g>
</g>
<!-- Node7&#45;&gt;Node8 -->
<g id="edge7" class="edge">
<title>Node7&#45;&gt;Node8</title>
<path fill="none" stroke="midnightblue" d="M323.91,-65.11C276.36,-53.57 202.22,-35.56 158.77,-25.01"/>
<polygon fill="midnightblue" stroke="midnightblue" points="323.09,-68.52 333.63,-67.48 324.74,-61.71 323.09,-68.52"/>
</g>
<!-- Node9 -->
<g id="node9" class="node">
<title>Node9</title>
<g id="a_node9"><a xlink:href="dev__input_8c.html" target="_top" xlink:title=" ">
<polygon fill="none" stroke="black" points="194.23,-0.5 194.23,-30.5 291.23,-30.5 291.23,-0.5 194.23,-0.5"/>
<text text-anchor="start" x="202.23" y="-18.5" font-family="Helvetica,sans-Serif" font-size="10.00">kernel/src/dev/dev</text>
<text text-anchor="middle" x="242.73" y="-7.5" font-family="Helvetica,sans-Serif" font-size="10.00">_input.c</text>
</a>
</g>
</g>
<!-- Node7&#45;&gt;Node9 -->
<g id="edge8" class="edge">
<title>Node7&#45;&gt;Node9</title>
<path fill="none" stroke="midnightblue" d="M341.63,-63.2C321.27,-53.58 293.39,-40.42 272.43,-30.52"/>
<polygon fill="midnightblue" stroke="midnightblue" points="340.14,-66.37 350.68,-67.48 343.13,-60.04 340.14,-66.37"/>
</g>
<!-- Node10 -->
<g id="node10" class="node">
<title>Node10</title>
<g id="a_node10"><a xlink:href="dev__sd_8c.html" target="_top" xlink:title=" ">
<polygon fill="none" stroke="black" points="308.73,-6 308.73,-25 428.73,-25 428.73,-6 308.73,-6"/>
<text text-anchor="middle" x="368.73" y="-13" font-family="Helvetica,sans-Serif" font-size="10.00">kernel/src/dev/dev_sd.c</text>
</a>
</g>
</g>
<!-- Node7&#45;&gt;Node10 -->
<g id="edge9" class="edge">
<title>Node7&#45;&gt;Node10</title>
<path fill="none" stroke="midnightblue" d="M368.73,-57.32C368.73,-46.5 368.73,-33.4 368.73,-25.01"/>
<polygon fill="midnightblue" stroke="midnightblue" points="365.23,-57.48 368.73,-67.48 372.23,-57.48 365.23,-57.48"/>
</g>
<!-- Node11 -->
<g id="node11" class="node">
<title>Node11</title>
<g id="a_node11"><a xlink:href="dev__tty_8c.html" target="_top" xlink:title=" ">
<polygon fill="none" stroke="black" points="446.23,-0.5 446.23,-30.5 543.23,-30.5 543.23,-0.5 446.23,-0.5"/>
<text text-anchor="start" x="454.23" y="-18.5" font-family="Helvetica,sans-Serif" font-size="10.00">kernel/src/dev/dev</text>
<text text-anchor="middle" x="494.73" y="-7.5" font-family="Helvetica,sans-Serif" font-size="10.00">_tty.c</text>
</a>
</g>
</g>
<!-- Node7&#45;&gt;Node11 -->
<g id="edge10" class="edge">
<title>Node7&#45;&gt;Node11</title>
<path fill="none" stroke="midnightblue" d="M395.84,-63.2C416.2,-53.58 444.07,-40.42 465.04,-30.52"/>
<polygon fill="midnightblue" stroke="midnightblue" points="394.33,-60.04 386.79,-67.48 397.32,-66.37 394.33,-60.04"/>
</g>
<!-- Node12 -->
<g id="node12" class="node">
<title>Node12</title>
<g id="a_node12"><a xlink:href="dev__video_8c.html" target="_top" xlink:title=" ">
<polygon fill="none" stroke="black" points="561.23,-0.5 561.23,-30.5 658.23,-30.5 658.23,-0.5 561.23,-0.5"/>
<text text-anchor="start" x="569.23" y="-18.5" font-family="Helvetica,sans-Serif" font-size="10.00">kernel/src/dev/dev</text>
<text text-anchor="middle" x="609.73" y="-7.5" font-family="Helvetica,sans-Serif" font-size="10.00">_video.c</text>
</a>
</g>
</g>
<!-- Node7&#45;&gt;Node12 -->
<g id="edge11" class="edge">
<title>Node7&#45;&gt;Node12</title>
<path fill="none" stroke="midnightblue" d="M414.07,-65.04C451.33,-55.99 505.48,-42.79 552.73,-31 555.51,-30.31 558.36,-29.59 561.23,-28.87"/>
<polygon fill="midnightblue" stroke="midnightblue" points="412.93,-61.71 404.03,-67.47 414.57,-68.51 412.93,-61.71"/>
</g>
<!-- Node13&#45;&gt;Node7 -->
<g id="edge13" class="edge">
<title>Node13&#45;&gt;Node7</title>
<path fill="none" stroke="midnightblue" d="M254.47,-171.78C266.5,-158.04 284.81,-138.21 302.73,-123 319.44,-108.82 340.67,-95 354.47,-86.5"/>
<polygon fill="midnightblue" stroke="midnightblue" points="251.74,-169.59 247.86,-179.45 257.04,-174.16 251.74,-169.59"/>
</g>
<!-- Node13&#45;&gt;Node14 -->
<g id="edge14" class="edge">
<title>Node13&#45;&gt;Node14</title>
<path fill="none" stroke="midnightblue" d="M270.36,-175.5C294.35,-165.38 327.52,-151.39 348.55,-142.52"/>
<polygon fill="midnightblue" stroke="midnightblue" points="268.87,-172.33 261.02,-179.44 271.59,-178.78 268.87,-172.33"/>
</g>
<!-- Node13&#45;&gt;Node15 -->
<g id="edge17" class="edge">
<title>Node13&#45;&gt;Node15</title>
<path fill="none" stroke="midnightblue" d="M193.6,-176.17C174.82,-169.3 154.46,-158.78 140.73,-143 126.53,-126.68 122.93,-100.24 122.03,-86.66"/>
<polygon fill="midnightblue" stroke="midnightblue" points="192.63,-179.54 203.22,-179.44 194.88,-172.91 192.63,-179.54"/>
</g>
<!-- Node13&#45;&gt;Node16 -->
<g id="edge18" class="edge">
<title>Node13&#45;&gt;Node16</title>
<path fill="none" stroke="midnightblue" d="M201.14,-176.57C165.87,-166.38 115.04,-151.7 83.23,-142.52"/>
<polygon fill="midnightblue" stroke="midnightblue" points="200.52,-180.03 211.1,-179.44 202.47,-173.31 200.52,-180.03"/>
</g>
<!-- Node17 -->
<g id="node17" class="node">
<title>Node17</title>
<g id="a_node17"><a xlink:href="spinlock_8c.html" target="_top" xlink:title=" ">
<polygon fill="none" stroke="black" points="149.73,-123.5 149.73,-142.5 255.73,-142.5 255.73,-123.5 149.73,-123.5"/>
<text text-anchor="middle" x="202.73" y="-130.5" font-family="Helvetica,sans-Serif" font-size="10.00">kernel/src/spinlock.c</text>
</a>
</g>
</g>
<!-- Node13&#45;&gt;Node17 -->
<g id="edge19" class="edge">
<title>Node13&#45;&gt;Node17</title>
<path fill="none" stroke="midnightblue" d="M228.67,-170.86C222.09,-161.5 214.22,-150.33 208.89,-142.75"/>
<polygon fill="midnightblue" stroke="midnightblue" points="225.84,-172.92 234.46,-179.08 231.57,-168.89 225.84,-172.92"/>
</g>
<!-- Node14&#45;&gt;Node7 -->
<g id="edge15" class="edge">
<title>Node14&#45;&gt;Node7</title>
<path fill="none" stroke="midnightblue" d="M368.73,-112.8C368.73,-103.91 368.73,-93.78 368.73,-86.75"/>
<polygon fill="midnightblue" stroke="midnightblue" points="365.23,-113.08 368.73,-123.08 372.23,-113.08 365.23,-113.08"/>
</g>
<!-- Node14&#45;&gt;Node15 -->
<g id="edge16" class="edge">
<title>Node14&#45;&gt;Node15</title>
<path fill="none" stroke="midnightblue" d="M319.71,-121.28C273.03,-111.08 203.7,-95.92 160.69,-86.52"/>
<polygon fill="midnightblue" stroke="midnightblue" points="319.08,-124.73 329.6,-123.44 320.57,-117.89 319.08,-124.73"/>
</g>
<!-- Node18&#45;&gt;Node4 -->
<g id="edge26" class="edge">
<title>Node18&#45;&gt;Node4</title>
<path fill="none" stroke="midnightblue" d="M569.79,-230.82C569.25,-220 568.59,-206.9 568.16,-198.51"/>
<polygon fill="midnightblue" stroke="midnightblue" points="566.3,-231.16 570.3,-240.98 573.3,-230.81 566.3,-231.16"/>
</g>
<!-- Node18&#45;&gt;Node14 -->
<g id="edge27" class="edge">
<title>Node18&#45;&gt;Node14</title>
<path fill="none" stroke="midnightblue" d="M546.8,-235.81C504.71,-211.75 418.61,-162.52 383.82,-142.62"/>
<polygon fill="midnightblue" stroke="midnightblue" points="545.13,-238.89 555.55,-240.82 548.61,-232.82 545.13,-238.89"/>
</g>
</g>
</svg>
