<?xml version="1.0" encoding="UTF-8" standalone="no"?>
<!DOCTYPE svg PUBLIC "-//W3C//DTD SVG 1.1//EN"
 "http://www.w3.org/Graphics/SVG/1.1/DTD/svg11.dtd">
<!-- Generated by graphviz version 3.0.0 (20220413.0106)
 -->
<!-- Title: main Pages: 1 -->
<svg width="754pt" height="464pt"
 viewBox="0.00 0.00 754.00 464.00" xmlns="http://www.w3.org/2000/svg" xmlns:xlink="http://www.w3.org/1999/xlink">
<g id="graph0" class="graph" transform="scale(1 1) rotate(0) translate(4 460)">
<title>main</title>
<!-- Node1 -->
<g id="node1" class="node">
<title>Node1</title>
<g id="a_node1"><a xlink:title=" ">
<polygon fill="#bfbfbf" stroke="black" points="0,-341.5 0,-360.5 38,-360.5 38,-341.5 0,-341.5"/>
<text text-anchor="middle" x="19" y="-348.5" font-family="Helvetica,sans-Serif" font-size="10.00">main</text>
</a>
</g>
</g>
<!-- Node2 -->
<g id="node2" class="node">
<title>Node2</title>
<g id="a_node2"><a xlink:href="am_8h.html#a38b6faa9eb5efb72008f8077e4adbcb3" target="_top" xlink:title=" ">
<polygon fill="none" stroke="black" points="76.5,-379.5 76.5,-398.5 124.5,-398.5 124.5,-379.5 76.5,-379.5"/>
<text text-anchor="middle" x="100.5" y="-386.5" font-family="Helvetica,sans-Serif" font-size="10.00">cte_init</text>
</a>
</g>
</g>
<!-- Node1&#45;&gt;Node2 -->
<g id="edge1" class="edge">
<title>Node1&#45;&gt;Node2</title>
<path fill="none" stroke="midnightblue" d="M38.04,-359.62C47.61,-364.2 59.59,-369.93 70.44,-375.11"/>
<polygon fill="midnightblue" stroke="midnightblue" points="69.05,-378.32 79.58,-379.48 72.07,-372.01 69.05,-378.32"/>
</g>
<!-- Node3 -->
<g id="node3" class="node">
<title>Node3</title>
<g id="a_node3"><a xlink:href="ioe_8c.html#a45ecef4130276c1c79d872c582cd3839" target="_top" xlink:title=" ">
<polygon fill="none" stroke="black" points="77,-341.5 77,-360.5 124,-360.5 124,-341.5 77,-341.5"/>
<text text-anchor="middle" x="100.5" y="-348.5" font-family="Helvetica,sans-Serif" font-size="10.00">ioe_init</text>
</a>
</g>
</g>
<!-- Node1&#45;&gt;Node3 -->
<g id="edge2" class="edge">
<title>Node1&#45;&gt;Node3</title>
<path fill="none" stroke="midnightblue" d="M38.04,-351C46.52,-351 56.9,-351 66.69,-351"/>
<polygon fill="midnightblue" stroke="midnightblue" points="66.98,-354.5 76.98,-351 66.98,-347.5 66.98,-354.5"/>
</g>
<!-- Node17 -->
<g id="node17" class="node">
<title>Node17</title>
<g id="a_node17"><a xlink:href="mpe_8c.html#a2e4a724e2d067425ff3fd49bc0bf42e1" target="_top" xlink:title=" ">
<polygon fill="none" stroke="black" points="74,-95.5 74,-114.5 127,-114.5 127,-95.5 74,-95.5"/>
<text text-anchor="middle" x="100.5" y="-102.5" font-family="Helvetica,sans-Serif" font-size="10.00">mpe_init</text>
</a>
</g>
</g>
<!-- Node1&#45;&gt;Node17 -->
<g id="edge22" class="edge">
<title>Node1&#45;&gt;Node17</title>
<path fill="none" stroke="midnightblue" d="M23.12,-341.36C34.94,-304.77 77.17,-174.11 93.23,-124.39"/>
<polygon fill="midnightblue" stroke="midnightblue" points="96.66,-125.17 96.41,-114.58 90,-123.02 96.66,-125.17"/>
</g>
<!-- Node4 -->
<g id="node4" class="node">
<title>Node4</title>
<g id="a_node4"><a xlink:href="mpe_8c.html#ab701de78cad32896c923ce900087e714" target="_top" xlink:title=" ">
<polygon fill="none" stroke="black" points="179.5,-436.5 179.5,-455.5 247.5,-455.5 247.5,-436.5 179.5,-436.5"/>
<text text-anchor="middle" x="213.5" y="-443.5" font-family="Helvetica,sans-Serif" font-size="10.00">cpu_current</text>
</a>
</g>
</g>
<!-- Node3&#45;&gt;Node4 -->
<g id="edge3" class="edge">
<title>Node3&#45;&gt;Node4</title>
<path fill="none" stroke="midnightblue" d="M116.3,-360.6C120.02,-363.38 123.85,-366.6 127,-370 147.36,-391.99 139.83,-408 163,-427 165.27,-428.86 167.74,-430.55 170.33,-432.09"/>
<polygon fill="midnightblue" stroke="midnightblue" points="168.95,-435.32 179.45,-436.73 172.13,-429.08 168.95,-435.32"/>
</g>
<!-- Node5 -->
<g id="node5" class="node">
<title>Node5</title>
<g id="a_node5"><a xlink:href="ioe_8c.html#a6ade281e99f1f270ffeebb9d82416221" target="_top" xlink:title=" ">
<polygon fill="none" stroke="black" points="199,-398.5 199,-417.5 228,-417.5 228,-398.5 199,-398.5"/>
<text text-anchor="middle" x="213.5" y="-405.5" font-family="Helvetica,sans-Serif" font-size="10.00">fail</text>
</a>
</g>
</g>
<!-- Node3&#45;&gt;Node5 -->
<g id="edge4" class="edge">
<title>Node3&#45;&gt;Node5</title>
<path fill="none" stroke="midnightblue" d="M115.24,-360.53C127.43,-368.72 145.91,-380.53 163,-389 171.33,-393.13 180.78,-396.95 189.19,-400.07"/>
<polygon fill="midnightblue" stroke="midnightblue" points="188.17,-403.43 198.76,-403.5 190.53,-396.84 188.17,-403.43"/>
</g>
<!-- Node6 -->
<g id="node6" class="node">
<title>Node6</title>
<g id="a_node6"><a xlink:href="ioe_8c.html#a581c0cd6946b2b6e0206453e2f80d51c" target="_top" xlink:title=" ">
<polygon fill="none" stroke="black" points="188.5,-360.5 188.5,-379.5 238.5,-379.5 238.5,-360.5 188.5,-360.5"/>
<text text-anchor="middle" x="213.5" y="-367.5" font-family="Helvetica,sans-Serif" font-size="10.00">gpu_init</text>
</a>
</g>
</g>
<!-- Node3&#45;&gt;Node6 -->
<g id="edge5" class="edge">
<title>Node3&#45;&gt;Node6</title>
<path fill="none" stroke="midnightblue" d="M124.23,-354.89C139.82,-357.56 160.78,-361.15 178.36,-364.16"/>
<polygon fill="midnightblue" stroke="midnightblue" points="177.81,-367.61 188.26,-365.85 179,-360.71 177.81,-367.61"/>
</g>
<!-- Node7 -->
<g id="node7" class="node">
<title>Node7</title>
<g id="a_node7"><a xlink:href="ioe_8c.html#ac17b85035372c81a45e604e6b4783db2" target="_top" xlink:title=" ">
<polygon fill="none" stroke="black" points="185.5,-256.5 185.5,-275.5 241.5,-275.5 241.5,-256.5 185.5,-256.5"/>
<text text-anchor="middle" x="213.5" y="-263.5" font-family="Helvetica,sans-Serif" font-size="10.00">timer_init</text>
</a>
</g>
</g>
<!-- Node3&#45;&gt;Node7 -->
<g id="edge6" class="edge">
<title>Node3&#45;&gt;Node7</title>
<path fill="none" stroke="midnightblue" d="M114.23,-341.25C133.22,-326.71 169.15,-299.2 191.9,-281.77"/>
<polygon fill="midnightblue" stroke="midnightblue" points="194.1,-284.5 199.92,-275.64 189.85,-278.94 194.1,-284.5"/>
</g>
<!-- Node16 -->
<g id="node16" class="node">
<title>Node16</title>
<g id="a_node16"><a xlink:href="ioe_8c.html#aa6bed8ea45612252dec485e7a9331a9d" target="_top" xlink:title=" ">
<polygon fill="none" stroke="black" points="623.5,-247.5 623.5,-266.5 674.5,-266.5 674.5,-247.5 623.5,-247.5"/>
<text text-anchor="middle" x="649" y="-254.5" font-family="Helvetica,sans-Serif" font-size="10.00">uart_init</text>
</a>
</g>
</g>
<!-- Node3&#45;&gt;Node16 -->
<g id="edge19" class="edge">
<title>Node3&#45;&gt;Node16</title>
<path fill="none" stroke="midnightblue" d="M124.18,-347.95C166.12,-342.58 258.66,-332 337,-332 337,-332 337,-332 441,-332 510.95,-332 586.66,-293.68 624.16,-271.82"/>
<polygon fill="midnightblue" stroke="midnightblue" points="626.04,-274.77 632.85,-266.65 622.46,-268.76 626.04,-274.77"/>
</g>
<!-- Node8 -->
<g id="node8" class="node">
<title>Node8</title>
<g id="a_node8"><a xlink:href="ioe_8c.html#a8f4d57167e8d4b53c00c84e504f330ef" target="_top" xlink:title=" ">
<polygon fill="none" stroke="black" points="300,-228.5 300,-247.5 376,-247.5 376,-228.5 300,-228.5"/>
<text text-anchor="middle" x="338" y="-235.5" font-family="Helvetica,sans-Serif" font-size="10.00">estimate_freq</text>
</a>
</g>
</g>
<!-- Node7&#45;&gt;Node8 -->
<g id="edge7" class="edge">
<title>Node7&#45;&gt;Node8</title>
<path fill="none" stroke="midnightblue" d="M241.69,-259.79C255.81,-256.56 273.48,-252.52 289.76,-248.8"/>
<polygon fill="midnightblue" stroke="midnightblue" points="290.7,-252.17 299.67,-246.53 289.14,-245.35 290.7,-252.17"/>
</g>
<!-- Node9 -->
<g id="node9" class="node">
<title>Node9</title>
<g id="a_node9"><a xlink:href="x86_8h.html#a47b9d70be3022fd0b5687d9794ca47bc" target="_top" xlink:title=" ">
<polygon fill="none" stroke="black" points="421,-275.5 421,-294.5 459,-294.5 459,-275.5 421,-275.5"/>
<text text-anchor="middle" x="440" y="-282.5" font-family="Helvetica,sans-Serif" font-size="10.00">rdtsc</text>
</a>
</g>
</g>
<!-- Node7&#45;&gt;Node9 -->
<g id="edge15" class="edge">
<title>Node7&#45;&gt;Node9</title>
<path fill="none" stroke="midnightblue" d="M241.82,-269.11C258.59,-270.96 280.52,-273.27 300,-275 338.3,-278.39 382.61,-281.43 410.71,-283.24"/>
<polygon fill="midnightblue" stroke="midnightblue" points="410.79,-286.75 420.99,-283.9 411.23,-279.77 410.79,-286.75"/>
</g>
<!-- Node15 -->
<g id="node15" class="node">
<title>Node15</title>
<g id="a_node15"><a xlink:href="ioe_8c.html#a7b167e0bb31c8168406860a278ce693a" target="_top" xlink:title=" ">
<polygon fill="none" stroke="black" points="412.5,-190.5 412.5,-209.5 467.5,-209.5 467.5,-190.5 412.5,-190.5"/>
<text text-anchor="middle" x="440" y="-197.5" font-family="Helvetica,sans-Serif" font-size="10.00">timer_rtc</text>
</a>
</g>
</g>
<!-- Node7&#45;&gt;Node15 -->
<g id="edge16" class="edge">
<title>Node7&#45;&gt;Node15</title>
<path fill="none" stroke="midnightblue" d="M228.29,-256.32C244.6,-245.38 272.98,-227.93 300,-219 333.53,-207.92 373.66,-203.29 402.16,-201.37"/>
<polygon fill="midnightblue" stroke="midnightblue" points="402.71,-204.84 412.48,-200.75 402.29,-197.85 402.71,-204.84"/>
</g>
<!-- Node8&#45;&gt;Node8 -->
<g id="edge8" class="edge">
<title>Node8&#45;&gt;Node8</title>
<path fill="none" stroke="midnightblue" d="M322.28,-247.76C314.63,-256.57 319.87,-266 338,-266 349.33,-266 355.63,-262.31 356.89,-257.4"/>
<polygon fill="midnightblue" stroke="midnightblue" points="360.17,-256.17 353.72,-247.76 353.52,-258.35 360.17,-256.17"/>
</g>
<!-- Node8&#45;&gt;Node9 -->
<g id="edge9" class="edge">
<title>Node8&#45;&gt;Node9</title>
<path fill="none" stroke="midnightblue" d="M359.24,-247.51C374.31,-254.6 395.06,-264.35 411.62,-272.13"/>
<polygon fill="midnightblue" stroke="midnightblue" points="410.27,-275.37 420.81,-276.45 413.25,-269.03 410.27,-275.37"/>
</g>
<!-- Node10 -->
<g id="node10" class="node">
<title>Node10</title>
<g id="a_node10"><a xlink:href="ioe_8c.html#a716ac8111009464db83866c3b49adbbb" target="_top" xlink:title=" ">
<polygon fill="none" stroke="black" points="412,-228.5 412,-247.5 468,-247.5 468,-228.5 412,-228.5"/>
<text text-anchor="middle" x="440" y="-235.5" font-family="Helvetica,sans-Serif" font-size="10.00">wait_sec</text>
</a>
</g>
</g>
<!-- Node8&#45;&gt;Node10 -->
<g id="edge10" class="edge">
<title>Node8&#45;&gt;Node10</title>
<path fill="none" stroke="midnightblue" d="M376.24,-238C384.51,-238 393.29,-238 401.58,-238"/>
<polygon fill="midnightblue" stroke="midnightblue" points="401.73,-241.5 411.73,-238 401.73,-234.5 401.73,-241.5"/>
</g>
<!-- Node11 -->
<g id="node11" class="node">
<title>Node11</title>
<g id="a_node11"><a xlink:href="ioe_8c.html#ad0681f53bec9167d7a8d4d848b3ce2e0" target="_top" xlink:title=" ">
<polygon fill="none" stroke="black" points="504,-228.5 504,-247.5 587,-247.5 587,-228.5 504,-228.5"/>
<text text-anchor="middle" x="545.5" y="-235.5" font-family="Helvetica,sans-Serif" font-size="10.00">read_rtc_async</text>
</a>
</g>
</g>
<!-- Node10&#45;&gt;Node11 -->
<g id="edge11" class="edge">
<title>Node10&#45;&gt;Node11</title>
<path fill="none" stroke="midnightblue" d="M468.19,-238C476.03,-238 484.84,-238 493.62,-238"/>
<polygon fill="midnightblue" stroke="midnightblue" points="493.85,-241.5 503.85,-238 493.85,-234.5 493.85,-241.5"/>
</g>
<!-- Node12 -->
<g id="node12" class="node">
<title>Node12</title>
<g id="a_node12"><a xlink:href="ioe_8c.html#a124b85735169c7add3c491093ffbc00e" target="_top" xlink:title=" ">
<polygon fill="none" stroke="black" points="623,-209.5 623,-228.5 675,-228.5 675,-209.5 623,-209.5"/>
<text text-anchor="middle" x="649" y="-216.5" font-family="Helvetica,sans-Serif" font-size="10.00">read_rtc</text>
</a>
</g>
</g>
<!-- Node11&#45;&gt;Node12 -->
<g id="edge12" class="edge">
<title>Node11&#45;&gt;Node12</title>
<path fill="none" stroke="midnightblue" d="M587.2,-230.38C595.65,-228.8 604.49,-227.14 612.73,-225.6"/>
<polygon fill="midnightblue" stroke="midnightblue" points="613.59,-229 622.77,-223.72 612.3,-222.12 613.59,-229"/>
</g>
<!-- Node13 -->
<g id="node13" class="node">
<title>Node13</title>
<g id="a_node13"><a xlink:href="x86_8h.html#afdc603aa210ab8fd9995ce74940f5d7f" target="_top" xlink:title=" ">
<polygon fill="none" stroke="black" points="714,-247.5 714,-266.5 743,-266.5 743,-247.5 714,-247.5"/>
<text text-anchor="middle" x="728.5" y="-254.5" font-family="Helvetica,sans-Serif" font-size="10.00">inb</text>
</a>
</g>
</g>
<!-- Node12&#45;&gt;Node13 -->
<g id="edge13" class="edge">
<title>Node12&#45;&gt;Node13</title>
<path fill="none" stroke="midnightblue" d="M669.56,-228.59C680.24,-233.83 693.52,-240.34 704.68,-245.81"/>
<polygon fill="midnightblue" stroke="midnightblue" points="703.29,-249.03 713.81,-250.29 706.37,-242.74 703.29,-249.03"/>
</g>
<!-- Node14 -->
<g id="node14" class="node">
<title>Node14</title>
<g id="a_node14"><a xlink:href="x86_8h.html#ade961b44e45ddacbc3c3b7609cf36dc6" target="_top" xlink:title=" ">
<polygon fill="none" stroke="black" points="711,-209.5 711,-228.5 746,-228.5 746,-209.5 711,-209.5"/>
<text text-anchor="middle" x="728.5" y="-216.5" font-family="Helvetica,sans-Serif" font-size="10.00">outb</text>
</a>
</g>
</g>
<!-- Node12&#45;&gt;Node14 -->
<g id="edge14" class="edge">
<title>Node12&#45;&gt;Node14</title>
<path fill="none" stroke="midnightblue" d="M675.38,-219C683.48,-219 692.47,-219 700.68,-219"/>
<polygon fill="midnightblue" stroke="midnightblue" points="700.86,-222.5 710.86,-219 700.86,-215.5 700.86,-222.5"/>
</g>
<!-- Node15&#45;&gt;Node11 -->
<g id="edge18" class="edge">
<title>Node15&#45;&gt;Node11</title>
<path fill="none" stroke="midnightblue" d="M467.12,-209.59C479.74,-214.22 495.09,-219.86 508.78,-224.89"/>
<polygon fill="midnightblue" stroke="midnightblue" points="507.8,-228.25 518.39,-228.41 510.21,-221.68 507.8,-228.25"/>
</g>
<!-- Node15&#45;&gt;Node12 -->
<g id="edge17" class="edge">
<title>Node15&#45;&gt;Node12</title>
<path fill="none" stroke="midnightblue" d="M467.64,-202.45C504.6,-205.84 571.54,-211.98 612.65,-215.76"/>
<polygon fill="midnightblue" stroke="midnightblue" points="612.48,-219.25 622.76,-216.68 613.12,-212.28 612.48,-219.25"/>
</g>
<!-- Node16&#45;&gt;Node13 -->
<g id="edge20" class="edge">
<title>Node16&#45;&gt;Node13</title>
<path fill="none" stroke="midnightblue" d="M674.52,-257C683.83,-257 694.41,-257 703.65,-257"/>
<polygon fill="midnightblue" stroke="midnightblue" points="703.73,-260.5 713.73,-257 703.73,-253.5 703.73,-260.5"/>
</g>
<!-- Node16&#45;&gt;Node14 -->
<g id="edge21" class="edge">
<title>Node16&#45;&gt;Node14</title>
<path fill="none" stroke="midnightblue" d="M669.56,-247.41C679.31,-242.63 691.23,-236.79 701.71,-231.64"/>
<polygon fill="midnightblue" stroke="midnightblue" points="703.4,-234.71 710.84,-227.17 700.32,-228.43 703.4,-234.71"/>
</g>
<!-- Node18 -->
<g id="node18" class="node">
<title>Node18</title>
<g id="a_node18"><a xlink:href="ioe_8c.html#a88a238fee7cd006afa69ea97e4914a09" target="_top" xlink:title=" ">
<polygon fill="none" stroke="black" points="163,-152.5 163,-171.5 264,-171.5 264,-152.5 163,-152.5"/>
<text text-anchor="middle" x="213.5" y="-159.5" font-family="Helvetica,sans-Serif" font-size="10.00">__am_lapic_bootap</text>
</a>
</g>
</g>
<!-- Node17&#45;&gt;Node18 -->
<g id="edge23" class="edge">
<title>Node17&#45;&gt;Node18</title>
<path fill="none" stroke="midnightblue" d="M115.24,-114.53C127.43,-122.72 145.91,-134.53 163,-143 167.01,-144.98 171.27,-146.9 175.56,-148.7"/>
<polygon fill="midnightblue" stroke="midnightblue" points="174.29,-151.96 184.87,-152.44 176.9,-145.47 174.29,-151.96"/>
</g>
<!-- Node20 -->
<g id="node20" class="node">
<title>Node20</title>
<g id="a_node20"><a xlink:href="x86_8h.html#adfa01b89ceed9e7a87f185f4e441aa16" target="_top" xlink:title=" ">
<polygon fill="none" stroke="black" points="179.5,-114.5 179.5,-133.5 247.5,-133.5 247.5,-114.5 179.5,-114.5"/>
<text text-anchor="middle" x="213.5" y="-121.5" font-family="Helvetica,sans-Serif" font-size="10.00">boot_record</text>
</a>
</g>
</g>
<!-- Node17&#45;&gt;Node20 -->
<g id="edge26" class="edge">
<title>Node17&#45;&gt;Node20</title>
<path fill="none" stroke="midnightblue" d="M127.24,-109.41C139.72,-111.54 155.03,-114.16 169.23,-116.59"/>
<polygon fill="midnightblue" stroke="midnightblue" points="168.86,-120.08 179.31,-118.32 170.04,-113.18 168.86,-120.08"/>
</g>
<!-- Node21 -->
<g id="node21" class="node">
<title>Node21</title>
<g id="a_node21"><a xlink:href="mpe_8c.html#afc800fc7438b6762f113c46d25cab75b" target="_top" xlink:title=" ">
<polygon fill="none" stroke="black" points="172.5,-76.5 172.5,-95.5 254.5,-95.5 254.5,-76.5 172.5,-76.5"/>
<text text-anchor="middle" x="213.5" y="-83.5" font-family="Helvetica,sans-Serif" font-size="10.00">call_user_entry</text>
</a>
</g>
</g>
<!-- Node17&#45;&gt;Node21 -->
<g id="edge27" class="edge">
<title>Node17&#45;&gt;Node21</title>
<path fill="none" stroke="midnightblue" d="M127.24,-100.59C137.65,-98.81 150.04,-96.69 162.11,-94.63"/>
<polygon fill="midnightblue" stroke="midnightblue" points="162.85,-98.05 172.11,-92.91 161.67,-91.15 162.85,-98.05"/>
</g>
<!-- Node22 -->
<g id="node22" class="node">
<title>Node22</title>
<g id="a_node22"><a xlink:href="x86_8h.html#a2948382efa6ca2d9520fa9bb11a63ff9" target="_top" xlink:title=" ">
<polygon fill="none" stroke="black" points="192,-38.5 192,-57.5 235,-57.5 235,-38.5 192,-38.5"/>
<text text-anchor="middle" x="213.5" y="-45.5" font-family="Helvetica,sans-Serif" font-size="10.00">pause</text>
</a>
</g>
</g>
<!-- Node17&#45;&gt;Node22 -->
<g id="edge28" class="edge">
<title>Node17&#45;&gt;Node22</title>
<path fill="none" stroke="midnightblue" d="M115.24,-95.47C127.43,-87.28 145.91,-75.47 163,-67 169.06,-64 175.72,-61.15 182.14,-58.62"/>
<polygon fill="midnightblue" stroke="midnightblue" points="183.79,-61.74 191.9,-54.93 181.31,-55.19 183.79,-61.74"/>
</g>
<!-- Node23 -->
<g id="node23" class="node">
<title>Node23</title>
<g id="a_node23"><a xlink:href="x86_8h.html#a48b2a6a16dc8d7e09d327aa3803f1112" target="_top" xlink:title=" ">
<polygon fill="none" stroke="black" points="195,-0.5 195,-19.5 232,-19.5 232,-0.5 195,-0.5"/>
<text text-anchor="middle" x="213.5" y="-7.5" font-family="Helvetica,sans-Serif" font-size="10.00">xchg</text>
</a>
</g>
</g>
<!-- Node17&#45;&gt;Node23 -->
<g id="edge29" class="edge">
<title>Node17&#45;&gt;Node23</title>
<path fill="none" stroke="midnightblue" d="M106.9,-95.48C116.34,-79.61 137.32,-47.66 163,-29 169.63,-24.18 177.63,-20.42 185.25,-17.56"/>
<polygon fill="midnightblue" stroke="midnightblue" points="186.54,-20.82 194.9,-14.3 184.3,-14.18 186.54,-20.82"/>
</g>
<!-- Node18&#45;&gt;Node14 -->
<g id="edge25" class="edge">
<title>Node18&#45;&gt;Node14</title>
<path fill="none" stroke="midnightblue" d="M264.43,-162C309.93,-162 378.98,-162 439,-162 439,-162 439,-162 546.5,-162 603.77,-162 666.72,-188.28 701.23,-205.16"/>
<polygon fill="midnightblue" stroke="midnightblue" points="700.08,-208.49 710.59,-209.84 703.22,-202.23 700.08,-208.49"/>
</g>
<!-- Node19 -->
<g id="node19" class="node">
<title>Node19</title>
<g id="a_node19"><a xlink:href="ioe_8c.html#a72d9ed0bfe1066367763e044b7a7b7c3" target="_top" xlink:title=" ">
<polygon fill="none" stroke="black" points="316,-114.5 316,-133.5 360,-133.5 360,-114.5 316,-114.5"/>
<text text-anchor="middle" x="338" y="-121.5" font-family="Helvetica,sans-Serif" font-size="10.00">lapicw</text>
</a>
</g>
</g>
<!-- Node18&#45;&gt;Node19 -->
<g id="edge24" class="edge">
<title>Node18&#45;&gt;Node19</title>
<path fill="none" stroke="midnightblue" d="M245.41,-152.41C263.95,-146.66 287.45,-139.37 306,-133.61"/>
<polygon fill="midnightblue" stroke="midnightblue" points="307.23,-136.9 315.74,-130.59 305.15,-130.21 307.23,-136.9"/>
</g>
</g>
</svg>
