<?xml version="1.0" encoding="UTF-8" standalone="no"?>
<!DOCTYPE svg PUBLIC "-//W3C//DTD SVG 1.1//EN"
 "http://www.w3.org/Graphics/SVG/1.1/DTD/svg11.dtd">
<!-- Generated by graphviz version 2.50.0 (20220203.2022)
 -->
<!-- Title: main Pages: 1 -->
<svg width="352pt" height="199pt"
 viewBox="0.00 0.00 352.00 199.00" xmlns="http://www.w3.org/2000/svg" xmlns:xlink="http://www.w3.org/1999/xlink">
<g id="graph0" class="graph" transform="scale(1 1) rotate(0) translate(4 195)">
<title>main</title>
<!-- Node1 -->
<g id="node1" class="node">
<title>Node1</title>
<g id="a_node1"><a xlink:title=" ">
<polygon fill="#bfbfbf" stroke="black" points="0,-76.5 0,-95.5 38,-95.5 38,-76.5 0,-76.5"/>
<text text-anchor="middle" x="19" y="-83.5" font-family="Helvetica,sans-Serif" font-size="10.00">main</text>
</a>
</g>
</g>
<!-- Node2 -->
<g id="node2" class="node">
<title>Node2</title>
<g id="a_node2"><a xlink:href="mpe_8c.html#a2e4a724e2d067425ff3fd49bc0bf42e1" target="_top" xlink:title=" ">
<polygon fill="none" stroke="black" points="74,-76.5 74,-95.5 127,-95.5 127,-76.5 74,-76.5"/>
<text text-anchor="middle" x="100.5" y="-83.5" font-family="Helvetica,sans-Serif" font-size="10.00">mpe_init</text>
</a>
</g>
</g>
<!-- Node1&#45;&gt;Node2 -->
<g id="edge1" class="edge">
<title>Node1&#45;&gt;Node2</title>
<path fill="none" stroke="midnightblue" d="M38.04,-86C45.68,-86 54.86,-86 63.77,-86"/>
<polygon fill="midnightblue" stroke="midnightblue" points="64,-89.5 74,-86 64,-82.5 64,-89.5"/>
</g>
<!-- Node3 -->
<g id="node3" class="node">
<title>Node3</title>
<g id="a_node3"><a xlink:href="ioe_8c.html#a88a238fee7cd006afa69ea97e4914a09" target="_top" xlink:title=" ">
<polygon fill="none" stroke="black" points="163,-152.5 163,-171.5 264,-171.5 264,-152.5 163,-152.5"/>
<text text-anchor="middle" x="213.5" y="-159.5" font-family="Helvetica,sans-Serif" font-size="10.00">__am_lapic_bootap</text>
</a>
</g>
</g>
<!-- Node2&#45;&gt;Node3 -->
<g id="edge2" class="edge">
<title>Node2&#45;&gt;Node3</title>
<path fill="none" stroke="midnightblue" d="M109.77,-95.68C120.81,-108.09 141.5,-129.61 163,-143 166.11,-144.94 169.46,-146.73 172.88,-148.38"/>
<polygon fill="midnightblue" stroke="midnightblue" points="171.48,-151.59 182.05,-152.41 174.3,-145.18 171.48,-151.59"/>
</g>
<!-- Node6 -->
<g id="node6" class="node">
<title>Node6</title>
<g id="a_node6"><a xlink:href="x86_8h.html#adfa01b89ceed9e7a87f185f4e441aa16" target="_top" xlink:title=" ">
<polygon fill="none" stroke="black" points="179.5,-114.5 179.5,-133.5 247.5,-133.5 247.5,-114.5 179.5,-114.5"/>
<text text-anchor="middle" x="213.5" y="-121.5" font-family="Helvetica,sans-Serif" font-size="10.00">boot_record</text>
</a>
</g>
</g>
<!-- Node2&#45;&gt;Node6 -->
<g id="edge5" class="edge">
<title>Node2&#45;&gt;Node6</title>
<path fill="none" stroke="midnightblue" d="M127.24,-94.81C141.46,-99.68 159.37,-105.81 175.1,-111.2"/>
<polygon fill="midnightblue" stroke="midnightblue" points="173.97,-114.51 184.56,-114.44 176.23,-107.89 173.97,-114.51"/>
</g>
<!-- Node7 -->
<g id="node7" class="node">
<title>Node7</title>
<g id="a_node7"><a xlink:href="mpe_8c.html#afc800fc7438b6762f113c46d25cab75b" target="_top" xlink:title=" ">
<polygon fill="none" stroke="black" points="172.5,-76.5 172.5,-95.5 254.5,-95.5 254.5,-76.5 172.5,-76.5"/>
<text text-anchor="middle" x="213.5" y="-83.5" font-family="Helvetica,sans-Serif" font-size="10.00">call_user_entry</text>
</a>
</g>
</g>
<!-- Node2&#45;&gt;Node7 -->
<g id="edge6" class="edge">
<title>Node2&#45;&gt;Node7</title>
<path fill="none" stroke="midnightblue" d="M127.24,-86C137.65,-86 150.04,-86 162.11,-86"/>
<polygon fill="midnightblue" stroke="midnightblue" points="162.11,-89.5 172.11,-86 162.11,-82.5 162.11,-89.5"/>
</g>
<!-- Node8 -->
<g id="node8" class="node">
<title>Node8</title>
<g id="a_node8"><a xlink:href="x86_8h.html#a2948382efa6ca2d9520fa9bb11a63ff9" target="_top" xlink:title=" ">
<polygon fill="none" stroke="black" points="192,-38.5 192,-57.5 235,-57.5 235,-38.5 192,-38.5"/>
<text text-anchor="middle" x="213.5" y="-45.5" font-family="Helvetica,sans-Serif" font-size="10.00">pause</text>
</a>
</g>
</g>
<!-- Node2&#45;&gt;Node8 -->
<g id="edge7" class="edge">
<title>Node2&#45;&gt;Node8</title>
<path fill="none" stroke="midnightblue" d="M127.24,-77.19C143.63,-71.58 164.92,-64.29 182.13,-58.4"/>
<polygon fill="midnightblue" stroke="midnightblue" points="183.39,-61.66 191.72,-55.11 181.12,-55.04 183.39,-61.66"/>
</g>
<!-- Node9 -->
<g id="node9" class="node">
<title>Node9</title>
<g id="a_node9"><a xlink:href="x86_8h.html#a48b2a6a16dc8d7e09d327aa3803f1112" target="_top" xlink:title=" ">
<polygon fill="none" stroke="black" points="195,-0.5 195,-19.5 232,-19.5 232,-0.5 195,-0.5"/>
<text text-anchor="middle" x="213.5" y="-7.5" font-family="Helvetica,sans-Serif" font-size="10.00">xchg</text>
</a>
</g>
</g>
<!-- Node2&#45;&gt;Node9 -->
<g id="edge8" class="edge">
<title>Node2&#45;&gt;Node9</title>
<path fill="none" stroke="midnightblue" d="M109.77,-76.32C120.81,-63.91 141.5,-42.39 163,-29 169.85,-24.74 177.8,-21.17 185.31,-18.31"/>
<polygon fill="midnightblue" stroke="midnightblue" points="186.52,-21.6 194.79,-14.98 184.19,-15 186.52,-21.6"/>
</g>
<!-- Node4 -->
<g id="node4" class="node">
<title>Node4</title>
<g id="a_node4"><a xlink:href="ioe_8c.html#a72d9ed0bfe1066367763e044b7a7b7c3" target="_top" xlink:title=" ">
<polygon fill="none" stroke="black" points="300,-171.5 300,-190.5 344,-190.5 344,-171.5 300,-171.5"/>
<text text-anchor="middle" x="322" y="-178.5" font-family="Helvetica,sans-Serif" font-size="10.00">lapicw</text>
</a>
</g>
</g>
<!-- Node3&#45;&gt;Node4 -->
<g id="edge3" class="edge">
<title>Node3&#45;&gt;Node4</title>
<path fill="none" stroke="midnightblue" d="M264.01,-170.83C272.77,-172.4 281.67,-173.98 289.75,-175.42"/>
<polygon fill="midnightblue" stroke="midnightblue" points="289.36,-178.91 299.82,-177.22 290.59,-172.02 289.36,-178.91"/>
</g>
<!-- Node5 -->
<g id="node5" class="node">
<title>Node5</title>
<g id="a_node5"><a xlink:href="x86_8h.html#ade961b44e45ddacbc3c3b7609cf36dc6" target="_top" xlink:title=" ">
<polygon fill="none" stroke="black" points="304.5,-133.5 304.5,-152.5 339.5,-152.5 339.5,-133.5 304.5,-133.5"/>
<text text-anchor="middle" x="322" y="-140.5" font-family="Helvetica,sans-Serif" font-size="10.00">outb</text>
</a>
</g>
</g>
<!-- Node3&#45;&gt;Node5 -->
<g id="edge4" class="edge">
<title>Node3&#45;&gt;Node5</title>
<path fill="none" stroke="midnightblue" d="M264.01,-153.17C274.47,-151.3 285.13,-149.4 294.35,-147.75"/>
<polygon fill="midnightblue" stroke="midnightblue" points="295.2,-151.16 304.43,-145.96 293.97,-144.27 295.2,-151.16"/>
</g>
</g>
</svg>
