<?xml version="1.0" encoding="UTF-8" standalone="no"?>
<!DOCTYPE svg PUBLIC "-//W3C//DTD SVG 1.1//EN"
 "http://www.w3.org/Graphics/SVG/1.1/DTD/svg11.dtd">
<!-- Generated by graphviz version 3.0.0 (20220413.0106)
 -->
<!-- Title: atomic_xchg Pages: 1 -->
<svg width="681pt" height="415pt"
 viewBox="0.00 0.00 681.00 414.61" xmlns="http://www.w3.org/2000/svg" xmlns:xlink="http://www.w3.org/1999/xlink">
<g id="graph0" class="graph" transform="scale(1 1) rotate(0) translate(4 410.61)">
<title>atomic_xchg</title>
<!-- Node1 -->
<g id="node1" class="node">
<title>Node1</title>
<g id="a_node1"><a xlink:title=" ">
<polygon fill="#bfbfbf" stroke="black" points="602,-209.5 602,-228.5 673,-228.5 673,-209.5 602,-209.5"/>
<text text-anchor="middle" x="637.5" y="-216.5" font-family="Helvetica,sans-Serif" font-size="10.00">atomic_xchg</text>
</a>
</g>
</g>
<!-- Node2 -->
<g id="node2" class="node">
<title>Node2</title>
<g id="a_node2"><a xlink:href="spinlock_8c.html#ab6f3c37ec37006951feccc3c05387cce" target="_top" xlink:title="acquire spinlock to current cpu">
<polygon fill="none" stroke="black" points="508,-209.5 508,-228.5 566,-228.5 566,-209.5 508,-209.5"/>
<text text-anchor="middle" x="537" y="-216.5" font-family="Helvetica,sans-Serif" font-size="10.00">spin_lock</text>
</a>
</g>
</g>
<!-- Node1&#45;&gt;Node2 -->
<g id="edge1" class="edge">
<title>Node1&#45;&gt;Node2</title>
<path fill="none" stroke="midnightblue" d="M591.74,-219C583.07,-219 574.21,-219 566.25,-219"/>
<polygon fill="midnightblue" stroke="midnightblue" points="591.77,-222.5 601.77,-219 591.77,-215.5 591.77,-222.5"/>
</g>
<!-- Node3 -->
<g id="node3" class="node">
<title>Node3</title>
<g id="a_node3"><a xlink:href="kmt_8c.html#af9c485ce0d89d6624e6e80e31d8ed207" target="_top" xlink:title="handler: save context to current task">
<polygon fill="none" stroke="black" points="233,-266.5 233,-285.5 329,-285.5 329,-266.5 233,-266.5"/>
<text text-anchor="middle" x="281" y="-273.5" font-family="Helvetica,sans-Serif" font-size="10.00">kmt_context_save</text>
</a>
</g>
</g>
<!-- Node2&#45;&gt;Node3 -->
<g id="edge2" class="edge">
<title>Node2&#45;&gt;Node3</title>
<path fill="none" stroke="midnightblue" d="M501.53,-231.9C492.05,-235.16 481.7,-238.45 472,-241 423.98,-253.6 367.98,-263.33 329.28,-269.3"/>
<polygon fill="midnightblue" stroke="midnightblue" points="502.77,-235.18 511.04,-228.55 500.44,-228.57 502.77,-235.18"/>
</g>
<!-- Node5 -->
<g id="node5" class="node">
<title>Node5</title>
<g id="a_node5"><a xlink:href="kmt_8c.html#af360ef0d98ca30e481cc58ea3695fd58" target="_top" xlink:title=" ">
<polygon fill="none" stroke="black" points="0,-171.5 0,-190.5 83,-190.5 83,-171.5 0,-171.5"/>
<text text-anchor="middle" x="41.5" y="-178.5" font-family="Helvetica,sans-Serif" font-size="10.00">MODULE_DEF</text>
</a>
</g>
</g>
<!-- Node2&#45;&gt;Node5 -->
<g id="edge21" class="edge">
<title>Node2&#45;&gt;Node5</title>
<path fill="none" stroke="midnightblue" d="M535.54,-238.95C533.45,-276.58 522.96,-357.45 472,-393 433,-420.21 412.39,-396.92 365,-393 247.71,-383.29 202.35,-378.09 119,-295 85.58,-261.68 58.09,-211.71 47.35,-190.77"/>
<polygon fill="midnightblue" stroke="midnightblue" points="539.04,-238.89 535.95,-228.76 532.05,-238.61 539.04,-238.89"/>
</g>
<!-- Node6 -->
<g id="node6" class="node">
<title>Node6</title>
<g id="a_node6"><a xlink:href="kmt_8c.html#a5ddb8743298012e84cf9cb5faf22212b" target="_top" xlink:title="create thread">
<polygon fill="none" stroke="black" points="125.5,-190.5 125.5,-209.5 190.5,-209.5 190.5,-190.5 125.5,-190.5"/>
<text text-anchor="middle" x="158" y="-197.5" font-family="Helvetica,sans-Serif" font-size="10.00">kmt_create</text>
</a>
</g>
</g>
<!-- Node2&#45;&gt;Node6 -->
<g id="edge5" class="edge">
<title>Node2&#45;&gt;Node6</title>
<path fill="none" stroke="midnightblue" d="M497.62,-217.07C422.98,-213.3 259.54,-205.07 190.63,-201.59"/>
<polygon fill="midnightblue" stroke="midnightblue" points="497.81,-220.58 507.97,-217.59 498.16,-213.59 497.81,-220.58"/>
</g>
<!-- Node7 -->
<g id="node7" class="node">
<title>Node7</title>
<g id="a_node7"><a xlink:href="kmt_8c.html#a13cbe2d83bf10c3302124613fa18f8a4" target="_top" xlink:title="print all tasks notice: do not garantee concurrency safety">
<polygon fill="none" stroke="black" points="368,-342.5 368,-361.5 469,-361.5 469,-342.5 368,-342.5"/>
<text text-anchor="middle" x="418.5" y="-349.5" font-family="Helvetica,sans-Serif" font-size="10.00">kmt_print_all_tasks</text>
</a>
</g>
</g>
<!-- Node2&#45;&gt;Node7 -->
<g id="edge7" class="edge">
<title>Node2&#45;&gt;Node7</title>
<path fill="none" stroke="midnightblue" d="M529.93,-238.3C521.08,-263.47 502.3,-307.31 472,-333 467.42,-336.89 461.97,-340 456.36,-342.5"/>
<polygon fill="midnightblue" stroke="midnightblue" points="533.27,-239.36 533.12,-228.76 526.63,-237.14 533.27,-239.36"/>
</g>
<!-- Node9 -->
<g id="node9" class="node">
<title>Node9</title>
<g id="a_node9"><a xlink:href="kmt_8c.html#ad4d70b4093829da1c0b0631abdff7747" target="_top" xlink:title="handler: schedule next task to run Notice: this should be the only handler which returns real Context">
<polygon fill="none" stroke="black" points="242.5,-342.5 242.5,-361.5 319.5,-361.5 319.5,-342.5 242.5,-342.5"/>
<text text-anchor="middle" x="281" y="-349.5" font-family="Helvetica,sans-Serif" font-size="10.00">kmt_schedule</text>
</a>
</g>
</g>
<!-- Node2&#45;&gt;Node9 -->
<g id="edge15" class="edge">
<title>Node2&#45;&gt;Node9</title>
<path fill="none" stroke="midnightblue" d="M534.39,-238.81C530.44,-272.72 517,-341.12 472,-371 418.97,-406.21 338.61,-377.92 301.75,-361.57"/>
<polygon fill="midnightblue" stroke="midnightblue" points="537.88,-239.04 535.4,-228.74 530.92,-238.34 537.88,-239.04"/>
</g>
<!-- Node10 -->
<g id="node10" class="node">
<title>Node10</title>
<g id="a_node10"><a xlink:href="kmt_8c.html#ab4e9dee1880e455874374b44b5785bc3" target="_top" xlink:title="print all current_tasks notice: do not garantee concurrency safety">
<polygon fill="none" stroke="black" points="365,-304.5 365,-323.5 472,-323.5 472,-304.5 365,-304.5"/>
<text text-anchor="middle" x="418.5" y="-311.5" font-family="Helvetica,sans-Serif" font-size="10.00">kmt_print_cpu_tasks</text>
</a>
</g>
</g>
<!-- Node2&#45;&gt;Node10 -->
<g id="edge12" class="edge">
<title>Node2&#45;&gt;Node10</title>
<path fill="none" stroke="midnightblue" d="M523,-237.2C511.12,-252.8 492.36,-275.06 472,-290 464.08,-295.81 454.53,-300.69 445.76,-304.5"/>
<polygon fill="midnightblue" stroke="midnightblue" points="526.01,-239.01 529.15,-228.89 520.39,-234.84 526.01,-239.01"/>
</g>
<!-- Node11 -->
<g id="node11" class="node">
<title>Node11</title>
<g id="a_node11"><a xlink:href="kmt_8c.html#a47d8887c87041abd5ea3148232b65c93" target="_top" xlink:title="tear down a thread">
<polygon fill="none" stroke="black" points="119,-152.5 119,-171.5 197,-171.5 197,-152.5 119,-152.5"/>
<text text-anchor="middle" x="158" y="-159.5" font-family="Helvetica,sans-Serif" font-size="10.00">kmt_teardown</text>
</a>
</g>
</g>
<!-- Node2&#45;&gt;Node11 -->
<g id="edge16" class="edge">
<title>Node2&#45;&gt;Node11</title>
<path fill="none" stroke="midnightblue" d="M497.71,-210.83C489.26,-209.13 480.34,-207.43 472,-206 373.3,-189.05 256.25,-173.91 197.18,-166.61"/>
<polygon fill="midnightblue" stroke="midnightblue" points="497.22,-214.3 507.71,-212.87 498.62,-207.44 497.22,-214.3"/>
</g>
<!-- Node12 -->
<g id="node12" class="node">
<title>Node12</title>
<g id="a_node12"><a xlink:href="kmt_8c.html#a75ea8dbba16d64a343a45962bd593930" target="_top" xlink:title="handler: handle yield interrupt (0x81)">
<polygon fill="none" stroke="black" points="252,-228.5 252,-247.5 310,-247.5 310,-228.5 252,-228.5"/>
<text text-anchor="middle" x="281" y="-235.5" font-family="Helvetica,sans-Serif" font-size="10.00">kmt_yield</text>
</a>
</g>
</g>
<!-- Node2&#45;&gt;Node12 -->
<g id="edge18" class="edge">
<title>Node2&#45;&gt;Node12</title>
<path fill="none" stroke="midnightblue" d="M497.8,-221.86C446.37,-225.7 356.04,-232.46 310.28,-235.88"/>
<polygon fill="midnightblue" stroke="midnightblue" points="498.14,-225.34 507.85,-221.11 497.61,-218.36 498.14,-225.34"/>
</g>
<!-- Node13 -->
<g id="node13" class="node">
<title>Node13</title>
<g id="a_node13"><a xlink:href="kernel_8h.html#a7ef2d722f9c7f8acc1801144a5188825" target="_top" xlink:title=" ">
<polygon fill="none" stroke="black" points="251.5,-76.5 251.5,-95.5 310.5,-95.5 310.5,-76.5 251.5,-76.5"/>
<text text-anchor="middle" x="281" y="-83.5" font-family="Helvetica,sans-Serif" font-size="10.00">MODULE</text>
</a>
</g>
</g>
<!-- Node2&#45;&gt;Node13 -->
<g id="edge20" class="edge">
<title>Node2&#45;&gt;Node13</title>
<path fill="none" stroke="midnightblue" d="M531.05,-199.3C523.29,-172.94 505.57,-126.97 472,-105 422.76,-72.78 350.46,-76.11 310.75,-81.18"/>
<polygon fill="midnightblue" stroke="midnightblue" points="527.76,-200.55 533.78,-209.27 534.51,-198.7 527.76,-200.55"/>
</g>
<!-- Node14 -->
<g id="node14" class="node">
<title>Node14</title>
<g id="a_node14"><a xlink:href="os_8c.html#a2be1c9facb49d4439f41b1537d0f3ef8" target="_top" xlink:title="System trap entry.">
<polygon fill="none" stroke="black" points="394,-0.5 394,-19.5 443,-19.5 443,-0.5 394,-0.5"/>
<text text-anchor="middle" x="418.5" y="-7.5" font-family="Helvetica,sans-Serif" font-size="10.00">os_trap</text>
</a>
</g>
</g>
<!-- Node2&#45;&gt;Node14 -->
<g id="edge22" class="edge">
<title>Node2&#45;&gt;Node14</title>
<path fill="none" stroke="midnightblue" d="M534.81,-198.89C531.5,-160.66 518.98,-77.04 472,-29 464.34,-21.17 453.22,-16.55 443.17,-13.83"/>
<polygon fill="midnightblue" stroke="midnightblue" points="531.35,-199.49 535.58,-209.21 538.33,-198.97 531.35,-199.49"/>
</g>
<!-- Node16 -->
<g id="node16" class="node">
<title>Node16</title>
<g id="a_node16"><a xlink:href="sem_8c.html#ad994e433f3a6bf8626272437cb54c114" target="_top" xlink:title="wake up a task form tasks waiting for the semaphore instance">
<polygon fill="none" stroke="black" points="385.5,-114.5 385.5,-133.5 451.5,-133.5 451.5,-114.5 385.5,-114.5"/>
<text text-anchor="middle" x="418.5" y="-121.5" font-family="Helvetica,sans-Serif" font-size="10.00">sem_signal</text>
</a>
</g>
</g>
<!-- Node2&#45;&gt;Node16 -->
<g id="edge24" class="edge">
<title>Node2&#45;&gt;Node16</title>
<path fill="none" stroke="midnightblue" d="M523,-200.8C511.12,-185.2 492.36,-162.94 472,-148 464.08,-142.19 454.53,-137.31 445.76,-133.5"/>
<polygon fill="midnightblue" stroke="midnightblue" points="520.39,-203.16 529.15,-209.11 526.01,-198.99 520.39,-203.16"/>
</g>
<!-- Node17 -->
<g id="node17" class="node">
<title>Node17</title>
<g id="a_node17"><a xlink:href="sem_8c.html#a85ca67864bb0af1966a5c2463bd16fe8" target="_top" xlink:title="release semaphore(Mutex) and sleep task holding the sem">
<polygon fill="none" stroke="black" points="389,-38.5 389,-57.5 448,-57.5 448,-38.5 389,-38.5"/>
<text text-anchor="middle" x="418.5" y="-45.5" font-family="Helvetica,sans-Serif" font-size="10.00">sem_wait</text>
</a>
</g>
</g>
<!-- Node2&#45;&gt;Node17 -->
<g id="edge27" class="edge">
<title>Node2&#45;&gt;Node17</title>
<path fill="none" stroke="midnightblue" d="M532.22,-199.51C525.32,-168.73 507.95,-108.61 472,-72 465.4,-65.28 456.57,-60.26 448.03,-56.59"/>
<polygon fill="midnightblue" stroke="midnightblue" points="528.82,-200.36 534.3,-209.42 535.67,-198.92 528.82,-200.36"/>
</g>
<!-- Node4 -->
<g id="node4" class="node">
<title>Node4</title>
<g id="a_node4"><a xlink:href="kmt_8c.html#a0c68a294cecc4be7cb4b495f15b883a0" target="_top" xlink:title="initialize kmt module">
<polygon fill="none" stroke="black" points="132.5,-266.5 132.5,-285.5 183.5,-285.5 183.5,-266.5 132.5,-266.5"/>
<text text-anchor="middle" x="158" y="-273.5" font-family="Helvetica,sans-Serif" font-size="10.00">kmt_init</text>
</a>
</g>
</g>
<!-- Node3&#45;&gt;Node4 -->
<g id="edge3" class="edge">
<title>Node3&#45;&gt;Node4</title>
<path fill="none" stroke="midnightblue" d="M222.87,-276C209.02,-276 194.94,-276 183.53,-276"/>
<polygon fill="midnightblue" stroke="midnightblue" points="222.87,-279.5 232.87,-276 222.87,-272.5 222.87,-279.5"/>
</g>
<!-- Node4&#45;&gt;Node5 -->
<g id="edge4" class="edge">
<title>Node4&#45;&gt;Node5</title>
<path fill="none" stroke="midnightblue" d="M137.42,-259.76C113.46,-239.87 73.66,-206.85 54.09,-190.61"/>
<polygon fill="midnightblue" stroke="midnightblue" points="135.25,-262.5 145.18,-266.19 139.72,-257.11 135.25,-262.5"/>
</g>
<!-- Node6&#45;&gt;Node5 -->
<g id="edge6" class="edge">
<title>Node6&#45;&gt;Node5</title>
<path fill="none" stroke="midnightblue" d="M115.54,-193.12C104.94,-191.36 93.56,-189.47 83.01,-187.72"/>
<polygon fill="midnightblue" stroke="midnightblue" points="114.97,-196.57 125.41,-194.76 116.12,-189.67 114.97,-196.57"/>
</g>
<!-- Node8 -->
<g id="node8" class="node">
<title>Node8</title>
<g id="a_node8"><a xlink:href="kmt_8c.html#ad3fbc643b7b6092120c5152b4c890354" target="_top" xlink:title="handler: handle program errors">
<polygon fill="none" stroke="black" points="252,-304.5 252,-323.5 310,-323.5 310,-304.5 252,-304.5"/>
<text text-anchor="middle" x="281" y="-311.5" font-family="Helvetica,sans-Serif" font-size="10.00">kmt_error</text>
</a>
</g>
</g>
<!-- Node7&#45;&gt;Node8 -->
<g id="edge8" class="edge">
<title>Node7&#45;&gt;Node8</title>
<path fill="none" stroke="midnightblue" d="M373.43,-339.64C352.66,-333.82 328.51,-327.04 310.24,-321.92"/>
<polygon fill="midnightblue" stroke="midnightblue" points="372.73,-343.08 383.31,-342.41 374.62,-336.34 372.73,-343.08"/>
</g>
<!-- Node7&#45;&gt;Node9 -->
<g id="edge10" class="edge">
<title>Node7&#45;&gt;Node9</title>
<path fill="none" stroke="midnightblue" d="M357.62,-352C344.77,-352 331.53,-352 319.79,-352"/>
<polygon fill="midnightblue" stroke="midnightblue" points="357.81,-355.5 367.81,-352 357.81,-348.5 357.81,-355.5"/>
</g>
<!-- Node8&#45;&gt;Node4 -->
<g id="edge9" class="edge">
<title>Node8&#45;&gt;Node4</title>
<path fill="none" stroke="midnightblue" d="M242.31,-302.16C223.19,-296.16 200.5,-289.03 183.63,-283.74"/>
<polygon fill="midnightblue" stroke="midnightblue" points="241.35,-305.53 251.94,-305.19 243.44,-298.85 241.35,-305.53"/>
</g>
<!-- Node9&#45;&gt;Node4 -->
<g id="edge11" class="edge">
<title>Node9&#45;&gt;Node4</title>
<path fill="none" stroke="midnightblue" d="M243.23,-338.28C239.71,-336.63 236.25,-334.86 233,-333 208.8,-319.13 183.71,-298.17 169.86,-285.9"/>
<polygon fill="midnightblue" stroke="midnightblue" points="242,-341.56 252.56,-342.37 244.81,-335.15 242,-341.56"/>
</g>
<!-- Node10&#45;&gt;Node8 -->
<g id="edge13" class="edge">
<title>Node10&#45;&gt;Node8</title>
<path fill="none" stroke="midnightblue" d="M354.59,-314C339.04,-314 323.16,-314 310.22,-314"/>
<polygon fill="midnightblue" stroke="midnightblue" points="354.72,-317.5 364.72,-314 354.72,-310.5 354.72,-317.5"/>
</g>
<!-- Node10&#45;&gt;Node9 -->
<g id="edge14" class="edge">
<title>Node10&#45;&gt;Node9</title>
<path fill="none" stroke="midnightblue" d="M373.58,-326.32C354.96,-331.54 333.59,-337.53 316.18,-342.41"/>
<polygon fill="midnightblue" stroke="midnightblue" points="374.62,-329.66 383.31,-323.59 372.73,-322.92 374.62,-329.66"/>
</g>
<!-- Node11&#45;&gt;Node5 -->
<g id="edge17" class="edge">
<title>Node11&#45;&gt;Node5</title>
<path fill="none" stroke="midnightblue" d="M108.99,-169.97C100.41,-171.39 91.56,-172.86 83.21,-174.24"/>
<polygon fill="midnightblue" stroke="midnightblue" points="109.58,-173.42 118.87,-168.33 108.44,-166.51 109.58,-173.42"/>
</g>
<!-- Node12&#45;&gt;Node4 -->
<g id="edge19" class="edge">
<title>Node12&#45;&gt;Node4</title>
<path fill="none" stroke="midnightblue" d="M242.31,-249.84C223.19,-255.84 200.5,-262.97 183.63,-268.26"/>
<polygon fill="midnightblue" stroke="midnightblue" points="243.44,-253.15 251.94,-246.81 241.35,-246.47 243.44,-253.15"/>
</g>
<!-- Node15 -->
<g id="node15" class="node">
<title>Node15</title>
<g id="a_node15"><a xlink:href="os_8c.html#aafec7046aa50c914df86d0d22d4fc1d1" target="_top" xlink:title=" ">
<polygon fill="none" stroke="black" points="239.5,-0.5 239.5,-19.5 322.5,-19.5 322.5,-0.5 239.5,-0.5"/>
<text text-anchor="middle" x="281" y="-7.5" font-family="Helvetica,sans-Serif" font-size="10.00">MODULE_DEF</text>
</a>
</g>
</g>
<!-- Node14&#45;&gt;Node15 -->
<g id="edge23" class="edge">
<title>Node14&#45;&gt;Node15</title>
<path fill="none" stroke="midnightblue" d="M383.84,-10C365.29,-10 342.13,-10 322.58,-10"/>
<polygon fill="midnightblue" stroke="midnightblue" points="383.9,-13.5 393.9,-10 383.9,-6.5 383.9,-13.5"/>
</g>
<!-- Node16&#45;&gt;Node5 -->
<g id="edge26" class="edge">
<title>Node16&#45;&gt;Node5</title>
<path fill="none" stroke="midnightblue" d="M375.11,-121.5C316.46,-119.21 207.76,-119.17 119,-143 96.23,-149.11 72.23,-162.29 57.32,-171.4"/>
<polygon fill="midnightblue" stroke="midnightblue" points="375.32,-125.01 385.46,-121.95 375.62,-118.02 375.32,-125.01"/>
</g>
<!-- Node16&#45;&gt;Node13 -->
<g id="edge25" class="edge">
<title>Node16&#45;&gt;Node13</title>
<path fill="none" stroke="midnightblue" d="M375.7,-112.28C354.6,-106.36 329.55,-99.33 310.66,-94.04"/>
<polygon fill="midnightblue" stroke="midnightblue" points="374.81,-115.66 385.39,-114.99 376.7,-108.92 374.81,-115.66"/>
</g>
<!-- Node17&#45;&gt;Node5 -->
<g id="edge29" class="edge">
<title>Node17&#45;&gt;Node5</title>
<path fill="none" stroke="midnightblue" d="M378.66,-47.97C340.78,-48.87 281.89,-52.77 233,-67 178.61,-82.83 167.23,-94.29 119,-124 94.74,-138.94 68.55,-159.53 53.97,-171.44"/>
<polygon fill="midnightblue" stroke="midnightblue" points="378.83,-51.47 388.76,-47.79 378.7,-44.47 378.83,-51.47"/>
</g>
<!-- Node17&#45;&gt;Node13 -->
<g id="edge28" class="edge">
<title>Node17&#45;&gt;Node13</title>
<path fill="none" stroke="midnightblue" d="M378.87,-58.83C357.16,-64.92 330.54,-72.39 310.69,-77.95"/>
<polygon fill="midnightblue" stroke="midnightblue" points="380.08,-62.13 388.76,-56.06 378.19,-55.39 380.08,-62.13"/>
</g>
</g>
</svg>
