<?xml version="1.0" encoding="UTF-8" standalone="no"?>
<!DOCTYPE svg PUBLIC "-//W3C//DTD SVG 1.1//EN"
 "http://www.w3.org/Graphics/SVG/1.1/DTD/svg11.dtd">
<!-- Generated by graphviz version 3.0.0 (20220413.0106)
 -->
<!-- Title: cpu_current Pages: 1 -->
<svg width="911pt" height="910pt"
 viewBox="0.00 0.00 911.00 909.91" xmlns="http://www.w3.org/2000/svg" xmlns:xlink="http://www.w3.org/1999/xlink">
<g id="graph0" class="graph" transform="scale(1 1) rotate(0) translate(4 905.91)">
<title>cpu_current</title>
<!-- Node1 -->
<g id="node1" class="node">
<title>Node1</title>
<g id="a_node1"><a xlink:title=" ">
<polygon fill="#bfbfbf" stroke="black" points="835,-662.14 835,-681.14 903,-681.14 903,-662.14 835,-662.14"/>
<text text-anchor="middle" x="869" y="-669.14" font-family="Helvetica,sans-Serif" font-size="10.00">cpu_current</text>
</a>
</g>
</g>
<!-- Node2 -->
<g id="node2" class="node">
<title>Node2</title>
<g id="a_node2"><a xlink:href="mpe_8c.html#a0a540532023afb1f31b6f21ce053483b" target="_top" xlink:title=" ">
<polygon fill="none" stroke="black" points="687,-852.14 687,-871.14 799,-871.14 799,-852.14 687,-852.14"/>
<text text-anchor="middle" x="743" y="-859.14" font-family="Helvetica,sans-Serif" font-size="10.00">__am_stop_the_world</text>
</a>
</g>
</g>
<!-- Node1&#45;&gt;Node2 -->
<g id="edge1" class="edge">
<title>Node1&#45;&gt;Node2</title>
<path fill="none" stroke="midnightblue" d="M865.43,-691.3C859.81,-726.53 843.18,-800.65 799,-842.64 794.9,-846.53 789.96,-849.63 784.75,-852.1"/>
<polygon fill="midnightblue" stroke="midnightblue" points="868.91,-691.72 866.89,-681.32 861.98,-690.7 868.91,-691.72"/>
</g>
<!-- Node3 -->
<g id="node3" class="node">
<title>Node3</title>
<g id="a_node3"><a xlink:href="trm_8c.html#a483cb97188e557c3c68d3a1572c2cc92" target="_top" xlink:title=" ">
<polygon fill="none" stroke="black" points="599.5,-871.14 599.5,-890.14 631.5,-890.14 631.5,-871.14 599.5,-871.14"/>
<text text-anchor="middle" x="615.5" y="-878.14" font-family="Helvetica,sans-Serif" font-size="10.00">halt</text>
</a>
</g>
</g>
<!-- Node1&#45;&gt;Node3 -->
<g id="edge6" class="edge">
<title>Node1&#45;&gt;Node3</title>
<path fill="none" stroke="midnightblue" d="M868.43,-691.35C868.15,-734.3 860.68,-836.04 799,-880.64 747.65,-917.76 665.14,-896.88 631.51,-885.97"/>
<polygon fill="midnightblue" stroke="midnightblue" points="871.93,-691.3 868.36,-681.33 864.93,-691.35 871.93,-691.3"/>
</g>
<!-- Node6 -->
<g id="node6" class="node">
<title>Node6</title>
<g id="a_node6"><a xlink:href="cte_8c.html#a14d86719abbc247f8a0dd5eb2662ea88" target="_top" xlink:title=" ">
<polygon fill="none" stroke="black" points="719,-814.14 719,-833.14 767,-833.14 767,-814.14 719,-814.14"/>
<text text-anchor="middle" x="743" y="-821.14" font-family="Helvetica,sans-Serif" font-size="10.00">cte_init</text>
</a>
</g>
</g>
<!-- Node1&#45;&gt;Node6 -->
<g id="edge5" class="edge">
<title>Node1&#45;&gt;Node6</title>
<path fill="none" stroke="midnightblue" d="M862.99,-690.9C854.54,-719.65 834.78,-773.73 799,-804.64 790.06,-812.36 777.8,-816.99 767.12,-819.75"/>
<polygon fill="midnightblue" stroke="midnightblue" points="866.37,-691.79 865.68,-681.22 859.63,-689.91 866.37,-691.79"/>
</g>
<!-- Node7 -->
<g id="node7" class="node">
<title>Node7</title>
<g id="a_node7"><a xlink:href="ioe_8c.html#a45ecef4130276c1c79d872c582cd3839" target="_top" xlink:title=" ">
<polygon fill="none" stroke="black" points="719.5,-776.14 719.5,-795.14 766.5,-795.14 766.5,-776.14 719.5,-776.14"/>
<text text-anchor="middle" x="743" y="-783.14" font-family="Helvetica,sans-Serif" font-size="10.00">ioe_init</text>
</a>
</g>
</g>
<!-- Node1&#45;&gt;Node7 -->
<g id="edge7" class="edge">
<title>Node1&#45;&gt;Node7</title>
<path fill="none" stroke="midnightblue" d="M857.74,-690.08C845.85,-710.01 824.58,-741.61 799,-761.64 789.4,-769.15 777.09,-774.81 766.55,-778.74"/>
<polygon fill="midnightblue" stroke="midnightblue" points="860.82,-691.74 862.8,-681.33 854.76,-688.23 860.82,-691.74"/>
</g>
<!-- Node9 -->
<g id="node9" class="node">
<title>Node9</title>
<g id="a_node9"><a xlink:href="kmt_8c.html#af9c485ce0d89d6624e6e80e31d8ed207" target="_top" xlink:title="handler: save context to current task">
<polygon fill="none" stroke="black" points="330.5,-624.14 330.5,-643.14 426.5,-643.14 426.5,-624.14 330.5,-624.14"/>
<text text-anchor="middle" x="378.5" y="-631.14" font-family="Helvetica,sans-Serif" font-size="10.00">kmt_context_save</text>
</a>
</g>
</g>
<!-- Node1&#45;&gt;Node9 -->
<g id="edge9" class="edge">
<title>Node1&#45;&gt;Node9</title>
<path fill="none" stroke="midnightblue" d="M824.99,-661.92C816.42,-660.27 807.45,-658.73 799,-657.64 664.62,-640.25 504.39,-635.46 426.57,-634.14"/>
<polygon fill="midnightblue" stroke="midnightblue" points="824.33,-665.36 834.82,-663.9 825.71,-658.5 824.33,-665.36"/>
</g>
<!-- Node12 -->
<g id="node12" class="node">
<title>Node12</title>
<g id="a_node12"><a xlink:href="kmt_8c.html#a031a09141c265954f2b609183e573d1c" target="_top" xlink:title="get current cpu&#39;s tasks">
<polygon fill="none" stroke="black" points="468,-700.14 468,-719.14 544,-719.14 544,-700.14 468,-700.14"/>
<text text-anchor="middle" x="506" y="-707.14" font-family="Helvetica,sans-Serif" font-size="10.00">kmt_get_task</text>
</a>
</g>
</g>
<!-- Node1&#45;&gt;Node12 -->
<g id="edge12" class="edge">
<title>Node1&#45;&gt;Node12</title>
<path fill="none" stroke="midnightblue" d="M824.97,-681.18C816.4,-682.85 807.44,-684.44 799,-685.64 707.85,-698.58 599.62,-705.22 544.03,-708"/>
<polygon fill="midnightblue" stroke="midnightblue" points="825.69,-684.61 834.8,-679.2 824.3,-677.75 825.69,-684.61"/>
</g>
<!-- Node13 -->
<g id="node13" class="node">
<title>Node13</title>
<g id="a_node13"><a xlink:href="kmt_8c.html#ad4d70b4093829da1c0b0631abdff7747" target="_top" xlink:title="handler: schedule next task to run Notice: this should be the only handler which returns real Context">
<polygon fill="none" stroke="black" points="209,-548.14 209,-567.14 286,-567.14 286,-548.14 209,-548.14"/>
<text text-anchor="middle" x="247.5" y="-555.14" font-family="Helvetica,sans-Serif" font-size="10.00">kmt_schedule</text>
</a>
</g>
</g>
<!-- Node1&#45;&gt;Node13 -->
<g id="edge19" class="edge">
<title>Node1&#45;&gt;Node13</title>
<path fill="none" stroke="midnightblue" d="M824.48,-671.64C774.34,-671.64 689.47,-671.64 616.5,-671.64 616.5,-671.64 616.5,-671.64 505,-671.64 424.56,-671.64 395.63,-691.13 325,-652.64 288.37,-632.67 262.81,-587.18 252.98,-567.27"/>
<polygon fill="midnightblue" stroke="midnightblue" points="824.64,-675.14 834.64,-671.64 824.64,-668.14 824.64,-675.14"/>
</g>
<!-- Node15 -->
<g id="node15" class="node">
<title>Node15</title>
<g id="a_node15"><a xlink:href="kmt_8c.html#a9ddca6d133a84154c98607bf0ee82c76" target="_top" xlink:title="set cpu&#39;s current task">
<polygon fill="none" stroke="black" points="340.5,-776.14 340.5,-795.14 416.5,-795.14 416.5,-776.14 340.5,-776.14"/>
<text text-anchor="middle" x="378.5" y="-783.14" font-family="Helvetica,sans-Serif" font-size="10.00">kmt_set_task</text>
</a>
</g>
</g>
<!-- Node1&#45;&gt;Node15 -->
<g id="edge20" class="edge">
<title>Node1&#45;&gt;Node15</title>
<path fill="none" stroke="midnightblue" d="M842.73,-686.14C829.97,-692.92 814.04,-700.6 799,-705.64 662.08,-751.49 490.71,-773.87 416.54,-781.96"/>
<polygon fill="midnightblue" stroke="midnightblue" points="844.71,-689.04 851.8,-681.18 841.35,-682.9 844.71,-689.04"/>
</g>
<!-- Node16 -->
<g id="node16" class="node">
<title>Node16</title>
<g id="a_node16"><a xlink:href="spinlock_8c.html#ad4be0d674a7ca4dc90c2dbf8b34562cc" target="_top" xlink:title="check current cpu has the lock">
<polygon fill="none" stroke="black" points="580,-396.14 580,-415.14 651,-415.14 651,-396.14 580,-396.14"/>
<text text-anchor="middle" x="615.5" y="-403.14" font-family="Helvetica,sans-Serif" font-size="10.00">spin_holding</text>
</a>
</g>
</g>
<!-- Node1&#45;&gt;Node16 -->
<g id="edge23" class="edge">
<title>Node1&#45;&gt;Node16</title>
<path fill="none" stroke="midnightblue" d="M867.77,-651.98C866.15,-609.39 856.16,-508.04 799,-453.64 777.88,-433.53 697.9,-418.18 651.12,-410.69"/>
<polygon fill="midnightblue" stroke="midnightblue" points="864.27,-652.23 868.03,-662.13 871.27,-652.05 864.27,-652.23"/>
</g>
<!-- Node27 -->
<g id="node27" class="node">
<title>Node27</title>
<g id="a_node27"><a xlink:href="spinlock_8c.html#ab6f3c37ec37006951feccc3c05387cce" target="_top" xlink:title="acquire spinlock to current cpu">
<polygon fill="none" stroke="black" points="477,-282.14 477,-301.14 535,-301.14 535,-282.14 477,-282.14"/>
<text text-anchor="middle" x="506" y="-289.14" font-family="Helvetica,sans-Serif" font-size="10.00">spin_lock</text>
</a>
</g>
</g>
<!-- Node1&#45;&gt;Node27 -->
<g id="edge73" class="edge">
<title>Node1&#45;&gt;Node27</title>
<path fill="none" stroke="midnightblue" d="M865.91,-651.65C859.32,-592.16 837.08,-417.9 799,-377.64 727.65,-302.18 593.79,-291.89 535.43,-291.19"/>
<polygon fill="midnightblue" stroke="midnightblue" points="862.47,-652.37 867.02,-661.94 869.43,-651.62 862.47,-652.37"/>
</g>
<!-- Node29 -->
<g id="node29" class="node">
<title>Node29</title>
<g id="a_node29"><a xlink:href="spinlock_8c.html#afc9565dc7a5ddf77e1fa76f5d91caf78" target="_top" xlink:title="interrupt able">
<polygon fill="none" stroke="black" points="710.5,-463.14 710.5,-482.14 775.5,-482.14 775.5,-463.14 710.5,-463.14"/>
<text text-anchor="middle" x="743" y="-470.14" font-family="Helvetica,sans-Serif" font-size="10.00">spin_popcli</text>
</a>
</g>
</g>
<!-- Node1&#45;&gt;Node29 -->
<g id="edge74" class="edge">
<title>Node1&#45;&gt;Node29</title>
<path fill="none" stroke="midnightblue" d="M856.57,-653.29C830.87,-612.05 769.27,-513.19 749.92,-482.14"/>
<polygon fill="midnightblue" stroke="midnightblue" points="853.76,-655.4 862.02,-662.04 859.7,-651.7 853.76,-655.4"/>
</g>
<!-- Node30 -->
<g id="node30" class="node">
<title>Node30</title>
<g id="a_node30"><a xlink:href="spinlock_8c.html#ab213874cda54fdbbeb1bec1e5fa90b28" target="_top" xlink:title="interrupt disable">
<polygon fill="none" stroke="black" points="707.5,-387.14 707.5,-406.14 778.5,-406.14 778.5,-387.14 707.5,-387.14"/>
<text text-anchor="middle" x="743" y="-394.14" font-family="Helvetica,sans-Serif" font-size="10.00">spin_pushcli</text>
</a>
</g>
</g>
<!-- Node1&#45;&gt;Node30 -->
<g id="edge77" class="edge">
<title>Node1&#45;&gt;Node30</title>
<path fill="none" stroke="midnightblue" d="M868.06,-651.98C867.17,-605.9 858.74,-489.6 799,-420.64 793.54,-414.34 786.13,-409.63 778.51,-406.14"/>
<polygon fill="midnightblue" stroke="midnightblue" points="864.56,-652.14 868.15,-662.11 871.56,-652.08 864.56,-652.14"/>
</g>
<!-- Node31 -->
<g id="node31" class="node">
<title>Node31</title>
<g id="a_node31"><a xlink:href="vme_8c.html#a102a03634ce449f78facc63eee85d9b8" target="_top" xlink:title=" ">
<polygon fill="none" stroke="black" points="716.5,-282.14 716.5,-301.14 769.5,-301.14 769.5,-282.14 716.5,-282.14"/>
<text text-anchor="middle" x="743" y="-289.14" font-family="Helvetica,sans-Serif" font-size="10.00">vme_init</text>
</a>
</g>
</g>
<!-- Node1&#45;&gt;Node31 -->
<g id="edge80" class="edge">
<title>Node1&#45;&gt;Node31</title>
<path fill="none" stroke="midnightblue" d="M866.55,-651.73C861.32,-584.72 841.42,-368.59 799,-315.64 791.7,-306.53 780.27,-300.8 769.7,-297.23"/>
<polygon fill="midnightblue" stroke="midnightblue" points="863.07,-652.09 867.31,-661.8 870.05,-651.57 863.07,-652.09"/>
</g>
<!-- Node2&#45;&gt;Node3 -->
<g id="edge2" class="edge">
<title>Node2&#45;&gt;Node3</title>
<path fill="none" stroke="midnightblue" d="M676.99,-871.48C660.03,-874.04 643.3,-876.58 631.75,-878.33"/>
<polygon fill="midnightblue" stroke="midnightblue" points="677.59,-874.93 686.95,-869.97 676.54,-868.01 677.59,-874.93"/>
</g>
<!-- Node4 -->
<g id="node4" class="node">
<title>Node4</title>
<g id="a_node4"><a xlink:href="trm_8c.html#a12a49ff4d3a586b2315e292c5da3df7e" target="_top" xlink:title=" ">
<polygon fill="none" stroke="black" points="477,-871.14 477,-890.14 535,-890.14 535,-871.14 477,-871.14"/>
<text text-anchor="middle" x="506" y="-878.14" font-family="Helvetica,sans-Serif" font-size="10.00">call_main</text>
</a>
</g>
</g>
<!-- Node3&#45;&gt;Node4 -->
<g id="edge3" class="edge">
<title>Node3&#45;&gt;Node4</title>
<path fill="none" stroke="midnightblue" d="M588.79,-880.64C572.67,-880.64 551.87,-880.64 535.29,-880.64"/>
<polygon fill="midnightblue" stroke="midnightblue" points="589.1,-884.14 599.1,-880.64 589.1,-877.14 589.1,-884.14"/>
</g>
<!-- Node5 -->
<g id="node5" class="node">
<title>Node5</title>
<g id="a_node5"><a xlink:href="trm_8c.html#a54a85aeee6f6a8ef875d4cca663f9fd8" target="_top" xlink:title=" ">
<polygon fill="none" stroke="black" points="352.5,-871.14 352.5,-890.14 404.5,-890.14 404.5,-871.14 352.5,-871.14"/>
<text text-anchor="middle" x="378.5" y="-878.14" font-family="Helvetica,sans-Serif" font-size="10.00">_start_c</text>
</a>
</g>
</g>
<!-- Node4&#45;&gt;Node5 -->
<g id="edge4" class="edge">
<title>Node4&#45;&gt;Node5</title>
<path fill="none" stroke="midnightblue" d="M466.71,-880.64C446.53,-880.64 422.37,-880.64 404.59,-880.64"/>
<polygon fill="midnightblue" stroke="midnightblue" points="466.84,-884.14 476.84,-880.64 466.84,-877.14 466.84,-884.14"/>
</g>
<!-- Node8 -->
<g id="node8" class="node">
<title>Node8</title>
<g id="a_node8"><a xlink:href="main_8c.html#ae66f6b31b5ad750f1fe042a706a4e3d4" target="_top" xlink:title=" ">
<polygon fill="none" stroke="black" points="596.5,-776.14 596.5,-795.14 634.5,-795.14 634.5,-776.14 596.5,-776.14"/>
<text text-anchor="middle" x="615.5" y="-783.14" font-family="Helvetica,sans-Serif" font-size="10.00">main</text>
</a>
</g>
</g>
<!-- Node7&#45;&gt;Node8 -->
<g id="edge8" class="edge">
<title>Node7&#45;&gt;Node8</title>
<path fill="none" stroke="midnightblue" d="M709.25,-785.64C685.43,-785.64 654.05,-785.64 634.59,-785.64"/>
<polygon fill="midnightblue" stroke="midnightblue" points="709.27,-789.14 719.27,-785.64 709.27,-782.14 709.27,-789.14"/>
</g>
<!-- Node10 -->
<g id="node10" class="node">
<title>Node10</title>
<g id="a_node10"><a xlink:href="kmt_8c.html#a0c68a294cecc4be7cb4b495f15b883a0" target="_top" xlink:title="initialize kmt module">
<polygon fill="none" stroke="black" points="119,-510.14 119,-529.14 170,-529.14 170,-510.14 119,-510.14"/>
<text text-anchor="middle" x="144.5" y="-517.14" font-family="Helvetica,sans-Serif" font-size="10.00">kmt_init</text>
</a>
</g>
</g>
<!-- Node9&#45;&gt;Node10 -->
<g id="edge10" class="edge">
<title>Node9&#45;&gt;Node10</title>
<path fill="none" stroke="midnightblue" d="M321.49,-621.6C286.64,-612.55 241.8,-598.01 206,-576.64 184.44,-563.76 164.24,-542.06 153.51,-529.47"/>
<polygon fill="midnightblue" stroke="midnightblue" points="320.95,-625.07 331.5,-624.11 322.66,-618.28 320.95,-625.07"/>
</g>
<!-- Node11 -->
<g id="node11" class="node">
<title>Node11</title>
<g id="a_node11"><a xlink:href="kmt_8c.html#af360ef0d98ca30e481cc58ea3695fd58" target="_top" xlink:title=" ">
<polygon fill="none" stroke="black" points="0,-244.14 0,-263.14 83,-263.14 83,-244.14 0,-244.14"/>
<text text-anchor="middle" x="41.5" y="-251.14" font-family="Helvetica,sans-Serif" font-size="10.00">MODULE_DEF</text>
</a>
</g>
</g>
<!-- Node10&#45;&gt;Node11 -->
<g id="edge11" class="edge">
<title>Node10&#45;&gt;Node11</title>
<path fill="none" stroke="midnightblue" d="M136.17,-500.32C116.11,-447.49 60.86,-301.99 46.14,-263.23"/>
<polygon fill="midnightblue" stroke="midnightblue" points="132.96,-501.75 139.79,-509.85 139.51,-499.26 132.96,-501.75"/>
</g>
<!-- Node12&#45;&gt;Node9 -->
<g id="edge13" class="edge">
<title>Node12&#45;&gt;Node9</title>
<path fill="none" stroke="midnightblue" d="M480.47,-694.78C455.24,-679.5 416.7,-656.16 395.27,-643.18"/>
<polygon fill="midnightblue" stroke="midnightblue" points="478.74,-697.82 489.11,-700.01 482.36,-691.84 478.74,-697.82"/>
</g>
<!-- Node12&#45;&gt;Node11 -->
<g id="edge18" class="edge">
<title>Node12&#45;&gt;Node11</title>
<path fill="none" stroke="midnightblue" d="M457.78,-719.9C420.54,-725.85 367.91,-729.4 325,-713.64 212.24,-672.2 183.26,-640.14 119,-538.64 58.71,-443.41 45.55,-301.37 43.04,-263.31"/>
<polygon fill="midnightblue" stroke="midnightblue" points="458.59,-723.32 467.85,-718.18 457.4,-716.42 458.59,-723.32"/>
</g>
<!-- Node12&#45;&gt;Node13 -->
<g id="edge14" class="edge">
<title>Node12&#45;&gt;Node13</title>
<path fill="none" stroke="midnightblue" d="M457.51,-714.1C418.77,-715.36 364.23,-711.47 325,-685.64 280.68,-656.45 258.28,-591.93 251.12,-567.38"/>
<polygon fill="midnightblue" stroke="midnightblue" points="458.16,-717.58 467.99,-713.62 457.84,-710.58 458.16,-717.58"/>
</g>
<!-- Node14 -->
<g id="node14" class="node">
<title>Node14</title>
<g id="a_node14"><a xlink:href="kmt_8c.html#a75ea8dbba16d64a343a45962bd593930" target="_top" xlink:title="handler: handle yield interrupt (0x81)">
<polygon fill="none" stroke="black" points="349.5,-510.14 349.5,-529.14 407.5,-529.14 407.5,-510.14 349.5,-510.14"/>
<text text-anchor="middle" x="378.5" y="-517.14" font-family="Helvetica,sans-Serif" font-size="10.00">kmt_yield</text>
</a>
</g>
</g>
<!-- Node12&#45;&gt;Node14 -->
<g id="edge16" class="edge">
<title>Node12&#45;&gt;Node14</title>
<path fill="none" stroke="midnightblue" d="M493.07,-691.57C467.09,-652.23 406.11,-559.92 386.03,-529.53"/>
<polygon fill="midnightblue" stroke="midnightblue" points="490.17,-693.54 498.6,-699.95 496.01,-689.68 490.17,-693.54"/>
</g>
<!-- Node13&#45;&gt;Node10 -->
<g id="edge15" class="edge">
<title>Node13&#45;&gt;Node10</title>
<path fill="none" stroke="midnightblue" d="M211.49,-544.46C197.91,-539.35 182.68,-533.63 170.28,-528.96"/>
<polygon fill="midnightblue" stroke="midnightblue" points="210.42,-547.8 221.01,-548.05 212.89,-541.25 210.42,-547.8"/>
</g>
<!-- Node14&#45;&gt;Node10 -->
<g id="edge17" class="edge">
<title>Node14&#45;&gt;Node10</title>
<path fill="none" stroke="midnightblue" d="M338.76,-519.64C290.84,-519.64 210.64,-519.64 170.29,-519.64"/>
<polygon fill="midnightblue" stroke="midnightblue" points="339.05,-523.14 349.05,-519.64 339.05,-516.14 339.05,-523.14"/>
</g>
<!-- Node15&#45;&gt;Node11 -->
<g id="edge22" class="edge">
<title>Node15&#45;&gt;Node11</title>
<path fill="none" stroke="midnightblue" d="M330.16,-796.83C272.32,-807.43 175.25,-814.78 119,-761.64 43.47,-690.28 42.06,-328 42.41,-263.47"/>
<polygon fill="midnightblue" stroke="midnightblue" points="330.98,-800.24 340.14,-794.9 329.65,-793.36 330.98,-800.24"/>
</g>
<!-- Node15&#45;&gt;Node13 -->
<g id="edge21" class="edge">
<title>Node15&#45;&gt;Node13</title>
<path fill="none" stroke="midnightblue" d="M360.62,-768.33C349.58,-756.42 335.34,-739.87 325,-723.64 289.71,-668.24 261.47,-593.89 251.96,-567.46"/>
<polygon fill="midnightblue" stroke="midnightblue" points="358.25,-770.92 367.67,-775.78 363.34,-766.11 358.25,-770.92"/>
</g>
<!-- Node16&#45;&gt;Node9 -->
<g id="edge24" class="edge">
<title>Node16&#45;&gt;Node9</title>
<path fill="none" stroke="midnightblue" d="M611.28,-425.55C604.71,-459.95 586.62,-530.73 544,-571.64 511.85,-602.49 462.87,-618.32 426.71,-626.22"/>
<polygon fill="midnightblue" stroke="midnightblue" points="614.78,-425.84 613.08,-415.38 607.89,-424.61 614.78,-425.84"/>
</g>
<!-- Node16&#45;&gt;Node13 -->
<g id="edge35" class="edge">
<title>Node16&#45;&gt;Node13</title>
<path fill="none" stroke="midnightblue" d="M607.2,-424.95C596.76,-450.16 575.31,-494.19 544,-520.64 470.54,-582.69 347.83,-574.11 286.22,-564.77"/>
<polygon fill="midnightblue" stroke="midnightblue" points="610.55,-425.98 610.99,-415.4 604.04,-423.4 610.55,-425.98"/>
</g>
<!-- Node16&#45;&gt;Node14 -->
<g id="edge38" class="edge">
<title>Node16&#45;&gt;Node14</title>
<path fill="none" stroke="midnightblue" d="M605.53,-424.17C594.28,-445.24 572.9,-478.87 544,-495.64 501.31,-520.4 442.25,-522.79 407.74,-521.64"/>
<polygon fill="midnightblue" stroke="midnightblue" points="608.67,-425.72 610.1,-415.22 602.43,-422.53 608.67,-425.72"/>
</g>
<!-- Node17 -->
<g id="node17" class="node">
<title>Node17</title>
<g id="a_node17"><a xlink:href="kmt_8c.html#a5ddb8743298012e84cf9cb5faf22212b" target="_top" xlink:title="create thread">
<polygon fill="none" stroke="black" points="346,-54.14 346,-73.14 411,-73.14 411,-54.14 346,-54.14"/>
<text text-anchor="middle" x="378.5" y="-61.14" font-family="Helvetica,sans-Serif" font-size="10.00">kmt_create</text>
</a>
</g>
</g>
<!-- Node16&#45;&gt;Node17 -->
<g id="edge25" class="edge">
<title>Node16&#45;&gt;Node17</title>
<path fill="none" stroke="midnightblue" d="M612.23,-385.94C605.11,-327.34 581.39,-155.65 544,-115.64 509.34,-78.54 448.46,-67.77 411.28,-64.73"/>
<polygon fill="midnightblue" stroke="midnightblue" points="608.78,-386.57 613.43,-396.08 615.73,-385.74 608.78,-386.57"/>
</g>
<!-- Node18 -->
<g id="node18" class="node">
<title>Node18</title>
<g id="a_node18"><a xlink:href="kmt_8c.html#ad3fbc643b7b6092120c5152b4c890354" target="_top" xlink:title="handler: handle program errors">
<polygon fill="none" stroke="black" points="218.5,-453.14 218.5,-472.14 276.5,-472.14 276.5,-453.14 218.5,-453.14"/>
<text text-anchor="middle" x="247.5" y="-460.14" font-family="Helvetica,sans-Serif" font-size="10.00">kmt_error</text>
</a>
</g>
</g>
<!-- Node16&#45;&gt;Node18 -->
<g id="edge27" class="edge">
<title>Node16&#45;&gt;Node18</title>
<path fill="none" stroke="midnightblue" d="M588.73,-419.96C575.66,-426.73 559.33,-434.45 544,-439.64 495.86,-455.91 482.56,-457.5 432,-462.64 377.17,-468.21 312.64,-466.25 276.57,-464.39"/>
<polygon fill="midnightblue" stroke="midnightblue" points="590.42,-423.02 597.62,-415.25 587.14,-416.84 590.42,-423.02"/>
</g>
<!-- Node19 -->
<g id="node19" class="node">
<title>Node19</title>
<g id="a_node19"><a xlink:href="kmt_8c.html#a13cbe2d83bf10c3302124613fa18f8a4" target="_top" xlink:title="print all tasks notice: do not garantee concurrency safety">
<polygon fill="none" stroke="black" points="328,-434.14 328,-453.14 429,-453.14 429,-434.14 328,-434.14"/>
<text text-anchor="middle" x="378.5" y="-441.14" font-family="Helvetica,sans-Serif" font-size="10.00">kmt_print_all_tasks</text>
</a>
</g>
</g>
<!-- Node16&#45;&gt;Node19 -->
<g id="edge29" class="edge">
<title>Node16&#45;&gt;Node19</title>
<path fill="none" stroke="midnightblue" d="M569.92,-414.85C561.33,-416.52 552.4,-418.19 544,-419.64 505.6,-426.24 461.96,-432.56 429.27,-437.05"/>
<polygon fill="midnightblue" stroke="midnightblue" points="570.65,-418.27 579.78,-412.9 569.29,-411.4 570.65,-418.27"/>
</g>
<!-- Node20 -->
<g id="node20" class="node">
<title>Node20</title>
<g id="a_node20"><a xlink:href="kmt_8c.html#ab4e9dee1880e455874374b44b5785bc3" target="_top" xlink:title="print all current_tasks notice: do not garantee concurrency safety">
<polygon fill="none" stroke="black" points="325,-396.14 325,-415.14 432,-415.14 432,-396.14 325,-396.14"/>
<text text-anchor="middle" x="378.5" y="-403.14" font-family="Helvetica,sans-Serif" font-size="10.00">kmt_print_cpu_tasks</text>
</a>
</g>
</g>
<!-- Node16&#45;&gt;Node20 -->
<g id="edge32" class="edge">
<title>Node16&#45;&gt;Node20</title>
<path fill="none" stroke="midnightblue" d="M569.77,-405.64C530.57,-405.64 473.55,-405.64 432.16,-405.64"/>
<polygon fill="midnightblue" stroke="midnightblue" points="569.82,-409.14 579.82,-405.64 569.82,-402.14 569.82,-409.14"/>
</g>
<!-- Node21 -->
<g id="node21" class="node">
<title>Node21</title>
<g id="a_node21"><a xlink:href="kmt_8c.html#a47d8887c87041abd5ea3148232b65c93" target="_top" xlink:title="tear down a thread">
<polygon fill="none" stroke="black" points="339.5,-92.14 339.5,-111.14 417.5,-111.14 417.5,-92.14 339.5,-92.14"/>
<text text-anchor="middle" x="378.5" y="-99.14" font-family="Helvetica,sans-Serif" font-size="10.00">kmt_teardown</text>
</a>
</g>
</g>
<!-- Node16&#45;&gt;Node21 -->
<g id="edge36" class="edge">
<title>Node16&#45;&gt;Node21</title>
<path fill="none" stroke="midnightblue" d="M614.44,-385.75C613.24,-340.23 603.99,-227.4 544,-162.64 510.88,-126.88 454.9,-111.99 417.58,-105.85"/>
<polygon fill="midnightblue" stroke="midnightblue" points="610.95,-385.86 614.6,-395.81 617.94,-385.75 610.95,-385.86"/>
</g>
<!-- Node22 -->
<g id="node22" class="node">
<title>Node22</title>
<g id="a_node22"><a xlink:href="os_8c.html#a2be1c9facb49d4439f41b1537d0f3ef8" target="_top" xlink:title="System trap entry.">
<polygon fill="none" stroke="black" points="354,-130.14 354,-149.14 403,-149.14 403,-130.14 354,-130.14"/>
<text text-anchor="middle" x="378.5" y="-137.14" font-family="Helvetica,sans-Serif" font-size="10.00">os_trap</text>
</a>
</g>
</g>
<!-- Node16&#45;&gt;Node22 -->
<g id="edge39" class="edge">
<title>Node16&#45;&gt;Node22</title>
<path fill="none" stroke="midnightblue" d="M612,-386.01C606.31,-348.61 589.17,-266.35 544,-215.64 505.92,-172.88 438.84,-152.5 403.24,-144.3"/>
<polygon fill="midnightblue" stroke="midnightblue" points="608.56,-386.68 613.42,-396.09 615.49,-385.7 608.56,-386.68"/>
</g>
<!-- Node24 -->
<g id="node24" class="node">
<title>Node24</title>
<g id="a_node24"><a xlink:href="sem_8c.html#ad994e433f3a6bf8626272437cb54c114" target="_top" xlink:title="wake up a task form tasks waiting for the semaphore instance">
<polygon fill="none" stroke="black" points="345.5,-168.14 345.5,-187.14 411.5,-187.14 411.5,-168.14 345.5,-168.14"/>
<text text-anchor="middle" x="378.5" y="-175.14" font-family="Helvetica,sans-Serif" font-size="10.00">sem_signal</text>
</a>
</g>
</g>
<!-- Node16&#45;&gt;Node24 -->
<g id="edge41" class="edge">
<title>Node16&#45;&gt;Node24</title>
<path fill="none" stroke="midnightblue" d="M608.05,-386.01C598.05,-358.04 576.51,-306.35 544,-272.64 503.48,-230.62 440.35,-201.29 405.25,-187.19"/>
<polygon fill="midnightblue" stroke="midnightblue" points="604.86,-387.49 611.42,-395.8 611.48,-385.21 604.86,-387.49"/>
</g>
<!-- Node26 -->
<g id="node26" class="node">
<title>Node26</title>
<g id="a_node26"><a xlink:href="sem_8c.html#a85ca67864bb0af1966a5c2463bd16fe8" target="_top" xlink:title="release semaphore(Mutex) and sleep task holding the sem">
<polygon fill="none" stroke="black" points="349,-244.14 349,-263.14 408,-263.14 408,-244.14 349,-244.14"/>
<text text-anchor="middle" x="378.5" y="-251.14" font-family="Helvetica,sans-Serif" font-size="10.00">sem_wait</text>
</a>
</g>
</g>
<!-- Node16&#45;&gt;Node26 -->
<g id="edge44" class="edge">
<title>Node16&#45;&gt;Node26</title>
<path fill="none" stroke="midnightblue" d="M596.32,-389.1C582.55,-377.04 562.85,-360.77 544,-348.64 512.24,-328.2 500.81,-329.33 468,-310.64 440.85,-295.16 410.48,-274.93 393.31,-263.2"/>
<polygon fill="midnightblue" stroke="midnightblue" points="594.26,-391.96 604.06,-395.98 598.91,-386.72 594.26,-391.96"/>
</g>
<!-- Node16&#45;&gt;Node27 -->
<g id="edge47" class="edge">
<title>Node16&#45;&gt;Node27</title>
<path fill="none" stroke="midnightblue" d="M589.19,-390.12C585.89,-387.51 582.72,-384.67 580,-381.64 557.69,-356.76 566.71,-340.14 544,-315.64 538.8,-310.02 532.01,-305.13 525.68,-301.25"/>
<polygon fill="midnightblue" stroke="midnightblue" points="587.29,-393.07 597.46,-396.04 591.37,-387.38 587.29,-393.07"/>
</g>
<!-- Node28 -->
<g id="node28" class="node">
<title>Node28</title>
<g id="a_node28"><a xlink:href="spinlock_8c.html#acdf118d615a4bc4064e991add9a80995" target="_top" xlink:title="release spinlock from current cpu">
<polygon fill="none" stroke="black" points="472,-358.14 472,-377.14 540,-377.14 540,-358.14 472,-358.14"/>
<text text-anchor="middle" x="506" y="-365.14" font-family="Helvetica,sans-Serif" font-size="10.00">spin_unlock</text>
</a>
</g>
</g>
<!-- Node16&#45;&gt;Node28 -->
<g id="edge60" class="edge">
<title>Node16&#45;&gt;Node28</title>
<path fill="none" stroke="midnightblue" d="M577.8,-392.66C563.48,-387.6 547.36,-381.9 534.12,-377.22"/>
<polygon fill="midnightblue" stroke="midnightblue" points="576.78,-396.01 587.37,-396.05 579.11,-389.41 576.78,-396.01"/>
</g>
<!-- Node17&#45;&gt;Node11 -->
<g id="edge26" class="edge">
<title>Node17&#45;&gt;Node11</title>
<path fill="none" stroke="midnightblue" d="M335.63,-64.9C280.05,-68.69 181.66,-82.98 119,-135.64 81.43,-167.21 55.7,-221.94 46.37,-244.01"/>
<polygon fill="midnightblue" stroke="midnightblue" points="336.05,-68.38 345.82,-64.29 335.63,-61.4 336.05,-68.38"/>
</g>
<!-- Node18&#45;&gt;Node10 -->
<g id="edge28" class="edge">
<title>Node18&#45;&gt;Node10</title>
<path fill="none" stroke="midnightblue" d="M220.64,-477.23C202.32,-487.57 178.28,-501.14 162.38,-510.11"/>
<polygon fill="midnightblue" stroke="midnightblue" points="222.38,-480.27 229.37,-472.3 218.94,-474.17 222.38,-480.27"/>
</g>
<!-- Node19&#45;&gt;Node13 -->
<g id="edge31" class="edge">
<title>Node19&#45;&gt;Node13</title>
<path fill="none" stroke="midnightblue" d="M358.81,-460.15C331.49,-484.29 281.53,-528.44 259.47,-547.94"/>
<polygon fill="midnightblue" stroke="midnightblue" points="361.33,-462.6 366.5,-453.36 356.69,-457.35 361.33,-462.6"/>
</g>
<!-- Node19&#45;&gt;Node18 -->
<g id="edge30" class="edge">
<title>Node19&#45;&gt;Node18</title>
<path fill="none" stroke="midnightblue" d="M317.7,-452.44C303.44,-454.54 288.86,-456.69 276.79,-458.47"/>
<polygon fill="midnightblue" stroke="midnightblue" points="318.61,-455.85 327.99,-450.93 317.59,-448.92 318.61,-455.85"/>
</g>
<!-- Node20&#45;&gt;Node13 -->
<g id="edge34" class="edge">
<title>Node20&#45;&gt;Node13</title>
<path fill="none" stroke="midnightblue" d="M331.47,-419.99C329.19,-421.4 327.01,-422.95 325,-424.64 314.18,-433.71 268.82,-518.96 253.54,-548"/>
<polygon fill="midnightblue" stroke="midnightblue" points="333.44,-422.91 340.68,-415.18 330.19,-416.71 333.44,-422.91"/>
</g>
<!-- Node20&#45;&gt;Node18 -->
<g id="edge33" class="edge">
<title>Node20&#45;&gt;Node18</title>
<path fill="none" stroke="midnightblue" d="M339.73,-418.72C334.74,-420.62 329.72,-422.61 325,-424.64 304.55,-433.38 281.8,-444.93 266.47,-452.98"/>
<polygon fill="midnightblue" stroke="midnightblue" points="341.04,-421.96 349.21,-415.21 338.61,-415.4 341.04,-421.96"/>
</g>
<!-- Node21&#45;&gt;Node11 -->
<g id="edge37" class="edge">
<title>Node21&#45;&gt;Node11</title>
<path fill="none" stroke="midnightblue" d="M329.09,-99.81C293.7,-100.16 245.23,-104.2 206,-120.64 136.14,-149.89 72.36,-218.79 50.5,-244.1"/>
<polygon fill="midnightblue" stroke="midnightblue" points="329.17,-103.31 339.17,-99.8 329.17,-96.31 329.17,-103.31"/>
</g>
<!-- Node23 -->
<g id="node23" class="node">
<title>Node23</title>
<g id="a_node23"><a xlink:href="os_8c.html#aafec7046aa50c914df86d0d22d4fc1d1" target="_top" xlink:title=" ">
<polygon fill="none" stroke="black" points="206,-130.14 206,-149.14 289,-149.14 289,-130.14 206,-130.14"/>
<text text-anchor="middle" x="247.5" y="-137.14" font-family="Helvetica,sans-Serif" font-size="10.00">MODULE_DEF</text>
</a>
</g>
</g>
<!-- Node22&#45;&gt;Node23 -->
<g id="edge40" class="edge">
<title>Node22&#45;&gt;Node23</title>
<path fill="none" stroke="midnightblue" d="M343.48,-139.64C326.85,-139.64 306.7,-139.64 289.25,-139.64"/>
<polygon fill="midnightblue" stroke="midnightblue" points="343.84,-143.14 353.84,-139.64 343.84,-136.14 343.84,-143.14"/>
</g>
<!-- Node24&#45;&gt;Node11 -->
<g id="edge43" class="edge">
<title>Node24&#45;&gt;Node11</title>
<path fill="none" stroke="midnightblue" d="M334.89,-179.69C299.92,-182 249.29,-186.82 206,-196.64 154.11,-208.4 95.81,-231.14 64.78,-244.06"/>
<polygon fill="midnightblue" stroke="midnightblue" points="335.45,-183.16 345.22,-179.04 335.02,-176.17 335.45,-183.16"/>
</g>
<!-- Node25 -->
<g id="node25" class="node">
<title>Node25</title>
<g id="a_node25"><a xlink:href="kernel_8h.html#a7ef2d722f9c7f8acc1801144a5188825" target="_top" xlink:title=" ">
<polygon fill="none" stroke="black" points="218,-206.14 218,-225.14 277,-225.14 277,-206.14 218,-206.14"/>
<text text-anchor="middle" x="247.5" y="-213.14" font-family="Helvetica,sans-Serif" font-size="10.00">MODULE</text>
</a>
</g>
</g>
<!-- Node24&#45;&gt;Node25 -->
<g id="edge42" class="edge">
<title>Node24&#45;&gt;Node25</title>
<path fill="none" stroke="midnightblue" d="M335.62,-189.97C316.52,-195.6 294.41,-202.11 277.23,-207.17"/>
<polygon fill="midnightblue" stroke="midnightblue" points="336.68,-193.31 345.28,-187.13 334.7,-186.59 336.68,-193.31"/>
</g>
<!-- Node26&#45;&gt;Node11 -->
<g id="edge46" class="edge">
<title>Node26&#45;&gt;Node11</title>
<path fill="none" stroke="midnightblue" d="M338.88,-253.64C275.04,-253.64 148.08,-253.64 83.01,-253.64"/>
<polygon fill="midnightblue" stroke="midnightblue" points="338.94,-257.14 348.94,-253.64 338.94,-250.14 338.94,-257.14"/>
</g>
<!-- Node26&#45;&gt;Node25 -->
<g id="edge45" class="edge">
<title>Node26&#45;&gt;Node25</title>
<path fill="none" stroke="midnightblue" d="M339.17,-242.34C319.25,-236.48 295.32,-229.43 277.05,-224.05"/>
<polygon fill="midnightblue" stroke="midnightblue" points="338.29,-245.73 348.87,-245.2 340.27,-239.02 338.29,-245.73"/>
</g>
<!-- Node27&#45;&gt;Node9 -->
<g id="edge48" class="edge">
<title>Node27&#45;&gt;Node9</title>
<path fill="none" stroke="midnightblue" d="M490.74,-309.59C482.89,-320.34 473.63,-334.61 468,-348.64 436,-428.4 461.15,-457.78 432,-538.64 420.05,-571.78 397.54,-607.2 386.28,-623.88"/>
<polygon fill="midnightblue" stroke="midnightblue" points="493.64,-311.56 496.89,-301.47 488.06,-307.33 493.64,-311.56"/>
</g>
<!-- Node27&#45;&gt;Node11 -->
<g id="edge56" class="edge">
<title>Node27&#45;&gt;Node11</title>
<path fill="none" stroke="midnightblue" d="M502.21,-271.92C494.21,-218.4 469.29,-72.5 432,-44.64 318.73,40 223.08,-5.93 119,-101.64 73.77,-143.23 51.54,-217.58 44.79,-243.99"/>
<polygon fill="midnightblue" stroke="midnightblue" points="498.76,-272.48 503.66,-281.87 505.68,-271.47 498.76,-272.48"/>
</g>
<!-- Node27&#45;&gt;Node13 -->
<g id="edge52" class="edge">
<title>Node27&#45;&gt;Node13</title>
<path fill="none" stroke="midnightblue" d="M467.24,-302.66C426.88,-316.25 363.5,-343.06 325,-386.64 295.1,-420.47 307.66,-440.52 289,-481.64 277.88,-506.14 262.38,-533.76 254.15,-548"/>
<polygon fill="midnightblue" stroke="midnightblue" points="468.56,-305.91 476.98,-299.49 466.39,-299.26 468.56,-305.91"/>
</g>
<!-- Node27&#45;&gt;Node14 -->
<g id="edge54" class="edge">
<title>Node27&#45;&gt;Node14</title>
<path fill="none" stroke="midnightblue" d="M491.63,-309.47C483.94,-320.35 474.53,-334.8 468,-348.64 445.33,-396.69 458.64,-416.66 432,-462.64 421.07,-481.49 402.95,-499.31 391.12,-509.85"/>
<polygon fill="midnightblue" stroke="midnightblue" points="494.56,-311.4 497.59,-301.25 488.89,-307.29 494.56,-311.4"/>
</g>
<!-- Node27&#45;&gt;Node17 -->
<g id="edge49" class="edge">
<title>Node27&#45;&gt;Node17</title>
<path fill="none" stroke="midnightblue" d="M503.61,-271.73C499.7,-230.76 485.11,-136.34 432,-82.64 426.34,-76.91 418.84,-72.91 411.27,-70.1"/>
<polygon fill="midnightblue" stroke="midnightblue" points="500.13,-272.12 504.45,-281.79 507.11,-271.53 500.13,-272.12"/>
</g>
<!-- Node27&#45;&gt;Node19 -->
<g id="edge50" class="edge">
<title>Node27&#45;&gt;Node19</title>
<path fill="none" stroke="midnightblue" d="M492.31,-309.81C484.85,-320.82 475.46,-335.28 468,-348.64 449.78,-381.27 459.66,-399.49 432,-424.64 427.77,-428.48 422.7,-431.57 417.4,-434.03"/>
<polygon fill="midnightblue" stroke="midnightblue" points="495.26,-311.7 498.04,-301.48 489.49,-307.74 495.26,-311.7"/>
</g>
<!-- Node27&#45;&gt;Node20 -->
<g id="edge51" class="edge">
<title>Node27&#45;&gt;Node20</title>
<path fill="none" stroke="midnightblue" d="M486.82,-308.15C460.24,-332.29 411.64,-376.44 390.17,-395.94"/>
<polygon fill="midnightblue" stroke="midnightblue" points="489.25,-310.67 494.3,-301.36 484.54,-305.49 489.25,-310.67"/>
</g>
<!-- Node27&#45;&gt;Node21 -->
<g id="edge53" class="edge">
<title>Node27&#45;&gt;Node21</title>
<path fill="none" stroke="midnightblue" d="M501.87,-272.02C495.27,-236.86 476.66,-162.85 432,-120.64 427.84,-116.71 422.82,-113.58 417.54,-111.09"/>
<polygon fill="midnightblue" stroke="midnightblue" points="498.45,-272.73 503.61,-281.98 505.34,-271.53 498.45,-272.73"/>
</g>
<!-- Node27&#45;&gt;Node22 -->
<g id="edge57" class="edge">
<title>Node27&#45;&gt;Node22</title>
<path fill="none" stroke="midnightblue" d="M495.65,-272.91C478.23,-238.26 441.65,-166.9 432,-158.64 423.83,-151.64 412.87,-147.14 403.08,-144.28"/>
<polygon fill="midnightblue" stroke="midnightblue" points="492.6,-274.63 500.21,-282 498.86,-271.5 492.6,-274.63"/>
</g>
<!-- Node27&#45;&gt;Node24 -->
<g id="edge58" class="edge">
<title>Node27&#45;&gt;Node24</title>
<path fill="none" stroke="midnightblue" d="M482.08,-275.84C477.12,-271.85 472.14,-267.35 468,-262.64 447.25,-238.96 455.39,-222.7 432,-201.64 425.3,-195.6 416.82,-190.84 408.64,-187.21"/>
<polygon fill="midnightblue" stroke="midnightblue" points="480.15,-278.77 490.23,-282.01 484.37,-273.19 480.15,-278.77"/>
</g>
<!-- Node27&#45;&gt;Node25 -->
<g id="edge55" class="edge">
<title>Node27&#45;&gt;Node25</title>
<path fill="none" stroke="midnightblue" d="M484.75,-275.77C463.28,-258.96 432.39,-234.79 432,-234.64 380.31,-213.81 314.11,-212.51 277.01,-213.82"/>
<polygon fill="midnightblue" stroke="midnightblue" points="482.68,-278.59 492.71,-282 486.99,-273.08 482.68,-278.59"/>
</g>
<!-- Node27&#45;&gt;Node26 -->
<g id="edge59" class="edge">
<title>Node27&#45;&gt;Node26</title>
<path fill="none" stroke="midnightblue" d="M467.01,-280.13C448.04,-274.39 425.47,-267.55 408,-262.27"/>
<polygon fill="midnightblue" stroke="midnightblue" points="466.25,-283.56 476.84,-283.11 468.28,-276.86 466.25,-283.56"/>
</g>
<!-- Node28&#45;&gt;Node9 -->
<g id="edge61" class="edge">
<title>Node28&#45;&gt;Node9</title>
<path fill="none" stroke="midnightblue" d="M500.38,-387.71C491.13,-425.5 468.11,-509.03 432,-571.64 420.16,-592.16 401.25,-612.45 389.65,-623.97"/>
<polygon fill="midnightblue" stroke="midnightblue" points="503.89,-388.06 502.8,-377.52 497.08,-386.44 503.89,-388.06"/>
</g>
<!-- Node28&#45;&gt;Node11 -->
<g id="edge69" class="edge">
<title>Node28&#45;&gt;Node11</title>
<path fill="none" stroke="midnightblue" d="M461.9,-357.01C372.27,-334.92 166.96,-284.31 81.23,-263.18"/>
<polygon fill="midnightblue" stroke="midnightblue" points="461.19,-360.44 471.74,-359.44 462.87,-353.65 461.19,-360.44"/>
</g>
<!-- Node28&#45;&gt;Node13 -->
<g id="edge65" class="edge">
<title>Node28&#45;&gt;Node13</title>
<path fill="none" stroke="midnightblue" d="M502.96,-387.39C498.03,-423.96 481.92,-501.84 432,-538.64 389.72,-569.8 326.3,-568.83 286.18,-564.11"/>
<polygon fill="midnightblue" stroke="midnightblue" points="506.43,-387.8 504.15,-377.45 499.48,-386.96 506.43,-387.8"/>
</g>
<!-- Node28&#45;&gt;Node14 -->
<g id="edge67" class="edge">
<title>Node28&#45;&gt;Node14</title>
<path fill="none" stroke="midnightblue" d="M492.01,-385.51C477.76,-404.88 453.97,-436.54 432,-462.64 417.62,-479.72 399.81,-498.62 389.07,-509.79"/>
<polygon fill="midnightblue" stroke="midnightblue" points="494.94,-387.43 498.02,-377.29 489.29,-383.3 494.94,-387.43"/>
</g>
<!-- Node28&#45;&gt;Node17 -->
<g id="edge62" class="edge">
<title>Node28&#45;&gt;Node17</title>
<path fill="none" stroke="midnightblue" d="M490.58,-349.74C482.68,-339.01 473.41,-324.75 468,-310.64 431.27,-214.85 497.31,-161.75 432,-82.64 426.69,-76.21 419.03,-71.95 411.19,-69.14"/>
<polygon fill="midnightblue" stroke="midnightblue" points="487.92,-352.03 496.78,-357.84 493.48,-347.77 487.92,-352.03"/>
</g>
<!-- Node28&#45;&gt;Node19 -->
<g id="edge63" class="edge">
<title>Node28&#45;&gt;Node19</title>
<path fill="none" stroke="midnightblue" d="M487.37,-384.01C473.24,-396.46 452.47,-413.32 432,-424.64 425.47,-428.25 418.12,-431.4 411.03,-434.06"/>
<polygon fill="midnightblue" stroke="midnightblue" points="489.77,-386.56 494.87,-377.27 485.09,-381.35 489.77,-386.56"/>
</g>
<!-- Node28&#45;&gt;Node20 -->
<g id="edge64" class="edge">
<title>Node28&#45;&gt;Node20</title>
<path fill="none" stroke="midnightblue" d="M463.6,-380.17C446.53,-385.34 427.06,-391.23 411.16,-396.05"/>
<polygon fill="midnightblue" stroke="midnightblue" points="464.77,-383.47 473.33,-377.22 462.75,-376.77 464.77,-383.47"/>
</g>
<!-- Node28&#45;&gt;Node21 -->
<g id="edge66" class="edge">
<title>Node28&#45;&gt;Node21</title>
<path fill="none" stroke="midnightblue" d="M490.74,-349.68C482.89,-338.93 473.63,-324.66 468,-310.64 436,-230.87 487.72,-186.07 432,-120.64 428.1,-116.06 423.02,-112.59 417.54,-109.95"/>
<polygon fill="midnightblue" stroke="midnightblue" points="488.06,-351.94 496.89,-357.8 493.64,-347.71 488.06,-351.94"/>
</g>
<!-- Node28&#45;&gt;Node22 -->
<g id="edge70" class="edge">
<title>Node28&#45;&gt;Node22</title>
<path fill="none" stroke="midnightblue" d="M491.26,-349.97C483.43,-339.15 474.02,-324.7 468,-310.64 440.7,-246.8 478.2,-210.46 432,-158.64 424.65,-150.39 413.43,-145.72 403.25,-143.07"/>
<polygon fill="midnightblue" stroke="midnightblue" points="488.56,-352.21 497.35,-358.13 494.17,-348.02 488.56,-352.21"/>
</g>
<!-- Node28&#45;&gt;Node24 -->
<g id="edge71" class="edge">
<title>Node28&#45;&gt;Node24</title>
<path fill="none" stroke="midnightblue" d="M492.31,-349.46C484.85,-338.45 475.46,-324 468,-310.64 449.78,-278 452.9,-265.62 432,-234.64 419.66,-216.34 401.59,-198.09 390.19,-187.34"/>
<polygon fill="midnightblue" stroke="midnightblue" points="489.49,-351.53 498.04,-357.79 495.26,-347.57 489.49,-351.53"/>
</g>
<!-- Node28&#45;&gt;Node25 -->
<g id="edge68" class="edge">
<title>Node28&#45;&gt;Node25</title>
<path fill="none" stroke="midnightblue" d="M475.38,-353.76C439.05,-336.34 376.02,-304.84 325,-272.64 301.05,-257.52 274.96,-237.17 260.28,-225.32"/>
<polygon fill="midnightblue" stroke="midnightblue" points="473.92,-356.94 484.45,-358.08 476.93,-350.62 473.92,-356.94"/>
</g>
<!-- Node28&#45;&gt;Node26 -->
<g id="edge72" class="edge">
<title>Node28&#45;&gt;Node26</title>
<path fill="none" stroke="midnightblue" d="M480.21,-352.63C476.02,-349.8 471.8,-346.74 468,-343.64 435.75,-317.31 402.62,-280.48 387.68,-263.25"/>
<polygon fill="midnightblue" stroke="midnightblue" points="478.33,-355.58 488.62,-358.09 482.14,-349.71 478.33,-355.58"/>
</g>
<!-- Node29&#45;&gt;Node16 -->
<g id="edge75" class="edge">
<title>Node29&#45;&gt;Node16</title>
<path fill="none" stroke="midnightblue" d="M708.57,-458.92C701.37,-455.72 693.86,-452.2 687,-448.64 667.03,-438.25 645.04,-424.43 631.02,-415.29"/>
<polygon fill="midnightblue" stroke="midnightblue" points="707.55,-462.29 718.12,-463.05 710.33,-455.87 707.55,-462.29"/>
</g>
<!-- Node29&#45;&gt;Node28 -->
<g id="edge76" class="edge">
<title>Node29&#45;&gt;Node28</title>
<path fill="none" stroke="midnightblue" d="M700.25,-464.78C666.53,-457.4 618.52,-444.47 580,-424.64 555.13,-411.83 530.34,-390.1 517.01,-377.49"/>
<polygon fill="midnightblue" stroke="midnightblue" points="699.72,-468.25 710.23,-466.9 701.17,-461.4 699.72,-468.25"/>
</g>
<!-- Node30&#45;&gt;Node16 -->
<g id="edge78" class="edge">
<title>Node30&#45;&gt;Node16</title>
<path fill="none" stroke="midnightblue" d="M697.16,-399.85C681.97,-400.94 665.27,-402.14 651.01,-403.16"/>
<polygon fill="midnightblue" stroke="midnightblue" points="697.65,-403.33 707.37,-399.12 697.15,-396.34 697.65,-403.33"/>
</g>
<!-- Node30&#45;&gt;Node27 -->
<g id="edge79" class="edge">
<title>Node30&#45;&gt;Node27</title>
<path fill="none" stroke="midnightblue" d="M697.46,-386.5C663.95,-377.84 617.53,-363.59 580,-343.64 562.1,-334.12 560.52,-327.38 544,-315.64 537.01,-310.67 529.06,-305.45 522.32,-301.16"/>
<polygon fill="midnightblue" stroke="midnightblue" points="696.87,-389.96 707.43,-389.01 698.58,-383.17 696.87,-389.96"/>
</g>
</g>
</svg>
