<?xml version="1.0" encoding="UTF-8" standalone="no"?>
<!DOCTYPE svg PUBLIC "-//W3C//DTD SVG 1.1//EN"
 "http://www.w3.org/Graphics/SVG/1.1/DTD/svg11.dtd">
<!-- Generated by graphviz version 2.50.0 (20220203.2022)
 -->
<!-- Title: othercpu_entry Pages: 1 -->
<svg width="616pt" height="189pt"
 viewBox="0.00 0.00 616.00 189.00" xmlns="http://www.w3.org/2000/svg" xmlns:xlink="http://www.w3.org/1999/xlink">
<g id="graph0" class="graph" transform="scale(1 1) rotate(0) translate(4 185)">
<title>othercpu_entry</title>
<!-- Node1 -->
<g id="node1" class="node">
<title>Node1</title>
<g id="a_node1"><a xlink:title=" ">
<polygon fill="#bfbfbf" stroke="black" points="0,-38.5 0,-57.5 80,-57.5 80,-38.5 0,-38.5"/>
<text text-anchor="middle" x="40" y="-45.5" font-family="Helvetica,sans-Serif" font-size="10.00">othercpu_entry</text>
</a>
</g>
</g>
<!-- Node2 -->
<g id="node2" class="node">
<title>Node2</title>
<g id="a_node2"><a xlink:href="trm_8c.html#abac650c2a0dd8b7f13349871fd6ab6ee" target="_top" xlink:title=" ">
<polygon fill="none" stroke="black" points="116,-76.5 116,-95.5 209,-95.5 209,-76.5 116,-76.5"/>
<text text-anchor="middle" x="162.5" y="-83.5" font-family="Helvetica,sans-Serif" font-size="10.00">__am_percpu_init</text>
</a>
</g>
</g>
<!-- Node1&#45;&gt;Node2 -->
<g id="edge1" class="edge">
<title>Node1&#45;&gt;Node2</title>
<path fill="none" stroke="midnightblue" d="M71.41,-57.59C86.53,-62.36 105.02,-68.19 121.3,-73.32"/>
<polygon fill="midnightblue" stroke="midnightblue" points="120.51,-76.74 131.1,-76.41 122.62,-70.07 120.51,-76.74"/>
</g>
<!-- Node13 -->
<g id="node13" class="node">
<title>Node13</title>
<g id="a_node13"><a xlink:href="mpe_8c.html#afc800fc7438b6762f113c46d25cab75b" target="_top" xlink:title=" ">
<polygon fill="none" stroke="black" points="121.5,-38.5 121.5,-57.5 203.5,-57.5 203.5,-38.5 121.5,-38.5"/>
<text text-anchor="middle" x="162.5" y="-45.5" font-family="Helvetica,sans-Serif" font-size="10.00">call_user_entry</text>
</a>
</g>
</g>
<!-- Node1&#45;&gt;Node13 -->
<g id="edge13" class="edge">
<title>Node1&#45;&gt;Node13</title>
<path fill="none" stroke="midnightblue" d="M80.12,-48C90.02,-48 100.79,-48 111.15,-48"/>
<polygon fill="midnightblue" stroke="midnightblue" points="111.33,-51.5 121.33,-48 111.33,-44.5 111.33,-51.5"/>
</g>
<!-- Node14 -->
<g id="node14" class="node">
<title>Node14</title>
<g id="a_node14"><a xlink:href="x86_8h.html#a48b2a6a16dc8d7e09d327aa3803f1112" target="_top" xlink:title=" ">
<polygon fill="none" stroke="black" points="144,-0.5 144,-19.5 181,-19.5 181,-0.5 144,-0.5"/>
<text text-anchor="middle" x="162.5" y="-7.5" font-family="Helvetica,sans-Serif" font-size="10.00">xchg</text>
</a>
</g>
</g>
<!-- Node1&#45;&gt;Node14 -->
<g id="edge14" class="edge">
<title>Node1&#45;&gt;Node14</title>
<path fill="none" stroke="midnightblue" d="M71.41,-38.41C90.7,-32.33 115.46,-24.52 134.14,-18.63"/>
<polygon fill="midnightblue" stroke="midnightblue" points="135.33,-21.92 143.82,-15.58 133.23,-15.25 135.33,-21.92"/>
</g>
<!-- Node3 -->
<g id="node3" class="node">
<title>Node3</title>
<g id="a_node3"><a xlink:href="trm_8c.html#a30657d927e0438fe41ba851aa9d7bc31" target="_top" xlink:title=" ">
<polygon fill="none" stroke="black" points="248,-123.5 248,-142.5 355,-142.5 355,-123.5 248,-123.5"/>
<text text-anchor="middle" x="301.5" y="-130.5" font-family="Helvetica,sans-Serif" font-size="10.00">__am_percpu_initgdt</text>
</a>
</g>
</g>
<!-- Node2&#45;&gt;Node3 -->
<g id="edge2" class="edge">
<title>Node2&#45;&gt;Node3</title>
<path fill="none" stroke="midnightblue" d="M191.22,-95.51C211.79,-102.57 240.07,-112.27 262.71,-120.04"/>
<polygon fill="midnightblue" stroke="midnightblue" points="261.75,-123.41 272.35,-123.34 264.02,-116.79 261.75,-123.41"/>
</g>
<!-- Node7 -->
<g id="node7" class="node">
<title>Node7</title>
<g id="a_node7"><a xlink:href="cte_8c.html#adb128cbf8cb1844d1fef62c3647a3f25" target="_top" xlink:title=" ">
<polygon fill="none" stroke="black" points="249.5,-76.5 249.5,-95.5 353.5,-95.5 353.5,-76.5 249.5,-76.5"/>
<text text-anchor="middle" x="301.5" y="-83.5" font-family="Helvetica,sans-Serif" font-size="10.00">__am_percpu_initirq</text>
</a>
</g>
</g>
<!-- Node2&#45;&gt;Node7 -->
<g id="edge6" class="edge">
<title>Node2&#45;&gt;Node7</title>
<path fill="none" stroke="midnightblue" d="M209.12,-86C218.81,-86 229.19,-86 239.35,-86"/>
<polygon fill="midnightblue" stroke="midnightblue" points="239.41,-89.5 249.41,-86 239.41,-82.5 239.41,-89.5"/>
</g>
<!-- Node11 -->
<g id="node11" class="node">
<title>Node11</title>
<g id="a_node11"><a xlink:href="ioe_8c.html#afd452a54c6657d504fdbc70af4adb9cf" target="_top" xlink:title=" ">
<polygon fill="none" stroke="black" points="245,-19.5 245,-38.5 358,-38.5 358,-19.5 245,-19.5"/>
<text text-anchor="middle" x="301.5" y="-26.5" font-family="Helvetica,sans-Serif" font-size="10.00">__am_percpu_initlapic</text>
</a>
</g>
</g>
<!-- Node2&#45;&gt;Node11 -->
<g id="edge11" class="edge">
<title>Node2&#45;&gt;Node11</title>
<path fill="none" stroke="midnightblue" d="M186.43,-76.46C208.76,-67.17 242.9,-52.96 268.02,-42.51"/>
<polygon fill="midnightblue" stroke="midnightblue" points="269.61,-45.64 277.49,-38.57 266.92,-39.18 269.61,-45.64"/>
</g>
<!-- Node4 -->
<g id="node4" class="node">
<title>Node4</title>
<g id="a_node4"><a xlink:href="x86_8h.html#a4dc007b346b1364320af9d9e1c105455" target="_top" xlink:title=" ">
<polygon fill="none" stroke="black" points="422,-161.5 422,-180.5 471,-180.5 471,-161.5 422,-161.5"/>
<text text-anchor="middle" x="446.5" y="-168.5" font-family="Helvetica,sans-Serif" font-size="10.00">set_gdt</text>
</a>
</g>
</g>
<!-- Node3&#45;&gt;Node4 -->
<g id="edge3" class="edge">
<title>Node3&#45;&gt;Node4</title>
<path fill="none" stroke="midnightblue" d="M338.58,-142.59C361.16,-148.59 390.03,-156.26 412.08,-162.12"/>
<polygon fill="midnightblue" stroke="midnightblue" points="411.42,-165.57 421.99,-164.75 413.22,-158.8 411.42,-165.57"/>
</g>
<!-- Node6 -->
<g id="node6" class="node">
<title>Node6</title>
<g id="a_node6"><a xlink:href="x86_8h.html#a2d9f7bff4b1a6ec6b994dffdc4172bef" target="_top" xlink:title=" ">
<polygon fill="none" stroke="black" points="426,-123.5 426,-142.5 467,-142.5 467,-123.5 426,-123.5"/>
<text text-anchor="middle" x="446.5" y="-130.5" font-family="Helvetica,sans-Serif" font-size="10.00">set_tr</text>
</a>
</g>
</g>
<!-- Node3&#45;&gt;Node6 -->
<g id="edge5" class="edge">
<title>Node3&#45;&gt;Node6</title>
<path fill="none" stroke="midnightblue" d="M355.34,-133C375.77,-133 398.38,-133 415.84,-133"/>
<polygon fill="midnightblue" stroke="midnightblue" points="415.99,-136.5 425.99,-133 415.99,-129.5 415.99,-136.5"/>
</g>
<!-- Node5 -->
<g id="node5" class="node">
<title>Node5</title>
<g id="a_node5"><a xlink:href="amdev_8h.html#ab31b92691e50ae7e3b7d50598fad2e8c" target="_top" xlink:title=" ">
<polygon fill="none" stroke="black" points="535,-123.5 535,-142.5 608,-142.5 608,-123.5 535,-123.5"/>
<text text-anchor="middle" x="571.5" y="-130.5" font-family="Helvetica,sans-Serif" font-size="10.00">__attribute__</text>
</a>
</g>
</g>
<!-- Node4&#45;&gt;Node5 -->
<g id="edge4" class="edge">
<title>Node4&#45;&gt;Node5</title>
<path fill="none" stroke="midnightblue" d="M471.22,-163.67C487.74,-158.57 510.21,-151.63 529.6,-145.64"/>
<polygon fill="midnightblue" stroke="midnightblue" points="530.88,-148.9 539.4,-142.61 528.81,-142.22 530.88,-148.9"/>
</g>
<!-- Node8 -->
<g id="node8" class="node">
<title>Node8</title>
<g id="a_node8"><a xlink:href="ioe_8c.html#aaa8b5de13119943f63fd14ce0cbb748f" target="_top" xlink:title=" ">
<polygon fill="none" stroke="black" points="394,-47.5 394,-66.5 499,-66.5 499,-47.5 394,-47.5"/>
<text text-anchor="middle" x="446.5" y="-54.5" font-family="Helvetica,sans-Serif" font-size="10.00">__am_ioapic_enable</text>
</a>
</g>
</g>
<!-- Node7&#45;&gt;Node8 -->
<g id="edge7" class="edge">
<title>Node7&#45;&gt;Node8</title>
<path fill="none" stroke="midnightblue" d="M349.72,-76.42C362.04,-73.92 375.46,-71.2 388.25,-68.61"/>
<polygon fill="midnightblue" stroke="midnightblue" points="389.22,-71.98 398.33,-66.57 387.83,-65.12 389.22,-71.98"/>
</g>
<!-- Node10 -->
<g id="node10" class="node">
<title>Node10</title>
<g id="a_node10"><a xlink:href="x86_8h.html#aec7546614338d8b90023fa2805432e22" target="_top" xlink:title=" ">
<polygon fill="none" stroke="black" points="423.5,-85.5 423.5,-104.5 469.5,-104.5 469.5,-85.5 423.5,-85.5"/>
<text text-anchor="middle" x="446.5" y="-92.5" font-family="Helvetica,sans-Serif" font-size="10.00">set_idt</text>
</a>
</g>
</g>
<!-- Node7&#45;&gt;Node10 -->
<g id="edge9" class="edge">
<title>Node7&#45;&gt;Node10</title>
<path fill="none" stroke="midnightblue" d="M353.72,-89.22C373.5,-90.47 395.53,-91.86 413.05,-92.96"/>
<polygon fill="midnightblue" stroke="midnightblue" points="413.12,-96.47 423.32,-93.6 413.56,-89.48 413.12,-96.47"/>
</g>
<!-- Node9 -->
<g id="node9" class="node">
<title>Node9</title>
<g id="a_node9"><a xlink:href="ioe_8c.html#aef6c47d7966a31659d7e494efed1b15c" target="_top" xlink:title=" ">
<polygon fill="none" stroke="black" points="540,-47.5 540,-66.5 603,-66.5 603,-47.5 540,-47.5"/>
<text text-anchor="middle" x="571.5" y="-54.5" font-family="Helvetica,sans-Serif" font-size="10.00">ioapicwrite</text>
</a>
</g>
</g>
<!-- Node8&#45;&gt;Node9 -->
<g id="edge8" class="edge">
<title>Node8&#45;&gt;Node9</title>
<path fill="none" stroke="midnightblue" d="M499.31,-57C509.43,-57 519.92,-57 529.63,-57"/>
<polygon fill="midnightblue" stroke="midnightblue" points="529.8,-60.5 539.8,-57 529.8,-53.5 529.8,-60.5"/>
</g>
<!-- Node10&#45;&gt;Node5 -->
<g id="edge10" class="edge">
<title>Node10&#45;&gt;Node5</title>
<path fill="none" stroke="midnightblue" d="M469.77,-101.88C486.48,-107.04 509.8,-114.25 529.8,-120.43"/>
<polygon fill="midnightblue" stroke="midnightblue" points="529.01,-123.85 539.6,-123.45 531.08,-117.16 529.01,-123.85"/>
</g>
<!-- Node12 -->
<g id="node12" class="node">
<title>Node12</title>
<g id="a_node12"><a xlink:href="ioe_8c.html#a72d9ed0bfe1066367763e044b7a7b7c3" target="_top" xlink:title=" ">
<polygon fill="none" stroke="black" points="424.5,-9.5 424.5,-28.5 468.5,-28.5 468.5,-9.5 424.5,-9.5"/>
<text text-anchor="middle" x="446.5" y="-16.5" font-family="Helvetica,sans-Serif" font-size="10.00">lapicw</text>
</a>
</g>
</g>
<!-- Node11&#45;&gt;Node12 -->
<g id="edge12" class="edge">
<title>Node11&#45;&gt;Node12</title>
<path fill="none" stroke="midnightblue" d="M358.2,-25.11C377.24,-23.77 397.85,-22.33 414.27,-21.18"/>
<polygon fill="midnightblue" stroke="midnightblue" points="414.66,-24.67 424.39,-20.48 414.17,-17.68 414.66,-24.67"/>
</g>
</g>
</svg>
