<?xml version="1.0" encoding="UTF-8" standalone="no"?>
<!DOCTYPE svg PUBLIC "-//W3C//DTD SVG 1.1//EN"
 "http://www.w3.org/Graphics/SVG/1.1/DTD/svg11.dtd">
<!-- Generated by graphviz version 3.0.0 (20220413.0106)
 -->
<!-- Title: cpu_current Pages: 1 -->
<svg width="911pt" height="682pt"
 viewBox="0.00 0.00 911.00 682.05" xmlns="http://www.w3.org/2000/svg" xmlns:xlink="http://www.w3.org/1999/xlink">
<g id="graph0" class="graph" transform="scale(1 1) rotate(0) translate(4 678.05)">
<title>cpu_current</title>
<!-- Node1 -->
<g id="node1" class="node">
<title>Node1</title>
<g id="a_node1"><a xlink:title=" ">
<polygon fill="#bfbfbf" stroke="black" points="835,-388.55 835,-407.55 903,-407.55 903,-388.55 835,-388.55"/>
<text text-anchor="middle" x="869" y="-395.55" font-family="Helvetica,sans-Serif" font-size="10.00">cpu_current</text>
</a>
</g>
</g>
<!-- Node2 -->
<g id="node2" class="node">
<title>Node2</title>
<g id="a_node2"><a xlink:href="mpe_8c.html#a0a540532023afb1f31b6f21ce053483b" target="_top" xlink:title=" ">
<polygon fill="none" stroke="black" points="687,-616.55 687,-635.55 799,-635.55 799,-616.55 687,-616.55"/>
<text text-anchor="middle" x="743" y="-623.55" font-family="Helvetica,sans-Serif" font-size="10.00">__am_stop_the_world</text>
</a>
</g>
</g>
<!-- Node1&#45;&gt;Node2 -->
<g id="edge1" class="edge">
<title>Node1&#45;&gt;Node2</title>
<path fill="none" stroke="midnightblue" d="M866.52,-418.02C862.56,-457.92 848.36,-548.3 799,-602.05 793.29,-608.27 785.69,-612.96 777.96,-616.46"/>
<polygon fill="midnightblue" stroke="midnightblue" points="870.02,-418.23 867.41,-407.97 863.05,-417.62 870.02,-418.23"/>
</g>
<!-- Node3 -->
<g id="node3" class="node">
<title>Node3</title>
<g id="a_node3"><a xlink:href="trm_8c.html#a483cb97188e557c3c68d3a1572c2cc92" target="_top" xlink:title=" ">
<polygon fill="none" stroke="black" points="599.5,-616.55 599.5,-635.55 631.5,-635.55 631.5,-616.55 599.5,-616.55"/>
<text text-anchor="middle" x="615.5" y="-623.55" font-family="Helvetica,sans-Serif" font-size="10.00">halt</text>
</a>
</g>
</g>
<!-- Node1&#45;&gt;Node3 -->
<g id="edge6" class="edge">
<title>Node1&#45;&gt;Node3</title>
<path fill="none" stroke="midnightblue" d="M865.56,-417.85C860.13,-453.29 843.8,-527.73 799,-569.05 792.61,-574.95 674.46,-609.37 631.74,-621.68"/>
<polygon fill="midnightblue" stroke="midnightblue" points="869.04,-418.19 866.96,-407.8 862.11,-417.22 869.04,-418.19"/>
</g>
<!-- Node6 -->
<g id="node6" class="node">
<title>Node6</title>
<g id="a_node6"><a xlink:href="cte_8c.html#a14d86719abbc247f8a0dd5eb2662ea88" target="_top" xlink:title=" ">
<polygon fill="none" stroke="black" points="719,-540.55 719,-559.55 767,-559.55 767,-540.55 719,-540.55"/>
<text text-anchor="middle" x="743" y="-547.55" font-family="Helvetica,sans-Serif" font-size="10.00">cte_init</text>
</a>
</g>
</g>
<!-- Node1&#45;&gt;Node6 -->
<g id="edge5" class="edge">
<title>Node1&#45;&gt;Node6</title>
<path fill="none" stroke="midnightblue" d="M862.99,-417.32C854.54,-446.07 834.78,-500.15 799,-531.05 790.06,-538.78 777.8,-543.41 767.12,-546.17"/>
<polygon fill="midnightblue" stroke="midnightblue" points="866.37,-418.21 865.68,-407.64 859.63,-416.33 866.37,-418.21"/>
</g>
<!-- Node7 -->
<g id="node7" class="node">
<title>Node7</title>
<g id="a_node7"><a xlink:href="ioe_8c.html#a45ecef4130276c1c79d872c582cd3839" target="_top" xlink:title=" ">
<polygon fill="none" stroke="black" points="719.5,-502.55 719.5,-521.55 766.5,-521.55 766.5,-502.55 719.5,-502.55"/>
<text text-anchor="middle" x="743" y="-509.55" font-family="Helvetica,sans-Serif" font-size="10.00">ioe_init</text>
</a>
</g>
</g>
<!-- Node1&#45;&gt;Node7 -->
<g id="edge7" class="edge">
<title>Node1&#45;&gt;Node7</title>
<path fill="none" stroke="midnightblue" d="M857.74,-416.5C845.85,-436.43 824.58,-468.03 799,-488.05 789.4,-495.57 777.09,-501.23 766.55,-505.16"/>
<polygon fill="midnightblue" stroke="midnightblue" points="860.82,-418.16 862.8,-407.75 854.76,-414.65 860.82,-418.16"/>
</g>
<!-- Node9 -->
<g id="node9" class="node">
<title>Node9</title>
<g id="a_node9"><a xlink:href="kmt_8c.html#af9c485ce0d89d6624e6e80e31d8ed207" target="_top" xlink:title="handler: save context to current task">
<polygon fill="none" stroke="black" points="330.5,-160.55 330.5,-179.55 426.5,-179.55 426.5,-160.55 330.5,-160.55"/>
<text text-anchor="middle" x="378.5" y="-167.55" font-family="Helvetica,sans-Serif" font-size="10.00">kmt_context_save</text>
</a>
</g>
</g>
<!-- Node1&#45;&gt;Node9 -->
<g id="edge9" class="edge">
<title>Node1&#45;&gt;Node9</title>
<path fill="none" stroke="midnightblue" d="M849.83,-381.59C803.14,-340.39 673.57,-232.91 544,-187.05 505.97,-173.6 460.14,-169.79 426.52,-169.1"/>
<polygon fill="midnightblue" stroke="midnightblue" points="847.76,-384.44 857.56,-388.48 852.42,-379.21 847.76,-384.44"/>
</g>
<!-- Node12 -->
<g id="node12" class="node">
<title>Node12</title>
<g id="a_node12"><a xlink:href="kmt_8c.html#a031a09141c265954f2b609183e573d1c" target="_top" xlink:title="get current cpu&#39;s tasks">
<polygon fill="none" stroke="black" points="468,-84.55 468,-103.55 544,-103.55 544,-84.55 468,-84.55"/>
<text text-anchor="middle" x="506" y="-91.55" font-family="Helvetica,sans-Serif" font-size="10.00">kmt_get_task</text>
</a>
</g>
</g>
<!-- Node1&#45;&gt;Node12 -->
<g id="edge12" class="edge">
<title>Node1&#45;&gt;Node12</title>
<path fill="none" stroke="midnightblue" d="M866.08,-378.26C860,-320.21 839.2,-152.3 799,-118.05 726.98,-56.7 605.47,-71.83 544.4,-84.69"/>
<polygon fill="midnightblue" stroke="midnightblue" points="862.61,-378.74 867.1,-388.34 869.57,-378.04 862.61,-378.74"/>
</g>
<!-- Node13 -->
<g id="node13" class="node">
<title>Node13</title>
<g id="a_node13"><a xlink:href="kmt_8c.html#ad4d70b4093829da1c0b0631abdff7747" target="_top" xlink:title="handler: schedule next task to run Notice: this should be the only handler which returns real Context">
<polygon fill="none" stroke="black" points="209,-236.55 209,-255.55 286,-255.55 286,-236.55 209,-236.55"/>
<text text-anchor="middle" x="247.5" y="-243.55" font-family="Helvetica,sans-Serif" font-size="10.00">kmt_schedule</text>
</a>
</g>
</g>
<!-- Node1&#45;&gt;Node13 -->
<g id="edge17" class="edge">
<title>Node1&#45;&gt;Node13</title>
<path fill="none" stroke="midnightblue" d="M862.18,-378.67C852.69,-349.5 831.6,-293.74 799,-256.05 734.85,-181.89 714.56,-132.05 616.5,-132.05 616.5,-132.05 616.5,-132.05 505,-132.05 424.56,-132.05 395.63,-112.56 325,-151.05 288.37,-171.02 262.81,-216.51 252.98,-236.42"/>
<polygon fill="midnightblue" stroke="midnightblue" points="858.92,-379.96 865.25,-388.45 865.6,-377.86 858.92,-379.96"/>
</g>
<!-- Node14 -->
<g id="node14" class="node">
<title>Node14</title>
<g id="a_node14"><a xlink:href="kmt_8c.html#a9ddca6d133a84154c98607bf0ee82c76" target="_top" xlink:title="set cpu&#39;s current task">
<polygon fill="none" stroke="black" points="340.5,-8.55 340.5,-27.55 416.5,-27.55 416.5,-8.55 340.5,-8.55"/>
<text text-anchor="middle" x="378.5" y="-15.55" font-family="Helvetica,sans-Serif" font-size="10.00">kmt_set_task</text>
</a>
</g>
</g>
<!-- Node1&#45;&gt;Node14 -->
<g id="edge18" class="edge">
<title>Node1&#45;&gt;Node14</title>
<path fill="none" stroke="midnightblue" d="M866.74,-378.09C862.23,-313.68 844.7,-113.14 799,-71.05 771.06,-45.32 514.02,-26.55 416.65,-20.31"/>
<polygon fill="midnightblue" stroke="midnightblue" points="863.27,-378.72 867.43,-388.46 870.25,-378.25 863.27,-378.72"/>
</g>
<!-- Node15 -->
<g id="node15" class="node">
<title>Node15</title>
<g id="a_node15"><a xlink:href="spinlock_8c.html#ad4be0d674a7ca4dc90c2dbf8b34562cc" target="_top" xlink:title="check current cpu has the lock">
<polygon fill="none" stroke="black" points="580,-350.55 580,-369.55 651,-369.55 651,-350.55 580,-350.55"/>
<text text-anchor="middle" x="615.5" y="-357.55" font-family="Helvetica,sans-Serif" font-size="10.00">spin_holding</text>
</a>
</g>
</g>
<!-- Node1&#45;&gt;Node15 -->
<g id="edge21" class="edge">
<title>Node1&#45;&gt;Node15</title>
<path fill="none" stroke="midnightblue" d="M827.8,-385.79C818.42,-383.26 808.42,-380.83 799,-379.05 747.97,-369.44 687.94,-364.37 651.05,-361.95"/>
<polygon fill="midnightblue" stroke="midnightblue" points="827.11,-389.23 837.68,-388.54 828.99,-382.48 827.11,-389.23"/>
</g>
<!-- Node23 -->
<g id="node23" class="node">
<title>Node23</title>
<g id="a_node23"><a xlink:href="spinlock_8c.html#ab6f3c37ec37006951feccc3c05387cce" target="_top" xlink:title="acquire spinlock to current cpu">
<polygon fill="none" stroke="black" points="477,-464.55 477,-483.55 535,-483.55 535,-464.55 477,-464.55"/>
<text text-anchor="middle" x="506" y="-471.55" font-family="Helvetica,sans-Serif" font-size="10.00">spin_lock</text>
</a>
</g>
</g>
<!-- Node1&#45;&gt;Node23 -->
<g id="edge58" class="edge">
<title>Node1&#45;&gt;Node23</title>
<path fill="none" stroke="midnightblue" d="M852.78,-415.56C839.94,-428.99 820.29,-446.61 799,-455.05 708.1,-491.12 588.8,-483.69 535.21,-477.78"/>
<polygon fill="midnightblue" stroke="midnightblue" points="855.66,-417.6 859.85,-407.86 850.51,-412.86 855.66,-417.6"/>
</g>
<!-- Node26 -->
<g id="node26" class="node">
<title>Node26</title>
<g id="a_node26"><a xlink:href="spinlock_8c.html#afc9565dc7a5ddf77e1fa76f5d91caf78" target="_top" xlink:title="interrupt able">
<polygon fill="none" stroke="black" points="710.5,-388.55 710.5,-407.55 775.5,-407.55 775.5,-388.55 710.5,-388.55"/>
<text text-anchor="middle" x="743" y="-395.55" font-family="Helvetica,sans-Serif" font-size="10.00">spin_popcli</text>
</a>
</g>
</g>
<!-- Node1&#45;&gt;Node26 -->
<g id="edge59" class="edge">
<title>Node1&#45;&gt;Node26</title>
<path fill="none" stroke="midnightblue" d="M824.5,-398.05C808.4,-398.05 790.46,-398.05 775.61,-398.05"/>
<polygon fill="midnightblue" stroke="midnightblue" points="824.77,-401.55 834.77,-398.05 824.77,-394.55 824.77,-401.55"/>
</g>
<!-- Node27 -->
<g id="node27" class="node">
<title>Node27</title>
<g id="a_node27"><a xlink:href="spinlock_8c.html#ab213874cda54fdbbeb1bec1e5fa90b28" target="_top" xlink:title="interrupt disable">
<polygon fill="none" stroke="black" points="707.5,-426.55 707.5,-445.55 778.5,-445.55 778.5,-426.55 707.5,-426.55"/>
<text text-anchor="middle" x="743" y="-433.55" font-family="Helvetica,sans-Serif" font-size="10.00">spin_pushcli</text>
</a>
</g>
</g>
<!-- Node1&#45;&gt;Node27 -->
<g id="edge62" class="edge">
<title>Node1&#45;&gt;Node27</title>
<path fill="none" stroke="midnightblue" d="M827.1,-410.59C810.23,-415.76 790.99,-421.65 775.28,-426.47"/>
<polygon fill="midnightblue" stroke="midnightblue" points="828.17,-413.92 836.71,-407.64 826.12,-407.23 828.17,-413.92"/>
</g>
<!-- Node28 -->
<g id="node28" class="node">
<title>Node28</title>
<g id="a_node28"><a xlink:href="vme_8c.html#a102a03634ce449f78facc63eee85d9b8" target="_top" xlink:title=" ">
<polygon fill="none" stroke="black" points="716.5,-8.55 716.5,-27.55 769.5,-27.55 769.5,-8.55 716.5,-8.55"/>
<text text-anchor="middle" x="743" y="-15.55" font-family="Helvetica,sans-Serif" font-size="10.00">vme_init</text>
</a>
</g>
</g>
<!-- Node1&#45;&gt;Node28 -->
<g id="edge65" class="edge">
<title>Node1&#45;&gt;Node28</title>
<path fill="none" stroke="midnightblue" d="M866.55,-378.15C861.32,-311.14 841.42,-95 799,-42.05 791.7,-32.95 780.27,-27.22 769.7,-23.65"/>
<polygon fill="midnightblue" stroke="midnightblue" points="863.07,-378.51 867.31,-388.22 870.05,-377.98 863.07,-378.51"/>
</g>
<!-- Node2&#45;&gt;Node3 -->
<g id="edge2" class="edge">
<title>Node2&#45;&gt;Node3</title>
<path fill="none" stroke="midnightblue" d="M676.51,-626.05C659.72,-626.05 643.2,-626.05 631.75,-626.05"/>
<polygon fill="midnightblue" stroke="midnightblue" points="676.95,-629.55 686.95,-626.05 676.95,-622.55 676.95,-629.55"/>
</g>
<!-- Node4 -->
<g id="node4" class="node">
<title>Node4</title>
<g id="a_node4"><a xlink:href="trm_8c.html#a12a49ff4d3a586b2315e292c5da3df7e" target="_top" xlink:title=" ">
<polygon fill="none" stroke="black" points="477,-616.55 477,-635.55 535,-635.55 535,-616.55 477,-616.55"/>
<text text-anchor="middle" x="506" y="-623.55" font-family="Helvetica,sans-Serif" font-size="10.00">call_main</text>
</a>
</g>
</g>
<!-- Node3&#45;&gt;Node4 -->
<g id="edge3" class="edge">
<title>Node3&#45;&gt;Node4</title>
<path fill="none" stroke="midnightblue" d="M588.79,-626.05C572.67,-626.05 551.87,-626.05 535.29,-626.05"/>
<polygon fill="midnightblue" stroke="midnightblue" points="589.1,-629.55 599.1,-626.05 589.1,-622.55 589.1,-629.55"/>
</g>
<!-- Node5 -->
<g id="node5" class="node">
<title>Node5</title>
<g id="a_node5"><a xlink:href="trm_8c.html#a54a85aeee6f6a8ef875d4cca663f9fd8" target="_top" xlink:title=" ">
<polygon fill="none" stroke="black" points="352.5,-654.55 352.5,-673.55 404.5,-673.55 404.5,-654.55 352.5,-654.55"/>
<text text-anchor="middle" x="378.5" y="-661.55" font-family="Helvetica,sans-Serif" font-size="10.00">_start_c</text>
</a>
</g>
</g>
<!-- Node4&#45;&gt;Node5 -->
<g id="edge4" class="edge">
<title>Node4&#45;&gt;Node5</title>
<path fill="none" stroke="midnightblue" d="M467.26,-637.48C446.98,-643.62 422.53,-651.03 404.59,-656.46"/>
<polygon fill="midnightblue" stroke="midnightblue" points="468.28,-640.83 476.84,-634.58 466.25,-634.13 468.28,-640.83"/>
</g>
<!-- Node8 -->
<g id="node8" class="node">
<title>Node8</title>
<g id="a_node8"><a xlink:href="main_8c.html#ae66f6b31b5ad750f1fe042a706a4e3d4" target="_top" xlink:title=" ">
<polygon fill="none" stroke="black" points="596.5,-502.55 596.5,-521.55 634.5,-521.55 634.5,-502.55 596.5,-502.55"/>
<text text-anchor="middle" x="615.5" y="-509.55" font-family="Helvetica,sans-Serif" font-size="10.00">main</text>
</a>
</g>
</g>
<!-- Node7&#45;&gt;Node8 -->
<g id="edge8" class="edge">
<title>Node7&#45;&gt;Node8</title>
<path fill="none" stroke="midnightblue" d="M709.25,-512.05C685.43,-512.05 654.05,-512.05 634.59,-512.05"/>
<polygon fill="midnightblue" stroke="midnightblue" points="709.27,-515.55 719.27,-512.05 709.27,-508.55 709.27,-515.55"/>
</g>
<!-- Node10 -->
<g id="node10" class="node">
<title>Node10</title>
<g id="a_node10"><a xlink:href="kmt_8c.html#a0c68a294cecc4be7cb4b495f15b883a0" target="_top" xlink:title="initialize kmt module">
<polygon fill="none" stroke="black" points="119,-274.55 119,-293.55 170,-293.55 170,-274.55 119,-274.55"/>
<text text-anchor="middle" x="144.5" y="-281.55" font-family="Helvetica,sans-Serif" font-size="10.00">kmt_init</text>
</a>
</g>
</g>
<!-- Node9&#45;&gt;Node10 -->
<g id="edge10" class="edge">
<title>Node9&#45;&gt;Node10</title>
<path fill="none" stroke="midnightblue" d="M321.49,-182.09C286.64,-191.14 241.8,-205.68 206,-227.05 184.44,-239.93 164.24,-261.63 153.51,-274.22"/>
<polygon fill="midnightblue" stroke="midnightblue" points="322.66,-185.41 331.5,-179.58 320.95,-178.62 322.66,-185.41"/>
</g>
<!-- Node11 -->
<g id="node11" class="node">
<title>Node11</title>
<g id="a_node11"><a xlink:href="kmt_8c.html#af360ef0d98ca30e481cc58ea3695fd58" target="_top" xlink:title=" ">
<polygon fill="none" stroke="black" points="0,-388.55 0,-407.55 83,-407.55 83,-388.55 0,-388.55"/>
<text text-anchor="middle" x="41.5" y="-395.55" font-family="Helvetica,sans-Serif" font-size="10.00">MODULE_DEF</text>
</a>
</g>
</g>
<!-- Node10&#45;&gt;Node11 -->
<g id="edge11" class="edge">
<title>Node10&#45;&gt;Node11</title>
<path fill="none" stroke="midnightblue" d="M128.03,-301.52C106.47,-325.85 68.14,-369.11 51.09,-388.36"/>
<polygon fill="midnightblue" stroke="midnightblue" points="130.88,-303.58 134.89,-293.77 125.64,-298.94 130.88,-303.58"/>
</g>
<!-- Node12&#45;&gt;Node9 -->
<g id="edge13" class="edge">
<title>Node12&#45;&gt;Node9</title>
<path fill="none" stroke="midnightblue" d="M480.47,-108.91C455.24,-124.19 416.7,-147.53 395.27,-160.51"/>
<polygon fill="midnightblue" stroke="midnightblue" points="482.36,-111.85 489.11,-103.68 478.74,-105.87 482.36,-111.85"/>
</g>
<!-- Node12&#45;&gt;Node11 -->
<g id="edge16" class="edge">
<title>Node12&#45;&gt;Node11</title>
<path fill="none" stroke="midnightblue" d="M460.55,-82.31C423.18,-74.65 368.99,-68.78 325,-85.05 169.84,-142.45 68.47,-342.45 46.84,-388.53"/>
<polygon fill="midnightblue" stroke="midnightblue" points="460.1,-85.8 470.61,-84.51 461.59,-78.96 460.1,-85.8"/>
</g>
<!-- Node12&#45;&gt;Node13 -->
<g id="edge14" class="edge">
<title>Node12&#45;&gt;Node13</title>
<path fill="none" stroke="midnightblue" d="M457.51,-89.59C418.77,-88.33 364.23,-92.22 325,-118.05 280.68,-147.24 258.28,-211.76 251.12,-236.31"/>
<polygon fill="midnightblue" stroke="midnightblue" points="457.84,-93.11 467.99,-90.07 458.16,-86.11 457.84,-93.11"/>
</g>
<!-- Node13&#45;&gt;Node10 -->
<g id="edge15" class="edge">
<title>Node13&#45;&gt;Node10</title>
<path fill="none" stroke="midnightblue" d="M211.49,-259.23C197.91,-264.34 182.68,-270.06 170.28,-274.73"/>
<polygon fill="midnightblue" stroke="midnightblue" points="212.89,-262.44 221.01,-255.64 210.42,-255.89 212.89,-262.44"/>
</g>
<!-- Node14&#45;&gt;Node11 -->
<g id="edge20" class="edge">
<title>Node14&#45;&gt;Node11</title>
<path fill="none" stroke="midnightblue" d="M330.22,-7.35C272.86,2.61 176.72,9.17 119,-42.05 64.98,-90 46.45,-335.98 43.09,-388.27"/>
<polygon fill="midnightblue" stroke="midnightblue" points="329.64,-10.81 340.11,-9.17 330.91,-3.92 329.64,-10.81"/>
</g>
<!-- Node14&#45;&gt;Node13 -->
<g id="edge19" class="edge">
<title>Node14&#45;&gt;Node13</title>
<path fill="none" stroke="midnightblue" d="M360.62,-35.36C349.58,-47.27 335.34,-63.82 325,-80.05 289.71,-135.45 261.47,-209.8 251.96,-236.23"/>
<polygon fill="midnightblue" stroke="midnightblue" points="363.34,-37.58 367.67,-27.91 358.25,-32.77 363.34,-37.58"/>
</g>
<!-- Node15&#45;&gt;Node9 -->
<g id="edge22" class="edge">
<title>Node15&#45;&gt;Node9</title>
<path fill="none" stroke="midnightblue" d="M608.69,-340.86C599.37,-313.14 578.53,-261.97 544,-232.05 510.55,-203.08 462.22,-187.04 426.6,-178.57"/>
<polygon fill="midnightblue" stroke="midnightblue" points="605.41,-342.1 611.8,-350.55 612.08,-339.96 605.41,-342.1"/>
</g>
<!-- Node15&#45;&gt;Node13 -->
<g id="edge33" class="edge">
<title>Node15&#45;&gt;Node13</title>
<path fill="none" stroke="midnightblue" d="M595.9,-343.5C582.18,-331.82 562.73,-316.31 544,-305.05 497.28,-276.97 485.02,-267.72 432,-255.05 382.67,-243.27 323.83,-242.65 286.32,-243.88"/>
<polygon fill="midnightblue" stroke="midnightblue" points="593.78,-346.3 603.63,-350.21 598.37,-341.01 593.78,-346.3"/>
</g>
<!-- Node16 -->
<g id="node16" class="node">
<title>Node16</title>
<g id="a_node16"><a xlink:href="kmt_8c.html#a5ddb8743298012e84cf9cb5faf22212b" target="_top" xlink:title="create thread">
<polygon fill="none" stroke="black" points="346,-540.55 346,-559.55 411,-559.55 411,-540.55 346,-540.55"/>
<text text-anchor="middle" x="378.5" y="-547.55" font-family="Helvetica,sans-Serif" font-size="10.00">kmt_create</text>
</a>
</g>
</g>
<!-- Node15&#45;&gt;Node16 -->
<g id="edge23" class="edge">
<title>Node15&#45;&gt;Node16</title>
<path fill="none" stroke="midnightblue" d="M609.25,-379.32C600.46,-408.07 580.07,-462.14 544,-493.05 505.56,-526 447,-540.23 411.1,-546.14"/>
<polygon fill="midnightblue" stroke="midnightblue" points="612.64,-380.22 612.06,-369.64 605.92,-378.26 612.64,-380.22"/>
</g>
<!-- Node17 -->
<g id="node17" class="node">
<title>Node17</title>
<g id="a_node17"><a xlink:href="kmt_8c.html#ad3fbc643b7b6092120c5152b4c890354" target="_top" xlink:title="handler: handle program errors">
<polygon fill="none" stroke="black" points="218.5,-293.55 218.5,-312.55 276.5,-312.55 276.5,-293.55 218.5,-293.55"/>
<text text-anchor="middle" x="247.5" y="-300.55" font-family="Helvetica,sans-Serif" font-size="10.00">kmt_error</text>
</a>
</g>
</g>
<!-- Node15&#45;&gt;Node17 -->
<g id="edge25" class="edge">
<title>Node15&#45;&gt;Node17</title>
<path fill="none" stroke="midnightblue" d="M583.28,-346.68C571.14,-341.74 557.04,-336.31 544,-332.05 495.12,-316.09 483.01,-309.55 432,-303.05 377.33,-296.09 312.75,-298.54 276.62,-300.86"/>
<polygon fill="midnightblue" stroke="midnightblue" points="581.95,-349.92 592.53,-350.51 584.63,-343.45 581.95,-349.92"/>
</g>
<!-- Node18 -->
<g id="node18" class="node">
<title>Node18</title>
<g id="a_node18"><a xlink:href="kmt_8c.html#a0ac321d3074b24b276695a080e835866" target="_top" xlink:title="print all tasks notice: do not garantee concurrency safety">
<polygon fill="none" stroke="black" points="328,-350.55 328,-369.55 429,-369.55 429,-350.55 328,-350.55"/>
<text text-anchor="middle" x="378.5" y="-357.55" font-family="Helvetica,sans-Serif" font-size="10.00">kmt_print_all_tasks</text>
</a>
</g>
</g>
<!-- Node15&#45;&gt;Node18 -->
<g id="edge27" class="edge">
<title>Node15&#45;&gt;Node18</title>
<path fill="none" stroke="midnightblue" d="M569.78,-360.05C529.6,-360.05 470.69,-360.05 429.09,-360.05"/>
<polygon fill="midnightblue" stroke="midnightblue" points="569.82,-363.55 579.82,-360.05 569.82,-356.55 569.82,-363.55"/>
</g>
<!-- Node19 -->
<g id="node19" class="node">
<title>Node19</title>
<g id="a_node19"><a xlink:href="kmt_8c.html#ac69761d0146d9aacda65da757868d3c7" target="_top" xlink:title="print all current_tasks notice: do not garantee concurrency safety">
<polygon fill="none" stroke="black" points="325,-312.55 325,-331.55 432,-331.55 432,-312.55 325,-312.55"/>
<text text-anchor="middle" x="378.5" y="-319.55" font-family="Helvetica,sans-Serif" font-size="10.00">kmt_print_cpu_tasks</text>
</a>
</g>
</g>
<!-- Node15&#45;&gt;Node19 -->
<g id="edge30" class="edge">
<title>Node15&#45;&gt;Node19</title>
<path fill="none" stroke="midnightblue" d="M569.77,-352.82C530.57,-346.48 473.55,-337.26 432.16,-330.57"/>
<polygon fill="midnightblue" stroke="midnightblue" points="569.39,-356.31 579.82,-354.45 570.51,-349.4 569.39,-356.31"/>
</g>
<!-- Node20 -->
<g id="node20" class="node">
<title>Node20</title>
<g id="a_node20"><a xlink:href="kmt_8c.html#a47d8887c87041abd5ea3148232b65c93" target="_top" xlink:title="tear down a thread">
<polygon fill="none" stroke="black" points="339.5,-578.55 339.5,-597.55 417.5,-597.55 417.5,-578.55 339.5,-578.55"/>
<text text-anchor="middle" x="378.5" y="-585.55" font-family="Helvetica,sans-Serif" font-size="10.00">kmt_teardown</text>
</a>
</g>
</g>
<!-- Node15&#45;&gt;Node20 -->
<g id="edge34" class="edge">
<title>Node15&#45;&gt;Node20</title>
<path fill="none" stroke="midnightblue" d="M611.25,-379.95C604.65,-414.3 586.5,-485.02 544,-526.05 509.2,-559.66 454.43,-575.42 417.76,-582.55"/>
<polygon fill="midnightblue" stroke="midnightblue" points="614.76,-380.24 613.07,-369.78 607.87,-379.01 614.76,-380.24"/>
</g>
<!-- Node21 -->
<g id="node21" class="node">
<title>Node21</title>
<g id="a_node21"><a xlink:href="os_8c.html#a2be1c9facb49d4439f41b1537d0f3ef8" target="_top" xlink:title="System trap entry.">
<polygon fill="none" stroke="black" points="354,-426.55 354,-445.55 403,-445.55 403,-426.55 354,-426.55"/>
<text text-anchor="middle" x="378.5" y="-433.55" font-family="Helvetica,sans-Serif" font-size="10.00">os_trap</text>
</a>
</g>
</g>
<!-- Node15&#45;&gt;Node21 -->
<g id="edge36" class="edge">
<title>Node15&#45;&gt;Node21</title>
<path fill="none" stroke="midnightblue" d="M598.75,-377.27C585.52,-390.54 565.39,-408.07 544,-417.05 496.95,-436.81 436.06,-438.3 403.14,-437.36"/>
<polygon fill="midnightblue" stroke="midnightblue" points="601.64,-379.32 606.05,-369.68 596.6,-374.47 601.64,-379.32"/>
</g>
<!-- Node15&#45;&gt;Node23 -->
<g id="edge38" class="edge">
<title>Node15&#45;&gt;Node23</title>
<path fill="none" stroke="midnightblue" d="M603.07,-378.01C590.23,-397.28 568.04,-428.07 544,-450.05 538.12,-455.43 530.92,-460.4 524.43,-464.4"/>
<polygon fill="midnightblue" stroke="midnightblue" points="606.04,-379.85 608.58,-369.57 600.18,-376.02 606.04,-379.85"/>
</g>
<!-- Node25 -->
<g id="node25" class="node">
<title>Node25</title>
<g id="a_node25"><a xlink:href="spinlock_8c.html#acdf118d615a4bc4064e991add9a80995" target="_top" xlink:title="release spinlock from current cpu">
<polygon fill="none" stroke="black" points="472,-388.55 472,-407.55 540,-407.55 540,-388.55 472,-388.55"/>
<text text-anchor="middle" x="506" y="-395.55" font-family="Helvetica,sans-Serif" font-size="10.00">spin_unlock</text>
</a>
</g>
</g>
<!-- Node15&#45;&gt;Node25 -->
<g id="edge48" class="edge">
<title>Node15&#45;&gt;Node25</title>
<path fill="none" stroke="midnightblue" d="M577.8,-373.03C563.48,-378.09 547.36,-383.79 534.12,-388.47"/>
<polygon fill="midnightblue" stroke="midnightblue" points="579.11,-376.28 587.37,-369.64 576.78,-369.68 579.11,-376.28"/>
</g>
<!-- Node16&#45;&gt;Node11 -->
<g id="edge24" class="edge">
<title>Node16&#45;&gt;Node11</title>
<path fill="none" stroke="midnightblue" d="M347.36,-536.38C280.43,-506.01 120.78,-433.57 63.45,-407.56"/>
<polygon fill="midnightblue" stroke="midnightblue" points="345.99,-539.6 356.54,-540.55 348.88,-533.23 345.99,-539.6"/>
</g>
<!-- Node17&#45;&gt;Node10 -->
<g id="edge26" class="edge">
<title>Node17&#45;&gt;Node10</title>
<path fill="none" stroke="midnightblue" d="M208.38,-295.88C195.54,-293.47 181.56,-290.84 170.05,-288.67"/>
<polygon fill="midnightblue" stroke="midnightblue" points="207.89,-299.35 218.37,-297.76 209.19,-292.47 207.89,-299.35"/>
</g>
<!-- Node18&#45;&gt;Node13 -->
<g id="edge29" class="edge">
<title>Node18&#45;&gt;Node13</title>
<path fill="none" stroke="midnightblue" d="M331.92,-345.82C329.48,-344.37 327.16,-342.79 325,-341.05 301.65,-322.28 308.08,-307.16 289,-284.05 280.28,-273.5 268.77,-262.96 260.25,-255.67"/>
<polygon fill="midnightblue" stroke="midnightblue" points="330.59,-349.07 341.09,-350.47 333.75,-342.82 330.59,-349.07"/>
</g>
<!-- Node18&#45;&gt;Node17 -->
<g id="edge28" class="edge">
<title>Node18&#45;&gt;Node17</title>
<path fill="none" stroke="midnightblue" d="M339.73,-346.97C334.74,-345.07 329.72,-343.08 325,-341.05 304.55,-332.31 281.8,-320.76 266.47,-312.71"/>
<polygon fill="midnightblue" stroke="midnightblue" points="338.61,-350.29 349.21,-350.48 341.04,-343.73 338.61,-350.29"/>
</g>
<!-- Node19&#45;&gt;Node13 -->
<g id="edge32" class="edge">
<title>Node19&#45;&gt;Node13</title>
<path fill="none" stroke="midnightblue" d="M352.29,-307.2C326.35,-291.92 286.73,-268.58 264.71,-255.6"/>
<polygon fill="midnightblue" stroke="midnightblue" points="350.77,-310.37 361.16,-312.43 354.32,-304.34 350.77,-310.37"/>
</g>
<!-- Node19&#45;&gt;Node17 -->
<g id="edge31" class="edge">
<title>Node19&#45;&gt;Node17</title>
<path fill="none" stroke="midnightblue" d="M314.56,-312.78C301.28,-310.83 287.92,-308.86 276.72,-307.21"/>
<polygon fill="midnightblue" stroke="midnightblue" points="314.26,-316.28 324.66,-314.27 315.28,-309.35 314.26,-316.28"/>
</g>
<!-- Node20&#45;&gt;Node11 -->
<g id="edge35" class="edge">
<title>Node20&#45;&gt;Node11</title>
<path fill="none" stroke="midnightblue" d="M339.12,-574.9C334.32,-573.04 329.52,-571.07 325,-569.05 230.05,-526.61 205.98,-515.07 119,-458.05 94.44,-441.95 67.92,-420.02 53.46,-407.62"/>
<polygon fill="midnightblue" stroke="midnightblue" points="338.27,-578.32 348.86,-578.55 340.72,-571.77 338.27,-578.32"/>
</g>
<!-- Node22 -->
<g id="node22" class="node">
<title>Node22</title>
<g id="a_node22"><a xlink:href="os_8c.html#aafec7046aa50c914df86d0d22d4fc1d1" target="_top" xlink:title=" ">
<polygon fill="none" stroke="black" points="206,-426.55 206,-445.55 289,-445.55 289,-426.55 206,-426.55"/>
<text text-anchor="middle" x="247.5" y="-433.55" font-family="Helvetica,sans-Serif" font-size="10.00">MODULE_DEF</text>
</a>
</g>
</g>
<!-- Node21&#45;&gt;Node22 -->
<g id="edge37" class="edge">
<title>Node21&#45;&gt;Node22</title>
<path fill="none" stroke="midnightblue" d="M343.48,-436.05C326.85,-436.05 306.7,-436.05 289.25,-436.05"/>
<polygon fill="midnightblue" stroke="midnightblue" points="343.84,-439.55 353.84,-436.05 343.84,-432.55 343.84,-439.55"/>
</g>
<!-- Node23&#45;&gt;Node9 -->
<g id="edge39" class="edge">
<title>Node23&#45;&gt;Node9</title>
<path fill="none" stroke="midnightblue" d="M491.63,-456.22C483.94,-445.34 474.53,-430.89 468,-417.05 445.33,-369 449.77,-353.13 432,-303.05 415.4,-256.26 392.69,-201.41 383.55,-179.65"/>
<polygon fill="midnightblue" stroke="midnightblue" points="488.89,-458.4 497.59,-464.44 494.56,-454.29 488.89,-458.4"/>
</g>
<!-- Node23&#45;&gt;Node11 -->
<g id="edge46" class="edge">
<title>Node23&#45;&gt;Node11</title>
<path fill="none" stroke="midnightblue" d="M500.87,-493.66C493.25,-524.23 473.79,-582.32 432,-607.05 391.08,-631.28 371.23,-618.21 325,-607.05 222,-582.19 198.07,-557.58 119,-487.05 90.11,-461.29 61.96,-424.74 49.37,-407.61"/>
<polygon fill="midnightblue" stroke="midnightblue" points="504.31,-494.29 503.16,-483.75 497.49,-492.71 504.31,-494.29"/>
</g>
<!-- Node23&#45;&gt;Node13 -->
<g id="edge43" class="edge">
<title>Node23&#45;&gt;Node13</title>
<path fill="none" stroke="midnightblue" d="M467.02,-485.89C455.85,-488.84 443.54,-491.58 432,-493.05 384.83,-499.09 361.37,-523.69 325,-493.05 252.92,-432.32 333.68,-367.05 289,-284.05 282.78,-272.51 271.74,-262.51 262.76,-255.67"/>
<polygon fill="midnightblue" stroke="midnightblue" points="468.2,-489.2 476.9,-483.16 466.33,-482.45 468.2,-489.2"/>
</g>
<!-- Node23&#45;&gt;Node16 -->
<g id="edge40" class="edge">
<title>Node23&#45;&gt;Node16</title>
<path fill="none" stroke="midnightblue" d="M484.97,-489.9C470.68,-500.81 450.74,-515.23 432,-526.05 422.8,-531.37 412.22,-536.4 402.98,-540.46"/>
<polygon fill="midnightblue" stroke="midnightblue" points="487.31,-492.52 493.08,-483.63 483.03,-486.98 487.31,-492.52"/>
</g>
<!-- Node23&#45;&gt;Node18 -->
<g id="edge41" class="edge">
<title>Node23&#45;&gt;Node18</title>
<path fill="none" stroke="midnightblue" d="M486.82,-457.54C460.24,-433.4 411.64,-389.25 390.17,-369.75"/>
<polygon fill="midnightblue" stroke="midnightblue" points="484.54,-460.2 494.3,-464.33 489.25,-455.02 484.54,-460.2"/>
</g>
<!-- Node23&#45;&gt;Node19 -->
<g id="edge42" class="edge">
<title>Node23&#45;&gt;Node19</title>
<path fill="none" stroke="midnightblue" d="M492.31,-455.88C484.85,-444.87 475.46,-430.41 468,-417.05 449.78,-384.42 459.66,-366.2 432,-341.05 427.77,-337.21 422.7,-334.12 417.4,-331.66"/>
<polygon fill="midnightblue" stroke="midnightblue" points="489.49,-457.95 498.04,-464.21 495.26,-453.99 489.49,-457.95"/>
</g>
<!-- Node23&#45;&gt;Node20 -->
<g id="edge44" class="edge">
<title>Node23&#45;&gt;Node20</title>
<path fill="none" stroke="midnightblue" d="M495.13,-492.57C482.92,-513.82 460.26,-548.39 432,-569.05 426.76,-572.89 420.66,-576.02 414.52,-578.55"/>
<polygon fill="midnightblue" stroke="midnightblue" points="498.32,-494.03 500.12,-483.59 492.2,-490.63 498.32,-494.03"/>
</g>
<!-- Node23&#45;&gt;Node21 -->
<g id="edge47" class="edge">
<title>Node23&#45;&gt;Node21</title>
<path fill="none" stroke="midnightblue" d="M467.06,-462.57C446.35,-456.29 421.33,-448.72 403.35,-443.28"/>
<polygon fill="midnightblue" stroke="midnightblue" points="466.25,-465.98 476.84,-465.53 468.28,-459.28 466.25,-465.98"/>
</g>
<!-- Node24 -->
<g id="node24" class="node">
<title>Node24</title>
<g id="a_node24"><a xlink:href="kernel_8h.html#a7ef2d722f9c7f8acc1801144a5188825" target="_top" xlink:title=" ">
<polygon fill="none" stroke="black" points="349,-464.55 349,-483.55 408,-483.55 408,-464.55 349,-464.55"/>
<text text-anchor="middle" x="378.5" y="-471.55" font-family="Helvetica,sans-Serif" font-size="10.00">MODULE</text>
</a>
</g>
</g>
<!-- Node23&#45;&gt;Node24 -->
<g id="edge45" class="edge">
<title>Node23&#45;&gt;Node24</title>
<path fill="none" stroke="midnightblue" d="M466.74,-474.05C447.83,-474.05 425.39,-474.05 408,-474.05"/>
<polygon fill="midnightblue" stroke="midnightblue" points="466.84,-477.55 476.84,-474.05 466.84,-470.55 466.84,-477.55"/>
</g>
<!-- Node25&#45;&gt;Node9 -->
<g id="edge49" class="edge">
<title>Node25&#45;&gt;Node9</title>
<path fill="none" stroke="midnightblue" d="M498.57,-378.73C487.5,-346.83 463.03,-281.71 432,-232.05 419.44,-211.96 400.76,-191.54 389.39,-179.87"/>
<polygon fill="midnightblue" stroke="midnightblue" points="495.26,-379.88 501.8,-388.21 501.88,-377.62 495.26,-379.88"/>
</g>
<!-- Node25&#45;&gt;Node11 -->
<g id="edge56" class="edge">
<title>Node25&#45;&gt;Node11</title>
<path fill="none" stroke="midnightblue" d="M461.71,-398.05C372.66,-398.05 170.07,-398.05 83.24,-398.05"/>
<polygon fill="midnightblue" stroke="midnightblue" points="461.74,-401.55 471.74,-398.05 461.74,-394.55 461.74,-401.55"/>
</g>
<!-- Node25&#45;&gt;Node13 -->
<g id="edge53" class="edge">
<title>Node25&#45;&gt;Node13</title>
<path fill="none" stroke="midnightblue" d="M495.29,-379.31C483.24,-357.84 460.73,-323.07 432,-303.05 387.52,-272.07 325.57,-257.46 286.25,-250.91"/>
<polygon fill="midnightblue" stroke="midnightblue" points="492.37,-381.26 500.21,-388.39 498.53,-377.93 492.37,-381.26"/>
</g>
<!-- Node25&#45;&gt;Node16 -->
<g id="edge50" class="edge">
<title>Node25&#45;&gt;Node16</title>
<path fill="none" stroke="midnightblue" d="M492.01,-415.92C477.76,-435.3 453.97,-466.96 432,-493.05 417.62,-510.14 399.81,-529.03 389.07,-540.21"/>
<polygon fill="midnightblue" stroke="midnightblue" points="494.94,-417.85 498.02,-407.71 489.29,-413.72 494.94,-417.85"/>
</g>
<!-- Node25&#45;&gt;Node18 -->
<g id="edge51" class="edge">
<title>Node25&#45;&gt;Node18</title>
<path fill="none" stroke="midnightblue" d="M463.6,-385.52C446.53,-380.35 427.06,-374.46 411.16,-369.64"/>
<polygon fill="midnightblue" stroke="midnightblue" points="462.75,-388.92 473.33,-388.47 464.77,-382.22 462.75,-388.92"/>
</g>
<!-- Node25&#45;&gt;Node19 -->
<g id="edge52" class="edge">
<title>Node25&#45;&gt;Node19</title>
<path fill="none" stroke="midnightblue" d="M487.37,-381.68C473.24,-369.23 452.47,-352.37 432,-341.05 425.47,-337.44 418.12,-334.29 411.03,-331.63"/>
<polygon fill="midnightblue" stroke="midnightblue" points="485.09,-384.34 494.87,-388.42 489.77,-379.13 485.09,-384.34"/>
</g>
<!-- Node25&#45;&gt;Node20 -->
<g id="edge54" class="edge">
<title>Node25&#45;&gt;Node20</title>
<path fill="none" stroke="midnightblue" d="M491.63,-415.88C483.94,-426.77 474.53,-441.22 468,-455.05 445.33,-503.11 468.79,-530.71 432,-569.05 427.97,-573.25 422.95,-576.52 417.62,-579.08"/>
<polygon fill="midnightblue" stroke="midnightblue" points="494.56,-417.82 497.59,-407.67 488.89,-413.71 494.56,-417.82"/>
</g>
<!-- Node25&#45;&gt;Node21 -->
<g id="edge57" class="edge">
<title>Node25&#45;&gt;Node21</title>
<path fill="none" stroke="midnightblue" d="M463.51,-410.62C443.5,-416.68 420.21,-423.73 403.23,-428.87"/>
<polygon fill="midnightblue" stroke="midnightblue" points="464.77,-413.89 473.33,-407.64 462.75,-407.19 464.77,-413.89"/>
</g>
<!-- Node25&#45;&gt;Node24 -->
<g id="edge55" class="edge">
<title>Node25&#45;&gt;Node24</title>
<path fill="none" stroke="midnightblue" d="M487.37,-414.43C473.24,-426.88 452.47,-443.74 432,-455.05 424.54,-459.18 416,-462.72 408.01,-465.58"/>
<polygon fill="midnightblue" stroke="midnightblue" points="489.77,-416.98 494.87,-407.69 485.09,-411.77 489.77,-416.98"/>
</g>
<!-- Node26&#45;&gt;Node15 -->
<g id="edge60" class="edge">
<title>Node26&#45;&gt;Node15</title>
<path fill="none" stroke="midnightblue" d="M700.6,-385.52C683.53,-380.35 664.06,-374.46 648.16,-369.64"/>
<polygon fill="midnightblue" stroke="midnightblue" points="699.75,-388.92 710.33,-388.47 701.77,-382.22 699.75,-388.92"/>
</g>
<!-- Node26&#45;&gt;Node25 -->
<g id="edge61" class="edge">
<title>Node26&#45;&gt;Node25</title>
<path fill="none" stroke="midnightblue" d="M700.13,-398.05C654.38,-398.05 582.02,-398.05 540.08,-398.05"/>
<polygon fill="midnightblue" stroke="midnightblue" points="700.31,-401.55 710.31,-398.05 700.31,-394.55 700.31,-401.55"/>
</g>
<!-- Node27&#45;&gt;Node15 -->
<g id="edge63" class="edge">
<title>Node27&#45;&gt;Node15</title>
<path fill="none" stroke="midnightblue" d="M698.79,-422.76C694.72,-421.02 690.73,-419.12 687,-417.05 663.05,-403.77 639.09,-382.21 626.19,-369.76"/>
<polygon fill="midnightblue" stroke="midnightblue" points="697.75,-426.11 708.33,-426.5 700.3,-419.59 697.75,-426.11"/>
</g>
<!-- Node27&#45;&gt;Node23 -->
<g id="edge64" class="edge">
<title>Node27&#45;&gt;Node23</title>
<path fill="none" stroke="midnightblue" d="M697.37,-442.15C664.79,-446.72 619.58,-453.33 580,-460.05 565.11,-462.58 548.59,-465.72 535.03,-468.39"/>
<polygon fill="midnightblue" stroke="midnightblue" points="698.07,-445.58 707.49,-440.74 697.1,-438.65 698.07,-445.58"/>
</g>
</g>
</svg>
