<?xml version="1.0" encoding="UTF-8" standalone="no"?>
<!DOCTYPE svg PUBLIC "-//W3C//DTD SVG 1.1//EN"
 "http://www.w3.org/Graphics/SVG/1.1/DTD/svg11.dtd">
<!-- Generated by graphviz version 2.50.0 (20220203.2022)
 -->
<!-- Title: cpu_current Pages: 1 -->
<svg width="505pt" height="218pt"
 viewBox="0.00 0.00 505.00 218.00" xmlns="http://www.w3.org/2000/svg" xmlns:xlink="http://www.w3.org/1999/xlink">
<g id="graph0" class="graph" transform="scale(1 1) rotate(0) translate(4 214)">
<title>cpu_current</title>
<!-- Node1 -->
<g id="node1" class="node">
<title>Node1</title>
<g id="a_node1"><a xlink:title=" ">
<polygon fill="#bfbfbf" stroke="black" points="429,-95.5 429,-114.5 497,-114.5 497,-95.5 429,-95.5"/>
<text text-anchor="middle" x="463" y="-102.5" font-family="Helvetica,sans-Serif" font-size="10.00">cpu_current</text>
</a>
</g>
</g>
<!-- Node2 -->
<g id="node2" class="node">
<title>Node2</title>
<g id="a_node2"><a xlink:href="mpe_8c.html#a0a540532023afb1f31b6f21ce053483b" target="_top" xlink:title=" ">
<polygon fill="none" stroke="black" points="281,-190.5 281,-209.5 393,-209.5 393,-190.5 281,-190.5"/>
<text text-anchor="middle" x="337" y="-197.5" font-family="Helvetica,sans-Serif" font-size="10.00">__am_stop_the_world</text>
</a>
</g>
</g>
<!-- Node1&#45;&gt;Node2 -->
<g id="edge1" class="edge">
<title>Node1&#45;&gt;Node2</title>
<path fill="none" stroke="midnightblue" d="M448.12,-122.79C435.2,-138.43 414.7,-160.98 393,-176 384.61,-181.81 374.58,-186.69 365.4,-190.5"/>
<polygon fill="midnightblue" stroke="midnightblue" points="450.93,-124.88 454.48,-114.9 445.48,-120.49 450.93,-124.88"/>
</g>
<!-- Node3 -->
<g id="node3" class="node">
<title>Node3</title>
<g id="a_node3"><a xlink:href="trm_8c.html#a483cb97188e557c3c68d3a1572c2cc92" target="_top" xlink:title=" ">
<polygon fill="none" stroke="black" points="213,-152.5 213,-171.5 245,-171.5 245,-152.5 213,-152.5"/>
<text text-anchor="middle" x="229" y="-159.5" font-family="Helvetica,sans-Serif" font-size="10.00">halt</text>
</a>
</g>
</g>
<!-- Node1&#45;&gt;Node3 -->
<g id="edge8" class="edge">
<title>Node1&#45;&gt;Node3</title>
<path fill="none" stroke="midnightblue" d="M436.51,-119.45C423.8,-126.07 407.98,-133.43 393,-138 340.2,-154.11 274.37,-159.57 245.16,-161.28"/>
<polygon fill="midnightblue" stroke="midnightblue" points="438.4,-122.41 445.56,-114.6 435.09,-116.24 438.4,-122.41"/>
</g>
<!-- Node6 -->
<g id="node6" class="node">
<title>Node6</title>
<g id="a_node6"><a xlink:href="os_8c.html#a5f9cb32664e017ca15c49ec66e5342e4" target="_top" xlink:title=" ">
<polygon fill="none" stroke="black" points="125,-114.5 125,-133.5 171,-133.5 171,-114.5 125,-114.5"/>
<text text-anchor="middle" x="148" y="-121.5" font-family="Helvetica,sans-Serif" font-size="10.00">os_run</text>
</a>
</g>
</g>
<!-- Node1&#45;&gt;Node6 -->
<g id="edge10" class="edge">
<title>Node1&#45;&gt;Node6</title>
<path fill="none" stroke="midnightblue" d="M418.49,-107.64C350.86,-111.75 222.97,-119.51 171.4,-122.64"/>
<polygon fill="midnightblue" stroke="midnightblue" points="419.03,-111.11 428.8,-107.02 418.61,-104.13 419.03,-111.11"/>
</g>
<!-- Node8 -->
<g id="node8" class="node">
<title>Node8</title>
<g id="a_node8"><a xlink:href="cte_8c.html#a14d86719abbc247f8a0dd5eb2662ea88" target="_top" xlink:title=" ">
<polygon fill="none" stroke="black" points="313,-76.5 313,-95.5 361,-95.5 361,-76.5 313,-76.5"/>
<text text-anchor="middle" x="337" y="-83.5" font-family="Helvetica,sans-Serif" font-size="10.00">cte_init</text>
</a>
</g>
</g>
<!-- Node1&#45;&gt;Node8 -->
<g id="edge7" class="edge">
<title>Node1&#45;&gt;Node8</title>
<path fill="none" stroke="midnightblue" d="M418.64,-98.36C399.28,-95.39 377.25,-92.01 361.11,-89.54"/>
<polygon fill="midnightblue" stroke="midnightblue" points="418.36,-101.85 428.77,-99.91 419.42,-94.93 418.36,-101.85"/>
</g>
<!-- Node9 -->
<g id="node9" class="node">
<title>Node9</title>
<g id="a_node9"><a xlink:href="ioe_8c.html#a45ecef4130276c1c79d872c582cd3839" target="_top" xlink:title=" ">
<polygon fill="none" stroke="black" points="313.5,-38.5 313.5,-57.5 360.5,-57.5 360.5,-38.5 313.5,-38.5"/>
<text text-anchor="middle" x="337" y="-45.5" font-family="Helvetica,sans-Serif" font-size="10.00">ioe_init</text>
</a>
</g>
</g>
<!-- Node1&#45;&gt;Node9 -->
<g id="edge9" class="edge">
<title>Node1&#45;&gt;Node9</title>
<path fill="none" stroke="midnightblue" d="M437.71,-90.29C424.72,-82.77 408.29,-73.79 393,-67 382.57,-62.37 370.63,-58.12 360.55,-54.82"/>
<polygon fill="midnightblue" stroke="midnightblue" points="436.1,-93.4 446.5,-95.46 439.65,-87.37 436.1,-93.4"/>
</g>
<!-- Node10 -->
<g id="node10" class="node">
<title>Node10</title>
<g id="a_node10"><a xlink:href="vme_8c.html#a102a03634ce449f78facc63eee85d9b8" target="_top" xlink:title=" ">
<polygon fill="none" stroke="black" points="310.5,-0.5 310.5,-19.5 363.5,-19.5 363.5,-0.5 310.5,-0.5"/>
<text text-anchor="middle" x="337" y="-7.5" font-family="Helvetica,sans-Serif" font-size="10.00">vme_init</text>
</a>
</g>
</g>
<!-- Node1&#45;&gt;Node10 -->
<g id="edge11" class="edge">
<title>Node1&#45;&gt;Node10</title>
<path fill="none" stroke="midnightblue" d="M449.69,-86.86C437.22,-69.75 416.47,-44.48 393,-29 384.15,-23.16 373.3,-18.91 363.59,-15.94"/>
<polygon fill="midnightblue" stroke="midnightblue" points="447.1,-89.26 455.73,-95.41 452.82,-85.22 447.1,-89.26"/>
</g>
<!-- Node2&#45;&gt;Node3 -->
<g id="edge2" class="edge">
<title>Node2&#45;&gt;Node3</title>
<path fill="none" stroke="midnightblue" d="M299.59,-186.95C281,-180.28 259.4,-172.54 245.25,-167.47"/>
<polygon fill="midnightblue" stroke="midnightblue" points="298.66,-190.33 309.25,-190.41 301.02,-183.74 298.66,-190.33"/>
</g>
<!-- Node4 -->
<g id="node4" class="node">
<title>Node4</title>
<g id="a_node4"><a xlink:href="trm_8c.html#a12a49ff4d3a586b2315e292c5da3df7e" target="_top" xlink:title=" ">
<polygon fill="none" stroke="black" points="119,-152.5 119,-171.5 177,-171.5 177,-152.5 119,-152.5"/>
<text text-anchor="middle" x="148" y="-159.5" font-family="Helvetica,sans-Serif" font-size="10.00">call_main</text>
</a>
</g>
</g>
<!-- Node3&#45;&gt;Node4 -->
<g id="edge3" class="edge">
<title>Node3&#45;&gt;Node4</title>
<path fill="none" stroke="midnightblue" d="M202.5,-162C194.46,-162 185.52,-162 177.3,-162"/>
<polygon fill="midnightblue" stroke="midnightblue" points="202.77,-165.5 212.77,-162 202.77,-158.5 202.77,-165.5"/>
</g>
<!-- Node3&#45;&gt;Node6 -->
<g id="edge5" class="edge">
<title>Node3&#45;&gt;Node6</title>
<path fill="none" stroke="midnightblue" d="M203.59,-150.26C192.48,-144.92 179.49,-138.67 168.97,-133.61"/>
<polygon fill="midnightblue" stroke="midnightblue" points="202.24,-153.49 212.77,-154.67 205.27,-147.18 202.24,-153.49"/>
</g>
<!-- Node5 -->
<g id="node5" class="node">
<title>Node5</title>
<g id="a_node5"><a xlink:href="trm_8c.html#a54a85aeee6f6a8ef875d4cca663f9fd8" target="_top" xlink:title=" ">
<polygon fill="none" stroke="black" points="15.5,-152.5 15.5,-171.5 67.5,-171.5 67.5,-152.5 15.5,-152.5"/>
<text text-anchor="middle" x="41.5" y="-159.5" font-family="Helvetica,sans-Serif" font-size="10.00">_start_c</text>
</a>
</g>
</g>
<!-- Node4&#45;&gt;Node5 -->
<g id="edge4" class="edge">
<title>Node4&#45;&gt;Node5</title>
<path fill="none" stroke="midnightblue" d="M108.86,-162C95.16,-162 80.05,-162 67.72,-162"/>
<polygon fill="midnightblue" stroke="midnightblue" points="109,-165.5 119,-162 109,-158.5 109,-165.5"/>
</g>
<!-- Node7 -->
<g id="node7" class="node">
<title>Node7</title>
<g id="a_node7"><a xlink:href="os_8c.html#aafec7046aa50c914df86d0d22d4fc1d1" target="_top" xlink:title=" ">
<polygon fill="none" stroke="black" points="0,-114.5 0,-133.5 83,-133.5 83,-114.5 0,-114.5"/>
<text text-anchor="middle" x="41.5" y="-121.5" font-family="Helvetica,sans-Serif" font-size="10.00">MODULE_DEF</text>
</a>
</g>
</g>
<!-- Node6&#45;&gt;Node7 -->
<g id="edge6" class="edge">
<title>Node6&#45;&gt;Node7</title>
<path fill="none" stroke="midnightblue" d="M114.59,-124C104.66,-124 93.6,-124 83.19,-124"/>
<polygon fill="midnightblue" stroke="midnightblue" points="114.84,-127.5 124.84,-124 114.84,-120.5 114.84,-127.5"/>
</g>
</g>
</svg>
