<?xml version="1.0" encoding="UTF-8" standalone="no"?>
<!DOCTYPE svg PUBLIC "-//W3C//DTD SVG 1.1//EN"
 "http://www.w3.org/Graphics/SVG/1.1/DTD/svg11.dtd">
<!-- Generated by graphviz version 2.50.0 (20220203.2022)
 -->
<!-- Title: install_signal_handler Pages: 1 -->
<svg width="776pt" height="218pt"
 viewBox="0.00 0.00 776.00 218.00" xmlns="http://www.w3.org/2000/svg" xmlns:xlink="http://www.w3.org/1999/xlink">
<g id="graph0" class="graph" transform="scale(1 1) rotate(0) translate(4 214)">
<title>install_signal_handler</title>
<!-- Node1 -->
<g id="node1" class="node">
<title>Node1</title>
<g id="a_node1"><a xlink:title=" ">
<polygon fill="#bfbfbf" stroke="black" points="0,-114.5 0,-133.5 110,-133.5 110,-114.5 0,-114.5"/>
<text text-anchor="middle" x="55" y="-121.5" font-family="Helvetica,sans-Serif" font-size="10.00">install_signal_handler</text>
</a>
</g>
</g>
<!-- Node2 -->
<g id="node2" class="node">
<title>Node2</title>
<g id="a_node2"><a xlink:href="platform_8c.html#aa960047c9f8917e11dc07fa990d754f8" target="_top" xlink:title=" ">
<polygon fill="none" stroke="black" points="354,-190.5 354,-209.5 474,-209.5 474,-190.5 354,-190.5"/>
<text text-anchor="middle" x="414" y="-197.5" font-family="Helvetica,sans-Serif" font-size="10.00">__am_get_intr_sigmask</text>
</a>
</g>
</g>
<!-- Node1&#45;&gt;Node2 -->
<g id="edge1" class="edge">
<title>Node1&#45;&gt;Node2</title>
<path fill="none" stroke="midnightblue" d="M82.65,-133.52C119.39,-146.27 187.87,-168.71 248,-181 279.08,-187.35 313.93,-191.76 343.56,-194.71"/>
<polygon fill="midnightblue" stroke="midnightblue" points="343.52,-198.22 353.81,-195.69 344.19,-191.25 343.52,-198.22"/>
</g>
<!-- Node3 -->
<g id="node3" class="node">
<title>Node3</title>
<g id="a_node3"><a xlink:href="string_8c.html#a313175102214d45434bf045db18dddf0" target="_top" xlink:title=" ">
<polygon fill="none" stroke="black" points="153,-76.5 153,-95.5 205,-95.5 205,-76.5 153,-76.5"/>
<text text-anchor="middle" x="179" y="-83.5" font-family="Helvetica,sans-Serif" font-size="10.00">memset</text>
</a>
</g>
</g>
<!-- Node1&#45;&gt;Node3 -->
<g id="edge2" class="edge">
<title>Node1&#45;&gt;Node3</title>
<path fill="none" stroke="midnightblue" d="M86.79,-114.41C103.9,-109.08 125.25,-102.43 143,-96.9"/>
<polygon fill="midnightblue" stroke="midnightblue" points="144.46,-100.11 152.97,-93.8 142.38,-93.43 144.46,-100.11"/>
</g>
<!-- Node4 -->
<g id="node4" class="node">
<title>Node4</title>
<g id="a_node4"><a xlink:href="native_2cte_8c.html#a15554d17d092b4dd626a77142f89ae02" target="_top" xlink:title=" ">
<polygon fill="none" stroke="black" points="146,-114.5 146,-133.5 212,-133.5 212,-114.5 146,-114.5"/>
<text text-anchor="middle" x="179" y="-121.5" font-family="Helvetica,sans-Serif" font-size="10.00">sig_handler</text>
</a>
</g>
</g>
<!-- Node1&#45;&gt;Node4 -->
<g id="edge3" class="edge">
<title>Node1&#45;&gt;Node4</title>
<path fill="none" stroke="midnightblue" d="M110.22,-124C118.81,-124 127.59,-124 135.85,-124"/>
<polygon fill="midnightblue" stroke="midnightblue" points="135.99,-127.5 145.99,-124 135.99,-120.5 135.99,-127.5"/>
</g>
<!-- Node5 -->
<g id="node5" class="node">
<title>Node5</title>
<g id="a_node5"><a xlink:href="native_2vme_8c.html#a7c08b968266dabfd5c3fc261f5d51750" target="_top" xlink:title=" ">
<polygon fill="none" stroke="black" points="362,-38.5 362,-57.5 466,-57.5 466,-38.5 362,-38.5"/>
<text text-anchor="middle" x="414" y="-45.5" font-family="Helvetica,sans-Serif" font-size="10.00">__am_in_userspace</text>
</a>
</g>
</g>
<!-- Node4&#45;&gt;Node5 -->
<g id="edge4" class="edge">
<title>Node4&#45;&gt;Node5</title>
<path fill="none" stroke="midnightblue" d="M208.93,-114.48C243.44,-103.12 302.91,-83.6 354,-67 360.25,-64.97 366.87,-62.83 373.33,-60.74"/>
<polygon fill="midnightblue" stroke="midnightblue" points="374.83,-63.94 383.28,-57.54 372.69,-57.28 374.83,-63.94"/>
</g>
<!-- Node6 -->
<g id="node6" class="node">
<title>Node6</title>
<g id="a_node6"><a xlink:href="native_2cte_8c.html#aa76bab517f9c7ba14287162896f6dbbb" target="_top" xlink:title=" ">
<polygon fill="none" stroke="black" points="268,-38.5 268,-57.5 298,-57.5 298,-38.5 268,-38.5"/>
<text text-anchor="middle" x="283" y="-45.5" font-family="Helvetica,sans-Serif" font-size="10.00">iret</text>
</a>
</g>
</g>
<!-- Node4&#45;&gt;Node6 -->
<g id="edge5" class="edge">
<title>Node4&#45;&gt;Node6</title>
<path fill="none" stroke="midnightblue" d="M197.69,-114.38C202.46,-111.54 207.54,-108.31 212,-105 229.42,-92.06 231.1,-85.62 248,-72 251.64,-69.06 255.62,-66.08 259.52,-63.26"/>
<polygon fill="midnightblue" stroke="midnightblue" points="261.65,-66.04 267.81,-57.42 257.62,-60.32 261.65,-66.04"/>
</g>
<!-- Node8 -->
<g id="node8" class="node">
<title>Node8</title>
<g id="a_node8"><a xlink:href="native_2cte_8c.html#a3f025af92181d8eee1f3aedb2ab8314a" target="_top" xlink:title=" ">
<polygon fill="none" stroke="black" points="248,-114.5 248,-133.5 318,-133.5 318,-114.5 248,-114.5"/>
<text text-anchor="middle" x="283" y="-121.5" font-family="Helvetica,sans-Serif" font-size="10.00">setup_stack</text>
</a>
</g>
</g>
<!-- Node4&#45;&gt;Node8 -->
<g id="edge8" class="edge">
<title>Node4&#45;&gt;Node8</title>
<path fill="none" stroke="midnightblue" d="M212.27,-124C220.32,-124 229.1,-124 237.62,-124"/>
<polygon fill="midnightblue" stroke="midnightblue" points="237.82,-127.5 247.82,-124 237.82,-120.5 237.82,-127.5"/>
</g>
<!-- Node16 -->
<g id="node16" class="node">
<title>Node16</title>
<g id="a_node16"><a xlink:href="x86_2qemu_2vme_8c.html#a8e53eed544a985d22d8c1df4c4d7df2c" target="_top" xlink:title=" ">
<polygon fill="none" stroke="black" points="256.5,-152.5 256.5,-171.5 309.5,-171.5 309.5,-152.5 256.5,-152.5"/>
<text text-anchor="middle" x="283" y="-159.5" font-family="Helvetica,sans-Serif" font-size="10.00">ucontext</text>
</a>
</g>
</g>
<!-- Node4&#45;&gt;Node16 -->
<g id="edge18" class="edge">
<title>Node4&#45;&gt;Node16</title>
<path fill="none" stroke="midnightblue" d="M205.74,-133.59C218.18,-138.22 233.31,-143.86 246.8,-148.89"/>
<polygon fill="midnightblue" stroke="midnightblue" points="245.68,-152.2 256.27,-152.41 248.12,-145.64 245.68,-152.2"/>
</g>
<!-- Node6&#45;&gt;Node5 -->
<g id="edge6" class="edge">
<title>Node6&#45;&gt;Node5</title>
<path fill="none" stroke="midnightblue" d="M298.3,-48C311.43,-48 331.83,-48 351.8,-48"/>
<polygon fill="midnightblue" stroke="midnightblue" points="351.85,-51.5 361.85,-48 351.85,-44.5 351.85,-51.5"/>
</g>
<!-- Node7 -->
<g id="node7" class="node">
<title>Node7</title>
<g id="a_node7"><a xlink:href="platform_8c.html#a54f9386958245be4fd8b5983941557c6" target="_top" xlink:title=" ">
<polygon fill="none" stroke="black" points="360,-0.5 360,-19.5 468,-19.5 468,-0.5 360,-0.5"/>
<text text-anchor="middle" x="414" y="-7.5" font-family="Helvetica,sans-Serif" font-size="10.00">__am_pmem_protect</text>
</a>
</g>
</g>
<!-- Node6&#45;&gt;Node7 -->
<g id="edge7" class="edge">
<title>Node6&#45;&gt;Node7</title>
<path fill="none" stroke="midnightblue" d="M298.3,-43.79C315.73,-38.65 345.96,-29.75 371.02,-22.37"/>
<polygon fill="midnightblue" stroke="midnightblue" points="372.07,-25.71 380.68,-19.52 370.09,-18.99 372.07,-25.71"/>
</g>
<!-- Node8&#45;&gt;Node2 -->
<g id="edge9" class="edge">
<title>Node8&#45;&gt;Node2</title>
<path fill="none" stroke="midnightblue" d="M303.7,-133.68C308.56,-136.42 313.62,-139.6 318,-143 336.36,-157.28 334.31,-168.6 354,-181 357.19,-183.01 360.62,-184.83 364.15,-186.46"/>
<polygon fill="midnightblue" stroke="midnightblue" points="363.1,-189.81 373.67,-190.39 365.76,-183.34 363.1,-189.81"/>
</g>
<!-- Node8&#45;&gt;Node5 -->
<g id="edge10" class="edge">
<title>Node8&#45;&gt;Node5</title>
<path fill="none" stroke="midnightblue" d="M298.52,-114.35C304.66,-110.12 311.81,-104.99 318,-100 334.9,-86.38 335.24,-77.91 354,-67 357.66,-64.87 361.59,-62.95 365.63,-61.21"/>
<polygon fill="midnightblue" stroke="midnightblue" points="367.08,-64.4 375.13,-57.52 364.55,-57.88 367.08,-64.4"/>
</g>
<!-- Node9 -->
<g id="node9" class="node">
<title>Node9</title>
<g id="a_node9"><a xlink:href="platform_8c.html#a16055cdb3fd495fa548a7e15bc6a5fd6" target="_top" xlink:title=" ">
<polygon fill="none" stroke="black" points="354.5,-114.5 354.5,-133.5 473.5,-133.5 473.5,-114.5 354.5,-114.5"/>
<text text-anchor="middle" x="414" y="-121.5" font-family="Helvetica,sans-Serif" font-size="10.00">__am_pmem_unprotect</text>
</a>
</g>
</g>
<!-- Node8&#45;&gt;Node9 -->
<g id="edge11" class="edge">
<title>Node8&#45;&gt;Node9</title>
<path fill="none" stroke="midnightblue" d="M318.23,-124C326.26,-124 335.09,-124 344.04,-124"/>
<polygon fill="midnightblue" stroke="midnightblue" points="344.16,-127.5 354.16,-124 344.16,-120.5 344.16,-127.5"/>
</g>
<!-- Node10 -->
<g id="node10" class="node">
<title>Node10</title>
<g id="a_node10"><a xlink:href="native_2cte_8c.html#a9c8dd258011eaecff60c4a7e53717e53" target="_top" xlink:title=" ">
<polygon fill="none" stroke="black" points="383.5,-76.5 383.5,-95.5 444.5,-95.5 444.5,-76.5 383.5,-76.5"/>
<text text-anchor="middle" x="414" y="-83.5" font-family="Helvetica,sans-Serif" font-size="10.00">irq_handle</text>
</a>
</g>
</g>
<!-- Node8&#45;&gt;Node10 -->
<g id="edge12" class="edge">
<title>Node8&#45;&gt;Node10</title>
<path fill="none" stroke="midnightblue" d="M316.55,-114.41C333.81,-109.33 355.14,-103.04 373.36,-97.68"/>
<polygon fill="midnightblue" stroke="midnightblue" points="374.51,-100.99 383.11,-94.8 372.53,-94.27 374.51,-100.99"/>
</g>
<!-- Node11 -->
<g id="node11" class="node">
<title>Node11</title>
<g id="a_node11"><a xlink:href="native_2cte_8c.html#af03a5d8431ed9f14db12fb73dd89e32a" target="_top" xlink:title=" ">
<polygon fill="none" stroke="black" points="510,-114.5 510,-133.5 625,-133.5 625,-114.5 510,-114.5"/>
<text text-anchor="middle" x="567.5" y="-121.5" font-family="Helvetica,sans-Serif" font-size="10.00">__am_panic_on_return</text>
</a>
</g>
</g>
<!-- Node10&#45;&gt;Node11 -->
<g id="edge13" class="edge">
<title>Node10&#45;&gt;Node11</title>
<path fill="none" stroke="midnightblue" d="M444.57,-93.42C465.61,-98.69 494.34,-105.9 518.62,-111.99"/>
<polygon fill="midnightblue" stroke="midnightblue" points="517.82,-115.4 528.38,-114.44 519.53,-108.61 517.82,-115.4"/>
</g>
<!-- Node12 -->
<g id="node12" class="node">
<title>Node12</title>
<g id="a_node12"><a xlink:href="native_2vme_8c.html#a83098472fe0a6fda68a29d21636251a6" target="_top" xlink:title=" ">
<polygon fill="none" stroke="black" points="530.5,-76.5 530.5,-95.5 604.5,-95.5 604.5,-76.5 530.5,-76.5"/>
<text text-anchor="middle" x="567.5" y="-83.5" font-family="Helvetica,sans-Serif" font-size="10.00">__am_switch</text>
</a>
</g>
</g>
<!-- Node10&#45;&gt;Node12 -->
<g id="edge14" class="edge">
<title>Node10&#45;&gt;Node12</title>
<path fill="none" stroke="midnightblue" d="M444.57,-86C466.04,-86 495.53,-86 520.12,-86"/>
<polygon fill="midnightblue" stroke="midnightblue" points="520.32,-89.5 530.32,-86 520.32,-82.5 520.32,-89.5"/>
</g>
<!-- Node15 -->
<g id="node15" class="node">
<title>Node15</title>
<g id="a_node15"><a xlink:href="stdio_8c.html#a55f3d956bb2ba20b5059e9e25484a47f" target="_top" xlink:title=" ">
<polygon fill="none" stroke="black" points="548.5,-38.5 548.5,-57.5 586.5,-57.5 586.5,-38.5 548.5,-38.5"/>
<text text-anchor="middle" x="567.5" y="-45.5" font-family="Helvetica,sans-Serif" font-size="10.00">printf</text>
</a>
</g>
</g>
<!-- Node10&#45;&gt;Node15 -->
<g id="edge17" class="edge">
<title>Node10&#45;&gt;Node15</title>
<path fill="none" stroke="midnightblue" d="M444.57,-78.58C471.79,-71.76 511.86,-61.7 538.55,-55.01"/>
<polygon fill="midnightblue" stroke="midnightblue" points="539.56,-58.37 548.41,-52.54 537.86,-51.58 539.56,-58.37"/>
</g>
<!-- Node13 -->
<g id="node13" class="node">
<title>Node13</title>
<g id="a_node13"><a xlink:href="platform_8c.html#ad487173c7af5aa14fbb84ab6e2df502d" target="_top" xlink:title=" ">
<polygon fill="none" stroke="black" points="666,-95.5 666,-114.5 763,-114.5 763,-95.5 666,-95.5"/>
<text text-anchor="middle" x="714.5" y="-102.5" font-family="Helvetica,sans-Serif" font-size="10.00">__am_pmem_map</text>
</a>
</g>
</g>
<!-- Node12&#45;&gt;Node13 -->
<g id="edge15" class="edge">
<title>Node12&#45;&gt;Node13</title>
<path fill="none" stroke="midnightblue" d="M604.72,-90.75C620.21,-92.78 638.69,-95.2 655.98,-97.46"/>
<polygon fill="midnightblue" stroke="midnightblue" points="655.62,-100.95 665.99,-98.77 656.53,-94 655.62,-100.95"/>
</g>
<!-- Node14 -->
<g id="node14" class="node">
<title>Node14</title>
<g id="a_node14"><a xlink:href="platform_8c.html#a8a63810f218980350b40e5b670693609" target="_top" xlink:title=" ">
<polygon fill="none" stroke="black" points="661,-57.5 661,-76.5 768,-76.5 768,-57.5 661,-57.5"/>
<text text-anchor="middle" x="714.5" y="-64.5" font-family="Helvetica,sans-Serif" font-size="10.00">__am_pmem_unmap</text>
</a>
</g>
</g>
<!-- Node12&#45;&gt;Node14 -->
<g id="edge16" class="edge">
<title>Node12&#45;&gt;Node14</title>
<path fill="none" stroke="midnightblue" d="M604.72,-81.25C618.62,-79.43 634.91,-77.3 650.6,-75.24"/>
<polygon fill="midnightblue" stroke="midnightblue" points="651.33,-78.68 660.79,-73.91 650.42,-71.74 651.33,-78.68"/>
</g>
<!-- Node17 -->
<g id="node17" class="node">
<title>Node17</title>
<g id="a_node17"><a xlink:href="platform_8c.html#a9e362db01de0933bdd8b17971a9c3d7a" target="_top" xlink:title=" ">
<polygon fill="none" stroke="black" points="356,-152.5 356,-171.5 472,-171.5 472,-152.5 356,-152.5"/>
<text text-anchor="middle" x="414" y="-159.5" font-family="Helvetica,sans-Serif" font-size="10.00">__am_get_example_uc</text>
</a>
</g>
</g>
<!-- Node16&#45;&gt;Node17 -->
<g id="edge19" class="edge">
<title>Node16&#45;&gt;Node17</title>
<path fill="none" stroke="midnightblue" d="M309.8,-162C320.24,-162 332.83,-162 345.57,-162"/>
<polygon fill="midnightblue" stroke="midnightblue" points="345.79,-165.5 355.79,-162 345.79,-158.5 345.79,-165.5"/>
</g>
</g>
</svg>
