<?xml version="1.0" encoding="UTF-8" standalone="no"?>
<!DOCTYPE svg PUBLIC "-//W3C//DTD SVG 1.1//EN"
 "http://www.w3.org/Graphics/SVG/1.1/DTD/svg11.dtd">
<!-- Generated by graphviz version 2.50.0 (20220203.2022)
 -->
<!-- Title: __am_switch Pages: 1 -->
<svg width="225pt" height="66pt"
 viewBox="0.00 0.00 225.00 66.00" xmlns="http://www.w3.org/2000/svg" xmlns:xlink="http://www.w3.org/1999/xlink">
<g id="graph0" class="graph" transform="scale(1 1) rotate(0) translate(4 62)">
<title>__am_switch</title>
<!-- Node1 -->
<g id="node1" class="node">
<title>Node1</title>
<g id="a_node1"><a xlink:title=" ">
<polygon fill="#bfbfbf" stroke="black" points="0,-19.5 0,-38.5 74,-38.5 74,-19.5 0,-19.5"/>
<text text-anchor="middle" x="37" y="-26.5" font-family="Helvetica,sans-Serif" font-size="10.00">__am_switch</text>
</a>
</g>
</g>
<!-- Node2 -->
<g id="node2" class="node">
<title>Node2</title>
<g id="a_node2"><a xlink:href="platform_8c.html#ad487173c7af5aa14fbb84ab6e2df502d" target="_top" xlink:title=" ">
<polygon fill="none" stroke="black" points="115,-38.5 115,-57.5 212,-57.5 212,-38.5 115,-38.5"/>
<text text-anchor="middle" x="163.5" y="-45.5" font-family="Helvetica,sans-Serif" font-size="10.00">__am_pmem_map</text>
</a>
</g>
</g>
<!-- Node1&#45;&gt;Node2 -->
<g id="edge1" class="edge">
<title>Node1&#45;&gt;Node2</title>
<path fill="none" stroke="midnightblue" d="M74.01,-34.5C83.7,-35.97 94.42,-37.61 104.97,-39.22"/>
<polygon fill="midnightblue" stroke="midnightblue" points="104.57,-42.7 114.98,-40.75 105.62,-35.78 104.57,-42.7"/>
</g>
<!-- Node3 -->
<g id="node3" class="node">
<title>Node3</title>
<g id="a_node3"><a xlink:href="platform_8c.html#a8a63810f218980350b40e5b670693609" target="_top" xlink:title=" ">
<polygon fill="none" stroke="black" points="110,-0.5 110,-19.5 217,-19.5 217,-0.5 110,-0.5"/>
<text text-anchor="middle" x="163.5" y="-7.5" font-family="Helvetica,sans-Serif" font-size="10.00">__am_pmem_unmap</text>
</a>
</g>
</g>
<!-- Node1&#45;&gt;Node3 -->
<g id="edge2" class="edge">
<title>Node1&#45;&gt;Node3</title>
<path fill="none" stroke="midnightblue" d="M74.01,-23.5C82.15,-22.26 91.02,-20.91 99.9,-19.55"/>
<polygon fill="midnightblue" stroke="midnightblue" points="100.54,-23 109.9,-18.03 99.48,-16.08 100.54,-23"/>
</g>
</g>
</svg>
