<?xml version="1.0" encoding="UTF-8" standalone="no"?>
<!DOCTYPE svg PUBLIC "-//W3C//DTD SVG 1.1//EN"
 "http://www.w3.org/Graphics/SVG/1.1/DTD/svg11.dtd">
<!-- Generated by graphviz version 2.50.0 (20220203.2022)
 -->
<!-- Title: iret Pages: 1 -->
<svg width="182pt" height="66pt"
 viewBox="0.00 0.00 182.00 66.00" xmlns="http://www.w3.org/2000/svg" xmlns:xlink="http://www.w3.org/1999/xlink">
<g id="graph0" class="graph" transform="scale(1 1) rotate(0) translate(4 62)">
<title>iret</title>
<!-- Node1 -->
<g id="node1" class="node">
<title>Node1</title>
<g id="a_node1"><a xlink:title=" ">
<polygon fill="#bfbfbf" stroke="black" points="0,-19.5 0,-38.5 30,-38.5 30,-19.5 0,-19.5"/>
<text text-anchor="middle" x="15" y="-26.5" font-family="Helvetica,sans-Serif" font-size="10.00">iret</text>
</a>
</g>
</g>
<!-- Node2 -->
<g id="node2" class="node">
<title>Node2</title>
<g id="a_node2"><a xlink:href="native_2vme_8c.html#a7c08b968266dabfd5c3fc261f5d51750" target="_top" xlink:title=" ">
<polygon fill="none" stroke="black" points="68,-38.5 68,-57.5 172,-57.5 172,-38.5 68,-38.5"/>
<text text-anchor="middle" x="120" y="-45.5" font-family="Helvetica,sans-Serif" font-size="10.00">__am_in_userspace</text>
</a>
</g>
</g>
<!-- Node1&#45;&gt;Node2 -->
<g id="edge1" class="edge">
<title>Node1&#45;&gt;Node2</title>
<path fill="none" stroke="midnightblue" d="M30.32,-31.64C37.78,-33.02 47.46,-34.8 57.68,-36.69"/>
<polygon fill="midnightblue" stroke="midnightblue" points="57.12,-40.14 67.58,-38.52 58.39,-33.26 57.12,-40.14"/>
</g>
<!-- Node3 -->
<g id="node3" class="node">
<title>Node3</title>
<g id="a_node3"><a xlink:href="platform_8c.html#a54f9386958245be4fd8b5983941557c6" target="_top" xlink:title=" ">
<polygon fill="none" stroke="black" points="66,-0.5 66,-19.5 174,-19.5 174,-0.5 66,-0.5"/>
<text text-anchor="middle" x="120" y="-7.5" font-family="Helvetica,sans-Serif" font-size="10.00">__am_pmem_protect</text>
</a>
</g>
</g>
<!-- Node1&#45;&gt;Node3 -->
<g id="edge2" class="edge">
<title>Node1&#45;&gt;Node3</title>
<path fill="none" stroke="midnightblue" d="M30.32,-26.36C37.62,-25.01 47.05,-23.27 57.02,-21.43"/>
<polygon fill="midnightblue" stroke="midnightblue" points="57.92,-24.83 67.12,-19.57 56.65,-17.94 57.92,-24.83"/>
</g>
</g>
</svg>
