<?xml version="1.0" encoding="UTF-8" standalone="no"?>
<!DOCTYPE svg PUBLIC "-//W3C//DTD SVG 1.1//EN"
 "http://www.w3.org/Graphics/SVG/1.1/DTD/svg11.dtd">
<!-- Generated by graphviz version 2.50.0 (20220203.2022)
 -->
<!-- Title: __am_audio_ctrl Pages: 1 -->
<svg width="282pt" height="28pt"
 viewBox="0.00 0.00 282.00 28.00" xmlns="http://www.w3.org/2000/svg" xmlns:xlink="http://www.w3.org/1999/xlink">
<g id="graph0" class="graph" transform="scale(1 1) rotate(0) translate(4 24)">
<title>__am_audio_ctrl</title>
<!-- Node1 -->
<g id="node1" class="node">
<title>Node1</title>
<g id="a_node1"><a xlink:title=" ">
<polygon fill="#bfbfbf" stroke="black" points="0,-0.5 0,-19.5 88,-19.5 88,-0.5 0,-0.5"/>
<text text-anchor="middle" x="44" y="-7.5" font-family="Helvetica,sans-Serif" font-size="10.00">__am_audio_ctrl</text>
</a>
</g>
</g>
<!-- Node2 -->
<g id="node2" class="node">
<title>Node2</title>
<g id="a_node2"><a xlink:href="audio_8c.html#ace9ccc9379f10765ee0c7fc72b26db7f" target="_top" xlink:title=" ">
<polygon fill="none" stroke="black" points="124,-0.5 124,-19.5 186,-19.5 186,-0.5 124,-0.5"/>
<text text-anchor="middle" x="155" y="-7.5" font-family="Helvetica,sans-Serif" font-size="10.00">audio_play</text>
</a>
</g>
</g>
<!-- Node1&#45;&gt;Node2 -->
<g id="edge1" class="edge">
<title>Node1&#45;&gt;Node2</title>
<path fill="none" stroke="midnightblue" d="M88.08,-10C96.53,-10 105.37,-10 113.72,-10"/>
<polygon fill="midnightblue" stroke="midnightblue" points="113.99,-13.5 123.99,-10 113.99,-6.5 113.99,-13.5"/>
</g>
<!-- Node3 -->
<g id="node3" class="node">
<title>Node3</title>
<g id="a_node3"><a xlink:href="string_8c.html#a313175102214d45434bf045db18dddf0" target="_top" xlink:title=" ">
<polygon fill="none" stroke="black" points="222,-0.5 222,-19.5 274,-19.5 274,-0.5 222,-0.5"/>
<text text-anchor="middle" x="248" y="-7.5" font-family="Helvetica,sans-Serif" font-size="10.00">memset</text>
</a>
</g>
</g>
<!-- Node2&#45;&gt;Node3 -->
<g id="edge2" class="edge">
<title>Node2&#45;&gt;Node3</title>
<path fill="none" stroke="midnightblue" d="M186.05,-10C194.29,-10 203.31,-10 211.81,-10"/>
<polygon fill="midnightblue" stroke="midnightblue" points="211.85,-13.5 221.85,-10 211.85,-6.5 211.85,-13.5"/>
</g>
</g>
</svg>
