<?xml version="1.0" encoding="UTF-8" standalone="no"?>
<!DOCTYPE svg PUBLIC "-//W3C//DTD SVG 1.1//EN"
 "http://www.w3.org/Graphics/SVG/1.1/DTD/svg11.dtd">
<!-- Generated by graphviz version 2.50.0 (20220203.2022)
 -->
<!-- Title: sig_handler Pages: 1 -->
<svg width="630pt" height="218pt"
 viewBox="0.00 0.00 630.00 218.00" xmlns="http://www.w3.org/2000/svg" xmlns:xlink="http://www.w3.org/1999/xlink">
<g id="graph0" class="graph" transform="scale(1 1) rotate(0) translate(4 214)">
<title>sig_handler</title>
<!-- Node1 -->
<g id="node1" class="node">
<title>Node1</title>
<g id="a_node1"><a xlink:title=" ">
<polygon fill="#bfbfbf" stroke="black" points="0,-114.5 0,-133.5 66,-133.5 66,-114.5 0,-114.5"/>
<text text-anchor="middle" x="33" y="-121.5" font-family="Helvetica,sans-Serif" font-size="10.00">sig_handler</text>
</a>
</g>
</g>
<!-- Node2 -->
<g id="node2" class="node">
<title>Node2</title>
<g id="a_node2"><a xlink:href="native_2vme_8c.html#a7c08b968266dabfd5c3fc261f5d51750" target="_top" xlink:title=" ">
<polygon fill="none" stroke="black" points="216,-152.5 216,-171.5 320,-171.5 320,-152.5 216,-152.5"/>
<text text-anchor="middle" x="268" y="-159.5" font-family="Helvetica,sans-Serif" font-size="10.00">__am_in_userspace</text>
</a>
</g>
</g>
<!-- Node1&#45;&gt;Node2 -->
<g id="edge1" class="edge">
<title>Node1&#45;&gt;Node2</title>
<path fill="none" stroke="midnightblue" d="M66.4,-129.28C102.32,-135.14 161.08,-144.73 205.75,-152.01"/>
<polygon fill="midnightblue" stroke="midnightblue" points="205.19,-155.47 215.62,-153.62 206.32,-148.56 205.19,-155.47"/>
</g>
<!-- Node3 -->
<g id="node3" class="node">
<title>Node3</title>
<g id="a_node3"><a xlink:href="native_2cte_8c.html#aa76bab517f9c7ba14287162896f6dbbb" target="_top" xlink:title=" ">
<polygon fill="none" stroke="black" points="122,-171.5 122,-190.5 152,-190.5 152,-171.5 122,-171.5"/>
<text text-anchor="middle" x="137" y="-178.5" font-family="Helvetica,sans-Serif" font-size="10.00">iret</text>
</a>
</g>
</g>
<!-- Node1&#45;&gt;Node3 -->
<g id="edge2" class="edge">
<title>Node1&#45;&gt;Node3</title>
<path fill="none" stroke="midnightblue" d="M51.3,-133.67C68.32,-143.18 94.4,-157.75 113.12,-168.22"/>
<polygon fill="midnightblue" stroke="midnightblue" points="111.47,-171.3 121.9,-173.12 114.88,-165.19 111.47,-171.3"/>
</g>
<!-- Node5 -->
<g id="node5" class="node">
<title>Node5</title>
<g id="a_node5"><a xlink:href="native_2cte_8c.html#a3f025af92181d8eee1f3aedb2ab8314a" target="_top" xlink:title=" ">
<polygon fill="none" stroke="black" points="102,-95.5 102,-114.5 172,-114.5 172,-95.5 102,-95.5"/>
<text text-anchor="middle" x="137" y="-102.5" font-family="Helvetica,sans-Serif" font-size="10.00">setup_stack</text>
</a>
</g>
</g>
<!-- Node1&#45;&gt;Node5 -->
<g id="edge5" class="edge">
<title>Node1&#45;&gt;Node5</title>
<path fill="none" stroke="midnightblue" d="M66.27,-117.99C74.41,-116.47 83.29,-114.82 91.9,-113.21"/>
<polygon fill="midnightblue" stroke="midnightblue" points="92.63,-116.64 101.82,-111.37 91.35,-109.76 92.63,-116.64"/>
</g>
<!-- Node14 -->
<g id="node14" class="node">
<title>Node14</title>
<g id="a_node14"><a xlink:href="x86_2qemu_2vme_8c.html#a8e53eed544a985d22d8c1df4c4d7df2c" target="_top" xlink:title=" ">
<polygon fill="none" stroke="black" points="110.5,-38.5 110.5,-57.5 163.5,-57.5 163.5,-38.5 110.5,-38.5"/>
<text text-anchor="middle" x="137" y="-45.5" font-family="Helvetica,sans-Serif" font-size="10.00">ucontext</text>
</a>
</g>
</g>
<!-- Node1&#45;&gt;Node14 -->
<g id="edge15" class="edge">
<title>Node1&#45;&gt;Node14</title>
<path fill="none" stroke="midnightblue" d="M46.92,-114.37C64.09,-101.58 94.63,-78.83 115.1,-63.57"/>
<polygon fill="midnightblue" stroke="midnightblue" points="117.26,-66.33 123.19,-57.55 113.08,-60.72 117.26,-66.33"/>
</g>
<!-- Node3&#45;&gt;Node2 -->
<g id="edge3" class="edge">
<title>Node3&#45;&gt;Node2</title>
<path fill="none" stroke="midnightblue" d="M152.3,-178.89C165.43,-176.96 185.83,-173.96 205.8,-171.01"/>
<polygon fill="midnightblue" stroke="midnightblue" points="206.47,-174.45 215.85,-169.53 205.45,-167.53 206.47,-174.45"/>
</g>
<!-- Node4 -->
<g id="node4" class="node">
<title>Node4</title>
<g id="a_node4"><a xlink:href="platform_8c.html#a54f9386958245be4fd8b5983941557c6" target="_top" xlink:title=" ">
<polygon fill="none" stroke="black" points="214,-190.5 214,-209.5 322,-209.5 322,-190.5 214,-190.5"/>
<text text-anchor="middle" x="268" y="-197.5" font-family="Helvetica,sans-Serif" font-size="10.00">__am_pmem_protect</text>
</a>
</g>
</g>
<!-- Node3&#45;&gt;Node4 -->
<g id="edge4" class="edge">
<title>Node3&#45;&gt;Node4</title>
<path fill="none" stroke="midnightblue" d="M152.3,-183.11C164.98,-184.97 184.43,-187.84 203.74,-190.68"/>
<polygon fill="midnightblue" stroke="midnightblue" points="203.38,-194.17 213.79,-192.16 204.4,-187.24 203.38,-194.17"/>
</g>
<!-- Node5&#45;&gt;Node2 -->
<g id="edge7" class="edge">
<title>Node5&#45;&gt;Node2</title>
<path fill="none" stroke="midnightblue" d="M153.7,-114.62C167.62,-122.88 188.68,-134.73 208,-143 213.07,-145.17 218.47,-147.23 223.88,-149.14"/>
<polygon fill="midnightblue" stroke="midnightblue" points="222.93,-152.52 233.53,-152.41 225.18,-145.89 222.93,-152.52"/>
</g>
<!-- Node6 -->
<g id="node6" class="node">
<title>Node6</title>
<g id="a_node6"><a xlink:href="platform_8c.html#aa960047c9f8917e11dc07fa990d754f8" target="_top" xlink:title=" ">
<polygon fill="none" stroke="black" points="208,-114.5 208,-133.5 328,-133.5 328,-114.5 208,-114.5"/>
<text text-anchor="middle" x="268" y="-121.5" font-family="Helvetica,sans-Serif" font-size="10.00">__am_get_intr_sigmask</text>
</a>
</g>
</g>
<!-- Node5&#45;&gt;Node6 -->
<g id="edge6" class="edge">
<title>Node5&#45;&gt;Node6</title>
<path fill="none" stroke="midnightblue" d="M172.23,-110.04C180.15,-111.21 188.85,-112.49 197.68,-113.79"/>
<polygon fill="midnightblue" stroke="midnightblue" points="197.26,-117.27 207.66,-115.26 198.28,-110.34 197.26,-117.27"/>
</g>
<!-- Node7 -->
<g id="node7" class="node">
<title>Node7</title>
<g id="a_node7"><a xlink:href="platform_8c.html#a16055cdb3fd495fa548a7e15bc6a5fd6" target="_top" xlink:title=" ">
<polygon fill="none" stroke="black" points="208.5,-76.5 208.5,-95.5 327.5,-95.5 327.5,-76.5 208.5,-76.5"/>
<text text-anchor="middle" x="268" y="-83.5" font-family="Helvetica,sans-Serif" font-size="10.00">__am_pmem_unprotect</text>
</a>
</g>
</g>
<!-- Node5&#45;&gt;Node7 -->
<g id="edge8" class="edge">
<title>Node5&#45;&gt;Node7</title>
<path fill="none" stroke="midnightblue" d="M172.23,-99.96C180.26,-98.78 189.09,-97.47 198.04,-96.16"/>
<polygon fill="midnightblue" stroke="midnightblue" points="198.78,-99.59 208.16,-94.67 197.76,-92.66 198.78,-99.59"/>
</g>
<!-- Node8 -->
<g id="node8" class="node">
<title>Node8</title>
<g id="a_node8"><a xlink:href="native_2cte_8c.html#a9c8dd258011eaecff60c4a7e53717e53" target="_top" xlink:title=" ">
<polygon fill="none" stroke="black" points="237.5,-38.5 237.5,-57.5 298.5,-57.5 298.5,-38.5 237.5,-38.5"/>
<text text-anchor="middle" x="268" y="-45.5" font-family="Helvetica,sans-Serif" font-size="10.00">irq_handle</text>
</a>
</g>
</g>
<!-- Node5&#45;&gt;Node8 -->
<g id="edge9" class="edge">
<title>Node5&#45;&gt;Node8</title>
<path fill="none" stroke="midnightblue" d="M153.7,-95.38C167.62,-87.12 188.68,-75.27 208,-67 214.31,-64.3 221.15,-61.76 227.85,-59.48"/>
<polygon fill="midnightblue" stroke="midnightblue" points="229.08,-62.76 237.5,-56.32 226.9,-56.1 229.08,-62.76"/>
</g>
<!-- Node9 -->
<g id="node9" class="node">
<title>Node9</title>
<g id="a_node9"><a xlink:href="native_2cte_8c.html#af03a5d8431ed9f14db12fb73dd89e32a" target="_top" xlink:title=" ">
<polygon fill="none" stroke="black" points="364,-76.5 364,-95.5 479,-95.5 479,-76.5 364,-76.5"/>
<text text-anchor="middle" x="421.5" y="-83.5" font-family="Helvetica,sans-Serif" font-size="10.00">__am_panic_on_return</text>
</a>
</g>
</g>
<!-- Node8&#45;&gt;Node9 -->
<g id="edge10" class="edge">
<title>Node8&#45;&gt;Node9</title>
<path fill="none" stroke="midnightblue" d="M298.57,-55.42C319.61,-60.69 348.34,-67.9 372.62,-73.99"/>
<polygon fill="midnightblue" stroke="midnightblue" points="371.82,-77.4 382.38,-76.44 373.53,-70.61 371.82,-77.4"/>
</g>
<!-- Node10 -->
<g id="node10" class="node">
<title>Node10</title>
<g id="a_node10"><a xlink:href="native_2vme_8c.html#a83098472fe0a6fda68a29d21636251a6" target="_top" xlink:title=" ">
<polygon fill="none" stroke="black" points="384.5,-38.5 384.5,-57.5 458.5,-57.5 458.5,-38.5 384.5,-38.5"/>
<text text-anchor="middle" x="421.5" y="-45.5" font-family="Helvetica,sans-Serif" font-size="10.00">__am_switch</text>
</a>
</g>
</g>
<!-- Node8&#45;&gt;Node10 -->
<g id="edge11" class="edge">
<title>Node8&#45;&gt;Node10</title>
<path fill="none" stroke="midnightblue" d="M298.57,-48C320.04,-48 349.53,-48 374.12,-48"/>
<polygon fill="midnightblue" stroke="midnightblue" points="374.32,-51.5 384.32,-48 374.32,-44.5 374.32,-51.5"/>
</g>
<!-- Node13 -->
<g id="node13" class="node">
<title>Node13</title>
<g id="a_node13"><a xlink:href="stdio_8c.html#a55f3d956bb2ba20b5059e9e25484a47f" target="_top" xlink:title=" ">
<polygon fill="none" stroke="black" points="402.5,-0.5 402.5,-19.5 440.5,-19.5 440.5,-0.5 402.5,-0.5"/>
<text text-anchor="middle" x="421.5" y="-7.5" font-family="Helvetica,sans-Serif" font-size="10.00">printf</text>
</a>
</g>
</g>
<!-- Node8&#45;&gt;Node13 -->
<g id="edge14" class="edge">
<title>Node8&#45;&gt;Node13</title>
<path fill="none" stroke="midnightblue" d="M298.57,-40.58C325.79,-33.76 365.86,-23.7 392.55,-17.01"/>
<polygon fill="midnightblue" stroke="midnightblue" points="393.56,-20.37 402.41,-14.54 391.86,-13.58 393.56,-20.37"/>
</g>
<!-- Node11 -->
<g id="node11" class="node">
<title>Node11</title>
<g id="a_node11"><a xlink:href="platform_8c.html#ad487173c7af5aa14fbb84ab6e2df502d" target="_top" xlink:title=" ">
<polygon fill="none" stroke="black" points="520,-57.5 520,-76.5 617,-76.5 617,-57.5 520,-57.5"/>
<text text-anchor="middle" x="568.5" y="-64.5" font-family="Helvetica,sans-Serif" font-size="10.00">__am_pmem_map</text>
</a>
</g>
</g>
<!-- Node10&#45;&gt;Node11 -->
<g id="edge12" class="edge">
<title>Node10&#45;&gt;Node11</title>
<path fill="none" stroke="midnightblue" d="M458.72,-52.75C474.21,-54.78 492.69,-57.2 509.98,-59.46"/>
<polygon fill="midnightblue" stroke="midnightblue" points="509.62,-62.95 519.99,-60.77 510.53,-56 509.62,-62.95"/>
</g>
<!-- Node12 -->
<g id="node12" class="node">
<title>Node12</title>
<g id="a_node12"><a xlink:href="platform_8c.html#a8a63810f218980350b40e5b670693609" target="_top" xlink:title=" ">
<polygon fill="none" stroke="black" points="515,-19.5 515,-38.5 622,-38.5 622,-19.5 515,-19.5"/>
<text text-anchor="middle" x="568.5" y="-26.5" font-family="Helvetica,sans-Serif" font-size="10.00">__am_pmem_unmap</text>
</a>
</g>
</g>
<!-- Node10&#45;&gt;Node12 -->
<g id="edge13" class="edge">
<title>Node10&#45;&gt;Node12</title>
<path fill="none" stroke="midnightblue" d="M458.72,-43.25C472.62,-41.43 488.91,-39.3 504.6,-37.24"/>
<polygon fill="midnightblue" stroke="midnightblue" points="505.33,-40.68 514.79,-35.91 504.42,-33.74 505.33,-40.68"/>
</g>
<!-- Node15 -->
<g id="node15" class="node">
<title>Node15</title>
<g id="a_node15"><a xlink:href="platform_8c.html#a9e362db01de0933bdd8b17971a9c3d7a" target="_top" xlink:title=" ">
<polygon fill="none" stroke="black" points="210,-0.5 210,-19.5 326,-19.5 326,-0.5 210,-0.5"/>
<text text-anchor="middle" x="268" y="-7.5" font-family="Helvetica,sans-Serif" font-size="10.00">__am_get_example_uc</text>
</a>
</g>
</g>
<!-- Node14&#45;&gt;Node15 -->
<g id="edge16" class="edge">
<title>Node14&#45;&gt;Node15</title>
<path fill="none" stroke="midnightblue" d="M163.8,-40.4C181.16,-35.29 204.45,-28.43 224.52,-22.51"/>
<polygon fill="midnightblue" stroke="midnightblue" points="225.76,-25.8 234.37,-19.61 223.79,-19.08 225.76,-25.8"/>
</g>
</g>
</svg>
