<?xml version="1.0" encoding="UTF-8" standalone="no"?>
<!DOCTYPE svg PUBLIC "-//W3C//DTD SVG 1.1//EN"
 "http://www.w3.org/Graphics/SVG/1.1/DTD/svg11.dtd">
<!-- Generated by graphviz version 2.50.0 (20220203.2022)
 -->
<!-- Title: irq_handle Pages: 1 -->
<svg width="363pt" height="104pt"
 viewBox="0.00 0.00 363.00 104.00" xmlns="http://www.w3.org/2000/svg" xmlns:xlink="http://www.w3.org/1999/xlink">
<g id="graph0" class="graph" transform="scale(1 1) rotate(0) translate(4 100)">
<title>irq_handle</title>
<!-- Node1 -->
<g id="node1" class="node">
<title>Node1</title>
<g id="a_node1"><a xlink:title=" ">
<polygon fill="#bfbfbf" stroke="black" points="0,-38.5 0,-57.5 61,-57.5 61,-38.5 0,-38.5"/>
<text text-anchor="middle" x="30.5" y="-45.5" font-family="Helvetica,sans-Serif" font-size="10.00">irq_handle</text>
</a>
</g>
</g>
<!-- Node2 -->
<g id="node2" class="node">
<title>Node2</title>
<g id="a_node2"><a xlink:href="native_2cte_8c.html#af03a5d8431ed9f14db12fb73dd89e32a" target="_top" xlink:title=" ">
<polygon fill="none" stroke="black" points="97,-76.5 97,-95.5 212,-95.5 212,-76.5 97,-76.5"/>
<text text-anchor="middle" x="154.5" y="-83.5" font-family="Helvetica,sans-Serif" font-size="10.00">__am_panic_on_return</text>
</a>
</g>
</g>
<!-- Node1&#45;&gt;Node2 -->
<g id="edge1" class="edge">
<title>Node1&#45;&gt;Node2</title>
<path fill="none" stroke="midnightblue" d="M61.03,-57.2C76.71,-62.08 96.21,-68.16 113.26,-73.47"/>
<polygon fill="midnightblue" stroke="midnightblue" points="112.38,-76.86 122.97,-76.49 114.46,-70.17 112.38,-76.86"/>
</g>
<!-- Node3 -->
<g id="node3" class="node">
<title>Node3</title>
<g id="a_node3"><a xlink:href="native_2vme_8c.html#a83098472fe0a6fda68a29d21636251a6" target="_top" xlink:title=" ">
<polygon fill="none" stroke="black" points="117.5,-38.5 117.5,-57.5 191.5,-57.5 191.5,-38.5 117.5,-38.5"/>
<text text-anchor="middle" x="154.5" y="-45.5" font-family="Helvetica,sans-Serif" font-size="10.00">__am_switch</text>
</a>
</g>
</g>
<!-- Node1&#45;&gt;Node3 -->
<g id="edge2" class="edge">
<title>Node1&#45;&gt;Node3</title>
<path fill="none" stroke="midnightblue" d="M61.03,-48C74.78,-48 91.47,-48 106.87,-48"/>
<polygon fill="midnightblue" stroke="midnightblue" points="107.27,-51.5 117.27,-48 107.27,-44.5 107.27,-51.5"/>
</g>
<!-- Node6 -->
<g id="node6" class="node">
<title>Node6</title>
<g id="a_node6"><a xlink:href="stdio_8c.html#a55f3d956bb2ba20b5059e9e25484a47f" target="_top" xlink:title=" ">
<polygon fill="none" stroke="black" points="135.5,-0.5 135.5,-19.5 173.5,-19.5 173.5,-0.5 135.5,-0.5"/>
<text text-anchor="middle" x="154.5" y="-7.5" font-family="Helvetica,sans-Serif" font-size="10.00">printf</text>
</a>
</g>
</g>
<!-- Node1&#45;&gt;Node6 -->
<g id="edge5" class="edge">
<title>Node1&#45;&gt;Node6</title>
<path fill="none" stroke="midnightblue" d="M61.03,-38.8C80.64,-32.69 106.22,-24.73 125.5,-18.72"/>
<polygon fill="midnightblue" stroke="midnightblue" points="126.71,-22.01 135.22,-15.69 124.63,-15.33 126.71,-22.01"/>
</g>
<!-- Node4 -->
<g id="node4" class="node">
<title>Node4</title>
<g id="a_node4"><a xlink:href="platform_8c.html#ad487173c7af5aa14fbb84ab6e2df502d" target="_top" xlink:title=" ">
<polygon fill="none" stroke="black" points="253,-57.5 253,-76.5 350,-76.5 350,-57.5 253,-57.5"/>
<text text-anchor="middle" x="301.5" y="-64.5" font-family="Helvetica,sans-Serif" font-size="10.00">__am_pmem_map</text>
</a>
</g>
</g>
<!-- Node3&#45;&gt;Node4 -->
<g id="edge3" class="edge">
<title>Node3&#45;&gt;Node4</title>
<path fill="none" stroke="midnightblue" d="M191.72,-52.75C207.21,-54.78 225.69,-57.2 242.98,-59.46"/>
<polygon fill="midnightblue" stroke="midnightblue" points="242.62,-62.95 252.99,-60.77 243.53,-56 242.62,-62.95"/>
</g>
<!-- Node5 -->
<g id="node5" class="node">
<title>Node5</title>
<g id="a_node5"><a xlink:href="platform_8c.html#a8a63810f218980350b40e5b670693609" target="_top" xlink:title=" ">
<polygon fill="none" stroke="black" points="248,-19.5 248,-38.5 355,-38.5 355,-19.5 248,-19.5"/>
<text text-anchor="middle" x="301.5" y="-26.5" font-family="Helvetica,sans-Serif" font-size="10.00">__am_pmem_unmap</text>
</a>
</g>
</g>
<!-- Node3&#45;&gt;Node5 -->
<g id="edge4" class="edge">
<title>Node3&#45;&gt;Node5</title>
<path fill="none" stroke="midnightblue" d="M191.72,-43.25C205.62,-41.43 221.91,-39.3 237.6,-37.24"/>
<polygon fill="midnightblue" stroke="midnightblue" points="238.33,-40.68 247.79,-35.91 237.42,-33.74 238.33,-40.68"/>
</g>
</g>
</svg>
