<?xml version="1.0" encoding="UTF-8" standalone="no"?>
<!DOCTYPE svg PUBLIC "-//W3C//DTD SVG 1.1//EN"
 "http://www.w3.org/Graphics/SVG/1.1/DTD/svg11.dtd">
<!-- Generated by graphviz version 2.50.0 (20220203.2022)
 -->
<!-- Title: setup_stack Pages: 1 -->
<svg width="528pt" height="180pt"
 viewBox="0.00 0.00 528.00 180.00" xmlns="http://www.w3.org/2000/svg" xmlns:xlink="http://www.w3.org/1999/xlink">
<g id="graph0" class="graph" transform="scale(1 1) rotate(0) translate(4 176)">
<title>setup_stack</title>
<!-- Node1 -->
<g id="node1" class="node">
<title>Node1</title>
<g id="a_node1"><a xlink:title=" ">
<polygon fill="#bfbfbf" stroke="black" points="0,-95.5 0,-114.5 70,-114.5 70,-95.5 0,-95.5"/>
<text text-anchor="middle" x="35" y="-102.5" font-family="Helvetica,sans-Serif" font-size="10.00">setup_stack</text>
</a>
</g>
</g>
<!-- Node2 -->
<g id="node2" class="node">
<title>Node2</title>
<g id="a_node2"><a xlink:href="platform_8c.html#aa960047c9f8917e11dc07fa990d754f8" target="_top" xlink:title=" ">
<polygon fill="none" stroke="black" points="106,-152.5 106,-171.5 226,-171.5 226,-152.5 106,-152.5"/>
<text text-anchor="middle" x="166" y="-159.5" font-family="Helvetica,sans-Serif" font-size="10.00">__am_get_intr_sigmask</text>
</a>
</g>
</g>
<!-- Node1&#45;&gt;Node2 -->
<g id="edge1" class="edge">
<title>Node1&#45;&gt;Node2</title>
<path fill="none" stroke="midnightblue" d="M51.7,-114.62C65.62,-122.88 86.68,-134.73 106,-143 111.07,-145.17 116.47,-147.23 121.88,-149.14"/>
<polygon fill="midnightblue" stroke="midnightblue" points="120.93,-152.52 131.53,-152.41 123.18,-145.89 120.93,-152.52"/>
</g>
<!-- Node3 -->
<g id="node3" class="node">
<title>Node3</title>
<g id="a_node3"><a xlink:href="native_2vme_8c.html#a7c08b968266dabfd5c3fc261f5d51750" target="_top" xlink:title=" ">
<polygon fill="none" stroke="black" points="114,-114.5 114,-133.5 218,-133.5 218,-114.5 114,-114.5"/>
<text text-anchor="middle" x="166" y="-121.5" font-family="Helvetica,sans-Serif" font-size="10.00">__am_in_userspace</text>
</a>
</g>
</g>
<!-- Node1&#45;&gt;Node3 -->
<g id="edge2" class="edge">
<title>Node1&#45;&gt;Node3</title>
<path fill="none" stroke="midnightblue" d="M70.23,-110.04C80.51,-111.56 92.11,-113.26 103.58,-114.95"/>
<polygon fill="midnightblue" stroke="midnightblue" points="103.19,-118.43 113.59,-116.43 104.21,-111.51 103.19,-118.43"/>
</g>
<!-- Node4 -->
<g id="node4" class="node">
<title>Node4</title>
<g id="a_node4"><a xlink:href="platform_8c.html#a16055cdb3fd495fa548a7e15bc6a5fd6" target="_top" xlink:title=" ">
<polygon fill="none" stroke="black" points="106.5,-76.5 106.5,-95.5 225.5,-95.5 225.5,-76.5 106.5,-76.5"/>
<text text-anchor="middle" x="166" y="-83.5" font-family="Helvetica,sans-Serif" font-size="10.00">__am_pmem_unprotect</text>
</a>
</g>
</g>
<!-- Node1&#45;&gt;Node4 -->
<g id="edge3" class="edge">
<title>Node1&#45;&gt;Node4</title>
<path fill="none" stroke="midnightblue" d="M70.23,-99.96C78.26,-98.78 87.09,-97.47 96.04,-96.16"/>
<polygon fill="midnightblue" stroke="midnightblue" points="96.78,-99.59 106.16,-94.67 95.76,-92.66 96.78,-99.59"/>
</g>
<!-- Node5 -->
<g id="node5" class="node">
<title>Node5</title>
<g id="a_node5"><a xlink:href="native_2cte_8c.html#a9c8dd258011eaecff60c4a7e53717e53" target="_top" xlink:title=" ">
<polygon fill="none" stroke="black" points="135.5,-38.5 135.5,-57.5 196.5,-57.5 196.5,-38.5 135.5,-38.5"/>
<text text-anchor="middle" x="166" y="-45.5" font-family="Helvetica,sans-Serif" font-size="10.00">irq_handle</text>
</a>
</g>
</g>
<!-- Node1&#45;&gt;Node5 -->
<g id="edge4" class="edge">
<title>Node1&#45;&gt;Node5</title>
<path fill="none" stroke="midnightblue" d="M51.7,-95.38C65.62,-87.12 86.68,-75.27 106,-67 112.31,-64.3 119.15,-61.76 125.85,-59.48"/>
<polygon fill="midnightblue" stroke="midnightblue" points="127.08,-62.76 135.5,-56.32 124.9,-56.1 127.08,-62.76"/>
</g>
<!-- Node6 -->
<g id="node6" class="node">
<title>Node6</title>
<g id="a_node6"><a xlink:href="native_2cte_8c.html#af03a5d8431ed9f14db12fb73dd89e32a" target="_top" xlink:title=" ">
<polygon fill="none" stroke="black" points="262,-76.5 262,-95.5 377,-95.5 377,-76.5 262,-76.5"/>
<text text-anchor="middle" x="319.5" y="-83.5" font-family="Helvetica,sans-Serif" font-size="10.00">__am_panic_on_return</text>
</a>
</g>
</g>
<!-- Node5&#45;&gt;Node6 -->
<g id="edge5" class="edge">
<title>Node5&#45;&gt;Node6</title>
<path fill="none" stroke="midnightblue" d="M196.57,-55.42C217.61,-60.69 246.34,-67.9 270.62,-73.99"/>
<polygon fill="midnightblue" stroke="midnightblue" points="269.82,-77.4 280.38,-76.44 271.53,-70.61 269.82,-77.4"/>
</g>
<!-- Node7 -->
<g id="node7" class="node">
<title>Node7</title>
<g id="a_node7"><a xlink:href="native_2vme_8c.html#a83098472fe0a6fda68a29d21636251a6" target="_top" xlink:title=" ">
<polygon fill="none" stroke="black" points="282.5,-38.5 282.5,-57.5 356.5,-57.5 356.5,-38.5 282.5,-38.5"/>
<text text-anchor="middle" x="319.5" y="-45.5" font-family="Helvetica,sans-Serif" font-size="10.00">__am_switch</text>
</a>
</g>
</g>
<!-- Node5&#45;&gt;Node7 -->
<g id="edge6" class="edge">
<title>Node5&#45;&gt;Node7</title>
<path fill="none" stroke="midnightblue" d="M196.57,-48C218.04,-48 247.53,-48 272.12,-48"/>
<polygon fill="midnightblue" stroke="midnightblue" points="272.32,-51.5 282.32,-48 272.32,-44.5 272.32,-51.5"/>
</g>
<!-- Node10 -->
<g id="node10" class="node">
<title>Node10</title>
<g id="a_node10"><a xlink:href="stdio_8c.html#a55f3d956bb2ba20b5059e9e25484a47f" target="_top" xlink:title=" ">
<polygon fill="none" stroke="black" points="300.5,-0.5 300.5,-19.5 338.5,-19.5 338.5,-0.5 300.5,-0.5"/>
<text text-anchor="middle" x="319.5" y="-7.5" font-family="Helvetica,sans-Serif" font-size="10.00">printf</text>
</a>
</g>
</g>
<!-- Node5&#45;&gt;Node10 -->
<g id="edge9" class="edge">
<title>Node5&#45;&gt;Node10</title>
<path fill="none" stroke="midnightblue" d="M196.57,-40.58C223.79,-33.76 263.86,-23.7 290.55,-17.01"/>
<polygon fill="midnightblue" stroke="midnightblue" points="291.56,-20.37 300.41,-14.54 289.86,-13.58 291.56,-20.37"/>
</g>
<!-- Node8 -->
<g id="node8" class="node">
<title>Node8</title>
<g id="a_node8"><a xlink:href="platform_8c.html#ad487173c7af5aa14fbb84ab6e2df502d" target="_top" xlink:title=" ">
<polygon fill="none" stroke="black" points="418,-57.5 418,-76.5 515,-76.5 515,-57.5 418,-57.5"/>
<text text-anchor="middle" x="466.5" y="-64.5" font-family="Helvetica,sans-Serif" font-size="10.00">__am_pmem_map</text>
</a>
</g>
</g>
<!-- Node7&#45;&gt;Node8 -->
<g id="edge7" class="edge">
<title>Node7&#45;&gt;Node8</title>
<path fill="none" stroke="midnightblue" d="M356.72,-52.75C372.21,-54.78 390.69,-57.2 407.98,-59.46"/>
<polygon fill="midnightblue" stroke="midnightblue" points="407.62,-62.95 417.99,-60.77 408.53,-56 407.62,-62.95"/>
</g>
<!-- Node9 -->
<g id="node9" class="node">
<title>Node9</title>
<g id="a_node9"><a xlink:href="platform_8c.html#a8a63810f218980350b40e5b670693609" target="_top" xlink:title=" ">
<polygon fill="none" stroke="black" points="413,-19.5 413,-38.5 520,-38.5 520,-19.5 413,-19.5"/>
<text text-anchor="middle" x="466.5" y="-26.5" font-family="Helvetica,sans-Serif" font-size="10.00">__am_pmem_unmap</text>
</a>
</g>
</g>
<!-- Node7&#45;&gt;Node9 -->
<g id="edge8" class="edge">
<title>Node7&#45;&gt;Node9</title>
<path fill="none" stroke="midnightblue" d="M356.72,-43.25C370.62,-41.43 386.91,-39.3 402.6,-37.24"/>
<polygon fill="midnightblue" stroke="midnightblue" points="403.33,-40.68 412.79,-35.91 402.42,-33.74 403.33,-40.68"/>
</g>
</g>
</svg>
