<?xml version="1.0" encoding="UTF-8" standalone="no"?>
<!DOCTYPE svg PUBLIC "-//W3C//DTD SVG 1.1//EN"
 "http://www.w3.org/Graphics/SVG/1.1/DTD/svg11.dtd">
<!-- Generated by graphviz version 2.50.0 (20220203.2022)
 -->
<!-- Title: irq_handle Pages: 1 -->
<svg width="507pt" height="28pt"
 viewBox="0.00 0.00 507.00 28.00" xmlns="http://www.w3.org/2000/svg" xmlns:xlink="http://www.w3.org/1999/xlink">
<g id="graph0" class="graph" transform="scale(1 1) rotate(0) translate(4 24)">
<title>irq_handle</title>
<!-- Node1 -->
<g id="node1" class="node">
<title>Node1</title>
<g id="a_node1"><a xlink:title=" ">
<polygon fill="#bfbfbf" stroke="black" points="438,-0.5 438,-19.5 499,-19.5 499,-0.5 438,-0.5"/>
<text text-anchor="middle" x="468.5" y="-7.5" font-family="Helvetica,sans-Serif" font-size="10.00">irq_handle</text>
</a>
</g>
</g>
<!-- Node2 -->
<g id="node2" class="node">
<title>Node2</title>
<g id="a_node2"><a xlink:href="native_2cte_8c.html#a3f025af92181d8eee1f3aedb2ab8314a" target="_top" xlink:title=" ">
<polygon fill="none" stroke="black" points="332,-0.5 332,-19.5 402,-19.5 402,-0.5 332,-0.5"/>
<text text-anchor="middle" x="367" y="-7.5" font-family="Helvetica,sans-Serif" font-size="10.00">setup_stack</text>
</a>
</g>
</g>
<!-- Node1&#45;&gt;Node2 -->
<g id="edge1" class="edge">
<title>Node1&#45;&gt;Node2</title>
<path fill="none" stroke="midnightblue" d="M427.84,-10C419.35,-10 410.45,-10 402.19,-10"/>
<polygon fill="midnightblue" stroke="midnightblue" points="427.92,-13.5 437.92,-10 427.92,-6.5 427.92,-13.5"/>
</g>
<!-- Node3 -->
<g id="node3" class="node">
<title>Node3</title>
<g id="a_node3"><a xlink:href="native_2cte_8c.html#a15554d17d092b4dd626a77142f89ae02" target="_top" xlink:title=" ">
<polygon fill="none" stroke="black" points="230,-0.5 230,-19.5 296,-19.5 296,-0.5 230,-0.5"/>
<text text-anchor="middle" x="263" y="-7.5" font-family="Helvetica,sans-Serif" font-size="10.00">sig_handler</text>
</a>
</g>
</g>
<!-- Node2&#45;&gt;Node3 -->
<g id="edge2" class="edge">
<title>Node2&#45;&gt;Node3</title>
<path fill="none" stroke="midnightblue" d="M321.56,-10C313.05,-10 304.3,-10 296.26,-10"/>
<polygon fill="midnightblue" stroke="midnightblue" points="321.75,-13.5 331.75,-10 321.75,-6.5 321.75,-13.5"/>
</g>
<!-- Node4 -->
<g id="node4" class="node">
<title>Node4</title>
<g id="a_node4"><a xlink:href="native_2cte_8c.html#a86b2b6fbda4e793f71ac4b12b85a9d74" target="_top" xlink:title=" ">
<polygon fill="none" stroke="black" points="84,-0.5 84,-19.5 194,-19.5 194,-0.5 84,-0.5"/>
<text text-anchor="middle" x="139" y="-7.5" font-family="Helvetica,sans-Serif" font-size="10.00">install_signal_handler</text>
</a>
</g>
</g>
<!-- Node3&#45;&gt;Node4 -->
<g id="edge3" class="edge">
<title>Node3&#45;&gt;Node4</title>
<path fill="none" stroke="midnightblue" d="M219.76,-10C211.45,-10 202.64,-10 194.01,-10"/>
<polygon fill="midnightblue" stroke="midnightblue" points="219.95,-13.5 229.95,-10 219.95,-6.5 219.95,-13.5"/>
</g>
<!-- Node5 -->
<g id="node5" class="node">
<title>Node5</title>
<g id="a_node5"><a xlink:href="native_2cte_8c.html#a14d86719abbc247f8a0dd5eb2662ea88" target="_top" xlink:title=" ">
<polygon fill="none" stroke="black" points="0,-0.5 0,-19.5 48,-19.5 48,-0.5 0,-0.5"/>
<text text-anchor="middle" x="24" y="-7.5" font-family="Helvetica,sans-Serif" font-size="10.00">cte_init</text>
</a>
</g>
</g>
<!-- Node4&#45;&gt;Node5 -->
<g id="edge4" class="edge">
<title>Node4&#45;&gt;Node5</title>
<path fill="none" stroke="midnightblue" d="M73.81,-10C64.65,-10 55.76,-10 48.13,-10"/>
<polygon fill="midnightblue" stroke="midnightblue" points="73.82,-13.5 83.82,-10 73.82,-6.5 73.82,-13.5"/>
</g>
</g>
</svg>
