<?xml version="1.0" encoding="UTF-8" standalone="no"?>
<!DOCTYPE svg PUBLIC "-//W3C//DTD SVG 1.1//EN"
 "http://www.w3.org/Graphics/SVG/1.1/DTD/svg11.dtd">
<!-- Generated by graphviz version 2.50.0 (20220203.2022)
 -->
<!-- Title: do_io Pages: 1 -->
<svg width="901pt" height="313pt"
 viewBox="0.00 0.00 901.00 313.00" xmlns="http://www.w3.org/2000/svg" xmlns:xlink="http://www.w3.org/1999/xlink">
<g id="graph0" class="graph" transform="scale(1 1) rotate(0) translate(4 309)">
<title>do_io</title>
<!-- Node1 -->
<g id="node1" class="node">
<title>Node1</title>
<g id="a_node1"><a xlink:title=" ">
<polygon fill="#bfbfbf" stroke="black" points="0,-171.5 0,-190.5 40,-190.5 40,-171.5 0,-171.5"/>
<text text-anchor="middle" x="20" y="-178.5" font-family="Helvetica,sans-Serif" font-size="10.00">do_io</text>
</a>
</g>
</g>
<!-- Node2 -->
<g id="node2" class="node">
<title>Node2</title>
<g id="a_node2"><a xlink:href="native_2ioe_8c.html#a85e8849eae1811aa4fa0527476f39782" target="_top" xlink:title=" ">
<polygon fill="none" stroke="black" points="76,-171.5 76,-190.5 153,-190.5 153,-171.5 76,-171.5"/>
<text text-anchor="middle" x="114.5" y="-178.5" font-family="Helvetica,sans-Serif" font-size="10.00">__am_ioe_init</text>
</a>
</g>
</g>
<!-- Node1&#45;&gt;Node2 -->
<g id="edge1" class="edge">
<title>Node1&#45;&gt;Node2</title>
<path fill="none" stroke="midnightblue" d="M40.17,-181C47.62,-181 56.53,-181 65.53,-181"/>
<polygon fill="midnightblue" stroke="midnightblue" points="65.65,-184.5 75.65,-181 65.65,-177.5 65.65,-184.5"/>
</g>
<!-- Node3 -->
<g id="node3" class="node">
<title>Node3</title>
<g id="a_node3"><a xlink:href="audio_8c.html#aeafbbf0a74478c9fbf1d6bb3e0d359d0" target="_top" xlink:title=" ">
<polygon fill="none" stroke="black" points="189,-266.5 189,-285.5 276,-285.5 276,-266.5 189,-266.5"/>
<text text-anchor="middle" x="232.5" y="-273.5" font-family="Helvetica,sans-Serif" font-size="10.00">__am_audio_init</text>
</a>
</g>
</g>
<!-- Node2&#45;&gt;Node3 -->
<g id="edge2" class="edge">
<title>Node2&#45;&gt;Node3</title>
<path fill="none" stroke="midnightblue" d="M122.71,-190.54C134.91,-206.16 161.04,-237.41 189,-257 191.5,-258.75 194.19,-260.4 196.95,-261.94"/>
<polygon fill="midnightblue" stroke="midnightblue" points="195.42,-265.08 205.92,-266.46 198.57,-258.83 195.42,-265.08"/>
</g>
<!-- Node4 -->
<g id="node4" class="node">
<title>Node4</title>
<g id="a_node4"><a xlink:href="disk_8c.html#a85a821a1956812f3ed4b2ac56f17a3a9" target="_top" xlink:title=" ">
<polygon fill="none" stroke="black" points="191.5,-228.5 191.5,-247.5 273.5,-247.5 273.5,-228.5 191.5,-228.5"/>
<text text-anchor="middle" x="232.5" y="-235.5" font-family="Helvetica,sans-Serif" font-size="10.00">__am_disk_init</text>
</a>
</g>
</g>
<!-- Node2&#45;&gt;Node4 -->
<g id="edge3" class="edge">
<title>Node2&#45;&gt;Node4</title>
<path fill="none" stroke="midnightblue" d="M133.48,-190.66C148.27,-198.52 169.85,-209.78 189,-219 192.58,-220.73 196.36,-222.49 200.12,-224.22"/>
<polygon fill="midnightblue" stroke="midnightblue" points="198.78,-227.45 209.33,-228.37 201.66,-221.07 198.78,-227.45"/>
</g>
<!-- Node5 -->
<g id="node5" class="node">
<title>Node5</title>
<g id="a_node5"><a xlink:href="gpu_8c.html#a374867a82bb68896aa79bea1f6d5eb2b" target="_top" xlink:title=" ">
<polygon fill="none" stroke="black" points="192.5,-190.5 192.5,-209.5 272.5,-209.5 272.5,-190.5 192.5,-190.5"/>
<text text-anchor="middle" x="232.5" y="-197.5" font-family="Helvetica,sans-Serif" font-size="10.00">__am_gpu_init</text>
</a>
</g>
</g>
<!-- Node2&#45;&gt;Node5 -->
<g id="edge4" class="edge">
<title>Node2&#45;&gt;Node5</title>
<path fill="none" stroke="midnightblue" d="M153.16,-187.17C162.49,-188.7 172.62,-190.36 182.41,-191.96"/>
<polygon fill="midnightblue" stroke="midnightblue" points="182,-195.44 192.43,-193.6 183.13,-188.53 182,-195.44"/>
</g>
<!-- Node7 -->
<g id="node7" class="node">
<title>Node7</title>
<g id="a_node7"><a xlink:href="input_8c.html#a02d166c8d2549e580fd16379de9e80f1" target="_top" xlink:title=" ">
<polygon fill="none" stroke="black" points="190,-152.5 190,-171.5 275,-171.5 275,-152.5 190,-152.5"/>
<text text-anchor="middle" x="232.5" y="-159.5" font-family="Helvetica,sans-Serif" font-size="10.00">__am_input_init</text>
</a>
</g>
</g>
<!-- Node2&#45;&gt;Node7 -->
<g id="edge6" class="edge">
<title>Node2&#45;&gt;Node7</title>
<path fill="none" stroke="midnightblue" d="M153.16,-174.83C161.62,-173.45 170.74,-171.95 179.67,-170.49"/>
<polygon fill="midnightblue" stroke="midnightblue" points="180.31,-173.93 189.61,-168.86 179.18,-167.02 180.31,-173.93"/>
</g>
<!-- Node25 -->
<g id="node25" class="node">
<title>Node25</title>
<g id="a_node25"><a xlink:href="timer_8c.html#a6fcdcd5b43b132b68a427c217be894b0" target="_top" xlink:title=" ">
<polygon fill="none" stroke="black" points="189.5,-114.5 189.5,-133.5 275.5,-133.5 275.5,-114.5 189.5,-114.5"/>
<text text-anchor="middle" x="232.5" y="-121.5" font-family="Helvetica,sans-Serif" font-size="10.00">__am_timer_init</text>
</a>
</g>
</g>
<!-- Node2&#45;&gt;Node25 -->
<g id="edge24" class="edge">
<title>Node2&#45;&gt;Node25</title>
<path fill="none" stroke="midnightblue" d="M133.48,-171.34C148.27,-163.48 169.85,-152.22 189,-143 192.58,-141.27 196.36,-139.51 200.12,-137.78"/>
<polygon fill="midnightblue" stroke="midnightblue" points="201.66,-140.93 209.33,-133.63 198.78,-134.55 201.66,-140.93"/>
</g>
<!-- Node26 -->
<g id="node26" class="node">
<title>Node26</title>
<g id="a_node26"><a xlink:href="native_2ioe_8c.html#a6ade281e99f1f270ffeebb9d82416221" target="_top" xlink:title=" ">
<polygon fill="none" stroke="black" points="218,-76.5 218,-95.5 247,-95.5 247,-76.5 218,-76.5"/>
<text text-anchor="middle" x="232.5" y="-83.5" font-family="Helvetica,sans-Serif" font-size="10.00">fail</text>
</a>
</g>
</g>
<!-- Node2&#45;&gt;Node26 -->
<g id="edge25" class="edge">
<title>Node2&#45;&gt;Node26</title>
<path fill="none" stroke="midnightblue" d="M122.71,-171.46C134.91,-155.84 161.04,-124.59 189,-105 194.82,-100.92 201.66,-97.4 208.12,-94.54"/>
<polygon fill="midnightblue" stroke="midnightblue" points="209.85,-97.62 217.79,-90.6 207.2,-91.14 209.85,-97.62"/>
</g>
<!-- Node6 -->
<g id="node6" class="node">
<title>Node6</title>
<g id="a_node6"><a xlink:href="gpu_8c.html#a8671032d771362f684c8ee31cad0ed02" target="_top" xlink:title=" ">
<polygon fill="none" stroke="black" points="313,-190.5 313,-209.5 384,-209.5 384,-190.5 313,-190.5"/>
<text text-anchor="middle" x="348.5" y="-197.5" font-family="Helvetica,sans-Serif" font-size="10.00">texture_sync</text>
</a>
</g>
</g>
<!-- Node5&#45;&gt;Node6 -->
<g id="edge5" class="edge">
<title>Node5&#45;&gt;Node6</title>
<path fill="none" stroke="midnightblue" d="M272.73,-200C282.39,-200 292.8,-200 302.7,-200"/>
<polygon fill="midnightblue" stroke="midnightblue" points="302.77,-203.5 312.77,-200 302.77,-196.5 302.77,-203.5"/>
</g>
<!-- Node8 -->
<g id="node8" class="node">
<title>Node8</title>
<g id="a_node8"><a xlink:href="input_8c.html#a77413c19d2c314aba317257b3cafb1c7" target="_top" xlink:title=" ">
<polygon fill="none" stroke="black" points="312,-152.5 312,-171.5 385,-171.5 385,-152.5 312,-152.5"/>
<text text-anchor="middle" x="348.5" y="-159.5" font-family="Helvetica,sans-Serif" font-size="10.00">event_thread</text>
</a>
</g>
</g>
<!-- Node7&#45;&gt;Node8 -->
<g id="edge7" class="edge">
<title>Node7&#45;&gt;Node8</title>
<path fill="none" stroke="midnightblue" d="M275.3,-162C283.89,-162 292.97,-162 301.69,-162"/>
<polygon fill="midnightblue" stroke="midnightblue" points="301.71,-165.5 311.71,-162 301.71,-158.5 301.71,-165.5"/>
</g>
<!-- Node9 -->
<g id="node9" class="node">
<title>Node9</title>
<g id="a_node9"><a xlink:href="platform_8c.html#ac9a72275bbb5c5a92fdd21dfb051b5d4" target="_top" xlink:title=" ">
<polygon fill="none" stroke="black" points="421,-171.5 421,-190.5 528,-190.5 528,-171.5 421,-171.5"/>
<text text-anchor="middle" x="474.5" y="-178.5" font-family="Helvetica,sans-Serif" font-size="10.00">__am_send_kbd_intr</text>
</a>
</g>
</g>
<!-- Node8&#45;&gt;Node9 -->
<g id="edge8" class="edge">
<title>Node8&#45;&gt;Node9</title>
<path fill="none" stroke="midnightblue" d="M385.03,-167.44C393.14,-168.69 402,-170.04 410.87,-171.4"/>
<polygon fill="midnightblue" stroke="midnightblue" points="410.44,-174.88 420.86,-172.93 411.5,-167.96 410.44,-174.88"/>
</g>
<!-- Node10 -->
<g id="node10" class="node">
<title>Node10</title>
<g id="a_node10"><a xlink:href="x86_2qemu_2trm_8c.html#a483cb97188e557c3c68d3a1572c2cc92" target="_top" xlink:title=" ">
<polygon fill="none" stroke="black" points="458.5,-133.5 458.5,-152.5 490.5,-152.5 490.5,-133.5 458.5,-133.5"/>
<text text-anchor="middle" x="474.5" y="-140.5" font-family="Helvetica,sans-Serif" font-size="10.00">halt</text>
</a>
</g>
</g>
<!-- Node8&#45;&gt;Node10 -->
<g id="edge9" class="edge">
<title>Node8&#45;&gt;Node10</title>
<path fill="none" stroke="midnightblue" d="M385.03,-156.56C405.28,-153.45 430.16,-149.64 448.37,-146.85"/>
<polygon fill="midnightblue" stroke="midnightblue" points="449.14,-150.27 458.49,-145.3 448.08,-143.35 449.14,-150.27"/>
</g>
<!-- Node11 -->
<g id="node11" class="node">
<title>Node11</title>
<g id="a_node11"><a xlink:href="platform_8c.html#a66cf43dfc7e13b3775d6d2040722da59" target="_top" xlink:title=" ">
<polygon fill="none" stroke="black" points="569.5,-275.5 569.5,-294.5 670.5,-294.5 670.5,-275.5 569.5,-275.5"/>
<text text-anchor="middle" x="620" y="-282.5" font-family="Helvetica,sans-Serif" font-size="10.00">__am_exit_platform</text>
</a>
</g>
</g>
<!-- Node10&#45;&gt;Node11 -->
<g id="edge10" class="edge">
<title>Node10&#45;&gt;Node11</title>
<path fill="none" stroke="midnightblue" d="M490.67,-145.01C502.26,-147.29 517.92,-152.07 528,-162 560.17,-193.69 533.85,-223.39 564,-257 568.97,-262.54 575.29,-267.13 581.86,-270.89"/>
<polygon fill="midnightblue" stroke="midnightblue" points="580.38,-274.06 590.87,-275.5 583.56,-267.83 580.38,-274.06"/>
</g>
<!-- Node13 -->
<g id="node13" class="node">
<title>Node13</title>
<g id="a_node13"><a xlink:href="x86_2qemu_2mpe_8c.html#a0a540532023afb1f31b6f21ce053483b" target="_top" xlink:title=" ">
<polygon fill="none" stroke="black" points="564,-228.5 564,-247.5 676,-247.5 676,-228.5 564,-228.5"/>
<text text-anchor="middle" x="620" y="-235.5" font-family="Helvetica,sans-Serif" font-size="10.00">__am_stop_the_world</text>
</a>
</g>
</g>
<!-- Node10&#45;&gt;Node13 -->
<g id="edge12" class="edge">
<title>Node10&#45;&gt;Node13</title>
<path fill="none" stroke="midnightblue" d="M490.61,-145.7C501.87,-148.33 517.12,-153.25 528,-162 551.35,-180.78 540.52,-200.39 564,-219 566.26,-220.79 568.71,-222.42 571.26,-223.9"/>
<polygon fill="midnightblue" stroke="midnightblue" points="569.77,-227.07 580.29,-228.38 572.89,-220.8 569.77,-227.07"/>
</g>
<!-- Node19 -->
<g id="node19" class="node">
<title>Node19</title>
<g id="a_node19"><a xlink:href="x86_8h.html#acc919e7809ef1db2b20aa3804f540b5c" target="_top" xlink:title=" ">
<polygon fill="none" stroke="black" points="605.5,-190.5 605.5,-209.5 634.5,-209.5 634.5,-190.5 605.5,-190.5"/>
<text text-anchor="middle" x="620" y="-197.5" font-family="Helvetica,sans-Serif" font-size="10.00">cli</text>
</a>
</g>
</g>
<!-- Node10&#45;&gt;Node19 -->
<g id="edge18" class="edge">
<title>Node10&#45;&gt;Node19</title>
<path fill="none" stroke="midnightblue" d="M490.88,-147.94C501.47,-151.49 515.77,-156.59 528,-162 544.55,-169.32 547.4,-173.8 564,-181 574.18,-185.41 585.75,-189.54 595.64,-192.81"/>
<polygon fill="midnightblue" stroke="midnightblue" points="594.63,-196.16 605.22,-195.88 596.77,-189.49 594.63,-196.16"/>
</g>
<!-- Node20 -->
<g id="node20" class="node">
<title>Node20</title>
<g id="a_node20"><a xlink:href="x86_2qemu_2mpe_8c.html#ab701de78cad32896c923ce900087e714" target="_top" xlink:title=" ">
<polygon fill="none" stroke="black" points="586,-152.5 586,-171.5 654,-171.5 654,-152.5 586,-152.5"/>
<text text-anchor="middle" x="620" y="-159.5" font-family="Helvetica,sans-Serif" font-size="10.00">cpu_current</text>
</a>
</g>
</g>
<!-- Node10&#45;&gt;Node20 -->
<g id="edge19" class="edge">
<title>Node10&#45;&gt;Node20</title>
<path fill="none" stroke="midnightblue" d="M490.59,-145C510.58,-147.64 546.7,-152.43 575.55,-156.25"/>
<polygon fill="midnightblue" stroke="midnightblue" points="575.43,-159.76 585.8,-157.6 576.35,-152.82 575.43,-159.76"/>
</g>
<!-- Node21 -->
<g id="node21" class="node">
<title>Node21</title>
<g id="a_node21"><a xlink:href="x86_8h.html#a2adfe40c0aadff727889d263815cb8ed" target="_top" xlink:title=" ">
<polygon fill="none" stroke="black" points="605.5,-114.5 605.5,-133.5 634.5,-133.5 634.5,-114.5 605.5,-114.5"/>
<text text-anchor="middle" x="620" y="-121.5" font-family="Helvetica,sans-Serif" font-size="10.00">hlt</text>
</a>
</g>
</g>
<!-- Node10&#45;&gt;Node21 -->
<g id="edge20" class="edge">
<title>Node10&#45;&gt;Node21</title>
<path fill="none" stroke="midnightblue" d="M490.59,-141C515.58,-137.69 565.76,-131.05 595.45,-127.12"/>
<polygon fill="midnightblue" stroke="midnightblue" points="595.93,-130.59 605.38,-125.8 595.01,-123.65 595.93,-130.59"/>
</g>
<!-- Node22 -->
<g id="node22" class="node">
<title>Node22</title>
<g id="a_node22"><a xlink:href="x86_8h.html#af92fc55c49437b9152499a13ba2b6585" target="_top" xlink:title=" ">
<polygon fill="none" stroke="black" points="601,-76.5 601,-95.5 639,-95.5 639,-76.5 601,-76.5"/>
<text text-anchor="middle" x="620" y="-83.5" font-family="Helvetica,sans-Serif" font-size="10.00">outw</text>
</a>
</g>
</g>
<!-- Node10&#45;&gt;Node22 -->
<g id="edge21" class="edge">
<title>Node10&#45;&gt;Node22</title>
<path fill="none" stroke="midnightblue" d="M490.71,-136.07C508.23,-128.18 537.96,-115.07 564,-105 572.67,-101.65 582.21,-98.25 590.88,-95.27"/>
<polygon fill="midnightblue" stroke="midnightblue" points="592.2,-98.52 600.55,-92 589.95,-91.89 592.2,-98.52"/>
</g>
<!-- Node23 -->
<g id="node23" class="node">
<title>Node23</title>
<g id="a_node23"><a xlink:href="stdio_8c.html#a55f3d956bb2ba20b5059e9e25484a47f" target="_top" xlink:title=" ">
<polygon fill="none" stroke="black" points="601,-38.5 601,-57.5 639,-57.5 639,-38.5 601,-38.5"/>
<text text-anchor="middle" x="620" y="-45.5" font-family="Helvetica,sans-Serif" font-size="10.00">printf</text>
</a>
</g>
</g>
<!-- Node10&#45;&gt;Node23 -->
<g id="edge22" class="edge">
<title>Node10&#45;&gt;Node23</title>
<path fill="none" stroke="midnightblue" d="M484.4,-133.27C499.42,-117.38 531.33,-85.75 564,-67 572.4,-62.18 582.23,-58.3 591.23,-55.34"/>
<polygon fill="midnightblue" stroke="midnightblue" points="592.38,-58.65 600.93,-52.38 590.34,-51.95 592.38,-58.65"/>
</g>
<!-- Node24 -->
<g id="node24" class="node">
<title>Node24</title>
<g id="a_node24"><a xlink:href="native_2trm_8c.html#a6351d8706733262e7e325926b1a9aab7" target="_top" xlink:title=" ">
<polygon fill="none" stroke="black" points="599.5,-0.5 599.5,-19.5 640.5,-19.5 640.5,-0.5 599.5,-0.5"/>
<text text-anchor="middle" x="620" y="-7.5" font-family="Helvetica,sans-Serif" font-size="10.00">putch</text>
</a>
</g>
</g>
<!-- Node10&#45;&gt;Node24 -->
<g id="edge23" class="edge">
<title>Node10&#45;&gt;Node24</title>
<path fill="none" stroke="midnightblue" d="M480.5,-133.21C492.16,-111.35 523.26,-58.18 564,-29 571.56,-23.59 580.78,-19.61 589.51,-16.74"/>
<polygon fill="midnightblue" stroke="midnightblue" points="590.77,-20.02 599.38,-13.85 588.8,-13.3 590.77,-20.02"/>
</g>
<!-- Node12 -->
<g id="node12" class="node">
<title>Node12</title>
<g id="a_node12"><a xlink:href="x86_2qemu_2mpe_8c.html#af486ec575d47720d28eee63644206110" target="_top" xlink:title=" ">
<polygon fill="none" stroke="black" points="731.5,-285.5 731.5,-304.5 793.5,-304.5 793.5,-285.5 731.5,-285.5"/>
<text text-anchor="middle" x="762.5" y="-292.5" font-family="Helvetica,sans-Serif" font-size="10.00">cpu_count</text>
</a>
</g>
</g>
<!-- Node11&#45;&gt;Node12 -->
<g id="edge11" class="edge">
<title>Node11&#45;&gt;Node12</title>
<path fill="none" stroke="midnightblue" d="M670.54,-288.53C687.13,-289.71 705.41,-291.01 721.21,-292.13"/>
<polygon fill="midnightblue" stroke="midnightblue" points="720.96,-295.62 731.19,-292.84 721.46,-288.64 720.96,-295.62"/>
</g>
<!-- Node14 -->
<g id="node14" class="node">
<title>Node14</title>
<g id="a_node14"><a xlink:href="x86_2qemu_2ioe_8c.html#a88a238fee7cd006afa69ea97e4914a09" target="_top" xlink:title=" ">
<polygon fill="none" stroke="black" points="712,-247.5 712,-266.5 813,-266.5 813,-247.5 712,-247.5"/>
<text text-anchor="middle" x="762.5" y="-254.5" font-family="Helvetica,sans-Serif" font-size="10.00">__am_lapic_bootap</text>
</a>
</g>
</g>
<!-- Node13&#45;&gt;Node14 -->
<g id="edge13" class="edge">
<title>Node13&#45;&gt;Node14</title>
<path fill="none" stroke="midnightblue" d="M676.13,-245.45C684.43,-246.58 693.04,-247.74 701.44,-248.88"/>
<polygon fill="midnightblue" stroke="midnightblue" points="701.18,-252.38 711.56,-250.25 702.12,-245.44 701.18,-252.38"/>
</g>
<!-- Node17 -->
<g id="node17" class="node">
<title>Node17</title>
<g id="a_node17"><a xlink:href="x86_8h.html#adfa01b89ceed9e7a87f185f4e441aa16" target="_top" xlink:title=" ">
<polygon fill="none" stroke="black" points="728.5,-209.5 728.5,-228.5 796.5,-228.5 796.5,-209.5 728.5,-209.5"/>
<text text-anchor="middle" x="762.5" y="-216.5" font-family="Helvetica,sans-Serif" font-size="10.00">boot_record</text>
</a>
</g>
</g>
<!-- Node13&#45;&gt;Node17 -->
<g id="edge16" class="edge">
<title>Node13&#45;&gt;Node17</title>
<path fill="none" stroke="midnightblue" d="M676.13,-230.55C690.08,-228.66 704.87,-226.66 718.14,-224.86"/>
<polygon fill="midnightblue" stroke="midnightblue" points="718.98,-228.28 728.42,-223.47 718.05,-221.34 718.98,-228.28"/>
</g>
<!-- Node18 -->
<g id="node18" class="node">
<title>Node18</title>
<g id="a_node18"><a xlink:href="native_2mpe_8c.html#a806195bfb27a695274680a7ab6400663" target="_top" xlink:title=" ">
<polygon fill="none" stroke="black" points="728.5,-171.5 728.5,-190.5 796.5,-190.5 796.5,-171.5 728.5,-171.5"/>
<text text-anchor="middle" x="762.5" y="-178.5" font-family="Helvetica,sans-Serif" font-size="10.00">cpu_current</text>
</a>
</g>
</g>
<!-- Node13&#45;&gt;Node18 -->
<g id="edge17" class="edge">
<title>Node13&#45;&gt;Node18</title>
<path fill="none" stroke="midnightblue" d="M651.29,-228.47C659.41,-225.66 668.12,-222.42 676,-219 692.6,-211.8 695.53,-207.48 712,-200 716.22,-198.09 720.69,-196.19 725.15,-194.38"/>
<polygon fill="midnightblue" stroke="midnightblue" points="726.78,-197.5 734.8,-190.58 724.21,-190.99 726.78,-197.5"/>
</g>
<!-- Node15 -->
<g id="node15" class="node">
<title>Node15</title>
<g id="a_node15"><a xlink:href="x86_2qemu_2ioe_8c.html#a72d9ed0bfe1066367763e044b7a7b7c3" target="_top" xlink:title=" ">
<polygon fill="none" stroke="black" points="849,-266.5 849,-285.5 893,-285.5 893,-266.5 849,-266.5"/>
<text text-anchor="middle" x="871" y="-273.5" font-family="Helvetica,sans-Serif" font-size="10.00">lapicw</text>
</a>
</g>
</g>
<!-- Node14&#45;&gt;Node15 -->
<g id="edge14" class="edge">
<title>Node14&#45;&gt;Node15</title>
<path fill="none" stroke="midnightblue" d="M813.01,-265.83C821.77,-267.4 830.67,-268.98 838.75,-270.42"/>
<polygon fill="midnightblue" stroke="midnightblue" points="838.36,-273.91 848.82,-272.22 839.59,-267.02 838.36,-273.91"/>
</g>
<!-- Node16 -->
<g id="node16" class="node">
<title>Node16</title>
<g id="a_node16"><a xlink:href="x86_8h.html#ade961b44e45ddacbc3c3b7609cf36dc6" target="_top" xlink:title=" ">
<polygon fill="none" stroke="black" points="853.5,-228.5 853.5,-247.5 888.5,-247.5 888.5,-228.5 853.5,-228.5"/>
<text text-anchor="middle" x="871" y="-235.5" font-family="Helvetica,sans-Serif" font-size="10.00">outb</text>
</a>
</g>
</g>
<!-- Node14&#45;&gt;Node16 -->
<g id="edge15" class="edge">
<title>Node14&#45;&gt;Node16</title>
<path fill="none" stroke="midnightblue" d="M813.01,-248.17C823.47,-246.3 834.13,-244.4 843.35,-242.75"/>
<polygon fill="midnightblue" stroke="midnightblue" points="844.2,-246.16 853.43,-240.96 842.97,-239.27 844.2,-246.16"/>
</g>
</g>
</svg>
