<?xml version="1.0" encoding="UTF-8" standalone="no"?>
<!DOCTYPE svg PUBLIC "-//W3C//DTD SVG 1.1//EN"
 "http://www.w3.org/Graphics/SVG/1.1/DTD/svg11.dtd">
<!-- Generated by graphviz version 2.50.0 (20220203.2022)
 -->
<!-- Title: cte_init Pages: 1 -->
<svg width="860pt" height="218pt"
 viewBox="0.00 0.00 860.00 218.00" xmlns="http://www.w3.org/2000/svg" xmlns:xlink="http://www.w3.org/1999/xlink">
<g id="graph0" class="graph" transform="scale(1 1) rotate(0) translate(4 214)">
<title>cte_init</title>
<!-- Node1 -->
<g id="node1" class="node">
<title>Node1</title>
<g id="a_node1"><a xlink:title=" ">
<polygon fill="#bfbfbf" stroke="black" points="0,-85.5 0,-104.5 48,-104.5 48,-85.5 0,-85.5"/>
<text text-anchor="middle" x="24" y="-92.5" font-family="Helvetica,sans-Serif" font-size="10.00">cte_init</text>
</a>
</g>
</g>
<!-- Node2 -->
<g id="node2" class="node">
<title>Node2</title>
<g id="a_node2"><a xlink:href="native_2cte_8c.html#a324dd5bf3445b32ffc8ce5e6c0f33aa5" target="_top" xlink:title=" ">
<polygon fill="none" stroke="black" points="88.5,-118.5 88.5,-137.5 189.5,-137.5 189.5,-118.5 88.5,-118.5"/>
<text text-anchor="middle" x="139" y="-125.5" font-family="Helvetica,sans-Serif" font-size="10.00">__am_init_timer_irq</text>
</a>
</g>
</g>
<!-- Node1&#45;&gt;Node2 -->
<g id="edge1" class="edge">
<title>Node1&#45;&gt;Node2</title>
<path fill="none" stroke="midnightblue" d="M48.14,-101.76C61.83,-105.76 79.59,-110.94 95.7,-115.65"/>
<polygon fill="midnightblue" stroke="midnightblue" points="94.89,-119.06 105.47,-118.5 96.85,-112.34 94.89,-119.06"/>
</g>
<!-- Node4 -->
<g id="node4" class="node">
<title>Node4</title>
<g id="a_node4"><a xlink:href="native_2cte_8c.html#a86b2b6fbda4e793f71ac4b12b85a9d74" target="_top" xlink:title=" ">
<polygon fill="none" stroke="black" points="84,-66.5 84,-85.5 194,-85.5 194,-66.5 84,-66.5"/>
<text text-anchor="middle" x="139" y="-73.5" font-family="Helvetica,sans-Serif" font-size="10.00">install_signal_handler</text>
</a>
</g>
</g>
<!-- Node1&#45;&gt;Node4 -->
<g id="edge3" class="edge">
<title>Node1&#45;&gt;Node4</title>
<path fill="none" stroke="midnightblue" d="M48.14,-91.11C55.73,-89.83 64.56,-88.35 73.68,-86.82"/>
<polygon fill="midnightblue" stroke="midnightblue" points="74.35,-90.25 83.63,-85.14 73.19,-83.35 74.35,-90.25"/>
</g>
<!-- Node3 -->
<g id="node3" class="node">
<title>Node3</title>
<g id="a_node3"><a xlink:href="native_2cte_8c.html#a4a139958742786c5085172be1f69bfd0" target="_top" xlink:title=" ">
<polygon fill="none" stroke="black" points="247,-133.5 247,-152.5 279,-152.5 279,-133.5 247,-133.5"/>
<text text-anchor="middle" x="263" y="-140.5" font-family="Helvetica,sans-Serif" font-size="10.00">iset</text>
</a>
</g>
</g>
<!-- Node2&#45;&gt;Node3 -->
<g id="edge2" class="edge">
<title>Node2&#45;&gt;Node3</title>
<path fill="none" stroke="midnightblue" d="M189.62,-134.1C205.86,-136.1 223.22,-138.23 236.86,-139.91"/>
<polygon fill="midnightblue" stroke="midnightblue" points="236.57,-143.4 246.92,-141.15 237.42,-136.45 236.57,-143.4"/>
</g>
<!-- Node5 -->
<g id="node5" class="node">
<title>Node5</title>
<g id="a_node5"><a xlink:href="platform_8c.html#aa960047c9f8917e11dc07fa990d754f8" target="_top" xlink:title=" ">
<polygon fill="none" stroke="black" points="438,-0.5 438,-19.5 558,-19.5 558,-0.5 438,-0.5"/>
<text text-anchor="middle" x="498" y="-7.5" font-family="Helvetica,sans-Serif" font-size="10.00">__am_get_intr_sigmask</text>
</a>
</g>
</g>
<!-- Node4&#45;&gt;Node5 -->
<g id="edge4" class="edge">
<title>Node4&#45;&gt;Node5</title>
<path fill="none" stroke="midnightblue" d="M191.53,-66.47C256.13,-54.53 366.73,-34.08 435.63,-21.35"/>
<polygon fill="midnightblue" stroke="midnightblue" points="436.29,-24.78 445.49,-19.52 435.02,-17.9 436.29,-24.78"/>
</g>
<!-- Node6 -->
<g id="node6" class="node">
<title>Node6</title>
<g id="a_node6"><a xlink:href="string_8c.html#a313175102214d45434bf045db18dddf0" target="_top" xlink:title=" ">
<polygon fill="none" stroke="black" points="237,-0.5 237,-19.5 289,-19.5 289,-0.5 237,-0.5"/>
<text text-anchor="middle" x="263" y="-7.5" font-family="Helvetica,sans-Serif" font-size="10.00">memset</text>
</a>
</g>
</g>
<!-- Node4&#45;&gt;Node6 -->
<g id="edge5" class="edge">
<title>Node4&#45;&gt;Node6</title>
<path fill="none" stroke="midnightblue" d="M157.74,-66.4C178.07,-55.41 211.61,-37.26 235.14,-24.53"/>
<polygon fill="midnightblue" stroke="midnightblue" points="237.11,-27.45 244.24,-19.61 233.78,-21.29 237.11,-27.45"/>
</g>
<!-- Node7 -->
<g id="node7" class="node">
<title>Node7</title>
<g id="a_node7"><a xlink:href="native_2cte_8c.html#a15554d17d092b4dd626a77142f89ae02" target="_top" xlink:title=" ">
<polygon fill="none" stroke="black" points="230,-95.5 230,-114.5 296,-114.5 296,-95.5 230,-95.5"/>
<text text-anchor="middle" x="263" y="-102.5" font-family="Helvetica,sans-Serif" font-size="10.00">sig_handler</text>
</a>
</g>
</g>
<!-- Node4&#45;&gt;Node7 -->
<g id="edge6" class="edge">
<title>Node4&#45;&gt;Node7</title>
<path fill="none" stroke="midnightblue" d="M180.29,-85.58C192.99,-88.6 207.06,-91.94 219.89,-94.99"/>
<polygon fill="midnightblue" stroke="midnightblue" points="219.32,-98.45 229.86,-97.36 220.94,-91.64 219.32,-98.45"/>
</g>
<!-- Node8 -->
<g id="node8" class="node">
<title>Node8</title>
<g id="a_node8"><a xlink:href="native_2vme_8c.html#a7c08b968266dabfd5c3fc261f5d51750" target="_top" xlink:title=" ">
<polygon fill="none" stroke="black" points="446,-114.5 446,-133.5 550,-133.5 550,-114.5 446,-114.5"/>
<text text-anchor="middle" x="498" y="-121.5" font-family="Helvetica,sans-Serif" font-size="10.00">__am_in_userspace</text>
</a>
</g>
</g>
<!-- Node7&#45;&gt;Node8 -->
<g id="edge7" class="edge">
<title>Node7&#45;&gt;Node8</title>
<path fill="none" stroke="midnightblue" d="M296.4,-107.64C332.24,-110.56 390.84,-115.34 435.47,-118.98"/>
<polygon fill="midnightblue" stroke="midnightblue" points="435.37,-122.49 445.62,-119.81 435.94,-115.51 435.37,-122.49"/>
</g>
<!-- Node9 -->
<g id="node9" class="node">
<title>Node9</title>
<g id="a_node9"><a xlink:href="native_2cte_8c.html#aa76bab517f9c7ba14287162896f6dbbb" target="_top" xlink:title=" ">
<polygon fill="none" stroke="black" points="352,-152.5 352,-171.5 382,-171.5 382,-152.5 352,-152.5"/>
<text text-anchor="middle" x="367" y="-159.5" font-family="Helvetica,sans-Serif" font-size="10.00">iret</text>
</a>
</g>
</g>
<!-- Node7&#45;&gt;Node9 -->
<g id="edge8" class="edge">
<title>Node7&#45;&gt;Node9</title>
<path fill="none" stroke="midnightblue" d="M281.3,-114.67C298.32,-124.18 324.4,-138.75 343.12,-149.22"/>
<polygon fill="midnightblue" stroke="midnightblue" points="341.47,-152.3 351.9,-154.12 344.88,-146.19 341.47,-152.3"/>
</g>
<!-- Node11 -->
<g id="node11" class="node">
<title>Node11</title>
<g id="a_node11"><a xlink:href="native_2cte_8c.html#a3f025af92181d8eee1f3aedb2ab8314a" target="_top" xlink:title=" ">
<polygon fill="none" stroke="black" points="332,-76.5 332,-95.5 402,-95.5 402,-76.5 332,-76.5"/>
<text text-anchor="middle" x="367" y="-83.5" font-family="Helvetica,sans-Serif" font-size="10.00">setup_stack</text>
</a>
</g>
</g>
<!-- Node7&#45;&gt;Node11 -->
<g id="edge11" class="edge">
<title>Node7&#45;&gt;Node11</title>
<path fill="none" stroke="midnightblue" d="M296.27,-98.99C304.41,-97.47 313.29,-95.82 321.9,-94.21"/>
<polygon fill="midnightblue" stroke="midnightblue" points="322.63,-97.64 331.82,-92.37 321.35,-90.76 322.63,-97.64"/>
</g>
<!-- Node19 -->
<g id="node19" class="node">
<title>Node19</title>
<g id="a_node19"><a xlink:href="x86_2qemu_2vme_8c.html#a8e53eed544a985d22d8c1df4c4d7df2c" target="_top" xlink:title=" ">
<polygon fill="none" stroke="black" points="340.5,-190.5 340.5,-209.5 393.5,-209.5 393.5,-190.5 340.5,-190.5"/>
<text text-anchor="middle" x="367" y="-197.5" font-family="Helvetica,sans-Serif" font-size="10.00">ucontext</text>
</a>
</g>
</g>
<!-- Node7&#45;&gt;Node19 -->
<g id="edge21" class="edge">
<title>Node7&#45;&gt;Node19</title>
<path fill="none" stroke="midnightblue" d="M283.66,-114.69C288.01,-117.35 292.39,-120.49 296,-124 317.48,-144.89 310.25,-160.39 332,-181 333.44,-182.36 334.99,-183.66 336.61,-184.89"/>
<polygon fill="midnightblue" stroke="midnightblue" points="334.82,-187.9 345.1,-190.48 338.67,-182.06 334.82,-187.9"/>
</g>
<!-- Node9&#45;&gt;Node8 -->
<g id="edge9" class="edge">
<title>Node9&#45;&gt;Node8</title>
<path fill="none" stroke="midnightblue" d="M382.3,-157.79C399.73,-152.65 429.96,-143.75 455.02,-136.37"/>
<polygon fill="midnightblue" stroke="midnightblue" points="456.07,-139.71 464.68,-133.52 454.09,-132.99 456.07,-139.71"/>
</g>
<!-- Node10 -->
<g id="node10" class="node">
<title>Node10</title>
<g id="a_node10"><a xlink:href="platform_8c.html#a54f9386958245be4fd8b5983941557c6" target="_top" xlink:title=" ">
<polygon fill="none" stroke="black" points="444,-152.5 444,-171.5 552,-171.5 552,-152.5 444,-152.5"/>
<text text-anchor="middle" x="498" y="-159.5" font-family="Helvetica,sans-Serif" font-size="10.00">__am_pmem_protect</text>
</a>
</g>
</g>
<!-- Node9&#45;&gt;Node10 -->
<g id="edge10" class="edge">
<title>Node9&#45;&gt;Node10</title>
<path fill="none" stroke="midnightblue" d="M382.3,-162C394.98,-162 414.43,-162 433.74,-162"/>
<polygon fill="midnightblue" stroke="midnightblue" points="433.79,-165.5 443.79,-162 433.79,-158.5 433.79,-165.5"/>
</g>
<!-- Node11&#45;&gt;Node5 -->
<g id="edge12" class="edge">
<title>Node11&#45;&gt;Node5</title>
<path fill="none" stroke="midnightblue" d="M382.52,-76.35C388.66,-72.12 395.81,-66.99 402,-62 418.9,-48.38 419.24,-39.91 438,-29 441.66,-26.87 445.59,-24.95 449.63,-23.21"/>
<polygon fill="midnightblue" stroke="midnightblue" points="451.08,-26.4 459.13,-19.52 448.55,-19.88 451.08,-26.4"/>
</g>
<!-- Node11&#45;&gt;Node8 -->
<g id="edge13" class="edge">
<title>Node11&#45;&gt;Node8</title>
<path fill="none" stroke="midnightblue" d="M400.55,-95.59C416.9,-100.4 436.91,-106.3 454.46,-111.47"/>
<polygon fill="midnightblue" stroke="midnightblue" points="453.88,-114.95 464.46,-114.41 455.85,-108.23 453.88,-114.95"/>
</g>
<!-- Node12 -->
<g id="node12" class="node">
<title>Node12</title>
<g id="a_node12"><a xlink:href="platform_8c.html#a16055cdb3fd495fa548a7e15bc6a5fd6" target="_top" xlink:title=" ">
<polygon fill="none" stroke="black" points="438.5,-38.5 438.5,-57.5 557.5,-57.5 557.5,-38.5 438.5,-38.5"/>
<text text-anchor="middle" x="498" y="-45.5" font-family="Helvetica,sans-Serif" font-size="10.00">__am_pmem_unprotect</text>
</a>
</g>
</g>
<!-- Node11&#45;&gt;Node12 -->
<g id="edge14" class="edge">
<title>Node11&#45;&gt;Node12</title>
<path fill="none" stroke="midnightblue" d="M400.55,-76.41C416.9,-71.6 436.91,-65.7 454.46,-60.53"/>
<polygon fill="midnightblue" stroke="midnightblue" points="455.85,-63.77 464.46,-57.59 453.88,-57.05 455.85,-63.77"/>
</g>
<!-- Node13 -->
<g id="node13" class="node">
<title>Node13</title>
<g id="a_node13"><a xlink:href="native_2cte_8c.html#a9c8dd258011eaecff60c4a7e53717e53" target="_top" xlink:title=" ">
<polygon fill="none" stroke="black" points="467.5,-76.5 467.5,-95.5 528.5,-95.5 528.5,-76.5 467.5,-76.5"/>
<text text-anchor="middle" x="498" y="-83.5" font-family="Helvetica,sans-Serif" font-size="10.00">irq_handle</text>
</a>
</g>
</g>
<!-- Node11&#45;&gt;Node13 -->
<g id="edge15" class="edge">
<title>Node11&#45;&gt;Node13</title>
<path fill="none" stroke="midnightblue" d="M402.23,-86C419.04,-86 439.41,-86 456.94,-86"/>
<polygon fill="midnightblue" stroke="midnightblue" points="457.44,-89.5 467.44,-86 457.44,-82.5 457.44,-89.5"/>
</g>
<!-- Node14 -->
<g id="node14" class="node">
<title>Node14</title>
<g id="a_node14"><a xlink:href="native_2cte_8c.html#af03a5d8431ed9f14db12fb73dd89e32a" target="_top" xlink:title=" ">
<polygon fill="none" stroke="black" points="594,-114.5 594,-133.5 709,-133.5 709,-114.5 594,-114.5"/>
<text text-anchor="middle" x="651.5" y="-121.5" font-family="Helvetica,sans-Serif" font-size="10.00">__am_panic_on_return</text>
</a>
</g>
</g>
<!-- Node13&#45;&gt;Node14 -->
<g id="edge16" class="edge">
<title>Node13&#45;&gt;Node14</title>
<path fill="none" stroke="midnightblue" d="M528.57,-93.42C549.61,-98.69 578.34,-105.9 602.62,-111.99"/>
<polygon fill="midnightblue" stroke="midnightblue" points="601.82,-115.4 612.38,-114.44 603.53,-108.61 601.82,-115.4"/>
</g>
<!-- Node15 -->
<g id="node15" class="node">
<title>Node15</title>
<g id="a_node15"><a xlink:href="native_2vme_8c.html#a83098472fe0a6fda68a29d21636251a6" target="_top" xlink:title=" ">
<polygon fill="none" stroke="black" points="614.5,-76.5 614.5,-95.5 688.5,-95.5 688.5,-76.5 614.5,-76.5"/>
<text text-anchor="middle" x="651.5" y="-83.5" font-family="Helvetica,sans-Serif" font-size="10.00">__am_switch</text>
</a>
</g>
</g>
<!-- Node13&#45;&gt;Node15 -->
<g id="edge17" class="edge">
<title>Node13&#45;&gt;Node15</title>
<path fill="none" stroke="midnightblue" d="M528.57,-86C550.04,-86 579.53,-86 604.12,-86"/>
<polygon fill="midnightblue" stroke="midnightblue" points="604.32,-89.5 614.32,-86 604.32,-82.5 604.32,-89.5"/>
</g>
<!-- Node18 -->
<g id="node18" class="node">
<title>Node18</title>
<g id="a_node18"><a xlink:href="stdio_8c.html#a55f3d956bb2ba20b5059e9e25484a47f" target="_top" xlink:title=" ">
<polygon fill="none" stroke="black" points="632.5,-38.5 632.5,-57.5 670.5,-57.5 670.5,-38.5 632.5,-38.5"/>
<text text-anchor="middle" x="651.5" y="-45.5" font-family="Helvetica,sans-Serif" font-size="10.00">printf</text>
</a>
</g>
</g>
<!-- Node13&#45;&gt;Node18 -->
<g id="edge20" class="edge">
<title>Node13&#45;&gt;Node18</title>
<path fill="none" stroke="midnightblue" d="M528.57,-78.58C555.79,-71.76 595.86,-61.7 622.55,-55.01"/>
<polygon fill="midnightblue" stroke="midnightblue" points="623.56,-58.37 632.41,-52.54 621.86,-51.58 623.56,-58.37"/>
</g>
<!-- Node16 -->
<g id="node16" class="node">
<title>Node16</title>
<g id="a_node16"><a xlink:href="platform_8c.html#ad487173c7af5aa14fbb84ab6e2df502d" target="_top" xlink:title=" ">
<polygon fill="none" stroke="black" points="750,-95.5 750,-114.5 847,-114.5 847,-95.5 750,-95.5"/>
<text text-anchor="middle" x="798.5" y="-102.5" font-family="Helvetica,sans-Serif" font-size="10.00">__am_pmem_map</text>
</a>
</g>
</g>
<!-- Node15&#45;&gt;Node16 -->
<g id="edge18" class="edge">
<title>Node15&#45;&gt;Node16</title>
<path fill="none" stroke="midnightblue" d="M688.72,-90.75C704.21,-92.78 722.69,-95.2 739.98,-97.46"/>
<polygon fill="midnightblue" stroke="midnightblue" points="739.62,-100.95 749.99,-98.77 740.53,-94 739.62,-100.95"/>
</g>
<!-- Node17 -->
<g id="node17" class="node">
<title>Node17</title>
<g id="a_node17"><a xlink:href="platform_8c.html#a8a63810f218980350b40e5b670693609" target="_top" xlink:title=" ">
<polygon fill="none" stroke="black" points="745,-57.5 745,-76.5 852,-76.5 852,-57.5 745,-57.5"/>
<text text-anchor="middle" x="798.5" y="-64.5" font-family="Helvetica,sans-Serif" font-size="10.00">__am_pmem_unmap</text>
</a>
</g>
</g>
<!-- Node15&#45;&gt;Node17 -->
<g id="edge19" class="edge">
<title>Node15&#45;&gt;Node17</title>
<path fill="none" stroke="midnightblue" d="M688.72,-81.25C702.62,-79.43 718.91,-77.3 734.6,-75.24"/>
<polygon fill="midnightblue" stroke="midnightblue" points="735.33,-78.68 744.79,-73.91 734.42,-71.74 735.33,-78.68"/>
</g>
<!-- Node20 -->
<g id="node20" class="node">
<title>Node20</title>
<g id="a_node20"><a xlink:href="platform_8c.html#a9e362db01de0933bdd8b17971a9c3d7a" target="_top" xlink:title=" ">
<polygon fill="none" stroke="black" points="440,-190.5 440,-209.5 556,-209.5 556,-190.5 440,-190.5"/>
<text text-anchor="middle" x="498" y="-197.5" font-family="Helvetica,sans-Serif" font-size="10.00">__am_get_example_uc</text>
</a>
</g>
</g>
<!-- Node19&#45;&gt;Node20 -->
<g id="edge22" class="edge">
<title>Node19&#45;&gt;Node20</title>
<path fill="none" stroke="midnightblue" d="M393.8,-200C404.24,-200 416.83,-200 429.57,-200"/>
<polygon fill="midnightblue" stroke="midnightblue" points="429.79,-203.5 439.79,-200 429.79,-196.5 429.79,-203.5"/>
</g>
</g>
</svg>
