<?xml version="1.0" encoding="UTF-8" standalone="no"?>
<!DOCTYPE svg PUBLIC "-//W3C//DTD SVG 1.1//EN"
 "http://www.w3.org/Graphics/SVG/1.1/DTD/svg11.dtd">
<!-- Generated by graphviz version 2.50.0 (20220203.2022)
 -->
<!-- Title: __am_ioe_init Pages: 1 -->
<svg width="825pt" height="313pt"
 viewBox="0.00 0.00 825.00 313.00" xmlns="http://www.w3.org/2000/svg" xmlns:xlink="http://www.w3.org/1999/xlink">
<g id="graph0" class="graph" transform="scale(1 1) rotate(0) translate(4 309)">
<title>__am_ioe_init</title>
<!-- Node1 -->
<g id="node1" class="node">
<title>Node1</title>
<g id="a_node1"><a xlink:title=" ">
<polygon fill="#bfbfbf" stroke="black" points="0,-171.5 0,-190.5 77,-190.5 77,-171.5 0,-171.5"/>
<text text-anchor="middle" x="38.5" y="-178.5" font-family="Helvetica,sans-Serif" font-size="10.00">__am_ioe_init</text>
</a>
</g>
</g>
<!-- Node2 -->
<g id="node2" class="node">
<title>Node2</title>
<g id="a_node2"><a xlink:href="audio_8c.html#aeafbbf0a74478c9fbf1d6bb3e0d359d0" target="_top" xlink:title=" ">
<polygon fill="none" stroke="black" points="113,-266.5 113,-285.5 200,-285.5 200,-266.5 113,-266.5"/>
<text text-anchor="middle" x="156.5" y="-273.5" font-family="Helvetica,sans-Serif" font-size="10.00">__am_audio_init</text>
</a>
</g>
</g>
<!-- Node1&#45;&gt;Node2 -->
<g id="edge1" class="edge">
<title>Node1&#45;&gt;Node2</title>
<path fill="none" stroke="midnightblue" d="M46.71,-190.54C58.91,-206.16 85.04,-237.41 113,-257 115.5,-258.75 118.19,-260.4 120.95,-261.94"/>
<polygon fill="midnightblue" stroke="midnightblue" points="119.42,-265.08 129.92,-266.46 122.57,-258.83 119.42,-265.08"/>
</g>
<!-- Node3 -->
<g id="node3" class="node">
<title>Node3</title>
<g id="a_node3"><a xlink:href="disk_8c.html#a85a821a1956812f3ed4b2ac56f17a3a9" target="_top" xlink:title=" ">
<polygon fill="none" stroke="black" points="115.5,-228.5 115.5,-247.5 197.5,-247.5 197.5,-228.5 115.5,-228.5"/>
<text text-anchor="middle" x="156.5" y="-235.5" font-family="Helvetica,sans-Serif" font-size="10.00">__am_disk_init</text>
</a>
</g>
</g>
<!-- Node1&#45;&gt;Node3 -->
<g id="edge2" class="edge">
<title>Node1&#45;&gt;Node3</title>
<path fill="none" stroke="midnightblue" d="M57.48,-190.66C72.27,-198.52 93.85,-209.78 113,-219 116.58,-220.73 120.36,-222.49 124.12,-224.22"/>
<polygon fill="midnightblue" stroke="midnightblue" points="122.78,-227.45 133.33,-228.37 125.66,-221.07 122.78,-227.45"/>
</g>
<!-- Node4 -->
<g id="node4" class="node">
<title>Node4</title>
<g id="a_node4"><a xlink:href="gpu_8c.html#a374867a82bb68896aa79bea1f6d5eb2b" target="_top" xlink:title=" ">
<polygon fill="none" stroke="black" points="116.5,-190.5 116.5,-209.5 196.5,-209.5 196.5,-190.5 116.5,-190.5"/>
<text text-anchor="middle" x="156.5" y="-197.5" font-family="Helvetica,sans-Serif" font-size="10.00">__am_gpu_init</text>
</a>
</g>
</g>
<!-- Node1&#45;&gt;Node4 -->
<g id="edge3" class="edge">
<title>Node1&#45;&gt;Node4</title>
<path fill="none" stroke="midnightblue" d="M77.16,-187.17C86.49,-188.7 96.62,-190.36 106.41,-191.96"/>
<polygon fill="midnightblue" stroke="midnightblue" points="106,-195.44 116.43,-193.6 107.13,-188.53 106,-195.44"/>
</g>
<!-- Node6 -->
<g id="node6" class="node">
<title>Node6</title>
<g id="a_node6"><a xlink:href="input_8c.html#a02d166c8d2549e580fd16379de9e80f1" target="_top" xlink:title=" ">
<polygon fill="none" stroke="black" points="114,-152.5 114,-171.5 199,-171.5 199,-152.5 114,-152.5"/>
<text text-anchor="middle" x="156.5" y="-159.5" font-family="Helvetica,sans-Serif" font-size="10.00">__am_input_init</text>
</a>
</g>
</g>
<!-- Node1&#45;&gt;Node6 -->
<g id="edge5" class="edge">
<title>Node1&#45;&gt;Node6</title>
<path fill="none" stroke="midnightblue" d="M77.16,-174.83C85.62,-173.45 94.74,-171.95 103.67,-170.49"/>
<polygon fill="midnightblue" stroke="midnightblue" points="104.31,-173.93 113.61,-168.86 103.18,-167.02 104.31,-173.93"/>
</g>
<!-- Node24 -->
<g id="node24" class="node">
<title>Node24</title>
<g id="a_node24"><a xlink:href="timer_8c.html#a6fcdcd5b43b132b68a427c217be894b0" target="_top" xlink:title=" ">
<polygon fill="none" stroke="black" points="113.5,-114.5 113.5,-133.5 199.5,-133.5 199.5,-114.5 113.5,-114.5"/>
<text text-anchor="middle" x="156.5" y="-121.5" font-family="Helvetica,sans-Serif" font-size="10.00">__am_timer_init</text>
</a>
</g>
</g>
<!-- Node1&#45;&gt;Node24 -->
<g id="edge23" class="edge">
<title>Node1&#45;&gt;Node24</title>
<path fill="none" stroke="midnightblue" d="M57.48,-171.34C72.27,-163.48 93.85,-152.22 113,-143 116.58,-141.27 120.36,-139.51 124.12,-137.78"/>
<polygon fill="midnightblue" stroke="midnightblue" points="125.66,-140.93 133.33,-133.63 122.78,-134.55 125.66,-140.93"/>
</g>
<!-- Node25 -->
<g id="node25" class="node">
<title>Node25</title>
<g id="a_node25"><a xlink:href="native_2ioe_8c.html#a6ade281e99f1f270ffeebb9d82416221" target="_top" xlink:title=" ">
<polygon fill="none" stroke="black" points="142,-76.5 142,-95.5 171,-95.5 171,-76.5 142,-76.5"/>
<text text-anchor="middle" x="156.5" y="-83.5" font-family="Helvetica,sans-Serif" font-size="10.00">fail</text>
</a>
</g>
</g>
<!-- Node1&#45;&gt;Node25 -->
<g id="edge24" class="edge">
<title>Node1&#45;&gt;Node25</title>
<path fill="none" stroke="midnightblue" d="M46.71,-171.46C58.91,-155.84 85.04,-124.59 113,-105 118.82,-100.92 125.66,-97.4 132.12,-94.54"/>
<polygon fill="midnightblue" stroke="midnightblue" points="133.85,-97.62 141.79,-90.6 131.2,-91.14 133.85,-97.62"/>
</g>
<!-- Node5 -->
<g id="node5" class="node">
<title>Node5</title>
<g id="a_node5"><a xlink:href="gpu_8c.html#a8671032d771362f684c8ee31cad0ed02" target="_top" xlink:title=" ">
<polygon fill="none" stroke="black" points="237,-190.5 237,-209.5 308,-209.5 308,-190.5 237,-190.5"/>
<text text-anchor="middle" x="272.5" y="-197.5" font-family="Helvetica,sans-Serif" font-size="10.00">texture_sync</text>
</a>
</g>
</g>
<!-- Node4&#45;&gt;Node5 -->
<g id="edge4" class="edge">
<title>Node4&#45;&gt;Node5</title>
<path fill="none" stroke="midnightblue" d="M196.73,-200C206.39,-200 216.8,-200 226.7,-200"/>
<polygon fill="midnightblue" stroke="midnightblue" points="226.77,-203.5 236.77,-200 226.77,-196.5 226.77,-203.5"/>
</g>
<!-- Node7 -->
<g id="node7" class="node">
<title>Node7</title>
<g id="a_node7"><a xlink:href="input_8c.html#a77413c19d2c314aba317257b3cafb1c7" target="_top" xlink:title=" ">
<polygon fill="none" stroke="black" points="236,-152.5 236,-171.5 309,-171.5 309,-152.5 236,-152.5"/>
<text text-anchor="middle" x="272.5" y="-159.5" font-family="Helvetica,sans-Serif" font-size="10.00">event_thread</text>
</a>
</g>
</g>
<!-- Node6&#45;&gt;Node7 -->
<g id="edge6" class="edge">
<title>Node6&#45;&gt;Node7</title>
<path fill="none" stroke="midnightblue" d="M199.3,-162C207.89,-162 216.97,-162 225.69,-162"/>
<polygon fill="midnightblue" stroke="midnightblue" points="225.71,-165.5 235.71,-162 225.71,-158.5 225.71,-165.5"/>
</g>
<!-- Node8 -->
<g id="node8" class="node">
<title>Node8</title>
<g id="a_node8"><a xlink:href="platform_8c.html#ac9a72275bbb5c5a92fdd21dfb051b5d4" target="_top" xlink:title=" ">
<polygon fill="none" stroke="black" points="345,-171.5 345,-190.5 452,-190.5 452,-171.5 345,-171.5"/>
<text text-anchor="middle" x="398.5" y="-178.5" font-family="Helvetica,sans-Serif" font-size="10.00">__am_send_kbd_intr</text>
</a>
</g>
</g>
<!-- Node7&#45;&gt;Node8 -->
<g id="edge7" class="edge">
<title>Node7&#45;&gt;Node8</title>
<path fill="none" stroke="midnightblue" d="M309.03,-167.44C317.14,-168.69 326,-170.04 334.87,-171.4"/>
<polygon fill="midnightblue" stroke="midnightblue" points="334.44,-174.88 344.86,-172.93 335.5,-167.96 334.44,-174.88"/>
</g>
<!-- Node9 -->
<g id="node9" class="node">
<title>Node9</title>
<g id="a_node9"><a xlink:href="x86_2qemu_2trm_8c.html#a483cb97188e557c3c68d3a1572c2cc92" target="_top" xlink:title=" ">
<polygon fill="none" stroke="black" points="382.5,-133.5 382.5,-152.5 414.5,-152.5 414.5,-133.5 382.5,-133.5"/>
<text text-anchor="middle" x="398.5" y="-140.5" font-family="Helvetica,sans-Serif" font-size="10.00">halt</text>
</a>
</g>
</g>
<!-- Node7&#45;&gt;Node9 -->
<g id="edge8" class="edge">
<title>Node7&#45;&gt;Node9</title>
<path fill="none" stroke="midnightblue" d="M309.03,-156.56C329.28,-153.45 354.16,-149.64 372.37,-146.85"/>
<polygon fill="midnightblue" stroke="midnightblue" points="373.14,-150.27 382.49,-145.3 372.08,-143.35 373.14,-150.27"/>
</g>
<!-- Node10 -->
<g id="node10" class="node">
<title>Node10</title>
<g id="a_node10"><a xlink:href="platform_8c.html#a66cf43dfc7e13b3775d6d2040722da59" target="_top" xlink:title=" ">
<polygon fill="none" stroke="black" points="493.5,-275.5 493.5,-294.5 594.5,-294.5 594.5,-275.5 493.5,-275.5"/>
<text text-anchor="middle" x="544" y="-282.5" font-family="Helvetica,sans-Serif" font-size="10.00">__am_exit_platform</text>
</a>
</g>
</g>
<!-- Node9&#45;&gt;Node10 -->
<g id="edge9" class="edge">
<title>Node9&#45;&gt;Node10</title>
<path fill="none" stroke="midnightblue" d="M414.67,-145.01C426.26,-147.29 441.92,-152.07 452,-162 484.17,-193.69 457.85,-223.39 488,-257 492.97,-262.54 499.29,-267.13 505.86,-270.89"/>
<polygon fill="midnightblue" stroke="midnightblue" points="504.38,-274.06 514.87,-275.5 507.56,-267.83 504.38,-274.06"/>
</g>
<!-- Node12 -->
<g id="node12" class="node">
<title>Node12</title>
<g id="a_node12"><a xlink:href="x86_2qemu_2mpe_8c.html#a0a540532023afb1f31b6f21ce053483b" target="_top" xlink:title=" ">
<polygon fill="none" stroke="black" points="488,-228.5 488,-247.5 600,-247.5 600,-228.5 488,-228.5"/>
<text text-anchor="middle" x="544" y="-235.5" font-family="Helvetica,sans-Serif" font-size="10.00">__am_stop_the_world</text>
</a>
</g>
</g>
<!-- Node9&#45;&gt;Node12 -->
<g id="edge11" class="edge">
<title>Node9&#45;&gt;Node12</title>
<path fill="none" stroke="midnightblue" d="M414.61,-145.7C425.87,-148.33 441.12,-153.25 452,-162 475.35,-180.78 464.52,-200.39 488,-219 490.26,-220.79 492.71,-222.42 495.26,-223.9"/>
<polygon fill="midnightblue" stroke="midnightblue" points="493.77,-227.07 504.29,-228.38 496.89,-220.8 493.77,-227.07"/>
</g>
<!-- Node18 -->
<g id="node18" class="node">
<title>Node18</title>
<g id="a_node18"><a xlink:href="x86_8h.html#acc919e7809ef1db2b20aa3804f540b5c" target="_top" xlink:title=" ">
<polygon fill="none" stroke="black" points="529.5,-190.5 529.5,-209.5 558.5,-209.5 558.5,-190.5 529.5,-190.5"/>
<text text-anchor="middle" x="544" y="-197.5" font-family="Helvetica,sans-Serif" font-size="10.00">cli</text>
</a>
</g>
</g>
<!-- Node9&#45;&gt;Node18 -->
<g id="edge17" class="edge">
<title>Node9&#45;&gt;Node18</title>
<path fill="none" stroke="midnightblue" d="M414.88,-147.94C425.47,-151.49 439.77,-156.59 452,-162 468.55,-169.32 471.4,-173.8 488,-181 498.18,-185.41 509.75,-189.54 519.64,-192.81"/>
<polygon fill="midnightblue" stroke="midnightblue" points="518.63,-196.16 529.22,-195.88 520.77,-189.49 518.63,-196.16"/>
</g>
<!-- Node19 -->
<g id="node19" class="node">
<title>Node19</title>
<g id="a_node19"><a xlink:href="x86_2qemu_2mpe_8c.html#ab701de78cad32896c923ce900087e714" target="_top" xlink:title=" ">
<polygon fill="none" stroke="black" points="510,-152.5 510,-171.5 578,-171.5 578,-152.5 510,-152.5"/>
<text text-anchor="middle" x="544" y="-159.5" font-family="Helvetica,sans-Serif" font-size="10.00">cpu_current</text>
</a>
</g>
</g>
<!-- Node9&#45;&gt;Node19 -->
<g id="edge18" class="edge">
<title>Node9&#45;&gt;Node19</title>
<path fill="none" stroke="midnightblue" d="M414.59,-145C434.58,-147.64 470.7,-152.43 499.55,-156.25"/>
<polygon fill="midnightblue" stroke="midnightblue" points="499.43,-159.76 509.8,-157.6 500.35,-152.82 499.43,-159.76"/>
</g>
<!-- Node20 -->
<g id="node20" class="node">
<title>Node20</title>
<g id="a_node20"><a xlink:href="x86_8h.html#a2adfe40c0aadff727889d263815cb8ed" target="_top" xlink:title=" ">
<polygon fill="none" stroke="black" points="529.5,-114.5 529.5,-133.5 558.5,-133.5 558.5,-114.5 529.5,-114.5"/>
<text text-anchor="middle" x="544" y="-121.5" font-family="Helvetica,sans-Serif" font-size="10.00">hlt</text>
</a>
</g>
</g>
<!-- Node9&#45;&gt;Node20 -->
<g id="edge19" class="edge">
<title>Node9&#45;&gt;Node20</title>
<path fill="none" stroke="midnightblue" d="M414.59,-141C439.58,-137.69 489.76,-131.05 519.45,-127.12"/>
<polygon fill="midnightblue" stroke="midnightblue" points="519.93,-130.59 529.38,-125.8 519.01,-123.65 519.93,-130.59"/>
</g>
<!-- Node21 -->
<g id="node21" class="node">
<title>Node21</title>
<g id="a_node21"><a xlink:href="x86_8h.html#af92fc55c49437b9152499a13ba2b6585" target="_top" xlink:title=" ">
<polygon fill="none" stroke="black" points="525,-76.5 525,-95.5 563,-95.5 563,-76.5 525,-76.5"/>
<text text-anchor="middle" x="544" y="-83.5" font-family="Helvetica,sans-Serif" font-size="10.00">outw</text>
</a>
</g>
</g>
<!-- Node9&#45;&gt;Node21 -->
<g id="edge20" class="edge">
<title>Node9&#45;&gt;Node21</title>
<path fill="none" stroke="midnightblue" d="M414.71,-136.07C432.23,-128.18 461.96,-115.07 488,-105 496.67,-101.65 506.21,-98.25 514.88,-95.27"/>
<polygon fill="midnightblue" stroke="midnightblue" points="516.2,-98.52 524.55,-92 513.95,-91.89 516.2,-98.52"/>
</g>
<!-- Node22 -->
<g id="node22" class="node">
<title>Node22</title>
<g id="a_node22"><a xlink:href="stdio_8c.html#a55f3d956bb2ba20b5059e9e25484a47f" target="_top" xlink:title=" ">
<polygon fill="none" stroke="black" points="525,-38.5 525,-57.5 563,-57.5 563,-38.5 525,-38.5"/>
<text text-anchor="middle" x="544" y="-45.5" font-family="Helvetica,sans-Serif" font-size="10.00">printf</text>
</a>
</g>
</g>
<!-- Node9&#45;&gt;Node22 -->
<g id="edge21" class="edge">
<title>Node9&#45;&gt;Node22</title>
<path fill="none" stroke="midnightblue" d="M408.4,-133.27C423.42,-117.38 455.33,-85.75 488,-67 496.4,-62.18 506.23,-58.3 515.23,-55.34"/>
<polygon fill="midnightblue" stroke="midnightblue" points="516.38,-58.65 524.93,-52.38 514.34,-51.95 516.38,-58.65"/>
</g>
<!-- Node23 -->
<g id="node23" class="node">
<title>Node23</title>
<g id="a_node23"><a xlink:href="native_2trm_8c.html#a6351d8706733262e7e325926b1a9aab7" target="_top" xlink:title=" ">
<polygon fill="none" stroke="black" points="523.5,-0.5 523.5,-19.5 564.5,-19.5 564.5,-0.5 523.5,-0.5"/>
<text text-anchor="middle" x="544" y="-7.5" font-family="Helvetica,sans-Serif" font-size="10.00">putch</text>
</a>
</g>
</g>
<!-- Node9&#45;&gt;Node23 -->
<g id="edge22" class="edge">
<title>Node9&#45;&gt;Node23</title>
<path fill="none" stroke="midnightblue" d="M404.5,-133.21C416.16,-111.35 447.26,-58.18 488,-29 495.56,-23.59 504.78,-19.61 513.51,-16.74"/>
<polygon fill="midnightblue" stroke="midnightblue" points="514.77,-20.02 523.38,-13.85 512.8,-13.3 514.77,-20.02"/>
</g>
<!-- Node11 -->
<g id="node11" class="node">
<title>Node11</title>
<g id="a_node11"><a xlink:href="x86_2qemu_2mpe_8c.html#af486ec575d47720d28eee63644206110" target="_top" xlink:title=" ">
<polygon fill="none" stroke="black" points="655.5,-285.5 655.5,-304.5 717.5,-304.5 717.5,-285.5 655.5,-285.5"/>
<text text-anchor="middle" x="686.5" y="-292.5" font-family="Helvetica,sans-Serif" font-size="10.00">cpu_count</text>
</a>
</g>
</g>
<!-- Node10&#45;&gt;Node11 -->
<g id="edge10" class="edge">
<title>Node10&#45;&gt;Node11</title>
<path fill="none" stroke="midnightblue" d="M594.54,-288.53C611.13,-289.71 629.41,-291.01 645.21,-292.13"/>
<polygon fill="midnightblue" stroke="midnightblue" points="644.96,-295.62 655.19,-292.84 645.46,-288.64 644.96,-295.62"/>
</g>
<!-- Node13 -->
<g id="node13" class="node">
<title>Node13</title>
<g id="a_node13"><a xlink:href="x86_2qemu_2ioe_8c.html#a88a238fee7cd006afa69ea97e4914a09" target="_top" xlink:title=" ">
<polygon fill="none" stroke="black" points="636,-247.5 636,-266.5 737,-266.5 737,-247.5 636,-247.5"/>
<text text-anchor="middle" x="686.5" y="-254.5" font-family="Helvetica,sans-Serif" font-size="10.00">__am_lapic_bootap</text>
</a>
</g>
</g>
<!-- Node12&#45;&gt;Node13 -->
<g id="edge12" class="edge">
<title>Node12&#45;&gt;Node13</title>
<path fill="none" stroke="midnightblue" d="M600.13,-245.45C608.43,-246.58 617.04,-247.74 625.44,-248.88"/>
<polygon fill="midnightblue" stroke="midnightblue" points="625.18,-252.38 635.56,-250.25 626.12,-245.44 625.18,-252.38"/>
</g>
<!-- Node16 -->
<g id="node16" class="node">
<title>Node16</title>
<g id="a_node16"><a xlink:href="x86_8h.html#adfa01b89ceed9e7a87f185f4e441aa16" target="_top" xlink:title=" ">
<polygon fill="none" stroke="black" points="652.5,-209.5 652.5,-228.5 720.5,-228.5 720.5,-209.5 652.5,-209.5"/>
<text text-anchor="middle" x="686.5" y="-216.5" font-family="Helvetica,sans-Serif" font-size="10.00">boot_record</text>
</a>
</g>
</g>
<!-- Node12&#45;&gt;Node16 -->
<g id="edge15" class="edge">
<title>Node12&#45;&gt;Node16</title>
<path fill="none" stroke="midnightblue" d="M600.13,-230.55C614.08,-228.66 628.87,-226.66 642.14,-224.86"/>
<polygon fill="midnightblue" stroke="midnightblue" points="642.98,-228.28 652.42,-223.47 642.05,-221.34 642.98,-228.28"/>
</g>
<!-- Node17 -->
<g id="node17" class="node">
<title>Node17</title>
<g id="a_node17"><a xlink:href="native_2mpe_8c.html#a806195bfb27a695274680a7ab6400663" target="_top" xlink:title=" ">
<polygon fill="none" stroke="black" points="652.5,-171.5 652.5,-190.5 720.5,-190.5 720.5,-171.5 652.5,-171.5"/>
<text text-anchor="middle" x="686.5" y="-178.5" font-family="Helvetica,sans-Serif" font-size="10.00">cpu_current</text>
</a>
</g>
</g>
<!-- Node12&#45;&gt;Node17 -->
<g id="edge16" class="edge">
<title>Node12&#45;&gt;Node17</title>
<path fill="none" stroke="midnightblue" d="M575.29,-228.47C583.41,-225.66 592.12,-222.42 600,-219 616.6,-211.8 619.53,-207.48 636,-200 640.22,-198.09 644.69,-196.19 649.15,-194.38"/>
<polygon fill="midnightblue" stroke="midnightblue" points="650.78,-197.5 658.8,-190.58 648.21,-190.99 650.78,-197.5"/>
</g>
<!-- Node14 -->
<g id="node14" class="node">
<title>Node14</title>
<g id="a_node14"><a xlink:href="x86_2qemu_2ioe_8c.html#a72d9ed0bfe1066367763e044b7a7b7c3" target="_top" xlink:title=" ">
<polygon fill="none" stroke="black" points="773,-266.5 773,-285.5 817,-285.5 817,-266.5 773,-266.5"/>
<text text-anchor="middle" x="795" y="-273.5" font-family="Helvetica,sans-Serif" font-size="10.00">lapicw</text>
</a>
</g>
</g>
<!-- Node13&#45;&gt;Node14 -->
<g id="edge13" class="edge">
<title>Node13&#45;&gt;Node14</title>
<path fill="none" stroke="midnightblue" d="M737.01,-265.83C745.77,-267.4 754.67,-268.98 762.75,-270.42"/>
<polygon fill="midnightblue" stroke="midnightblue" points="762.36,-273.91 772.82,-272.22 763.59,-267.02 762.36,-273.91"/>
</g>
<!-- Node15 -->
<g id="node15" class="node">
<title>Node15</title>
<g id="a_node15"><a xlink:href="x86_8h.html#ade961b44e45ddacbc3c3b7609cf36dc6" target="_top" xlink:title=" ">
<polygon fill="none" stroke="black" points="777.5,-228.5 777.5,-247.5 812.5,-247.5 812.5,-228.5 777.5,-228.5"/>
<text text-anchor="middle" x="795" y="-235.5" font-family="Helvetica,sans-Serif" font-size="10.00">outb</text>
</a>
</g>
</g>
<!-- Node13&#45;&gt;Node15 -->
<g id="edge14" class="edge">
<title>Node13&#45;&gt;Node15</title>
<path fill="none" stroke="midnightblue" d="M737.01,-248.17C747.47,-246.3 758.13,-244.4 767.35,-242.75"/>
<polygon fill="midnightblue" stroke="midnightblue" points="768.2,-246.16 777.43,-240.96 766.97,-239.27 768.2,-246.16"/>
</g>
</g>
</svg>
