<?xml version="1.0" encoding="UTF-8" standalone="no"?>
<!DOCTYPE svg PUBLIC "-//W3C//DTD SVG 1.1//EN"
 "http://www.w3.org/Graphics/SVG/1.1/DTD/svg11.dtd">
<!-- Generated by graphviz version 2.50.0 (20220203.2022)
 -->
<!-- Title: MODULE_DEF Pages: 1 -->
<svg width="348pt" height="85pt"
 viewBox="0.00 0.00 348.00 85.00" xmlns="http://www.w3.org/2000/svg" xmlns:xlink="http://www.w3.org/1999/xlink">
<g id="graph0" class="graph" transform="scale(1 1) rotate(0) translate(4 81)">
<title>MODULE_DEF</title>
<!-- Node1 -->
<g id="node1" class="node">
<title>Node1</title>
<g id="a_node1"><a xlink:title=" ">
<polygon fill="#bfbfbf" stroke="black" points="0,-38.5 0,-57.5 83,-57.5 83,-38.5 0,-38.5"/>
<text text-anchor="middle" x="41.5" y="-45.5" font-family="Helvetica,sans-Serif" font-size="10.00">MODULE_DEF</text>
</a>
</g>
</g>
<!-- Node2 -->
<g id="node2" class="node">
<title>Node2</title>
<g id="a_node2"><a xlink:href="os_8c.html#aef4448ba4711b237d8254529f2a4b621" target="_top" xlink:title=" ">
<polygon fill="none" stroke="black" points="119.5,-57.5 119.5,-76.5 164.5,-76.5 164.5,-57.5 119.5,-57.5"/>
<text text-anchor="middle" x="142" y="-64.5" font-family="Helvetica,sans-Serif" font-size="10.00">os_init</text>
</a>
</g>
</g>
<!-- Node1&#45;&gt;Node2 -->
<g id="edge1" class="edge">
<title>Node1&#45;&gt;Node2</title>
<path fill="none" stroke="midnightblue" d="M83.13,-55.84C91.85,-57.52 100.94,-59.27 109.27,-60.88"/>
<polygon fill="midnightblue" stroke="midnightblue" points="108.83,-64.36 119.31,-62.82 110.16,-57.49 108.83,-64.36"/>
</g>
<!-- Node3 -->
<g id="node3" class="node">
<title>Node3</title>
<g id="a_node3"><a xlink:href="os_8c.html#a5f9cb32664e017ca15c49ec66e5342e4" target="_top" xlink:title=" ">
<polygon fill="none" stroke="black" points="119,-19.5 119,-38.5 165,-38.5 165,-19.5 119,-19.5"/>
<text text-anchor="middle" x="142" y="-26.5" font-family="Helvetica,sans-Serif" font-size="10.00">os_run</text>
</a>
</g>
</g>
<!-- Node1&#45;&gt;Node3 -->
<g id="edge2" class="edge">
<title>Node1&#45;&gt;Node3</title>
<path fill="none" stroke="midnightblue" d="M83.13,-40.16C91.7,-38.51 100.63,-36.79 108.84,-35.2"/>
<polygon fill="midnightblue" stroke="midnightblue" points="109.61,-38.62 118.77,-33.29 108.28,-31.75 109.61,-38.62"/>
</g>
<!-- Node4 -->
<g id="node4" class="node">
<title>Node4</title>
<g id="a_node4"><a xlink:href="x86_2qemu_2mpe_8c.html#ab701de78cad32896c923ce900087e714" target="_top" xlink:title=" ">
<polygon fill="none" stroke="black" points="201,-38.5 201,-57.5 269,-57.5 269,-38.5 201,-38.5"/>
<text text-anchor="middle" x="235" y="-45.5" font-family="Helvetica,sans-Serif" font-size="10.00">cpu_current</text>
</a>
</g>
</g>
<!-- Node3&#45;&gt;Node4 -->
<g id="edge3" class="edge">
<title>Node3&#45;&gt;Node4</title>
<path fill="none" stroke="midnightblue" d="M165.03,-33.6C172.83,-35.23 181.89,-37.12 190.83,-38.99"/>
<polygon fill="midnightblue" stroke="midnightblue" points="190.3,-42.45 200.8,-41.07 191.73,-35.6 190.3,-42.45"/>
</g>
<!-- Node5 -->
<g id="node5" class="node">
<title>Node5</title>
<g id="a_node5"><a xlink:href="x86_2qemu_2trm_8c.html#a6351d8706733262e7e325926b1a9aab7" target="_top" xlink:title=" ">
<polygon fill="none" stroke="black" points="214.5,-0.5 214.5,-19.5 255.5,-19.5 255.5,-0.5 214.5,-0.5"/>
<text text-anchor="middle" x="235" y="-7.5" font-family="Helvetica,sans-Serif" font-size="10.00">putch</text>
</a>
</g>
</g>
<!-- Node3&#45;&gt;Node5 -->
<g id="edge4" class="edge">
<title>Node3&#45;&gt;Node5</title>
<path fill="none" stroke="midnightblue" d="M165.03,-24.4C176.9,-21.92 191.7,-18.83 204.55,-16.15"/>
<polygon fill="midnightblue" stroke="midnightblue" points="205.27,-19.57 214.34,-14.1 203.84,-12.72 205.27,-19.57"/>
</g>
<!-- Node6 -->
<g id="node6" class="node">
<title>Node6</title>
<g id="a_node6"><a xlink:href="x86_8h.html#ade961b44e45ddacbc3c3b7609cf36dc6" target="_top" xlink:title=" ">
<polygon fill="none" stroke="black" points="305,-0.5 305,-19.5 340,-19.5 340,-0.5 305,-0.5"/>
<text text-anchor="middle" x="322.5" y="-7.5" font-family="Helvetica,sans-Serif" font-size="10.00">outb</text>
</a>
</g>
</g>
<!-- Node5&#45;&gt;Node6 -->
<g id="edge5" class="edge">
<title>Node5&#45;&gt;Node6</title>
<path fill="none" stroke="midnightblue" d="M255.83,-10C267.35,-10 282.03,-10 294.58,-10"/>
<polygon fill="midnightblue" stroke="midnightblue" points="294.94,-13.5 304.94,-10 294.94,-6.5 294.94,-13.5"/>
</g>
</g>
</svg>
