<?xml version="1.0" encoding="UTF-8" standalone="no"?>
<!DOCTYPE svg PUBLIC "-//W3C//DTD SVG 1.1//EN"
 "http://www.w3.org/Graphics/SVG/1.1/DTD/svg11.dtd">
<!-- Generated by graphviz version 3.0.0 (20220413.0106)
 -->
<!-- Title: MODULE_DEF Pages: 1 -->
<svg width="689pt" height="294pt"
 viewBox="0.00 0.00 689.00 294.00" xmlns="http://www.w3.org/2000/svg" xmlns:xlink="http://www.w3.org/1999/xlink">
<g id="graph0" class="graph" transform="scale(1 1) rotate(0) translate(4 290)">
<title>MODULE_DEF</title>
<!-- Node1 -->
<g id="node1" class="node">
<title>Node1</title>
<g id="a_node1"><a xlink:title=" ">
<polygon fill="#bfbfbf" stroke="black" points="0,-209.5 0,-228.5 83,-228.5 83,-209.5 0,-209.5"/>
<text text-anchor="middle" x="41.5" y="-216.5" font-family="Helvetica,sans-Serif" font-size="10.00">MODULE_DEF</text>
</a>
</g>
</g>
<!-- Node2 -->
<g id="node2" class="node">
<title>Node2</title>
<g id="a_node2"><a xlink:href="os_8c.html#aef4448ba4711b237d8254529f2a4b621" target="_top" xlink:title="initialze system; will be executed only once (not per cpu)">
<polygon fill="none" stroke="black" points="126,-266.5 126,-285.5 171,-285.5 171,-266.5 126,-266.5"/>
<text text-anchor="middle" x="148.5" y="-273.5" font-family="Helvetica,sans-Serif" font-size="10.00">os_init</text>
</a>
</g>
</g>
<!-- Node1&#45;&gt;Node2 -->
<g id="edge1" class="edge">
<title>Node1&#45;&gt;Node2</title>
<path fill="none" stroke="midnightblue" d="M60.31,-228.67C76.93,-237.69 101.94,-251.27 120.92,-261.57"/>
<polygon fill="midnightblue" stroke="midnightblue" points="119.49,-264.78 129.95,-266.47 122.83,-258.63 119.49,-264.78"/>
</g>
<!-- Node4 -->
<g id="node4" class="node">
<title>Node4</title>
<g id="a_node4"><a xlink:href="os_8c.html#a5e30995c99da2c7a7f7f6e7ea690b5aa" target="_top" xlink:title="register interrupt handlers.">
<polygon fill="none" stroke="black" points="119,-228.5 119,-247.5 178,-247.5 178,-228.5 119,-228.5"/>
<text text-anchor="middle" x="148.5" y="-235.5" font-family="Helvetica,sans-Serif" font-size="10.00">os_on_irq</text>
</a>
</g>
</g>
<!-- Node1&#45;&gt;Node4 -->
<g id="edge3" class="edge">
<title>Node1&#45;&gt;Node4</title>
<path fill="none" stroke="midnightblue" d="M83.1,-226.35C91.55,-227.88 100.43,-229.48 108.81,-231"/>
<polygon fill="midnightblue" stroke="midnightblue" points="108.26,-234.46 118.72,-232.79 109.51,-227.57 108.26,-234.46"/>
</g>
<!-- Node6 -->
<g id="node6" class="node">
<title>Node6</title>
<g id="a_node6"><a xlink:href="os_8c.html#a5f9cb32664e017ca15c49ec66e5342e4" target="_top" xlink:title="cpu start entry">
<polygon fill="none" stroke="black" points="437.5,-190.5 437.5,-209.5 483.5,-209.5 483.5,-190.5 437.5,-190.5"/>
<text text-anchor="middle" x="460.5" y="-197.5" font-family="Helvetica,sans-Serif" font-size="10.00">os_run</text>
</a>
</g>
</g>
<!-- Node1&#45;&gt;Node6 -->
<g id="edge5" class="edge">
<title>Node1&#45;&gt;Node6</title>
<path fill="none" stroke="midnightblue" d="M83.24,-217.14C165.87,-213.38 351.67,-204.91 426.93,-201.48"/>
<polygon fill="midnightblue" stroke="midnightblue" points="427.37,-204.97 437.2,-201.02 427.05,-197.97 427.37,-204.97"/>
</g>
<!-- Node13 -->
<g id="node13" class="node">
<title>Node13</title>
<g id="a_node13"><a xlink:href="os_8c.html#a2be1c9facb49d4439f41b1537d0f3ef8" target="_top" xlink:title="System trap entry.">
<polygon fill="none" stroke="black" points="124,-133.5 124,-152.5 173,-152.5 173,-133.5 124,-133.5"/>
<text text-anchor="middle" x="148.5" y="-140.5" font-family="Helvetica,sans-Serif" font-size="10.00">os_trap</text>
</a>
</g>
</g>
<!-- Node1&#45;&gt;Node13 -->
<g id="edge12" class="edge">
<title>Node1&#45;&gt;Node13</title>
<path fill="none" stroke="midnightblue" d="M55.8,-209.37C73.47,-196.58 104.91,-173.83 125.98,-158.57"/>
<polygon fill="midnightblue" stroke="midnightblue" points="128.26,-161.25 134.31,-152.55 124.16,-155.58 128.26,-161.25"/>
</g>
<!-- Node3 -->
<g id="node3" class="node">
<title>Node3</title>
<g id="a_node3"><a xlink:href="spinlock_8c.html#ab80f529a7b9f49f09fc91a404731c869" target="_top" xlink:title="create spinlock">
<polygon fill="none" stroke="black" points="221.5,-266.5 221.5,-285.5 274.5,-285.5 274.5,-266.5 221.5,-266.5"/>
<text text-anchor="middle" x="248" y="-273.5" font-family="Helvetica,sans-Serif" font-size="10.00">spin_init</text>
</a>
</g>
</g>
<!-- Node2&#45;&gt;Node3 -->
<g id="edge2" class="edge">
<title>Node2&#45;&gt;Node3</title>
<path fill="none" stroke="midnightblue" d="M171.14,-276C182.83,-276 197.56,-276 210.93,-276"/>
<polygon fill="midnightblue" stroke="midnightblue" points="211.27,-279.5 221.27,-276 211.27,-272.5 211.27,-279.5"/>
</g>
<!-- Node5 -->
<g id="node5" class="node">
<title>Node5</title>
<g id="a_node5"><a xlink:href="dev__input_8c.html#a563b481ccf29d84566d2d08d53a5ef78" target="_top" xlink:title=" ">
<polygon fill="none" stroke="black" points="227.5,-228.5 227.5,-247.5 268.5,-247.5 268.5,-228.5 227.5,-228.5"/>
<text text-anchor="middle" x="248" y="-235.5" font-family="Helvetica,sans-Serif" font-size="10.00">event</text>
</a>
</g>
</g>
<!-- Node4&#45;&gt;Node5 -->
<g id="edge4" class="edge">
<title>Node4&#45;&gt;Node5</title>
<path fill="none" stroke="midnightblue" d="M178.23,-238C190.48,-238 204.77,-238 217.14,-238"/>
<polygon fill="midnightblue" stroke="midnightblue" points="217.42,-241.5 227.42,-238 217.42,-234.5 217.42,-241.5"/>
</g>
<!-- Node7 -->
<g id="node7" class="node">
<title>Node7</title>
<g id="a_node7"><a xlink:href="cte_8c.html#a79659a2b801c42951e38f3a8821acbae" target="_top" xlink:title=" ">
<polygon fill="none" stroke="black" points="539.5,-114.5 539.5,-133.5 592.5,-133.5 592.5,-114.5 539.5,-114.5"/>
<text text-anchor="middle" x="566" y="-121.5" font-family="Helvetica,sans-Serif" font-size="10.00">ienabled</text>
</a>
</g>
</g>
<!-- Node6&#45;&gt;Node7 -->
<g id="edge6" class="edge">
<title>Node6&#45;&gt;Node7</title>
<path fill="none" stroke="midnightblue" d="M481.5,-190.35C486.43,-187.61 491.56,-184.43 496,-181 514.41,-166.77 513.73,-157.4 532,-143 533.77,-141.6 535.66,-140.24 537.6,-138.93"/>
<polygon fill="midnightblue" stroke="midnightblue" points="539.6,-141.81 546.23,-133.55 535.9,-135.87 539.6,-141.81"/>
</g>
<!-- Node9 -->
<g id="node9" class="node">
<title>Node9</title>
<g id="a_node9"><a xlink:href="cte_8c.html#a4a139958742786c5085172be1f69bfd0" target="_top" xlink:title=" ">
<polygon fill="none" stroke="black" points="550,-152.5 550,-171.5 582,-171.5 582,-152.5 550,-152.5"/>
<text text-anchor="middle" x="566" y="-159.5" font-family="Helvetica,sans-Serif" font-size="10.00">iset</text>
</a>
</g>
</g>
<!-- Node6&#45;&gt;Node9 -->
<g id="edge8" class="edge">
<title>Node6&#45;&gt;Node9</title>
<path fill="none" stroke="midnightblue" d="M483.7,-191.85C500.39,-185.72 523.23,-177.34 540.46,-171.01"/>
<polygon fill="midnightblue" stroke="midnightblue" points="541.68,-174.29 549.86,-167.56 539.27,-167.72 541.68,-174.29"/>
</g>
<!-- Node12 -->
<g id="node12" class="node">
<title>Node12</title>
<g id="a_node12"><a xlink:href="cte_8c.html#a58c8b2ad0ea491a6642e5e1cbd358c89" target="_top" xlink:title=" ">
<polygon fill="none" stroke="black" points="548,-190.5 548,-209.5 584,-209.5 584,-190.5 548,-190.5"/>
<text text-anchor="middle" x="566" y="-197.5" font-family="Helvetica,sans-Serif" font-size="10.00">yield</text>
</a>
</g>
</g>
<!-- Node6&#45;&gt;Node12 -->
<g id="edge11" class="edge">
<title>Node6&#45;&gt;Node12</title>
<path fill="none" stroke="midnightblue" d="M483.7,-200C499.49,-200 520.79,-200 537.63,-200"/>
<polygon fill="midnightblue" stroke="midnightblue" points="537.95,-203.5 547.95,-200 537.95,-196.5 537.95,-203.5"/>
</g>
<!-- Node8 -->
<g id="node8" class="node">
<title>Node8</title>
<g id="a_node8"><a xlink:href="x86_8h.html#a73d094f09c6a7dd3fc703aa8229933ee" target="_top" xlink:title=" ">
<polygon fill="none" stroke="black" points="636,-114.5 636,-133.5 681,-133.5 681,-114.5 636,-114.5"/>
<text text-anchor="middle" x="658.5" y="-121.5" font-family="Helvetica,sans-Serif" font-size="10.00">get_efl</text>
</a>
</g>
</g>
<!-- Node7&#45;&gt;Node8 -->
<g id="edge7" class="edge">
<title>Node7&#45;&gt;Node8</title>
<path fill="none" stroke="midnightblue" d="M592.69,-124C602.88,-124 614.71,-124 625.45,-124"/>
<polygon fill="midnightblue" stroke="midnightblue" points="625.73,-127.5 635.73,-124 625.73,-120.5 625.73,-127.5"/>
</g>
<!-- Node10 -->
<g id="node10" class="node">
<title>Node10</title>
<g id="a_node10"><a xlink:href="x86_8h.html#acc919e7809ef1db2b20aa3804f540b5c" target="_top" xlink:title=" ">
<polygon fill="none" stroke="black" points="644,-152.5 644,-171.5 673,-171.5 673,-152.5 644,-152.5"/>
<text text-anchor="middle" x="658.5" y="-159.5" font-family="Helvetica,sans-Serif" font-size="10.00">cli</text>
</a>
</g>
</g>
<!-- Node9&#45;&gt;Node10 -->
<g id="edge9" class="edge">
<title>Node9&#45;&gt;Node10</title>
<path fill="none" stroke="midnightblue" d="M582.35,-162C596.37,-162 617.3,-162 633.52,-162"/>
<polygon fill="midnightblue" stroke="midnightblue" points="633.85,-165.5 643.85,-162 633.85,-158.5 633.85,-165.5"/>
</g>
<!-- Node11 -->
<g id="node11" class="node">
<title>Node11</title>
<g id="a_node11"><a xlink:href="x86_8h.html#a4657e97b270d7af5a23da2c4d642ada2" target="_top" xlink:title=" ">
<polygon fill="none" stroke="black" points="644,-190.5 644,-209.5 673,-209.5 673,-190.5 644,-190.5"/>
<text text-anchor="middle" x="658.5" y="-197.5" font-family="Helvetica,sans-Serif" font-size="10.00">sti</text>
</a>
</g>
</g>
<!-- Node9&#45;&gt;Node11 -->
<g id="edge10" class="edge">
<title>Node9&#45;&gt;Node11</title>
<path fill="none" stroke="midnightblue" d="M582.35,-168.45C596.63,-174.44 618.11,-183.46 634.45,-190.32"/>
<polygon fill="midnightblue" stroke="midnightblue" points="633.28,-193.62 643.85,-194.27 635.99,-187.17 633.28,-193.62"/>
</g>
<!-- Node14 -->
<g id="node14" class="node">
<title>Node14</title>
<g id="a_node14"><a xlink:href="spinlock_8c.html#ad4be0d674a7ca4dc90c2dbf8b34562cc" target="_top" xlink:title="check current cpu has the lock">
<polygon fill="none" stroke="black" points="318,-114.5 318,-133.5 389,-133.5 389,-114.5 318,-114.5"/>
<text text-anchor="middle" x="353.5" y="-121.5" font-family="Helvetica,sans-Serif" font-size="10.00">spin_holding</text>
</a>
</g>
</g>
<!-- Node13&#45;&gt;Node14 -->
<g id="edge13" class="edge">
<title>Node13&#45;&gt;Node14</title>
<path fill="none" stroke="midnightblue" d="M173.18,-140.78C206.06,-137.71 266.16,-132.08 307.67,-128.2"/>
<polygon fill="midnightblue" stroke="midnightblue" points="308.16,-131.67 317.79,-127.25 307.51,-124.7 308.16,-131.67"/>
</g>
<!-- Node18 -->
<g id="node18" class="node">
<title>Node18</title>
<g id="a_node18"><a xlink:href="spinlock_8c.html#ab6f3c37ec37006951feccc3c05387cce" target="_top" xlink:title="acquire spinlock to current cpu">
<polygon fill="none" stroke="black" points="219,-76.5 219,-95.5 277,-95.5 277,-76.5 219,-76.5"/>
<text text-anchor="middle" x="248" y="-83.5" font-family="Helvetica,sans-Serif" font-size="10.00">spin_lock</text>
</a>
</g>
</g>
<!-- Node13&#45;&gt;Node18 -->
<g id="edge22" class="edge">
<title>Node13&#45;&gt;Node18</title>
<path fill="none" stroke="midnightblue" d="M166.04,-133.33C181.26,-124.43 204.06,-111.1 221.59,-100.86"/>
<polygon fill="midnightblue" stroke="midnightblue" points="223.84,-103.6 230.7,-95.53 220.31,-97.55 223.84,-103.6"/>
</g>
<!-- Node21 -->
<g id="node21" class="node">
<title>Node21</title>
<g id="a_node21"><a xlink:href="spinlock_8c.html#acdf118d615a4bc4064e991add9a80995" target="_top" xlink:title="release spinlock from current cpu">
<polygon fill="none" stroke="black" points="214,-152.5 214,-171.5 282,-171.5 282,-152.5 214,-152.5"/>
<text text-anchor="middle" x="248" y="-159.5" font-family="Helvetica,sans-Serif" font-size="10.00">spin_unlock</text>
</a>
</g>
</g>
<!-- Node13&#45;&gt;Node21 -->
<g id="edge28" class="edge">
<title>Node13&#45;&gt;Node21</title>
<path fill="none" stroke="midnightblue" d="M173.1,-147.6C182.33,-149.4 193.21,-151.52 203.74,-153.57"/>
<polygon fill="midnightblue" stroke="midnightblue" points="203.18,-157.03 213.67,-155.5 204.52,-150.16 203.18,-157.03"/>
</g>
<!-- Node15 -->
<g id="node15" class="node">
<title>Node15</title>
<g id="a_node15"><a xlink:href="mpe_8c.html#ab701de78cad32896c923ce900087e714" target="_top" xlink:title=" ">
<polygon fill="none" stroke="black" points="532,-76.5 532,-95.5 600,-95.5 600,-76.5 532,-76.5"/>
<text text-anchor="middle" x="566" y="-83.5" font-family="Helvetica,sans-Serif" font-size="10.00">cpu_current</text>
</a>
</g>
</g>
<!-- Node14&#45;&gt;Node15 -->
<g id="edge14" class="edge">
<title>Node14&#45;&gt;Node15</title>
<path fill="none" stroke="midnightblue" d="M386.58,-114.42C398.56,-111.09 412.33,-107.56 425,-105 457.19,-98.51 494.01,-93.61 521.8,-90.41"/>
<polygon fill="midnightblue" stroke="midnightblue" points="522.44,-93.86 531.99,-89.27 521.66,-86.91 522.44,-93.86"/>
</g>
<!-- Node16 -->
<g id="node16" class="node">
<title>Node16</title>
<g id="a_node16"><a xlink:href="spinlock_8c.html#afc9565dc7a5ddf77e1fa76f5d91caf78" target="_top" xlink:title="interrupt able">
<polygon fill="none" stroke="black" points="428,-152.5 428,-171.5 493,-171.5 493,-152.5 428,-152.5"/>
<text text-anchor="middle" x="460.5" y="-159.5" font-family="Helvetica,sans-Serif" font-size="10.00">spin_popcli</text>
</a>
</g>
</g>
<!-- Node14&#45;&gt;Node16 -->
<g id="edge15" class="edge">
<title>Node14&#45;&gt;Node16</title>
<path fill="none" stroke="midnightblue" d="M381,-133.59C393.8,-138.22 409.38,-143.86 423.26,-148.89"/>
<polygon fill="midnightblue" stroke="midnightblue" points="422.42,-152.3 433.01,-152.41 424.8,-145.72 422.42,-152.3"/>
</g>
<!-- Node17 -->
<g id="node17" class="node">
<title>Node17</title>
<g id="a_node17"><a xlink:href="spinlock_8c.html#ab213874cda54fdbbeb1bec1e5fa90b28" target="_top" xlink:title="interrupt disable">
<polygon fill="none" stroke="black" points="425,-114.5 425,-133.5 496,-133.5 496,-114.5 425,-114.5"/>
<text text-anchor="middle" x="460.5" y="-121.5" font-family="Helvetica,sans-Serif" font-size="10.00">spin_pushcli</text>
</a>
</g>
</g>
<!-- Node14&#45;&gt;Node17 -->
<g id="edge18" class="edge">
<title>Node14&#45;&gt;Node17</title>
<path fill="none" stroke="midnightblue" d="M389.17,-124C397.33,-124 406.13,-124 414.66,-124"/>
<polygon fill="midnightblue" stroke="midnightblue" points="414.86,-127.5 424.86,-124 414.86,-120.5 414.86,-127.5"/>
</g>
<!-- Node16&#45;&gt;Node9 -->
<g id="edge17" class="edge">
<title>Node16&#45;&gt;Node9</title>
<path fill="none" stroke="midnightblue" d="M493.12,-162C507.94,-162 525.37,-162 539.36,-162"/>
<polygon fill="midnightblue" stroke="midnightblue" points="539.72,-165.5 549.72,-162 539.72,-158.5 539.72,-165.5"/>
</g>
<!-- Node16&#45;&gt;Node15 -->
<g id="edge16" class="edge">
<title>Node16&#45;&gt;Node15</title>
<path fill="none" stroke="midnightblue" d="M481.5,-152.35C486.43,-149.61 491.56,-146.43 496,-143 514.41,-128.77 513.73,-119.4 532,-105 533.77,-103.6 535.66,-102.24 537.6,-100.93"/>
<polygon fill="midnightblue" stroke="midnightblue" points="539.6,-103.81 546.23,-95.55 535.9,-97.87 539.6,-103.81"/>
</g>
<!-- Node17&#45;&gt;Node7 -->
<g id="edge20" class="edge">
<title>Node17&#45;&gt;Node7</title>
<path fill="none" stroke="midnightblue" d="M496.25,-124C506.82,-124 518.46,-124 529.1,-124"/>
<polygon fill="midnightblue" stroke="midnightblue" points="529.34,-127.5 539.34,-124 529.34,-120.5 529.34,-127.5"/>
</g>
<!-- Node17&#45;&gt;Node9 -->
<g id="edge21" class="edge">
<title>Node17&#45;&gt;Node9</title>
<path fill="none" stroke="midnightblue" d="M487.62,-133.59C503.73,-139.5 524.28,-147.05 540.15,-152.88"/>
<polygon fill="midnightblue" stroke="midnightblue" points="539.22,-156.26 549.81,-156.42 541.63,-149.69 539.22,-156.26"/>
</g>
<!-- Node17&#45;&gt;Node15 -->
<g id="edge19" class="edge">
<title>Node17&#45;&gt;Node15</title>
<path fill="none" stroke="midnightblue" d="M487.62,-114.41C500.24,-109.78 515.59,-104.14 529.28,-99.11"/>
<polygon fill="midnightblue" stroke="midnightblue" points="530.71,-102.32 538.89,-95.59 528.3,-95.75 530.71,-102.32"/>
</g>
<!-- Node18&#45;&gt;Node14 -->
<g id="edge26" class="edge">
<title>Node18&#45;&gt;Node14</title>
<path fill="none" stroke="midnightblue" d="M275.12,-95.59C287.74,-100.22 303.09,-105.86 316.78,-110.89"/>
<polygon fill="midnightblue" stroke="midnightblue" points="315.8,-114.25 326.39,-114.41 318.21,-107.68 315.8,-114.25"/>
</g>
<!-- Node18&#45;&gt;Node15 -->
<g id="edge25" class="edge">
<title>Node18&#45;&gt;Node15</title>
<path fill="none" stroke="midnightblue" d="M277.04,-86C332.39,-86 455.99,-86 521.81,-86"/>
<polygon fill="midnightblue" stroke="midnightblue" points="521.86,-89.5 531.86,-86 521.86,-82.5 521.86,-89.5"/>
</g>
<!-- Node18&#45;&gt;Node17 -->
<g id="edge27" class="edge">
<title>Node18&#45;&gt;Node17</title>
<path fill="none" stroke="midnightblue" d="M277.07,-88.74C305.46,-91.76 350.53,-97.24 389,-105 398.31,-106.88 408.2,-109.28 417.55,-111.75"/>
<polygon fill="midnightblue" stroke="midnightblue" points="416.85,-115.18 427.42,-114.42 418.68,-108.43 416.85,-115.18"/>
</g>
<!-- Node19 -->
<g id="node19" class="node">
<title>Node19</title>
<g id="a_node19"><a xlink:href="mpe_8c.html#aaaad47c97c82065cf463f83b98b23c30" target="_top" xlink:title=" ">
<polygon fill="none" stroke="black" points="318,-0.5 318,-19.5 389,-19.5 389,-0.5 318,-0.5"/>
<text text-anchor="middle" x="353.5" y="-7.5" font-family="Helvetica,sans-Serif" font-size="10.00">atomic_xchg</text>
</a>
</g>
</g>
<!-- Node18&#45;&gt;Node19 -->
<g id="edge23" class="edge">
<title>Node18&#45;&gt;Node19</title>
<path fill="none" stroke="midnightblue" d="M261.61,-76.27C275.36,-65.71 298.08,-48.43 318,-34 321.83,-31.23 325.92,-28.32 329.91,-25.53"/>
<polygon fill="midnightblue" stroke="midnightblue" points="332.1,-28.27 338.31,-19.69 328.11,-22.52 332.1,-28.27"/>
</g>
<!-- Node20 -->
<g id="node20" class="node">
<title>Node20</title>
<g id="a_node20"><a xlink:href="x86_8h.html#a48b2a6a16dc8d7e09d327aa3803f1112" target="_top" xlink:title=" ">
<polygon fill="none" stroke="black" points="442,-0.5 442,-19.5 479,-19.5 479,-0.5 442,-0.5"/>
<text text-anchor="middle" x="460.5" y="-7.5" font-family="Helvetica,sans-Serif" font-size="10.00">xchg</text>
</a>
</g>
</g>
<!-- Node19&#45;&gt;Node20 -->
<g id="edge24" class="edge">
<title>Node19&#45;&gt;Node20</title>
<path fill="none" stroke="midnightblue" d="M389.17,-10C402.99,-10 418.67,-10 431.71,-10"/>
<polygon fill="midnightblue" stroke="midnightblue" points="431.95,-13.5 441.95,-10 431.95,-6.5 431.95,-13.5"/>
</g>
<!-- Node21&#45;&gt;Node14 -->
<g id="edge29" class="edge">
<title>Node21&#45;&gt;Node14</title>
<path fill="none" stroke="midnightblue" d="M275.12,-152.41C287.74,-147.78 303.09,-142.14 316.78,-137.11"/>
<polygon fill="midnightblue" stroke="midnightblue" points="318.21,-140.32 326.39,-133.59 315.8,-133.75 318.21,-140.32"/>
</g>
<!-- Node21&#45;&gt;Node16 -->
<g id="edge30" class="edge">
<title>Node21&#45;&gt;Node16</title>
<path fill="none" stroke="midnightblue" d="M282.35,-162C318.96,-162 377.8,-162 417.52,-162"/>
<polygon fill="midnightblue" stroke="midnightblue" points="417.68,-165.5 427.68,-162 417.68,-158.5 417.68,-165.5"/>
</g>
</g>
</svg>
