<?xml version="1.0" encoding="UTF-8" standalone="no"?>
<!DOCTYPE svg PUBLIC "-//W3C//DTD SVG 1.1//EN"
 "http://www.w3.org/Graphics/SVG/1.1/DTD/svg11.dtd">
<!-- Generated by graphviz version 2.50.0 (20220203.2022)
 -->
<!-- Title: MODULE_DEF Pages: 1 -->
<svg width="627pt" height="325pt"
 viewBox="0.00 0.00 627.00 325.34" xmlns="http://www.w3.org/2000/svg" xmlns:xlink="http://www.w3.org/1999/xlink">
<g id="graph0" class="graph" transform="scale(1 1) rotate(0) translate(4 321.34)">
<title>MODULE_DEF</title>
<!-- Node1 -->
<g id="node1" class="node">
<title>Node1</title>
<g id="a_node1"><a xlink:title=" ">
<polygon fill="#bfbfbf" stroke="black" points="0,-170.5 0,-189.5 83,-189.5 83,-170.5 0,-170.5"/>
<text text-anchor="middle" x="41.5" y="-177.5" font-family="Helvetica,sans-Serif" font-size="10.00">MODULE_DEF</text>
</a>
</g>
</g>
<!-- Node2 -->
<g id="node2" class="node">
<title>Node2</title>
<g id="a_node2"><a xlink:href="os_8c.html#aef4448ba4711b237d8254529f2a4b621" target="_top" xlink:title=" ">
<polygon fill="none" stroke="black" points="119.5,-189.5 119.5,-208.5 164.5,-208.5 164.5,-189.5 119.5,-189.5"/>
<text text-anchor="middle" x="142" y="-196.5" font-family="Helvetica,sans-Serif" font-size="10.00">os_init</text>
</a>
</g>
</g>
<!-- Node1&#45;&gt;Node2 -->
<g id="edge1" class="edge">
<title>Node1&#45;&gt;Node2</title>
<path fill="none" stroke="midnightblue" d="M83.13,-187.84C91.85,-189.52 100.94,-191.27 109.27,-192.88"/>
<polygon fill="midnightblue" stroke="midnightblue" points="108.83,-196.36 119.31,-194.82 110.16,-189.49 108.83,-196.36"/>
</g>
<!-- Node3 -->
<g id="node3" class="node">
<title>Node3</title>
<g id="a_node3"><a xlink:href="os_8c.html#a5f9cb32664e017ca15c49ec66e5342e4" target="_top" xlink:title=" ">
<polygon fill="none" stroke="black" points="119,-151.5 119,-170.5 165,-170.5 165,-151.5 119,-151.5"/>
<text text-anchor="middle" x="142" y="-158.5" font-family="Helvetica,sans-Serif" font-size="10.00">os_run</text>
</a>
</g>
</g>
<!-- Node1&#45;&gt;Node3 -->
<g id="edge2" class="edge">
<title>Node1&#45;&gt;Node3</title>
<path fill="none" stroke="midnightblue" d="M83.13,-172.16C91.7,-170.51 100.63,-168.79 108.84,-167.2"/>
<polygon fill="midnightblue" stroke="midnightblue" points="109.61,-170.62 118.77,-165.29 108.28,-163.75 109.61,-170.62"/>
</g>
<!-- Node4 -->
<g id="node4" class="node">
<title>Node4</title>
<g id="a_node4"><a xlink:href="mpe_8c.html#ab701de78cad32896c923ce900087e714" target="_top" xlink:title=" ">
<polygon fill="none" stroke="black" points="439.5,-285.5 439.5,-304.5 507.5,-304.5 507.5,-285.5 439.5,-285.5"/>
<text text-anchor="middle" x="473.5" y="-292.5" font-family="Helvetica,sans-Serif" font-size="10.00">cpu_current</text>
</a>
</g>
</g>
<!-- Node3&#45;&gt;Node4 -->
<g id="edge3" class="edge">
<title>Node3&#45;&gt;Node4</title>
<path fill="none" stroke="midnightblue" d="M154.9,-170.79C158.24,-173.67 161.83,-176.89 165,-180 217.31,-231.41 208.05,-273.06 275,-303 325.21,-325.46 389.97,-316.66 431.38,-306.94"/>
<polygon fill="midnightblue" stroke="midnightblue" points="432.25,-310.33 441.12,-304.53 430.57,-303.53 432.25,-310.33"/>
</g>
<!-- Node5 -->
<g id="node5" class="node">
<title>Node5</title>
<g id="a_node5"><a xlink:href="trm_8c.html#a483cb97188e557c3c68d3a1572c2cc92" target="_top" xlink:title=" ">
<polygon fill="none" stroke="black" points="204,-171.5 204,-190.5 236,-190.5 236,-171.5 204,-171.5"/>
<text text-anchor="middle" x="220" y="-178.5" font-family="Helvetica,sans-Serif" font-size="10.00">halt</text>
</a>
</g>
</g>
<!-- Node3&#45;&gt;Node5 -->
<g id="edge4" class="edge">
<title>Node3&#45;&gt;Node5</title>
<path fill="none" stroke="midnightblue" d="M165.39,-166.89C174.43,-169.27 184.89,-172.02 194.15,-174.46"/>
<polygon fill="midnightblue" stroke="midnightblue" points="193.41,-177.89 203.97,-177.05 195.19,-171.12 193.41,-177.89"/>
</g>
<!-- Node14 -->
<g id="node14" class="node">
<title>Node14</title>
<g id="a_node14"><a xlink:href="trm_8c.html#a6351d8706733262e7e325926b1a9aab7" target="_top" xlink:title=" ">
<polygon fill="none" stroke="black" points="310.5,-95.5 310.5,-114.5 351.5,-114.5 351.5,-95.5 310.5,-95.5"/>
<text text-anchor="middle" x="331" y="-102.5" font-family="Helvetica,sans-Serif" font-size="10.00">putch</text>
</a>
</g>
</g>
<!-- Node3&#45;&gt;Node14 -->
<g id="edge24" class="edge">
<title>Node3&#45;&gt;Node14</title>
<path fill="none" stroke="midnightblue" d="M165.19,-154.36C198.88,-144.27 262.99,-125.07 300.55,-113.82"/>
<polygon fill="midnightblue" stroke="midnightblue" points="301.82,-117.09 310.39,-110.87 299.81,-110.39 301.82,-117.09"/>
</g>
<!-- Node15 -->
<g id="node15" class="node">
<title>Node15</title>
<g id="a_node15"><a xlink:href="stdio_8c.html#a55f3d956bb2ba20b5059e9e25484a47f" target="_top" xlink:title=" ">
<polygon fill="none" stroke="black" points="201,-76.5 201,-95.5 239,-95.5 239,-76.5 201,-76.5"/>
<text text-anchor="middle" x="220" y="-83.5" font-family="Helvetica,sans-Serif" font-size="10.00">printf</text>
</a>
</g>
</g>
<!-- Node3&#45;&gt;Node15 -->
<g id="edge17" class="edge">
<title>Node3&#45;&gt;Node15</title>
<path fill="none" stroke="midnightblue" d="M152.94,-151.2C165.41,-138.89 186.99,-117.59 202.08,-102.69"/>
<polygon fill="midnightblue" stroke="midnightblue" points="204.64,-105.09 209.3,-95.57 199.73,-100.1 204.64,-105.09"/>
</g>
<!-- Node5&#45;&gt;Node4 -->
<g id="edge12" class="edge">
<title>Node5&#45;&gt;Node4</title>
<path fill="none" stroke="midnightblue" d="M223.28,-190.57C228.56,-210.38 243.63,-255.68 275,-276 321.2,-305.94 386.69,-305.9 429.38,-301.65"/>
<polygon fill="midnightblue" stroke="midnightblue" points="429.9,-305.11 439.45,-300.52 429.12,-298.15 429.9,-305.11"/>
</g>
<!-- Node6 -->
<g id="node6" class="node">
<title>Node6</title>
<g id="a_node6"><a xlink:href="mpe_8c.html#a0a540532023afb1f31b6f21ce053483b" target="_top" xlink:title=" ">
<polygon fill="none" stroke="black" points="275,-247.5 275,-266.5 387,-266.5 387,-247.5 275,-247.5"/>
<text text-anchor="middle" x="331" y="-254.5" font-family="Helvetica,sans-Serif" font-size="10.00">__am_stop_the_world</text>
</a>
</g>
</g>
<!-- Node5&#45;&gt;Node6 -->
<g id="edge5" class="edge">
<title>Node5&#45;&gt;Node6</title>
<path fill="none" stroke="midnightblue" d="M227.94,-190.84C237.28,-203.44 255.06,-225.15 275,-238 278.11,-240.01 281.46,-241.83 284.92,-243.48"/>
<polygon fill="midnightblue" stroke="midnightblue" points="283.64,-246.74 294.21,-247.44 286.39,-240.3 283.64,-246.74"/>
</g>
<!-- Node11 -->
<g id="node11" class="node">
<title>Node11</title>
<g id="a_node11"><a xlink:href="x86_8h.html#acc919e7809ef1db2b20aa3804f540b5c" target="_top" xlink:title=" ">
<polygon fill="none" stroke="black" points="316.5,-209.5 316.5,-228.5 345.5,-228.5 345.5,-209.5 316.5,-209.5"/>
<text text-anchor="middle" x="331" y="-216.5" font-family="Helvetica,sans-Serif" font-size="10.00">cli</text>
</a>
</g>
</g>
<!-- Node5&#45;&gt;Node11 -->
<g id="edge11" class="edge">
<title>Node5&#45;&gt;Node11</title>
<path fill="none" stroke="midnightblue" d="M236.12,-186.35C246.94,-190.17 261.86,-195.42 275,-200 285.48,-203.65 297.09,-207.67 306.93,-211.06"/>
<polygon fill="midnightblue" stroke="midnightblue" points="305.84,-214.39 316.43,-214.34 308.12,-207.77 305.84,-214.39"/>
</g>
<!-- Node12 -->
<g id="node12" class="node">
<title>Node12</title>
<g id="a_node12"><a xlink:href="x86_8h.html#a2adfe40c0aadff727889d263815cb8ed" target="_top" xlink:title=" ">
<polygon fill="none" stroke="black" points="316.5,-171.5 316.5,-190.5 345.5,-190.5 345.5,-171.5 316.5,-171.5"/>
<text text-anchor="middle" x="331" y="-178.5" font-family="Helvetica,sans-Serif" font-size="10.00">hlt</text>
</a>
</g>
</g>
<!-- Node5&#45;&gt;Node12 -->
<g id="edge13" class="edge">
<title>Node5&#45;&gt;Node12</title>
<path fill="none" stroke="midnightblue" d="M236.16,-181C254.29,-181 284.86,-181 306.17,-181"/>
<polygon fill="midnightblue" stroke="midnightblue" points="306.35,-184.5 316.35,-181 306.35,-177.5 306.35,-184.5"/>
</g>
<!-- Node13 -->
<g id="node13" class="node">
<title>Node13</title>
<g id="a_node13"><a xlink:href="x86_8h.html#af92fc55c49437b9152499a13ba2b6585" target="_top" xlink:title=" ">
<polygon fill="none" stroke="black" points="312,-133.5 312,-152.5 350,-152.5 350,-133.5 312,-133.5"/>
<text text-anchor="middle" x="331" y="-140.5" font-family="Helvetica,sans-Serif" font-size="10.00">outw</text>
</a>
</g>
</g>
<!-- Node5&#45;&gt;Node13 -->
<g id="edge14" class="edge">
<title>Node5&#45;&gt;Node13</title>
<path fill="none" stroke="midnightblue" d="M236.12,-175.65C246.94,-171.83 261.86,-166.58 275,-162 283.78,-158.94 293.35,-155.63 302.01,-152.63"/>
<polygon fill="midnightblue" stroke="midnightblue" points="303.35,-155.88 311.66,-149.31 301.06,-149.26 303.35,-155.88"/>
</g>
<!-- Node5&#45;&gt;Node14 -->
<g id="edge15" class="edge">
<title>Node5&#45;&gt;Node14</title>
<path fill="none" stroke="midnightblue" d="M227.94,-171.16C237.28,-158.56 255.06,-136.85 275,-124 282.75,-119 291.97,-115.16 300.62,-112.27"/>
<polygon fill="midnightblue" stroke="midnightblue" points="301.83,-115.56 310.39,-109.32 299.81,-108.86 301.83,-115.56"/>
</g>
<!-- Node6&#45;&gt;Node4 -->
<g id="edge10" class="edge">
<title>Node6&#45;&gt;Node4</title>
<path fill="none" stroke="midnightblue" d="M367.45,-266.59C386.37,-271.71 409.79,-278.04 429.71,-283.43"/>
<polygon fill="midnightblue" stroke="midnightblue" points="428.9,-286.83 439.47,-286.07 430.73,-280.08 428.9,-286.83"/>
</g>
<!-- Node7 -->
<g id="node7" class="node">
<title>Node7</title>
<g id="a_node7"><a xlink:href="ioe_8c.html#a88a238fee7cd006afa69ea97e4914a09" target="_top" xlink:title=" ">
<polygon fill="none" stroke="black" points="423,-247.5 423,-266.5 524,-266.5 524,-247.5 423,-247.5"/>
<text text-anchor="middle" x="473.5" y="-254.5" font-family="Helvetica,sans-Serif" font-size="10.00">__am_lapic_bootap</text>
</a>
</g>
</g>
<!-- Node6&#45;&gt;Node7 -->
<g id="edge6" class="edge">
<title>Node6&#45;&gt;Node7</title>
<path fill="none" stroke="midnightblue" d="M387.13,-257C395.43,-257 404.04,-257 412.44,-257"/>
<polygon fill="midnightblue" stroke="midnightblue" points="412.56,-260.5 422.56,-257 412.56,-253.5 412.56,-260.5"/>
</g>
<!-- Node10 -->
<g id="node10" class="node">
<title>Node10</title>
<g id="a_node10"><a xlink:href="x86_8h.html#adfa01b89ceed9e7a87f185f4e441aa16" target="_top" xlink:title=" ">
<polygon fill="none" stroke="black" points="439.5,-209.5 439.5,-228.5 507.5,-228.5 507.5,-209.5 439.5,-209.5"/>
<text text-anchor="middle" x="473.5" y="-216.5" font-family="Helvetica,sans-Serif" font-size="10.00">boot_record</text>
</a>
</g>
</g>
<!-- Node6&#45;&gt;Node10 -->
<g id="edge9" class="edge">
<title>Node6&#45;&gt;Node10</title>
<path fill="none" stroke="midnightblue" d="M367.45,-247.41C386.37,-242.29 409.79,-235.96 429.71,-230.57"/>
<polygon fill="midnightblue" stroke="midnightblue" points="430.73,-233.92 439.47,-227.93 428.9,-227.17 430.73,-233.92"/>
</g>
<!-- Node8 -->
<g id="node8" class="node">
<title>Node8</title>
<g id="a_node8"><a xlink:href="ioe_8c.html#a72d9ed0bfe1066367763e044b7a7b7c3" target="_top" xlink:title=" ">
<polygon fill="none" stroke="black" points="567.5,-247.5 567.5,-266.5 611.5,-266.5 611.5,-247.5 567.5,-247.5"/>
<text text-anchor="middle" x="589.5" y="-254.5" font-family="Helvetica,sans-Serif" font-size="10.00">lapicw</text>
</a>
</g>
</g>
<!-- Node7&#45;&gt;Node8 -->
<g id="edge7" class="edge">
<title>Node7&#45;&gt;Node8</title>
<path fill="none" stroke="midnightblue" d="M524.17,-257C535.39,-257 547,-257 557.21,-257"/>
<polygon fill="midnightblue" stroke="midnightblue" points="557.28,-260.5 567.28,-257 557.28,-253.5 557.28,-260.5"/>
</g>
<!-- Node9 -->
<g id="node9" class="node">
<title>Node9</title>
<g id="a_node9"><a xlink:href="x86_8h.html#ade961b44e45ddacbc3c3b7609cf36dc6" target="_top" xlink:title=" ">
<polygon fill="none" stroke="black" points="572,-181.5 572,-200.5 607,-200.5 607,-181.5 572,-181.5"/>
<text text-anchor="middle" x="589.5" y="-188.5" font-family="Helvetica,sans-Serif" font-size="10.00">outb</text>
</a>
</g>
</g>
<!-- Node7&#45;&gt;Node9 -->
<g id="edge8" class="edge">
<title>Node7&#45;&gt;Node9</title>
<path fill="none" stroke="midnightblue" d="M503.09,-247.5C510.09,-244.77 517.45,-241.56 524,-238 540.22,-229.18 557.03,-216.81 569.42,-206.97"/>
<polygon fill="midnightblue" stroke="midnightblue" points="571.67,-209.66 577.23,-200.64 567.26,-204.22 571.67,-209.66"/>
</g>
<!-- Node14&#45;&gt;Node9 -->
<g id="edge16" class="edge">
<title>Node14&#45;&gt;Node9</title>
<path fill="none" stroke="midnightblue" d="M351.7,-111.61C397.36,-126.91 510.43,-164.82 562.04,-182.13"/>
<polygon fill="midnightblue" stroke="midnightblue" points="561.2,-185.54 571.79,-185.4 563.43,-178.9 561.2,-185.54"/>
</g>
<!-- Node16 -->
<g id="node16" class="node">
<title>Node16</title>
<g id="a_node16"><a xlink:href="stdio_8c.html#a44a6734c6f8f81d8e1fa3b9d476c5134" target="_top" xlink:title="write bytes (including the terminating null byte (&#39;\0&#39;)) to out.">
<polygon fill="none" stroke="black" points="306.5,-57.5 306.5,-76.5 355.5,-76.5 355.5,-57.5 306.5,-57.5"/>
<text text-anchor="middle" x="331" y="-64.5" font-family="Helvetica,sans-Serif" font-size="10.00">vsprintf</text>
</a>
</g>
</g>
<!-- Node15&#45;&gt;Node16 -->
<g id="edge18" class="edge">
<title>Node15&#45;&gt;Node16</title>
<path fill="none" stroke="midnightblue" d="M239.49,-82.78C255.07,-80.06 277.76,-76.11 296.52,-72.84"/>
<polygon fill="midnightblue" stroke="midnightblue" points="297.22,-76.27 306.47,-71.1 296.01,-69.37 297.22,-76.27"/>
</g>
<!-- Node17 -->
<g id="node17" class="node">
<title>Node17</title>
<g id="a_node17"><a xlink:href="stdio_8c.html#abf852e417a205348767989f2940059ad" target="_top" xlink:title="write at most n bytes (including the terminating null byte (&#39;\0&#39;)) to out.">
<polygon fill="none" stroke="black" points="446.5,-57.5 446.5,-76.5 500.5,-76.5 500.5,-57.5 446.5,-57.5"/>
<text text-anchor="middle" x="473.5" y="-64.5" font-family="Helvetica,sans-Serif" font-size="10.00">vsnprintf</text>
</a>
</g>
</g>
<!-- Node16&#45;&gt;Node17 -->
<g id="edge19" class="edge">
<title>Node16&#45;&gt;Node17</title>
<path fill="none" stroke="midnightblue" d="M355.52,-67C377.49,-67 410.62,-67 436.02,-67"/>
<polygon fill="midnightblue" stroke="midnightblue" points="436.03,-70.5 446.03,-67 436.03,-63.5 436.03,-70.5"/>
</g>
<!-- Node18 -->
<g id="node18" class="node">
<title>Node18</title>
<g id="a_node18"><a xlink:href="stdio_8c.html#af978fa291399f159cc8d94cb650cef4d" target="_top" xlink:title="print padding char">
<polygon fill="none" stroke="black" points="563,-114.5 563,-133.5 616,-133.5 616,-114.5 563,-114.5"/>
<text text-anchor="middle" x="589.5" y="-121.5" font-family="Helvetica,sans-Serif" font-size="10.00">add_pad</text>
</a>
</g>
</g>
<!-- Node17&#45;&gt;Node18 -->
<g id="edge20" class="edge">
<title>Node17&#45;&gt;Node18</title>
<path fill="none" stroke="midnightblue" d="M493.58,-76.54C511.83,-85.66 539.57,-99.53 560.35,-109.93"/>
<polygon fill="midnightblue" stroke="midnightblue" points="558.85,-113.09 569.36,-114.43 561.98,-106.83 558.85,-113.09"/>
</g>
<!-- Node19 -->
<g id="node19" class="node">
<title>Node19</title>
<g id="a_node19"><a xlink:href="stdio_8c.html#a0e2811092b514de48ac2dd675d6cf2b4" target="_top" xlink:title="print decimal into buffer,return length">
<polygon fill="none" stroke="black" points="560,-76.5 560,-95.5 619,-95.5 619,-76.5 560,-76.5"/>
<text text-anchor="middle" x="589.5" y="-83.5" font-family="Helvetica,sans-Serif" font-size="10.00">print_num</text>
</a>
</g>
</g>
<!-- Node17&#45;&gt;Node19 -->
<g id="edge21" class="edge">
<title>Node17&#45;&gt;Node19</title>
<path fill="none" stroke="midnightblue" d="M500.65,-71.36C515.11,-73.77 533.34,-76.81 549.45,-79.49"/>
<polygon fill="midnightblue" stroke="midnightblue" points="549.23,-83 559.67,-81.19 550.38,-76.1 549.23,-83"/>
</g>
<!-- Node20 -->
<g id="node20" class="node">
<title>Node20</title>
<g id="a_node20"><a xlink:href="string_8c.html#aa383452fe445bfae989358c9d7d96f4f" target="_top" xlink:title=" ">
<polygon fill="none" stroke="black" points="569,-38.5 569,-57.5 610,-57.5 610,-38.5 569,-38.5"/>
<text text-anchor="middle" x="589.5" y="-45.5" font-family="Helvetica,sans-Serif" font-size="10.00">strlen</text>
</a>
</g>
</g>
<!-- Node17&#45;&gt;Node20 -->
<g id="edge22" class="edge">
<title>Node17&#45;&gt;Node20</title>
<path fill="none" stroke="midnightblue" d="M500.65,-62.64C518.02,-59.75 540.85,-55.94 558.88,-52.94"/>
<polygon fill="midnightblue" stroke="midnightblue" points="559.58,-56.37 568.87,-51.27 558.43,-49.46 559.58,-56.37"/>
</g>
<!-- Node21 -->
<g id="node21" class="node">
<title>Node21</title>
<g id="a_node21"><a xlink:href="string_8c.html#a82f08f2390a9067f3c94b638e90e03bd" target="_top" xlink:title=" ">
<polygon fill="none" stroke="black" points="565.5,-0.5 565.5,-19.5 613.5,-19.5 613.5,-0.5 565.5,-0.5"/>
<text text-anchor="middle" x="589.5" y="-7.5" font-family="Helvetica,sans-Serif" font-size="10.00">strncpy</text>
</a>
</g>
</g>
<!-- Node17&#45;&gt;Node21 -->
<g id="edge23" class="edge">
<title>Node17&#45;&gt;Node21</title>
<path fill="none" stroke="midnightblue" d="M493.58,-57.46C511.83,-48.34 539.57,-34.47 560.35,-24.07"/>
<polygon fill="midnightblue" stroke="midnightblue" points="561.98,-27.17 569.36,-19.57 558.85,-20.91 561.98,-27.17"/>
</g>
</g>
</svg>
