<?xml version="1.0" encoding="UTF-8" standalone="no"?>
<!DOCTYPE svg PUBLIC "-//W3C//DTD SVG 1.1//EN"
 "http://www.w3.org/Graphics/SVG/1.1/DTD/svg11.dtd">
<!-- Generated by graphviz version 2.50.0 (20220203.2022)
 -->
<!-- Title: os_run Pages: 1 -->
<svg width="493pt" height="306pt"
 viewBox="0.00 0.00 493.00 306.49" xmlns="http://www.w3.org/2000/svg" xmlns:xlink="http://www.w3.org/1999/xlink">
<g id="graph0" class="graph" transform="scale(1 1) rotate(0) translate(4 302.49)">
<title>os_run</title>
<!-- Node1 -->
<g id="node1" class="node">
<title>Node1</title>
<g id="a_node1"><a xlink:title=" ">
<polygon fill="#bfbfbf" stroke="black" points="0,-124.5 0,-143.5 46,-143.5 46,-124.5 0,-124.5"/>
<text text-anchor="middle" x="23" y="-131.5" font-family="Helvetica,sans-Serif" font-size="10.00">os_run</text>
</a>
</g>
</g>
<!-- Node2 -->
<g id="node2" class="node">
<title>Node2</title>
<g id="a_node2"><a xlink:href="mpe_8c.html#ab701de78cad32896c923ce900087e714" target="_top" xlink:title=" ">
<polygon fill="none" stroke="black" points="320.5,-266.5 320.5,-285.5 388.5,-285.5 388.5,-266.5 320.5,-266.5"/>
<text text-anchor="middle" x="354.5" y="-273.5" font-family="Helvetica,sans-Serif" font-size="10.00">cpu_current</text>
</a>
</g>
</g>
<!-- Node1&#45;&gt;Node2 -->
<g id="edge1" class="edge">
<title>Node1&#45;&gt;Node2</title>
<path fill="none" stroke="midnightblue" d="M28.82,-143.88C43.32,-172.28 89.62,-253.99 156,-284 206.26,-306.72 271.28,-297.76 312.69,-287.94"/>
<polygon fill="midnightblue" stroke="midnightblue" points="313.58,-291.32 322.44,-285.51 311.89,-284.53 313.58,-291.32"/>
</g>
<!-- Node3 -->
<g id="node3" class="node">
<title>Node3</title>
<g id="a_node3"><a xlink:href="trm_8c.html#a483cb97188e557c3c68d3a1572c2cc92" target="_top" xlink:title=" ">
<polygon fill="none" stroke="black" points="85,-152.5 85,-171.5 117,-171.5 117,-152.5 85,-152.5"/>
<text text-anchor="middle" x="101" y="-159.5" font-family="Helvetica,sans-Serif" font-size="10.00">halt</text>
</a>
</g>
</g>
<!-- Node1&#45;&gt;Node3 -->
<g id="edge2" class="edge">
<title>Node1&#45;&gt;Node3</title>
<path fill="none" stroke="midnightblue" d="M46.39,-142.25C55.52,-145.61 66.11,-149.51 75.45,-152.96"/>
<polygon fill="midnightblue" stroke="midnightblue" points="74.38,-156.29 84.97,-156.46 76.8,-149.72 74.38,-156.29"/>
</g>
<!-- Node12 -->
<g id="node12" class="node">
<title>Node12</title>
<g id="a_node12"><a xlink:href="trm_8c.html#a6351d8706733262e7e325926b1a9aab7" target="_top" xlink:title=" ">
<polygon fill="none" stroke="black" points="191.5,-76.5 191.5,-95.5 232.5,-95.5 232.5,-76.5 191.5,-76.5"/>
<text text-anchor="middle" x="212" y="-83.5" font-family="Helvetica,sans-Serif" font-size="10.00">putch</text>
</a>
</g>
</g>
<!-- Node1&#45;&gt;Node12 -->
<g id="edge21" class="edge">
<title>Node1&#45;&gt;Node12</title>
<path fill="none" stroke="midnightblue" d="M46.19,-128.31C79.88,-119.66 143.99,-103.2 181.55,-93.56"/>
<polygon fill="midnightblue" stroke="midnightblue" points="182.58,-96.91 191.39,-91.03 180.84,-90.13 182.58,-96.91"/>
</g>
<!-- Node13 -->
<g id="node13" class="node">
<title>Node13</title>
<g id="a_node13"><a xlink:href="stdio_8c.html#a55f3d956bb2ba20b5059e9e25484a47f" target="_top" xlink:title=" ">
<polygon fill="none" stroke="black" points="82,-48.5 82,-67.5 120,-67.5 120,-48.5 82,-48.5"/>
<text text-anchor="middle" x="101" y="-55.5" font-family="Helvetica,sans-Serif" font-size="10.00">printf</text>
</a>
</g>
</g>
<!-- Node1&#45;&gt;Node13 -->
<g id="edge15" class="edge">
<title>Node1&#45;&gt;Node13</title>
<path fill="none" stroke="midnightblue" d="M33.63,-124.37C46.01,-111.99 67.72,-90.28 82.94,-75.06"/>
<polygon fill="midnightblue" stroke="midnightblue" points="85.62,-77.33 90.21,-67.79 80.67,-72.38 85.62,-77.33"/>
</g>
<!-- Node3&#45;&gt;Node2 -->
<g id="edge10" class="edge">
<title>Node3&#45;&gt;Node2</title>
<path fill="none" stroke="midnightblue" d="M104.28,-171.57C109.56,-191.38 124.63,-236.68 156,-257 202.2,-286.94 267.69,-286.9 310.38,-282.65"/>
<polygon fill="midnightblue" stroke="midnightblue" points="310.9,-286.11 320.45,-281.52 310.12,-279.15 310.9,-286.11"/>
</g>
<!-- Node4 -->
<g id="node4" class="node">
<title>Node4</title>
<g id="a_node4"><a xlink:href="mpe_8c.html#a0a540532023afb1f31b6f21ce053483b" target="_top" xlink:title=" ">
<polygon fill="none" stroke="black" points="156,-228.5 156,-247.5 268,-247.5 268,-228.5 156,-228.5"/>
<text text-anchor="middle" x="212" y="-235.5" font-family="Helvetica,sans-Serif" font-size="10.00">__am_stop_the_world</text>
</a>
</g>
</g>
<!-- Node3&#45;&gt;Node4 -->
<g id="edge3" class="edge">
<title>Node3&#45;&gt;Node4</title>
<path fill="none" stroke="midnightblue" d="M108.94,-171.84C118.28,-184.44 136.06,-206.15 156,-219 159.11,-221.01 162.46,-222.83 165.92,-224.48"/>
<polygon fill="midnightblue" stroke="midnightblue" points="164.64,-227.74 175.21,-228.44 167.39,-221.3 164.64,-227.74"/>
</g>
<!-- Node9 -->
<g id="node9" class="node">
<title>Node9</title>
<g id="a_node9"><a xlink:href="x86_8h.html#acc919e7809ef1db2b20aa3804f540b5c" target="_top" xlink:title=" ">
<polygon fill="none" stroke="black" points="197.5,-190.5 197.5,-209.5 226.5,-209.5 226.5,-190.5 197.5,-190.5"/>
<text text-anchor="middle" x="212" y="-197.5" font-family="Helvetica,sans-Serif" font-size="10.00">cli</text>
</a>
</g>
</g>
<!-- Node3&#45;&gt;Node9 -->
<g id="edge9" class="edge">
<title>Node3&#45;&gt;Node9</title>
<path fill="none" stroke="midnightblue" d="M117.12,-167.35C127.94,-171.17 142.86,-176.42 156,-181 166.48,-184.65 178.09,-188.67 187.93,-192.06"/>
<polygon fill="midnightblue" stroke="midnightblue" points="186.84,-195.39 197.43,-195.34 189.12,-188.77 186.84,-195.39"/>
</g>
<!-- Node10 -->
<g id="node10" class="node">
<title>Node10</title>
<g id="a_node10"><a xlink:href="x86_8h.html#a2adfe40c0aadff727889d263815cb8ed" target="_top" xlink:title=" ">
<polygon fill="none" stroke="black" points="197.5,-152.5 197.5,-171.5 226.5,-171.5 226.5,-152.5 197.5,-152.5"/>
<text text-anchor="middle" x="212" y="-159.5" font-family="Helvetica,sans-Serif" font-size="10.00">hlt</text>
</a>
</g>
</g>
<!-- Node3&#45;&gt;Node10 -->
<g id="edge11" class="edge">
<title>Node3&#45;&gt;Node10</title>
<path fill="none" stroke="midnightblue" d="M117.16,-162C135.29,-162 165.86,-162 187.17,-162"/>
<polygon fill="midnightblue" stroke="midnightblue" points="187.35,-165.5 197.35,-162 187.35,-158.5 187.35,-165.5"/>
</g>
<!-- Node11 -->
<g id="node11" class="node">
<title>Node11</title>
<g id="a_node11"><a xlink:href="x86_8h.html#af92fc55c49437b9152499a13ba2b6585" target="_top" xlink:title=" ">
<polygon fill="none" stroke="black" points="193,-114.5 193,-133.5 231,-133.5 231,-114.5 193,-114.5"/>
<text text-anchor="middle" x="212" y="-121.5" font-family="Helvetica,sans-Serif" font-size="10.00">outw</text>
</a>
</g>
</g>
<!-- Node3&#45;&gt;Node11 -->
<g id="edge12" class="edge">
<title>Node3&#45;&gt;Node11</title>
<path fill="none" stroke="midnightblue" d="M117.12,-156.65C127.94,-152.83 142.86,-147.58 156,-143 164.78,-139.94 174.35,-136.63 183.01,-133.63"/>
<polygon fill="midnightblue" stroke="midnightblue" points="184.35,-136.88 192.66,-130.31 182.06,-130.26 184.35,-136.88"/>
</g>
<!-- Node3&#45;&gt;Node12 -->
<g id="edge13" class="edge">
<title>Node3&#45;&gt;Node12</title>
<path fill="none" stroke="midnightblue" d="M108.94,-152.16C118.28,-139.56 136.06,-117.85 156,-105 163.75,-100 172.97,-96.16 181.62,-93.27"/>
<polygon fill="midnightblue" stroke="midnightblue" points="182.83,-96.56 191.39,-90.32 180.81,-89.86 182.83,-96.56"/>
</g>
<!-- Node4&#45;&gt;Node2 -->
<g id="edge8" class="edge">
<title>Node4&#45;&gt;Node2</title>
<path fill="none" stroke="midnightblue" d="M248.45,-247.59C267.37,-252.71 290.79,-259.04 310.71,-264.43"/>
<polygon fill="midnightblue" stroke="midnightblue" points="309.9,-267.83 320.47,-267.07 311.73,-261.08 309.9,-267.83"/>
</g>
<!-- Node5 -->
<g id="node5" class="node">
<title>Node5</title>
<g id="a_node5"><a xlink:href="ioe_8c.html#a88a238fee7cd006afa69ea97e4914a09" target="_top" xlink:title=" ">
<polygon fill="none" stroke="black" points="304,-228.5 304,-247.5 405,-247.5 405,-228.5 304,-228.5"/>
<text text-anchor="middle" x="354.5" y="-235.5" font-family="Helvetica,sans-Serif" font-size="10.00">__am_lapic_bootap</text>
</a>
</g>
</g>
<!-- Node4&#45;&gt;Node5 -->
<g id="edge4" class="edge">
<title>Node4&#45;&gt;Node5</title>
<path fill="none" stroke="midnightblue" d="M268.13,-238C276.43,-238 285.04,-238 293.44,-238"/>
<polygon fill="midnightblue" stroke="midnightblue" points="293.56,-241.5 303.56,-238 293.56,-234.5 293.56,-241.5"/>
</g>
<!-- Node8 -->
<g id="node8" class="node">
<title>Node8</title>
<g id="a_node8"><a xlink:href="x86_8h.html#adfa01b89ceed9e7a87f185f4e441aa16" target="_top" xlink:title=" ">
<polygon fill="none" stroke="black" points="320.5,-190.5 320.5,-209.5 388.5,-209.5 388.5,-190.5 320.5,-190.5"/>
<text text-anchor="middle" x="354.5" y="-197.5" font-family="Helvetica,sans-Serif" font-size="10.00">boot_record</text>
</a>
</g>
</g>
<!-- Node4&#45;&gt;Node8 -->
<g id="edge7" class="edge">
<title>Node4&#45;&gt;Node8</title>
<path fill="none" stroke="midnightblue" d="M248.45,-228.41C267.37,-223.29 290.79,-216.96 310.71,-211.57"/>
<polygon fill="midnightblue" stroke="midnightblue" points="311.73,-214.92 320.47,-208.93 309.9,-208.17 311.73,-214.92"/>
</g>
<!-- Node6 -->
<g id="node6" class="node">
<title>Node6</title>
<g id="a_node6"><a xlink:href="ioe_8c.html#a72d9ed0bfe1066367763e044b7a7b7c3" target="_top" xlink:title=" ">
<polygon fill="none" stroke="black" points="441,-228.5 441,-247.5 485,-247.5 485,-228.5 441,-228.5"/>
<text text-anchor="middle" x="463" y="-235.5" font-family="Helvetica,sans-Serif" font-size="10.00">lapicw</text>
</a>
</g>
</g>
<!-- Node5&#45;&gt;Node6 -->
<g id="edge5" class="edge">
<title>Node5&#45;&gt;Node6</title>
<path fill="none" stroke="midnightblue" d="M405.01,-238C413.77,-238 422.67,-238 430.75,-238"/>
<polygon fill="midnightblue" stroke="midnightblue" points="430.82,-241.5 440.82,-238 430.82,-234.5 430.82,-241.5"/>
</g>
<!-- Node7 -->
<g id="node7" class="node">
<title>Node7</title>
<g id="a_node7"><a xlink:href="x86_8h.html#ade961b44e45ddacbc3c3b7609cf36dc6" target="_top" xlink:title=" ">
<polygon fill="none" stroke="black" points="445.5,-171.5 445.5,-190.5 480.5,-190.5 480.5,-171.5 445.5,-171.5"/>
<text text-anchor="middle" x="463" y="-178.5" font-family="Helvetica,sans-Serif" font-size="10.00">outb</text>
</a>
</g>
</g>
<!-- Node5&#45;&gt;Node7 -->
<g id="edge6" class="edge">
<title>Node5&#45;&gt;Node7</title>
<path fill="none" stroke="midnightblue" d="M383.73,-228.4C390.81,-225.66 398.3,-222.47 405,-219 417.55,-212.51 430.72,-203.87 441.23,-196.46"/>
<polygon fill="midnightblue" stroke="midnightblue" points="443.3,-199.29 449.37,-190.61 439.21,-193.61 443.3,-199.29"/>
</g>
<!-- Node12&#45;&gt;Node7 -->
<g id="edge14" class="edge">
<title>Node12&#45;&gt;Node7</title>
<path fill="none" stroke="midnightblue" d="M232.67,-92.58C243.19,-96.15 256.34,-100.7 268,-105 328.5,-127.29 398.8,-155.38 435.92,-170.39"/>
<polygon fill="midnightblue" stroke="midnightblue" points="434.9,-173.75 445.48,-174.26 437.52,-167.27 434.9,-173.75"/>
</g>
<!-- Node14 -->
<g id="node14" class="node">
<title>Node14</title>
<g id="a_node14"><a xlink:href="stdio_8c.html#a44a6734c6f8f81d8e1fa3b9d476c5134" target="_top" xlink:title=" ">
<polygon fill="none" stroke="black" points="187.5,-38.5 187.5,-57.5 236.5,-57.5 236.5,-38.5 187.5,-38.5"/>
<text text-anchor="middle" x="212" y="-45.5" font-family="Helvetica,sans-Serif" font-size="10.00">vsprintf</text>
</a>
</g>
</g>
<!-- Node13&#45;&gt;Node14 -->
<g id="edge16" class="edge">
<title>Node13&#45;&gt;Node14</title>
<path fill="none" stroke="midnightblue" d="M120.49,-56.3C136,-54.88 158.55,-52.81 177.26,-51.1"/>
<polygon fill="midnightblue" stroke="midnightblue" points="177.83,-54.56 187.47,-50.16 177.19,-47.59 177.83,-54.56"/>
</g>
<!-- Node15 -->
<g id="node15" class="node">
<title>Node15</title>
<g id="a_node15"><a xlink:href="string_8c.html#a9517a4a50477f651785c09b27826d8ce" target="_top" xlink:title=" ">
<polygon fill="none" stroke="black" points="334,-76.5 334,-95.5 375,-95.5 375,-76.5 334,-76.5"/>
<text text-anchor="middle" x="354.5" y="-83.5" font-family="Helvetica,sans-Serif" font-size="10.00">strcat</text>
</a>
</g>
</g>
<!-- Node14&#45;&gt;Node15 -->
<g id="edge17" class="edge">
<title>Node14&#45;&gt;Node15</title>
<path fill="none" stroke="midnightblue" d="M236.52,-54.36C260.65,-60.89 298.26,-71.06 324.29,-78.1"/>
<polygon fill="midnightblue" stroke="midnightblue" points="323.42,-81.49 333.99,-80.72 325.25,-74.73 323.42,-81.49"/>
</g>
<!-- Node16 -->
<g id="node16" class="node">
<title>Node16</title>
<g id="a_node16"><a xlink:href="string_8c.html#aa383452fe445bfae989358c9d7d96f4f" target="_top" xlink:title=" ">
<polygon fill="none" stroke="black" points="442.5,-57.5 442.5,-76.5 483.5,-76.5 483.5,-57.5 442.5,-57.5"/>
<text text-anchor="middle" x="463" y="-64.5" font-family="Helvetica,sans-Serif" font-size="10.00">strlen</text>
</a>
</g>
</g>
<!-- Node14&#45;&gt;Node16 -->
<g id="edge19" class="edge">
<title>Node14&#45;&gt;Node16</title>
<path fill="none" stroke="midnightblue" d="M236.88,-49.82C282.58,-53.31 382.31,-60.92 432.26,-64.73"/>
<polygon fill="midnightblue" stroke="midnightblue" points="432.17,-68.23 442.4,-65.5 432.7,-61.25 432.17,-68.23"/>
</g>
<!-- Node17 -->
<g id="node17" class="node">
<title>Node17</title>
<g id="a_node17"><a xlink:href="stdio_8c.html#a8a0e94b5b0c2a000751f94fd7a5c0071" target="_top" xlink:title=" ">
<polygon fill="none" stroke="black" points="325,-0.5 325,-19.5 384,-19.5 384,-0.5 325,-0.5"/>
<text text-anchor="middle" x="354.5" y="-7.5" font-family="Helvetica,sans-Serif" font-size="10.00">vprintf_int</text>
</a>
</g>
</g>
<!-- Node14&#45;&gt;Node17 -->
<g id="edge20" class="edge">
<title>Node14&#45;&gt;Node17</title>
<path fill="none" stroke="midnightblue" d="M236.52,-41.64C257.87,-35.86 289.77,-27.24 314.86,-20.45"/>
<polygon fill="midnightblue" stroke="midnightblue" points="316.06,-23.75 324.8,-17.76 314.23,-16.99 316.06,-23.75"/>
</g>
<!-- Node15&#45;&gt;Node16 -->
<g id="edge18" class="edge">
<title>Node15&#45;&gt;Node16</title>
<path fill="none" stroke="midnightblue" d="M375.03,-82.52C391.07,-79.65 414.04,-75.56 432.35,-72.29"/>
<polygon fill="midnightblue" stroke="midnightblue" points="433,-75.73 442.23,-70.53 431.77,-68.84 433,-75.73"/>
</g>
</g>
</svg>
