<?xml version="1.0" encoding="UTF-8" standalone="no"?>
<!DOCTYPE svg PUBLIC "-//W3C//DTD SVG 1.1//EN"
 "http://www.w3.org/Graphics/SVG/1.1/DTD/svg11.dtd">
<!-- Generated by graphviz version 3.0.0 (20220413.0106)
 -->
<!-- Title: kernel/src/os.c Pages: 1 -->
<svg width="437pt" height="308pt"
 viewBox="0.00 0.00 436.50 308.00" xmlns="http://www.w3.org/2000/svg" xmlns:xlink="http://www.w3.org/1999/xlink">
<g id="graph0" class="graph" transform="scale(1 1) rotate(0) translate(4 304)">
<title>kernel/src/os.c</title>
<!-- Node1 -->
<g id="node1" class="node">
<title>Node1</title>
<g id="a_node1"><a xlink:title=" ">
<polygon fill="#bfbfbf" stroke="black" points="173,-280.5 173,-299.5 253,-299.5 253,-280.5 173,-280.5"/>
<text text-anchor="middle" x="213" y="-287.5" font-family="Helvetica,sans-Serif" font-size="10.00">kernel/src/os.c</text>
</a>
</g>
</g>
<!-- Node2 -->
<g id="node2" class="node">
<title>Node2</title>
<g id="a_node2"><a xlink:href="common_8h.html" target="_top" xlink:title=" ">
<polygon fill="none" stroke="black" points="182,-168.5 182,-187.5 244,-187.5 244,-168.5 182,-168.5"/>
<text text-anchor="middle" x="213" y="-175.5" font-family="Helvetica,sans-Serif" font-size="10.00">common.h</text>
</a>
</g>
</g>
<!-- Node1&#45;&gt;Node2 -->
<g id="edge1" class="edge">
<title>Node1&#45;&gt;Node2</title>
<path fill="none" stroke="midnightblue" d="M210.16,-280.2C206.48,-267.74 200.78,-244.2 203,-224 203.97,-215.14 205.99,-205.47 207.96,-197.38"/>
<polygon fill="midnightblue" stroke="midnightblue" points="211.39,-198.09 210.52,-187.53 204.62,-196.33 211.39,-198.09"/>
</g>
<!-- Node14 -->
<g id="node14" class="node">
<title>Node14</title>
<g id="a_node14"><a xlink:href="spinlock_8h.html" target="_top" xlink:title=" ">
<polygon fill="none" stroke="black" points="212,-224.5 212,-243.5 272,-243.5 272,-224.5 212,-224.5"/>
<text text-anchor="middle" x="242" y="-231.5" font-family="Helvetica,sans-Serif" font-size="10.00">spinlock.h</text>
</a>
</g>
</g>
<!-- Node1&#45;&gt;Node14 -->
<g id="edge18" class="edge">
<title>Node1&#45;&gt;Node14</title>
<path fill="none" stroke="midnightblue" d="M217.79,-280.08C221.76,-272.69 227.53,-261.95 232.43,-252.81"/>
<polygon fill="midnightblue" stroke="midnightblue" points="235.65,-254.22 237.3,-243.75 229.49,-250.91 235.65,-254.22"/>
</g>
<!-- Node3 -->
<g id="node3" class="node">
<title>Node3</title>
<g id="a_node3"><a xlink:href="am_8h.html" target="_top" xlink:title=" ">
<polygon fill="none" stroke="black" points="75,-56.5 75,-75.5 113,-75.5 113,-56.5 75,-56.5"/>
<text text-anchor="middle" x="94" y="-63.5" font-family="Helvetica,sans-Serif" font-size="10.00">am.h</text>
</a>
</g>
</g>
<!-- Node2&#45;&gt;Node3 -->
<g id="edge2" class="edge">
<title>Node2&#45;&gt;Node3</title>
<path fill="none" stroke="midnightblue" d="M181.94,-173.02C138.79,-166.78 64.18,-153.18 48,-132 35.02,-115.01 54.52,-94.82 71.99,-81.5"/>
<polygon fill="midnightblue" stroke="midnightblue" points="74.18,-84.24 80.25,-75.56 70.09,-78.55 74.18,-84.24"/>
</g>
<!-- Node7 -->
<g id="node7" class="node">
<title>Node7</title>
<g id="a_node7"><a xlink:href="amdev_8h.html" target="_top" xlink:title=" ">
<polygon fill="none" stroke="black" points="222.5,-0.5 222.5,-19.5 275.5,-19.5 275.5,-0.5 222.5,-0.5"/>
<text text-anchor="middle" x="249" y="-7.5" font-family="Helvetica,sans-Serif" font-size="10.00">amdev.h</text>
</a>
</g>
</g>
<!-- Node2&#45;&gt;Node7 -->
<g id="edge7" class="edge">
<title>Node2&#45;&gt;Node7</title>
<path fill="none" stroke="midnightblue" d="M220.21,-168.35C226.92,-159.74 236.55,-145.84 241,-132 252.19,-97.23 251.89,-54 250.53,-29.76"/>
<polygon fill="midnightblue" stroke="midnightblue" points="254.02,-29.52 249.85,-19.78 247.04,-29.99 254.02,-29.52"/>
</g>
<!-- Node8 -->
<g id="node8" class="node">
<title>Node8</title>
<g id="a_node8"><a xlink:href="kernel_8h.html" target="_top" xlink:title=" ">
<polygon fill="none" stroke="black" points="57,-112.5 57,-131.5 107,-131.5 107,-112.5 57,-112.5"/>
<text text-anchor="middle" x="82" y="-119.5" font-family="Helvetica,sans-Serif" font-size="10.00">kernel.h</text>
</a>
</g>
</g>
<!-- Node2&#45;&gt;Node8 -->
<g id="edge8" class="edge">
<title>Node2&#45;&gt;Node8</title>
<path fill="none" stroke="midnightblue" d="M192.24,-168.44C170.68,-159.56 136.74,-145.56 112.21,-135.45"/>
<polygon fill="midnightblue" stroke="midnightblue" points="113.24,-132.09 102.66,-131.52 110.57,-138.56 113.24,-132.09"/>
</g>
<!-- Node9 -->
<g id="node9" class="node">
<title>Node9</title>
<g id="a_node9"><a xlink:href="klib_8h.html" target="_top" xlink:title=" ">
<polygon fill="none" stroke="black" points="193.5,-112.5 193.5,-131.5 232.5,-131.5 232.5,-112.5 193.5,-112.5"/>
<text text-anchor="middle" x="213" y="-119.5" font-family="Helvetica,sans-Serif" font-size="10.00">klib.h</text>
</a>
</g>
</g>
<!-- Node2&#45;&gt;Node9 -->
<g id="edge10" class="edge">
<title>Node2&#45;&gt;Node9</title>
<path fill="none" stroke="midnightblue" d="M213,-168.08C213,-161.01 213,-150.86 213,-141.99"/>
<polygon fill="midnightblue" stroke="midnightblue" points="216.5,-141.75 213,-131.75 209.5,-141.75 216.5,-141.75"/>
</g>
<!-- Node11 -->
<g id="node11" class="node">
<title>Node11</title>
<g id="a_node11"><a xlink:href="klib-macros_8h.html" target="_top" xlink:title=" ">
<polygon fill="none" stroke="black" points="289,-112.5 289,-131.5 363,-131.5 363,-112.5 289,-112.5"/>
<text text-anchor="middle" x="326" y="-119.5" font-family="Helvetica,sans-Serif" font-size="10.00">klib&#45;macros.h</text>
</a>
</g>
</g>
<!-- Node2&#45;&gt;Node11 -->
<g id="edge14" class="edge">
<title>Node2&#45;&gt;Node11</title>
<path fill="none" stroke="midnightblue" d="M230.91,-168.44C249.25,-159.68 278.01,-145.94 299.09,-135.86"/>
<polygon fill="midnightblue" stroke="midnightblue" points="300.67,-138.99 308.18,-131.52 297.65,-132.67 300.67,-138.99"/>
</g>
<!-- Node12 -->
<g id="node12" class="node">
<title>Node12</title>
<g id="a_node12"><a xlink:href="logger_8h.html" target="_top" xlink:title=" ">
<polygon fill="none" stroke="black" points="125,-112.5 125,-131.5 175,-131.5 175,-112.5 125,-112.5"/>
<text text-anchor="middle" x="150" y="-119.5" font-family="Helvetica,sans-Serif" font-size="10.00">logger.h</text>
</a>
</g>
</g>
<!-- Node2&#45;&gt;Node12 -->
<g id="edge15" class="edge">
<title>Node2&#45;&gt;Node12</title>
<path fill="none" stroke="midnightblue" d="M202.88,-168.32C193.47,-160.26 179.26,-148.08 167.93,-138.37"/>
<polygon fill="midnightblue" stroke="midnightblue" points="170.18,-135.68 160.31,-131.83 165.62,-141 170.18,-135.68"/>
</g>
<!-- Node13 -->
<g id="node13" class="node">
<title>Node13</title>
<g id="a_node13"><a xlink:title=" ">
<polygon fill="none" stroke="#bfbfbf" points="381.5,-112.5 381.5,-131.5 428.5,-131.5 428.5,-112.5 381.5,-112.5"/>
<text text-anchor="middle" x="405" y="-119.5" font-family="Helvetica,sans-Serif" font-size="10.00">limits.h</text>
</a>
</g>
</g>
<!-- Node2&#45;&gt;Node13 -->
<g id="edge17" class="edge">
<title>Node2&#45;&gt;Node13</title>
<path fill="none" stroke="midnightblue" d="M243.42,-168.44C278.26,-158.65 335.17,-142.64 371.32,-132.47"/>
<polygon fill="midnightblue" stroke="midnightblue" points="372.7,-135.72 381.38,-129.64 370.8,-128.98 372.7,-135.72"/>
</g>
<!-- Node4 -->
<g id="node4" class="node">
<title>Node4</title>
<g id="a_node4"><a xlink:title=" ">
<polygon fill="none" stroke="#bfbfbf" points="0,-0.5 0,-19.5 48,-19.5 48,-0.5 0,-0.5"/>
<text text-anchor="middle" x="24" y="-7.5" font-family="Helvetica,sans-Serif" font-size="10.00">stdint.h</text>
</a>
</g>
</g>
<!-- Node3&#45;&gt;Node4 -->
<g id="edge3" class="edge">
<title>Node3&#45;&gt;Node4</title>
<path fill="none" stroke="midnightblue" d="M82.75,-56.32C72.2,-48.18 56.2,-35.84 43.56,-26.09"/>
<polygon fill="midnightblue" stroke="midnightblue" points="45.51,-23.17 35.45,-19.83 41.23,-28.71 45.51,-23.17"/>
</g>
<!-- Node5 -->
<g id="node5" class="node">
<title>Node5</title>
<g id="a_node5"><a xlink:title=" ">
<polygon fill="none" stroke="#bfbfbf" points="140.5,-0.5 140.5,-19.5 191.5,-19.5 191.5,-0.5 140.5,-0.5"/>
<text text-anchor="middle" x="166" y="-7.5" font-family="Helvetica,sans-Serif" font-size="10.00">stddef.h</text>
</a>
</g>
</g>
<!-- Node3&#45;&gt;Node5 -->
<g id="edge4" class="edge">
<title>Node3&#45;&gt;Node5</title>
<path fill="none" stroke="midnightblue" d="M105.57,-56.32C116.42,-48.18 132.88,-35.84 145.88,-26.09"/>
<polygon fill="midnightblue" stroke="midnightblue" points="148.32,-28.63 154.22,-19.83 144.12,-23.03 148.32,-28.63"/>
</g>
<!-- Node6 -->
<g id="node6" class="node">
<title>Node6</title>
<g id="a_node6"><a xlink:title=" ">
<polygon fill="none" stroke="#bfbfbf" points="66,-0.5 66,-19.5 122,-19.5 122,-0.5 66,-0.5"/>
<text text-anchor="middle" x="94" y="-7.5" font-family="Helvetica,sans-Serif" font-size="10.00">stdbool.h</text>
</a>
</g>
</g>
<!-- Node3&#45;&gt;Node6 -->
<g id="edge5" class="edge">
<title>Node3&#45;&gt;Node6</title>
<path fill="none" stroke="midnightblue" d="M94,-56.08C94,-49.01 94,-38.86 94,-29.99"/>
<polygon fill="midnightblue" stroke="midnightblue" points="97.5,-29.75 94,-19.75 90.5,-29.75 97.5,-29.75"/>
</g>
<!-- Node3&#45;&gt;Node7 -->
<g id="edge6" class="edge">
<title>Node3&#45;&gt;Node7</title>
<path fill="none" stroke="midnightblue" d="M113.01,-58.38C138.32,-49.56 183.53,-33.81 214.84,-22.9"/>
<polygon fill="midnightblue" stroke="midnightblue" points="216.18,-26.14 224.47,-19.55 213.88,-19.53 216.18,-26.14"/>
</g>
<!-- Node8&#45;&gt;Node3 -->
<g id="edge9" class="edge">
<title>Node8&#45;&gt;Node3</title>
<path fill="none" stroke="midnightblue" d="M83.98,-112.08C85.57,-104.93 87.86,-94.64 89.85,-85.69"/>
<polygon fill="midnightblue" stroke="midnightblue" points="93.3,-86.27 92.06,-75.75 86.47,-84.75 93.3,-86.27"/>
</g>
<!-- Node9&#45;&gt;Node3 -->
<g id="edge11" class="edge">
<title>Node9&#45;&gt;Node3</title>
<path fill="none" stroke="midnightblue" d="M194.14,-112.44C174.73,-103.64 144.27,-89.81 122.04,-79.72"/>
<polygon fill="midnightblue" stroke="midnightblue" points="123.32,-76.46 112.77,-75.52 120.43,-82.84 123.32,-76.46"/>
</g>
<!-- Node9&#45;&gt;Node5 -->
<g id="edge12" class="edge">
<title>Node9&#45;&gt;Node5</title>
<path fill="none" stroke="midnightblue" d="M201.79,-112.35C192.07,-104.15 178.57,-90.89 172,-76 165.63,-61.57 164.42,-43.61 164.63,-30.23"/>
<polygon fill="midnightblue" stroke="midnightblue" points="168.14,-30 165.1,-19.85 161.15,-29.68 168.14,-30"/>
</g>
<!-- Node10 -->
<g id="node10" class="node">
<title>Node10</title>
<g id="a_node10"><a xlink:title=" ">
<polygon fill="none" stroke="#bfbfbf" points="181.5,-56.5 181.5,-75.5 232.5,-75.5 232.5,-56.5 181.5,-56.5"/>
<text text-anchor="middle" x="207" y="-63.5" font-family="Helvetica,sans-Serif" font-size="10.00">stdarg.h</text>
</a>
</g>
</g>
<!-- Node9&#45;&gt;Node10 -->
<g id="edge13" class="edge">
<title>Node9&#45;&gt;Node10</title>
<path fill="none" stroke="midnightblue" d="M212.01,-112.08C211.21,-104.93 210.07,-94.64 209.08,-85.69"/>
<polygon fill="midnightblue" stroke="midnightblue" points="212.56,-85.3 207.97,-75.75 205.6,-86.08 212.56,-85.3"/>
</g>
<!-- Node12&#45;&gt;Node3 -->
<g id="edge16" class="edge">
<title>Node12&#45;&gt;Node3</title>
<path fill="none" stroke="midnightblue" d="M141,-112.32C132.81,-104.42 120.49,-92.55 110.53,-82.94"/>
<polygon fill="midnightblue" stroke="midnightblue" points="112.79,-80.26 103.16,-75.83 107.93,-85.29 112.79,-80.26"/>
</g>
<!-- Node14&#45;&gt;Node2 -->
<g id="edge19" class="edge">
<title>Node14&#45;&gt;Node2</title>
<path fill="none" stroke="midnightblue" d="M237.21,-224.08C233.24,-216.69 227.47,-205.95 222.57,-196.81"/>
<polygon fill="midnightblue" stroke="midnightblue" points="225.51,-194.91 217.7,-187.75 219.35,-198.22 225.51,-194.91"/>
</g>
</g>
</svg>
