<?xml version="1.0" encoding="UTF-8" standalone="no"?>
<!DOCTYPE svg PUBLIC "-//W3C//DTD SVG 1.1//EN"
 "http://www.w3.org/Graphics/SVG/1.1/DTD/svg11.dtd">
<!-- Generated by graphviz version 2.50.0 (20220203.2022)
 -->
<!-- Title: MODULE_DEF Pages: 1 -->
<svg width="612pt" height="307pt"
 viewBox="0.00 0.00 612.00 306.90" xmlns="http://www.w3.org/2000/svg" xmlns:xlink="http://www.w3.org/1999/xlink">
<g id="graph0" class="graph" transform="scale(1 1) rotate(0) translate(4 302.9)">
<title>MODULE_DEF</title>
<!-- Node1 -->
<g id="node1" class="node">
<title>Node1</title>
<g id="a_node1"><a xlink:title=" ">
<polygon fill="#bfbfbf" stroke="black" points="0,-143.5 0,-162.5 83,-162.5 83,-143.5 0,-143.5"/>
<text text-anchor="middle" x="41.5" y="-150.5" font-family="Helvetica,sans-Serif" font-size="10.00">MODULE_DEF</text>
</a>
</g>
</g>
<!-- Node2 -->
<g id="node2" class="node">
<title>Node2</title>
<g id="a_node2"><a xlink:href="os_8c.html#aef4448ba4711b237d8254529f2a4b621" target="_top" xlink:title=" ">
<polygon fill="none" stroke="black" points="119.5,-162.5 119.5,-181.5 164.5,-181.5 164.5,-162.5 119.5,-162.5"/>
<text text-anchor="middle" x="142" y="-169.5" font-family="Helvetica,sans-Serif" font-size="10.00">os_init</text>
</a>
</g>
</g>
<!-- Node1&#45;&gt;Node2 -->
<g id="edge1" class="edge">
<title>Node1&#45;&gt;Node2</title>
<path fill="none" stroke="midnightblue" d="M83.13,-160.84C91.85,-162.52 100.94,-164.27 109.27,-165.88"/>
<polygon fill="midnightblue" stroke="midnightblue" points="108.83,-169.36 119.31,-167.82 110.16,-162.49 108.83,-169.36"/>
</g>
<!-- Node3 -->
<g id="node3" class="node">
<title>Node3</title>
<g id="a_node3"><a xlink:href="os_8c.html#a5f9cb32664e017ca15c49ec66e5342e4" target="_top" xlink:title=" ">
<polygon fill="none" stroke="black" points="119,-124.5 119,-143.5 165,-143.5 165,-124.5 119,-124.5"/>
<text text-anchor="middle" x="142" y="-131.5" font-family="Helvetica,sans-Serif" font-size="10.00">os_run</text>
</a>
</g>
</g>
<!-- Node1&#45;&gt;Node3 -->
<g id="edge2" class="edge">
<title>Node1&#45;&gt;Node3</title>
<path fill="none" stroke="midnightblue" d="M83.13,-145.16C91.7,-143.51 100.63,-141.79 108.84,-140.2"/>
<polygon fill="midnightblue" stroke="midnightblue" points="109.61,-143.62 118.77,-138.29 108.28,-136.75 109.61,-143.62"/>
</g>
<!-- Node4 -->
<g id="node4" class="node">
<title>Node4</title>
<g id="a_node4"><a xlink:href="mpe_8c.html#ab701de78cad32896c923ce900087e714" target="_top" xlink:title=" ">
<polygon fill="none" stroke="black" points="439.5,-266.5 439.5,-285.5 507.5,-285.5 507.5,-266.5 439.5,-266.5"/>
<text text-anchor="middle" x="473.5" y="-273.5" font-family="Helvetica,sans-Serif" font-size="10.00">cpu_current</text>
</a>
</g>
</g>
<!-- Node3&#45;&gt;Node4 -->
<g id="edge3" class="edge">
<title>Node3&#45;&gt;Node4</title>
<path fill="none" stroke="midnightblue" d="M154.96,-143.72C158.31,-146.6 161.88,-149.84 165,-153 218.38,-207.13 206.09,-251.88 275,-284 325.29,-307.44 390.83,-298.08 432.3,-288"/>
<polygon fill="midnightblue" stroke="midnightblue" points="433.22,-291.38 442.04,-285.52 431.49,-284.6 433.22,-291.38"/>
</g>
<!-- Node5 -->
<g id="node5" class="node">
<title>Node5</title>
<g id="a_node5"><a xlink:href="trm_8c.html#a483cb97188e557c3c68d3a1572c2cc92" target="_top" xlink:title=" ">
<polygon fill="none" stroke="black" points="204,-152.5 204,-171.5 236,-171.5 236,-152.5 204,-152.5"/>
<text text-anchor="middle" x="220" y="-159.5" font-family="Helvetica,sans-Serif" font-size="10.00">halt</text>
</a>
</g>
</g>
<!-- Node3&#45;&gt;Node5 -->
<g id="edge4" class="edge">
<title>Node3&#45;&gt;Node5</title>
<path fill="none" stroke="midnightblue" d="M165.39,-142.25C174.52,-145.61 185.11,-149.51 194.45,-152.96"/>
<polygon fill="midnightblue" stroke="midnightblue" points="193.38,-156.29 203.97,-156.46 195.8,-149.72 193.38,-156.29"/>
</g>
<!-- Node14 -->
<g id="node14" class="node">
<title>Node14</title>
<g id="a_node14"><a xlink:href="trm_8c.html#a6351d8706733262e7e325926b1a9aab7" target="_top" xlink:title=" ">
<polygon fill="none" stroke="black" points="310.5,-76.5 310.5,-95.5 351.5,-95.5 351.5,-76.5 310.5,-76.5"/>
<text text-anchor="middle" x="331" y="-83.5" font-family="Helvetica,sans-Serif" font-size="10.00">putch</text>
</a>
</g>
</g>
<!-- Node3&#45;&gt;Node14 -->
<g id="edge23" class="edge">
<title>Node3&#45;&gt;Node14</title>
<path fill="none" stroke="midnightblue" d="M165.19,-128.31C198.88,-119.66 262.99,-103.2 300.55,-93.56"/>
<polygon fill="midnightblue" stroke="midnightblue" points="301.58,-96.91 310.39,-91.03 299.84,-90.13 301.58,-96.91"/>
</g>
<!-- Node15 -->
<g id="node15" class="node">
<title>Node15</title>
<g id="a_node15"><a xlink:href="stdio_8c.html#a55f3d956bb2ba20b5059e9e25484a47f" target="_top" xlink:title=" ">
<polygon fill="none" stroke="black" points="201,-48.5 201,-67.5 239,-67.5 239,-48.5 201,-48.5"/>
<text text-anchor="middle" x="220" y="-55.5" font-family="Helvetica,sans-Serif" font-size="10.00">printf</text>
</a>
</g>
</g>
<!-- Node3&#45;&gt;Node15 -->
<g id="edge17" class="edge">
<title>Node3&#45;&gt;Node15</title>
<path fill="none" stroke="midnightblue" d="M152.63,-124.37C165.01,-111.99 186.72,-90.28 201.94,-75.06"/>
<polygon fill="midnightblue" stroke="midnightblue" points="204.62,-77.33 209.21,-67.79 199.67,-72.38 204.62,-77.33"/>
</g>
<!-- Node5&#45;&gt;Node4 -->
<g id="edge12" class="edge">
<title>Node5&#45;&gt;Node4</title>
<path fill="none" stroke="midnightblue" d="M223.28,-171.57C228.56,-191.38 243.63,-236.68 275,-257 321.2,-286.94 386.69,-286.9 429.38,-282.65"/>
<polygon fill="midnightblue" stroke="midnightblue" points="429.9,-286.11 439.45,-281.52 429.12,-279.15 429.9,-286.11"/>
</g>
<!-- Node6 -->
<g id="node6" class="node">
<title>Node6</title>
<g id="a_node6"><a xlink:href="mpe_8c.html#a0a540532023afb1f31b6f21ce053483b" target="_top" xlink:title=" ">
<polygon fill="none" stroke="black" points="275,-228.5 275,-247.5 387,-247.5 387,-228.5 275,-228.5"/>
<text text-anchor="middle" x="331" y="-235.5" font-family="Helvetica,sans-Serif" font-size="10.00">__am_stop_the_world</text>
</a>
</g>
</g>
<!-- Node5&#45;&gt;Node6 -->
<g id="edge5" class="edge">
<title>Node5&#45;&gt;Node6</title>
<path fill="none" stroke="midnightblue" d="M227.94,-171.84C237.28,-184.44 255.06,-206.15 275,-219 278.11,-221.01 281.46,-222.83 284.92,-224.48"/>
<polygon fill="midnightblue" stroke="midnightblue" points="283.64,-227.74 294.21,-228.44 286.39,-221.3 283.64,-227.74"/>
</g>
<!-- Node11 -->
<g id="node11" class="node">
<title>Node11</title>
<g id="a_node11"><a xlink:href="x86_8h.html#acc919e7809ef1db2b20aa3804f540b5c" target="_top" xlink:title=" ">
<polygon fill="none" stroke="black" points="316.5,-190.5 316.5,-209.5 345.5,-209.5 345.5,-190.5 316.5,-190.5"/>
<text text-anchor="middle" x="331" y="-197.5" font-family="Helvetica,sans-Serif" font-size="10.00">cli</text>
</a>
</g>
</g>
<!-- Node5&#45;&gt;Node11 -->
<g id="edge11" class="edge">
<title>Node5&#45;&gt;Node11</title>
<path fill="none" stroke="midnightblue" d="M236.12,-167.35C246.94,-171.17 261.86,-176.42 275,-181 285.48,-184.65 297.09,-188.67 306.93,-192.06"/>
<polygon fill="midnightblue" stroke="midnightblue" points="305.84,-195.39 316.43,-195.34 308.12,-188.77 305.84,-195.39"/>
</g>
<!-- Node12 -->
<g id="node12" class="node">
<title>Node12</title>
<g id="a_node12"><a xlink:href="x86_8h.html#a2adfe40c0aadff727889d263815cb8ed" target="_top" xlink:title=" ">
<polygon fill="none" stroke="black" points="316.5,-152.5 316.5,-171.5 345.5,-171.5 345.5,-152.5 316.5,-152.5"/>
<text text-anchor="middle" x="331" y="-159.5" font-family="Helvetica,sans-Serif" font-size="10.00">hlt</text>
</a>
</g>
</g>
<!-- Node5&#45;&gt;Node12 -->
<g id="edge13" class="edge">
<title>Node5&#45;&gt;Node12</title>
<path fill="none" stroke="midnightblue" d="M236.16,-162C254.29,-162 284.86,-162 306.17,-162"/>
<polygon fill="midnightblue" stroke="midnightblue" points="306.35,-165.5 316.35,-162 306.35,-158.5 306.35,-165.5"/>
</g>
<!-- Node13 -->
<g id="node13" class="node">
<title>Node13</title>
<g id="a_node13"><a xlink:href="x86_8h.html#af92fc55c49437b9152499a13ba2b6585" target="_top" xlink:title=" ">
<polygon fill="none" stroke="black" points="312,-114.5 312,-133.5 350,-133.5 350,-114.5 312,-114.5"/>
<text text-anchor="middle" x="331" y="-121.5" font-family="Helvetica,sans-Serif" font-size="10.00">outw</text>
</a>
</g>
</g>
<!-- Node5&#45;&gt;Node13 -->
<g id="edge14" class="edge">
<title>Node5&#45;&gt;Node13</title>
<path fill="none" stroke="midnightblue" d="M236.12,-156.65C246.94,-152.83 261.86,-147.58 275,-143 283.78,-139.94 293.35,-136.63 302.01,-133.63"/>
<polygon fill="midnightblue" stroke="midnightblue" points="303.35,-136.88 311.66,-130.31 301.06,-130.26 303.35,-136.88"/>
</g>
<!-- Node5&#45;&gt;Node14 -->
<g id="edge15" class="edge">
<title>Node5&#45;&gt;Node14</title>
<path fill="none" stroke="midnightblue" d="M227.94,-152.16C237.28,-139.56 255.06,-117.85 275,-105 282.75,-100 291.97,-96.16 300.62,-93.27"/>
<polygon fill="midnightblue" stroke="midnightblue" points="301.83,-96.56 310.39,-90.32 299.81,-89.86 301.83,-96.56"/>
</g>
<!-- Node6&#45;&gt;Node4 -->
<g id="edge10" class="edge">
<title>Node6&#45;&gt;Node4</title>
<path fill="none" stroke="midnightblue" d="M367.45,-247.59C386.37,-252.71 409.79,-259.04 429.71,-264.43"/>
<polygon fill="midnightblue" stroke="midnightblue" points="428.9,-267.83 439.47,-267.07 430.73,-261.08 428.9,-267.83"/>
</g>
<!-- Node7 -->
<g id="node7" class="node">
<title>Node7</title>
<g id="a_node7"><a xlink:href="ioe_8c.html#a88a238fee7cd006afa69ea97e4914a09" target="_top" xlink:title=" ">
<polygon fill="none" stroke="black" points="423,-228.5 423,-247.5 524,-247.5 524,-228.5 423,-228.5"/>
<text text-anchor="middle" x="473.5" y="-235.5" font-family="Helvetica,sans-Serif" font-size="10.00">__am_lapic_bootap</text>
</a>
</g>
</g>
<!-- Node6&#45;&gt;Node7 -->
<g id="edge6" class="edge">
<title>Node6&#45;&gt;Node7</title>
<path fill="none" stroke="midnightblue" d="M387.13,-238C395.43,-238 404.04,-238 412.44,-238"/>
<polygon fill="midnightblue" stroke="midnightblue" points="412.56,-241.5 422.56,-238 412.56,-234.5 412.56,-241.5"/>
</g>
<!-- Node10 -->
<g id="node10" class="node">
<title>Node10</title>
<g id="a_node10"><a xlink:href="x86_8h.html#adfa01b89ceed9e7a87f185f4e441aa16" target="_top" xlink:title=" ">
<polygon fill="none" stroke="black" points="439.5,-190.5 439.5,-209.5 507.5,-209.5 507.5,-190.5 439.5,-190.5"/>
<text text-anchor="middle" x="473.5" y="-197.5" font-family="Helvetica,sans-Serif" font-size="10.00">boot_record</text>
</a>
</g>
</g>
<!-- Node6&#45;&gt;Node10 -->
<g id="edge9" class="edge">
<title>Node6&#45;&gt;Node10</title>
<path fill="none" stroke="midnightblue" d="M367.45,-228.41C386.37,-223.29 409.79,-216.96 429.71,-211.57"/>
<polygon fill="midnightblue" stroke="midnightblue" points="430.73,-214.92 439.47,-208.93 428.9,-208.17 430.73,-214.92"/>
</g>
<!-- Node8 -->
<g id="node8" class="node">
<title>Node8</title>
<g id="a_node8"><a xlink:href="ioe_8c.html#a72d9ed0bfe1066367763e044b7a7b7c3" target="_top" xlink:title=" ">
<polygon fill="none" stroke="black" points="560,-228.5 560,-247.5 604,-247.5 604,-228.5 560,-228.5"/>
<text text-anchor="middle" x="582" y="-235.5" font-family="Helvetica,sans-Serif" font-size="10.00">lapicw</text>
</a>
</g>
</g>
<!-- Node7&#45;&gt;Node8 -->
<g id="edge7" class="edge">
<title>Node7&#45;&gt;Node8</title>
<path fill="none" stroke="midnightblue" d="M524.01,-238C532.77,-238 541.67,-238 549.75,-238"/>
<polygon fill="midnightblue" stroke="midnightblue" points="549.82,-241.5 559.82,-238 549.82,-234.5 549.82,-241.5"/>
</g>
<!-- Node9 -->
<g id="node9" class="node">
<title>Node9</title>
<g id="a_node9"><a xlink:href="x86_8h.html#ade961b44e45ddacbc3c3b7609cf36dc6" target="_top" xlink:title=" ">
<polygon fill="none" stroke="black" points="564.5,-171.5 564.5,-190.5 599.5,-190.5 599.5,-171.5 564.5,-171.5"/>
<text text-anchor="middle" x="582" y="-178.5" font-family="Helvetica,sans-Serif" font-size="10.00">outb</text>
</a>
</g>
</g>
<!-- Node7&#45;&gt;Node9 -->
<g id="edge8" class="edge">
<title>Node7&#45;&gt;Node9</title>
<path fill="none" stroke="midnightblue" d="M502.73,-228.4C509.81,-225.66 517.3,-222.47 524,-219 536.55,-212.51 549.72,-203.87 560.23,-196.46"/>
<polygon fill="midnightblue" stroke="midnightblue" points="562.3,-199.29 568.37,-190.61 558.21,-193.61 562.3,-199.29"/>
</g>
<!-- Node14&#45;&gt;Node9 -->
<g id="edge16" class="edge">
<title>Node14&#45;&gt;Node9</title>
<path fill="none" stroke="midnightblue" d="M351.67,-92.58C362.19,-96.15 375.34,-100.7 387,-105 447.5,-127.29 517.8,-155.38 554.92,-170.39"/>
<polygon fill="midnightblue" stroke="midnightblue" points="553.9,-173.75 564.48,-174.26 556.52,-167.27 553.9,-173.75"/>
</g>
<!-- Node16 -->
<g id="node16" class="node">
<title>Node16</title>
<g id="a_node16"><a xlink:href="stdio_8c.html#a44a6734c6f8f81d8e1fa3b9d476c5134" target="_top" xlink:title=" ">
<polygon fill="none" stroke="black" points="306.5,-38.5 306.5,-57.5 355.5,-57.5 355.5,-38.5 306.5,-38.5"/>
<text text-anchor="middle" x="331" y="-45.5" font-family="Helvetica,sans-Serif" font-size="10.00">vsprintf</text>
</a>
</g>
</g>
<!-- Node15&#45;&gt;Node16 -->
<g id="edge18" class="edge">
<title>Node15&#45;&gt;Node16</title>
<path fill="none" stroke="midnightblue" d="M239.49,-56.3C255,-54.88 277.55,-52.81 296.26,-51.1"/>
<polygon fill="midnightblue" stroke="midnightblue" points="296.83,-54.56 306.47,-50.16 296.19,-47.59 296.83,-54.56"/>
</g>
<!-- Node17 -->
<g id="node17" class="node">
<title>Node17</title>
<g id="a_node17"><a xlink:href="string_8c.html#a9517a4a50477f651785c09b27826d8ce" target="_top" xlink:title=" ">
<polygon fill="none" stroke="black" points="453,-76.5 453,-95.5 494,-95.5 494,-76.5 453,-76.5"/>
<text text-anchor="middle" x="473.5" y="-83.5" font-family="Helvetica,sans-Serif" font-size="10.00">strcat</text>
</a>
</g>
</g>
<!-- Node16&#45;&gt;Node17 -->
<g id="edge19" class="edge">
<title>Node16&#45;&gt;Node17</title>
<path fill="none" stroke="midnightblue" d="M355.52,-54.36C379.65,-60.89 417.26,-71.06 443.29,-78.1"/>
<polygon fill="midnightblue" stroke="midnightblue" points="442.42,-81.49 452.99,-80.72 444.25,-74.73 442.42,-81.49"/>
</g>
<!-- Node18 -->
<g id="node18" class="node">
<title>Node18</title>
<g id="a_node18"><a xlink:href="string_8c.html#aa383452fe445bfae989358c9d7d96f4f" target="_top" xlink:title=" ">
<polygon fill="none" stroke="black" points="561.5,-57.5 561.5,-76.5 602.5,-76.5 602.5,-57.5 561.5,-57.5"/>
<text text-anchor="middle" x="582" y="-64.5" font-family="Helvetica,sans-Serif" font-size="10.00">strlen</text>
</a>
</g>
</g>
<!-- Node16&#45;&gt;Node18 -->
<g id="edge21" class="edge">
<title>Node16&#45;&gt;Node18</title>
<path fill="none" stroke="midnightblue" d="M355.88,-49.82C401.58,-53.31 501.31,-60.92 551.26,-64.73"/>
<polygon fill="midnightblue" stroke="midnightblue" points="551.17,-68.23 561.4,-65.5 551.7,-61.25 551.17,-68.23"/>
</g>
<!-- Node19 -->
<g id="node19" class="node">
<title>Node19</title>
<g id="a_node19"><a xlink:href="stdio_8c.html#a8a0e94b5b0c2a000751f94fd7a5c0071" target="_top" xlink:title=" ">
<polygon fill="none" stroke="black" points="444,-0.5 444,-19.5 503,-19.5 503,-0.5 444,-0.5"/>
<text text-anchor="middle" x="473.5" y="-7.5" font-family="Helvetica,sans-Serif" font-size="10.00">vprintf_int</text>
</a>
</g>
</g>
<!-- Node16&#45;&gt;Node19 -->
<g id="edge22" class="edge">
<title>Node16&#45;&gt;Node19</title>
<path fill="none" stroke="midnightblue" d="M355.52,-41.64C376.87,-35.86 408.77,-27.24 433.86,-20.45"/>
<polygon fill="midnightblue" stroke="midnightblue" points="435.06,-23.75 443.8,-17.76 433.23,-16.99 435.06,-23.75"/>
</g>
<!-- Node17&#45;&gt;Node18 -->
<g id="edge20" class="edge">
<title>Node17&#45;&gt;Node18</title>
<path fill="none" stroke="midnightblue" d="M494.03,-82.52C510.07,-79.65 533.04,-75.56 551.35,-72.29"/>
<polygon fill="midnightblue" stroke="midnightblue" points="552,-75.73 561.23,-70.53 550.77,-68.84 552,-75.73"/>
</g>
</g>
</svg>
