<?xml version="1.0" encoding="UTF-8" standalone="no"?>
<!DOCTYPE svg PUBLIC "-//W3C//DTD SVG 1.1//EN"
 "http://www.w3.org/Graphics/SVG/1.1/DTD/svg11.dtd">
<!-- Generated by graphviz version 3.0.0 (20220413.0106)
 -->
<!-- Title: os_trap Pages: 1 -->
<svg width="560pt" height="199pt"
 viewBox="0.00 0.00 560.00 199.00" xmlns="http://www.w3.org/2000/svg" xmlns:xlink="http://www.w3.org/1999/xlink">
<g id="graph0" class="graph" transform="scale(1 1) rotate(0) translate(4 195)">
<title>os_trap</title>
<!-- Node1 -->
<g id="node1" class="node">
<title>Node1</title>
<g id="a_node1"><a xlink:title="System trap entry.">
<polygon fill="#bfbfbf" stroke="black" points="0,-114.5 0,-133.5 49,-133.5 49,-114.5 0,-114.5"/>
<text text-anchor="middle" x="24.5" y="-121.5" font-family="Helvetica,sans-Serif" font-size="10.00">os_trap</text>
</a>
</g>
</g>
<!-- Node2 -->
<g id="node2" class="node">
<title>Node2</title>
<g id="a_node2"><a xlink:href="spinlock_8c.html#ad4be0d674a7ca4dc90c2dbf8b34562cc" target="_top" xlink:title="check current cpu has the lock">
<polygon fill="none" stroke="black" points="189,-114.5 189,-133.5 260,-133.5 260,-114.5 189,-114.5"/>
<text text-anchor="middle" x="224.5" y="-121.5" font-family="Helvetica,sans-Serif" font-size="10.00">spin_holding</text>
</a>
</g>
</g>
<!-- Node1&#45;&gt;Node2 -->
<g id="edge1" class="edge">
<title>Node1&#45;&gt;Node2</title>
<path fill="none" stroke="midnightblue" d="M49.38,-124C81.36,-124 138.72,-124 178.83,-124"/>
<polygon fill="midnightblue" stroke="midnightblue" points="178.89,-127.5 188.89,-124 178.89,-120.5 178.89,-127.5"/>
</g>
<!-- Node11 -->
<g id="node11" class="node">
<title>Node11</title>
<g id="a_node11"><a xlink:href="spinlock_8c.html#ab6f3c37ec37006951feccc3c05387cce" target="_top" xlink:title="acquire spinlock to current cpu">
<polygon fill="none" stroke="black" points="90,-76.5 90,-95.5 148,-95.5 148,-76.5 90,-76.5"/>
<text text-anchor="middle" x="119" y="-83.5" font-family="Helvetica,sans-Serif" font-size="10.00">spin_lock</text>
</a>
</g>
</g>
<!-- Node1&#45;&gt;Node11 -->
<g id="edge13" class="edge">
<title>Node1&#45;&gt;Node11</title>
<path fill="none" stroke="midnightblue" d="M48.84,-114.41C59.91,-109.87 73.31,-104.36 85.36,-99.41"/>
<polygon fill="midnightblue" stroke="midnightblue" points="86.75,-102.62 94.67,-95.59 84.09,-96.15 86.75,-102.62"/>
</g>
<!-- Node14 -->
<g id="node14" class="node">
<title>Node14</title>
<g id="a_node14"><a xlink:href="spinlock_8c.html#acdf118d615a4bc4064e991add9a80995" target="_top" xlink:title="release spinlock from current cpu">
<polygon fill="none" stroke="black" points="85,-152.5 85,-171.5 153,-171.5 153,-152.5 85,-152.5"/>
<text text-anchor="middle" x="119" y="-159.5" font-family="Helvetica,sans-Serif" font-size="10.00">spin_unlock</text>
</a>
</g>
</g>
<!-- Node1&#45;&gt;Node14 -->
<g id="edge19" class="edge">
<title>Node1&#45;&gt;Node14</title>
<path fill="none" stroke="midnightblue" d="M48.84,-133.59C59.91,-138.13 73.31,-143.64 85.36,-148.59"/>
<polygon fill="midnightblue" stroke="midnightblue" points="84.09,-151.85 94.67,-152.41 86.75,-145.38 84.09,-151.85"/>
</g>
<!-- Node3 -->
<g id="node3" class="node">
<title>Node3</title>
<g id="a_node3"><a xlink:href="mpe_8c.html#ab701de78cad32896c923ce900087e714" target="_top" xlink:title=" ">
<polygon fill="none" stroke="black" points="403,-114.5 403,-133.5 471,-133.5 471,-114.5 403,-114.5"/>
<text text-anchor="middle" x="437" y="-121.5" font-family="Helvetica,sans-Serif" font-size="10.00">cpu_current</text>
</a>
</g>
</g>
<!-- Node2&#45;&gt;Node3 -->
<g id="edge2" class="edge">
<title>Node2&#45;&gt;Node3</title>
<path fill="none" stroke="midnightblue" d="M260.26,-124C296.6,-124 353.69,-124 392.88,-124"/>
<polygon fill="midnightblue" stroke="midnightblue" points="392.92,-127.5 402.92,-124 392.92,-120.5 392.92,-127.5"/>
</g>
<!-- Node4 -->
<g id="node4" class="node">
<title>Node4</title>
<g id="a_node4"><a xlink:href="spinlock_8c.html#afc9565dc7a5ddf77e1fa76f5d91caf78" target="_top" xlink:title="interrupt able">
<polygon fill="none" stroke="black" points="299,-152.5 299,-171.5 364,-171.5 364,-152.5 299,-152.5"/>
<text text-anchor="middle" x="331.5" y="-159.5" font-family="Helvetica,sans-Serif" font-size="10.00">spin_popcli</text>
</a>
</g>
</g>
<!-- Node2&#45;&gt;Node4 -->
<g id="edge3" class="edge">
<title>Node2&#45;&gt;Node4</title>
<path fill="none" stroke="midnightblue" d="M252,-133.59C264.8,-138.22 280.38,-143.86 294.26,-148.89"/>
<polygon fill="midnightblue" stroke="midnightblue" points="293.42,-152.3 304.01,-152.41 295.8,-145.72 293.42,-152.3"/>
</g>
<!-- Node8 -->
<g id="node8" class="node">
<title>Node8</title>
<g id="a_node8"><a xlink:href="spinlock_8c.html#ab213874cda54fdbbeb1bec1e5fa90b28" target="_top" xlink:title="interrupt disable">
<polygon fill="none" stroke="black" points="296,-76.5 296,-95.5 367,-95.5 367,-76.5 296,-76.5"/>
<text text-anchor="middle" x="331.5" y="-83.5" font-family="Helvetica,sans-Serif" font-size="10.00">spin_pushcli</text>
</a>
</g>
</g>
<!-- Node2&#45;&gt;Node8 -->
<g id="edge8" class="edge">
<title>Node2&#45;&gt;Node8</title>
<path fill="none" stroke="midnightblue" d="M252,-114.41C264.8,-109.78 280.38,-104.14 294.26,-99.11"/>
<polygon fill="midnightblue" stroke="midnightblue" points="295.8,-102.28 304.01,-95.59 293.42,-95.7 295.8,-102.28"/>
</g>
<!-- Node4&#45;&gt;Node3 -->
<g id="edge4" class="edge">
<title>Node4&#45;&gt;Node3</title>
<path fill="none" stroke="midnightblue" d="M358.62,-152.41C371.24,-147.78 386.59,-142.14 400.28,-137.11"/>
<polygon fill="midnightblue" stroke="midnightblue" points="401.71,-140.32 409.89,-133.59 399.3,-133.75 401.71,-140.32"/>
</g>
<!-- Node5 -->
<g id="node5" class="node">
<title>Node5</title>
<g id="a_node5"><a xlink:href="cte_8c.html#a4a139958742786c5085172be1f69bfd0" target="_top" xlink:title=" ">
<polygon fill="none" stroke="black" points="421,-152.5 421,-171.5 453,-171.5 453,-152.5 421,-152.5"/>
<text text-anchor="middle" x="437" y="-159.5" font-family="Helvetica,sans-Serif" font-size="10.00">iset</text>
</a>
</g>
</g>
<!-- Node4&#45;&gt;Node5 -->
<g id="edge5" class="edge">
<title>Node4&#45;&gt;Node5</title>
<path fill="none" stroke="midnightblue" d="M364.12,-162C378.94,-162 396.37,-162 410.36,-162"/>
<polygon fill="midnightblue" stroke="midnightblue" points="410.72,-165.5 420.72,-162 410.72,-158.5 410.72,-165.5"/>
</g>
<!-- Node6 -->
<g id="node6" class="node">
<title>Node6</title>
<g id="a_node6"><a xlink:href="x86_8h.html#acc919e7809ef1db2b20aa3804f540b5c" target="_top" xlink:title=" ">
<polygon fill="none" stroke="black" points="515,-133.5 515,-152.5 544,-152.5 544,-133.5 515,-133.5"/>
<text text-anchor="middle" x="529.5" y="-140.5" font-family="Helvetica,sans-Serif" font-size="10.00">cli</text>
</a>
</g>
</g>
<!-- Node5&#45;&gt;Node6 -->
<g id="edge6" class="edge">
<title>Node5&#45;&gt;Node6</title>
<path fill="none" stroke="midnightblue" d="M453.35,-158.78C467.5,-155.81 488.71,-151.35 504.99,-147.94"/>
<polygon fill="midnightblue" stroke="midnightblue" points="505.78,-151.35 514.85,-145.87 504.35,-144.49 505.78,-151.35"/>
</g>
<!-- Node7 -->
<g id="node7" class="node">
<title>Node7</title>
<g id="a_node7"><a xlink:href="x86_8h.html#a4657e97b270d7af5a23da2c4d642ada2" target="_top" xlink:title=" ">
<polygon fill="none" stroke="black" points="515,-171.5 515,-190.5 544,-190.5 544,-171.5 515,-171.5"/>
<text text-anchor="middle" x="529.5" y="-178.5" font-family="Helvetica,sans-Serif" font-size="10.00">sti</text>
</a>
</g>
</g>
<!-- Node5&#45;&gt;Node7 -->
<g id="edge7" class="edge">
<title>Node5&#45;&gt;Node7</title>
<path fill="none" stroke="midnightblue" d="M453.35,-165.22C467.5,-168.19 488.71,-172.65 504.99,-176.06"/>
<polygon fill="midnightblue" stroke="midnightblue" points="504.35,-179.51 514.85,-178.13 505.78,-172.65 504.35,-179.51"/>
</g>
<!-- Node8&#45;&gt;Node3 -->
<g id="edge9" class="edge">
<title>Node8&#45;&gt;Node3</title>
<path fill="none" stroke="midnightblue" d="M358.62,-95.59C371.24,-100.22 386.59,-105.86 400.28,-110.89"/>
<polygon fill="midnightblue" stroke="midnightblue" points="399.3,-114.25 409.89,-114.41 401.71,-107.68 399.3,-114.25"/>
</g>
<!-- Node8&#45;&gt;Node5 -->
<g id="edge12" class="edge">
<title>Node8&#45;&gt;Node5</title>
<path fill="none" stroke="midnightblue" d="M343.55,-95.85C357.09,-107.7 380.93,-127.87 403,-143 405.92,-145.01 409.07,-147 412.22,-148.91"/>
<polygon fill="midnightblue" stroke="midnightblue" points="410.51,-151.96 420.91,-153.97 414.03,-145.92 410.51,-151.96"/>
</g>
<!-- Node9 -->
<g id="node9" class="node">
<title>Node9</title>
<g id="a_node9"><a xlink:href="cte_8c.html#a79659a2b801c42951e38f3a8821acbae" target="_top" xlink:title=" ">
<polygon fill="none" stroke="black" points="410.5,-76.5 410.5,-95.5 463.5,-95.5 463.5,-76.5 410.5,-76.5"/>
<text text-anchor="middle" x="437" y="-83.5" font-family="Helvetica,sans-Serif" font-size="10.00">ienabled</text>
</a>
</g>
</g>
<!-- Node8&#45;&gt;Node9 -->
<g id="edge10" class="edge">
<title>Node8&#45;&gt;Node9</title>
<path fill="none" stroke="midnightblue" d="M367.25,-86C377.82,-86 389.46,-86 400.1,-86"/>
<polygon fill="midnightblue" stroke="midnightblue" points="400.34,-89.5 410.34,-86 400.34,-82.5 400.34,-89.5"/>
</g>
<!-- Node10 -->
<g id="node10" class="node">
<title>Node10</title>
<g id="a_node10"><a xlink:href="x86_8h.html#a73d094f09c6a7dd3fc703aa8229933ee" target="_top" xlink:title=" ">
<polygon fill="none" stroke="black" points="507,-76.5 507,-95.5 552,-95.5 552,-76.5 507,-76.5"/>
<text text-anchor="middle" x="529.5" y="-83.5" font-family="Helvetica,sans-Serif" font-size="10.00">get_efl</text>
</a>
</g>
</g>
<!-- Node9&#45;&gt;Node10 -->
<g id="edge11" class="edge">
<title>Node9&#45;&gt;Node10</title>
<path fill="none" stroke="midnightblue" d="M463.69,-86C473.88,-86 485.71,-86 496.45,-86"/>
<polygon fill="midnightblue" stroke="midnightblue" points="496.73,-89.5 506.73,-86 496.73,-82.5 496.73,-89.5"/>
</g>
<!-- Node11&#45;&gt;Node2 -->
<g id="edge17" class="edge">
<title>Node11&#45;&gt;Node2</title>
<path fill="none" stroke="midnightblue" d="M146.12,-95.59C158.74,-100.22 174.09,-105.86 187.78,-110.89"/>
<polygon fill="midnightblue" stroke="midnightblue" points="186.8,-114.25 197.39,-114.41 189.21,-107.68 186.8,-114.25"/>
</g>
<!-- Node11&#45;&gt;Node3 -->
<g id="edge16" class="edge">
<title>Node11&#45;&gt;Node3</title>
<path fill="none" stroke="midnightblue" d="M145.82,-76.42C192.24,-60.82 291.93,-34.71 367,-67 388.37,-76.19 384.73,-90.6 403,-105 404.77,-106.4 406.66,-107.76 408.6,-109.07"/>
<polygon fill="midnightblue" stroke="midnightblue" points="406.9,-112.13 417.23,-114.45 410.6,-106.19 406.9,-112.13"/>
</g>
<!-- Node11&#45;&gt;Node8 -->
<g id="edge18" class="edge">
<title>Node11&#45;&gt;Node8</title>
<path fill="none" stroke="midnightblue" d="M148.39,-86C183.67,-86 244.28,-86 285.81,-86"/>
<polygon fill="midnightblue" stroke="midnightblue" points="285.93,-89.5 295.93,-86 285.93,-82.5 285.93,-89.5"/>
</g>
<!-- Node12 -->
<g id="node12" class="node">
<title>Node12</title>
<g id="a_node12"><a xlink:href="mpe_8c.html#aaaad47c97c82065cf463f83b98b23c30" target="_top" xlink:title=" ">
<polygon fill="none" stroke="black" points="189,-0.5 189,-19.5 260,-19.5 260,-0.5 189,-0.5"/>
<text text-anchor="middle" x="224.5" y="-7.5" font-family="Helvetica,sans-Serif" font-size="10.00">atomic_xchg</text>
</a>
</g>
</g>
<!-- Node11&#45;&gt;Node12 -->
<g id="edge14" class="edge">
<title>Node11&#45;&gt;Node12</title>
<path fill="none" stroke="midnightblue" d="M132.61,-76.27C146.36,-65.71 169.08,-48.43 189,-34 192.83,-31.23 196.92,-28.32 200.91,-25.53"/>
<polygon fill="midnightblue" stroke="midnightblue" points="203.1,-28.27 209.31,-19.69 199.11,-22.52 203.1,-28.27"/>
</g>
<!-- Node13 -->
<g id="node13" class="node">
<title>Node13</title>
<g id="a_node13"><a xlink:href="x86_8h.html#a48b2a6a16dc8d7e09d327aa3803f1112" target="_top" xlink:title=" ">
<polygon fill="none" stroke="black" points="313,-0.5 313,-19.5 350,-19.5 350,-0.5 313,-0.5"/>
<text text-anchor="middle" x="331.5" y="-7.5" font-family="Helvetica,sans-Serif" font-size="10.00">xchg</text>
</a>
</g>
</g>
<!-- Node12&#45;&gt;Node13 -->
<g id="edge15" class="edge">
<title>Node12&#45;&gt;Node13</title>
<path fill="none" stroke="midnightblue" d="M260.17,-10C273.99,-10 289.67,-10 302.71,-10"/>
<polygon fill="midnightblue" stroke="midnightblue" points="302.95,-13.5 312.95,-10 302.95,-6.5 302.95,-13.5"/>
</g>
<!-- Node14&#45;&gt;Node2 -->
<g id="edge20" class="edge">
<title>Node14&#45;&gt;Node2</title>
<path fill="none" stroke="midnightblue" d="M146.12,-152.41C158.74,-147.78 174.09,-142.14 187.78,-137.11"/>
<polygon fill="midnightblue" stroke="midnightblue" points="189.21,-140.32 197.39,-133.59 186.8,-133.75 189.21,-140.32"/>
</g>
<!-- Node14&#45;&gt;Node4 -->
<g id="edge21" class="edge">
<title>Node14&#45;&gt;Node4</title>
<path fill="none" stroke="midnightblue" d="M153.35,-162C189.96,-162 248.8,-162 288.52,-162"/>
<polygon fill="midnightblue" stroke="midnightblue" points="288.68,-165.5 298.68,-162 288.68,-158.5 288.68,-165.5"/>
</g>
</g>
</svg>
