<?xml version="1.0" encoding="UTF-8" standalone="no"?>
<!DOCTYPE svg PUBLIC "-//W3C//DTD SVG 1.1//EN"
 "http://www.w3.org/Graphics/SVG/1.1/DTD/svg11.dtd">
<!-- Generated by graphviz version 2.50.0 (20220203.2022)
 -->
<!-- Title: os_run Pages: 1 -->
<svg width="508pt" height="325pt"
 viewBox="0.00 0.00 508.00 324.99" xmlns="http://www.w3.org/2000/svg" xmlns:xlink="http://www.w3.org/1999/xlink">
<g id="graph0" class="graph" transform="scale(1 1) rotate(0) translate(4 320.99)">
<title>os_run</title>
<!-- Node1 -->
<g id="node1" class="node">
<title>Node1</title>
<g id="a_node1"><a xlink:title=" ">
<polygon fill="#bfbfbf" stroke="black" points="0,-151.5 0,-170.5 46,-170.5 46,-151.5 0,-151.5"/>
<text text-anchor="middle" x="23" y="-158.5" font-family="Helvetica,sans-Serif" font-size="10.00">os_run</text>
</a>
</g>
</g>
<!-- Node2 -->
<g id="node2" class="node">
<title>Node2</title>
<g id="a_node2"><a xlink:href="mpe_8c.html#ab701de78cad32896c923ce900087e714" target="_top" xlink:title=" ">
<polygon fill="none" stroke="black" points="320.5,-285.5 320.5,-304.5 388.5,-304.5 388.5,-285.5 320.5,-285.5"/>
<text text-anchor="middle" x="354.5" y="-292.5" font-family="Helvetica,sans-Serif" font-size="10.00">cpu_current</text>
</a>
</g>
</g>
<!-- Node1&#45;&gt;Node2 -->
<g id="edge1" class="edge">
<title>Node1&#45;&gt;Node2</title>
<path fill="none" stroke="midnightblue" d="M29.19,-170.76C44.34,-198.04 91.51,-274.9 156,-303 206.13,-324.85 270.38,-316.39 311.75,-306.9"/>
<polygon fill="midnightblue" stroke="midnightblue" points="312.59,-310.3 321.49,-304.55 310.95,-303.49 312.59,-310.3"/>
</g>
<!-- Node3 -->
<g id="node3" class="node">
<title>Node3</title>
<g id="a_node3"><a xlink:href="trm_8c.html#a483cb97188e557c3c68d3a1572c2cc92" target="_top" xlink:title=" ">
<polygon fill="none" stroke="black" points="85,-171.5 85,-190.5 117,-190.5 117,-171.5 85,-171.5"/>
<text text-anchor="middle" x="101" y="-178.5" font-family="Helvetica,sans-Serif" font-size="10.00">halt</text>
</a>
</g>
</g>
<!-- Node1&#45;&gt;Node3 -->
<g id="edge2" class="edge">
<title>Node1&#45;&gt;Node3</title>
<path fill="none" stroke="midnightblue" d="M46.39,-166.89C55.43,-169.27 65.89,-172.02 75.15,-174.46"/>
<polygon fill="midnightblue" stroke="midnightblue" points="74.41,-177.89 84.97,-177.05 76.19,-171.12 74.41,-177.89"/>
</g>
<!-- Node12 -->
<g id="node12" class="node">
<title>Node12</title>
<g id="a_node12"><a xlink:href="trm_8c.html#a6351d8706733262e7e325926b1a9aab7" target="_top" xlink:title=" ">
<polygon fill="none" stroke="black" points="191.5,-95.5 191.5,-114.5 232.5,-114.5 232.5,-95.5 191.5,-95.5"/>
<text text-anchor="middle" x="212" y="-102.5" font-family="Helvetica,sans-Serif" font-size="10.00">putch</text>
</a>
</g>
</g>
<!-- Node1&#45;&gt;Node12 -->
<g id="edge22" class="edge">
<title>Node1&#45;&gt;Node12</title>
<path fill="none" stroke="midnightblue" d="M46.19,-154.36C79.88,-144.27 143.99,-125.07 181.55,-113.82"/>
<polygon fill="midnightblue" stroke="midnightblue" points="182.82,-117.09 191.39,-110.87 180.81,-110.39 182.82,-117.09"/>
</g>
<!-- Node13 -->
<g id="node13" class="node">
<title>Node13</title>
<g id="a_node13"><a xlink:href="stdio_8c.html#a55f3d956bb2ba20b5059e9e25484a47f" target="_top" xlink:title=" ">
<polygon fill="none" stroke="black" points="82,-76.5 82,-95.5 120,-95.5 120,-76.5 82,-76.5"/>
<text text-anchor="middle" x="101" y="-83.5" font-family="Helvetica,sans-Serif" font-size="10.00">printf</text>
</a>
</g>
</g>
<!-- Node1&#45;&gt;Node13 -->
<g id="edge15" class="edge">
<title>Node1&#45;&gt;Node13</title>
<path fill="none" stroke="midnightblue" d="M33.94,-151.2C46.41,-138.89 67.99,-117.59 83.08,-102.69"/>
<polygon fill="midnightblue" stroke="midnightblue" points="85.64,-105.09 90.3,-95.57 80.73,-100.1 85.64,-105.09"/>
</g>
<!-- Node3&#45;&gt;Node2 -->
<g id="edge10" class="edge">
<title>Node3&#45;&gt;Node2</title>
<path fill="none" stroke="midnightblue" d="M104.28,-190.57C109.56,-210.38 124.63,-255.68 156,-276 202.2,-305.94 267.69,-305.9 310.38,-301.65"/>
<polygon fill="midnightblue" stroke="midnightblue" points="310.9,-305.11 320.45,-300.52 310.12,-298.15 310.9,-305.11"/>
</g>
<!-- Node4 -->
<g id="node4" class="node">
<title>Node4</title>
<g id="a_node4"><a xlink:href="mpe_8c.html#a0a540532023afb1f31b6f21ce053483b" target="_top" xlink:title=" ">
<polygon fill="none" stroke="black" points="156,-247.5 156,-266.5 268,-266.5 268,-247.5 156,-247.5"/>
<text text-anchor="middle" x="212" y="-254.5" font-family="Helvetica,sans-Serif" font-size="10.00">__am_stop_the_world</text>
</a>
</g>
</g>
<!-- Node3&#45;&gt;Node4 -->
<g id="edge3" class="edge">
<title>Node3&#45;&gt;Node4</title>
<path fill="none" stroke="midnightblue" d="M108.94,-190.84C118.28,-203.44 136.06,-225.15 156,-238 159.11,-240.01 162.46,-241.83 165.92,-243.48"/>
<polygon fill="midnightblue" stroke="midnightblue" points="164.64,-246.74 175.21,-247.44 167.39,-240.3 164.64,-246.74"/>
</g>
<!-- Node9 -->
<g id="node9" class="node">
<title>Node9</title>
<g id="a_node9"><a xlink:href="x86_8h.html#acc919e7809ef1db2b20aa3804f540b5c" target="_top" xlink:title=" ">
<polygon fill="none" stroke="black" points="197.5,-209.5 197.5,-228.5 226.5,-228.5 226.5,-209.5 197.5,-209.5"/>
<text text-anchor="middle" x="212" y="-216.5" font-family="Helvetica,sans-Serif" font-size="10.00">cli</text>
</a>
</g>
</g>
<!-- Node3&#45;&gt;Node9 -->
<g id="edge9" class="edge">
<title>Node3&#45;&gt;Node9</title>
<path fill="none" stroke="midnightblue" d="M117.12,-186.35C127.94,-190.17 142.86,-195.42 156,-200 166.48,-203.65 178.09,-207.67 187.93,-211.06"/>
<polygon fill="midnightblue" stroke="midnightblue" points="186.84,-214.39 197.43,-214.34 189.12,-207.77 186.84,-214.39"/>
</g>
<!-- Node10 -->
<g id="node10" class="node">
<title>Node10</title>
<g id="a_node10"><a xlink:href="x86_8h.html#a2adfe40c0aadff727889d263815cb8ed" target="_top" xlink:title=" ">
<polygon fill="none" stroke="black" points="197.5,-171.5 197.5,-190.5 226.5,-190.5 226.5,-171.5 197.5,-171.5"/>
<text text-anchor="middle" x="212" y="-178.5" font-family="Helvetica,sans-Serif" font-size="10.00">hlt</text>
</a>
</g>
</g>
<!-- Node3&#45;&gt;Node10 -->
<g id="edge11" class="edge">
<title>Node3&#45;&gt;Node10</title>
<path fill="none" stroke="midnightblue" d="M117.16,-181C135.29,-181 165.86,-181 187.17,-181"/>
<polygon fill="midnightblue" stroke="midnightblue" points="187.35,-184.5 197.35,-181 187.35,-177.5 187.35,-184.5"/>
</g>
<!-- Node11 -->
<g id="node11" class="node">
<title>Node11</title>
<g id="a_node11"><a xlink:href="x86_8h.html#af92fc55c49437b9152499a13ba2b6585" target="_top" xlink:title=" ">
<polygon fill="none" stroke="black" points="193,-133.5 193,-152.5 231,-152.5 231,-133.5 193,-133.5"/>
<text text-anchor="middle" x="212" y="-140.5" font-family="Helvetica,sans-Serif" font-size="10.00">outw</text>
</a>
</g>
</g>
<!-- Node3&#45;&gt;Node11 -->
<g id="edge12" class="edge">
<title>Node3&#45;&gt;Node11</title>
<path fill="none" stroke="midnightblue" d="M117.12,-175.65C127.94,-171.83 142.86,-166.58 156,-162 164.78,-158.94 174.35,-155.63 183.01,-152.63"/>
<polygon fill="midnightblue" stroke="midnightblue" points="184.35,-155.88 192.66,-149.31 182.06,-149.26 184.35,-155.88"/>
</g>
<!-- Node3&#45;&gt;Node12 -->
<g id="edge13" class="edge">
<title>Node3&#45;&gt;Node12</title>
<path fill="none" stroke="midnightblue" d="M108.94,-171.16C118.28,-158.56 136.06,-136.85 156,-124 163.75,-119 172.97,-115.16 181.62,-112.27"/>
<polygon fill="midnightblue" stroke="midnightblue" points="182.83,-115.56 191.39,-109.32 180.81,-108.86 182.83,-115.56"/>
</g>
<!-- Node4&#45;&gt;Node2 -->
<g id="edge8" class="edge">
<title>Node4&#45;&gt;Node2</title>
<path fill="none" stroke="midnightblue" d="M248.45,-266.59C267.37,-271.71 290.79,-278.04 310.71,-283.43"/>
<polygon fill="midnightblue" stroke="midnightblue" points="309.9,-286.83 320.47,-286.07 311.73,-280.08 309.9,-286.83"/>
</g>
<!-- Node5 -->
<g id="node5" class="node">
<title>Node5</title>
<g id="a_node5"><a xlink:href="ioe_8c.html#a88a238fee7cd006afa69ea97e4914a09" target="_top" xlink:title=" ">
<polygon fill="none" stroke="black" points="304,-247.5 304,-266.5 405,-266.5 405,-247.5 304,-247.5"/>
<text text-anchor="middle" x="354.5" y="-254.5" font-family="Helvetica,sans-Serif" font-size="10.00">__am_lapic_bootap</text>
</a>
</g>
</g>
<!-- Node4&#45;&gt;Node5 -->
<g id="edge4" class="edge">
<title>Node4&#45;&gt;Node5</title>
<path fill="none" stroke="midnightblue" d="M268.13,-257C276.43,-257 285.04,-257 293.44,-257"/>
<polygon fill="midnightblue" stroke="midnightblue" points="293.56,-260.5 303.56,-257 293.56,-253.5 293.56,-260.5"/>
</g>
<!-- Node8 -->
<g id="node8" class="node">
<title>Node8</title>
<g id="a_node8"><a xlink:href="x86_8h.html#adfa01b89ceed9e7a87f185f4e441aa16" target="_top" xlink:title=" ">
<polygon fill="none" stroke="black" points="320.5,-209.5 320.5,-228.5 388.5,-228.5 388.5,-209.5 320.5,-209.5"/>
<text text-anchor="middle" x="354.5" y="-216.5" font-family="Helvetica,sans-Serif" font-size="10.00">boot_record</text>
</a>
</g>
</g>
<!-- Node4&#45;&gt;Node8 -->
<g id="edge7" class="edge">
<title>Node4&#45;&gt;Node8</title>
<path fill="none" stroke="midnightblue" d="M248.45,-247.41C267.37,-242.29 290.79,-235.96 310.71,-230.57"/>
<polygon fill="midnightblue" stroke="midnightblue" points="311.73,-233.92 320.47,-227.93 309.9,-227.17 311.73,-233.92"/>
</g>
<!-- Node6 -->
<g id="node6" class="node">
<title>Node6</title>
<g id="a_node6"><a xlink:href="ioe_8c.html#a72d9ed0bfe1066367763e044b7a7b7c3" target="_top" xlink:title=" ">
<polygon fill="none" stroke="black" points="448.5,-247.5 448.5,-266.5 492.5,-266.5 492.5,-247.5 448.5,-247.5"/>
<text text-anchor="middle" x="470.5" y="-254.5" font-family="Helvetica,sans-Serif" font-size="10.00">lapicw</text>
</a>
</g>
</g>
<!-- Node5&#45;&gt;Node6 -->
<g id="edge5" class="edge">
<title>Node5&#45;&gt;Node6</title>
<path fill="none" stroke="midnightblue" d="M405.17,-257C416.39,-257 428,-257 438.21,-257"/>
<polygon fill="midnightblue" stroke="midnightblue" points="438.28,-260.5 448.28,-257 438.28,-253.5 438.28,-260.5"/>
</g>
<!-- Node7 -->
<g id="node7" class="node">
<title>Node7</title>
<g id="a_node7"><a xlink:href="x86_8h.html#ade961b44e45ddacbc3c3b7609cf36dc6" target="_top" xlink:title=" ">
<polygon fill="none" stroke="black" points="453,-181.5 453,-200.5 488,-200.5 488,-181.5 453,-181.5"/>
<text text-anchor="middle" x="470.5" y="-188.5" font-family="Helvetica,sans-Serif" font-size="10.00">outb</text>
</a>
</g>
</g>
<!-- Node5&#45;&gt;Node7 -->
<g id="edge6" class="edge">
<title>Node5&#45;&gt;Node7</title>
<path fill="none" stroke="midnightblue" d="M384.09,-247.5C391.09,-244.77 398.45,-241.56 405,-238 421.22,-229.18 438.03,-216.81 450.42,-206.97"/>
<polygon fill="midnightblue" stroke="midnightblue" points="452.67,-209.66 458.23,-200.64 448.26,-204.22 452.67,-209.66"/>
</g>
<!-- Node12&#45;&gt;Node7 -->
<g id="edge14" class="edge">
<title>Node12&#45;&gt;Node7</title>
<path fill="none" stroke="midnightblue" d="M232.7,-111.61C278.36,-126.91 391.43,-164.82 443.04,-182.13"/>
<polygon fill="midnightblue" stroke="midnightblue" points="442.2,-185.54 452.79,-185.4 444.43,-178.9 442.2,-185.54"/>
</g>
<!-- Node14 -->
<g id="node14" class="node">
<title>Node14</title>
<g id="a_node14"><a xlink:href="stdio_8c.html#a44a6734c6f8f81d8e1fa3b9d476c5134" target="_top" xlink:title="write bytes (including the terminating null byte (&#39;\0&#39;)) to out.">
<polygon fill="none" stroke="black" points="187.5,-57.5 187.5,-76.5 236.5,-76.5 236.5,-57.5 187.5,-57.5"/>
<text text-anchor="middle" x="212" y="-64.5" font-family="Helvetica,sans-Serif" font-size="10.00">vsprintf</text>
</a>
</g>
</g>
<!-- Node13&#45;&gt;Node14 -->
<g id="edge16" class="edge">
<title>Node13&#45;&gt;Node14</title>
<path fill="none" stroke="midnightblue" d="M120.49,-82.78C136.07,-80.06 158.76,-76.11 177.52,-72.84"/>
<polygon fill="midnightblue" stroke="midnightblue" points="178.22,-76.27 187.47,-71.1 177.01,-69.37 178.22,-76.27"/>
</g>
<!-- Node15 -->
<g id="node15" class="node">
<title>Node15</title>
<g id="a_node15"><a xlink:href="stdio_8c.html#abf852e417a205348767989f2940059ad" target="_top" xlink:title="write at most n bytes (including the terminating null byte (&#39;\0&#39;)) to out.">
<polygon fill="none" stroke="black" points="327.5,-57.5 327.5,-76.5 381.5,-76.5 381.5,-57.5 327.5,-57.5"/>
<text text-anchor="middle" x="354.5" y="-64.5" font-family="Helvetica,sans-Serif" font-size="10.00">vsnprintf</text>
</a>
</g>
</g>
<!-- Node14&#45;&gt;Node15 -->
<g id="edge17" class="edge">
<title>Node14&#45;&gt;Node15</title>
<path fill="none" stroke="midnightblue" d="M236.52,-67C258.49,-67 291.62,-67 317.02,-67"/>
<polygon fill="midnightblue" stroke="midnightblue" points="317.03,-70.5 327.03,-67 317.03,-63.5 317.03,-70.5"/>
</g>
<!-- Node16 -->
<g id="node16" class="node">
<title>Node16</title>
<g id="a_node16"><a xlink:href="stdio_8c.html#af978fa291399f159cc8d94cb650cef4d" target="_top" xlink:title="print padding char">
<polygon fill="none" stroke="black" points="444,-114.5 444,-133.5 497,-133.5 497,-114.5 444,-114.5"/>
<text text-anchor="middle" x="470.5" y="-121.5" font-family="Helvetica,sans-Serif" font-size="10.00">add_pad</text>
</a>
</g>
</g>
<!-- Node15&#45;&gt;Node16 -->
<g id="edge18" class="edge">
<title>Node15&#45;&gt;Node16</title>
<path fill="none" stroke="midnightblue" d="M374.58,-76.54C392.83,-85.66 420.57,-99.53 441.35,-109.93"/>
<polygon fill="midnightblue" stroke="midnightblue" points="439.85,-113.09 450.36,-114.43 442.98,-106.83 439.85,-113.09"/>
</g>
<!-- Node17 -->
<g id="node17" class="node">
<title>Node17</title>
<g id="a_node17"><a xlink:href="stdio_8c.html#a0e2811092b514de48ac2dd675d6cf2b4" target="_top" xlink:title="print decimal into buffer,return length">
<polygon fill="none" stroke="black" points="441,-76.5 441,-95.5 500,-95.5 500,-76.5 441,-76.5"/>
<text text-anchor="middle" x="470.5" y="-83.5" font-family="Helvetica,sans-Serif" font-size="10.00">print_num</text>
</a>
</g>
</g>
<!-- Node15&#45;&gt;Node17 -->
<g id="edge19" class="edge">
<title>Node15&#45;&gt;Node17</title>
<path fill="none" stroke="midnightblue" d="M381.65,-71.36C396.11,-73.77 414.34,-76.81 430.45,-79.49"/>
<polygon fill="midnightblue" stroke="midnightblue" points="430.23,-83 440.67,-81.19 431.38,-76.1 430.23,-83"/>
</g>
<!-- Node18 -->
<g id="node18" class="node">
<title>Node18</title>
<g id="a_node18"><a xlink:href="string_8c.html#aa383452fe445bfae989358c9d7d96f4f" target="_top" xlink:title=" ">
<polygon fill="none" stroke="black" points="450,-38.5 450,-57.5 491,-57.5 491,-38.5 450,-38.5"/>
<text text-anchor="middle" x="470.5" y="-45.5" font-family="Helvetica,sans-Serif" font-size="10.00">strlen</text>
</a>
</g>
</g>
<!-- Node15&#45;&gt;Node18 -->
<g id="edge20" class="edge">
<title>Node15&#45;&gt;Node18</title>
<path fill="none" stroke="midnightblue" d="M381.65,-62.64C399.02,-59.75 421.85,-55.94 439.88,-52.94"/>
<polygon fill="midnightblue" stroke="midnightblue" points="440.58,-56.37 449.87,-51.27 439.43,-49.46 440.58,-56.37"/>
</g>
<!-- Node19 -->
<g id="node19" class="node">
<title>Node19</title>
<g id="a_node19"><a xlink:href="string_8c.html#a82f08f2390a9067f3c94b638e90e03bd" target="_top" xlink:title=" ">
<polygon fill="none" stroke="black" points="446.5,-0.5 446.5,-19.5 494.5,-19.5 494.5,-0.5 446.5,-0.5"/>
<text text-anchor="middle" x="470.5" y="-7.5" font-family="Helvetica,sans-Serif" font-size="10.00">strncpy</text>
</a>
</g>
</g>
<!-- Node15&#45;&gt;Node19 -->
<g id="edge21" class="edge">
<title>Node15&#45;&gt;Node19</title>
<path fill="none" stroke="midnightblue" d="M374.58,-57.46C392.83,-48.34 420.57,-34.47 441.35,-24.07"/>
<polygon fill="midnightblue" stroke="midnightblue" points="442.98,-27.17 450.36,-19.57 439.85,-20.91 442.98,-27.17"/>
</g>
</g>
</svg>
