<?xml version="1.0" encoding="UTF-8" standalone="no"?>
<!DOCTYPE svg PUBLIC "-//W3C//DTD SVG 1.1//EN"
 "http://www.w3.org/Graphics/SVG/1.1/DTD/svg11.dtd">
<!-- Generated by graphviz version 2.50.0 (20220203.2022)
 -->
<!-- Title: abstract&#45;machine/am/src/native/platform.h Pages: 1 -->
<svg width="390pt" height="207pt"
 viewBox="0.00 0.00 390.00 207.00" xmlns="http://www.w3.org/2000/svg" xmlns:xlink="http://www.w3.org/1999/xlink">
<g id="graph0" class="graph" transform="scale(1 1) rotate(0) translate(4 203)">
<title>abstract&#45;machine/am/src/native/platform.h</title>
<!-- Node1 -->
<g id="node1" class="node">
<title>Node1</title>
<g id="a_node1"><a xlink:title=" ">
<polygon fill="#bfbfbf" stroke="black" points="153,-168.5 153,-198.5 261,-198.5 261,-168.5 153,-168.5"/>
<text text-anchor="start" x="161" y="-186.5" font-family="Helvetica,sans-Serif" font-size="10.00">abstract&#45;machine/am</text>
<text text-anchor="middle" x="207" y="-175.5" font-family="Helvetica,sans-Serif" font-size="10.00">/src/native/platform.h</text>
</a>
</g>
</g>
<!-- Node2 -->
<g id="node2" class="node">
<title>Node2</title>
<g id="a_node2"><a xlink:href="am_8h.html" target="_top" xlink:title=" ">
<polygon fill="none" stroke="black" points="97,-56.5 97,-75.5 135,-75.5 135,-56.5 97,-56.5"/>
<text text-anchor="middle" x="116" y="-63.5" font-family="Helvetica,sans-Serif" font-size="10.00">am.h</text>
</a>
</g>
</g>
<!-- Node1&#45;&gt;Node2 -->
<g id="edge1" class="edge">
<title>Node1&#45;&gt;Node2</title>
<path fill="none" stroke="midnightblue" d="M152.75,-168.48C134.34,-160.84 115.73,-149.29 105,-132 96.25,-117.9 100.94,-98.91 106.66,-85.1"/>
<polygon fill="midnightblue" stroke="midnightblue" points="109.98,-86.26 111.02,-75.72 103.63,-83.31 109.98,-86.26"/>
</g>
<!-- Node7 -->
<g id="node7" class="node">
<title>Node7</title>
<g id="a_node7"><a xlink:title=" ">
<polygon fill="none" stroke="#bfbfbf" points="114,-112.5 114,-131.5 164,-131.5 164,-112.5 114,-112.5"/>
<text text-anchor="middle" x="139" y="-119.5" font-family="Helvetica,sans-Serif" font-size="10.00">unistd.h</text>
</a>
</g>
</g>
<!-- Node1&#45;&gt;Node7 -->
<g id="edge6" class="edge">
<title>Node1&#45;&gt;Node7</title>
<path fill="none" stroke="midnightblue" d="M190.88,-168.4C180.6,-159.4 167.25,-147.72 156.67,-138.47"/>
<polygon fill="midnightblue" stroke="midnightblue" points="158.73,-135.61 148.89,-131.66 154.12,-140.88 158.73,-135.61"/>
</g>
<!-- Node8 -->
<g id="node8" class="node">
<title>Node8</title>
<g id="a_node8"><a xlink:title=" ">
<polygon fill="none" stroke="#bfbfbf" points="182,-112.5 182,-131.5 232,-131.5 232,-112.5 182,-112.5"/>
<text text-anchor="middle" x="207" y="-119.5" font-family="Helvetica,sans-Serif" font-size="10.00">signal.h</text>
</a>
</g>
</g>
<!-- Node1&#45;&gt;Node8 -->
<g id="edge7" class="edge">
<title>Node1&#45;&gt;Node8</title>
<path fill="none" stroke="midnightblue" d="M207,-168.4C207,-160.47 207,-150.46 207,-141.86"/>
<polygon fill="midnightblue" stroke="midnightblue" points="210.5,-141.66 207,-131.66 203.5,-141.66 210.5,-141.66"/>
</g>
<!-- Node9 -->
<g id="node9" class="node">
<title>Node9</title>
<g id="a_node9"><a xlink:href="klib_8h.html" target="_top" xlink:title=" ">
<polygon fill="none" stroke="black" points="250.5,-112.5 250.5,-131.5 289.5,-131.5 289.5,-112.5 250.5,-112.5"/>
<text text-anchor="middle" x="270" y="-119.5" font-family="Helvetica,sans-Serif" font-size="10.00">klib.h</text>
</a>
</g>
</g>
<!-- Node1&#45;&gt;Node9 -->
<g id="edge8" class="edge">
<title>Node1&#45;&gt;Node9</title>
<path fill="none" stroke="midnightblue" d="M221.93,-168.4C231.37,-159.49 243.58,-147.95 253.33,-138.74"/>
<polygon fill="midnightblue" stroke="midnightblue" points="255.97,-141.07 260.83,-131.66 251.16,-135.98 255.97,-141.07"/>
</g>
<!-- Node11 -->
<g id="node11" class="node">
<title>Node11</title>
<g id="a_node11"><a xlink:href="klib-macros_8h.html" target="_top" xlink:title=" ">
<polygon fill="none" stroke="black" points="308,-112.5 308,-131.5 382,-131.5 382,-112.5 308,-112.5"/>
<text text-anchor="middle" x="345" y="-119.5" font-family="Helvetica,sans-Serif" font-size="10.00">klib&#45;macros.h</text>
</a>
</g>
</g>
<!-- Node1&#45;&gt;Node11 -->
<g id="edge12" class="edge">
<title>Node1&#45;&gt;Node11</title>
<path fill="none" stroke="midnightblue" d="M239.7,-168.4C262.75,-158.46 293.36,-145.26 315.63,-135.66"/>
<polygon fill="midnightblue" stroke="midnightblue" points="317.12,-138.83 324.92,-131.66 314.35,-132.4 317.12,-138.83"/>
</g>
<!-- Node3 -->
<g id="node3" class="node">
<title>Node3</title>
<g id="a_node3"><a xlink:title=" ">
<polygon fill="none" stroke="#bfbfbf" points="0,-0.5 0,-19.5 48,-19.5 48,-0.5 0,-0.5"/>
<text text-anchor="middle" x="24" y="-7.5" font-family="Helvetica,sans-Serif" font-size="10.00">stdint.h</text>
</a>
</g>
</g>
<!-- Node2&#45;&gt;Node3 -->
<g id="edge2" class="edge">
<title>Node2&#45;&gt;Node3</title>
<path fill="none" stroke="midnightblue" d="M101.22,-56.32C86.73,-47.82 64.43,-34.73 47.51,-24.8"/>
<polygon fill="midnightblue" stroke="midnightblue" points="49.14,-21.7 38.74,-19.65 45.6,-27.74 49.14,-21.7"/>
</g>
<!-- Node4 -->
<g id="node4" class="node">
<title>Node4</title>
<g id="a_node4"><a xlink:title=" ">
<polygon fill="none" stroke="#bfbfbf" points="211.5,-0.5 211.5,-19.5 262.5,-19.5 262.5,-0.5 211.5,-0.5"/>
<text text-anchor="middle" x="237" y="-7.5" font-family="Helvetica,sans-Serif" font-size="10.00">stddef.h</text>
</a>
</g>
</g>
<!-- Node2&#45;&gt;Node4 -->
<g id="edge3" class="edge">
<title>Node2&#45;&gt;Node4</title>
<path fill="none" stroke="midnightblue" d="M135.17,-56.44C154.91,-47.64 185.89,-33.81 208.49,-23.72"/>
<polygon fill="midnightblue" stroke="midnightblue" points="210.21,-26.79 217.92,-19.52 207.36,-20.4 210.21,-26.79"/>
</g>
<!-- Node5 -->
<g id="node5" class="node">
<title>Node5</title>
<g id="a_node5"><a xlink:title=" ">
<polygon fill="none" stroke="#bfbfbf" points="66,-0.5 66,-19.5 122,-19.5 122,-0.5 66,-0.5"/>
<text text-anchor="middle" x="94" y="-7.5" font-family="Helvetica,sans-Serif" font-size="10.00">stdbool.h</text>
</a>
</g>
</g>
<!-- Node2&#45;&gt;Node5 -->
<g id="edge4" class="edge">
<title>Node2&#45;&gt;Node5</title>
<path fill="none" stroke="midnightblue" d="M112.37,-56.08C109.39,-48.77 105.07,-38.18 101.38,-29.1"/>
<polygon fill="midnightblue" stroke="midnightblue" points="104.58,-27.69 97.57,-19.75 98.1,-30.33 104.58,-27.69"/>
</g>
<!-- Node6 -->
<g id="node6" class="node">
<title>Node6</title>
<g id="a_node6"><a xlink:href="amdev_8h.html" target="_top" xlink:title=" ">
<polygon fill="none" stroke="black" points="140.5,-0.5 140.5,-19.5 193.5,-19.5 193.5,-0.5 140.5,-0.5"/>
<text text-anchor="middle" x="167" y="-7.5" font-family="Helvetica,sans-Serif" font-size="10.00">amdev.h</text>
</a>
</g>
</g>
<!-- Node2&#45;&gt;Node6 -->
<g id="edge5" class="edge">
<title>Node2&#45;&gt;Node6</title>
<path fill="none" stroke="midnightblue" d="M124.42,-56.08C131.85,-48.22 142.85,-36.57 151.81,-27.08"/>
<polygon fill="midnightblue" stroke="midnightblue" points="154.41,-29.42 158.74,-19.75 149.32,-24.62 154.41,-29.42"/>
</g>
<!-- Node9&#45;&gt;Node2 -->
<g id="edge9" class="edge">
<title>Node9&#45;&gt;Node2</title>
<path fill="none" stroke="midnightblue" d="M250.5,-114.16C223.88,-104.83 175.98,-88.03 145.11,-77.21"/>
<polygon fill="midnightblue" stroke="midnightblue" points="145.94,-73.79 135.35,-73.78 143.62,-80.4 145.94,-73.79"/>
</g>
<!-- Node9&#45;&gt;Node4 -->
<g id="edge10" class="edge">
<title>Node9&#45;&gt;Node4</title>
<path fill="none" stroke="midnightblue" d="M267.41,-112.37C262.06,-94.54 249.69,-53.3 242.48,-29.27"/>
<polygon fill="midnightblue" stroke="midnightblue" points="245.8,-28.16 239.58,-19.59 239.1,-30.18 245.8,-28.16"/>
</g>
<!-- Node10 -->
<g id="node10" class="node">
<title>Node10</title>
<g id="a_node10"><a xlink:title=" ">
<polygon fill="none" stroke="#bfbfbf" points="265.5,-56.5 265.5,-75.5 316.5,-75.5 316.5,-56.5 265.5,-56.5"/>
<text text-anchor="middle" x="291" y="-63.5" font-family="Helvetica,sans-Serif" font-size="10.00">stdarg.h</text>
</a>
</g>
</g>
<!-- Node9&#45;&gt;Node10 -->
<g id="edge11" class="edge">
<title>Node9&#45;&gt;Node10</title>
<path fill="none" stroke="midnightblue" d="M273.47,-112.08C276.31,-104.77 280.43,-94.18 283.96,-85.1"/>
<polygon fill="midnightblue" stroke="midnightblue" points="287.23,-86.34 287.6,-75.75 280.71,-83.8 287.23,-86.34"/>
</g>
</g>
</svg>
