<?xml version="1.0" encoding="UTF-8" standalone="no"?>
<!DOCTYPE svg PUBLIC "-//W3C//DTD SVG 1.1//EN"
 "http://www.w3.org/Graphics/SVG/1.1/DTD/svg11.dtd">
<!-- Generated by graphviz version 2.50.0 (20220203.2022)
 -->
<!-- Title: __am_pmem_map Pages: 1 -->
<svg width="750pt" height="66pt"
 viewBox="0.00 0.00 750.00 66.00" xmlns="http://www.w3.org/2000/svg" xmlns:xlink="http://www.w3.org/1999/xlink">
<g id="graph0" class="graph" transform="scale(1 1) rotate(0) translate(4 62)">
<title>__am_pmem_map</title>
<!-- Node1 -->
<g id="node1" class="node">
<title>Node1</title>
<g id="a_node1"><a xlink:title=" ">
<polygon fill="#bfbfbf" stroke="black" points="645,-19.5 645,-38.5 742,-38.5 742,-19.5 645,-19.5"/>
<text text-anchor="middle" x="693.5" y="-26.5" font-family="Helvetica,sans-Serif" font-size="10.00">__am_pmem_map</text>
</a>
</g>
</g>
<!-- Node2 -->
<g id="node2" class="node">
<title>Node2</title>
<g id="a_node2"><a xlink:href="native_2vme_8c.html#a83098472fe0a6fda68a29d21636251a6" target="_top" xlink:title=" ">
<polygon fill="none" stroke="black" points="535,-38.5 535,-57.5 609,-57.5 609,-38.5 535,-38.5"/>
<text text-anchor="middle" x="572" y="-45.5" font-family="Helvetica,sans-Serif" font-size="10.00">__am_switch</text>
</a>
</g>
</g>
<!-- Node1&#45;&gt;Node2 -->
<g id="edge1" class="edge">
<title>Node1&#45;&gt;Node2</title>
<path fill="none" stroke="midnightblue" d="M634.82,-38.17C626.15,-39.55 617.42,-40.94 609.36,-42.22"/>
<polygon fill="midnightblue" stroke="midnightblue" points="635.6,-41.59 644.93,-36.56 634.5,-34.68 635.6,-41.59"/>
</g>
<!-- Node8 -->
<g id="node8" class="node">
<title>Node8</title>
<g id="a_node8"><a xlink:href="x86_2qemu_2vme_8c.html#a81194a0d7c70a35be43bc54c27f4da63" target="_top" xlink:title=" ">
<polygon fill="none" stroke="black" points="554.5,-0.5 554.5,-19.5 589.5,-19.5 589.5,-0.5 554.5,-0.5"/>
<text text-anchor="middle" x="572" y="-7.5" font-family="Helvetica,sans-Serif" font-size="10.00">map</text>
</a>
</g>
</g>
<!-- Node1&#45;&gt;Node8 -->
<g id="edge7" class="edge">
<title>Node1&#45;&gt;Node8</title>
<path fill="none" stroke="midnightblue" d="M634.74,-19.82C618.27,-17.2 601.6,-14.55 589.74,-12.66"/>
<polygon fill="midnightblue" stroke="midnightblue" points="634.5,-23.32 644.93,-21.44 635.6,-16.41 634.5,-23.32"/>
</g>
<!-- Node3 -->
<g id="node3" class="node">
<title>Node3</title>
<g id="a_node3"><a xlink:href="native_2cte_8c.html#a9c8dd258011eaecff60c4a7e53717e53" target="_top" xlink:title=" ">
<polygon fill="none" stroke="black" points="438,-38.5 438,-57.5 499,-57.5 499,-38.5 438,-38.5"/>
<text text-anchor="middle" x="468.5" y="-45.5" font-family="Helvetica,sans-Serif" font-size="10.00">irq_handle</text>
</a>
</g>
</g>
<!-- Node2&#45;&gt;Node3 -->
<g id="edge2" class="edge">
<title>Node2&#45;&gt;Node3</title>
<path fill="none" stroke="midnightblue" d="M524.82,-48C516.08,-48 507.15,-48 499.1,-48"/>
<polygon fill="midnightblue" stroke="midnightblue" points="524.93,-51.5 534.93,-48 524.93,-44.5 524.93,-51.5"/>
</g>
<!-- Node4 -->
<g id="node4" class="node">
<title>Node4</title>
<g id="a_node4"><a xlink:href="native_2cte_8c.html#a3f025af92181d8eee1f3aedb2ab8314a" target="_top" xlink:title=" ">
<polygon fill="none" stroke="black" points="332,-38.5 332,-57.5 402,-57.5 402,-38.5 332,-38.5"/>
<text text-anchor="middle" x="367" y="-45.5" font-family="Helvetica,sans-Serif" font-size="10.00">setup_stack</text>
</a>
</g>
</g>
<!-- Node3&#45;&gt;Node4 -->
<g id="edge3" class="edge">
<title>Node3&#45;&gt;Node4</title>
<path fill="none" stroke="midnightblue" d="M427.84,-48C419.35,-48 410.45,-48 402.19,-48"/>
<polygon fill="midnightblue" stroke="midnightblue" points="427.92,-51.5 437.92,-48 427.92,-44.5 427.92,-51.5"/>
</g>
<!-- Node5 -->
<g id="node5" class="node">
<title>Node5</title>
<g id="a_node5"><a xlink:href="native_2cte_8c.html#a15554d17d092b4dd626a77142f89ae02" target="_top" xlink:title=" ">
<polygon fill="none" stroke="black" points="230,-38.5 230,-57.5 296,-57.5 296,-38.5 230,-38.5"/>
<text text-anchor="middle" x="263" y="-45.5" font-family="Helvetica,sans-Serif" font-size="10.00">sig_handler</text>
</a>
</g>
</g>
<!-- Node4&#45;&gt;Node5 -->
<g id="edge4" class="edge">
<title>Node4&#45;&gt;Node5</title>
<path fill="none" stroke="midnightblue" d="M321.56,-48C313.05,-48 304.3,-48 296.26,-48"/>
<polygon fill="midnightblue" stroke="midnightblue" points="321.75,-51.5 331.75,-48 321.75,-44.5 321.75,-51.5"/>
</g>
<!-- Node6 -->
<g id="node6" class="node">
<title>Node6</title>
<g id="a_node6"><a xlink:href="native_2cte_8c.html#a86b2b6fbda4e793f71ac4b12b85a9d74" target="_top" xlink:title=" ">
<polygon fill="none" stroke="black" points="84,-38.5 84,-57.5 194,-57.5 194,-38.5 84,-38.5"/>
<text text-anchor="middle" x="139" y="-45.5" font-family="Helvetica,sans-Serif" font-size="10.00">install_signal_handler</text>
</a>
</g>
</g>
<!-- Node5&#45;&gt;Node6 -->
<g id="edge5" class="edge">
<title>Node5&#45;&gt;Node6</title>
<path fill="none" stroke="midnightblue" d="M219.76,-48C211.45,-48 202.64,-48 194.01,-48"/>
<polygon fill="midnightblue" stroke="midnightblue" points="219.95,-51.5 229.95,-48 219.95,-44.5 219.95,-51.5"/>
</g>
<!-- Node7 -->
<g id="node7" class="node">
<title>Node7</title>
<g id="a_node7"><a xlink:href="native_2cte_8c.html#a14d86719abbc247f8a0dd5eb2662ea88" target="_top" xlink:title=" ">
<polygon fill="none" stroke="black" points="0,-38.5 0,-57.5 48,-57.5 48,-38.5 0,-38.5"/>
<text text-anchor="middle" x="24" y="-45.5" font-family="Helvetica,sans-Serif" font-size="10.00">cte_init</text>
</a>
</g>
</g>
<!-- Node6&#45;&gt;Node7 -->
<g id="edge6" class="edge">
<title>Node6&#45;&gt;Node7</title>
<path fill="none" stroke="midnightblue" d="M73.81,-48C64.65,-48 55.76,-48 48.13,-48"/>
<polygon fill="midnightblue" stroke="midnightblue" points="73.82,-51.5 83.82,-48 73.82,-44.5 73.82,-51.5"/>
</g>
</g>
</svg>
