<?xml version="1.0" encoding="UTF-8" standalone="no"?>
<!DOCTYPE svg PUBLIC "-//W3C//DTD SVG 1.1//EN"
 "http://www.w3.org/Graphics/SVG/1.1/DTD/svg11.dtd">
<!-- Generated by graphviz version 2.50.0 (20220203.2022)
 -->
<!-- Title: init_platform Pages: 1 -->
<svg width="671pt" height="417pt"
 viewBox="0.00 0.00 671.00 417.00" xmlns="http://www.w3.org/2000/svg" xmlns:xlink="http://www.w3.org/1999/xlink">
<g id="graph0" class="graph" transform="scale(1 1) rotate(0) translate(4 413)">
<title>init_platform</title>
<!-- Node1 -->
<g id="node1" class="node">
<title>Node1</title>
<g id="a_node1"><a xlink:title=" ">
<polygon fill="#bfbfbf" stroke="black" points="0,-114.5 0,-133.5 70,-133.5 70,-114.5 0,-114.5"/>
<text text-anchor="middle" x="35" y="-121.5" font-family="Helvetica,sans-Serif" font-size="10.00">init_platform</text>
</a>
</g>
</g>
<!-- Node2 -->
<g id="node2" class="node">
<title>Node2</title>
<g id="a_node2"><a xlink:href="platform_8c.html#aa960047c9f8917e11dc07fa990d754f8" target="_top" xlink:title=" ">
<polygon fill="none" stroke="black" points="106,-247.5 106,-266.5 226,-266.5 226,-247.5 106,-247.5"/>
<text text-anchor="middle" x="166" y="-254.5" font-family="Helvetica,sans-Serif" font-size="10.00">__am_get_intr_sigmask</text>
</a>
</g>
</g>
<!-- Node1&#45;&gt;Node2 -->
<g id="edge1" class="edge">
<title>Node1&#45;&gt;Node2</title>
<path fill="none" stroke="midnightblue" d="M39.22,-133.53C47.07,-155.33 69.29,-209.16 106,-238 108.3,-239.81 110.78,-241.44 113.37,-242.93"/>
<polygon fill="midnightblue" stroke="midnightblue" points="112,-246.16 122.52,-247.4 115.07,-239.87 112,-246.16"/>
</g>
<!-- Node3 -->
<g id="node3" class="node">
<title>Node3</title>
<g id="a_node3"><a xlink:href="stdlib_8c.html#ad228deceea1bac4d9f171f647c265059" target="_top" xlink:title=" ">
<polygon fill="none" stroke="black" points="150,-209.5 150,-228.5 182,-228.5 182,-209.5 150,-209.5"/>
<text text-anchor="middle" x="166" y="-216.5" font-family="Helvetica,sans-Serif" font-size="10.00">atoi</text>
</a>
</g>
</g>
<!-- Node1&#45;&gt;Node3 -->
<g id="edge2" class="edge">
<title>Node1&#45;&gt;Node3</title>
<path fill="none" stroke="midnightblue" d="M42.36,-133.65C53.42,-149.7 77.74,-181.93 106,-200 116.24,-206.55 128.92,-211.01 139.9,-213.96"/>
<polygon fill="midnightblue" stroke="midnightblue" points="139.23,-217.4 149.77,-216.34 140.87,-210.6 139.23,-217.4"/>
</g>
<!-- Node4 -->
<g id="node4" class="node">
<title>Node4</title>
<g id="a_node4"><a xlink:href="x86_2qemu_2trm_8c.html#a483cb97188e557c3c68d3a1572c2cc92" target="_top" xlink:title=" ">
<polygon fill="none" stroke="black" points="150,-171.5 150,-190.5 182,-190.5 182,-171.5 150,-171.5"/>
<text text-anchor="middle" x="166" y="-178.5" font-family="Helvetica,sans-Serif" font-size="10.00">halt</text>
</a>
</g>
</g>
<!-- Node1&#45;&gt;Node4 -->
<g id="edge3" class="edge">
<title>Node1&#45;&gt;Node4</title>
<path fill="none" stroke="midnightblue" d="M57.59,-133.54C80.44,-143.63 116.42,-159.54 140.36,-170.11"/>
<polygon fill="midnightblue" stroke="midnightblue" points="139.25,-173.45 149.81,-174.29 142.08,-167.04 139.25,-173.45"/>
</g>
<!-- Node19 -->
<g id="node19" class="node">
<title>Node19</title>
<g id="a_node19"><a xlink:href="x86_2qemu_2cte_8c.html#a4a139958742786c5085172be1f69bfd0" target="_top" xlink:title=" ">
<polygon fill="none" stroke="black" points="150,-114.5 150,-133.5 182,-133.5 182,-114.5 150,-114.5"/>
<text text-anchor="middle" x="166" y="-121.5" font-family="Helvetica,sans-Serif" font-size="10.00">iset</text>
</a>
</g>
</g>
<!-- Node1&#45;&gt;Node19 -->
<g id="edge18" class="edge">
<title>Node1&#45;&gt;Node19</title>
<path fill="none" stroke="midnightblue" d="M70.23,-124C92.02,-124 119.77,-124 139.6,-124"/>
<polygon fill="midnightblue" stroke="midnightblue" points="139.72,-127.5 149.72,-124 139.72,-120.5 139.72,-127.5"/>
</g>
<!-- Node21 -->
<g id="node21" class="node">
<title>Node21</title>
<g id="a_node21"><a xlink:href="platform_8c.html#aa12a9403d4e36817688700b1c1bd442e" target="_top" xlink:title=" ">
<polygon fill="none" stroke="black" points="147,-76.5 147,-95.5 185,-95.5 185,-76.5 147,-76.5"/>
<text text-anchor="middle" x="166" y="-83.5" font-family="Helvetica,sans-Serif" font-size="10.00">main</text>
</a>
</g>
</g>
<!-- Node1&#45;&gt;Node21 -->
<g id="edge21" class="edge">
<title>Node1&#45;&gt;Node21</title>
<path fill="none" stroke="midnightblue" d="M68.55,-114.41C89.65,-108.19 116.86,-100.18 136.99,-94.25"/>
<polygon fill="midnightblue" stroke="midnightblue" points="138.2,-97.54 146.81,-91.36 136.23,-90.83 138.2,-97.54"/>
</g>
<!-- Node22 -->
<g id="node22" class="node">
<title>Node22</title>
<g id="a_node22"><a xlink:href="platform_8c.html#afeab7181f5419d4b91ce71018357bb03" target="_top" xlink:title=" ">
<polygon fill="none" stroke="black" points="108,-38.5 108,-57.5 224,-57.5 224,-38.5 108,-38.5"/>
<text text-anchor="middle" x="166" y="-45.5" font-family="Helvetica,sans-Serif" font-size="10.00">save_example_context</text>
</a>
</g>
</g>
<!-- Node1&#45;&gt;Node22 -->
<g id="edge22" class="edge">
<title>Node1&#45;&gt;Node22</title>
<path fill="none" stroke="midnightblue" d="M45.57,-114.21C58.31,-101.67 82.04,-80.01 106,-67 109.94,-64.86 114.15,-62.92 118.45,-61.16"/>
<polygon fill="midnightblue" stroke="midnightblue" points="119.79,-64.39 127.93,-57.61 117.34,-57.84 119.79,-64.39"/>
</g>
<!-- Node26 -->
<g id="node26" class="node">
<title>Node26</title>
<g id="a_node26"><a xlink:href="platform_8c.html#a60b5adbff1f420ee45d7323a5d70c356" target="_top" xlink:title=" ">
<polygon fill="none" stroke="black" points="119.5,-0.5 119.5,-19.5 212.5,-19.5 212.5,-0.5 119.5,-0.5"/>
<text text-anchor="middle" x="166" y="-7.5" font-family="Helvetica,sans-Serif" font-size="10.00">setup_sigaltstack</text>
</a>
</g>
</g>
<!-- Node1&#45;&gt;Node26 -->
<g id="edge26" class="edge">
<title>Node1&#45;&gt;Node26</title>
<path fill="none" stroke="midnightblue" d="M40.51,-114.36C49.93,-95.24 73.57,-52.33 106,-29 108.66,-27.08 111.53,-25.35 114.51,-23.79"/>
<polygon fill="midnightblue" stroke="midnightblue" points="116.07,-26.93 123.73,-19.6 113.18,-20.56 116.07,-26.93"/>
</g>
<!-- Node5 -->
<g id="node5" class="node">
<title>Node5</title>
<g id="a_node5"><a xlink:href="platform_8c.html#a66cf43dfc7e13b3775d6d2040722da59" target="_top" xlink:title=" ">
<polygon fill="none" stroke="black" points="267.5,-380.5 267.5,-399.5 368.5,-399.5 368.5,-380.5 267.5,-380.5"/>
<text text-anchor="middle" x="318" y="-387.5" font-family="Helvetica,sans-Serif" font-size="10.00">__am_exit_platform</text>
</a>
</g>
</g>
<!-- Node4&#45;&gt;Node5 -->
<g id="edge4" class="edge">
<title>Node4&#45;&gt;Node5</title>
<path fill="none" stroke="midnightblue" d="M182.02,-181.82C195.44,-183.37 214.68,-187.75 226,-200 273.11,-250.99 222.84,-294.68 262,-352 268.45,-361.44 278.08,-369.24 287.49,-375.27"/>
<polygon fill="midnightblue" stroke="midnightblue" points="285.94,-378.42 296.33,-380.5 289.51,-372.4 285.94,-378.42"/>
</g>
<!-- Node7 -->
<g id="node7" class="node">
<title>Node7</title>
<g id="a_node7"><a xlink:href="x86_2qemu_2mpe_8c.html#a0a540532023afb1f31b6f21ce053483b" target="_top" xlink:title=" ">
<polygon fill="none" stroke="black" points="262,-323.5 262,-342.5 374,-342.5 374,-323.5 262,-323.5"/>
<text text-anchor="middle" x="318" y="-330.5" font-family="Helvetica,sans-Serif" font-size="10.00">__am_stop_the_world</text>
</a>
</g>
</g>
<!-- Node4&#45;&gt;Node7 -->
<g id="edge6" class="edge">
<title>Node4&#45;&gt;Node7</title>
<path fill="none" stroke="midnightblue" d="M182.07,-182.05C195.34,-183.76 214.32,-188.25 226,-200 263.46,-237.68 224.94,-275.93 262,-314 263.43,-315.47 264.97,-316.82 266.61,-318.07"/>
<polygon fill="midnightblue" stroke="midnightblue" points="265.07,-321.23 275.42,-323.48 268.73,-315.26 265.07,-321.23"/>
</g>
<!-- Node13 -->
<g id="node13" class="node">
<title>Node13</title>
<g id="a_node13"><a xlink:href="x86_8h.html#acc919e7809ef1db2b20aa3804f540b5c" target="_top" xlink:title=" ">
<polygon fill="none" stroke="black" points="303.5,-95.5 303.5,-114.5 332.5,-114.5 332.5,-95.5 303.5,-95.5"/>
<text text-anchor="middle" x="318" y="-102.5" font-family="Helvetica,sans-Serif" font-size="10.00">cli</text>
</a>
</g>
</g>
<!-- Node4&#45;&gt;Node13 -->
<g id="edge12" class="edge">
<title>Node4&#45;&gt;Node13</title>
<path fill="none" stroke="midnightblue" d="M180.97,-171.35C199.06,-159.15 231.85,-138.07 262,-124 272.06,-119.31 283.61,-115.14 293.52,-111.92"/>
<polygon fill="midnightblue" stroke="midnightblue" points="294.63,-115.24 303.13,-108.92 292.54,-108.56 294.63,-115.24"/>
</g>
<!-- Node14 -->
<g id="node14" class="node">
<title>Node14</title>
<g id="a_node14"><a xlink:href="x86_2qemu_2mpe_8c.html#ab701de78cad32896c923ce900087e714" target="_top" xlink:title=" ">
<polygon fill="none" stroke="black" points="284,-285.5 284,-304.5 352,-304.5 352,-285.5 284,-285.5"/>
<text text-anchor="middle" x="318" y="-292.5" font-family="Helvetica,sans-Serif" font-size="10.00">cpu_current</text>
</a>
</g>
</g>
<!-- Node4&#45;&gt;Node14 -->
<g id="edge13" class="edge">
<title>Node4&#45;&gt;Node14</title>
<path fill="none" stroke="midnightblue" d="M182.21,-182.52C195.21,-184.54 213.7,-189.21 226,-200 254.1,-224.64 234.16,-251.06 262,-276 265.66,-279.28 269.92,-282 274.42,-284.26"/>
<polygon fill="midnightblue" stroke="midnightblue" points="273.29,-287.58 283.87,-288.26 276.02,-281.14 273.29,-287.58"/>
</g>
<!-- Node15 -->
<g id="node15" class="node">
<title>Node15</title>
<g id="a_node15"><a xlink:href="x86_8h.html#a2adfe40c0aadff727889d263815cb8ed" target="_top" xlink:title=" ">
<polygon fill="none" stroke="black" points="303.5,-247.5 303.5,-266.5 332.5,-266.5 332.5,-247.5 303.5,-247.5"/>
<text text-anchor="middle" x="318" y="-254.5" font-family="Helvetica,sans-Serif" font-size="10.00">hlt</text>
</a>
</g>
</g>
<!-- Node4&#45;&gt;Node15 -->
<g id="edge14" class="edge">
<title>Node4&#45;&gt;Node15</title>
<path fill="none" stroke="midnightblue" d="M182.19,-183.71C194.67,-186.42 212.43,-191.46 226,-200 245.69,-212.4 242.45,-225.4 262,-238 271.45,-244.09 283.09,-248.48 293.21,-251.49"/>
<polygon fill="midnightblue" stroke="midnightblue" points="292.51,-254.93 303.07,-254.15 294.33,-248.17 292.51,-254.93"/>
</g>
<!-- Node16 -->
<g id="node16" class="node">
<title>Node16</title>
<g id="a_node16"><a xlink:href="x86_8h.html#af92fc55c49437b9152499a13ba2b6585" target="_top" xlink:title=" ">
<polygon fill="none" stroke="black" points="299,-209.5 299,-228.5 337,-228.5 337,-209.5 299,-209.5"/>
<text text-anchor="middle" x="318" y="-216.5" font-family="Helvetica,sans-Serif" font-size="10.00">outw</text>
</a>
</g>
</g>
<!-- Node4&#45;&gt;Node16 -->
<g id="edge15" class="edge">
<title>Node4&#45;&gt;Node16</title>
<path fill="none" stroke="midnightblue" d="M182.21,-184.85C207.24,-191.19 257.47,-203.92 289.04,-211.92"/>
<polygon fill="midnightblue" stroke="midnightblue" points="288.42,-215.37 298.97,-214.43 290.14,-208.58 288.42,-215.37"/>
</g>
<!-- Node17 -->
<g id="node17" class="node">
<title>Node17</title>
<g id="a_node17"><a xlink:href="stdio_8c.html#a55f3d956bb2ba20b5059e9e25484a47f" target="_top" xlink:title=" ">
<polygon fill="none" stroke="black" points="299,-171.5 299,-190.5 337,-190.5 337,-171.5 299,-171.5"/>
<text text-anchor="middle" x="318" y="-178.5" font-family="Helvetica,sans-Serif" font-size="10.00">printf</text>
</a>
</g>
</g>
<!-- Node4&#45;&gt;Node17 -->
<g id="edge16" class="edge">
<title>Node4&#45;&gt;Node17</title>
<path fill="none" stroke="midnightblue" d="M182.21,-181C207.13,-181 257.03,-181 288.63,-181"/>
<polygon fill="midnightblue" stroke="midnightblue" points="288.97,-184.5 298.97,-181 288.97,-177.5 288.97,-184.5"/>
</g>
<!-- Node18 -->
<g id="node18" class="node">
<title>Node18</title>
<g id="a_node18"><a xlink:href="native_2trm_8c.html#a6351d8706733262e7e325926b1a9aab7" target="_top" xlink:title=" ">
<polygon fill="none" stroke="black" points="297.5,-133.5 297.5,-152.5 338.5,-152.5 338.5,-133.5 297.5,-133.5"/>
<text text-anchor="middle" x="318" y="-140.5" font-family="Helvetica,sans-Serif" font-size="10.00">putch</text>
</a>
</g>
</g>
<!-- Node4&#45;&gt;Node18 -->
<g id="edge17" class="edge">
<title>Node4&#45;&gt;Node18</title>
<path fill="none" stroke="midnightblue" d="M182.21,-177.15C206.77,-170.93 255.6,-158.56 287.25,-150.54"/>
<polygon fill="midnightblue" stroke="midnightblue" points="288.43,-153.85 297.27,-148 286.71,-147.06 288.43,-153.85"/>
</g>
<!-- Node6 -->
<g id="node6" class="node">
<title>Node6</title>
<g id="a_node6"><a xlink:href="x86_2qemu_2mpe_8c.html#af486ec575d47720d28eee63644206110" target="_top" xlink:title=" ">
<polygon fill="none" stroke="black" points="429.5,-389.5 429.5,-408.5 491.5,-408.5 491.5,-389.5 429.5,-389.5"/>
<text text-anchor="middle" x="460.5" y="-396.5" font-family="Helvetica,sans-Serif" font-size="10.00">cpu_count</text>
</a>
</g>
</g>
<!-- Node5&#45;&gt;Node6 -->
<g id="edge5" class="edge">
<title>Node5&#45;&gt;Node6</title>
<path fill="none" stroke="midnightblue" d="M368.54,-393.17C384.97,-394.23 403.06,-395.38 418.76,-396.39"/>
<polygon fill="midnightblue" stroke="midnightblue" points="418.98,-399.91 429.19,-397.06 419.43,-392.93 418.98,-399.91"/>
</g>
<!-- Node8 -->
<g id="node8" class="node">
<title>Node8</title>
<g id="a_node8"><a xlink:href="x86_2qemu_2ioe_8c.html#a88a238fee7cd006afa69ea97e4914a09" target="_top" xlink:title=" ">
<polygon fill="none" stroke="black" points="410,-351.5 410,-370.5 511,-370.5 511,-351.5 410,-351.5"/>
<text text-anchor="middle" x="460.5" y="-358.5" font-family="Helvetica,sans-Serif" font-size="10.00">__am_lapic_bootap</text>
</a>
</g>
</g>
<!-- Node7&#45;&gt;Node8 -->
<g id="edge7" class="edge">
<title>Node7&#45;&gt;Node8</title>
<path fill="none" stroke="midnightblue" d="M366.96,-342.56C378.15,-344.79 390.18,-347.19 401.75,-349.49"/>
<polygon fill="midnightblue" stroke="midnightblue" points="401.27,-352.96 411.76,-351.49 402.63,-346.1 401.27,-352.96"/>
</g>
<!-- Node11 -->
<g id="node11" class="node">
<title>Node11</title>
<g id="a_node11"><a xlink:href="x86_8h.html#adfa01b89ceed9e7a87f185f4e441aa16" target="_top" xlink:title=" ">
<polygon fill="none" stroke="black" points="426.5,-313.5 426.5,-332.5 494.5,-332.5 494.5,-313.5 426.5,-313.5"/>
<text text-anchor="middle" x="460.5" y="-320.5" font-family="Helvetica,sans-Serif" font-size="10.00">boot_record</text>
</a>
</g>
</g>
<!-- Node7&#45;&gt;Node11 -->
<g id="edge10" class="edge">
<title>Node7&#45;&gt;Node11</title>
<path fill="none" stroke="midnightblue" d="M374.13,-329.08C388.08,-328.08 402.87,-327.03 416.14,-326.09"/>
<polygon fill="midnightblue" stroke="midnightblue" points="416.7,-329.56 426.42,-325.35 416.2,-322.57 416.7,-329.56"/>
</g>
<!-- Node12 -->
<g id="node12" class="node">
<title>Node12</title>
<g id="a_node12"><a xlink:href="native_2mpe_8c.html#a806195bfb27a695274680a7ab6400663" target="_top" xlink:title=" ">
<polygon fill="none" stroke="black" points="426.5,-275.5 426.5,-294.5 494.5,-294.5 494.5,-275.5 426.5,-275.5"/>
<text text-anchor="middle" x="460.5" y="-282.5" font-family="Helvetica,sans-Serif" font-size="10.00">cpu_current</text>
</a>
</g>
</g>
<!-- Node7&#45;&gt;Node12 -->
<g id="edge11" class="edge">
<title>Node7&#45;&gt;Node12</title>
<path fill="none" stroke="midnightblue" d="M347.09,-323.4C368.54,-316.08 398.29,-305.91 421.8,-297.88"/>
<polygon fill="midnightblue" stroke="midnightblue" points="423.12,-301.13 431.45,-294.58 420.86,-294.5 423.12,-301.13"/>
</g>
<!-- Node9 -->
<g id="node9" class="node">
<title>Node9</title>
<g id="a_node9"><a xlink:href="x86_2qemu_2ioe_8c.html#a72d9ed0bfe1066367763e044b7a7b7c3" target="_top" xlink:title=" ">
<polygon fill="none" stroke="black" points="583,-370.5 583,-389.5 627,-389.5 627,-370.5 583,-370.5"/>
<text text-anchor="middle" x="605" y="-377.5" font-family="Helvetica,sans-Serif" font-size="10.00">lapicw</text>
</a>
</g>
</g>
<!-- Node8&#45;&gt;Node9 -->
<g id="edge8" class="edge">
<title>Node8&#45;&gt;Node9</title>
<path fill="none" stroke="midnightblue" d="M511.34,-367.65C531.87,-370.38 555.01,-373.47 573.04,-375.87"/>
<polygon fill="midnightblue" stroke="midnightblue" points="572.62,-379.35 583,-377.2 573.55,-372.41 572.62,-379.35"/>
</g>
<!-- Node10 -->
<g id="node10" class="node">
<title>Node10</title>
<g id="a_node10"><a xlink:href="x86_8h.html#ade961b44e45ddacbc3c3b7609cf36dc6" target="_top" xlink:title=" ">
<polygon fill="none" stroke="black" points="587.5,-332.5 587.5,-351.5 622.5,-351.5 622.5,-332.5 587.5,-332.5"/>
<text text-anchor="middle" x="605" y="-339.5" font-family="Helvetica,sans-Serif" font-size="10.00">outb</text>
</a>
</g>
</g>
<!-- Node8&#45;&gt;Node10 -->
<g id="edge9" class="edge">
<title>Node8&#45;&gt;Node10</title>
<path fill="none" stroke="midnightblue" d="M511.34,-354.35C533.48,-351.4 558.66,-348.05 577.18,-345.58"/>
<polygon fill="midnightblue" stroke="midnightblue" points="577.79,-349.03 587.24,-344.23 576.86,-342.09 577.79,-349.03"/>
</g>
<!-- Node19&#45;&gt;Node13 -->
<g id="edge19" class="edge">
<title>Node19&#45;&gt;Node13</title>
<path fill="none" stroke="midnightblue" d="M182.21,-122.07C208.46,-118.75 262.44,-111.91 293.54,-107.97"/>
<polygon fill="midnightblue" stroke="midnightblue" points="294.02,-111.44 303.5,-106.71 293.14,-104.49 294.02,-111.44"/>
</g>
<!-- Node20 -->
<g id="node20" class="node">
<title>Node20</title>
<g id="a_node20"><a xlink:href="x86_8h.html#a4657e97b270d7af5a23da2c4d642ada2" target="_top" xlink:title=" ">
<polygon fill="none" stroke="black" points="303.5,-57.5 303.5,-76.5 332.5,-76.5 332.5,-57.5 303.5,-57.5"/>
<text text-anchor="middle" x="318" y="-64.5" font-family="Helvetica,sans-Serif" font-size="10.00">sti</text>
</a>
</g>
</g>
<!-- Node19&#45;&gt;Node20 -->
<g id="edge20" class="edge">
<title>Node19&#45;&gt;Node20</title>
<path fill="none" stroke="midnightblue" d="M182.3,-119.87C194.37,-116.42 211.52,-111.1 226,-105 242.67,-97.98 245.4,-93.2 262,-86 272.18,-81.59 283.75,-77.46 293.64,-74.19"/>
<polygon fill="midnightblue" stroke="midnightblue" points="294.77,-77.51 303.22,-71.12 292.63,-70.84 294.77,-77.51"/>
</g>
<!-- Node23 -->
<g id="node23" class="node">
<title>Node23</title>
<g id="a_node23"><a xlink:href="platform_8c.html#a76e1a4b5253edc79be8a4a8e52a5a1bd" target="_top" xlink:title=" ">
<polygon fill="none" stroke="black" points="262.5,-19.5 262.5,-38.5 373.5,-38.5 373.5,-19.5 262.5,-19.5"/>
<text text-anchor="middle" x="318" y="-26.5" font-family="Helvetica,sans-Serif" font-size="10.00">save_context_handler</text>
</a>
</g>
</g>
<!-- Node22&#45;&gt;Node23 -->
<g id="edge23" class="edge">
<title>Node22&#45;&gt;Node23</title>
<path fill="none" stroke="midnightblue" d="M224.14,-40.76C233.38,-39.59 243,-38.37 252.41,-37.18"/>
<polygon fill="midnightblue" stroke="midnightblue" points="253.01,-40.63 262.5,-35.9 252.13,-33.69 253.01,-40.63"/>
</g>
<!-- Node24 -->
<g id="node24" class="node">
<title>Node24</title>
<g id="a_node24"><a xlink:href="x86_2qemu_2vme_8c.html#a8e53eed544a985d22d8c1df4c4d7df2c" target="_top" xlink:title=" ">
<polygon fill="none" stroke="black" points="434,-19.5 434,-38.5 487,-38.5 487,-19.5 434,-19.5"/>
<text text-anchor="middle" x="460.5" y="-26.5" font-family="Helvetica,sans-Serif" font-size="10.00">ucontext</text>
</a>
</g>
</g>
<!-- Node23&#45;&gt;Node24 -->
<g id="edge24" class="edge">
<title>Node23&#45;&gt;Node24</title>
<path fill="none" stroke="midnightblue" d="M373.72,-29C390.34,-29 408.18,-29 423.26,-29"/>
<polygon fill="midnightblue" stroke="midnightblue" points="423.69,-32.5 433.69,-29 423.69,-25.5 423.69,-32.5"/>
</g>
<!-- Node25 -->
<g id="node25" class="node">
<title>Node25</title>
<g id="a_node25"><a xlink:href="platform_8c.html#a9e362db01de0933bdd8b17971a9c3d7a" target="_top" xlink:title=" ">
<polygon fill="none" stroke="black" points="547,-19.5 547,-38.5 663,-38.5 663,-19.5 547,-19.5"/>
<text text-anchor="middle" x="605" y="-26.5" font-family="Helvetica,sans-Serif" font-size="10.00">__am_get_example_uc</text>
</a>
</g>
</g>
<!-- Node24&#45;&gt;Node25 -->
<g id="edge25" class="edge">
<title>Node24&#45;&gt;Node25</title>
<path fill="none" stroke="midnightblue" d="M487.31,-29C501.18,-29 519.01,-29 536.53,-29"/>
<polygon fill="midnightblue" stroke="midnightblue" points="536.78,-32.5 546.78,-29 536.78,-25.5 536.78,-32.5"/>
</g>
</g>
</svg>
