<?xml version="1.0" encoding="UTF-8" standalone="no"?>
<!DOCTYPE svg PUBLIC "-//W3C//DTD SVG 1.1//EN"
 "http://www.w3.org/Graphics/SVG/1.1/DTD/svg11.dtd">
<!-- Generated by graphviz version 2.50.0 (20220203.2022)
 -->
<!-- Title: __am_pmem_protect Pages: 1 -->
<svg width="514pt" height="28pt"
 viewBox="0.00 0.00 514.00 28.00" xmlns="http://www.w3.org/2000/svg" xmlns:xlink="http://www.w3.org/1999/xlink">
<g id="graph0" class="graph" transform="scale(1 1) rotate(0) translate(4 24)">
<title>__am_pmem_protect</title>
<!-- Node1 -->
<g id="node1" class="node">
<title>Node1</title>
<g id="a_node1"><a xlink:title=" ">
<polygon fill="#bfbfbf" stroke="black" points="398,-0.5 398,-19.5 506,-19.5 506,-0.5 398,-0.5"/>
<text text-anchor="middle" x="452" y="-7.5" font-family="Helvetica,sans-Serif" font-size="10.00">__am_pmem_protect</text>
</a>
</g>
</g>
<!-- Node2 -->
<g id="node2" class="node">
<title>Node2</title>
<g id="a_node2"><a xlink:href="native_2cte_8c.html#aa76bab517f9c7ba14287162896f6dbbb" target="_top" xlink:title=" ">
<polygon fill="none" stroke="black" points="332,-0.5 332,-19.5 362,-19.5 362,-0.5 332,-0.5"/>
<text text-anchor="middle" x="347" y="-7.5" font-family="Helvetica,sans-Serif" font-size="10.00">iret</text>
</a>
</g>
</g>
<!-- Node1&#45;&gt;Node2 -->
<g id="edge1" class="edge">
<title>Node1&#45;&gt;Node2</title>
<path fill="none" stroke="midnightblue" d="M387.86,-10C378.28,-10 369.26,-10 362.24,-10"/>
<polygon fill="midnightblue" stroke="midnightblue" points="387.99,-13.5 397.99,-10 387.99,-6.5 387.99,-13.5"/>
</g>
<!-- Node3 -->
<g id="node3" class="node">
<title>Node3</title>
<g id="a_node3"><a xlink:href="native_2cte_8c.html#a15554d17d092b4dd626a77142f89ae02" target="_top" xlink:title=" ">
<polygon fill="none" stroke="black" points="230,-0.5 230,-19.5 296,-19.5 296,-0.5 230,-0.5"/>
<text text-anchor="middle" x="263" y="-7.5" font-family="Helvetica,sans-Serif" font-size="10.00">sig_handler</text>
</a>
</g>
</g>
<!-- Node2&#45;&gt;Node3 -->
<g id="edge2" class="edge">
<title>Node2&#45;&gt;Node3</title>
<path fill="none" stroke="midnightblue" d="M321.59,-10C313.61,-10 304.61,-10 296.14,-10"/>
<polygon fill="midnightblue" stroke="midnightblue" points="321.72,-13.5 331.72,-10 321.72,-6.5 321.72,-13.5"/>
</g>
<!-- Node4 -->
<g id="node4" class="node">
<title>Node4</title>
<g id="a_node4"><a xlink:href="native_2cte_8c.html#a86b2b6fbda4e793f71ac4b12b85a9d74" target="_top" xlink:title=" ">
<polygon fill="none" stroke="black" points="84,-0.5 84,-19.5 194,-19.5 194,-0.5 84,-0.5"/>
<text text-anchor="middle" x="139" y="-7.5" font-family="Helvetica,sans-Serif" font-size="10.00">install_signal_handler</text>
</a>
</g>
</g>
<!-- Node3&#45;&gt;Node4 -->
<g id="edge3" class="edge">
<title>Node3&#45;&gt;Node4</title>
<path fill="none" stroke="midnightblue" d="M219.76,-10C211.45,-10 202.64,-10 194.01,-10"/>
<polygon fill="midnightblue" stroke="midnightblue" points="219.95,-13.5 229.95,-10 219.95,-6.5 219.95,-13.5"/>
</g>
<!-- Node5 -->
<g id="node5" class="node">
<title>Node5</title>
<g id="a_node5"><a xlink:href="native_2cte_8c.html#a14d86719abbc247f8a0dd5eb2662ea88" target="_top" xlink:title=" ">
<polygon fill="none" stroke="black" points="0,-0.5 0,-19.5 48,-19.5 48,-0.5 0,-0.5"/>
<text text-anchor="middle" x="24" y="-7.5" font-family="Helvetica,sans-Serif" font-size="10.00">cte_init</text>
</a>
</g>
</g>
<!-- Node4&#45;&gt;Node5 -->
<g id="edge4" class="edge">
<title>Node4&#45;&gt;Node5</title>
<path fill="none" stroke="midnightblue" d="M73.81,-10C64.65,-10 55.76,-10 48.13,-10"/>
<polygon fill="midnightblue" stroke="midnightblue" points="73.82,-13.5 83.82,-10 73.82,-6.5 73.82,-13.5"/>
</g>
</g>
</svg>
