<?xml version="1.0" encoding="UTF-8" standalone="no"?>
<!DOCTYPE svg PUBLIC "-//W3C//DTD SVG 1.1//EN"
 "http://www.w3.org/Graphics/SVG/1.1/DTD/svg11.dtd">
<!-- Generated by graphviz version 2.50.0 (20220203.2022)
 -->
<!-- Title: abstract&#45;machine/am/src/native/platform.c Pages: 1 -->
<svg width="625pt" height="263pt"
 viewBox="0.00 0.00 624.50 263.00" xmlns="http://www.w3.org/2000/svg" xmlns:xlink="http://www.w3.org/1999/xlink">
<g id="graph0" class="graph" transform="scale(1 1) rotate(0) translate(4 259)">
<title>abstract&#45;machine/am/src/native/platform.c</title>
<!-- Node1 -->
<g id="node1" class="node">
<title>Node1</title>
<g id="a_node1"><a xlink:title=" ">
<polygon fill="#bfbfbf" stroke="black" points="194.5,-224.5 194.5,-254.5 302.5,-254.5 302.5,-224.5 194.5,-224.5"/>
<text text-anchor="start" x="202.5" y="-242.5" font-family="Helvetica,sans-Serif" font-size="10.00">abstract&#45;machine/am</text>
<text text-anchor="middle" x="248.5" y="-231.5" font-family="Helvetica,sans-Serif" font-size="10.00">/src/native/platform.c</text>
</a>
</g>
</g>
<!-- Node2 -->
<g id="node2" class="node">
<title>Node2</title>
<g id="a_node2"><a xlink:title=" ">
<polygon fill="none" stroke="#bfbfbf" points="0,-168.5 0,-187.5 69,-187.5 69,-168.5 0,-168.5"/>
<text text-anchor="middle" x="34.5" y="-175.5" font-family="Helvetica,sans-Serif" font-size="10.00">sys/mman.h</text>
</a>
</g>
</g>
<!-- Node1&#45;&gt;Node2 -->
<g id="edge1" class="edge">
<title>Node1&#45;&gt;Node2</title>
<path fill="none" stroke="midnightblue" d="M198.06,-224.47C160.49,-214.03 109.88,-199.96 74.95,-190.25"/>
<polygon fill="midnightblue" stroke="midnightblue" points="75.67,-186.81 65.09,-187.51 73.79,-193.56 75.67,-186.81"/>
</g>
<!-- Node3 -->
<g id="node3" class="node">
<title>Node3</title>
<g id="a_node3"><a xlink:title=" ">
<polygon fill="none" stroke="#bfbfbf" points="87.5,-168.5 87.5,-187.5 149.5,-187.5 149.5,-168.5 87.5,-168.5"/>
<text text-anchor="middle" x="118.5" y="-175.5" font-family="Helvetica,sans-Serif" font-size="10.00">sys/auxv.h</text>
</a>
</g>
</g>
<!-- Node1&#45;&gt;Node3 -->
<g id="edge2" class="edge">
<title>Node1&#45;&gt;Node3</title>
<path fill="none" stroke="midnightblue" d="M217.69,-224.4C196.17,-214.55 167.66,-201.5 146.73,-191.92"/>
<polygon fill="midnightblue" stroke="midnightblue" points="147.97,-188.64 137.42,-187.66 145.05,-195 147.97,-188.64"/>
</g>
<!-- Node4 -->
<g id="node4" class="node">
<title>Node4</title>
<g id="a_node4"><a xlink:title=" ">
<polygon fill="none" stroke="#bfbfbf" points="168,-168.5 168,-187.5 213,-187.5 213,-168.5 168,-168.5"/>
<text text-anchor="middle" x="190.5" y="-175.5" font-family="Helvetica,sans-Serif" font-size="10.00">dlfcn.h</text>
</a>
</g>
</g>
<!-- Node1&#45;&gt;Node4 -->
<g id="edge3" class="edge">
<title>Node1&#45;&gt;Node4</title>
<path fill="none" stroke="midnightblue" d="M234.75,-224.4C226.15,-215.58 215.05,-204.18 206.11,-195.02"/>
<polygon fill="midnightblue" stroke="midnightblue" points="208.43,-192.38 198.94,-187.66 203.41,-197.26 208.43,-192.38"/>
</g>
<!-- Node5 -->
<g id="node5" class="node">
<title>Node5</title>
<g id="a_node5"><a xlink:title=" ">
<polygon fill="none" stroke="#bfbfbf" points="231,-168.5 231,-187.5 266,-187.5 266,-168.5 231,-168.5"/>
<text text-anchor="middle" x="248.5" y="-175.5" font-family="Helvetica,sans-Serif" font-size="10.00">elf.h</text>
</a>
</g>
</g>
<!-- Node1&#45;&gt;Node5 -->
<g id="edge4" class="edge">
<title>Node1&#45;&gt;Node5</title>
<path fill="none" stroke="midnightblue" d="M248.5,-224.4C248.5,-216.47 248.5,-206.46 248.5,-197.86"/>
<polygon fill="midnightblue" stroke="midnightblue" points="252,-197.66 248.5,-187.66 245,-197.66 252,-197.66"/>
</g>
<!-- Node6 -->
<g id="node6" class="node">
<title>Node6</title>
<g id="a_node6"><a xlink:title=" ">
<polygon fill="none" stroke="#bfbfbf" points="284,-168.5 284,-187.5 331,-187.5 331,-168.5 284,-168.5"/>
<text text-anchor="middle" x="307.5" y="-175.5" font-family="Helvetica,sans-Serif" font-size="10.00">stdlib.h</text>
</a>
</g>
</g>
<!-- Node1&#45;&gt;Node6 -->
<g id="edge5" class="edge">
<title>Node1&#45;&gt;Node6</title>
<path fill="none" stroke="midnightblue" d="M262.48,-224.4C271.23,-215.58 282.53,-204.18 291.62,-195.02"/>
<polygon fill="midnightblue" stroke="midnightblue" points="294.36,-197.22 298.91,-187.66 289.39,-192.29 294.36,-197.22"/>
</g>
<!-- Node7 -->
<g id="node7" class="node">
<title>Node7</title>
<g id="a_node7"><a xlink:title=" ">
<polygon fill="none" stroke="#bfbfbf" points="349,-168.5 349,-187.5 394,-187.5 394,-168.5 349,-168.5"/>
<text text-anchor="middle" x="371.5" y="-175.5" font-family="Helvetica,sans-Serif" font-size="10.00">stdio.h</text>
</a>
</g>
</g>
<!-- Node1&#45;&gt;Node7 -->
<g id="edge6" class="edge">
<title>Node1&#45;&gt;Node7</title>
<path fill="none" stroke="midnightblue" d="M277.65,-224.4C297.92,-214.59 324.74,-201.62 344.52,-192.05"/>
<polygon fill="midnightblue" stroke="midnightblue" points="346.12,-195.16 353.6,-187.66 343.08,-188.86 346.12,-195.16"/>
</g>
<!-- Node8 -->
<g id="node8" class="node">
<title>Node8</title>
<g id="a_node8"><a xlink:href="platform_8h.html" target="_top" xlink:title=" ">
<polygon fill="none" stroke="black" points="412,-168.5 412,-187.5 471,-187.5 471,-168.5 412,-168.5"/>
<text text-anchor="middle" x="441.5" y="-175.5" font-family="Helvetica,sans-Serif" font-size="10.00">platform.h</text>
</a>
</g>
</g>
<!-- Node1&#45;&gt;Node8 -->
<g id="edge7" class="edge">
<title>Node1&#45;&gt;Node8</title>
<path fill="none" stroke="midnightblue" d="M294.24,-224.4C327.73,-214.07 372.63,-200.23 404.02,-190.56"/>
<polygon fill="midnightblue" stroke="midnightblue" points="405.17,-193.86 413.7,-187.57 403.11,-187.17 405.17,-193.86"/>
</g>
<!-- Node9 -->
<g id="node9" class="node">
<title>Node9</title>
<g id="a_node9"><a xlink:href="am_8h.html" target="_top" xlink:title=" ">
<polygon fill="none" stroke="black" points="331.5,-56.5 331.5,-75.5 369.5,-75.5 369.5,-56.5 331.5,-56.5"/>
<text text-anchor="middle" x="350.5" y="-63.5" font-family="Helvetica,sans-Serif" font-size="10.00">am.h</text>
</a>
</g>
</g>
<!-- Node8&#45;&gt;Node9 -->
<g id="edge8" class="edge">
<title>Node8&#45;&gt;Node9</title>
<path fill="none" stroke="midnightblue" d="M413.55,-168.48C386.4,-159.58 348.03,-145.09 339.5,-132 330.44,-118.09 335.17,-99.08 340.98,-85.21"/>
<polygon fill="midnightblue" stroke="midnightblue" points="344.33,-86.32 345.42,-75.78 338,-83.34 344.33,-86.32"/>
</g>
<!-- Node14 -->
<g id="node14" class="node">
<title>Node14</title>
<g id="a_node14"><a xlink:title=" ">
<polygon fill="none" stroke="#bfbfbf" points="348.5,-112.5 348.5,-131.5 398.5,-131.5 398.5,-112.5 348.5,-112.5"/>
<text text-anchor="middle" x="373.5" y="-119.5" font-family="Helvetica,sans-Serif" font-size="10.00">unistd.h</text>
</a>
</g>
</g>
<!-- Node8&#45;&gt;Node14 -->
<g id="edge13" class="edge">
<title>Node8&#45;&gt;Node14</title>
<path fill="none" stroke="midnightblue" d="M430.57,-168.32C420.33,-160.18 404.78,-147.84 392.5,-138.09"/>
<polygon fill="midnightblue" stroke="midnightblue" points="394.63,-135.31 384.62,-131.83 390.28,-140.79 394.63,-135.31"/>
</g>
<!-- Node15 -->
<g id="node15" class="node">
<title>Node15</title>
<g id="a_node15"><a xlink:title=" ">
<polygon fill="none" stroke="#bfbfbf" points="416.5,-112.5 416.5,-131.5 466.5,-131.5 466.5,-112.5 416.5,-112.5"/>
<text text-anchor="middle" x="441.5" y="-119.5" font-family="Helvetica,sans-Serif" font-size="10.00">signal.h</text>
</a>
</g>
</g>
<!-- Node8&#45;&gt;Node15 -->
<g id="edge14" class="edge">
<title>Node8&#45;&gt;Node15</title>
<path fill="none" stroke="midnightblue" d="M441.5,-168.08C441.5,-161.01 441.5,-150.86 441.5,-141.99"/>
<polygon fill="midnightblue" stroke="midnightblue" points="445,-141.75 441.5,-131.75 438,-141.75 445,-141.75"/>
</g>
<!-- Node16 -->
<g id="node16" class="node">
<title>Node16</title>
<g id="a_node16"><a xlink:href="klib_8h.html" target="_top" xlink:title=" ">
<polygon fill="none" stroke="black" points="485,-112.5 485,-131.5 524,-131.5 524,-112.5 485,-112.5"/>
<text text-anchor="middle" x="504.5" y="-119.5" font-family="Helvetica,sans-Serif" font-size="10.00">klib.h</text>
</a>
</g>
</g>
<!-- Node8&#45;&gt;Node16 -->
<g id="edge15" class="edge">
<title>Node8&#45;&gt;Node16</title>
<path fill="none" stroke="midnightblue" d="M451.62,-168.32C461.03,-160.26 475.24,-148.08 486.57,-138.37"/>
<polygon fill="midnightblue" stroke="midnightblue" points="488.88,-141 494.19,-131.83 484.32,-135.68 488.88,-141"/>
</g>
<!-- Node18 -->
<g id="node18" class="node">
<title>Node18</title>
<g id="a_node18"><a xlink:href="klib-macros_8h.html" target="_top" xlink:title=" ">
<polygon fill="none" stroke="black" points="542.5,-112.5 542.5,-131.5 616.5,-131.5 616.5,-112.5 542.5,-112.5"/>
<text text-anchor="middle" x="579.5" y="-119.5" font-family="Helvetica,sans-Serif" font-size="10.00">klib&#45;macros.h</text>
</a>
</g>
</g>
<!-- Node8&#45;&gt;Node18 -->
<g id="edge19" class="edge">
<title>Node8&#45;&gt;Node18</title>
<path fill="none" stroke="midnightblue" d="M463.37,-168.44C486.28,-159.48 522.48,-145.31 548.37,-135.18"/>
<polygon fill="midnightblue" stroke="midnightblue" points="549.7,-138.42 557.74,-131.52 547.15,-131.9 549.7,-138.42"/>
</g>
<!-- Node10 -->
<g id="node10" class="node">
<title>Node10</title>
<g id="a_node10"><a xlink:title=" ">
<polygon fill="none" stroke="#bfbfbf" points="234.5,-0.5 234.5,-19.5 282.5,-19.5 282.5,-0.5 234.5,-0.5"/>
<text text-anchor="middle" x="258.5" y="-7.5" font-family="Helvetica,sans-Serif" font-size="10.00">stdint.h</text>
</a>
</g>
</g>
<!-- Node9&#45;&gt;Node10 -->
<g id="edge9" class="edge">
<title>Node9&#45;&gt;Node10</title>
<path fill="none" stroke="midnightblue" d="M335.72,-56.32C321.23,-47.82 298.93,-34.73 282.01,-24.8"/>
<polygon fill="midnightblue" stroke="midnightblue" points="283.64,-21.7 273.24,-19.65 280.1,-27.74 283.64,-21.7"/>
</g>
<!-- Node11 -->
<g id="node11" class="node">
<title>Node11</title>
<g id="a_node11"><a xlink:title=" ">
<polygon fill="none" stroke="#bfbfbf" points="446,-0.5 446,-19.5 497,-19.5 497,-0.5 446,-0.5"/>
<text text-anchor="middle" x="471.5" y="-7.5" font-family="Helvetica,sans-Serif" font-size="10.00">stddef.h</text>
</a>
</g>
</g>
<!-- Node9&#45;&gt;Node11 -->
<g id="edge10" class="edge">
<title>Node9&#45;&gt;Node11</title>
<path fill="none" stroke="midnightblue" d="M369.67,-56.44C389.41,-47.64 420.39,-33.81 442.99,-23.72"/>
<polygon fill="midnightblue" stroke="midnightblue" points="444.71,-26.79 452.42,-19.52 441.86,-20.4 444.71,-26.79"/>
</g>
<!-- Node12 -->
<g id="node12" class="node">
<title>Node12</title>
<g id="a_node12"><a xlink:title=" ">
<polygon fill="none" stroke="#bfbfbf" points="300.5,-0.5 300.5,-19.5 356.5,-19.5 356.5,-0.5 300.5,-0.5"/>
<text text-anchor="middle" x="328.5" y="-7.5" font-family="Helvetica,sans-Serif" font-size="10.00">stdbool.h</text>
</a>
</g>
</g>
<!-- Node9&#45;&gt;Node12 -->
<g id="edge11" class="edge">
<title>Node9&#45;&gt;Node12</title>
<path fill="none" stroke="midnightblue" d="M346.87,-56.08C343.89,-48.77 339.57,-38.18 335.88,-29.1"/>
<polygon fill="midnightblue" stroke="midnightblue" points="339.08,-27.69 332.07,-19.75 332.6,-30.33 339.08,-27.69"/>
</g>
<!-- Node13 -->
<g id="node13" class="node">
<title>Node13</title>
<g id="a_node13"><a xlink:href="amdev_8h.html" target="_top" xlink:title=" ">
<polygon fill="none" stroke="black" points="375,-0.5 375,-19.5 428,-19.5 428,-0.5 375,-0.5"/>
<text text-anchor="middle" x="401.5" y="-7.5" font-family="Helvetica,sans-Serif" font-size="10.00">amdev.h</text>
</a>
</g>
</g>
<!-- Node9&#45;&gt;Node13 -->
<g id="edge12" class="edge">
<title>Node9&#45;&gt;Node13</title>
<path fill="none" stroke="midnightblue" d="M358.92,-56.08C366.35,-48.22 377.35,-36.57 386.31,-27.08"/>
<polygon fill="midnightblue" stroke="midnightblue" points="388.91,-29.42 393.24,-19.75 383.82,-24.62 388.91,-29.42"/>
</g>
<!-- Node16&#45;&gt;Node9 -->
<g id="edge16" class="edge">
<title>Node16&#45;&gt;Node9</title>
<path fill="none" stroke="midnightblue" d="M485,-114.16C458.38,-104.83 410.48,-88.03 379.61,-77.21"/>
<polygon fill="midnightblue" stroke="midnightblue" points="380.44,-73.79 369.85,-73.78 378.12,-80.4 380.44,-73.79"/>
</g>
<!-- Node16&#45;&gt;Node11 -->
<g id="edge17" class="edge">
<title>Node16&#45;&gt;Node11</title>
<path fill="none" stroke="midnightblue" d="M501.91,-112.37C496.56,-94.54 484.19,-53.3 476.98,-29.27"/>
<polygon fill="midnightblue" stroke="midnightblue" points="480.3,-28.16 474.08,-19.59 473.6,-30.18 480.3,-28.16"/>
</g>
<!-- Node17 -->
<g id="node17" class="node">
<title>Node17</title>
<g id="a_node17"><a xlink:title=" ">
<polygon fill="none" stroke="#bfbfbf" points="500,-56.5 500,-75.5 551,-75.5 551,-56.5 500,-56.5"/>
<text text-anchor="middle" x="525.5" y="-63.5" font-family="Helvetica,sans-Serif" font-size="10.00">stdarg.h</text>
</a>
</g>
</g>
<!-- Node16&#45;&gt;Node17 -->
<g id="edge18" class="edge">
<title>Node16&#45;&gt;Node17</title>
<path fill="none" stroke="midnightblue" d="M507.97,-112.08C510.81,-104.77 514.93,-94.18 518.46,-85.1"/>
<polygon fill="midnightblue" stroke="midnightblue" points="521.73,-86.34 522.1,-75.75 515.21,-83.8 521.73,-86.34"/>
</g>
</g>
</svg>
