<?xml version="1.0" encoding="UTF-8" standalone="no"?>
<!DOCTYPE svg PUBLIC "-//W3C//DTD SVG 1.1//EN"
 "http://www.w3.org/Graphics/SVG/1.1/DTD/svg11.dtd">
<!-- Generated by graphviz version 2.50.0 (20220203.2022)
 -->
<!-- Title: save_example_context Pages: 1 -->
<svg width="512pt" height="28pt"
 viewBox="0.00 0.00 512.00 28.00" xmlns="http://www.w3.org/2000/svg" xmlns:xlink="http://www.w3.org/1999/xlink">
<g id="graph0" class="graph" transform="scale(1 1) rotate(0) translate(4 24)">
<title>save_example_context</title>
<!-- Node1 -->
<g id="node1" class="node">
<title>Node1</title>
<g id="a_node1"><a xlink:title=" ">
<polygon fill="#bfbfbf" stroke="black" points="0,-0.5 0,-19.5 116,-19.5 116,-0.5 0,-0.5"/>
<text text-anchor="middle" x="58" y="-7.5" font-family="Helvetica,sans-Serif" font-size="10.00">save_example_context</text>
</a>
</g>
</g>
<!-- Node2 -->
<g id="node2" class="node">
<title>Node2</title>
<g id="a_node2"><a xlink:href="platform_8c.html#a76e1a4b5253edc79be8a4a8e52a5a1bd" target="_top" xlink:title=" ">
<polygon fill="none" stroke="black" points="152,-0.5 152,-19.5 263,-19.5 263,-0.5 152,-0.5"/>
<text text-anchor="middle" x="207.5" y="-7.5" font-family="Helvetica,sans-Serif" font-size="10.00">save_context_handler</text>
</a>
</g>
</g>
<!-- Node1&#45;&gt;Node2 -->
<g id="edge1" class="edge">
<title>Node1&#45;&gt;Node2</title>
<path fill="none" stroke="midnightblue" d="M116.03,-10C124.33,-10 132.92,-10 141.37,-10"/>
<polygon fill="midnightblue" stroke="midnightblue" points="141.56,-13.5 151.56,-10 141.56,-6.5 141.56,-13.5"/>
</g>
<!-- Node3 -->
<g id="node3" class="node">
<title>Node3</title>
<g id="a_node3"><a xlink:href="x86_2qemu_2vme_8c.html#a8e53eed544a985d22d8c1df4c4d7df2c" target="_top" xlink:title=" ">
<polygon fill="none" stroke="black" points="299,-0.5 299,-19.5 352,-19.5 352,-0.5 299,-0.5"/>
<text text-anchor="middle" x="325.5" y="-7.5" font-family="Helvetica,sans-Serif" font-size="10.00">ucontext</text>
</a>
</g>
</g>
<!-- Node2&#45;&gt;Node3 -->
<g id="edge2" class="edge">
<title>Node2&#45;&gt;Node3</title>
<path fill="none" stroke="midnightblue" d="M263.1,-10C271.77,-10 280.53,-10 288.62,-10"/>
<polygon fill="midnightblue" stroke="midnightblue" points="288.8,-13.5 298.8,-10 288.8,-6.5 288.8,-13.5"/>
</g>
<!-- Node4 -->
<g id="node4" class="node">
<title>Node4</title>
<g id="a_node4"><a xlink:href="platform_8c.html#a9e362db01de0933bdd8b17971a9c3d7a" target="_top" xlink:title=" ">
<polygon fill="none" stroke="black" points="388,-0.5 388,-19.5 504,-19.5 504,-0.5 388,-0.5"/>
<text text-anchor="middle" x="446" y="-7.5" font-family="Helvetica,sans-Serif" font-size="10.00">__am_get_example_uc</text>
</a>
</g>
</g>
<!-- Node3&#45;&gt;Node4 -->
<g id="edge3" class="edge">
<title>Node3&#45;&gt;Node4</title>
<path fill="none" stroke="midnightblue" d="M352.21,-10C359.83,-10 368.55,-10 377.52,-10"/>
<polygon fill="midnightblue" stroke="midnightblue" points="377.72,-13.5 387.72,-10 377.72,-6.5 377.72,-13.5"/>
</g>
</g>
</svg>
