<?xml version="1.0" encoding="UTF-8" standalone="no"?>
<!DOCTYPE svg PUBLIC "-//W3C//DTD SVG 1.1//EN"
 "http://www.w3.org/Graphics/SVG/1.1/DTD/svg11.dtd">
<!-- Generated by graphviz version 2.50.0 (20220203.2022)
 -->
<!-- Title: pmm_init Pages: 1 -->
<svg width="408pt" height="142pt"
 viewBox="0.00 0.00 408.00 142.00" xmlns="http://www.w3.org/2000/svg" xmlns:xlink="http://www.w3.org/1999/xlink">
<g id="graph0" class="graph" transform="scale(1 1) rotate(0) translate(4 138)">
<title>pmm_init</title>
<!-- Node1 -->
<g id="node1" class="node">
<title>Node1</title>
<g id="a_node1"><a xlink:title=" ">
<polygon fill="#bfbfbf" stroke="black" points="0,-57.5 0,-76.5 56,-76.5 56,-57.5 0,-57.5"/>
<text text-anchor="middle" x="28" y="-64.5" font-family="Helvetica,sans-Serif" font-size="10.00">pmm_init</text>
</a>
</g>
</g>
<!-- Node2 -->
<g id="node2" class="node">
<title>Node2</title>
<g id="a_node2"><a xlink:href="stdio_8c.html#a55f3d956bb2ba20b5059e9e25484a47f" target="_top" xlink:title=" ">
<polygon fill="none" stroke="black" points="92,-57.5 92,-76.5 130,-76.5 130,-57.5 92,-57.5"/>
<text text-anchor="middle" x="111" y="-64.5" font-family="Helvetica,sans-Serif" font-size="10.00">printf</text>
</a>
</g>
</g>
<!-- Node1&#45;&gt;Node2 -->
<g id="edge1" class="edge">
<title>Node1&#45;&gt;Node2</title>
<path fill="none" stroke="midnightblue" d="M56.42,-67C64.46,-67 73.28,-67 81.39,-67"/>
<polygon fill="midnightblue" stroke="midnightblue" points="81.53,-70.5 91.53,-67 81.53,-63.5 81.53,-70.5"/>
</g>
<!-- Node3 -->
<g id="node3" class="node">
<title>Node3</title>
<g id="a_node3"><a xlink:href="stdio_8c.html#a44a6734c6f8f81d8e1fa3b9d476c5134" target="_top" xlink:title="write bytes (including the terminating null byte (&#39;\0&#39;)) to out.">
<polygon fill="none" stroke="black" points="166,-57.5 166,-76.5 215,-76.5 215,-57.5 166,-57.5"/>
<text text-anchor="middle" x="190.5" y="-64.5" font-family="Helvetica,sans-Serif" font-size="10.00">vsprintf</text>
</a>
</g>
</g>
<!-- Node2&#45;&gt;Node3 -->
<g id="edge2" class="edge">
<title>Node2&#45;&gt;Node3</title>
<path fill="none" stroke="midnightblue" d="M130.37,-67C138.02,-67 147.16,-67 155.94,-67"/>
<polygon fill="midnightblue" stroke="midnightblue" points="155.97,-70.5 165.97,-67 155.97,-63.5 155.97,-70.5"/>
</g>
<!-- Node4 -->
<g id="node4" class="node">
<title>Node4</title>
<g id="a_node4"><a xlink:href="stdio_8c.html#abf852e417a205348767989f2940059ad" target="_top" xlink:title="write at most n bytes (including the terminating null byte (&#39;\0&#39;)) to out.">
<polygon fill="none" stroke="black" points="251,-57.5 251,-76.5 305,-76.5 305,-57.5 251,-57.5"/>
<text text-anchor="middle" x="278" y="-64.5" font-family="Helvetica,sans-Serif" font-size="10.00">vsnprintf</text>
</a>
</g>
</g>
<!-- Node3&#45;&gt;Node4 -->
<g id="edge3" class="edge">
<title>Node3&#45;&gt;Node4</title>
<path fill="none" stroke="midnightblue" d="M215.32,-67C223.19,-67 232.13,-67 240.71,-67"/>
<polygon fill="midnightblue" stroke="midnightblue" points="240.91,-70.5 250.91,-67 240.91,-63.5 240.91,-70.5"/>
</g>
<!-- Node5 -->
<g id="node5" class="node">
<title>Node5</title>
<g id="a_node5"><a xlink:href="stdio_8c.html#af978fa291399f159cc8d94cb650cef4d" target="_top" xlink:title="print padding char">
<polygon fill="none" stroke="black" points="344,-114.5 344,-133.5 397,-133.5 397,-114.5 344,-114.5"/>
<text text-anchor="middle" x="370.5" y="-121.5" font-family="Helvetica,sans-Serif" font-size="10.00">add_pad</text>
</a>
</g>
</g>
<!-- Node4&#45;&gt;Node5 -->
<g id="edge4" class="edge">
<title>Node4&#45;&gt;Node5</title>
<path fill="none" stroke="midnightblue" d="M294.35,-76.67C308.35,-85.48 329.25,-98.65 345.46,-108.86"/>
<polygon fill="midnightblue" stroke="midnightblue" points="344.05,-112.11 354.37,-114.47 347.78,-106.18 344.05,-112.11"/>
</g>
<!-- Node6 -->
<g id="node6" class="node">
<title>Node6</title>
<g id="a_node6"><a xlink:href="stdio_8c.html#a0e2811092b514de48ac2dd675d6cf2b4" target="_top" xlink:title="print decimal into buffer,return length">
<polygon fill="none" stroke="black" points="341,-76.5 341,-95.5 400,-95.5 400,-76.5 341,-76.5"/>
<text text-anchor="middle" x="370.5" y="-83.5" font-family="Helvetica,sans-Serif" font-size="10.00">print_num</text>
</a>
</g>
</g>
<!-- Node4&#45;&gt;Node6 -->
<g id="edge5" class="edge">
<title>Node4&#45;&gt;Node6</title>
<path fill="none" stroke="midnightblue" d="M305.18,-72.5C313.21,-74.18 322.22,-76.07 330.89,-77.89"/>
<polygon fill="midnightblue" stroke="midnightblue" points="330.34,-81.36 340.85,-79.98 331.78,-74.5 330.34,-81.36"/>
</g>
<!-- Node7 -->
<g id="node7" class="node">
<title>Node7</title>
<g id="a_node7"><a xlink:href="string_8c.html#aa383452fe445bfae989358c9d7d96f4f" target="_top" xlink:title=" ">
<polygon fill="none" stroke="black" points="350,-38.5 350,-57.5 391,-57.5 391,-38.5 350,-38.5"/>
<text text-anchor="middle" x="370.5" y="-45.5" font-family="Helvetica,sans-Serif" font-size="10.00">strlen</text>
</a>
</g>
</g>
<!-- Node4&#45;&gt;Node7 -->
<g id="edge6" class="edge">
<title>Node4&#45;&gt;Node7</title>
<path fill="none" stroke="midnightblue" d="M305.18,-61.5C316.13,-59.21 328.9,-56.52 340.17,-54.16"/>
<polygon fill="midnightblue" stroke="midnightblue" points="340.93,-57.57 350,-52.09 339.49,-50.72 340.93,-57.57"/>
</g>
<!-- Node8 -->
<g id="node8" class="node">
<title>Node8</title>
<g id="a_node8"><a xlink:href="string_8c.html#a82f08f2390a9067f3c94b638e90e03bd" target="_top" xlink:title=" ">
<polygon fill="none" stroke="black" points="346.5,-0.5 346.5,-19.5 394.5,-19.5 394.5,-0.5 346.5,-0.5"/>
<text text-anchor="middle" x="370.5" y="-7.5" font-family="Helvetica,sans-Serif" font-size="10.00">strncpy</text>
</a>
</g>
</g>
<!-- Node4&#45;&gt;Node8 -->
<g id="edge7" class="edge">
<title>Node4&#45;&gt;Node8</title>
<path fill="none" stroke="midnightblue" d="M294.35,-57.33C308.35,-48.52 329.25,-35.35 345.46,-25.14"/>
<polygon fill="midnightblue" stroke="midnightblue" points="347.78,-27.82 354.37,-19.53 344.05,-21.89 347.78,-27.82"/>
</g>
</g>
</svg>
