<?xml version="1.0" encoding="UTF-8" standalone="no"?>
<!DOCTYPE svg PUBLIC "-//W3C//DTD SVG 1.1//EN"
 "http://www.w3.org/Graphics/SVG/1.1/DTD/svg11.dtd">
<!-- Generated by graphviz version 3.0.0 (20220413.0106)
 -->
<!-- Title: kfree Pages: 1 -->
<svg width="609pt" height="180pt"
 viewBox="0.00 0.00 609.00 180.00" xmlns="http://www.w3.org/2000/svg" xmlns:xlink="http://www.w3.org/1999/xlink">
<g id="graph0" class="graph" transform="scale(1 1) rotate(0) translate(4 176)">
<title>kfree</title>
<!-- Node1 -->
<g id="node1" class="node">
<title>Node1</title>
<g id="a_node1"><a xlink:title=" ">
<polygon fill="#bfbfbf" stroke="black" points="0,-38.5 0,-57.5 38,-57.5 38,-38.5 0,-38.5"/>
<text text-anchor="middle" x="19" y="-45.5" font-family="Helvetica,sans-Serif" font-size="10.00">kfree</text>
</a>
</g>
</g>
<!-- Node2 -->
<g id="node2" class="node">
<title>Node2</title>
<g id="a_node2"><a xlink:href="buddy_8c.html#a77f7615f76209d4083ef2d0826d90a1e" target="_top" xlink:title="free a chunk and process in deep.">
<polygon fill="none" stroke="black" points="74,-76.5 74,-95.5 139,-95.5 139,-76.5 74,-76.5"/>
<text text-anchor="middle" x="106.5" y="-83.5" font-family="Helvetica,sans-Serif" font-size="10.00">chunk_free</text>
</a>
</g>
</g>
<!-- Node1&#45;&gt;Node2 -->
<g id="edge1" class="edge">
<title>Node1&#45;&gt;Node2</title>
<path fill="none" stroke="midnightblue" d="M38.13,-56.06C48.73,-60.77 62.39,-66.84 74.64,-72.28"/>
<polygon fill="midnightblue" stroke="midnightblue" points="73.51,-75.61 84.07,-76.48 76.35,-69.22 73.51,-75.61"/>
</g>
<!-- Node13 -->
<g id="node13" class="node">
<title>Node13</title>
<g id="a_node13"><a xlink:href="buddy_8c.html#ad1eda4b9fbb516f58586845217f68723" target="_top" xlink:title="translate virtual address to chunk address">
<polygon fill="none" stroke="black" points="428,-0.5 428,-19.5 490,-19.5 490,-0.5 428,-0.5"/>
<text text-anchor="middle" x="459" y="-7.5" font-family="Helvetica,sans-Serif" font-size="10.00">virt2chunk</text>
</a>
</g>
</g>
<!-- Node1&#45;&gt;Node13 -->
<g id="edge14" class="edge">
<title>Node1&#45;&gt;Node13</title>
<path fill="none" stroke="midnightblue" d="M38.26,-46.42C103.51,-40.76 326.05,-21.45 417.88,-13.48"/>
<polygon fill="midnightblue" stroke="midnightblue" points="418.24,-16.96 427.9,-12.61 417.63,-9.99 418.24,-16.96"/>
</g>
<!-- Node3 -->
<g id="node3" class="node">
<title>Node3</title>
<g id="a_node3"><a xlink:href="buddy_8c.html#acd10ee3138eeeac7c91ef5928f2135ea" target="_top" xlink:title="make a chunk added to free list.">
<polygon fill="none" stroke="black" points="292,-114.5 292,-133.5 372,-133.5 372,-114.5 292,-114.5"/>
<text text-anchor="middle" x="332" y="-121.5" font-family="Helvetica,sans-Serif" font-size="10.00">chunk_append</text>
</a>
</g>
</g>
<!-- Node2&#45;&gt;Node3 -->
<g id="edge2" class="edge">
<title>Node2&#45;&gt;Node3</title>
<path fill="none" stroke="midnightblue" d="M137.5,-95.51C149.12,-98.91 162.59,-102.51 175,-105 210.45,-112.1 251,-116.95 281.87,-119.96"/>
<polygon fill="midnightblue" stroke="midnightblue" points="281.66,-123.46 291.95,-120.92 282.32,-116.49 281.66,-123.46"/>
</g>
<!-- Node7 -->
<g id="node7" class="node">
<title>Node7</title>
<g id="a_node7"><a xlink:href="buddy_8c.html#a9ae41f7f508f07ceba45065973ce5507" target="_top" xlink:title=" ">
<polygon fill="none" stroke="black" points="175,-76.5 175,-95.5 250,-95.5 250,-76.5 175,-76.5"/>
<text text-anchor="middle" x="212.5" y="-83.5" font-family="Helvetica,sans-Serif" font-size="10.00">chunk_merge</text>
</a>
</g>
</g>
<!-- Node2&#45;&gt;Node7 -->
<g id="edge6" class="edge">
<title>Node2&#45;&gt;Node7</title>
<path fill="none" stroke="midnightblue" d="M139.27,-86C147.25,-86 155.99,-86 164.54,-86"/>
<polygon fill="midnightblue" stroke="midnightblue" points="164.82,-89.5 174.82,-86 164.82,-82.5 164.82,-89.5"/>
</g>
<!-- Node4 -->
<g id="node4" class="node">
<title>Node4</title>
<g id="a_node4"><a xlink:href="structfree__list.html#a338aea6183dad7ec975539e4e1def837" target="_top" xlink:title=" ">
<polygon fill="none" stroke="black" points="414,-152.5 414,-171.5 504,-171.5 504,-152.5 414,-152.5"/>
<text text-anchor="middle" x="459" y="-159.5" font-family="Helvetica,sans-Serif" font-size="10.00">free_list::free_list</text>
</a>
</g>
</g>
<!-- Node3&#45;&gt;Node4 -->
<g id="edge3" class="edge">
<title>Node3&#45;&gt;Node4</title>
<path fill="none" stroke="midnightblue" d="M364.54,-133.59C380.38,-138.4 399.77,-144.3 416.78,-149.47"/>
<polygon fill="midnightblue" stroke="midnightblue" points="415.88,-152.85 426.47,-152.41 417.92,-146.16 415.88,-152.85"/>
</g>
<!-- Node5 -->
<g id="node5" class="node">
<title>Node5</title>
<g id="a_node5"><a xlink:href="list_8h.html#a06a80666b3364324fc601ab7ae1ff20b" target="_top" xlink:title=" ">
<polygon fill="none" stroke="black" points="434,-114.5 434,-133.5 484,-133.5 484,-114.5 434,-114.5"/>
<text text-anchor="middle" x="459" y="-121.5" font-family="Helvetica,sans-Serif" font-size="10.00">list_add</text>
</a>
</g>
</g>
<!-- Node3&#45;&gt;Node5 -->
<g id="edge4" class="edge">
<title>Node3&#45;&gt;Node5</title>
<path fill="none" stroke="midnightblue" d="M372.21,-124C388.61,-124 407.52,-124 423.4,-124"/>
<polygon fill="midnightblue" stroke="midnightblue" points="423.84,-127.5 433.84,-124 423.84,-120.5 423.84,-127.5"/>
</g>
<!-- Node6 -->
<g id="node6" class="node">
<title>Node6</title>
<g id="a_node6"><a xlink:href="list_8h.html#a83ecb02c2209a8fd5f6470d45a07f875" target="_top" xlink:title=" ">
<polygon fill="none" stroke="black" points="540,-114.5 540,-133.5 601,-133.5 601,-114.5 540,-114.5"/>
<text text-anchor="middle" x="570.5" y="-121.5" font-family="Helvetica,sans-Serif" font-size="10.00">__list_add</text>
</a>
</g>
</g>
<!-- Node5&#45;&gt;Node6 -->
<g id="edge5" class="edge">
<title>Node5&#45;&gt;Node6</title>
<path fill="none" stroke="midnightblue" d="M484.03,-124C497.33,-124 514.2,-124 529.44,-124"/>
<polygon fill="midnightblue" stroke="midnightblue" points="529.66,-127.5 539.66,-124 529.66,-120.5 529.66,-127.5"/>
</g>
<!-- Node7&#45;&gt;Node3 -->
<g id="edge7" class="edge">
<title>Node7&#45;&gt;Node3</title>
<path fill="none" stroke="midnightblue" d="M243.15,-95.59C257.9,-100.36 275.93,-106.19 291.8,-111.32"/>
<polygon fill="midnightblue" stroke="midnightblue" points="290.77,-114.67 301.36,-114.41 292.92,-108.01 290.77,-114.67"/>
</g>
<!-- Node8 -->
<g id="node8" class="node">
<title>Node8</title>
<g id="a_node8"><a xlink:href="buddy_8c.html#a8a4afbc5643993142db5ad65b87b8c62" target="_top" xlink:title=" ">
<polygon fill="none" stroke="black" points="301.5,-76.5 301.5,-95.5 362.5,-95.5 362.5,-76.5 301.5,-76.5"/>
<text text-anchor="middle" x="332" y="-83.5" font-family="Helvetica,sans-Serif" font-size="10.00">chunk_del</text>
</a>
</g>
</g>
<!-- Node7&#45;&gt;Node8 -->
<g id="edge8" class="edge">
<title>Node7&#45;&gt;Node8</title>
<path fill="none" stroke="midnightblue" d="M250.03,-86C263,-86 277.67,-86 290.92,-86"/>
<polygon fill="midnightblue" stroke="midnightblue" points="291.18,-89.5 301.18,-86 291.18,-82.5 291.18,-89.5"/>
</g>
<!-- Node11 -->
<g id="node11" class="node">
<title>Node11</title>
<g id="a_node11"><a xlink:href="buddy_8c.html#a48594e69fff9b58d5f41dca7d576eb35" target="_top" xlink:title="Get the buddy chunk.">
<polygon fill="none" stroke="black" points="286,-38.5 286,-57.5 378,-57.5 378,-38.5 286,-38.5"/>
<text text-anchor="middle" x="332" y="-45.5" font-family="Helvetica,sans-Serif" font-size="10.00">get_buddy_chunk</text>
</a>
</g>
</g>
<!-- Node7&#45;&gt;Node11 -->
<g id="edge11" class="edge">
<title>Node7&#45;&gt;Node11</title>
<path fill="none" stroke="midnightblue" d="M243.15,-76.41C257.9,-71.64 275.93,-65.81 291.8,-60.68"/>
<polygon fill="midnightblue" stroke="midnightblue" points="292.92,-63.99 301.36,-57.59 290.77,-57.33 292.92,-63.99"/>
</g>
<!-- Node9 -->
<g id="node9" class="node">
<title>Node9</title>
<g id="a_node9"><a xlink:href="list_8h.html#ab1708206f0f7e0a56550b35372203ba5" target="_top" xlink:title=" ">
<polygon fill="none" stroke="black" points="435.5,-76.5 435.5,-95.5 482.5,-95.5 482.5,-76.5 435.5,-76.5"/>
<text text-anchor="middle" x="459" y="-83.5" font-family="Helvetica,sans-Serif" font-size="10.00">list_del</text>
</a>
</g>
</g>
<!-- Node8&#45;&gt;Node9 -->
<g id="edge9" class="edge">
<title>Node8&#45;&gt;Node9</title>
<path fill="none" stroke="midnightblue" d="M362.62,-86C381.39,-86 405.67,-86 425.04,-86"/>
<polygon fill="midnightblue" stroke="midnightblue" points="425.23,-89.5 435.23,-86 425.23,-82.5 425.23,-89.5"/>
</g>
<!-- Node10 -->
<g id="node10" class="node">
<title>Node10</title>
<g id="a_node10"><a xlink:href="list_8h.html#a24b474717d65a296695e8b79b4adefda" target="_top" xlink:title=" ">
<polygon fill="none" stroke="black" points="541.5,-76.5 541.5,-95.5 599.5,-95.5 599.5,-76.5 541.5,-76.5"/>
<text text-anchor="middle" x="570.5" y="-83.5" font-family="Helvetica,sans-Serif" font-size="10.00">__list_del</text>
</a>
</g>
</g>
<!-- Node9&#45;&gt;Node10 -->
<g id="edge10" class="edge">
<title>Node9&#45;&gt;Node10</title>
<path fill="none" stroke="midnightblue" d="M482.69,-86C496.67,-86 514.95,-86 531.13,-86"/>
<polygon fill="midnightblue" stroke="midnightblue" points="531.39,-89.5 541.39,-86 531.39,-82.5 531.39,-89.5"/>
</g>
<!-- Node12 -->
<g id="node12" class="node">
<title>Node12</title>
<g id="a_node12"><a xlink:href="buddy_8c.html#a7d6c4f020f51f2a621ca1ab5a4e6a5bb" target="_top" xlink:title="translate chunk address to virtual address">
<polygon fill="none" stroke="black" points="428,-38.5 428,-57.5 490,-57.5 490,-38.5 428,-38.5"/>
<text text-anchor="middle" x="459" y="-45.5" font-family="Helvetica,sans-Serif" font-size="10.00">chunk2virt</text>
</a>
</g>
</g>
<!-- Node11&#45;&gt;Node12 -->
<g id="edge12" class="edge">
<title>Node11&#45;&gt;Node12</title>
<path fill="none" stroke="midnightblue" d="M378.13,-48C391.02,-48 404.99,-48 417.58,-48"/>
<polygon fill="midnightblue" stroke="midnightblue" points="417.78,-51.5 427.78,-48 417.78,-44.5 417.78,-51.5"/>
</g>
<!-- Node11&#45;&gt;Node13 -->
<g id="edge13" class="edge">
<title>Node11&#45;&gt;Node13</title>
<path fill="none" stroke="midnightblue" d="M364.54,-38.41C380.75,-33.49 400.66,-27.43 417.94,-22.18"/>
<polygon fill="midnightblue" stroke="midnightblue" points="419.21,-25.45 427.76,-19.19 417.18,-18.75 419.21,-25.45"/>
</g>
</g>
</svg>
