<?xml version="1.0" encoding="UTF-8" standalone="no"?>
<!DOCTYPE svg PUBLIC "-//W3C//DTD SVG 1.1//EN"
 "http://www.w3.org/Graphics/SVG/1.1/DTD/svg11.dtd">
<!-- Generated by graphviz version 3.0.0 (20220413.0106)
 -->
<!-- Title: MODULE_DEF Pages: 1 -->
<svg width="882pt" height="406pt"
 viewBox="0.00 0.00 882.00 405.63" xmlns="http://www.w3.org/2000/svg" xmlns:xlink="http://www.w3.org/1999/xlink">
<g id="graph0" class="graph" transform="scale(1 1) rotate(0) translate(4 401.63)">
<title>MODULE_DEF</title>
<!-- Node1 -->
<g id="node1" class="node">
<title>Node1</title>
<g id="a_node1"><a xlink:title=" ">
<polygon fill="#bfbfbf" stroke="black" points="0,-190.5 0,-209.5 83,-209.5 83,-190.5 0,-190.5"/>
<text text-anchor="middle" x="41.5" y="-197.5" font-family="Helvetica,sans-Serif" font-size="10.00">MODULE_DEF</text>
</a>
</g>
</g>
<!-- Node2 -->
<g id="node2" class="node">
<title>Node2</title>
<g id="a_node2"><a xlink:href="pmm_8c.html#a20ccb461126d548299c6c21f157e6668" target="_top" xlink:title=" ">
<polygon fill="none" stroke="black" points="119,-228.5 119,-247.5 185,-247.5 185,-228.5 119,-228.5"/>
<text text-anchor="middle" x="152" y="-235.5" font-family="Helvetica,sans-Serif" font-size="10.00">kalloc_safe</text>
</a>
</g>
</g>
<!-- Node1&#45;&gt;Node2 -->
<g id="edge1" class="edge">
<title>Node1&#45;&gt;Node2</title>
<path fill="none" stroke="midnightblue" d="M69.88,-209.59C83.24,-214.27 99.52,-219.97 113.97,-225.03"/>
<polygon fill="midnightblue" stroke="midnightblue" points="113.03,-228.41 123.63,-228.41 115.35,-221.81 113.03,-228.41"/>
</g>
<!-- Node22 -->
<g id="node22" class="node">
<title>Node22</title>
<g id="a_node22"><a xlink:href="pmm_8c.html#af2f46f4bce6a599542ce4d462aec9e2f" target="_top" xlink:title=" ">
<polygon fill="none" stroke="black" points="121,-190.5 121,-209.5 183,-209.5 183,-190.5 121,-190.5"/>
<text text-anchor="middle" x="152" y="-197.5" font-family="Helvetica,sans-Serif" font-size="10.00">kfree_safe</text>
</a>
</g>
</g>
<!-- Node1&#45;&gt;Node22 -->
<g id="edge23" class="edge">
<title>Node1&#45;&gt;Node22</title>
<path fill="none" stroke="midnightblue" d="M83.21,-200C92.2,-200 101.72,-200 110.69,-200"/>
<polygon fill="midnightblue" stroke="midnightblue" points="110.91,-203.5 120.91,-200 110.91,-196.5 110.91,-203.5"/>
</g>
<!-- Node26 -->
<g id="node26" class="node">
<title>Node26</title>
<g id="a_node26"><a xlink:href="pmm_8c.html#a393796678826afd801058312f851ca43" target="_top" xlink:title=" ">
<polygon fill="none" stroke="black" points="124,-114.5 124,-133.5 180,-133.5 180,-114.5 124,-114.5"/>
<text text-anchor="middle" x="152" y="-121.5" font-family="Helvetica,sans-Serif" font-size="10.00">pmm_init</text>
</a>
</g>
</g>
<!-- Node1&#45;&gt;Node26 -->
<g id="edge34" class="edge">
<title>Node1&#45;&gt;Node26</title>
<path fill="none" stroke="midnightblue" d="M56.24,-190.37C74.58,-177.53 107.28,-154.62 129.06,-139.37"/>
<polygon fill="midnightblue" stroke="midnightblue" points="131.19,-142.15 137.37,-133.55 127.17,-136.42 131.19,-142.15"/>
</g>
<!-- Node3 -->
<g id="node3" class="node">
<title>Node3</title>
<g id="a_node3"><a xlink:href="cte_8c.html#a79659a2b801c42951e38f3a8821acbae" target="_top" xlink:title=" ">
<polygon fill="none" stroke="black" points="224.5,-228.5 224.5,-247.5 277.5,-247.5 277.5,-228.5 224.5,-228.5"/>
<text text-anchor="middle" x="251" y="-235.5" font-family="Helvetica,sans-Serif" font-size="10.00">ienabled</text>
</a>
</g>
</g>
<!-- Node2&#45;&gt;Node3 -->
<g id="edge2" class="edge">
<title>Node2&#45;&gt;Node3</title>
<path fill="none" stroke="midnightblue" d="M185.03,-238C194.43,-238 204.77,-238 214.38,-238"/>
<polygon fill="midnightblue" stroke="midnightblue" points="214.45,-241.5 224.45,-238 214.45,-234.5 214.45,-241.5"/>
</g>
<!-- Node5 -->
<g id="node5" class="node">
<title>Node5</title>
<g id="a_node5"><a xlink:href="cte_8c.html#a4a139958742786c5085172be1f69bfd0" target="_top" xlink:title=" ">
<polygon fill="none" stroke="black" points="235,-190.5 235,-209.5 267,-209.5 267,-190.5 235,-190.5"/>
<text text-anchor="middle" x="251" y="-197.5" font-family="Helvetica,sans-Serif" font-size="10.00">iset</text>
</a>
</g>
</g>
<!-- Node2&#45;&gt;Node5 -->
<g id="edge4" class="edge">
<title>Node2&#45;&gt;Node5</title>
<path fill="none" stroke="midnightblue" d="M177.48,-228.41C192.16,-222.66 210.77,-215.37 225.47,-209.61"/>
<polygon fill="midnightblue" stroke="midnightblue" points="226.88,-212.82 234.92,-205.91 224.33,-206.3 226.88,-212.82"/>
</g>
<!-- Node8 -->
<g id="node8" class="node">
<title>Node8</title>
<g id="a_node8"><a xlink:href="pmm_8c.html#a350a830083f55f1886e000edec454a99" target="_top" xlink:title=" ">
<polygon fill="none" stroke="black" points="230,-304.5 230,-323.5 272,-323.5 272,-304.5 230,-304.5"/>
<text text-anchor="middle" x="251" y="-311.5" font-family="Helvetica,sans-Serif" font-size="10.00">kalloc</text>
</a>
</g>
</g>
<!-- Node2&#45;&gt;Node8 -->
<g id="edge7" class="edge">
<title>Node2&#45;&gt;Node8</title>
<path fill="none" stroke="midnightblue" d="M165.29,-247.63C181.54,-260.36 210.4,-282.97 229.86,-298.22"/>
<polygon fill="midnightblue" stroke="midnightblue" points="227.78,-301.04 237.81,-304.45 232.1,-295.53 227.78,-301.04"/>
</g>
<!-- Node4 -->
<g id="node4" class="node">
<title>Node4</title>
<g id="a_node4"><a xlink:href="x86_8h.html#a73d094f09c6a7dd3fc703aa8229933ee" target="_top" xlink:title=" ">
<polygon fill="none" stroke="black" points="342,-228.5 342,-247.5 387,-247.5 387,-228.5 342,-228.5"/>
<text text-anchor="middle" x="364.5" y="-235.5" font-family="Helvetica,sans-Serif" font-size="10.00">get_efl</text>
</a>
</g>
</g>
<!-- Node3&#45;&gt;Node4 -->
<g id="edge3" class="edge">
<title>Node3&#45;&gt;Node4</title>
<path fill="none" stroke="midnightblue" d="M277.58,-238C293.66,-238 314.53,-238 331.68,-238"/>
<polygon fill="midnightblue" stroke="midnightblue" points="331.79,-241.5 341.79,-238 331.79,-234.5 331.79,-241.5"/>
</g>
<!-- Node6 -->
<g id="node6" class="node">
<title>Node6</title>
<g id="a_node6"><a xlink:href="x86_8h.html#acc919e7809ef1db2b20aa3804f540b5c" target="_top" xlink:title=" ">
<polygon fill="none" stroke="black" points="350,-152.5 350,-171.5 379,-171.5 379,-152.5 350,-152.5"/>
<text text-anchor="middle" x="364.5" y="-159.5" font-family="Helvetica,sans-Serif" font-size="10.00">cli</text>
</a>
</g>
</g>
<!-- Node5&#45;&gt;Node6 -->
<g id="edge5" class="edge">
<title>Node5&#45;&gt;Node6</title>
<path fill="none" stroke="midnightblue" d="M267.04,-194.88C285.82,-188.47 318.16,-177.45 340.16,-169.95"/>
<polygon fill="midnightblue" stroke="midnightblue" points="341.41,-173.23 349.75,-166.69 339.15,-166.6 341.41,-173.23"/>
</g>
<!-- Node7 -->
<g id="node7" class="node">
<title>Node7</title>
<g id="a_node7"><a xlink:href="x86_8h.html#a4657e97b270d7af5a23da2c4d642ada2" target="_top" xlink:title=" ">
<polygon fill="none" stroke="black" points="350,-190.5 350,-209.5 379,-209.5 379,-190.5 350,-190.5"/>
<text text-anchor="middle" x="364.5" y="-197.5" font-family="Helvetica,sans-Serif" font-size="10.00">sti</text>
</a>
</g>
</g>
<!-- Node5&#45;&gt;Node7 -->
<g id="edge6" class="edge">
<title>Node5&#45;&gt;Node7</title>
<path fill="none" stroke="midnightblue" d="M267.04,-200C285.65,-200 317.57,-200 339.56,-200"/>
<polygon fill="midnightblue" stroke="midnightblue" points="339.75,-203.5 349.75,-200 339.75,-196.5 339.75,-203.5"/>
</g>
<!-- Node9 -->
<g id="node9" class="node">
<title>Node9</title>
<g id="a_node9"><a xlink:href="buddy_8c.html#a7d6c4f020f51f2a621ca1ab5a4e6a5bb" target="_top" xlink:title="translate chunk address to virtual address">
<polygon fill="none" stroke="black" points="701,-351.5 701,-370.5 763,-370.5 763,-351.5 701,-351.5"/>
<text text-anchor="middle" x="732" y="-358.5" font-family="Helvetica,sans-Serif" font-size="10.00">chunk2virt</text>
</a>
</g>
</g>
<!-- Node8&#45;&gt;Node9 -->
<g id="edge8" class="edge">
<title>Node8&#45;&gt;Node9</title>
<path fill="none" stroke="midnightblue" d="M259.1,-323.57C269.85,-337.17 291.72,-361.48 317,-371 446.33,-419.68 614.84,-389.62 690.78,-371.62"/>
<polygon fill="midnightblue" stroke="midnightblue" points="691.98,-374.93 700.87,-369.17 690.33,-368.13 691.98,-374.93"/>
</g>
<!-- Node10 -->
<g id="node10" class="node">
<title>Node10</title>
<g id="a_node10"><a xlink:href="buddy_8c.html#a37436a565869aa245cb46355dab020e2" target="_top" xlink:title=" ">
<polygon fill="none" stroke="black" points="330.5,-266.5 330.5,-285.5 398.5,-285.5 398.5,-266.5 330.5,-266.5"/>
<text text-anchor="middle" x="364.5" y="-273.5" font-family="Helvetica,sans-Serif" font-size="10.00">chunk_alloc</text>
</a>
</g>
</g>
<!-- Node8&#45;&gt;Node10 -->
<g id="edge9" class="edge">
<title>Node8&#45;&gt;Node10</title>
<path fill="none" stroke="midnightblue" d="M272.19,-307.12C287.12,-302.03 307.9,-294.95 325.86,-288.83"/>
<polygon fill="midnightblue" stroke="midnightblue" points="327.15,-292.08 335.49,-285.55 324.9,-285.46 327.15,-292.08"/>
</g>
<!-- Node21 -->
<g id="node21" class="node">
<title>Node21</title>
<g id="a_node21"><a xlink:href="common_8h.html#afec4cf52a3e70c488446a06ea604f9df" target="_top" xlink:title=" ">
<polygon fill="none" stroke="black" points="335.5,-342.5 335.5,-361.5 393.5,-361.5 393.5,-342.5 335.5,-342.5"/>
<text text-anchor="middle" x="364.5" y="-349.5" font-family="Helvetica,sans-Serif" font-size="10.00">power2ify</text>
</a>
</g>
</g>
<!-- Node8&#45;&gt;Node21 -->
<g id="edge22" class="edge">
<title>Node8&#45;&gt;Node21</title>
<path fill="none" stroke="midnightblue" d="M272.19,-320.88C287.12,-325.97 307.9,-333.05 325.86,-339.17"/>
<polygon fill="midnightblue" stroke="midnightblue" points="324.9,-342.54 335.49,-342.45 327.15,-335.92 324.9,-342.54"/>
</g>
<!-- Node11 -->
<g id="node11" class="node">
<title>Node11</title>
<g id="a_node11"><a xlink:href="buddy_8c.html#aff6f2614df5664434766dd9c23971227" target="_top" xlink:title=" ">
<polygon fill="none" stroke="black" points="452.5,-266.5 452.5,-285.5 518.5,-285.5 518.5,-266.5 452.5,-266.5"/>
<text text-anchor="middle" x="485.5" y="-273.5" font-family="Helvetica,sans-Serif" font-size="10.00">chunk_split</text>
</a>
</g>
</g>
<!-- Node10&#45;&gt;Node11 -->
<g id="edge10" class="edge">
<title>Node10&#45;&gt;Node11</title>
<path fill="none" stroke="midnightblue" d="M398.65,-276C412.15,-276 427.92,-276 442.24,-276"/>
<polygon fill="midnightblue" stroke="midnightblue" points="442.35,-279.5 452.35,-276 442.35,-272.5 442.35,-279.5"/>
</g>
<!-- Node13 -->
<g id="node13" class="node">
<title>Node13</title>
<g id="a_node13"><a xlink:href="structfree__list.html#a338aea6183dad7ec975539e4e1def837" target="_top" xlink:title=" ">
<polygon fill="none" stroke="black" points="687,-152.5 687,-171.5 777,-171.5 777,-152.5 687,-152.5"/>
<text text-anchor="middle" x="732" y="-159.5" font-family="Helvetica,sans-Serif" font-size="10.00">free_list::free_list</text>
</a>
</g>
</g>
<!-- Node10&#45;&gt;Node13 -->
<g id="edge21" class="edge">
<title>Node10&#45;&gt;Node13</title>
<path fill="none" stroke="midnightblue" d="M394.51,-266.37C400.54,-263.77 406.67,-260.64 412,-257 431.2,-243.86 428.43,-231.58 448,-219 518.05,-173.99 616.37,-163.39 676.76,-161.5"/>
<polygon fill="midnightblue" stroke="midnightblue" points="676.94,-165 686.85,-161.25 676.77,-158 676.94,-165"/>
</g>
<!-- Node12 -->
<g id="node12" class="node">
<title>Node12</title>
<g id="a_node12"><a xlink:href="buddy_8c.html#acd10ee3138eeeac7c91ef5928f2135ea" target="_top" xlink:title="make a chunk added to free list.">
<polygon fill="none" stroke="black" points="565,-190.5 565,-209.5 645,-209.5 645,-190.5 565,-190.5"/>
<text text-anchor="middle" x="605" y="-197.5" font-family="Helvetica,sans-Serif" font-size="10.00">chunk_append</text>
</a>
</g>
</g>
<!-- Node11&#45;&gt;Node12 -->
<g id="edge11" class="edge">
<title>Node11&#45;&gt;Node12</title>
<path fill="none" stroke="midnightblue" d="M507.68,-266.49C512.9,-263.74 518.32,-260.53 523,-257 541.57,-242.99 539.88,-232.25 559,-219 561.57,-217.22 564.32,-215.56 567.17,-214.02"/>
<polygon fill="midnightblue" stroke="midnightblue" points="568.94,-217.05 576.4,-209.53 565.88,-210.76 568.94,-217.05"/>
</g>
<!-- Node16 -->
<g id="node16" class="node">
<title>Node16</title>
<g id="a_node16"><a xlink:href="buddy_8c.html#a8a4afbc5643993142db5ad65b87b8c62" target="_top" xlink:title=" ">
<polygon fill="none" stroke="black" points="574.5,-228.5 574.5,-247.5 635.5,-247.5 635.5,-228.5 574.5,-228.5"/>
<text text-anchor="middle" x="605" y="-235.5" font-family="Helvetica,sans-Serif" font-size="10.00">chunk_del</text>
</a>
</g>
</g>
<!-- Node11&#45;&gt;Node16 -->
<g id="edge15" class="edge">
<title>Node11&#45;&gt;Node16</title>
<path fill="none" stroke="midnightblue" d="M516.15,-266.41C530.9,-261.64 548.93,-255.81 564.8,-250.68"/>
<polygon fill="midnightblue" stroke="midnightblue" points="565.92,-253.99 574.36,-247.59 563.77,-247.33 565.92,-253.99"/>
</g>
<!-- Node19 -->
<g id="node19" class="node">
<title>Node19</title>
<g id="a_node19"><a xlink:href="buddy_8c.html#a48594e69fff9b58d5f41dca7d576eb35" target="_top" xlink:title="Get the buddy chunk.">
<polygon fill="none" stroke="black" points="559,-266.5 559,-285.5 651,-285.5 651,-266.5 559,-266.5"/>
<text text-anchor="middle" x="605" y="-273.5" font-family="Helvetica,sans-Serif" font-size="10.00">get_buddy_chunk</text>
</a>
</g>
</g>
<!-- Node11&#45;&gt;Node19 -->
<g id="edge18" class="edge">
<title>Node11&#45;&gt;Node19</title>
<path fill="none" stroke="midnightblue" d="M518.61,-276C527.88,-276 538.28,-276 548.55,-276"/>
<polygon fill="midnightblue" stroke="midnightblue" points="548.72,-279.5 558.72,-276 548.72,-272.5 548.72,-279.5"/>
</g>
<!-- Node12&#45;&gt;Node13 -->
<g id="edge12" class="edge">
<title>Node12&#45;&gt;Node13</title>
<path fill="none" stroke="midnightblue" d="M637.54,-190.41C653.38,-185.6 672.77,-179.7 689.78,-174.53"/>
<polygon fill="midnightblue" stroke="midnightblue" points="690.92,-177.84 699.47,-171.59 688.88,-171.15 690.92,-177.84"/>
</g>
<!-- Node14 -->
<g id="node14" class="node">
<title>Node14</title>
<g id="a_node14"><a xlink:href="list_8h.html#a06a80666b3364324fc601ab7ae1ff20b" target="_top" xlink:title=" ">
<polygon fill="none" stroke="black" points="707,-190.5 707,-209.5 757,-209.5 757,-190.5 707,-190.5"/>
<text text-anchor="middle" x="732" y="-197.5" font-family="Helvetica,sans-Serif" font-size="10.00">list_add</text>
</a>
</g>
</g>
<!-- Node12&#45;&gt;Node14 -->
<g id="edge13" class="edge">
<title>Node12&#45;&gt;Node14</title>
<path fill="none" stroke="midnightblue" d="M645.21,-200C661.61,-200 680.52,-200 696.4,-200"/>
<polygon fill="midnightblue" stroke="midnightblue" points="696.84,-203.5 706.84,-200 696.84,-196.5 696.84,-203.5"/>
</g>
<!-- Node15 -->
<g id="node15" class="node">
<title>Node15</title>
<g id="a_node15"><a xlink:href="list_8h.html#a83ecb02c2209a8fd5f6470d45a07f875" target="_top" xlink:title=" ">
<polygon fill="none" stroke="black" points="813,-190.5 813,-209.5 874,-209.5 874,-190.5 813,-190.5"/>
<text text-anchor="middle" x="843.5" y="-197.5" font-family="Helvetica,sans-Serif" font-size="10.00">__list_add</text>
</a>
</g>
</g>
<!-- Node14&#45;&gt;Node15 -->
<g id="edge14" class="edge">
<title>Node14&#45;&gt;Node15</title>
<path fill="none" stroke="midnightblue" d="M757.03,-200C770.33,-200 787.2,-200 802.44,-200"/>
<polygon fill="midnightblue" stroke="midnightblue" points="802.66,-203.5 812.66,-200 802.66,-196.5 802.66,-203.5"/>
</g>
<!-- Node17 -->
<g id="node17" class="node">
<title>Node17</title>
<g id="a_node17"><a xlink:href="list_8h.html#ab1708206f0f7e0a56550b35372203ba5" target="_top" xlink:title=" ">
<polygon fill="none" stroke="black" points="708.5,-228.5 708.5,-247.5 755.5,-247.5 755.5,-228.5 708.5,-228.5"/>
<text text-anchor="middle" x="732" y="-235.5" font-family="Helvetica,sans-Serif" font-size="10.00">list_del</text>
</a>
</g>
</g>
<!-- Node16&#45;&gt;Node17 -->
<g id="edge16" class="edge">
<title>Node16&#45;&gt;Node17</title>
<path fill="none" stroke="midnightblue" d="M635.62,-238C654.39,-238 678.67,-238 698.04,-238"/>
<polygon fill="midnightblue" stroke="midnightblue" points="698.23,-241.5 708.23,-238 698.23,-234.5 698.23,-241.5"/>
</g>
<!-- Node18 -->
<g id="node18" class="node">
<title>Node18</title>
<g id="a_node18"><a xlink:href="list_8h.html#a24b474717d65a296695e8b79b4adefda" target="_top" xlink:title=" ">
<polygon fill="none" stroke="black" points="814.5,-228.5 814.5,-247.5 872.5,-247.5 872.5,-228.5 814.5,-228.5"/>
<text text-anchor="middle" x="843.5" y="-235.5" font-family="Helvetica,sans-Serif" font-size="10.00">__list_del</text>
</a>
</g>
</g>
<!-- Node17&#45;&gt;Node18 -->
<g id="edge17" class="edge">
<title>Node17&#45;&gt;Node18</title>
<path fill="none" stroke="midnightblue" d="M755.69,-238C769.67,-238 787.95,-238 804.13,-238"/>
<polygon fill="midnightblue" stroke="midnightblue" points="804.39,-241.5 814.39,-238 804.39,-234.5 804.39,-241.5"/>
</g>
<!-- Node19&#45;&gt;Node9 -->
<g id="edge19" class="edge">
<title>Node19&#45;&gt;Node9</title>
<path fill="none" stroke="midnightblue" d="M620.34,-285.75C641.91,-300.42 682.89,-328.29 708.48,-345.69"/>
<polygon fill="midnightblue" stroke="midnightblue" points="706.59,-348.63 716.83,-351.36 710.53,-342.85 706.59,-348.63"/>
</g>
<!-- Node20 -->
<g id="node20" class="node">
<title>Node20</title>
<g id="a_node20"><a xlink:href="buddy_8c.html#ad1eda4b9fbb516f58586845217f68723" target="_top" xlink:title="translate virtual address to chunk address">
<polygon fill="none" stroke="black" points="701,-285.5 701,-304.5 763,-304.5 763,-285.5 701,-285.5"/>
<text text-anchor="middle" x="732" y="-292.5" font-family="Helvetica,sans-Serif" font-size="10.00">virt2chunk</text>
</a>
</g>
</g>
<!-- Node19&#45;&gt;Node20 -->
<g id="edge20" class="edge">
<title>Node19&#45;&gt;Node20</title>
<path fill="none" stroke="midnightblue" d="M651.13,-282.86C664.02,-284.82 677.99,-286.94 690.58,-288.86"/>
<polygon fill="midnightblue" stroke="midnightblue" points="690.37,-292.36 700.78,-290.41 691.42,-285.44 690.37,-292.36"/>
</g>
<!-- Node22&#45;&gt;Node3 -->
<g id="edge24" class="edge">
<title>Node22&#45;&gt;Node3</title>
<path fill="none" stroke="midnightblue" d="M177.48,-209.59C189.19,-214.18 203.42,-219.75 216.15,-224.74"/>
<polygon fill="midnightblue" stroke="midnightblue" points="214.94,-228.03 225.53,-228.41 217.5,-221.51 214.94,-228.03"/>
</g>
<!-- Node22&#45;&gt;Node5 -->
<g id="edge25" class="edge">
<title>Node22&#45;&gt;Node5</title>
<path fill="none" stroke="midnightblue" d="M183.16,-200C196.41,-200 211.8,-200 224.47,-200"/>
<polygon fill="midnightblue" stroke="midnightblue" points="224.78,-203.5 234.78,-200 224.78,-196.5 224.78,-203.5"/>
</g>
<!-- Node23 -->
<g id="node23" class="node">
<title>Node23</title>
<g id="a_node23"><a xlink:href="pmm_8c.html#a2cb876c0d76d35916d27ed1623195fbe" target="_top" xlink:title=" ">
<polygon fill="none" stroke="black" points="232,-152.5 232,-171.5 270,-171.5 270,-152.5 232,-152.5"/>
<text text-anchor="middle" x="251" y="-159.5" font-family="Helvetica,sans-Serif" font-size="10.00">kfree</text>
</a>
</g>
</g>
<!-- Node22&#45;&gt;Node23 -->
<g id="edge26" class="edge">
<title>Node22&#45;&gt;Node23</title>
<path fill="none" stroke="midnightblue" d="M177.48,-190.41C191.12,-185.07 208.15,-178.4 222.28,-172.86"/>
<polygon fill="midnightblue" stroke="midnightblue" points="223.93,-175.97 231.96,-169.07 221.37,-169.46 223.93,-175.97"/>
</g>
<!-- Node23&#45;&gt;Node20 -->
<g id="edge33" class="edge">
<title>Node23&#45;&gt;Node20</title>
<path fill="none" stroke="midnightblue" d="M270.15,-171.15C274.17,-173.87 278.09,-177.16 281,-181 313.08,-223.35 274.14,-263.59 317,-295 375.47,-337.85 598.86,-313.17 690.95,-300.78"/>
<polygon fill="midnightblue" stroke="midnightblue" points="691.56,-304.23 701,-299.41 690.61,-297.29 691.56,-304.23"/>
</g>
<!-- Node24 -->
<g id="node24" class="node">
<title>Node24</title>
<g id="a_node24"><a xlink:href="buddy_8c.html#a77f7615f76209d4083ef2d0826d90a1e" target="_top" xlink:title="free a chunk and process in deep.">
<polygon fill="none" stroke="black" points="332,-114.5 332,-133.5 397,-133.5 397,-114.5 332,-114.5"/>
<text text-anchor="middle" x="364.5" y="-121.5" font-family="Helvetica,sans-Serif" font-size="10.00">chunk_free</text>
</a>
</g>
</g>
<!-- Node23&#45;&gt;Node24 -->
<g id="edge27" class="edge">
<title>Node23&#45;&gt;Node24</title>
<path fill="none" stroke="midnightblue" d="M270.41,-155.73C285.41,-150.61 307.07,-143.23 325.73,-136.87"/>
<polygon fill="midnightblue" stroke="midnightblue" points="327.1,-140.1 335.44,-133.56 324.85,-133.48 327.1,-140.1"/>
</g>
<!-- Node24&#45;&gt;Node12 -->
<g id="edge28" class="edge">
<title>Node24&#45;&gt;Node12</title>
<path fill="none" stroke="midnightblue" d="M395.71,-133.63C438.54,-147.27 516.97,-172.27 564.41,-187.38"/>
<polygon fill="midnightblue" stroke="midnightblue" points="563.45,-190.75 574.04,-190.45 565.57,-184.08 563.45,-190.75"/>
</g>
<!-- Node25 -->
<g id="node25" class="node">
<title>Node25</title>
<g id="a_node25"><a xlink:href="buddy_8c.html#a9ae41f7f508f07ceba45065973ce5507" target="_top" xlink:title=" ">
<polygon fill="none" stroke="black" points="448,-228.5 448,-247.5 523,-247.5 523,-228.5 448,-228.5"/>
<text text-anchor="middle" x="485.5" y="-235.5" font-family="Helvetica,sans-Serif" font-size="10.00">chunk_merge</text>
</a>
</g>
</g>
<!-- Node24&#45;&gt;Node25 -->
<g id="edge29" class="edge">
<title>Node24&#45;&gt;Node25</title>
<path fill="none" stroke="midnightblue" d="M397.33,-133.42C402.63,-135.95 407.77,-139.1 412,-143 438.01,-166.98 424.43,-187.62 448,-214 450.84,-217.18 454.2,-220.12 457.7,-222.78"/>
<polygon fill="midnightblue" stroke="midnightblue" points="455.75,-225.68 465.99,-228.43 459.7,-219.9 455.75,-225.68"/>
</g>
<!-- Node25&#45;&gt;Node12 -->
<g id="edge30" class="edge">
<title>Node25&#45;&gt;Node12</title>
<path fill="none" stroke="midnightblue" d="M516.15,-228.41C530.9,-223.64 548.93,-217.81 564.8,-212.68"/>
<polygon fill="midnightblue" stroke="midnightblue" points="565.92,-215.99 574.36,-209.59 563.77,-209.33 565.92,-215.99"/>
</g>
<!-- Node25&#45;&gt;Node16 -->
<g id="edge31" class="edge">
<title>Node25&#45;&gt;Node16</title>
<path fill="none" stroke="midnightblue" d="M523.03,-238C536,-238 550.67,-238 563.92,-238"/>
<polygon fill="midnightblue" stroke="midnightblue" points="564.18,-241.5 574.18,-238 564.18,-234.5 564.18,-241.5"/>
</g>
<!-- Node25&#45;&gt;Node19 -->
<g id="edge32" class="edge">
<title>Node25&#45;&gt;Node19</title>
<path fill="none" stroke="midnightblue" d="M516.15,-247.59C530.9,-252.36 548.93,-258.19 564.8,-263.32"/>
<polygon fill="midnightblue" stroke="midnightblue" points="563.77,-266.67 574.36,-266.41 565.92,-260.01 563.77,-266.67"/>
</g>
<!-- Node27 -->
<g id="node27" class="node">
<title>Node27</title>
<g id="a_node27"><a xlink:href="buddy_8c.html#a571ce3de5539a52d40d9d11033519237" target="_top" xlink:title="initialize the buddy system">
<polygon fill="none" stroke="black" points="221,-76.5 221,-95.5 281,-95.5 281,-76.5 221,-76.5"/>
<text text-anchor="middle" x="251" y="-83.5" font-family="Helvetica,sans-Serif" font-size="10.00">buddy_init</text>
</a>
</g>
</g>
<!-- Node26&#45;&gt;Node27 -->
<g id="edge35" class="edge">
<title>Node26&#45;&gt;Node27</title>
<path fill="none" stroke="midnightblue" d="M177.48,-114.41C189.19,-109.82 203.42,-104.25 216.15,-99.26"/>
<polygon fill="midnightblue" stroke="midnightblue" points="217.5,-102.49 225.53,-95.59 214.94,-95.97 217.5,-102.49"/>
</g>
<!-- Node27&#45;&gt;Node13 -->
<g id="edge37" class="edge">
<title>Node27&#45;&gt;Node13</title>
<path fill="none" stroke="midnightblue" d="M281.26,-88.95C313.4,-92.32 366.48,-98.24 412,-105 505.3,-118.86 613.23,-139.02 676.59,-151.28"/>
<polygon fill="midnightblue" stroke="midnightblue" points="676.27,-154.78 686.75,-153.25 677.6,-147.91 676.27,-154.78"/>
</g>
<!-- Node27&#45;&gt;Node24 -->
<g id="edge36" class="edge">
<title>Node27&#45;&gt;Node24</title>
<path fill="none" stroke="midnightblue" d="M280.14,-95.59C294,-100.31 310.92,-106.08 325.88,-111.18"/>
<polygon fill="midnightblue" stroke="midnightblue" points="324.78,-114.5 335.37,-114.41 327.04,-107.88 324.78,-114.5"/>
</g>
<!-- Node28 -->
<g id="node28" class="node">
<title>Node28</title>
<g id="a_node28"><a xlink:href="list_8h.html#aea85dd50b9129ddaa3e3c67ed55804e4" target="_top" xlink:title=" ">
<polygon fill="none" stroke="black" points="317,-38.5 317,-57.5 412,-57.5 412,-38.5 317,-38.5"/>
<text text-anchor="middle" x="364.5" y="-45.5" font-family="Helvetica,sans-Serif" font-size="10.00">INIT_LIST_HEAD</text>
</a>
</g>
</g>
<!-- Node27&#45;&gt;Node28 -->
<g id="edge38" class="edge">
<title>Node27&#45;&gt;Node28</title>
<path fill="none" stroke="midnightblue" d="M280.14,-76.41C294,-71.69 310.92,-65.92 325.88,-60.82"/>
<polygon fill="midnightblue" stroke="midnightblue" points="327.04,-64.12 335.37,-57.59 324.78,-57.5 327.04,-64.12"/>
</g>
<!-- Node29 -->
<g id="node29" class="node">
<title>Node29</title>
<g id="a_node29"><a xlink:href="string_8c.html#a7a8fd43b209c9ea19addab23a5f23995" target="_top" xlink:title=" ">
<polygon fill="none" stroke="black" points="338.5,-0.5 338.5,-19.5 390.5,-19.5 390.5,-0.5 338.5,-0.5"/>
<text text-anchor="middle" x="364.5" y="-7.5" font-family="Helvetica,sans-Serif" font-size="10.00">memset</text>
</a>
</g>
</g>
<!-- Node27&#45;&gt;Node29 -->
<g id="edge39" class="edge">
<title>Node27&#45;&gt;Node29</title>
<path fill="none" stroke="midnightblue" d="M260.9,-76.43C272.74,-64.13 294.79,-42.74 317,-29 320.67,-26.73 324.66,-24.63 328.71,-22.71"/>
<polygon fill="midnightblue" stroke="midnightblue" points="330.38,-25.8 338.14,-18.59 327.57,-19.39 330.38,-25.8"/>
</g>
</g>
</svg>
