<?xml version="1.0" encoding="UTF-8" standalone="no"?>
<!DOCTYPE svg PUBLIC "-//W3C//DTD SVG 1.1//EN"
 "http://www.w3.org/Graphics/SVG/1.1/DTD/svg11.dtd">
<!-- Generated by graphviz version 3.0.0 (20220413.0106)
 -->
<!-- Title: kernel/src/pmm.c Pages: 1 -->
<svg width="403pt" height="308pt"
 viewBox="0.00 0.00 402.50 308.00" xmlns="http://www.w3.org/2000/svg" xmlns:xlink="http://www.w3.org/1999/xlink">
<g id="graph0" class="graph" transform="scale(1 1) rotate(0) translate(4 304)">
<title>kernel/src/pmm.c</title>
<!-- Node1 -->
<g id="node1" class="node">
<title>Node1</title>
<g id="a_node1"><a xlink:title=" ">
<polygon fill="#bfbfbf" stroke="black" points="44,-280.5 44,-299.5 136,-299.5 136,-280.5 44,-280.5"/>
<text text-anchor="middle" x="90" y="-287.5" font-family="Helvetica,sans-Serif" font-size="10.00">kernel/src/pmm.c</text>
</a>
</g>
</g>
<!-- Node2 -->
<g id="node2" class="node">
<title>Node2</title>
<g id="a_node2"><a xlink:href="common_8h.html" target="_top" xlink:title=" ">
<polygon fill="none" stroke="black" points="129,-168.5 129,-187.5 191,-187.5 191,-168.5 129,-168.5"/>
<text text-anchor="middle" x="160" y="-175.5" font-family="Helvetica,sans-Serif" font-size="10.00">common.h</text>
</a>
</g>
</g>
<!-- Node1&#45;&gt;Node2 -->
<g id="edge1" class="edge">
<title>Node1&#45;&gt;Node2</title>
<path fill="none" stroke="midnightblue" d="M97.16,-280.3C104.31,-271.43 115.46,-257.14 124,-244 134.08,-228.49 144.17,-209.95 151.09,-196.65"/>
<polygon fill="midnightblue" stroke="midnightblue" points="154.26,-198.13 155.71,-187.64 148.03,-194.94 154.26,-198.13"/>
</g>
<!-- Node12 -->
<g id="node12" class="node">
<title>Node12</title>
<g id="a_node12"><a xlink:href="logger_8h.html" target="_top" xlink:title=" ">
<polygon fill="none" stroke="black" points="0,-112.5 0,-131.5 50,-131.5 50,-112.5 0,-112.5"/>
<text text-anchor="middle" x="25" y="-119.5" font-family="Helvetica,sans-Serif" font-size="10.00">logger.h</text>
</a>
</g>
</g>
<!-- Node1&#45;&gt;Node12 -->
<g id="edge22" class="edge">
<title>Node1&#45;&gt;Node12</title>
<path fill="none" stroke="midnightblue" d="M81.82,-280.39C74.09,-271.81 62.71,-257.94 56,-244 39.59,-209.93 31.15,-166.13 27.44,-141.67"/>
<polygon fill="midnightblue" stroke="midnightblue" points="30.88,-141.02 26.02,-131.61 23.95,-142 30.88,-141.02"/>
</g>
<!-- Node14 -->
<g id="node14" class="node">
<title>Node14</title>
<g id="a_node14"><a xlink:href="buddy_8h.html" target="_top" xlink:title=" ">
<polygon fill="none" stroke="black" points="65,-224.5 65,-243.5 115,-243.5 115,-224.5 65,-224.5"/>
<text text-anchor="middle" x="90" y="-231.5" font-family="Helvetica,sans-Serif" font-size="10.00">buddy.h</text>
</a>
</g>
</g>
<!-- Node1&#45;&gt;Node14 -->
<g id="edge18" class="edge">
<title>Node1&#45;&gt;Node14</title>
<path fill="none" stroke="midnightblue" d="M90,-280.08C90,-273.01 90,-262.86 90,-253.99"/>
<polygon fill="midnightblue" stroke="midnightblue" points="93.5,-253.75 90,-243.75 86.5,-253.75 93.5,-253.75"/>
</g>
<!-- Node3 -->
<g id="node3" class="node">
<title>Node3</title>
<g id="a_node3"><a xlink:href="am_8h.html" target="_top" xlink:title=" ">
<polygon fill="none" stroke="black" points="187,-56.5 187,-75.5 225,-75.5 225,-56.5 187,-56.5"/>
<text text-anchor="middle" x="206" y="-63.5" font-family="Helvetica,sans-Serif" font-size="10.00">am.h</text>
</a>
</g>
</g>
<!-- Node2&#45;&gt;Node3 -->
<g id="edge2" class="edge">
<title>Node2&#45;&gt;Node3</title>
<path fill="none" stroke="midnightblue" d="M168.09,-168.42C175.7,-159.87 186.83,-146.01 193,-132 199.46,-117.34 202.74,-99.4 204.39,-86.09"/>
<polygon fill="midnightblue" stroke="midnightblue" points="207.9,-86.08 205.45,-75.77 200.94,-85.36 207.9,-86.08"/>
</g>
<!-- Node7 -->
<g id="node7" class="node">
<title>Node7</title>
<g id="a_node7"><a xlink:href="amdev_8h.html" target="_top" xlink:title=" ">
<polygon fill="none" stroke="black" points="341.5,-0.5 341.5,-19.5 394.5,-19.5 394.5,-0.5 341.5,-0.5"/>
<text text-anchor="middle" x="368" y="-7.5" font-family="Helvetica,sans-Serif" font-size="10.00">amdev.h</text>
</a>
</g>
</g>
<!-- Node2&#45;&gt;Node7 -->
<g id="edge7" class="edge">
<title>Node2&#45;&gt;Node7</title>
<path fill="none" stroke="midnightblue" d="M191.37,-175.34C246.55,-171.7 357.41,-160.88 381,-132 405.07,-102.53 388.84,-54.64 377.1,-28.83"/>
<polygon fill="midnightblue" stroke="midnightblue" points="380.25,-27.31 372.77,-19.82 373.94,-30.35 380.25,-27.31"/>
</g>
<!-- Node8 -->
<g id="node8" class="node">
<title>Node8</title>
<g id="a_node8"><a xlink:href="kernel_8h.html" target="_top" xlink:title=" ">
<polygon fill="none" stroke="black" points="68,-112.5 68,-131.5 118,-131.5 118,-112.5 68,-112.5"/>
<text text-anchor="middle" x="93" y="-119.5" font-family="Helvetica,sans-Serif" font-size="10.00">kernel.h</text>
</a>
</g>
</g>
<!-- Node2&#45;&gt;Node8 -->
<g id="edge8" class="edge">
<title>Node2&#45;&gt;Node8</title>
<path fill="none" stroke="midnightblue" d="M149.24,-168.32C139.23,-160.26 124.11,-148.08 112.07,-138.37"/>
<polygon fill="midnightblue" stroke="midnightblue" points="113.94,-135.38 103.96,-131.83 109.55,-140.83 113.94,-135.38"/>
</g>
<!-- Node9 -->
<g id="node9" class="node">
<title>Node9</title>
<g id="a_node9"><a xlink:href="klib_8h.html" target="_top" xlink:title=" ">
<polygon fill="none" stroke="black" points="240.5,-112.5 240.5,-131.5 279.5,-131.5 279.5,-112.5 240.5,-112.5"/>
<text text-anchor="middle" x="260" y="-119.5" font-family="Helvetica,sans-Serif" font-size="10.00">klib.h</text>
</a>
</g>
</g>
<!-- Node2&#45;&gt;Node9 -->
<g id="edge10" class="edge">
<title>Node2&#45;&gt;Node9</title>
<path fill="none" stroke="midnightblue" d="M176.07,-168.32C191.96,-159.74 216.51,-146.49 234.96,-136.52"/>
<polygon fill="midnightblue" stroke="midnightblue" points="236.84,-139.49 243.97,-131.65 233.51,-133.33 236.84,-139.49"/>
</g>
<!-- Node11 -->
<g id="node11" class="node">
<title>Node11</title>
<g id="a_node11"><a xlink:href="klib-macros_8h.html" target="_top" xlink:title=" ">
<polygon fill="none" stroke="black" points="298,-112.5 298,-131.5 372,-131.5 372,-112.5 298,-112.5"/>
<text text-anchor="middle" x="335" y="-119.5" font-family="Helvetica,sans-Serif" font-size="10.00">klib&#45;macros.h</text>
</a>
</g>
</g>
<!-- Node2&#45;&gt;Node11 -->
<g id="edge14" class="edge">
<title>Node2&#45;&gt;Node11</title>
<path fill="none" stroke="midnightblue" d="M187.73,-168.44C217.43,-159.28 264.72,-144.69 297.67,-134.52"/>
<polygon fill="midnightblue" stroke="midnightblue" points="298.88,-137.81 307.4,-131.52 296.81,-131.12 298.88,-137.81"/>
</g>
<!-- Node2&#45;&gt;Node12 -->
<g id="edge15" class="edge">
<title>Node2&#45;&gt;Node12</title>
<path fill="none" stroke="midnightblue" d="M138.61,-168.44C116.29,-159.52 81.1,-145.44 55.79,-135.32"/>
<polygon fill="midnightblue" stroke="midnightblue" points="56.88,-131.98 46.29,-131.52 54.28,-138.48 56.88,-131.98"/>
</g>
<!-- Node13 -->
<g id="node13" class="node">
<title>Node13</title>
<g id="a_node13"><a xlink:title=" ">
<polygon fill="none" stroke="#bfbfbf" points="136.5,-112.5 136.5,-131.5 183.5,-131.5 183.5,-112.5 136.5,-112.5"/>
<text text-anchor="middle" x="160" y="-119.5" font-family="Helvetica,sans-Serif" font-size="10.00">limits.h</text>
</a>
</g>
</g>
<!-- Node2&#45;&gt;Node13 -->
<g id="edge17" class="edge">
<title>Node2&#45;&gt;Node13</title>
<path fill="none" stroke="midnightblue" d="M160,-168.08C160,-161.01 160,-150.86 160,-141.99"/>
<polygon fill="midnightblue" stroke="midnightblue" points="163.5,-141.75 160,-131.75 156.5,-141.75 163.5,-141.75"/>
</g>
<!-- Node4 -->
<g id="node4" class="node">
<title>Node4</title>
<g id="a_node4"><a xlink:title=" ">
<polygon fill="none" stroke="#bfbfbf" points="100,-0.5 100,-19.5 148,-19.5 148,-0.5 100,-0.5"/>
<text text-anchor="middle" x="124" y="-7.5" font-family="Helvetica,sans-Serif" font-size="10.00">stdint.h</text>
</a>
</g>
</g>
<!-- Node3&#45;&gt;Node4 -->
<g id="edge3" class="edge">
<title>Node3&#45;&gt;Node4</title>
<path fill="none" stroke="midnightblue" d="M192.83,-56.32C180.15,-47.98 160.77,-35.21 145.79,-25.35"/>
<polygon fill="midnightblue" stroke="midnightblue" points="147.42,-22.23 137.14,-19.65 143.57,-28.08 147.42,-22.23"/>
</g>
<!-- Node5 -->
<g id="node5" class="node">
<title>Node5</title>
<g id="a_node5"><a xlink:title=" ">
<polygon fill="none" stroke="#bfbfbf" points="240.5,-0.5 240.5,-19.5 291.5,-19.5 291.5,-0.5 240.5,-0.5"/>
<text text-anchor="middle" x="266" y="-7.5" font-family="Helvetica,sans-Serif" font-size="10.00">stddef.h</text>
</a>
</g>
</g>
<!-- Node3&#45;&gt;Node5 -->
<g id="edge4" class="edge">
<title>Node3&#45;&gt;Node5</title>
<path fill="none" stroke="midnightblue" d="M215.64,-56.32C224.51,-48.34 237.87,-36.31 248.61,-26.65"/>
<polygon fill="midnightblue" stroke="midnightblue" points="251.09,-29.13 256.18,-19.83 246.41,-23.92 251.09,-29.13"/>
</g>
<!-- Node6 -->
<g id="node6" class="node">
<title>Node6</title>
<g id="a_node6"><a xlink:title=" ">
<polygon fill="none" stroke="#bfbfbf" points="166,-0.5 166,-19.5 222,-19.5 222,-0.5 166,-0.5"/>
<text text-anchor="middle" x="194" y="-7.5" font-family="Helvetica,sans-Serif" font-size="10.00">stdbool.h</text>
</a>
</g>
</g>
<!-- Node3&#45;&gt;Node6 -->
<g id="edge5" class="edge">
<title>Node3&#45;&gt;Node6</title>
<path fill="none" stroke="midnightblue" d="M204.02,-56.08C202.43,-48.93 200.14,-38.64 198.15,-29.69"/>
<polygon fill="midnightblue" stroke="midnightblue" points="201.53,-28.75 195.94,-19.75 194.7,-30.27 201.53,-28.75"/>
</g>
<!-- Node3&#45;&gt;Node7 -->
<g id="edge6" class="edge">
<title>Node3&#45;&gt;Node7</title>
<path fill="none" stroke="midnightblue" d="M225.22,-58.59C251.65,-49.78 299.69,-33.77 332.7,-22.77"/>
<polygon fill="midnightblue" stroke="midnightblue" points="334.03,-26.01 342.41,-19.53 331.82,-19.37 334.03,-26.01"/>
</g>
<!-- Node8&#45;&gt;Node3 -->
<g id="edge9" class="edge">
<title>Node8&#45;&gt;Node3</title>
<path fill="none" stroke="midnightblue" d="M110.91,-112.44C129.25,-103.68 158.01,-89.94 179.09,-79.86"/>
<polygon fill="midnightblue" stroke="midnightblue" points="180.67,-82.99 188.18,-75.52 177.65,-76.67 180.67,-82.99"/>
</g>
<!-- Node9&#45;&gt;Node3 -->
<g id="edge11" class="edge">
<title>Node9&#45;&gt;Node3</title>
<path fill="none" stroke="midnightblue" d="M251.08,-112.08C243.22,-104.22 231.57,-92.57 222.08,-83.08"/>
<polygon fill="midnightblue" stroke="midnightblue" points="224.3,-80.35 214.75,-75.75 219.35,-85.3 224.3,-80.35"/>
</g>
<!-- Node9&#45;&gt;Node5 -->
<g id="edge12" class="edge">
<title>Node9&#45;&gt;Node5</title>
<path fill="none" stroke="midnightblue" d="M260.47,-112.37C261.44,-94.62 263.67,-53.67 264.99,-29.6"/>
<polygon fill="midnightblue" stroke="midnightblue" points="268.48,-29.77 265.53,-19.59 261.49,-29.39 268.48,-29.77"/>
</g>
<!-- Node10 -->
<g id="node10" class="node">
<title>Node10</title>
<g id="a_node10"><a xlink:title=" ">
<polygon fill="none" stroke="#bfbfbf" points="288.5,-56.5 288.5,-75.5 339.5,-75.5 339.5,-56.5 288.5,-56.5"/>
<text text-anchor="middle" x="314" y="-63.5" font-family="Helvetica,sans-Serif" font-size="10.00">stdarg.h</text>
</a>
</g>
</g>
<!-- Node9&#45;&gt;Node10 -->
<g id="edge13" class="edge">
<title>Node9&#45;&gt;Node10</title>
<path fill="none" stroke="midnightblue" d="M268.92,-112.08C276.78,-104.22 288.43,-92.57 297.92,-83.08"/>
<polygon fill="midnightblue" stroke="midnightblue" points="300.65,-85.3 305.25,-75.75 295.7,-80.35 300.65,-85.3"/>
</g>
<!-- Node12&#45;&gt;Node3 -->
<g id="edge16" class="edge">
<title>Node12&#45;&gt;Node3</title>
<path fill="none" stroke="midnightblue" d="M50.17,-113.49C83.5,-103.55 142.14,-86.05 177.2,-75.59"/>
<polygon fill="midnightblue" stroke="midnightblue" points="178.27,-78.93 186.85,-72.71 176.27,-72.22 178.27,-78.93"/>
</g>
<!-- Node14&#45;&gt;Node2 -->
<g id="edge19" class="edge">
<title>Node14&#45;&gt;Node2</title>
<path fill="none" stroke="midnightblue" d="M101.25,-224.32C111.8,-216.18 127.8,-203.84 140.44,-194.09"/>
<polygon fill="midnightblue" stroke="midnightblue" points="142.77,-196.71 148.55,-187.83 138.49,-191.17 142.77,-196.71"/>
</g>
<!-- Node15 -->
<g id="node15" class="node">
<title>Node15</title>
<g id="a_node15"><a xlink:href="list_8h.html" target="_top" xlink:title="double circular linked list impl without concurrency">
<polygon fill="none" stroke="black" points="66.5,-168.5 66.5,-187.5 103.5,-187.5 103.5,-168.5 66.5,-168.5"/>
<text text-anchor="middle" x="85" y="-175.5" font-family="Helvetica,sans-Serif" font-size="10.00">list.h</text>
</a>
</g>
</g>
<!-- Node14&#45;&gt;Node15 -->
<g id="edge20" class="edge">
<title>Node14&#45;&gt;Node15</title>
<path fill="none" stroke="midnightblue" d="M89.17,-224.08C88.52,-217.01 87.58,-206.86 86.76,-197.99"/>
<polygon fill="midnightblue" stroke="midnightblue" points="90.22,-197.39 85.81,-187.75 83.25,-198.03 90.22,-197.39"/>
</g>
<!-- Node15&#45;&gt;Node12 -->
<g id="edge21" class="edge">
<title>Node15&#45;&gt;Node12</title>
<path fill="none" stroke="midnightblue" d="M75.36,-168.32C66.49,-160.34 53.13,-148.31 42.39,-138.65"/>
<polygon fill="midnightblue" stroke="midnightblue" points="44.59,-135.92 34.82,-131.83 39.91,-141.13 44.59,-135.92"/>
</g>
</g>
</svg>
