<?xml version="1.0" encoding="UTF-8" standalone="no"?>
<!DOCTYPE svg PUBLIC "-//W3C//DTD SVG 1.1//EN"
 "http://www.w3.org/Graphics/SVG/1.1/DTD/svg11.dtd">
<!-- Generated by graphviz version 3.0.0 (20220413.0106)
 -->
<!-- Title: pgalloc Pages: 1 -->
<svg width="690pt" height="180pt"
 viewBox="0.00 0.00 690.00 180.00" xmlns="http://www.w3.org/2000/svg" xmlns:xlink="http://www.w3.org/1999/xlink">
<g id="graph0" class="graph" transform="scale(1 1) rotate(0) translate(4 176)">
<title>pgalloc</title>
<!-- Node1 -->
<g id="node1" class="node">
<title>Node1</title>
<g id="a_node1"><a xlink:title=" ">
<polygon fill="#bfbfbf" stroke="black" points="0,-76.5 0,-95.5 47,-95.5 47,-76.5 0,-76.5"/>
<text text-anchor="middle" x="23.5" y="-83.5" font-family="Helvetica,sans-Serif" font-size="10.00">pgalloc</text>
</a>
</g>
</g>
<!-- Node2 -->
<g id="node2" class="node">
<title>Node2</title>
<g id="a_node2"><a xlink:href="pmm_8c.html#a350a830083f55f1886e000edec454a99" target="_top" xlink:title=" ">
<polygon fill="none" stroke="black" points="83,-76.5 83,-95.5 125,-95.5 125,-76.5 83,-76.5"/>
<text text-anchor="middle" x="104" y="-83.5" font-family="Helvetica,sans-Serif" font-size="10.00">kalloc</text>
</a>
</g>
</g>
<!-- Node1&#45;&gt;Node2 -->
<g id="edge1" class="edge">
<title>Node1&#45;&gt;Node2</title>
<path fill="none" stroke="midnightblue" d="M47.21,-86C55.1,-86 64.09,-86 72.51,-86"/>
<polygon fill="midnightblue" stroke="midnightblue" points="72.75,-89.5 82.75,-86 72.75,-82.5 72.75,-89.5"/>
</g>
<!-- Node3 -->
<g id="node3" class="node">
<title>Node3</title>
<g id="a_node3"><a xlink:href="buddy_8c.html#a7d6c4f020f51f2a621ca1ab5a4e6a5bb" target="_top" xlink:title="translate chunk address to virtual address">
<polygon fill="none" stroke="black" points="509,-152.5 509,-171.5 571,-171.5 571,-152.5 509,-152.5"/>
<text text-anchor="middle" x="540" y="-159.5" font-family="Helvetica,sans-Serif" font-size="10.00">chunk2virt</text>
</a>
</g>
</g>
<!-- Node2&#45;&gt;Node3 -->
<g id="edge2" class="edge">
<title>Node2&#45;&gt;Node3</title>
<path fill="none" stroke="midnightblue" d="M125,-93.57C135.59,-97.38 148.88,-101.84 161,-105 281.65,-136.42 428.78,-152.42 498.56,-158.71"/>
<polygon fill="midnightblue" stroke="midnightblue" points="498.41,-162.21 508.68,-159.61 499.02,-155.24 498.41,-162.21"/>
</g>
<!-- Node4 -->
<g id="node4" class="node">
<title>Node4</title>
<g id="a_node4"><a xlink:href="buddy_8c.html#a37436a565869aa245cb46355dab020e2" target="_top" xlink:title=" ">
<polygon fill="none" stroke="black" points="161,-76.5 161,-95.5 229,-95.5 229,-76.5 161,-76.5"/>
<text text-anchor="middle" x="195" y="-83.5" font-family="Helvetica,sans-Serif" font-size="10.00">chunk_alloc</text>
</a>
</g>
</g>
<!-- Node2&#45;&gt;Node4 -->
<g id="edge3" class="edge">
<title>Node2&#45;&gt;Node4</title>
<path fill="none" stroke="midnightblue" d="M125.2,-86C132.87,-86 141.94,-86 150.93,-86"/>
<polygon fill="midnightblue" stroke="midnightblue" points="150.97,-89.5 160.97,-86 150.97,-82.5 150.97,-89.5"/>
</g>
<!-- Node15 -->
<g id="node15" class="node">
<title>Node15</title>
<g id="a_node15"><a xlink:href="common_8h.html#afec4cf52a3e70c488446a06ea604f9df" target="_top" xlink:title=" ">
<polygon fill="none" stroke="black" points="166,-38.5 166,-57.5 224,-57.5 224,-38.5 166,-38.5"/>
<text text-anchor="middle" x="195" y="-45.5" font-family="Helvetica,sans-Serif" font-size="10.00">power2ify</text>
</a>
</g>
</g>
<!-- Node2&#45;&gt;Node15 -->
<g id="edge16" class="edge">
<title>Node2&#45;&gt;Node15</title>
<path fill="none" stroke="midnightblue" d="M125.2,-77.38C136.12,-72.71 149.87,-66.84 162.2,-61.58"/>
<polygon fill="midnightblue" stroke="midnightblue" points="163.88,-64.67 171.7,-57.52 161.13,-58.23 163.88,-64.67"/>
</g>
<!-- Node5 -->
<g id="node5" class="node">
<title>Node5</title>
<g id="a_node5"><a xlink:href="buddy_8c.html#aff6f2614df5664434766dd9c23971227" target="_top" xlink:title=" ">
<polygon fill="none" stroke="black" points="265,-76.5 265,-95.5 331,-95.5 331,-76.5 265,-76.5"/>
<text text-anchor="middle" x="298" y="-83.5" font-family="Helvetica,sans-Serif" font-size="10.00">chunk_split</text>
</a>
</g>
</g>
<!-- Node4&#45;&gt;Node5 -->
<g id="edge4" class="edge">
<title>Node4&#45;&gt;Node5</title>
<path fill="none" stroke="midnightblue" d="M229.07,-86C237.25,-86 246.13,-86 254.68,-86"/>
<polygon fill="midnightblue" stroke="midnightblue" points="254.89,-89.5 264.89,-86 254.89,-82.5 254.89,-89.5"/>
</g>
<!-- Node7 -->
<g id="node7" class="node">
<title>Node7</title>
<g id="a_node7"><a xlink:href="structfree__list.html#a338aea6183dad7ec975539e4e1def837" target="_top" xlink:title=" ">
<polygon fill="none" stroke="black" points="495,-0.5 495,-19.5 585,-19.5 585,-0.5 495,-0.5"/>
<text text-anchor="middle" x="540" y="-7.5" font-family="Helvetica,sans-Serif" font-size="10.00">free_list::free_list</text>
</a>
</g>
</g>
<!-- Node4&#45;&gt;Node7 -->
<g id="edge15" class="edge">
<title>Node4&#45;&gt;Node7</title>
<path fill="none" stroke="midnightblue" d="M219.35,-76.46C251.86,-63.57 312.9,-40.87 367,-29 405.83,-20.49 450.47,-15.7 484.54,-13.06"/>
<polygon fill="midnightblue" stroke="midnightblue" points="485.04,-16.53 494.75,-12.31 484.52,-9.55 485.04,-16.53"/>
</g>
<!-- Node6 -->
<g id="node6" class="node">
<title>Node6</title>
<g id="a_node6"><a xlink:href="buddy_8c.html#acd10ee3138eeeac7c91ef5928f2135ea" target="_top" xlink:title="make a chunk added to free list.">
<polygon fill="none" stroke="black" points="373,-38.5 373,-57.5 453,-57.5 453,-38.5 373,-38.5"/>
<text text-anchor="middle" x="413" y="-45.5" font-family="Helvetica,sans-Serif" font-size="10.00">chunk_append</text>
</a>
</g>
</g>
<!-- Node5&#45;&gt;Node6 -->
<g id="edge5" class="edge">
<title>Node5&#45;&gt;Node6</title>
<path fill="none" stroke="midnightblue" d="M327.51,-76.41C341.57,-71.69 358.71,-65.92 373.87,-60.82"/>
<polygon fill="midnightblue" stroke="midnightblue" points="375.13,-64.09 383.49,-57.59 372.9,-57.46 375.13,-64.09"/>
</g>
<!-- Node10 -->
<g id="node10" class="node">
<title>Node10</title>
<g id="a_node10"><a xlink:href="buddy_8c.html#a8a4afbc5643993142db5ad65b87b8c62" target="_top" xlink:title=" ">
<polygon fill="none" stroke="black" points="382.5,-76.5 382.5,-95.5 443.5,-95.5 443.5,-76.5 382.5,-76.5"/>
<text text-anchor="middle" x="413" y="-83.5" font-family="Helvetica,sans-Serif" font-size="10.00">chunk_del</text>
</a>
</g>
</g>
<!-- Node5&#45;&gt;Node10 -->
<g id="edge9" class="edge">
<title>Node5&#45;&gt;Node10</title>
<path fill="none" stroke="midnightblue" d="M331.08,-86C343.74,-86 358.44,-86 371.8,-86"/>
<polygon fill="midnightblue" stroke="midnightblue" points="372.17,-89.5 382.17,-86 372.17,-82.5 372.17,-89.5"/>
</g>
<!-- Node13 -->
<g id="node13" class="node">
<title>Node13</title>
<g id="a_node13"><a xlink:href="buddy_8c.html#a48594e69fff9b58d5f41dca7d576eb35" target="_top" xlink:title="Get the buddy chunk.">
<polygon fill="none" stroke="black" points="367,-114.5 367,-133.5 459,-133.5 459,-114.5 367,-114.5"/>
<text text-anchor="middle" x="413" y="-121.5" font-family="Helvetica,sans-Serif" font-size="10.00">get_buddy_chunk</text>
</a>
</g>
</g>
<!-- Node5&#45;&gt;Node13 -->
<g id="edge12" class="edge">
<title>Node5&#45;&gt;Node13</title>
<path fill="none" stroke="midnightblue" d="M327.51,-95.59C341.57,-100.31 358.71,-106.08 373.87,-111.18"/>
<polygon fill="midnightblue" stroke="midnightblue" points="372.9,-114.54 383.49,-114.41 375.13,-107.91 372.9,-114.54"/>
</g>
<!-- Node6&#45;&gt;Node7 -->
<g id="edge6" class="edge">
<title>Node6&#45;&gt;Node7</title>
<path fill="none" stroke="midnightblue" d="M445.54,-38.41C461.38,-33.6 480.77,-27.7 497.78,-22.53"/>
<polygon fill="midnightblue" stroke="midnightblue" points="498.92,-25.84 507.47,-19.59 496.88,-19.15 498.92,-25.84"/>
</g>
<!-- Node8 -->
<g id="node8" class="node">
<title>Node8</title>
<g id="a_node8"><a xlink:href="list_8h.html#a06a80666b3364324fc601ab7ae1ff20b" target="_top" xlink:title=" ">
<polygon fill="none" stroke="black" points="515,-38.5 515,-57.5 565,-57.5 565,-38.5 515,-38.5"/>
<text text-anchor="middle" x="540" y="-45.5" font-family="Helvetica,sans-Serif" font-size="10.00">list_add</text>
</a>
</g>
</g>
<!-- Node6&#45;&gt;Node8 -->
<g id="edge7" class="edge">
<title>Node6&#45;&gt;Node8</title>
<path fill="none" stroke="midnightblue" d="M453.21,-48C469.61,-48 488.52,-48 504.4,-48"/>
<polygon fill="midnightblue" stroke="midnightblue" points="504.84,-51.5 514.84,-48 504.84,-44.5 504.84,-51.5"/>
</g>
<!-- Node9 -->
<g id="node9" class="node">
<title>Node9</title>
<g id="a_node9"><a xlink:href="list_8h.html#a83ecb02c2209a8fd5f6470d45a07f875" target="_top" xlink:title=" ">
<polygon fill="none" stroke="black" points="621,-38.5 621,-57.5 682,-57.5 682,-38.5 621,-38.5"/>
<text text-anchor="middle" x="651.5" y="-45.5" font-family="Helvetica,sans-Serif" font-size="10.00">__list_add</text>
</a>
</g>
</g>
<!-- Node8&#45;&gt;Node9 -->
<g id="edge8" class="edge">
<title>Node8&#45;&gt;Node9</title>
<path fill="none" stroke="midnightblue" d="M565.03,-48C578.33,-48 595.2,-48 610.44,-48"/>
<polygon fill="midnightblue" stroke="midnightblue" points="610.66,-51.5 620.66,-48 610.66,-44.5 610.66,-51.5"/>
</g>
<!-- Node11 -->
<g id="node11" class="node">
<title>Node11</title>
<g id="a_node11"><a xlink:href="list_8h.html#ab1708206f0f7e0a56550b35372203ba5" target="_top" xlink:title=" ">
<polygon fill="none" stroke="black" points="516.5,-76.5 516.5,-95.5 563.5,-95.5 563.5,-76.5 516.5,-76.5"/>
<text text-anchor="middle" x="540" y="-83.5" font-family="Helvetica,sans-Serif" font-size="10.00">list_del</text>
</a>
</g>
</g>
<!-- Node10&#45;&gt;Node11 -->
<g id="edge10" class="edge">
<title>Node10&#45;&gt;Node11</title>
<path fill="none" stroke="midnightblue" d="M443.62,-86C462.39,-86 486.67,-86 506.04,-86"/>
<polygon fill="midnightblue" stroke="midnightblue" points="506.23,-89.5 516.23,-86 506.23,-82.5 506.23,-89.5"/>
</g>
<!-- Node12 -->
<g id="node12" class="node">
<title>Node12</title>
<g id="a_node12"><a xlink:href="list_8h.html#a24b474717d65a296695e8b79b4adefda" target="_top" xlink:title=" ">
<polygon fill="none" stroke="black" points="622.5,-76.5 622.5,-95.5 680.5,-95.5 680.5,-76.5 622.5,-76.5"/>
<text text-anchor="middle" x="651.5" y="-83.5" font-family="Helvetica,sans-Serif" font-size="10.00">__list_del</text>
</a>
</g>
</g>
<!-- Node11&#45;&gt;Node12 -->
<g id="edge11" class="edge">
<title>Node11&#45;&gt;Node12</title>
<path fill="none" stroke="midnightblue" d="M563.69,-86C577.67,-86 595.95,-86 612.13,-86"/>
<polygon fill="midnightblue" stroke="midnightblue" points="612.39,-89.5 622.39,-86 612.39,-82.5 612.39,-89.5"/>
</g>
<!-- Node13&#45;&gt;Node3 -->
<g id="edge13" class="edge">
<title>Node13&#45;&gt;Node3</title>
<path fill="none" stroke="midnightblue" d="M445.54,-133.59C461.75,-138.51 481.66,-144.57 498.94,-149.82"/>
<polygon fill="midnightblue" stroke="midnightblue" points="498.18,-153.25 508.76,-152.81 500.21,-146.55 498.18,-153.25"/>
</g>
<!-- Node14 -->
<g id="node14" class="node">
<title>Node14</title>
<g id="a_node14"><a xlink:href="buddy_8c.html#ad1eda4b9fbb516f58586845217f68723" target="_top" xlink:title="translate virtual address to chunk address">
<polygon fill="none" stroke="black" points="509,-114.5 509,-133.5 571,-133.5 571,-114.5 509,-114.5"/>
<text text-anchor="middle" x="540" y="-121.5" font-family="Helvetica,sans-Serif" font-size="10.00">virt2chunk</text>
</a>
</g>
</g>
<!-- Node13&#45;&gt;Node14 -->
<g id="edge14" class="edge">
<title>Node13&#45;&gt;Node14</title>
<path fill="none" stroke="midnightblue" d="M459.13,-124C472.02,-124 485.99,-124 498.58,-124"/>
<polygon fill="midnightblue" stroke="midnightblue" points="498.78,-127.5 508.78,-124 498.78,-120.5 498.78,-127.5"/>
</g>
</g>
</svg>
