<?xml version="1.0" encoding="UTF-8" standalone="no"?>
<!DOCTYPE svg PUBLIC "-//W3C//DTD SVG 1.1//EN"
 "http://www.w3.org/Graphics/SVG/1.1/DTD/svg11.dtd">
<!-- Generated by graphviz version 3.0.0 (20220413.0106)
 -->
<!-- Title: pmm_init Pages: 1 -->
<svg width="753pt" height="256pt"
 viewBox="0.00 0.00 753.00 256.00" xmlns="http://www.w3.org/2000/svg" xmlns:xlink="http://www.w3.org/1999/xlink">
<g id="graph0" class="graph" transform="scale(1 1) rotate(0) translate(4 252)">
<title>pmm_init</title>
<!-- Node1 -->
<g id="node1" class="node">
<title>Node1</title>
<g id="a_node1"><a xlink:title=" ">
<polygon fill="#bfbfbf" stroke="black" points="0,-57.5 0,-76.5 56,-76.5 56,-57.5 0,-57.5"/>
<text text-anchor="middle" x="28" y="-64.5" font-family="Helvetica,sans-Serif" font-size="10.00">pmm_init</text>
</a>
</g>
</g>
<!-- Node2 -->
<g id="node2" class="node">
<title>Node2</title>
<g id="a_node2"><a xlink:href="buddy_8c.html#a571ce3de5539a52d40d9d11033519237" target="_top" xlink:title="initialize the buddy system">
<polygon fill="none" stroke="black" points="92,-57.5 92,-76.5 152,-76.5 152,-57.5 92,-57.5"/>
<text text-anchor="middle" x="122" y="-64.5" font-family="Helvetica,sans-Serif" font-size="10.00">buddy_init</text>
</a>
</g>
</g>
<!-- Node1&#45;&gt;Node2 -->
<g id="edge1" class="edge">
<title>Node1&#45;&gt;Node2</title>
<path fill="none" stroke="midnightblue" d="M56.11,-67C64.09,-67 73,-67 81.6,-67"/>
<polygon fill="midnightblue" stroke="midnightblue" points="81.84,-70.5 91.84,-67 81.84,-63.5 81.84,-70.5"/>
</g>
<!-- Node3 -->
<g id="node3" class="node">
<title>Node3</title>
<g id="a_node3"><a xlink:href="buddy_8c.html#a77f7615f76209d4083ef2d0826d90a1e" target="_top" xlink:title="free a chunk and process in deep.">
<polygon fill="none" stroke="black" points="203,-114.5 203,-133.5 268,-133.5 268,-114.5 203,-114.5"/>
<text text-anchor="middle" x="235.5" y="-121.5" font-family="Helvetica,sans-Serif" font-size="10.00">chunk_free</text>
</a>
</g>
</g>
<!-- Node2&#45;&gt;Node3 -->
<g id="edge2" class="edge">
<title>Node2&#45;&gt;Node3</title>
<path fill="none" stroke="midnightblue" d="M141.66,-76.54C159.43,-85.62 186.4,-99.41 206.7,-109.79"/>
<polygon fill="midnightblue" stroke="midnightblue" points="205.28,-112.99 215.78,-114.43 208.47,-106.76 205.28,-112.99"/>
</g>
<!-- Node5 -->
<g id="node5" class="node">
<title>Node5</title>
<g id="a_node5"><a xlink:href="structfree__list.html#a338aea6183dad7ec975539e4e1def837" target="_top" xlink:title=" ">
<polygon fill="none" stroke="black" points="558,-76.5 558,-95.5 648,-95.5 648,-76.5 558,-76.5"/>
<text text-anchor="middle" x="603" y="-83.5" font-family="Helvetica,sans-Serif" font-size="10.00">free_list::free_list</text>
</a>
</g>
</g>
<!-- Node2&#45;&gt;Node5 -->
<g id="edge15" class="edge">
<title>Node2&#45;&gt;Node5</title>
<path fill="none" stroke="midnightblue" d="M152.24,-68.16C230.6,-71.27 446.19,-79.82 547.74,-83.85"/>
<polygon fill="midnightblue" stroke="midnightblue" points="547.66,-87.35 557.79,-84.25 547.94,-80.35 547.66,-87.35"/>
</g>
<!-- Node15 -->
<g id="node15" class="node">
<title>Node15</title>
<g id="a_node15"><a xlink:href="list_8h.html#aea85dd50b9129ddaa3e3c67ed55804e4" target="_top" xlink:title=" ">
<polygon fill="none" stroke="black" points="188,-38.5 188,-57.5 283,-57.5 283,-38.5 188,-38.5"/>
<text text-anchor="middle" x="235.5" y="-45.5" font-family="Helvetica,sans-Serif" font-size="10.00">INIT_LIST_HEAD</text>
</a>
</g>
</g>
<!-- Node2&#45;&gt;Node15 -->
<g id="edge16" class="edge">
<title>Node2&#45;&gt;Node15</title>
<path fill="none" stroke="midnightblue" d="M152,-62.06C159.97,-60.7 168.9,-59.18 177.86,-57.65"/>
<polygon fill="midnightblue" stroke="midnightblue" points="178.66,-61.07 187.93,-55.94 177.49,-54.17 178.66,-61.07"/>
</g>
<!-- Node16 -->
<g id="node16" class="node">
<title>Node16</title>
<g id="a_node16"><a xlink:href="string_8c.html#a7a8fd43b209c9ea19addab23a5f23995" target="_top" xlink:title=" ">
<polygon fill="none" stroke="black" points="209.5,-0.5 209.5,-19.5 261.5,-19.5 261.5,-0.5 209.5,-0.5"/>
<text text-anchor="middle" x="235.5" y="-7.5" font-family="Helvetica,sans-Serif" font-size="10.00">memset</text>
</a>
</g>
</g>
<!-- Node2&#45;&gt;Node16 -->
<g id="edge17" class="edge">
<title>Node2&#45;&gt;Node16</title>
<path fill="none" stroke="midnightblue" d="M137.9,-57.47C150.87,-49.39 170.3,-37.74 188,-29 191.78,-27.13 195.8,-25.29 199.82,-23.54"/>
<polygon fill="midnightblue" stroke="midnightblue" points="201.26,-26.73 209.11,-19.62 198.54,-20.28 201.26,-26.73"/>
</g>
<!-- Node4 -->
<g id="node4" class="node">
<title>Node4</title>
<g id="a_node4"><a xlink:href="buddy_8c.html#acd10ee3138eeeac7c91ef5928f2135ea" target="_top" xlink:title="make a chunk added to free list.">
<polygon fill="none" stroke="black" points="436,-114.5 436,-133.5 516,-133.5 516,-114.5 436,-114.5"/>
<text text-anchor="middle" x="476" y="-121.5" font-family="Helvetica,sans-Serif" font-size="10.00">chunk_append</text>
</a>
</g>
</g>
<!-- Node3&#45;&gt;Node4 -->
<g id="edge3" class="edge">
<title>Node3&#45;&gt;Node4</title>
<path fill="none" stroke="midnightblue" d="M268.17,-124C308.43,-124 378.36,-124 425.64,-124"/>
<polygon fill="midnightblue" stroke="midnightblue" points="425.66,-127.5 435.66,-124 425.66,-120.5 425.66,-127.5"/>
</g>
<!-- Node8 -->
<g id="node8" class="node">
<title>Node8</title>
<g id="a_node8"><a xlink:href="buddy_8c.html#a9ae41f7f508f07ceba45065973ce5507" target="_top" xlink:title=" ">
<polygon fill="none" stroke="black" points="319,-152.5 319,-171.5 394,-171.5 394,-152.5 319,-152.5"/>
<text text-anchor="middle" x="356.5" y="-159.5" font-family="Helvetica,sans-Serif" font-size="10.00">chunk_merge</text>
</a>
</g>
</g>
<!-- Node3&#45;&gt;Node8 -->
<g id="edge7" class="edge">
<title>Node3&#45;&gt;Node8</title>
<path fill="none" stroke="midnightblue" d="M266.53,-133.59C281.47,-138.36 299.72,-144.19 315.8,-149.32"/>
<polygon fill="midnightblue" stroke="midnightblue" points="314.89,-152.71 325.48,-152.41 317.02,-146.04 314.89,-152.71"/>
</g>
<!-- Node4&#45;&gt;Node5 -->
<g id="edge4" class="edge">
<title>Node4&#45;&gt;Node5</title>
<path fill="none" stroke="midnightblue" d="M508.54,-114.41C524.38,-109.6 543.77,-103.7 560.78,-98.53"/>
<polygon fill="midnightblue" stroke="midnightblue" points="561.92,-101.84 570.47,-95.59 559.88,-95.15 561.92,-101.84"/>
</g>
<!-- Node6 -->
<g id="node6" class="node">
<title>Node6</title>
<g id="a_node6"><a xlink:href="list_8h.html#a06a80666b3364324fc601ab7ae1ff20b" target="_top" xlink:title=" ">
<polygon fill="none" stroke="black" points="578,-114.5 578,-133.5 628,-133.5 628,-114.5 578,-114.5"/>
<text text-anchor="middle" x="603" y="-121.5" font-family="Helvetica,sans-Serif" font-size="10.00">list_add</text>
</a>
</g>
</g>
<!-- Node4&#45;&gt;Node6 -->
<g id="edge5" class="edge">
<title>Node4&#45;&gt;Node6</title>
<path fill="none" stroke="midnightblue" d="M516.21,-124C532.61,-124 551.52,-124 567.4,-124"/>
<polygon fill="midnightblue" stroke="midnightblue" points="567.84,-127.5 577.84,-124 567.84,-120.5 567.84,-127.5"/>
</g>
<!-- Node7 -->
<g id="node7" class="node">
<title>Node7</title>
<g id="a_node7"><a xlink:href="list_8h.html#a83ecb02c2209a8fd5f6470d45a07f875" target="_top" xlink:title=" ">
<polygon fill="none" stroke="black" points="684,-114.5 684,-133.5 745,-133.5 745,-114.5 684,-114.5"/>
<text text-anchor="middle" x="714.5" y="-121.5" font-family="Helvetica,sans-Serif" font-size="10.00">__list_add</text>
</a>
</g>
</g>
<!-- Node6&#45;&gt;Node7 -->
<g id="edge6" class="edge">
<title>Node6&#45;&gt;Node7</title>
<path fill="none" stroke="midnightblue" d="M628.03,-124C641.33,-124 658.2,-124 673.44,-124"/>
<polygon fill="midnightblue" stroke="midnightblue" points="673.66,-127.5 683.66,-124 673.66,-120.5 673.66,-127.5"/>
</g>
<!-- Node8&#45;&gt;Node4 -->
<g id="edge8" class="edge">
<title>Node8&#45;&gt;Node4</title>
<path fill="none" stroke="midnightblue" d="M387.15,-152.41C401.9,-147.64 419.93,-141.81 435.8,-136.68"/>
<polygon fill="midnightblue" stroke="midnightblue" points="436.92,-139.99 445.36,-133.59 434.77,-133.33 436.92,-139.99"/>
</g>
<!-- Node9 -->
<g id="node9" class="node">
<title>Node9</title>
<g id="a_node9"><a xlink:href="buddy_8c.html#a8a4afbc5643993142db5ad65b87b8c62" target="_top" xlink:title=" ">
<polygon fill="none" stroke="black" points="445.5,-209.5 445.5,-228.5 506.5,-228.5 506.5,-209.5 445.5,-209.5"/>
<text text-anchor="middle" x="476" y="-216.5" font-family="Helvetica,sans-Serif" font-size="10.00">chunk_del</text>
</a>
</g>
</g>
<!-- Node8&#45;&gt;Node9 -->
<g id="edge9" class="edge">
<title>Node8&#45;&gt;Node9</title>
<path fill="none" stroke="midnightblue" d="M377.17,-171.54C395.98,-180.66 424.57,-194.53 445.99,-204.93"/>
<polygon fill="midnightblue" stroke="midnightblue" points="444.74,-208.21 455.27,-209.43 447.8,-201.91 444.74,-208.21"/>
</g>
<!-- Node12 -->
<g id="node12" class="node">
<title>Node12</title>
<g id="a_node12"><a xlink:href="buddy_8c.html#a48594e69fff9b58d5f41dca7d576eb35" target="_top" xlink:title="Get the buddy chunk.">
<polygon fill="none" stroke="black" points="430,-152.5 430,-171.5 522,-171.5 522,-152.5 430,-152.5"/>
<text text-anchor="middle" x="476" y="-159.5" font-family="Helvetica,sans-Serif" font-size="10.00">get_buddy_chunk</text>
</a>
</g>
</g>
<!-- Node8&#45;&gt;Node12 -->
<g id="edge12" class="edge">
<title>Node8&#45;&gt;Node12</title>
<path fill="none" stroke="midnightblue" d="M394.03,-162C402.17,-162 410.97,-162 419.67,-162"/>
<polygon fill="midnightblue" stroke="midnightblue" points="419.79,-165.5 429.79,-162 419.79,-158.5 419.79,-165.5"/>
</g>
<!-- Node10 -->
<g id="node10" class="node">
<title>Node10</title>
<g id="a_node10"><a xlink:href="list_8h.html#ab1708206f0f7e0a56550b35372203ba5" target="_top" xlink:title=" ">
<polygon fill="none" stroke="black" points="579.5,-228.5 579.5,-247.5 626.5,-247.5 626.5,-228.5 579.5,-228.5"/>
<text text-anchor="middle" x="603" y="-235.5" font-family="Helvetica,sans-Serif" font-size="10.00">list_del</text>
</a>
</g>
</g>
<!-- Node9&#45;&gt;Node10 -->
<g id="edge10" class="edge">
<title>Node9&#45;&gt;Node10</title>
<path fill="none" stroke="midnightblue" d="M506.62,-223.5C525.47,-226.37 549.9,-230.08 569.31,-233.03"/>
<polygon fill="midnightblue" stroke="midnightblue" points="568.82,-236.5 579.23,-234.54 569.87,-229.58 568.82,-236.5"/>
</g>
<!-- Node11 -->
<g id="node11" class="node">
<title>Node11</title>
<g id="a_node11"><a xlink:href="list_8h.html#a24b474717d65a296695e8b79b4adefda" target="_top" xlink:title=" ">
<polygon fill="none" stroke="black" points="685.5,-228.5 685.5,-247.5 743.5,-247.5 743.5,-228.5 685.5,-228.5"/>
<text text-anchor="middle" x="714.5" y="-235.5" font-family="Helvetica,sans-Serif" font-size="10.00">__list_del</text>
</a>
</g>
</g>
<!-- Node10&#45;&gt;Node11 -->
<g id="edge11" class="edge">
<title>Node10&#45;&gt;Node11</title>
<path fill="none" stroke="midnightblue" d="M626.69,-238C640.67,-238 658.95,-238 675.13,-238"/>
<polygon fill="midnightblue" stroke="midnightblue" points="675.39,-241.5 685.39,-238 675.39,-234.5 675.39,-241.5"/>
</g>
<!-- Node13 -->
<g id="node13" class="node">
<title>Node13</title>
<g id="a_node13"><a xlink:href="buddy_8c.html#a7d6c4f020f51f2a621ca1ab5a4e6a5bb" target="_top" xlink:title="translate chunk address to virtual address">
<polygon fill="none" stroke="black" points="572,-152.5 572,-171.5 634,-171.5 634,-152.5 572,-152.5"/>
<text text-anchor="middle" x="603" y="-159.5" font-family="Helvetica,sans-Serif" font-size="10.00">chunk2virt</text>
</a>
</g>
</g>
<!-- Node12&#45;&gt;Node13 -->
<g id="edge13" class="edge">
<title>Node12&#45;&gt;Node13</title>
<path fill="none" stroke="midnightblue" d="M522.13,-162C535.02,-162 548.99,-162 561.58,-162"/>
<polygon fill="midnightblue" stroke="midnightblue" points="561.78,-165.5 571.78,-162 561.78,-158.5 561.78,-165.5"/>
</g>
<!-- Node14 -->
<g id="node14" class="node">
<title>Node14</title>
<g id="a_node14"><a xlink:href="buddy_8c.html#ad1eda4b9fbb516f58586845217f68723" target="_top" xlink:title="translate virtual address to chunk address">
<polygon fill="none" stroke="black" points="572,-190.5 572,-209.5 634,-209.5 634,-190.5 572,-190.5"/>
<text text-anchor="middle" x="603" y="-197.5" font-family="Helvetica,sans-Serif" font-size="10.00">virt2chunk</text>
</a>
</g>
</g>
<!-- Node12&#45;&gt;Node14 -->
<g id="edge14" class="edge">
<title>Node12&#45;&gt;Node14</title>
<path fill="none" stroke="midnightblue" d="M508.54,-171.59C524.75,-176.51 544.66,-182.57 561.94,-187.82"/>
<polygon fill="midnightblue" stroke="midnightblue" points="561.18,-191.25 571.76,-190.81 563.21,-184.55 561.18,-191.25"/>
</g>
</g>
</svg>
