<?xml version="1.0" encoding="UTF-8" standalone="no"?>
<!DOCTYPE svg PUBLIC "-//W3C//DTD SVG 1.1//EN"
 "http://www.w3.org/Graphics/SVG/1.1/DTD/svg11.dtd">
<!-- Generated by graphviz version 3.0.0 (20220413.0106)
 -->
<!-- Title: kalloc_safe Pages: 1 -->
<svg width="720pt" height="294pt"
 viewBox="0.00 0.00 720.00 294.00" xmlns="http://www.w3.org/2000/svg" xmlns:xlink="http://www.w3.org/1999/xlink">
<g id="graph0" class="graph" transform="scale(1 1) rotate(0) translate(4 290)">
<title>kalloc_safe</title>
<!-- Node1 -->
<g id="node1" class="node">
<title>Node1</title>
<g id="a_node1"><a xlink:title=" ">
<polygon fill="#bfbfbf" stroke="black" points="0,-199.5 0,-218.5 66,-218.5 66,-199.5 0,-199.5"/>
<text text-anchor="middle" x="33" y="-206.5" font-family="Helvetica,sans-Serif" font-size="10.00">kalloc_safe</text>
</a>
</g>
</g>
<!-- Node2 -->
<g id="node2" class="node">
<title>Node2</title>
<g id="a_node2"><a xlink:href="cte_8c.html#a79659a2b801c42951e38f3a8821acbae" target="_top" xlink:title=" ">
<polygon fill="none" stroke="black" points="102,-251.5 102,-270.5 155,-270.5 155,-251.5 102,-251.5"/>
<text text-anchor="middle" x="128.5" y="-258.5" font-family="Helvetica,sans-Serif" font-size="10.00">ienabled</text>
</a>
</g>
</g>
<!-- Node1&#45;&gt;Node2 -->
<g id="edge1" class="edge">
<title>Node1&#45;&gt;Node2</title>
<path fill="none" stroke="midnightblue" d="M51.15,-218.54C65.16,-226.33 85.21,-237.48 101.24,-246.4"/>
<polygon fill="midnightblue" stroke="midnightblue" points="99.7,-249.55 110.14,-251.35 103.1,-243.43 99.7,-249.55"/>
</g>
<!-- Node4 -->
<g id="node4" class="node">
<title>Node4</title>
<g id="a_node4"><a xlink:href="cte_8c.html#a4a139958742786c5085172be1f69bfd0" target="_top" xlink:title=" ">
<polygon fill="none" stroke="black" points="112.5,-199.5 112.5,-218.5 144.5,-218.5 144.5,-199.5 112.5,-199.5"/>
<text text-anchor="middle" x="128.5" y="-206.5" font-family="Helvetica,sans-Serif" font-size="10.00">iset</text>
</a>
</g>
</g>
<!-- Node1&#45;&gt;Node4 -->
<g id="edge3" class="edge">
<title>Node1&#45;&gt;Node4</title>
<path fill="none" stroke="midnightblue" d="M66.18,-209C77.9,-209 90.99,-209 102.05,-209"/>
<polygon fill="midnightblue" stroke="midnightblue" points="102.32,-212.5 112.32,-209 102.32,-205.5 102.32,-212.5"/>
</g>
<!-- Node7 -->
<g id="node7" class="node">
<title>Node7</title>
<g id="a_node7"><a xlink:href="pmm_8c.html#a350a830083f55f1886e000edec454a99" target="_top" xlink:title=" ">
<polygon fill="none" stroke="black" points="107.5,-142.5 107.5,-161.5 149.5,-161.5 149.5,-142.5 107.5,-142.5"/>
<text text-anchor="middle" x="128.5" y="-149.5" font-family="Helvetica,sans-Serif" font-size="10.00">kalloc</text>
</a>
</g>
</g>
<!-- Node1&#45;&gt;Node7 -->
<g id="edge6" class="edge">
<title>Node1&#45;&gt;Node7</title>
<path fill="none" stroke="midnightblue" d="M49.86,-199.33C64.46,-190.43 86.32,-177.1 103.13,-166.86"/>
<polygon fill="midnightblue" stroke="midnightblue" points="105.16,-169.72 111.87,-161.53 101.51,-163.74 105.16,-169.72"/>
</g>
<!-- Node3 -->
<g id="node3" class="node">
<title>Node3</title>
<g id="a_node3"><a xlink:href="x86_8h.html#a73d094f09c6a7dd3fc703aa8229933ee" target="_top" xlink:title=" ">
<polygon fill="none" stroke="black" points="202.5,-266.5 202.5,-285.5 247.5,-285.5 247.5,-266.5 202.5,-266.5"/>
<text text-anchor="middle" x="225" y="-273.5" font-family="Helvetica,sans-Serif" font-size="10.00">get_efl</text>
</a>
</g>
</g>
<!-- Node2&#45;&gt;Node3 -->
<g id="edge2" class="edge">
<title>Node2&#45;&gt;Node3</title>
<path fill="none" stroke="midnightblue" d="M155.32,-265.1C166.73,-266.91 180.26,-269.06 192.28,-270.97"/>
<polygon fill="midnightblue" stroke="midnightblue" points="191.94,-274.45 202.36,-272.57 193.04,-267.54 191.94,-274.45"/>
</g>
<!-- Node5 -->
<g id="node5" class="node">
<title>Node5</title>
<g id="a_node5"><a xlink:href="x86_8h.html#acc919e7809ef1db2b20aa3804f540b5c" target="_top" xlink:title=" ">
<polygon fill="none" stroke="black" points="210.5,-228.5 210.5,-247.5 239.5,-247.5 239.5,-228.5 210.5,-228.5"/>
<text text-anchor="middle" x="225" y="-235.5" font-family="Helvetica,sans-Serif" font-size="10.00">cli</text>
</a>
</g>
</g>
<!-- Node4&#45;&gt;Node5 -->
<g id="edge4" class="edge">
<title>Node4&#45;&gt;Node5</title>
<path fill="none" stroke="midnightblue" d="M144.68,-213.66C159.72,-218.27 182.96,-225.4 200.4,-230.76"/>
<polygon fill="midnightblue" stroke="midnightblue" points="199.8,-234.23 210.39,-233.82 201.86,-227.54 199.8,-234.23"/>
</g>
<!-- Node6 -->
<g id="node6" class="node">
<title>Node6</title>
<g id="a_node6"><a xlink:href="x86_8h.html#a4657e97b270d7af5a23da2c4d642ada2" target="_top" xlink:title=" ">
<polygon fill="none" stroke="black" points="210.5,-190.5 210.5,-209.5 239.5,-209.5 239.5,-190.5 210.5,-190.5"/>
<text text-anchor="middle" x="225" y="-197.5" font-family="Helvetica,sans-Serif" font-size="10.00">sti</text>
</a>
</g>
</g>
<!-- Node4&#45;&gt;Node6 -->
<g id="edge5" class="edge">
<title>Node4&#45;&gt;Node6</title>
<path fill="none" stroke="midnightblue" d="M144.68,-207.55C159.72,-206.12 182.96,-203.91 200.4,-202.25"/>
<polygon fill="midnightblue" stroke="midnightblue" points="200.77,-205.73 210.39,-201.3 200.1,-198.76 200.77,-205.73"/>
</g>
<!-- Node8 -->
<g id="node8" class="node">
<title>Node8</title>
<g id="a_node8"><a xlink:href="buddy_8c.html#a7d6c4f020f51f2a621ca1ab5a4e6a5bb" target="_top" xlink:title="translate chunk address to virtual address">
<polygon fill="none" stroke="black" points="539,-152.5 539,-171.5 601,-171.5 601,-152.5 539,-152.5"/>
<text text-anchor="middle" x="570" y="-159.5" font-family="Helvetica,sans-Serif" font-size="10.00">chunk2virt</text>
</a>
</g>
</g>
<!-- Node7&#45;&gt;Node8 -->
<g id="edge7" class="edge">
<title>Node7&#45;&gt;Node8</title>
<path fill="none" stroke="midnightblue" d="M149.53,-152.46C217.05,-153.99 437.21,-159 528.64,-161.08"/>
<polygon fill="midnightblue" stroke="midnightblue" points="528.8,-164.59 538.87,-161.31 528.95,-157.59 528.8,-164.59"/>
</g>
<!-- Node9 -->
<g id="node9" class="node">
<title>Node9</title>
<g id="a_node9"><a xlink:href="buddy_8c.html#a37436a565869aa245cb46355dab020e2" target="_top" xlink:title=" ">
<polygon fill="none" stroke="black" points="191,-105.5 191,-124.5 259,-124.5 259,-105.5 191,-105.5"/>
<text text-anchor="middle" x="225" y="-112.5" font-family="Helvetica,sans-Serif" font-size="10.00">chunk_alloc</text>
</a>
</g>
</g>
<!-- Node7&#45;&gt;Node9 -->
<g id="edge8" class="edge">
<title>Node7&#45;&gt;Node9</title>
<path fill="none" stroke="midnightblue" d="M149.54,-144.15C161.31,-139.54 176.5,-133.6 190.09,-128.28"/>
<polygon fill="midnightblue" stroke="midnightblue" points="191.59,-131.45 199.63,-124.54 189.04,-124.93 191.59,-131.45"/>
</g>
<!-- Node20 -->
<g id="node20" class="node">
<title>Node20</title>
<g id="a_node20"><a xlink:href="common_8h.html#afec4cf52a3e70c488446a06ea604f9df" target="_top" xlink:title=" ">
<polygon fill="none" stroke="black" points="196,-67.5 196,-86.5 254,-86.5 254,-67.5 196,-67.5"/>
<text text-anchor="middle" x="225" y="-74.5" font-family="Helvetica,sans-Serif" font-size="10.00">power2ify</text>
</a>
</g>
</g>
<!-- Node7&#45;&gt;Node20 -->
<g id="edge21" class="edge">
<title>Node7&#45;&gt;Node20</title>
<path fill="none" stroke="midnightblue" d="M138.95,-142.19C150.56,-130.42 171.17,-110.47 191,-96 192.87,-94.64 194.84,-93.29 196.85,-91.99"/>
<polygon fill="midnightblue" stroke="midnightblue" points="199.02,-94.76 205.75,-86.57 195.38,-88.78 199.02,-94.76"/>
</g>
<!-- Node10 -->
<g id="node10" class="node">
<title>Node10</title>
<g id="a_node10"><a xlink:href="buddy_8c.html#aff6f2614df5664434766dd9c23971227" target="_top" xlink:title=" ">
<polygon fill="none" stroke="black" points="295,-86.5 295,-105.5 361,-105.5 361,-86.5 295,-86.5"/>
<text text-anchor="middle" x="328" y="-93.5" font-family="Helvetica,sans-Serif" font-size="10.00">chunk_split</text>
</a>
</g>
</g>
<!-- Node9&#45;&gt;Node10 -->
<g id="edge9" class="edge">
<title>Node9&#45;&gt;Node10</title>
<path fill="none" stroke="midnightblue" d="M259.07,-108.78C267.34,-107.22 276.32,-105.53 284.96,-103.91"/>
<polygon fill="midnightblue" stroke="midnightblue" points="285.71,-107.33 294.89,-102.04 284.41,-100.45 285.71,-107.33"/>
</g>
<!-- Node12 -->
<g id="node12" class="node">
<title>Node12</title>
<g id="a_node12"><a xlink:href="structfree__list.html#a338aea6183dad7ec975539e4e1def837" target="_top" xlink:title=" ">
<polygon fill="none" stroke="black" points="525,-0.5 525,-19.5 615,-19.5 615,-0.5 525,-0.5"/>
<text text-anchor="middle" x="570" y="-7.5" font-family="Helvetica,sans-Serif" font-size="10.00">free_list::free_list</text>
</a>
</g>
</g>
<!-- Node9&#45;&gt;Node12 -->
<g id="edge20" class="edge">
<title>Node9&#45;&gt;Node12</title>
<path fill="none" stroke="midnightblue" d="M242.57,-105.49C256.45,-97.61 276.85,-86.26 295,-77 339.63,-54.24 348.78,-42.6 397,-29 435.39,-18.17 480.22,-13.46 514.49,-11.44"/>
<polygon fill="midnightblue" stroke="midnightblue" points="514.96,-14.92 524.76,-10.9 514.59,-7.93 514.96,-14.92"/>
</g>
<!-- Node11 -->
<g id="node11" class="node">
<title>Node11</title>
<g id="a_node11"><a xlink:href="buddy_8c.html#acd10ee3138eeeac7c91ef5928f2135ea" target="_top" xlink:title="make a chunk added to free list.">
<polygon fill="none" stroke="black" points="403,-38.5 403,-57.5 483,-57.5 483,-38.5 403,-38.5"/>
<text text-anchor="middle" x="443" y="-45.5" font-family="Helvetica,sans-Serif" font-size="10.00">chunk_append</text>
</a>
</g>
</g>
<!-- Node10&#45;&gt;Node11 -->
<g id="edge10" class="edge">
<title>Node10&#45;&gt;Node11</title>
<path fill="none" stroke="midnightblue" d="M351.35,-86.44C364.61,-80.78 381.76,-73.47 397,-67 401.15,-65.24 405.52,-63.39 409.84,-61.56"/>
<polygon fill="midnightblue" stroke="midnightblue" points="411.25,-64.77 419.1,-57.65 408.53,-58.32 411.25,-64.77"/>
</g>
<!-- Node15 -->
<g id="node15" class="node">
<title>Node15</title>
<g id="a_node15"><a xlink:href="buddy_8c.html#a8a4afbc5643993142db5ad65b87b8c62" target="_top" xlink:title=" ">
<polygon fill="none" stroke="black" points="412.5,-76.5 412.5,-95.5 473.5,-95.5 473.5,-76.5 412.5,-76.5"/>
<text text-anchor="middle" x="443" y="-83.5" font-family="Helvetica,sans-Serif" font-size="10.00">chunk_del</text>
</a>
</g>
</g>
<!-- Node10&#45;&gt;Node15 -->
<g id="edge14" class="edge">
<title>Node10&#45;&gt;Node15</title>
<path fill="none" stroke="midnightblue" d="M361.08,-93.16C373.87,-92.03 388.73,-90.71 402.2,-89.52"/>
<polygon fill="midnightblue" stroke="midnightblue" points="402.51,-93.01 412.17,-88.64 401.9,-86.04 402.51,-93.01"/>
</g>
<!-- Node18 -->
<g id="node18" class="node">
<title>Node18</title>
<g id="a_node18"><a xlink:href="buddy_8c.html#a48594e69fff9b58d5f41dca7d576eb35" target="_top" xlink:title="Get the buddy chunk.">
<polygon fill="none" stroke="black" points="397,-114.5 397,-133.5 489,-133.5 489,-114.5 397,-114.5"/>
<text text-anchor="middle" x="443" y="-121.5" font-family="Helvetica,sans-Serif" font-size="10.00">get_buddy_chunk</text>
</a>
</g>
</g>
<!-- Node10&#45;&gt;Node18 -->
<g id="edge17" class="edge">
<title>Node10&#45;&gt;Node18</title>
<path fill="none" stroke="midnightblue" d="M361.08,-103.95C371.17,-106.45 382.55,-109.27 393.52,-111.99"/>
<polygon fill="midnightblue" stroke="midnightblue" points="392.87,-115.43 403.42,-114.44 394.56,-108.64 392.87,-115.43"/>
</g>
<!-- Node11&#45;&gt;Node12 -->
<g id="edge11" class="edge">
<title>Node11&#45;&gt;Node12</title>
<path fill="none" stroke="midnightblue" d="M475.54,-38.41C491.38,-33.6 510.77,-27.7 527.78,-22.53"/>
<polygon fill="midnightblue" stroke="midnightblue" points="528.92,-25.84 537.47,-19.59 526.88,-19.15 528.92,-25.84"/>
</g>
<!-- Node13 -->
<g id="node13" class="node">
<title>Node13</title>
<g id="a_node13"><a xlink:href="list_8h.html#a06a80666b3364324fc601ab7ae1ff20b" target="_top" xlink:title=" ">
<polygon fill="none" stroke="black" points="545,-38.5 545,-57.5 595,-57.5 595,-38.5 545,-38.5"/>
<text text-anchor="middle" x="570" y="-45.5" font-family="Helvetica,sans-Serif" font-size="10.00">list_add</text>
</a>
</g>
</g>
<!-- Node11&#45;&gt;Node13 -->
<g id="edge12" class="edge">
<title>Node11&#45;&gt;Node13</title>
<path fill="none" stroke="midnightblue" d="M483.21,-48C499.61,-48 518.52,-48 534.4,-48"/>
<polygon fill="midnightblue" stroke="midnightblue" points="534.84,-51.5 544.84,-48 534.84,-44.5 534.84,-51.5"/>
</g>
<!-- Node14 -->
<g id="node14" class="node">
<title>Node14</title>
<g id="a_node14"><a xlink:href="list_8h.html#a83ecb02c2209a8fd5f6470d45a07f875" target="_top" xlink:title=" ">
<polygon fill="none" stroke="black" points="651,-38.5 651,-57.5 712,-57.5 712,-38.5 651,-38.5"/>
<text text-anchor="middle" x="681.5" y="-45.5" font-family="Helvetica,sans-Serif" font-size="10.00">__list_add</text>
</a>
</g>
</g>
<!-- Node13&#45;&gt;Node14 -->
<g id="edge13" class="edge">
<title>Node13&#45;&gt;Node14</title>
<path fill="none" stroke="midnightblue" d="M595.03,-48C608.33,-48 625.2,-48 640.44,-48"/>
<polygon fill="midnightblue" stroke="midnightblue" points="640.66,-51.5 650.66,-48 640.66,-44.5 640.66,-51.5"/>
</g>
<!-- Node16 -->
<g id="node16" class="node">
<title>Node16</title>
<g id="a_node16"><a xlink:href="list_8h.html#ab1708206f0f7e0a56550b35372203ba5" target="_top" xlink:title=" ">
<polygon fill="none" stroke="black" points="546.5,-76.5 546.5,-95.5 593.5,-95.5 593.5,-76.5 546.5,-76.5"/>
<text text-anchor="middle" x="570" y="-83.5" font-family="Helvetica,sans-Serif" font-size="10.00">list_del</text>
</a>
</g>
</g>
<!-- Node15&#45;&gt;Node16 -->
<g id="edge15" class="edge">
<title>Node15&#45;&gt;Node16</title>
<path fill="none" stroke="midnightblue" d="M473.62,-86C492.39,-86 516.67,-86 536.04,-86"/>
<polygon fill="midnightblue" stroke="midnightblue" points="536.23,-89.5 546.23,-86 536.23,-82.5 536.23,-89.5"/>
</g>
<!-- Node17 -->
<g id="node17" class="node">
<title>Node17</title>
<g id="a_node17"><a xlink:href="list_8h.html#a24b474717d65a296695e8b79b4adefda" target="_top" xlink:title=" ">
<polygon fill="none" stroke="black" points="652.5,-76.5 652.5,-95.5 710.5,-95.5 710.5,-76.5 652.5,-76.5"/>
<text text-anchor="middle" x="681.5" y="-83.5" font-family="Helvetica,sans-Serif" font-size="10.00">__list_del</text>
</a>
</g>
</g>
<!-- Node16&#45;&gt;Node17 -->
<g id="edge16" class="edge">
<title>Node16&#45;&gt;Node17</title>
<path fill="none" stroke="midnightblue" d="M593.69,-86C607.67,-86 625.95,-86 642.13,-86"/>
<polygon fill="midnightblue" stroke="midnightblue" points="642.39,-89.5 652.39,-86 642.39,-82.5 642.39,-89.5"/>
</g>
<!-- Node18&#45;&gt;Node8 -->
<g id="edge18" class="edge">
<title>Node18&#45;&gt;Node8</title>
<path fill="none" stroke="midnightblue" d="M475.54,-133.59C491.75,-138.51 511.66,-144.57 528.94,-149.82"/>
<polygon fill="midnightblue" stroke="midnightblue" points="528.18,-153.25 538.76,-152.81 530.21,-146.55 528.18,-153.25"/>
</g>
<!-- Node19 -->
<g id="node19" class="node">
<title>Node19</title>
<g id="a_node19"><a xlink:href="buddy_8c.html#ad1eda4b9fbb516f58586845217f68723" target="_top" xlink:title="translate virtual address to chunk address">
<polygon fill="none" stroke="black" points="539,-114.5 539,-133.5 601,-133.5 601,-114.5 539,-114.5"/>
<text text-anchor="middle" x="570" y="-121.5" font-family="Helvetica,sans-Serif" font-size="10.00">virt2chunk</text>
</a>
</g>
</g>
<!-- Node18&#45;&gt;Node19 -->
<g id="edge19" class="edge">
<title>Node18&#45;&gt;Node19</title>
<path fill="none" stroke="midnightblue" d="M489.13,-124C502.02,-124 515.99,-124 528.58,-124"/>
<polygon fill="midnightblue" stroke="midnightblue" points="528.78,-127.5 538.78,-124 528.78,-120.5 528.78,-127.5"/>
</g>
</g>
</svg>
