<?xml version="1.0" encoding="UTF-8" standalone="no"?>
<!DOCTYPE svg PUBLIC "-//W3C//DTD SVG 1.1//EN"
 "http://www.w3.org/Graphics/SVG/1.1/DTD/svg11.dtd">
<!-- Generated by graphviz version 2.50.0 (20220203.2022)
 -->
<!-- Title: MODULE_DEF Pages: 1 -->
<svg width="257pt" height="104pt"
 viewBox="0.00 0.00 257.00 104.00" xmlns="http://www.w3.org/2000/svg" xmlns:xlink="http://www.w3.org/1999/xlink">
<g id="graph0" class="graph" transform="scale(1 1) rotate(0) translate(4 100)">
<title>MODULE_DEF</title>
<!-- Node1 -->
<g id="node1" class="node">
<title>Node1</title>
<g id="a_node1"><a xlink:title=" ">
<polygon fill="#bfbfbf" stroke="black" points="0,-38.5 0,-57.5 83,-57.5 83,-38.5 0,-38.5"/>
<text text-anchor="middle" x="41.5" y="-45.5" font-family="Helvetica,sans-Serif" font-size="10.00">MODULE_DEF</text>
</a>
</g>
</g>
<!-- Node2 -->
<g id="node2" class="node">
<title>Node2</title>
<g id="a_node2"><a xlink:href="pmm_8c.html#a350a830083f55f1886e000edec454a99" target="_top" xlink:title=" ">
<polygon fill="none" stroke="black" points="126,-76.5 126,-95.5 168,-95.5 168,-76.5 126,-76.5"/>
<text text-anchor="middle" x="147" y="-83.5" font-family="Helvetica,sans-Serif" font-size="10.00">kalloc</text>
</a>
</g>
</g>
<!-- Node1&#45;&gt;Node2 -->
<g id="edge1" class="edge">
<title>Node1&#45;&gt;Node2</title>
<path fill="none" stroke="midnightblue" d="M68.62,-57.59C83.16,-62.93 101.31,-69.59 116.38,-75.12"/>
<polygon fill="midnightblue" stroke="midnightblue" points="115.17,-78.41 125.77,-78.57 117.59,-71.84 115.17,-78.41"/>
</g>
<!-- Node3 -->
<g id="node3" class="node">
<title>Node3</title>
<g id="a_node3"><a xlink:href="pmm_8c.html#a2cb876c0d76d35916d27ed1623195fbe" target="_top" xlink:title=" ">
<polygon fill="none" stroke="black" points="128,-38.5 128,-57.5 166,-57.5 166,-38.5 128,-38.5"/>
<text text-anchor="middle" x="147" y="-45.5" font-family="Helvetica,sans-Serif" font-size="10.00">kfree</text>
</a>
</g>
</g>
<!-- Node1&#45;&gt;Node3 -->
<g id="edge2" class="edge">
<title>Node1&#45;&gt;Node3</title>
<path fill="none" stroke="midnightblue" d="M83.11,-48C94.75,-48 107.17,-48 117.88,-48"/>
<polygon fill="midnightblue" stroke="midnightblue" points="117.92,-51.5 127.92,-48 117.92,-44.5 117.92,-51.5"/>
</g>
<!-- Node4 -->
<g id="node4" class="node">
<title>Node4</title>
<g id="a_node4"><a xlink:href="pmm_8c.html#a393796678826afd801058312f851ca43" target="_top" xlink:title=" ">
<polygon fill="none" stroke="black" points="119,-0.5 119,-19.5 175,-19.5 175,-0.5 119,-0.5"/>
<text text-anchor="middle" x="147" y="-7.5" font-family="Helvetica,sans-Serif" font-size="10.00">pmm_init</text>
</a>
</g>
</g>
<!-- Node1&#45;&gt;Node4 -->
<g id="edge3" class="edge">
<title>Node1&#45;&gt;Node4</title>
<path fill="none" stroke="midnightblue" d="M68.62,-38.41C81.24,-33.78 96.59,-28.14 110.28,-23.11"/>
<polygon fill="midnightblue" stroke="midnightblue" points="111.71,-26.32 119.89,-19.59 109.3,-19.75 111.71,-26.32"/>
</g>
<!-- Node5 -->
<g id="node5" class="node">
<title>Node5</title>
<g id="a_node5"><a xlink:href="stdio_8c.html#a55f3d956bb2ba20b5059e9e25484a47f" target="_top" xlink:title=" ">
<polygon fill="none" stroke="black" points="211,-0.5 211,-19.5 249,-19.5 249,-0.5 211,-0.5"/>
<text text-anchor="middle" x="230" y="-7.5" font-family="Helvetica,sans-Serif" font-size="10.00">printf</text>
</a>
</g>
</g>
<!-- Node4&#45;&gt;Node5 -->
<g id="edge4" class="edge">
<title>Node4&#45;&gt;Node5</title>
<path fill="none" stroke="midnightblue" d="M175.42,-10C183.46,-10 192.28,-10 200.39,-10"/>
<polygon fill="midnightblue" stroke="midnightblue" points="200.53,-13.5 210.53,-10 200.53,-6.5 200.53,-13.5"/>
</g>
</g>
</svg>
