<?xml version="1.0" encoding="UTF-8" standalone="no"?>
<!DOCTYPE svg PUBLIC "-//W3C//DTD SVG 1.1//EN"
 "http://www.w3.org/Graphics/SVG/1.1/DTD/svg11.dtd">
<!-- Generated by graphviz version 3.0.0 (20220413.0106)
 -->
<!-- Title: MODULE_DEF Pages: 1 -->
<svg width="882pt" height="387pt"
 viewBox="0.00 0.00 882.00 387.05" xmlns="http://www.w3.org/2000/svg" xmlns:xlink="http://www.w3.org/1999/xlink">
<g id="graph0" class="graph" transform="scale(1 1) rotate(0) translate(4 383.05)">
<title>MODULE_DEF</title>
<!-- Node1 -->
<g id="node1" class="node">
<title>Node1</title>
<g id="a_node1"><a xlink:title=" ">
<polygon fill="#bfbfbf" stroke="black" points="0,-209.5 0,-228.5 83,-228.5 83,-209.5 0,-209.5"/>
<text text-anchor="middle" x="41.5" y="-216.5" font-family="Helvetica,sans-Serif" font-size="10.00">MODULE_DEF</text>
</a>
</g>
</g>
<!-- Node2 -->
<g id="node2" class="node">
<title>Node2</title>
<g id="a_node2"><a xlink:href="pmm_8c.html#a20ccb461126d548299c6c21f157e6668" target="_top" xlink:title=" ">
<polygon fill="none" stroke="black" points="119,-228.5 119,-247.5 185,-247.5 185,-228.5 119,-228.5"/>
<text text-anchor="middle" x="152" y="-235.5" font-family="Helvetica,sans-Serif" font-size="10.00">kalloc_safe</text>
</a>
</g>
</g>
<!-- Node1&#45;&gt;Node2 -->
<g id="edge1" class="edge">
<title>Node1&#45;&gt;Node2</title>
<path fill="none" stroke="midnightblue" d="M83.21,-226.13C91.59,-227.6 100.43,-229.14 108.86,-230.62"/>
<polygon fill="midnightblue" stroke="midnightblue" points="108.42,-234.1 118.88,-232.37 109.63,-227.2 108.42,-234.1"/>
</g>
<!-- Node22 -->
<g id="node22" class="node">
<title>Node22</title>
<g id="a_node22"><a xlink:href="pmm_8c.html#af2f46f4bce6a599542ce4d462aec9e2f" target="_top" xlink:title=" ">
<polygon fill="none" stroke="black" points="121,-266.5 121,-285.5 183,-285.5 183,-266.5 121,-266.5"/>
<text text-anchor="middle" x="152" y="-273.5" font-family="Helvetica,sans-Serif" font-size="10.00">kfree_safe</text>
</a>
</g>
</g>
<!-- Node1&#45;&gt;Node22 -->
<g id="edge23" class="edge">
<title>Node1&#45;&gt;Node22</title>
<path fill="none" stroke="midnightblue" d="M60.91,-228.67C78.16,-237.73 104.16,-251.39 123.8,-261.71"/>
<polygon fill="midnightblue" stroke="midnightblue" points="122.39,-264.92 132.87,-266.47 125.64,-258.72 122.39,-264.92"/>
</g>
<!-- Node26 -->
<g id="node26" class="node">
<title>Node26</title>
<g id="a_node26"><a xlink:href="pmm_8c.html#aa3c60dcf10d21284e763d170dcbfb44f" target="_top" xlink:title=" ">
<polygon fill="none" stroke="black" points="128.5,-190.5 128.5,-209.5 175.5,-209.5 175.5,-190.5 128.5,-190.5"/>
<text text-anchor="middle" x="152" y="-197.5" font-family="Helvetica,sans-Serif" font-size="10.00">pgalloc</text>
</a>
</g>
</g>
<!-- Node1&#45;&gt;Node26 -->
<g id="edge34" class="edge">
<title>Node1&#45;&gt;Node26</title>
<path fill="none" stroke="midnightblue" d="M83.21,-211.87C94.78,-209.84 107.24,-207.66 118.27,-205.73"/>
<polygon fill="midnightblue" stroke="midnightblue" points="119.1,-209.14 128.34,-203.97 117.89,-202.25 119.1,-209.14"/>
</g>
<!-- Node27 -->
<g id="node27" class="node">
<title>Node27</title>
<g id="a_node27"><a xlink:href="pmm_8c.html#a393796678826afd801058312f851ca43" target="_top" xlink:title=" ">
<polygon fill="none" stroke="black" points="124,-114.5 124,-133.5 180,-133.5 180,-114.5 124,-114.5"/>
<text text-anchor="middle" x="152" y="-121.5" font-family="Helvetica,sans-Serif" font-size="10.00">pmm_init</text>
</a>
</g>
</g>
<!-- Node1&#45;&gt;Node27 -->
<g id="edge36" class="edge">
<title>Node1&#45;&gt;Node27</title>
<path fill="none" stroke="midnightblue" d="M53.7,-209.19C72.32,-192.89 109.8,-160.07 132.42,-140.27"/>
<polygon fill="midnightblue" stroke="midnightblue" points="134.8,-142.83 140.02,-133.61 130.19,-137.57 134.8,-142.83"/>
</g>
<!-- Node3 -->
<g id="node3" class="node">
<title>Node3</title>
<g id="a_node3"><a xlink:href="cte_8c.html#a79659a2b801c42951e38f3a8821acbae" target="_top" xlink:title=" ">
<polygon fill="none" stroke="black" points="224.5,-266.5 224.5,-285.5 277.5,-285.5 277.5,-266.5 224.5,-266.5"/>
<text text-anchor="middle" x="251" y="-273.5" font-family="Helvetica,sans-Serif" font-size="10.00">ienabled</text>
</a>
</g>
</g>
<!-- Node2&#45;&gt;Node3 -->
<g id="edge2" class="edge">
<title>Node2&#45;&gt;Node3</title>
<path fill="none" stroke="midnightblue" d="M177.48,-247.59C189.19,-252.18 203.42,-257.75 216.15,-262.74"/>
<polygon fill="midnightblue" stroke="midnightblue" points="214.94,-266.03 225.53,-266.41 217.5,-259.51 214.94,-266.03"/>
</g>
<!-- Node5 -->
<g id="node5" class="node">
<title>Node5</title>
<g id="a_node5"><a xlink:href="cte_8c.html#a4a139958742786c5085172be1f69bfd0" target="_top" xlink:title=" ">
<polygon fill="none" stroke="black" points="235,-228.5 235,-247.5 267,-247.5 267,-228.5 235,-228.5"/>
<text text-anchor="middle" x="251" y="-235.5" font-family="Helvetica,sans-Serif" font-size="10.00">iset</text>
</a>
</g>
</g>
<!-- Node2&#45;&gt;Node5 -->
<g id="edge4" class="edge">
<title>Node2&#45;&gt;Node5</title>
<path fill="none" stroke="midnightblue" d="M185.03,-238C197.87,-238 212.47,-238 224.56,-238"/>
<polygon fill="midnightblue" stroke="midnightblue" points="224.85,-241.5 234.85,-238 224.85,-234.5 224.85,-241.5"/>
</g>
<!-- Node8 -->
<g id="node8" class="node">
<title>Node8</title>
<g id="a_node8"><a xlink:href="pmm_8c.html#a350a830083f55f1886e000edec454a99" target="_top" xlink:title=" ">
<polygon fill="none" stroke="black" points="230,-190.5 230,-209.5 272,-209.5 272,-190.5 230,-190.5"/>
<text text-anchor="middle" x="251" y="-197.5" font-family="Helvetica,sans-Serif" font-size="10.00">kalloc</text>
</a>
</g>
</g>
<!-- Node2&#45;&gt;Node8 -->
<g id="edge7" class="edge">
<title>Node2&#45;&gt;Node8</title>
<path fill="none" stroke="midnightblue" d="M177.48,-228.41C190.48,-223.32 206.57,-217.01 220.29,-211.64"/>
<polygon fill="midnightblue" stroke="midnightblue" points="221.75,-214.83 229.78,-207.92 219.2,-208.31 221.75,-214.83"/>
</g>
<!-- Node4 -->
<g id="node4" class="node">
<title>Node4</title>
<g id="a_node4"><a xlink:href="x86_8h.html#a73d094f09c6a7dd3fc703aa8229933ee" target="_top" xlink:title=" ">
<polygon fill="none" stroke="black" points="342,-342.5 342,-361.5 387,-361.5 387,-342.5 342,-342.5"/>
<text text-anchor="middle" x="364.5" y="-349.5" font-family="Helvetica,sans-Serif" font-size="10.00">get_efl</text>
</a>
</g>
</g>
<!-- Node3&#45;&gt;Node4 -->
<g id="edge3" class="edge">
<title>Node3&#45;&gt;Node4</title>
<path fill="none" stroke="midnightblue" d="M268.13,-285.62C272.45,-288.45 277.03,-291.68 281,-295 298.85,-309.92 297.8,-319.86 317,-333 321.68,-336.2 326.98,-339 332.28,-341.4"/>
<polygon fill="midnightblue" stroke="midnightblue" points="331.12,-344.71 341.7,-345.28 333.79,-338.23 331.12,-344.71"/>
</g>
<!-- Node6 -->
<g id="node6" class="node">
<title>Node6</title>
<g id="a_node6"><a xlink:href="x86_8h.html#acc919e7809ef1db2b20aa3804f540b5c" target="_top" xlink:title=" ">
<polygon fill="none" stroke="black" points="350,-228.5 350,-247.5 379,-247.5 379,-228.5 350,-228.5"/>
<text text-anchor="middle" x="364.5" y="-235.5" font-family="Helvetica,sans-Serif" font-size="10.00">cli</text>
</a>
</g>
</g>
<!-- Node5&#45;&gt;Node6 -->
<g id="edge5" class="edge">
<title>Node5&#45;&gt;Node6</title>
<path fill="none" stroke="midnightblue" d="M267.04,-238C285.65,-238 317.57,-238 339.56,-238"/>
<polygon fill="midnightblue" stroke="midnightblue" points="339.75,-241.5 349.75,-238 339.75,-234.5 339.75,-241.5"/>
</g>
<!-- Node7 -->
<g id="node7" class="node">
<title>Node7</title>
<g id="a_node7"><a xlink:href="x86_8h.html#a4657e97b270d7af5a23da2c4d642ada2" target="_top" xlink:title=" ">
<polygon fill="none" stroke="black" points="350,-266.5 350,-285.5 379,-285.5 379,-266.5 350,-266.5"/>
<text text-anchor="middle" x="364.5" y="-273.5" font-family="Helvetica,sans-Serif" font-size="10.00">sti</text>
</a>
</g>
</g>
<!-- Node5&#45;&gt;Node7 -->
<g id="edge6" class="edge">
<title>Node5&#45;&gt;Node7</title>
<path fill="none" stroke="midnightblue" d="M267.04,-243.12C285.82,-249.53 318.16,-260.55 340.16,-268.05"/>
<polygon fill="midnightblue" stroke="midnightblue" points="339.15,-271.4 349.75,-271.31 341.41,-264.77 339.15,-271.4"/>
</g>
<!-- Node9 -->
<g id="node9" class="node">
<title>Node9</title>
<g id="a_node9"><a xlink:href="buddy_8c.html#a7d6c4f020f51f2a621ca1ab5a4e6a5bb" target="_top" xlink:title="translate chunk address to virtual address">
<polygon fill="none" stroke="black" points="701,-162.5 701,-181.5 763,-181.5 763,-162.5 701,-162.5"/>
<text text-anchor="middle" x="732" y="-169.5" font-family="Helvetica,sans-Serif" font-size="10.00">chunk2virt</text>
</a>
</g>
</g>
<!-- Node8&#45;&gt;Node9 -->
<g id="edge8" class="edge">
<title>Node8&#45;&gt;Node9</title>
<path fill="none" stroke="midnightblue" d="M259.1,-190.43C269.85,-176.83 291.72,-152.52 317,-143 448.38,-93.55 619.59,-136.17 693.89,-159.36"/>
<polygon fill="midnightblue" stroke="midnightblue" points="693.13,-162.79 703.72,-162.49 695.26,-156.12 693.13,-162.79"/>
</g>
<!-- Node10 -->
<g id="node10" class="node">
<title>Node10</title>
<g id="a_node10"><a xlink:href="buddy_8c.html#a37436a565869aa245cb46355dab020e2" target="_top" xlink:title=" ">
<polygon fill="none" stroke="black" points="330.5,-152.5 330.5,-171.5 398.5,-171.5 398.5,-152.5 330.5,-152.5"/>
<text text-anchor="middle" x="364.5" y="-159.5" font-family="Helvetica,sans-Serif" font-size="10.00">chunk_alloc</text>
</a>
</g>
</g>
<!-- Node8&#45;&gt;Node10 -->
<g id="edge9" class="edge">
<title>Node8&#45;&gt;Node10</title>
<path fill="none" stroke="midnightblue" d="M272.19,-193.12C287.12,-188.03 307.9,-180.95 325.86,-174.83"/>
<polygon fill="midnightblue" stroke="midnightblue" points="327.15,-178.08 335.49,-171.55 324.9,-171.46 327.15,-178.08"/>
</g>
<!-- Node21 -->
<g id="node21" class="node">
<title>Node21</title>
<g id="a_node21"><a xlink:href="common_8h.html#afec4cf52a3e70c488446a06ea604f9df" target="_top" xlink:title=" ">
<polygon fill="none" stroke="black" points="335.5,-190.5 335.5,-209.5 393.5,-209.5 393.5,-190.5 335.5,-190.5"/>
<text text-anchor="middle" x="364.5" y="-197.5" font-family="Helvetica,sans-Serif" font-size="10.00">power2ify</text>
</a>
</g>
</g>
<!-- Node8&#45;&gt;Node21 -->
<g id="edge22" class="edge">
<title>Node8&#45;&gt;Node21</title>
<path fill="none" stroke="midnightblue" d="M272.19,-200C286.99,-200 307.51,-200 325.36,-200"/>
<polygon fill="midnightblue" stroke="midnightblue" points="325.49,-203.5 335.49,-200 325.49,-196.5 325.49,-203.5"/>
</g>
<!-- Node11 -->
<g id="node11" class="node">
<title>Node11</title>
<g id="a_node11"><a xlink:href="buddy_8c.html#aff6f2614df5664434766dd9c23971227" target="_top" xlink:title=" ">
<polygon fill="none" stroke="black" points="452.5,-247.5 452.5,-266.5 518.5,-266.5 518.5,-247.5 452.5,-247.5"/>
<text text-anchor="middle" x="485.5" y="-254.5" font-family="Helvetica,sans-Serif" font-size="10.00">chunk_split</text>
</a>
</g>
</g>
<!-- Node10&#45;&gt;Node11 -->
<g id="edge10" class="edge">
<title>Node10&#45;&gt;Node11</title>
<path fill="none" stroke="midnightblue" d="M394.51,-171.64C400.53,-174.24 406.67,-177.36 412,-181 435.86,-197.27 457.95,-222.5 471.33,-239.38"/>
<polygon fill="midnightblue" stroke="midnightblue" points="468.6,-241.58 477.49,-247.35 474.14,-237.29 468.6,-241.58"/>
</g>
<!-- Node13 -->
<g id="node13" class="node">
<title>Node13</title>
<g id="a_node13"><a xlink:href="structfree__list.html#a338aea6183dad7ec975539e4e1def837" target="_top" xlink:title=" ">
<polygon fill="none" stroke="black" points="687,-114.5 687,-133.5 777,-133.5 777,-114.5 687,-114.5"/>
<text text-anchor="middle" x="732" y="-121.5" font-family="Helvetica,sans-Serif" font-size="10.00">free_list::free_list</text>
</a>
</g>
</g>
<!-- Node10&#45;&gt;Node13 -->
<g id="edge21" class="edge">
<title>Node10&#45;&gt;Node13</title>
<path fill="none" stroke="midnightblue" d="M398.58,-158.56C461.73,-152 600,-137.62 676.82,-129.63"/>
<polygon fill="midnightblue" stroke="midnightblue" points="677.2,-133.11 686.79,-128.6 676.48,-126.15 677.2,-133.11"/>
</g>
<!-- Node12 -->
<g id="node12" class="node">
<title>Node12</title>
<g id="a_node12"><a xlink:href="buddy_8c.html#acd10ee3138eeeac7c91ef5928f2135ea" target="_top" xlink:title="make a chunk added to free list.">
<polygon fill="none" stroke="black" points="565,-209.5 565,-228.5 645,-228.5 645,-209.5 565,-209.5"/>
<text text-anchor="middle" x="605" y="-216.5" font-family="Helvetica,sans-Serif" font-size="10.00">chunk_append</text>
</a>
</g>
</g>
<!-- Node11&#45;&gt;Node12 -->
<g id="edge11" class="edge">
<title>Node11&#45;&gt;Node12</title>
<path fill="none" stroke="midnightblue" d="M516.15,-247.41C530.9,-242.64 548.93,-236.81 564.8,-231.68"/>
<polygon fill="midnightblue" stroke="midnightblue" points="565.92,-234.99 574.36,-228.59 563.77,-228.33 565.92,-234.99"/>
</g>
<!-- Node16 -->
<g id="node16" class="node">
<title>Node16</title>
<g id="a_node16"><a xlink:href="buddy_8c.html#a8a4afbc5643993142db5ad65b87b8c62" target="_top" xlink:title=" ">
<polygon fill="none" stroke="black" points="574.5,-285.5 574.5,-304.5 635.5,-304.5 635.5,-285.5 574.5,-285.5"/>
<text text-anchor="middle" x="605" y="-292.5" font-family="Helvetica,sans-Serif" font-size="10.00">chunk_del</text>
</a>
</g>
</g>
<!-- Node11&#45;&gt;Node16 -->
<g id="edge15" class="edge">
<title>Node11&#45;&gt;Node16</title>
<path fill="none" stroke="midnightblue" d="M516.15,-266.59C530.9,-271.36 548.93,-277.19 564.8,-282.32"/>
<polygon fill="midnightblue" stroke="midnightblue" points="563.77,-285.67 574.36,-285.41 565.92,-279.01 563.77,-285.67"/>
</g>
<!-- Node19 -->
<g id="node19" class="node">
<title>Node19</title>
<g id="a_node19"><a xlink:href="buddy_8c.html#a48594e69fff9b58d5f41dca7d576eb35" target="_top" xlink:title="Get the buddy chunk.">
<polygon fill="none" stroke="black" points="559,-247.5 559,-266.5 651,-266.5 651,-247.5 559,-247.5"/>
<text text-anchor="middle" x="605" y="-254.5" font-family="Helvetica,sans-Serif" font-size="10.00">get_buddy_chunk</text>
</a>
</g>
</g>
<!-- Node11&#45;&gt;Node19 -->
<g id="edge18" class="edge">
<title>Node11&#45;&gt;Node19</title>
<path fill="none" stroke="midnightblue" d="M518.61,-257C527.88,-257 538.28,-257 548.55,-257"/>
<polygon fill="midnightblue" stroke="midnightblue" points="548.72,-260.5 558.72,-257 548.72,-253.5 548.72,-260.5"/>
</g>
<!-- Node12&#45;&gt;Node13 -->
<g id="edge12" class="edge">
<title>Node12&#45;&gt;Node13</title>
<path fill="none" stroke="midnightblue" d="M616.99,-209.45C632.3,-196.28 661.12,-172 687,-153 693.39,-148.31 700.49,-143.47 707.09,-139.13"/>
<polygon fill="midnightblue" stroke="midnightblue" points="709.19,-141.94 715.67,-133.56 705.38,-136.07 709.19,-141.94"/>
</g>
<!-- Node14 -->
<g id="node14" class="node">
<title>Node14</title>
<g id="a_node14"><a xlink:href="list_8h.html#a06a80666b3364324fc601ab7ae1ff20b" target="_top" xlink:title=" ">
<polygon fill="none" stroke="black" points="707,-209.5 707,-228.5 757,-228.5 757,-209.5 707,-209.5"/>
<text text-anchor="middle" x="732" y="-216.5" font-family="Helvetica,sans-Serif" font-size="10.00">list_add</text>
</a>
</g>
</g>
<!-- Node12&#45;&gt;Node14 -->
<g id="edge13" class="edge">
<title>Node12&#45;&gt;Node14</title>
<path fill="none" stroke="midnightblue" d="M645.21,-219C661.61,-219 680.52,-219 696.4,-219"/>
<polygon fill="midnightblue" stroke="midnightblue" points="696.84,-222.5 706.84,-219 696.84,-215.5 696.84,-222.5"/>
</g>
<!-- Node15 -->
<g id="node15" class="node">
<title>Node15</title>
<g id="a_node15"><a xlink:href="list_8h.html#a83ecb02c2209a8fd5f6470d45a07f875" target="_top" xlink:title=" ">
<polygon fill="none" stroke="black" points="813,-209.5 813,-228.5 874,-228.5 874,-209.5 813,-209.5"/>
<text text-anchor="middle" x="843.5" y="-216.5" font-family="Helvetica,sans-Serif" font-size="10.00">__list_add</text>
</a>
</g>
</g>
<!-- Node14&#45;&gt;Node15 -->
<g id="edge14" class="edge">
<title>Node14&#45;&gt;Node15</title>
<path fill="none" stroke="midnightblue" d="M757.03,-219C770.33,-219 787.2,-219 802.44,-219"/>
<polygon fill="midnightblue" stroke="midnightblue" points="802.66,-222.5 812.66,-219 802.66,-215.5 802.66,-222.5"/>
</g>
<!-- Node17 -->
<g id="node17" class="node">
<title>Node17</title>
<g id="a_node17"><a xlink:href="list_8h.html#ab1708206f0f7e0a56550b35372203ba5" target="_top" xlink:title=" ">
<polygon fill="none" stroke="black" points="708.5,-285.5 708.5,-304.5 755.5,-304.5 755.5,-285.5 708.5,-285.5"/>
<text text-anchor="middle" x="732" y="-292.5" font-family="Helvetica,sans-Serif" font-size="10.00">list_del</text>
</a>
</g>
</g>
<!-- Node16&#45;&gt;Node17 -->
<g id="edge16" class="edge">
<title>Node16&#45;&gt;Node17</title>
<path fill="none" stroke="midnightblue" d="M635.62,-295C654.39,-295 678.67,-295 698.04,-295"/>
<polygon fill="midnightblue" stroke="midnightblue" points="698.23,-298.5 708.23,-295 698.23,-291.5 698.23,-298.5"/>
</g>
<!-- Node18 -->
<g id="node18" class="node">
<title>Node18</title>
<g id="a_node18"><a xlink:href="list_8h.html#a24b474717d65a296695e8b79b4adefda" target="_top" xlink:title=" ">
<polygon fill="none" stroke="black" points="814.5,-285.5 814.5,-304.5 872.5,-304.5 872.5,-285.5 814.5,-285.5"/>
<text text-anchor="middle" x="843.5" y="-292.5" font-family="Helvetica,sans-Serif" font-size="10.00">__list_del</text>
</a>
</g>
</g>
<!-- Node17&#45;&gt;Node18 -->
<g id="edge17" class="edge">
<title>Node17&#45;&gt;Node18</title>
<path fill="none" stroke="midnightblue" d="M755.69,-295C769.67,-295 787.95,-295 804.13,-295"/>
<polygon fill="midnightblue" stroke="midnightblue" points="804.39,-298.5 814.39,-295 804.39,-291.5 804.39,-298.5"/>
</g>
<!-- Node19&#45;&gt;Node9 -->
<g id="edge19" class="edge">
<title>Node19&#45;&gt;Node9</title>
<path fill="none" stroke="midnightblue" d="M633.6,-247.47C639.58,-244.84 645.7,-241.67 651,-238 670.12,-224.75 669.05,-214.8 687,-200 692.54,-195.43 698.87,-191.01 704.96,-187.08"/>
<polygon fill="midnightblue" stroke="midnightblue" points="706.96,-189.96 713.61,-181.71 703.27,-184.01 706.96,-189.96"/>
</g>
<!-- Node20 -->
<g id="node20" class="node">
<title>Node20</title>
<g id="a_node20"><a xlink:href="buddy_8c.html#ad1eda4b9fbb516f58586845217f68723" target="_top" xlink:title="translate virtual address to chunk address">
<polygon fill="none" stroke="black" points="701,-247.5 701,-266.5 763,-266.5 763,-247.5 701,-247.5"/>
<text text-anchor="middle" x="732" y="-254.5" font-family="Helvetica,sans-Serif" font-size="10.00">virt2chunk</text>
</a>
</g>
</g>
<!-- Node19&#45;&gt;Node20 -->
<g id="edge20" class="edge">
<title>Node19&#45;&gt;Node20</title>
<path fill="none" stroke="midnightblue" d="M651.13,-257C664.02,-257 677.99,-257 690.58,-257"/>
<polygon fill="midnightblue" stroke="midnightblue" points="690.78,-260.5 700.78,-257 690.78,-253.5 690.78,-260.5"/>
</g>
<!-- Node22&#45;&gt;Node3 -->
<g id="edge24" class="edge">
<title>Node22&#45;&gt;Node3</title>
<path fill="none" stroke="midnightblue" d="M183.16,-276C192.98,-276 203.98,-276 214.18,-276"/>
<polygon fill="midnightblue" stroke="midnightblue" points="214.43,-279.5 224.43,-276 214.43,-272.5 214.43,-279.5"/>
</g>
<!-- Node22&#45;&gt;Node5 -->
<g id="edge25" class="edge">
<title>Node22&#45;&gt;Node5</title>
<path fill="none" stroke="midnightblue" d="M177.48,-266.41C192.16,-260.66 210.77,-253.37 225.47,-247.61"/>
<polygon fill="midnightblue" stroke="midnightblue" points="226.88,-250.82 234.92,-243.91 224.33,-244.3 226.88,-250.82"/>
</g>
<!-- Node23 -->
<g id="node23" class="node">
<title>Node23</title>
<g id="a_node23"><a xlink:href="pmm_8c.html#a2cb876c0d76d35916d27ed1623195fbe" target="_top" xlink:title=" ">
<polygon fill="none" stroke="black" points="232,-304.5 232,-323.5 270,-323.5 270,-304.5 232,-304.5"/>
<text text-anchor="middle" x="251" y="-311.5" font-family="Helvetica,sans-Serif" font-size="10.00">kfree</text>
</a>
</g>
</g>
<!-- Node22&#45;&gt;Node23 -->
<g id="edge26" class="edge">
<title>Node22&#45;&gt;Node23</title>
<path fill="none" stroke="midnightblue" d="M177.48,-285.59C191.12,-290.93 208.15,-297.6 222.28,-303.14"/>
<polygon fill="midnightblue" stroke="midnightblue" points="221.37,-306.54 231.96,-306.93 223.93,-300.03 221.37,-306.54"/>
</g>
<!-- Node23&#45;&gt;Node20 -->
<g id="edge33" class="edge">
<title>Node23&#45;&gt;Node20</title>
<path fill="none" stroke="midnightblue" d="M259.1,-323.57C269.85,-337.17 291.72,-361.48 317,-371 356.52,-385.87 370.07,-375.93 412,-371 520.45,-358.25 556.41,-368.57 651,-314 671.15,-302.37 667.93,-289.33 687,-276 689.51,-274.25 692.21,-272.6 694.99,-271.08"/>
<polygon fill="midnightblue" stroke="midnightblue" points="696.61,-274.18 704.02,-266.6 693.5,-267.9 696.61,-274.18"/>
</g>
<!-- Node24 -->
<g id="node24" class="node">
<title>Node24</title>
<g id="a_node24"><a xlink:href="buddy_8c.html#a77f7615f76209d4083ef2d0826d90a1e" target="_top" xlink:title="free a chunk and process in deep.">
<polygon fill="none" stroke="black" points="332,-304.5 332,-323.5 397,-323.5 397,-304.5 332,-304.5"/>
<text text-anchor="middle" x="364.5" y="-311.5" font-family="Helvetica,sans-Serif" font-size="10.00">chunk_free</text>
</a>
</g>
</g>
<!-- Node23&#45;&gt;Node24 -->
<g id="edge27" class="edge">
<title>Node23&#45;&gt;Node24</title>
<path fill="none" stroke="midnightblue" d="M270.41,-314C284.37,-314 304.11,-314 321.83,-314"/>
<polygon fill="midnightblue" stroke="midnightblue" points="321.96,-317.5 331.96,-314 321.96,-310.5 321.96,-317.5"/>
</g>
<!-- Node24&#45;&gt;Node12 -->
<g id="edge28" class="edge">
<title>Node24&#45;&gt;Node12</title>
<path fill="none" stroke="midnightblue" d="M396.55,-304.47C402.04,-301.94 407.46,-298.81 412,-295 434.96,-275.75 422.68,-254.03 448,-238 479.51,-218.05 521.86,-213.99 554.48,-214.54"/>
<polygon fill="midnightblue" stroke="midnightblue" points="554.59,-218.04 564.7,-214.86 554.81,-211.05 554.59,-218.04"/>
</g>
<!-- Node25 -->
<g id="node25" class="node">
<title>Node25</title>
<g id="a_node25"><a xlink:href="buddy_8c.html#a9ae41f7f508f07ceba45065973ce5507" target="_top" xlink:title=" ">
<polygon fill="none" stroke="black" points="448,-285.5 448,-304.5 523,-304.5 523,-285.5 448,-285.5"/>
<text text-anchor="middle" x="485.5" y="-292.5" font-family="Helvetica,sans-Serif" font-size="10.00">chunk_merge</text>
</a>
</g>
</g>
<!-- Node24&#45;&gt;Node25 -->
<g id="edge29" class="edge">
<title>Node24&#45;&gt;Node25</title>
<path fill="none" stroke="midnightblue" d="M397.08,-308.96C409.48,-306.98 423.97,-304.66 437.55,-302.5"/>
<polygon fill="midnightblue" stroke="midnightblue" points="438.38,-305.91 447.71,-300.87 437.28,-299 438.38,-305.91"/>
</g>
<!-- Node25&#45;&gt;Node12 -->
<g id="edge30" class="edge">
<title>Node25&#45;&gt;Node12</title>
<path fill="none" stroke="midnightblue" d="M507.68,-285.49C512.9,-282.74 518.32,-279.53 523,-276 541.57,-261.99 539.88,-251.25 559,-238 561.57,-236.22 564.32,-234.56 567.17,-233.02"/>
<polygon fill="midnightblue" stroke="midnightblue" points="568.94,-236.05 576.4,-228.53 565.88,-229.76 568.94,-236.05"/>
</g>
<!-- Node25&#45;&gt;Node16 -->
<g id="edge31" class="edge">
<title>Node25&#45;&gt;Node16</title>
<path fill="none" stroke="midnightblue" d="M523.03,-295C536,-295 550.67,-295 563.92,-295"/>
<polygon fill="midnightblue" stroke="midnightblue" points="564.18,-298.5 574.18,-295 564.18,-291.5 564.18,-298.5"/>
</g>
<!-- Node25&#45;&gt;Node19 -->
<g id="edge32" class="edge">
<title>Node25&#45;&gt;Node19</title>
<path fill="none" stroke="midnightblue" d="M516.15,-285.41C530.9,-280.64 548.93,-274.81 564.8,-269.68"/>
<polygon fill="midnightblue" stroke="midnightblue" points="565.92,-272.99 574.36,-266.59 563.77,-266.33 565.92,-272.99"/>
</g>
<!-- Node26&#45;&gt;Node8 -->
<g id="edge35" class="edge">
<title>Node26&#45;&gt;Node8</title>
<path fill="none" stroke="midnightblue" d="M175.99,-200C189.02,-200 205.5,-200 219.59,-200"/>
<polygon fill="midnightblue" stroke="midnightblue" points="219.81,-203.5 229.81,-200 219.81,-196.5 219.81,-203.5"/>
</g>
<!-- Node28 -->
<g id="node28" class="node">
<title>Node28</title>
<g id="a_node28"><a xlink:href="buddy_8c.html#a571ce3de5539a52d40d9d11033519237" target="_top" xlink:title="initialize the buddy system">
<polygon fill="none" stroke="black" points="221,-76.5 221,-95.5 281,-95.5 281,-76.5 221,-76.5"/>
<text text-anchor="middle" x="251" y="-83.5" font-family="Helvetica,sans-Serif" font-size="10.00">buddy_init</text>
</a>
</g>
</g>
<!-- Node27&#45;&gt;Node28 -->
<g id="edge37" class="edge">
<title>Node27&#45;&gt;Node28</title>
<path fill="none" stroke="midnightblue" d="M177.48,-114.41C189.19,-109.82 203.42,-104.25 216.15,-99.26"/>
<polygon fill="midnightblue" stroke="midnightblue" points="217.5,-102.49 225.53,-95.59 214.94,-95.97 217.5,-102.49"/>
</g>
<!-- Node28&#45;&gt;Node13 -->
<g id="edge39" class="edge">
<title>Node28&#45;&gt;Node13</title>
<path fill="none" stroke="midnightblue" d="M281.24,-88.32C359.6,-94.54 575.19,-111.64 676.74,-119.7"/>
<polygon fill="midnightblue" stroke="midnightblue" points="676.54,-123.19 686.79,-120.49 677.1,-116.21 676.54,-123.19"/>
</g>
<!-- Node28&#45;&gt;Node24 -->
<g id="edge38" class="edge">
<title>Node28&#45;&gt;Node24</title>
<path fill="none" stroke="midnightblue" d="M254.96,-95.7C267.43,-136.61 315.21,-293.05 317,-295 318.75,-296.91 320.73,-298.64 322.85,-300.19"/>
<polygon fill="midnightblue" stroke="midnightblue" points="321.2,-303.28 331.58,-305.38 324.77,-297.26 321.2,-303.28"/>
</g>
<!-- Node29 -->
<g id="node29" class="node">
<title>Node29</title>
<g id="a_node29"><a xlink:href="list_8h.html#aea85dd50b9129ddaa3e3c67ed55804e4" target="_top" xlink:title=" ">
<polygon fill="none" stroke="black" points="317,-38.5 317,-57.5 412,-57.5 412,-38.5 317,-38.5"/>
<text text-anchor="middle" x="364.5" y="-45.5" font-family="Helvetica,sans-Serif" font-size="10.00">INIT_LIST_HEAD</text>
</a>
</g>
</g>
<!-- Node28&#45;&gt;Node29 -->
<g id="edge40" class="edge">
<title>Node28&#45;&gt;Node29</title>
<path fill="none" stroke="midnightblue" d="M280.14,-76.41C294,-71.69 310.92,-65.92 325.88,-60.82"/>
<polygon fill="midnightblue" stroke="midnightblue" points="327.04,-64.12 335.37,-57.59 324.78,-57.5 327.04,-64.12"/>
</g>
<!-- Node30 -->
<g id="node30" class="node">
<title>Node30</title>
<g id="a_node30"><a xlink:href="string_8c.html#a7a8fd43b209c9ea19addab23a5f23995" target="_top" xlink:title=" ">
<polygon fill="none" stroke="black" points="338.5,-0.5 338.5,-19.5 390.5,-19.5 390.5,-0.5 338.5,-0.5"/>
<text text-anchor="middle" x="364.5" y="-7.5" font-family="Helvetica,sans-Serif" font-size="10.00">memset</text>
</a>
</g>
</g>
<!-- Node28&#45;&gt;Node30 -->
<g id="edge41" class="edge">
<title>Node28&#45;&gt;Node30</title>
<path fill="none" stroke="midnightblue" d="M260.9,-76.43C272.74,-64.13 294.79,-42.74 317,-29 320.67,-26.73 324.66,-24.63 328.71,-22.71"/>
<polygon fill="midnightblue" stroke="midnightblue" points="330.38,-25.8 338.14,-18.59 327.57,-19.39 330.38,-25.8"/>
</g>
</g>
</svg>
