<?xml version="1.0" encoding="UTF-8" standalone="no"?>
<!DOCTYPE svg PUBLIC "-//W3C//DTD SVG 1.1//EN"
 "http://www.w3.org/Graphics/SVG/1.1/DTD/svg11.dtd">
<!-- Generated by graphviz version 3.0.0 (20220413.0106)
 -->
<!-- Title: kfree_safe Pages: 1 -->
<svg width="722pt" height="218pt"
 viewBox="0.00 0.00 722.00 218.00" xmlns="http://www.w3.org/2000/svg" xmlns:xlink="http://www.w3.org/1999/xlink">
<g id="graph0" class="graph" transform="scale(1 1) rotate(0) translate(4 214)">
<title>kfree_safe</title>
<!-- Node1 -->
<g id="node1" class="node">
<title>Node1</title>
<g id="a_node1"><a xlink:title=" ">
<polygon fill="#bfbfbf" stroke="black" points="0,-133.5 0,-152.5 62,-152.5 62,-133.5 0,-133.5"/>
<text text-anchor="middle" x="31" y="-140.5" font-family="Helvetica,sans-Serif" font-size="10.00">kfree_safe</text>
</a>
</g>
</g>
<!-- Node2 -->
<g id="node2" class="node">
<title>Node2</title>
<g id="a_node2"><a xlink:href="cte_8c.html#a79659a2b801c42951e38f3a8821acbae" target="_top" xlink:title=" ">
<polygon fill="none" stroke="black" points="98,-180.5 98,-199.5 151,-199.5 151,-180.5 98,-180.5"/>
<text text-anchor="middle" x="124.5" y="-187.5" font-family="Helvetica,sans-Serif" font-size="10.00">ienabled</text>
</a>
</g>
</g>
<!-- Node1&#45;&gt;Node2 -->
<g id="edge1" class="edge">
<title>Node1&#45;&gt;Node2</title>
<path fill="none" stroke="midnightblue" d="M50.52,-152.51C63.45,-159.16 80.96,-168.15 95.58,-175.66"/>
<polygon fill="midnightblue" stroke="midnightblue" points="94.2,-178.89 104.7,-180.34 97.4,-172.66 94.2,-178.89"/>
</g>
<!-- Node4 -->
<g id="node4" class="node">
<title>Node4</title>
<g id="a_node4"><a xlink:href="cte_8c.html#a4a139958742786c5085172be1f69bfd0" target="_top" xlink:title=" ">
<polygon fill="none" stroke="black" points="108.5,-133.5 108.5,-152.5 140.5,-152.5 140.5,-133.5 108.5,-133.5"/>
<text text-anchor="middle" x="124.5" y="-140.5" font-family="Helvetica,sans-Serif" font-size="10.00">iset</text>
</a>
</g>
</g>
<!-- Node1&#45;&gt;Node4 -->
<g id="edge3" class="edge">
<title>Node1&#45;&gt;Node4</title>
<path fill="none" stroke="midnightblue" d="M62.21,-143C73.85,-143 87,-143 98.13,-143"/>
<polygon fill="midnightblue" stroke="midnightblue" points="98.46,-146.5 108.46,-143 98.46,-139.5 98.46,-146.5"/>
</g>
<!-- Node7 -->
<g id="node7" class="node">
<title>Node7</title>
<g id="a_node7"><a xlink:href="pmm_8c.html#a2cb876c0d76d35916d27ed1623195fbe" target="_top" xlink:title=" ">
<polygon fill="none" stroke="black" points="105.5,-76.5 105.5,-95.5 143.5,-95.5 143.5,-76.5 105.5,-76.5"/>
<text text-anchor="middle" x="124.5" y="-83.5" font-family="Helvetica,sans-Serif" font-size="10.00">kfree</text>
</a>
</g>
</g>
<!-- Node1&#45;&gt;Node7 -->
<g id="edge6" class="edge">
<title>Node1&#45;&gt;Node7</title>
<path fill="none" stroke="midnightblue" d="M47.52,-133.33C61.8,-124.43 83.2,-111.1 99.65,-100.86"/>
<polygon fill="midnightblue" stroke="midnightblue" points="101.57,-103.78 108.21,-95.53 97.87,-97.84 101.57,-103.78"/>
</g>
<!-- Node3 -->
<g id="node3" class="node">
<title>Node3</title>
<g id="a_node3"><a xlink:href="x86_8h.html#a73d094f09c6a7dd3fc703aa8229933ee" target="_top" xlink:title=" ">
<polygon fill="none" stroke="black" points="197,-190.5 197,-209.5 242,-209.5 242,-190.5 197,-190.5"/>
<text text-anchor="middle" x="219.5" y="-197.5" font-family="Helvetica,sans-Serif" font-size="10.00">get_efl</text>
</a>
</g>
</g>
<!-- Node2&#45;&gt;Node3 -->
<g id="edge2" class="edge">
<title>Node2&#45;&gt;Node3</title>
<path fill="none" stroke="midnightblue" d="M151.41,-192.79C162.35,-193.96 175.2,-195.34 186.72,-196.58"/>
<polygon fill="midnightblue" stroke="midnightblue" points="186.5,-200.08 196.82,-197.67 187.25,-193.12 186.5,-200.08"/>
</g>
<!-- Node5 -->
<g id="node5" class="node">
<title>Node5</title>
<g id="a_node5"><a xlink:href="x86_8h.html#acc919e7809ef1db2b20aa3804f540b5c" target="_top" xlink:title=" ">
<polygon fill="none" stroke="black" points="205,-152.5 205,-171.5 234,-171.5 234,-152.5 205,-152.5"/>
<text text-anchor="middle" x="219.5" y="-159.5" font-family="Helvetica,sans-Serif" font-size="10.00">cli</text>
</a>
</g>
</g>
<!-- Node4&#45;&gt;Node5 -->
<g id="edge4" class="edge">
<title>Node4&#45;&gt;Node5</title>
<path fill="none" stroke="midnightblue" d="M140.86,-146.14C155.5,-149.13 177.77,-153.68 194.71,-157.14"/>
<polygon fill="midnightblue" stroke="midnightblue" points="194.44,-160.66 204.94,-159.23 195.84,-153.8 194.44,-160.66"/>
</g>
<!-- Node6 -->
<g id="node6" class="node">
<title>Node6</title>
<g id="a_node6"><a xlink:href="x86_8h.html#a4657e97b270d7af5a23da2c4d642ada2" target="_top" xlink:title=" ">
<polygon fill="none" stroke="black" points="205,-114.5 205,-133.5 234,-133.5 234,-114.5 205,-114.5"/>
<text text-anchor="middle" x="219.5" y="-121.5" font-family="Helvetica,sans-Serif" font-size="10.00">sti</text>
</a>
</g>
</g>
<!-- Node4&#45;&gt;Node6 -->
<g id="edge5" class="edge">
<title>Node4&#45;&gt;Node6</title>
<path fill="none" stroke="midnightblue" d="M140.86,-139.86C155.5,-136.87 177.77,-132.32 194.71,-128.86"/>
<polygon fill="midnightblue" stroke="midnightblue" points="195.84,-132.2 204.94,-126.77 194.44,-125.34 195.84,-132.2"/>
</g>
<!-- Node8 -->
<g id="node8" class="node">
<title>Node8</title>
<g id="a_node8"><a xlink:href="buddy_8c.html#a77f7615f76209d4083ef2d0826d90a1e" target="_top" xlink:title="free a chunk and process in deep.">
<polygon fill="none" stroke="black" points="187,-76.5 187,-95.5 252,-95.5 252,-76.5 187,-76.5"/>
<text text-anchor="middle" x="219.5" y="-83.5" font-family="Helvetica,sans-Serif" font-size="10.00">chunk_free</text>
</a>
</g>
</g>
<!-- Node7&#45;&gt;Node8 -->
<g id="edge7" class="edge">
<title>Node7&#45;&gt;Node8</title>
<path fill="none" stroke="midnightblue" d="M143.87,-86C153.37,-86 165.38,-86 176.97,-86"/>
<polygon fill="midnightblue" stroke="midnightblue" points="176.97,-89.5 186.97,-86 176.97,-82.5 176.97,-89.5"/>
</g>
<!-- Node19 -->
<g id="node19" class="node">
<title>Node19</title>
<g id="a_node19"><a xlink:href="buddy_8c.html#ad1eda4b9fbb516f58586845217f68723" target="_top" xlink:title="translate virtual address to chunk address">
<polygon fill="none" stroke="black" points="541,-0.5 541,-19.5 603,-19.5 603,-0.5 541,-0.5"/>
<text text-anchor="middle" x="572" y="-7.5" font-family="Helvetica,sans-Serif" font-size="10.00">virt2chunk</text>
</a>
</g>
</g>
<!-- Node7&#45;&gt;Node19 -->
<g id="edge20" class="edge">
<title>Node7&#45;&gt;Node19</title>
<path fill="none" stroke="midnightblue" d="M143.64,-79.76C155.8,-75.73 172.23,-70.59 187,-67 310.34,-37.01 460.03,-20.3 530.55,-13.56"/>
<polygon fill="midnightblue" stroke="midnightblue" points="531.14,-17.02 540.77,-12.6 530.48,-10.05 531.14,-17.02"/>
</g>
<!-- Node9 -->
<g id="node9" class="node">
<title>Node9</title>
<g id="a_node9"><a xlink:href="buddy_8c.html#acd10ee3138eeeac7c91ef5928f2135ea" target="_top" xlink:title="make a chunk added to free list.">
<polygon fill="none" stroke="black" points="405,-114.5 405,-133.5 485,-133.5 485,-114.5 405,-114.5"/>
<text text-anchor="middle" x="445" y="-121.5" font-family="Helvetica,sans-Serif" font-size="10.00">chunk_append</text>
</a>
</g>
</g>
<!-- Node8&#45;&gt;Node9 -->
<g id="edge8" class="edge">
<title>Node8&#45;&gt;Node9</title>
<path fill="none" stroke="midnightblue" d="M250.5,-95.51C262.12,-98.91 275.59,-102.51 288,-105 323.45,-112.1 364,-116.95 394.87,-119.96"/>
<polygon fill="midnightblue" stroke="midnightblue" points="394.66,-123.46 404.95,-120.92 395.32,-116.49 394.66,-123.46"/>
</g>
<!-- Node13 -->
<g id="node13" class="node">
<title>Node13</title>
<g id="a_node13"><a xlink:href="buddy_8c.html#a9ae41f7f508f07ceba45065973ce5507" target="_top" xlink:title=" ">
<polygon fill="none" stroke="black" points="288,-76.5 288,-95.5 363,-95.5 363,-76.5 288,-76.5"/>
<text text-anchor="middle" x="325.5" y="-83.5" font-family="Helvetica,sans-Serif" font-size="10.00">chunk_merge</text>
</a>
</g>
</g>
<!-- Node8&#45;&gt;Node13 -->
<g id="edge12" class="edge">
<title>Node8&#45;&gt;Node13</title>
<path fill="none" stroke="midnightblue" d="M252.27,-86C260.25,-86 268.99,-86 277.54,-86"/>
<polygon fill="midnightblue" stroke="midnightblue" points="277.82,-89.5 287.82,-86 277.82,-82.5 277.82,-89.5"/>
</g>
<!-- Node10 -->
<g id="node10" class="node">
<title>Node10</title>
<g id="a_node10"><a xlink:href="structfree__list.html#a338aea6183dad7ec975539e4e1def837" target="_top" xlink:title=" ">
<polygon fill="none" stroke="black" points="527,-152.5 527,-171.5 617,-171.5 617,-152.5 527,-152.5"/>
<text text-anchor="middle" x="572" y="-159.5" font-family="Helvetica,sans-Serif" font-size="10.00">free_list::free_list</text>
</a>
</g>
</g>
<!-- Node9&#45;&gt;Node10 -->
<g id="edge9" class="edge">
<title>Node9&#45;&gt;Node10</title>
<path fill="none" stroke="midnightblue" d="M477.54,-133.59C493.38,-138.4 512.77,-144.3 529.78,-149.47"/>
<polygon fill="midnightblue" stroke="midnightblue" points="528.88,-152.85 539.47,-152.41 530.92,-146.16 528.88,-152.85"/>
</g>
<!-- Node11 -->
<g id="node11" class="node">
<title>Node11</title>
<g id="a_node11"><a xlink:href="list_8h.html#a06a80666b3364324fc601ab7ae1ff20b" target="_top" xlink:title=" ">
<polygon fill="none" stroke="black" points="547,-114.5 547,-133.5 597,-133.5 597,-114.5 547,-114.5"/>
<text text-anchor="middle" x="572" y="-121.5" font-family="Helvetica,sans-Serif" font-size="10.00">list_add</text>
</a>
</g>
</g>
<!-- Node9&#45;&gt;Node11 -->
<g id="edge10" class="edge">
<title>Node9&#45;&gt;Node11</title>
<path fill="none" stroke="midnightblue" d="M485.21,-124C501.61,-124 520.52,-124 536.4,-124"/>
<polygon fill="midnightblue" stroke="midnightblue" points="536.84,-127.5 546.84,-124 536.84,-120.5 536.84,-127.5"/>
</g>
<!-- Node12 -->
<g id="node12" class="node">
<title>Node12</title>
<g id="a_node12"><a xlink:href="list_8h.html#a83ecb02c2209a8fd5f6470d45a07f875" target="_top" xlink:title=" ">
<polygon fill="none" stroke="black" points="653,-114.5 653,-133.5 714,-133.5 714,-114.5 653,-114.5"/>
<text text-anchor="middle" x="683.5" y="-121.5" font-family="Helvetica,sans-Serif" font-size="10.00">__list_add</text>
</a>
</g>
</g>
<!-- Node11&#45;&gt;Node12 -->
<g id="edge11" class="edge">
<title>Node11&#45;&gt;Node12</title>
<path fill="none" stroke="midnightblue" d="M597.03,-124C610.33,-124 627.2,-124 642.44,-124"/>
<polygon fill="midnightblue" stroke="midnightblue" points="642.66,-127.5 652.66,-124 642.66,-120.5 642.66,-127.5"/>
</g>
<!-- Node13&#45;&gt;Node9 -->
<g id="edge13" class="edge">
<title>Node13&#45;&gt;Node9</title>
<path fill="none" stroke="midnightblue" d="M356.15,-95.59C370.9,-100.36 388.93,-106.19 404.8,-111.32"/>
<polygon fill="midnightblue" stroke="midnightblue" points="403.77,-114.67 414.36,-114.41 405.92,-108.01 403.77,-114.67"/>
</g>
<!-- Node14 -->
<g id="node14" class="node">
<title>Node14</title>
<g id="a_node14"><a xlink:href="buddy_8c.html#a8a4afbc5643993142db5ad65b87b8c62" target="_top" xlink:title=" ">
<polygon fill="none" stroke="black" points="414.5,-76.5 414.5,-95.5 475.5,-95.5 475.5,-76.5 414.5,-76.5"/>
<text text-anchor="middle" x="445" y="-83.5" font-family="Helvetica,sans-Serif" font-size="10.00">chunk_del</text>
</a>
</g>
</g>
<!-- Node13&#45;&gt;Node14 -->
<g id="edge14" class="edge">
<title>Node13&#45;&gt;Node14</title>
<path fill="none" stroke="midnightblue" d="M363.03,-86C376,-86 390.67,-86 403.92,-86"/>
<polygon fill="midnightblue" stroke="midnightblue" points="404.18,-89.5 414.18,-86 404.18,-82.5 404.18,-89.5"/>
</g>
<!-- Node17 -->
<g id="node17" class="node">
<title>Node17</title>
<g id="a_node17"><a xlink:href="buddy_8c.html#a48594e69fff9b58d5f41dca7d576eb35" target="_top" xlink:title="Get the buddy chunk.">
<polygon fill="none" stroke="black" points="399,-38.5 399,-57.5 491,-57.5 491,-38.5 399,-38.5"/>
<text text-anchor="middle" x="445" y="-45.5" font-family="Helvetica,sans-Serif" font-size="10.00">get_buddy_chunk</text>
</a>
</g>
</g>
<!-- Node13&#45;&gt;Node17 -->
<g id="edge17" class="edge">
<title>Node13&#45;&gt;Node17</title>
<path fill="none" stroke="midnightblue" d="M356.15,-76.41C370.9,-71.64 388.93,-65.81 404.8,-60.68"/>
<polygon fill="midnightblue" stroke="midnightblue" points="405.92,-63.99 414.36,-57.59 403.77,-57.33 405.92,-63.99"/>
</g>
<!-- Node15 -->
<g id="node15" class="node">
<title>Node15</title>
<g id="a_node15"><a xlink:href="list_8h.html#ab1708206f0f7e0a56550b35372203ba5" target="_top" xlink:title=" ">
<polygon fill="none" stroke="black" points="548.5,-76.5 548.5,-95.5 595.5,-95.5 595.5,-76.5 548.5,-76.5"/>
<text text-anchor="middle" x="572" y="-83.5" font-family="Helvetica,sans-Serif" font-size="10.00">list_del</text>
</a>
</g>
</g>
<!-- Node14&#45;&gt;Node15 -->
<g id="edge15" class="edge">
<title>Node14&#45;&gt;Node15</title>
<path fill="none" stroke="midnightblue" d="M475.62,-86C494.39,-86 518.67,-86 538.04,-86"/>
<polygon fill="midnightblue" stroke="midnightblue" points="538.23,-89.5 548.23,-86 538.23,-82.5 538.23,-89.5"/>
</g>
<!-- Node16 -->
<g id="node16" class="node">
<title>Node16</title>
<g id="a_node16"><a xlink:href="list_8h.html#a24b474717d65a296695e8b79b4adefda" target="_top" xlink:title=" ">
<polygon fill="none" stroke="black" points="654.5,-76.5 654.5,-95.5 712.5,-95.5 712.5,-76.5 654.5,-76.5"/>
<text text-anchor="middle" x="683.5" y="-83.5" font-family="Helvetica,sans-Serif" font-size="10.00">__list_del</text>
</a>
</g>
</g>
<!-- Node15&#45;&gt;Node16 -->
<g id="edge16" class="edge">
<title>Node15&#45;&gt;Node16</title>
<path fill="none" stroke="midnightblue" d="M595.69,-86C609.67,-86 627.95,-86 644.13,-86"/>
<polygon fill="midnightblue" stroke="midnightblue" points="644.39,-89.5 654.39,-86 644.39,-82.5 644.39,-89.5"/>
</g>
<!-- Node18 -->
<g id="node18" class="node">
<title>Node18</title>
<g id="a_node18"><a xlink:href="buddy_8c.html#a7d6c4f020f51f2a621ca1ab5a4e6a5bb" target="_top" xlink:title="translate chunk address to virtual address">
<polygon fill="none" stroke="black" points="541,-38.5 541,-57.5 603,-57.5 603,-38.5 541,-38.5"/>
<text text-anchor="middle" x="572" y="-45.5" font-family="Helvetica,sans-Serif" font-size="10.00">chunk2virt</text>
</a>
</g>
</g>
<!-- Node17&#45;&gt;Node18 -->
<g id="edge18" class="edge">
<title>Node17&#45;&gt;Node18</title>
<path fill="none" stroke="midnightblue" d="M491.13,-48C504.02,-48 517.99,-48 530.58,-48"/>
<polygon fill="midnightblue" stroke="midnightblue" points="530.78,-51.5 540.78,-48 530.78,-44.5 530.78,-51.5"/>
</g>
<!-- Node17&#45;&gt;Node19 -->
<g id="edge19" class="edge">
<title>Node17&#45;&gt;Node19</title>
<path fill="none" stroke="midnightblue" d="M477.54,-38.41C493.75,-33.49 513.66,-27.43 530.94,-22.18"/>
<polygon fill="midnightblue" stroke="midnightblue" points="532.21,-25.45 540.76,-19.19 530.18,-18.75 532.21,-25.45"/>
</g>
</g>
</svg>
