<?xml version="1.0" encoding="UTF-8" standalone="no"?>
<!DOCTYPE svg PUBLIC "-//W3C//DTD SVG 1.1//EN"
 "http://www.w3.org/Graphics/SVG/1.1/DTD/svg11.dtd">
<!-- Generated by graphviz version 3.0.0 (20220413.0106)
 -->
<!-- Title: kalloc Pages: 1 -->
<svg width="607pt" height="180pt"
 viewBox="0.00 0.00 607.00 180.00" xmlns="http://www.w3.org/2000/svg" xmlns:xlink="http://www.w3.org/1999/xlink">
<g id="graph0" class="graph" transform="scale(1 1) rotate(0) translate(4 176)">
<title>kalloc</title>
<!-- Node1 -->
<g id="node1" class="node">
<title>Node1</title>
<g id="a_node1"><a xlink:title=" ">
<polygon fill="#bfbfbf" stroke="black" points="0,-76.5 0,-95.5 42,-95.5 42,-76.5 0,-76.5"/>
<text text-anchor="middle" x="21" y="-83.5" font-family="Helvetica,sans-Serif" font-size="10.00">kalloc</text>
</a>
</g>
</g>
<!-- Node2 -->
<g id="node2" class="node">
<title>Node2</title>
<g id="a_node2"><a xlink:href="buddy_8c.html#a7d6c4f020f51f2a621ca1ab5a4e6a5bb" target="_top" xlink:title="translate chunk address to virtual address">
<polygon fill="none" stroke="black" points="426,-152.5 426,-171.5 488,-171.5 488,-152.5 426,-152.5"/>
<text text-anchor="middle" x="457" y="-159.5" font-family="Helvetica,sans-Serif" font-size="10.00">chunk2virt</text>
</a>
</g>
</g>
<!-- Node1&#45;&gt;Node2 -->
<g id="edge1" class="edge">
<title>Node1&#45;&gt;Node2</title>
<path fill="none" stroke="midnightblue" d="M42,-93.57C52.59,-97.38 65.88,-101.84 78,-105 198.65,-136.42 345.78,-152.42 415.56,-158.71"/>
<polygon fill="midnightblue" stroke="midnightblue" points="415.41,-162.21 425.68,-159.61 416.02,-155.24 415.41,-162.21"/>
</g>
<!-- Node3 -->
<g id="node3" class="node">
<title>Node3</title>
<g id="a_node3"><a xlink:href="buddy_8c.html#a37436a565869aa245cb46355dab020e2" target="_top" xlink:title=" ">
<polygon fill="none" stroke="black" points="78,-76.5 78,-95.5 146,-95.5 146,-76.5 78,-76.5"/>
<text text-anchor="middle" x="112" y="-83.5" font-family="Helvetica,sans-Serif" font-size="10.00">chunk_alloc</text>
</a>
</g>
</g>
<!-- Node1&#45;&gt;Node3 -->
<g id="edge2" class="edge">
<title>Node1&#45;&gt;Node3</title>
<path fill="none" stroke="midnightblue" d="M42.2,-86C49.87,-86 58.94,-86 67.93,-86"/>
<polygon fill="midnightblue" stroke="midnightblue" points="67.97,-89.5 77.97,-86 67.97,-82.5 67.97,-89.5"/>
</g>
<!-- Node14 -->
<g id="node14" class="node">
<title>Node14</title>
<g id="a_node14"><a xlink:href="common_8h.html#afec4cf52a3e70c488446a06ea604f9df" target="_top" xlink:title=" ">
<polygon fill="none" stroke="black" points="83,-38.5 83,-57.5 141,-57.5 141,-38.5 83,-38.5"/>
<text text-anchor="middle" x="112" y="-45.5" font-family="Helvetica,sans-Serif" font-size="10.00">power2ify</text>
</a>
</g>
</g>
<!-- Node1&#45;&gt;Node14 -->
<g id="edge15" class="edge">
<title>Node1&#45;&gt;Node14</title>
<path fill="none" stroke="midnightblue" d="M42.2,-77.38C53.12,-72.71 66.87,-66.84 79.2,-61.58"/>
<polygon fill="midnightblue" stroke="midnightblue" points="80.88,-64.67 88.7,-57.52 78.13,-58.23 80.88,-64.67"/>
</g>
<!-- Node4 -->
<g id="node4" class="node">
<title>Node4</title>
<g id="a_node4"><a xlink:href="buddy_8c.html#aff6f2614df5664434766dd9c23971227" target="_top" xlink:title=" ">
<polygon fill="none" stroke="black" points="182,-76.5 182,-95.5 248,-95.5 248,-76.5 182,-76.5"/>
<text text-anchor="middle" x="215" y="-83.5" font-family="Helvetica,sans-Serif" font-size="10.00">chunk_split</text>
</a>
</g>
</g>
<!-- Node3&#45;&gt;Node4 -->
<g id="edge3" class="edge">
<title>Node3&#45;&gt;Node4</title>
<path fill="none" stroke="midnightblue" d="M146.07,-86C154.25,-86 163.13,-86 171.68,-86"/>
<polygon fill="midnightblue" stroke="midnightblue" points="171.89,-89.5 181.89,-86 171.89,-82.5 171.89,-89.5"/>
</g>
<!-- Node6 -->
<g id="node6" class="node">
<title>Node6</title>
<g id="a_node6"><a xlink:href="structfree__list.html#a338aea6183dad7ec975539e4e1def837" target="_top" xlink:title=" ">
<polygon fill="none" stroke="black" points="412,-0.5 412,-19.5 502,-19.5 502,-0.5 412,-0.5"/>
<text text-anchor="middle" x="457" y="-7.5" font-family="Helvetica,sans-Serif" font-size="10.00">free_list::free_list</text>
</a>
</g>
</g>
<!-- Node3&#45;&gt;Node6 -->
<g id="edge14" class="edge">
<title>Node3&#45;&gt;Node6</title>
<path fill="none" stroke="midnightblue" d="M136.35,-76.46C168.86,-63.57 229.9,-40.87 284,-29 322.83,-20.49 367.47,-15.7 401.54,-13.06"/>
<polygon fill="midnightblue" stroke="midnightblue" points="402.04,-16.53 411.75,-12.31 401.52,-9.55 402.04,-16.53"/>
</g>
<!-- Node5 -->
<g id="node5" class="node">
<title>Node5</title>
<g id="a_node5"><a xlink:href="buddy_8c.html#acd10ee3138eeeac7c91ef5928f2135ea" target="_top" xlink:title="make a chunk added to free list.">
<polygon fill="none" stroke="black" points="290,-38.5 290,-57.5 370,-57.5 370,-38.5 290,-38.5"/>
<text text-anchor="middle" x="330" y="-45.5" font-family="Helvetica,sans-Serif" font-size="10.00">chunk_append</text>
</a>
</g>
</g>
<!-- Node4&#45;&gt;Node5 -->
<g id="edge4" class="edge">
<title>Node4&#45;&gt;Node5</title>
<path fill="none" stroke="midnightblue" d="M244.51,-76.41C258.57,-71.69 275.71,-65.92 290.87,-60.82"/>
<polygon fill="midnightblue" stroke="midnightblue" points="292.13,-64.09 300.49,-57.59 289.9,-57.46 292.13,-64.09"/>
</g>
<!-- Node9 -->
<g id="node9" class="node">
<title>Node9</title>
<g id="a_node9"><a xlink:href="buddy_8c.html#a8a4afbc5643993142db5ad65b87b8c62" target="_top" xlink:title=" ">
<polygon fill="none" stroke="black" points="299.5,-76.5 299.5,-95.5 360.5,-95.5 360.5,-76.5 299.5,-76.5"/>
<text text-anchor="middle" x="330" y="-83.5" font-family="Helvetica,sans-Serif" font-size="10.00">chunk_del</text>
</a>
</g>
</g>
<!-- Node4&#45;&gt;Node9 -->
<g id="edge8" class="edge">
<title>Node4&#45;&gt;Node9</title>
<path fill="none" stroke="midnightblue" d="M248.08,-86C260.74,-86 275.44,-86 288.8,-86"/>
<polygon fill="midnightblue" stroke="midnightblue" points="289.17,-89.5 299.17,-86 289.17,-82.5 289.17,-89.5"/>
</g>
<!-- Node12 -->
<g id="node12" class="node">
<title>Node12</title>
<g id="a_node12"><a xlink:href="buddy_8c.html#a48594e69fff9b58d5f41dca7d576eb35" target="_top" xlink:title="Get the buddy chunk.">
<polygon fill="none" stroke="black" points="284,-114.5 284,-133.5 376,-133.5 376,-114.5 284,-114.5"/>
<text text-anchor="middle" x="330" y="-121.5" font-family="Helvetica,sans-Serif" font-size="10.00">get_buddy_chunk</text>
</a>
</g>
</g>
<!-- Node4&#45;&gt;Node12 -->
<g id="edge11" class="edge">
<title>Node4&#45;&gt;Node12</title>
<path fill="none" stroke="midnightblue" d="M244.51,-95.59C258.57,-100.31 275.71,-106.08 290.87,-111.18"/>
<polygon fill="midnightblue" stroke="midnightblue" points="289.9,-114.54 300.49,-114.41 292.13,-107.91 289.9,-114.54"/>
</g>
<!-- Node5&#45;&gt;Node6 -->
<g id="edge5" class="edge">
<title>Node5&#45;&gt;Node6</title>
<path fill="none" stroke="midnightblue" d="M362.54,-38.41C378.38,-33.6 397.77,-27.7 414.78,-22.53"/>
<polygon fill="midnightblue" stroke="midnightblue" points="415.92,-25.84 424.47,-19.59 413.88,-19.15 415.92,-25.84"/>
</g>
<!-- Node7 -->
<g id="node7" class="node">
<title>Node7</title>
<g id="a_node7"><a xlink:href="list_8h.html#a06a80666b3364324fc601ab7ae1ff20b" target="_top" xlink:title=" ">
<polygon fill="none" stroke="black" points="432,-38.5 432,-57.5 482,-57.5 482,-38.5 432,-38.5"/>
<text text-anchor="middle" x="457" y="-45.5" font-family="Helvetica,sans-Serif" font-size="10.00">list_add</text>
</a>
</g>
</g>
<!-- Node5&#45;&gt;Node7 -->
<g id="edge6" class="edge">
<title>Node5&#45;&gt;Node7</title>
<path fill="none" stroke="midnightblue" d="M370.21,-48C386.61,-48 405.52,-48 421.4,-48"/>
<polygon fill="midnightblue" stroke="midnightblue" points="421.84,-51.5 431.84,-48 421.84,-44.5 421.84,-51.5"/>
</g>
<!-- Node8 -->
<g id="node8" class="node">
<title>Node8</title>
<g id="a_node8"><a xlink:href="list_8h.html#a83ecb02c2209a8fd5f6470d45a07f875" target="_top" xlink:title=" ">
<polygon fill="none" stroke="black" points="538,-38.5 538,-57.5 599,-57.5 599,-38.5 538,-38.5"/>
<text text-anchor="middle" x="568.5" y="-45.5" font-family="Helvetica,sans-Serif" font-size="10.00">__list_add</text>
</a>
</g>
</g>
<!-- Node7&#45;&gt;Node8 -->
<g id="edge7" class="edge">
<title>Node7&#45;&gt;Node8</title>
<path fill="none" stroke="midnightblue" d="M482.03,-48C495.33,-48 512.2,-48 527.44,-48"/>
<polygon fill="midnightblue" stroke="midnightblue" points="527.66,-51.5 537.66,-48 527.66,-44.5 527.66,-51.5"/>
</g>
<!-- Node10 -->
<g id="node10" class="node">
<title>Node10</title>
<g id="a_node10"><a xlink:href="list_8h.html#ab1708206f0f7e0a56550b35372203ba5" target="_top" xlink:title=" ">
<polygon fill="none" stroke="black" points="433.5,-76.5 433.5,-95.5 480.5,-95.5 480.5,-76.5 433.5,-76.5"/>
<text text-anchor="middle" x="457" y="-83.5" font-family="Helvetica,sans-Serif" font-size="10.00">list_del</text>
</a>
</g>
</g>
<!-- Node9&#45;&gt;Node10 -->
<g id="edge9" class="edge">
<title>Node9&#45;&gt;Node10</title>
<path fill="none" stroke="midnightblue" d="M360.62,-86C379.39,-86 403.67,-86 423.04,-86"/>
<polygon fill="midnightblue" stroke="midnightblue" points="423.23,-89.5 433.23,-86 423.23,-82.5 423.23,-89.5"/>
</g>
<!-- Node11 -->
<g id="node11" class="node">
<title>Node11</title>
<g id="a_node11"><a xlink:href="list_8h.html#a24b474717d65a296695e8b79b4adefda" target="_top" xlink:title=" ">
<polygon fill="none" stroke="black" points="539.5,-76.5 539.5,-95.5 597.5,-95.5 597.5,-76.5 539.5,-76.5"/>
<text text-anchor="middle" x="568.5" y="-83.5" font-family="Helvetica,sans-Serif" font-size="10.00">__list_del</text>
</a>
</g>
</g>
<!-- Node10&#45;&gt;Node11 -->
<g id="edge10" class="edge">
<title>Node10&#45;&gt;Node11</title>
<path fill="none" stroke="midnightblue" d="M480.69,-86C494.67,-86 512.95,-86 529.13,-86"/>
<polygon fill="midnightblue" stroke="midnightblue" points="529.39,-89.5 539.39,-86 529.39,-82.5 529.39,-89.5"/>
</g>
<!-- Node12&#45;&gt;Node2 -->
<g id="edge12" class="edge">
<title>Node12&#45;&gt;Node2</title>
<path fill="none" stroke="midnightblue" d="M362.54,-133.59C378.75,-138.51 398.66,-144.57 415.94,-149.82"/>
<polygon fill="midnightblue" stroke="midnightblue" points="415.18,-153.25 425.76,-152.81 417.21,-146.55 415.18,-153.25"/>
</g>
<!-- Node13 -->
<g id="node13" class="node">
<title>Node13</title>
<g id="a_node13"><a xlink:href="buddy_8c.html#ad1eda4b9fbb516f58586845217f68723" target="_top" xlink:title="translate virtual address to chunk address">
<polygon fill="none" stroke="black" points="426,-114.5 426,-133.5 488,-133.5 488,-114.5 426,-114.5"/>
<text text-anchor="middle" x="457" y="-121.5" font-family="Helvetica,sans-Serif" font-size="10.00">virt2chunk</text>
</a>
</g>
</g>
<!-- Node12&#45;&gt;Node13 -->
<g id="edge13" class="edge">
<title>Node12&#45;&gt;Node13</title>
<path fill="none" stroke="midnightblue" d="M376.13,-124C389.02,-124 402.99,-124 415.58,-124"/>
<polygon fill="midnightblue" stroke="midnightblue" points="415.78,-127.5 425.78,-124 415.78,-120.5 415.78,-127.5"/>
</g>
</g>
</svg>
