<?xml version="1.0" encoding="UTF-8" standalone="no"?>
<!DOCTYPE svg PUBLIC "-//W3C//DTD SVG 1.1//EN"
 "http://www.w3.org/Graphics/SVG/1.1/DTD/svg11.dtd">
<!-- Generated by graphviz version 2.50.0 (20220203.2022)
 -->
<!-- Title: pmm_init Pages: 1 -->
<svg width="395pt" height="104pt"
 viewBox="0.00 0.00 395.00 104.00" xmlns="http://www.w3.org/2000/svg" xmlns:xlink="http://www.w3.org/1999/xlink">
<g id="graph0" class="graph" transform="scale(1 1) rotate(0) translate(4 100)">
<title>pmm_init</title>
<!-- Node1 -->
<g id="node1" class="node">
<title>Node1</title>
<g id="a_node1"><a xlink:title=" ">
<polygon fill="#bfbfbf" stroke="black" points="0,-38.5 0,-57.5 56,-57.5 56,-38.5 0,-38.5"/>
<text text-anchor="middle" x="28" y="-45.5" font-family="Helvetica,sans-Serif" font-size="10.00">pmm_init</text>
</a>
</g>
</g>
<!-- Node2 -->
<g id="node2" class="node">
<title>Node2</title>
<g id="a_node2"><a xlink:href="stdio_8c.html#a55f3d956bb2ba20b5059e9e25484a47f" target="_top" xlink:title=" ">
<polygon fill="none" stroke="black" points="92,-38.5 92,-57.5 130,-57.5 130,-38.5 92,-38.5"/>
<text text-anchor="middle" x="111" y="-45.5" font-family="Helvetica,sans-Serif" font-size="10.00">printf</text>
</a>
</g>
</g>
<!-- Node1&#45;&gt;Node2 -->
<g id="edge1" class="edge">
<title>Node1&#45;&gt;Node2</title>
<path fill="none" stroke="midnightblue" d="M56.42,-48C64.46,-48 73.28,-48 81.39,-48"/>
<polygon fill="midnightblue" stroke="midnightblue" points="81.53,-51.5 91.53,-48 81.53,-44.5 81.53,-51.5"/>
</g>
<!-- Node3 -->
<g id="node3" class="node">
<title>Node3</title>
<g id="a_node3"><a xlink:href="stdio_8c.html#a44a6734c6f8f81d8e1fa3b9d476c5134" target="_top" xlink:title=" ">
<polygon fill="none" stroke="black" points="166,-38.5 166,-57.5 215,-57.5 215,-38.5 166,-38.5"/>
<text text-anchor="middle" x="190.5" y="-45.5" font-family="Helvetica,sans-Serif" font-size="10.00">vsprintf</text>
</a>
</g>
</g>
<!-- Node2&#45;&gt;Node3 -->
<g id="edge2" class="edge">
<title>Node2&#45;&gt;Node3</title>
<path fill="none" stroke="midnightblue" d="M130.37,-48C138.02,-48 147.16,-48 155.94,-48"/>
<polygon fill="midnightblue" stroke="midnightblue" points="155.97,-51.5 165.97,-48 155.97,-44.5 155.97,-51.5"/>
</g>
<!-- Node4 -->
<g id="node4" class="node">
<title>Node4</title>
<g id="a_node4"><a xlink:href="string_8c.html#a9517a4a50477f651785c09b27826d8ce" target="_top" xlink:title=" ">
<polygon fill="none" stroke="black" points="260,-76.5 260,-95.5 301,-95.5 301,-76.5 260,-76.5"/>
<text text-anchor="middle" x="280.5" y="-83.5" font-family="Helvetica,sans-Serif" font-size="10.00">strcat</text>
</a>
</g>
</g>
<!-- Node3&#45;&gt;Node4 -->
<g id="edge3" class="edge">
<title>Node3&#45;&gt;Node4</title>
<path fill="none" stroke="midnightblue" d="M213.71,-57.59C224.96,-62.45 238.75,-68.4 250.79,-73.6"/>
<polygon fill="midnightblue" stroke="midnightblue" points="249.43,-76.83 260,-77.58 252.2,-70.4 249.43,-76.83"/>
</g>
<!-- Node5 -->
<g id="node5" class="node">
<title>Node5</title>
<g id="a_node5"><a xlink:href="string_8c.html#aa383452fe445bfae989358c9d7d96f4f" target="_top" xlink:title=" ">
<polygon fill="none" stroke="black" points="346,-57.5 346,-76.5 387,-76.5 387,-57.5 346,-57.5"/>
<text text-anchor="middle" x="366.5" y="-64.5" font-family="Helvetica,sans-Serif" font-size="10.00">strlen</text>
</a>
</g>
</g>
<!-- Node3&#45;&gt;Node5 -->
<g id="edge5" class="edge">
<title>Node3&#45;&gt;Node5</title>
<path fill="none" stroke="midnightblue" d="M215.33,-50.6C246.66,-54.02 301.69,-60.03 335.73,-63.75"/>
<polygon fill="midnightblue" stroke="midnightblue" points="335.66,-67.26 345.98,-64.87 336.42,-60.3 335.66,-67.26"/>
</g>
<!-- Node6 -->
<g id="node6" class="node">
<title>Node6</title>
<g id="a_node6"><a xlink:href="stdio_8c.html#a8a0e94b5b0c2a000751f94fd7a5c0071" target="_top" xlink:title=" ">
<polygon fill="none" stroke="black" points="251,-0.5 251,-19.5 310,-19.5 310,-0.5 251,-0.5"/>
<text text-anchor="middle" x="280.5" y="-7.5" font-family="Helvetica,sans-Serif" font-size="10.00">vprintf_int</text>
</a>
</g>
</g>
<!-- Node3&#45;&gt;Node6 -->
<g id="edge6" class="edge">
<title>Node3&#45;&gt;Node6</title>
<path fill="none" stroke="midnightblue" d="M213.71,-38.41C224.13,-33.91 236.73,-28.47 248.11,-23.56"/>
<polygon fill="midnightblue" stroke="midnightblue" points="249.51,-26.76 257.3,-19.59 246.73,-20.34 249.51,-26.76"/>
</g>
<!-- Node4&#45;&gt;Node5 -->
<g id="edge4" class="edge">
<title>Node4&#45;&gt;Node5</title>
<path fill="none" stroke="midnightblue" d="M301.41,-81.5C311.66,-79.18 324.37,-76.3 335.76,-73.73"/>
<polygon fill="midnightblue" stroke="midnightblue" points="336.75,-77.09 345.74,-71.47 335.21,-70.26 336.75,-77.09"/>
</g>
</g>
</svg>
