<?xml version="1.0" encoding="UTF-8" standalone="no"?>
<!DOCTYPE svg PUBLIC "-//W3C//DTD SVG 1.1//EN"
 "http://www.w3.org/Graphics/SVG/1.1/DTD/svg11.dtd">
<!-- Generated by graphviz version 3.0.0 (20220413.0106)
 -->
<!-- Title: sem_signal Pages: 1 -->
<svg width="577pt" height="199pt"
 viewBox="0.00 0.00 577.00 199.00" xmlns="http://www.w3.org/2000/svg" xmlns:xlink="http://www.w3.org/1999/xlink">
<g id="graph0" class="graph" transform="scale(1 1) rotate(0) translate(4 195)">
<title>sem_signal</title>
<!-- Node1 -->
<g id="node1" class="node">
<title>Node1</title>
<g id="a_node1"><a xlink:title="wake up a task form tasks waiting for the semaphore instance">
<polygon fill="#bfbfbf" stroke="black" points="0,-114.5 0,-133.5 66,-133.5 66,-114.5 0,-114.5"/>
<text text-anchor="middle" x="33" y="-121.5" font-family="Helvetica,sans-Serif" font-size="10.00">sem_signal</text>
</a>
</g>
</g>
<!-- Node2 -->
<g id="node2" class="node">
<title>Node2</title>
<g id="a_node2"><a xlink:href="spinlock_8c.html#ad4be0d674a7ca4dc90c2dbf8b34562cc" target="_top" xlink:title="check current cpu has the lock">
<polygon fill="none" stroke="black" points="206,-114.5 206,-133.5 277,-133.5 277,-114.5 206,-114.5"/>
<text text-anchor="middle" x="241.5" y="-121.5" font-family="Helvetica,sans-Serif" font-size="10.00">spin_holding</text>
</a>
</g>
</g>
<!-- Node1&#45;&gt;Node2 -->
<g id="edge1" class="edge">
<title>Node1&#45;&gt;Node2</title>
<path fill="none" stroke="midnightblue" d="M66.27,-124C101.04,-124 156.65,-124 195.67,-124"/>
<polygon fill="midnightblue" stroke="midnightblue" points="195.7,-127.5 205.7,-124 195.7,-120.5 195.7,-127.5"/>
</g>
<!-- Node11 -->
<g id="node11" class="node">
<title>Node11</title>
<g id="a_node11"><a xlink:href="spinlock_8c.html#ab6f3c37ec37006951feccc3c05387cce" target="_top" xlink:title="acquire spinlock to current cpu">
<polygon fill="none" stroke="black" points="107,-76.5 107,-95.5 165,-95.5 165,-76.5 107,-76.5"/>
<text text-anchor="middle" x="136" y="-83.5" font-family="Helvetica,sans-Serif" font-size="10.00">spin_lock</text>
</a>
</g>
</g>
<!-- Node1&#45;&gt;Node11 -->
<g id="edge13" class="edge">
<title>Node1&#45;&gt;Node11</title>
<path fill="none" stroke="midnightblue" d="M59.49,-114.41C71.81,-109.78 86.78,-104.14 100.14,-99.11"/>
<polygon fill="midnightblue" stroke="midnightblue" points="101.39,-102.38 109.52,-95.59 98.93,-95.83 101.39,-102.38"/>
</g>
<!-- Node14 -->
<g id="node14" class="node">
<title>Node14</title>
<g id="a_node14"><a xlink:href="spinlock_8c.html#acdf118d615a4bc4064e991add9a80995" target="_top" xlink:title="release spinlock from current cpu">
<polygon fill="none" stroke="black" points="102,-152.5 102,-171.5 170,-171.5 170,-152.5 102,-152.5"/>
<text text-anchor="middle" x="136" y="-159.5" font-family="Helvetica,sans-Serif" font-size="10.00">spin_unlock</text>
</a>
</g>
</g>
<!-- Node1&#45;&gt;Node14 -->
<g id="edge19" class="edge">
<title>Node1&#45;&gt;Node14</title>
<path fill="none" stroke="midnightblue" d="M59.49,-133.59C71.81,-138.22 86.78,-143.86 100.14,-148.89"/>
<polygon fill="midnightblue" stroke="midnightblue" points="98.93,-152.17 109.52,-152.41 101.39,-145.62 98.93,-152.17"/>
</g>
<!-- Node3 -->
<g id="node3" class="node">
<title>Node3</title>
<g id="a_node3"><a xlink:href="mpe_8c.html#ab701de78cad32896c923ce900087e714" target="_top" xlink:title=" ">
<polygon fill="none" stroke="black" points="420,-114.5 420,-133.5 488,-133.5 488,-114.5 420,-114.5"/>
<text text-anchor="middle" x="454" y="-121.5" font-family="Helvetica,sans-Serif" font-size="10.00">cpu_current</text>
</a>
</g>
</g>
<!-- Node2&#45;&gt;Node3 -->
<g id="edge2" class="edge">
<title>Node2&#45;&gt;Node3</title>
<path fill="none" stroke="midnightblue" d="M277.26,-124C313.6,-124 370.69,-124 409.88,-124"/>
<polygon fill="midnightblue" stroke="midnightblue" points="409.92,-127.5 419.92,-124 409.92,-120.5 409.92,-127.5"/>
</g>
<!-- Node4 -->
<g id="node4" class="node">
<title>Node4</title>
<g id="a_node4"><a xlink:href="spinlock_8c.html#afc9565dc7a5ddf77e1fa76f5d91caf78" target="_top" xlink:title="interrupt able">
<polygon fill="none" stroke="black" points="316,-152.5 316,-171.5 381,-171.5 381,-152.5 316,-152.5"/>
<text text-anchor="middle" x="348.5" y="-159.5" font-family="Helvetica,sans-Serif" font-size="10.00">spin_popcli</text>
</a>
</g>
</g>
<!-- Node2&#45;&gt;Node4 -->
<g id="edge3" class="edge">
<title>Node2&#45;&gt;Node4</title>
<path fill="none" stroke="midnightblue" d="M269,-133.59C281.8,-138.22 297.38,-143.86 311.26,-148.89"/>
<polygon fill="midnightblue" stroke="midnightblue" points="310.42,-152.3 321.01,-152.41 312.8,-145.72 310.42,-152.3"/>
</g>
<!-- Node8 -->
<g id="node8" class="node">
<title>Node8</title>
<g id="a_node8"><a xlink:href="spinlock_8c.html#ab213874cda54fdbbeb1bec1e5fa90b28" target="_top" xlink:title="interrupt disable">
<polygon fill="none" stroke="black" points="313,-76.5 313,-95.5 384,-95.5 384,-76.5 313,-76.5"/>
<text text-anchor="middle" x="348.5" y="-83.5" font-family="Helvetica,sans-Serif" font-size="10.00">spin_pushcli</text>
</a>
</g>
</g>
<!-- Node2&#45;&gt;Node8 -->
<g id="edge8" class="edge">
<title>Node2&#45;&gt;Node8</title>
<path fill="none" stroke="midnightblue" d="M269,-114.41C281.8,-109.78 297.38,-104.14 311.26,-99.11"/>
<polygon fill="midnightblue" stroke="midnightblue" points="312.8,-102.28 321.01,-95.59 310.42,-95.7 312.8,-102.28"/>
</g>
<!-- Node4&#45;&gt;Node3 -->
<g id="edge4" class="edge">
<title>Node4&#45;&gt;Node3</title>
<path fill="none" stroke="midnightblue" d="M375.62,-152.41C388.24,-147.78 403.59,-142.14 417.28,-137.11"/>
<polygon fill="midnightblue" stroke="midnightblue" points="418.71,-140.32 426.89,-133.59 416.3,-133.75 418.71,-140.32"/>
</g>
<!-- Node5 -->
<g id="node5" class="node">
<title>Node5</title>
<g id="a_node5"><a xlink:href="cte_8c.html#a4a139958742786c5085172be1f69bfd0" target="_top" xlink:title=" ">
<polygon fill="none" stroke="black" points="438,-152.5 438,-171.5 470,-171.5 470,-152.5 438,-152.5"/>
<text text-anchor="middle" x="454" y="-159.5" font-family="Helvetica,sans-Serif" font-size="10.00">iset</text>
</a>
</g>
</g>
<!-- Node4&#45;&gt;Node5 -->
<g id="edge5" class="edge">
<title>Node4&#45;&gt;Node5</title>
<path fill="none" stroke="midnightblue" d="M381.12,-162C395.94,-162 413.37,-162 427.36,-162"/>
<polygon fill="midnightblue" stroke="midnightblue" points="427.72,-165.5 437.72,-162 427.72,-158.5 427.72,-165.5"/>
</g>
<!-- Node6 -->
<g id="node6" class="node">
<title>Node6</title>
<g id="a_node6"><a xlink:href="x86_8h.html#acc919e7809ef1db2b20aa3804f540b5c" target="_top" xlink:title=" ">
<polygon fill="none" stroke="black" points="532,-133.5 532,-152.5 561,-152.5 561,-133.5 532,-133.5"/>
<text text-anchor="middle" x="546.5" y="-140.5" font-family="Helvetica,sans-Serif" font-size="10.00">cli</text>
</a>
</g>
</g>
<!-- Node5&#45;&gt;Node6 -->
<g id="edge6" class="edge">
<title>Node5&#45;&gt;Node6</title>
<path fill="none" stroke="midnightblue" d="M470.35,-158.78C484.5,-155.81 505.71,-151.35 521.99,-147.94"/>
<polygon fill="midnightblue" stroke="midnightblue" points="522.78,-151.35 531.85,-145.87 521.35,-144.49 522.78,-151.35"/>
</g>
<!-- Node7 -->
<g id="node7" class="node">
<title>Node7</title>
<g id="a_node7"><a xlink:href="x86_8h.html#a4657e97b270d7af5a23da2c4d642ada2" target="_top" xlink:title=" ">
<polygon fill="none" stroke="black" points="532,-171.5 532,-190.5 561,-190.5 561,-171.5 532,-171.5"/>
<text text-anchor="middle" x="546.5" y="-178.5" font-family="Helvetica,sans-Serif" font-size="10.00">sti</text>
</a>
</g>
</g>
<!-- Node5&#45;&gt;Node7 -->
<g id="edge7" class="edge">
<title>Node5&#45;&gt;Node7</title>
<path fill="none" stroke="midnightblue" d="M470.35,-165.22C484.5,-168.19 505.71,-172.65 521.99,-176.06"/>
<polygon fill="midnightblue" stroke="midnightblue" points="521.35,-179.51 531.85,-178.13 522.78,-172.65 521.35,-179.51"/>
</g>
<!-- Node8&#45;&gt;Node3 -->
<g id="edge9" class="edge">
<title>Node8&#45;&gt;Node3</title>
<path fill="none" stroke="midnightblue" d="M375.62,-95.59C388.24,-100.22 403.59,-105.86 417.28,-110.89"/>
<polygon fill="midnightblue" stroke="midnightblue" points="416.3,-114.25 426.89,-114.41 418.71,-107.68 416.3,-114.25"/>
</g>
<!-- Node8&#45;&gt;Node5 -->
<g id="edge12" class="edge">
<title>Node8&#45;&gt;Node5</title>
<path fill="none" stroke="midnightblue" d="M360.55,-95.85C374.09,-107.7 397.93,-127.87 420,-143 422.92,-145.01 426.07,-147 429.22,-148.91"/>
<polygon fill="midnightblue" stroke="midnightblue" points="427.51,-151.96 437.91,-153.97 431.03,-145.92 427.51,-151.96"/>
</g>
<!-- Node9 -->
<g id="node9" class="node">
<title>Node9</title>
<g id="a_node9"><a xlink:href="cte_8c.html#a79659a2b801c42951e38f3a8821acbae" target="_top" xlink:title=" ">
<polygon fill="none" stroke="black" points="427.5,-76.5 427.5,-95.5 480.5,-95.5 480.5,-76.5 427.5,-76.5"/>
<text text-anchor="middle" x="454" y="-83.5" font-family="Helvetica,sans-Serif" font-size="10.00">ienabled</text>
</a>
</g>
</g>
<!-- Node8&#45;&gt;Node9 -->
<g id="edge10" class="edge">
<title>Node8&#45;&gt;Node9</title>
<path fill="none" stroke="midnightblue" d="M384.25,-86C394.82,-86 406.46,-86 417.1,-86"/>
<polygon fill="midnightblue" stroke="midnightblue" points="417.34,-89.5 427.34,-86 417.34,-82.5 417.34,-89.5"/>
</g>
<!-- Node10 -->
<g id="node10" class="node">
<title>Node10</title>
<g id="a_node10"><a xlink:href="x86_8h.html#a73d094f09c6a7dd3fc703aa8229933ee" target="_top" xlink:title=" ">
<polygon fill="none" stroke="black" points="524,-76.5 524,-95.5 569,-95.5 569,-76.5 524,-76.5"/>
<text text-anchor="middle" x="546.5" y="-83.5" font-family="Helvetica,sans-Serif" font-size="10.00">get_efl</text>
</a>
</g>
</g>
<!-- Node9&#45;&gt;Node10 -->
<g id="edge11" class="edge">
<title>Node9&#45;&gt;Node10</title>
<path fill="none" stroke="midnightblue" d="M480.69,-86C490.88,-86 502.71,-86 513.45,-86"/>
<polygon fill="midnightblue" stroke="midnightblue" points="513.73,-89.5 523.73,-86 513.73,-82.5 513.73,-89.5"/>
</g>
<!-- Node11&#45;&gt;Node2 -->
<g id="edge17" class="edge">
<title>Node11&#45;&gt;Node2</title>
<path fill="none" stroke="midnightblue" d="M163.12,-95.59C175.74,-100.22 191.09,-105.86 204.78,-110.89"/>
<polygon fill="midnightblue" stroke="midnightblue" points="203.8,-114.25 214.39,-114.41 206.21,-107.68 203.8,-114.25"/>
</g>
<!-- Node11&#45;&gt;Node3 -->
<g id="edge16" class="edge">
<title>Node11&#45;&gt;Node3</title>
<path fill="none" stroke="midnightblue" d="M162.82,-76.42C209.24,-60.82 308.93,-34.71 384,-67 405.37,-76.19 401.73,-90.6 420,-105 421.77,-106.4 423.66,-107.76 425.6,-109.07"/>
<polygon fill="midnightblue" stroke="midnightblue" points="423.9,-112.13 434.23,-114.45 427.6,-106.19 423.9,-112.13"/>
</g>
<!-- Node11&#45;&gt;Node8 -->
<g id="edge18" class="edge">
<title>Node11&#45;&gt;Node8</title>
<path fill="none" stroke="midnightblue" d="M165.39,-86C200.67,-86 261.28,-86 302.81,-86"/>
<polygon fill="midnightblue" stroke="midnightblue" points="302.93,-89.5 312.93,-86 302.93,-82.5 302.93,-89.5"/>
</g>
<!-- Node12 -->
<g id="node12" class="node">
<title>Node12</title>
<g id="a_node12"><a xlink:href="mpe_8c.html#aaaad47c97c82065cf463f83b98b23c30" target="_top" xlink:title=" ">
<polygon fill="none" stroke="black" points="206,-0.5 206,-19.5 277,-19.5 277,-0.5 206,-0.5"/>
<text text-anchor="middle" x="241.5" y="-7.5" font-family="Helvetica,sans-Serif" font-size="10.00">atomic_xchg</text>
</a>
</g>
</g>
<!-- Node11&#45;&gt;Node12 -->
<g id="edge14" class="edge">
<title>Node11&#45;&gt;Node12</title>
<path fill="none" stroke="midnightblue" d="M149.61,-76.27C163.36,-65.71 186.08,-48.43 206,-34 209.83,-31.23 213.92,-28.32 217.91,-25.53"/>
<polygon fill="midnightblue" stroke="midnightblue" points="220.1,-28.27 226.31,-19.69 216.11,-22.52 220.1,-28.27"/>
</g>
<!-- Node13 -->
<g id="node13" class="node">
<title>Node13</title>
<g id="a_node13"><a xlink:href="x86_8h.html#a48b2a6a16dc8d7e09d327aa3803f1112" target="_top" xlink:title=" ">
<polygon fill="none" stroke="black" points="330,-0.5 330,-19.5 367,-19.5 367,-0.5 330,-0.5"/>
<text text-anchor="middle" x="348.5" y="-7.5" font-family="Helvetica,sans-Serif" font-size="10.00">xchg</text>
</a>
</g>
</g>
<!-- Node12&#45;&gt;Node13 -->
<g id="edge15" class="edge">
<title>Node12&#45;&gt;Node13</title>
<path fill="none" stroke="midnightblue" d="M277.17,-10C290.99,-10 306.67,-10 319.71,-10"/>
<polygon fill="midnightblue" stroke="midnightblue" points="319.95,-13.5 329.95,-10 319.95,-6.5 319.95,-13.5"/>
</g>
<!-- Node14&#45;&gt;Node2 -->
<g id="edge20" class="edge">
<title>Node14&#45;&gt;Node2</title>
<path fill="none" stroke="midnightblue" d="M163.12,-152.41C175.74,-147.78 191.09,-142.14 204.78,-137.11"/>
<polygon fill="midnightblue" stroke="midnightblue" points="206.21,-140.32 214.39,-133.59 203.8,-133.75 206.21,-140.32"/>
</g>
<!-- Node14&#45;&gt;Node4 -->
<g id="edge21" class="edge">
<title>Node14&#45;&gt;Node4</title>
<path fill="none" stroke="midnightblue" d="M170.35,-162C206.96,-162 265.8,-162 305.52,-162"/>
<polygon fill="midnightblue" stroke="midnightblue" points="305.68,-165.5 315.68,-162 305.68,-158.5 305.68,-165.5"/>
</g>
</g>
</svg>
