<?xml version="1.0" encoding="UTF-8" standalone="no"?>
<!DOCTYPE svg PUBLIC "-//W3C//DTD SVG 1.1//EN"
 "http://www.w3.org/Graphics/SVG/1.1/DTD/svg11.dtd">
<!-- Generated by graphviz version 3.0.0 (20220413.0106)
 -->
<!-- Title: kernel/include/sem.h Pages: 1 -->
<svg width="595pt" height="151pt"
 viewBox="0.00 0.00 594.50 151.00" xmlns="http://www.w3.org/2000/svg" xmlns:xlink="http://www.w3.org/1999/xlink">
<g id="graph0" class="graph" transform="scale(1 1) rotate(0) translate(4 147)">
<title>kernel/include/sem.h</title>
<!-- Node1 -->
<g id="node1" class="node">
<title>Node1</title>
<g id="a_node1"><a xlink:title=" ">
<polygon fill="#bfbfbf" stroke="black" points="366,-123.5 366,-142.5 472,-142.5 472,-123.5 366,-123.5"/>
<text text-anchor="middle" x="419" y="-130.5" font-family="Helvetica,sans-Serif" font-size="10.00">kernel/include/sem.h</text>
</a>
</g>
</g>
<!-- Node2 -->
<g id="node2" class="node">
<title>Node2</title>
<g id="a_node2"><a xlink:href="devices_8h.html" target="_top" xlink:title=" ">
<polygon fill="none" stroke="black" points="236.5,-67.5 236.5,-86.5 357.5,-86.5 357.5,-67.5 236.5,-67.5"/>
<text text-anchor="middle" x="297" y="-74.5" font-family="Helvetica,sans-Serif" font-size="10.00">kernel/include/devices.h</text>
</a>
</g>
</g>
<!-- Node1&#45;&gt;Node2 -->
<g id="edge1" class="edge">
<title>Node1&#45;&gt;Node2</title>
<path fill="none" stroke="midnightblue" d="M390.46,-119.37C367.61,-109.26 336.19,-95.35 316.24,-86.52"/>
<polygon fill="midnightblue" stroke="midnightblue" points="389.11,-122.6 399.67,-123.44 391.94,-116.2 389.11,-122.6"/>
</g>
<!-- Node8 -->
<g id="node8" class="node">
<title>Node8</title>
<g id="a_node8"><a xlink:href="kmt_8c.html" target="_top" xlink:title=" ">
<polygon fill="none" stroke="black" points="376,-67.5 376,-86.5 462,-86.5 462,-67.5 376,-67.5"/>
<text text-anchor="middle" x="419" y="-74.5" font-family="Helvetica,sans-Serif" font-size="10.00">kernel/src/kmt.c</text>
</a>
</g>
</g>
<!-- Node1&#45;&gt;Node8 -->
<g id="edge7" class="edge">
<title>Node1&#45;&gt;Node8</title>
<path fill="none" stroke="midnightblue" d="M419,-112.8C419,-103.91 419,-93.78 419,-86.75"/>
<polygon fill="midnightblue" stroke="midnightblue" points="415.5,-113.08 419,-123.08 422.5,-113.08 415.5,-113.08"/>
</g>
<!-- Node9 -->
<g id="node9" class="node">
<title>Node9</title>
<g id="a_node9"><a xlink:href="sem_8c.html" target="_top" xlink:title=" ">
<polygon fill="none" stroke="black" points="480.5,-67.5 480.5,-86.5 569.5,-86.5 569.5,-67.5 480.5,-67.5"/>
<text text-anchor="middle" x="525" y="-74.5" font-family="Helvetica,sans-Serif" font-size="10.00">kernel/src/sem.c</text>
</a>
</g>
</g>
<!-- Node1&#45;&gt;Node9 -->
<g id="edge8" class="edge">
<title>Node1&#45;&gt;Node9</title>
<path fill="none" stroke="midnightblue" d="M445.06,-118.73C464.68,-108.73 491.03,-95.31 508.01,-86.65"/>
<polygon fill="midnightblue" stroke="midnightblue" points="443.35,-115.67 436.03,-123.32 446.53,-121.9 443.35,-115.67"/>
</g>
<!-- Node3 -->
<g id="node3" class="node">
<title>Node3</title>
<g id="a_node3"><a xlink:href="dev_8c.html" target="_top" xlink:title=" ">
<polygon fill="none" stroke="black" points="0,-6 0,-25 104,-25 104,-6 0,-6"/>
<text text-anchor="middle" x="52" y="-13" font-family="Helvetica,sans-Serif" font-size="10.00">kernel/src/dev/dev.c</text>
</a>
</g>
</g>
<!-- Node2&#45;&gt;Node3 -->
<g id="edge2" class="edge">
<title>Node2&#45;&gt;Node3</title>
<path fill="none" stroke="midnightblue" d="M252.17,-65.11C204.62,-53.57 130.49,-35.56 87.04,-25.01"/>
<polygon fill="midnightblue" stroke="midnightblue" points="251.35,-68.52 261.9,-67.48 253.01,-61.71 251.35,-68.52"/>
</g>
<!-- Node4 -->
<g id="node4" class="node">
<title>Node4</title>
<g id="a_node4"><a xlink:href="dev__input_8c.html" target="_top" xlink:title=" ">
<polygon fill="none" stroke="black" points="122.5,-0.5 122.5,-30.5 219.5,-30.5 219.5,-0.5 122.5,-0.5"/>
<text text-anchor="start" x="130.5" y="-18.5" font-family="Helvetica,sans-Serif" font-size="10.00">kernel/src/dev/dev</text>
<text text-anchor="middle" x="171" y="-7.5" font-family="Helvetica,sans-Serif" font-size="10.00">_input.c</text>
</a>
</g>
</g>
<!-- Node2&#45;&gt;Node4 -->
<g id="edge3" class="edge">
<title>Node2&#45;&gt;Node4</title>
<path fill="none" stroke="midnightblue" d="M269.89,-63.2C249.53,-53.58 221.66,-40.42 200.7,-30.52"/>
<polygon fill="midnightblue" stroke="midnightblue" points="268.41,-66.37 278.95,-67.48 271.4,-60.04 268.41,-66.37"/>
</g>
<!-- Node5 -->
<g id="node5" class="node">
<title>Node5</title>
<g id="a_node5"><a xlink:href="dev__sd_8c.html" target="_top" xlink:title=" ">
<polygon fill="none" stroke="black" points="237,-6 237,-25 357,-25 357,-6 237,-6"/>
<text text-anchor="middle" x="297" y="-13" font-family="Helvetica,sans-Serif" font-size="10.00">kernel/src/dev/dev_sd.c</text>
</a>
</g>
</g>
<!-- Node2&#45;&gt;Node5 -->
<g id="edge4" class="edge">
<title>Node2&#45;&gt;Node5</title>
<path fill="none" stroke="midnightblue" d="M297,-57.32C297,-46.5 297,-33.4 297,-25.01"/>
<polygon fill="midnightblue" stroke="midnightblue" points="293.5,-57.48 297,-67.48 300.5,-57.48 293.5,-57.48"/>
</g>
<!-- Node6 -->
<g id="node6" class="node">
<title>Node6</title>
<g id="a_node6"><a xlink:href="dev__tty_8c.html" target="_top" xlink:title=" ">
<polygon fill="none" stroke="black" points="374.5,-0.5 374.5,-30.5 471.5,-30.5 471.5,-0.5 374.5,-0.5"/>
<text text-anchor="start" x="382.5" y="-18.5" font-family="Helvetica,sans-Serif" font-size="10.00">kernel/src/dev/dev</text>
<text text-anchor="middle" x="423" y="-7.5" font-family="Helvetica,sans-Serif" font-size="10.00">_tty.c</text>
</a>
</g>
</g>
<!-- Node2&#45;&gt;Node6 -->
<g id="edge5" class="edge">
<title>Node2&#45;&gt;Node6</title>
<path fill="none" stroke="midnightblue" d="M324.11,-63.2C344.47,-53.58 372.34,-40.42 393.3,-30.52"/>
<polygon fill="midnightblue" stroke="midnightblue" points="322.6,-60.04 315.05,-67.48 325.59,-66.37 322.6,-60.04"/>
</g>
<!-- Node7 -->
<g id="node7" class="node">
<title>Node7</title>
<g id="a_node7"><a xlink:href="dev__video_8c.html" target="_top" xlink:title=" ">
<polygon fill="none" stroke="black" points="489.5,-0.5 489.5,-30.5 586.5,-30.5 586.5,-0.5 489.5,-0.5"/>
<text text-anchor="start" x="497.5" y="-18.5" font-family="Helvetica,sans-Serif" font-size="10.00">kernel/src/dev/dev</text>
<text text-anchor="middle" x="538" y="-7.5" font-family="Helvetica,sans-Serif" font-size="10.00">_video.c</text>
</a>
</g>
</g>
<!-- Node2&#45;&gt;Node7 -->
<g id="edge6" class="edge">
<title>Node2&#45;&gt;Node7</title>
<path fill="none" stroke="midnightblue" d="M342.34,-65.04C379.6,-55.99 433.75,-42.79 481,-31 483.77,-30.31 486.62,-29.59 489.5,-28.87"/>
<polygon fill="midnightblue" stroke="midnightblue" points="341.19,-61.71 332.3,-67.47 342.84,-68.51 341.19,-61.71"/>
</g>
</g>
</svg>
