<?xml version="1.0" encoding="UTF-8" standalone="no"?>
<!DOCTYPE svg PUBLIC "-//W3C//DTD SVG 1.1//EN"
 "http://www.w3.org/Graphics/SVG/1.1/DTD/svg11.dtd">
<!-- Generated by graphviz version 3.0.0 (20220413.0106)
 -->
<!-- Title: sem_init Pages: 1 -->
<svg width="180pt" height="66pt"
 viewBox="0.00 0.00 180.00 66.00" xmlns="http://www.w3.org/2000/svg" xmlns:xlink="http://www.w3.org/1999/xlink">
<g id="graph0" class="graph" transform="scale(1 1) rotate(0) translate(4 62)">
<title>sem_init</title>
<!-- Node1 -->
<g id="node1" class="node">
<title>Node1</title>
<g id="a_node1"><a xlink:title="init a semaphore">
<polygon fill="#bfbfbf" stroke="black" points="119,-19.5 119,-38.5 172,-38.5 172,-19.5 119,-19.5"/>
<text text-anchor="middle" x="145.5" y="-26.5" font-family="Helvetica,sans-Serif" font-size="10.00">sem_init</text>
</a>
</g>
</g>
<!-- Node2 -->
<g id="node2" class="node">
<title>Node2</title>
<g id="a_node2"><a xlink:href="kernel_8h.html#a7ef2d722f9c7f8acc1801144a5188825" target="_top" xlink:title=" ">
<polygon fill="none" stroke="black" points="12,-38.5 12,-57.5 71,-57.5 71,-38.5 12,-38.5"/>
<text text-anchor="middle" x="41.5" y="-45.5" font-family="Helvetica,sans-Serif" font-size="10.00">MODULE</text>
</a>
</g>
</g>
<!-- Node1&#45;&gt;Node2 -->
<g id="edge1" class="edge">
<title>Node1&#45;&gt;Node2</title>
<path fill="none" stroke="midnightblue" d="M108.78,-35.65C96.45,-37.95 82.8,-40.49 71.11,-42.67"/>
<polygon fill="midnightblue" stroke="midnightblue" points="109.57,-39.07 118.76,-33.79 108.29,-32.19 109.57,-39.07"/>
</g>
<!-- Node3 -->
<g id="node3" class="node">
<title>Node3</title>
<g id="a_node3"><a xlink:href="kmt_8c.html#af360ef0d98ca30e481cc58ea3695fd58" target="_top" xlink:title=" ">
<polygon fill="none" stroke="black" points="0,-0.5 0,-19.5 83,-19.5 83,-0.5 0,-0.5"/>
<text text-anchor="middle" x="41.5" y="-7.5" font-family="Helvetica,sans-Serif" font-size="10.00">MODULE_DEF</text>
</a>
</g>
</g>
<!-- Node1&#45;&gt;Node3 -->
<g id="edge2" class="edge">
<title>Node1&#45;&gt;Node3</title>
<path fill="none" stroke="midnightblue" d="M108.74,-22.34C100.52,-20.81 91.73,-19.17 83.32,-17.6"/>
<polygon fill="midnightblue" stroke="midnightblue" points="108.29,-25.81 118.76,-24.21 109.57,-18.93 108.29,-25.81"/>
</g>
</g>
</svg>
