<?xml version="1.0" encoding="UTF-8" standalone="no"?>
<!DOCTYPE svg PUBLIC "-//W3C//DTD SVG 1.1//EN"
 "http://www.w3.org/Graphics/SVG/1.1/DTD/svg11.dtd">
<!-- Generated by graphviz version 3.0.0 (20220413.0106)
 -->
<!-- Title: sem_wait Pages: 1 -->
<svg width="570pt" height="199pt"
 viewBox="0.00 0.00 570.00 199.00" xmlns="http://www.w3.org/2000/svg" xmlns:xlink="http://www.w3.org/1999/xlink">
<g id="graph0" class="graph" transform="scale(1 1) rotate(0) translate(4 195)">
<title>sem_wait</title>
<!-- Node1 -->
<g id="node1" class="node">
<title>Node1</title>
<g id="a_node1"><a xlink:title="release semaphore(Mutex) and sleep task holding the sem">
<polygon fill="#bfbfbf" stroke="black" points="0,-95.5 0,-114.5 59,-114.5 59,-95.5 0,-95.5"/>
<text text-anchor="middle" x="29.5" y="-102.5" font-family="Helvetica,sans-Serif" font-size="10.00">sem_wait</text>
</a>
</g>
</g>
<!-- Node2 -->
<g id="node2" class="node">
<title>Node2</title>
<g id="a_node2"><a xlink:href="spinlock_8c.html#ad4be0d674a7ca4dc90c2dbf8b34562cc" target="_top" xlink:title="check current cpu has the lock">
<polygon fill="none" stroke="black" points="199,-114.5 199,-133.5 270,-133.5 270,-114.5 199,-114.5"/>
<text text-anchor="middle" x="234.5" y="-121.5" font-family="Helvetica,sans-Serif" font-size="10.00">spin_holding</text>
</a>
</g>
</g>
<!-- Node1&#45;&gt;Node2 -->
<g id="edge1" class="edge">
<title>Node1&#45;&gt;Node2</title>
<path fill="none" stroke="midnightblue" d="M59.15,-107.68C92.86,-110.84 149.23,-116.11 188.72,-119.81"/>
<polygon fill="midnightblue" stroke="midnightblue" points="188.59,-123.31 198.88,-120.76 189.25,-116.34 188.59,-123.31"/>
</g>
<!-- Node11 -->
<g id="node11" class="node">
<title>Node11</title>
<g id="a_node11"><a xlink:href="spinlock_8c.html#ab6f3c37ec37006951feccc3c05387cce" target="_top" xlink:title="acquire spinlock to current cpu">
<polygon fill="none" stroke="black" points="100,-76.5 100,-95.5 158,-95.5 158,-76.5 100,-76.5"/>
<text text-anchor="middle" x="129" y="-83.5" font-family="Helvetica,sans-Serif" font-size="10.00">spin_lock</text>
</a>
</g>
</g>
<!-- Node1&#45;&gt;Node11 -->
<g id="edge13" class="edge">
<title>Node1&#45;&gt;Node11</title>
<path fill="none" stroke="midnightblue" d="M59.23,-99.4C68.83,-97.53 79.69,-95.41 89.9,-93.42"/>
<polygon fill="midnightblue" stroke="midnightblue" points="90.67,-96.84 99.82,-91.49 89.33,-89.97 90.67,-96.84"/>
</g>
<!-- Node14 -->
<g id="node14" class="node">
<title>Node14</title>
<g id="a_node14"><a xlink:href="spinlock_8c.html#acdf118d615a4bc4064e991add9a80995" target="_top" xlink:title="release spinlock from current cpu">
<polygon fill="none" stroke="black" points="95,-152.5 95,-171.5 163,-171.5 163,-152.5 95,-152.5"/>
<text text-anchor="middle" x="129" y="-159.5" font-family="Helvetica,sans-Serif" font-size="10.00">spin_unlock</text>
</a>
</g>
</g>
<!-- Node1&#45;&gt;Node14 -->
<g id="edge19" class="edge">
<title>Node1&#45;&gt;Node14</title>
<path fill="none" stroke="midnightblue" d="M47.04,-114.67C62.26,-123.57 85.06,-136.9 102.59,-147.14"/>
<polygon fill="midnightblue" stroke="midnightblue" points="101.31,-150.45 111.7,-152.47 104.84,-144.4 101.31,-150.45"/>
</g>
<!-- Node15 -->
<g id="node15" class="node">
<title>Node15</title>
<g id="a_node15"><a xlink:href="cte_8c.html#a58c8b2ad0ea491a6642e5e1cbd358c89" target="_top" xlink:title=" ">
<polygon fill="none" stroke="black" points="111,-38.5 111,-57.5 147,-57.5 147,-38.5 111,-38.5"/>
<text text-anchor="middle" x="129" y="-45.5" font-family="Helvetica,sans-Serif" font-size="10.00">yield</text>
</a>
</g>
</g>
<!-- Node1&#45;&gt;Node15 -->
<g id="edge22" class="edge">
<title>Node1&#45;&gt;Node15</title>
<path fill="none" stroke="midnightblue" d="M46.64,-95.43C59.67,-87.72 78.49,-76.62 95,-67 97.38,-65.61 99.86,-64.17 102.35,-62.74"/>
<polygon fill="midnightblue" stroke="midnightblue" points="104.28,-65.66 111.19,-57.63 100.78,-59.6 104.28,-65.66"/>
</g>
<!-- Node3 -->
<g id="node3" class="node">
<title>Node3</title>
<g id="a_node3"><a xlink:href="mpe_8c.html#ab701de78cad32896c923ce900087e714" target="_top" xlink:title=" ">
<polygon fill="none" stroke="black" points="413,-114.5 413,-133.5 481,-133.5 481,-114.5 413,-114.5"/>
<text text-anchor="middle" x="447" y="-121.5" font-family="Helvetica,sans-Serif" font-size="10.00">cpu_current</text>
</a>
</g>
</g>
<!-- Node2&#45;&gt;Node3 -->
<g id="edge2" class="edge">
<title>Node2&#45;&gt;Node3</title>
<path fill="none" stroke="midnightblue" d="M270.26,-124C306.6,-124 363.69,-124 402.88,-124"/>
<polygon fill="midnightblue" stroke="midnightblue" points="402.92,-127.5 412.92,-124 402.92,-120.5 402.92,-127.5"/>
</g>
<!-- Node4 -->
<g id="node4" class="node">
<title>Node4</title>
<g id="a_node4"><a xlink:href="spinlock_8c.html#afc9565dc7a5ddf77e1fa76f5d91caf78" target="_top" xlink:title="interrupt able">
<polygon fill="none" stroke="black" points="309,-152.5 309,-171.5 374,-171.5 374,-152.5 309,-152.5"/>
<text text-anchor="middle" x="341.5" y="-159.5" font-family="Helvetica,sans-Serif" font-size="10.00">spin_popcli</text>
</a>
</g>
</g>
<!-- Node2&#45;&gt;Node4 -->
<g id="edge3" class="edge">
<title>Node2&#45;&gt;Node4</title>
<path fill="none" stroke="midnightblue" d="M262,-133.59C274.8,-138.22 290.38,-143.86 304.26,-148.89"/>
<polygon fill="midnightblue" stroke="midnightblue" points="303.42,-152.3 314.01,-152.41 305.8,-145.72 303.42,-152.3"/>
</g>
<!-- Node8 -->
<g id="node8" class="node">
<title>Node8</title>
<g id="a_node8"><a xlink:href="spinlock_8c.html#ab213874cda54fdbbeb1bec1e5fa90b28" target="_top" xlink:title="interrupt disable">
<polygon fill="none" stroke="black" points="306,-76.5 306,-95.5 377,-95.5 377,-76.5 306,-76.5"/>
<text text-anchor="middle" x="341.5" y="-83.5" font-family="Helvetica,sans-Serif" font-size="10.00">spin_pushcli</text>
</a>
</g>
</g>
<!-- Node2&#45;&gt;Node8 -->
<g id="edge8" class="edge">
<title>Node2&#45;&gt;Node8</title>
<path fill="none" stroke="midnightblue" d="M262,-114.41C274.8,-109.78 290.38,-104.14 304.26,-99.11"/>
<polygon fill="midnightblue" stroke="midnightblue" points="305.8,-102.28 314.01,-95.59 303.42,-95.7 305.8,-102.28"/>
</g>
<!-- Node4&#45;&gt;Node3 -->
<g id="edge4" class="edge">
<title>Node4&#45;&gt;Node3</title>
<path fill="none" stroke="midnightblue" d="M368.62,-152.41C381.24,-147.78 396.59,-142.14 410.28,-137.11"/>
<polygon fill="midnightblue" stroke="midnightblue" points="411.71,-140.32 419.89,-133.59 409.3,-133.75 411.71,-140.32"/>
</g>
<!-- Node5 -->
<g id="node5" class="node">
<title>Node5</title>
<g id="a_node5"><a xlink:href="cte_8c.html#a4a139958742786c5085172be1f69bfd0" target="_top" xlink:title=" ">
<polygon fill="none" stroke="black" points="431,-152.5 431,-171.5 463,-171.5 463,-152.5 431,-152.5"/>
<text text-anchor="middle" x="447" y="-159.5" font-family="Helvetica,sans-Serif" font-size="10.00">iset</text>
</a>
</g>
</g>
<!-- Node4&#45;&gt;Node5 -->
<g id="edge5" class="edge">
<title>Node4&#45;&gt;Node5</title>
<path fill="none" stroke="midnightblue" d="M374.12,-162C388.94,-162 406.37,-162 420.36,-162"/>
<polygon fill="midnightblue" stroke="midnightblue" points="420.72,-165.5 430.72,-162 420.72,-158.5 420.72,-165.5"/>
</g>
<!-- Node6 -->
<g id="node6" class="node">
<title>Node6</title>
<g id="a_node6"><a xlink:href="x86_8h.html#acc919e7809ef1db2b20aa3804f540b5c" target="_top" xlink:title=" ">
<polygon fill="none" stroke="black" points="525,-133.5 525,-152.5 554,-152.5 554,-133.5 525,-133.5"/>
<text text-anchor="middle" x="539.5" y="-140.5" font-family="Helvetica,sans-Serif" font-size="10.00">cli</text>
</a>
</g>
</g>
<!-- Node5&#45;&gt;Node6 -->
<g id="edge6" class="edge">
<title>Node5&#45;&gt;Node6</title>
<path fill="none" stroke="midnightblue" d="M463.35,-158.78C477.5,-155.81 498.71,-151.35 514.99,-147.94"/>
<polygon fill="midnightblue" stroke="midnightblue" points="515.78,-151.35 524.85,-145.87 514.35,-144.49 515.78,-151.35"/>
</g>
<!-- Node7 -->
<g id="node7" class="node">
<title>Node7</title>
<g id="a_node7"><a xlink:href="x86_8h.html#a4657e97b270d7af5a23da2c4d642ada2" target="_top" xlink:title=" ">
<polygon fill="none" stroke="black" points="525,-171.5 525,-190.5 554,-190.5 554,-171.5 525,-171.5"/>
<text text-anchor="middle" x="539.5" y="-178.5" font-family="Helvetica,sans-Serif" font-size="10.00">sti</text>
</a>
</g>
</g>
<!-- Node5&#45;&gt;Node7 -->
<g id="edge7" class="edge">
<title>Node5&#45;&gt;Node7</title>
<path fill="none" stroke="midnightblue" d="M463.35,-165.22C477.5,-168.19 498.71,-172.65 514.99,-176.06"/>
<polygon fill="midnightblue" stroke="midnightblue" points="514.35,-179.51 524.85,-178.13 515.78,-172.65 514.35,-179.51"/>
</g>
<!-- Node8&#45;&gt;Node3 -->
<g id="edge9" class="edge">
<title>Node8&#45;&gt;Node3</title>
<path fill="none" stroke="midnightblue" d="M368.62,-95.59C381.24,-100.22 396.59,-105.86 410.28,-110.89"/>
<polygon fill="midnightblue" stroke="midnightblue" points="409.3,-114.25 419.89,-114.41 411.71,-107.68 409.3,-114.25"/>
</g>
<!-- Node8&#45;&gt;Node5 -->
<g id="edge12" class="edge">
<title>Node8&#45;&gt;Node5</title>
<path fill="none" stroke="midnightblue" d="M353.55,-95.85C367.09,-107.7 390.93,-127.87 413,-143 415.92,-145.01 419.07,-147 422.22,-148.91"/>
<polygon fill="midnightblue" stroke="midnightblue" points="420.51,-151.96 430.91,-153.97 424.03,-145.92 420.51,-151.96"/>
</g>
<!-- Node9 -->
<g id="node9" class="node">
<title>Node9</title>
<g id="a_node9"><a xlink:href="cte_8c.html#a79659a2b801c42951e38f3a8821acbae" target="_top" xlink:title=" ">
<polygon fill="none" stroke="black" points="420.5,-76.5 420.5,-95.5 473.5,-95.5 473.5,-76.5 420.5,-76.5"/>
<text text-anchor="middle" x="447" y="-83.5" font-family="Helvetica,sans-Serif" font-size="10.00">ienabled</text>
</a>
</g>
</g>
<!-- Node8&#45;&gt;Node9 -->
<g id="edge10" class="edge">
<title>Node8&#45;&gt;Node9</title>
<path fill="none" stroke="midnightblue" d="M377.25,-86C387.82,-86 399.46,-86 410.1,-86"/>
<polygon fill="midnightblue" stroke="midnightblue" points="410.34,-89.5 420.34,-86 410.34,-82.5 410.34,-89.5"/>
</g>
<!-- Node10 -->
<g id="node10" class="node">
<title>Node10</title>
<g id="a_node10"><a xlink:href="x86_8h.html#a73d094f09c6a7dd3fc703aa8229933ee" target="_top" xlink:title=" ">
<polygon fill="none" stroke="black" points="517,-76.5 517,-95.5 562,-95.5 562,-76.5 517,-76.5"/>
<text text-anchor="middle" x="539.5" y="-83.5" font-family="Helvetica,sans-Serif" font-size="10.00">get_efl</text>
</a>
</g>
</g>
<!-- Node9&#45;&gt;Node10 -->
<g id="edge11" class="edge">
<title>Node9&#45;&gt;Node10</title>
<path fill="none" stroke="midnightblue" d="M473.69,-86C483.88,-86 495.71,-86 506.45,-86"/>
<polygon fill="midnightblue" stroke="midnightblue" points="506.73,-89.5 516.73,-86 506.73,-82.5 506.73,-89.5"/>
</g>
<!-- Node11&#45;&gt;Node2 -->
<g id="edge17" class="edge">
<title>Node11&#45;&gt;Node2</title>
<path fill="none" stroke="midnightblue" d="M156.12,-95.59C168.74,-100.22 184.09,-105.86 197.78,-110.89"/>
<polygon fill="midnightblue" stroke="midnightblue" points="196.8,-114.25 207.39,-114.41 199.21,-107.68 196.8,-114.25"/>
</g>
<!-- Node11&#45;&gt;Node3 -->
<g id="edge16" class="edge">
<title>Node11&#45;&gt;Node3</title>
<path fill="none" stroke="midnightblue" d="M155.82,-76.42C202.24,-60.82 301.93,-34.71 377,-67 398.37,-76.19 394.73,-90.6 413,-105 414.77,-106.4 416.66,-107.76 418.6,-109.07"/>
<polygon fill="midnightblue" stroke="midnightblue" points="416.9,-112.13 427.23,-114.45 420.6,-106.19 416.9,-112.13"/>
</g>
<!-- Node11&#45;&gt;Node8 -->
<g id="edge18" class="edge">
<title>Node11&#45;&gt;Node8</title>
<path fill="none" stroke="midnightblue" d="M158.39,-86C193.67,-86 254.28,-86 295.81,-86"/>
<polygon fill="midnightblue" stroke="midnightblue" points="295.93,-89.5 305.93,-86 295.93,-82.5 295.93,-89.5"/>
</g>
<!-- Node12 -->
<g id="node12" class="node">
<title>Node12</title>
<g id="a_node12"><a xlink:href="mpe_8c.html#aaaad47c97c82065cf463f83b98b23c30" target="_top" xlink:title=" ">
<polygon fill="none" stroke="black" points="199,-0.5 199,-19.5 270,-19.5 270,-0.5 199,-0.5"/>
<text text-anchor="middle" x="234.5" y="-7.5" font-family="Helvetica,sans-Serif" font-size="10.00">atomic_xchg</text>
</a>
</g>
</g>
<!-- Node11&#45;&gt;Node12 -->
<g id="edge14" class="edge">
<title>Node11&#45;&gt;Node12</title>
<path fill="none" stroke="midnightblue" d="M148.26,-76.44C153.18,-73.61 158.41,-70.36 163,-67 180.51,-54.17 182.05,-47.56 199,-34 202.62,-31.1 206.57,-28.16 210.47,-25.38"/>
<polygon fill="midnightblue" stroke="midnightblue" points="212.54,-28.2 218.75,-19.62 208.54,-22.46 212.54,-28.2"/>
</g>
<!-- Node13 -->
<g id="node13" class="node">
<title>Node13</title>
<g id="a_node13"><a xlink:href="x86_8h.html#a48b2a6a16dc8d7e09d327aa3803f1112" target="_top" xlink:title=" ">
<polygon fill="none" stroke="black" points="323,-0.5 323,-19.5 360,-19.5 360,-0.5 323,-0.5"/>
<text text-anchor="middle" x="341.5" y="-7.5" font-family="Helvetica,sans-Serif" font-size="10.00">xchg</text>
</a>
</g>
</g>
<!-- Node12&#45;&gt;Node13 -->
<g id="edge15" class="edge">
<title>Node12&#45;&gt;Node13</title>
<path fill="none" stroke="midnightblue" d="M270.17,-10C283.99,-10 299.67,-10 312.71,-10"/>
<polygon fill="midnightblue" stroke="midnightblue" points="312.95,-13.5 322.95,-10 312.95,-6.5 312.95,-13.5"/>
</g>
<!-- Node14&#45;&gt;Node2 -->
<g id="edge20" class="edge">
<title>Node14&#45;&gt;Node2</title>
<path fill="none" stroke="midnightblue" d="M156.12,-152.41C168.74,-147.78 184.09,-142.14 197.78,-137.11"/>
<polygon fill="midnightblue" stroke="midnightblue" points="199.21,-140.32 207.39,-133.59 196.8,-133.75 199.21,-140.32"/>
</g>
<!-- Node14&#45;&gt;Node4 -->
<g id="edge21" class="edge">
<title>Node14&#45;&gt;Node4</title>
<path fill="none" stroke="midnightblue" d="M163.35,-162C199.96,-162 258.8,-162 298.52,-162"/>
<polygon fill="midnightblue" stroke="midnightblue" points="298.68,-165.5 308.68,-162 298.68,-158.5 298.68,-165.5"/>
</g>
</g>
</svg>
