<?xml version="1.0" encoding="UTF-8" standalone="no"?>
<!DOCTYPE svg PUBLIC "-//W3C//DTD SVG 1.1//EN"
 "http://www.w3.org/Graphics/SVG/1.1/DTD/svg11.dtd">
<!-- Generated by graphviz version 3.0.0 (20220413.0106)
 -->
<!-- Title: spin_unlock Pages: 1 -->
<svg width="475pt" height="123pt"
 viewBox="0.00 0.00 475.00 123.00" xmlns="http://www.w3.org/2000/svg" xmlns:xlink="http://www.w3.org/1999/xlink">
<g id="graph0" class="graph" transform="scale(1 1) rotate(0) translate(4 119)">
<title>spin_unlock</title>
<!-- Node1 -->
<g id="node1" class="node">
<title>Node1</title>
<g id="a_node1"><a xlink:title="release spinlock from current cpu">
<polygon fill="#bfbfbf" stroke="black" points="0,-57.5 0,-76.5 68,-76.5 68,-57.5 0,-57.5"/>
<text text-anchor="middle" x="34" y="-64.5" font-family="Helvetica,sans-Serif" font-size="10.00">spin_unlock</text>
</a>
</g>
</g>
<!-- Node2 -->
<g id="node2" class="node">
<title>Node2</title>
<g id="a_node2"><a xlink:href="spinlock_8c.html#ad4be0d674a7ca4dc90c2dbf8b34562cc" target="_top" xlink:title="check current cpu has the lock">
<polygon fill="none" stroke="black" points="104,-38.5 104,-57.5 175,-57.5 175,-38.5 104,-38.5"/>
<text text-anchor="middle" x="139.5" y="-45.5" font-family="Helvetica,sans-Serif" font-size="10.00">spin_holding</text>
</a>
</g>
</g>
<!-- Node1&#45;&gt;Node2 -->
<g id="edge1" class="edge">
<title>Node1&#45;&gt;Node2</title>
<path fill="none" stroke="midnightblue" d="M68.03,-60.94C76.28,-59.42 85.26,-57.77 93.97,-56.17"/>
<polygon fill="midnightblue" stroke="midnightblue" points="94.8,-59.58 104,-54.33 93.53,-52.7 94.8,-59.58"/>
</g>
<!-- Node4 -->
<g id="node4" class="node">
<title>Node4</title>
<g id="a_node4"><a xlink:href="spinlock_8c.html#afc9565dc7a5ddf77e1fa76f5d91caf78" target="_top" xlink:title="interrupt able">
<polygon fill="none" stroke="black" points="214,-76.5 214,-95.5 279,-95.5 279,-76.5 214,-76.5"/>
<text text-anchor="middle" x="246.5" y="-83.5" font-family="Helvetica,sans-Serif" font-size="10.00">spin_popcli</text>
</a>
</g>
</g>
<!-- Node1&#45;&gt;Node4 -->
<g id="edge13" class="edge">
<title>Node1&#45;&gt;Node4</title>
<path fill="none" stroke="midnightblue" d="M68.35,-70.01C104.96,-73.31 163.8,-78.63 203.52,-82.21"/>
<polygon fill="midnightblue" stroke="midnightblue" points="203.41,-85.71 213.68,-83.13 204.03,-78.74 203.41,-85.71"/>
</g>
<!-- Node3 -->
<g id="node3" class="node">
<title>Node3</title>
<g id="a_node3"><a xlink:href="mpe_8c.html#ab701de78cad32896c923ce900087e714" target="_top" xlink:title=" ">
<polygon fill="none" stroke="black" points="318,-38.5 318,-57.5 386,-57.5 386,-38.5 318,-38.5"/>
<text text-anchor="middle" x="352" y="-45.5" font-family="Helvetica,sans-Serif" font-size="10.00">cpu_current</text>
</a>
</g>
</g>
<!-- Node2&#45;&gt;Node3 -->
<g id="edge2" class="edge">
<title>Node2&#45;&gt;Node3</title>
<path fill="none" stroke="midnightblue" d="M168.97,-38.5C181.67,-34.73 196.93,-30.86 211,-29 242.28,-24.86 250.73,-24.77 282,-29 292.34,-30.4 303.33,-32.92 313.42,-35.69"/>
<polygon fill="midnightblue" stroke="midnightblue" points="312.58,-39.09 323.16,-38.5 314.52,-32.36 312.58,-39.09"/>
</g>
<!-- Node2&#45;&gt;Node4 -->
<g id="edge3" class="edge">
<title>Node2&#45;&gt;Node4</title>
<path fill="none" stroke="midnightblue" d="M167,-57.59C179.8,-62.22 195.38,-67.86 209.26,-72.89"/>
<polygon fill="midnightblue" stroke="midnightblue" points="208.42,-76.3 219.01,-76.41 210.8,-69.72 208.42,-76.3"/>
</g>
<!-- Node8 -->
<g id="node8" class="node">
<title>Node8</title>
<g id="a_node8"><a xlink:href="spinlock_8c.html#ab213874cda54fdbbeb1bec1e5fa90b28" target="_top" xlink:title="interrupt disable">
<polygon fill="none" stroke="black" points="211,-38.5 211,-57.5 282,-57.5 282,-38.5 211,-38.5"/>
<text text-anchor="middle" x="246.5" y="-45.5" font-family="Helvetica,sans-Serif" font-size="10.00">spin_pushcli</text>
</a>
</g>
</g>
<!-- Node2&#45;&gt;Node8 -->
<g id="edge8" class="edge">
<title>Node2&#45;&gt;Node8</title>
<path fill="none" stroke="midnightblue" d="M175.17,-48C183.33,-48 192.13,-48 200.66,-48"/>
<polygon fill="midnightblue" stroke="midnightblue" points="200.86,-51.5 210.86,-48 200.86,-44.5 200.86,-51.5"/>
</g>
<!-- Node4&#45;&gt;Node3 -->
<g id="edge4" class="edge">
<title>Node4&#45;&gt;Node3</title>
<path fill="none" stroke="midnightblue" d="M273.62,-76.41C286.24,-71.78 301.59,-66.14 315.28,-61.11"/>
<polygon fill="midnightblue" stroke="midnightblue" points="316.71,-64.32 324.89,-57.59 314.3,-57.75 316.71,-64.32"/>
</g>
<!-- Node5 -->
<g id="node5" class="node">
<title>Node5</title>
<g id="a_node5"><a xlink:href="cte_8c.html#a4a139958742786c5085172be1f69bfd0" target="_top" xlink:title=" ">
<polygon fill="none" stroke="black" points="336,-76.5 336,-95.5 368,-95.5 368,-76.5 336,-76.5"/>
<text text-anchor="middle" x="352" y="-83.5" font-family="Helvetica,sans-Serif" font-size="10.00">iset</text>
</a>
</g>
</g>
<!-- Node4&#45;&gt;Node5 -->
<g id="edge5" class="edge">
<title>Node4&#45;&gt;Node5</title>
<path fill="none" stroke="midnightblue" d="M279.12,-86C293.94,-86 311.37,-86 325.36,-86"/>
<polygon fill="midnightblue" stroke="midnightblue" points="325.72,-89.5 335.72,-86 325.72,-82.5 325.72,-89.5"/>
</g>
<!-- Node6 -->
<g id="node6" class="node">
<title>Node6</title>
<g id="a_node6"><a xlink:href="x86_8h.html#acc919e7809ef1db2b20aa3804f540b5c" target="_top" xlink:title=" ">
<polygon fill="none" stroke="black" points="430,-95.5 430,-114.5 459,-114.5 459,-95.5 430,-95.5"/>
<text text-anchor="middle" x="444.5" y="-102.5" font-family="Helvetica,sans-Serif" font-size="10.00">cli</text>
</a>
</g>
</g>
<!-- Node5&#45;&gt;Node6 -->
<g id="edge6" class="edge">
<title>Node5&#45;&gt;Node6</title>
<path fill="none" stroke="midnightblue" d="M368.35,-89.22C382.5,-92.19 403.71,-96.65 419.99,-100.06"/>
<polygon fill="midnightblue" stroke="midnightblue" points="419.35,-103.51 429.85,-102.13 420.78,-96.65 419.35,-103.51"/>
</g>
<!-- Node7 -->
<g id="node7" class="node">
<title>Node7</title>
<g id="a_node7"><a xlink:href="x86_8h.html#a4657e97b270d7af5a23da2c4d642ada2" target="_top" xlink:title=" ">
<polygon fill="none" stroke="black" points="430,-57.5 430,-76.5 459,-76.5 459,-57.5 430,-57.5"/>
<text text-anchor="middle" x="444.5" y="-64.5" font-family="Helvetica,sans-Serif" font-size="10.00">sti</text>
</a>
</g>
</g>
<!-- Node5&#45;&gt;Node7 -->
<g id="edge7" class="edge">
<title>Node5&#45;&gt;Node7</title>
<path fill="none" stroke="midnightblue" d="M368.35,-82.78C382.5,-79.81 403.71,-75.35 419.99,-71.94"/>
<polygon fill="midnightblue" stroke="midnightblue" points="420.78,-75.35 429.85,-69.87 419.35,-68.49 420.78,-75.35"/>
</g>
<!-- Node8&#45;&gt;Node3 -->
<g id="edge9" class="edge">
<title>Node8&#45;&gt;Node3</title>
<path fill="none" stroke="midnightblue" d="M282.25,-48C290.44,-48 299.26,-48 307.76,-48"/>
<polygon fill="midnightblue" stroke="midnightblue" points="307.92,-51.5 317.92,-48 307.92,-44.5 307.92,-51.5"/>
</g>
<!-- Node8&#45;&gt;Node5 -->
<g id="edge12" class="edge">
<title>Node8&#45;&gt;Node5</title>
<path fill="none" stroke="midnightblue" d="M273.62,-57.59C289.73,-63.5 310.28,-71.05 326.15,-76.88"/>
<polygon fill="midnightblue" stroke="midnightblue" points="325.22,-80.26 335.81,-80.42 327.63,-73.69 325.22,-80.26"/>
</g>
<!-- Node9 -->
<g id="node9" class="node">
<title>Node9</title>
<g id="a_node9"><a xlink:href="cte_8c.html#a79659a2b801c42951e38f3a8821acbae" target="_top" xlink:title=" ">
<polygon fill="none" stroke="black" points="325.5,-0.5 325.5,-19.5 378.5,-19.5 378.5,-0.5 325.5,-0.5"/>
<text text-anchor="middle" x="352" y="-7.5" font-family="Helvetica,sans-Serif" font-size="10.00">ienabled</text>
</a>
</g>
</g>
<!-- Node8&#45;&gt;Node9 -->
<g id="edge10" class="edge">
<title>Node8&#45;&gt;Node9</title>
<path fill="none" stroke="midnightblue" d="M273.62,-38.41C286.34,-33.74 301.83,-28.05 315.59,-23"/>
<polygon fill="midnightblue" stroke="midnightblue" points="317.07,-26.19 325.25,-19.45 314.66,-19.62 317.07,-26.19"/>
</g>
<!-- Node10 -->
<g id="node10" class="node">
<title>Node10</title>
<g id="a_node10"><a xlink:href="x86_8h.html#a73d094f09c6a7dd3fc703aa8229933ee" target="_top" xlink:title=" ">
<polygon fill="none" stroke="black" points="422,-0.5 422,-19.5 467,-19.5 467,-0.5 422,-0.5"/>
<text text-anchor="middle" x="444.5" y="-7.5" font-family="Helvetica,sans-Serif" font-size="10.00">get_efl</text>
</a>
</g>
</g>
<!-- Node9&#45;&gt;Node10 -->
<g id="edge11" class="edge">
<title>Node9&#45;&gt;Node10</title>
<path fill="none" stroke="midnightblue" d="M378.69,-10C388.88,-10 400.71,-10 411.45,-10"/>
<polygon fill="midnightblue" stroke="midnightblue" points="411.73,-13.5 421.73,-10 411.73,-6.5 411.73,-13.5"/>
</g>
</g>
</svg>
