<?xml version="1.0" encoding="UTF-8" standalone="no"?>
<!DOCTYPE svg PUBLIC "-//W3C//DTD SVG 1.1//EN"
 "http://www.w3.org/Graphics/SVG/1.1/DTD/svg11.dtd">
<!-- Generated by graphviz version 3.0.0 (20220413.0106)
 -->
<!-- Title: spin_unlock Pages: 1 -->
<svg width="584pt" height="414pt"
 viewBox="0.00 0.00 584.00 414.38" xmlns="http://www.w3.org/2000/svg" xmlns:xlink="http://www.w3.org/1999/xlink">
<g id="graph0" class="graph" transform="scale(1 1) rotate(0) translate(4 410.38)">
<title>spin_unlock</title>
<!-- Node1 -->
<g id="node1" class="node">
<title>Node1</title>
<g id="a_node1"><a xlink:title="release spinlock from current cpu">
<polygon fill="#bfbfbf" stroke="black" points="508,-209.5 508,-228.5 576,-228.5 576,-209.5 508,-209.5"/>
<text text-anchor="middle" x="542" y="-216.5" font-family="Helvetica,sans-Serif" font-size="10.00">spin_unlock</text>
</a>
</g>
</g>
<!-- Node2 -->
<g id="node2" class="node">
<title>Node2</title>
<g id="a_node2"><a xlink:href="kmt_8c.html#af9c485ce0d89d6624e6e80e31d8ed207" target="_top" xlink:title="handler: save context to current task">
<polygon fill="none" stroke="black" points="233,-266.5 233,-285.5 329,-285.5 329,-266.5 233,-266.5"/>
<text text-anchor="middle" x="281" y="-273.5" font-family="Helvetica,sans-Serif" font-size="10.00">kmt_context_save</text>
</a>
</g>
</g>
<!-- Node1&#45;&gt;Node2 -->
<g id="edge1" class="edge">
<title>Node1&#45;&gt;Node2</title>
<path fill="none" stroke="midnightblue" d="M504.15,-231.7C493.82,-235 482.54,-238.36 472,-241 423.85,-253.06 367.87,-262.87 329.2,-269.01"/>
<polygon fill="midnightblue" stroke="midnightblue" points="505.28,-235.01 513.7,-228.58 503.1,-228.36 505.28,-235.01"/>
</g>
<!-- Node4 -->
<g id="node4" class="node">
<title>Node4</title>
<g id="a_node4"><a xlink:href="kmt_8c.html#af360ef0d98ca30e481cc58ea3695fd58" target="_top" xlink:title=" ">
<polygon fill="none" stroke="black" points="0,-171.5 0,-190.5 83,-190.5 83,-171.5 0,-171.5"/>
<text text-anchor="middle" x="41.5" y="-178.5" font-family="Helvetica,sans-Serif" font-size="10.00">MODULE_DEF</text>
</a>
</g>
</g>
<!-- Node1&#45;&gt;Node4 -->
<g id="edge20" class="edge">
<title>Node1&#45;&gt;Node4</title>
<path fill="none" stroke="midnightblue" d="M539.95,-239.01C536.76,-276.73 523.89,-357.76 472,-393 432.66,-419.72 412.39,-396.92 365,-393 247.71,-383.29 202.35,-378.09 119,-295 85.58,-261.68 58.09,-211.71 47.35,-190.77"/>
<polygon fill="midnightblue" stroke="midnightblue" points="543.46,-239.01 540.66,-228.79 536.47,-238.52 543.46,-239.01"/>
</g>
<!-- Node5 -->
<g id="node5" class="node">
<title>Node5</title>
<g id="a_node5"><a xlink:href="kmt_8c.html#a5ddb8743298012e84cf9cb5faf22212b" target="_top" xlink:title="create thread">
<polygon fill="none" stroke="black" points="125.5,-190.5 125.5,-209.5 190.5,-209.5 190.5,-190.5 125.5,-190.5"/>
<text text-anchor="middle" x="158" y="-197.5" font-family="Helvetica,sans-Serif" font-size="10.00">kmt_create</text>
</a>
</g>
</g>
<!-- Node1&#45;&gt;Node5 -->
<g id="edge4" class="edge">
<title>Node1&#45;&gt;Node5</title>
<path fill="none" stroke="midnightblue" d="M497.36,-216.83C419.55,-212.96 258.64,-204.96 190.54,-201.57"/>
<polygon fill="midnightblue" stroke="midnightblue" points="497.61,-220.35 507.77,-217.35 497.95,-213.35 497.61,-220.35"/>
</g>
<!-- Node6 -->
<g id="node6" class="node">
<title>Node6</title>
<g id="a_node6"><a xlink:href="kmt_8c.html#a13cbe2d83bf10c3302124613fa18f8a4" target="_top" xlink:title="print all tasks notice: do not garantee concurrency safety">
<polygon fill="none" stroke="black" points="368,-342.5 368,-361.5 469,-361.5 469,-342.5 368,-342.5"/>
<text text-anchor="middle" x="418.5" y="-349.5" font-family="Helvetica,sans-Serif" font-size="10.00">kmt_print_all_tasks</text>
</a>
</g>
</g>
<!-- Node1&#45;&gt;Node6 -->
<g id="edge6" class="edge">
<title>Node1&#45;&gt;Node6</title>
<path fill="none" stroke="midnightblue" d="M534.05,-238.31C524.05,-263.48 503.3,-307.33 472,-333 467.28,-336.87 461.7,-339.99 455.98,-342.49"/>
<polygon fill="midnightblue" stroke="midnightblue" points="537.39,-239.36 537.68,-228.77 530.85,-236.87 537.39,-239.36"/>
</g>
<!-- Node8 -->
<g id="node8" class="node">
<title>Node8</title>
<g id="a_node8"><a xlink:href="kmt_8c.html#ad4d70b4093829da1c0b0631abdff7747" target="_top" xlink:title="handler: schedule next task to run Notice: this should be the only handler which returns real Context">
<polygon fill="none" stroke="black" points="242.5,-342.5 242.5,-361.5 319.5,-361.5 319.5,-342.5 242.5,-342.5"/>
<text text-anchor="middle" x="281" y="-349.5" font-family="Helvetica,sans-Serif" font-size="10.00">kmt_schedule</text>
</a>
</g>
</g>
<!-- Node1&#45;&gt;Node8 -->
<g id="edge14" class="edge">
<title>Node1&#45;&gt;Node8</title>
<path fill="none" stroke="midnightblue" d="M538.73,-238.87C533.66,-272.86 517.96,-341.39 472,-371 418.63,-405.38 338.79,-377.69 301.94,-361.56"/>
<polygon fill="midnightblue" stroke="midnightblue" points="542.22,-239.14 540.07,-228.77 535.29,-238.22 542.22,-239.14"/>
</g>
<!-- Node9 -->
<g id="node9" class="node">
<title>Node9</title>
<g id="a_node9"><a xlink:href="kmt_8c.html#ab4e9dee1880e455874374b44b5785bc3" target="_top" xlink:title="print all current_tasks notice: do not garantee concurrency safety">
<polygon fill="none" stroke="black" points="365,-304.5 365,-323.5 472,-323.5 472,-304.5 365,-304.5"/>
<text text-anchor="middle" x="418.5" y="-311.5" font-family="Helvetica,sans-Serif" font-size="10.00">kmt_print_cpu_tasks</text>
</a>
</g>
</g>
<!-- Node1&#45;&gt;Node9 -->
<g id="edge11" class="edge">
<title>Node1&#45;&gt;Node9</title>
<path fill="none" stroke="midnightblue" d="M527.06,-236.7C514.09,-252.28 493.57,-274.79 472,-290 463.89,-295.72 454.2,-300.6 445.37,-304.44"/>
<polygon fill="midnightblue" stroke="midnightblue" points="529.85,-238.81 533.45,-228.85 524.42,-234.4 529.85,-238.81"/>
</g>
<!-- Node10 -->
<g id="node10" class="node">
<title>Node10</title>
<g id="a_node10"><a xlink:href="kmt_8c.html#a47d8887c87041abd5ea3148232b65c93" target="_top" xlink:title="tear down a thread">
<polygon fill="none" stroke="black" points="119,-152.5 119,-171.5 197,-171.5 197,-152.5 119,-152.5"/>
<text text-anchor="middle" x="158" y="-159.5" font-family="Helvetica,sans-Serif" font-size="10.00">kmt_teardown</text>
</a>
</g>
</g>
<!-- Node1&#45;&gt;Node10 -->
<g id="edge15" class="edge">
<title>Node1&#45;&gt;Node10</title>
<path fill="none" stroke="midnightblue" d="M497.89,-210.56C489.32,-208.97 480.39,-207.38 472,-206 373.18,-189.75 256.19,-174.31 197.15,-166.78"/>
<polygon fill="midnightblue" stroke="midnightblue" points="497.24,-214 507.71,-212.4 498.53,-207.12 497.24,-214"/>
</g>
<!-- Node11 -->
<g id="node11" class="node">
<title>Node11</title>
<g id="a_node11"><a xlink:href="kmt_8c.html#a75ea8dbba16d64a343a45962bd593930" target="_top" xlink:title="handler: handle yield interrupt (0x81)">
<polygon fill="none" stroke="black" points="252,-228.5 252,-247.5 310,-247.5 310,-228.5 252,-228.5"/>
<text text-anchor="middle" x="281" y="-235.5" font-family="Helvetica,sans-Serif" font-size="10.00">kmt_yield</text>
</a>
</g>
</g>
<!-- Node1&#45;&gt;Node11 -->
<g id="edge17" class="edge">
<title>Node1&#45;&gt;Node11</title>
<path fill="none" stroke="midnightblue" d="M497.77,-222.17C444.44,-226.08 355.31,-232.62 310.12,-235.94"/>
<polygon fill="midnightblue" stroke="midnightblue" points="498.22,-225.65 507.93,-221.43 497.71,-218.67 498.22,-225.65"/>
</g>
<!-- Node12 -->
<g id="node12" class="node">
<title>Node12</title>
<g id="a_node12"><a xlink:href="kernel_8h.html#a7ef2d722f9c7f8acc1801144a5188825" target="_top" xlink:title=" ">
<polygon fill="none" stroke="black" points="251.5,-76.5 251.5,-95.5 310.5,-95.5 310.5,-76.5 251.5,-76.5"/>
<text text-anchor="middle" x="281" y="-83.5" font-family="Helvetica,sans-Serif" font-size="10.00">MODULE</text>
</a>
</g>
</g>
<!-- Node1&#45;&gt;Node12 -->
<g id="edge19" class="edge">
<title>Node1&#45;&gt;Node12</title>
<path fill="none" stroke="midnightblue" d="M535.32,-199.62C526.48,-173.27 506.73,-126.92 472,-105 422.24,-73.59 350.14,-76.6 310.6,-81.4"/>
<polygon fill="midnightblue" stroke="midnightblue" points="532.01,-200.77 538.36,-209.25 538.69,-198.66 532.01,-200.77"/>
</g>
<!-- Node13 -->
<g id="node13" class="node">
<title>Node13</title>
<g id="a_node13"><a xlink:href="os_8c.html#a2be1c9facb49d4439f41b1537d0f3ef8" target="_top" xlink:title="System trap entry.">
<polygon fill="none" stroke="black" points="394,-0.5 394,-19.5 443,-19.5 443,-0.5 394,-0.5"/>
<text text-anchor="middle" x="418.5" y="-7.5" font-family="Helvetica,sans-Serif" font-size="10.00">os_trap</text>
</a>
</g>
</g>
<!-- Node1&#45;&gt;Node13 -->
<g id="edge21" class="edge">
<title>Node1&#45;&gt;Node13</title>
<path fill="none" stroke="midnightblue" d="M539.23,-198.86C534.81,-160.58 519.93,-76.87 472,-29 464.25,-21.26 453.11,-16.65 443.09,-13.92"/>
<polygon fill="midnightblue" stroke="midnightblue" points="535.79,-199.6 540.29,-209.19 542.75,-198.89 535.79,-199.6"/>
</g>
<!-- Node15 -->
<g id="node15" class="node">
<title>Node15</title>
<g id="a_node15"><a xlink:href="sem_8c.html#ad994e433f3a6bf8626272437cb54c114" target="_top" xlink:title="wake up a task form tasks waiting for the semaphore instance">
<polygon fill="none" stroke="black" points="385.5,-114.5 385.5,-133.5 451.5,-133.5 451.5,-114.5 385.5,-114.5"/>
<text text-anchor="middle" x="418.5" y="-121.5" font-family="Helvetica,sans-Serif" font-size="10.00">sem_signal</text>
</a>
</g>
</g>
<!-- Node1&#45;&gt;Node15 -->
<g id="edge23" class="edge">
<title>Node1&#45;&gt;Node15</title>
<path fill="none" stroke="midnightblue" d="M527.06,-201.3C514.09,-185.72 493.57,-163.21 472,-148 463.89,-142.28 454.2,-137.4 445.37,-133.56"/>
<polygon fill="midnightblue" stroke="midnightblue" points="524.42,-203.6 533.45,-209.15 529.85,-199.19 524.42,-203.6"/>
</g>
<!-- Node16 -->
<g id="node16" class="node">
<title>Node16</title>
<g id="a_node16"><a xlink:href="sem_8c.html#a85ca67864bb0af1966a5c2463bd16fe8" target="_top" xlink:title="release semaphore(Mutex) and sleep task holding the sem">
<polygon fill="none" stroke="black" points="389,-38.5 389,-57.5 448,-57.5 448,-38.5 389,-38.5"/>
<text text-anchor="middle" x="418.5" y="-45.5" font-family="Helvetica,sans-Serif" font-size="10.00">sem_wait</text>
</a>
</g>
</g>
<!-- Node1&#45;&gt;Node16 -->
<g id="edge26" class="edge">
<title>Node1&#45;&gt;Node16</title>
<path fill="none" stroke="midnightblue" d="M536.49,-199.5C528.46,-168.7 508.94,-108.57 472,-72 465.38,-65.44 456.64,-60.48 448.19,-56.82"/>
<polygon fill="midnightblue" stroke="midnightblue" points="533.15,-200.55 538.94,-209.42 539.94,-198.87 533.15,-200.55"/>
</g>
<!-- Node3 -->
<g id="node3" class="node">
<title>Node3</title>
<g id="a_node3"><a xlink:href="kmt_8c.html#a0c68a294cecc4be7cb4b495f15b883a0" target="_top" xlink:title="initialize kmt module">
<polygon fill="none" stroke="black" points="132.5,-266.5 132.5,-285.5 183.5,-285.5 183.5,-266.5 132.5,-266.5"/>
<text text-anchor="middle" x="158" y="-273.5" font-family="Helvetica,sans-Serif" font-size="10.00">kmt_init</text>
</a>
</g>
</g>
<!-- Node2&#45;&gt;Node3 -->
<g id="edge2" class="edge">
<title>Node2&#45;&gt;Node3</title>
<path fill="none" stroke="midnightblue" d="M222.87,-276C209.02,-276 194.94,-276 183.53,-276"/>
<polygon fill="midnightblue" stroke="midnightblue" points="222.87,-279.5 232.87,-276 222.87,-272.5 222.87,-279.5"/>
</g>
<!-- Node3&#45;&gt;Node4 -->
<g id="edge3" class="edge">
<title>Node3&#45;&gt;Node4</title>
<path fill="none" stroke="midnightblue" d="M137.42,-259.76C113.46,-239.87 73.66,-206.85 54.09,-190.61"/>
<polygon fill="midnightblue" stroke="midnightblue" points="135.25,-262.5 145.18,-266.19 139.72,-257.11 135.25,-262.5"/>
</g>
<!-- Node5&#45;&gt;Node4 -->
<g id="edge5" class="edge">
<title>Node5&#45;&gt;Node4</title>
<path fill="none" stroke="midnightblue" d="M115.54,-193.12C104.94,-191.36 93.56,-189.47 83.01,-187.72"/>
<polygon fill="midnightblue" stroke="midnightblue" points="114.97,-196.57 125.41,-194.76 116.12,-189.67 114.97,-196.57"/>
</g>
<!-- Node7 -->
<g id="node7" class="node">
<title>Node7</title>
<g id="a_node7"><a xlink:href="kmt_8c.html#ad3fbc643b7b6092120c5152b4c890354" target="_top" xlink:title="handler: handle program errors">
<polygon fill="none" stroke="black" points="252,-304.5 252,-323.5 310,-323.5 310,-304.5 252,-304.5"/>
<text text-anchor="middle" x="281" y="-311.5" font-family="Helvetica,sans-Serif" font-size="10.00">kmt_error</text>
</a>
</g>
</g>
<!-- Node6&#45;&gt;Node7 -->
<g id="edge7" class="edge">
<title>Node6&#45;&gt;Node7</title>
<path fill="none" stroke="midnightblue" d="M373.43,-339.64C352.66,-333.82 328.51,-327.04 310.24,-321.92"/>
<polygon fill="midnightblue" stroke="midnightblue" points="372.73,-343.08 383.31,-342.41 374.62,-336.34 372.73,-343.08"/>
</g>
<!-- Node6&#45;&gt;Node8 -->
<g id="edge9" class="edge">
<title>Node6&#45;&gt;Node8</title>
<path fill="none" stroke="midnightblue" d="M357.62,-352C344.77,-352 331.53,-352 319.79,-352"/>
<polygon fill="midnightblue" stroke="midnightblue" points="357.81,-355.5 367.81,-352 357.81,-348.5 357.81,-355.5"/>
</g>
<!-- Node7&#45;&gt;Node3 -->
<g id="edge8" class="edge">
<title>Node7&#45;&gt;Node3</title>
<path fill="none" stroke="midnightblue" d="M242.31,-302.16C223.19,-296.16 200.5,-289.03 183.63,-283.74"/>
<polygon fill="midnightblue" stroke="midnightblue" points="241.35,-305.53 251.94,-305.19 243.44,-298.85 241.35,-305.53"/>
</g>
<!-- Node8&#45;&gt;Node3 -->
<g id="edge10" class="edge">
<title>Node8&#45;&gt;Node3</title>
<path fill="none" stroke="midnightblue" d="M243.23,-338.28C239.71,-336.63 236.25,-334.86 233,-333 208.8,-319.13 183.71,-298.17 169.86,-285.9"/>
<polygon fill="midnightblue" stroke="midnightblue" points="242,-341.56 252.56,-342.37 244.81,-335.15 242,-341.56"/>
</g>
<!-- Node9&#45;&gt;Node7 -->
<g id="edge12" class="edge">
<title>Node9&#45;&gt;Node7</title>
<path fill="none" stroke="midnightblue" d="M354.59,-314C339.04,-314 323.16,-314 310.22,-314"/>
<polygon fill="midnightblue" stroke="midnightblue" points="354.72,-317.5 364.72,-314 354.72,-310.5 354.72,-317.5"/>
</g>
<!-- Node9&#45;&gt;Node8 -->
<g id="edge13" class="edge">
<title>Node9&#45;&gt;Node8</title>
<path fill="none" stroke="midnightblue" d="M373.58,-326.32C354.96,-331.54 333.59,-337.53 316.18,-342.41"/>
<polygon fill="midnightblue" stroke="midnightblue" points="374.62,-329.66 383.31,-323.59 372.73,-322.92 374.62,-329.66"/>
</g>
<!-- Node10&#45;&gt;Node4 -->
<g id="edge16" class="edge">
<title>Node10&#45;&gt;Node4</title>
<path fill="none" stroke="midnightblue" d="M108.99,-169.97C100.41,-171.39 91.56,-172.86 83.21,-174.24"/>
<polygon fill="midnightblue" stroke="midnightblue" points="109.58,-173.42 118.87,-168.33 108.44,-166.51 109.58,-173.42"/>
</g>
<!-- Node11&#45;&gt;Node3 -->
<g id="edge18" class="edge">
<title>Node11&#45;&gt;Node3</title>
<path fill="none" stroke="midnightblue" d="M242.31,-249.84C223.19,-255.84 200.5,-262.97 183.63,-268.26"/>
<polygon fill="midnightblue" stroke="midnightblue" points="243.44,-253.15 251.94,-246.81 241.35,-246.47 243.44,-253.15"/>
</g>
<!-- Node14 -->
<g id="node14" class="node">
<title>Node14</title>
<g id="a_node14"><a xlink:href="os_8c.html#aafec7046aa50c914df86d0d22d4fc1d1" target="_top" xlink:title=" ">
<polygon fill="none" stroke="black" points="239.5,-0.5 239.5,-19.5 322.5,-19.5 322.5,-0.5 239.5,-0.5"/>
<text text-anchor="middle" x="281" y="-7.5" font-family="Helvetica,sans-Serif" font-size="10.00">MODULE_DEF</text>
</a>
</g>
</g>
<!-- Node13&#45;&gt;Node14 -->
<g id="edge22" class="edge">
<title>Node13&#45;&gt;Node14</title>
<path fill="none" stroke="midnightblue" d="M383.84,-10C365.29,-10 342.13,-10 322.58,-10"/>
<polygon fill="midnightblue" stroke="midnightblue" points="383.9,-13.5 393.9,-10 383.9,-6.5 383.9,-13.5"/>
</g>
<!-- Node15&#45;&gt;Node4 -->
<g id="edge25" class="edge">
<title>Node15&#45;&gt;Node4</title>
<path fill="none" stroke="midnightblue" d="M375.11,-121.5C316.46,-119.21 207.76,-119.17 119,-143 96.23,-149.11 72.23,-162.29 57.32,-171.4"/>
<polygon fill="midnightblue" stroke="midnightblue" points="375.32,-125.01 385.46,-121.95 375.62,-118.02 375.32,-125.01"/>
</g>
<!-- Node15&#45;&gt;Node12 -->
<g id="edge24" class="edge">
<title>Node15&#45;&gt;Node12</title>
<path fill="none" stroke="midnightblue" d="M375.7,-112.28C354.6,-106.36 329.55,-99.33 310.66,-94.04"/>
<polygon fill="midnightblue" stroke="midnightblue" points="374.81,-115.66 385.39,-114.99 376.7,-108.92 374.81,-115.66"/>
</g>
<!-- Node16&#45;&gt;Node4 -->
<g id="edge28" class="edge">
<title>Node16&#45;&gt;Node4</title>
<path fill="none" stroke="midnightblue" d="M378.66,-47.97C340.78,-48.87 281.89,-52.77 233,-67 178.61,-82.83 167.23,-94.29 119,-124 94.74,-138.94 68.55,-159.53 53.97,-171.44"/>
<polygon fill="midnightblue" stroke="midnightblue" points="378.83,-51.47 388.76,-47.79 378.7,-44.47 378.83,-51.47"/>
</g>
<!-- Node16&#45;&gt;Node12 -->
<g id="edge27" class="edge">
<title>Node16&#45;&gt;Node12</title>
<path fill="none" stroke="midnightblue" d="M378.87,-58.83C357.16,-64.92 330.54,-72.39 310.69,-77.95"/>
<polygon fill="midnightblue" stroke="midnightblue" points="380.08,-62.13 388.76,-56.06 378.19,-55.39 380.08,-62.13"/>
</g>
</g>
</svg>
