<?xml version="1.0" encoding="UTF-8" standalone="no"?>
<!DOCTYPE svg PUBLIC "-//W3C//DTD SVG 1.1//EN"
 "http://www.w3.org/Graphics/SVG/1.1/DTD/svg11.dtd">
<!-- Generated by graphviz version 3.0.0 (20220413.0106)
 -->
<!-- Title: spin_lock Pages: 1 -->
<svg width="574pt" height="310pt"
 viewBox="0.00 0.00 574.00 310.05" xmlns="http://www.w3.org/2000/svg" xmlns:xlink="http://www.w3.org/1999/xlink">
<g id="graph0" class="graph" transform="scale(1 1) rotate(0) translate(4 306.05)">
<title>spin_lock</title>
<!-- Node1 -->
<g id="node1" class="node">
<title>Node1</title>
<g id="a_node1"><a xlink:title="acquire spinlock to current cpu">
<polygon fill="#bfbfbf" stroke="black" points="508,-152.5 508,-171.5 566,-171.5 566,-152.5 508,-152.5"/>
<text text-anchor="middle" x="537" y="-159.5" font-family="Helvetica,sans-Serif" font-size="10.00">spin_lock</text>
</a>
</g>
</g>
<!-- Node2 -->
<g id="node2" class="node">
<title>Node2</title>
<g id="a_node2"><a xlink:href="kmt_8c.html#af9c485ce0d89d6624e6e80e31d8ed207" target="_top" xlink:title="handler: save context to current task">
<polygon fill="none" stroke="black" points="233,-266.5 233,-285.5 329,-285.5 329,-266.5 233,-266.5"/>
<text text-anchor="middle" x="281" y="-273.5" font-family="Helvetica,sans-Serif" font-size="10.00">kmt_context_save</text>
</a>
</g>
</g>
<!-- Node1&#45;&gt;Node2 -->
<g id="edge1" class="edge">
<title>Node1&#45;&gt;Node2</title>
<path fill="none" stroke="midnightblue" d="M529.02,-181.06C519.73,-203.42 501.03,-239.65 472,-257 428.75,-282.86 369.88,-284.71 329.18,-281.94"/>
<polygon fill="midnightblue" stroke="midnightblue" points="532.33,-182.2 532.73,-171.61 525.82,-179.64 532.33,-182.2"/>
</g>
<!-- Node4 -->
<g id="node4" class="node">
<title>Node4</title>
<g id="a_node4"><a xlink:href="kmt_8c.html#af360ef0d98ca30e481cc58ea3695fd58" target="_top" xlink:title=" ">
<polygon fill="none" stroke="black" points="0,-185.5 0,-204.5 83,-204.5 83,-185.5 0,-185.5"/>
<text text-anchor="middle" x="41.5" y="-192.5" font-family="Helvetica,sans-Serif" font-size="10.00">MODULE_DEF</text>
</a>
</g>
</g>
<!-- Node1&#45;&gt;Node4 -->
<g id="edge18" class="edge">
<title>Node1&#45;&gt;Node4</title>
<path fill="none" stroke="midnightblue" d="M531.87,-181.38C524.85,-209.12 507.71,-259.4 472,-283 418.79,-318.17 392.72,-292.33 329,-295 286.37,-296.79 274.53,-304.8 233,-295 177.87,-281.99 169.04,-264.55 119,-238 98.14,-226.93 74.5,-213.5 59.09,-204.63"/>
<polygon fill="midnightblue" stroke="midnightblue" points="535.28,-182.18 534.16,-171.64 528.47,-180.58 535.28,-182.18"/>
</g>
<!-- Node5 -->
<g id="node5" class="node">
<title>Node5</title>
<g id="a_node5"><a xlink:href="kmt_8c.html#a5ddb8743298012e84cf9cb5faf22212b" target="_top" xlink:title="create thread">
<polygon fill="none" stroke="black" points="125.5,-138.5 125.5,-157.5 190.5,-157.5 190.5,-138.5 125.5,-138.5"/>
<text text-anchor="middle" x="158" y="-145.5" font-family="Helvetica,sans-Serif" font-size="10.00">kmt_create</text>
</a>
</g>
</g>
<!-- Node1&#45;&gt;Node5 -->
<g id="edge4" class="edge">
<title>Node1&#45;&gt;Node5</title>
<path fill="none" stroke="midnightblue" d="M497.62,-160.57C422.98,-157.8 259.54,-151.73 190.63,-149.17"/>
<polygon fill="midnightblue" stroke="midnightblue" points="497.85,-164.09 507.97,-160.96 498.11,-157.09 497.85,-164.09"/>
</g>
<!-- Node6 -->
<g id="node6" class="node">
<title>Node6</title>
<g id="a_node6"><a xlink:href="kmt_8c.html#a0ac321d3074b24b276695a080e835866" target="_top" xlink:title="print all tasks notice: do not garantee concurrency safety">
<polygon fill="none" stroke="black" points="368,-228.5 368,-247.5 469,-247.5 469,-228.5 368,-228.5"/>
<text text-anchor="middle" x="418.5" y="-235.5" font-family="Helvetica,sans-Serif" font-size="10.00">kmt_print_all_tasks</text>
</a>
</g>
</g>
<!-- Node1&#45;&gt;Node6 -->
<g id="edge6" class="edge">
<title>Node1&#45;&gt;Node6</title>
<path fill="none" stroke="midnightblue" d="M520.21,-179.22C508.04,-191.66 490.24,-208.13 472,-219 465.84,-222.67 458.85,-225.81 452.03,-228.41"/>
<polygon fill="midnightblue" stroke="midnightblue" points="522.99,-181.37 527.35,-171.72 517.92,-176.55 522.99,-181.37"/>
</g>
<!-- Node8 -->
<g id="node8" class="node">
<title>Node8</title>
<g id="a_node8"><a xlink:href="kmt_8c.html#ad4d70b4093829da1c0b0631abdff7747" target="_top" xlink:title="handler: schedule next task to run Notice: this should be the only handler which returns real Context">
<polygon fill="none" stroke="black" points="242.5,-190.5 242.5,-209.5 319.5,-209.5 319.5,-190.5 242.5,-190.5"/>
<text text-anchor="middle" x="281" y="-197.5" font-family="Helvetica,sans-Serif" font-size="10.00">kmt_schedule</text>
</a>
</g>
</g>
<!-- Node1&#45;&gt;Node8 -->
<g id="edge14" class="edge">
<title>Node1&#45;&gt;Node8</title>
<path fill="none" stroke="midnightblue" d="M497.53,-165.01C462.76,-168.03 410.24,-173.33 365,-181 349.99,-183.54 333.62,-187.12 319.42,-190.48"/>
<polygon fill="midnightblue" stroke="midnightblue" points="498.05,-168.48 507.72,-164.14 497.46,-161.5 498.05,-168.48"/>
</g>
<!-- Node9 -->
<g id="node9" class="node">
<title>Node9</title>
<g id="a_node9"><a xlink:href="kmt_8c.html#ac69761d0146d9aacda65da757868d3c7" target="_top" xlink:title="print all current_tasks notice: do not garantee concurrency safety">
<polygon fill="none" stroke="black" points="365,-190.5 365,-209.5 472,-209.5 472,-190.5 365,-190.5"/>
<text text-anchor="middle" x="418.5" y="-197.5" font-family="Helvetica,sans-Serif" font-size="10.00">kmt_print_cpu_tasks</text>
</a>
</g>
</g>
<!-- Node1&#45;&gt;Node9 -->
<g id="edge11" class="edge">
<title>Node1&#45;&gt;Node9</title>
<path fill="none" stroke="midnightblue" d="M498.15,-174.35C482.08,-179.59 463.64,-185.6 448.66,-190.49"/>
<polygon fill="midnightblue" stroke="midnightblue" points="499.38,-177.63 507.8,-171.2 497.21,-170.97 499.38,-177.63"/>
</g>
<!-- Node10 -->
<g id="node10" class="node">
<title>Node10</title>
<g id="a_node10"><a xlink:href="kmt_8c.html#a47d8887c87041abd5ea3148232b65c93" target="_top" xlink:title="tear down a thread">
<polygon fill="none" stroke="black" points="119,-100.5 119,-119.5 197,-119.5 197,-100.5 119,-100.5"/>
<text text-anchor="middle" x="158" y="-107.5" font-family="Helvetica,sans-Serif" font-size="10.00">kmt_teardown</text>
</a>
</g>
</g>
<!-- Node1&#45;&gt;Node10 -->
<g id="edge15" class="edge">
<title>Node1&#45;&gt;Node10</title>
<path fill="none" stroke="midnightblue" d="M497.68,-155.16C489.23,-153.72 480.32,-152.26 472,-151 373.11,-136.03 256.14,-121.57 197.13,-114.5"/>
<polygon fill="midnightblue" stroke="midnightblue" points="497.23,-158.63 507.68,-156.88 498.42,-151.73 497.23,-158.63"/>
</g>
<!-- Node11 -->
<g id="node11" class="node">
<title>Node11</title>
<g id="a_node11"><a xlink:href="kernel_8h.html#a7ef2d722f9c7f8acc1801144a5188825" target="_top" xlink:title=" ">
<polygon fill="none" stroke="black" points="389,-38.5 389,-57.5 448,-57.5 448,-38.5 389,-38.5"/>
<text text-anchor="middle" x="418.5" y="-45.5" font-family="Helvetica,sans-Serif" font-size="10.00">MODULE</text>
</a>
</g>
</g>
<!-- Node1&#45;&gt;Node11 -->
<g id="edge17" class="edge">
<title>Node1&#45;&gt;Node11</title>
<path fill="none" stroke="midnightblue" d="M526.58,-143.34C515.74,-123.43 496.27,-92.06 472,-72 464.82,-66.06 455.92,-61.27 447.51,-57.58"/>
<polygon fill="midnightblue" stroke="midnightblue" points="523.57,-145.12 531.32,-152.33 529.76,-141.86 523.57,-145.12"/>
</g>
<!-- Node12 -->
<g id="node12" class="node">
<title>Node12</title>
<g id="a_node12"><a xlink:href="os_8c.html#a2be1c9facb49d4439f41b1537d0f3ef8" target="_top" xlink:title="System trap entry.">
<polygon fill="none" stroke="black" points="394,-0.5 394,-19.5 443,-19.5 443,-0.5 394,-0.5"/>
<text text-anchor="middle" x="418.5" y="-7.5" font-family="Helvetica,sans-Serif" font-size="10.00">os_trap</text>
</a>
</g>
</g>
<!-- Node1&#45;&gt;Node12 -->
<g id="edge19" class="edge">
<title>Node1&#45;&gt;Node12</title>
<path fill="none" stroke="midnightblue" d="M531.6,-142.44C524.15,-113.69 506.41,-60.09 472,-29 463.94,-21.72 452.89,-17.18 443,-14.36"/>
<polygon fill="midnightblue" stroke="midnightblue" points="528.27,-143.57 534.03,-152.46 535.07,-141.92 528.27,-143.57"/>
</g>
<!-- Node3 -->
<g id="node3" class="node">
<title>Node3</title>
<g id="a_node3"><a xlink:href="kmt_8c.html#a0c68a294cecc4be7cb4b495f15b883a0" target="_top" xlink:title="initialize kmt module">
<polygon fill="none" stroke="black" points="132.5,-209.5 132.5,-228.5 183.5,-228.5 183.5,-209.5 132.5,-209.5"/>
<text text-anchor="middle" x="158" y="-216.5" font-family="Helvetica,sans-Serif" font-size="10.00">kmt_init</text>
</a>
</g>
</g>
<!-- Node2&#45;&gt;Node3 -->
<g id="edge2" class="edge">
<title>Node2&#45;&gt;Node3</title>
<path fill="none" stroke="midnightblue" d="M245.67,-262.54C241.38,-260.74 237.07,-258.86 233,-257 213.3,-247.98 191.28,-236.49 176.42,-228.51"/>
<polygon fill="midnightblue" stroke="midnightblue" points="244.36,-265.79 254.94,-266.36 247.03,-259.31 244.36,-265.79"/>
</g>
<!-- Node3&#45;&gt;Node4 -->
<g id="edge3" class="edge">
<title>Node3&#45;&gt;Node4</title>
<path fill="none" stroke="midnightblue" d="M122.51,-211.77C110.14,-209.18 96.08,-206.23 83.24,-203.54"/>
<polygon fill="midnightblue" stroke="midnightblue" points="121.93,-215.23 132.44,-213.85 123.37,-208.37 121.93,-215.23"/>
</g>
<!-- Node5&#45;&gt;Node4 -->
<g id="edge5" class="edge">
<title>Node5&#45;&gt;Node4</title>
<path fill="none" stroke="midnightblue" d="M124.53,-161.33C105.9,-168.98 82.92,-178.41 66.03,-185.34"/>
<polygon fill="midnightblue" stroke="midnightblue" points="125.91,-164.55 133.83,-157.51 123.25,-158.07 125.91,-164.55"/>
</g>
<!-- Node7 -->
<g id="node7" class="node">
<title>Node7</title>
<g id="a_node7"><a xlink:href="kmt_8c.html#ad3fbc643b7b6092120c5152b4c890354" target="_top" xlink:title="handler: handle program errors">
<polygon fill="none" stroke="black" points="252,-228.5 252,-247.5 310,-247.5 310,-228.5 252,-228.5"/>
<text text-anchor="middle" x="281" y="-235.5" font-family="Helvetica,sans-Serif" font-size="10.00">kmt_error</text>
</a>
</g>
</g>
<!-- Node6&#45;&gt;Node7 -->
<g id="edge7" class="edge">
<title>Node6&#45;&gt;Node7</title>
<path fill="none" stroke="midnightblue" d="M357.61,-238C341.04,-238 323.82,-238 310.02,-238"/>
<polygon fill="midnightblue" stroke="midnightblue" points="357.81,-241.5 367.81,-238 357.81,-234.5 357.81,-241.5"/>
</g>
<!-- Node6&#45;&gt;Node8 -->
<g id="edge9" class="edge">
<title>Node6&#45;&gt;Node8</title>
<path fill="none" stroke="midnightblue" d="M373.58,-225.68C354.96,-220.46 333.59,-214.47 316.18,-209.59"/>
<polygon fill="midnightblue" stroke="midnightblue" points="372.73,-229.08 383.31,-228.41 374.62,-222.34 372.73,-229.08"/>
</g>
<!-- Node7&#45;&gt;Node3 -->
<g id="edge8" class="edge">
<title>Node7&#45;&gt;Node3</title>
<path fill="none" stroke="midnightblue" d="M242.05,-232.04C222.98,-229.05 200.42,-225.5 183.63,-222.87"/>
<polygon fill="midnightblue" stroke="midnightblue" points="241.51,-235.5 251.94,-233.59 242.6,-228.58 241.51,-235.5"/>
</g>
<!-- Node8&#45;&gt;Node3 -->
<g id="edge10" class="edge">
<title>Node8&#45;&gt;Node3</title>
<path fill="none" stroke="midnightblue" d="M232.24,-207.5C215.59,-210.11 197.6,-212.94 183.61,-215.14"/>
<polygon fill="midnightblue" stroke="midnightblue" points="233.04,-210.92 242.38,-205.91 231.96,-204 233.04,-210.92"/>
</g>
<!-- Node9&#45;&gt;Node7 -->
<g id="edge12" class="edge">
<title>Node9&#45;&gt;Node7</title>
<path fill="none" stroke="midnightblue" d="M373.43,-212.36C352.66,-218.18 328.51,-224.96 310.24,-230.08"/>
<polygon fill="midnightblue" stroke="midnightblue" points="374.62,-215.66 383.31,-209.59 372.73,-208.92 374.62,-215.66"/>
</g>
<!-- Node9&#45;&gt;Node8 -->
<g id="edge13" class="edge">
<title>Node9&#45;&gt;Node8</title>
<path fill="none" stroke="midnightblue" d="M354.4,-200C342.55,-200 330.52,-200 319.75,-200"/>
<polygon fill="midnightblue" stroke="midnightblue" points="354.72,-203.5 364.72,-200 354.72,-196.5 354.72,-203.5"/>
</g>
<!-- Node10&#45;&gt;Node4 -->
<g id="edge16" class="edge">
<title>Node10&#45;&gt;Node4</title>
<path fill="none" stroke="midnightblue" d="M126.61,-124.33C123.99,-125.83 121.42,-127.39 119,-129 93.02,-146.31 66.18,-171.46 52.24,-185.17"/>
<polygon fill="midnightblue" stroke="midnightblue" points="128.39,-127.35 135.57,-119.55 125.1,-121.17 128.39,-127.35"/>
</g>
<!-- Node13 -->
<g id="node13" class="node">
<title>Node13</title>
<g id="a_node13"><a xlink:href="os_8c.html#aafec7046aa50c914df86d0d22d4fc1d1" target="_top" xlink:title=" ">
<polygon fill="none" stroke="black" points="239.5,-0.5 239.5,-19.5 322.5,-19.5 322.5,-0.5 239.5,-0.5"/>
<text text-anchor="middle" x="281" y="-7.5" font-family="Helvetica,sans-Serif" font-size="10.00">MODULE_DEF</text>
</a>
</g>
</g>
<!-- Node12&#45;&gt;Node13 -->
<g id="edge20" class="edge">
<title>Node12&#45;&gt;Node13</title>
<path fill="none" stroke="midnightblue" d="M383.84,-10C365.29,-10 342.13,-10 322.58,-10"/>
<polygon fill="midnightblue" stroke="midnightblue" points="383.9,-13.5 393.9,-10 383.9,-6.5 383.9,-13.5"/>
</g>
</g>
</svg>
