<?xml version="1.0" encoding="UTF-8" standalone="no"?>
<!DOCTYPE svg PUBLIC "-//W3C//DTD SVG 1.1//EN"
 "http://www.w3.org/Graphics/SVG/1.1/DTD/svg11.dtd">
<!-- Generated by graphviz version 3.0.0 (20220413.0106)
 -->
<!-- Title: spin_pushcli Pages: 1 -->
<svg width="551pt" height="294pt"
 viewBox="0.00 0.00 551.00 294.00" xmlns="http://www.w3.org/2000/svg" xmlns:xlink="http://www.w3.org/1999/xlink">
<g id="graph0" class="graph" transform="scale(1 1) rotate(0) translate(4 290)">
<title>spin_pushcli</title>
<!-- Node1 -->
<g id="node1" class="node">
<title>Node1</title>
<g id="a_node1"><a xlink:title="interrupt disable">
<polygon fill="#bfbfbf" stroke="black" points="472,-95.5 472,-114.5 543,-114.5 543,-95.5 472,-95.5"/>
<text text-anchor="middle" x="507.5" y="-102.5" font-family="Helvetica,sans-Serif" font-size="10.00">spin_pushcli</text>
</a>
</g>
</g>
<!-- Node2 -->
<g id="node2" class="node">
<title>Node2</title>
<g id="a_node2"><a xlink:href="spinlock_8c.html#ad4be0d674a7ca4dc90c2dbf8b34562cc" target="_top" xlink:title="check current cpu has the lock">
<polygon fill="none" stroke="black" points="365,-114.5 365,-133.5 436,-133.5 436,-114.5 365,-114.5"/>
<text text-anchor="middle" x="400.5" y="-121.5" font-family="Helvetica,sans-Serif" font-size="10.00">spin_holding</text>
</a>
</g>
</g>
<!-- Node1&#45;&gt;Node2 -->
<g id="edge1" class="edge">
<title>Node1&#45;&gt;Node2</title>
<path fill="none" stroke="midnightblue" d="M461.9,-113.07C453.29,-114.63 444.38,-116.24 436.14,-117.73"/>
<polygon fill="midnightblue" stroke="midnightblue" points="462.61,-116.5 471.83,-111.27 461.36,-109.61 462.61,-116.5"/>
</g>
<!-- Node12 -->
<g id="node12" class="node">
<title>Node12</title>
<g id="a_node12"><a xlink:href="spinlock_8c.html#ab6f3c37ec37006951feccc3c05387cce" target="_top" xlink:title="acquire spinlock to current cpu">
<polygon fill="none" stroke="black" points="252,-38.5 252,-57.5 310,-57.5 310,-38.5 252,-38.5"/>
<text text-anchor="middle" x="281" y="-45.5" font-family="Helvetica,sans-Serif" font-size="10.00">spin_lock</text>
</a>
</g>
</g>
<!-- Node1&#45;&gt;Node12 -->
<g id="edge27" class="edge">
<title>Node1&#45;&gt;Node12</title>
<path fill="none" stroke="midnightblue" d="M462.1,-93.73C416.97,-82.27 348.42,-64.86 310.23,-55.17"/>
<polygon fill="midnightblue" stroke="midnightblue" points="461.36,-97.15 471.91,-96.22 463.08,-90.37 461.36,-97.15"/>
</g>
<!-- Node3 -->
<g id="node3" class="node">
<title>Node3</title>
<g id="a_node3"><a xlink:href="kmt_8c.html#af9c485ce0d89d6624e6e80e31d8ed207" target="_top" xlink:title="handler: save context to current task">
<polygon fill="none" stroke="black" points="233,-228.5 233,-247.5 329,-247.5 329,-228.5 233,-228.5"/>
<text text-anchor="middle" x="281" y="-235.5" font-family="Helvetica,sans-Serif" font-size="10.00">kmt_context_save</text>
</a>
</g>
</g>
<!-- Node2&#45;&gt;Node3 -->
<g id="edge2" class="edge">
<title>Node2&#45;&gt;Node3</title>
<path fill="none" stroke="midnightblue" d="M389.8,-142.67C377.99,-163.79 356.21,-197.96 329,-219 324.13,-222.77 318.4,-225.9 312.66,-228.45"/>
<polygon fill="midnightblue" stroke="midnightblue" points="392.96,-144.19 394.64,-133.73 386.81,-140.86 392.96,-144.19"/>
</g>
<!-- Node6 -->
<g id="node6" class="node">
<title>Node6</title>
<g id="a_node6"><a xlink:href="kmt_8c.html#a5ddb8743298012e84cf9cb5faf22212b" target="_top" xlink:title="create thread">
<polygon fill="none" stroke="black" points="125.5,-152.5 125.5,-171.5 190.5,-171.5 190.5,-152.5 125.5,-152.5"/>
<text text-anchor="middle" x="158" y="-159.5" font-family="Helvetica,sans-Serif" font-size="10.00">kmt_create</text>
</a>
</g>
</g>
<!-- Node2&#45;&gt;Node6 -->
<g id="edge5" class="edge">
<title>Node2&#45;&gt;Node6</title>
<path fill="none" stroke="midnightblue" d="M358.43,-136.19C348.84,-138.73 338.61,-141.18 329,-143 281.15,-152.07 224.84,-157.32 190.55,-159.92"/>
<polygon fill="midnightblue" stroke="midnightblue" points="359.42,-139.55 368.15,-133.54 357.58,-132.8 359.42,-139.55"/>
</g>
<!-- Node7 -->
<g id="node7" class="node">
<title>Node7</title>
<g id="a_node7"><a xlink:href="kmt_8c.html#ad3fbc643b7b6092120c5152b4c890354" target="_top" xlink:title="handler: handle program errors">
<polygon fill="none" stroke="black" points="252,-190.5 252,-209.5 310,-209.5 310,-190.5 252,-190.5"/>
<text text-anchor="middle" x="281" y="-197.5" font-family="Helvetica,sans-Serif" font-size="10.00">kmt_error</text>
</a>
</g>
</g>
<!-- Node2&#45;&gt;Node7 -->
<g id="edge7" class="edge">
<title>Node2&#45;&gt;Node7</title>
<path fill="none" stroke="midnightblue" d="M379.59,-140.05C365.8,-150.82 346.78,-165 329,-176 320.58,-181.2 310.9,-186.29 302.52,-190.43"/>
<polygon fill="midnightblue" stroke="midnightblue" points="381.77,-142.79 387.45,-133.84 377.43,-137.29 381.77,-142.79"/>
</g>
<!-- Node8 -->
<g id="node8" class="node">
<title>Node8</title>
<g id="a_node8"><a xlink:href="kmt_8c.html#ad4d70b4093829da1c0b0631abdff7747" target="_top" xlink:title="handler: schedule next task to run Notice: this should be the only handler which returns real Context">
<polygon fill="none" stroke="black" points="242.5,-266.5 242.5,-285.5 319.5,-285.5 319.5,-266.5 242.5,-266.5"/>
<text text-anchor="middle" x="281" y="-273.5" font-family="Helvetica,sans-Serif" font-size="10.00">kmt_schedule</text>
</a>
</g>
</g>
<!-- Node2&#45;&gt;Node8 -->
<g id="edge9" class="edge">
<title>Node2&#45;&gt;Node8</title>
<path fill="none" stroke="midnightblue" d="M393.92,-143.45C384.8,-172.02 364.11,-225.34 329,-257 324.82,-260.77 319.79,-263.85 314.6,-266.33"/>
<polygon fill="midnightblue" stroke="midnightblue" points="397.29,-144.4 396.86,-133.81 390.59,-142.36 397.29,-144.4"/>
</g>
<!-- Node9 -->
<g id="node9" class="node">
<title>Node9</title>
<g id="a_node9"><a xlink:href="kmt_8c.html#a47d8887c87041abd5ea3148232b65c93" target="_top" xlink:title="tear down a thread">
<polygon fill="none" stroke="black" points="119,-114.5 119,-133.5 197,-133.5 197,-114.5 119,-114.5"/>
<text text-anchor="middle" x="158" y="-121.5" font-family="Helvetica,sans-Serif" font-size="10.00">kmt_teardown</text>
</a>
</g>
</g>
<!-- Node2&#45;&gt;Node9 -->
<g id="edge11" class="edge">
<title>Node2&#45;&gt;Node9</title>
<path fill="none" stroke="midnightblue" d="M361.41,-111.77C351.01,-108.98 339.67,-106.41 329,-105 286.7,-99.4 275.33,-99.65 233,-105 218.26,-106.86 202.26,-110.73 188.91,-114.5"/>
<polygon fill="midnightblue" stroke="midnightblue" points="360.46,-115.14 371.03,-114.5 362.37,-108.41 360.46,-115.14"/>
</g>
<!-- Node10 -->
<g id="node10" class="node">
<title>Node10</title>
<g id="a_node10"><a xlink:href="os_8c.html#a2be1c9facb49d4439f41b1537d0f3ef8" target="_top" xlink:title="System trap entry.">
<polygon fill="none" stroke="black" points="133.5,-0.5 133.5,-19.5 182.5,-19.5 182.5,-0.5 133.5,-0.5"/>
<text text-anchor="middle" x="158" y="-7.5" font-family="Helvetica,sans-Serif" font-size="10.00">os_trap</text>
</a>
</g>
</g>
<!-- Node2&#45;&gt;Node10 -->
<g id="edge13" class="edge">
<title>Node2&#45;&gt;Node10</title>
<path fill="none" stroke="midnightblue" d="M391.38,-105.26C380.63,-82.94 359.42,-46.49 329,-29 282.53,-2.28 217.08,-3.79 182.51,-7.01"/>
<polygon fill="midnightblue" stroke="midnightblue" points="388.23,-106.78 395.58,-114.4 394.59,-103.85 388.23,-106.78"/>
</g>
<!-- Node2&#45;&gt;Node12 -->
<g id="edge15" class="edge">
<title>Node2&#45;&gt;Node12</title>
<path fill="none" stroke="midnightblue" d="M379.59,-107.95C365.8,-97.18 346.78,-83 329,-72 320.58,-66.8 310.9,-61.71 302.52,-57.57"/>
<polygon fill="midnightblue" stroke="midnightblue" points="377.43,-110.71 387.45,-114.16 381.77,-105.21 377.43,-110.71"/>
</g>
<!-- Node14 -->
<g id="node14" class="node">
<title>Node14</title>
<g id="a_node14"><a xlink:href="spinlock_8c.html#acdf118d615a4bc4064e991add9a80995" target="_top" xlink:title="release spinlock from current cpu">
<polygon fill="none" stroke="black" points="247,-114.5 247,-133.5 315,-133.5 315,-114.5 247,-114.5"/>
<text text-anchor="middle" x="281" y="-121.5" font-family="Helvetica,sans-Serif" font-size="10.00">spin_unlock</text>
</a>
</g>
</g>
<!-- Node2&#45;&gt;Node14 -->
<g id="edge21" class="edge">
<title>Node2&#45;&gt;Node14</title>
<path fill="none" stroke="midnightblue" d="M354.63,-124C341.51,-124 327.41,-124 315.16,-124"/>
<polygon fill="midnightblue" stroke="midnightblue" points="354.88,-127.5 364.88,-124 354.88,-120.5 354.88,-127.5"/>
</g>
<!-- Node4 -->
<g id="node4" class="node">
<title>Node4</title>
<g id="a_node4"><a xlink:href="kmt_8c.html#a0c68a294cecc4be7cb4b495f15b883a0" target="_top" xlink:title="initialize kmt module">
<polygon fill="none" stroke="black" points="132.5,-228.5 132.5,-247.5 183.5,-247.5 183.5,-228.5 132.5,-228.5"/>
<text text-anchor="middle" x="158" y="-235.5" font-family="Helvetica,sans-Serif" font-size="10.00">kmt_init</text>
</a>
</g>
</g>
<!-- Node3&#45;&gt;Node4 -->
<g id="edge3" class="edge">
<title>Node3&#45;&gt;Node4</title>
<path fill="none" stroke="midnightblue" d="M222.87,-238C209.02,-238 194.94,-238 183.53,-238"/>
<polygon fill="midnightblue" stroke="midnightblue" points="222.87,-241.5 232.87,-238 222.87,-234.5 222.87,-241.5"/>
</g>
<!-- Node5 -->
<g id="node5" class="node">
<title>Node5</title>
<g id="a_node5"><a xlink:href="kmt_8c.html#af360ef0d98ca30e481cc58ea3695fd58" target="_top" xlink:title=" ">
<polygon fill="none" stroke="black" points="0,-152.5 0,-171.5 83,-171.5 83,-152.5 0,-152.5"/>
<text text-anchor="middle" x="41.5" y="-159.5" font-family="Helvetica,sans-Serif" font-size="10.00">MODULE_DEF</text>
</a>
</g>
</g>
<!-- Node4&#45;&gt;Node5 -->
<g id="edge4" class="edge">
<title>Node4&#45;&gt;Node5</title>
<path fill="none" stroke="midnightblue" d="M132.85,-222.92C128.23,-219.99 123.45,-216.92 119,-214 96.84,-199.48 71.46,-182.07 56.23,-171.53"/>
<polygon fill="midnightblue" stroke="midnightblue" points="131.07,-225.93 141.39,-228.31 134.8,-220.01 131.07,-225.93"/>
</g>
<!-- Node6&#45;&gt;Node5 -->
<g id="edge6" class="edge">
<title>Node6&#45;&gt;Node5</title>
<path fill="none" stroke="midnightblue" d="M115.21,-162C104.71,-162 93.45,-162 83.01,-162"/>
<polygon fill="midnightblue" stroke="midnightblue" points="115.41,-165.5 125.41,-162 115.41,-158.5 115.41,-165.5"/>
</g>
<!-- Node7&#45;&gt;Node4 -->
<g id="edge8" class="edge">
<title>Node7&#45;&gt;Node4</title>
<path fill="none" stroke="midnightblue" d="M242.31,-211.84C223.19,-217.84 200.5,-224.97 183.63,-230.26"/>
<polygon fill="midnightblue" stroke="midnightblue" points="243.44,-215.15 251.94,-208.81 241.35,-208.47 243.44,-215.15"/>
</g>
<!-- Node8&#45;&gt;Node4 -->
<g id="edge10" class="edge">
<title>Node8&#45;&gt;Node4</title>
<path fill="none" stroke="midnightblue" d="M239.82,-263.38C221.31,-257.57 199.94,-250.86 183.82,-245.8"/>
<polygon fill="midnightblue" stroke="midnightblue" points="238.88,-266.75 249.47,-266.41 240.97,-260.08 238.88,-266.75"/>
</g>
<!-- Node9&#45;&gt;Node5 -->
<g id="edge12" class="edge">
<title>Node9&#45;&gt;Node5</title>
<path fill="none" stroke="midnightblue" d="M118.35,-136.83C102.99,-141.92 85.62,-147.69 71.38,-152.41"/>
<polygon fill="midnightblue" stroke="midnightblue" points="119.72,-140.06 128.11,-133.59 117.51,-133.42 119.72,-140.06"/>
</g>
<!-- Node11 -->
<g id="node11" class="node">
<title>Node11</title>
<g id="a_node11"><a xlink:href="os_8c.html#aafec7046aa50c914df86d0d22d4fc1d1" target="_top" xlink:title=" ">
<polygon fill="none" stroke="black" points="0,-0.5 0,-19.5 83,-19.5 83,-0.5 0,-0.5"/>
<text text-anchor="middle" x="41.5" y="-7.5" font-family="Helvetica,sans-Serif" font-size="10.00">MODULE_DEF</text>
</a>
</g>
</g>
<!-- Node10&#45;&gt;Node11 -->
<g id="edge14" class="edge">
<title>Node10&#45;&gt;Node11</title>
<path fill="none" stroke="midnightblue" d="M123.26,-10C110.74,-10 96.42,-10 83.34,-10"/>
<polygon fill="midnightblue" stroke="midnightblue" points="123.28,-13.5 133.28,-10 123.28,-6.5 123.28,-13.5"/>
</g>
<!-- Node12&#45;&gt;Node5 -->
<g id="edge19" class="edge">
<title>Node12&#45;&gt;Node5</title>
<path fill="none" stroke="midnightblue" d="M241.8,-44.66C207.53,-43.41 156.95,-46.02 119,-67 82.49,-87.19 56.87,-132.56 47,-152.4"/>
<polygon fill="midnightblue" stroke="midnightblue" points="241.72,-48.16 251.88,-45.15 242.06,-41.17 241.72,-48.16"/>
</g>
<!-- Node12&#45;&gt;Node6 -->
<g id="edge16" class="edge">
<title>Node12&#45;&gt;Node6</title>
<path fill="none" stroke="midnightblue" d="M265.32,-65.53C243.67,-91.27 204.9,-136.89 197,-143 192.45,-146.52 187.14,-149.66 181.97,-152.32"/>
<polygon fill="midnightblue" stroke="midnightblue" points="268.18,-67.56 271.93,-57.66 262.82,-63.06 268.18,-67.56"/>
</g>
<!-- Node12&#45;&gt;Node9 -->
<g id="edge17" class="edge">
<title>Node12&#45;&gt;Node9</title>
<path fill="none" stroke="midnightblue" d="M249.12,-62.25C243.6,-65.22 238.01,-68.52 233,-72 215.17,-84.38 214.88,-92.69 197,-105 192.02,-108.43 186.33,-111.61 180.9,-114.35"/>
<polygon fill="midnightblue" stroke="midnightblue" points="250.94,-65.26 258.25,-57.59 247.75,-59.03 250.94,-65.26"/>
</g>
<!-- Node12&#45;&gt;Node10 -->
<g id="edge20" class="edge">
<title>Node12&#45;&gt;Node10</title>
<path fill="none" stroke="midnightblue" d="M242.17,-36.12C222.77,-30.03 199.74,-22.79 182.83,-17.48"/>
<polygon fill="midnightblue" stroke="midnightblue" points="241.35,-39.53 251.94,-39.19 243.44,-32.85 241.35,-39.53"/>
</g>
<!-- Node13 -->
<g id="node13" class="node">
<title>Node13</title>
<g id="a_node13"><a xlink:href="kernel_8h.html#a7ef2d722f9c7f8acc1801144a5188825" target="_top" xlink:title=" ">
<polygon fill="none" stroke="black" points="128.5,-76.5 128.5,-95.5 187.5,-95.5 187.5,-76.5 128.5,-76.5"/>
<text text-anchor="middle" x="158" y="-83.5" font-family="Helvetica,sans-Serif" font-size="10.00">MODULE</text>
</a>
</g>
</g>
<!-- Node12&#45;&gt;Node13 -->
<g id="edge18" class="edge">
<title>Node12&#45;&gt;Node13</title>
<path fill="none" stroke="midnightblue" d="M242,-59.93C224.46,-65.44 203.98,-71.87 187.75,-76.97"/>
<polygon fill="midnightblue" stroke="midnightblue" points="243.44,-63.15 251.94,-56.81 241.35,-56.47 243.44,-63.15"/>
</g>
<!-- Node14&#45;&gt;Node5 -->
<g id="edge25" class="edge">
<title>Node14&#45;&gt;Node5</title>
<path fill="none" stroke="midnightblue" d="M262.56,-140.71C246.84,-154.54 222.36,-173.13 197,-181 152.99,-194.66 99.07,-181.69 67.96,-171.51"/>
<polygon fill="midnightblue" stroke="midnightblue" points="265.31,-142.94 270.34,-133.62 260.59,-137.77 265.31,-142.94"/>
</g>
<!-- Node14&#45;&gt;Node6 -->
<g id="edge22" class="edge">
<title>Node14&#45;&gt;Node6</title>
<path fill="none" stroke="midnightblue" d="M239.62,-136.68C223.27,-141.81 204.71,-147.64 189.52,-152.41"/>
<polygon fill="midnightblue" stroke="midnightblue" points="240.97,-139.92 249.47,-133.59 238.88,-133.25 240.97,-139.92"/>
</g>
<!-- Node14&#45;&gt;Node9 -->
<g id="edge23" class="edge">
<title>Node14&#45;&gt;Node9</title>
<path fill="none" stroke="midnightblue" d="M236.84,-124C223.89,-124 209.77,-124 197.16,-124"/>
<polygon fill="midnightblue" stroke="midnightblue" points="236.94,-127.5 246.94,-124 236.94,-120.5 236.94,-127.5"/>
</g>
<!-- Node14&#45;&gt;Node10 -->
<g id="edge26" class="edge">
<title>Node14&#45;&gt;Node10</title>
<path fill="none" stroke="midnightblue" d="M262.13,-107.17C236.44,-82.96 189.9,-39.11 169.29,-19.69"/>
<polygon fill="midnightblue" stroke="midnightblue" points="260.01,-109.97 269.68,-114.28 264.81,-104.88 260.01,-109.97"/>
</g>
<!-- Node14&#45;&gt;Node13 -->
<g id="edge24" class="edge">
<title>Node14&#45;&gt;Node13</title>
<path fill="none" stroke="midnightblue" d="M239.79,-111.37C222.8,-106.04 203.39,-99.94 187.86,-95.06"/>
<polygon fill="midnightblue" stroke="midnightblue" points="238.88,-114.75 249.47,-114.41 240.97,-108.08 238.88,-114.75"/>
</g>
</g>
</svg>
