<?xml version="1.0" encoding="UTF-8" standalone="no"?>
<!DOCTYPE svg PUBLIC "-//W3C//DTD SVG 1.1//EN"
 "http://www.w3.org/Graphics/SVG/1.1/DTD/svg11.dtd">
<!-- Generated by graphviz version 3.0.0 (20220413.0106)
 -->
<!-- Title: spin_holding Pages: 1 -->
<svg width="651pt" height="563pt"
 viewBox="0.00 0.00 651.00 563.19" xmlns="http://www.w3.org/2000/svg" xmlns:xlink="http://www.w3.org/1999/xlink">
<g id="graph0" class="graph" transform="scale(1 1) rotate(0) translate(4 559.19)">
<title>spin_holding</title>
<!-- Node1 -->
<g id="node1" class="node">
<title>Node1</title>
<g id="a_node1"><a xlink:title="check current cpu has the lock">
<polygon fill="#bfbfbf" stroke="black" points="572,-304.5 572,-323.5 643,-323.5 643,-304.5 572,-304.5"/>
<text text-anchor="middle" x="607.5" y="-311.5" font-family="Helvetica,sans-Serif" font-size="10.00">spin_holding</text>
</a>
</g>
</g>
<!-- Node2 -->
<g id="node2" class="node">
<title>Node2</title>
<g id="a_node2"><a xlink:href="kmt_8c.html#af9c485ce0d89d6624e6e80e31d8ed207" target="_top" xlink:title="handler: save context to current task">
<polygon fill="none" stroke="black" points="330.5,-494.5 330.5,-513.5 426.5,-513.5 426.5,-494.5 330.5,-494.5"/>
<text text-anchor="middle" x="378.5" y="-501.5" font-family="Helvetica,sans-Serif" font-size="10.00">kmt_context_save</text>
</a>
</g>
</g>
<!-- Node1&#45;&gt;Node2 -->
<g id="edge1" class="edge">
<title>Node1&#45;&gt;Node2</title>
<path fill="none" stroke="midnightblue" d="M597.02,-332.78C585.04,-355.21 562.73,-392.95 536,-419 496.79,-457.21 481.14,-460.87 432,-485 424.87,-488.5 416.91,-491.71 409.4,-494.45"/>
<polygon fill="midnightblue" stroke="midnightblue" points="600.26,-334.14 601.78,-323.65 594.05,-330.9 600.26,-334.14"/>
</g>
<!-- Node5 -->
<g id="node5" class="node">
<title>Node5</title>
<g id="a_node5"><a xlink:href="kmt_8c.html#a5ddb8743298012e84cf9cb5faf22212b" target="_top" xlink:title="create thread">
<polygon fill="none" stroke="black" points="346,-266.5 346,-285.5 411,-285.5 411,-266.5 346,-266.5"/>
<text text-anchor="middle" x="378.5" y="-273.5" font-family="Helvetica,sans-Serif" font-size="10.00">kmt_create</text>
</a>
</g>
</g>
<!-- Node1&#45;&gt;Node5 -->
<g id="edge4" class="edge">
<title>Node1&#45;&gt;Node5</title>
<path fill="none" stroke="midnightblue" d="M564.84,-301.72C555.42,-299.24 545.41,-296.83 536,-295 493.15,-286.67 442.94,-281.34 411.18,-278.51"/>
<polygon fill="midnightblue" stroke="midnightblue" points="564.22,-305.18 574.79,-304.42 566.06,-298.42 564.22,-305.18"/>
</g>
<!-- Node6 -->
<g id="node6" class="node">
<title>Node6</title>
<g id="a_node6"><a xlink:href="kmt_8c.html#ad3fbc643b7b6092120c5152b4c890354" target="_top" xlink:title="handler: handle program errors">
<polygon fill="none" stroke="black" points="218.5,-456.5 218.5,-475.5 276.5,-475.5 276.5,-456.5 218.5,-456.5"/>
<text text-anchor="middle" x="247.5" y="-463.5" font-family="Helvetica,sans-Serif" font-size="10.00">kmt_error</text>
</a>
</g>
</g>
<!-- Node1&#45;&gt;Node6 -->
<g id="edge6" class="edge">
<title>Node1&#45;&gt;Node6</title>
<path fill="none" stroke="midnightblue" d="M603.91,-333.61C598.13,-370.2 580.92,-449.45 536,-497 501.16,-533.87 481.59,-533.32 432,-544 385.51,-554.02 368.85,-562.41 325,-544 291.42,-529.9 265.18,-493.08 254.16,-475.54"/>
<polygon fill="midnightblue" stroke="midnightblue" points="607.38,-334.11 605.36,-323.71 600.45,-333.1 607.38,-334.11"/>
</g>
<!-- Node7 -->
<g id="node7" class="node">
<title>Node7</title>
<g id="a_node7"><a xlink:href="kmt_8c.html#a13cbe2d83bf10c3302124613fa18f8a4" target="_top" xlink:title="print all tasks notice: do not garantee concurrency safety">
<polygon fill="none" stroke="black" points="328,-418.5 328,-437.5 429,-437.5 429,-418.5 328,-418.5"/>
<text text-anchor="middle" x="378.5" y="-425.5" font-family="Helvetica,sans-Serif" font-size="10.00">kmt_print_all_tasks</text>
</a>
</g>
</g>
<!-- Node1&#45;&gt;Node7 -->
<g id="edge8" class="edge">
<title>Node1&#45;&gt;Node7</title>
<path fill="none" stroke="midnightblue" d="M580.19,-328.43C566.98,-335.61 550.7,-344.37 536,-352 490.14,-375.82 478.62,-381.7 432,-404 421.78,-408.89 410.36,-414.14 400.78,-418.48"/>
<polygon fill="midnightblue" stroke="midnightblue" points="582.09,-331.38 589.2,-323.52 578.74,-325.23 582.09,-331.38"/>
</g>
<!-- Node8 -->
<g id="node8" class="node">
<title>Node8</title>
<g id="a_node8"><a xlink:href="kmt_8c.html#ad4d70b4093829da1c0b0631abdff7747" target="_top" xlink:title="handler: schedule next task to run Notice: this should be the only handler which returns real Context">
<polygon fill="none" stroke="black" points="209,-418.5 209,-437.5 286,-437.5 286,-418.5 209,-418.5"/>
<text text-anchor="middle" x="247.5" y="-425.5" font-family="Helvetica,sans-Serif" font-size="10.00">kmt_schedule</text>
</a>
</g>
</g>
<!-- Node1&#45;&gt;Node8 -->
<g id="edge15" class="edge">
<title>Node1&#45;&gt;Node8</title>
<path fill="none" stroke="midnightblue" d="M600.64,-333.65C591.04,-363.19 569.62,-419.56 536,-457 499.42,-497.73 484.57,-507.73 432,-523 386.33,-536.27 365.18,-548.43 325,-523 293.42,-503.01 315.48,-473.38 289,-447 285.26,-443.27 280.65,-440.18 275.89,-437.66"/>
<polygon fill="midnightblue" stroke="midnightblue" points="604.09,-334.33 603.73,-323.74 597.41,-332.24 604.09,-334.33"/>
</g>
<!-- Node9 -->
<g id="node9" class="node">
<title>Node9</title>
<g id="a_node9"><a xlink:href="kmt_8c.html#ab4e9dee1880e455874374b44b5785bc3" target="_top" xlink:title="print all current_tasks notice: do not garantee concurrency safety">
<polygon fill="none" stroke="black" points="325,-456.5 325,-475.5 432,-475.5 432,-456.5 325,-456.5"/>
<text text-anchor="middle" x="378.5" y="-463.5" font-family="Helvetica,sans-Serif" font-size="10.00">kmt_print_cpu_tasks</text>
</a>
</g>
</g>
<!-- Node1&#45;&gt;Node9 -->
<g id="edge12" class="edge">
<title>Node1&#45;&gt;Node9</title>
<path fill="none" stroke="midnightblue" d="M591.17,-331.01C577.49,-345.69 556.5,-366.99 536,-383 493.23,-416.41 480.88,-423.42 432,-447 424.75,-450.5 416.69,-453.72 409.09,-456.49"/>
<polygon fill="midnightblue" stroke="midnightblue" points="593.78,-333.35 597.97,-323.62 588.63,-328.61 593.78,-333.35"/>
</g>
<!-- Node10 -->
<g id="node10" class="node">
<title>Node10</title>
<g id="a_node10"><a xlink:href="kmt_8c.html#a47d8887c87041abd5ea3148232b65c93" target="_top" xlink:title="tear down a thread">
<polygon fill="none" stroke="black" points="339.5,-0.5 339.5,-19.5 417.5,-19.5 417.5,-0.5 339.5,-0.5"/>
<text text-anchor="middle" x="378.5" y="-7.5" font-family="Helvetica,sans-Serif" font-size="10.00">kmt_teardown</text>
</a>
</g>
</g>
<!-- Node1&#45;&gt;Node10 -->
<g id="edge16" class="edge">
<title>Node1&#45;&gt;Node10</title>
<path fill="none" stroke="midnightblue" d="M605.08,-294.24C601.12,-252.11 586.65,-152.2 536,-89 505.93,-51.47 453.36,-30.18 417.52,-19.37"/>
<polygon fill="midnightblue" stroke="midnightblue" points="601.6,-294.62 605.92,-304.29 608.58,-294.03 601.6,-294.62"/>
</g>
<!-- Node11 -->
<g id="node11" class="node">
<title>Node11</title>
<g id="a_node11"><a xlink:href="kmt_8c.html#a75ea8dbba16d64a343a45962bd593930" target="_top" xlink:title="handler: handle yield interrupt (0x81)">
<polygon fill="none" stroke="black" points="349.5,-342.5 349.5,-361.5 407.5,-361.5 407.5,-342.5 349.5,-342.5"/>
<text text-anchor="middle" x="378.5" y="-349.5" font-family="Helvetica,sans-Serif" font-size="10.00">kmt_yield</text>
</a>
</g>
</g>
<!-- Node1&#45;&gt;Node11 -->
<g id="edge18" class="edge">
<title>Node1&#45;&gt;Node11</title>
<path fill="none" stroke="midnightblue" d="M564.84,-326.28C555.42,-328.76 545.41,-331.17 536,-333 491.54,-341.65 439.15,-347.05 407.68,-349.8"/>
<polygon fill="midnightblue" stroke="midnightblue" points="566.06,-329.58 574.79,-323.58 564.22,-322.82 566.06,-329.58"/>
</g>
<!-- Node12 -->
<g id="node12" class="node">
<title>Node12</title>
<g id="a_node12"><a xlink:href="os_8c.html#a2be1c9facb49d4439f41b1537d0f3ef8" target="_top" xlink:title="System trap entry.">
<polygon fill="none" stroke="black" points="354,-38.5 354,-57.5 403,-57.5 403,-38.5 354,-38.5"/>
<text text-anchor="middle" x="378.5" y="-45.5" font-family="Helvetica,sans-Serif" font-size="10.00">os_trap</text>
</a>
</g>
</g>
<!-- Node1&#45;&gt;Node12 -->
<g id="edge20" class="edge">
<title>Node1&#45;&gt;Node12</title>
<path fill="none" stroke="midnightblue" d="M601.93,-294.73C593.41,-261.86 572.54,-194.06 536,-148 499.93,-102.53 437.21,-71.57 403.15,-57.19"/>
<polygon fill="midnightblue" stroke="midnightblue" points="598.54,-295.6 604.36,-304.45 605.33,-293.9 598.54,-295.6"/>
</g>
<!-- Node14 -->
<g id="node14" class="node">
<title>Node14</title>
<g id="a_node14"><a xlink:href="sem_8c.html#ad994e433f3a6bf8626272437cb54c114" target="_top" xlink:title="wake up a task form tasks waiting for the semaphore instance">
<polygon fill="none" stroke="black" points="345.5,-190.5 345.5,-209.5 411.5,-209.5 411.5,-190.5 345.5,-190.5"/>
<text text-anchor="middle" x="378.5" y="-197.5" font-family="Helvetica,sans-Serif" font-size="10.00">sem_signal</text>
</a>
</g>
</g>
<!-- Node1&#45;&gt;Node14 -->
<g id="edge22" class="edge">
<title>Node1&#45;&gt;Node14</title>
<path fill="none" stroke="midnightblue" d="M598.36,-295.31C587.58,-273.04 566.33,-236.63 536,-219 497.67,-196.72 445.18,-195.03 411.8,-196.79"/>
<polygon fill="midnightblue" stroke="midnightblue" points="595.2,-296.82 602.57,-304.43 601.55,-293.88 595.2,-296.82"/>
</g>
<!-- Node16 -->
<g id="node16" class="node">
<title>Node16</title>
<g id="a_node16"><a xlink:href="sem_8c.html#a85ca67864bb0af1966a5c2463bd16fe8" target="_top" xlink:title="release semaphore(Mutex) and sleep task holding the sem">
<polygon fill="none" stroke="black" points="349,-114.5 349,-133.5 408,-133.5 408,-114.5 349,-114.5"/>
<text text-anchor="middle" x="378.5" y="-121.5" font-family="Helvetica,sans-Serif" font-size="10.00">sem_wait</text>
</a>
</g>
</g>
<!-- Node1&#45;&gt;Node16 -->
<g id="edge25" class="edge">
<title>Node1&#45;&gt;Node16</title>
<path fill="none" stroke="midnightblue" d="M599.55,-294.77C589.29,-268.79 567.81,-222.47 536,-194 498.41,-160.35 441.99,-140.57 408.15,-131.05"/>
<polygon fill="midnightblue" stroke="midnightblue" points="596.32,-296.14 603.15,-304.25 602.87,-293.66 596.32,-296.14"/>
</g>
<!-- Node17 -->
<g id="node17" class="node">
<title>Node17</title>
<g id="a_node17"><a xlink:href="spinlock_8c.html#ab6f3c37ec37006951feccc3c05387cce" target="_top" xlink:title="acquire spinlock to current cpu">
<polygon fill="none" stroke="black" points="473,-304.5 473,-323.5 531,-323.5 531,-304.5 473,-304.5"/>
<text text-anchor="middle" x="502" y="-311.5" font-family="Helvetica,sans-Serif" font-size="10.00">spin_lock</text>
</a>
</g>
</g>
<!-- Node1&#45;&gt;Node17 -->
<g id="edge28" class="edge">
<title>Node1&#45;&gt;Node17</title>
<path fill="none" stroke="midnightblue" d="M561.63,-314C551.34,-314 540.67,-314 531.3,-314"/>
<polygon fill="midnightblue" stroke="midnightblue" points="561.75,-317.5 571.75,-314 561.75,-310.5 561.75,-317.5"/>
</g>
<!-- Node18 -->
<g id="node18" class="node">
<title>Node18</title>
<g id="a_node18"><a xlink:href="spinlock_8c.html#acdf118d615a4bc4064e991add9a80995" target="_top" xlink:title="release spinlock from current cpu">
<polygon fill="none" stroke="black" points="468,-228.5 468,-247.5 536,-247.5 536,-228.5 468,-228.5"/>
<text text-anchor="middle" x="502" y="-235.5" font-family="Helvetica,sans-Serif" font-size="10.00">spin_unlock</text>
</a>
</g>
</g>
<!-- Node1&#45;&gt;Node18 -->
<g id="edge41" class="edge">
<title>Node1&#45;&gt;Node18</title>
<path fill="none" stroke="midnightblue" d="M585.09,-298.15C571.13,-287.83 552.51,-274.09 536,-262 529.48,-257.23 522.23,-251.95 516.18,-247.56"/>
<polygon fill="midnightblue" stroke="midnightblue" points="583.4,-301.26 593.53,-304.39 587.57,-295.63 583.4,-301.26"/>
</g>
<!-- Node3 -->
<g id="node3" class="node">
<title>Node3</title>
<g id="a_node3"><a xlink:href="kmt_8c.html#a0c68a294cecc4be7cb4b495f15b883a0" target="_top" xlink:title="initialize kmt module">
<polygon fill="none" stroke="black" points="119,-418.5 119,-437.5 170,-437.5 170,-418.5 119,-418.5"/>
<text text-anchor="middle" x="144.5" y="-425.5" font-family="Helvetica,sans-Serif" font-size="10.00">kmt_init</text>
</a>
</g>
</g>
<!-- Node2&#45;&gt;Node3 -->
<g id="edge2" class="edge">
<title>Node2&#45;&gt;Node3</title>
<path fill="none" stroke="midnightblue" d="M319.85,-506.6C285.36,-506.02 241.49,-501.4 206,-485 182.68,-474.22 162.54,-450.88 152.43,-437.65"/>
<polygon fill="midnightblue" stroke="midnightblue" points="320.21,-510.11 330.23,-506.66 320.25,-503.11 320.21,-510.11"/>
</g>
<!-- Node4 -->
<g id="node4" class="node">
<title>Node4</title>
<g id="a_node4"><a xlink:href="kmt_8c.html#af360ef0d98ca30e481cc58ea3695fd58" target="_top" xlink:title=" ">
<polygon fill="none" stroke="black" points="0,-190.5 0,-209.5 83,-209.5 83,-190.5 0,-190.5"/>
<text text-anchor="middle" x="41.5" y="-197.5" font-family="Helvetica,sans-Serif" font-size="10.00">MODULE_DEF</text>
</a>
</g>
</g>
<!-- Node3&#45;&gt;Node4 -->
<g id="edge3" class="edge">
<title>Node3&#45;&gt;Node4</title>
<path fill="none" stroke="midnightblue" d="M135.21,-409.29C114.68,-362.95 62.03,-244.09 46.73,-209.55"/>
<polygon fill="midnightblue" stroke="midnightblue" points="132.04,-410.77 139.29,-418.49 138.44,-407.93 132.04,-410.77"/>
</g>
<!-- Node5&#45;&gt;Node4 -->
<g id="edge5" class="edge">
<title>Node5&#45;&gt;Node4</title>
<path fill="none" stroke="midnightblue" d="M336.14,-266.62C271.53,-251.96 147.42,-223.8 83.21,-209.24"/>
<polygon fill="midnightblue" stroke="midnightblue" points="335.46,-270.05 345.98,-268.85 337.01,-263.22 335.46,-270.05"/>
</g>
<!-- Node6&#45;&gt;Node3 -->
<g id="edge7" class="edge">
<title>Node6&#45;&gt;Node3</title>
<path fill="none" stroke="midnightblue" d="M211.49,-452.83C197.91,-447.72 182.68,-441.99 170.28,-437.32"/>
<polygon fill="midnightblue" stroke="midnightblue" points="210.42,-456.17 221.01,-456.41 212.89,-449.61 210.42,-456.17"/>
</g>
<!-- Node7&#45;&gt;Node6 -->
<g id="edge9" class="edge">
<title>Node7&#45;&gt;Node6</title>
<path fill="none" stroke="midnightblue" d="M335.22,-440.46C316,-446.12 293.79,-452.66 276.66,-457.7"/>
<polygon fill="midnightblue" stroke="midnightblue" points="336.34,-443.77 344.95,-437.59 334.37,-437.06 336.34,-443.77"/>
</g>
<!-- Node7&#45;&gt;Node8 -->
<g id="edge10" class="edge">
<title>Node7&#45;&gt;Node8</title>
<path fill="none" stroke="midnightblue" d="M317.74,-428C306.95,-428 295.98,-428 286.05,-428"/>
<polygon fill="midnightblue" stroke="midnightblue" points="317.99,-431.5 327.99,-428 317.99,-424.5 317.99,-431.5"/>
</g>
<!-- Node8&#45;&gt;Node3 -->
<g id="edge11" class="edge">
<title>Node8&#45;&gt;Node3</title>
<path fill="none" stroke="midnightblue" d="M198.74,-428C188.89,-428 178.89,-428 170.27,-428"/>
<polygon fill="midnightblue" stroke="midnightblue" points="198.89,-431.5 208.89,-428 198.89,-424.5 198.89,-431.5"/>
</g>
<!-- Node9&#45;&gt;Node6 -->
<g id="edge13" class="edge">
<title>Node9&#45;&gt;Node6</title>
<path fill="none" stroke="midnightblue" d="M314.56,-466C301.28,-466 287.92,-466 276.72,-466"/>
<polygon fill="midnightblue" stroke="midnightblue" points="314.66,-469.5 324.66,-466 314.66,-462.5 314.66,-469.5"/>
</g>
<!-- Node9&#45;&gt;Node8 -->
<g id="edge14" class="edge">
<title>Node9&#45;&gt;Node8</title>
<path fill="none" stroke="midnightblue" d="M334.95,-453.46C317.4,-448.3 297.39,-442.4 281.04,-437.59"/>
<polygon fill="midnightblue" stroke="midnightblue" points="334.37,-456.94 344.95,-456.41 336.34,-450.23 334.37,-456.94"/>
</g>
<!-- Node10&#45;&gt;Node4 -->
<g id="edge17" class="edge">
<title>Node10&#45;&gt;Node4</title>
<path fill="none" stroke="midnightblue" d="M329.02,-8.27C271.64,-8.91 176.62,-18.8 119,-72 80.39,-107.65 54.91,-167.25 46.01,-190.4"/>
<polygon fill="midnightblue" stroke="midnightblue" points="329.29,-11.77 339.28,-8.25 329.27,-4.77 329.29,-11.77"/>
</g>
<!-- Node11&#45;&gt;Node3 -->
<g id="edge19" class="edge">
<title>Node11&#45;&gt;Node3</title>
<path fill="none" stroke="midnightblue" d="M339.37,-364.49C291.51,-380.17 210.81,-406.61 170.29,-419.88"/>
<polygon fill="midnightblue" stroke="midnightblue" points="340.64,-367.76 349.05,-361.32 338.46,-361.11 340.64,-367.76"/>
</g>
<!-- Node13 -->
<g id="node13" class="node">
<title>Node13</title>
<g id="a_node13"><a xlink:href="os_8c.html#aafec7046aa50c914df86d0d22d4fc1d1" target="_top" xlink:title=" ">
<polygon fill="none" stroke="black" points="206,-38.5 206,-57.5 289,-57.5 289,-38.5 206,-38.5"/>
<text text-anchor="middle" x="247.5" y="-45.5" font-family="Helvetica,sans-Serif" font-size="10.00">MODULE_DEF</text>
</a>
</g>
</g>
<!-- Node12&#45;&gt;Node13 -->
<g id="edge21" class="edge">
<title>Node12&#45;&gt;Node13</title>
<path fill="none" stroke="midnightblue" d="M343.48,-48C326.85,-48 306.7,-48 289.25,-48"/>
<polygon fill="midnightblue" stroke="midnightblue" points="343.84,-51.5 353.84,-48 343.84,-44.5 343.84,-51.5"/>
</g>
<!-- Node14&#45;&gt;Node4 -->
<g id="edge24" class="edge">
<title>Node14&#45;&gt;Node4</title>
<path fill="none" stroke="midnightblue" d="M335.09,-200C270.14,-200 146.84,-200 83.03,-200"/>
<polygon fill="midnightblue" stroke="midnightblue" points="335.38,-203.5 345.38,-200 335.38,-196.5 335.38,-203.5"/>
</g>
<!-- Node15 -->
<g id="node15" class="node">
<title>Node15</title>
<g id="a_node15"><a xlink:href="kernel_8h.html#a7ef2d722f9c7f8acc1801144a5188825" target="_top" xlink:title=" ">
<polygon fill="none" stroke="black" points="218,-152.5 218,-171.5 277,-171.5 277,-152.5 218,-152.5"/>
<text text-anchor="middle" x="247.5" y="-159.5" font-family="Helvetica,sans-Serif" font-size="10.00">MODULE</text>
</a>
</g>
</g>
<!-- Node14&#45;&gt;Node15 -->
<g id="edge23" class="edge">
<title>Node14&#45;&gt;Node15</title>
<path fill="none" stroke="midnightblue" d="M335.62,-187.66C316.52,-182.04 294.41,-175.52 277.23,-170.46"/>
<polygon fill="midnightblue" stroke="midnightblue" points="334.7,-191.04 345.28,-190.51 336.68,-184.33 334.7,-191.04"/>
</g>
<!-- Node16&#45;&gt;Node4 -->
<g id="edge27" class="edge">
<title>Node16&#45;&gt;Node4</title>
<path fill="none" stroke="midnightblue" d="M338.68,-125.81C303.65,-128.02 250.88,-132.83 206,-143 154.11,-154.76 95.81,-177.51 64.78,-190.43"/>
<polygon fill="midnightblue" stroke="midnightblue" points="339.18,-129.28 348.95,-125.2 338.76,-122.29 339.18,-129.28"/>
</g>
<!-- Node16&#45;&gt;Node15 -->
<g id="edge26" class="edge">
<title>Node16&#45;&gt;Node15</title>
<path fill="none" stroke="midnightblue" d="M339.17,-135.29C319.25,-141.16 295.32,-148.21 277.05,-153.59"/>
<polygon fill="midnightblue" stroke="midnightblue" points="340.27,-138.62 348.87,-132.43 338.29,-131.9 340.27,-138.62"/>
</g>
<!-- Node17&#45;&gt;Node2 -->
<g id="edge29" class="edge">
<title>Node17&#45;&gt;Node2</title>
<path fill="none" stroke="midnightblue" d="M498.37,-333.6C492.65,-368.73 475.87,-442.69 432,-485 427.95,-488.9 423.05,-492.01 417.87,-494.49"/>
<polygon fill="midnightblue" stroke="midnightblue" points="501.84,-334.05 499.86,-323.65 494.92,-333.02 501.84,-334.05"/>
</g>
<!-- Node17&#45;&gt;Node4 -->
<g id="edge37" class="edge">
<title>Node17&#45;&gt;Node4</title>
<path fill="none" stroke="midnightblue" d="M501.43,-333.72C501.15,-376.67 493.68,-478.41 432,-523 350.42,-581.98 299.91,-544.26 206,-508 161.95,-490.99 146.82,-485.16 119,-447 61.62,-368.28 46.55,-245.54 43.29,-209.97"/>
<polygon fill="midnightblue" stroke="midnightblue" points="504.93,-333.67 501.36,-323.69 497.93,-333.71 504.93,-333.67"/>
</g>
<!-- Node17&#45;&gt;Node5 -->
<g id="edge30" class="edge">
<title>Node17&#45;&gt;Node5</title>
<path fill="none" stroke="midnightblue" d="M463.15,-302.16C446.08,-296.82 426.18,-290.6 410.08,-285.56"/>
<polygon fill="midnightblue" stroke="midnightblue" points="462.23,-305.54 472.82,-305.19 464.32,-298.86 462.23,-305.54"/>
</g>
<!-- Node17&#45;&gt;Node7 -->
<g id="edge31" class="edge">
<title>Node17&#45;&gt;Node7</title>
<path fill="none" stroke="midnightblue" d="M490.67,-332.36C478.73,-352.22 457.41,-383.76 432,-404 424.63,-409.87 415.6,-414.67 407.11,-418.38"/>
<polygon fill="midnightblue" stroke="midnightblue" points="493.74,-334.05 495.76,-323.65 487.7,-330.52 493.74,-334.05"/>
</g>
<!-- Node17&#45;&gt;Node8 -->
<g id="edge33" class="edge">
<title>Node17&#45;&gt;Node8</title>
<path fill="none" stroke="midnightblue" d="M484.26,-331.05C471.08,-343.63 451.69,-360.35 432,-371 406.47,-384.81 330.87,-406.18 285.06,-418.45"/>
<polygon fill="midnightblue" stroke="midnightblue" points="486.92,-333.34 491.62,-323.84 482.02,-328.34 486.92,-333.34"/>
</g>
<!-- Node17&#45;&gt;Node9 -->
<g id="edge32" class="edge">
<title>Node17&#45;&gt;Node9</title>
<path fill="none" stroke="midnightblue" d="M495.93,-333.2C487.41,-361.87 467.56,-415.83 432,-447 427.63,-450.83 422.42,-453.91 417.01,-456.38"/>
<polygon fill="midnightblue" stroke="midnightblue" points="499.31,-334.12 498.65,-323.55 492.57,-332.22 499.31,-334.12"/>
</g>
<!-- Node17&#45;&gt;Node10 -->
<g id="edge34" class="edge">
<title>Node17&#45;&gt;Node10</title>
<path fill="none" stroke="midnightblue" d="M488.23,-295.95C481.19,-285.13 472.91,-270.84 468,-257 433.72,-160.31 497.31,-108.12 432,-29 428.17,-24.37 423.12,-20.86 417.66,-18.21"/>
<polygon fill="midnightblue" stroke="midnightblue" points="485.48,-298.13 493.98,-304.45 491.28,-294.21 485.48,-298.13"/>
</g>
<!-- Node17&#45;&gt;Node11 -->
<g id="edge35" class="edge">
<title>Node17&#45;&gt;Node11</title>
<path fill="none" stroke="midnightblue" d="M463.2,-325.82C445.2,-331.45 424.06,-338.06 407.53,-343.23"/>
<polygon fill="midnightblue" stroke="midnightblue" points="464.32,-329.14 472.82,-322.81 462.23,-322.46 464.32,-329.14"/>
</g>
<!-- Node17&#45;&gt;Node12 -->
<g id="edge38" class="edge">
<title>Node17&#45;&gt;Node12</title>
<path fill="none" stroke="midnightblue" d="M488.62,-295.8C481.71,-284.94 473.43,-270.64 468,-257 442.33,-192.49 464.58,-166.31 432,-105 421.77,-85.75 403.47,-68.04 391.4,-57.63"/>
<polygon fill="midnightblue" stroke="midnightblue" points="485.82,-297.91 494.23,-304.36 491.68,-294.08 485.82,-297.91"/>
</g>
<!-- Node17&#45;&gt;Node14 -->
<g id="edge39" class="edge">
<title>Node17&#45;&gt;Node14</title>
<path fill="none" stroke="midnightblue" d="M483.06,-297.17C457.26,-272.96 410.52,-229.11 389.83,-209.69"/>
<polygon fill="midnightblue" stroke="midnightblue" points="480.95,-299.99 490.64,-304.28 485.74,-294.89 480.95,-299.99"/>
</g>
<!-- Node17&#45;&gt;Node15 -->
<g id="edge36" class="edge">
<title>Node17&#45;&gt;Node15</title>
<path fill="none" stroke="midnightblue" d="M462.66,-319.33C424.61,-322.58 366.17,-321.87 325,-295 279.05,-265.01 257.51,-197.17 250.86,-171.81"/>
<polygon fill="midnightblue" stroke="midnightblue" points="463.21,-322.79 472.82,-318.32 462.52,-315.82 463.21,-322.79"/>
</g>
<!-- Node17&#45;&gt;Node16 -->
<g id="edge40" class="edge">
<title>Node17&#45;&gt;Node16</title>
<path fill="none" stroke="midnightblue" d="M489.9,-295.72C483.31,-284.64 474.91,-270.15 468,-257 450.62,-223.91 452.9,-211.99 432,-181 419.66,-162.71 401.59,-144.46 390.19,-133.71"/>
<polygon fill="midnightblue" stroke="midnightblue" points="487,-297.68 495.15,-304.45 493,-294.08 487,-297.68"/>
</g>
<!-- Node18&#45;&gt;Node2 -->
<g id="edge42" class="edge">
<title>Node18&#45;&gt;Node2</title>
<path fill="none" stroke="midnightblue" d="M488.39,-256.11C481.4,-266.94 473.12,-281.24 468,-295 438.04,-375.56 487.72,-419.56 432,-485 428.67,-488.91 424.47,-492.02 419.9,-494.48"/>
<polygon fill="midnightblue" stroke="midnightblue" points="491.44,-257.84 494.08,-247.58 485.62,-253.96 491.44,-257.84"/>
</g>
<!-- Node18&#45;&gt;Node4 -->
<g id="edge50" class="edge">
<title>Node18&#45;&gt;Node4</title>
<path fill="none" stroke="midnightblue" d="M497.44,-218.43C490.72,-187.92 472.98,-129.91 432,-105 311.95,-32.04 247.08,-91.3 119,-149 94.26,-160.14 68.64,-178.98 54.22,-190.37"/>
<polygon fill="midnightblue" stroke="midnightblue" points="494.03,-219.21 499.44,-228.32 500.89,-217.83 494.03,-219.21"/>
</g>
<!-- Node18&#45;&gt;Node5 -->
<g id="edge43" class="edge">
<title>Node18&#45;&gt;Node5</title>
<path fill="none" stroke="midnightblue" d="M460.46,-250.68C444.04,-255.81 425.4,-261.64 410.15,-266.41"/>
<polygon fill="midnightblue" stroke="midnightblue" points="461.84,-253.91 470.34,-247.59 459.75,-247.23 461.84,-253.91"/>
</g>
<!-- Node18&#45;&gt;Node7 -->
<g id="edge44" class="edge">
<title>Node18&#45;&gt;Node7</title>
<path fill="none" stroke="midnightblue" d="M489.9,-256.28C483.31,-267.36 474.91,-281.85 468,-295 450.62,-328.09 452.9,-340.01 432,-371 419.66,-389.29 401.59,-407.54 390.19,-418.29"/>
<polygon fill="midnightblue" stroke="midnightblue" points="493,-257.92 495.15,-247.55 487,-254.32 493,-257.92"/>
</g>
<!-- Node18&#45;&gt;Node8 -->
<g id="edge46" class="edge">
<title>Node18&#45;&gt;Node8</title>
<path fill="none" stroke="midnightblue" d="M457.34,-231.36C418.87,-227.95 363.17,-229.24 325,-257 269.24,-297.56 253.37,-388.21 249.56,-418.18"/>
<polygon fill="midnightblue" stroke="midnightblue" points="457.4,-234.88 467.71,-232.43 458.12,-227.92 457.4,-234.88"/>
</g>
<!-- Node18&#45;&gt;Node9 -->
<g id="edge45" class="edge">
<title>Node18&#45;&gt;Node9</title>
<path fill="none" stroke="midnightblue" d="M488.62,-256.2C481.71,-267.06 473.43,-281.36 468,-295 442.33,-359.51 478.2,-395.18 432,-447 428.52,-450.91 424.17,-454.01 419.47,-456.48"/>
<polygon fill="midnightblue" stroke="midnightblue" points="491.68,-257.92 494.23,-247.64 485.82,-254.09 491.68,-257.92"/>
</g>
<!-- Node18&#45;&gt;Node10 -->
<g id="edge47" class="edge">
<title>Node18&#45;&gt;Node10</title>
<path fill="none" stroke="midnightblue" d="M500.03,-218.12C496.98,-177.19 484.34,-82.85 432,-29 427.95,-24.83 422.91,-21.57 417.57,-19.02"/>
<polygon fill="midnightblue" stroke="midnightblue" points="496.54,-218.41 500.66,-228.17 503.53,-217.97 496.54,-218.41"/>
</g>
<!-- Node18&#45;&gt;Node11 -->
<g id="edge48" class="edge">
<title>Node18&#45;&gt;Node11</title>
<path fill="none" stroke="midnightblue" d="M483.06,-254.83C457.26,-279.04 410.52,-322.89 389.83,-342.31"/>
<polygon fill="midnightblue" stroke="midnightblue" points="485.74,-257.11 490.64,-247.72 480.95,-252.01 485.74,-257.11"/>
</g>
<!-- Node18&#45;&gt;Node12 -->
<g id="edge51" class="edge">
<title>Node18&#45;&gt;Node12</title>
<path fill="none" stroke="midnightblue" d="M497.68,-218.38C491,-184.45 472.91,-114.36 432,-72 424.2,-63.93 413.18,-58.32 403.24,-54.57"/>
<polygon fill="midnightblue" stroke="midnightblue" points="494.27,-219.21 499.53,-228.41 501.16,-217.95 494.27,-219.21"/>
</g>
<!-- Node18&#45;&gt;Node14 -->
<g id="edge52" class="edge">
<title>Node18&#45;&gt;Node14</title>
<path fill="none" stroke="midnightblue" d="M460.46,-225.32C444.04,-220.19 425.4,-214.36 410.15,-209.59"/>
<polygon fill="midnightblue" stroke="midnightblue" points="459.75,-228.77 470.34,-228.41 461.84,-222.09 459.75,-228.77"/>
</g>
<!-- Node18&#45;&gt;Node15 -->
<g id="edge49" class="edge">
<title>Node18&#45;&gt;Node15</title>
<path fill="none" stroke="midnightblue" d="M485.69,-220.71C472.8,-207.41 453.12,-189.85 432,-181 380.6,-159.46 314.3,-158.42 277.1,-159.97"/>
<polygon fill="midnightblue" stroke="midnightblue" points="483.41,-223.4 492.79,-228.33 488.53,-218.63 483.41,-223.4"/>
</g>
<!-- Node18&#45;&gt;Node16 -->
<g id="edge53" class="edge">
<title>Node18&#45;&gt;Node16</title>
<path fill="none" stroke="midnightblue" d="M490.67,-219.64C478.73,-199.78 457.41,-168.24 432,-148 424.63,-142.13 415.6,-137.33 407.11,-133.62"/>
<polygon fill="midnightblue" stroke="midnightblue" points="487.7,-221.48 495.76,-228.35 493.74,-217.95 487.7,-221.48"/>
</g>
</g>
</svg>
