<?xml version="1.0" encoding="UTF-8" standalone="no"?>
<!DOCTYPE svg PUBLIC "-//W3C//DTD SVG 1.1//EN"
 "http://www.w3.org/Graphics/SVG/1.1/DTD/svg11.dtd">
<!-- Generated by graphviz version 3.0.0 (20220413.0106)
 -->
<!-- Title: spin_holding Pages: 1 -->
<svg width="371pt" height="104pt"
 viewBox="0.00 0.00 371.00 104.00" xmlns="http://www.w3.org/2000/svg" xmlns:xlink="http://www.w3.org/1999/xlink">
<g id="graph0" class="graph" transform="scale(1 1) rotate(0) translate(4 100)">
<title>spin_holding</title>
<!-- Node1 -->
<g id="node1" class="node">
<title>Node1</title>
<g id="a_node1"><a xlink:title="check current cpu has the lock">
<polygon fill="#bfbfbf" stroke="black" points="0,-57.5 0,-76.5 71,-76.5 71,-57.5 0,-57.5"/>
<text text-anchor="middle" x="35.5" y="-64.5" font-family="Helvetica,sans-Serif" font-size="10.00">spin_holding</text>
</a>
</g>
</g>
<!-- Node2 -->
<g id="node2" class="node">
<title>Node2</title>
<g id="a_node2"><a xlink:href="mpe_8c.html#ab701de78cad32896c923ce900087e714" target="_top" xlink:title=" ">
<polygon fill="none" stroke="black" points="214,-76.5 214,-95.5 282,-95.5 282,-76.5 214,-76.5"/>
<text text-anchor="middle" x="248" y="-83.5" font-family="Helvetica,sans-Serif" font-size="10.00">cpu_current</text>
</a>
</g>
</g>
<!-- Node1&#45;&gt;Node2 -->
<g id="edge1" class="edge">
<title>Node1&#45;&gt;Node2</title>
<path fill="none" stroke="midnightblue" d="M64.97,-76.5C77.67,-80.27 92.93,-84.14 107,-86 139.16,-90.26 175.83,-90.08 203.58,-88.93"/>
<polygon fill="midnightblue" stroke="midnightblue" points="203.92,-92.41 213.74,-88.45 203.59,-85.42 203.92,-92.41"/>
</g>
<!-- Node3 -->
<g id="node3" class="node">
<title>Node3</title>
<g id="a_node3"><a xlink:href="spinlock_8c.html#afc9565dc7a5ddf77e1fa76f5d91caf78" target="_top" xlink:title="interrupt able">
<polygon fill="none" stroke="black" points="110,-57.5 110,-76.5 175,-76.5 175,-57.5 110,-57.5"/>
<text text-anchor="middle" x="142.5" y="-64.5" font-family="Helvetica,sans-Serif" font-size="10.00">spin_popcli</text>
</a>
</g>
</g>
<!-- Node1&#45;&gt;Node3 -->
<g id="edge2" class="edge">
<title>Node1&#45;&gt;Node3</title>
<path fill="none" stroke="midnightblue" d="M71.17,-67C80.3,-67 90.24,-67 99.69,-67"/>
<polygon fill="midnightblue" stroke="midnightblue" points="99.7,-70.5 109.7,-67 99.7,-63.5 99.7,-70.5"/>
</g>
<!-- Node7 -->
<g id="node7" class="node">
<title>Node7</title>
<g id="a_node7"><a xlink:href="spinlock_8c.html#ab213874cda54fdbbeb1bec1e5fa90b28" target="_top" xlink:title="interrupt disable">
<polygon fill="none" stroke="black" points="107,-19.5 107,-38.5 178,-38.5 178,-19.5 107,-19.5"/>
<text text-anchor="middle" x="142.5" y="-26.5" font-family="Helvetica,sans-Serif" font-size="10.00">spin_pushcli</text>
</a>
</g>
</g>
<!-- Node1&#45;&gt;Node7 -->
<g id="edge7" class="edge">
<title>Node1&#45;&gt;Node7</title>
<path fill="none" stroke="midnightblue" d="M63,-57.41C75.8,-52.78 91.38,-47.14 105.26,-42.11"/>
<polygon fill="midnightblue" stroke="midnightblue" points="106.8,-45.28 115.01,-38.59 104.42,-38.7 106.8,-45.28"/>
</g>
<!-- Node3&#45;&gt;Node2 -->
<g id="edge3" class="edge">
<title>Node3&#45;&gt;Node2</title>
<path fill="none" stroke="midnightblue" d="M175.12,-72.8C184.2,-74.47 194.28,-76.32 203.93,-78.09"/>
<polygon fill="midnightblue" stroke="midnightblue" points="203.32,-81.54 213.78,-79.9 204.58,-74.65 203.32,-81.54"/>
</g>
<!-- Node4 -->
<g id="node4" class="node">
<title>Node4</title>
<g id="a_node4"><a xlink:href="cte_8c.html#a4a139958742786c5085172be1f69bfd0" target="_top" xlink:title=" ">
<polygon fill="none" stroke="black" points="232,-38.5 232,-57.5 264,-57.5 264,-38.5 232,-38.5"/>
<text text-anchor="middle" x="248" y="-45.5" font-family="Helvetica,sans-Serif" font-size="10.00">iset</text>
</a>
</g>
</g>
<!-- Node3&#45;&gt;Node4 -->
<g id="edge4" class="edge">
<title>Node3&#45;&gt;Node4</title>
<path fill="none" stroke="midnightblue" d="M175.12,-61.2C190.09,-58.45 207.72,-55.21 221.77,-52.63"/>
<polygon fill="midnightblue" stroke="midnightblue" points="222.52,-56.05 231.72,-50.8 221.25,-49.17 222.52,-56.05"/>
</g>
<!-- Node5 -->
<g id="node5" class="node">
<title>Node5</title>
<g id="a_node5"><a xlink:href="x86_8h.html#acc919e7809ef1db2b20aa3804f540b5c" target="_top" xlink:title=" ">
<polygon fill="none" stroke="black" points="326,-38.5 326,-57.5 355,-57.5 355,-38.5 326,-38.5"/>
<text text-anchor="middle" x="340.5" y="-45.5" font-family="Helvetica,sans-Serif" font-size="10.00">cli</text>
</a>
</g>
</g>
<!-- Node4&#45;&gt;Node5 -->
<g id="edge5" class="edge">
<title>Node4&#45;&gt;Node5</title>
<path fill="none" stroke="midnightblue" d="M264.35,-48C278.37,-48 299.3,-48 315.52,-48"/>
<polygon fill="midnightblue" stroke="midnightblue" points="315.85,-51.5 325.85,-48 315.85,-44.5 315.85,-51.5"/>
</g>
<!-- Node6 -->
<g id="node6" class="node">
<title>Node6</title>
<g id="a_node6"><a xlink:href="x86_8h.html#a4657e97b270d7af5a23da2c4d642ada2" target="_top" xlink:title=" ">
<polygon fill="none" stroke="black" points="326,-76.5 326,-95.5 355,-95.5 355,-76.5 326,-76.5"/>
<text text-anchor="middle" x="340.5" y="-83.5" font-family="Helvetica,sans-Serif" font-size="10.00">sti</text>
</a>
</g>
</g>
<!-- Node4&#45;&gt;Node6 -->
<g id="edge6" class="edge">
<title>Node4&#45;&gt;Node6</title>
<path fill="none" stroke="midnightblue" d="M264.35,-54.45C278.63,-60.44 300.11,-69.46 316.45,-76.32"/>
<polygon fill="midnightblue" stroke="midnightblue" points="315.28,-79.62 325.85,-80.27 317.99,-73.17 315.28,-79.62"/>
</g>
<!-- Node7&#45;&gt;Node2 -->
<g id="edge8" class="edge">
<title>Node7&#45;&gt;Node2</title>
<path fill="none" stroke="midnightblue" d="M161.06,-38.67C177.44,-47.69 202.09,-61.27 220.8,-71.57"/>
<polygon fill="midnightblue" stroke="midnightblue" points="219.25,-74.72 229.7,-76.47 222.63,-68.58 219.25,-74.72"/>
</g>
<!-- Node7&#45;&gt;Node4 -->
<g id="edge11" class="edge">
<title>Node7&#45;&gt;Node4</title>
<path fill="none" stroke="midnightblue" d="M178.25,-35.38C192.47,-37.99 208.62,-40.96 221.7,-43.35"/>
<polygon fill="midnightblue" stroke="midnightblue" points="221.37,-46.85 231.84,-45.22 222.64,-39.97 221.37,-46.85"/>
</g>
<!-- Node8 -->
<g id="node8" class="node">
<title>Node8</title>
<g id="a_node8"><a xlink:href="cte_8c.html#a79659a2b801c42951e38f3a8821acbae" target="_top" xlink:title=" ">
<polygon fill="none" stroke="black" points="221.5,-0.5 221.5,-19.5 274.5,-19.5 274.5,-0.5 221.5,-0.5"/>
<text text-anchor="middle" x="248" y="-7.5" font-family="Helvetica,sans-Serif" font-size="10.00">ienabled</text>
</a>
</g>
</g>
<!-- Node7&#45;&gt;Node8 -->
<g id="edge9" class="edge">
<title>Node7&#45;&gt;Node8</title>
<path fill="none" stroke="midnightblue" d="M178.25,-22.62C188.93,-20.66 200.7,-18.5 211.43,-16.53"/>
<polygon fill="midnightblue" stroke="midnightblue" points="212.14,-19.96 221.34,-14.71 210.87,-13.07 212.14,-19.96"/>
</g>
<!-- Node9 -->
<g id="node9" class="node">
<title>Node9</title>
<g id="a_node9"><a xlink:href="x86_8h.html#a73d094f09c6a7dd3fc703aa8229933ee" target="_top" xlink:title=" ">
<polygon fill="none" stroke="black" points="318,-0.5 318,-19.5 363,-19.5 363,-0.5 318,-0.5"/>
<text text-anchor="middle" x="340.5" y="-7.5" font-family="Helvetica,sans-Serif" font-size="10.00">get_efl</text>
</a>
</g>
</g>
<!-- Node8&#45;&gt;Node9 -->
<g id="edge10" class="edge">
<title>Node8&#45;&gt;Node9</title>
<path fill="none" stroke="midnightblue" d="M274.69,-10C284.88,-10 296.71,-10 307.45,-10"/>
<polygon fill="midnightblue" stroke="midnightblue" points="307.73,-13.5 317.73,-10 307.73,-6.5 307.73,-13.5"/>
</g>
</g>
</svg>
