<?xml version="1.0" encoding="UTF-8" standalone="no"?>
<!DOCTYPE svg PUBLIC "-//W3C//DTD SVG 1.1//EN"
 "http://www.w3.org/Graphics/SVG/1.1/DTD/svg11.dtd">
<!-- Generated by graphviz version 3.0.0 (20220413.0106)
 -->
<!-- Title: spin_popcli Pages: 1 -->
<svg width="752pt" height="613pt"
 viewBox="0.00 0.00 752.00 613.22" xmlns="http://www.w3.org/2000/svg" xmlns:xlink="http://www.w3.org/1999/xlink">
<g id="graph0" class="graph" transform="scale(1 1) rotate(0) translate(4 609.22)">
<title>spin_popcli</title>
<!-- Node1 -->
<g id="node1" class="node">
<title>Node1</title>
<g id="a_node1"><a xlink:title="interrupt able">
<polygon fill="#bfbfbf" stroke="black" points="679,-294.67 679,-313.67 744,-313.67 744,-294.67 679,-294.67"/>
<text text-anchor="middle" x="711.5" y="-301.67" font-family="Helvetica,sans-Serif" font-size="10.00">spin_popcli</text>
</a>
</g>
</g>
<!-- Node2 -->
<g id="node2" class="node">
<title>Node2</title>
<g id="a_node2"><a xlink:href="spinlock_8c.html#ad4be0d674a7ca4dc90c2dbf8b34562cc" target="_top" xlink:title="check current cpu has the lock">
<polygon fill="none" stroke="black" points="572,-332.67 572,-351.67 643,-351.67 643,-332.67 572,-332.67"/>
<text text-anchor="middle" x="607.5" y="-339.67" font-family="Helvetica,sans-Serif" font-size="10.00">spin_holding</text>
</a>
</g>
</g>
<!-- Node1&#45;&gt;Node2 -->
<g id="edge1" class="edge">
<title>Node1&#45;&gt;Node2</title>
<path fill="none" stroke="midnightblue" d="M675.29,-317.29C661.8,-322.31 646.67,-327.95 634.23,-332.58"/>
<polygon fill="midnightblue" stroke="midnightblue" points="676.61,-320.53 684.76,-313.76 674.17,-313.97 676.61,-320.53"/>
</g>
<!-- Node19 -->
<g id="node19" class="node">
<title>Node19</title>
<g id="a_node19"><a xlink:href="spinlock_8c.html#acdf118d615a4bc4064e991add9a80995" target="_top" xlink:title="release spinlock from current cpu">
<polygon fill="none" stroke="black" points="468,-237.67 468,-256.67 536,-256.67 536,-237.67 468,-237.67"/>
<text text-anchor="middle" x="502" y="-244.67" font-family="Helvetica,sans-Serif" font-size="10.00">spin_unlock</text>
</a>
</g>
</g>
<!-- Node1&#45;&gt;Node19 -->
<g id="edge55" class="edge">
<title>Node1&#45;&gt;Node19</title>
<path fill="none" stroke="midnightblue" d="M668.99,-292.77C629.95,-282.04 572.26,-266.2 536.19,-256.29"/>
<polygon fill="midnightblue" stroke="midnightblue" points="668.42,-296.24 678.99,-295.51 670.27,-289.49 668.42,-296.24"/>
</g>
<!-- Node3 -->
<g id="node3" class="node">
<title>Node3</title>
<g id="a_node3"><a xlink:href="kmt_8c.html#af9c485ce0d89d6624e6e80e31d8ed207" target="_top" xlink:title="handler: save context to current task">
<polygon fill="none" stroke="black" points="330.5,-351.67 330.5,-370.67 426.5,-370.67 426.5,-351.67 330.5,-351.67"/>
<text text-anchor="middle" x="378.5" y="-358.67" font-family="Helvetica,sans-Serif" font-size="10.00">kmt_context_save</text>
</a>
</g>
</g>
<!-- Node2&#45;&gt;Node3 -->
<g id="edge2" class="edge">
<title>Node2&#45;&gt;Node3</title>
<path fill="none" stroke="midnightblue" d="M561.52,-345.94C522.55,-349.2 466.37,-353.9 426.75,-357.22"/>
<polygon fill="midnightblue" stroke="midnightblue" points="561.86,-349.42 571.53,-345.1 561.27,-342.44 561.86,-349.42"/>
</g>
<!-- Node6 -->
<g id="node6" class="node">
<title>Node6</title>
<g id="a_node6"><a xlink:href="kmt_8c.html#a5ddb8743298012e84cf9cb5faf22212b" target="_top" xlink:title="create thread">
<polygon fill="none" stroke="black" points="346,-85.67 346,-104.67 411,-104.67 411,-85.67 346,-85.67"/>
<text text-anchor="middle" x="378.5" y="-92.67" font-family="Helvetica,sans-Serif" font-size="10.00">kmt_create</text>
</a>
</g>
</g>
<!-- Node2&#45;&gt;Node6 -->
<g id="edge5" class="edge">
<title>Node2&#45;&gt;Node6</title>
<path fill="none" stroke="midnightblue" d="M601.65,-322.54C593.01,-290.91 572.36,-228.09 536,-187.17 499.47,-146.06 440.02,-118.25 405.88,-104.71"/>
<polygon fill="midnightblue" stroke="midnightblue" points="598.29,-323.55 604.21,-332.34 605.07,-321.78 598.29,-323.55"/>
</g>
<!-- Node7 -->
<g id="node7" class="node">
<title>Node7</title>
<g id="a_node7"><a xlink:href="kmt_8c.html#ad3fbc643b7b6092120c5152b4c890354" target="_top" xlink:title="handler: handle program errors">
<polygon fill="none" stroke="black" points="218.5,-531.67 218.5,-550.67 276.5,-550.67 276.5,-531.67 218.5,-531.67"/>
<text text-anchor="middle" x="247.5" y="-538.67" font-family="Helvetica,sans-Serif" font-size="10.00">kmt_error</text>
</a>
</g>
</g>
<!-- Node2&#45;&gt;Node7 -->
<g id="edge7" class="edge">
<title>Node2&#45;&gt;Node7</title>
<path fill="none" stroke="midnightblue" d="M604.35,-362.07C599.21,-400.71 582.92,-486.66 536,-539.17 471.71,-611.11 417.59,-617.28 325,-590.17 298.97,-582.55 273.38,-563.05 259.39,-551.07"/>
<polygon fill="midnightblue" stroke="midnightblue" points="607.83,-362.44 605.56,-352.09 600.88,-361.6 607.83,-362.44"/>
</g>
<!-- Node8 -->
<g id="node8" class="node">
<title>Node8</title>
<g id="a_node8"><a xlink:href="kmt_8c.html#a13cbe2d83bf10c3302124613fa18f8a4" target="_top" xlink:title="print all tasks notice: do not garantee concurrency safety">
<polygon fill="none" stroke="black" points="328,-503.67 328,-522.67 429,-522.67 429,-503.67 328,-503.67"/>
<text text-anchor="middle" x="378.5" y="-510.67" font-family="Helvetica,sans-Serif" font-size="10.00">kmt_print_all_tasks</text>
</a>
</g>
</g>
<!-- Node2&#45;&gt;Node8 -->
<g id="edge9" class="edge">
<title>Node2&#45;&gt;Node8</title>
<path fill="none" stroke="midnightblue" d="M590.4,-359.51C576.51,-374.13 555.65,-395.29 536,-412.17 492.37,-449.64 481.53,-459.94 432,-489.17 422.85,-494.57 412.28,-499.61 403.03,-503.67"/>
<polygon fill="midnightblue" stroke="midnightblue" points="593.03,-361.81 597.34,-352.13 587.94,-357.02 593.03,-361.81"/>
</g>
<!-- Node9 -->
<g id="node9" class="node">
<title>Node9</title>
<g id="a_node9"><a xlink:href="kmt_8c.html#ad4d70b4093829da1c0b0631abdff7747" target="_top" xlink:title="handler: schedule next task to run Notice: this should be the only handler which returns real Context">
<polygon fill="none" stroke="black" points="209,-484.67 209,-503.67 286,-503.67 286,-484.67 209,-484.67"/>
<text text-anchor="middle" x="247.5" y="-491.67" font-family="Helvetica,sans-Serif" font-size="10.00">kmt_schedule</text>
</a>
</g>
</g>
<!-- Node2&#45;&gt;Node9 -->
<g id="edge16" class="edge">
<title>Node2&#45;&gt;Node9</title>
<path fill="none" stroke="midnightblue" d="M601.08,-361.63C591.75,-392.53 570.28,-453.55 536,-495.17 499.77,-539.16 486.23,-552.66 432,-570.17 386.75,-584.79 367.53,-591.44 325,-570.17 301.15,-558.24 308.22,-540.66 289,-522.17 281.73,-515.18 272.56,-508.68 264.78,-503.71"/>
<polygon fill="midnightblue" stroke="midnightblue" points="604.53,-362.28 603.97,-351.7 597.81,-360.33 604.53,-362.28"/>
</g>
<!-- Node10 -->
<g id="node10" class="node">
<title>Node10</title>
<g id="a_node10"><a xlink:href="kmt_8c.html#ab4e9dee1880e455874374b44b5785bc3" target="_top" xlink:title="print all current_tasks notice: do not garantee concurrency safety">
<polygon fill="none" stroke="black" points="325,-541.67 325,-560.67 432,-560.67 432,-541.67 325,-541.67"/>
<text text-anchor="middle" x="378.5" y="-548.67" font-family="Helvetica,sans-Serif" font-size="10.00">kmt_print_cpu_tasks</text>
</a>
</g>
</g>
<!-- Node2&#45;&gt;Node10 -->
<g id="edge13" class="edge">
<title>Node2&#45;&gt;Node10</title>
<path fill="none" stroke="midnightblue" d="M597.21,-361C585.16,-384.28 562.52,-424.33 536,-453.17 496.71,-495.9 482.98,-504.42 432,-532.17 425.36,-535.78 417.89,-538.96 410.72,-541.63"/>
<polygon fill="midnightblue" stroke="midnightblue" points="600.44,-362.37 601.84,-351.87 594.2,-359.2 600.44,-362.37"/>
</g>
<!-- Node11 -->
<g id="node11" class="node">
<title>Node11</title>
<g id="a_node11"><a xlink:href="kmt_8c.html#a47d8887c87041abd5ea3148232b65c93" target="_top" xlink:title="tear down a thread">
<polygon fill="none" stroke="black" points="339.5,-237.67 339.5,-256.67 417.5,-256.67 417.5,-237.67 339.5,-237.67"/>
<text text-anchor="middle" x="378.5" y="-244.67" font-family="Helvetica,sans-Serif" font-size="10.00">kmt_teardown</text>
</a>
</g>
</g>
<!-- Node2&#45;&gt;Node11 -->
<g id="edge17" class="edge">
<title>Node2&#45;&gt;Node11</title>
<path fill="none" stroke="midnightblue" d="M581.33,-327.45C568.08,-320 551.41,-311.09 536,-304.17 493.13,-284.93 441.63,-267.15 409.72,-256.73"/>
<polygon fill="midnightblue" stroke="midnightblue" points="579.9,-330.66 590.32,-332.57 583.36,-324.58 579.9,-330.66"/>
</g>
<!-- Node12 -->
<g id="node12" class="node">
<title>Node12</title>
<g id="a_node12"><a xlink:href="kmt_8c.html#a75ea8dbba16d64a343a45962bd593930" target="_top" xlink:title="handler: handle yield interrupt (0x81)">
<polygon fill="none" stroke="black" points="349.5,-389.67 349.5,-408.67 407.5,-408.67 407.5,-389.67 349.5,-389.67"/>
<text text-anchor="middle" x="378.5" y="-396.67" font-family="Helvetica,sans-Serif" font-size="10.00">kmt_yield</text>
</a>
</g>
</g>
<!-- Node2&#45;&gt;Node12 -->
<g id="edge19" class="edge">
<title>Node2&#45;&gt;Node12</title>
<path fill="none" stroke="midnightblue" d="M568.2,-354.75C557.8,-357.99 546.51,-361.36 536,-364.17 491.49,-376.07 439.12,-387.21 407.66,-393.6"/>
<polygon fill="midnightblue" stroke="midnightblue" points="569.36,-358.05 577.84,-351.7 567.25,-351.38 569.36,-358.05"/>
</g>
<!-- Node13 -->
<g id="node13" class="node">
<title>Node13</title>
<g id="a_node13"><a xlink:href="os_8c.html#a2be1c9facb49d4439f41b1537d0f3ef8" target="_top" xlink:title="System trap entry.">
<polygon fill="none" stroke="black" points="354,-427.67 354,-446.67 403,-446.67 403,-427.67 354,-427.67"/>
<text text-anchor="middle" x="378.5" y="-434.67" font-family="Helvetica,sans-Serif" font-size="10.00">os_trap</text>
</a>
</g>
</g>
<!-- Node2&#45;&gt;Node13 -->
<g id="edge21" class="edge">
<title>Node2&#45;&gt;Node13</title>
<path fill="none" stroke="midnightblue" d="M584.36,-357.47C570.82,-366.36 552.91,-377.33 536,-385.17 490.68,-406.19 434.43,-422.71 403.2,-431.11"/>
<polygon fill="midnightblue" stroke="midnightblue" points="586.61,-360.18 592.97,-351.7 582.72,-354.36 586.61,-360.18"/>
</g>
<!-- Node15 -->
<g id="node15" class="node">
<title>Node15</title>
<g id="a_node15"><a xlink:href="sem_8c.html#ad994e433f3a6bf8626272437cb54c114" target="_top" xlink:title="wake up a task form tasks waiting for the semaphore instance">
<polygon fill="none" stroke="black" points="345.5,-47.67 345.5,-66.67 411.5,-66.67 411.5,-47.67 345.5,-47.67"/>
<text text-anchor="middle" x="378.5" y="-54.67" font-family="Helvetica,sans-Serif" font-size="10.00">sem_signal</text>
</a>
</g>
</g>
<!-- Node2&#45;&gt;Node15 -->
<g id="edge23" class="edge">
<title>Node2&#45;&gt;Node15</title>
<path fill="none" stroke="midnightblue" d="M604.71,-322.53C600.11,-282.38 584.61,-189.83 536,-132.17 503.67,-93.81 447.19,-73.63 411.66,-64.2"/>
<polygon fill="midnightblue" stroke="midnightblue" points="601.24,-323.02 605.75,-332.6 608.2,-322.29 601.24,-323.02"/>
</g>
<!-- Node17 -->
<g id="node17" class="node">
<title>Node17</title>
<g id="a_node17"><a xlink:href="sem_8c.html#a85ca67864bb0af1966a5c2463bd16fe8" target="_top" xlink:title="release semaphore(Mutex) and sleep task holding the sem">
<polygon fill="none" stroke="black" points="349,-161.67 349,-180.67 408,-180.67 408,-161.67 349,-161.67"/>
<text text-anchor="middle" x="378.5" y="-168.67" font-family="Helvetica,sans-Serif" font-size="10.00">sem_wait</text>
</a>
</g>
</g>
<!-- Node2&#45;&gt;Node17 -->
<g id="edge26" class="edge">
<title>Node2&#45;&gt;Node17</title>
<path fill="none" stroke="midnightblue" d="M599.28,-322.87C588.93,-297.71 567.59,-253.88 536,-228.17 497.99,-197.23 441.7,-182.28 408.01,-175.7"/>
<polygon fill="midnightblue" stroke="midnightblue" points="596.11,-324.39 603.04,-332.41 602.63,-321.82 596.11,-324.39"/>
</g>
<!-- Node18 -->
<g id="node18" class="node">
<title>Node18</title>
<g id="a_node18"><a xlink:href="spinlock_8c.html#ab6f3c37ec37006951feccc3c05387cce" target="_top" xlink:title="acquire spinlock to current cpu">
<polygon fill="none" stroke="black" points="473,-313.67 473,-332.67 531,-332.67 531,-313.67 473,-313.67"/>
<text text-anchor="middle" x="502" y="-320.67" font-family="Helvetica,sans-Serif" font-size="10.00">spin_lock</text>
</a>
</g>
</g>
<!-- Node2&#45;&gt;Node18 -->
<g id="edge29" class="edge">
<title>Node2&#45;&gt;Node18</title>
<path fill="none" stroke="midnightblue" d="M561.63,-333.93C551.34,-332.04 540.67,-330.09 531.3,-328.37"/>
<polygon fill="midnightblue" stroke="midnightblue" points="561.28,-337.43 571.75,-335.79 562.54,-330.54 561.28,-337.43"/>
</g>
<!-- Node2&#45;&gt;Node19 -->
<g id="edge42" class="edge">
<title>Node2&#45;&gt;Node19</title>
<path fill="none" stroke="midnightblue" d="M590.94,-325.01C577.1,-310.13 556.03,-288.34 536,-271.17 530.08,-266.1 523.16,-260.95 517.19,-256.74"/>
<polygon fill="midnightblue" stroke="midnightblue" points="588.48,-327.51 597.82,-332.49 593.63,-322.77 588.48,-327.51"/>
</g>
<!-- Node4 -->
<g id="node4" class="node">
<title>Node4</title>
<g id="a_node4"><a xlink:href="kmt_8c.html#a0c68a294cecc4be7cb4b495f15b883a0" target="_top" xlink:title="initialize kmt module">
<polygon fill="none" stroke="black" points="119,-389.67 119,-408.67 170,-408.67 170,-389.67 119,-389.67"/>
<text text-anchor="middle" x="144.5" y="-396.67" font-family="Helvetica,sans-Serif" font-size="10.00">kmt_init</text>
</a>
</g>
</g>
<!-- Node3&#45;&gt;Node4 -->
<g id="edge3" class="edge">
<title>Node3&#45;&gt;Node4</title>
<path fill="none" stroke="midnightblue" d="M320.3,-370.54C272.17,-378.42 205.67,-389.31 170.18,-395.13"/>
<polygon fill="midnightblue" stroke="midnightblue" points="320.97,-373.98 330.27,-368.91 319.84,-367.07 320.97,-373.98"/>
</g>
<!-- Node5 -->
<g id="node5" class="node">
<title>Node5</title>
<g id="a_node5"><a xlink:href="kmt_8c.html#af360ef0d98ca30e481cc58ea3695fd58" target="_top" xlink:title=" ">
<polygon fill="none" stroke="black" points="0,-161.67 0,-180.67 83,-180.67 83,-161.67 0,-161.67"/>
<text text-anchor="middle" x="41.5" y="-168.67" font-family="Helvetica,sans-Serif" font-size="10.00">MODULE_DEF</text>
</a>
</g>
</g>
<!-- Node4&#45;&gt;Node5 -->
<g id="edge4" class="edge">
<title>Node4&#45;&gt;Node5</title>
<path fill="none" stroke="midnightblue" d="M135.21,-380.46C114.68,-334.12 62.03,-215.26 46.73,-180.72"/>
<polygon fill="midnightblue" stroke="midnightblue" points="132.04,-381.94 139.29,-389.66 138.44,-379.1 132.04,-381.94"/>
</g>
<!-- Node6&#45;&gt;Node5 -->
<g id="edge6" class="edge">
<title>Node6&#45;&gt;Node5</title>
<path fill="none" stroke="midnightblue" d="M335.53,-97.18C300.54,-99.48 249.55,-104.3 206,-114.17 154.11,-125.93 95.81,-148.68 64.78,-161.6"/>
<polygon fill="midnightblue" stroke="midnightblue" points="336.09,-100.65 345.85,-96.54 335.66,-93.66 336.09,-100.65"/>
</g>
<!-- Node7&#45;&gt;Node4 -->
<g id="edge8" class="edge">
<title>Node7&#45;&gt;Node4</title>
<path fill="none" stroke="midnightblue" d="M220.37,-525.86C215.23,-522.12 210.15,-517.84 206,-513.17 176.52,-480.02 156.45,-429.95 148.87,-408.97"/>
<polygon fill="midnightblue" stroke="midnightblue" points="218.67,-528.93 228.92,-531.6 222.57,-523.12 218.67,-528.93"/>
</g>
<!-- Node8&#45;&gt;Node7 -->
<g id="edge10" class="edge">
<title>Node8&#45;&gt;Node7</title>
<path fill="none" stroke="midnightblue" d="M323.56,-524.88C307.41,-528.38 290.35,-532.09 276.58,-535.07"/>
<polygon fill="midnightblue" stroke="midnightblue" points="324.44,-528.27 333.47,-522.73 322.95,-521.43 324.44,-528.27"/>
</g>
<!-- Node8&#45;&gt;Node9 -->
<g id="edge11" class="edge">
<title>Node8&#45;&gt;Node9</title>
<path fill="none" stroke="midnightblue" d="M318.08,-504.42C307.18,-502.81 296.08,-501.18 286.05,-499.7"/>
<polygon fill="midnightblue" stroke="midnightblue" points="317.59,-507.88 327.99,-505.88 318.61,-500.96 317.59,-507.88"/>
</g>
<!-- Node9&#45;&gt;Node4 -->
<g id="edge12" class="edge">
<title>Node9&#45;&gt;Node4</title>
<path fill="none" stroke="midnightblue" d="M228.54,-477.33C221.5,-470.73 213.37,-463.1 206,-456.17 188.34,-439.56 167.8,-420.21 155.77,-408.86"/>
<polygon fill="midnightblue" stroke="midnightblue" points="226.49,-480.21 236.17,-484.49 231.27,-475.1 226.49,-480.21"/>
</g>
<!-- Node10&#45;&gt;Node7 -->
<g id="edge14" class="edge">
<title>Node10&#45;&gt;Node7</title>
<path fill="none" stroke="midnightblue" d="M314.56,-546.29C301.28,-545.26 287.92,-544.23 276.72,-543.36"/>
<polygon fill="midnightblue" stroke="midnightblue" points="314.42,-549.79 324.66,-547.07 314.96,-542.81 314.42,-549.79"/>
</g>
<!-- Node10&#45;&gt;Node9 -->
<g id="edge15" class="edge">
<title>Node10&#45;&gt;Node9</title>
<path fill="none" stroke="midnightblue" d="M339.73,-538.09C334.74,-536.19 329.72,-534.19 325,-532.17 304.55,-523.42 281.8,-511.88 266.47,-503.82"/>
<polygon fill="midnightblue" stroke="midnightblue" points="338.61,-541.41 349.21,-541.6 341.04,-534.84 338.61,-541.41"/>
</g>
<!-- Node11&#45;&gt;Node5 -->
<g id="edge18" class="edge">
<title>Node11&#45;&gt;Node5</title>
<path fill="none" stroke="midnightblue" d="M329.64,-236.31C263.49,-221.31 145.28,-194.49 83.17,-180.4"/>
<polygon fill="midnightblue" stroke="midnightblue" points="328.87,-239.73 339.4,-238.53 330.42,-232.9 328.87,-239.73"/>
</g>
<!-- Node12&#45;&gt;Node4 -->
<g id="edge20" class="edge">
<title>Node12&#45;&gt;Node4</title>
<path fill="none" stroke="midnightblue" d="M338.76,-399.17C290.84,-399.17 210.64,-399.17 170.29,-399.17"/>
<polygon fill="midnightblue" stroke="midnightblue" points="339.05,-402.67 349.05,-399.17 339.05,-395.67 339.05,-402.67"/>
</g>
<!-- Node14 -->
<g id="node14" class="node">
<title>Node14</title>
<g id="a_node14"><a xlink:href="os_8c.html#aafec7046aa50c914df86d0d22d4fc1d1" target="_top" xlink:title=" ">
<polygon fill="none" stroke="black" points="206,-427.67 206,-446.67 289,-446.67 289,-427.67 206,-427.67"/>
<text text-anchor="middle" x="247.5" y="-434.67" font-family="Helvetica,sans-Serif" font-size="10.00">MODULE_DEF</text>
</a>
</g>
</g>
<!-- Node13&#45;&gt;Node14 -->
<g id="edge22" class="edge">
<title>Node13&#45;&gt;Node14</title>
<path fill="none" stroke="midnightblue" d="M343.48,-437.17C326.85,-437.17 306.7,-437.17 289.25,-437.17"/>
<polygon fill="midnightblue" stroke="midnightblue" points="343.84,-440.67 353.84,-437.17 343.84,-433.67 343.84,-440.67"/>
</g>
<!-- Node15&#45;&gt;Node5 -->
<g id="edge25" class="edge">
<title>Node15&#45;&gt;Node5</title>
<path fill="none" stroke="midnightblue" d="M335.34,-62.94C282.9,-71.15 191.47,-88.92 119,-121.17 94.5,-132.07 69.01,-150.37 54.51,-161.55"/>
<polygon fill="midnightblue" stroke="midnightblue" points="335.93,-66.39 345.29,-61.42 334.87,-59.47 335.93,-66.39"/>
</g>
<!-- Node16 -->
<g id="node16" class="node">
<title>Node16</title>
<g id="a_node16"><a xlink:href="kernel_8h.html#a7ef2d722f9c7f8acc1801144a5188825" target="_top" xlink:title=" ">
<polygon fill="none" stroke="black" points="218,-123.67 218,-142.67 277,-142.67 277,-123.67 218,-123.67"/>
<text text-anchor="middle" x="247.5" y="-130.67" font-family="Helvetica,sans-Serif" font-size="10.00">MODULE</text>
</a>
</g>
</g>
<!-- Node15&#45;&gt;Node16 -->
<g id="edge24" class="edge">
<title>Node15&#45;&gt;Node16</title>
<path fill="none" stroke="midnightblue" d="M336.81,-70.54C332.75,-72.27 328.74,-74.15 325,-76.17 299.62,-89.83 273.4,-111.25 259.21,-123.58"/>
<polygon fill="midnightblue" stroke="midnightblue" points="338.31,-73.71 346.31,-66.76 335.72,-67.2 338.31,-73.71"/>
</g>
<!-- Node17&#45;&gt;Node5 -->
<g id="edge28" class="edge">
<title>Node17&#45;&gt;Node5</title>
<path fill="none" stroke="midnightblue" d="M338.88,-171.17C275.04,-171.17 148.08,-171.17 83.01,-171.17"/>
<polygon fill="midnightblue" stroke="midnightblue" points="338.94,-174.67 348.94,-171.17 338.94,-167.67 338.94,-174.67"/>
</g>
<!-- Node17&#45;&gt;Node16 -->
<g id="edge27" class="edge">
<title>Node17&#45;&gt;Node16</title>
<path fill="none" stroke="midnightblue" d="M339.17,-159.88C319.25,-154.01 295.32,-146.96 277.05,-141.58"/>
<polygon fill="midnightblue" stroke="midnightblue" points="338.29,-163.27 348.87,-162.74 340.27,-156.55 338.29,-163.27"/>
</g>
<!-- Node18&#45;&gt;Node3 -->
<g id="edge30" class="edge">
<title>Node18&#45;&gt;Node3</title>
<path fill="none" stroke="midnightblue" d="M463.15,-335.01C446.08,-340.35 426.18,-346.57 410.08,-351.61"/>
<polygon fill="midnightblue" stroke="midnightblue" points="464.32,-338.31 472.82,-331.98 462.23,-331.63 464.32,-338.31"/>
</g>
<!-- Node18&#45;&gt;Node5 -->
<g id="edge38" class="edge">
<title>Node18&#45;&gt;Node5</title>
<path fill="none" stroke="midnightblue" d="M462.67,-321.05C426.58,-318.32 371.32,-312.28 325,-299.17 228.69,-271.92 209.84,-250.19 119,-208.17 99.45,-199.13 77.32,-188.36 61.91,-180.79"/>
<polygon fill="midnightblue" stroke="midnightblue" points="462.54,-324.55 472.77,-321.76 463.04,-317.56 462.54,-324.55"/>
</g>
<!-- Node18&#45;&gt;Node6 -->
<g id="edge31" class="edge">
<title>Node18&#45;&gt;Node6</title>
<path fill="none" stroke="midnightblue" d="M488.99,-304.81C482.21,-293.9 473.92,-279.6 468,-266.17 446.56,-217.55 458.64,-198.14 432,-152.17 421.07,-133.31 402.95,-115.5 391.12,-104.95"/>
<polygon fill="midnightblue" stroke="midnightblue" points="486.15,-306.87 494.47,-313.43 492.06,-303.11 486.15,-306.87"/>
</g>
<!-- Node18&#45;&gt;Node8 -->
<g id="edge32" class="edge">
<title>Node18&#45;&gt;Node8</title>
<path fill="none" stroke="midnightblue" d="M497.68,-342.79C491,-376.72 472.91,-446.81 432,-489.17 426.08,-495.3 418.31,-500 410.56,-503.55"/>
<polygon fill="midnightblue" stroke="midnightblue" points="501.16,-343.23 499.53,-332.76 494.27,-341.96 501.16,-343.23"/>
</g>
<!-- Node18&#45;&gt;Node9 -->
<g id="edge34" class="edge">
<title>Node18&#45;&gt;Node9</title>
<path fill="none" stroke="midnightblue" d="M493.43,-342.42C480.01,-375.57 451.65,-441.29 432,-456.17 389.47,-488.38 326.12,-494.92 286.08,-495.46"/>
<polygon fill="midnightblue" stroke="midnightblue" points="496.77,-343.5 497.23,-332.91 490.27,-340.9 496.77,-343.5"/>
</g>
<!-- Node18&#45;&gt;Node10 -->
<g id="edge33" class="edge">
<title>Node18&#45;&gt;Node10</title>
<path fill="none" stroke="midnightblue" d="M500.03,-343.05C496.98,-383.98 484.34,-478.32 432,-532.17 428.22,-536.06 423.58,-539.16 418.63,-541.63"/>
<polygon fill="midnightblue" stroke="midnightblue" points="503.53,-343.2 500.66,-333 496.54,-342.76 503.53,-343.2"/>
</g>
<!-- Node18&#45;&gt;Node11 -->
<g id="edge35" class="edge">
<title>Node18&#45;&gt;Node11</title>
<path fill="none" stroke="midnightblue" d="M479.09,-307.39C475.38,-304.67 471.57,-301.85 468,-299.17 451.8,-286.99 449.33,-281.68 432,-271.17 423,-265.72 412.55,-260.7 403.36,-256.68"/>
<polygon fill="midnightblue" stroke="midnightblue" points="477.29,-310.41 487.44,-313.46 481.41,-304.75 477.29,-310.41"/>
</g>
<!-- Node18&#45;&gt;Node12 -->
<g id="edge36" class="edge">
<title>Node18&#45;&gt;Node12</title>
<path fill="none" stroke="midnightblue" d="M484.12,-339.96C470.86,-352.41 451.44,-369.07 432,-380.17 424.42,-384.5 415.69,-388.13 407.54,-391.02"/>
<polygon fill="midnightblue" stroke="midnightblue" points="486.74,-342.29 491.52,-332.84 481.89,-337.25 486.74,-342.29"/>
</g>
<!-- Node18&#45;&gt;Node13 -->
<g id="edge39" class="edge">
<title>Node18&#45;&gt;Node13</title>
<path fill="none" stroke="midnightblue" d="M491.92,-341.7C480.62,-362.96 459.42,-397.54 432,-418.17 423.56,-424.52 412.79,-428.91 403.2,-431.85"/>
<polygon fill="midnightblue" stroke="midnightblue" points="495.08,-343.21 496.52,-332.71 488.85,-340.01 495.08,-343.21"/>
</g>
<!-- Node18&#45;&gt;Node15 -->
<g id="edge40" class="edge">
<title>Node18&#45;&gt;Node15</title>
<path fill="none" stroke="midnightblue" d="M488.39,-305.06C481.4,-294.23 473.12,-279.93 468,-266.17 438.04,-185.61 487.72,-141.61 432,-76.17 426.72,-69.97 419.25,-65.79 411.6,-62.98"/>
<polygon fill="midnightblue" stroke="midnightblue" points="485.62,-307.21 494.08,-313.59 491.44,-303.33 485.62,-307.21"/>
</g>
<!-- Node18&#45;&gt;Node16 -->
<g id="edge37" class="edge">
<title>Node18&#45;&gt;Node16</title>
<path fill="none" stroke="midnightblue" d="M463.15,-314.31C418.14,-303.2 346.4,-283.51 325,-266.17 282.57,-231.79 259.04,-167.19 251.35,-142.81"/>
<polygon fill="midnightblue" stroke="midnightblue" points="462.32,-317.71 472.87,-316.68 463.98,-310.91 462.32,-317.71"/>
</g>
<!-- Node18&#45;&gt;Node17 -->
<g id="edge41" class="edge">
<title>Node18&#45;&gt;Node17</title>
<path fill="none" stroke="midnightblue" d="M488.7,-304.94C475.35,-285.47 453.09,-253.92 432,-228.17 417.85,-210.89 399.98,-192.06 389.16,-180.95"/>
<polygon fill="midnightblue" stroke="midnightblue" points="485.98,-307.16 494.5,-313.46 491.76,-303.22 485.98,-307.16"/>
</g>
<!-- Node19&#45;&gt;Node3 -->
<g id="edge43" class="edge">
<title>Node19&#45;&gt;Node3</title>
<path fill="none" stroke="midnightblue" d="M483.06,-264C457.26,-288.21 410.52,-332.06 389.83,-351.48"/>
<polygon fill="midnightblue" stroke="midnightblue" points="485.74,-266.28 490.64,-256.89 480.95,-261.18 485.74,-266.28"/>
</g>
<!-- Node19&#45;&gt;Node5 -->
<g id="edge51" class="edge">
<title>Node19&#45;&gt;Node5</title>
<path fill="none" stroke="midnightblue" d="M501.43,-227.46C501.15,-184.5 493.68,-82.76 432,-38.17 317.14,44.86 239.55,-24.63 119,-99.17 90.46,-116.82 63.42,-146.29 50.48,-161.48"/>
<polygon fill="midnightblue" stroke="midnightblue" points="497.93,-227.46 501.36,-237.48 504.93,-227.5 497.93,-227.46"/>
</g>
<!-- Node19&#45;&gt;Node6 -->
<g id="edge44" class="edge">
<title>Node19&#45;&gt;Node6</title>
<path fill="none" stroke="midnightblue" d="M495.01,-227.88C485.63,-200.45 465.02,-150.09 432,-119.17 425.49,-113.07 417.16,-108.32 409.06,-104.7"/>
<polygon fill="midnightblue" stroke="midnightblue" points="491.72,-229.07 498.16,-237.49 498.37,-226.89 491.72,-229.07"/>
</g>
<!-- Node19&#45;&gt;Node8 -->
<g id="edge45" class="edge">
<title>Node19&#45;&gt;Node8</title>
<path fill="none" stroke="midnightblue" d="M488.62,-265.37C481.71,-276.23 473.43,-290.53 468,-304.17 442.33,-368.68 464.58,-394.86 432,-456.17 421.77,-475.42 403.47,-493.13 391.4,-503.54"/>
<polygon fill="midnightblue" stroke="midnightblue" points="491.68,-267.09 494.23,-256.81 485.82,-263.26 491.68,-267.09"/>
</g>
<!-- Node19&#45;&gt;Node9 -->
<g id="edge47" class="edge">
<title>Node19&#45;&gt;Node9</title>
<path fill="none" stroke="midnightblue" d="M473.58,-233.08C435.5,-215.72 366.61,-192.62 325,-228.17 247.01,-294.81 337,-365.5 289,-456.17 282.86,-467.76 271.82,-477.76 262.81,-484.59"/>
<polygon fill="midnightblue" stroke="midnightblue" points="472.47,-236.43 483.01,-237.55 475.47,-230.1 472.47,-236.43"/>
</g>
<!-- Node19&#45;&gt;Node10 -->
<g id="edge46" class="edge">
<title>Node19&#45;&gt;Node10</title>
<path fill="none" stroke="midnightblue" d="M488.23,-265.23C481.19,-276.04 472.91,-290.33 468,-304.17 433.72,-400.86 497.31,-453.05 432,-532.17 428.79,-536.06 424.72,-539.15 420.27,-541.61"/>
<polygon fill="midnightblue" stroke="midnightblue" points="491.28,-266.96 493.98,-256.72 485.48,-263.04 491.28,-266.96"/>
</g>
<!-- Node19&#45;&gt;Node11 -->
<g id="edge48" class="edge">
<title>Node19&#45;&gt;Node11</title>
<path fill="none" stroke="midnightblue" d="M457.67,-247.17C444.66,-247.17 430.48,-247.17 417.82,-247.17"/>
<polygon fill="midnightblue" stroke="midnightblue" points="457.8,-250.67 467.8,-247.17 457.8,-243.67 457.8,-250.67"/>
</g>
<!-- Node19&#45;&gt;Node12 -->
<g id="edge49" class="edge">
<title>Node19&#45;&gt;Node12</title>
<path fill="none" stroke="midnightblue" d="M489.9,-265.45C483.31,-276.53 474.91,-291.02 468,-304.17 450.62,-337.26 459.66,-355.03 432,-380.17 425.19,-386.36 416.2,-390.58 407.59,-393.43"/>
<polygon fill="midnightblue" stroke="midnightblue" points="493,-267.09 495.15,-256.72 487,-263.49 493,-267.09"/>
</g>
<!-- Node19&#45;&gt;Node13 -->
<g id="edge52" class="edge">
<title>Node19&#45;&gt;Node13</title>
<path fill="none" stroke="midnightblue" d="M488.99,-265.53C482.21,-276.44 473.92,-290.74 468,-304.17 446.56,-352.79 468.79,-379.83 432,-418.17 424.42,-426.07 413.3,-430.7 403.24,-433.41"/>
<polygon fill="midnightblue" stroke="midnightblue" points="492.06,-267.23 494.47,-256.91 486.15,-263.47 492.06,-267.23"/>
</g>
<!-- Node19&#45;&gt;Node15 -->
<g id="edge53" class="edge">
<title>Node19&#45;&gt;Node15</title>
<path fill="none" stroke="midnightblue" d="M498.37,-227.57C492.65,-192.44 475.87,-118.48 432,-76.17 426.35,-70.72 419.02,-66.82 411.64,-64.03"/>
<polygon fill="midnightblue" stroke="midnightblue" points="494.92,-228.15 499.86,-237.52 501.84,-227.12 494.92,-228.15"/>
</g>
<!-- Node19&#45;&gt;Node16 -->
<g id="edge50" class="edge">
<title>Node19&#45;&gt;Node16</title>
<path fill="none" stroke="midnightblue" d="M493.19,-228.4C482.8,-206.05 462.17,-169.56 432,-152.17 383.3,-124.1 315.13,-125.59 277.08,-129.3"/>
<polygon fill="midnightblue" stroke="midnightblue" points="489.99,-229.82 497.24,-237.55 496.39,-226.99 489.99,-229.82"/>
</g>
<!-- Node19&#45;&gt;Node17 -->
<g id="edge54" class="edge">
<title>Node19&#45;&gt;Node17</title>
<path fill="none" stroke="midnightblue" d="M481.81,-230.92C468.39,-220.01 449.76,-205.75 432,-195.17 422.96,-189.78 412.5,-184.78 403.31,-180.75"/>
<polygon fill="midnightblue" stroke="midnightblue" points="479.88,-233.86 489.82,-237.53 484.34,-228.47 479.88,-233.86"/>
</g>
</g>
</svg>
