<?xml version="1.0" encoding="UTF-8" standalone="no"?>
<!DOCTYPE svg PUBLIC "-//W3C//DTD SVG 1.1//EN"
 "http://www.w3.org/Graphics/SVG/1.1/DTD/svg11.dtd">
<!-- Generated by graphviz version 3.0.0 (20220413.0106)
 -->
<!-- Title: spin_init Pages: 1 -->
<svg width="269pt" height="132pt"
 viewBox="0.00 0.00 269.00 132.00" xmlns="http://www.w3.org/2000/svg" xmlns:xlink="http://www.w3.org/1999/xlink">
<g id="graph0" class="graph" transform="scale(1 1) rotate(0) translate(4 128)">
<title>spin_init</title>
<!-- Node1 -->
<g id="node1" class="node">
<title>Node1</title>
<g id="a_node1"><a xlink:title="create spinlock">
<polygon fill="#bfbfbf" stroke="black" points="208,-57.5 208,-76.5 261,-76.5 261,-57.5 208,-57.5"/>
<text text-anchor="middle" x="234.5" y="-64.5" font-family="Helvetica,sans-Serif" font-size="10.00">spin_init</text>
</a>
</g>
</g>
<!-- Node2 -->
<g id="node2" class="node">
<title>Node2</title>
<g id="a_node2"><a xlink:href="kernel_8h.html#a7ef2d722f9c7f8acc1801144a5188825" target="_top" xlink:title=" ">
<polygon fill="none" stroke="black" points="12,-104.5 12,-123.5 71,-123.5 71,-104.5 12,-104.5"/>
<text text-anchor="middle" x="41.5" y="-111.5" font-family="Helvetica,sans-Serif" font-size="10.00">MODULE</text>
</a>
</g>
</g>
<!-- Node1&#45;&gt;Node2 -->
<g id="edge1" class="edge">
<title>Node1&#45;&gt;Node2</title>
<path fill="none" stroke="midnightblue" d="M213.31,-82.96C201.87,-91.07 186.89,-100.21 172,-105 138.53,-115.77 97.77,-116.76 71.02,-115.88"/>
<polygon fill="midnightblue" stroke="midnightblue" points="215.71,-85.54 221.66,-76.77 211.54,-79.91 215.71,-85.54"/>
</g>
<!-- Node3 -->
<g id="node3" class="node">
<title>Node3</title>
<g id="a_node3"><a xlink:href="kmt_8c.html#af360ef0d98ca30e481cc58ea3695fd58" target="_top" xlink:title=" ">
<polygon fill="none" stroke="black" points="0,-57.5 0,-76.5 83,-76.5 83,-57.5 0,-57.5"/>
<text text-anchor="middle" x="41.5" y="-64.5" font-family="Helvetica,sans-Serif" font-size="10.00">MODULE_DEF</text>
</a>
</g>
</g>
<!-- Node1&#45;&gt;Node3 -->
<g id="edge2" class="edge">
<title>Node1&#45;&gt;Node3</title>
<path fill="none" stroke="midnightblue" d="M197.33,-67C164.79,-67 117.03,-67 83.18,-67"/>
<polygon fill="midnightblue" stroke="midnightblue" points="197.74,-70.5 207.74,-67 197.74,-63.5 197.74,-70.5"/>
</g>
<!-- Node4 -->
<g id="node4" class="node">
<title>Node4</title>
<g id="a_node4"><a xlink:href="os_8c.html#aef4448ba4711b237d8254529f2a4b621" target="_top" xlink:title="initialze system; will be executed only once (not per cpu)">
<polygon fill="none" stroke="black" points="123,-0.5 123,-19.5 168,-19.5 168,-0.5 123,-0.5"/>
<text text-anchor="middle" x="145.5" y="-7.5" font-family="Helvetica,sans-Serif" font-size="10.00">os_init</text>
</a>
</g>
</g>
<!-- Node1&#45;&gt;Node4 -->
<g id="edge3" class="edge">
<title>Node1&#45;&gt;Node4</title>
<path fill="none" stroke="midnightblue" d="M210.14,-51.69C194.51,-41.45 174.42,-28.29 161.04,-19.53"/>
<polygon fill="midnightblue" stroke="midnightblue" points="208.46,-54.78 218.74,-57.33 212.3,-48.92 208.46,-54.78"/>
</g>
<!-- Node6 -->
<g id="node6" class="node">
<title>Node6</title>
<g id="a_node6"><a xlink:href="sem_8c.html#a07341aaf6201983d7c7b9ea1b69975f9" target="_top" xlink:title="init a semaphore">
<polygon fill="none" stroke="black" points="119,-76.5 119,-95.5 172,-95.5 172,-76.5 119,-76.5"/>
<text text-anchor="middle" x="145.5" y="-83.5" font-family="Helvetica,sans-Serif" font-size="10.00">sem_init</text>
</a>
</g>
</g>
<!-- Node1&#45;&gt;Node6 -->
<g id="edge5" class="edge">
<title>Node1&#45;&gt;Node6</title>
<path fill="none" stroke="midnightblue" d="M198.02,-74.75C189.39,-76.63 180.33,-78.61 172.25,-80.38"/>
<polygon fill="midnightblue" stroke="midnightblue" points="198.84,-78.15 207.87,-72.6 197.35,-71.31 198.84,-78.15"/>
</g>
<!-- Node5 -->
<g id="node5" class="node">
<title>Node5</title>
<g id="a_node5"><a xlink:href="os_8c.html#aafec7046aa50c914df86d0d22d4fc1d1" target="_top" xlink:title=" ">
<polygon fill="none" stroke="black" points="0,-0.5 0,-19.5 83,-19.5 83,-0.5 0,-0.5"/>
<text text-anchor="middle" x="41.5" y="-7.5" font-family="Helvetica,sans-Serif" font-size="10.00">MODULE_DEF</text>
</a>
</g>
</g>
<!-- Node4&#45;&gt;Node5 -->
<g id="edge4" class="edge">
<title>Node4&#45;&gt;Node5</title>
<path fill="none" stroke="midnightblue" d="M112.77,-10C103.36,-10 92.93,-10 83.04,-10"/>
<polygon fill="midnightblue" stroke="midnightblue" points="112.87,-13.5 122.87,-10 112.87,-6.5 112.87,-13.5"/>
</g>
<!-- Node6&#45;&gt;Node2 -->
<g id="edge6" class="edge">
<title>Node6&#45;&gt;Node2</title>
<path fill="none" stroke="midnightblue" d="M108.78,-95.81C96.45,-99.19 82.8,-102.94 71.11,-106.15"/>
<polygon fill="midnightblue" stroke="midnightblue" points="110.04,-99.09 118.76,-93.07 108.19,-92.34 110.04,-99.09"/>
</g>
<!-- Node6&#45;&gt;Node3 -->
<g id="edge7" class="edge">
<title>Node6&#45;&gt;Node3</title>
<path fill="none" stroke="midnightblue" d="M108.74,-79.34C100.52,-77.81 91.73,-76.17 83.32,-74.6"/>
<polygon fill="midnightblue" stroke="midnightblue" points="108.29,-82.81 118.76,-81.21 109.57,-75.93 108.29,-82.81"/>
</g>
</g>
</svg>
