<?xml version="1.0" encoding="UTF-8" standalone="no"?>
<!DOCTYPE svg PUBLIC "-//W3C//DTD SVG 1.1//EN"
 "http://www.w3.org/Graphics/SVG/1.1/DTD/svg11.dtd">
<!-- Generated by graphviz version 3.0.0 (20220413.0106)
 -->
<!-- Title: spin_lock Pages: 1 -->
<svg width="299pt" height="180pt"
 viewBox="0.00 0.00 299.00 180.00" xmlns="http://www.w3.org/2000/svg" xmlns:xlink="http://www.w3.org/1999/xlink">
<g id="graph0" class="graph" transform="scale(1 1) rotate(0) translate(4 176)">
<title>spin_lock</title>
<!-- Node1 -->
<g id="node1" class="node">
<title>Node1</title>
<g id="a_node1"><a xlink:title="acquire spinlock to current cpu">
<polygon fill="#bfbfbf" stroke="black" points="233,-76.5 233,-95.5 291,-95.5 291,-76.5 233,-76.5"/>
<text text-anchor="middle" x="262" y="-83.5" font-family="Helvetica,sans-Serif" font-size="10.00">spin_lock</text>
</a>
</g>
</g>
<!-- Node2 -->
<g id="node2" class="node">
<title>Node2</title>
<g id="a_node2"><a xlink:href="kmt_8c.html#a5ddb8743298012e84cf9cb5faf22212b" target="_top" xlink:title="create thread">
<polygon fill="none" stroke="black" points="125.5,-152.5 125.5,-171.5 190.5,-171.5 190.5,-152.5 125.5,-152.5"/>
<text text-anchor="middle" x="158" y="-159.5" font-family="Helvetica,sans-Serif" font-size="10.00">kmt_create</text>
</a>
</g>
</g>
<!-- Node1&#45;&gt;Node2 -->
<g id="edge1" class="edge">
<title>Node1&#45;&gt;Node2</title>
<path fill="none" stroke="midnightblue" d="M242.11,-102.34C229.61,-112.91 212.68,-126.74 197,-138 190.03,-143.01 182.03,-148.14 175.18,-152.37"/>
<polygon fill="midnightblue" stroke="midnightblue" points="244.65,-104.77 249.99,-95.62 240.11,-99.45 244.65,-104.77"/>
</g>
<!-- Node3 -->
<g id="node3" class="node">
<title>Node3</title>
<g id="a_node3"><a xlink:href="kmt_8c.html#af360ef0d98ca30e481cc58ea3695fd58" target="_top" xlink:title=" ">
<polygon fill="none" stroke="black" points="0,-114.5 0,-133.5 83,-133.5 83,-114.5 0,-114.5"/>
<text text-anchor="middle" x="41.5" y="-121.5" font-family="Helvetica,sans-Serif" font-size="10.00">MODULE_DEF</text>
</a>
</g>
</g>
<!-- Node1&#45;&gt;Node3 -->
<g id="edge6" class="edge">
<title>Node1&#45;&gt;Node3</title>
<path fill="none" stroke="midnightblue" d="M223.18,-98.36C214.64,-100.83 205.56,-103.22 197,-105 158.77,-112.97 114.47,-117.99 83.14,-120.86"/>
<polygon fill="midnightblue" stroke="midnightblue" points="224.33,-101.67 232.9,-95.44 222.32,-94.96 224.33,-101.67"/>
</g>
<!-- Node4 -->
<g id="node4" class="node">
<title>Node4</title>
<g id="a_node4"><a xlink:href="kmt_8c.html#a47d8887c87041abd5ea3148232b65c93" target="_top" xlink:title="tear down a thread">
<polygon fill="none" stroke="black" points="119,-76.5 119,-95.5 197,-95.5 197,-76.5 119,-76.5"/>
<text text-anchor="middle" x="158" y="-83.5" font-family="Helvetica,sans-Serif" font-size="10.00">kmt_teardown</text>
</a>
</g>
</g>
<!-- Node1&#45;&gt;Node4 -->
<g id="edge3" class="edge">
<title>Node1&#45;&gt;Node4</title>
<path fill="none" stroke="midnightblue" d="M222.69,-86C214.41,-86 205.65,-86 197.36,-86"/>
<polygon fill="midnightblue" stroke="midnightblue" points="222.86,-89.5 232.86,-86 222.86,-82.5 222.86,-89.5"/>
</g>
<!-- Node5 -->
<g id="node5" class="node">
<title>Node5</title>
<g id="a_node5"><a xlink:href="kernel_8h.html#a7ef2d722f9c7f8acc1801144a5188825" target="_top" xlink:title=" ">
<polygon fill="none" stroke="black" points="128.5,-38.5 128.5,-57.5 187.5,-57.5 187.5,-38.5 128.5,-38.5"/>
<text text-anchor="middle" x="158" y="-45.5" font-family="Helvetica,sans-Serif" font-size="10.00">MODULE</text>
</a>
</g>
</g>
<!-- Node1&#45;&gt;Node5 -->
<g id="edge5" class="edge">
<title>Node1&#45;&gt;Node5</title>
<path fill="none" stroke="midnightblue" d="M225.79,-72.88C212.3,-67.86 197.17,-62.22 184.73,-57.59"/>
<polygon fill="midnightblue" stroke="midnightblue" points="224.67,-76.2 235.26,-76.41 227.11,-69.64 224.67,-76.2"/>
</g>
<!-- Node6 -->
<g id="node6" class="node">
<title>Node6</title>
<g id="a_node6"><a xlink:href="os_8c.html#a2be1c9facb49d4439f41b1537d0f3ef8" target="_top" xlink:title="System trap entry.">
<polygon fill="none" stroke="black" points="133.5,-0.5 133.5,-19.5 182.5,-19.5 182.5,-0.5 133.5,-0.5"/>
<text text-anchor="middle" x="158" y="-7.5" font-family="Helvetica,sans-Serif" font-size="10.00">os_trap</text>
</a>
</g>
</g>
<!-- Node1&#45;&gt;Node6 -->
<g id="edge7" class="edge">
<title>Node1&#45;&gt;Node6</title>
<path fill="none" stroke="midnightblue" d="M244.4,-68.98C232.04,-56.89 214.38,-40.78 197,-29 191.99,-25.61 186.3,-22.44 180.86,-19.7"/>
<polygon fill="midnightblue" stroke="midnightblue" points="242.14,-71.67 251.69,-76.25 247.08,-66.71 242.14,-71.67"/>
</g>
<!-- Node2&#45;&gt;Node3 -->
<g id="edge2" class="edge">
<title>Node2&#45;&gt;Node3</title>
<path fill="none" stroke="midnightblue" d="M118.35,-149.17C102.99,-144.08 85.62,-138.31 71.38,-133.59"/>
<polygon fill="midnightblue" stroke="midnightblue" points="117.51,-152.58 128.11,-152.41 119.72,-145.94 117.51,-152.58"/>
</g>
<!-- Node4&#45;&gt;Node3 -->
<g id="edge4" class="edge">
<title>Node4&#45;&gt;Node3</title>
<path fill="none" stroke="midnightblue" d="M118.35,-98.83C102.99,-103.92 85.62,-109.69 71.38,-114.41"/>
<polygon fill="midnightblue" stroke="midnightblue" points="119.72,-102.06 128.11,-95.59 117.51,-95.42 119.72,-102.06"/>
</g>
<!-- Node7 -->
<g id="node7" class="node">
<title>Node7</title>
<g id="a_node7"><a xlink:href="os_8c.html#aafec7046aa50c914df86d0d22d4fc1d1" target="_top" xlink:title=" ">
<polygon fill="none" stroke="black" points="0,-0.5 0,-19.5 83,-19.5 83,-0.5 0,-0.5"/>
<text text-anchor="middle" x="41.5" y="-7.5" font-family="Helvetica,sans-Serif" font-size="10.00">MODULE_DEF</text>
</a>
</g>
</g>
<!-- Node6&#45;&gt;Node7 -->
<g id="edge8" class="edge">
<title>Node6&#45;&gt;Node7</title>
<path fill="none" stroke="midnightblue" d="M123.26,-10C110.74,-10 96.42,-10 83.34,-10"/>
<polygon fill="midnightblue" stroke="midnightblue" points="123.28,-13.5 133.28,-10 123.28,-6.5 123.28,-13.5"/>
</g>
</g>
</svg>
