<?xml version="1.0" encoding="UTF-8" standalone="no"?>
<!DOCTYPE svg PUBLIC "-//W3C//DTD SVG 1.1//EN"
 "http://www.w3.org/Graphics/SVG/1.1/DTD/svg11.dtd">
<!-- Generated by graphviz version 3.0.0 (20220413.0106)
 -->
<!-- Title: spin_holding Pages: 1 -->
<svg width="651pt" height="414pt"
 viewBox="0.00 0.00 651.00 413.60" xmlns="http://www.w3.org/2000/svg" xmlns:xlink="http://www.w3.org/1999/xlink">
<g id="graph0" class="graph" transform="scale(1 1) rotate(0) translate(4 409.6)">
<title>spin_holding</title>
<!-- Node1 -->
<g id="node1" class="node">
<title>Node1</title>
<g id="a_node1"><a xlink:title="check current cpu has the lock">
<polygon fill="#bfbfbf" stroke="black" points="572,-220.37 572,-239.37 643,-239.37 643,-220.37 572,-220.37"/>
<text text-anchor="middle" x="607.5" y="-227.37" font-family="Helvetica,sans-Serif" font-size="10.00">spin_holding</text>
</a>
</g>
</g>
<!-- Node2 -->
<g id="node2" class="node">
<title>Node2</title>
<g id="a_node2"><a xlink:href="kmt_8c.html#af9c485ce0d89d6624e6e80e31d8ed207" target="_top" xlink:title="handler: save context to current task">
<polygon fill="none" stroke="black" points="330.5,-230.37 330.5,-249.37 426.5,-249.37 426.5,-230.37 330.5,-230.37"/>
<text text-anchor="middle" x="378.5" y="-237.37" font-family="Helvetica,sans-Serif" font-size="10.00">kmt_context_save</text>
</a>
</g>
</g>
<!-- Node1&#45;&gt;Node2 -->
<g id="edge1" class="edge">
<title>Node1&#45;&gt;Node2</title>
<path fill="none" stroke="midnightblue" d="M561.52,-231.85C522.55,-233.57 466.37,-236.04 426.75,-237.79"/>
<polygon fill="midnightblue" stroke="midnightblue" points="561.69,-235.35 571.53,-231.41 561.38,-228.36 561.69,-235.35"/>
</g>
<!-- Node5 -->
<g id="node5" class="node">
<title>Node5</title>
<g id="a_node5"><a xlink:href="kmt_8c.html#a5ddb8743298012e84cf9cb5faf22212b" target="_top" xlink:title="create thread">
<polygon fill="none" stroke="black" points="346,-78.37 346,-97.37 411,-97.37 411,-78.37 346,-78.37"/>
<text text-anchor="middle" x="378.5" y="-85.37" font-family="Helvetica,sans-Serif" font-size="10.00">kmt_create</text>
</a>
</g>
</g>
<!-- Node1&#45;&gt;Node5 -->
<g id="edge4" class="edge">
<title>Node1&#45;&gt;Node5</title>
<path fill="none" stroke="midnightblue" d="M598.47,-210.84C587.69,-187.66 566.34,-148.99 536,-127.87 498.37,-101.67 444.97,-92.62 411.29,-89.5"/>
<polygon fill="midnightblue" stroke="midnightblue" points="595.41,-212.57 602.67,-220.29 601.8,-209.73 595.41,-212.57"/>
</g>
<!-- Node6 -->
<g id="node6" class="node">
<title>Node6</title>
<g id="a_node6"><a xlink:href="kmt_8c.html#ad3fbc643b7b6092120c5152b4c890354" target="_top" xlink:title="handler: handle program errors">
<polygon fill="none" stroke="black" points="218.5,-335.37 218.5,-354.37 276.5,-354.37 276.5,-335.37 218.5,-335.37"/>
<text text-anchor="middle" x="247.5" y="-342.37" font-family="Helvetica,sans-Serif" font-size="10.00">kmt_error</text>
</a>
</g>
</g>
<!-- Node1&#45;&gt;Node6 -->
<g id="edge6" class="edge">
<title>Node1&#45;&gt;Node6</title>
<path fill="none" stroke="midnightblue" d="M599.89,-249.04C589.91,-275.36 568.63,-322.62 536,-350.87 498.31,-383.5 480.93,-383.36 432,-392.87 385.32,-401.94 370.7,-406.02 325,-392.87 299.08,-385.41 273.46,-366.31 259.43,-354.57"/>
<polygon fill="midnightblue" stroke="midnightblue" points="603.24,-250.05 603.37,-239.46 596.66,-247.66 603.24,-250.05"/>
</g>
<!-- Node7 -->
<g id="node7" class="node">
<title>Node7</title>
<g id="a_node7"><a xlink:href="kmt_8c.html#a0ac321d3074b24b276695a080e835866" target="_top" xlink:title="print all tasks notice: do not garantee concurrency safety">
<polygon fill="none" stroke="black" points="328,-306.37 328,-325.37 429,-325.37 429,-306.37 328,-306.37"/>
<text text-anchor="middle" x="378.5" y="-313.37" font-family="Helvetica,sans-Serif" font-size="10.00">kmt_print_all_tasks</text>
</a>
</g>
</g>
<!-- Node1&#45;&gt;Node7 -->
<g id="edge8" class="edge">
<title>Node1&#45;&gt;Node7</title>
<path fill="none" stroke="midnightblue" d="M571.78,-243.02C525.72,-260.47 445.5,-290.87 404.77,-306.3"/>
<polygon fill="midnightblue" stroke="midnightblue" points="573.23,-246.22 581.34,-239.4 570.75,-239.67 573.23,-246.22"/>
</g>
<!-- Node8 -->
<g id="node8" class="node">
<title>Node8</title>
<g id="a_node8"><a xlink:href="kmt_8c.html#ad4d70b4093829da1c0b0631abdff7747" target="_top" xlink:title="handler: schedule next task to run Notice: this should be the only handler which returns real Context">
<polygon fill="none" stroke="black" points="209,-292.37 209,-311.37 286,-311.37 286,-292.37 209,-292.37"/>
<text text-anchor="middle" x="247.5" y="-299.37" font-family="Helvetica,sans-Serif" font-size="10.00">kmt_schedule</text>
</a>
</g>
</g>
<!-- Node1&#45;&gt;Node8 -->
<g id="edge15" class="edge">
<title>Node1&#45;&gt;Node8</title>
<path fill="none" stroke="midnightblue" d="M594.55,-247.91C581.69,-266.36 559.84,-295.05 536,-314.87 495.3,-348.7 483.22,-359.55 432,-372.87 385.97,-384.84 367.64,-393.92 325,-372.87 301.41,-361.22 308.68,-343.34 289,-325.87 282.77,-320.34 275.07,-315.4 268.07,-311.47"/>
<polygon fill="midnightblue" stroke="midnightblue" points="597.52,-249.76 600.27,-239.53 591.74,-245.82 597.52,-249.76"/>
</g>
<!-- Node9 -->
<g id="node9" class="node">
<title>Node9</title>
<g id="a_node9"><a xlink:href="kmt_8c.html#ac69761d0146d9aacda65da757868d3c7" target="_top" xlink:title="print all current_tasks notice: do not garantee concurrency safety">
<polygon fill="none" stroke="black" points="325,-344.37 325,-363.37 432,-363.37 432,-344.37 325,-344.37"/>
<text text-anchor="middle" x="378.5" y="-351.37" font-family="Helvetica,sans-Serif" font-size="10.00">kmt_print_cpu_tasks</text>
</a>
</g>
</g>
<!-- Node1&#45;&gt;Node9 -->
<g id="edge12" class="edge">
<title>Node1&#45;&gt;Node9</title>
<path fill="none" stroke="midnightblue" d="M587.16,-245.92C573.36,-256.98 554.12,-271.66 536,-282.87 492.06,-310.06 479.49,-314.49 432,-334.87 424.25,-338.2 415.71,-341.46 407.8,-344.31"/>
<polygon fill="midnightblue" stroke="midnightblue" points="589.44,-248.58 594.99,-239.55 585.02,-243.14 589.44,-248.58"/>
</g>
<!-- Node10 -->
<g id="node10" class="node">
<title>Node10</title>
<g id="a_node10"><a xlink:href="kmt_8c.html#a47d8887c87041abd5ea3148232b65c93" target="_top" xlink:title="tear down a thread">
<polygon fill="none" stroke="black" points="339.5,-40.37 339.5,-59.37 417.5,-59.37 417.5,-40.37 339.5,-40.37"/>
<text text-anchor="middle" x="378.5" y="-47.37" font-family="Helvetica,sans-Serif" font-size="10.00">kmt_teardown</text>
</a>
</g>
</g>
<!-- Node1&#45;&gt;Node10 -->
<g id="edge16" class="edge">
<title>Node1&#45;&gt;Node10</title>
<path fill="none" stroke="midnightblue" d="M601.48,-210.25C592.98,-180.99 572.97,-126.15 536,-95.87 502.04,-68.06 451.83,-57.06 417.5,-52.71"/>
<polygon fill="midnightblue" stroke="midnightblue" points="598.16,-211.38 604.18,-220.1 604.91,-209.53 598.16,-211.38"/>
</g>
<!-- Node11 -->
<g id="node11" class="node">
<title>Node11</title>
<g id="a_node11"><a xlink:href="os_8c.html#a2be1c9facb49d4439f41b1537d0f3ef8" target="_top" xlink:title="System trap entry.">
<polygon fill="none" stroke="black" points="354,-116.37 354,-135.37 403,-135.37 403,-116.37 354,-116.37"/>
<text text-anchor="middle" x="378.5" y="-123.37" font-family="Helvetica,sans-Serif" font-size="10.00">os_trap</text>
</a>
</g>
</g>
<!-- Node1&#45;&gt;Node11 -->
<g id="edge18" class="edge">
<title>Node1&#45;&gt;Node11</title>
<path fill="none" stroke="midnightblue" d="M595.07,-211.96C582.74,-194.22 561.42,-167.76 536,-153.87 493.25,-130.52 435.05,-126.06 403.03,-125.54"/>
<polygon fill="midnightblue" stroke="midnightblue" points="592.2,-213.97 600.67,-220.33 598.02,-210.07 592.2,-213.97"/>
</g>
<!-- Node13 -->
<g id="node13" class="node">
<title>Node13</title>
<g id="a_node13"><a xlink:href="spinlock_8c.html#ab6f3c37ec37006951feccc3c05387cce" target="_top" xlink:title="acquire spinlock to current cpu">
<polygon fill="none" stroke="black" points="473,-201.37 473,-220.37 531,-220.37 531,-201.37 473,-201.37"/>
<text text-anchor="middle" x="502" y="-208.37" font-family="Helvetica,sans-Serif" font-size="10.00">spin_lock</text>
</a>
</g>
</g>
<!-- Node1&#45;&gt;Node13 -->
<g id="edge20" class="edge">
<title>Node1&#45;&gt;Node13</title>
<path fill="none" stroke="midnightblue" d="M561.63,-221.63C551.34,-219.74 540.67,-217.79 531.3,-216.07"/>
<polygon fill="midnightblue" stroke="midnightblue" points="561.28,-225.13 571.75,-223.49 562.54,-218.24 561.28,-225.13"/>
</g>
<!-- Node15 -->
<g id="node15" class="node">
<title>Node15</title>
<g id="a_node15"><a xlink:href="spinlock_8c.html#acdf118d615a4bc4064e991add9a80995" target="_top" xlink:title="release spinlock from current cpu">
<polygon fill="none" stroke="black" points="468,-163.37 468,-182.37 536,-182.37 536,-163.37 468,-163.37"/>
<text text-anchor="middle" x="502" y="-170.37" font-family="Helvetica,sans-Serif" font-size="10.00">spin_unlock</text>
</a>
</g>
</g>
<!-- Node1&#45;&gt;Node15 -->
<g id="edge30" class="edge">
<title>Node1&#45;&gt;Node15</title>
<path fill="none" stroke="midnightblue" d="M580,-215.28C561.23,-204.94 536.59,-191.37 520.3,-182.4"/>
<polygon fill="midnightblue" stroke="midnightblue" points="578.49,-218.44 588.94,-220.2 581.87,-212.31 578.49,-218.44"/>
</g>
<!-- Node3 -->
<g id="node3" class="node">
<title>Node3</title>
<g id="a_node3"><a xlink:href="kmt_8c.html#a0c68a294cecc4be7cb4b495f15b883a0" target="_top" xlink:title="initialize kmt module">
<polygon fill="none" stroke="black" points="119,-254.37 119,-273.37 170,-273.37 170,-254.37 119,-254.37"/>
<text text-anchor="middle" x="144.5" y="-261.37" font-family="Helvetica,sans-Serif" font-size="10.00">kmt_init</text>
</a>
</g>
</g>
<!-- Node2&#45;&gt;Node3 -->
<g id="edge2" class="edge">
<title>Node2&#45;&gt;Node3</title>
<path fill="none" stroke="midnightblue" d="M320.3,-245.79C272.17,-250.77 205.67,-257.65 170.18,-261.32"/>
<polygon fill="midnightblue" stroke="midnightblue" points="320.68,-249.27 330.27,-244.76 319.96,-242.3 320.68,-249.27"/>
</g>
<!-- Node4 -->
<g id="node4" class="node">
<title>Node4</title>
<g id="a_node4"><a xlink:href="kmt_8c.html#af360ef0d98ca30e481cc58ea3695fd58" target="_top" xlink:title=" ">
<polygon fill="none" stroke="black" points="0,-78.37 0,-97.37 83,-97.37 83,-78.37 0,-78.37"/>
<text text-anchor="middle" x="41.5" y="-85.37" font-family="Helvetica,sans-Serif" font-size="10.00">MODULE_DEF</text>
</a>
</g>
</g>
<!-- Node3&#45;&gt;Node4 -->
<g id="edge3" class="edge">
<title>Node3&#45;&gt;Node4</title>
<path fill="none" stroke="midnightblue" d="M132.89,-245.38C111.64,-208.35 64.49,-126.19 48.18,-97.77"/>
<polygon fill="midnightblue" stroke="midnightblue" points="129.91,-247.23 137.93,-254.16 135.98,-243.74 129.91,-247.23"/>
</g>
<!-- Node5&#45;&gt;Node4 -->
<g id="edge5" class="edge">
<title>Node5&#45;&gt;Node4</title>
<path fill="none" stroke="midnightblue" d="M335.74,-87.87C271.02,-87.87 147.29,-87.87 83.21,-87.87"/>
<polygon fill="midnightblue" stroke="midnightblue" points="335.98,-91.37 345.98,-87.87 335.98,-84.37 335.98,-91.37"/>
</g>
<!-- Node6&#45;&gt;Node3 -->
<g id="edge7" class="edge">
<title>Node6&#45;&gt;Node3</title>
<path fill="none" stroke="midnightblue" d="M219.51,-330.01C214.89,-327.15 210.22,-324.05 206,-320.87 186.17,-305.94 165.68,-285.34 154.36,-273.43"/>
<polygon fill="midnightblue" stroke="midnightblue" points="217.82,-333.08 228.21,-335.17 221.4,-327.06 217.82,-333.08"/>
</g>
<!-- Node7&#45;&gt;Node6 -->
<g id="edge9" class="edge">
<title>Node7&#45;&gt;Node6</title>
<path fill="none" stroke="midnightblue" d="M324.85,-327.71C308.41,-331.4 290.91,-335.34 276.82,-338.5"/>
<polygon fill="midnightblue" stroke="midnightblue" points="325.91,-331.06 334.9,-325.45 324.38,-324.23 325.91,-331.06"/>
</g>
<!-- Node7&#45;&gt;Node8 -->
<g id="edge10" class="edge">
<title>Node7&#45;&gt;Node8</title>
<path fill="none" stroke="midnightblue" d="M317.74,-309.39C306.95,-308.21 295.98,-307.02 286.05,-305.95"/>
<polygon fill="midnightblue" stroke="midnightblue" points="317.67,-312.9 327.99,-310.5 318.43,-305.94 317.67,-312.9"/>
</g>
<!-- Node8&#45;&gt;Node3 -->
<g id="edge11" class="edge">
<title>Node8&#45;&gt;Node3</title>
<path fill="none" stroke="midnightblue" d="M211.49,-288.7C197.91,-283.59 182.68,-277.86 170.28,-273.19"/>
<polygon fill="midnightblue" stroke="midnightblue" points="210.42,-292.04 221.01,-292.28 212.89,-285.48 210.42,-292.04"/>
</g>
<!-- Node9&#45;&gt;Node6 -->
<g id="edge13" class="edge">
<title>Node9&#45;&gt;Node6</title>
<path fill="none" stroke="midnightblue" d="M314.56,-349.48C301.28,-348.55 287.92,-347.62 276.72,-346.84"/>
<polygon fill="midnightblue" stroke="midnightblue" points="314.44,-352.98 324.66,-350.18 314.93,-346 314.44,-352.98"/>
</g>
<!-- Node9&#45;&gt;Node8 -->
<g id="edge14" class="edge">
<title>Node9&#45;&gt;Node8</title>
<path fill="none" stroke="midnightblue" d="M340.35,-340.74C335.18,-338.82 329.94,-336.83 325,-334.87 306.17,-327.41 285.06,-318.24 269.79,-311.46"/>
<polygon fill="midnightblue" stroke="midnightblue" points="339.54,-344.17 350.13,-344.32 341.94,-337.6 339.54,-344.17"/>
</g>
<!-- Node10&#45;&gt;Node4 -->
<g id="edge17" class="edge">
<title>Node10&#45;&gt;Node4</title>
<path fill="none" stroke="midnightblue" d="M329.23,-55.35C263,-62.86 145.15,-76.23 83.17,-83.26"/>
<polygon fill="midnightblue" stroke="midnightblue" points="329.86,-58.8 339.4,-54.19 329.07,-51.84 329.86,-58.8"/>
</g>
<!-- Node12 -->
<g id="node12" class="node">
<title>Node12</title>
<g id="a_node12"><a xlink:href="os_8c.html#aafec7046aa50c914df86d0d22d4fc1d1" target="_top" xlink:title=" ">
<polygon fill="none" stroke="black" points="206,-116.37 206,-135.37 289,-135.37 289,-116.37 206,-116.37"/>
<text text-anchor="middle" x="247.5" y="-123.37" font-family="Helvetica,sans-Serif" font-size="10.00">MODULE_DEF</text>
</a>
</g>
</g>
<!-- Node11&#45;&gt;Node12 -->
<g id="edge19" class="edge">
<title>Node11&#45;&gt;Node12</title>
<path fill="none" stroke="midnightblue" d="M343.48,-125.87C326.85,-125.87 306.7,-125.87 289.25,-125.87"/>
<polygon fill="midnightblue" stroke="midnightblue" points="343.84,-129.37 353.84,-125.87 343.84,-122.37 343.84,-129.37"/>
</g>
<!-- Node13&#45;&gt;Node2 -->
<g id="edge21" class="edge">
<title>Node13&#45;&gt;Node2</title>
<path fill="none" stroke="midnightblue" d="M462.7,-220.01C448.94,-223.3 433.39,-227.01 419.49,-230.33"/>
<polygon fill="midnightblue" stroke="midnightblue" points="463.91,-223.32 472.82,-217.6 462.28,-216.51 463.91,-223.32"/>
</g>
<!-- Node13&#45;&gt;Node4 -->
<g id="edge28" class="edge">
<title>Node13&#45;&gt;Node4</title>
<path fill="none" stroke="midnightblue" d="M499.35,-230.51C495.19,-266.11 480.78,-340.62 432,-372.87 348.14,-428.3 298.09,-404.18 206,-363.87 91.72,-313.85 52.25,-140.05 44.17,-97.39"/>
<polygon fill="midnightblue" stroke="midnightblue" points="502.85,-230.72 500.38,-220.42 495.89,-230.01 502.85,-230.72"/>
</g>
<!-- Node13&#45;&gt;Node5 -->
<g id="edge22" class="edge">
<title>Node13&#45;&gt;Node5</title>
<path fill="none" stroke="midnightblue" d="M471.27,-195.15C470.11,-194.11 469.01,-193.02 468,-191.87 440.81,-161.15 461.77,-135.1 432,-106.87 426.16,-101.34 418.59,-97.39 411.02,-94.59"/>
<polygon fill="midnightblue" stroke="midnightblue" points="469.47,-198.16 479.59,-201.27 473.61,-192.53 469.47,-198.16"/>
</g>
<!-- Node13&#45;&gt;Node7 -->
<g id="edge23" class="edge">
<title>Node13&#45;&gt;Node7</title>
<path fill="none" stroke="midnightblue" d="M489.14,-228.95C476.67,-246.84 455.6,-274.04 432,-291.87 424.32,-297.67 415.02,-302.5 406.39,-306.26"/>
<polygon fill="midnightblue" stroke="midnightblue" points="492.12,-230.79 494.85,-220.55 486.33,-226.85 492.12,-230.79"/>
</g>
<!-- Node13&#45;&gt;Node8 -->
<g id="edge25" class="edge">
<title>Node13&#45;&gt;Node8</title>
<path fill="none" stroke="midnightblue" d="M482.21,-226.89C468.96,-237.41 450.37,-250.69 432,-258.87 384.03,-280.24 324.08,-291.71 286.03,-297.3"/>
<polygon fill="midnightblue" stroke="midnightblue" points="484.55,-229.49 490.08,-220.45 480.12,-224.07 484.55,-229.49"/>
</g>
<!-- Node13&#45;&gt;Node9 -->
<g id="edge24" class="edge">
<title>Node13&#45;&gt;Node9</title>
<path fill="none" stroke="midnightblue" d="M495.05,-230.28C485.8,-257.37 465.47,-306.38 432,-334.87 427.5,-338.7 422.16,-341.79 416.64,-344.26"/>
<polygon fill="midnightblue" stroke="midnightblue" points="498.49,-231.04 498.25,-220.45 491.83,-228.88 498.49,-231.04"/>
</g>
<!-- Node13&#45;&gt;Node10 -->
<g id="edge26" class="edge">
<title>Node13&#45;&gt;Node10</title>
<path fill="none" stroke="midnightblue" d="M471.02,-195.2C469.93,-194.15 468.92,-193.04 468,-191.87 432.78,-147.1 471,-110.39 432,-68.87 428.02,-64.63 423.02,-61.34 417.7,-58.77"/>
<polygon fill="midnightblue" stroke="midnightblue" points="468.88,-197.97 478.92,-201.33 473.16,-192.44 468.88,-197.97"/>
</g>
<!-- Node13&#45;&gt;Node11 -->
<g id="edge29" class="edge">
<title>Node13&#45;&gt;Node11</title>
<path fill="none" stroke="midnightblue" d="M474.62,-196.06C472.36,-194.68 470.13,-193.27 468,-191.87 439.65,-173.23 408.2,-148.82 391.48,-135.52"/>
<polygon fill="midnightblue" stroke="midnightblue" points="472.91,-199.11 483.3,-201.19 476.47,-193.09 472.91,-199.11"/>
</g>
<!-- Node14 -->
<g id="node14" class="node">
<title>Node14</title>
<g id="a_node14"><a xlink:href="kernel_8h.html#a7ef2d722f9c7f8acc1801144a5188825" target="_top" xlink:title=" ">
<polygon fill="none" stroke="black" points="349,-192.37 349,-211.37 408,-211.37 408,-192.37 349,-192.37"/>
<text text-anchor="middle" x="378.5" y="-199.37" font-family="Helvetica,sans-Serif" font-size="10.00">MODULE</text>
</a>
</g>
</g>
<!-- Node13&#45;&gt;Node14 -->
<g id="edge27" class="edge">
<title>Node13&#45;&gt;Node14</title>
<path fill="none" stroke="midnightblue" d="M462.85,-208.04C445.23,-206.74 424.67,-205.22 408.37,-204.01"/>
<polygon fill="midnightblue" stroke="midnightblue" points="462.59,-211.54 472.82,-208.78 463.11,-204.55 462.59,-211.54"/>
</g>
<!-- Node15&#45;&gt;Node2 -->
<g id="edge31" class="edge">
<title>Node15&#45;&gt;Node2</title>
<path fill="none" stroke="midnightblue" d="M474.56,-187.6C472.32,-189 470.1,-190.43 468,-191.87 451.05,-203.48 449.9,-210.79 432,-220.87 425.5,-224.53 418.15,-227.71 411.07,-230.36"/>
<polygon fill="midnightblue" stroke="midnightblue" points="476.42,-190.56 483.22,-182.43 472.84,-184.55 476.42,-190.56"/>
</g>
<!-- Node15&#45;&gt;Node4 -->
<g id="edge38" class="edge">
<title>Node15&#45;&gt;Node4</title>
<path fill="none" stroke="midnightblue" d="M498.13,-153.39C492.23,-121.27 475.44,-58.06 432,-30.87 307.16,47.27 116.49,-46.54 59.29,-78.18"/>
<polygon fill="midnightblue" stroke="midnightblue" points="494.69,-154.05 499.79,-163.34 501.6,-152.9 494.69,-154.05"/>
</g>
<!-- Node15&#45;&gt;Node5 -->
<g id="edge32" class="edge">
<title>Node15&#45;&gt;Node5</title>
<path fill="none" stroke="midnightblue" d="M486.3,-155.17C473.31,-140.51 453.2,-120.02 432,-106.87 425.58,-102.89 418.19,-99.56 411.03,-96.87"/>
<polygon fill="midnightblue" stroke="midnightblue" points="483.89,-157.74 493.07,-163.03 489.19,-153.17 483.89,-157.74"/>
</g>
<!-- Node15&#45;&gt;Node7 -->
<g id="edge33" class="edge">
<title>Node15&#45;&gt;Node7</title>
<path fill="none" stroke="midnightblue" d="M471.87,-188.32C470.5,-189.45 469.2,-190.63 468,-191.87 444.45,-216.12 451.61,-231.33 432,-258.87 419.2,-276.85 401.26,-295.18 390.01,-306.04"/>
<polygon fill="midnightblue" stroke="midnightblue" points="474.01,-191.1 480.19,-182.5 469.99,-185.36 474.01,-191.1"/>
</g>
<!-- Node15&#45;&gt;Node8 -->
<g id="edge35" class="edge">
<title>Node15&#45;&gt;Node8</title>
<path fill="none" stroke="midnightblue" d="M457.84,-164.93C420.16,-160.31 365.35,-159.33 325,-182.87 281.72,-208.12 258.84,-268.69 251.33,-292.26"/>
<polygon fill="midnightblue" stroke="midnightblue" points="457.6,-168.43 467.98,-166.32 458.55,-161.5 457.6,-168.43"/>
</g>
<!-- Node15&#45;&gt;Node9 -->
<g id="edge34" class="edge">
<title>Node15&#45;&gt;Node9</title>
<path fill="none" stroke="midnightblue" d="M470.56,-188.9C469.64,-189.84 468.79,-190.83 468,-191.87 428.47,-244.14 475.95,-286.26 432,-334.87 428.49,-338.75 424.12,-341.84 419.42,-344.3"/>
<polygon fill="midnightblue" stroke="midnightblue" points="472.87,-191.53 478.47,-182.54 468.49,-186.08 472.87,-191.53"/>
</g>
<!-- Node15&#45;&gt;Node10 -->
<g id="edge36" class="edge">
<title>Node15&#45;&gt;Node10</title>
<path fill="none" stroke="midnightblue" d="M493,-153.95C482.3,-130.8 461.25,-91.86 432,-68.87 427.12,-65.04 421.4,-61.93 415.57,-59.43"/>
<polygon fill="midnightblue" stroke="midnightblue" points="489.92,-155.64 497.17,-163.36 496.32,-152.8 489.92,-155.64"/>
</g>
<!-- Node15&#45;&gt;Node11 -->
<g id="edge39" class="edge">
<title>Node15&#45;&gt;Node11</title>
<path fill="none" stroke="midnightblue" d="M466.9,-159.68C446.6,-151.83 421.36,-142.06 403.22,-135.05"/>
<polygon fill="midnightblue" stroke="midnightblue" points="465.82,-163.02 476.41,-163.36 468.35,-156.49 465.82,-163.02"/>
</g>
<!-- Node15&#45;&gt;Node14 -->
<g id="edge37" class="edge">
<title>Node15&#45;&gt;Node14</title>
<path fill="none" stroke="midnightblue" d="M457.82,-183.18C441.32,-187.11 422.93,-191.5 408.12,-195.04"/>
<polygon fill="midnightblue" stroke="midnightblue" points="458.89,-186.52 467.8,-180.8 457.26,-179.71 458.89,-186.52"/>
</g>
</g>
</svg>
