<?xml version="1.0" encoding="UTF-8" standalone="no"?>
<!DOCTYPE svg PUBLIC "-//W3C//DTD SVG 1.1//EN"
 "http://www.w3.org/Graphics/SVG/1.1/DTD/svg11.dtd">
<!-- Generated by graphviz version 3.0.0 (20220413.0106)
 -->
<!-- Title: kernel/include/spinlock.h Pages: 1 -->
<svg width="683pt" height="207pt"
 viewBox="0.00 0.00 683.00 207.00" xmlns="http://www.w3.org/2000/svg" xmlns:xlink="http://www.w3.org/1999/xlink">
<g id="graph0" class="graph" transform="scale(1 1) rotate(0) translate(4 203)">
<title>kernel/include/spinlock.h</title>
<!-- Node1 -->
<g id="node1" class="node">
<title>Node1</title>
<g id="a_node1"><a xlink:title=" ">
<polygon fill="#bfbfbf" stroke="black" points="381.5,-179.5 381.5,-198.5 504.5,-198.5 504.5,-179.5 381.5,-179.5"/>
<text text-anchor="middle" x="443" y="-186.5" font-family="Helvetica,sans-Serif" font-size="10.00">kernel/include/spinlock.h</text>
</a>
</g>
</g>
<!-- Node2 -->
<g id="node2" class="node">
<title>Node2</title>
<g id="a_node2"><a xlink:href="devices_8h.html" target="_top" xlink:title=" ">
<polygon fill="none" stroke="black" points="236.5,-67.5 236.5,-86.5 357.5,-86.5 357.5,-67.5 236.5,-67.5"/>
<text text-anchor="middle" x="297" y="-74.5" font-family="Helvetica,sans-Serif" font-size="10.00">kernel/include/devices.h</text>
</a>
</g>
</g>
<!-- Node1&#45;&gt;Node2 -->
<g id="edge1" class="edge">
<title>Node1&#45;&gt;Node2</title>
<path fill="none" stroke="midnightblue" d="M371.39,-184.73C341.92,-179.4 310.43,-167.73 292,-143 279.55,-126.3 287.58,-100.03 293.08,-86.57"/>
<polygon fill="midnightblue" stroke="midnightblue" points="370.86,-188.19 381.28,-186.3 371.96,-181.27 370.86,-188.19"/>
</g>
<!-- Node8 -->
<g id="node8" class="node">
<title>Node8</title>
<g id="a_node8"><a xlink:href="thread_8h.html" target="_top" xlink:title=" ">
<polygon fill="none" stroke="black" points="301,-123.5 301,-142.5 415,-142.5 415,-123.5 301,-123.5"/>
<text text-anchor="middle" x="358" y="-130.5" font-family="Helvetica,sans-Serif" font-size="10.00">kernel/include/thread.h</text>
</a>
</g>
</g>
<!-- Node1&#45;&gt;Node8 -->
<g id="edge7" class="edge">
<title>Node1&#45;&gt;Node8</title>
<path fill="none" stroke="midnightblue" d="M420.81,-173.9C405.22,-164 384.87,-151.07 371.62,-142.65"/>
<polygon fill="midnightblue" stroke="midnightblue" points="419.03,-176.92 429.34,-179.32 422.78,-171.01 419.03,-176.92"/>
</g>
<!-- Node9 -->
<g id="node9" class="node">
<title>Node9</title>
<g id="a_node9"><a xlink:href="kmt_8c.html" target="_top" xlink:title=" ">
<polygon fill="none" stroke="black" points="388,-67.5 388,-86.5 474,-86.5 474,-67.5 388,-67.5"/>
<text text-anchor="middle" x="431" y="-74.5" font-family="Helvetica,sans-Serif" font-size="10.00">kernel/src/kmt.c</text>
</a>
</g>
</g>
<!-- Node1&#45;&gt;Node9 -->
<g id="edge10" class="edge">
<title>Node1&#45;&gt;Node9</title>
<path fill="none" stroke="midnightblue" d="M440.97,-169.35C438.34,-145.25 433.87,-104.31 431.94,-86.59"/>
<polygon fill="midnightblue" stroke="midnightblue" points="437.49,-169.81 442.06,-179.37 444.45,-169.05 437.49,-169.81"/>
</g>
<!-- Node10 -->
<g id="node10" class="node">
<title>Node10</title>
<g id="a_node10"><a xlink:href="os_8c.html" target="_top" xlink:title=" ">
<polygon fill="none" stroke="black" points="471,-123.5 471,-142.5 551,-142.5 551,-123.5 471,-123.5"/>
<text text-anchor="middle" x="511" y="-130.5" font-family="Helvetica,sans-Serif" font-size="10.00">kernel/src/os.c</text>
</a>
</g>
</g>
<!-- Node1&#45;&gt;Node10 -->
<g id="edge11" class="edge">
<title>Node1&#45;&gt;Node10</title>
<path fill="none" stroke="midnightblue" d="M461.76,-173.1C474,-163.38 489.56,-151.03 499.88,-142.83"/>
<polygon fill="midnightblue" stroke="midnightblue" points="459.58,-170.36 453.93,-179.32 463.93,-175.85 459.58,-170.36"/>
</g>
<!-- Node11 -->
<g id="node11" class="node">
<title>Node11</title>
<g id="a_node11"><a xlink:href="spinlock_8c.html" target="_top" xlink:title=" ">
<polygon fill="none" stroke="black" points="569,-123.5 569,-142.5 675,-142.5 675,-123.5 569,-123.5"/>
<text text-anchor="middle" x="622" y="-130.5" font-family="Helvetica,sans-Serif" font-size="10.00">kernel/src/spinlock.c</text>
</a>
</g>
</g>
<!-- Node1&#45;&gt;Node11 -->
<g id="edge12" class="edge">
<title>Node1&#45;&gt;Node11</title>
<path fill="none" stroke="midnightblue" d="M481.33,-176.44C515.08,-166.26 563.45,-151.66 593.77,-142.52"/>
<polygon fill="midnightblue" stroke="midnightblue" points="479.93,-173.2 471.36,-179.44 481.95,-179.91 479.93,-173.2"/>
</g>
<!-- Node3 -->
<g id="node3" class="node">
<title>Node3</title>
<g id="a_node3"><a xlink:href="dev_8c.html" target="_top" xlink:title=" ">
<polygon fill="none" stroke="black" points="0,-6 0,-25 104,-25 104,-6 0,-6"/>
<text text-anchor="middle" x="52" y="-13" font-family="Helvetica,sans-Serif" font-size="10.00">kernel/src/dev/dev.c</text>
</a>
</g>
</g>
<!-- Node2&#45;&gt;Node3 -->
<g id="edge2" class="edge">
<title>Node2&#45;&gt;Node3</title>
<path fill="none" stroke="midnightblue" d="M252.17,-65.11C204.62,-53.57 130.49,-35.56 87.04,-25.01"/>
<polygon fill="midnightblue" stroke="midnightblue" points="251.35,-68.52 261.9,-67.48 253.01,-61.71 251.35,-68.52"/>
</g>
<!-- Node4 -->
<g id="node4" class="node">
<title>Node4</title>
<g id="a_node4"><a xlink:href="dev__input_8c.html" target="_top" xlink:title=" ">
<polygon fill="none" stroke="black" points="122.5,-0.5 122.5,-30.5 219.5,-30.5 219.5,-0.5 122.5,-0.5"/>
<text text-anchor="start" x="130.5" y="-18.5" font-family="Helvetica,sans-Serif" font-size="10.00">kernel/src/dev/dev</text>
<text text-anchor="middle" x="171" y="-7.5" font-family="Helvetica,sans-Serif" font-size="10.00">_input.c</text>
</a>
</g>
</g>
<!-- Node2&#45;&gt;Node4 -->
<g id="edge3" class="edge">
<title>Node2&#45;&gt;Node4</title>
<path fill="none" stroke="midnightblue" d="M269.89,-63.2C249.53,-53.58 221.66,-40.42 200.7,-30.52"/>
<polygon fill="midnightblue" stroke="midnightblue" points="268.41,-66.37 278.95,-67.48 271.4,-60.04 268.41,-66.37"/>
</g>
<!-- Node5 -->
<g id="node5" class="node">
<title>Node5</title>
<g id="a_node5"><a xlink:href="dev__sd_8c.html" target="_top" xlink:title=" ">
<polygon fill="none" stroke="black" points="237,-6 237,-25 357,-25 357,-6 237,-6"/>
<text text-anchor="middle" x="297" y="-13" font-family="Helvetica,sans-Serif" font-size="10.00">kernel/src/dev/dev_sd.c</text>
</a>
</g>
</g>
<!-- Node2&#45;&gt;Node5 -->
<g id="edge4" class="edge">
<title>Node2&#45;&gt;Node5</title>
<path fill="none" stroke="midnightblue" d="M297,-57.32C297,-46.5 297,-33.4 297,-25.01"/>
<polygon fill="midnightblue" stroke="midnightblue" points="293.5,-57.48 297,-67.48 300.5,-57.48 293.5,-57.48"/>
</g>
<!-- Node6 -->
<g id="node6" class="node">
<title>Node6</title>
<g id="a_node6"><a xlink:href="dev__tty_8c.html" target="_top" xlink:title=" ">
<polygon fill="none" stroke="black" points="374.5,-0.5 374.5,-30.5 471.5,-30.5 471.5,-0.5 374.5,-0.5"/>
<text text-anchor="start" x="382.5" y="-18.5" font-family="Helvetica,sans-Serif" font-size="10.00">kernel/src/dev/dev</text>
<text text-anchor="middle" x="423" y="-7.5" font-family="Helvetica,sans-Serif" font-size="10.00">_tty.c</text>
</a>
</g>
</g>
<!-- Node2&#45;&gt;Node6 -->
<g id="edge5" class="edge">
<title>Node2&#45;&gt;Node6</title>
<path fill="none" stroke="midnightblue" d="M324.11,-63.2C344.47,-53.58 372.34,-40.42 393.3,-30.52"/>
<polygon fill="midnightblue" stroke="midnightblue" points="322.6,-60.04 315.05,-67.48 325.59,-66.37 322.6,-60.04"/>
</g>
<!-- Node7 -->
<g id="node7" class="node">
<title>Node7</title>
<g id="a_node7"><a xlink:href="dev__video_8c.html" target="_top" xlink:title=" ">
<polygon fill="none" stroke="black" points="489.5,-0.5 489.5,-30.5 586.5,-30.5 586.5,-0.5 489.5,-0.5"/>
<text text-anchor="start" x="497.5" y="-18.5" font-family="Helvetica,sans-Serif" font-size="10.00">kernel/src/dev/dev</text>
<text text-anchor="middle" x="538" y="-7.5" font-family="Helvetica,sans-Serif" font-size="10.00">_video.c</text>
</a>
</g>
</g>
<!-- Node2&#45;&gt;Node7 -->
<g id="edge6" class="edge">
<title>Node2&#45;&gt;Node7</title>
<path fill="none" stroke="midnightblue" d="M342.34,-65.04C379.6,-55.99 433.75,-42.79 481,-31 483.77,-30.31 486.62,-29.59 489.5,-28.87"/>
<polygon fill="midnightblue" stroke="midnightblue" points="341.19,-61.71 332.3,-67.47 342.84,-68.51 341.19,-61.71"/>
</g>
<!-- Node8&#45;&gt;Node2 -->
<g id="edge8" class="edge">
<title>Node8&#45;&gt;Node2</title>
<path fill="none" stroke="midnightblue" d="M340.53,-116.54C329.66,-106.91 316.06,-94.87 306.98,-86.83"/>
<polygon fill="midnightblue" stroke="midnightblue" points="338.39,-119.32 348.2,-123.32 343.03,-114.07 338.39,-119.32"/>
</g>
<!-- Node8&#45;&gt;Node9 -->
<g id="edge9" class="edge">
<title>Node8&#45;&gt;Node9</title>
<path fill="none" stroke="midnightblue" d="M378.14,-117.1C391.28,-107.38 407.98,-95.03 419.06,-86.83"/>
<polygon fill="midnightblue" stroke="midnightblue" points="375.69,-114.56 369.73,-123.32 379.85,-120.19 375.69,-114.56"/>
</g>
</g>
</svg>
