<?xml version="1.0" encoding="UTF-8" standalone="no"?>
<!DOCTYPE svg PUBLIC "-//W3C//DTD SVG 1.1//EN"
 "http://www.w3.org/Graphics/SVG/1.1/DTD/svg11.dtd">
<!-- Generated by graphviz version 3.0.0 (20220413.0106)
 -->
<!-- Title: spin_pushcli Pages: 1 -->
<svg width="758pt" height="419pt"
 viewBox="0.00 0.00 758.00 418.85" xmlns="http://www.w3.org/2000/svg" xmlns:xlink="http://www.w3.org/1999/xlink">
<g id="graph0" class="graph" transform="scale(1 1) rotate(0) translate(4 414.85)">
<title>spin_pushcli</title>
<!-- Node1 -->
<g id="node1" class="node">
<title>Node1</title>
<g id="a_node1"><a xlink:title="interrupt disable">
<polygon fill="#bfbfbf" stroke="black" points="679,-210.88 679,-229.88 750,-229.88 750,-210.88 679,-210.88"/>
<text text-anchor="middle" x="714.5" y="-217.88" font-family="Helvetica,sans-Serif" font-size="10.00">spin_pushcli</text>
</a>
</g>
</g>
<!-- Node2 -->
<g id="node2" class="node">
<title>Node2</title>
<g id="a_node2"><a xlink:href="spinlock_8c.html#ad4be0d674a7ca4dc90c2dbf8b34562cc" target="_top" xlink:title="check current cpu has the lock">
<polygon fill="none" stroke="black" points="572,-191.88 572,-210.88 643,-210.88 643,-191.88 572,-191.88"/>
<text text-anchor="middle" x="607.5" y="-198.88" font-family="Helvetica,sans-Serif" font-size="10.00">spin_holding</text>
</a>
</g>
</g>
<!-- Node1&#45;&gt;Node2 -->
<g id="edge1" class="edge">
<title>Node1&#45;&gt;Node2</title>
<path fill="none" stroke="midnightblue" d="M668.9,-212.31C660.29,-210.75 651.38,-209.14 643.14,-207.64"/>
<polygon fill="midnightblue" stroke="midnightblue" points="668.36,-215.77 678.83,-214.1 669.61,-208.88 668.36,-215.77"/>
</g>
<!-- Node14 -->
<g id="node14" class="node">
<title>Node14</title>
<g id="a_node14"><a xlink:href="spinlock_8c.html#ab6f3c37ec37006951feccc3c05387cce" target="_top" xlink:title="acquire spinlock to current cpu">
<polygon fill="none" stroke="black" points="473,-229.88 473,-248.88 531,-248.88 531,-229.88 473,-229.88"/>
<text text-anchor="middle" x="502" y="-236.88" font-family="Helvetica,sans-Serif" font-size="10.00">spin_lock</text>
</a>
</g>
</g>
<!-- Node1&#45;&gt;Node14 -->
<g id="edge41" class="edge">
<title>Node1&#45;&gt;Node14</title>
<path fill="none" stroke="midnightblue" d="M668.59,-224.43C626.93,-228.19 566.24,-233.67 531.07,-236.84"/>
<polygon fill="midnightblue" stroke="midnightblue" points="669.1,-227.9 678.74,-223.52 668.47,-220.93 669.1,-227.9"/>
</g>
<!-- Node3 -->
<g id="node3" class="node">
<title>Node3</title>
<g id="a_node3"><a xlink:href="kmt_8c.html#af9c485ce0d89d6624e6e80e31d8ed207" target="_top" xlink:title="handler: save context to current task">
<polygon fill="none" stroke="black" points="330.5,-191.88 330.5,-210.88 426.5,-210.88 426.5,-191.88 330.5,-191.88"/>
<text text-anchor="middle" x="378.5" y="-198.88" font-family="Helvetica,sans-Serif" font-size="10.00">kmt_context_save</text>
</a>
</g>
</g>
<!-- Node2&#45;&gt;Node3 -->
<g id="edge2" class="edge">
<title>Node2&#45;&gt;Node3</title>
<path fill="none" stroke="midnightblue" d="M561.52,-201.38C522.55,-201.38 466.37,-201.38 426.75,-201.38"/>
<polygon fill="midnightblue" stroke="midnightblue" points="561.53,-204.88 571.53,-201.38 561.53,-197.88 561.53,-204.88"/>
</g>
<!-- Node6 -->
<g id="node6" class="node">
<title>Node6</title>
<g id="a_node6"><a xlink:href="kmt_8c.html#a5ddb8743298012e84cf9cb5faf22212b" target="_top" xlink:title="create thread">
<polygon fill="none" stroke="black" points="346,-115.88 346,-134.88 411,-134.88 411,-115.88 346,-115.88"/>
<text text-anchor="middle" x="378.5" y="-122.88" font-family="Helvetica,sans-Serif" font-size="10.00">kmt_create</text>
</a>
</g>
</g>
<!-- Node2&#45;&gt;Node6 -->
<g id="edge5" class="edge">
<title>Node2&#45;&gt;Node6</title>
<path fill="none" stroke="midnightblue" d="M590.74,-184.19C577.5,-170.95 557.37,-153.42 536,-144.38 495.29,-127.15 443.66,-124.1 411.09,-124.19"/>
<polygon fill="midnightblue" stroke="midnightblue" points="588.58,-187 598.04,-191.77 593.62,-182.14 588.58,-187"/>
</g>
<!-- Node7 -->
<g id="node7" class="node">
<title>Node7</title>
<g id="a_node7"><a xlink:href="kmt_8c.html#ad3fbc643b7b6092120c5152b4c890354" target="_top" xlink:title="handler: handle program errors">
<polygon fill="none" stroke="black" points="218.5,-324.88 218.5,-343.88 276.5,-343.88 276.5,-324.88 218.5,-324.88"/>
<text text-anchor="middle" x="247.5" y="-331.88" font-family="Helvetica,sans-Serif" font-size="10.00">kmt_error</text>
</a>
</g>
</g>
<!-- Node2&#45;&gt;Node7 -->
<g id="edge7" class="edge">
<title>Node2&#45;&gt;Node7</title>
<path fill="none" stroke="midnightblue" d="M602.55,-221.14C595.1,-253.4 576.01,-317.5 536,-354.38 465.93,-418.96 415.32,-422.75 325,-392.38 296.56,-382.82 270.3,-358.03 257.21,-344.15"/>
<polygon fill="midnightblue" stroke="midnightblue" points="606.02,-221.66 604.71,-211.15 599.17,-220.18 606.02,-221.66"/>
</g>
<!-- Node8 -->
<g id="node8" class="node">
<title>Node8</title>
<g id="a_node8"><a xlink:href="kmt_8c.html#a0ac321d3074b24b276695a080e835866" target="_top" xlink:title="print all tasks notice: do not garantee concurrency safety">
<polygon fill="none" stroke="black" points="328,-343.88 328,-362.88 429,-362.88 429,-343.88 328,-343.88"/>
<text text-anchor="middle" x="378.5" y="-350.88" font-family="Helvetica,sans-Serif" font-size="10.00">kmt_print_all_tasks</text>
</a>
</g>
</g>
<!-- Node2&#45;&gt;Node8 -->
<g id="edge9" class="edge">
<title>Node2&#45;&gt;Node8</title>
<path fill="none" stroke="midnightblue" d="M595.05,-219.5C582.46,-238.24 560.71,-267.39 536,-286.38 499.1,-314.75 448.36,-333.57 414.79,-343.85"/>
<polygon fill="midnightblue" stroke="midnightblue" points="598.07,-221.27 600.62,-210.99 592.21,-217.44 598.07,-221.27"/>
</g>
<!-- Node9 -->
<g id="node9" class="node">
<title>Node9</title>
<g id="a_node9"><a xlink:href="kmt_8c.html#ad4d70b4093829da1c0b0631abdff7747" target="_top" xlink:title="handler: schedule next task to run Notice: this should be the only handler which returns real Context">
<polygon fill="none" stroke="black" points="209,-277.88 209,-296.88 286,-296.88 286,-277.88 209,-277.88"/>
<text text-anchor="middle" x="247.5" y="-284.88" font-family="Helvetica,sans-Serif" font-size="10.00">kmt_schedule</text>
</a>
</g>
</g>
<!-- Node2&#45;&gt;Node9 -->
<g id="edge16" class="edge">
<title>Node2&#45;&gt;Node9</title>
<path fill="none" stroke="midnightblue" d="M598.88,-220.57C588.09,-245.73 566.26,-289.98 536,-318.38 498.02,-354.02 482.6,-360.03 432,-372.38 385.8,-383.66 366.65,-395.33 325,-372.38 298.76,-357.91 309.74,-337 289,-315.38 282.14,-308.22 273.18,-301.8 265.43,-296.92"/>
<polygon fill="midnightblue" stroke="midnightblue" points="602.23,-221.64 602.82,-211.06 595.76,-218.96 602.23,-221.64"/>
</g>
<!-- Node10 -->
<g id="node10" class="node">
<title>Node10</title>
<g id="a_node10"><a xlink:href="kmt_8c.html#ac69761d0146d9aacda65da757868d3c7" target="_top" xlink:title="print all current_tasks notice: do not garantee concurrency safety">
<polygon fill="none" stroke="black" points="325,-305.88 325,-324.88 432,-324.88 432,-305.88 325,-305.88"/>
<text text-anchor="middle" x="378.5" y="-312.88" font-family="Helvetica,sans-Serif" font-size="10.00">kmt_print_cpu_tasks</text>
</a>
</g>
</g>
<!-- Node2&#45;&gt;Node10 -->
<g id="edge13" class="edge">
<title>Node2&#45;&gt;Node10</title>
<path fill="none" stroke="midnightblue" d="M589.18,-218.13C575.6,-230.56 555.74,-247.21 536,-258.38 497.36,-280.22 448.79,-296.36 416.09,-305.79"/>
<polygon fill="midnightblue" stroke="midnightblue" points="591.86,-220.42 596.77,-211.03 587.08,-215.3 591.86,-220.42"/>
</g>
<!-- Node11 -->
<g id="node11" class="node">
<title>Node11</title>
<g id="a_node11"><a xlink:href="kmt_8c.html#a47d8887c87041abd5ea3148232b65c93" target="_top" xlink:title="tear down a thread">
<polygon fill="none" stroke="black" points="339.5,-77.88 339.5,-96.88 417.5,-96.88 417.5,-77.88 339.5,-77.88"/>
<text text-anchor="middle" x="378.5" y="-84.88" font-family="Helvetica,sans-Serif" font-size="10.00">kmt_teardown</text>
</a>
</g>
</g>
<!-- Node2&#45;&gt;Node11 -->
<g id="edge17" class="edge">
<title>Node2&#45;&gt;Node11</title>
<path fill="none" stroke="midnightblue" d="M594.77,-183.24C582.32,-165.5 561.02,-139.07 536,-124.38 499.28,-102.82 450.77,-93.82 417.55,-90.06"/>
<polygon fill="midnightblue" stroke="midnightblue" points="591.93,-185.3 600.44,-191.62 597.73,-181.37 591.93,-185.3"/>
</g>
<!-- Node12 -->
<g id="node12" class="node">
<title>Node12</title>
<g id="a_node12"><a xlink:href="os_8c.html#a2be1c9facb49d4439f41b1537d0f3ef8" target="_top" xlink:title="System trap entry.">
<polygon fill="none" stroke="black" points="354,-39.88 354,-58.88 403,-58.88 403,-39.88 354,-39.88"/>
<text text-anchor="middle" x="378.5" y="-46.88" font-family="Helvetica,sans-Serif" font-size="10.00">os_trap</text>
</a>
</g>
</g>
<!-- Node2&#45;&gt;Node12 -->
<g id="edge19" class="edge">
<title>Node2&#45;&gt;Node12</title>
<path fill="none" stroke="midnightblue" d="M598.85,-182.47C588.24,-158.65 566.85,-118.1 536,-95.38 495.53,-65.57 435.94,-54.98 403.21,-51.29"/>
<polygon fill="midnightblue" stroke="midnightblue" points="595.7,-184.01 602.84,-191.83 602.13,-181.26 595.7,-184.01"/>
</g>
<!-- Node2&#45;&gt;Node14 -->
<g id="edge21" class="edge">
<title>Node2&#45;&gt;Node14</title>
<path fill="none" stroke="midnightblue" d="M570.77,-214.5C557.08,-219.52 541.73,-225.16 529.11,-229.79"/>
<polygon fill="midnightblue" stroke="midnightblue" points="572.2,-217.7 580.38,-210.97 569.79,-211.13 572.2,-217.7"/>
</g>
<!-- Node16 -->
<g id="node16" class="node">
<title>Node16</title>
<g id="a_node16"><a xlink:href="spinlock_8c.html#acdf118d615a4bc4064e991add9a80995" target="_top" xlink:title="release spinlock from current cpu">
<polygon fill="none" stroke="black" points="468,-153.88 468,-172.88 536,-172.88 536,-153.88 468,-153.88"/>
<text text-anchor="middle" x="502" y="-160.88" font-family="Helvetica,sans-Serif" font-size="10.00">spin_unlock</text>
</a>
</g>
</g>
<!-- Node2&#45;&gt;Node16 -->
<g id="edge31" class="edge">
<title>Node2&#45;&gt;Node16</title>
<path fill="none" stroke="midnightblue" d="M570.77,-188.26C557.08,-183.23 541.73,-177.6 529.11,-172.96"/>
<polygon fill="midnightblue" stroke="midnightblue" points="569.79,-191.63 580.38,-191.79 572.2,-185.06 569.79,-191.63"/>
</g>
<!-- Node4 -->
<g id="node4" class="node">
<title>Node4</title>
<g id="a_node4"><a xlink:href="kmt_8c.html#a0c68a294cecc4be7cb4b495f15b883a0" target="_top" xlink:title="initialize kmt module">
<polygon fill="none" stroke="black" points="119,-258.88 119,-277.88 170,-277.88 170,-258.88 119,-258.88"/>
<text text-anchor="middle" x="144.5" y="-265.88" font-family="Helvetica,sans-Serif" font-size="10.00">kmt_init</text>
</a>
</g>
</g>
<!-- Node3&#45;&gt;Node4 -->
<g id="edge3" class="edge">
<title>Node3&#45;&gt;Node4</title>
<path fill="none" stroke="midnightblue" d="M334.4,-213.83C286.04,-227.79 209.26,-249.96 170.15,-261.26"/>
<polygon fill="midnightblue" stroke="midnightblue" points="335.62,-217.11 344.26,-210.98 333.68,-210.39 335.62,-217.11"/>
</g>
<!-- Node5 -->
<g id="node5" class="node">
<title>Node5</title>
<g id="a_node5"><a xlink:href="kmt_8c.html#af360ef0d98ca30e481cc58ea3695fd58" target="_top" xlink:title=" ">
<polygon fill="none" stroke="black" points="0,-115.88 0,-134.88 83,-134.88 83,-115.88 0,-115.88"/>
<text text-anchor="middle" x="41.5" y="-122.88" font-family="Helvetica,sans-Serif" font-size="10.00">MODULE_DEF</text>
</a>
</g>
</g>
<!-- Node4&#45;&gt;Node5 -->
<g id="edge4" class="edge">
<title>Node4&#45;&gt;Node5</title>
<path fill="none" stroke="midnightblue" d="M130.55,-250.05C108.83,-219.29 65.8,-158.36 49.22,-134.9"/>
<polygon fill="midnightblue" stroke="midnightblue" points="127.93,-252.4 136.56,-258.55 133.65,-248.36 127.93,-252.4"/>
</g>
<!-- Node6&#45;&gt;Node5 -->
<g id="edge6" class="edge">
<title>Node6&#45;&gt;Node5</title>
<path fill="none" stroke="midnightblue" d="M335.74,-125.38C271.02,-125.38 147.29,-125.38 83.21,-125.38"/>
<polygon fill="midnightblue" stroke="midnightblue" points="335.98,-128.88 345.98,-125.38 335.98,-121.88 335.98,-128.88"/>
</g>
<!-- Node7&#45;&gt;Node4 -->
<g id="edge8" class="edge">
<title>Node7&#45;&gt;Node4</title>
<path fill="none" stroke="midnightblue" d="M223.01,-319.03C203.58,-306.33 176.6,-288.7 160.14,-277.94"/>
<polygon fill="midnightblue" stroke="midnightblue" points="221.31,-322.1 231.6,-324.64 225.14,-316.24 221.31,-322.1"/>
</g>
<!-- Node8&#45;&gt;Node7 -->
<g id="edge10" class="edge">
<title>Node8&#45;&gt;Node7</title>
<path fill="none" stroke="midnightblue" d="M317.7,-344.57C303.44,-342.47 288.86,-340.32 276.79,-338.54"/>
<polygon fill="midnightblue" stroke="midnightblue" points="317.59,-348.09 327.99,-346.09 318.61,-341.17 317.59,-348.09"/>
</g>
<!-- Node8&#45;&gt;Node9 -->
<g id="edge11" class="edge">
<title>Node8&#45;&gt;Node9</title>
<path fill="none" stroke="midnightblue" d="M338.51,-340.28C333.9,-338.43 329.3,-336.45 325,-334.38 301.97,-323.28 277.05,-307.11 262.12,-296.92"/>
<polygon fill="midnightblue" stroke="midnightblue" points="337.32,-343.57 347.91,-343.86 339.81,-337.03 337.32,-343.57"/>
</g>
<!-- Node9&#45;&gt;Node4 -->
<g id="edge12" class="edge">
<title>Node9&#45;&gt;Node4</title>
<path fill="none" stroke="midnightblue" d="M199.05,-278.45C189.1,-276.58 178.98,-274.68 170.27,-273.04"/>
<polygon fill="midnightblue" stroke="midnightblue" points="198.42,-281.89 208.89,-280.3 199.71,-275.01 198.42,-281.89"/>
</g>
<!-- Node10&#45;&gt;Node7 -->
<g id="edge14" class="edge">
<title>Node10&#45;&gt;Node7</title>
<path fill="none" stroke="midnightblue" d="M314.56,-324.65C301.28,-326.6 287.92,-328.57 276.72,-330.22"/>
<polygon fill="midnightblue" stroke="midnightblue" points="315.28,-328.08 324.66,-323.16 314.26,-321.16 315.28,-328.08"/>
</g>
<!-- Node10&#45;&gt;Node9 -->
<g id="edge15" class="edge">
<title>Node10&#45;&gt;Node9</title>
<path fill="none" stroke="midnightblue" d="M323.57,-303.67C311.05,-300.95 297.97,-298.12 286.31,-295.58"/>
<polygon fill="midnightblue" stroke="midnightblue" points="322.95,-307.12 333.47,-305.82 324.44,-300.28 322.95,-307.12"/>
</g>
<!-- Node11&#45;&gt;Node5 -->
<g id="edge18" class="edge">
<title>Node11&#45;&gt;Node5</title>
<path fill="none" stroke="midnightblue" d="M329.23,-92.85C263,-100.37 145.15,-113.73 83.17,-120.76"/>
<polygon fill="midnightblue" stroke="midnightblue" points="329.86,-96.3 339.4,-91.7 329.07,-89.35 329.86,-96.3"/>
</g>
<!-- Node13 -->
<g id="node13" class="node">
<title>Node13</title>
<g id="a_node13"><a xlink:href="os_8c.html#aafec7046aa50c914df86d0d22d4fc1d1" target="_top" xlink:title=" ">
<polygon fill="none" stroke="black" points="206,-39.88 206,-58.88 289,-58.88 289,-39.88 206,-39.88"/>
<text text-anchor="middle" x="247.5" y="-46.88" font-family="Helvetica,sans-Serif" font-size="10.00">MODULE_DEF</text>
</a>
</g>
</g>
<!-- Node12&#45;&gt;Node13 -->
<g id="edge20" class="edge">
<title>Node12&#45;&gt;Node13</title>
<path fill="none" stroke="midnightblue" d="M343.48,-49.38C326.85,-49.38 306.7,-49.38 289.25,-49.38"/>
<polygon fill="midnightblue" stroke="midnightblue" points="343.84,-52.88 353.84,-49.38 343.84,-45.88 343.84,-52.88"/>
</g>
<!-- Node14&#45;&gt;Node3 -->
<g id="edge22" class="edge">
<title>Node14&#45;&gt;Node3</title>
<path fill="none" stroke="midnightblue" d="M463.15,-227.54C446.08,-222.2 426.18,-215.98 410.08,-210.94"/>
<polygon fill="midnightblue" stroke="midnightblue" points="462.23,-230.92 472.82,-230.56 464.32,-224.24 462.23,-230.92"/>
</g>
<!-- Node14&#45;&gt;Node5 -->
<g id="edge29" class="edge">
<title>Node14&#45;&gt;Node5</title>
<path fill="none" stroke="midnightblue" d="M497.44,-258.94C490.72,-289.46 472.98,-347.47 432,-372.38 345.86,-424.73 298.7,-392.97 206,-353.38 161.37,-334.31 149.57,-325.07 119,-287.38 78.25,-237.13 53.22,-161.59 45.26,-135.03"/>
<polygon fill="midnightblue" stroke="midnightblue" points="500.89,-259.55 499.44,-249.06 494.03,-258.16 500.89,-259.55"/>
</g>
<!-- Node14&#45;&gt;Node6 -->
<g id="edge23" class="edge">
<title>Node14&#45;&gt;Node6</title>
<path fill="none" stroke="midnightblue" d="M483.06,-222.55C457.26,-198.34 410.52,-154.49 389.83,-135.07"/>
<polygon fill="midnightblue" stroke="midnightblue" points="480.95,-225.37 490.64,-229.66 485.74,-220.26 480.95,-225.37"/>
</g>
<!-- Node14&#45;&gt;Node8 -->
<g id="edge24" class="edge">
<title>Node14&#45;&gt;Node8</title>
<path fill="none" stroke="midnightblue" d="M491.92,-257.91C480.62,-279.17 459.42,-313.75 432,-334.38 426.89,-338.22 420.92,-341.35 414.88,-343.87"/>
<polygon fill="midnightblue" stroke="midnightblue" points="495.08,-259.41 496.52,-248.92 488.85,-256.22 495.08,-259.41"/>
</g>
<!-- Node14&#45;&gt;Node9 -->
<g id="edge26" class="edge">
<title>Node14&#45;&gt;Node9</title>
<path fill="none" stroke="midnightblue" d="M463.23,-250.6C453.14,-253.37 442.2,-256.17 432,-258.38 382.03,-269.17 323.6,-277.72 286.33,-282.66"/>
<polygon fill="midnightblue" stroke="midnightblue" points="464.3,-253.93 472.98,-247.86 462.4,-247.2 464.3,-253.93"/>
</g>
<!-- Node14&#45;&gt;Node10 -->
<g id="edge25" class="edge">
<title>Node14&#45;&gt;Node10</title>
<path fill="none" stroke="midnightblue" d="M481.81,-255.63C468.39,-266.54 449.76,-280.8 432,-291.38 422.96,-296.76 412.5,-301.77 403.31,-305.8"/>
<polygon fill="midnightblue" stroke="midnightblue" points="484.34,-258.08 489.82,-249.01 479.88,-252.69 484.34,-258.08"/>
</g>
<!-- Node14&#45;&gt;Node11 -->
<g id="edge27" class="edge">
<title>Node14&#45;&gt;Node11</title>
<path fill="none" stroke="midnightblue" d="M489.9,-221.09C483.31,-210.02 474.91,-195.53 468,-182.38 450.62,-149.29 459.66,-131.52 432,-106.38 427.77,-102.53 422.7,-99.45 417.4,-96.98"/>
<polygon fill="midnightblue" stroke="midnightblue" points="487,-223.06 495.15,-229.83 493,-219.46 487,-223.06"/>
</g>
<!-- Node14&#45;&gt;Node12 -->
<g id="edge30" class="edge">
<title>Node14&#45;&gt;Node12</title>
<path fill="none" stroke="midnightblue" d="M488.99,-221.02C482.21,-210.11 473.92,-195.81 468,-182.38 446.56,-133.76 468.79,-106.72 432,-68.38 424.42,-60.47 413.3,-55.85 403.24,-53.14"/>
<polygon fill="midnightblue" stroke="midnightblue" points="486.15,-223.08 494.47,-229.64 492.06,-219.32 486.15,-223.08"/>
</g>
<!-- Node15 -->
<g id="node15" class="node">
<title>Node15</title>
<g id="a_node15"><a xlink:href="kernel_8h.html#a7ef2d722f9c7f8acc1801144a5188825" target="_top" xlink:title=" ">
<polygon fill="none" stroke="black" points="349,-229.88 349,-248.88 408,-248.88 408,-229.88 349,-229.88"/>
<text text-anchor="middle" x="378.5" y="-236.88" font-family="Helvetica,sans-Serif" font-size="10.00">MODULE</text>
</a>
</g>
</g>
<!-- Node14&#45;&gt;Node15 -->
<g id="edge28" class="edge">
<title>Node14&#45;&gt;Node15</title>
<path fill="none" stroke="midnightblue" d="M462.35,-239.38C444.85,-239.38 424.52,-239.38 408.37,-239.38"/>
<polygon fill="midnightblue" stroke="midnightblue" points="462.82,-242.88 472.82,-239.38 462.82,-235.88 462.82,-242.88"/>
</g>
<!-- Node16&#45;&gt;Node3 -->
<g id="edge32" class="edge">
<title>Node16&#45;&gt;Node3</title>
<path fill="none" stroke="midnightblue" d="M460.46,-176.06C444.04,-181.19 425.4,-187.02 410.15,-191.79"/>
<polygon fill="midnightblue" stroke="midnightblue" points="461.84,-179.29 470.34,-172.97 459.75,-172.61 461.84,-179.29"/>
</g>
<!-- Node16&#45;&gt;Node5 -->
<g id="edge39" class="edge">
<title>Node16&#45;&gt;Node5</title>
<path fill="none" stroke="midnightblue" d="M497.44,-143.81C490.72,-113.29 472.98,-55.28 432,-30.38 346.17,21.79 302.99,-4.25 206,-30.38 142.92,-47.37 79.11,-95.35 53.83,-115.87"/>
<polygon fill="midnightblue" stroke="midnightblue" points="494.03,-144.59 499.44,-153.7 500.89,-143.2 494.03,-144.59"/>
</g>
<!-- Node16&#45;&gt;Node6 -->
<g id="edge33" class="edge">
<title>Node16&#45;&gt;Node6</title>
<path fill="none" stroke="midnightblue" d="M460.46,-150.7C444.04,-145.56 425.4,-139.73 410.15,-134.96"/>
<polygon fill="midnightblue" stroke="midnightblue" points="459.75,-154.14 470.34,-153.79 461.84,-147.46 459.75,-154.14"/>
</g>
<!-- Node16&#45;&gt;Node8 -->
<g id="edge34" class="edge">
<title>Node16&#45;&gt;Node8</title>
<path fill="none" stroke="midnightblue" d="M488.99,-181.73C482.21,-192.65 473.92,-206.94 468,-220.38 446.56,-268.99 468.79,-296.04 432,-334.38 428.31,-338.22 423.78,-341.3 418.95,-343.75"/>
<polygon fill="midnightblue" stroke="midnightblue" points="492.06,-183.44 494.47,-173.12 486.15,-179.68 492.06,-183.44"/>
</g>
<!-- Node16&#45;&gt;Node9 -->
<g id="edge36" class="edge">
<title>Node16&#45;&gt;Node9</title>
<path fill="none" stroke="midnightblue" d="M457.62,-158.67C420.04,-156.67 365.49,-158.96 325,-182.38 285.95,-204.96 261.22,-256.34 252.27,-277.74"/>
<polygon fill="midnightblue" stroke="midnightblue" points="457.54,-162.17 467.75,-159.33 458,-155.18 457.54,-162.17"/>
</g>
<!-- Node16&#45;&gt;Node10 -->
<g id="edge35" class="edge">
<title>Node16&#45;&gt;Node10</title>
<path fill="none" stroke="midnightblue" d="M488.7,-181.6C475.35,-201.08 453.09,-232.63 432,-258.38 417.85,-275.66 399.98,-294.49 389.16,-305.6"/>
<polygon fill="midnightblue" stroke="midnightblue" points="491.76,-183.33 494.5,-173.09 485.98,-179.39 491.76,-183.33"/>
</g>
<!-- Node16&#45;&gt;Node11 -->
<g id="edge37" class="edge">
<title>Node16&#45;&gt;Node11</title>
<path fill="none" stroke="midnightblue" d="M484.12,-146.59C470.86,-134.14 451.44,-117.48 432,-106.38 425.6,-102.72 418.38,-99.57 411.38,-96.93"/>
<polygon fill="midnightblue" stroke="midnightblue" points="481.89,-149.3 491.52,-153.71 486.74,-144.25 481.89,-149.3"/>
</g>
<!-- Node16&#45;&gt;Node12 -->
<g id="edge40" class="edge">
<title>Node16&#45;&gt;Node12</title>
<path fill="none" stroke="midnightblue" d="M491.92,-144.85C480.62,-123.58 459.42,-89.01 432,-68.38 423.56,-62.03 412.79,-57.64 403.2,-54.69"/>
<polygon fill="midnightblue" stroke="midnightblue" points="488.85,-146.53 496.52,-153.84 495.08,-143.34 488.85,-146.53"/>
</g>
<!-- Node16&#45;&gt;Node15 -->
<g id="edge38" class="edge">
<title>Node16&#45;&gt;Node15</title>
<path fill="none" stroke="midnightblue" d="M484.12,-180.17C470.86,-192.61 451.44,-209.28 432,-220.38 424.59,-224.61 416.07,-228.17 408.08,-231.03"/>
<polygon fill="midnightblue" stroke="midnightblue" points="486.74,-182.5 491.52,-173.05 481.89,-177.46 486.74,-182.5"/>
</g>
</g>
</svg>
