<?xml version="1.0" encoding="UTF-8" standalone="no"?>
<!DOCTYPE svg PUBLIC "-//W3C//DTD SVG 1.1//EN"
 "http://www.w3.org/Graphics/SVG/1.1/DTD/svg11.dtd">
<!-- Generated by graphviz version 3.0.0 (20220413.0106)
 -->
<!-- Title: spin_lock Pages: 1 -->
<svg width="465pt" height="180pt"
 viewBox="0.00 0.00 465.00 180.00" xmlns="http://www.w3.org/2000/svg" xmlns:xlink="http://www.w3.org/1999/xlink">
<g id="graph0" class="graph" transform="scale(1 1) rotate(0) translate(4 176)">
<title>spin_lock</title>
<!-- Node1 -->
<g id="node1" class="node">
<title>Node1</title>
<g id="a_node1"><a xlink:title="acquire spinlock to current cpu">
<polygon fill="#bfbfbf" stroke="black" points="0,-86.5 0,-105.5 58,-105.5 58,-86.5 0,-86.5"/>
<text text-anchor="middle" x="29" y="-93.5" font-family="Helvetica,sans-Serif" font-size="10.00">spin_lock</text>
</a>
</g>
</g>
<!-- Node2 -->
<g id="node2" class="node">
<title>Node2</title>
<g id="a_node2"><a xlink:href="mpe_8c.html#aaaad47c97c82065cf463f83b98b23c30" target="_top" xlink:title=" ">
<polygon fill="none" stroke="black" points="94,-152.5 94,-171.5 165,-171.5 165,-152.5 94,-152.5"/>
<text text-anchor="middle" x="129.5" y="-159.5" font-family="Helvetica,sans-Serif" font-size="10.00">atomic_xchg</text>
</a>
</g>
</g>
<!-- Node1&#45;&gt;Node2 -->
<g id="edge1" class="edge">
<title>Node1&#45;&gt;Node2</title>
<path fill="none" stroke="midnightblue" d="M44.53,-105.74C60.7,-116.57 87.03,-134.21 105.9,-146.85"/>
<polygon fill="midnightblue" stroke="midnightblue" points="103.97,-149.78 114.23,-152.44 107.87,-143.96 103.97,-149.78"/>
</g>
<!-- Node4 -->
<g id="node4" class="node">
<title>Node4</title>
<g id="a_node4"><a xlink:href="mpe_8c.html#ab701de78cad32896c923ce900087e714" target="_top" xlink:title=" ">
<polygon fill="none" stroke="black" points="308,-76.5 308,-95.5 376,-95.5 376,-76.5 308,-76.5"/>
<text text-anchor="middle" x="342" y="-83.5" font-family="Helvetica,sans-Serif" font-size="10.00">cpu_current</text>
</a>
</g>
</g>
<!-- Node1&#45;&gt;Node4 -->
<g id="edge3" class="edge">
<title>Node1&#45;&gt;Node4</title>
<path fill="none" stroke="midnightblue" d="M58.36,-97.08C103.6,-98.54 194.88,-100.37 272,-95 280.31,-94.42 289.15,-93.5 297.63,-92.47"/>
<polygon fill="midnightblue" stroke="midnightblue" points="298.27,-95.91 307.74,-91.16 297.37,-88.97 298.27,-95.91"/>
</g>
<!-- Node5 -->
<g id="node5" class="node">
<title>Node5</title>
<g id="a_node5"><a xlink:href="spinlock_8c.html#ad4be0d674a7ca4dc90c2dbf8b34562cc" target="_top" xlink:title="check current cpu has the lock">
<polygon fill="none" stroke="black" points="94,-67.5 94,-86.5 165,-86.5 165,-67.5 94,-67.5"/>
<text text-anchor="middle" x="129.5" y="-74.5" font-family="Helvetica,sans-Serif" font-size="10.00">spin_holding</text>
</a>
</g>
</g>
<!-- Node1&#45;&gt;Node5 -->
<g id="edge4" class="edge">
<title>Node1&#45;&gt;Node5</title>
<path fill="none" stroke="midnightblue" d="M58.23,-90.56C66.23,-89.01 75.16,-87.29 83.88,-85.61"/>
<polygon fill="midnightblue" stroke="midnightblue" points="84.81,-88.99 93.97,-83.66 83.49,-82.12 84.81,-88.99"/>
</g>
<!-- Node10 -->
<g id="node10" class="node">
<title>Node10</title>
<g id="a_node10"><a xlink:href="spinlock_8c.html#ab213874cda54fdbbeb1bec1e5fa90b28" target="_top" xlink:title="interrupt disable">
<polygon fill="none" stroke="black" points="201,-0.5 201,-19.5 272,-19.5 272,-0.5 201,-0.5"/>
<text text-anchor="middle" x="236.5" y="-7.5" font-family="Helvetica,sans-Serif" font-size="10.00">spin_pushcli</text>
</a>
</g>
</g>
<!-- Node1&#45;&gt;Node10 -->
<g id="edge16" class="edge">
<title>Node1&#45;&gt;Node10</title>
<path fill="none" stroke="midnightblue" d="M44.27,-86.35C56.94,-78.07 76.16,-66.21 94,-58 125.62,-43.44 162.96,-30.96 191.35,-22.38"/>
<polygon fill="midnightblue" stroke="midnightblue" points="192.41,-25.71 200.99,-19.5 190.41,-19 192.41,-25.71"/>
</g>
<!-- Node3 -->
<g id="node3" class="node">
<title>Node3</title>
<g id="a_node3"><a xlink:href="x86_8h.html#a48b2a6a16dc8d7e09d327aa3803f1112" target="_top" xlink:title=" ">
<polygon fill="none" stroke="black" points="218,-152.5 218,-171.5 255,-171.5 255,-152.5 218,-152.5"/>
<text text-anchor="middle" x="236.5" y="-159.5" font-family="Helvetica,sans-Serif" font-size="10.00">xchg</text>
</a>
</g>
</g>
<!-- Node2&#45;&gt;Node3 -->
<g id="edge2" class="edge">
<title>Node2&#45;&gt;Node3</title>
<path fill="none" stroke="midnightblue" d="M165.17,-162C178.99,-162 194.67,-162 207.71,-162"/>
<polygon fill="midnightblue" stroke="midnightblue" points="207.95,-165.5 217.95,-162 207.95,-158.5 207.95,-165.5"/>
</g>
<!-- Node5&#45;&gt;Node4 -->
<g id="edge5" class="edge">
<title>Node5&#45;&gt;Node4</title>
<path fill="none" stroke="midnightblue" d="M165.26,-78.49C201.6,-80.04 258.69,-82.48 297.88,-84.16"/>
<polygon fill="midnightblue" stroke="midnightblue" points="297.78,-87.66 307.92,-84.59 298.08,-80.66 297.78,-87.66"/>
</g>
<!-- Node6 -->
<g id="node6" class="node">
<title>Node6</title>
<g id="a_node6"><a xlink:href="spinlock_8c.html#afc9565dc7a5ddf77e1fa76f5d91caf78" target="_top" xlink:title="interrupt able">
<polygon fill="none" stroke="black" points="204,-38.5 204,-57.5 269,-57.5 269,-38.5 204,-38.5"/>
<text text-anchor="middle" x="236.5" y="-45.5" font-family="Helvetica,sans-Serif" font-size="10.00">spin_popcli</text>
</a>
</g>
</g>
<!-- Node5&#45;&gt;Node6 -->
<g id="edge6" class="edge">
<title>Node5&#45;&gt;Node6</title>
<path fill="none" stroke="midnightblue" d="M165.17,-67.42C174.39,-64.88 184.45,-62.1 193.99,-59.46"/>
<polygon fill="midnightblue" stroke="midnightblue" points="195,-62.82 203.7,-56.78 193.13,-56.07 195,-62.82"/>
</g>
<!-- Node5&#45;&gt;Node10 -->
<g id="edge11" class="edge">
<title>Node5&#45;&gt;Node10</title>
<path fill="none" stroke="midnightblue" d="M143.77,-67.41C157.76,-57.44 180.56,-41.55 201,-29 203.46,-27.49 206.04,-25.96 208.65,-24.46"/>
<polygon fill="midnightblue" stroke="midnightblue" points="210.4,-27.49 217.41,-19.54 206.98,-21.39 210.4,-27.49"/>
</g>
<!-- Node6&#45;&gt;Node4 -->
<g id="edge7" class="edge">
<title>Node6&#45;&gt;Node4</title>
<path fill="none" stroke="midnightblue" d="M263.62,-57.59C276.24,-62.22 291.59,-67.86 305.28,-72.89"/>
<polygon fill="midnightblue" stroke="midnightblue" points="304.3,-76.25 314.89,-76.41 306.71,-69.68 304.3,-76.25"/>
</g>
<!-- Node7 -->
<g id="node7" class="node">
<title>Node7</title>
<g id="a_node7"><a xlink:href="cte_8c.html#a4a139958742786c5085172be1f69bfd0" target="_top" xlink:title=" ">
<polygon fill="none" stroke="black" points="326,-38.5 326,-57.5 358,-57.5 358,-38.5 326,-38.5"/>
<text text-anchor="middle" x="342" y="-45.5" font-family="Helvetica,sans-Serif" font-size="10.00">iset</text>
</a>
</g>
</g>
<!-- Node6&#45;&gt;Node7 -->
<g id="edge8" class="edge">
<title>Node6&#45;&gt;Node7</title>
<path fill="none" stroke="midnightblue" d="M269.12,-48C283.94,-48 301.37,-48 315.36,-48"/>
<polygon fill="midnightblue" stroke="midnightblue" points="315.72,-51.5 325.72,-48 315.72,-44.5 315.72,-51.5"/>
</g>
<!-- Node8 -->
<g id="node8" class="node">
<title>Node8</title>
<g id="a_node8"><a xlink:href="x86_8h.html#acc919e7809ef1db2b20aa3804f540b5c" target="_top" xlink:title=" ">
<polygon fill="none" stroke="black" points="420,-38.5 420,-57.5 449,-57.5 449,-38.5 420,-38.5"/>
<text text-anchor="middle" x="434.5" y="-45.5" font-family="Helvetica,sans-Serif" font-size="10.00">cli</text>
</a>
</g>
</g>
<!-- Node7&#45;&gt;Node8 -->
<g id="edge9" class="edge">
<title>Node7&#45;&gt;Node8</title>
<path fill="none" stroke="midnightblue" d="M358.35,-48C372.37,-48 393.3,-48 409.52,-48"/>
<polygon fill="midnightblue" stroke="midnightblue" points="409.85,-51.5 419.85,-48 409.85,-44.5 409.85,-51.5"/>
</g>
<!-- Node9 -->
<g id="node9" class="node">
<title>Node9</title>
<g id="a_node9"><a xlink:href="x86_8h.html#a4657e97b270d7af5a23da2c4d642ada2" target="_top" xlink:title=" ">
<polygon fill="none" stroke="black" points="420,-76.5 420,-95.5 449,-95.5 449,-76.5 420,-76.5"/>
<text text-anchor="middle" x="434.5" y="-83.5" font-family="Helvetica,sans-Serif" font-size="10.00">sti</text>
</a>
</g>
</g>
<!-- Node7&#45;&gt;Node9 -->
<g id="edge10" class="edge">
<title>Node7&#45;&gt;Node9</title>
<path fill="none" stroke="midnightblue" d="M358.35,-54.45C372.63,-60.44 394.11,-69.46 410.45,-76.32"/>
<polygon fill="midnightblue" stroke="midnightblue" points="409.28,-79.62 419.85,-80.27 411.99,-73.17 409.28,-79.62"/>
</g>
<!-- Node10&#45;&gt;Node4 -->
<g id="edge12" class="edge">
<title>Node10&#45;&gt;Node4</title>
<path fill="none" stroke="midnightblue" d="M257.5,-19.65C262.43,-22.39 267.56,-25.57 272,-29 290.41,-43.23 289.73,-52.6 308,-67 309.77,-68.4 311.66,-69.76 313.6,-71.07"/>
<polygon fill="midnightblue" stroke="midnightblue" points="311.9,-74.13 322.23,-76.45 315.6,-68.19 311.9,-74.13"/>
</g>
<!-- Node10&#45;&gt;Node7 -->
<g id="edge15" class="edge">
<title>Node10&#45;&gt;Node7</title>
<path fill="none" stroke="midnightblue" d="M263.62,-19.59C279.73,-25.5 300.28,-33.05 316.15,-38.88"/>
<polygon fill="midnightblue" stroke="midnightblue" points="315.22,-42.26 325.81,-42.42 317.63,-35.69 315.22,-42.26"/>
</g>
<!-- Node11 -->
<g id="node11" class="node">
<title>Node11</title>
<g id="a_node11"><a xlink:href="cte_8c.html#a79659a2b801c42951e38f3a8821acbae" target="_top" xlink:title=" ">
<polygon fill="none" stroke="black" points="315.5,-0.5 315.5,-19.5 368.5,-19.5 368.5,-0.5 315.5,-0.5"/>
<text text-anchor="middle" x="342" y="-7.5" font-family="Helvetica,sans-Serif" font-size="10.00">ienabled</text>
</a>
</g>
</g>
<!-- Node10&#45;&gt;Node11 -->
<g id="edge13" class="edge">
<title>Node10&#45;&gt;Node11</title>
<path fill="none" stroke="midnightblue" d="M272.25,-10C282.82,-10 294.46,-10 305.1,-10"/>
<polygon fill="midnightblue" stroke="midnightblue" points="305.34,-13.5 315.34,-10 305.34,-6.5 305.34,-13.5"/>
</g>
<!-- Node12 -->
<g id="node12" class="node">
<title>Node12</title>
<g id="a_node12"><a xlink:href="x86_8h.html#a73d094f09c6a7dd3fc703aa8229933ee" target="_top" xlink:title=" ">
<polygon fill="none" stroke="black" points="412,-0.5 412,-19.5 457,-19.5 457,-0.5 412,-0.5"/>
<text text-anchor="middle" x="434.5" y="-7.5" font-family="Helvetica,sans-Serif" font-size="10.00">get_efl</text>
</a>
</g>
</g>
<!-- Node11&#45;&gt;Node12 -->
<g id="edge14" class="edge">
<title>Node11&#45;&gt;Node12</title>
<path fill="none" stroke="midnightblue" d="M368.69,-10C378.88,-10 390.71,-10 401.45,-10"/>
<polygon fill="midnightblue" stroke="midnightblue" points="401.73,-13.5 411.73,-10 401.73,-6.5 401.73,-13.5"/>
</g>
</g>
</svg>
