<?xml version="1.0" encoding="UTF-8" standalone="no"?>
<!DOCTYPE svg PUBLIC "-//W3C//DTD SVG 1.1//EN"
 "http://www.w3.org/Graphics/SVG/1.1/DTD/svg11.dtd">
<!-- Generated by graphviz version 3.0.0 (20220413.0106)
 -->
<!-- Title: spin_pushcli Pages: 1 -->
<svg width="758pt" height="573pt"
 viewBox="0.00 0.00 758.00 573.29" xmlns="http://www.w3.org/2000/svg" xmlns:xlink="http://www.w3.org/1999/xlink">
<g id="graph0" class="graph" transform="scale(1 1) rotate(0) translate(4 569.29)">
<title>spin_pushcli</title>
<!-- Node1 -->
<g id="node1" class="node">
<title>Node1</title>
<g id="a_node1"><a xlink:title="interrupt disable">
<polygon fill="#bfbfbf" stroke="black" points="679,-323.5 679,-342.5 750,-342.5 750,-323.5 679,-323.5"/>
<text text-anchor="middle" x="714.5" y="-330.5" font-family="Helvetica,sans-Serif" font-size="10.00">spin_pushcli</text>
</a>
</g>
</g>
<!-- Node2 -->
<g id="node2" class="node">
<title>Node2</title>
<g id="a_node2"><a xlink:href="spinlock_8c.html#ad4be0d674a7ca4dc90c2dbf8b34562cc" target="_top" xlink:title="check current cpu has the lock">
<polygon fill="none" stroke="black" points="572,-304.5 572,-323.5 643,-323.5 643,-304.5 572,-304.5"/>
<text text-anchor="middle" x="607.5" y="-311.5" font-family="Helvetica,sans-Serif" font-size="10.00">spin_holding</text>
</a>
</g>
</g>
<!-- Node1&#45;&gt;Node2 -->
<g id="edge1" class="edge">
<title>Node1&#45;&gt;Node2</title>
<path fill="none" stroke="midnightblue" d="M668.9,-324.93C660.29,-323.37 651.38,-321.76 643.14,-320.27"/>
<polygon fill="midnightblue" stroke="midnightblue" points="668.36,-328.39 678.83,-326.73 669.61,-321.5 668.36,-328.39"/>
</g>
<!-- Node18 -->
<g id="node18" class="node">
<title>Node18</title>
<g id="a_node18"><a xlink:href="spinlock_8c.html#ab6f3c37ec37006951feccc3c05387cce" target="_top" xlink:title="acquire spinlock to current cpu">
<polygon fill="none" stroke="black" points="473,-342.5 473,-361.5 531,-361.5 531,-342.5 473,-342.5"/>
<text text-anchor="middle" x="502" y="-349.5" font-family="Helvetica,sans-Serif" font-size="10.00">spin_lock</text>
</a>
</g>
</g>
<!-- Node1&#45;&gt;Node18 -->
<g id="edge55" class="edge">
<title>Node1&#45;&gt;Node18</title>
<path fill="none" stroke="midnightblue" d="M668.59,-337.05C626.93,-340.81 566.24,-346.29 531.07,-349.47"/>
<polygon fill="midnightblue" stroke="midnightblue" points="669.1,-340.52 678.74,-336.14 668.47,-333.55 669.1,-340.52"/>
</g>
<!-- Node3 -->
<g id="node3" class="node">
<title>Node3</title>
<g id="a_node3"><a xlink:href="kmt_8c.html#af9c485ce0d89d6624e6e80e31d8ed207" target="_top" xlink:title="handler: save context to current task">
<polygon fill="none" stroke="black" points="330.5,-494.5 330.5,-513.5 426.5,-513.5 426.5,-494.5 330.5,-494.5"/>
<text text-anchor="middle" x="378.5" y="-501.5" font-family="Helvetica,sans-Serif" font-size="10.00">kmt_context_save</text>
</a>
</g>
</g>
<!-- Node2&#45;&gt;Node3 -->
<g id="edge2" class="edge">
<title>Node2&#45;&gt;Node3</title>
<path fill="none" stroke="midnightblue" d="M598.88,-333.2C588.09,-358.35 566.26,-402.6 536,-431 501.35,-463.52 449.62,-483.75 415.23,-494.45"/>
<polygon fill="midnightblue" stroke="midnightblue" points="602.23,-334.27 602.82,-323.69 595.76,-331.59 602.23,-334.27"/>
</g>
<!-- Node6 -->
<g id="node6" class="node">
<title>Node6</title>
<g id="a_node6"><a xlink:href="kmt_8c.html#a5ddb8743298012e84cf9cb5faf22212b" target="_top" xlink:title="create thread">
<polygon fill="none" stroke="black" points="346,-266.5 346,-285.5 411,-285.5 411,-266.5 346,-266.5"/>
<text text-anchor="middle" x="378.5" y="-273.5" font-family="Helvetica,sans-Serif" font-size="10.00">kmt_create</text>
</a>
</g>
</g>
<!-- Node2&#45;&gt;Node6 -->
<g id="edge5" class="edge">
<title>Node2&#45;&gt;Node6</title>
<path fill="none" stroke="midnightblue" d="M561.58,-306.48C517.17,-299.05 450.36,-287.86 411.21,-281.31"/>
<polygon fill="midnightblue" stroke="midnightblue" points="561.09,-309.95 571.53,-308.15 562.24,-303.04 561.09,-309.95"/>
</g>
<!-- Node7 -->
<g id="node7" class="node">
<title>Node7</title>
<g id="a_node7"><a xlink:href="kmt_8c.html#ad3fbc643b7b6092120c5152b4c890354" target="_top" xlink:title="handler: handle program errors">
<polygon fill="none" stroke="black" points="218.5,-456.5 218.5,-475.5 276.5,-475.5 276.5,-456.5 218.5,-456.5"/>
<text text-anchor="middle" x="247.5" y="-463.5" font-family="Helvetica,sans-Serif" font-size="10.00">kmt_error</text>
</a>
</g>
</g>
<!-- Node2&#45;&gt;Node7 -->
<g id="edge7" class="edge">
<title>Node2&#45;&gt;Node7</title>
<path fill="none" stroke="midnightblue" d="M604.4,-333.92C599.38,-371.81 583.36,-454.76 536,-503 469.08,-571.17 413.08,-580.99 325,-544 291.42,-529.9 265.18,-493.08 254.16,-475.54"/>
<polygon fill="midnightblue" stroke="midnightblue" points="607.91,-334.05 605.62,-323.7 600.96,-333.21 607.91,-334.05"/>
</g>
<!-- Node8 -->
<g id="node8" class="node">
<title>Node8</title>
<g id="a_node8"><a xlink:href="kmt_8c.html#a13cbe2d83bf10c3302124613fa18f8a4" target="_top" xlink:title="print all tasks notice: do not garantee concurrency safety">
<polygon fill="none" stroke="black" points="328,-418.5 328,-437.5 429,-437.5 429,-418.5 328,-418.5"/>
<text text-anchor="middle" x="378.5" y="-425.5" font-family="Helvetica,sans-Serif" font-size="10.00">kmt_print_all_tasks</text>
</a>
</g>
</g>
<!-- Node2&#45;&gt;Node8 -->
<g id="edge9" class="edge">
<title>Node2&#45;&gt;Node8</title>
<path fill="none" stroke="midnightblue" d="M589.18,-330.75C575.6,-343.18 555.74,-359.84 536,-371 497.36,-392.85 448.79,-408.99 416.09,-418.41"/>
<polygon fill="midnightblue" stroke="midnightblue" points="591.86,-333.04 596.77,-323.65 587.08,-327.93 591.86,-333.04"/>
</g>
<!-- Node9 -->
<g id="node9" class="node">
<title>Node9</title>
<g id="a_node9"><a xlink:href="kmt_8c.html#ad4d70b4093829da1c0b0631abdff7747" target="_top" xlink:title="handler: schedule next task to run Notice: this should be the only handler which returns real Context">
<polygon fill="none" stroke="black" points="209,-418.5 209,-437.5 286,-437.5 286,-418.5 209,-418.5"/>
<text text-anchor="middle" x="247.5" y="-425.5" font-family="Helvetica,sans-Serif" font-size="10.00">kmt_schedule</text>
</a>
</g>
</g>
<!-- Node2&#45;&gt;Node9 -->
<g id="edge16" class="edge">
<title>Node2&#45;&gt;Node9</title>
<path fill="none" stroke="midnightblue" d="M601.74,-333.43C593.24,-364.7 572.79,-426.66 536,-466 500,-504.5 483.06,-509.92 432,-523 385.93,-534.8 365.18,-548.43 325,-523 293.42,-503.01 315.48,-473.38 289,-447 285.26,-443.27 280.65,-440.18 275.89,-437.66"/>
<polygon fill="midnightblue" stroke="midnightblue" points="605.14,-334.3 604.26,-323.74 598.36,-332.54 605.14,-334.3"/>
</g>
<!-- Node10 -->
<g id="node10" class="node">
<title>Node10</title>
<g id="a_node10"><a xlink:href="kmt_8c.html#ab4e9dee1880e455874374b44b5785bc3" target="_top" xlink:title="print all current_tasks notice: do not garantee concurrency safety">
<polygon fill="none" stroke="black" points="325,-456.5 325,-475.5 432,-475.5 432,-456.5 325,-456.5"/>
<text text-anchor="middle" x="378.5" y="-463.5" font-family="Helvetica,sans-Serif" font-size="10.00">kmt_print_cpu_tasks</text>
</a>
</g>
</g>
<!-- Node2&#45;&gt;Node10 -->
<g id="edge13" class="edge">
<title>Node2&#45;&gt;Node10</title>
<path fill="none" stroke="midnightblue" d="M595.05,-332.12C582.46,-350.87 560.71,-380.01 536,-399 499.1,-427.37 448.36,-446.19 414.79,-456.48"/>
<polygon fill="midnightblue" stroke="midnightblue" points="598.07,-333.89 600.62,-323.61 592.21,-330.06 598.07,-333.89"/>
</g>
<!-- Node11 -->
<g id="node11" class="node">
<title>Node11</title>
<g id="a_node11"><a xlink:href="kmt_8c.html#a47d8887c87041abd5ea3148232b65c93" target="_top" xlink:title="tear down a thread">
<polygon fill="none" stroke="black" points="339.5,-0.5 339.5,-19.5 417.5,-19.5 417.5,-0.5 339.5,-0.5"/>
<text text-anchor="middle" x="378.5" y="-7.5" font-family="Helvetica,sans-Serif" font-size="10.00">kmt_teardown</text>
</a>
</g>
</g>
<!-- Node2&#45;&gt;Node11 -->
<g id="edge17" class="edge">
<title>Node2&#45;&gt;Node11</title>
<path fill="none" stroke="midnightblue" d="M605.02,-294.35C600.94,-252.47 586.26,-153.1 536,-90 505.87,-52.17 453.05,-30.52 417.2,-19.51"/>
<polygon fill="midnightblue" stroke="midnightblue" points="601.54,-294.69 605.89,-304.35 608.51,-294.08 601.54,-294.69"/>
</g>
<!-- Node12 -->
<g id="node12" class="node">
<title>Node12</title>
<g id="a_node12"><a xlink:href="kmt_8c.html#a75ea8dbba16d64a343a45962bd593930" target="_top" xlink:title="handler: handle yield interrupt (0x81)">
<polygon fill="none" stroke="black" points="349.5,-304.5 349.5,-323.5 407.5,-323.5 407.5,-304.5 349.5,-304.5"/>
<text text-anchor="middle" x="378.5" y="-311.5" font-family="Helvetica,sans-Serif" font-size="10.00">kmt_yield</text>
</a>
</g>
</g>
<!-- Node2&#45;&gt;Node12 -->
<g id="edge19" class="edge">
<title>Node2&#45;&gt;Node12</title>
<path fill="none" stroke="midnightblue" d="M561.29,-314C515.52,-314 446.16,-314 407.7,-314"/>
<polygon fill="midnightblue" stroke="midnightblue" points="561.53,-317.5 571.53,-314 561.53,-310.5 561.53,-317.5"/>
</g>
<!-- Node13 -->
<g id="node13" class="node">
<title>Node13</title>
<g id="a_node13"><a xlink:href="os_8c.html#a2be1c9facb49d4439f41b1537d0f3ef8" target="_top" xlink:title="System trap entry.">
<polygon fill="none" stroke="black" points="354,-190.5 354,-209.5 403,-209.5 403,-190.5 354,-190.5"/>
<text text-anchor="middle" x="378.5" y="-197.5" font-family="Helvetica,sans-Serif" font-size="10.00">os_trap</text>
</a>
</g>
</g>
<!-- Node2&#45;&gt;Node13 -->
<g id="edge21" class="edge">
<title>Node2&#45;&gt;Node13</title>
<path fill="none" stroke="midnightblue" d="M598.36,-295.31C587.58,-273.04 566.33,-236.63 536,-219 494.12,-194.65 435.34,-194.89 403.05,-197.36"/>
<polygon fill="midnightblue" stroke="midnightblue" points="595.2,-296.82 602.57,-304.43 601.55,-293.88 595.2,-296.82"/>
</g>
<!-- Node15 -->
<g id="node15" class="node">
<title>Node15</title>
<g id="a_node15"><a xlink:href="sem_8c.html#ad994e433f3a6bf8626272437cb54c114" target="_top" xlink:title="wake up a task form tasks waiting for the semaphore instance">
<polygon fill="none" stroke="black" points="345.5,-38.5 345.5,-57.5 411.5,-57.5 411.5,-38.5 345.5,-38.5"/>
<text text-anchor="middle" x="378.5" y="-45.5" font-family="Helvetica,sans-Serif" font-size="10.00">sem_signal</text>
</a>
</g>
</g>
<!-- Node2&#45;&gt;Node15 -->
<g id="edge23" class="edge">
<title>Node2&#45;&gt;Node15</title>
<path fill="none" stroke="midnightblue" d="M601.78,-294.47C593.14,-261.79 572.24,-195.18 536,-150 499.47,-104.46 436.94,-72.53 403.03,-57.59"/>
<polygon fill="midnightblue" stroke="midnightblue" points="598.39,-295.34 604.25,-304.17 605.18,-293.61 598.39,-295.34"/>
</g>
<!-- Node17 -->
<g id="node17" class="node">
<title>Node17</title>
<g id="a_node17"><a xlink:href="sem_8c.html#a85ca67864bb0af1966a5c2463bd16fe8" target="_top" xlink:title="release semaphore(Mutex) and sleep task holding the sem">
<polygon fill="none" stroke="black" points="349,-114.5 349,-133.5 408,-133.5 408,-114.5 349,-114.5"/>
<text text-anchor="middle" x="378.5" y="-121.5" font-family="Helvetica,sans-Serif" font-size="10.00">sem_wait</text>
</a>
</g>
</g>
<!-- Node2&#45;&gt;Node17 -->
<g id="edge26" class="edge">
<title>Node2&#45;&gt;Node17</title>
<path fill="none" stroke="midnightblue" d="M599.48,-294.95C589.15,-269.22 567.59,-223.32 536,-195 498.35,-161.24 441.95,-141.06 408.13,-131.28"/>
<polygon fill="midnightblue" stroke="midnightblue" points="596.24,-296.28 603.11,-304.34 602.77,-293.75 596.24,-296.28"/>
</g>
<!-- Node2&#45;&gt;Node18 -->
<g id="edge29" class="edge">
<title>Node2&#45;&gt;Node18</title>
<path fill="none" stroke="midnightblue" d="M570.77,-327.12C557.08,-332.14 541.73,-337.78 529.11,-342.41"/>
<polygon fill="midnightblue" stroke="midnightblue" points="572.2,-330.32 580.38,-323.59 569.79,-323.75 572.2,-330.32"/>
</g>
<!-- Node19 -->
<g id="node19" class="node">
<title>Node19</title>
<g id="a_node19"><a xlink:href="spinlock_8c.html#acdf118d615a4bc4064e991add9a80995" target="_top" xlink:title="release spinlock from current cpu">
<polygon fill="none" stroke="black" points="468,-228.5 468,-247.5 536,-247.5 536,-228.5 468,-228.5"/>
<text text-anchor="middle" x="502" y="-235.5" font-family="Helvetica,sans-Serif" font-size="10.00">spin_unlock</text>
</a>
</g>
</g>
<!-- Node2&#45;&gt;Node19 -->
<g id="edge42" class="edge">
<title>Node2&#45;&gt;Node19</title>
<path fill="none" stroke="midnightblue" d="M585.09,-298.15C571.13,-287.83 552.51,-274.09 536,-262 529.48,-257.23 522.23,-251.95 516.18,-247.56"/>
<polygon fill="midnightblue" stroke="midnightblue" points="583.4,-301.26 593.53,-304.39 587.57,-295.63 583.4,-301.26"/>
</g>
<!-- Node4 -->
<g id="node4" class="node">
<title>Node4</title>
<g id="a_node4"><a xlink:href="kmt_8c.html#a0c68a294cecc4be7cb4b495f15b883a0" target="_top" xlink:title="initialize kmt module">
<polygon fill="none" stroke="black" points="119,-418.5 119,-437.5 170,-437.5 170,-418.5 119,-418.5"/>
<text text-anchor="middle" x="144.5" y="-425.5" font-family="Helvetica,sans-Serif" font-size="10.00">kmt_init</text>
</a>
</g>
</g>
<!-- Node3&#45;&gt;Node4 -->
<g id="edge3" class="edge">
<title>Node3&#45;&gt;Node4</title>
<path fill="none" stroke="midnightblue" d="M319.85,-506.6C285.36,-506.02 241.49,-501.4 206,-485 182.68,-474.22 162.54,-450.88 152.43,-437.65"/>
<polygon fill="midnightblue" stroke="midnightblue" points="320.21,-510.11 330.23,-506.66 320.25,-503.11 320.21,-510.11"/>
</g>
<!-- Node5 -->
<g id="node5" class="node">
<title>Node5</title>
<g id="a_node5"><a xlink:href="kmt_8c.html#af360ef0d98ca30e481cc58ea3695fd58" target="_top" xlink:title=" ">
<polygon fill="none" stroke="black" points="0,-152.5 0,-171.5 83,-171.5 83,-152.5 0,-152.5"/>
<text text-anchor="middle" x="41.5" y="-159.5" font-family="Helvetica,sans-Serif" font-size="10.00">MODULE_DEF</text>
</a>
</g>
</g>
<!-- Node4&#45;&gt;Node5 -->
<g id="edge4" class="edge">
<title>Node4&#45;&gt;Node5</title>
<path fill="none" stroke="midnightblue" d="M136.17,-408.68C116.11,-355.86 60.86,-210.35 46.14,-171.59"/>
<polygon fill="midnightblue" stroke="midnightblue" points="132.96,-410.11 139.79,-418.22 139.51,-407.63 132.96,-410.11"/>
</g>
<!-- Node6&#45;&gt;Node5 -->
<g id="edge6" class="edge">
<title>Node6&#45;&gt;Node5</title>
<path fill="none" stroke="midnightblue" d="M338.56,-263.24C303.76,-251.79 251.42,-234.46 206,-219 157.77,-202.58 101.73,-182.91 69.37,-171.5"/>
<polygon fill="midnightblue" stroke="midnightblue" points="337.73,-266.65 348.33,-266.45 339.92,-260 337.73,-266.65"/>
</g>
<!-- Node7&#45;&gt;Node4 -->
<g id="edge8" class="edge">
<title>Node7&#45;&gt;Node4</title>
<path fill="none" stroke="midnightblue" d="M211.49,-452.83C197.91,-447.72 182.68,-441.99 170.28,-437.32"/>
<polygon fill="midnightblue" stroke="midnightblue" points="210.42,-456.17 221.01,-456.41 212.89,-449.61 210.42,-456.17"/>
</g>
<!-- Node8&#45;&gt;Node7 -->
<g id="edge10" class="edge">
<title>Node8&#45;&gt;Node7</title>
<path fill="none" stroke="midnightblue" d="M335.22,-440.46C316,-446.12 293.79,-452.66 276.66,-457.7"/>
<polygon fill="midnightblue" stroke="midnightblue" points="336.34,-443.77 344.95,-437.59 334.37,-437.06 336.34,-443.77"/>
</g>
<!-- Node8&#45;&gt;Node9 -->
<g id="edge11" class="edge">
<title>Node8&#45;&gt;Node9</title>
<path fill="none" stroke="midnightblue" d="M317.74,-428C306.95,-428 295.98,-428 286.05,-428"/>
<polygon fill="midnightblue" stroke="midnightblue" points="317.99,-431.5 327.99,-428 317.99,-424.5 317.99,-431.5"/>
</g>
<!-- Node9&#45;&gt;Node4 -->
<g id="edge12" class="edge">
<title>Node9&#45;&gt;Node4</title>
<path fill="none" stroke="midnightblue" d="M198.74,-428C188.89,-428 178.89,-428 170.27,-428"/>
<polygon fill="midnightblue" stroke="midnightblue" points="198.89,-431.5 208.89,-428 198.89,-424.5 198.89,-431.5"/>
</g>
<!-- Node10&#45;&gt;Node7 -->
<g id="edge14" class="edge">
<title>Node10&#45;&gt;Node7</title>
<path fill="none" stroke="midnightblue" d="M314.56,-466C301.28,-466 287.92,-466 276.72,-466"/>
<polygon fill="midnightblue" stroke="midnightblue" points="314.66,-469.5 324.66,-466 314.66,-462.5 314.66,-469.5"/>
</g>
<!-- Node10&#45;&gt;Node9 -->
<g id="edge15" class="edge">
<title>Node10&#45;&gt;Node9</title>
<path fill="none" stroke="midnightblue" d="M334.95,-453.46C317.4,-448.3 297.39,-442.4 281.04,-437.59"/>
<polygon fill="midnightblue" stroke="midnightblue" points="334.37,-456.94 344.95,-456.41 336.34,-450.23 334.37,-456.94"/>
</g>
<!-- Node11&#45;&gt;Node5 -->
<g id="edge18" class="edge">
<title>Node11&#45;&gt;Node5</title>
<path fill="none" stroke="midnightblue" d="M329.1,-13.56C274.09,-19.62 183.57,-35.83 119,-79 88.05,-99.69 60.9,-135.39 48.96,-152.42"/>
<polygon fill="midnightblue" stroke="midnightblue" points="329.68,-17.02 339.27,-12.52 328.97,-10.06 329.68,-17.02"/>
</g>
<!-- Node12&#45;&gt;Node4 -->
<g id="edge20" class="edge">
<title>Node12&#45;&gt;Node4</title>
<path fill="none" stroke="midnightblue" d="M348.94,-328.04C301.08,-351.55 205.94,-398.3 164.99,-418.42"/>
<polygon fill="midnightblue" stroke="midnightblue" points="350.69,-331.07 358.12,-323.52 347.6,-324.79 350.69,-331.07"/>
</g>
<!-- Node14 -->
<g id="node14" class="node">
<title>Node14</title>
<g id="a_node14"><a xlink:href="os_8c.html#aafec7046aa50c914df86d0d22d4fc1d1" target="_top" xlink:title=" ">
<polygon fill="none" stroke="black" points="206,-190.5 206,-209.5 289,-209.5 289,-190.5 206,-190.5"/>
<text text-anchor="middle" x="247.5" y="-197.5" font-family="Helvetica,sans-Serif" font-size="10.00">MODULE_DEF</text>
</a>
</g>
</g>
<!-- Node13&#45;&gt;Node14 -->
<g id="edge22" class="edge">
<title>Node13&#45;&gt;Node14</title>
<path fill="none" stroke="midnightblue" d="M343.48,-200C326.85,-200 306.7,-200 289.25,-200"/>
<polygon fill="midnightblue" stroke="midnightblue" points="343.84,-203.5 353.84,-200 343.84,-196.5 343.84,-203.5"/>
</g>
<!-- Node15&#45;&gt;Node5 -->
<g id="edge25" class="edge">
<title>Node15&#45;&gt;Node5</title>
<path fill="none" stroke="midnightblue" d="M334.94,-47.86C299.59,-48.88 248.41,-53.02 206,-67 144.58,-87.24 80.87,-132.59 54.76,-152.41"/>
<polygon fill="midnightblue" stroke="midnightblue" points="335.45,-51.35 345.37,-47.64 335.3,-44.35 335.45,-51.35"/>
</g>
<!-- Node16 -->
<g id="node16" class="node">
<title>Node16</title>
<g id="a_node16"><a xlink:href="kernel_8h.html#a7ef2d722f9c7f8acc1801144a5188825" target="_top" xlink:title=" ">
<polygon fill="none" stroke="black" points="218,-76.5 218,-95.5 277,-95.5 277,-76.5 218,-76.5"/>
<text text-anchor="middle" x="247.5" y="-83.5" font-family="Helvetica,sans-Serif" font-size="10.00">MODULE</text>
</a>
</g>
</g>
<!-- Node15&#45;&gt;Node16 -->
<g id="edge24" class="edge">
<title>Node15&#45;&gt;Node16</title>
<path fill="none" stroke="midnightblue" d="M335.62,-60.34C316.52,-65.96 294.41,-72.48 277.23,-77.54"/>
<polygon fill="midnightblue" stroke="midnightblue" points="336.68,-63.67 345.28,-57.49 334.7,-56.96 336.68,-63.67"/>
</g>
<!-- Node17&#45;&gt;Node5 -->
<g id="edge28" class="edge">
<title>Node17&#45;&gt;Node5</title>
<path fill="none" stroke="midnightblue" d="M338.53,-126.54C287.82,-130.09 196.53,-137.33 119,-148 107.36,-149.6 94.8,-151.73 83.29,-153.85"/>
<polygon fill="midnightblue" stroke="midnightblue" points="338.98,-130.02 348.72,-125.84 338.5,-123.03 338.98,-130.02"/>
</g>
<!-- Node17&#45;&gt;Node16 -->
<g id="edge27" class="edge">
<title>Node17&#45;&gt;Node16</title>
<path fill="none" stroke="midnightblue" d="M339.17,-112.71C319.25,-106.84 295.32,-99.79 277.05,-94.41"/>
<polygon fill="midnightblue" stroke="midnightblue" points="338.29,-116.1 348.87,-115.57 340.27,-109.38 338.29,-116.1"/>
</g>
<!-- Node18&#45;&gt;Node3 -->
<g id="edge30" class="edge">
<title>Node18&#45;&gt;Node3</title>
<path fill="none" stroke="midnightblue" d="M495.93,-371.2C487.41,-399.87 467.56,-453.83 432,-485 427.63,-488.83 422.42,-491.91 417.01,-494.38"/>
<polygon fill="midnightblue" stroke="midnightblue" points="499.31,-372.12 498.65,-361.55 492.57,-370.22 499.31,-372.12"/>
</g>
<!-- Node18&#45;&gt;Node5 -->
<g id="edge38" class="edge">
<title>Node18&#45;&gt;Node5</title>
<path fill="none" stroke="midnightblue" d="M499.83,-371.67C496.43,-408.77 483.22,-488.43 432,-523 348.56,-579.31 299.91,-544.26 206,-508 161.95,-490.99 146.08,-485.69 119,-447 54.22,-354.46 44.28,-209.9 42.77,-171.58"/>
<polygon fill="midnightblue" stroke="midnightblue" points="503.32,-371.86 500.6,-361.62 496.34,-371.33 503.32,-371.86"/>
</g>
<!-- Node18&#45;&gt;Node6 -->
<g id="edge31" class="edge">
<title>Node18&#45;&gt;Node6</title>
<path fill="none" stroke="midnightblue" d="M484.12,-335.21C470.86,-322.77 451.44,-306.1 432,-295 425.52,-291.3 418.19,-288.11 411.1,-285.45"/>
<polygon fill="midnightblue" stroke="midnightblue" points="481.89,-337.92 491.52,-342.33 486.74,-332.88 481.89,-337.92"/>
</g>
<!-- Node18&#45;&gt;Node8 -->
<g id="edge32" class="edge">
<title>Node18&#45;&gt;Node8</title>
<path fill="none" stroke="midnightblue" d="M481.81,-368.25C468.39,-379.16 449.76,-393.42 432,-404 422.96,-409.39 412.5,-414.39 403.31,-418.42"/>
<polygon fill="midnightblue" stroke="midnightblue" points="484.34,-370.7 489.82,-361.64 479.88,-365.31 484.34,-370.7"/>
</g>
<!-- Node18&#45;&gt;Node9 -->
<g id="edge34" class="edge">
<title>Node18&#45;&gt;Node9</title>
<path fill="none" stroke="midnightblue" d="M462.78,-363.5C413.01,-378.48 326.89,-404.4 280.43,-418.39"/>
<polygon fill="midnightblue" stroke="midnightblue" points="463.96,-366.8 472.53,-360.57 461.94,-360.1 463.96,-366.8"/>
</g>
<!-- Node18&#45;&gt;Node10 -->
<g id="edge33" class="edge">
<title>Node18&#45;&gt;Node10</title>
<path fill="none" stroke="midnightblue" d="M491.92,-370.53C480.62,-391.79 459.42,-426.37 432,-447 426.89,-450.85 420.92,-453.97 414.88,-456.49"/>
<polygon fill="midnightblue" stroke="midnightblue" points="495.08,-372.04 496.52,-361.54 488.85,-368.84 495.08,-372.04"/>
</g>
<!-- Node18&#45;&gt;Node11 -->
<g id="edge35" class="edge">
<title>Node18&#45;&gt;Node11</title>
<path fill="none" stroke="midnightblue" d="M493.24,-332.92C485.8,-313.95 474.73,-283.88 468,-257 443.07,-157.49 497.31,-108.12 432,-29 428.17,-24.37 423.12,-20.86 417.66,-18.21"/>
<polygon fill="midnightblue" stroke="midnightblue" points="490.09,-334.47 497.05,-342.46 496.6,-331.88 490.09,-334.47"/>
</g>
<!-- Node18&#45;&gt;Node12 -->
<g id="edge36" class="edge">
<title>Node18&#45;&gt;Node12</title>
<path fill="none" stroke="midnightblue" d="M463.2,-340.18C445.2,-334.55 424.06,-327.94 407.53,-322.77"/>
<polygon fill="midnightblue" stroke="midnightblue" points="462.23,-343.54 472.82,-343.19 464.32,-336.86 462.23,-343.54"/>
</g>
<!-- Node18&#45;&gt;Node13 -->
<g id="edge39" class="edge">
<title>Node18&#45;&gt;Node13</title>
<path fill="none" stroke="midnightblue" d="M488.7,-333.77C475.35,-314.3 453.09,-282.75 432,-257 417.85,-239.72 399.98,-220.88 389.16,-209.78"/>
<polygon fill="midnightblue" stroke="midnightblue" points="485.98,-335.99 494.5,-342.29 491.76,-332.05 485.98,-335.99"/>
</g>
<!-- Node18&#45;&gt;Node15 -->
<g id="edge40" class="edge">
<title>Node18&#45;&gt;Node15</title>
<path fill="none" stroke="midnightblue" d="M493.68,-332.8C486.58,-313.74 475.75,-283.61 468,-257 448.58,-190.35 464.58,-166.31 432,-105 421.77,-85.75 403.47,-68.04 391.4,-57.63"/>
<polygon fill="midnightblue" stroke="midnightblue" points="490.5,-334.27 497.3,-342.39 497.05,-331.8 490.5,-334.27"/>
</g>
<!-- Node18&#45;&gt;Node16 -->
<g id="edge37" class="edge">
<title>Node18&#45;&gt;Node16</title>
<path fill="none" stroke="midnightblue" d="M462.69,-359.47C423.26,-364.79 362.45,-366.03 325,-333 272.94,-287.07 310.69,-246.95 289,-181 278.41,-148.81 261.38,-112.37 253.19,-95.5"/>
<polygon fill="midnightblue" stroke="midnightblue" points="463.35,-362.91 472.72,-357.97 462.31,-355.99 463.35,-362.91"/>
</g>
<!-- Node18&#45;&gt;Node17 -->
<g id="edge41" class="edge">
<title>Node18&#45;&gt;Node17</title>
<path fill="none" stroke="midnightblue" d="M494.28,-332.9C480.48,-294.13 448.81,-207.59 432,-181 420.21,-162.35 401.98,-144.2 390.4,-133.57"/>
<polygon fill="midnightblue" stroke="midnightblue" points="491.04,-334.23 497.67,-342.48 497.63,-331.89 491.04,-334.23"/>
</g>
<!-- Node19&#45;&gt;Node3 -->
<g id="edge43" class="edge">
<title>Node19&#45;&gt;Node3</title>
<path fill="none" stroke="midnightblue" d="M493.68,-257.2C486.58,-276.26 475.75,-306.39 468,-333 448.58,-399.65 478.2,-433.18 432,-485 428.52,-488.91 424.17,-492.01 419.47,-494.48"/>
<polygon fill="midnightblue" stroke="midnightblue" points="497.05,-258.2 497.3,-247.61 490.5,-255.73 497.05,-258.2"/>
</g>
<!-- Node19&#45;&gt;Node5 -->
<g id="edge51" class="edge">
<title>Node19&#45;&gt;Node5</title>
<path fill="none" stroke="midnightblue" d="M485.81,-220.4C473,-206.92 453.36,-189.27 432,-181 369.34,-156.73 169.67,-158.67 83.14,-160.77"/>
<polygon fill="midnightblue" stroke="midnightblue" points="483.54,-223.1 492.87,-228.13 488.72,-218.39 483.54,-223.1"/>
</g>
<!-- Node19&#45;&gt;Node6 -->
<g id="edge44" class="edge">
<title>Node19&#45;&gt;Node6</title>
<path fill="none" stroke="midnightblue" d="M460.46,-250.68C444.04,-255.81 425.4,-261.64 410.15,-266.41"/>
<polygon fill="midnightblue" stroke="midnightblue" points="461.84,-253.91 470.34,-247.59 459.75,-247.23 461.84,-253.91"/>
</g>
<!-- Node19&#45;&gt;Node8 -->
<g id="edge45" class="edge">
<title>Node19&#45;&gt;Node8</title>
<path fill="none" stroke="midnightblue" d="M489.13,-256.56C463.8,-296.18 405.18,-387.85 385.83,-418.11"/>
<polygon fill="midnightblue" stroke="midnightblue" points="492.37,-257.99 494.81,-247.68 486.47,-254.22 492.37,-257.99"/>
</g>
<!-- Node19&#45;&gt;Node9 -->
<g id="edge47" class="edge">
<title>Node19&#45;&gt;Node9</title>
<path fill="none" stroke="midnightblue" d="M457.34,-231.36C418.87,-227.95 363.17,-229.24 325,-257 269.24,-297.56 253.37,-388.21 249.56,-418.18"/>
<polygon fill="midnightblue" stroke="midnightblue" points="457.4,-234.88 467.71,-232.43 458.12,-227.92 457.4,-234.88"/>
</g>
<!-- Node19&#45;&gt;Node10 -->
<g id="edge46" class="edge">
<title>Node19&#45;&gt;Node10</title>
<path fill="none" stroke="midnightblue" d="M494.1,-257.33C487.31,-276.49 476.72,-306.69 468,-333 451.28,-383.43 468.79,-408.66 432,-447 428.31,-450.85 423.78,-453.92 418.95,-456.37"/>
<polygon fill="midnightblue" stroke="midnightblue" points="497.48,-258.27 497.54,-247.68 490.89,-255.93 497.48,-258.27"/>
</g>
<!-- Node19&#45;&gt;Node11 -->
<g id="edge48" class="edge">
<title>Node19&#45;&gt;Node11</title>
<path fill="none" stroke="midnightblue" d="M500.03,-218.12C496.98,-177.19 484.34,-82.85 432,-29 427.95,-24.83 422.91,-21.57 417.57,-19.02"/>
<polygon fill="midnightblue" stroke="midnightblue" points="496.54,-218.41 500.66,-228.17 503.53,-217.97 496.54,-218.41"/>
</g>
<!-- Node19&#45;&gt;Node12 -->
<g id="edge49" class="edge">
<title>Node19&#45;&gt;Node12</title>
<path fill="none" stroke="midnightblue" d="M484.12,-254.79C470.86,-267.23 451.44,-283.9 432,-295 424.42,-299.33 415.69,-302.96 407.54,-305.85"/>
<polygon fill="midnightblue" stroke="midnightblue" points="486.74,-257.12 491.52,-247.67 481.89,-252.08 486.74,-257.12"/>
</g>
<!-- Node19&#45;&gt;Node13 -->
<g id="edge52" class="edge">
<title>Node19&#45;&gt;Node13</title>
<path fill="none" stroke="midnightblue" d="M460.7,-225.4C441.66,-219.44 419.58,-212.53 403.25,-207.43"/>
<polygon fill="midnightblue" stroke="midnightblue" points="459.75,-228.77 470.34,-228.41 461.84,-222.09 459.75,-228.77"/>
</g>
<!-- Node19&#45;&gt;Node15 -->
<g id="edge53" class="edge">
<title>Node19&#45;&gt;Node15</title>
<path fill="none" stroke="midnightblue" d="M497.68,-218.38C491,-184.45 472.91,-114.36 432,-72 426.08,-65.87 418.31,-61.17 410.56,-57.62"/>
<polygon fill="midnightblue" stroke="midnightblue" points="494.27,-219.21 499.53,-228.41 501.16,-217.95 494.27,-219.21"/>
</g>
<!-- Node19&#45;&gt;Node16 -->
<g id="edge50" class="edge">
<title>Node19&#45;&gt;Node16</title>
<path fill="none" stroke="midnightblue" d="M496.93,-218.09C489.63,-188.03 471.28,-131.74 432,-105 385.27,-73.19 315.75,-76.21 277.08,-81.16"/>
<polygon fill="midnightblue" stroke="midnightblue" points="493.59,-219.22 499.2,-228.21 500.42,-217.69 493.59,-219.22"/>
</g>
<!-- Node19&#45;&gt;Node17 -->
<g id="edge54" class="edge">
<title>Node19&#45;&gt;Node17</title>
<path fill="none" stroke="midnightblue" d="M490.67,-219.64C478.73,-199.78 457.41,-168.24 432,-148 424.63,-142.13 415.6,-137.33 407.11,-133.62"/>
<polygon fill="midnightblue" stroke="midnightblue" points="487.7,-221.48 495.76,-228.35 493.74,-217.95 487.7,-221.48"/>
</g>
</g>
</svg>
