<?xml version="1.0" encoding="UTF-8" standalone="no"?>
<!DOCTYPE svg PUBLIC "-//W3C//DTD SVG 1.1//EN"
 "http://www.w3.org/Graphics/SVG/1.1/DTD/svg11.dtd">
<!-- Generated by graphviz version 3.0.0 (20220413.0106)
 -->
<!-- Title: spin_init Pages: 1 -->
<svg width="299pt" height="104pt"
 viewBox="0.00 0.00 299.00 104.00" xmlns="http://www.w3.org/2000/svg" xmlns:xlink="http://www.w3.org/1999/xlink">
<g id="graph0" class="graph" transform="scale(1 1) rotate(0) translate(4 100)">
<title>spin_init</title>
<!-- Node1 -->
<g id="node1" class="node">
<title>Node1</title>
<g id="a_node1"><a xlink:title="create spinlock">
<polygon fill="#bfbfbf" stroke="black" points="238,-38.5 238,-57.5 291,-57.5 291,-38.5 238,-38.5"/>
<text text-anchor="middle" x="264.5" y="-45.5" font-family="Helvetica,sans-Serif" font-size="10.00">spin_init</text>
</a>
</g>
</g>
<!-- Node2 -->
<g id="node2" class="node">
<title>Node2</title>
<g id="a_node2"><a xlink:href="kernel_8h.html#a7ef2d722f9c7f8acc1801144a5188825" target="_top" xlink:title=" ">
<polygon fill="none" stroke="black" points="131,-76.5 131,-95.5 190,-95.5 190,-76.5 131,-76.5"/>
<text text-anchor="middle" x="160.5" y="-83.5" font-family="Helvetica,sans-Serif" font-size="10.00">MODULE</text>
</a>
</g>
</g>
<!-- Node1&#45;&gt;Node2 -->
<g id="edge1" class="edge">
<title>Node1&#45;&gt;Node2</title>
<path fill="none" stroke="midnightblue" d="M228.29,-61.12C214.8,-66.14 199.67,-71.78 187.23,-76.41"/>
<polygon fill="midnightblue" stroke="midnightblue" points="229.61,-64.36 237.76,-57.59 227.17,-57.8 229.61,-64.36"/>
</g>
<!-- Node3 -->
<g id="node3" class="node">
<title>Node3</title>
<g id="a_node3"><a xlink:href="kmt_8c.html#af360ef0d98ca30e481cc58ea3695fd58" target="_top" xlink:title=" ">
<polygon fill="none" stroke="black" points="119,-38.5 119,-57.5 202,-57.5 202,-38.5 119,-38.5"/>
<text text-anchor="middle" x="160.5" y="-45.5" font-family="Helvetica,sans-Serif" font-size="10.00">MODULE_DEF</text>
</a>
</g>
</g>
<!-- Node1&#45;&gt;Node3 -->
<g id="edge2" class="edge">
<title>Node1&#45;&gt;Node3</title>
<path fill="none" stroke="midnightblue" d="M227.74,-48C219.52,-48 210.73,-48 202.32,-48"/>
<polygon fill="midnightblue" stroke="midnightblue" points="227.76,-51.5 237.76,-48 227.76,-44.5 227.76,-51.5"/>
</g>
<!-- Node4 -->
<g id="node4" class="node">
<title>Node4</title>
<g id="a_node4"><a xlink:href="os_8c.html#aef4448ba4711b237d8254529f2a4b621" target="_top" xlink:title="initialze system; will be executed only once (not per cpu)">
<polygon fill="none" stroke="black" points="138,-0.5 138,-19.5 183,-19.5 183,-0.5 138,-0.5"/>
<text text-anchor="middle" x="160.5" y="-7.5" font-family="Helvetica,sans-Serif" font-size="10.00">os_init</text>
</a>
</g>
</g>
<!-- Node1&#45;&gt;Node4 -->
<g id="edge3" class="edge">
<title>Node1&#45;&gt;Node4</title>
<path fill="none" stroke="midnightblue" d="M228.25,-34.87C213.23,-29.27 196.19,-22.93 183.09,-18.04"/>
<polygon fill="midnightblue" stroke="midnightblue" points="227.17,-38.2 237.76,-38.41 229.61,-31.64 227.17,-38.2"/>
</g>
<!-- Node5 -->
<g id="node5" class="node">
<title>Node5</title>
<g id="a_node5"><a xlink:href="os_8c.html#aafec7046aa50c914df86d0d22d4fc1d1" target="_top" xlink:title=" ">
<polygon fill="none" stroke="black" points="0,-0.5 0,-19.5 83,-19.5 83,-0.5 0,-0.5"/>
<text text-anchor="middle" x="41.5" y="-7.5" font-family="Helvetica,sans-Serif" font-size="10.00">MODULE_DEF</text>
</a>
</g>
</g>
<!-- Node4&#45;&gt;Node5 -->
<g id="edge4" class="edge">
<title>Node4&#45;&gt;Node5</title>
<path fill="none" stroke="midnightblue" d="M127.39,-10C113.69,-10 97.56,-10 83.06,-10"/>
<polygon fill="midnightblue" stroke="midnightblue" points="127.77,-13.5 137.77,-10 127.77,-6.5 127.77,-13.5"/>
</g>
</g>
</svg>
