<?xml version="1.0" encoding="UTF-8" standalone="no"?>
<!DOCTYPE svg PUBLIC "-//W3C//DTD SVG 1.1//EN"
 "http://www.w3.org/Graphics/SVG/1.1/DTD/svg11.dtd">
<!-- Generated by graphviz version 3.0.0 (20220413.0106)
 -->
<!-- Title: spin_unlock Pages: 1 -->
<svg width="309pt" height="180pt"
 viewBox="0.00 0.00 309.00 180.00" xmlns="http://www.w3.org/2000/svg" xmlns:xlink="http://www.w3.org/1999/xlink">
<g id="graph0" class="graph" transform="scale(1 1) rotate(0) translate(4 176)">
<title>spin_unlock</title>
<!-- Node1 -->
<g id="node1" class="node">
<title>Node1</title>
<g id="a_node1"><a xlink:title="release spinlock from current cpu">
<polygon fill="#bfbfbf" stroke="black" points="233,-76.5 233,-95.5 301,-95.5 301,-76.5 233,-76.5"/>
<text text-anchor="middle" x="267" y="-83.5" font-family="Helvetica,sans-Serif" font-size="10.00">spin_unlock</text>
</a>
</g>
</g>
<!-- Node2 -->
<g id="node2" class="node">
<title>Node2</title>
<g id="a_node2"><a xlink:href="kmt_8c.html#a5ddb8743298012e84cf9cb5faf22212b" target="_top" xlink:title="create thread">
<polygon fill="none" stroke="black" points="125.5,-152.5 125.5,-171.5 190.5,-171.5 190.5,-152.5 125.5,-152.5"/>
<text text-anchor="middle" x="158" y="-159.5" font-family="Helvetica,sans-Serif" font-size="10.00">kmt_create</text>
</a>
</g>
</g>
<!-- Node1&#45;&gt;Node2 -->
<g id="edge1" class="edge">
<title>Node1&#45;&gt;Node2</title>
<path fill="none" stroke="midnightblue" d="M245.85,-101.88C232.26,-112.42 213.81,-126.39 197,-138 189.81,-142.97 181.64,-148.18 174.72,-152.48"/>
<polygon fill="midnightblue" stroke="midnightblue" points="248.28,-104.42 254.01,-95.51 243.97,-98.91 248.28,-104.42"/>
</g>
<!-- Node3 -->
<g id="node3" class="node">
<title>Node3</title>
<g id="a_node3"><a xlink:href="kmt_8c.html#af360ef0d98ca30e481cc58ea3695fd58" target="_top" xlink:title=" ">
<polygon fill="none" stroke="black" points="0,-114.5 0,-133.5 83,-133.5 83,-114.5 0,-114.5"/>
<text text-anchor="middle" x="41.5" y="-121.5" font-family="Helvetica,sans-Serif" font-size="10.00">MODULE_DEF</text>
</a>
</g>
</g>
<!-- Node1&#45;&gt;Node3 -->
<g id="edge6" class="edge">
<title>Node1&#45;&gt;Node3</title>
<path fill="none" stroke="midnightblue" d="M225.24,-98.28C216.01,-100.77 206.22,-103.17 197,-105 158.69,-112.59 114.41,-117.66 83.1,-120.64"/>
<polygon fill="midnightblue" stroke="midnightblue" points="226.27,-101.63 234.97,-95.58 224.4,-94.89 226.27,-101.63"/>
</g>
<!-- Node4 -->
<g id="node4" class="node">
<title>Node4</title>
<g id="a_node4"><a xlink:href="kmt_8c.html#a47d8887c87041abd5ea3148232b65c93" target="_top" xlink:title="tear down a thread">
<polygon fill="none" stroke="black" points="119,-76.5 119,-95.5 197,-95.5 197,-76.5 119,-76.5"/>
<text text-anchor="middle" x="158" y="-83.5" font-family="Helvetica,sans-Serif" font-size="10.00">kmt_teardown</text>
</a>
</g>
</g>
<!-- Node1&#45;&gt;Node4 -->
<g id="edge3" class="edge">
<title>Node1&#45;&gt;Node4</title>
<path fill="none" stroke="midnightblue" d="M222.65,-86C214.19,-86 205.38,-86 197.11,-86"/>
<polygon fill="midnightblue" stroke="midnightblue" points="222.73,-89.5 232.73,-86 222.73,-82.5 222.73,-89.5"/>
</g>
<!-- Node5 -->
<g id="node5" class="node">
<title>Node5</title>
<g id="a_node5"><a xlink:href="kernel_8h.html#a7ef2d722f9c7f8acc1801144a5188825" target="_top" xlink:title=" ">
<polygon fill="none" stroke="black" points="128.5,-38.5 128.5,-57.5 187.5,-57.5 187.5,-38.5 128.5,-38.5"/>
<text text-anchor="middle" x="158" y="-45.5" font-family="Helvetica,sans-Serif" font-size="10.00">MODULE</text>
</a>
</g>
</g>
<!-- Node1&#45;&gt;Node5 -->
<g id="edge5" class="edge">
<title>Node1&#45;&gt;Node5</title>
<path fill="none" stroke="midnightblue" d="M229.47,-73.03C215.22,-67.97 199.17,-62.27 185.99,-57.59"/>
<polygon fill="midnightblue" stroke="midnightblue" points="228.4,-76.36 239,-76.41 230.75,-69.77 228.4,-76.36"/>
</g>
<!-- Node6 -->
<g id="node6" class="node">
<title>Node6</title>
<g id="a_node6"><a xlink:href="os_8c.html#a2be1c9facb49d4439f41b1537d0f3ef8" target="_top" xlink:title="System trap entry.">
<polygon fill="none" stroke="black" points="133.5,-0.5 133.5,-19.5 182.5,-19.5 182.5,-0.5 133.5,-0.5"/>
<text text-anchor="middle" x="158" y="-7.5" font-family="Helvetica,sans-Serif" font-size="10.00">os_trap</text>
</a>
</g>
</g>
<!-- Node1&#45;&gt;Node6 -->
<g id="edge7" class="edge">
<title>Node1&#45;&gt;Node6</title>
<path fill="none" stroke="midnightblue" d="M248.26,-69.43C234.82,-57.36 215.55,-41.07 197,-29 191.81,-25.62 185.93,-22.41 180.38,-19.63"/>
<polygon fill="midnightblue" stroke="midnightblue" points="246.08,-72.17 255.82,-76.33 250.79,-67 246.08,-72.17"/>
</g>
<!-- Node2&#45;&gt;Node3 -->
<g id="edge2" class="edge">
<title>Node2&#45;&gt;Node3</title>
<path fill="none" stroke="midnightblue" d="M118.35,-149.17C102.99,-144.08 85.62,-138.31 71.38,-133.59"/>
<polygon fill="midnightblue" stroke="midnightblue" points="117.51,-152.58 128.11,-152.41 119.72,-145.94 117.51,-152.58"/>
</g>
<!-- Node4&#45;&gt;Node3 -->
<g id="edge4" class="edge">
<title>Node4&#45;&gt;Node3</title>
<path fill="none" stroke="midnightblue" d="M118.35,-98.83C102.99,-103.92 85.62,-109.69 71.38,-114.41"/>
<polygon fill="midnightblue" stroke="midnightblue" points="119.72,-102.06 128.11,-95.59 117.51,-95.42 119.72,-102.06"/>
</g>
<!-- Node7 -->
<g id="node7" class="node">
<title>Node7</title>
<g id="a_node7"><a xlink:href="os_8c.html#aafec7046aa50c914df86d0d22d4fc1d1" target="_top" xlink:title=" ">
<polygon fill="none" stroke="black" points="0,-0.5 0,-19.5 83,-19.5 83,-0.5 0,-0.5"/>
<text text-anchor="middle" x="41.5" y="-7.5" font-family="Helvetica,sans-Serif" font-size="10.00">MODULE_DEF</text>
</a>
</g>
</g>
<!-- Node6&#45;&gt;Node7 -->
<g id="edge8" class="edge">
<title>Node6&#45;&gt;Node7</title>
<path fill="none" stroke="midnightblue" d="M123.26,-10C110.74,-10 96.42,-10 83.34,-10"/>
<polygon fill="midnightblue" stroke="midnightblue" points="123.28,-13.5 133.28,-10 123.28,-6.5 123.28,-13.5"/>
</g>
</g>
</svg>
