<?xml version="1.0" encoding="UTF-8" standalone="no"?>
<!DOCTYPE svg PUBLIC "-//W3C//DTD SVG 1.1//EN"
 "http://www.w3.org/Graphics/SVG/1.1/DTD/svg11.dtd">
<!-- Generated by graphviz version 3.0.0 (20220413.0106)
 -->
<!-- Title: spin_popcli Pages: 1 -->
<svg width="752pt" height="445pt"
 viewBox="0.00 0.00 752.00 445.07" xmlns="http://www.w3.org/2000/svg" xmlns:xlink="http://www.w3.org/1999/xlink">
<g id="graph0" class="graph" transform="scale(1 1) rotate(0) translate(4 441.07)">
<title>spin_popcli</title>
<!-- Node1 -->
<g id="node1" class="node">
<title>Node1</title>
<g id="a_node1"><a xlink:title="interrupt able">
<polygon fill="#bfbfbf" stroke="black" points="679,-209.07 679,-228.07 744,-228.07 744,-209.07 679,-209.07"/>
<text text-anchor="middle" x="711.5" y="-216.07" font-family="Helvetica,sans-Serif" font-size="10.00">spin_popcli</text>
</a>
</g>
</g>
<!-- Node2 -->
<g id="node2" class="node">
<title>Node2</title>
<g id="a_node2"><a xlink:href="spinlock_8c.html#ad4be0d674a7ca4dc90c2dbf8b34562cc" target="_top" xlink:title="check current cpu has the lock">
<polygon fill="none" stroke="black" points="572,-228.07 572,-247.07 643,-247.07 643,-228.07 572,-228.07"/>
<text text-anchor="middle" x="607.5" y="-235.07" font-family="Helvetica,sans-Serif" font-size="10.00">spin_holding</text>
</a>
</g>
</g>
<!-- Node1&#45;&gt;Node2 -->
<g id="edge1" class="edge">
<title>Node1&#45;&gt;Node2</title>
<path fill="none" stroke="midnightblue" d="M668.92,-226.31C660.32,-227.92 651.35,-229.59 643.03,-231.14"/>
<polygon fill="midnightblue" stroke="midnightblue" points="669.6,-229.75 678.79,-224.48 668.31,-222.87 669.6,-229.75"/>
</g>
<!-- Node16 -->
<g id="node16" class="node">
<title>Node16</title>
<g id="a_node16"><a xlink:href="spinlock_8c.html#acdf118d615a4bc4064e991add9a80995" target="_top" xlink:title="release spinlock from current cpu">
<polygon fill="none" stroke="black" points="468,-190.07 468,-209.07 536,-209.07 536,-190.07 468,-190.07"/>
<text text-anchor="middle" x="502" y="-197.07" font-family="Helvetica,sans-Serif" font-size="10.00">spin_unlock</text>
</a>
</g>
</g>
<!-- Node1&#45;&gt;Node16 -->
<g id="edge41" class="edge">
<title>Node1&#45;&gt;Node16</title>
<path fill="none" stroke="midnightblue" d="M668.99,-214.77C629.95,-211.19 572.26,-205.91 536.19,-202.61"/>
<polygon fill="midnightblue" stroke="midnightblue" points="668.71,-218.26 678.99,-215.68 669.35,-211.28 668.71,-218.26"/>
</g>
<!-- Node3 -->
<g id="node3" class="node">
<title>Node3</title>
<g id="a_node3"><a xlink:href="kmt_8c.html#af9c485ce0d89d6624e6e80e31d8ed207" target="_top" xlink:title="handler: save context to current task">
<polygon fill="none" stroke="black" points="330.5,-266.07 330.5,-285.07 426.5,-285.07 426.5,-266.07 330.5,-266.07"/>
<text text-anchor="middle" x="378.5" y="-273.07" font-family="Helvetica,sans-Serif" font-size="10.00">kmt_context_save</text>
</a>
</g>
</g>
<!-- Node2&#45;&gt;Node3 -->
<g id="edge2" class="edge">
<title>Node2&#45;&gt;Node3</title>
<path fill="none" stroke="midnightblue" d="M564.84,-249.85C555.42,-252.33 545.41,-254.74 536,-256.57 499.6,-263.65 457.88,-268.55 426.68,-271.61"/>
<polygon fill="midnightblue" stroke="midnightblue" points="566.06,-253.14 574.79,-247.15 564.22,-246.39 566.06,-253.14"/>
</g>
<!-- Node6 -->
<g id="node6" class="node">
<title>Node6</title>
<g id="a_node6"><a xlink:href="kmt_8c.html#a5ddb8743298012e84cf9cb5faf22212b" target="_top" xlink:title="create thread">
<polygon fill="none" stroke="black" points="346,-38.07 346,-57.07 411,-57.07 411,-38.07 346,-38.07"/>
<text text-anchor="middle" x="378.5" y="-45.07" font-family="Helvetica,sans-Serif" font-size="10.00">kmt_create</text>
</a>
</g>
</g>
<!-- Node2&#45;&gt;Node6 -->
<g id="edge5" class="edge">
<title>Node2&#45;&gt;Node6</title>
<path fill="none" stroke="midnightblue" d="M600.71,-218.14C591.42,-190.08 570.62,-138.22 536,-107.57 500.05,-75.74 445.43,-60.02 411.14,-52.86"/>
<polygon fill="midnightblue" stroke="midnightblue" points="597.46,-219.47 603.81,-227.95 604.14,-217.36 597.46,-219.47"/>
</g>
<!-- Node7 -->
<g id="node7" class="node">
<title>Node7</title>
<g id="a_node7"><a xlink:href="kmt_8c.html#ad3fbc643b7b6092120c5152b4c890354" target="_top" xlink:title="handler: handle program errors">
<polygon fill="none" stroke="black" points="218.5,-375.07 218.5,-394.07 276.5,-394.07 276.5,-375.07 218.5,-375.07"/>
<text text-anchor="middle" x="247.5" y="-382.07" font-family="Helvetica,sans-Serif" font-size="10.00">kmt_error</text>
</a>
</g>
</g>
<!-- Node2&#45;&gt;Node7 -->
<g id="edge7" class="edge">
<title>Node2&#45;&gt;Node7</title>
<path fill="none" stroke="midnightblue" d="M601.56,-257.13C592.99,-287.46 572.66,-346.02 536,-381.57 499.58,-416.88 481.59,-417.88 432,-428.57 385.51,-438.58 370.95,-440.84 325,-428.57 300.13,-421.93 274.96,-405.05 260.59,-394.24"/>
<polygon fill="midnightblue" stroke="midnightblue" points="604.98,-257.9 604.19,-247.33 598.22,-256.08 604.98,-257.9"/>
</g>
<!-- Node8 -->
<g id="node8" class="node">
<title>Node8</title>
<g id="a_node8"><a xlink:href="kmt_8c.html#a0ac321d3074b24b276695a080e835866" target="_top" xlink:title="print all tasks notice: do not garantee concurrency safety">
<polygon fill="none" stroke="black" points="328,-342.07 328,-361.07 429,-361.07 429,-342.07 328,-342.07"/>
<text text-anchor="middle" x="378.5" y="-349.07" font-family="Helvetica,sans-Serif" font-size="10.00">kmt_print_all_tasks</text>
</a>
</g>
</g>
<!-- Node2&#45;&gt;Node8 -->
<g id="edge9" class="edge">
<title>Node2&#45;&gt;Node8</title>
<path fill="none" stroke="midnightblue" d="M580.22,-252.07C567.02,-259.27 550.74,-268.02 536,-275.57 487.61,-300.35 429.9,-327.85 399.89,-342"/>
<polygon fill="midnightblue" stroke="midnightblue" points="582.13,-255.02 589.22,-247.14 578.77,-248.88 582.13,-255.02"/>
</g>
<!-- Node9 -->
<g id="node9" class="node">
<title>Node9</title>
<g id="a_node9"><a xlink:href="kmt_8c.html#ad4d70b4093829da1c0b0631abdff7747" target="_top" xlink:title="handler: schedule next task to run Notice: this should be the only handler which returns real Context">
<polygon fill="none" stroke="black" points="209,-332.07 209,-351.07 286,-351.07 286,-332.07 209,-332.07"/>
<text text-anchor="middle" x="247.5" y="-339.07" font-family="Helvetica,sans-Serif" font-size="10.00">kmt_schedule</text>
</a>
</g>
</g>
<!-- Node2&#45;&gt;Node9 -->
<g id="edge16" class="edge">
<title>Node2&#45;&gt;Node9</title>
<path fill="none" stroke="midnightblue" d="M596.95,-256.13C584.9,-278.31 562.52,-315.66 536,-341.57 496.67,-379.99 484.75,-393.05 432,-408.57 386.38,-421.99 368.09,-428.69 325,-408.57 302.42,-398.02 307.99,-381.71 289,-365.57 282.52,-360.06 274.62,-355.07 267.53,-351.08"/>
<polygon fill="midnightblue" stroke="midnightblue" points="600.14,-257.58 601.74,-247.11 593.96,-254.3 600.14,-257.58"/>
</g>
<!-- Node10 -->
<g id="node10" class="node">
<title>Node10</title>
<g id="a_node10"><a xlink:href="kmt_8c.html#ac69761d0146d9aacda65da757868d3c7" target="_top" xlink:title="print all current_tasks notice: do not garantee concurrency safety">
<polygon fill="none" stroke="black" points="325,-380.07 325,-399.07 432,-399.07 432,-380.07 325,-380.07"/>
<text text-anchor="middle" x="378.5" y="-387.07" font-family="Helvetica,sans-Serif" font-size="10.00">kmt_print_cpu_tasks</text>
</a>
</g>
</g>
<!-- Node2&#45;&gt;Node10 -->
<g id="edge13" class="edge">
<title>Node2&#45;&gt;Node10</title>
<path fill="none" stroke="midnightblue" d="M590.19,-254.84C576.41,-268.99 555.81,-289.11 536,-304.57 492.84,-338.25 481.14,-346.44 432,-370.57 424.87,-374.07 416.91,-377.28 409.4,-380.02"/>
<polygon fill="midnightblue" stroke="midnightblue" points="593.04,-256.92 597.45,-247.29 588,-252.07 593.04,-256.92"/>
</g>
<!-- Node11 -->
<g id="node11" class="node">
<title>Node11</title>
<g id="a_node11"><a xlink:href="kmt_8c.html#a47d8887c87041abd5ea3148232b65c93" target="_top" xlink:title="tear down a thread">
<polygon fill="none" stroke="black" points="339.5,-114.07 339.5,-133.07 417.5,-133.07 417.5,-114.07 339.5,-114.07"/>
<text text-anchor="middle" x="378.5" y="-121.07" font-family="Helvetica,sans-Serif" font-size="10.00">kmt_teardown</text>
</a>
</g>
</g>
<!-- Node2&#45;&gt;Node11 -->
<g id="edge17" class="edge">
<title>Node2&#45;&gt;Node11</title>
<path fill="none" stroke="midnightblue" d="M589.18,-220.81C575.6,-208.39 555.74,-191.73 536,-180.57 497.36,-158.72 448.79,-142.58 416.09,-133.16"/>
<polygon fill="midnightblue" stroke="midnightblue" points="587.08,-223.64 596.77,-227.92 591.86,-218.53 587.08,-223.64"/>
</g>
<!-- Node12 -->
<g id="node12" class="node">
<title>Node12</title>
<g id="a_node12"><a xlink:href="os_8c.html#a2be1c9facb49d4439f41b1537d0f3ef8" target="_top" xlink:title="System trap entry.">
<polygon fill="none" stroke="black" points="354,-76.07 354,-95.07 403,-95.07 403,-76.07 354,-76.07"/>
<text text-anchor="middle" x="378.5" y="-83.07" font-family="Helvetica,sans-Serif" font-size="10.00">os_trap</text>
</a>
</g>
</g>
<!-- Node2&#45;&gt;Node12 -->
<g id="edge19" class="edge">
<title>Node2&#45;&gt;Node12</title>
<path fill="none" stroke="midnightblue" d="M596.26,-219.11C584.21,-198.85 562.43,-166.57 536,-146.57 494.84,-115.42 435.78,-98.19 403.25,-90.51"/>
<polygon fill="midnightblue" stroke="midnightblue" points="593.35,-221.06 601.38,-227.98 599.42,-217.56 593.35,-221.06"/>
</g>
<!-- Node14 -->
<g id="node14" class="node">
<title>Node14</title>
<g id="a_node14"><a xlink:href="spinlock_8c.html#ab6f3c37ec37006951feccc3c05387cce" target="_top" xlink:title="acquire spinlock to current cpu">
<polygon fill="none" stroke="black" points="473,-228.07 473,-247.07 531,-247.07 531,-228.07 473,-228.07"/>
<text text-anchor="middle" x="502" y="-235.07" font-family="Helvetica,sans-Serif" font-size="10.00">spin_lock</text>
</a>
</g>
</g>
<!-- Node2&#45;&gt;Node14 -->
<g id="edge21" class="edge">
<title>Node2&#45;&gt;Node14</title>
<path fill="none" stroke="midnightblue" d="M561.63,-237.57C551.34,-237.57 540.67,-237.57 531.3,-237.57"/>
<polygon fill="midnightblue" stroke="midnightblue" points="561.75,-241.07 571.75,-237.57 561.75,-234.07 561.75,-241.07"/>
</g>
<!-- Node2&#45;&gt;Node16 -->
<g id="edge31" class="edge">
<title>Node2&#45;&gt;Node16</title>
<path fill="none" stroke="midnightblue" d="M570.77,-224.45C557.08,-219.42 541.73,-213.79 529.11,-209.15"/>
<polygon fill="midnightblue" stroke="midnightblue" points="569.79,-227.82 580.38,-227.98 572.2,-221.25 569.79,-227.82"/>
</g>
<!-- Node4 -->
<g id="node4" class="node">
<title>Node4</title>
<g id="a_node4"><a xlink:href="kmt_8c.html#a0c68a294cecc4be7cb4b495f15b883a0" target="_top" xlink:title="initialize kmt module">
<polygon fill="none" stroke="black" points="119,-308.07 119,-327.07 170,-327.07 170,-308.07 119,-308.07"/>
<text text-anchor="middle" x="144.5" y="-315.07" font-family="Helvetica,sans-Serif" font-size="10.00">kmt_init</text>
</a>
</g>
</g>
<!-- Node3&#45;&gt;Node4 -->
<g id="edge3" class="edge">
<title>Node3&#45;&gt;Node4</title>
<path fill="none" stroke="midnightblue" d="M320.3,-285.92C272.17,-294.64 205.67,-306.67 170.18,-313.1"/>
<polygon fill="midnightblue" stroke="midnightblue" points="321.06,-289.34 330.27,-284.12 319.81,-282.46 321.06,-289.34"/>
</g>
<!-- Node5 -->
<g id="node5" class="node">
<title>Node5</title>
<g id="a_node5"><a xlink:href="kmt_8c.html#af360ef0d98ca30e481cc58ea3695fd58" target="_top" xlink:title=" ">
<polygon fill="none" stroke="black" points="0,-114.07 0,-133.07 83,-133.07 83,-114.07 0,-114.07"/>
<text text-anchor="middle" x="41.5" y="-121.07" font-family="Helvetica,sans-Serif" font-size="10.00">MODULE_DEF</text>
</a>
</g>
</g>
<!-- Node4&#45;&gt;Node5 -->
<g id="edge4" class="edge">
<title>Node4&#45;&gt;Node5</title>
<path fill="none" stroke="midnightblue" d="M133.78,-298.9C112.71,-258.42 63.43,-163.78 47.54,-133.25"/>
<polygon fill="midnightblue" stroke="midnightblue" points="130.77,-300.69 138.49,-307.95 136.98,-297.46 130.77,-300.69"/>
</g>
<!-- Node6&#45;&gt;Node5 -->
<g id="edge6" class="edge">
<title>Node6&#45;&gt;Node5</title>
<path fill="none" stroke="midnightblue" d="M335.53,-49.58C300.54,-51.88 249.55,-56.7 206,-66.57 154.11,-78.33 95.81,-101.08 64.78,-113.99"/>
<polygon fill="midnightblue" stroke="midnightblue" points="336.09,-53.05 345.85,-48.94 335.66,-46.06 336.09,-53.05"/>
</g>
<!-- Node7&#45;&gt;Node4 -->
<g id="edge8" class="edge">
<title>Node7&#45;&gt;Node4</title>
<path fill="none" stroke="midnightblue" d="M221.02,-369.91C216,-366.89 210.8,-363.69 206,-360.57 189.15,-349.61 170.37,-336.04 158.27,-327.11"/>
<polygon fill="midnightblue" stroke="midnightblue" points="219.37,-372.99 229.76,-375.07 222.93,-366.97 219.37,-372.99"/>
</g>
<!-- Node8&#45;&gt;Node7 -->
<g id="edge10" class="edge">
<title>Node8&#45;&gt;Node7</title>
<path fill="none" stroke="midnightblue" d="M330.42,-363.61C312.4,-368.22 292.43,-373.33 276.71,-377.35"/>
<polygon fill="midnightblue" stroke="midnightblue" points="331.37,-366.98 340.19,-361.11 329.63,-360.2 331.37,-366.98"/>
</g>
<!-- Node8&#45;&gt;Node9 -->
<g id="edge11" class="edge">
<title>Node8&#45;&gt;Node9</title>
<path fill="none" stroke="midnightblue" d="M317.74,-346.94C306.95,-346.1 295.98,-345.25 286.05,-344.48"/>
<polygon fill="midnightblue" stroke="midnightblue" points="317.75,-350.45 327.99,-347.73 318.29,-343.47 317.75,-350.45"/>
</g>
<!-- Node9&#45;&gt;Node4 -->
<g id="edge12" class="edge">
<title>Node9&#45;&gt;Node4</title>
<path fill="none" stroke="midnightblue" d="M199.05,-330.29C189.1,-327.93 178.98,-325.52 170.27,-323.45"/>
<polygon fill="midnightblue" stroke="midnightblue" points="198.35,-333.72 208.89,-332.63 199.97,-326.91 198.35,-333.72"/>
</g>
<!-- Node10&#45;&gt;Node7 -->
<g id="edge14" class="edge">
<title>Node10&#45;&gt;Node7</title>
<path fill="none" stroke="midnightblue" d="M314.56,-387.13C301.28,-386.61 287.92,-386.1 276.72,-385.66"/>
<polygon fill="midnightblue" stroke="midnightblue" points="314.53,-390.63 324.66,-387.52 314.8,-383.64 314.53,-390.63"/>
</g>
<!-- Node10&#45;&gt;Node9 -->
<g id="edge15" class="edge">
<title>Node10&#45;&gt;Node9</title>
<path fill="none" stroke="midnightblue" d="M341.18,-376.51C335.75,-374.53 330.23,-372.5 325,-370.57 307.82,-364.2 288.53,-356.89 273.62,-351.2"/>
<polygon fill="midnightblue" stroke="midnightblue" points="340.17,-379.86 350.76,-379.98 342.56,-373.28 340.17,-379.86"/>
</g>
<!-- Node11&#45;&gt;Node5 -->
<g id="edge18" class="edge">
<title>Node11&#45;&gt;Node5</title>
<path fill="none" stroke="midnightblue" d="M329.23,-123.57C263,-123.57 145.15,-123.57 83.17,-123.57"/>
<polygon fill="midnightblue" stroke="midnightblue" points="329.4,-127.07 339.4,-123.57 329.4,-120.07 329.4,-127.07"/>
</g>
<!-- Node13 -->
<g id="node13" class="node">
<title>Node13</title>
<g id="a_node13"><a xlink:href="os_8c.html#aafec7046aa50c914df86d0d22d4fc1d1" target="_top" xlink:title=" ">
<polygon fill="none" stroke="black" points="206,-76.07 206,-95.07 289,-95.07 289,-76.07 206,-76.07"/>
<text text-anchor="middle" x="247.5" y="-83.07" font-family="Helvetica,sans-Serif" font-size="10.00">MODULE_DEF</text>
</a>
</g>
</g>
<!-- Node12&#45;&gt;Node13 -->
<g id="edge20" class="edge">
<title>Node12&#45;&gt;Node13</title>
<path fill="none" stroke="midnightblue" d="M343.48,-85.57C326.85,-85.57 306.7,-85.57 289.25,-85.57"/>
<polygon fill="midnightblue" stroke="midnightblue" points="343.84,-89.07 353.84,-85.57 343.84,-82.07 343.84,-89.07"/>
</g>
<!-- Node14&#45;&gt;Node3 -->
<g id="edge22" class="edge">
<title>Node14&#45;&gt;Node3</title>
<path fill="none" stroke="midnightblue" d="M463.15,-249.41C446.08,-254.75 426.18,-260.97 410.08,-266"/>
<polygon fill="midnightblue" stroke="midnightblue" points="464.32,-252.71 472.82,-246.38 462.23,-246.03 464.32,-252.71"/>
</g>
<!-- Node14&#45;&gt;Node5 -->
<g id="edge29" class="edge">
<title>Node14&#45;&gt;Node5</title>
<path fill="none" stroke="midnightblue" d="M462.91,-235.84C427.01,-233.66 371.86,-228.85 325,-218.57 225.94,-196.83 112.97,-152.69 65.46,-133.2"/>
<polygon fill="midnightblue" stroke="midnightblue" points="462.78,-239.34 472.96,-236.42 463.18,-232.35 462.78,-239.34"/>
</g>
<!-- Node14&#45;&gt;Node6 -->
<g id="edge23" class="edge">
<title>Node14&#45;&gt;Node6</title>
<path fill="none" stroke="midnightblue" d="M470.54,-221.56C469.63,-220.61 468.78,-219.61 468,-218.57 426.51,-162.9 478.2,-118.39 432,-66.57 426.52,-60.42 418.89,-56.26 411.14,-53.44"/>
<polygon fill="midnightblue" stroke="midnightblue" points="468.45,-224.37 478.43,-227.93 472.85,-218.92 468.45,-224.37"/>
</g>
<!-- Node14&#45;&gt;Node8 -->
<g id="edge24" class="edge">
<title>Node14&#45;&gt;Node8</title>
<path fill="none" stroke="midnightblue" d="M490.67,-255.93C478.73,-275.79 457.41,-307.32 432,-327.57 424.63,-333.44 415.6,-338.23 407.11,-341.95"/>
<polygon fill="midnightblue" stroke="midnightblue" points="493.74,-257.61 495.76,-247.21 487.7,-254.08 493.74,-257.61"/>
</g>
<!-- Node14&#45;&gt;Node9 -->
<g id="edge26" class="edge">
<title>Node14&#45;&gt;Node9</title>
<path fill="none" stroke="midnightblue" d="M484.86,-254.46C471.75,-267.25 452.18,-284.3 432,-294.57 384.81,-318.57 324.4,-330.98 286.06,-336.87"/>
<polygon fill="midnightblue" stroke="midnightblue" points="487.56,-256.71 492.14,-247.16 482.6,-251.77 487.56,-256.71"/>
</g>
<!-- Node14&#45;&gt;Node10 -->
<g id="edge25" class="edge">
<title>Node14&#45;&gt;Node10</title>
<path fill="none" stroke="midnightblue" d="M495.93,-256.76C487.41,-285.44 467.56,-339.4 432,-370.57 427.63,-374.4 422.42,-377.48 417.01,-379.95"/>
<polygon fill="midnightblue" stroke="midnightblue" points="499.31,-257.69 498.65,-247.12 492.57,-255.79 499.31,-257.69"/>
</g>
<!-- Node14&#45;&gt;Node11 -->
<g id="edge27" class="edge">
<title>Node14&#45;&gt;Node11</title>
<path fill="none" stroke="midnightblue" d="M473.58,-222.65C471.65,-221.34 469.77,-219.97 468,-218.57 463.5,-214.99 409.97,-156.79 388.41,-133.29"/>
<polygon fill="midnightblue" stroke="midnightblue" points="471.88,-225.72 482.21,-228.04 475.58,-219.78 471.88,-225.72"/>
</g>
<!-- Node14&#45;&gt;Node12 -->
<g id="edge30" class="edge">
<title>Node14&#45;&gt;Node12</title>
<path fill="none" stroke="midnightblue" d="M471.05,-221.88C469.96,-220.83 468.93,-219.73 468,-218.57 434.71,-177.16 468.79,-142.91 432,-104.57 424.42,-96.66 413.3,-92.04 403.24,-89.33"/>
<polygon fill="midnightblue" stroke="midnightblue" points="468.92,-224.66 478.98,-227.98 473.19,-219.11 468.92,-224.66"/>
</g>
<!-- Node15 -->
<g id="node15" class="node">
<title>Node15</title>
<g id="a_node15"><a xlink:href="kernel_8h.html#a7ef2d722f9c7f8acc1801144a5188825" target="_top" xlink:title=" ">
<polygon fill="none" stroke="black" points="349,-190.07 349,-209.07 408,-209.07 408,-190.07 349,-190.07"/>
<text text-anchor="middle" x="378.5" y="-197.07" font-family="Helvetica,sans-Serif" font-size="10.00">MODULE</text>
</a>
</g>
</g>
<!-- Node14&#45;&gt;Node15 -->
<g id="edge28" class="edge">
<title>Node14&#45;&gt;Node15</title>
<path fill="none" stroke="midnightblue" d="M462.85,-225.64C445.23,-220.13 424.67,-213.69 408.37,-208.6"/>
<polygon fill="midnightblue" stroke="midnightblue" points="462.23,-229.11 472.82,-228.75 464.32,-222.43 462.23,-229.11"/>
</g>
<!-- Node16&#45;&gt;Node3 -->
<g id="edge32" class="edge">
<title>Node16&#45;&gt;Node3</title>
<path fill="none" stroke="midnightblue" d="M475.29,-214.21C472.82,-215.66 470.35,-217.13 468,-218.57 441.47,-234.74 411.15,-254.57 393.77,-266.07"/>
<polygon fill="midnightblue" stroke="midnightblue" points="477.23,-217.12 484.12,-209.07 473.71,-211.07 477.23,-217.12"/>
</g>
<!-- Node16&#45;&gt;Node5 -->
<g id="edge39" class="edge">
<title>Node16&#45;&gt;Node5</title>
<path fill="none" stroke="midnightblue" d="M499.83,-179.89C496.43,-142.8 483.22,-63.14 432,-28.57 304.49,57.48 106.86,-75.84 55.2,-113.9"/>
<polygon fill="midnightblue" stroke="midnightblue" points="496.34,-180.24 500.6,-189.94 503.32,-179.71 496.34,-180.24"/>
</g>
<!-- Node16&#45;&gt;Node6 -->
<g id="edge33" class="edge">
<title>Node16&#45;&gt;Node6</title>
<path fill="none" stroke="midnightblue" d="M495.93,-180.37C487.41,-151.7 467.56,-97.74 432,-66.57 426.02,-61.33 418.49,-57.5 411.01,-54.71"/>
<polygon fill="midnightblue" stroke="midnightblue" points="492.57,-181.35 498.65,-190.02 499.31,-179.45 492.57,-181.35"/>
</g>
<!-- Node16&#45;&gt;Node8 -->
<g id="edge34" class="edge">
<title>Node16&#45;&gt;Node8</title>
<path fill="none" stroke="midnightblue" d="M471.33,-215.34C470.16,-216.37 469.04,-217.44 468,-218.57 442.65,-246.03 452.9,-263.58 432,-294.57 419.66,-312.86 401.59,-331.11 390.19,-341.86"/>
<polygon fill="midnightblue" stroke="midnightblue" points="473.67,-217.97 479.71,-209.27 469.56,-212.31 473.67,-217.97"/>
</g>
<!-- Node16&#45;&gt;Node9 -->
<g id="edge36" class="edge">
<title>Node16&#45;&gt;Node9</title>
<path fill="none" stroke="midnightblue" d="M471.99,-186.04C434.89,-170.93 370.07,-152.08 325,-180.57 269.54,-215.62 253.47,-303.03 249.59,-332.04"/>
<polygon fill="midnightblue" stroke="midnightblue" points="470.66,-189.28 481.23,-189.97 473.4,-182.84 470.66,-189.28"/>
</g>
<!-- Node16&#45;&gt;Node10 -->
<g id="edge35" class="edge">
<title>Node16&#45;&gt;Node10</title>
<path fill="none" stroke="midnightblue" d="M470.54,-215.58C469.63,-216.53 468.78,-217.52 468,-218.57 426.51,-274.23 478.2,-318.74 432,-370.57 428.52,-374.48 424.17,-377.58 419.47,-380.05"/>
<polygon fill="midnightblue" stroke="midnightblue" points="472.85,-218.21 478.43,-209.21 468.45,-212.77 472.85,-218.21"/>
</g>
<!-- Node16&#45;&gt;Node11 -->
<g id="edge37" class="edge">
<title>Node16&#45;&gt;Node11</title>
<path fill="none" stroke="midnightblue" d="M481.81,-183.32C468.39,-172.41 449.76,-158.15 432,-147.57 422.96,-142.18 412.5,-137.18 403.31,-133.15"/>
<polygon fill="midnightblue" stroke="midnightblue" points="479.88,-186.26 489.82,-189.93 484.34,-180.86 479.88,-186.26"/>
</g>
<!-- Node16&#45;&gt;Node12 -->
<g id="edge40" class="edge">
<title>Node16&#45;&gt;Node12</title>
<path fill="none" stroke="midnightblue" d="M491.92,-181.04C480.62,-159.77 459.42,-125.2 432,-104.57 423.56,-98.22 412.79,-93.83 403.2,-90.89"/>
<polygon fill="midnightblue" stroke="midnightblue" points="488.85,-182.72 496.52,-190.03 495.08,-179.53 488.85,-182.72"/>
</g>
<!-- Node16&#45;&gt;Node15 -->
<g id="edge38" class="edge">
<title>Node16&#45;&gt;Node15</title>
<path fill="none" stroke="midnightblue" d="M457.35,-199.57C440.98,-199.57 422.79,-199.57 408.12,-199.57"/>
<polygon fill="midnightblue" stroke="midnightblue" points="457.8,-203.07 467.8,-199.57 457.8,-196.07 457.8,-203.07"/>
</g>
</g>
</svg>
