<?xml version="1.0" encoding="UTF-8" standalone="no"?>
<!DOCTYPE svg PUBLIC "-//W3C//DTD SVG 1.1//EN"
 "http://www.w3.org/Graphics/SVG/1.1/DTD/svg11.dtd">
<!-- Generated by graphviz version 2.50.0 (20220203.2022)
 -->
<!-- Title: __am_lapic_bootap Pages: 1 -->
<svg width="849pt" height="122pt"
 viewBox="0.00 0.00 849.00 122.00" xmlns="http://www.w3.org/2000/svg" xmlns:xlink="http://www.w3.org/1999/xlink">
<g id="graph0" class="graph" transform="scale(1 1) rotate(0) translate(4 118)">
<title>__am_lapic_bootap</title>
<!-- Node1 -->
<g id="node1" class="node">
<title>Node1</title>
<g id="a_node1"><a xlink:title=" ">
<polygon fill="#bfbfbf" stroke="black" points="740,-9.5 740,-28.5 841,-28.5 841,-9.5 740,-9.5"/>
<text text-anchor="middle" x="790.5" y="-16.5" font-family="Helvetica,sans-Serif" font-size="10.00">__am_lapic_bootap</text>
</a>
</g>
</g>
<!-- Node2 -->
<g id="node2" class="node">
<title>Node2</title>
<g id="a_node2"><a xlink:href="x86_2qemu_2mpe_8c.html#a0a540532023afb1f31b6f21ce053483b" target="_top" xlink:title=" ">
<polygon fill="none" stroke="black" points="592,-28.5 592,-47.5 704,-47.5 704,-28.5 592,-28.5"/>
<text text-anchor="middle" x="648" y="-35.5" font-family="Helvetica,sans-Serif" font-size="10.00">__am_stop_the_world</text>
</a>
</g>
</g>
<!-- Node1&#45;&gt;Node2 -->
<g id="edge1" class="edge">
<title>Node1&#45;&gt;Node2</title>
<path fill="none" stroke="midnightblue" d="M729.79,-27.07C721.34,-28.22 712.68,-29.39 704.31,-30.52"/>
<polygon fill="midnightblue" stroke="midnightblue" points="730.52,-30.51 739.96,-25.7 729.59,-23.57 730.52,-30.51"/>
</g>
<!-- Node10 -->
<g id="node10" class="node">
<title>Node10</title>
<g id="a_node10"><a xlink:href="x86_2qemu_2mpe_8c.html#a2e4a724e2d067425ff3fd49bc0bf42e1" target="_top" xlink:title=" ">
<polygon fill="none" stroke="black" points="92,-9.5 92,-28.5 145,-28.5 145,-9.5 92,-9.5"/>
<text text-anchor="middle" x="118.5" y="-16.5" font-family="Helvetica,sans-Serif" font-size="10.00">mpe_init</text>
</a>
</g>
</g>
<!-- Node1&#45;&gt;Node10 -->
<g id="edge12" class="edge">
<title>Node1&#45;&gt;Node10</title>
<path fill="none" stroke="midnightblue" d="M729.56,-11.84C679.29,-6.46 605.56,0 541,0 541,0 541,0 335.5,0 266.42,0 185.39,-9.76 145.04,-15.29"/>
<polygon fill="midnightblue" stroke="midnightblue" points="729.29,-15.33 739.61,-12.94 730.05,-8.37 729.29,-15.33"/>
</g>
<!-- Node3 -->
<g id="node3" class="node">
<title>Node3</title>
<g id="a_node3"><a xlink:href="x86_2qemu_2trm_8c.html#a483cb97188e557c3c68d3a1572c2cc92" target="_top" xlink:title=" ">
<polygon fill="none" stroke="black" points="524,-28.5 524,-47.5 556,-47.5 556,-28.5 524,-28.5"/>
<text text-anchor="middle" x="540" y="-35.5" font-family="Helvetica,sans-Serif" font-size="10.00">halt</text>
</a>
</g>
</g>
<!-- Node2&#45;&gt;Node3 -->
<g id="edge2" class="edge">
<title>Node2&#45;&gt;Node3</title>
<path fill="none" stroke="midnightblue" d="M581.8,-38C572.32,-38 563.39,-38 556.31,-38"/>
<polygon fill="midnightblue" stroke="midnightblue" points="581.83,-41.5 591.83,-38 581.83,-34.5 581.83,-41.5"/>
</g>
<!-- Node4 -->
<g id="node4" class="node">
<title>Node4</title>
<g id="a_node4"><a xlink:href="input_8c.html#a77413c19d2c314aba317257b3cafb1c7" target="_top" xlink:title=" ">
<polygon fill="none" stroke="black" points="415,-66.5 415,-85.5 488,-85.5 488,-66.5 415,-66.5"/>
<text text-anchor="middle" x="451.5" y="-73.5" font-family="Helvetica,sans-Serif" font-size="10.00">event_thread</text>
</a>
</g>
</g>
<!-- Node3&#45;&gt;Node4 -->
<g id="edge3" class="edge">
<title>Node3&#45;&gt;Node4</title>
<path fill="none" stroke="midnightblue" d="M514.45,-48.79C501.77,-54.36 486.44,-61.09 474.2,-66.47"/>
<polygon fill="midnightblue" stroke="midnightblue" points="516.19,-51.85 523.93,-44.62 513.37,-45.44 516.19,-51.85"/>
</g>
<!-- Node12 -->
<g id="node12" class="node">
<title>Node12</title>
<g id="a_node12"><a xlink:href="platform_8c.html#ab518f1443eb1cdfa46deda54dca8c7fc" target="_top" xlink:title=" ">
<polygon fill="none" stroke="black" points="416.5,-28.5 416.5,-47.5 486.5,-47.5 486.5,-28.5 416.5,-28.5"/>
<text text-anchor="middle" x="451.5" y="-35.5" font-family="Helvetica,sans-Serif" font-size="10.00">init_platform</text>
</a>
</g>
</g>
<!-- Node3&#45;&gt;Node12 -->
<g id="edge11" class="edge">
<title>Node3&#45;&gt;Node12</title>
<path fill="none" stroke="midnightblue" d="M513.93,-38C505.45,-38 495.83,-38 486.76,-38"/>
<polygon fill="midnightblue" stroke="midnightblue" points="513.93,-41.5 523.93,-38 513.93,-34.5 513.93,-41.5"/>
</g>
<!-- Node5 -->
<g id="node5" class="node">
<title>Node5</title>
<g id="a_node5"><a xlink:href="input_8c.html#a02d166c8d2549e580fd16379de9e80f1" target="_top" xlink:title=" ">
<polygon fill="none" stroke="black" points="294,-63.5 294,-82.5 379,-82.5 379,-63.5 294,-63.5"/>
<text text-anchor="middle" x="336.5" y="-70.5" font-family="Helvetica,sans-Serif" font-size="10.00">__am_input_init</text>
</a>
</g>
</g>
<!-- Node4&#45;&gt;Node5 -->
<g id="edge4" class="edge">
<title>Node4&#45;&gt;Node5</title>
<path fill="none" stroke="midnightblue" d="M404.72,-74.78C396.33,-74.56 387.61,-74.33 379.34,-74.11"/>
<polygon fill="midnightblue" stroke="midnightblue" points="404.66,-78.28 414.75,-75.05 404.84,-71.29 404.66,-78.28"/>
</g>
<!-- Node6 -->
<g id="node6" class="node">
<title>Node6</title>
<g id="a_node6"><a xlink:href="native_2ioe_8c.html#a85e8849eae1811aa4fa0527476f39782" target="_top" xlink:title=" ">
<polygon fill="none" stroke="black" points="181,-61.5 181,-80.5 258,-80.5 258,-61.5 181,-61.5"/>
<text text-anchor="middle" x="219.5" y="-68.5" font-family="Helvetica,sans-Serif" font-size="10.00">__am_ioe_init</text>
</a>
</g>
</g>
<!-- Node5&#45;&gt;Node6 -->
<g id="edge5" class="edge">
<title>Node5&#45;&gt;Node6</title>
<path fill="none" stroke="midnightblue" d="M283.92,-72.1C275.24,-71.95 266.38,-71.8 258.14,-71.65"/>
<polygon fill="midnightblue" stroke="midnightblue" points="283.92,-75.6 293.98,-72.28 284.04,-68.6 283.92,-75.6"/>
</g>
<!-- Node7 -->
<g id="node7" class="node">
<title>Node7</title>
<g id="a_node7"><a xlink:href="native_2ioe_8c.html#ac7243d0dd8589da2317ee06ee132c2f0" target="_top" xlink:title=" ">
<polygon fill="none" stroke="black" points="98.5,-61.5 98.5,-80.5 138.5,-80.5 138.5,-61.5 98.5,-61.5"/>
<text text-anchor="middle" x="118.5" y="-68.5" font-family="Helvetica,sans-Serif" font-size="10.00">do_io</text>
</a>
</g>
</g>
<!-- Node6&#45;&gt;Node7 -->
<g id="edge6" class="edge">
<title>Node6&#45;&gt;Node7</title>
<path fill="none" stroke="midnightblue" d="M170.48,-71C159.15,-71 147.72,-71 138.56,-71"/>
<polygon fill="midnightblue" stroke="midnightblue" points="170.79,-74.5 180.79,-71 170.79,-67.5 170.79,-74.5"/>
</g>
<!-- Node6&#45;&gt;Node10 -->
<g id="edge9" class="edge">
<title>Node6&#45;&gt;Node10</title>
<path fill="none" stroke="midnightblue" d="M191.42,-56.78C174.41,-47.84 152.92,-36.55 137.88,-28.65"/>
<polygon fill="midnightblue" stroke="midnightblue" points="189.86,-59.91 200.34,-61.46 193.12,-53.71 189.86,-59.91"/>
</g>
<!-- Node8 -->
<g id="node8" class="node">
<title>Node8</title>
<g id="a_node8"><a xlink:href="x86_2qemu_2ioe_8c.html#a9e4d8844a1b291f3594ac00297a918a4" target="_top" xlink:title=" ">
<polygon fill="none" stroke="black" points="1.5,-94.5 1.5,-113.5 54.5,-113.5 54.5,-94.5 1.5,-94.5"/>
<text text-anchor="middle" x="28" y="-101.5" font-family="Helvetica,sans-Serif" font-size="10.00">ioe_read</text>
</a>
</g>
</g>
<!-- Node7&#45;&gt;Node8 -->
<g id="edge7" class="edge">
<title>Node7&#45;&gt;Node8</title>
<path fill="none" stroke="midnightblue" d="M88.69,-81.74C77.69,-85.84 65.23,-90.49 54.55,-94.47"/>
<polygon fill="midnightblue" stroke="midnightblue" points="90.15,-84.93 98.3,-78.16 87.7,-78.37 90.15,-84.93"/>
</g>
<!-- Node9 -->
<g id="node9" class="node">
<title>Node9</title>
<g id="a_node9"><a xlink:href="x86_2qemu_2ioe_8c.html#ad1964375eeefa10b564a3bf2bd322db0" target="_top" xlink:title=" ">
<polygon fill="none" stroke="black" points="0,-56.5 0,-75.5 56,-75.5 56,-56.5 0,-56.5"/>
<text text-anchor="middle" x="28" y="-63.5" font-family="Helvetica,sans-Serif" font-size="10.00">ioe_write</text>
</a>
</g>
</g>
<!-- Node7&#45;&gt;Node9 -->
<g id="edge8" class="edge">
<title>Node7&#45;&gt;Node9</title>
<path fill="none" stroke="midnightblue" d="M88.12,-69.34C77.83,-68.76 66.33,-68.11 56.22,-67.54"/>
<polygon fill="midnightblue" stroke="midnightblue" points="88.12,-72.85 98.3,-69.92 88.51,-65.86 88.12,-72.85"/>
</g>
<!-- Node11 -->
<g id="node11" class="node">
<title>Node11</title>
<g id="a_node11"><a xlink:href="kernel_2framework_2main_8c.html#ae66f6b31b5ad750f1fe042a706a4e3d4" target="_top" xlink:title=" ">
<polygon fill="none" stroke="black" points="9,-9.5 9,-28.5 47,-28.5 47,-9.5 9,-9.5"/>
<text text-anchor="middle" x="28" y="-16.5" font-family="Helvetica,sans-Serif" font-size="10.00">main</text>
</a>
</g>
</g>
<!-- Node10&#45;&gt;Node11 -->
<g id="edge10" class="edge">
<title>Node10&#45;&gt;Node11</title>
<path fill="none" stroke="midnightblue" d="M81.79,-19C69.93,-19 57.21,-19 47.24,-19"/>
<polygon fill="midnightblue" stroke="midnightblue" points="81.9,-22.5 91.9,-19 81.9,-15.5 81.9,-22.5"/>
</g>
</g>
</svg>
