<?xml version="1.0" encoding="UTF-8" standalone="no"?>
<!DOCTYPE svg PUBLIC "-//W3C//DTD SVG 1.1//EN"
 "http://www.w3.org/Graphics/SVG/1.1/DTD/svg11.dtd">
<!-- Generated by graphviz version 3.0.0 (20220413.0106)
 -->
<!-- Title: print_num Pages: 1 -->
<svg width="778pt" height="142pt"
 viewBox="0.00 0.00 778.00 142.00" xmlns="http://www.w3.org/2000/svg" xmlns:xlink="http://www.w3.org/1999/xlink">
<g id="graph0" class="graph" transform="scale(1 1) rotate(0) translate(4 138)">
<title>print_num</title>
<!-- Node1 -->
<g id="node1" class="node">
<title>Node1</title>
<g id="a_node1"><a xlink:title="print decimal into buffer,return length">
<polygon fill="#bfbfbf" stroke="black" points="711,-76.5 711,-95.5 770,-95.5 770,-76.5 711,-76.5"/>
<text text-anchor="middle" x="740.5" y="-83.5" font-family="Helvetica,sans-Serif" font-size="10.00">print_num</text>
</a>
</g>
</g>
<!-- Node2 -->
<g id="node2" class="node">
<title>Node2</title>
<g id="a_node2"><a xlink:href="stdio_8c.html#abf852e417a205348767989f2940059ad" target="_top" xlink:title="write at most n bytes (including the terminating null byte (&#39;\0&#39;)) to out.">
<polygon fill="none" stroke="black" points="621,-76.5 621,-95.5 675,-95.5 675,-76.5 621,-76.5"/>
<text text-anchor="middle" x="648" y="-83.5" font-family="Helvetica,sans-Serif" font-size="10.00">vsnprintf</text>
</a>
</g>
</g>
<!-- Node1&#45;&gt;Node2 -->
<g id="edge1" class="edge">
<title>Node1&#45;&gt;Node2</title>
<path fill="none" stroke="midnightblue" d="M700.66,-86C692.1,-86 683.23,-86 675.3,-86"/>
<polygon fill="midnightblue" stroke="midnightblue" points="700.87,-89.5 710.87,-86 700.87,-82.5 700.87,-89.5"/>
</g>
<!-- Node3 -->
<g id="node3" class="node">
<title>Node3</title>
<g id="a_node3"><a xlink:href="stdio_8c.html#a01e71b83290d0444ab13988f6d3a7ebd" target="_top" xlink:title=" ">
<polygon fill="none" stroke="black" points="536,-114.5 536,-133.5 585,-133.5 585,-114.5 536,-114.5"/>
<text text-anchor="middle" x="560.5" y="-121.5" font-family="Helvetica,sans-Serif" font-size="10.00">snprintf</text>
</a>
</g>
</g>
<!-- Node2&#45;&gt;Node3 -->
<g id="edge2" class="edge">
<title>Node2&#45;&gt;Node3</title>
<path fill="none" stroke="midnightblue" d="M616.16,-99.71C605.19,-104.58 593.09,-109.96 583.07,-114.41"/>
<polygon fill="midnightblue" stroke="midnightblue" points="617.71,-102.85 625.42,-95.59 614.87,-96.45 617.71,-102.85"/>
</g>
<!-- Node4 -->
<g id="node4" class="node">
<title>Node4</title>
<g id="a_node4"><a xlink:href="stdio_8c.html#addca8d5b24829d42f4a3f2831349a316" target="_top" xlink:title=" ">
<polygon fill="none" stroke="black" points="538.5,-76.5 538.5,-95.5 582.5,-95.5 582.5,-76.5 538.5,-76.5"/>
<text text-anchor="middle" x="560.5" y="-83.5" font-family="Helvetica,sans-Serif" font-size="10.00">sprintf</text>
</a>
</g>
</g>
<!-- Node2&#45;&gt;Node4 -->
<g id="edge3" class="edge">
<title>Node2&#45;&gt;Node4</title>
<path fill="none" stroke="midnightblue" d="M610.73,-86C601.13,-86 591.09,-86 582.59,-86"/>
<polygon fill="midnightblue" stroke="midnightblue" points="610.88,-89.5 620.88,-86 610.88,-82.5 610.88,-89.5"/>
</g>
<!-- Node5 -->
<g id="node5" class="node">
<title>Node5</title>
<g id="a_node5"><a xlink:href="stdio_8c.html#a44a6734c6f8f81d8e1fa3b9d476c5134" target="_top" xlink:title="write bytes (including the terminating null byte (&#39;\0&#39;)) to out.">
<polygon fill="none" stroke="black" points="536,-38.5 536,-57.5 585,-57.5 585,-38.5 536,-38.5"/>
<text text-anchor="middle" x="560.5" y="-45.5" font-family="Helvetica,sans-Serif" font-size="10.00">vsprintf</text>
</a>
</g>
</g>
<!-- Node2&#45;&gt;Node5 -->
<g id="edge4" class="edge">
<title>Node2&#45;&gt;Node5</title>
<path fill="none" stroke="midnightblue" d="M616.16,-72.29C605.19,-67.42 593.09,-62.04 583.07,-57.59"/>
<polygon fill="midnightblue" stroke="midnightblue" points="614.87,-75.55 625.42,-76.41 617.71,-69.15 614.87,-75.55"/>
</g>
<!-- Node6 -->
<g id="node6" class="node">
<title>Node6</title>
<g id="a_node6"><a xlink:href="stdio_8c.html#a55f3d956bb2ba20b5059e9e25484a47f" target="_top" xlink:title=" ">
<polygon fill="none" stroke="black" points="462,-38.5 462,-57.5 500,-57.5 500,-38.5 462,-38.5"/>
<text text-anchor="middle" x="481" y="-45.5" font-family="Helvetica,sans-Serif" font-size="10.00">printf</text>
</a>
</g>
</g>
<!-- Node5&#45;&gt;Node6 -->
<g id="edge5" class="edge">
<title>Node5&#45;&gt;Node6</title>
<path fill="none" stroke="midnightblue" d="M525.55,-48C516.89,-48 507.91,-48 500.37,-48"/>
<polygon fill="midnightblue" stroke="midnightblue" points="525.83,-51.5 535.83,-48 525.83,-44.5 525.83,-51.5"/>
</g>
<!-- Node7 -->
<g id="node7" class="node">
<title>Node7</title>
<g id="a_node7"><a xlink:href="dev__tty_8c.html#a1f58ad55bfbcfcb3de4088f34f76c976" target="_top" xlink:title=" ">
<polygon fill="none" stroke="black" points="336.5,-76.5 336.5,-95.5 408.5,-95.5 408.5,-76.5 336.5,-76.5"/>
<text text-anchor="middle" x="372.5" y="-83.5" font-family="Helvetica,sans-Serif" font-size="10.00">dev_tty_task</text>
</a>
</g>
</g>
<!-- Node6&#45;&gt;Node7 -->
<g id="edge6" class="edge">
<title>Node6&#45;&gt;Node7</title>
<path fill="none" stroke="midnightblue" d="M452.11,-57.95C436.16,-63.64 416.26,-70.74 400.46,-76.38"/>
<polygon fill="midnightblue" stroke="midnightblue" points="453.69,-61.1 461.93,-54.45 451.34,-54.51 453.69,-61.1"/>
</g>
<!-- Node8 -->
<g id="node8" class="node">
<title>Node8</title>
<g id="a_node8"><a xlink:href="kmt_8c.html#a0ac321d3074b24b276695a080e835866" target="_top" xlink:title="print all tasks notice: do not garantee concurrency safety">
<polygon fill="none" stroke="black" points="322,-0.5 322,-19.5 423,-19.5 423,-0.5 322,-0.5"/>
<text text-anchor="middle" x="372.5" y="-7.5" font-family="Helvetica,sans-Serif" font-size="10.00">kmt_print_all_tasks</text>
</a>
</g>
</g>
<!-- Node6&#45;&gt;Node8 -->
<g id="edge7" class="edge">
<title>Node6&#45;&gt;Node8</title>
<path fill="none" stroke="midnightblue" d="M452.11,-38.05C436.16,-32.36 416.26,-25.26 400.46,-19.62"/>
<polygon fill="midnightblue" stroke="midnightblue" points="451.34,-41.49 461.93,-41.55 453.69,-34.9 451.34,-41.49"/>
</g>
<!-- Node13 -->
<g id="node13" class="node">
<title>Node13</title>
<g id="a_node13"><a xlink:href="kmt_8c.html#ac69761d0146d9aacda65da757868d3c7" target="_top" xlink:title="print all current_tasks notice: do not garantee concurrency safety">
<polygon fill="none" stroke="black" points="319,-38.5 319,-57.5 426,-57.5 426,-38.5 319,-38.5"/>
<text text-anchor="middle" x="372.5" y="-45.5" font-family="Helvetica,sans-Serif" font-size="10.00">kmt_print_cpu_tasks</text>
</a>
</g>
</g>
<!-- Node6&#45;&gt;Node13 -->
<g id="edge13" class="edge">
<title>Node6&#45;&gt;Node13</title>
<path fill="none" stroke="midnightblue" d="M451.81,-48C443.88,-48 434.98,-48 426.12,-48"/>
<polygon fill="midnightblue" stroke="midnightblue" points="451.93,-51.5 461.93,-48 451.93,-44.5 451.93,-51.5"/>
</g>
<!-- Node9 -->
<g id="node9" class="node">
<title>Node9</title>
<g id="a_node9"><a xlink:href="kmt_8c.html#ad3fbc643b7b6092120c5152b4c890354" target="_top" xlink:title="handler: handle program errors">
<polygon fill="none" stroke="black" points="215.5,-38.5 215.5,-57.5 273.5,-57.5 273.5,-38.5 215.5,-38.5"/>
<text text-anchor="middle" x="244.5" y="-45.5" font-family="Helvetica,sans-Serif" font-size="10.00">kmt_error</text>
</a>
</g>
</g>
<!-- Node8&#45;&gt;Node9 -->
<g id="edge8" class="edge">
<title>Node8&#45;&gt;Node9</title>
<path fill="none" stroke="midnightblue" d="M330.08,-22.49C311.66,-28.05 290.43,-34.45 273.85,-39.45"/>
<polygon fill="midnightblue" stroke="midnightblue" points="331.14,-25.83 339.7,-19.59 329.12,-19.13 331.14,-25.83"/>
</g>
<!-- Node12 -->
<g id="node12" class="node">
<title>Node12</title>
<g id="a_node12"><a xlink:href="kmt_8c.html#ad4d70b4093829da1c0b0631abdff7747" target="_top" xlink:title="handler: schedule next task to run Notice: this should be the only handler which returns real Context">
<polygon fill="none" stroke="black" points="206,-0.5 206,-19.5 283,-19.5 283,-0.5 206,-0.5"/>
<text text-anchor="middle" x="244.5" y="-7.5" font-family="Helvetica,sans-Serif" font-size="10.00">kmt_schedule</text>
</a>
</g>
</g>
<!-- Node8&#45;&gt;Node12 -->
<g id="edge11" class="edge">
<title>Node8&#45;&gt;Node12</title>
<path fill="none" stroke="midnightblue" d="M311.69,-10C302.02,-10 292.24,-10 283.28,-10"/>
<polygon fill="midnightblue" stroke="midnightblue" points="311.7,-13.5 321.7,-10 311.7,-6.5 311.7,-13.5"/>
</g>
<!-- Node10 -->
<g id="node10" class="node">
<title>Node10</title>
<g id="a_node10"><a xlink:href="kmt_8c.html#a0c68a294cecc4be7cb4b495f15b883a0" target="_top" xlink:title="initialize kmt module">
<polygon fill="none" stroke="black" points="119,-19.5 119,-38.5 170,-38.5 170,-19.5 119,-19.5"/>
<text text-anchor="middle" x="144.5" y="-26.5" font-family="Helvetica,sans-Serif" font-size="10.00">kmt_init</text>
</a>
</g>
</g>
<!-- Node9&#45;&gt;Node10 -->
<g id="edge9" class="edge">
<title>Node9&#45;&gt;Node10</title>
<path fill="none" stroke="midnightblue" d="M205.36,-40.6C193.56,-38.32 180.89,-35.86 170.25,-33.8"/>
<polygon fill="midnightblue" stroke="midnightblue" points="204.93,-44.09 215.42,-42.56 206.27,-37.22 204.93,-44.09"/>
</g>
<!-- Node11 -->
<g id="node11" class="node">
<title>Node11</title>
<g id="a_node11"><a xlink:href="kmt_8c.html#af360ef0d98ca30e481cc58ea3695fd58" target="_top" xlink:title=" ">
<polygon fill="none" stroke="black" points="0,-19.5 0,-38.5 83,-38.5 83,-19.5 0,-19.5"/>
<text text-anchor="middle" x="41.5" y="-26.5" font-family="Helvetica,sans-Serif" font-size="10.00">MODULE_DEF</text>
</a>
</g>
</g>
<!-- Node10&#45;&gt;Node11 -->
<g id="edge10" class="edge">
<title>Node10&#45;&gt;Node11</title>
<path fill="none" stroke="midnightblue" d="M108.74,-29C100.47,-29 91.58,-29 83.08,-29"/>
<polygon fill="midnightblue" stroke="midnightblue" points="108.79,-32.5 118.79,-29 108.79,-25.5 108.79,-32.5"/>
</g>
<!-- Node12&#45;&gt;Node10 -->
<g id="edge12" class="edge">
<title>Node12&#45;&gt;Node10</title>
<path fill="none" stroke="midnightblue" d="M195.91,-19.23C186.99,-20.96 178,-22.7 170.14,-24.22"/>
<polygon fill="midnightblue" stroke="midnightblue" points="196.74,-22.63 205.89,-17.29 195.41,-15.76 196.74,-22.63"/>
</g>
<!-- Node13&#45;&gt;Node9 -->
<g id="edge14" class="edge">
<title>Node13&#45;&gt;Node9</title>
<path fill="none" stroke="midnightblue" d="M308.53,-48C296.27,-48 284,-48 273.6,-48"/>
<polygon fill="midnightblue" stroke="midnightblue" points="308.79,-51.5 318.79,-48 308.79,-44.5 308.79,-51.5"/>
</g>
<!-- Node13&#45;&gt;Node12 -->
<g id="edge15" class="edge">
<title>Node13&#45;&gt;Node12</title>
<path fill="none" stroke="midnightblue" d="M329.94,-35.46C312.79,-30.3 293.25,-24.4 277.28,-19.59"/>
<polygon fill="midnightblue" stroke="midnightblue" points="329.12,-38.87 339.7,-38.41 331.14,-32.17 329.12,-38.87"/>
</g>
</g>
</svg>
