<?xml version="1.0" encoding="UTF-8" standalone="no"?>
<!DOCTYPE svg PUBLIC "-//W3C//DTD SVG 1.1//EN"
 "http://www.w3.org/Graphics/SVG/1.1/DTD/svg11.dtd">
<!-- Generated by graphviz version 2.50.0 (20220203.2022)
 -->
<!-- Title: vsprintf Pages: 1 -->
<svg width="242pt" height="142pt"
 viewBox="0.00 0.00 242.00 142.00" xmlns="http://www.w3.org/2000/svg" xmlns:xlink="http://www.w3.org/1999/xlink">
<g id="graph0" class="graph" transform="scale(1 1) rotate(0) translate(4 138)">
<title>vsprintf</title>
<!-- Node1 -->
<g id="node1" class="node">
<title>Node1</title>
<g id="a_node1"><a xlink:title="write bytes (including the terminating null byte (&#39;\0&#39;)) to out.">
<polygon fill="#bfbfbf" stroke="black" points="0,-57.5 0,-76.5 49,-76.5 49,-57.5 0,-57.5"/>
<text text-anchor="middle" x="24.5" y="-64.5" font-family="Helvetica,sans-Serif" font-size="10.00">vsprintf</text>
</a>
</g>
</g>
<!-- Node2 -->
<g id="node2" class="node">
<title>Node2</title>
<g id="a_node2"><a xlink:href="stdio_8c.html#abf852e417a205348767989f2940059ad" target="_top" xlink:title="write at most n bytes (including the terminating null byte (&#39;\0&#39;)) to out.">
<polygon fill="none" stroke="black" points="85,-57.5 85,-76.5 139,-76.5 139,-57.5 85,-57.5"/>
<text text-anchor="middle" x="112" y="-64.5" font-family="Helvetica,sans-Serif" font-size="10.00">vsnprintf</text>
</a>
</g>
</g>
<!-- Node1&#45;&gt;Node2 -->
<g id="edge1" class="edge">
<title>Node1&#45;&gt;Node2</title>
<path fill="none" stroke="midnightblue" d="M49.32,-67C57.19,-67 66.13,-67 74.71,-67"/>
<polygon fill="midnightblue" stroke="midnightblue" points="74.91,-70.5 84.91,-67 74.91,-63.5 74.91,-70.5"/>
</g>
<!-- Node3 -->
<g id="node3" class="node">
<title>Node3</title>
<g id="a_node3"><a xlink:href="stdio_8c.html#af978fa291399f159cc8d94cb650cef4d" target="_top" xlink:title="print padding char">
<polygon fill="none" stroke="black" points="178,-114.5 178,-133.5 231,-133.5 231,-114.5 178,-114.5"/>
<text text-anchor="middle" x="204.5" y="-121.5" font-family="Helvetica,sans-Serif" font-size="10.00">add_pad</text>
</a>
</g>
</g>
<!-- Node2&#45;&gt;Node3 -->
<g id="edge2" class="edge">
<title>Node2&#45;&gt;Node3</title>
<path fill="none" stroke="midnightblue" d="M128.35,-76.67C142.35,-85.48 163.25,-98.65 179.46,-108.86"/>
<polygon fill="midnightblue" stroke="midnightblue" points="178.05,-112.11 188.37,-114.47 181.78,-106.18 178.05,-112.11"/>
</g>
<!-- Node4 -->
<g id="node4" class="node">
<title>Node4</title>
<g id="a_node4"><a xlink:href="stdio_8c.html#a0e2811092b514de48ac2dd675d6cf2b4" target="_top" xlink:title="print decimal into buffer,return length">
<polygon fill="none" stroke="black" points="175,-76.5 175,-95.5 234,-95.5 234,-76.5 175,-76.5"/>
<text text-anchor="middle" x="204.5" y="-83.5" font-family="Helvetica,sans-Serif" font-size="10.00">print_num</text>
</a>
</g>
</g>
<!-- Node2&#45;&gt;Node4 -->
<g id="edge3" class="edge">
<title>Node2&#45;&gt;Node4</title>
<path fill="none" stroke="midnightblue" d="M139.18,-72.5C147.21,-74.18 156.22,-76.07 164.89,-77.89"/>
<polygon fill="midnightblue" stroke="midnightblue" points="164.34,-81.36 174.85,-79.98 165.78,-74.5 164.34,-81.36"/>
</g>
<!-- Node5 -->
<g id="node5" class="node">
<title>Node5</title>
<g id="a_node5"><a xlink:href="string_8c.html#aa383452fe445bfae989358c9d7d96f4f" target="_top" xlink:title=" ">
<polygon fill="none" stroke="black" points="184,-38.5 184,-57.5 225,-57.5 225,-38.5 184,-38.5"/>
<text text-anchor="middle" x="204.5" y="-45.5" font-family="Helvetica,sans-Serif" font-size="10.00">strlen</text>
</a>
</g>
</g>
<!-- Node2&#45;&gt;Node5 -->
<g id="edge4" class="edge">
<title>Node2&#45;&gt;Node5</title>
<path fill="none" stroke="midnightblue" d="M139.18,-61.5C150.13,-59.21 162.9,-56.52 174.17,-54.16"/>
<polygon fill="midnightblue" stroke="midnightblue" points="174.93,-57.57 184,-52.09 173.49,-50.72 174.93,-57.57"/>
</g>
<!-- Node6 -->
<g id="node6" class="node">
<title>Node6</title>
<g id="a_node6"><a xlink:href="string_8c.html#a82f08f2390a9067f3c94b638e90e03bd" target="_top" xlink:title=" ">
<polygon fill="none" stroke="black" points="180.5,-0.5 180.5,-19.5 228.5,-19.5 228.5,-0.5 180.5,-0.5"/>
<text text-anchor="middle" x="204.5" y="-7.5" font-family="Helvetica,sans-Serif" font-size="10.00">strncpy</text>
</a>
</g>
</g>
<!-- Node2&#45;&gt;Node6 -->
<g id="edge5" class="edge">
<title>Node2&#45;&gt;Node6</title>
<path fill="none" stroke="midnightblue" d="M128.35,-57.33C142.35,-48.52 163.25,-35.35 179.46,-25.14"/>
<polygon fill="midnightblue" stroke="midnightblue" points="181.78,-27.82 188.37,-19.53 178.05,-21.89 181.78,-27.82"/>
</g>
</g>
</svg>
