<?xml version="1.0" encoding="UTF-8" standalone="no"?>
<!DOCTYPE svg PUBLIC "-//W3C//DTD SVG 1.1//EN"
 "http://www.w3.org/Graphics/SVG/1.1/DTD/svg11.dtd">
<!-- Generated by graphviz version 2.50.0 (20220203.2022)
 -->
<!-- Title: abstract&#45;machine/klib/src/stdio.c Pages: 1 -->
<svg width="333pt" height="207pt"
 viewBox="0.00 0.00 332.50 207.00" xmlns="http://www.w3.org/2000/svg" xmlns:xlink="http://www.w3.org/1999/xlink">
<g id="graph0" class="graph" transform="scale(1 1) rotate(0) translate(4 203)">
<title>abstract&#45;machine/klib/src/stdio.c</title>
<!-- Node1 -->
<g id="node1" class="node">
<title>Node1</title>
<g id="a_node1"><a xlink:title=" ">
<polygon fill="#bfbfbf" stroke="black" points="148.5,-168.5 148.5,-198.5 258.5,-198.5 258.5,-168.5 148.5,-168.5"/>
<text text-anchor="start" x="156.5" y="-186.5" font-family="Helvetica,sans-Serif" font-size="10.00">abstract&#45;machine/klib</text>
<text text-anchor="middle" x="203.5" y="-175.5" font-family="Helvetica,sans-Serif" font-size="10.00">/src/stdio.c</text>
</a>
</g>
</g>
<!-- Node2 -->
<g id="node2" class="node">
<title>Node2</title>
<g id="a_node2"><a xlink:href="klib_8h.html" target="_top" xlink:title=" ">
<polygon fill="none" stroke="black" points="102,-112.5 102,-131.5 141,-131.5 141,-112.5 102,-112.5"/>
<text text-anchor="middle" x="121.5" y="-119.5" font-family="Helvetica,sans-Serif" font-size="10.00">klib.h</text>
</a>
</g>
</g>
<!-- Node1&#45;&gt;Node2 -->
<g id="edge1" class="edge">
<title>Node1&#45;&gt;Node2</title>
<path fill="none" stroke="midnightblue" d="M184.07,-168.4C171.29,-159.13 154.61,-147.03 141.69,-137.65"/>
<polygon fill="midnightblue" stroke="midnightblue" points="143.58,-134.7 133.43,-131.66 139.47,-140.36 143.58,-134.7"/>
</g>
<!-- Node6 -->
<g id="node6" class="node">
<title>Node6</title>
<g id="a_node6"><a xlink:title=" ">
<polygon fill="none" stroke="#bfbfbf" points="207.5,-0.5 207.5,-19.5 263.5,-19.5 263.5,-0.5 207.5,-0.5"/>
<text text-anchor="middle" x="235.5" y="-7.5" font-family="Helvetica,sans-Serif" font-size="10.00">stdbool.h</text>
</a>
</g>
</g>
<!-- Node1&#45;&gt;Node6 -->
<g id="edge11" class="edge">
<title>Node1&#45;&gt;Node6</title>
<path fill="none" stroke="midnightblue" d="M206.12,-168.47C211.86,-137.7 225.55,-64.33 232.01,-29.7"/>
<polygon fill="midnightblue" stroke="midnightblue" points="235.51,-30.03 233.9,-19.56 228.63,-28.75 235.51,-30.03"/>
</g>
<!-- Node8 -->
<g id="node8" class="node">
<title>Node8</title>
<g id="a_node8"><a xlink:title=" ">
<polygon fill="none" stroke="#bfbfbf" points="143,-56.5 143,-75.5 194,-75.5 194,-56.5 143,-56.5"/>
<text text-anchor="middle" x="168.5" y="-63.5" font-family="Helvetica,sans-Serif" font-size="10.00">stdarg.h</text>
</a>
</g>
</g>
<!-- Node1&#45;&gt;Node8 -->
<g id="edge10" class="edge">
<title>Node1&#45;&gt;Node8</title>
<path fill="none" stroke="midnightblue" d="M199.21,-168.34C192.87,-147.43 181.02,-108.31 174.04,-85.27"/>
<polygon fill="midnightblue" stroke="midnightblue" points="177.38,-84.22 171.13,-75.67 170.68,-86.25 177.38,-84.22"/>
</g>
<!-- Node9 -->
<g id="node9" class="node">
<title>Node9</title>
<g id="a_node9"><a xlink:href="klib-macros_8h.html" target="_top" xlink:title=" ">
<polygon fill="none" stroke="black" points="250.5,-112.5 250.5,-131.5 324.5,-131.5 324.5,-112.5 250.5,-112.5"/>
<text text-anchor="middle" x="287.5" y="-119.5" font-family="Helvetica,sans-Serif" font-size="10.00">klib&#45;macros.h</text>
</a>
</g>
</g>
<!-- Node1&#45;&gt;Node9 -->
<g id="edge9" class="edge">
<title>Node1&#45;&gt;Node9</title>
<path fill="none" stroke="midnightblue" d="M223.41,-168.4C236.49,-159.13 253.58,-147.03 266.82,-137.65"/>
<polygon fill="midnightblue" stroke="midnightblue" points="269.14,-140.29 275.28,-131.66 265.09,-134.58 269.14,-140.29"/>
</g>
<!-- Node3 -->
<g id="node3" class="node">
<title>Node3</title>
<g id="a_node3"><a xlink:href="am_8h.html" target="_top" xlink:title=" ">
<polygon fill="none" stroke="black" points="86.5,-56.5 86.5,-75.5 124.5,-75.5 124.5,-56.5 86.5,-56.5"/>
<text text-anchor="middle" x="105.5" y="-63.5" font-family="Helvetica,sans-Serif" font-size="10.00">am.h</text>
</a>
</g>
</g>
<!-- Node2&#45;&gt;Node3 -->
<g id="edge2" class="edge">
<title>Node2&#45;&gt;Node3</title>
<path fill="none" stroke="midnightblue" d="M118.86,-112.08C116.71,-104.85 113.62,-94.41 110.95,-85.4"/>
<polygon fill="midnightblue" stroke="midnightblue" points="114.29,-84.34 108.09,-75.75 107.58,-86.33 114.29,-84.34"/>
</g>
<!-- Node5 -->
<g id="node5" class="node">
<title>Node5</title>
<g id="a_node5"><a xlink:title=" ">
<polygon fill="none" stroke="#bfbfbf" points="0,-0.5 0,-19.5 51,-19.5 51,-0.5 0,-0.5"/>
<text text-anchor="middle" x="25.5" y="-7.5" font-family="Helvetica,sans-Serif" font-size="10.00">stddef.h</text>
</a>
</g>
</g>
<!-- Node2&#45;&gt;Node5 -->
<g id="edge7" class="edge">
<title>Node2&#45;&gt;Node5</title>
<path fill="none" stroke="midnightblue" d="M112.47,-112.28C103.38,-103.4 89.09,-89.09 77.5,-76 63.49,-60.17 48.52,-41.22 38.25,-27.87"/>
<polygon fill="midnightblue" stroke="midnightblue" points="40.82,-25.46 31.97,-19.63 35.25,-29.71 40.82,-25.46"/>
</g>
<!-- Node2&#45;&gt;Node8 -->
<g id="edge8" class="edge">
<title>Node2&#45;&gt;Node8</title>
<path fill="none" stroke="midnightblue" d="M129.26,-112.08C136.04,-104.3 146.04,-92.8 154.26,-83.37"/>
<polygon fill="midnightblue" stroke="midnightblue" points="156.96,-85.59 160.88,-75.75 151.68,-81 156.96,-85.59"/>
</g>
<!-- Node4 -->
<g id="node4" class="node">
<title>Node4</title>
<g id="a_node4"><a xlink:title=" ">
<polygon fill="none" stroke="#bfbfbf" points="69.5,-0.5 69.5,-19.5 117.5,-19.5 117.5,-0.5 69.5,-0.5"/>
<text text-anchor="middle" x="93.5" y="-7.5" font-family="Helvetica,sans-Serif" font-size="10.00">stdint.h</text>
</a>
</g>
</g>
<!-- Node3&#45;&gt;Node4 -->
<g id="edge3" class="edge">
<title>Node3&#45;&gt;Node4</title>
<path fill="none" stroke="midnightblue" d="M103.52,-56.08C101.93,-48.93 99.64,-38.64 97.65,-29.69"/>
<polygon fill="midnightblue" stroke="midnightblue" points="101.03,-28.75 95.44,-19.75 94.2,-30.27 101.03,-28.75"/>
</g>
<!-- Node3&#45;&gt;Node5 -->
<g id="edge4" class="edge">
<title>Node3&#45;&gt;Node5</title>
<path fill="none" stroke="midnightblue" d="M92.65,-56.32C80.28,-47.98 61.37,-35.21 46.76,-25.35"/>
<polygon fill="midnightblue" stroke="midnightblue" points="48.57,-22.35 38.32,-19.65 44.65,-28.15 48.57,-22.35"/>
</g>
<!-- Node3&#45;&gt;Node6 -->
<g id="edge5" class="edge">
<title>Node3&#45;&gt;Node6</title>
<path fill="none" stroke="midnightblue" d="M124.68,-57.03C146.01,-48.17 180.72,-33.76 205.61,-23.42"/>
<polygon fill="midnightblue" stroke="midnightblue" points="207.06,-26.6 214.95,-19.54 204.37,-20.14 207.06,-26.6"/>
</g>
<!-- Node7 -->
<g id="node7" class="node">
<title>Node7</title>
<g id="a_node7"><a xlink:href="amdev_8h.html" target="_top" xlink:title=" ">
<polygon fill="none" stroke="black" points="136,-0.5 136,-19.5 189,-19.5 189,-0.5 136,-0.5"/>
<text text-anchor="middle" x="162.5" y="-7.5" font-family="Helvetica,sans-Serif" font-size="10.00">amdev.h</text>
</a>
</g>
</g>
<!-- Node3&#45;&gt;Node7 -->
<g id="edge6" class="edge">
<title>Node3&#45;&gt;Node7</title>
<path fill="none" stroke="midnightblue" d="M114.66,-56.32C123,-48.42 135.53,-36.55 145.68,-26.94"/>
<polygon fill="midnightblue" stroke="midnightblue" points="148.32,-29.25 153.18,-19.83 143.51,-24.17 148.32,-29.25"/>
</g>
</g>
</svg>
