<?xml version="1.0" encoding="UTF-8" standalone="no"?>
<!DOCTYPE svg PUBLIC "-//W3C//DTD SVG 1.1//EN"
 "http://www.w3.org/Graphics/SVG/1.1/DTD/svg11.dtd">
<!-- Generated by graphviz version 2.50.0 (20220203.2022)
 -->
<!-- Title: vsprintf Pages: 1 -->
<svg width="229pt" height="104pt"
 viewBox="0.00 0.00 229.00 104.00" xmlns="http://www.w3.org/2000/svg" xmlns:xlink="http://www.w3.org/1999/xlink">
<g id="graph0" class="graph" transform="scale(1 1) rotate(0) translate(4 100)">
<title>vsprintf</title>
<!-- Node1 -->
<g id="node1" class="node">
<title>Node1</title>
<g id="a_node1"><a xlink:title=" ">
<polygon fill="#bfbfbf" stroke="black" points="0,-38.5 0,-57.5 49,-57.5 49,-38.5 0,-38.5"/>
<text text-anchor="middle" x="24.5" y="-45.5" font-family="Helvetica,sans-Serif" font-size="10.00">vsprintf</text>
</a>
</g>
</g>
<!-- Node2 -->
<g id="node2" class="node">
<title>Node2</title>
<g id="a_node2"><a xlink:href="string_8c.html#a9517a4a50477f651785c09b27826d8ce" target="_top" xlink:title=" ">
<polygon fill="none" stroke="black" points="94,-76.5 94,-95.5 135,-95.5 135,-76.5 94,-76.5"/>
<text text-anchor="middle" x="114.5" y="-83.5" font-family="Helvetica,sans-Serif" font-size="10.00">strcat</text>
</a>
</g>
</g>
<!-- Node1&#45;&gt;Node2 -->
<g id="edge1" class="edge">
<title>Node1&#45;&gt;Node2</title>
<path fill="none" stroke="midnightblue" d="M47.71,-57.59C58.96,-62.45 72.75,-68.4 84.79,-73.6"/>
<polygon fill="midnightblue" stroke="midnightblue" points="83.43,-76.83 94,-77.58 86.2,-70.4 83.43,-76.83"/>
</g>
<!-- Node3 -->
<g id="node3" class="node">
<title>Node3</title>
<g id="a_node3"><a xlink:href="string_8c.html#aa383452fe445bfae989358c9d7d96f4f" target="_top" xlink:title=" ">
<polygon fill="none" stroke="black" points="180,-57.5 180,-76.5 221,-76.5 221,-57.5 180,-57.5"/>
<text text-anchor="middle" x="200.5" y="-64.5" font-family="Helvetica,sans-Serif" font-size="10.00">strlen</text>
</a>
</g>
</g>
<!-- Node1&#45;&gt;Node3 -->
<g id="edge3" class="edge">
<title>Node1&#45;&gt;Node3</title>
<path fill="none" stroke="midnightblue" d="M49.33,-50.6C80.66,-54.02 135.69,-60.03 169.73,-63.75"/>
<polygon fill="midnightblue" stroke="midnightblue" points="169.66,-67.26 179.98,-64.87 170.42,-60.3 169.66,-67.26"/>
</g>
<!-- Node4 -->
<g id="node4" class="node">
<title>Node4</title>
<g id="a_node4"><a xlink:href="stdio_8c.html#a8a0e94b5b0c2a000751f94fd7a5c0071" target="_top" xlink:title=" ">
<polygon fill="none" stroke="black" points="85,-0.5 85,-19.5 144,-19.5 144,-0.5 85,-0.5"/>
<text text-anchor="middle" x="114.5" y="-7.5" font-family="Helvetica,sans-Serif" font-size="10.00">vprintf_int</text>
</a>
</g>
</g>
<!-- Node1&#45;&gt;Node4 -->
<g id="edge4" class="edge">
<title>Node1&#45;&gt;Node4</title>
<path fill="none" stroke="midnightblue" d="M47.71,-38.41C58.13,-33.91 70.73,-28.47 82.11,-23.56"/>
<polygon fill="midnightblue" stroke="midnightblue" points="83.51,-26.76 91.3,-19.59 80.73,-20.34 83.51,-26.76"/>
</g>
<!-- Node2&#45;&gt;Node3 -->
<g id="edge2" class="edge">
<title>Node2&#45;&gt;Node3</title>
<path fill="none" stroke="midnightblue" d="M135.41,-81.5C145.66,-79.18 158.37,-76.3 169.76,-73.73"/>
<polygon fill="midnightblue" stroke="midnightblue" points="170.75,-77.09 179.74,-71.47 169.21,-70.26 170.75,-77.09"/>
</g>
</g>
</svg>
