<?xml version="1.0" encoding="UTF-8" standalone="no"?>
<!DOCTYPE svg PUBLIC "-//W3C//DTD SVG 1.1//EN"
 "http://www.w3.org/Graphics/SVG/1.1/DTD/svg11.dtd">
<!-- Generated by graphviz version 2.50.0 (20220203.2022)
 -->
<!-- Title: printf Pages: 1 -->
<svg width="710pt" height="199pt"
 viewBox="0.00 0.00 710.00 199.00" xmlns="http://www.w3.org/2000/svg" xmlns:xlink="http://www.w3.org/1999/xlink">
<g id="graph0" class="graph" transform="scale(1 1) rotate(0) translate(4 195)">
<title>printf</title>
<!-- Node1 -->
<g id="node1" class="node">
<title>Node1</title>
<g id="a_node1"><a xlink:title=" ">
<polygon fill="#bfbfbf" stroke="black" points="664,-38.5 664,-57.5 702,-57.5 702,-38.5 664,-38.5"/>
<text text-anchor="middle" x="683" y="-45.5" font-family="Helvetica,sans-Serif" font-size="10.00">printf</text>
</a>
</g>
</g>
<!-- Node2 -->
<g id="node2" class="node">
<title>Node2</title>
<g id="a_node2"><a xlink:href="x86_2qemu_2trm_8c.html#a483cb97188e557c3c68d3a1572c2cc92" target="_top" xlink:title=" ">
<polygon fill="none" stroke="black" points="581.5,-95.5 581.5,-114.5 613.5,-114.5 613.5,-95.5 581.5,-95.5"/>
<text text-anchor="middle" x="597.5" y="-102.5" font-family="Helvetica,sans-Serif" font-size="10.00">halt</text>
</a>
</g>
</g>
<!-- Node1&#45;&gt;Node2 -->
<g id="edge1" class="edge">
<title>Node1&#45;&gt;Node2</title>
<path fill="none" stroke="midnightblue" d="M659.15,-63.59C644.21,-73.79 625.18,-86.79 612.46,-95.47"/>
<polygon fill="midnightblue" stroke="midnightblue" points="661.55,-66.2 667.84,-57.67 657.6,-60.42 661.55,-66.2"/>
</g>
<!-- Node14 -->
<g id="node14" class="node">
<title>Node14</title>
<g id="a_node14"><a xlink:href="native_2cte_8c.html#a9c8dd258011eaecff60c4a7e53717e53" target="_top" xlink:title=" ">
<polygon fill="none" stroke="black" points="567,-38.5 567,-57.5 628,-57.5 628,-38.5 567,-38.5"/>
<text text-anchor="middle" x="597.5" y="-45.5" font-family="Helvetica,sans-Serif" font-size="10.00">irq_handle</text>
</a>
</g>
</g>
<!-- Node1&#45;&gt;Node14 -->
<g id="edge13" class="edge">
<title>Node1&#45;&gt;Node14</title>
<path fill="none" stroke="midnightblue" d="M653.63,-48C645.39,-48 636.38,-48 628.07,-48"/>
<polygon fill="midnightblue" stroke="midnightblue" points="653.88,-51.5 663.88,-48 653.88,-44.5 653.88,-51.5"/>
</g>
<!-- Node19 -->
<g id="node19" class="node">
<title>Node19</title>
<g id="a_node19"><a xlink:href="pmm_8c.html#a393796678826afd801058312f851ca43" target="_top" xlink:title=" ">
<polygon fill="none" stroke="black" points="569.5,-0.5 569.5,-19.5 625.5,-19.5 625.5,-0.5 569.5,-0.5"/>
<text text-anchor="middle" x="597.5" y="-7.5" font-family="Helvetica,sans-Serif" font-size="10.00">pmm_init</text>
</a>
</g>
</g>
<!-- Node1&#45;&gt;Node19 -->
<g id="edge18" class="edge">
<title>Node1&#45;&gt;Node19</title>
<path fill="none" stroke="midnightblue" d="M654.75,-35.6C643.31,-30.39 630.21,-24.43 619.53,-19.57"/>
<polygon fill="midnightblue" stroke="midnightblue" points="653.33,-38.8 663.88,-39.75 656.23,-32.43 653.33,-38.8"/>
</g>
<!-- Node3 -->
<g id="node3" class="node">
<title>Node3</title>
<g id="a_node3"><a xlink:href="x86_2qemu_2trm_8c.html#a12a49ff4d3a586b2315e292c5da3df7e" target="_top" xlink:title=" ">
<polygon fill="none" stroke="black" points="460.5,-152.5 460.5,-171.5 518.5,-171.5 518.5,-152.5 460.5,-152.5"/>
<text text-anchor="middle" x="489.5" y="-159.5" font-family="Helvetica,sans-Serif" font-size="10.00">call_main</text>
</a>
</g>
</g>
<!-- Node2&#45;&gt;Node3 -->
<g id="edge2" class="edge">
<title>Node2&#45;&gt;Node3</title>
<path fill="none" stroke="midnightblue" d="M572.62,-119.53C560.33,-126.83 545.02,-135.66 531,-143 524.81,-146.24 517.96,-149.55 511.69,-152.48"/>
<polygon fill="midnightblue" stroke="midnightblue" points="574.58,-122.43 581.36,-114.29 570.98,-116.43 574.58,-122.43"/>
</g>
<!-- Node5 -->
<g id="node5" class="node">
<title>Node5</title>
<g id="a_node5"><a xlink:href="input_8c.html#a77413c19d2c314aba317257b3cafb1c7" target="_top" xlink:title=" ">
<polygon fill="none" stroke="black" points="453,-114.5 453,-133.5 526,-133.5 526,-114.5 453,-114.5"/>
<text text-anchor="middle" x="489.5" y="-121.5" font-family="Helvetica,sans-Serif" font-size="10.00">event_thread</text>
</a>
</g>
</g>
<!-- Node2&#45;&gt;Node5 -->
<g id="edge4" class="edge">
<title>Node2&#45;&gt;Node5</title>
<path fill="none" stroke="midnightblue" d="M571.33,-109.51C557.87,-111.92 541.06,-114.94 526.26,-117.59"/>
<polygon fill="midnightblue" stroke="midnightblue" points="572.09,-112.93 581.31,-107.72 570.85,-106.04 572.09,-112.93"/>
</g>
<!-- Node13 -->
<g id="node13" class="node">
<title>Node13</title>
<g id="a_node13"><a xlink:href="platform_8c.html#ab518f1443eb1cdfa46deda54dca8c7fc" target="_top" xlink:title=" ">
<polygon fill="none" stroke="black" points="454.5,-76.5 454.5,-95.5 524.5,-95.5 524.5,-76.5 454.5,-76.5"/>
<text text-anchor="middle" x="489.5" y="-83.5" font-family="Helvetica,sans-Serif" font-size="10.00">init_platform</text>
</a>
</g>
</g>
<!-- Node2&#45;&gt;Node13 -->
<g id="edge12" class="edge">
<title>Node2&#45;&gt;Node13</title>
<path fill="none" stroke="midnightblue" d="M571.07,-100.44C557.24,-97.96 539.94,-94.86 524.92,-92.17"/>
<polygon fill="midnightblue" stroke="midnightblue" points="570.85,-103.96 581.31,-102.28 572.09,-97.07 570.85,-103.96"/>
</g>
<!-- Node4 -->
<g id="node4" class="node">
<title>Node4</title>
<g id="a_node4"><a xlink:href="x86_2qemu_2trm_8c.html#a54a85aeee6f6a8ef875d4cca663f9fd8" target="_top" xlink:title=" ">
<polygon fill="none" stroke="black" points="343.5,-152.5 343.5,-171.5 395.5,-171.5 395.5,-152.5 343.5,-152.5"/>
<text text-anchor="middle" x="369.5" y="-159.5" font-family="Helvetica,sans-Serif" font-size="10.00">_start_c</text>
</a>
</g>
</g>
<!-- Node3&#45;&gt;Node4 -->
<g id="edge3" class="edge">
<title>Node3&#45;&gt;Node4</title>
<path fill="none" stroke="midnightblue" d="M450.12,-162C432.28,-162 411.55,-162 395.72,-162"/>
<polygon fill="midnightblue" stroke="midnightblue" points="450.24,-165.5 460.24,-162 450.24,-158.5 450.24,-165.5"/>
</g>
<!-- Node6 -->
<g id="node6" class="node">
<title>Node6</title>
<g id="a_node6"><a xlink:href="input_8c.html#a02d166c8d2549e580fd16379de9e80f1" target="_top" xlink:title=" ">
<polygon fill="none" stroke="black" points="327,-114.5 327,-133.5 412,-133.5 412,-114.5 327,-114.5"/>
<text text-anchor="middle" x="369.5" y="-121.5" font-family="Helvetica,sans-Serif" font-size="10.00">__am_input_init</text>
</a>
</g>
</g>
<!-- Node5&#45;&gt;Node6 -->
<g id="edge5" class="edge">
<title>Node5&#45;&gt;Node6</title>
<path fill="none" stroke="midnightblue" d="M442.62,-124C432.64,-124 422.13,-124 412.32,-124"/>
<polygon fill="midnightblue" stroke="midnightblue" points="442.78,-127.5 452.78,-124 442.78,-120.5 442.78,-127.5"/>
</g>
<!-- Node7 -->
<g id="node7" class="node">
<title>Node7</title>
<g id="a_node7"><a xlink:href="native_2ioe_8c.html#a85e8849eae1811aa4fa0527476f39782" target="_top" xlink:title=" ">
<polygon fill="none" stroke="black" points="197.5,-114.5 197.5,-133.5 274.5,-133.5 274.5,-114.5 197.5,-114.5"/>
<text text-anchor="middle" x="236" y="-121.5" font-family="Helvetica,sans-Serif" font-size="10.00">__am_ioe_init</text>
</a>
</g>
</g>
<!-- Node6&#45;&gt;Node7 -->
<g id="edge6" class="edge">
<title>Node6&#45;&gt;Node7</title>
<path fill="none" stroke="midnightblue" d="M316.87,-124C302.83,-124 287.89,-124 274.77,-124"/>
<polygon fill="midnightblue" stroke="midnightblue" points="316.89,-127.5 326.89,-124 316.89,-120.5 316.89,-127.5"/>
</g>
<!-- Node8 -->
<g id="node8" class="node">
<title>Node8</title>
<g id="a_node8"><a xlink:href="native_2ioe_8c.html#ac7243d0dd8589da2317ee06ee132c2f0" target="_top" xlink:title=" ">
<polygon fill="none" stroke="black" points="98.5,-133.5 98.5,-152.5 138.5,-152.5 138.5,-133.5 98.5,-133.5"/>
<text text-anchor="middle" x="118.5" y="-140.5" font-family="Helvetica,sans-Serif" font-size="10.00">do_io</text>
</a>
</g>
</g>
<!-- Node7&#45;&gt;Node8 -->
<g id="edge7" class="edge">
<title>Node7&#45;&gt;Node8</title>
<path fill="none" stroke="midnightblue" d="M187.3,-131.85C170.19,-134.66 151.87,-137.67 138.59,-139.86"/>
<polygon fill="midnightblue" stroke="midnightblue" points="187.88,-135.3 197.18,-130.22 186.75,-128.39 187.88,-135.3"/>
</g>
<!-- Node11 -->
<g id="node11" class="node">
<title>Node11</title>
<g id="a_node11"><a xlink:href="x86_2qemu_2mpe_8c.html#a2e4a724e2d067425ff3fd49bc0bf42e1" target="_top" xlink:title=" ">
<polygon fill="none" stroke="black" points="92,-95.5 92,-114.5 145,-114.5 145,-95.5 92,-95.5"/>
<text text-anchor="middle" x="118.5" y="-102.5" font-family="Helvetica,sans-Serif" font-size="10.00">mpe_init</text>
</a>
</g>
</g>
<!-- Node7&#45;&gt;Node11 -->
<g id="edge10" class="edge">
<title>Node7&#45;&gt;Node11</title>
<path fill="none" stroke="midnightblue" d="M186.99,-116.1C172.72,-113.75 157.63,-111.27 145.35,-109.25"/>
<polygon fill="midnightblue" stroke="midnightblue" points="186.75,-119.61 197.18,-117.78 187.88,-112.7 186.75,-119.61"/>
</g>
<!-- Node9 -->
<g id="node9" class="node">
<title>Node9</title>
<g id="a_node9"><a xlink:href="x86_2qemu_2ioe_8c.html#a9e4d8844a1b291f3594ac00297a918a4" target="_top" xlink:title=" ">
<polygon fill="none" stroke="black" points="1.5,-171.5 1.5,-190.5 54.5,-190.5 54.5,-171.5 1.5,-171.5"/>
<text text-anchor="middle" x="28" y="-178.5" font-family="Helvetica,sans-Serif" font-size="10.00">ioe_read</text>
</a>
</g>
</g>
<!-- Node8&#45;&gt;Node9 -->
<g id="edge8" class="edge">
<title>Node8&#45;&gt;Node9</title>
<path fill="none" stroke="midnightblue" d="M88.98,-155.24C76.77,-160.49 62.72,-166.52 51.29,-171.43"/>
<polygon fill="midnightblue" stroke="midnightblue" points="90.49,-158.41 98.3,-151.25 87.73,-151.97 90.49,-158.41"/>
</g>
<!-- Node10 -->
<g id="node10" class="node">
<title>Node10</title>
<g id="a_node10"><a xlink:href="x86_2qemu_2ioe_8c.html#ad1964375eeefa10b564a3bf2bd322db0" target="_top" xlink:title=" ">
<polygon fill="none" stroke="black" points="0,-133.5 0,-152.5 56,-152.5 56,-133.5 0,-133.5"/>
<text text-anchor="middle" x="28" y="-140.5" font-family="Helvetica,sans-Serif" font-size="10.00">ioe_write</text>
</a>
</g>
</g>
<!-- Node8&#45;&gt;Node10 -->
<g id="edge9" class="edge">
<title>Node8&#45;&gt;Node10</title>
<path fill="none" stroke="midnightblue" d="M88.12,-143C77.83,-143 66.33,-143 56.22,-143"/>
<polygon fill="midnightblue" stroke="midnightblue" points="88.3,-146.5 98.3,-143 88.3,-139.5 88.3,-146.5"/>
</g>
<!-- Node12 -->
<g id="node12" class="node">
<title>Node12</title>
<g id="a_node12"><a xlink:href="kernel_2framework_2main_8c.html#ae66f6b31b5ad750f1fe042a706a4e3d4" target="_top" xlink:title=" ">
<polygon fill="none" stroke="black" points="9,-95.5 9,-114.5 47,-114.5 47,-95.5 9,-95.5"/>
<text text-anchor="middle" x="28" y="-102.5" font-family="Helvetica,sans-Serif" font-size="10.00">main</text>
</a>
</g>
</g>
<!-- Node11&#45;&gt;Node12 -->
<g id="edge11" class="edge">
<title>Node11&#45;&gt;Node12</title>
<path fill="none" stroke="midnightblue" d="M81.79,-105C69.93,-105 57.21,-105 47.24,-105"/>
<polygon fill="midnightblue" stroke="midnightblue" points="81.9,-108.5 91.9,-105 81.9,-101.5 81.9,-108.5"/>
</g>
<!-- Node15 -->
<g id="node15" class="node">
<title>Node15</title>
<g id="a_node15"><a xlink:href="native_2cte_8c.html#a3f025af92181d8eee1f3aedb2ab8314a" target="_top" xlink:title=" ">
<polygon fill="none" stroke="black" points="454.5,-38.5 454.5,-57.5 524.5,-57.5 524.5,-38.5 454.5,-38.5"/>
<text text-anchor="middle" x="489.5" y="-45.5" font-family="Helvetica,sans-Serif" font-size="10.00">setup_stack</text>
</a>
</g>
</g>
<!-- Node14&#45;&gt;Node15 -->
<g id="edge14" class="edge">
<title>Node14&#45;&gt;Node15</title>
<path fill="none" stroke="midnightblue" d="M556.76,-48C546.23,-48 534.95,-48 524.74,-48"/>
<polygon fill="midnightblue" stroke="midnightblue" points="556.97,-51.5 566.97,-48 556.97,-44.5 556.97,-51.5"/>
</g>
<!-- Node16 -->
<g id="node16" class="node">
<title>Node16</title>
<g id="a_node16"><a xlink:href="native_2cte_8c.html#a15554d17d092b4dd626a77142f89ae02" target="_top" xlink:title=" ">
<polygon fill="none" stroke="black" points="336.5,-38.5 336.5,-57.5 402.5,-57.5 402.5,-38.5 336.5,-38.5"/>
<text text-anchor="middle" x="369.5" y="-45.5" font-family="Helvetica,sans-Serif" font-size="10.00">sig_handler</text>
</a>
</g>
</g>
<!-- Node15&#45;&gt;Node16 -->
<g id="edge15" class="edge">
<title>Node15&#45;&gt;Node16</title>
<path fill="none" stroke="midnightblue" d="M444.08,-48C430.27,-48 415.32,-48 402.53,-48"/>
<polygon fill="midnightblue" stroke="midnightblue" points="444.37,-51.5 454.37,-48 444.37,-44.5 444.37,-51.5"/>
</g>
<!-- Node17 -->
<g id="node17" class="node">
<title>Node17</title>
<g id="a_node17"><a xlink:href="native_2cte_8c.html#a86b2b6fbda4e793f71ac4b12b85a9d74" target="_top" xlink:title=" ">
<polygon fill="none" stroke="black" points="181,-38.5 181,-57.5 291,-57.5 291,-38.5 181,-38.5"/>
<text text-anchor="middle" x="236" y="-45.5" font-family="Helvetica,sans-Serif" font-size="10.00">install_signal_handler</text>
</a>
</g>
</g>
<!-- Node16&#45;&gt;Node17 -->
<g id="edge16" class="edge">
<title>Node16&#45;&gt;Node17</title>
<path fill="none" stroke="midnightblue" d="M326.03,-48C314.91,-48 302.77,-48 291.13,-48"/>
<polygon fill="midnightblue" stroke="midnightblue" points="326.33,-51.5 336.33,-48 326.33,-44.5 326.33,-51.5"/>
</g>
<!-- Node18 -->
<g id="node18" class="node">
<title>Node18</title>
<g id="a_node18"><a xlink:href="native_2cte_8c.html#a14d86719abbc247f8a0dd5eb2662ea88" target="_top" xlink:title=" ">
<polygon fill="none" stroke="black" points="94.5,-38.5 94.5,-57.5 142.5,-57.5 142.5,-38.5 94.5,-38.5"/>
<text text-anchor="middle" x="118.5" y="-45.5" font-family="Helvetica,sans-Serif" font-size="10.00">cte_init</text>
</a>
</g>
</g>
<!-- Node17&#45;&gt;Node18 -->
<g id="edge17" class="edge">
<title>Node17&#45;&gt;Node18</title>
<path fill="none" stroke="midnightblue" d="M170.84,-48C160.75,-48 150.92,-48 142.61,-48"/>
<polygon fill="midnightblue" stroke="midnightblue" points="170.97,-51.5 180.97,-48 170.97,-44.5 170.97,-51.5"/>
</g>
<!-- Node20 -->
<g id="node20" class="node">
<title>Node20</title>
<g id="a_node20"><a xlink:href="pmm_8c.html#a7ada9deb0ae8705f2cc158b0283aaeb3" target="_top" xlink:title=" ">
<polygon fill="none" stroke="black" points="448,-0.5 448,-19.5 531,-19.5 531,-0.5 448,-0.5"/>
<text text-anchor="middle" x="489.5" y="-7.5" font-family="Helvetica,sans-Serif" font-size="10.00">MODULE_DEF</text>
</a>
</g>
</g>
<!-- Node19&#45;&gt;Node20 -->
<g id="edge19" class="edge">
<title>Node19&#45;&gt;Node20</title>
<path fill="none" stroke="midnightblue" d="M559.19,-10C550.1,-10 540.33,-10 531.09,-10"/>
<polygon fill="midnightblue" stroke="midnightblue" points="559.48,-13.5 569.48,-10 559.48,-6.5 559.48,-13.5"/>
</g>
</g>
</svg>
