<?xml version="1.0" encoding="UTF-8" standalone="no"?>
<!DOCTYPE svg PUBLIC "-//W3C//DTD SVG 1.1//EN"
 "http://www.w3.org/Graphics/SVG/1.1/DTD/svg11.dtd">
<!-- Generated by graphviz version 3.0.0 (20220413.0106)
 -->
<!-- Title: sprintf Pages: 1 -->
<svg width="237pt" height="104pt"
 viewBox="0.00 0.00 237.00 104.00" xmlns="http://www.w3.org/2000/svg" xmlns:xlink="http://www.w3.org/1999/xlink">
<g id="graph0" class="graph" transform="scale(1 1) rotate(0) translate(4 100)">
<title>sprintf</title>
<!-- Node1 -->
<g id="node1" class="node">
<title>Node1</title>
<g id="a_node1"><a xlink:title=" ">
<polygon fill="#bfbfbf" stroke="black" points="0,-38.5 0,-57.5 44,-57.5 44,-38.5 0,-38.5"/>
<text text-anchor="middle" x="22" y="-45.5" font-family="Helvetica,sans-Serif" font-size="10.00">sprintf</text>
</a>
</g>
</g>
<!-- Node2 -->
<g id="node2" class="node">
<title>Node2</title>
<g id="a_node2"><a xlink:href="stdio_8c.html#abf852e417a205348767989f2940059ad" target="_top" xlink:title="write at most n bytes (including the terminating null byte (&#39;\0&#39;)) to out.">
<polygon fill="none" stroke="black" points="80,-38.5 80,-57.5 134,-57.5 134,-38.5 80,-38.5"/>
<text text-anchor="middle" x="107" y="-45.5" font-family="Helvetica,sans-Serif" font-size="10.00">vsnprintf</text>
</a>
</g>
</g>
<!-- Node1&#45;&gt;Node2 -->
<g id="edge1" class="edge">
<title>Node1&#45;&gt;Node2</title>
<path fill="none" stroke="midnightblue" d="M44.37,-48C52.09,-48 61.03,-48 69.67,-48"/>
<polygon fill="midnightblue" stroke="midnightblue" points="69.96,-51.5 79.96,-48 69.96,-44.5 69.96,-51.5"/>
</g>
<!-- Node3 -->
<g id="node3" class="node">
<title>Node3</title>
<g id="a_node3"><a xlink:href="stdio_8c.html#a0e2811092b514de48ac2dd675d6cf2b4" target="_top" xlink:title="print decimal into buffer,return length">
<polygon fill="none" stroke="black" points="170,-76.5 170,-95.5 229,-95.5 229,-76.5 170,-76.5"/>
<text text-anchor="middle" x="199.5" y="-83.5" font-family="Helvetica,sans-Serif" font-size="10.00">print_num</text>
</a>
</g>
</g>
<!-- Node2&#45;&gt;Node3 -->
<g id="edge2" class="edge">
<title>Node2&#45;&gt;Node3</title>
<path fill="none" stroke="midnightblue" d="M130.84,-57.59C141.56,-62.09 154.52,-67.53 166.22,-72.44"/>
<polygon fill="midnightblue" stroke="midnightblue" points="165.1,-75.77 175.67,-76.41 167.81,-69.32 165.1,-75.77"/>
</g>
<!-- Node4 -->
<g id="node4" class="node">
<title>Node4</title>
<g id="a_node4"><a xlink:href="string_8c.html#aa383452fe445bfae989358c9d7d96f4f" target="_top" xlink:title=" ">
<polygon fill="none" stroke="black" points="179,-38.5 179,-57.5 220,-57.5 220,-38.5 179,-38.5"/>
<text text-anchor="middle" x="199.5" y="-45.5" font-family="Helvetica,sans-Serif" font-size="10.00">strlen</text>
</a>
</g>
</g>
<!-- Node2&#45;&gt;Node4 -->
<g id="edge3" class="edge">
<title>Node2&#45;&gt;Node4</title>
<path fill="none" stroke="midnightblue" d="M134.18,-48C145.02,-48 157.64,-48 168.82,-48"/>
<polygon fill="midnightblue" stroke="midnightblue" points="169,-51.5 179,-48 169,-44.5 169,-51.5"/>
</g>
<!-- Node5 -->
<g id="node5" class="node">
<title>Node5</title>
<g id="a_node5"><a xlink:href="string_8c.html#a82f08f2390a9067f3c94b638e90e03bd" target="_top" xlink:title=" ">
<polygon fill="none" stroke="black" points="175.5,-0.5 175.5,-19.5 223.5,-19.5 223.5,-0.5 175.5,-0.5"/>
<text text-anchor="middle" x="199.5" y="-7.5" font-family="Helvetica,sans-Serif" font-size="10.00">strncpy</text>
</a>
</g>
</g>
<!-- Node2&#45;&gt;Node5 -->
<g id="edge4" class="edge">
<title>Node2&#45;&gt;Node5</title>
<path fill="none" stroke="midnightblue" d="M130.84,-38.41C141.56,-33.91 154.52,-28.47 166.22,-23.56"/>
<polygon fill="midnightblue" stroke="midnightblue" points="167.81,-26.68 175.67,-19.59 165.1,-20.23 167.81,-26.68"/>
</g>
</g>
</svg>
