<?xml version="1.0" encoding="UTF-8" standalone="no"?>
<!DOCTYPE svg PUBLIC "-//W3C//DTD SVG 1.1//EN"
 "http://www.w3.org/Graphics/SVG/1.1/DTD/svg11.dtd">
<!-- Generated by graphviz version 3.0.0 (20220413.0106)
 -->
<!-- Title: memcpy Pages: 1 -->
<svg width="458pt" height="218pt"
 viewBox="0.00 0.00 458.00 218.00" xmlns="http://www.w3.org/2000/svg" xmlns:xlink="http://www.w3.org/1999/xlink">
<g id="graph0" class="graph" transform="scale(1 1) rotate(0) translate(4 214)">
<title>memcpy</title>
<!-- Node1 -->
<g id="node1" class="node">
<title>Node1</title>
<g id="a_node1"><a xlink:title=" ">
<polygon fill="#bfbfbf" stroke="black" points="397,-95.5 397,-114.5 450,-114.5 450,-95.5 397,-95.5"/>
<text text-anchor="middle" x="423.5" y="-102.5" font-family="Helvetica,sans-Serif" font-size="10.00">memcpy</text>
</a>
</g>
</g>
<!-- Node2 -->
<g id="node2" class="node">
<title>Node2</title>
<g id="a_node2"><a xlink:href="dev__video_8c.html#ae9bd1d049fba60d5f35784d0a36d94b7" target="_top" xlink:title=" ">
<polygon fill="none" stroke="black" points="305.5,-190.5 305.5,-209.5 354.5,-209.5 354.5,-190.5 305.5,-190.5"/>
<text text-anchor="middle" x="330" y="-197.5" font-family="Helvetica,sans-Serif" font-size="10.00">fb_read</text>
</a>
</g>
</g>
<!-- Node1&#45;&gt;Node2 -->
<g id="edge1" class="edge">
<title>Node1&#45;&gt;Node2</title>
<path fill="none" stroke="midnightblue" d="M410.25,-123.36C398.77,-139.7 380.5,-163.64 361,-181 357.13,-184.44 352.57,-187.67 348.19,-190.46"/>
<polygon fill="midnightblue" stroke="midnightblue" points="413.4,-124.95 416.18,-114.72 407.63,-120.99 413.4,-124.95"/>
</g>
<!-- Node3 -->
<g id="node3" class="node">
<title>Node3</title>
<g id="a_node3"><a xlink:href="dev__video_8c.html#acc528703e027e52c83497e76547e81ab" target="_top" xlink:title=" ">
<polygon fill="none" stroke="black" points="304.5,-152.5 304.5,-171.5 355.5,-171.5 355.5,-152.5 304.5,-152.5"/>
<text text-anchor="middle" x="330" y="-159.5" font-family="Helvetica,sans-Serif" font-size="10.00">fb_write</text>
</a>
</g>
</g>
<!-- Node1&#45;&gt;Node3 -->
<g id="edge2" class="edge">
<title>Node1&#45;&gt;Node3</title>
<path fill="none" stroke="midnightblue" d="M398.39,-120.02C381.88,-130.3 360.5,-143.62 346.29,-152.47"/>
<polygon fill="midnightblue" stroke="midnightblue" points="400.34,-122.93 406.98,-114.67 396.64,-116.99 400.34,-122.93"/>
</g>
<!-- Node4 -->
<g id="node4" class="node">
<title>Node4</title>
<g id="a_node4"><a xlink:href="dev__input_8c.html#a2f2891d43ea0e16665846cab3babb09b" target="_top" xlink:title=" ">
<polygon fill="none" stroke="black" points="299,-114.5 299,-133.5 361,-133.5 361,-114.5 299,-114.5"/>
<text text-anchor="middle" x="330" y="-121.5" font-family="Helvetica,sans-Serif" font-size="10.00">input_read</text>
</a>
</g>
</g>
<!-- Node1&#45;&gt;Node4 -->
<g id="edge3" class="edge">
<title>Node1&#45;&gt;Node4</title>
<path fill="none" stroke="midnightblue" d="M386.6,-112.45C378.21,-114.2 369.36,-116.03 361.25,-117.72"/>
<polygon fill="midnightblue" stroke="midnightblue" points="387.45,-115.85 396.52,-110.39 386.02,-109 387.45,-115.85"/>
</g>
<!-- Node5 -->
<g id="node5" class="node">
<title>Node5</title>
<g id="a_node5"><a xlink:href="string_8c.html#a340d11725e5c81a874f508fbcdf1c5ef" target="_top" xlink:title=" ">
<polygon fill="none" stroke="black" points="299,-76.5 299,-95.5 361,-95.5 361,-76.5 299,-76.5"/>
<text text-anchor="middle" x="330" y="-83.5" font-family="Helvetica,sans-Serif" font-size="10.00">memmove</text>
</a>
</g>
</g>
<!-- Node1&#45;&gt;Node5 -->
<g id="edge4" class="edge">
<title>Node1&#45;&gt;Node5</title>
<path fill="none" stroke="midnightblue" d="M386.6,-97.55C378.21,-95.8 369.36,-93.97 361.25,-92.28"/>
<polygon fill="midnightblue" stroke="midnightblue" points="386.02,-101 396.52,-99.61 387.45,-94.15 386.02,-101"/>
</g>
<!-- Node9 -->
<g id="node9" class="node">
<title>Node9</title>
<g id="a_node9"><a xlink:href="dev__sd_8c.html#abbf8c6b69fd4e170e3a65d53b48fcb06" target="_top" xlink:title=" ">
<polygon fill="none" stroke="black" points="304.5,-38.5 304.5,-57.5 355.5,-57.5 355.5,-38.5 304.5,-38.5"/>
<text text-anchor="middle" x="330" y="-45.5" font-family="Helvetica,sans-Serif" font-size="10.00">sd_read</text>
</a>
</g>
</g>
<!-- Node1&#45;&gt;Node9 -->
<g id="edge8" class="edge">
<title>Node1&#45;&gt;Node9</title>
<path fill="none" stroke="midnightblue" d="M398.39,-89.98C381.88,-79.7 360.5,-66.38 346.29,-57.53"/>
<polygon fill="midnightblue" stroke="midnightblue" points="396.64,-93.01 406.98,-95.33 400.34,-87.07 396.64,-93.01"/>
</g>
<!-- Node10 -->
<g id="node10" class="node">
<title>Node10</title>
<g id="a_node10"><a xlink:href="dev__sd_8c.html#add1fc26b4b806831d0df3b44deaf038d" target="_top" xlink:title=" ">
<polygon fill="none" stroke="black" points="303.5,-0.5 303.5,-19.5 356.5,-19.5 356.5,-0.5 303.5,-0.5"/>
<text text-anchor="middle" x="330" y="-7.5" font-family="Helvetica,sans-Serif" font-size="10.00">sd_write</text>
</a>
</g>
</g>
<!-- Node1&#45;&gt;Node10 -->
<g id="edge9" class="edge">
<title>Node1&#45;&gt;Node10</title>
<path fill="none" stroke="midnightblue" d="M410.25,-86.64C398.77,-70.3 380.5,-46.36 361,-29 357.13,-25.56 352.57,-22.33 348.19,-19.54"/>
<polygon fill="midnightblue" stroke="midnightblue" points="407.63,-89.01 416.18,-95.28 413.4,-85.05 407.63,-89.01"/>
</g>
<!-- Node6 -->
<g id="node6" class="node">
<title>Node6</title>
<g id="a_node6"><a xlink:href="dev__tty_8c.html#a1584ccd219e503d6285c92af3eb3541c" target="_top" xlink:title=" ">
<polygon fill="none" stroke="black" points="176,-76.5 176,-95.5 263,-95.5 263,-76.5 176,-76.5"/>
<text text-anchor="middle" x="219.5" y="-83.5" font-family="Helvetica,sans-Serif" font-size="10.00">tty_upd_scrollup</text>
</a>
</g>
</g>
<!-- Node5&#45;&gt;Node6 -->
<g id="edge5" class="edge">
<title>Node5&#45;&gt;Node6</title>
<path fill="none" stroke="midnightblue" d="M288.57,-86C280.27,-86 271.51,-86 263.13,-86"/>
<polygon fill="midnightblue" stroke="midnightblue" points="288.78,-89.5 298.78,-86 288.78,-82.5 288.78,-89.5"/>
</g>
<!-- Node7 -->
<g id="node7" class="node">
<title>Node7</title>
<g id="a_node7"><a xlink:href="dev__tty_8c.html#a09778962f56d0dd224c418f33c1a58f9" target="_top" xlink:title=" ">
<polygon fill="none" stroke="black" points="89,-76.5 89,-95.5 140,-95.5 140,-76.5 89,-76.5"/>
<text text-anchor="middle" x="114.5" y="-83.5" font-family="Helvetica,sans-Serif" font-size="10.00">tty_putc</text>
</a>
</g>
</g>
<!-- Node6&#45;&gt;Node7 -->
<g id="edge6" class="edge">
<title>Node6&#45;&gt;Node7</title>
<path fill="none" stroke="midnightblue" d="M165.65,-86C156.7,-86 147.81,-86 140.05,-86"/>
<polygon fill="midnightblue" stroke="midnightblue" points="165.71,-89.5 175.71,-86 165.71,-82.5 165.71,-89.5"/>
</g>
<!-- Node8 -->
<g id="node8" class="node">
<title>Node8</title>
<g id="a_node8"><a xlink:href="dev__tty_8c.html#a755a85e188e1ece8c73f0b8001895e79" target="_top" xlink:title=" ">
<polygon fill="none" stroke="black" points="0,-76.5 0,-95.5 53,-95.5 53,-76.5 0,-76.5"/>
<text text-anchor="middle" x="26.5" y="-83.5" font-family="Helvetica,sans-Serif" font-size="10.00">tty_write</text>
</a>
</g>
</g>
<!-- Node7&#45;&gt;Node8 -->
<g id="edge7" class="edge">
<title>Node7&#45;&gt;Node8</title>
<path fill="none" stroke="midnightblue" d="M78.59,-86C70.1,-86 61.18,-86 53.22,-86"/>
<polygon fill="midnightblue" stroke="midnightblue" points="78.63,-89.5 88.63,-86 78.63,-82.5 78.63,-89.5"/>
</g>
</g>
</svg>
