<?xml version="1.0" encoding="UTF-8" standalone="no"?>
<!DOCTYPE svg PUBLIC "-//W3C//DTD SVG 1.1//EN"
 "http://www.w3.org/Graphics/SVG/1.1/DTD/svg11.dtd">
<!-- Generated by graphviz version 2.50.0 (20220203.2022)
 -->
<!-- Title: strlen Pages: 1 -->
<svg width="509pt" height="123pt"
 viewBox="0.00 0.00 509.00 123.00" xmlns="http://www.w3.org/2000/svg" xmlns:xlink="http://www.w3.org/1999/xlink">
<g id="graph0" class="graph" transform="scale(1 1) rotate(0) translate(4 119)">
<title>strlen</title>
<!-- Node1 -->
<g id="node1" class="node">
<title>Node1</title>
<g id="a_node1"><a xlink:title=" ">
<polygon fill="#bfbfbf" stroke="black" points="460,-76.5 460,-95.5 501,-95.5 501,-76.5 460,-76.5"/>
<text text-anchor="middle" x="480.5" y="-83.5" font-family="Helvetica,sans-Serif" font-size="10.00">strlen</text>
</a>
</g>
</g>
<!-- Node2 -->
<g id="node2" class="node">
<title>Node2</title>
<g id="a_node2"><a xlink:href="string_8c.html#a9517a4a50477f651785c09b27826d8ce" target="_top" xlink:title=" ">
<polygon fill="none" stroke="black" points="376.5,-95.5 376.5,-114.5 417.5,-114.5 417.5,-95.5 376.5,-95.5"/>
<text text-anchor="middle" x="397" y="-102.5" font-family="Helvetica,sans-Serif" font-size="10.00">strcat</text>
</a>
</g>
</g>
<!-- Node1&#45;&gt;Node2 -->
<g id="edge1" class="edge">
<title>Node1&#45;&gt;Node2</title>
<path fill="none" stroke="midnightblue" d="M449.9,-92.9C439.13,-95.41 427.23,-98.19 417.55,-100.44"/>
<polygon fill="midnightblue" stroke="midnightblue" points="450.83,-96.28 459.77,-90.6 449.24,-89.46 450.83,-96.28"/>
</g>
<!-- Node3 -->
<g id="node3" class="node">
<title>Node3</title>
<g id="a_node3"><a xlink:href="stdio_8c.html#abf852e417a205348767989f2940059ad" target="_top" xlink:title="write at most n bytes (including the terminating null byte (&#39;\0&#39;)) to out.">
<polygon fill="none" stroke="black" points="370,-57.5 370,-76.5 424,-76.5 424,-57.5 370,-57.5"/>
<text text-anchor="middle" x="397" y="-64.5" font-family="Helvetica,sans-Serif" font-size="10.00">vsnprintf</text>
</a>
</g>
</g>
<!-- Node1&#45;&gt;Node3 -->
<g id="edge2" class="edge">
<title>Node1&#45;&gt;Node3</title>
<path fill="none" stroke="midnightblue" d="M449.89,-79.1C441.42,-77.12 432.26,-74.99 424.02,-73.07"/>
<polygon fill="midnightblue" stroke="midnightblue" points="449.24,-82.54 459.77,-81.4 450.83,-75.72 449.24,-82.54"/>
</g>
<!-- Node4 -->
<g id="node4" class="node">
<title>Node4</title>
<g id="a_node4"><a xlink:href="stdio_8c.html#a01e71b83290d0444ab13988f6d3a7ebd" target="_top" xlink:title=" ">
<polygon fill="none" stroke="black" points="285,-95.5 285,-114.5 334,-114.5 334,-95.5 285,-95.5"/>
<text text-anchor="middle" x="309.5" y="-102.5" font-family="Helvetica,sans-Serif" font-size="10.00">snprintf</text>
</a>
</g>
</g>
<!-- Node3&#45;&gt;Node4 -->
<g id="edge3" class="edge">
<title>Node3&#45;&gt;Node4</title>
<path fill="none" stroke="midnightblue" d="M365.16,-80.71C354.19,-85.58 342.09,-90.96 332.07,-95.41"/>
<polygon fill="midnightblue" stroke="midnightblue" points="366.71,-83.85 374.42,-76.59 363.87,-77.45 366.71,-83.85"/>
</g>
<!-- Node5 -->
<g id="node5" class="node">
<title>Node5</title>
<g id="a_node5"><a xlink:href="stdio_8c.html#addca8d5b24829d42f4a3f2831349a316" target="_top" xlink:title=" ">
<polygon fill="none" stroke="black" points="287.5,-57.5 287.5,-76.5 331.5,-76.5 331.5,-57.5 287.5,-57.5"/>
<text text-anchor="middle" x="309.5" y="-64.5" font-family="Helvetica,sans-Serif" font-size="10.00">sprintf</text>
</a>
</g>
</g>
<!-- Node3&#45;&gt;Node5 -->
<g id="edge4" class="edge">
<title>Node3&#45;&gt;Node5</title>
<path fill="none" stroke="midnightblue" d="M359.73,-67C350.13,-67 340.09,-67 331.59,-67"/>
<polygon fill="midnightblue" stroke="midnightblue" points="359.88,-70.5 369.88,-67 359.88,-63.5 359.88,-70.5"/>
</g>
<!-- Node6 -->
<g id="node6" class="node">
<title>Node6</title>
<g id="a_node6"><a xlink:href="stdio_8c.html#a44a6734c6f8f81d8e1fa3b9d476c5134" target="_top" xlink:title="write bytes (including the terminating null byte (&#39;\0&#39;)) to out.">
<polygon fill="none" stroke="black" points="285,-19.5 285,-38.5 334,-38.5 334,-19.5 285,-19.5"/>
<text text-anchor="middle" x="309.5" y="-26.5" font-family="Helvetica,sans-Serif" font-size="10.00">vsprintf</text>
</a>
</g>
</g>
<!-- Node3&#45;&gt;Node6 -->
<g id="edge5" class="edge">
<title>Node3&#45;&gt;Node6</title>
<path fill="none" stroke="midnightblue" d="M365.16,-53.29C354.19,-48.42 342.09,-43.04 332.07,-38.59"/>
<polygon fill="midnightblue" stroke="midnightblue" points="363.87,-56.55 374.42,-57.41 366.71,-50.15 363.87,-56.55"/>
</g>
<!-- Node7 -->
<g id="node7" class="node">
<title>Node7</title>
<g id="a_node7"><a xlink:href="stdio_8c.html#a55f3d956bb2ba20b5059e9e25484a47f" target="_top" xlink:title=" ">
<polygon fill="none" stroke="black" points="211,-19.5 211,-38.5 249,-38.5 249,-19.5 211,-19.5"/>
<text text-anchor="middle" x="230" y="-26.5" font-family="Helvetica,sans-Serif" font-size="10.00">printf</text>
</a>
</g>
</g>
<!-- Node6&#45;&gt;Node7 -->
<g id="edge6" class="edge">
<title>Node6&#45;&gt;Node7</title>
<path fill="none" stroke="midnightblue" d="M274.55,-29C265.89,-29 256.91,-29 249.37,-29"/>
<polygon fill="midnightblue" stroke="midnightblue" points="274.83,-32.5 284.83,-29 274.83,-25.5 274.83,-32.5"/>
</g>
<!-- Node8 -->
<g id="node8" class="node">
<title>Node8</title>
<g id="a_node8"><a xlink:href="os_8c.html#a5f9cb32664e017ca15c49ec66e5342e4" target="_top" xlink:title=" ">
<polygon fill="none" stroke="black" points="124,-38.5 124,-57.5 170,-57.5 170,-38.5 124,-38.5"/>
<text text-anchor="middle" x="147" y="-45.5" font-family="Helvetica,sans-Serif" font-size="10.00">os_run</text>
</a>
</g>
</g>
<!-- Node7&#45;&gt;Node8 -->
<g id="edge7" class="edge">
<title>Node7&#45;&gt;Node8</title>
<path fill="none" stroke="midnightblue" d="M200.67,-35.64C190.63,-38 179.49,-40.61 170.05,-42.83"/>
<polygon fill="midnightblue" stroke="midnightblue" points="201.68,-39 210.62,-33.31 200.08,-32.19 201.68,-39"/>
</g>
<!-- Node10 -->
<g id="node10" class="node">
<title>Node10</title>
<g id="a_node10"><a xlink:href="pmm_8c.html#a393796678826afd801058312f851ca43" target="_top" xlink:title=" ">
<polygon fill="none" stroke="black" points="119,-0.5 119,-19.5 175,-19.5 175,-0.5 119,-0.5"/>
<text text-anchor="middle" x="147" y="-7.5" font-family="Helvetica,sans-Serif" font-size="10.00">pmm_init</text>
</a>
</g>
</g>
<!-- Node7&#45;&gt;Node10 -->
<g id="edge9" class="edge">
<title>Node7&#45;&gt;Node10</title>
<path fill="none" stroke="midnightblue" d="M200.68,-22.36C192.42,-20.42 183.41,-18.31 175.23,-16.39"/>
<polygon fill="midnightblue" stroke="midnightblue" points="200.08,-25.81 210.62,-24.69 201.68,-19 200.08,-25.81"/>
</g>
<!-- Node9 -->
<g id="node9" class="node">
<title>Node9</title>
<g id="a_node9"><a xlink:href="os_8c.html#aafec7046aa50c914df86d0d22d4fc1d1" target="_top" xlink:title=" ">
<polygon fill="none" stroke="black" points="0,-38.5 0,-57.5 83,-57.5 83,-38.5 0,-38.5"/>
<text text-anchor="middle" x="41.5" y="-45.5" font-family="Helvetica,sans-Serif" font-size="10.00">MODULE_DEF</text>
</a>
</g>
</g>
<!-- Node8&#45;&gt;Node9 -->
<g id="edge8" class="edge">
<title>Node8&#45;&gt;Node9</title>
<path fill="none" stroke="midnightblue" d="M113.75,-48C104.03,-48 93.23,-48 83.04,-48"/>
<polygon fill="midnightblue" stroke="midnightblue" points="113.8,-51.5 123.8,-48 113.8,-44.5 113.8,-51.5"/>
</g>
<!-- Node11 -->
<g id="node11" class="node">
<title>Node11</title>
<g id="a_node11"><a xlink:href="pmm_8c.html#a7ada9deb0ae8705f2cc158b0283aaeb3" target="_top" xlink:title=" ">
<polygon fill="none" stroke="black" points="0,-0.5 0,-19.5 83,-19.5 83,-0.5 0,-0.5"/>
<text text-anchor="middle" x="41.5" y="-7.5" font-family="Helvetica,sans-Serif" font-size="10.00">MODULE_DEF</text>
</a>
</g>
</g>
<!-- Node10&#45;&gt;Node11 -->
<g id="edge10" class="edge">
<title>Node10&#45;&gt;Node11</title>
<path fill="none" stroke="midnightblue" d="M108.67,-10C100.38,-10 91.56,-10 83.15,-10"/>
<polygon fill="midnightblue" stroke="midnightblue" points="108.81,-13.5 118.81,-10 108.81,-6.5 108.81,-13.5"/>
</g>
</g>
</svg>
