<?xml version="1.0" encoding="UTF-8" standalone="no"?>
<!DOCTYPE svg PUBLIC "-//W3C//DTD SVG 1.1//EN"
 "http://www.w3.org/Graphics/SVG/1.1/DTD/svg11.dtd">
<!-- Generated by graphviz version 3.0.0 (20220413.0106)
 -->
<!-- Title: page Pages: 1 -->
<svg width="103pt" height="164pt"
 viewBox="0.00 0.00 103.00 164.00" xmlns="http://www.w3.org/2000/svg" xmlns:xlink="http://www.w3.org/1999/xlink">
<g id="graph0" class="graph" transform="scale(1 1) rotate(0) translate(4 160)">
<title>page</title>
<!-- Node1 -->
<g id="node1" class="node">
<title>Node1</title>
<g id="a_node1"><a xlink:title="page metadata">
<polygon fill="#bfbfbf" stroke="black" points="9,-0.5 9,-19.5 47,-19.5 47,-0.5 9,-0.5"/>
<text text-anchor="middle" x="28" y="-7.5" font-family="Helvetica,sans-Serif" font-size="10.00">page</text>
</a>
</g>
</g>
<!-- Node2 -->
<g id="node2" class="node">
<title>Node2</title>
<g id="a_node2"><a xlink:href="structchunk.html" target="_top" xlink:title="chunk structure in buddy system">
<polygon fill="none" stroke="black" points="6.5,-67.5 6.5,-86.5 49.5,-86.5 49.5,-67.5 6.5,-67.5"/>
<text text-anchor="middle" x="28" y="-74.5" font-family="Helvetica,sans-Serif" font-size="10.00">chunk</text>
</a>
</g>
</g>
<!-- Node2&#45;&gt;Node1 -->
<g id="edge1" class="edge">
<title>Node2&#45;&gt;Node1</title>
<path fill="none" stroke="#9a32cd" stroke-dasharray="5,2" d="M28,-57.04C28,-44.67 28,-29.12 28,-19.63"/>
<polygon fill="#9a32cd" stroke="#9a32cd" points="24.5,-57.23 28,-67.23 31.5,-57.23 24.5,-57.23"/>
<text text-anchor="middle" x="45" y="-41" font-family="Helvetica,sans-Serif" font-size="10.00"> _chunk</text>
</g>
<!-- Node3 -->
<g id="node3" class="node">
<title>Node3</title>
<g id="a_node3"><a xlink:href="structlist__head.html" target="_top" xlink:title=" ">
<polygon fill="none" stroke="black" points="0,-135.5 0,-154.5 56,-154.5 56,-135.5 0,-135.5"/>
<text text-anchor="middle" x="28" y="-142.5" font-family="Helvetica,sans-Serif" font-size="10.00">list_head</text>
</a>
</g>
</g>
<!-- Node3&#45;&gt;Node2 -->
<g id="edge2" class="edge">
<title>Node3&#45;&gt;Node2</title>
<path fill="none" stroke="#9a32cd" stroke-dasharray="5,2" d="M28,-125.04C28,-112.47 28,-96.56 28,-86.84"/>
<polygon fill="#9a32cd" stroke="#9a32cd" points="24.5,-125.37 28,-135.37 31.5,-125.37 24.5,-125.37"/>
<text text-anchor="middle" x="40" y="-108" font-family="Helvetica,sans-Serif" font-size="10.00"> node</text>
</g>
<!-- Node3&#45;&gt;Node3 -->
<g id="edge3" class="edge">
<title>Node3&#45;&gt;Node3</title>
<path fill="none" stroke="#9a32cd" stroke-dasharray="5,2" d="M66.55,-150.45C71.06,-149.45 74,-147.63 74,-145 74,-140.68 66.09,-138.56 56.3,-138.63"/>
<polygon fill="#9a32cd" stroke="#9a32cd" points="65.94,-146.99 56.3,-151.37 66.57,-153.96 65.94,-146.99"/>
<text text-anchor="middle" x="84.5" y="-148" font-family="Helvetica,sans-Serif" font-size="10.00"> next</text>
<text text-anchor="middle" x="84.5" y="-137" font-family="Helvetica,sans-Serif" font-size="10.00">prev</text>
</g>
</g>
</svg>
