<?xml version="1.0" encoding="UTF-8" standalone="no"?>
<!DOCTYPE svg PUBLIC "-//W3C//DTD SVG 1.1//EN"
 "http://www.w3.org/Graphics/SVG/1.1/DTD/svg11.dtd">
<!-- Generated by graphviz version 2.50.0 (20220203.2022)
 -->
<!-- Title: VMHead Pages: 1 -->
<svg width="105pt" height="95pt"
 viewBox="0.00 0.00 105.00 95.00" xmlns="http://www.w3.org/2000/svg" xmlns:xlink="http://www.w3.org/1999/xlink">
<g id="graph0" class="graph" transform="scale(1 1) rotate(0) translate(4 91)">
<title>VMHead</title>
<!-- Node1 -->
<g id="node1" class="node">
<title>Node1</title>
<g id="a_node1"><a xlink:title=" ">
<polygon fill="#bfbfbf" stroke="black" points="1.5,-0.5 1.5,-19.5 56.5,-19.5 56.5,-0.5 1.5,-0.5"/>
<text text-anchor="middle" x="29" y="-7.5" font-family="Helvetica,sans-Serif" font-size="10.00">VMHead</text>
</a>
</g>
</g>
<!-- Node2 -->
<g id="node2" class="node">
<title>Node2</title>
<g id="a_node2"><a xlink:href="struct_page_map.html" target="_top" xlink:title=" ">
<polygon fill="none" stroke="black" points="0,-67.5 0,-86.5 58,-86.5 58,-67.5 0,-67.5"/>
<text text-anchor="middle" x="29" y="-74.5" font-family="Helvetica,sans-Serif" font-size="10.00">PageMap</text>
</a>
</g>
</g>
<!-- Node2&#45;&gt;Node1 -->
<g id="edge1" class="edge">
<title>Node2&#45;&gt;Node1</title>
<path fill="none" stroke="#9a32cd" stroke-dasharray="5,2" d="M29,-57.04C29,-44.67 29,-29.12 29,-19.63"/>
<polygon fill="#9a32cd" stroke="#9a32cd" points="25.5,-57.23 29,-67.23 32.5,-57.23 25.5,-57.23"/>
<text text-anchor="middle" x="41" y="-41" font-family="Helvetica,sans-Serif" font-size="10.00"> head</text>
</g>
<!-- Node2&#45;&gt;Node2 -->
<g id="edge2" class="edge">
<title>Node2&#45;&gt;Node2</title>
<path fill="none" stroke="#9a32cd" stroke-dasharray="5,2" d="M68.6,-82.08C73.09,-81.13 76,-79.44 76,-77 76,-73 68.17,-71 58.38,-71"/>
<polygon fill="#9a32cd" stroke="#9a32cd" points="68.02,-78.62 58.38,-83 68.65,-85.59 68.02,-78.62"/>
<text text-anchor="middle" x="86.5" y="-74.5" font-family="Helvetica,sans-Serif" font-size="10.00"> next</text>
</g>
</g>
</svg>
