<?xml version="1.0" encoding="UTF-8" standalone="no"?>
<!DOCTYPE svg PUBLIC "-//W3C//DTD SVG 1.1//EN"
 "http://www.w3.org/Graphics/SVG/1.1/DTD/svg11.dtd">
<!-- Generated by graphviz version 3.0.0 (20220413.0106)
 -->
<!-- Title: tty_t Pages: 1 -->
<svg width="347pt" height="184pt"
 viewBox="0.00 0.00 347.00 184.00" xmlns="http://www.w3.org/2000/svg" xmlns:xlink="http://www.w3.org/1999/xlink">
<g id="graph0" class="graph" transform="scale(1 1) rotate(0) translate(4 180)">
<title>tty_t</title>
<!-- Node1 -->
<g id="node1" class="node">
<title>Node1</title>
<g id="a_node1"><a xlink:title=" ">
<polygon fill="#bfbfbf" stroke="black" points="157,-0.5 157,-19.5 192,-19.5 192,-0.5 157,-0.5"/>
<text text-anchor="middle" x="174.5" y="-7.5" font-family="Helvetica,sans-Serif" font-size="10.00">tty_t</text>
</a>
</g>
</g>
<!-- Node2 -->
<g id="node2" class="node">
<title>Node2</title>
<g id="a_node2"><a xlink:href="structsemaphore.html" target="_top" xlink:title=" ">
<polygon fill="none" stroke="black" points="0,-89.5 0,-108.5 65,-108.5 65,-89.5 0,-89.5"/>
<text text-anchor="middle" x="32.5" y="-96.5" font-family="Helvetica,sans-Serif" font-size="10.00">semaphore</text>
</a>
</g>
</g>
<!-- Node2&#45;&gt;Node1 -->
<g id="edge1" class="edge">
<title>Node2&#45;&gt;Node1</title>
<path fill="none" stroke="#9a32cd" stroke-dasharray="5,2" d="M43.04,-80.84C52.17,-67.34 66.56,-49.03 83.5,-38 106.28,-23.16 137.5,-16.23 156.82,-13.18"/>
<polygon fill="#9a32cd" stroke="#9a32cd" points="40.09,-78.96 37.59,-89.26 45.96,-82.77 40.09,-78.96"/>
<text text-anchor="middle" x="100.5" y="-57.5" font-family="Helvetica,sans-Serif" font-size="10.00"> cooked</text>
<text text-anchor="middle" x="100.5" y="-46.5" font-family="Helvetica,sans-Serif" font-size="10.00">lock</text>
</g>
<!-- Node3 -->
<g id="node3" class="node">
<title>Node3</title>
<g id="a_node3"><a xlink:href="structdevice.html" target="_top" xlink:title=" ">
<polygon fill="none" stroke="black" points="83,-89.5 83,-108.5 128,-108.5 128,-89.5 83,-89.5"/>
<text text-anchor="middle" x="105.5" y="-96.5" font-family="Helvetica,sans-Serif" font-size="10.00">device</text>
</a>
</g>
</g>
<!-- Node3&#45;&gt;Node1 -->
<g id="edge2" class="edge">
<title>Node3&#45;&gt;Node1</title>
<path fill="none" stroke="#9a32cd" stroke-dasharray="5,2" d="M114.84,-80.39C121.88,-67.92 132.22,-51.14 143.5,-38 149.36,-31.18 156.96,-24.53 163.17,-19.54"/>
<polygon fill="#9a32cd" stroke="#9a32cd" points="111.69,-78.87 109.95,-89.32 117.83,-82.23 111.69,-78.87"/>
<text text-anchor="middle" x="157" y="-52" font-family="Helvetica,sans-Serif" font-size="10.00"> fbdev</text>
</g>
<!-- Node4 -->
<g id="node4" class="node">
<title>Node4</title>
<g id="a_node4"><a xlink:href="structdevops.html" target="_top" xlink:title=" ">
<polygon fill="none" stroke="black" points="81.5,-156.5 81.5,-175.5 129.5,-175.5 129.5,-156.5 81.5,-156.5"/>
<text text-anchor="middle" x="105.5" y="-163.5" font-family="Helvetica,sans-Serif" font-size="10.00">devops</text>
</a>
</g>
</g>
<!-- Node4&#45;&gt;Node3 -->
<g id="edge3" class="edge">
<title>Node4&#45;&gt;Node3</title>
<path fill="none" stroke="#9a32cd" stroke-dasharray="5,2" d="M105.5,-146.04C105.5,-133.67 105.5,-118.12 105.5,-108.63"/>
<polygon fill="#9a32cd" stroke="#9a32cd" points="102,-146.23 105.5,-156.23 109,-146.23 102,-146.23"/>
<text text-anchor="middle" x="115" y="-130" font-family="Helvetica,sans-Serif" font-size="10.00"> ops</text>
</g>
<!-- Node5 -->
<g id="node5" class="node">
<title>Node5</title>
<g id="a_node5"><a xlink:href="structcharacter.html" target="_top" xlink:title=" ">
<polygon fill="none" stroke="black" points="146,-89.5 146,-108.5 203,-108.5 203,-89.5 146,-89.5"/>
<text text-anchor="middle" x="174.5" y="-96.5" font-family="Helvetica,sans-Serif" font-size="10.00">character</text>
</a>
</g>
</g>
<!-- Node5&#45;&gt;Node1 -->
<g id="edge4" class="edge">
<title>Node5&#45;&gt;Node1</title>
<path fill="none" stroke="#9a32cd" stroke-dasharray="5,2" d="M174.5,-79.19C174.5,-60.74 174.5,-33.41 174.5,-19.62"/>
<polygon fill="#9a32cd" stroke="#9a32cd" points="171,-79.34 174.5,-89.34 178,-79.34 171,-79.34"/>
<text text-anchor="middle" x="188.5" y="-63" font-family="Helvetica,sans-Serif" font-size="10.00"> buf</text>
<text text-anchor="middle" x="188.5" y="-52" font-family="Helvetica,sans-Serif" font-size="10.00">cursor</text>
<text text-anchor="middle" x="188.5" y="-41" font-family="Helvetica,sans-Serif" font-size="10.00">end</text>
</g>
<!-- Node6 -->
<g id="node6" class="node">
<title>Node6</title>
<g id="a_node6"><a xlink:href="structtty__queue.html" target="_top" xlink:title=" ">
<polygon fill="none" stroke="black" points="221,-89.5 221,-108.5 280,-108.5 280,-89.5 221,-89.5"/>
<text text-anchor="middle" x="250.5" y="-96.5" font-family="Helvetica,sans-Serif" font-size="10.00">tty_queue</text>
</a>
</g>
</g>
<!-- Node6&#45;&gt;Node1 -->
<g id="edge5" class="edge">
<title>Node6&#45;&gt;Node1</title>
<path fill="none" stroke="#9a32cd" stroke-dasharray="5,2" d="M239.52,-80.84C231.16,-68.36 219.01,-51.39 206.5,-38 200.25,-31.31 192.4,-24.66 186.04,-19.64"/>
<polygon fill="#9a32cd" stroke="#9a32cd" points="236.7,-82.92 245.11,-89.36 242.55,-79.08 236.7,-82.92"/>
<text text-anchor="middle" x="246" y="-52" font-family="Helvetica,sans-Serif" font-size="10.00"> queue</text>
</g>
<!-- Node7 -->
<g id="node7" class="node">
<title>Node7</title>
<g id="a_node7"><a xlink:href="structsprite.html" target="_top" xlink:title=" ">
<polygon fill="none" stroke="black" points="298,-89.5 298,-108.5 339,-108.5 339,-89.5 298,-89.5"/>
<text text-anchor="middle" x="318.5" y="-96.5" font-family="Helvetica,sans-Serif" font-size="10.00">sprite</text>
</a>
</g>
</g>
<!-- Node7&#45;&gt;Node1 -->
<g id="edge6" class="edge">
<title>Node7&#45;&gt;Node1</title>
<path fill="none" stroke="#9a32cd" stroke-dasharray="5,2" d="M307.11,-80.87C297.31,-67.39 282.01,-49.09 264.5,-38 241.9,-23.68 211.32,-16.63 192.26,-13.41"/>
<polygon fill="#9a32cd" stroke="#9a32cd" points="304.38,-83.08 312.97,-89.28 310.12,-79.08 304.38,-83.08"/>
<text text-anchor="middle" x="314.5" y="-52" font-family="Helvetica,sans-Serif" font-size="10.00"> sp_buf</text>
</g>
</g>
</svg>
