<?xml version="1.0" encoding="UTF-8" standalone="no"?>
<!DOCTYPE svg PUBLIC "-//W3C//DTD SVG 1.1//EN"
 "http://www.w3.org/Graphics/SVG/1.1/DTD/svg11.dtd">
<!-- Generated by graphviz version 3.0.0 (20220413.0106)
 -->
<!-- Title: fb_t Pages: 1 -->
<svg width="200pt" height="95pt"
 viewBox="0.00 0.00 199.50 95.00" xmlns="http://www.w3.org/2000/svg" xmlns:xlink="http://www.w3.org/1999/xlink">
<g id="graph0" class="graph" transform="scale(1 1) rotate(0) translate(4 91)">
<title>fb_t</title>
<!-- Node1 -->
<g id="node1" class="node">
<title>Node1</title>
<g id="a_node1"><a xlink:title=" ">
<polygon fill="#bfbfbf" stroke="black" points="92.5,-0.5 92.5,-19.5 125.5,-19.5 125.5,-0.5 92.5,-0.5"/>
<text text-anchor="middle" x="109" y="-7.5" font-family="Helvetica,sans-Serif" font-size="10.00">fb_t</text>
</a>
</g>
</g>
<!-- Node2 -->
<g id="node2" class="node">
<title>Node2</title>
<g id="a_node2"><a xlink:href="structdisplay__info.html" target="_top" xlink:title=" ">
<polygon fill="none" stroke="black" points="0,-67.5 0,-86.5 68,-86.5 68,-67.5 0,-67.5"/>
<text text-anchor="middle" x="34" y="-74.5" font-family="Helvetica,sans-Serif" font-size="10.00">display_info</text>
</a>
</g>
</g>
<!-- Node2&#45;&gt;Node1 -->
<g id="edge1" class="edge">
<title>Node2&#45;&gt;Node1</title>
<path fill="none" stroke="#9a32cd" stroke-dasharray="5,2" d="M52.05,-60.36C66.79,-47.58 87.09,-29.99 99.05,-19.63"/>
<polygon fill="#9a32cd" stroke="#9a32cd" points="49.38,-58.04 44.11,-67.23 53.96,-63.33 49.38,-58.04"/>
<text text-anchor="middle" x="84.5" y="-41" font-family="Helvetica,sans-Serif" font-size="10.00"> info</text>
</g>
<!-- Node3 -->
<g id="node3" class="node">
<title>Node3</title>
<g id="a_node3"><a xlink:href="structtexture.html" target="_top" xlink:title=" ">
<polygon fill="none" stroke="black" points="86,-67.5 86,-86.5 132,-86.5 132,-67.5 86,-67.5"/>
<text text-anchor="middle" x="109" y="-74.5" font-family="Helvetica,sans-Serif" font-size="10.00">texture</text>
</a>
</g>
</g>
<!-- Node3&#45;&gt;Node1 -->
<g id="edge2" class="edge">
<title>Node3&#45;&gt;Node1</title>
<path fill="none" stroke="#9a32cd" stroke-dasharray="5,2" d="M109,-57.04C109,-44.67 109,-29.12 109,-19.63"/>
<polygon fill="#9a32cd" stroke="#9a32cd" points="105.5,-57.23 109,-67.23 112.5,-57.23 105.5,-57.23"/>
<text text-anchor="middle" x="127.5" y="-41" font-family="Helvetica,sans-Serif" font-size="10.00"> textures</text>
</g>
<!-- Node4 -->
<g id="node4" class="node">
<title>Node4</title>
<g id="a_node4"><a xlink:href="structsprite.html" target="_top" xlink:title=" ">
<polygon fill="none" stroke="black" points="150.5,-67.5 150.5,-86.5 191.5,-86.5 191.5,-67.5 150.5,-67.5"/>
<text text-anchor="middle" x="171" y="-74.5" font-family="Helvetica,sans-Serif" font-size="10.00">sprite</text>
</a>
</g>
</g>
<!-- Node4&#45;&gt;Node1 -->
<g id="edge3" class="edge">
<title>Node4&#45;&gt;Node1</title>
<path fill="none" stroke="#9a32cd" stroke-dasharray="5,2" d="M162.89,-58.26C159.25,-51.46 154.52,-43.92 149,-38 142.14,-30.65 132.92,-24.26 125.06,-19.54"/>
<polygon fill="#9a32cd" stroke="#9a32cd" points="159.85,-60.01 167.41,-67.43 166.12,-56.91 159.85,-60.01"/>
<text text-anchor="middle" x="173" y="-41" font-family="Helvetica,sans-Serif" font-size="10.00"> sprites</text>
</g>
</g>
</svg>
