<?xml version="1.0" encoding="UTF-8" standalone="no"?>
<!DOCTYPE svg PUBLIC "-//W3C//DTD SVG 1.1//EN"
 "http://www.w3.org/Graphics/SVG/1.1/DTD/svg11.dtd">
<!-- Generated by graphviz version 3.0.0 (20220413.0106)
 -->
<!-- Title: cpu_local Pages: 1 -->
<svg width="238pt" height="162pt"
 viewBox="0.00 0.00 237.50 162.00" xmlns="http://www.w3.org/2000/svg" xmlns:xlink="http://www.w3.org/1999/xlink">
<g id="graph0" class="graph" transform="scale(1 1) rotate(0) translate(4 158)">
<title>cpu_local</title>
<!-- Node1 -->
<g id="node1" class="node">
<title>Node1</title>
<g id="a_node1"><a xlink:title=" ">
<polygon fill="#bfbfbf" stroke="black" points="82.5,-0.5 82.5,-19.5 140.5,-19.5 140.5,-0.5 82.5,-0.5"/>
<text text-anchor="middle" x="111.5" y="-7.5" font-family="Helvetica,sans-Serif" font-size="10.00">cpu_local</text>
</a>
</g>
</g>
<!-- Node2 -->
<g id="node2" class="node">
<title>Node2</title>
<g id="a_node2"><a xlink:href="struct_addr_space.html" target="_top" xlink:title=" ">
<polygon fill="none" stroke="black" points="0,-67.5 0,-86.5 65,-86.5 65,-67.5 0,-67.5"/>
<text text-anchor="middle" x="32.5" y="-74.5" font-family="Helvetica,sans-Serif" font-size="10.00">AddrSpace</text>
</a>
</g>
</g>
<!-- Node2&#45;&gt;Node1 -->
<g id="edge1" class="edge">
<title>Node2&#45;&gt;Node1</title>
<path fill="none" stroke="#9a32cd" stroke-dasharray="5,2" d="M51.08,-60.71C66.64,-47.91 88.3,-30.09 101.01,-19.63"/>
<polygon fill="#9a32cd" stroke="#9a32cd" points="48.65,-58.18 43.15,-67.23 53.1,-63.58 48.65,-58.18"/>
<text text-anchor="middle" x="88.5" y="-41" font-family="Helvetica,sans-Serif" font-size="10.00"> uvm</text>
</g>
<!-- Node3 -->
<g id="node3" class="node">
<title>Node3</title>
<g id="a_node3"><a xlink:href="struct_area.html" target="_top" xlink:title=" ">
<polygon fill="none" stroke="black" points="14,-134.5 14,-153.5 51,-153.5 51,-134.5 14,-134.5"/>
<text text-anchor="middle" x="32.5" y="-141.5" font-family="Helvetica,sans-Serif" font-size="10.00">Area</text>
</a>
</g>
</g>
<!-- Node3&#45;&gt;Node2 -->
<g id="edge2" class="edge">
<title>Node3&#45;&gt;Node2</title>
<path fill="none" stroke="#9a32cd" stroke-dasharray="5,2" d="M32.5,-124.04C32.5,-111.67 32.5,-96.12 32.5,-86.63"/>
<polygon fill="#9a32cd" stroke="#9a32cd" points="29,-124.23 32.5,-134.23 36,-124.23 29,-124.23"/>
<text text-anchor="middle" x="43.5" y="-108" font-family="Helvetica,sans-Serif" font-size="10.00"> area</text>
</g>
<!-- Node4 -->
<g id="node4" class="node">
<title>Node4</title>
<g id="a_node4"><a xlink:href="struct_seg_desc.html" target="_top" xlink:title=" ">
<polygon fill="none" stroke="black" points="83.5,-67.5 83.5,-86.5 139.5,-86.5 139.5,-67.5 83.5,-67.5"/>
<text text-anchor="middle" x="111.5" y="-74.5" font-family="Helvetica,sans-Serif" font-size="10.00">SegDesc</text>
</a>
</g>
</g>
<!-- Node4&#45;&gt;Node1 -->
<g id="edge3" class="edge">
<title>Node4&#45;&gt;Node1</title>
<path fill="none" stroke="#9a32cd" stroke-dasharray="5,2" d="M111.5,-57.04C111.5,-44.67 111.5,-29.12 111.5,-19.63"/>
<polygon fill="#9a32cd" stroke="#9a32cd" points="108,-57.23 111.5,-67.23 115,-57.23 108,-57.23"/>
<text text-anchor="middle" x="119.5" y="-41" font-family="Helvetica,sans-Serif" font-size="10.00"> gdt</text>
</g>
<!-- Node5 -->
<g id="node5" class="node">
<title>Node5</title>
<g id="a_node5"><a xlink:href="structkernel__stack.html" target="_top" xlink:title=" ">
<polygon fill="none" stroke="black" points="157.5,-67.5 157.5,-86.5 229.5,-86.5 229.5,-67.5 157.5,-67.5"/>
<text text-anchor="middle" x="193.5" y="-74.5" font-family="Helvetica,sans-Serif" font-size="10.00">kernel_stack</text>
</a>
</g>
</g>
<!-- Node5&#45;&gt;Node1 -->
<g id="edge4" class="edge">
<title>Node5&#45;&gt;Node1</title>
<path fill="none" stroke="#9a32cd" stroke-dasharray="5,2" d="M174.22,-60.71C158.06,-47.91 135.58,-30.09 122.38,-19.63"/>
<polygon fill="#9a32cd" stroke="#9a32cd" points="172.43,-63.76 182.44,-67.23 176.78,-58.28 172.43,-63.76"/>
<text text-anchor="middle" x="170" y="-41" font-family="Helvetica,sans-Serif" font-size="10.00"> stack</text>
</g>
</g>
</svg>
