<?xml version="1.0" encoding="UTF-8" standalone="no"?>
<!DOCTYPE svg PUBLIC "-//W3C//DTD SVG 1.1//EN"
 "http://www.w3.org/Graphics/SVG/1.1/DTD/svg11.dtd">
<!-- Generated by graphviz version 3.0.0 (20220413.0106)
 -->
<!-- Title: input_t Pages: 1 -->
<svg width="229pt" height="95pt"
 viewBox="0.00 0.00 229.00 95.00" xmlns="http://www.w3.org/2000/svg" xmlns:xlink="http://www.w3.org/1999/xlink">
<g id="graph0" class="graph" transform="scale(1 1) rotate(0) translate(4 91)">
<title>input_t</title>
<!-- Node1 -->
<g id="node1" class="node">
<title>Node1</title>
<g id="a_node1"><a xlink:title=" ">
<polygon fill="#bfbfbf" stroke="black" points="80.5,-0.5 80.5,-19.5 126.5,-19.5 126.5,-0.5 80.5,-0.5"/>
<text text-anchor="middle" x="103.5" y="-7.5" font-family="Helvetica,sans-Serif" font-size="10.00">input_t</text>
</a>
</g>
</g>
<!-- Node2 -->
<g id="node2" class="node">
<title>Node2</title>
<g id="a_node2"><a xlink:href="structspinlock.html" target="_top" xlink:title=" ">
<polygon fill="none" stroke="black" points="0,-67.5 0,-86.5 53,-86.5 53,-67.5 0,-67.5"/>
<text text-anchor="middle" x="26.5" y="-74.5" font-family="Helvetica,sans-Serif" font-size="10.00">spinlock</text>
</a>
</g>
</g>
<!-- Node2&#45;&gt;Node1 -->
<g id="edge1" class="edge">
<title>Node2&#45;&gt;Node1</title>
<path fill="none" stroke="#9a32cd" stroke-dasharray="5,2" d="M44.61,-60.71C59.78,-47.91 80.89,-30.09 93.28,-19.63"/>
<polygon fill="#9a32cd" stroke="#9a32cd" points="42.27,-58.11 36.88,-67.23 46.78,-63.46 42.27,-58.11"/>
<text text-anchor="middle" x="80" y="-41" font-family="Helvetica,sans-Serif" font-size="10.00"> lock</text>
</g>
<!-- Node3 -->
<g id="node3" class="node">
<title>Node3</title>
<g id="a_node3"><a xlink:href="structsemaphore.html" target="_top" xlink:title=" ">
<polygon fill="none" stroke="black" points="71,-67.5 71,-86.5 136,-86.5 136,-67.5 71,-67.5"/>
<text text-anchor="middle" x="103.5" y="-74.5" font-family="Helvetica,sans-Serif" font-size="10.00">semaphore</text>
</a>
</g>
</g>
<!-- Node3&#45;&gt;Node1 -->
<g id="edge2" class="edge">
<title>Node3&#45;&gt;Node1</title>
<path fill="none" stroke="#9a32cd" stroke-dasharray="5,2" d="M103.5,-57.04C103.5,-44.67 103.5,-29.12 103.5,-19.63"/>
<polygon fill="#9a32cd" stroke="#9a32cd" points="100,-57.23 103.5,-67.23 107,-57.23 100,-57.23"/>
<text text-anchor="middle" x="129" y="-41" font-family="Helvetica,sans-Serif" font-size="10.00"> event_sem</text>
</g>
<!-- Node4 -->
<g id="node4" class="node">
<title>Node4</title>
<g id="a_node4"><a xlink:href="structinput__event.html" target="_top" xlink:title=" ">
<polygon fill="none" stroke="black" points="154,-67.5 154,-86.5 221,-86.5 221,-67.5 154,-67.5"/>
<text text-anchor="middle" x="187.5" y="-74.5" font-family="Helvetica,sans-Serif" font-size="10.00">input_event</text>
</a>
</g>
</g>
<!-- Node4&#45;&gt;Node1 -->
<g id="edge3" class="edge">
<title>Node4&#45;&gt;Node1</title>
<path fill="none" stroke="#9a32cd" stroke-dasharray="5,2" d="M176.66,-58.41C171.74,-51.43 165.47,-43.72 158.5,-38 149.05,-30.24 136.99,-24 126.57,-19.48"/>
<polygon fill="#9a32cd" stroke="#9a32cd" points="174.04,-60.79 182.46,-67.22 179.88,-56.94 174.04,-60.79"/>
<text text-anchor="middle" x="184.5" y="-41" font-family="Helvetica,sans-Serif" font-size="10.00"> events</text>
</g>
</g>
</svg>
