<?xml version="1.0" encoding="UTF-8" standalone="no"?>
<!DOCTYPE svg PUBLIC "-//W3C//DTD SVG 1.1//EN"
 "http://www.w3.org/Graphics/SVG/1.1/DTD/svg11.dtd">
<!-- Generated by graphviz version 3.0.0 (20220413.0106)
 -->
<!-- Title: task Pages: 1 -->
<svg width="156pt" height="162pt"
 viewBox="0.00 0.00 156.00 162.00" xmlns="http://www.w3.org/2000/svg" xmlns:xlink="http://www.w3.org/1999/xlink">
<g id="graph0" class="graph" transform="scale(1 1) rotate(0) translate(4 158)">
<title>task</title>
<!-- Node1 -->
<g id="node1" class="node">
<title>Node1</title>
<g id="a_node1"><a xlink:title=" ">
<polygon fill="#bfbfbf" stroke="black" points="56,-0.5 56,-19.5 91,-19.5 91,-0.5 56,-0.5"/>
<text text-anchor="middle" x="73.5" y="-7.5" font-family="Helvetica,sans-Serif" font-size="10.00">task</text>
</a>
</g>
</g>
<!-- Node1&#45;&gt;Node1 -->
<g id="edge3" class="edge">
<title>Node1&#45;&gt;Node1</title>
<path fill="none" stroke="#9a32cd" stroke-dasharray="5,2" d="M101.21,-15.57C105.82,-14.79 109,-12.93 109,-10 109,-5.19 100.44,-3.27 91.03,-4.25"/>
<polygon fill="#9a32cd" stroke="#9a32cd" points="100.97,-12.08 91.03,-15.75 101.1,-19.08 100.97,-12.08"/>
<text text-anchor="middle" x="119.5" y="-7.5" font-family="Helvetica,sans-Serif" font-size="10.00"> next</text>
</g>
<!-- Node2 -->
<g id="node2" class="node">
<title>Node2</title>
<g id="a_node2"><a xlink:href="structsemaphore.html" target="_top" xlink:title=" ">
<polygon fill="none" stroke="black" points="0,-67.5 0,-86.5 65,-86.5 65,-67.5 0,-67.5"/>
<text text-anchor="middle" x="32.5" y="-74.5" font-family="Helvetica,sans-Serif" font-size="10.00">semaphore</text>
</a>
</g>
</g>
<!-- Node2&#45;&gt;Node1 -->
<g id="edge1" class="edge">
<title>Node2&#45;&gt;Node1</title>
<path fill="none" stroke="#9a32cd" stroke-dasharray="5,2" d="M36.32,-57.37C38.17,-50.92 40.81,-43.85 44.5,-38 48.98,-30.91 55.78,-24.44 61.67,-19.62"/>
<polygon fill="#9a32cd" stroke="#9a32cd" points="32.87,-56.77 33.92,-67.31 39.67,-58.41 32.87,-56.77"/>
<text text-anchor="middle" x="67" y="-41" font-family="Helvetica,sans-Serif" font-size="10.00"> wait_sem</text>
</g>
<!-- Node3 -->
<g id="node3" class="node">
<title>Node3</title>
<g id="a_node3"><a xlink:href="structspinlock.html" target="_top" xlink:title=" ">
<polygon fill="none" stroke="black" points="6,-134.5 6,-153.5 59,-153.5 59,-134.5 6,-134.5"/>
<text text-anchor="middle" x="32.5" y="-141.5" font-family="Helvetica,sans-Serif" font-size="10.00">spinlock</text>
</a>
</g>
</g>
<!-- Node3&#45;&gt;Node2 -->
<g id="edge2" class="edge">
<title>Node3&#45;&gt;Node2</title>
<path fill="none" stroke="#9a32cd" stroke-dasharray="5,2" d="M32.5,-124.04C32.5,-111.67 32.5,-96.12 32.5,-86.63"/>
<polygon fill="#9a32cd" stroke="#9a32cd" points="29,-124.23 32.5,-134.23 36,-124.23 29,-124.23"/>
<text text-anchor="middle" x="43" y="-108" font-family="Helvetica,sans-Serif" font-size="10.00"> lock</text>
</g>
<!-- Node4 -->
<g id="node4" class="node">
<title>Node4</title>
<g id="a_node4"><a xlink:href="struct_addr_space.html" target="_top" xlink:title=" ">
<polygon fill="none" stroke="black" points="83,-67.5 83,-86.5 148,-86.5 148,-67.5 83,-67.5"/>
<text text-anchor="middle" x="115.5" y="-74.5" font-family="Helvetica,sans-Serif" font-size="10.00">AddrSpace</text>
</a>
</g>
</g>
<!-- Node4&#45;&gt;Node1 -->
<g id="edge4" class="edge">
<title>Node4&#45;&gt;Node1</title>
<path fill="none" stroke="#9a32cd" stroke-dasharray="5,2" d="M104.21,-58.53C96.08,-45.95 85.46,-29.51 79.07,-19.63"/>
<polygon fill="#9a32cd" stroke="#9a32cd" points="101.47,-60.73 109.84,-67.23 107.35,-56.94 101.47,-60.73"/>
<text text-anchor="middle" x="103" y="-41" font-family="Helvetica,sans-Serif" font-size="10.00"> as</text>
</g>
<!-- Node5 -->
<g id="node5" class="node">
<title>Node5</title>
<g id="a_node5"><a xlink:href="struct_area.html" target="_top" xlink:title=" ">
<polygon fill="none" stroke="black" points="97,-134.5 97,-153.5 134,-153.5 134,-134.5 97,-134.5"/>
<text text-anchor="middle" x="115.5" y="-141.5" font-family="Helvetica,sans-Serif" font-size="10.00">Area</text>
</a>
</g>
</g>
<!-- Node5&#45;&gt;Node4 -->
<g id="edge5" class="edge">
<title>Node5&#45;&gt;Node4</title>
<path fill="none" stroke="#9a32cd" stroke-dasharray="5,2" d="M115.5,-124.04C115.5,-111.67 115.5,-96.12 115.5,-86.63"/>
<polygon fill="#9a32cd" stroke="#9a32cd" points="112,-124.23 115.5,-134.23 119,-124.23 112,-124.23"/>
<text text-anchor="middle" x="126.5" y="-108" font-family="Helvetica,sans-Serif" font-size="10.00"> area</text>
</g>
</g>
</svg>
