<?xml version="1.0" encoding="UTF-8" standalone="no"?>
<!DOCTYPE svg PUBLIC "-//W3C//DTD SVG 1.1//EN"
 "http://www.w3.org/Graphics/SVG/1.1/DTD/svg11.dtd">
<!-- Generated by graphviz version 3.0.0 (20220413.0106)
 -->
<!-- Title: pmm_pool Pages: 1 -->
<svg width="138pt" height="164pt"
 viewBox="0.00 0.00 137.50 164.00" xmlns="http://www.w3.org/2000/svg" xmlns:xlink="http://www.w3.org/1999/xlink">
<g id="graph0" class="graph" transform="scale(1 1) rotate(0) translate(4 160)">
<title>pmm_pool</title>
<!-- Node1 -->
<g id="node1" class="node">
<title>Node1</title>
<g id="a_node1"><a xlink:title="memory manage pool">
<polygon fill="#bfbfbf" stroke="black" points="23.5,-0.5 23.5,-19.5 85.5,-19.5 85.5,-0.5 23.5,-0.5"/>
<text text-anchor="middle" x="54.5" y="-7.5" font-family="Helvetica,sans-Serif" font-size="10.00">pmm_pool</text>
</a>
</g>
</g>
<!-- Node2 -->
<g id="node2" class="node">
<title>Node2</title>
<g id="a_node2"><a xlink:href="structchunk.html" target="_top" xlink:title="chunk structure in buddy system">
<polygon fill="none" stroke="black" points="0,-67.5 0,-86.5 43,-86.5 43,-67.5 0,-67.5"/>
<text text-anchor="middle" x="21.5" y="-74.5" font-family="Helvetica,sans-Serif" font-size="10.00">chunk</text>
</a>
</g>
</g>
<!-- Node2&#45;&gt;Node1 -->
<g id="edge1" class="edge">
<title>Node2&#45;&gt;Node1</title>
<path fill="none" stroke="#9a32cd" stroke-dasharray="5,2" d="M8.16,-58.81C4.62,-52.1 2.71,-44.48 6.5,-38 11.38,-29.66 19.88,-23.7 28.38,-19.54"/>
<polygon fill="#9a32cd" stroke="#9a32cd" points="5.24,-60.73 13.63,-67.2 11.1,-56.91 5.24,-60.73"/>
<text text-anchor="middle" x="44" y="-41" font-family="Helvetica,sans-Serif" font-size="10.00"> chunk_metadata</text>
</g>
<!-- Node3 -->
<g id="node3" class="node">
<title>Node3</title>
<g id="a_node3"><a xlink:href="structlist__head.html" target="_top" xlink:title=" ">
<polygon fill="none" stroke="black" points="25.5,-135.5 25.5,-154.5 81.5,-154.5 81.5,-135.5 25.5,-135.5"/>
<text text-anchor="middle" x="53.5" y="-142.5" font-family="Helvetica,sans-Serif" font-size="10.00">list_head</text>
</a>
</g>
</g>
<!-- Node3&#45;&gt;Node2 -->
<g id="edge2" class="edge">
<title>Node3&#45;&gt;Node2</title>
<path fill="none" stroke="#9a32cd" stroke-dasharray="5,2" d="M41.67,-126.89C39.47,-123.37 37.31,-119.63 35.5,-116 30.67,-106.31 26.59,-94.53 24.1,-86.67"/>
<polygon fill="#9a32cd" stroke="#9a32cd" points="38.89,-129.04 47.32,-135.46 44.74,-125.19 38.89,-129.04"/>
<text text-anchor="middle" x="47.5" y="-108" font-family="Helvetica,sans-Serif" font-size="10.00"> node</text>
</g>
<!-- Node3&#45;&gt;Node3 -->
<g id="edge3" class="edge">
<title>Node3&#45;&gt;Node3</title>
<path fill="none" stroke="#9a32cd" stroke-dasharray="5,2" d="M92.05,-150.45C96.56,-149.45 99.5,-147.63 99.5,-145 99.5,-140.68 91.59,-138.56 81.8,-138.63"/>
<polygon fill="#9a32cd" stroke="#9a32cd" points="91.44,-146.99 81.8,-151.37 92.07,-153.96 91.44,-146.99"/>
<text text-anchor="middle" x="110" y="-148" font-family="Helvetica,sans-Serif" font-size="10.00"> next</text>
<text text-anchor="middle" x="110" y="-137" font-family="Helvetica,sans-Serif" font-size="10.00">prev</text>
</g>
<!-- Node4 -->
<g id="node4" class="node">
<title>Node4</title>
<g id="a_node4"><a xlink:href="structfree__list.html" target="_top" xlink:title="free list api, including counter of free page.">
<polygon fill="none" stroke="black" points="69,-67.5 69,-86.5 120,-86.5 120,-67.5 69,-67.5"/>
<text text-anchor="middle" x="94.5" y="-74.5" font-family="Helvetica,sans-Serif" font-size="10.00">free_list</text>
</a>
</g>
</g>
<!-- Node3&#45;&gt;Node4 -->
<g id="edge5" class="edge">
<title>Node3&#45;&gt;Node4</title>
<path fill="none" stroke="#9a32cd" stroke-dasharray="5,2" d="M64.33,-126.56C72.27,-113.78 82.72,-96.96 89.01,-86.84"/>
<polygon fill="#9a32cd" stroke="#9a32cd" points="61.16,-125.03 58.86,-135.37 67.11,-128.72 61.16,-125.03"/>
<text text-anchor="middle" x="96" y="-108" font-family="Helvetica,sans-Serif" font-size="10.00"> free_list</text>
</g>
<!-- Node4&#45;&gt;Node1 -->
<g id="edge4" class="edge">
<title>Node4&#45;&gt;Node1</title>
<path fill="none" stroke="#9a32cd" stroke-dasharray="5,2" d="M90.01,-57.44C87.98,-51 85.19,-43.91 81.5,-38 77.15,-31.02 70.68,-24.47 65.16,-19.57"/>
<polygon fill="#9a32cd" stroke="#9a32cd" points="86.71,-58.65 92.73,-67.36 93.46,-56.79 86.71,-58.65"/>
<text text-anchor="middle" x="108" y="-41" font-family="Helvetica,sans-Serif" font-size="10.00"> free_lists</text>
</g>
</g>
</svg>
