<?xml version="1.0" encoding="UTF-8" standalone="no"?>
<!DOCTYPE svg PUBLIC "-//W3C//DTD SVG 1.1//EN"
 "http://www.w3.org/Graphics/SVG/1.1/DTD/svg11.dtd">
<!-- Generated by graphviz version 3.0.0 (20220413.0106)
 -->
<!-- Title: free_list Pages: 1 -->
<svg width="103pt" height="97pt"
 viewBox="0.00 0.00 103.00 97.00" xmlns="http://www.w3.org/2000/svg" xmlns:xlink="http://www.w3.org/1999/xlink">
<g id="graph0" class="graph" transform="scale(1 1) rotate(0) translate(4 93)">
<title>free_list</title>
<!-- Node1 -->
<g id="node1" class="node">
<title>Node1</title>
<g id="a_node1"><a xlink:title="free list api, including counter of free page.">
<polygon fill="#bfbfbf" stroke="black" points="2.5,-0.5 2.5,-19.5 53.5,-19.5 53.5,-0.5 2.5,-0.5"/>
<text text-anchor="middle" x="28" y="-7.5" font-family="Helvetica,sans-Serif" font-size="10.00">free_list</text>
</a>
</g>
</g>
<!-- Node2 -->
<g id="node2" class="node">
<title>Node2</title>
<g id="a_node2"><a xlink:href="structlist__head.html" target="_top" xlink:title=" ">
<polygon fill="none" stroke="black" points="0,-68.5 0,-87.5 56,-87.5 56,-68.5 0,-68.5"/>
<text text-anchor="middle" x="28" y="-75.5" font-family="Helvetica,sans-Serif" font-size="10.00">list_head</text>
</a>
</g>
</g>
<!-- Node2&#45;&gt;Node1 -->
<g id="edge1" class="edge">
<title>Node2&#45;&gt;Node1</title>
<path fill="none" stroke="#9a32cd" stroke-dasharray="5,2" d="M28,-58.04C28,-45.47 28,-29.56 28,-19.84"/>
<polygon fill="#9a32cd" stroke="#9a32cd" points="24.5,-58.37 28,-68.37 31.5,-58.37 24.5,-58.37"/>
<text text-anchor="middle" x="46.5" y="-41" font-family="Helvetica,sans-Serif" font-size="10.00"> free_list</text>
</g>
<!-- Node2&#45;&gt;Node2 -->
<g id="edge2" class="edge">
<title>Node2&#45;&gt;Node2</title>
<path fill="none" stroke="#9a32cd" stroke-dasharray="5,2" d="M66.55,-83.45C71.06,-82.45 74,-80.63 74,-78 74,-73.68 66.09,-71.56 56.3,-71.63"/>
<polygon fill="#9a32cd" stroke="#9a32cd" points="65.94,-79.99 56.3,-84.37 66.57,-86.96 65.94,-79.99"/>
<text text-anchor="middle" x="84.5" y="-81" font-family="Helvetica,sans-Serif" font-size="10.00"> next</text>
<text text-anchor="middle" x="84.5" y="-70" font-family="Helvetica,sans-Serif" font-size="10.00">prev</text>
</g>
</g>
</svg>
