<?xml version="1.0" encoding="UTF-8" standalone="no"?>
<!DOCTYPE svg PUBLIC "-//W3C//DTD SVG 1.1//EN"
 "http://www.w3.org/Graphics/SVG/1.1/DTD/svg11.dtd">
<!-- Generated by graphviz version 3.0.0 (20220413.0106)
 -->
<!-- Title: kernel/src/syscall.c Pages: 1 -->
<svg width="428pt" height="364pt"
 viewBox="0.00 0.00 427.50 364.00" xmlns="http://www.w3.org/2000/svg" xmlns:xlink="http://www.w3.org/1999/xlink">
<g id="graph0" class="graph" transform="scale(1 1) rotate(0) translate(4 360)">
<title>kernel/src/syscall.c</title>
<!-- Node1 -->
<g id="node1" class="node">
<title>Node1</title>
<g id="a_node1"><a xlink:title=" ">
<polygon fill="#bfbfbf" stroke="black" points="181,-336.5 181,-355.5 281,-355.5 281,-336.5 181,-336.5"/>
<text text-anchor="middle" x="231" y="-343.5" font-family="Helvetica,sans-Serif" font-size="10.00">kernel/src/syscall.c</text>
</a>
</g>
</g>
<!-- Node2 -->
<g id="node2" class="node">
<title>Node2</title>
<g id="a_node2"><a xlink:href="common_8h.html" target="_top" xlink:title=" ">
<polygon fill="none" stroke="black" points="181,-168.5 181,-187.5 243,-187.5 243,-168.5 181,-168.5"/>
<text text-anchor="middle" x="212" y="-175.5" font-family="Helvetica,sans-Serif" font-size="10.00">common.h</text>
</a>
</g>
</g>
<!-- Node1&#45;&gt;Node2 -->
<g id="edge1" class="edge">
<title>Node1&#45;&gt;Node2</title>
<path fill="none" stroke="midnightblue" d="M229.98,-336.08C226.99,-309.95 218.2,-233.21 214.13,-197.58"/>
<polygon fill="midnightblue" stroke="midnightblue" points="217.6,-197.11 212.98,-187.57 210.64,-197.9 217.6,-197.11"/>
</g>
<!-- Node14 -->
<g id="node14" class="node">
<title>Node14</title>
<g id="a_node14"><a xlink:href="syscall_8h.html" target="_top" xlink:title=" ">
<polygon fill="none" stroke="black" points="259,-280.5 259,-299.5 313,-299.5 313,-280.5 259,-280.5"/>
<text text-anchor="middle" x="286" y="-287.5" font-family="Helvetica,sans-Serif" font-size="10.00">syscall.h</text>
</a>
</g>
</g>
<!-- Node1&#45;&gt;Node14 -->
<g id="edge18" class="edge">
<title>Node1&#45;&gt;Node14</title>
<path fill="none" stroke="midnightblue" d="M240.08,-336.08C248.17,-328.14 260.2,-316.34 269.91,-306.8"/>
<polygon fill="midnightblue" stroke="midnightblue" points="272.4,-309.25 277.09,-299.75 267.5,-304.26 272.4,-309.25"/>
</g>
<!-- Node15 -->
<g id="node15" class="node">
<title>Node15</title>
<g id="a_node15"><a xlink:href="thread_8h.html" target="_top" xlink:title=" ">
<polygon fill="none" stroke="black" points="130.5,-280.5 130.5,-299.5 181.5,-299.5 181.5,-280.5 130.5,-280.5"/>
<text text-anchor="middle" x="156" y="-287.5" font-family="Helvetica,sans-Serif" font-size="10.00">thread.h</text>
</a>
</g>
</g>
<!-- Node1&#45;&gt;Node15 -->
<g id="edge19" class="edge">
<title>Node1&#45;&gt;Node15</title>
<path fill="none" stroke="midnightblue" d="M218.95,-336.32C207.54,-328.11 190.17,-315.6 176.57,-305.81"/>
<polygon fill="midnightblue" stroke="midnightblue" points="178.43,-302.84 168.27,-299.83 174.34,-308.52 178.43,-302.84"/>
</g>
<!-- Node3 -->
<g id="node3" class="node">
<title>Node3</title>
<g id="a_node3"><a xlink:href="am_8h.html" target="_top" xlink:title=" ">
<polygon fill="none" stroke="black" points="225,-56.5 225,-75.5 263,-75.5 263,-56.5 225,-56.5"/>
<text text-anchor="middle" x="244" y="-63.5" font-family="Helvetica,sans-Serif" font-size="10.00">am.h</text>
</a>
</g>
</g>
<!-- Node2&#45;&gt;Node3 -->
<g id="edge2" class="edge">
<title>Node2&#45;&gt;Node3</title>
<path fill="none" stroke="midnightblue" d="M238.21,-168.41C254.85,-161.44 275.06,-149.81 285,-132 294.77,-114.5 278.96,-95.16 264.23,-82.17"/>
<polygon fill="midnightblue" stroke="midnightblue" points="266.27,-79.31 256.32,-75.65 261.81,-84.71 266.27,-79.31"/>
</g>
<!-- Node7 -->
<g id="node7" class="node">
<title>Node7</title>
<g id="a_node7"><a xlink:href="amdev_8h.html" target="_top" xlink:title=" ">
<polygon fill="none" stroke="black" points="366.5,-0.5 366.5,-19.5 419.5,-19.5 419.5,-0.5 366.5,-0.5"/>
<text text-anchor="middle" x="393" y="-7.5" font-family="Helvetica,sans-Serif" font-size="10.00">amdev.h</text>
</a>
</g>
</g>
<!-- Node2&#45;&gt;Node7 -->
<g id="edge7" class="edge">
<title>Node2&#45;&gt;Node7</title>
<path fill="none" stroke="midnightblue" d="M243.14,-172.94C286.89,-166.57 363.22,-152.75 381,-132 405.53,-103.38 401.68,-55.81 397.1,-29.66"/>
<polygon fill="midnightblue" stroke="midnightblue" points="400.49,-28.71 395.11,-19.58 393.62,-30.07 400.49,-28.71"/>
</g>
<!-- Node8 -->
<g id="node8" class="node">
<title>Node8</title>
<g id="a_node8"><a xlink:href="kernel_8h.html" target="_top" xlink:title=" ">
<polygon fill="none" stroke="black" points="68,-112.5 68,-131.5 118,-131.5 118,-112.5 68,-112.5"/>
<text text-anchor="middle" x="93" y="-119.5" font-family="Helvetica,sans-Serif" font-size="10.00">kernel.h</text>
</a>
</g>
</g>
<!-- Node2&#45;&gt;Node8 -->
<g id="edge8" class="edge">
<title>Node2&#45;&gt;Node8</title>
<path fill="none" stroke="midnightblue" d="M193.14,-168.44C173.73,-159.64 143.27,-145.81 121.04,-135.72"/>
<polygon fill="midnightblue" stroke="midnightblue" points="122.32,-132.46 111.77,-131.52 119.43,-138.84 122.32,-132.46"/>
</g>
<!-- Node9 -->
<g id="node9" class="node">
<title>Node9</title>
<g id="a_node9"><a xlink:href="klib_8h.html" target="_top" xlink:title=" ">
<polygon fill="none" stroke="black" points="332.5,-112.5 332.5,-131.5 371.5,-131.5 371.5,-112.5 332.5,-112.5"/>
<text text-anchor="middle" x="352" y="-119.5" font-family="Helvetica,sans-Serif" font-size="10.00">klib.h</text>
</a>
</g>
</g>
<!-- Node2&#45;&gt;Node9 -->
<g id="edge10" class="edge">
<title>Node2&#45;&gt;Node9</title>
<path fill="none" stroke="midnightblue" d="M234.18,-168.44C258.11,-159.21 296.32,-144.48 322.71,-134.3"/>
<polygon fill="midnightblue" stroke="midnightblue" points="324.11,-137.51 332.18,-130.64 321.59,-130.98 324.11,-137.51"/>
</g>
<!-- Node11 -->
<g id="node11" class="node">
<title>Node11</title>
<g id="a_node11"><a xlink:href="klib-macros_8h.html" target="_top" xlink:title=" ">
<polygon fill="none" stroke="black" points="136,-112.5 136,-131.5 210,-131.5 210,-112.5 136,-112.5"/>
<text text-anchor="middle" x="173" y="-119.5" font-family="Helvetica,sans-Serif" font-size="10.00">klib&#45;macros.h</text>
</a>
</g>
</g>
<!-- Node2&#45;&gt;Node11 -->
<g id="edge14" class="edge">
<title>Node2&#45;&gt;Node11</title>
<path fill="none" stroke="midnightblue" d="M205.56,-168.08C200.05,-160.46 191.97,-149.26 185.24,-139.94"/>
<polygon fill="midnightblue" stroke="midnightblue" points="188.01,-137.81 179.32,-131.75 182.34,-141.91 188.01,-137.81"/>
</g>
<!-- Node12 -->
<g id="node12" class="node">
<title>Node12</title>
<g id="a_node12"><a xlink:href="logger_8h.html" target="_top" xlink:title=" ">
<polygon fill="none" stroke="black" points="0,-112.5 0,-131.5 50,-131.5 50,-112.5 0,-112.5"/>
<text text-anchor="middle" x="25" y="-119.5" font-family="Helvetica,sans-Serif" font-size="10.00">logger.h</text>
</a>
</g>
</g>
<!-- Node2&#45;&gt;Node12 -->
<g id="edge15" class="edge">
<title>Node2&#45;&gt;Node12</title>
<path fill="none" stroke="midnightblue" d="M182.37,-168.44C149.09,-158.83 95.15,-143.26 59.87,-133.07"/>
<polygon fill="midnightblue" stroke="midnightblue" points="60.58,-129.63 50,-130.22 58.64,-136.36 60.58,-129.63"/>
</g>
<!-- Node13 -->
<g id="node13" class="node">
<title>Node13</title>
<g id="a_node13"><a xlink:title=" ">
<polygon fill="none" stroke="#bfbfbf" points="228.5,-112.5 228.5,-131.5 275.5,-131.5 275.5,-112.5 228.5,-112.5"/>
<text text-anchor="middle" x="252" y="-119.5" font-family="Helvetica,sans-Serif" font-size="10.00">limits.h</text>
</a>
</g>
</g>
<!-- Node2&#45;&gt;Node13 -->
<g id="edge17" class="edge">
<title>Node2&#45;&gt;Node13</title>
<path fill="none" stroke="midnightblue" d="M218.61,-168.08C224.26,-160.46 232.54,-149.26 239.45,-139.94"/>
<polygon fill="midnightblue" stroke="midnightblue" points="242.38,-141.87 245.52,-131.75 236.75,-137.7 242.38,-141.87"/>
</g>
<!-- Node4 -->
<g id="node4" class="node">
<title>Node4</title>
<g id="a_node4"><a xlink:title=" ">
<polygon fill="none" stroke="#bfbfbf" points="144,-0.5 144,-19.5 192,-19.5 192,-0.5 144,-0.5"/>
<text text-anchor="middle" x="168" y="-7.5" font-family="Helvetica,sans-Serif" font-size="10.00">stdint.h</text>
</a>
</g>
</g>
<!-- Node3&#45;&gt;Node4 -->
<g id="edge3" class="edge">
<title>Node3&#45;&gt;Node4</title>
<path fill="none" stroke="midnightblue" d="M231.79,-56.32C220.22,-48.11 202.62,-35.6 188.84,-25.81"/>
<polygon fill="midnightblue" stroke="midnightblue" points="190.61,-22.77 180.43,-19.83 186.56,-28.48 190.61,-22.77"/>
</g>
<!-- Node5 -->
<g id="node5" class="node">
<title>Node5</title>
<g id="a_node5"><a xlink:title=" ">
<polygon fill="none" stroke="#bfbfbf" points="284.5,-0.5 284.5,-19.5 335.5,-19.5 335.5,-0.5 284.5,-0.5"/>
<text text-anchor="middle" x="310" y="-7.5" font-family="Helvetica,sans-Serif" font-size="10.00">stddef.h</text>
</a>
</g>
</g>
<!-- Node3&#45;&gt;Node5 -->
<g id="edge4" class="edge">
<title>Node3&#45;&gt;Node5</title>
<path fill="none" stroke="midnightblue" d="M254.6,-56.32C264.46,-48.26 279.35,-36.08 291.22,-26.37"/>
<polygon fill="midnightblue" stroke="midnightblue" points="293.68,-28.88 299.2,-19.83 289.25,-23.46 293.68,-28.88"/>
</g>
<!-- Node6 -->
<g id="node6" class="node">
<title>Node6</title>
<g id="a_node6"><a xlink:title=" ">
<polygon fill="none" stroke="#bfbfbf" points="210,-0.5 210,-19.5 266,-19.5 266,-0.5 210,-0.5"/>
<text text-anchor="middle" x="238" y="-7.5" font-family="Helvetica,sans-Serif" font-size="10.00">stdbool.h</text>
</a>
</g>
</g>
<!-- Node3&#45;&gt;Node6 -->
<g id="edge5" class="edge">
<title>Node3&#45;&gt;Node6</title>
<path fill="none" stroke="midnightblue" d="M243.01,-56.08C242.21,-48.93 241.07,-38.64 240.08,-29.69"/>
<polygon fill="midnightblue" stroke="midnightblue" points="243.56,-29.3 238.97,-19.75 236.6,-30.08 243.56,-29.3"/>
</g>
<!-- Node3&#45;&gt;Node7 -->
<g id="edge6" class="edge">
<title>Node3&#45;&gt;Node7</title>
<path fill="none" stroke="midnightblue" d="M263.17,-58.05C287.61,-49.2 330.23,-33.75 359.95,-22.98"/>
<polygon fill="midnightblue" stroke="midnightblue" points="361.28,-26.22 369.48,-19.52 358.89,-19.64 361.28,-26.22"/>
</g>
<!-- Node8&#45;&gt;Node3 -->
<g id="edge9" class="edge">
<title>Node8&#45;&gt;Node3</title>
<path fill="none" stroke="midnightblue" d="M116.93,-112.44C143.59,-102.91 186.69,-87.49 215.19,-77.3"/>
<polygon fill="midnightblue" stroke="midnightblue" points="216.73,-80.47 224.97,-73.81 214.37,-73.88 216.73,-80.47"/>
</g>
<!-- Node9&#45;&gt;Node3 -->
<g id="edge11" class="edge">
<title>Node9&#45;&gt;Node3</title>
<path fill="none" stroke="midnightblue" d="M334.65,-112.32C317.33,-103.66 290.48,-90.24 270.5,-80.25"/>
<polygon fill="midnightblue" stroke="midnightblue" points="271.82,-77 261.31,-75.65 268.69,-83.26 271.82,-77"/>
</g>
<!-- Node9&#45;&gt;Node5 -->
<g id="edge12" class="edge">
<title>Node9&#45;&gt;Node5</title>
<path fill="none" stroke="midnightblue" d="M343.11,-112.25C335.1,-103.77 323.73,-90.16 318,-76 312.06,-61.33 310.21,-43.39 309.77,-30.08"/>
<polygon fill="midnightblue" stroke="midnightblue" points="313.26,-29.73 309.67,-19.77 306.26,-29.8 313.26,-29.73"/>
</g>
<!-- Node10 -->
<g id="node10" class="node">
<title>Node10</title>
<g id="a_node10"><a xlink:title=" ">
<polygon fill="none" stroke="#bfbfbf" points="326.5,-56.5 326.5,-75.5 377.5,-75.5 377.5,-56.5 326.5,-56.5"/>
<text text-anchor="middle" x="352" y="-63.5" font-family="Helvetica,sans-Serif" font-size="10.00">stdarg.h</text>
</a>
</g>
</g>
<!-- Node9&#45;&gt;Node10 -->
<g id="edge13" class="edge">
<title>Node9&#45;&gt;Node10</title>
<path fill="none" stroke="midnightblue" d="M352,-112.08C352,-105.01 352,-94.86 352,-85.99"/>
<polygon fill="midnightblue" stroke="midnightblue" points="355.5,-85.75 352,-75.75 348.5,-85.75 355.5,-85.75"/>
</g>
<!-- Node12&#45;&gt;Node3 -->
<g id="edge16" class="edge">
<title>Node12&#45;&gt;Node3</title>
<path fill="none" stroke="midnightblue" d="M50.24,-114.26C53.19,-113.49 56.16,-112.72 59,-112 113.97,-98.04 178.35,-82.58 214.84,-73.9"/>
<polygon fill="midnightblue" stroke="midnightblue" points="215.87,-77.25 224.79,-71.54 214.25,-70.44 215.87,-77.25"/>
</g>
<!-- Node15&#45;&gt;Node2 -->
<g id="edge20" class="edge">
<title>Node15&#45;&gt;Node2</title>
<path fill="none" stroke="midnightblue" d="M160.39,-280.37C169.55,-262.38 190.85,-220.55 203.03,-196.63"/>
<polygon fill="midnightblue" stroke="midnightblue" points="206.21,-198.09 207.63,-187.59 199.97,-194.92 206.21,-198.09"/>
</g>
<!-- Node16 -->
<g id="node16" class="node">
<title>Node16</title>
<g id="a_node16"><a xlink:href="list_8h.html" target="_top" xlink:title="double circular linked list impl without concurrency">
<polygon fill="none" stroke="black" points="22.5,-168.5 22.5,-187.5 59.5,-187.5 59.5,-168.5 22.5,-168.5"/>
<text text-anchor="middle" x="41" y="-175.5" font-family="Helvetica,sans-Serif" font-size="10.00">list.h</text>
</a>
</g>
</g>
<!-- Node15&#45;&gt;Node16 -->
<g id="edge21" class="edge">
<title>Node15&#45;&gt;Node16</title>
<path fill="none" stroke="midnightblue" d="M142.93,-280.47C130.32,-271.95 110.97,-258.11 96,-244 79.94,-228.86 63.91,-209.27 53.33,-195.57"/>
<polygon fill="midnightblue" stroke="midnightblue" points="56.06,-193.38 47.22,-187.53 50.48,-197.61 56.06,-193.38"/>
</g>
<!-- Node17 -->
<g id="node17" class="node">
<title>Node17</title>
<g id="a_node17"><a xlink:href="spinlock_8h.html" target="_top" xlink:title=" ">
<polygon fill="none" stroke="black" points="105,-224.5 105,-243.5 165,-243.5 165,-224.5 105,-224.5"/>
<text text-anchor="middle" x="135" y="-231.5" font-family="Helvetica,sans-Serif" font-size="10.00">spinlock.h</text>
</a>
</g>
</g>
<!-- Node15&#45;&gt;Node17 -->
<g id="edge23" class="edge">
<title>Node15&#45;&gt;Node17</title>
<path fill="none" stroke="midnightblue" d="M152.53,-280.08C149.69,-272.77 145.57,-262.18 142.04,-253.1"/>
<polygon fill="midnightblue" stroke="midnightblue" points="145.29,-251.8 138.4,-243.75 138.77,-254.34 145.29,-251.8"/>
</g>
<!-- Node16&#45;&gt;Node12 -->
<g id="edge22" class="edge">
<title>Node16&#45;&gt;Node12</title>
<path fill="none" stroke="midnightblue" d="M38.36,-168.08C36.21,-160.85 33.12,-150.41 30.45,-141.4"/>
<polygon fill="midnightblue" stroke="midnightblue" points="33.79,-140.34 27.59,-131.75 27.08,-142.33 33.79,-140.34"/>
</g>
<!-- Node17&#45;&gt;Node2 -->
<g id="edge24" class="edge">
<title>Node17&#45;&gt;Node2</title>
<path fill="none" stroke="midnightblue" d="M147.37,-224.32C159.16,-216.06 177.13,-203.45 191.14,-193.63"/>
<polygon fill="midnightblue" stroke="midnightblue" points="193.48,-196.26 199.66,-187.65 189.46,-190.53 193.48,-196.26"/>
</g>
</g>
</svg>
