<?xml version="1.0" encoding="UTF-8" standalone="no"?>
<!DOCTYPE svg PUBLIC "-//W3C//DTD SVG 1.1//EN"
 "http://www.w3.org/Graphics/SVG/1.1/DTD/svg11.dtd">
<!-- Generated by graphviz version 3.0.0 (20220413.0106)
 -->
<!-- Title: kmt_print_all_tasks Pages: 1 -->
<svg width="612pt" height="275pt"
 viewBox="0.00 0.00 612.00 275.00" xmlns="http://www.w3.org/2000/svg" xmlns:xlink="http://www.w3.org/1999/xlink">
<g id="graph0" class="graph" transform="scale(1 1) rotate(0) translate(4 271)">
<title>kmt_print_all_tasks</title>
<!-- Node1 -->
<g id="node1" class="node">
<title>Node1</title>
<g id="a_node1"><a xlink:title="print all tasks notice: do not garantee concurrency safety">
<polygon fill="#bfbfbf" stroke="black" points="0,-95.5 0,-114.5 101,-114.5 101,-95.5 0,-95.5"/>
<text text-anchor="middle" x="50.5" y="-102.5" font-family="Helvetica,sans-Serif" font-size="10.00">kmt_print_all_tasks</text>
</a>
</g>
</g>
<!-- Node2 -->
<g id="node2" class="node">
<title>Node2</title>
<g id="a_node2"><a xlink:href="stdio_8c.html#a55f3d956bb2ba20b5059e9e25484a47f" target="_top" xlink:title=" ">
<polygon fill="none" stroke="black" points="152,-180.5 152,-199.5 190,-199.5 190,-180.5 152,-180.5"/>
<text text-anchor="middle" x="171" y="-187.5" font-family="Helvetica,sans-Serif" font-size="10.00">printf</text>
</a>
</g>
</g>
<!-- Node1&#45;&gt;Node2 -->
<g id="edge1" class="edge">
<title>Node1&#45;&gt;Node2</title>
<path fill="none" stroke="midnightblue" d="M65.09,-114.75C85.45,-129.35 124.06,-157.04 148.33,-174.46"/>
<polygon fill="midnightblue" stroke="midnightblue" points="146.4,-177.38 156.57,-180.36 150.48,-171.69 146.4,-177.38"/>
</g>
<!-- Node8 -->
<g id="node8" class="node">
<title>Node8</title>
<g id="a_node8"><a xlink:href="spinlock_8c.html#ad4be0d674a7ca4dc90c2dbf8b34562cc" target="_top" xlink:title="check current cpu has the lock">
<polygon fill="none" stroke="black" points="241,-57.5 241,-76.5 312,-76.5 312,-57.5 241,-57.5"/>
<text text-anchor="middle" x="276.5" y="-64.5" font-family="Helvetica,sans-Serif" font-size="10.00">spin_holding</text>
</a>
</g>
</g>
<!-- Node1&#45;&gt;Node8 -->
<g id="edge7" class="edge">
<title>Node1&#45;&gt;Node8</title>
<path fill="none" stroke="midnightblue" d="M101.21,-96.57C139.97,-89.99 193.33,-80.94 230.76,-74.59"/>
<polygon fill="midnightblue" stroke="midnightblue" points="231.6,-78 240.87,-72.87 230.43,-71.1 231.6,-78"/>
</g>
<!-- Node17 -->
<g id="node17" class="node">
<title>Node17</title>
<g id="a_node17"><a xlink:href="spinlock_8c.html#ab6f3c37ec37006951feccc3c05387cce" target="_top" xlink:title="acquire spinlock to current cpu">
<polygon fill="none" stroke="black" points="142,-114.5 142,-133.5 200,-133.5 200,-114.5 142,-114.5"/>
<text text-anchor="middle" x="171" y="-121.5" font-family="Helvetica,sans-Serif" font-size="10.00">spin_lock</text>
</a>
</g>
</g>
<!-- Node1&#45;&gt;Node17 -->
<g id="edge19" class="edge">
<title>Node1&#45;&gt;Node17</title>
<path fill="none" stroke="midnightblue" d="M101.07,-112.95C111.42,-114.61 122.18,-116.33 132.04,-117.91"/>
<polygon fill="midnightblue" stroke="midnightblue" points="131.5,-121.37 141.93,-119.5 132.61,-114.46 131.5,-121.37"/>
</g>
<!-- Node20 -->
<g id="node20" class="node">
<title>Node20</title>
<g id="a_node20"><a xlink:href="spinlock_8c.html#acdf118d615a4bc4064e991add9a80995" target="_top" xlink:title="release spinlock from current cpu">
<polygon fill="none" stroke="black" points="137,-38.5 137,-57.5 205,-57.5 205,-38.5 137,-38.5"/>
<text text-anchor="middle" x="171" y="-45.5" font-family="Helvetica,sans-Serif" font-size="10.00">spin_unlock</text>
</a>
</g>
</g>
<!-- Node1&#45;&gt;Node20 -->
<g id="edge25" class="edge">
<title>Node1&#45;&gt;Node20</title>
<path fill="none" stroke="midnightblue" d="M71.33,-95.46C90.39,-86.29 119.4,-72.34 141.04,-61.93"/>
<polygon fill="midnightblue" stroke="midnightblue" points="142.61,-65.06 150.1,-57.57 139.57,-58.75 142.61,-65.06"/>
</g>
<!-- Node3 -->
<g id="node3" class="node">
<title>Node3</title>
<g id="a_node3"><a xlink:href="stdio_8c.html#a44a6734c6f8f81d8e1fa3b9d476c5134" target="_top" xlink:title="write bytes (including the terminating null byte (&#39;\0&#39;)) to out.">
<polygon fill="none" stroke="black" points="252,-209.5 252,-228.5 301,-228.5 301,-209.5 252,-209.5"/>
<text text-anchor="middle" x="276.5" y="-216.5" font-family="Helvetica,sans-Serif" font-size="10.00">vsprintf</text>
</a>
</g>
</g>
<!-- Node2&#45;&gt;Node3 -->
<g id="edge2" class="edge">
<title>Node2&#45;&gt;Node3</title>
<path fill="none" stroke="midnightblue" d="M190.03,-195.05C204.36,-199.07 224.8,-204.79 242.1,-209.64"/>
<polygon fill="midnightblue" stroke="midnightblue" points="241.28,-213.05 251.85,-212.37 243.17,-206.31 241.28,-213.05"/>
</g>
<!-- Node4 -->
<g id="node4" class="node">
<title>Node4</title>
<g id="a_node4"><a xlink:href="stdio_8c.html#abf852e417a205348767989f2940059ad" target="_top" xlink:title="write at most n bytes (including the terminating null byte (&#39;\0&#39;)) to out.">
<polygon fill="none" stroke="black" points="356.5,-209.5 356.5,-228.5 410.5,-228.5 410.5,-209.5 356.5,-209.5"/>
<text text-anchor="middle" x="383.5" y="-216.5" font-family="Helvetica,sans-Serif" font-size="10.00">vsnprintf</text>
</a>
</g>
</g>
<!-- Node3&#45;&gt;Node4 -->
<g id="edge3" class="edge">
<title>Node3&#45;&gt;Node4</title>
<path fill="none" stroke="midnightblue" d="M301.06,-219C314.43,-219 331.43,-219 346.43,-219"/>
<polygon fill="midnightblue" stroke="midnightblue" points="346.44,-222.5 356.44,-219 346.44,-215.5 346.44,-222.5"/>
</g>
<!-- Node5 -->
<g id="node5" class="node">
<title>Node5</title>
<g id="a_node5"><a xlink:href="stdio_8c.html#a0e2811092b514de48ac2dd675d6cf2b4" target="_top" xlink:title="print decimal into buffer,return length">
<polygon fill="none" stroke="black" points="459.5,-247.5 459.5,-266.5 518.5,-266.5 518.5,-247.5 459.5,-247.5"/>
<text text-anchor="middle" x="489" y="-254.5" font-family="Helvetica,sans-Serif" font-size="10.00">print_num</text>
</a>
</g>
</g>
<!-- Node4&#45;&gt;Node5 -->
<g id="edge4" class="edge">
<title>Node4&#45;&gt;Node5</title>
<path fill="none" stroke="midnightblue" d="M410.62,-228.59C423.24,-233.22 438.59,-238.86 452.28,-243.89"/>
<polygon fill="midnightblue" stroke="midnightblue" points="451.3,-247.25 461.89,-247.41 453.71,-240.68 451.3,-247.25"/>
</g>
<!-- Node6 -->
<g id="node6" class="node">
<title>Node6</title>
<g id="a_node6"><a xlink:href="string_8c.html#aa383452fe445bfae989358c9d7d96f4f" target="_top" xlink:title=" ">
<polygon fill="none" stroke="black" points="468.5,-209.5 468.5,-228.5 509.5,-228.5 509.5,-209.5 468.5,-209.5"/>
<text text-anchor="middle" x="489" y="-216.5" font-family="Helvetica,sans-Serif" font-size="10.00">strlen</text>
</a>
</g>
</g>
<!-- Node4&#45;&gt;Node6 -->
<g id="edge5" class="edge">
<title>Node4&#45;&gt;Node6</title>
<path fill="none" stroke="midnightblue" d="M410.62,-219C425.07,-219 443.1,-219 458.12,-219"/>
<polygon fill="midnightblue" stroke="midnightblue" points="458.43,-222.5 468.43,-219 458.43,-215.5 458.43,-222.5"/>
</g>
<!-- Node7 -->
<g id="node7" class="node">
<title>Node7</title>
<g id="a_node7"><a xlink:href="string_8c.html#a82f08f2390a9067f3c94b638e90e03bd" target="_top" xlink:title=" ">
<polygon fill="none" stroke="black" points="465,-171.5 465,-190.5 513,-190.5 513,-171.5 465,-171.5"/>
<text text-anchor="middle" x="489" y="-178.5" font-family="Helvetica,sans-Serif" font-size="10.00">strncpy</text>
</a>
</g>
</g>
<!-- Node4&#45;&gt;Node7 -->
<g id="edge6" class="edge">
<title>Node4&#45;&gt;Node7</title>
<path fill="none" stroke="midnightblue" d="M410.62,-209.41C424.14,-204.44 440.8,-198.33 455.18,-193.05"/>
<polygon fill="midnightblue" stroke="midnightblue" points="456.54,-196.28 464.72,-189.55 454.12,-189.71 456.54,-196.28"/>
</g>
<!-- Node9 -->
<g id="node9" class="node">
<title>Node9</title>
<g id="a_node9"><a xlink:href="mpe_8c.html#ab701de78cad32896c923ce900087e714" target="_top" xlink:title=" ">
<polygon fill="none" stroke="black" points="455,-57.5 455,-76.5 523,-76.5 523,-57.5 455,-57.5"/>
<text text-anchor="middle" x="489" y="-64.5" font-family="Helvetica,sans-Serif" font-size="10.00">cpu_current</text>
</a>
</g>
</g>
<!-- Node8&#45;&gt;Node9 -->
<g id="edge8" class="edge">
<title>Node8&#45;&gt;Node9</title>
<path fill="none" stroke="midnightblue" d="M312.26,-67C348.6,-67 405.69,-67 444.88,-67"/>
<polygon fill="midnightblue" stroke="midnightblue" points="444.92,-70.5 454.92,-67 444.92,-63.5 444.92,-70.5"/>
</g>
<!-- Node10 -->
<g id="node10" class="node">
<title>Node10</title>
<g id="a_node10"><a xlink:href="spinlock_8c.html#afc9565dc7a5ddf77e1fa76f5d91caf78" target="_top" xlink:title="interrupt able">
<polygon fill="none" stroke="black" points="351,-19.5 351,-38.5 416,-38.5 416,-19.5 351,-19.5"/>
<text text-anchor="middle" x="383.5" y="-26.5" font-family="Helvetica,sans-Serif" font-size="10.00">spin_popcli</text>
</a>
</g>
</g>
<!-- Node8&#45;&gt;Node10 -->
<g id="edge9" class="edge">
<title>Node8&#45;&gt;Node10</title>
<path fill="none" stroke="midnightblue" d="M304,-57.41C316.8,-52.78 332.38,-47.14 346.26,-42.11"/>
<polygon fill="midnightblue" stroke="midnightblue" points="347.8,-45.28 356.01,-38.59 345.42,-38.7 347.8,-45.28"/>
</g>
<!-- Node14 -->
<g id="node14" class="node">
<title>Node14</title>
<g id="a_node14"><a xlink:href="spinlock_8c.html#ab213874cda54fdbbeb1bec1e5fa90b28" target="_top" xlink:title="interrupt disable">
<polygon fill="none" stroke="black" points="348,-95.5 348,-114.5 419,-114.5 419,-95.5 348,-95.5"/>
<text text-anchor="middle" x="383.5" y="-102.5" font-family="Helvetica,sans-Serif" font-size="10.00">spin_pushcli</text>
</a>
</g>
</g>
<!-- Node8&#45;&gt;Node14 -->
<g id="edge14" class="edge">
<title>Node8&#45;&gt;Node14</title>
<path fill="none" stroke="midnightblue" d="M304,-76.59C316.8,-81.22 332.38,-86.86 346.26,-91.89"/>
<polygon fill="midnightblue" stroke="midnightblue" points="345.42,-95.3 356.01,-95.41 347.8,-88.72 345.42,-95.3"/>
</g>
<!-- Node10&#45;&gt;Node9 -->
<g id="edge10" class="edge">
<title>Node10&#45;&gt;Node9</title>
<path fill="none" stroke="midnightblue" d="M410.62,-38.59C423.24,-43.22 438.59,-48.86 452.28,-53.89"/>
<polygon fill="midnightblue" stroke="midnightblue" points="451.3,-57.25 461.89,-57.41 453.71,-50.68 451.3,-57.25"/>
</g>
<!-- Node11 -->
<g id="node11" class="node">
<title>Node11</title>
<g id="a_node11"><a xlink:href="cte_8c.html#a4a139958742786c5085172be1f69bfd0" target="_top" xlink:title=" ">
<polygon fill="none" stroke="black" points="473,-19.5 473,-38.5 505,-38.5 505,-19.5 473,-19.5"/>
<text text-anchor="middle" x="489" y="-26.5" font-family="Helvetica,sans-Serif" font-size="10.00">iset</text>
</a>
</g>
</g>
<!-- Node10&#45;&gt;Node11 -->
<g id="edge11" class="edge">
<title>Node10&#45;&gt;Node11</title>
<path fill="none" stroke="midnightblue" d="M416.12,-29C430.94,-29 448.37,-29 462.36,-29"/>
<polygon fill="midnightblue" stroke="midnightblue" points="462.72,-32.5 472.72,-29 462.72,-25.5 462.72,-32.5"/>
</g>
<!-- Node12 -->
<g id="node12" class="node">
<title>Node12</title>
<g id="a_node12"><a xlink:href="x86_8h.html#acc919e7809ef1db2b20aa3804f540b5c" target="_top" xlink:title=" ">
<polygon fill="none" stroke="black" points="567,-38.5 567,-57.5 596,-57.5 596,-38.5 567,-38.5"/>
<text text-anchor="middle" x="581.5" y="-45.5" font-family="Helvetica,sans-Serif" font-size="10.00">cli</text>
</a>
</g>
</g>
<!-- Node11&#45;&gt;Node12 -->
<g id="edge12" class="edge">
<title>Node11&#45;&gt;Node12</title>
<path fill="none" stroke="midnightblue" d="M505.35,-32.22C519.5,-35.19 540.71,-39.65 556.99,-43.06"/>
<polygon fill="midnightblue" stroke="midnightblue" points="556.35,-46.51 566.85,-45.13 557.78,-39.65 556.35,-46.51"/>
</g>
<!-- Node13 -->
<g id="node13" class="node">
<title>Node13</title>
<g id="a_node13"><a xlink:href="x86_8h.html#a4657e97b270d7af5a23da2c4d642ada2" target="_top" xlink:title=" ">
<polygon fill="none" stroke="black" points="567,-0.5 567,-19.5 596,-19.5 596,-0.5 567,-0.5"/>
<text text-anchor="middle" x="581.5" y="-7.5" font-family="Helvetica,sans-Serif" font-size="10.00">sti</text>
</a>
</g>
</g>
<!-- Node11&#45;&gt;Node13 -->
<g id="edge13" class="edge">
<title>Node11&#45;&gt;Node13</title>
<path fill="none" stroke="midnightblue" d="M505.35,-25.78C519.5,-22.81 540.71,-18.35 556.99,-14.94"/>
<polygon fill="midnightblue" stroke="midnightblue" points="557.78,-18.35 566.85,-12.87 556.35,-11.49 557.78,-18.35"/>
</g>
<!-- Node14&#45;&gt;Node9 -->
<g id="edge15" class="edge">
<title>Node14&#45;&gt;Node9</title>
<path fill="none" stroke="midnightblue" d="M410.62,-95.41C423.24,-90.78 438.59,-85.14 452.28,-80.11"/>
<polygon fill="midnightblue" stroke="midnightblue" points="453.71,-83.32 461.89,-76.59 451.3,-76.75 453.71,-83.32"/>
</g>
<!-- Node14&#45;&gt;Node11 -->
<g id="edge18" class="edge">
<title>Node14&#45;&gt;Node11</title>
<path fill="none" stroke="midnightblue" d="M395.55,-95.15C409.09,-83.3 432.93,-63.13 455,-48 457.92,-45.99 461.07,-44 464.22,-42.09"/>
<polygon fill="midnightblue" stroke="midnightblue" points="466.03,-45.08 472.91,-37.03 462.51,-39.04 466.03,-45.08"/>
</g>
<!-- Node15 -->
<g id="node15" class="node">
<title>Node15</title>
<g id="a_node15"><a xlink:href="cte_8c.html#a79659a2b801c42951e38f3a8821acbae" target="_top" xlink:title=" ">
<polygon fill="none" stroke="black" points="462.5,-95.5 462.5,-114.5 515.5,-114.5 515.5,-95.5 462.5,-95.5"/>
<text text-anchor="middle" x="489" y="-102.5" font-family="Helvetica,sans-Serif" font-size="10.00">ienabled</text>
</a>
</g>
</g>
<!-- Node14&#45;&gt;Node15 -->
<g id="edge16" class="edge">
<title>Node14&#45;&gt;Node15</title>
<path fill="none" stroke="midnightblue" d="M419.25,-105C429.82,-105 441.46,-105 452.1,-105"/>
<polygon fill="midnightblue" stroke="midnightblue" points="452.34,-108.5 462.34,-105 452.34,-101.5 452.34,-108.5"/>
</g>
<!-- Node16 -->
<g id="node16" class="node">
<title>Node16</title>
<g id="a_node16"><a xlink:href="x86_8h.html#a73d094f09c6a7dd3fc703aa8229933ee" target="_top" xlink:title=" ">
<polygon fill="none" stroke="black" points="559,-95.5 559,-114.5 604,-114.5 604,-95.5 559,-95.5"/>
<text text-anchor="middle" x="581.5" y="-102.5" font-family="Helvetica,sans-Serif" font-size="10.00">get_efl</text>
</a>
</g>
</g>
<!-- Node15&#45;&gt;Node16 -->
<g id="edge17" class="edge">
<title>Node15&#45;&gt;Node16</title>
<path fill="none" stroke="midnightblue" d="M515.69,-105C525.88,-105 537.71,-105 548.45,-105"/>
<polygon fill="midnightblue" stroke="midnightblue" points="548.73,-108.5 558.73,-105 548.73,-101.5 548.73,-108.5"/>
</g>
<!-- Node17&#45;&gt;Node8 -->
<g id="edge23" class="edge">
<title>Node17&#45;&gt;Node8</title>
<path fill="none" stroke="midnightblue" d="M189.56,-114.33C205.94,-105.31 230.59,-91.73 249.3,-81.43"/>
<polygon fill="midnightblue" stroke="midnightblue" points="251.13,-84.42 258.2,-76.53 247.75,-78.28 251.13,-84.42"/>
</g>
<!-- Node17&#45;&gt;Node9 -->
<g id="edge22" class="edge">
<title>Node17&#45;&gt;Node9</title>
<path fill="none" stroke="midnightblue" d="M184.89,-133.72C198.15,-143.07 219.81,-156.55 241,-162 317.62,-181.7 352.15,-204.3 419,-162 450.58,-142.01 429.65,-113.46 455,-86 456.04,-84.88 457.16,-83.8 458.33,-82.77"/>
<polygon fill="midnightblue" stroke="midnightblue" points="460.67,-85.41 466.71,-76.7 456.56,-79.74 460.67,-85.41"/>
</g>
<!-- Node17&#45;&gt;Node14 -->
<g id="edge24" class="edge">
<title>Node17&#45;&gt;Node14</title>
<path fill="none" stroke="midnightblue" d="M200.39,-121.44C235.67,-118.25 296.28,-112.78 337.81,-109.03"/>
<polygon fill="midnightblue" stroke="midnightblue" points="338.29,-112.5 347.93,-108.12 337.66,-105.53 338.29,-112.5"/>
</g>
<!-- Node18 -->
<g id="node18" class="node">
<title>Node18</title>
<g id="a_node18"><a xlink:href="mpe_8c.html#aaaad47c97c82065cf463f83b98b23c30" target="_top" xlink:title=" ">
<polygon fill="none" stroke="black" points="241,-133.5 241,-152.5 312,-152.5 312,-133.5 241,-133.5"/>
<text text-anchor="middle" x="276.5" y="-140.5" font-family="Helvetica,sans-Serif" font-size="10.00">atomic_xchg</text>
</a>
</g>
</g>
<!-- Node17&#45;&gt;Node18 -->
<g id="edge20" class="edge">
<title>Node17&#45;&gt;Node18</title>
<path fill="none" stroke="midnightblue" d="M200.01,-129.14C209.54,-130.89 220.43,-132.89 230.93,-134.82"/>
<polygon fill="midnightblue" stroke="midnightblue" points="230.34,-138.27 240.81,-136.63 231.61,-131.38 230.34,-138.27"/>
</g>
<!-- Node19 -->
<g id="node19" class="node">
<title>Node19</title>
<g id="a_node19"><a xlink:href="x86_8h.html#a48b2a6a16dc8d7e09d327aa3803f1112" target="_top" xlink:title=" ">
<polygon fill="none" stroke="black" points="365,-133.5 365,-152.5 402,-152.5 402,-133.5 365,-133.5"/>
<text text-anchor="middle" x="383.5" y="-140.5" font-family="Helvetica,sans-Serif" font-size="10.00">xchg</text>
</a>
</g>
</g>
<!-- Node18&#45;&gt;Node19 -->
<g id="edge21" class="edge">
<title>Node18&#45;&gt;Node19</title>
<path fill="none" stroke="midnightblue" d="M312.17,-143C325.99,-143 341.67,-143 354.71,-143"/>
<polygon fill="midnightblue" stroke="midnightblue" points="354.95,-146.5 364.95,-143 354.95,-139.5 354.95,-146.5"/>
</g>
<!-- Node20&#45;&gt;Node8 -->
<g id="edge26" class="edge">
<title>Node20&#45;&gt;Node8</title>
<path fill="none" stroke="midnightblue" d="M205.03,-54.06C213.28,-55.58 222.26,-57.23 230.97,-58.83"/>
<polygon fill="midnightblue" stroke="midnightblue" points="230.53,-62.3 241,-60.67 231.8,-55.42 230.53,-62.3"/>
</g>
<!-- Node20&#45;&gt;Node10 -->
<g id="edge27" class="edge">
<title>Node20&#45;&gt;Node10</title>
<path fill="none" stroke="midnightblue" d="M205.35,-44.99C241.96,-41.69 300.8,-36.37 340.52,-32.79"/>
<polygon fill="midnightblue" stroke="midnightblue" points="341.03,-36.26 350.68,-31.87 340.41,-29.29 341.03,-36.26"/>
</g>
</g>
</svg>
