<?xml version="1.0" encoding="UTF-8" standalone="no"?>
<!DOCTYPE svg PUBLIC "-//W3C//DTD SVG 1.1//EN"
 "http://www.w3.org/Graphics/SVG/1.1/DTD/svg11.dtd">
<!-- Generated by graphviz version 3.0.0 (20220413.0106)
 -->
<!-- Title: kernel/include/thread.h Pages: 1 -->
<svg width="428pt" height="308pt"
 viewBox="0.00 0.00 427.50 308.00" xmlns="http://www.w3.org/2000/svg" xmlns:xlink="http://www.w3.org/1999/xlink">
<g id="graph0" class="graph" transform="scale(1 1) rotate(0) translate(4 304)">
<title>kernel/include/thread.h</title>
<!-- Node1 -->
<g id="node1" class="node">
<title>Node1</title>
<g id="a_node1"><a xlink:title=" ">
<polygon fill="#bfbfbf" stroke="black" points="97,-280.5 97,-299.5 211,-299.5 211,-280.5 97,-280.5"/>
<text text-anchor="middle" x="154" y="-287.5" font-family="Helvetica,sans-Serif" font-size="10.00">kernel/include/thread.h</text>
</a>
</g>
</g>
<!-- Node2 -->
<g id="node2" class="node">
<title>Node2</title>
<g id="a_node2"><a xlink:href="common_8h.html" target="_top" xlink:title=" ">
<polygon fill="none" stroke="black" points="181,-168.5 181,-187.5 243,-187.5 243,-168.5 181,-168.5"/>
<text text-anchor="middle" x="212" y="-175.5" font-family="Helvetica,sans-Serif" font-size="10.00">common.h</text>
</a>
</g>
</g>
<!-- Node1&#45;&gt;Node2 -->
<g id="edge1" class="edge">
<title>Node1&#45;&gt;Node2</title>
<path fill="none" stroke="midnightblue" d="M155.35,-280.13C157.59,-267.17 162.87,-242.58 173,-224 178.79,-213.38 187.43,-203.07 195.11,-195"/>
<polygon fill="midnightblue" stroke="midnightblue" points="197.76,-197.31 202.33,-187.75 192.79,-192.37 197.76,-197.31"/>
</g>
<!-- Node14 -->
<g id="node14" class="node">
<title>Node14</title>
<g id="a_node14"><a xlink:href="list_8h.html" target="_top" xlink:title="double circular linked list impl without concurrency">
<polygon fill="none" stroke="black" points="19.5,-168.5 19.5,-187.5 56.5,-187.5 56.5,-168.5 19.5,-168.5"/>
<text text-anchor="middle" x="38" y="-175.5" font-family="Helvetica,sans-Serif" font-size="10.00">list.h</text>
</a>
</g>
</g>
<!-- Node1&#45;&gt;Node14 -->
<g id="edge18" class="edge">
<title>Node1&#45;&gt;Node14</title>
<path fill="none" stroke="midnightblue" d="M144.9,-280.37C125.42,-261.89 79.44,-218.29 54.6,-194.74"/>
<polygon fill="midnightblue" stroke="midnightblue" points="56.72,-191.93 47.06,-187.59 51.91,-197.01 56.72,-191.93"/>
</g>
<!-- Node15 -->
<g id="node15" class="node">
<title>Node15</title>
<g id="a_node15"><a xlink:href="spinlock_8h.html" target="_top" xlink:title=" ">
<polygon fill="none" stroke="black" points="182,-224.5 182,-243.5 242,-243.5 242,-224.5 182,-224.5"/>
<text text-anchor="middle" x="212" y="-231.5" font-family="Helvetica,sans-Serif" font-size="10.00">spinlock.h</text>
</a>
</g>
</g>
<!-- Node1&#45;&gt;Node15 -->
<g id="edge20" class="edge">
<title>Node1&#45;&gt;Node15</title>
<path fill="none" stroke="midnightblue" d="M163.32,-280.32C171.89,-272.34 184.81,-260.31 195.19,-250.65"/>
<polygon fill="midnightblue" stroke="midnightblue" points="197.58,-253.21 202.51,-243.83 192.81,-248.09 197.58,-253.21"/>
</g>
<!-- Node3 -->
<g id="node3" class="node">
<title>Node3</title>
<g id="a_node3"><a xlink:href="am_8h.html" target="_top" xlink:title=" ">
<polygon fill="none" stroke="black" points="225,-56.5 225,-75.5 263,-75.5 263,-56.5 225,-56.5"/>
<text text-anchor="middle" x="244" y="-63.5" font-family="Helvetica,sans-Serif" font-size="10.00">am.h</text>
</a>
</g>
</g>
<!-- Node2&#45;&gt;Node3 -->
<g id="edge2" class="edge">
<title>Node2&#45;&gt;Node3</title>
<path fill="none" stroke="midnightblue" d="M238.21,-168.41C254.85,-161.44 275.06,-149.81 285,-132 294.77,-114.5 278.96,-95.16 264.23,-82.17"/>
<polygon fill="midnightblue" stroke="midnightblue" points="266.27,-79.31 256.32,-75.65 261.81,-84.71 266.27,-79.31"/>
</g>
<!-- Node7 -->
<g id="node7" class="node">
<title>Node7</title>
<g id="a_node7"><a xlink:href="amdev_8h.html" target="_top" xlink:title=" ">
<polygon fill="none" stroke="black" points="366.5,-0.5 366.5,-19.5 419.5,-19.5 419.5,-0.5 366.5,-0.5"/>
<text text-anchor="middle" x="393" y="-7.5" font-family="Helvetica,sans-Serif" font-size="10.00">amdev.h</text>
</a>
</g>
</g>
<!-- Node2&#45;&gt;Node7 -->
<g id="edge7" class="edge">
<title>Node2&#45;&gt;Node7</title>
<path fill="none" stroke="midnightblue" d="M243.14,-172.94C286.89,-166.57 363.22,-152.75 381,-132 405.53,-103.38 401.68,-55.81 397.1,-29.66"/>
<polygon fill="midnightblue" stroke="midnightblue" points="400.49,-28.71 395.11,-19.58 393.62,-30.07 400.49,-28.71"/>
</g>
<!-- Node8 -->
<g id="node8" class="node">
<title>Node8</title>
<g id="a_node8"><a xlink:href="kernel_8h.html" target="_top" xlink:title=" ">
<polygon fill="none" stroke="black" points="68,-112.5 68,-131.5 118,-131.5 118,-112.5 68,-112.5"/>
<text text-anchor="middle" x="93" y="-119.5" font-family="Helvetica,sans-Serif" font-size="10.00">kernel.h</text>
</a>
</g>
</g>
<!-- Node2&#45;&gt;Node8 -->
<g id="edge8" class="edge">
<title>Node2&#45;&gt;Node8</title>
<path fill="none" stroke="midnightblue" d="M193.14,-168.44C173.73,-159.64 143.27,-145.81 121.04,-135.72"/>
<polygon fill="midnightblue" stroke="midnightblue" points="122.32,-132.46 111.77,-131.52 119.43,-138.84 122.32,-132.46"/>
</g>
<!-- Node9 -->
<g id="node9" class="node">
<title>Node9</title>
<g id="a_node9"><a xlink:href="klib_8h.html" target="_top" xlink:title=" ">
<polygon fill="none" stroke="black" points="332.5,-112.5 332.5,-131.5 371.5,-131.5 371.5,-112.5 332.5,-112.5"/>
<text text-anchor="middle" x="352" y="-119.5" font-family="Helvetica,sans-Serif" font-size="10.00">klib.h</text>
</a>
</g>
</g>
<!-- Node2&#45;&gt;Node9 -->
<g id="edge10" class="edge">
<title>Node2&#45;&gt;Node9</title>
<path fill="none" stroke="midnightblue" d="M234.18,-168.44C258.11,-159.21 296.32,-144.48 322.71,-134.3"/>
<polygon fill="midnightblue" stroke="midnightblue" points="324.11,-137.51 332.18,-130.64 321.59,-130.98 324.11,-137.51"/>
</g>
<!-- Node11 -->
<g id="node11" class="node">
<title>Node11</title>
<g id="a_node11"><a xlink:href="klib-macros_8h.html" target="_top" xlink:title=" ">
<polygon fill="none" stroke="black" points="136,-112.5 136,-131.5 210,-131.5 210,-112.5 136,-112.5"/>
<text text-anchor="middle" x="173" y="-119.5" font-family="Helvetica,sans-Serif" font-size="10.00">klib&#45;macros.h</text>
</a>
</g>
</g>
<!-- Node2&#45;&gt;Node11 -->
<g id="edge14" class="edge">
<title>Node2&#45;&gt;Node11</title>
<path fill="none" stroke="midnightblue" d="M205.56,-168.08C200.05,-160.46 191.97,-149.26 185.24,-139.94"/>
<polygon fill="midnightblue" stroke="midnightblue" points="188.01,-137.81 179.32,-131.75 182.34,-141.91 188.01,-137.81"/>
</g>
<!-- Node12 -->
<g id="node12" class="node">
<title>Node12</title>
<g id="a_node12"><a xlink:href="logger_8h.html" target="_top" xlink:title=" ">
<polygon fill="none" stroke="black" points="0,-112.5 0,-131.5 50,-131.5 50,-112.5 0,-112.5"/>
<text text-anchor="middle" x="25" y="-119.5" font-family="Helvetica,sans-Serif" font-size="10.00">logger.h</text>
</a>
</g>
</g>
<!-- Node2&#45;&gt;Node12 -->
<g id="edge15" class="edge">
<title>Node2&#45;&gt;Node12</title>
<path fill="none" stroke="midnightblue" d="M182.37,-168.44C149.09,-158.83 95.15,-143.26 59.87,-133.07"/>
<polygon fill="midnightblue" stroke="midnightblue" points="60.58,-129.63 50,-130.22 58.64,-136.36 60.58,-129.63"/>
</g>
<!-- Node13 -->
<g id="node13" class="node">
<title>Node13</title>
<g id="a_node13"><a xlink:title=" ">
<polygon fill="none" stroke="#bfbfbf" points="228.5,-112.5 228.5,-131.5 275.5,-131.5 275.5,-112.5 228.5,-112.5"/>
<text text-anchor="middle" x="252" y="-119.5" font-family="Helvetica,sans-Serif" font-size="10.00">limits.h</text>
</a>
</g>
</g>
<!-- Node2&#45;&gt;Node13 -->
<g id="edge17" class="edge">
<title>Node2&#45;&gt;Node13</title>
<path fill="none" stroke="midnightblue" d="M218.61,-168.08C224.26,-160.46 232.54,-149.26 239.45,-139.94"/>
<polygon fill="midnightblue" stroke="midnightblue" points="242.38,-141.87 245.52,-131.75 236.75,-137.7 242.38,-141.87"/>
</g>
<!-- Node4 -->
<g id="node4" class="node">
<title>Node4</title>
<g id="a_node4"><a xlink:title=" ">
<polygon fill="none" stroke="#bfbfbf" points="144,-0.5 144,-19.5 192,-19.5 192,-0.5 144,-0.5"/>
<text text-anchor="middle" x="168" y="-7.5" font-family="Helvetica,sans-Serif" font-size="10.00">stdint.h</text>
</a>
</g>
</g>
<!-- Node3&#45;&gt;Node4 -->
<g id="edge3" class="edge">
<title>Node3&#45;&gt;Node4</title>
<path fill="none" stroke="midnightblue" d="M231.79,-56.32C220.22,-48.11 202.62,-35.6 188.84,-25.81"/>
<polygon fill="midnightblue" stroke="midnightblue" points="190.61,-22.77 180.43,-19.83 186.56,-28.48 190.61,-22.77"/>
</g>
<!-- Node5 -->
<g id="node5" class="node">
<title>Node5</title>
<g id="a_node5"><a xlink:title=" ">
<polygon fill="none" stroke="#bfbfbf" points="284.5,-0.5 284.5,-19.5 335.5,-19.5 335.5,-0.5 284.5,-0.5"/>
<text text-anchor="middle" x="310" y="-7.5" font-family="Helvetica,sans-Serif" font-size="10.00">stddef.h</text>
</a>
</g>
</g>
<!-- Node3&#45;&gt;Node5 -->
<g id="edge4" class="edge">
<title>Node3&#45;&gt;Node5</title>
<path fill="none" stroke="midnightblue" d="M254.6,-56.32C264.46,-48.26 279.35,-36.08 291.22,-26.37"/>
<polygon fill="midnightblue" stroke="midnightblue" points="293.68,-28.88 299.2,-19.83 289.25,-23.46 293.68,-28.88"/>
</g>
<!-- Node6 -->
<g id="node6" class="node">
<title>Node6</title>
<g id="a_node6"><a xlink:title=" ">
<polygon fill="none" stroke="#bfbfbf" points="210,-0.5 210,-19.5 266,-19.5 266,-0.5 210,-0.5"/>
<text text-anchor="middle" x="238" y="-7.5" font-family="Helvetica,sans-Serif" font-size="10.00">stdbool.h</text>
</a>
</g>
</g>
<!-- Node3&#45;&gt;Node6 -->
<g id="edge5" class="edge">
<title>Node3&#45;&gt;Node6</title>
<path fill="none" stroke="midnightblue" d="M243.01,-56.08C242.21,-48.93 241.07,-38.64 240.08,-29.69"/>
<polygon fill="midnightblue" stroke="midnightblue" points="243.56,-29.3 238.97,-19.75 236.6,-30.08 243.56,-29.3"/>
</g>
<!-- Node3&#45;&gt;Node7 -->
<g id="edge6" class="edge">
<title>Node3&#45;&gt;Node7</title>
<path fill="none" stroke="midnightblue" d="M263.17,-58.05C287.61,-49.2 330.23,-33.75 359.95,-22.98"/>
<polygon fill="midnightblue" stroke="midnightblue" points="361.28,-26.22 369.48,-19.52 358.89,-19.64 361.28,-26.22"/>
</g>
<!-- Node8&#45;&gt;Node3 -->
<g id="edge9" class="edge">
<title>Node8&#45;&gt;Node3</title>
<path fill="none" stroke="midnightblue" d="M116.93,-112.44C143.59,-102.91 186.69,-87.49 215.19,-77.3"/>
<polygon fill="midnightblue" stroke="midnightblue" points="216.73,-80.47 224.97,-73.81 214.37,-73.88 216.73,-80.47"/>
</g>
<!-- Node9&#45;&gt;Node3 -->
<g id="edge11" class="edge">
<title>Node9&#45;&gt;Node3</title>
<path fill="none" stroke="midnightblue" d="M334.65,-112.32C317.33,-103.66 290.48,-90.24 270.5,-80.25"/>
<polygon fill="midnightblue" stroke="midnightblue" points="271.82,-77 261.31,-75.65 268.69,-83.26 271.82,-77"/>
</g>
<!-- Node9&#45;&gt;Node5 -->
<g id="edge12" class="edge">
<title>Node9&#45;&gt;Node5</title>
<path fill="none" stroke="midnightblue" d="M343.11,-112.25C335.1,-103.77 323.73,-90.16 318,-76 312.06,-61.33 310.21,-43.39 309.77,-30.08"/>
<polygon fill="midnightblue" stroke="midnightblue" points="313.26,-29.73 309.67,-19.77 306.26,-29.8 313.26,-29.73"/>
</g>
<!-- Node10 -->
<g id="node10" class="node">
<title>Node10</title>
<g id="a_node10"><a xlink:title=" ">
<polygon fill="none" stroke="#bfbfbf" points="326.5,-56.5 326.5,-75.5 377.5,-75.5 377.5,-56.5 326.5,-56.5"/>
<text text-anchor="middle" x="352" y="-63.5" font-family="Helvetica,sans-Serif" font-size="10.00">stdarg.h</text>
</a>
</g>
</g>
<!-- Node9&#45;&gt;Node10 -->
<g id="edge13" class="edge">
<title>Node9&#45;&gt;Node10</title>
<path fill="none" stroke="midnightblue" d="M352,-112.08C352,-105.01 352,-94.86 352,-85.99"/>
<polygon fill="midnightblue" stroke="midnightblue" points="355.5,-85.75 352,-75.75 348.5,-85.75 355.5,-85.75"/>
</g>
<!-- Node12&#45;&gt;Node3 -->
<g id="edge16" class="edge">
<title>Node12&#45;&gt;Node3</title>
<path fill="none" stroke="midnightblue" d="M50.24,-114.26C53.19,-113.49 56.16,-112.72 59,-112 113.97,-98.04 178.35,-82.58 214.84,-73.9"/>
<polygon fill="midnightblue" stroke="midnightblue" points="215.87,-77.25 224.79,-71.54 214.25,-70.44 215.87,-77.25"/>
</g>
<!-- Node14&#45;&gt;Node12 -->
<g id="edge19" class="edge">
<title>Node14&#45;&gt;Node12</title>
<path fill="none" stroke="midnightblue" d="M35.85,-168.08C34.13,-160.93 31.65,-150.64 29.5,-141.69"/>
<polygon fill="midnightblue" stroke="midnightblue" points="32.85,-140.65 27.11,-131.75 26.04,-142.29 32.85,-140.65"/>
</g>
<!-- Node15&#45;&gt;Node2 -->
<g id="edge21" class="edge">
<title>Node15&#45;&gt;Node2</title>
<path fill="none" stroke="midnightblue" d="M212,-224.08C212,-217.01 212,-206.86 212,-197.99"/>
<polygon fill="midnightblue" stroke="midnightblue" points="215.5,-197.75 212,-187.75 208.5,-197.75 215.5,-197.75"/>
</g>
</g>
</svg>
