<?xml version="1.0" encoding="UTF-8" standalone="no"?>
<!DOCTYPE svg PUBLIC "-//W3C//DTD SVG 1.1//EN"
 "http://www.w3.org/Graphics/SVG/1.1/DTD/svg11.dtd">
<!-- Generated by graphviz version 3.0.0 (20220413.0106)
 -->
<!-- Title: kernel/include/thread.h Pages: 1 -->
<svg width="426pt" height="252pt"
 viewBox="0.00 0.00 425.50 252.00" xmlns="http://www.w3.org/2000/svg" xmlns:xlink="http://www.w3.org/1999/xlink">
<g id="graph0" class="graph" transform="scale(1 1) rotate(0) translate(4 248)">
<title>kernel/include/thread.h</title>
<!-- Node1 -->
<g id="node1" class="node">
<title>Node1</title>
<g id="a_node1"><a xlink:title=" ">
<polygon fill="#bfbfbf" stroke="black" points="66,-224.5 66,-243.5 180,-243.5 180,-224.5 66,-224.5"/>
<text text-anchor="middle" x="123" y="-231.5" font-family="Helvetica,sans-Serif" font-size="10.00">kernel/include/thread.h</text>
</a>
</g>
</g>
<!-- Node2 -->
<g id="node2" class="node">
<title>Node2</title>
<g id="a_node2"><a xlink:href="common_8h.html" target="_top" xlink:title=" ">
<polygon fill="none" stroke="black" points="151,-168.5 151,-187.5 213,-187.5 213,-168.5 151,-168.5"/>
<text text-anchor="middle" x="182" y="-175.5" font-family="Helvetica,sans-Serif" font-size="10.00">common.h</text>
</a>
</g>
</g>
<!-- Node1&#45;&gt;Node2 -->
<g id="edge1" class="edge">
<title>Node1&#45;&gt;Node2</title>
<path fill="none" stroke="midnightblue" d="M132.48,-224.32C141.2,-216.34 154.34,-204.31 164.9,-194.65"/>
<polygon fill="midnightblue" stroke="midnightblue" points="167.33,-197.17 172.35,-187.83 162.61,-192 167.33,-197.17"/>
</g>
<!-- Node14 -->
<g id="node14" class="node">
<title>Node14</title>
<g id="a_node14"><a xlink:href="list_8h.html" target="_top" xlink:title="double circular linked list impl without concurrency">
<polygon fill="none" stroke="black" points="70.5,-168.5 70.5,-187.5 107.5,-187.5 107.5,-168.5 70.5,-168.5"/>
<text text-anchor="middle" x="89" y="-175.5" font-family="Helvetica,sans-Serif" font-size="10.00">list.h</text>
</a>
</g>
</g>
<!-- Node1&#45;&gt;Node14 -->
<g id="edge18" class="edge">
<title>Node1&#45;&gt;Node14</title>
<path fill="none" stroke="midnightblue" d="M117.39,-224.08C112.63,-216.53 105.68,-205.49 99.85,-196.23"/>
<polygon fill="midnightblue" stroke="midnightblue" points="102.8,-194.35 94.51,-187.75 96.88,-198.08 102.8,-194.35"/>
</g>
<!-- Node3 -->
<g id="node3" class="node">
<title>Node3</title>
<g id="a_node3"><a xlink:href="am_8h.html" target="_top" xlink:title=" ">
<polygon fill="none" stroke="black" points="220,-56.5 220,-75.5 258,-75.5 258,-56.5 220,-56.5"/>
<text text-anchor="middle" x="239" y="-63.5" font-family="Helvetica,sans-Serif" font-size="10.00">am.h</text>
</a>
</g>
</g>
<!-- Node2&#45;&gt;Node3 -->
<g id="edge2" class="edge">
<title>Node2&#45;&gt;Node3</title>
<path fill="none" stroke="midnightblue" d="M153.07,-168.45C121.69,-157.66 78.4,-137.41 97,-112 122.78,-76.79 176.27,-68.45 209.74,-66.85"/>
<polygon fill="midnightblue" stroke="midnightblue" points="209.95,-70.34 219.84,-66.54 209.74,-63.35 209.95,-70.34"/>
</g>
<!-- Node7 -->
<g id="node7" class="node">
<title>Node7</title>
<g id="a_node7"><a xlink:href="amdev_8h.html" target="_top" xlink:title=" ">
<polygon fill="none" stroke="black" points="364.5,-0.5 364.5,-19.5 417.5,-19.5 417.5,-0.5 364.5,-0.5"/>
<text text-anchor="middle" x="391" y="-7.5" font-family="Helvetica,sans-Serif" font-size="10.00">amdev.h</text>
</a>
</g>
</g>
<!-- Node2&#45;&gt;Node7 -->
<g id="edge7" class="edge">
<title>Node2&#45;&gt;Node7</title>
<path fill="none" stroke="midnightblue" d="M213.18,-174.3C263.46,-169.28 359.03,-156.67 381,-132 406.15,-103.76 400.96,-55.69 395.61,-29.44"/>
<polygon fill="midnightblue" stroke="midnightblue" points="399.01,-28.63 393.39,-19.65 392.18,-30.18 399.01,-28.63"/>
</g>
<!-- Node8 -->
<g id="node8" class="node">
<title>Node8</title>
<g id="a_node8"><a xlink:href="kernel_8h.html" target="_top" xlink:title=" ">
<polygon fill="none" stroke="black" points="264,-112.5 264,-131.5 314,-131.5 314,-112.5 264,-112.5"/>
<text text-anchor="middle" x="289" y="-119.5" font-family="Helvetica,sans-Serif" font-size="10.00">kernel.h</text>
</a>
</g>
</g>
<!-- Node2&#45;&gt;Node8 -->
<g id="edge8" class="edge">
<title>Node2&#45;&gt;Node8</title>
<path fill="none" stroke="midnightblue" d="M199.19,-168.32C216.35,-159.66 242.95,-146.24 262.75,-136.25"/>
<polygon fill="midnightblue" stroke="midnightblue" points="264.5,-139.28 271.85,-131.65 261.35,-133.04 264.5,-139.28"/>
</g>
<!-- Node9 -->
<g id="node9" class="node">
<title>Node9</title>
<g id="a_node9"><a xlink:href="klib_8h.html" target="_top" xlink:title=" ">
<polygon fill="none" stroke="black" points="332.5,-112.5 332.5,-131.5 371.5,-131.5 371.5,-112.5 332.5,-112.5"/>
<text text-anchor="middle" x="352" y="-119.5" font-family="Helvetica,sans-Serif" font-size="10.00">klib.h</text>
</a>
</g>
</g>
<!-- Node2&#45;&gt;Node9 -->
<g id="edge10" class="edge">
<title>Node2&#45;&gt;Node9</title>
<path fill="none" stroke="midnightblue" d="M208.94,-168.44C239.94,-158.6 290.69,-142.48 322.67,-132.32"/>
<polygon fill="midnightblue" stroke="midnightblue" points="323.87,-135.61 332.34,-129.24 321.75,-128.94 323.87,-135.61"/>
</g>
<!-- Node11 -->
<g id="node11" class="node">
<title>Node11</title>
<g id="a_node11"><a xlink:href="klib-macros_8h.html" target="_top" xlink:title=" ">
<polygon fill="none" stroke="black" points="106,-112.5 106,-131.5 180,-131.5 180,-112.5 106,-112.5"/>
<text text-anchor="middle" x="143" y="-119.5" font-family="Helvetica,sans-Serif" font-size="10.00">klib&#45;macros.h</text>
</a>
</g>
</g>
<!-- Node2&#45;&gt;Node11 -->
<g id="edge14" class="edge">
<title>Node2&#45;&gt;Node11</title>
<path fill="none" stroke="midnightblue" d="M175.56,-168.08C170.05,-160.46 161.97,-149.26 155.24,-139.94"/>
<polygon fill="midnightblue" stroke="midnightblue" points="158.01,-137.81 149.32,-131.75 152.34,-141.91 158.01,-137.81"/>
</g>
<!-- Node12 -->
<g id="node12" class="node">
<title>Node12</title>
<g id="a_node12"><a xlink:href="logger_8h.html" target="_top" xlink:title=" ">
<polygon fill="none" stroke="black" points="0,-112.5 0,-131.5 50,-131.5 50,-112.5 0,-112.5"/>
<text text-anchor="middle" x="25" y="-119.5" font-family="Helvetica,sans-Serif" font-size="10.00">logger.h</text>
</a>
</g>
</g>
<!-- Node2&#45;&gt;Node12 -->
<g id="edge15" class="edge">
<title>Node2&#45;&gt;Node12</title>
<path fill="none" stroke="midnightblue" d="M157.12,-168.44C130.71,-159.36 88.78,-144.94 59.26,-134.78"/>
<polygon fill="midnightblue" stroke="midnightblue" points="60.36,-131.46 49.76,-131.52 58.08,-138.08 60.36,-131.46"/>
</g>
<!-- Node13 -->
<g id="node13" class="node">
<title>Node13</title>
<g id="a_node13"><a xlink:title=" ">
<polygon fill="none" stroke="#bfbfbf" points="198.5,-112.5 198.5,-131.5 245.5,-131.5 245.5,-112.5 198.5,-112.5"/>
<text text-anchor="middle" x="222" y="-119.5" font-family="Helvetica,sans-Serif" font-size="10.00">limits.h</text>
</a>
</g>
</g>
<!-- Node2&#45;&gt;Node13 -->
<g id="edge17" class="edge">
<title>Node2&#45;&gt;Node13</title>
<path fill="none" stroke="midnightblue" d="M188.61,-168.08C194.26,-160.46 202.54,-149.26 209.45,-139.94"/>
<polygon fill="midnightblue" stroke="midnightblue" points="212.38,-141.87 215.52,-131.75 206.75,-137.7 212.38,-141.87"/>
</g>
<!-- Node4 -->
<g id="node4" class="node">
<title>Node4</title>
<g id="a_node4"><a xlink:title=" ">
<polygon fill="none" stroke="#bfbfbf" points="139,-0.5 139,-19.5 187,-19.5 187,-0.5 139,-0.5"/>
<text text-anchor="middle" x="163" y="-7.5" font-family="Helvetica,sans-Serif" font-size="10.00">stdint.h</text>
</a>
</g>
</g>
<!-- Node3&#45;&gt;Node4 -->
<g id="edge3" class="edge">
<title>Node3&#45;&gt;Node4</title>
<path fill="none" stroke="midnightblue" d="M226.79,-56.32C215.22,-48.11 197.62,-35.6 183.84,-25.81"/>
<polygon fill="midnightblue" stroke="midnightblue" points="185.61,-22.77 175.43,-19.83 181.56,-28.48 185.61,-22.77"/>
</g>
<!-- Node5 -->
<g id="node5" class="node">
<title>Node5</title>
<g id="a_node5"><a xlink:title=" ">
<polygon fill="none" stroke="#bfbfbf" points="279.5,-0.5 279.5,-19.5 330.5,-19.5 330.5,-0.5 279.5,-0.5"/>
<text text-anchor="middle" x="305" y="-7.5" font-family="Helvetica,sans-Serif" font-size="10.00">stddef.h</text>
</a>
</g>
</g>
<!-- Node3&#45;&gt;Node5 -->
<g id="edge4" class="edge">
<title>Node3&#45;&gt;Node5</title>
<path fill="none" stroke="midnightblue" d="M249.6,-56.32C259.46,-48.26 274.35,-36.08 286.22,-26.37"/>
<polygon fill="midnightblue" stroke="midnightblue" points="288.68,-28.88 294.2,-19.83 284.25,-23.46 288.68,-28.88"/>
</g>
<!-- Node6 -->
<g id="node6" class="node">
<title>Node6</title>
<g id="a_node6"><a xlink:title=" ">
<polygon fill="none" stroke="#bfbfbf" points="205,-0.5 205,-19.5 261,-19.5 261,-0.5 205,-0.5"/>
<text text-anchor="middle" x="233" y="-7.5" font-family="Helvetica,sans-Serif" font-size="10.00">stdbool.h</text>
</a>
</g>
</g>
<!-- Node3&#45;&gt;Node6 -->
<g id="edge5" class="edge">
<title>Node3&#45;&gt;Node6</title>
<path fill="none" stroke="midnightblue" d="M238.01,-56.08C237.21,-48.93 236.07,-38.64 235.08,-29.69"/>
<polygon fill="midnightblue" stroke="midnightblue" points="238.56,-29.3 233.97,-19.75 231.6,-30.08 238.56,-29.3"/>
</g>
<!-- Node3&#45;&gt;Node7 -->
<g id="edge6" class="edge">
<title>Node3&#45;&gt;Node7</title>
<path fill="none" stroke="midnightblue" d="M258.25,-58.16C283.08,-49.34 326.7,-33.84 357.13,-23.03"/>
<polygon fill="midnightblue" stroke="midnightblue" points="358.65,-26.21 366.9,-19.56 356.31,-19.61 358.65,-26.21"/>
</g>
<!-- Node8&#45;&gt;Node3 -->
<g id="edge9" class="edge">
<title>Node8&#45;&gt;Node3</title>
<path fill="none" stroke="midnightblue" d="M280.74,-112.08C273.54,-104.3 262.89,-92.8 254.15,-83.37"/>
<polygon fill="midnightblue" stroke="midnightblue" points="256.47,-80.71 247.1,-75.75 251.33,-85.47 256.47,-80.71"/>
</g>
<!-- Node9&#45;&gt;Node3 -->
<g id="edge11" class="edge">
<title>Node9&#45;&gt;Node3</title>
<path fill="none" stroke="midnightblue" d="M334.09,-112.44C315.75,-103.68 286.99,-89.94 265.91,-79.86"/>
<polygon fill="midnightblue" stroke="midnightblue" points="267.35,-76.67 256.82,-75.52 264.33,-82.99 267.35,-76.67"/>
</g>
<!-- Node9&#45;&gt;Node5 -->
<g id="edge12" class="edge">
<title>Node9&#45;&gt;Node5</title>
<path fill="none" stroke="midnightblue" d="M343.65,-112.47C335.81,-103.95 324.34,-90.11 318,-76 311.43,-61.39 308.17,-43.44 306.55,-30.11"/>
<polygon fill="midnightblue" stroke="midnightblue" points="309.99,-29.39 305.51,-19.79 303.03,-30.09 309.99,-29.39"/>
</g>
<!-- Node10 -->
<g id="node10" class="node">
<title>Node10</title>
<g id="a_node10"><a xlink:title=" ">
<polygon fill="none" stroke="#bfbfbf" points="326.5,-56.5 326.5,-75.5 377.5,-75.5 377.5,-56.5 326.5,-56.5"/>
<text text-anchor="middle" x="352" y="-63.5" font-family="Helvetica,sans-Serif" font-size="10.00">stdarg.h</text>
</a>
</g>
</g>
<!-- Node9&#45;&gt;Node10 -->
<g id="edge13" class="edge">
<title>Node9&#45;&gt;Node10</title>
<path fill="none" stroke="midnightblue" d="M352,-112.08C352,-105.01 352,-94.86 352,-85.99"/>
<polygon fill="midnightblue" stroke="midnightblue" points="355.5,-85.75 352,-75.75 348.5,-85.75 355.5,-85.75"/>
</g>
<!-- Node12&#45;&gt;Node3 -->
<g id="edge16" class="edge">
<title>Node12&#45;&gt;Node3</title>
<path fill="none" stroke="midnightblue" d="M50.39,-114.59C90.4,-104.5 167.89,-84.94 210.02,-74.31"/>
<polygon fill="midnightblue" stroke="midnightblue" points="211.09,-77.65 219.93,-71.81 209.37,-70.87 211.09,-77.65"/>
</g>
<!-- Node14&#45;&gt;Node12 -->
<g id="edge19" class="edge">
<title>Node14&#45;&gt;Node12</title>
<path fill="none" stroke="midnightblue" d="M78.72,-168.32C69.16,-160.26 54.72,-148.08 43.22,-138.37"/>
<polygon fill="midnightblue" stroke="midnightblue" points="45.37,-135.61 35.47,-131.83 40.86,-140.96 45.37,-135.61"/>
</g>
</g>
</svg>
