<?xml version="1.0" encoding="UTF-8" standalone="no"?>
<!DOCTYPE svg PUBLIC "-//W3C//DTD SVG 1.1//EN"
 "http://www.w3.org/Graphics/SVG/1.1/DTD/svg11.dtd">
<!-- Generated by graphviz version 2.50.0 (20220203.2022)
 -->
<!-- Title: __am_bootcpu_init Pages: 1 -->
<svg width="634pt" height="294pt"
 viewBox="0.00 0.00 634.00 294.00" xmlns="http://www.w3.org/2000/svg" xmlns:xlink="http://www.w3.org/1999/xlink">
<g id="graph0" class="graph" transform="scale(1 1) rotate(0) translate(4 290)">
<title>__am_bootcpu_init</title>
<!-- Node1 -->
<g id="node1" class="node">
<title>Node1</title>
<g id="a_node1"><a xlink:title=" ">
<polygon fill="#bfbfbf" stroke="black" points="0,-162.5 0,-181.5 98,-181.5 98,-162.5 0,-162.5"/>
<text text-anchor="middle" x="49" y="-169.5" font-family="Helvetica,sans-Serif" font-size="10.00">__am_bootcpu_init</text>
</a>
</g>
</g>
<!-- Node2 -->
<g id="node2" class="node">
<title>Node2</title>
<g id="a_node2"><a xlink:href="trm_8c.html#afa4d35ce31ec846cb9da5f17455f54c0" target="_top" xlink:title=" ">
<polygon fill="none" stroke="black" points="138,-228.5 138,-247.5 223,-247.5 223,-228.5 138,-228.5"/>
<text text-anchor="middle" x="180.5" y="-235.5" font-family="Helvetica,sans-Serif" font-size="10.00">__am_heap_init</text>
</a>
</g>
</g>
<!-- Node1&#45;&gt;Node2 -->
<g id="edge1" class="edge">
<title>Node1&#45;&gt;Node2</title>
<path fill="none" stroke="midnightblue" d="M68.83,-181.6C90.6,-192.69 126.64,-211.06 151.65,-223.81"/>
<polygon fill="midnightblue" stroke="midnightblue" points="150.15,-226.97 160.65,-228.39 153.33,-220.73 150.15,-226.97"/>
</g>
<!-- Node5 -->
<g id="node5" class="node">
<title>Node5</title>
<g id="a_node5"><a xlink:href="ioe_8c.html#a0f69ba538f46238680ae9887bf11331a" target="_top" xlink:title=" ">
<polygon fill="none" stroke="black" points="136,-181.5 136,-200.5 225,-200.5 225,-181.5 136,-181.5"/>
<text text-anchor="middle" x="180.5" y="-188.5" font-family="Helvetica,sans-Serif" font-size="10.00">__am_ioapic_init</text>
</a>
</g>
</g>
<!-- Node1&#45;&gt;Node5 -->
<g id="edge4" class="edge">
<title>Node1&#45;&gt;Node5</title>
<path fill="none" stroke="midnightblue" d="M98.22,-179.07C107.21,-180.39 116.65,-181.78 125.79,-183.12"/>
<polygon fill="midnightblue" stroke="midnightblue" points="125.54,-186.62 135.94,-184.61 126.55,-179.69 125.54,-186.62"/>
</g>
<!-- Node8 -->
<g id="node8" class="node">
<title>Node8</title>
<g id="a_node8"><a xlink:href="trm_8c.html#a6dbc147226148b9a52e4ddb3fcfb3f9f" target="_top" xlink:title=" ">
<polygon fill="none" stroke="black" points="138.5,-143.5 138.5,-162.5 222.5,-162.5 222.5,-143.5 138.5,-143.5"/>
<text text-anchor="middle" x="180.5" y="-150.5" font-family="Helvetica,sans-Serif" font-size="10.00">__am_lapic_init</text>
</a>
</g>
</g>
<!-- Node1&#45;&gt;Node8 -->
<g id="edge7" class="edge">
<title>Node1&#45;&gt;Node8</title>
<path fill="none" stroke="midnightblue" d="M98.22,-164.93C108.04,-163.48 118.41,-161.96 128.32,-160.51"/>
<polygon fill="midnightblue" stroke="midnightblue" points="129.07,-163.94 138.46,-159.02 128.06,-157.01 129.07,-163.94"/>
</g>
<!-- Node9 -->
<g id="node9" class="node">
<title>Node9</title>
<g id="a_node9"><a xlink:href="trm_8c.html#abac650c2a0dd8b7f13349871fd6ab6ee" target="_top" xlink:title=" ">
<polygon fill="none" stroke="black" points="134,-86.5 134,-105.5 227,-105.5 227,-86.5 134,-86.5"/>
<text text-anchor="middle" x="180.5" y="-93.5" font-family="Helvetica,sans-Serif" font-size="10.00">__am_percpu_init</text>
</a>
</g>
</g>
<!-- Node1&#45;&gt;Node9 -->
<g id="edge8" class="edge">
<title>Node1&#45;&gt;Node9</title>
<path fill="none" stroke="midnightblue" d="M66.4,-162.37C88.59,-149.35 128.37,-126.01 154.34,-110.76"/>
<polygon fill="midnightblue" stroke="midnightblue" points="156.38,-113.63 163.23,-105.55 152.84,-107.59 156.38,-113.63"/>
</g>
<!-- Node3 -->
<g id="node3" class="node">
<title>Node3</title>
<g id="a_node3"><a xlink:href="x86_8h.html#afdc603aa210ab8fd9995ce74940f5d7f" target="_top" xlink:title=" ">
<polygon fill="none" stroke="black" points="305,-228.5 305,-247.5 334,-247.5 334,-228.5 305,-228.5"/>
<text text-anchor="middle" x="319.5" y="-235.5" font-family="Helvetica,sans-Serif" font-size="10.00">inb</text>
</a>
</g>
</g>
<!-- Node2&#45;&gt;Node3 -->
<g id="edge2" class="edge">
<title>Node2&#45;&gt;Node3</title>
<path fill="none" stroke="midnightblue" d="M223.35,-238C246.74,-238 275.05,-238 294.68,-238"/>
<polygon fill="midnightblue" stroke="midnightblue" points="294.87,-241.5 304.87,-238 294.87,-234.5 294.87,-241.5"/>
</g>
<!-- Node4 -->
<g id="node4" class="node">
<title>Node4</title>
<g id="a_node4"><a xlink:href="x86_8h.html#ade961b44e45ddacbc3c3b7609cf36dc6" target="_top" xlink:title=" ">
<polygon fill="none" stroke="black" points="302,-266.5 302,-285.5 337,-285.5 337,-266.5 302,-266.5"/>
<text text-anchor="middle" x="319.5" y="-273.5" font-family="Helvetica,sans-Serif" font-size="10.00">outb</text>
</a>
</g>
</g>
<!-- Node2&#45;&gt;Node4 -->
<g id="edge3" class="edge">
<title>Node2&#45;&gt;Node4</title>
<path fill="none" stroke="midnightblue" d="M216.07,-247.59C239.64,-254.13 270.38,-262.65 292.01,-268.65"/>
<polygon fill="midnightblue" stroke="midnightblue" points="291.26,-272.08 301.83,-271.38 293.13,-265.33 291.26,-272.08"/>
</g>
<!-- Node6 -->
<g id="node6" class="node">
<title>Node6</title>
<g id="a_node6"><a xlink:href="ioe_8c.html#a37f2f997f05e2447bda6bace9bd59efa" target="_top" xlink:title=" ">
<polygon fill="none" stroke="black" points="289,-152.5 289,-171.5 350,-171.5 350,-152.5 289,-152.5"/>
<text text-anchor="middle" x="319.5" y="-159.5" font-family="Helvetica,sans-Serif" font-size="10.00">ioapicread</text>
</a>
</g>
</g>
<!-- Node5&#45;&gt;Node6 -->
<g id="edge5" class="edge">
<title>Node5&#45;&gt;Node6</title>
<path fill="none" stroke="midnightblue" d="M225.22,-181.74C242.34,-178.12 261.85,-173.99 278.58,-170.45"/>
<polygon fill="midnightblue" stroke="midnightblue" points="279.54,-173.82 288.6,-168.33 278.09,-166.98 279.54,-173.82"/>
</g>
<!-- Node7 -->
<g id="node7" class="node">
<title>Node7</title>
<g id="a_node7"><a xlink:href="ioe_8c.html#aef6c47d7966a31659d7e494efed1b15c" target="_top" xlink:title=" ">
<polygon fill="none" stroke="black" points="558,-133.5 558,-152.5 621,-152.5 621,-133.5 558,-133.5"/>
<text text-anchor="middle" x="589.5" y="-140.5" font-family="Helvetica,sans-Serif" font-size="10.00">ioapicwrite</text>
</a>
</g>
</g>
<!-- Node5&#45;&gt;Node7 -->
<g id="edge6" class="edge">
<title>Node5&#45;&gt;Node7</title>
<path fill="none" stroke="midnightblue" d="M225.03,-195.91C289.9,-201.85 415.19,-207.99 517,-181 534.66,-176.32 552.83,-166.59 566.43,-158.15"/>
<polygon fill="midnightblue" stroke="midnightblue" points="568.54,-160.95 575.05,-152.59 564.75,-155.07 568.54,-160.95"/>
</g>
<!-- Node10 -->
<g id="node10" class="node">
<title>Node10</title>
<g id="a_node10"><a xlink:href="trm_8c.html#a30657d927e0438fe41ba851aa9d7bc31" target="_top" xlink:title=" ">
<polygon fill="none" stroke="black" points="266,-38.5 266,-57.5 373,-57.5 373,-38.5 266,-38.5"/>
<text text-anchor="middle" x="319.5" y="-45.5" font-family="Helvetica,sans-Serif" font-size="10.00">__am_percpu_initgdt</text>
</a>
</g>
</g>
<!-- Node9&#45;&gt;Node10 -->
<g id="edge9" class="edge">
<title>Node9&#45;&gt;Node10</title>
<path fill="none" stroke="midnightblue" d="M208.27,-86.38C224.16,-80.7 244.71,-73.38 263,-67 268.73,-65 274.8,-62.9 280.74,-60.86"/>
<polygon fill="midnightblue" stroke="midnightblue" points="282.2,-64.06 290.53,-57.5 279.93,-57.44 282.2,-64.06"/>
</g>
<!-- Node14 -->
<g id="node14" class="node">
<title>Node14</title>
<g id="a_node14"><a xlink:href="cte_8c.html#adb128cbf8cb1844d1fef62c3647a3f25" target="_top" xlink:title=" ">
<polygon fill="none" stroke="black" points="267.5,-76.5 267.5,-95.5 371.5,-95.5 371.5,-76.5 267.5,-76.5"/>
<text text-anchor="middle" x="319.5" y="-83.5" font-family="Helvetica,sans-Serif" font-size="10.00">__am_percpu_initirq</text>
</a>
</g>
</g>
<!-- Node9&#45;&gt;Node14 -->
<g id="edge13" class="edge">
<title>Node9&#45;&gt;Node14</title>
<path fill="none" stroke="midnightblue" d="M227.12,-92.67C236.81,-91.96 247.19,-91.21 257.35,-90.46"/>
<polygon fill="midnightblue" stroke="midnightblue" points="257.69,-93.95 267.41,-89.73 257.18,-86.97 257.69,-93.95"/>
</g>
<!-- Node17 -->
<g id="node17" class="node">
<title>Node17</title>
<g id="a_node17"><a xlink:href="ioe_8c.html#afd452a54c6657d504fdbc70af4adb9cf" target="_top" xlink:title=" ">
<polygon fill="none" stroke="black" points="263,-114.5 263,-133.5 376,-133.5 376,-114.5 263,-114.5"/>
<text text-anchor="middle" x="319.5" y="-121.5" font-family="Helvetica,sans-Serif" font-size="10.00">__am_percpu_initlapic</text>
</a>
</g>
</g>
<!-- Node9&#45;&gt;Node17 -->
<g id="edge18" class="edge">
<title>Node9&#45;&gt;Node17</title>
<path fill="none" stroke="midnightblue" d="M227.12,-105.32C238.2,-107.59 250.18,-110.04 261.7,-112.39"/>
<polygon fill="midnightblue" stroke="midnightblue" points="261.18,-115.86 271.68,-114.43 262.58,-109 261.18,-115.86"/>
</g>
<!-- Node11 -->
<g id="node11" class="node">
<title>Node11</title>
<g id="a_node11"><a xlink:href="x86_8h.html#a4dc007b346b1364320af9d9e1c105455" target="_top" xlink:title=" ">
<polygon fill="none" stroke="black" points="440,-0.5 440,-19.5 489,-19.5 489,-0.5 440,-0.5"/>
<text text-anchor="middle" x="464.5" y="-7.5" font-family="Helvetica,sans-Serif" font-size="10.00">set_gdt</text>
</a>
</g>
</g>
<!-- Node10&#45;&gt;Node11 -->
<g id="edge10" class="edge">
<title>Node10&#45;&gt;Node11</title>
<path fill="none" stroke="midnightblue" d="M356.58,-38.41C379.16,-32.41 408.03,-24.74 430.08,-18.88"/>
<polygon fill="midnightblue" stroke="midnightblue" points="431.22,-22.2 439.99,-16.25 429.42,-15.43 431.22,-22.2"/>
</g>
<!-- Node13 -->
<g id="node13" class="node">
<title>Node13</title>
<g id="a_node13"><a xlink:href="x86_8h.html#a2d9f7bff4b1a6ec6b994dffdc4172bef" target="_top" xlink:title=" ">
<polygon fill="none" stroke="black" points="444,-38.5 444,-57.5 485,-57.5 485,-38.5 444,-38.5"/>
<text text-anchor="middle" x="464.5" y="-45.5" font-family="Helvetica,sans-Serif" font-size="10.00">set_tr</text>
</a>
</g>
</g>
<!-- Node10&#45;&gt;Node13 -->
<g id="edge12" class="edge">
<title>Node10&#45;&gt;Node13</title>
<path fill="none" stroke="midnightblue" d="M373.34,-48C393.77,-48 416.38,-48 433.84,-48"/>
<polygon fill="midnightblue" stroke="midnightblue" points="433.99,-51.5 443.99,-48 433.99,-44.5 433.99,-51.5"/>
</g>
<!-- Node12 -->
<g id="node12" class="node">
<title>Node12</title>
<g id="a_node12"><a xlink:href="amdev_8h.html#ab31b92691e50ae7e3b7d50598fad2e8c" target="_top" xlink:title=" ">
<polygon fill="none" stroke="black" points="553,-57.5 553,-76.5 626,-76.5 626,-57.5 553,-57.5"/>
<text text-anchor="middle" x="589.5" y="-64.5" font-family="Helvetica,sans-Serif" font-size="10.00">__attribute__</text>
</a>
</g>
</g>
<!-- Node11&#45;&gt;Node12 -->
<g id="edge11" class="edge">
<title>Node11&#45;&gt;Node12</title>
<path fill="none" stroke="midnightblue" d="M489.1,-17.95C497.95,-21.13 508.04,-24.99 517,-29 532.74,-36.05 549.82,-45.07 563.33,-52.55"/>
<polygon fill="midnightblue" stroke="midnightblue" points="561.63,-55.61 572.06,-57.44 565.05,-49.5 561.63,-55.61"/>
</g>
<!-- Node15 -->
<g id="node15" class="node">
<title>Node15</title>
<g id="a_node15"><a xlink:href="ioe_8c.html#aaa8b5de13119943f63fd14ce0cbb748f" target="_top" xlink:title=" ">
<polygon fill="none" stroke="black" points="412,-114.5 412,-133.5 517,-133.5 517,-114.5 412,-114.5"/>
<text text-anchor="middle" x="464.5" y="-121.5" font-family="Helvetica,sans-Serif" font-size="10.00">__am_ioapic_enable</text>
</a>
</g>
</g>
<!-- Node14&#45;&gt;Node15 -->
<g id="edge14" class="edge">
<title>Node14&#45;&gt;Node15</title>
<path fill="none" stroke="midnightblue" d="M356.58,-95.59C375.13,-100.52 397.93,-106.57 417.7,-111.83"/>
<polygon fill="midnightblue" stroke="midnightblue" points="416.86,-115.23 427.43,-114.41 418.66,-108.46 416.86,-115.23"/>
</g>
<!-- Node16 -->
<g id="node16" class="node">
<title>Node16</title>
<g id="a_node16"><a xlink:href="x86_8h.html#aec7546614338d8b90023fa2805432e22" target="_top" xlink:title=" ">
<polygon fill="none" stroke="black" points="441.5,-76.5 441.5,-95.5 487.5,-95.5 487.5,-76.5 441.5,-76.5"/>
<text text-anchor="middle" x="464.5" y="-83.5" font-family="Helvetica,sans-Serif" font-size="10.00">set_idt</text>
</a>
</g>
</g>
<!-- Node14&#45;&gt;Node16 -->
<g id="edge16" class="edge">
<title>Node14&#45;&gt;Node16</title>
<path fill="none" stroke="midnightblue" d="M371.72,-86C391.5,-86 413.53,-86 431.05,-86"/>
<polygon fill="midnightblue" stroke="midnightblue" points="431.32,-89.5 441.32,-86 431.32,-82.5 431.32,-89.5"/>
</g>
<!-- Node15&#45;&gt;Node7 -->
<g id="edge15" class="edge">
<title>Node15&#45;&gt;Node7</title>
<path fill="none" stroke="midnightblue" d="M517.31,-132C527.43,-133.57 537.92,-135.19 547.63,-136.69"/>
<polygon fill="midnightblue" stroke="midnightblue" points="547.39,-140.19 557.8,-138.26 548.45,-133.27 547.39,-140.19"/>
</g>
<!-- Node16&#45;&gt;Node12 -->
<g id="edge17" class="edge">
<title>Node16&#45;&gt;Node12</title>
<path fill="none" stroke="midnightblue" d="M487.77,-82.56C503.15,-80.18 524.14,-76.94 542.98,-74.03"/>
<polygon fill="midnightblue" stroke="midnightblue" points="543.53,-77.49 552.88,-72.5 542.46,-70.57 543.53,-77.49"/>
</g>
<!-- Node18 -->
<g id="node18" class="node">
<title>Node18</title>
<g id="a_node18"><a xlink:href="ioe_8c.html#a72d9ed0bfe1066367763e044b7a7b7c3" target="_top" xlink:title=" ">
<polygon fill="none" stroke="black" points="442.5,-152.5 442.5,-171.5 486.5,-171.5 486.5,-152.5 442.5,-152.5"/>
<text text-anchor="middle" x="464.5" y="-159.5" font-family="Helvetica,sans-Serif" font-size="10.00">lapicw</text>
</a>
</g>
</g>
<!-- Node17&#45;&gt;Node18 -->
<g id="edge19" class="edge">
<title>Node17&#45;&gt;Node18</title>
<path fill="none" stroke="midnightblue" d="M356.58,-133.59C379.87,-139.78 409.86,-147.75 432.15,-153.67"/>
<polygon fill="midnightblue" stroke="midnightblue" points="431.54,-157.13 442.1,-156.31 433.34,-150.36 431.54,-157.13"/>
</g>
</g>
</svg>
