<?xml version="1.0" encoding="UTF-8" standalone="no"?>
<!DOCTYPE svg PUBLIC "-//W3C//DTD SVG 1.1//EN"
 "http://www.w3.org/Graphics/SVG/1.1/DTD/svg11.dtd">
<!-- Generated by graphviz version 3.0.0 (20220413.0106)
 -->
<!-- Title: __am_bootcpu_init Pages: 1 -->
<svg width="624pt" height="332pt"
 viewBox="0.00 0.00 624.00 332.00" xmlns="http://www.w3.org/2000/svg" xmlns:xlink="http://www.w3.org/1999/xlink">
<g id="graph0" class="graph" transform="scale(1 1) rotate(0) translate(4 328)">
<title>__am_bootcpu_init</title>
<!-- Node1 -->
<g id="node1" class="node">
<title>Node1</title>
<g id="a_node1"><a xlink:title=" ">
<polygon fill="#bfbfbf" stroke="black" points="0,-190.5 0,-209.5 98,-209.5 98,-190.5 0,-190.5"/>
<text text-anchor="middle" x="49" y="-197.5" font-family="Helvetica,sans-Serif" font-size="10.00">__am_bootcpu_init</text>
</a>
</g>
</g>
<!-- Node2 -->
<g id="node2" class="node">
<title>Node2</title>
<g id="a_node2"><a xlink:href="trm_8c.html#afa4d35ce31ec846cb9da5f17455f54c0" target="_top" xlink:title=" ">
<polygon fill="none" stroke="black" points="138,-266.5 138,-285.5 223,-285.5 223,-266.5 138,-266.5"/>
<text text-anchor="middle" x="180.5" y="-273.5" font-family="Helvetica,sans-Serif" font-size="10.00">__am_heap_init</text>
</a>
</g>
</g>
<!-- Node1&#45;&gt;Node2 -->
<g id="edge1" class="edge">
<title>Node1&#45;&gt;Node2</title>
<path fill="none" stroke="midnightblue" d="M66.4,-209.63C88.59,-222.65 128.37,-245.99 154.34,-261.24"/>
<polygon fill="midnightblue" stroke="midnightblue" points="152.84,-264.41 163.23,-266.45 156.38,-258.37 152.84,-264.41"/>
</g>
<!-- Node5 -->
<g id="node5" class="node">
<title>Node5</title>
<g id="a_node5"><a xlink:href="ioe_8c.html#a0f69ba538f46238680ae9887bf11331a" target="_top" xlink:title=" ">
<polygon fill="none" stroke="black" points="136,-209.5 136,-228.5 225,-228.5 225,-209.5 136,-209.5"/>
<text text-anchor="middle" x="180.5" y="-216.5" font-family="Helvetica,sans-Serif" font-size="10.00">__am_ioapic_init</text>
</a>
</g>
</g>
<!-- Node1&#45;&gt;Node5 -->
<g id="edge4" class="edge">
<title>Node1&#45;&gt;Node5</title>
<path fill="none" stroke="midnightblue" d="M98.22,-207.07C107.21,-208.39 116.65,-209.78 125.79,-211.12"/>
<polygon fill="midnightblue" stroke="midnightblue" points="125.54,-214.62 135.94,-212.61 126.55,-207.69 125.54,-214.62"/>
</g>
<!-- Node8 -->
<g id="node8" class="node">
<title>Node8</title>
<g id="a_node8"><a xlink:href="trm_8c.html#a6dbc147226148b9a52e4ddb3fcfb3f9f" target="_top" xlink:title=" ">
<polygon fill="none" stroke="black" points="138.5,-171.5 138.5,-190.5 222.5,-190.5 222.5,-171.5 138.5,-171.5"/>
<text text-anchor="middle" x="180.5" y="-178.5" font-family="Helvetica,sans-Serif" font-size="10.00">__am_lapic_init</text>
</a>
</g>
</g>
<!-- Node1&#45;&gt;Node8 -->
<g id="edge7" class="edge">
<title>Node1&#45;&gt;Node8</title>
<path fill="none" stroke="midnightblue" d="M98.22,-192.93C108.04,-191.48 118.41,-189.96 128.32,-188.51"/>
<polygon fill="midnightblue" stroke="midnightblue" points="129.07,-191.94 138.46,-187.02 128.06,-185.01 129.07,-191.94"/>
</g>
<!-- Node9 -->
<g id="node9" class="node">
<title>Node9</title>
<g id="a_node9"><a xlink:href="trm_8c.html#abac650c2a0dd8b7f13349871fd6ab6ee" target="_top" xlink:title=" ">
<polygon fill="none" stroke="black" points="134,-95.5 134,-114.5 227,-114.5 227,-95.5 134,-95.5"/>
<text text-anchor="middle" x="180.5" y="-102.5" font-family="Helvetica,sans-Serif" font-size="10.00">__am_percpu_init</text>
</a>
</g>
</g>
<!-- Node1&#45;&gt;Node9 -->
<g id="edge8" class="edge">
<title>Node1&#45;&gt;Node9</title>
<path fill="none" stroke="midnightblue" d="M63.37,-190.19C85.78,-173.75 131.11,-140.5 158.03,-120.75"/>
<polygon fill="midnightblue" stroke="midnightblue" points="160.4,-123.35 166.39,-114.61 156.26,-117.71 160.4,-123.35"/>
</g>
<!-- Node3 -->
<g id="node3" class="node">
<title>Node3</title>
<g id="a_node3"><a xlink:href="x86_8h.html#afdc603aa210ab8fd9995ce74940f5d7f" target="_top" xlink:title=" ">
<polygon fill="none" stroke="black" points="305,-304.5 305,-323.5 334,-323.5 334,-304.5 305,-304.5"/>
<text text-anchor="middle" x="319.5" y="-311.5" font-family="Helvetica,sans-Serif" font-size="10.00">inb</text>
</a>
</g>
</g>
<!-- Node2&#45;&gt;Node3 -->
<g id="edge2" class="edge">
<title>Node2&#45;&gt;Node3</title>
<path fill="none" stroke="midnightblue" d="M216.07,-285.59C240.73,-292.43 273.24,-301.45 294.95,-307.47"/>
<polygon fill="midnightblue" stroke="midnightblue" points="294.09,-310.86 304.67,-310.16 295.96,-304.12 294.09,-310.86"/>
</g>
<!-- Node4 -->
<g id="node4" class="node">
<title>Node4</title>
<g id="a_node4"><a xlink:href="x86_8h.html#ade961b44e45ddacbc3c3b7609cf36dc6" target="_top" xlink:title=" ">
<polygon fill="none" stroke="black" points="302,-266.5 302,-285.5 337,-285.5 337,-266.5 302,-266.5"/>
<text text-anchor="middle" x="319.5" y="-273.5" font-family="Helvetica,sans-Serif" font-size="10.00">outb</text>
</a>
</g>
</g>
<!-- Node2&#45;&gt;Node4 -->
<g id="edge3" class="edge">
<title>Node2&#45;&gt;Node4</title>
<path fill="none" stroke="midnightblue" d="M223.35,-276C245.55,-276 272.19,-276 291.62,-276"/>
<polygon fill="midnightblue" stroke="midnightblue" points="291.87,-279.5 301.87,-276 291.87,-272.5 291.87,-279.5"/>
</g>
<!-- Node6 -->
<g id="node6" class="node">
<title>Node6</title>
<g id="a_node6"><a xlink:href="ioe_8c.html#a37f2f997f05e2447bda6bace9bd59efa" target="_top" xlink:title=" ">
<polygon fill="none" stroke="black" points="289,-228.5 289,-247.5 350,-247.5 350,-228.5 289,-228.5"/>
<text text-anchor="middle" x="319.5" y="-235.5" font-family="Helvetica,sans-Serif" font-size="10.00">ioapicread</text>
</a>
</g>
</g>
<!-- Node5&#45;&gt;Node6 -->
<g id="edge5" class="edge">
<title>Node5&#45;&gt;Node6</title>
<path fill="none" stroke="midnightblue" d="M225.22,-225.06C242.34,-227.44 261.85,-230.14 278.58,-232.46"/>
<polygon fill="midnightblue" stroke="midnightblue" points="278.21,-235.95 288.6,-233.85 279.17,-229.01 278.21,-235.95"/>
</g>
<!-- Node7 -->
<g id="node7" class="node">
<title>Node7</title>
<g id="a_node7"><a xlink:href="ioe_8c.html#aef6c47d7966a31659d7e494efed1b15c" target="_top" xlink:title=" ">
<polygon fill="none" stroke="black" points="553,-133.5 553,-152.5 616,-152.5 616,-133.5 553,-133.5"/>
<text text-anchor="middle" x="584.5" y="-140.5" font-family="Helvetica,sans-Serif" font-size="10.00">ioapicwrite</text>
</a>
</g>
</g>
<!-- Node5&#45;&gt;Node7 -->
<g id="edge6" class="edge">
<title>Node5&#45;&gt;Node7</title>
<path fill="none" stroke="midnightblue" d="M225.05,-219.62C290.2,-219.31 416.15,-213.97 517,-181 533.07,-175.75 549.58,-166.34 562.13,-158.2"/>
<polygon fill="midnightblue" stroke="midnightblue" points="564.16,-161.05 570.5,-152.57 560.25,-155.24 564.16,-161.05"/>
</g>
<!-- Node10 -->
<g id="node10" class="node">
<title>Node10</title>
<g id="a_node10"><a xlink:href="trm_8c.html#a30657d927e0438fe41ba851aa9d7bc31" target="_top" xlink:title=" ">
<polygon fill="none" stroke="black" points="266,-114.5 266,-133.5 373,-133.5 373,-114.5 266,-114.5"/>
<text text-anchor="middle" x="319.5" y="-121.5" font-family="Helvetica,sans-Serif" font-size="10.00">__am_percpu_initgdt</text>
</a>
</g>
</g>
<!-- Node9&#45;&gt;Node10 -->
<g id="edge9" class="edge">
<title>Node9&#45;&gt;Node10</title>
<path fill="none" stroke="midnightblue" d="M227.12,-111.33C236.36,-112.61 246.23,-113.98 255.94,-115.32"/>
<polygon fill="midnightblue" stroke="midnightblue" points="255.59,-118.81 265.97,-116.72 256.55,-111.87 255.59,-118.81"/>
</g>
<!-- Node13 -->
<g id="node13" class="node">
<title>Node13</title>
<g id="a_node13"><a xlink:href="cte_8c.html#adb128cbf8cb1844d1fef62c3647a3f25" target="_top" xlink:title=" ">
<polygon fill="none" stroke="black" points="267.5,-76.5 267.5,-95.5 371.5,-95.5 371.5,-76.5 267.5,-76.5"/>
<text text-anchor="middle" x="319.5" y="-83.5" font-family="Helvetica,sans-Serif" font-size="10.00">__am_percpu_initirq</text>
</a>
</g>
</g>
<!-- Node9&#45;&gt;Node13 -->
<g id="edge12" class="edge">
<title>Node9&#45;&gt;Node13</title>
<path fill="none" stroke="midnightblue" d="M227.12,-98.67C236.81,-97.33 247.19,-95.89 257.35,-94.48"/>
<polygon fill="midnightblue" stroke="midnightblue" points="257.99,-97.93 267.41,-93.09 257.02,-90.99 257.99,-97.93"/>
</g>
<!-- Node16 -->
<g id="node16" class="node">
<title>Node16</title>
<g id="a_node16"><a xlink:href="ioe_8c.html#afd452a54c6657d504fdbc70af4adb9cf" target="_top" xlink:title=" ">
<polygon fill="none" stroke="black" points="263,-19.5 263,-38.5 376,-38.5 376,-19.5 263,-19.5"/>
<text text-anchor="middle" x="319.5" y="-26.5" font-family="Helvetica,sans-Serif" font-size="10.00">__am_percpu_initlapic</text>
</a>
</g>
</g>
<!-- Node9&#45;&gt;Node16 -->
<g id="edge16" class="edge">
<title>Node9&#45;&gt;Node16</title>
<path fill="none" stroke="midnightblue" d="M198.85,-95.37C222.42,-82.3 264.77,-58.8 292.25,-43.56"/>
<polygon fill="midnightblue" stroke="midnightblue" points="294.24,-46.46 301.29,-38.55 290.85,-40.34 294.24,-46.46"/>
</g>
<!-- Node11 -->
<g id="node11" class="node">
<title>Node11</title>
<g id="a_node11"><a xlink:href="x86_8h.html#a4dc007b346b1364320af9d9e1c105455" target="_top" xlink:title=" ">
<polygon fill="none" stroke="black" points="440,-152.5 440,-171.5 489,-171.5 489,-152.5 440,-152.5"/>
<text text-anchor="middle" x="464.5" y="-159.5" font-family="Helvetica,sans-Serif" font-size="10.00">set_gdt</text>
</a>
</g>
</g>
<!-- Node10&#45;&gt;Node11 -->
<g id="edge10" class="edge">
<title>Node10&#45;&gt;Node11</title>
<path fill="none" stroke="midnightblue" d="M356.58,-133.59C379.16,-139.59 408.03,-147.26 430.08,-153.12"/>
<polygon fill="midnightblue" stroke="midnightblue" points="429.42,-156.57 439.99,-155.75 431.22,-149.8 429.42,-156.57"/>
</g>
<!-- Node12 -->
<g id="node12" class="node">
<title>Node12</title>
<g id="a_node12"><a xlink:href="x86_8h.html#a2d9f7bff4b1a6ec6b994dffdc4172bef" target="_top" xlink:title=" ">
<polygon fill="none" stroke="black" points="444,-114.5 444,-133.5 485,-133.5 485,-114.5 444,-114.5"/>
<text text-anchor="middle" x="464.5" y="-121.5" font-family="Helvetica,sans-Serif" font-size="10.00">set_tr</text>
</a>
</g>
</g>
<!-- Node10&#45;&gt;Node12 -->
<g id="edge11" class="edge">
<title>Node10&#45;&gt;Node12</title>
<path fill="none" stroke="midnightblue" d="M373.34,-124C393.77,-124 416.38,-124 433.84,-124"/>
<polygon fill="midnightblue" stroke="midnightblue" points="433.99,-127.5 443.99,-124 433.99,-120.5 433.99,-127.5"/>
</g>
<!-- Node14 -->
<g id="node14" class="node">
<title>Node14</title>
<g id="a_node14"><a xlink:href="ioe_8c.html#aaa8b5de13119943f63fd14ce0cbb748f" target="_top" xlink:title=" ">
<polygon fill="none" stroke="black" points="412,-76.5 412,-95.5 517,-95.5 517,-76.5 412,-76.5"/>
<text text-anchor="middle" x="464.5" y="-83.5" font-family="Helvetica,sans-Serif" font-size="10.00">__am_ioapic_enable</text>
</a>
</g>
</g>
<!-- Node13&#45;&gt;Node14 -->
<g id="edge13" class="edge">
<title>Node13&#45;&gt;Node14</title>
<path fill="none" stroke="midnightblue" d="M371.72,-86C381.36,-86 391.53,-86 401.45,-86"/>
<polygon fill="midnightblue" stroke="midnightblue" points="401.67,-89.5 411.67,-86 401.67,-82.5 401.67,-89.5"/>
</g>
<!-- Node15 -->
<g id="node15" class="node">
<title>Node15</title>
<g id="a_node15"><a xlink:href="x86_8h.html#aec7546614338d8b90023fa2805432e22" target="_top" xlink:title=" ">
<polygon fill="none" stroke="black" points="441.5,-38.5 441.5,-57.5 487.5,-57.5 487.5,-38.5 441.5,-38.5"/>
<text text-anchor="middle" x="464.5" y="-45.5" font-family="Helvetica,sans-Serif" font-size="10.00">set_idt</text>
</a>
</g>
</g>
<!-- Node13&#45;&gt;Node15 -->
<g id="edge15" class="edge">
<title>Node13&#45;&gt;Node15</title>
<path fill="none" stroke="midnightblue" d="M356.58,-76.41C379.58,-70.3 409.12,-62.45 431.32,-56.55"/>
<polygon fill="midnightblue" stroke="midnightblue" points="432.5,-59.86 441.26,-53.91 430.7,-53.09 432.5,-59.86"/>
</g>
<!-- Node14&#45;&gt;Node7 -->
<g id="edge14" class="edge">
<title>Node14&#45;&gt;Node7</title>
<path fill="none" stroke="midnightblue" d="M493.91,-95.52C501.51,-98.33 509.66,-101.58 517,-105 531.5,-111.76 547.06,-120.56 559.48,-127.99"/>
<polygon fill="midnightblue" stroke="midnightblue" points="557.94,-131.15 568.3,-133.35 561.57,-125.16 557.94,-131.15"/>
</g>
<!-- Node17 -->
<g id="node17" class="node">
<title>Node17</title>
<g id="a_node17"><a xlink:href="ioe_8c.html#a72d9ed0bfe1066367763e044b7a7b7c3" target="_top" xlink:title=" ">
<polygon fill="none" stroke="black" points="442.5,-0.5 442.5,-19.5 486.5,-19.5 486.5,-0.5 442.5,-0.5"/>
<text text-anchor="middle" x="464.5" y="-7.5" font-family="Helvetica,sans-Serif" font-size="10.00">lapicw</text>
</a>
</g>
</g>
<!-- Node16&#45;&gt;Node17 -->
<g id="edge17" class="edge">
<title>Node16&#45;&gt;Node17</title>
<path fill="none" stroke="midnightblue" d="M376.2,-21.6C395.24,-19.07 415.85,-16.33 432.27,-14.15"/>
<polygon fill="midnightblue" stroke="midnightblue" points="432.94,-17.59 442.39,-12.8 432.02,-10.65 432.94,-17.59"/>
</g>
</g>
</svg>
