<?xml version="1.0" encoding="UTF-8" standalone="no"?>
<!DOCTYPE svg PUBLIC "-//W3C//DTD SVG 1.1//EN"
 "http://www.w3.org/Graphics/SVG/1.1/DTD/svg11.dtd">
<!-- Generated by graphviz version 2.50.0 (20220203.2022)
 -->
<!-- Title: halt Pages: 1 -->
<svg width="405pt" height="239pt"
 viewBox="0.00 0.00 405.00 239.44" xmlns="http://www.w3.org/2000/svg" xmlns:xlink="http://www.w3.org/1999/xlink">
<g id="graph0" class="graph" transform="scale(1 1) rotate(0) translate(4 235.44)">
<title>halt</title>
<!-- Node1 -->
<g id="node1" class="node">
<title>Node1</title>
<g id="a_node1"><a xlink:title=" ">
<polygon fill="#bfbfbf" stroke="black" points="0,-78.94 0,-97.94 32,-97.94 32,-78.94 0,-78.94"/>
<text text-anchor="middle" x="16" y="-85.94" font-family="Helvetica,sans-Serif" font-size="10.00">halt</text>
</a>
</g>
</g>
<!-- Node2 -->
<g id="node2" class="node">
<title>Node2</title>
<g id="a_node2"><a xlink:href="mpe_8c.html#a0a540532023afb1f31b6f21ce053483b" target="_top" xlink:title=" ">
<polygon fill="none" stroke="black" points="68,-173.94 68,-192.94 180,-192.94 180,-173.94 68,-173.94"/>
<text text-anchor="middle" x="124" y="-180.94" font-family="Helvetica,sans-Serif" font-size="10.00">__am_stop_the_world</text>
</a>
</g>
</g>
<!-- Node1&#45;&gt;Node2 -->
<g id="edge1" class="edge">
<title>Node1&#45;&gt;Node2</title>
<path fill="none" stroke="midnightblue" d="M21.68,-97.96C29.44,-112.89 46.28,-141.89 68,-159.44 72.78,-163.3 78.27,-166.65 83.89,-169.53"/>
<polygon fill="midnightblue" stroke="midnightblue" points="82.84,-172.9 93.38,-173.93 85.78,-166.55 82.84,-172.9"/>
</g>
<!-- Node7 -->
<g id="node7" class="node">
<title>Node7</title>
<g id="a_node7"><a xlink:href="mpe_8c.html#ab701de78cad32896c923ce900087e714" target="_top" xlink:title=" ">
<polygon fill="none" stroke="black" points="232.5,-135.94 232.5,-154.94 300.5,-154.94 300.5,-135.94 232.5,-135.94"/>
<text text-anchor="middle" x="266.5" y="-142.94" font-family="Helvetica,sans-Serif" font-size="10.00">cpu_current</text>
</a>
</g>
</g>
<!-- Node1&#45;&gt;Node7 -->
<g id="edge8" class="edge">
<title>Node1&#45;&gt;Node7</title>
<path fill="none" stroke="midnightblue" d="M26.54,-98.12C36.11,-107.16 51.72,-120.16 68,-126.44 118.41,-145.88 181.19,-148.63 222.25,-147.85"/>
<polygon fill="midnightblue" stroke="midnightblue" points="222.56,-151.34 232.46,-147.57 222.37,-144.34 222.56,-151.34"/>
</g>
<!-- Node8 -->
<g id="node8" class="node">
<title>Node8</title>
<g id="a_node8"><a xlink:href="x86_8h.html#acc919e7809ef1db2b20aa3804f540b5c" target="_top" xlink:title=" ">
<polygon fill="none" stroke="black" points="109.5,-97.94 109.5,-116.94 138.5,-116.94 138.5,-97.94 109.5,-97.94"/>
<text text-anchor="middle" x="124" y="-104.94" font-family="Helvetica,sans-Serif" font-size="10.00">cli</text>
</a>
</g>
</g>
<!-- Node1&#45;&gt;Node8 -->
<g id="edge7" class="edge">
<title>Node1&#45;&gt;Node8</title>
<path fill="none" stroke="midnightblue" d="M32.19,-91.16C49.66,-94.29 78.56,-99.47 99.06,-103.15"/>
<polygon fill="midnightblue" stroke="midnightblue" points="98.73,-106.64 109.19,-104.96 99.96,-99.75 98.73,-106.64"/>
</g>
<!-- Node9 -->
<g id="node9" class="node">
<title>Node9</title>
<g id="a_node9"><a xlink:href="x86_8h.html#a2adfe40c0aadff727889d263815cb8ed" target="_top" xlink:title=" ">
<polygon fill="none" stroke="black" points="109.5,-59.94 109.5,-78.94 138.5,-78.94 138.5,-59.94 109.5,-59.94"/>
<text text-anchor="middle" x="124" y="-66.94" font-family="Helvetica,sans-Serif" font-size="10.00">hlt</text>
</a>
</g>
</g>
<!-- Node1&#45;&gt;Node9 -->
<g id="edge9" class="edge">
<title>Node1&#45;&gt;Node9</title>
<path fill="none" stroke="midnightblue" d="M32.19,-85.72C49.66,-82.59 78.56,-77.4 99.06,-73.73"/>
<polygon fill="midnightblue" stroke="midnightblue" points="99.96,-77.12 109.19,-71.91 98.73,-70.23 99.96,-77.12"/>
</g>
<!-- Node10 -->
<g id="node10" class="node">
<title>Node10</title>
<g id="a_node10"><a xlink:href="x86_8h.html#af92fc55c49437b9152499a13ba2b6585" target="_top" xlink:title=" ">
<polygon fill="none" stroke="black" points="105,-21.94 105,-40.94 143,-40.94 143,-21.94 105,-21.94"/>
<text text-anchor="middle" x="124" y="-28.94" font-family="Helvetica,sans-Serif" font-size="10.00">outw</text>
</a>
</g>
</g>
<!-- Node1&#45;&gt;Node10 -->
<g id="edge10" class="edge">
<title>Node1&#45;&gt;Node10</title>
<path fill="none" stroke="midnightblue" d="M27.68,-78.93C37.57,-70.53 52.97,-58.39 68,-50.44 76.5,-45.94 86.28,-42.16 95.22,-39.19"/>
<polygon fill="midnightblue" stroke="midnightblue" points="96.34,-42.51 104.83,-36.18 94.25,-35.83 96.34,-42.51"/>
</g>
<!-- Node11 -->
<g id="node11" class="node">
<title>Node11</title>
<g id="a_node11"><a xlink:href="trm_8c.html#a6351d8706733262e7e325926b1a9aab7" target="_top" xlink:title=" ">
<polygon fill="none" stroke="black" points="246,-40.94 246,-59.94 287,-59.94 287,-40.94 246,-40.94"/>
<text text-anchor="middle" x="266.5" y="-47.94" font-family="Helvetica,sans-Serif" font-size="10.00">putch</text>
</a>
</g>
</g>
<!-- Node1&#45;&gt;Node11 -->
<g id="edge11" class="edge">
<title>Node1&#45;&gt;Node11</title>
<path fill="none" stroke="midnightblue" d="M20.11,-78.72C26.17,-61.63 41.36,-26.64 68,-12.44 124.66,17.78 201.85,-15.03 240.82,-35.91"/>
<polygon fill="midnightblue" stroke="midnightblue" points="239.42,-39.14 249.87,-40.91 242.81,-33.01 239.42,-39.14"/>
</g>
<!-- Node3 -->
<g id="node3" class="node">
<title>Node3</title>
<g id="a_node3"><a xlink:href="ioe_8c.html#a88a238fee7cd006afa69ea97e4914a09" target="_top" xlink:title=" ">
<polygon fill="none" stroke="black" points="216,-211.94 216,-230.94 317,-230.94 317,-211.94 216,-211.94"/>
<text text-anchor="middle" x="266.5" y="-218.94" font-family="Helvetica,sans-Serif" font-size="10.00">__am_lapic_bootap</text>
</a>
</g>
</g>
<!-- Node2&#45;&gt;Node3 -->
<g id="edge2" class="edge">
<title>Node2&#45;&gt;Node3</title>
<path fill="none" stroke="midnightblue" d="M160.45,-193.03C178.59,-197.93 200.87,-203.96 220.23,-209.2"/>
<polygon fill="midnightblue" stroke="midnightblue" points="219.49,-212.62 230.06,-211.85 221.32,-205.86 219.49,-212.62"/>
</g>
<!-- Node6 -->
<g id="node6" class="node">
<title>Node6</title>
<g id="a_node6"><a xlink:href="x86_8h.html#adfa01b89ceed9e7a87f185f4e441aa16" target="_top" xlink:title=" ">
<polygon fill="none" stroke="black" points="232.5,-173.94 232.5,-192.94 300.5,-192.94 300.5,-173.94 232.5,-173.94"/>
<text text-anchor="middle" x="266.5" y="-180.94" font-family="Helvetica,sans-Serif" font-size="10.00">boot_record</text>
</a>
</g>
</g>
<!-- Node2&#45;&gt;Node6 -->
<g id="edge5" class="edge">
<title>Node2&#45;&gt;Node6</title>
<path fill="none" stroke="midnightblue" d="M180.13,-183.44C194.08,-183.44 208.87,-183.44 222.14,-183.44"/>
<polygon fill="midnightblue" stroke="midnightblue" points="222.42,-186.94 232.42,-183.44 222.42,-179.94 222.42,-186.94"/>
</g>
<!-- Node2&#45;&gt;Node7 -->
<g id="edge6" class="edge">
<title>Node2&#45;&gt;Node7</title>
<path fill="none" stroke="midnightblue" d="M160.45,-173.85C179.37,-168.73 202.79,-162.4 222.71,-157.01"/>
<polygon fill="midnightblue" stroke="midnightblue" points="223.73,-160.36 232.47,-154.37 221.9,-153.6 223.73,-160.36"/>
</g>
<!-- Node4 -->
<g id="node4" class="node">
<title>Node4</title>
<g id="a_node4"><a xlink:href="ioe_8c.html#a72d9ed0bfe1066367763e044b7a7b7c3" target="_top" xlink:title=" ">
<polygon fill="none" stroke="black" points="353,-211.94 353,-230.94 397,-230.94 397,-211.94 353,-211.94"/>
<text text-anchor="middle" x="375" y="-218.94" font-family="Helvetica,sans-Serif" font-size="10.00">lapicw</text>
</a>
</g>
</g>
<!-- Node3&#45;&gt;Node4 -->
<g id="edge3" class="edge">
<title>Node3&#45;&gt;Node4</title>
<path fill="none" stroke="midnightblue" d="M317.01,-221.44C325.77,-221.44 334.67,-221.44 342.75,-221.44"/>
<polygon fill="midnightblue" stroke="midnightblue" points="342.82,-224.94 352.82,-221.44 342.82,-217.94 342.82,-224.94"/>
</g>
<!-- Node5 -->
<g id="node5" class="node">
<title>Node5</title>
<g id="a_node5"><a xlink:href="x86_8h.html#ade961b44e45ddacbc3c3b7609cf36dc6" target="_top" xlink:title=" ">
<polygon fill="none" stroke="black" points="357.5,-107.94 357.5,-126.94 392.5,-126.94 392.5,-107.94 357.5,-107.94"/>
<text text-anchor="middle" x="375" y="-114.94" font-family="Helvetica,sans-Serif" font-size="10.00">outb</text>
</a>
</g>
</g>
<!-- Node3&#45;&gt;Node5 -->
<g id="edge4" class="edge">
<title>Node3&#45;&gt;Node5</title>
<path fill="none" stroke="midnightblue" d="M300.98,-211.84C306.66,-209.33 312.25,-206.23 317,-202.44 339.49,-184.5 356.33,-155.25 365.67,-136.18"/>
<polygon fill="midnightblue" stroke="midnightblue" points="368.9,-137.54 369.97,-127 362.56,-134.57 368.9,-137.54"/>
</g>
<!-- Node11&#45;&gt;Node5 -->
<g id="edge12" class="edge">
<title>Node11&#45;&gt;Node5</title>
<path fill="none" stroke="midnightblue" d="M282.76,-60.04C300.39,-71.13 329.63,-89.53 350.25,-102.5"/>
<polygon fill="midnightblue" stroke="midnightblue" points="348.44,-105.49 358.77,-107.86 352.17,-99.57 348.44,-105.49"/>
</g>
</g>
</svg>
