<?xml version="1.0" encoding="UTF-8" standalone="no"?>
<!DOCTYPE svg PUBLIC "-//W3C//DTD SVG 1.1//EN"
 "http://www.w3.org/Graphics/SVG/1.1/DTD/svg11.dtd">
<!-- Generated by graphviz version 3.0.0 (20220413.0106)
 -->
<!-- Title: call_main Pages: 1 -->
<svg width="505pt" height="240pt"
 viewBox="0.00 0.00 505.00 239.87" xmlns="http://www.w3.org/2000/svg" xmlns:xlink="http://www.w3.org/1999/xlink">
<g id="graph0" class="graph" transform="scale(1 1) rotate(0) translate(4 235.87)">
<title>call_main</title>
<!-- Node1 -->
<g id="node1" class="node">
<title>Node1</title>
<g id="a_node1"><a xlink:title=" ">
<polygon fill="#bfbfbf" stroke="black" points="0,-60.37 0,-79.37 58,-79.37 58,-60.37 0,-60.37"/>
<text text-anchor="middle" x="29" y="-67.37" font-family="Helvetica,sans-Serif" font-size="10.00">call_main</text>
</a>
</g>
</g>
<!-- Node2 -->
<g id="node2" class="node">
<title>Node2</title>
<g id="a_node2"><a xlink:href="trm_8c.html#a483cb97188e557c3c68d3a1572c2cc92" target="_top" xlink:title=" ">
<polygon fill="none" stroke="black" points="97,-79.37 97,-98.37 129,-98.37 129,-79.37 97,-79.37"/>
<text text-anchor="middle" x="113" y="-86.37" font-family="Helvetica,sans-Serif" font-size="10.00">halt</text>
</a>
</g>
</g>
<!-- Node1&#45;&gt;Node2 -->
<g id="edge1" class="edge">
<title>Node1&#45;&gt;Node2</title>
<path fill="none" stroke="midnightblue" d="M58.22,-76.41C67.54,-78.57 77.85,-80.96 86.92,-83.06"/>
<polygon fill="midnightblue" stroke="midnightblue" points="86.34,-86.52 96.87,-85.37 87.92,-79.7 86.34,-86.52"/>
</g>
<!-- Node13 -->
<g id="node13" class="node">
<title>Node13</title>
<g id="a_node13"><a xlink:href="trm_8c.html#aa12a9403d4e36817688700b1c1bd442e" target="_top" xlink:title=" ">
<polygon fill="none" stroke="black" points="94,-41.37 94,-60.37 132,-60.37 132,-41.37 94,-41.37"/>
<text text-anchor="middle" x="113" y="-48.37" font-family="Helvetica,sans-Serif" font-size="10.00">main</text>
</a>
</g>
</g>
<!-- Node1&#45;&gt;Node13 -->
<g id="edge14" class="edge">
<title>Node1&#45;&gt;Node13</title>
<path fill="none" stroke="midnightblue" d="M58.22,-63.33C66.43,-61.43 75.4,-59.35 83.62,-57.45"/>
<polygon fill="midnightblue" stroke="midnightblue" points="84.56,-60.82 93.51,-55.15 82.98,-54 84.56,-60.82"/>
</g>
<!-- Node3 -->
<g id="node3" class="node">
<title>Node3</title>
<g id="a_node3"><a xlink:href="mpe_8c.html#a0a540532023afb1f31b6f21ce053483b" target="_top" xlink:title=" ">
<polygon fill="none" stroke="black" points="168,-174.37 168,-193.37 280,-193.37 280,-174.37 168,-174.37"/>
<text text-anchor="middle" x="224" y="-181.37" font-family="Helvetica,sans-Serif" font-size="10.00">__am_stop_the_world</text>
</a>
</g>
</g>
<!-- Node2&#45;&gt;Node3 -->
<g id="edge2" class="edge">
<title>Node2&#45;&gt;Node3</title>
<path fill="none" stroke="midnightblue" d="M119.09,-98.38C127.5,-113.29 145.59,-142.26 168,-159.87 173,-163.8 178.74,-167.22 184.59,-170.15"/>
<polygon fill="midnightblue" stroke="midnightblue" points="183.22,-173.37 193.77,-174.35 186.13,-167.01 183.22,-173.37"/>
</g>
<!-- Node8 -->
<g id="node8" class="node">
<title>Node8</title>
<g id="a_node8"><a xlink:href="mpe_8c.html#ab701de78cad32896c923ce900087e714" target="_top" xlink:title=" ">
<polygon fill="none" stroke="black" points="332.5,-136.37 332.5,-155.37 400.5,-155.37 400.5,-136.37 332.5,-136.37"/>
<text text-anchor="middle" x="366.5" y="-143.37" font-family="Helvetica,sans-Serif" font-size="10.00">cpu_current</text>
</a>
</g>
</g>
<!-- Node2&#45;&gt;Node8 -->
<g id="edge9" class="edge">
<title>Node2&#45;&gt;Node8</title>
<path fill="none" stroke="midnightblue" d="M124.21,-98.55C134.43,-107.58 151.01,-120.58 168,-126.87 218.52,-145.57 281.02,-148.52 322.01,-147.97"/>
<polygon fill="midnightblue" stroke="midnightblue" points="322.28,-151.47 332.2,-147.76 322.13,-144.47 322.28,-151.47"/>
</g>
<!-- Node9 -->
<g id="node9" class="node">
<title>Node9</title>
<g id="a_node9"><a xlink:href="x86_8h.html#acc919e7809ef1db2b20aa3804f540b5c" target="_top" xlink:title=" ">
<polygon fill="none" stroke="black" points="209.5,-98.37 209.5,-117.37 238.5,-117.37 238.5,-98.37 209.5,-98.37"/>
<text text-anchor="middle" x="224" y="-105.37" font-family="Helvetica,sans-Serif" font-size="10.00">cli</text>
</a>
</g>
</g>
<!-- Node2&#45;&gt;Node9 -->
<g id="edge8" class="edge">
<title>Node2&#45;&gt;Node9</title>
<path fill="none" stroke="midnightblue" d="M129.16,-91.51C147.37,-94.69 178.14,-100.05 199.46,-103.77"/>
<polygon fill="midnightblue" stroke="midnightblue" points="198.89,-107.22 209.35,-105.49 200.1,-100.33 198.89,-107.22"/>
</g>
<!-- Node10 -->
<g id="node10" class="node">
<title>Node10</title>
<g id="a_node10"><a xlink:href="x86_8h.html#a2adfe40c0aadff727889d263815cb8ed" target="_top" xlink:title=" ">
<polygon fill="none" stroke="black" points="209.5,-60.37 209.5,-79.37 238.5,-79.37 238.5,-60.37 209.5,-60.37"/>
<text text-anchor="middle" x="224" y="-67.37" font-family="Helvetica,sans-Serif" font-size="10.00">hlt</text>
</a>
</g>
</g>
<!-- Node2&#45;&gt;Node10 -->
<g id="edge10" class="edge">
<title>Node2&#45;&gt;Node10</title>
<path fill="none" stroke="midnightblue" d="M129.16,-86.23C147.37,-83.05 178.14,-77.69 199.46,-73.97"/>
<polygon fill="midnightblue" stroke="midnightblue" points="200.1,-77.42 209.35,-72.25 198.89,-70.52 200.1,-77.42"/>
</g>
<!-- Node11 -->
<g id="node11" class="node">
<title>Node11</title>
<g id="a_node11"><a xlink:href="x86_8h.html#af92fc55c49437b9152499a13ba2b6585" target="_top" xlink:title=" ">
<polygon fill="none" stroke="black" points="205,-22.37 205,-41.37 243,-41.37 243,-22.37 205,-22.37"/>
<text text-anchor="middle" x="224" y="-29.37" font-family="Helvetica,sans-Serif" font-size="10.00">outw</text>
</a>
</g>
</g>
<!-- Node2&#45;&gt;Node11 -->
<g id="edge11" class="edge">
<title>Node2&#45;&gt;Node11</title>
<path fill="none" stroke="midnightblue" d="M125.81,-79.08C136.36,-70.72 152.49,-58.81 168,-50.87 176.56,-46.49 186.36,-42.74 195.29,-39.76"/>
<polygon fill="midnightblue" stroke="midnightblue" points="196.41,-43.08 204.89,-36.73 194.3,-36.4 196.41,-43.08"/>
</g>
<!-- Node12 -->
<g id="node12" class="node">
<title>Node12</title>
<g id="a_node12"><a xlink:href="trm_8c.html#a6351d8706733262e7e325926b1a9aab7" target="_top" xlink:title=" ">
<polygon fill="none" stroke="black" points="346,-41.37 346,-60.37 387,-60.37 387,-41.37 346,-41.37"/>
<text text-anchor="middle" x="366.5" y="-48.37" font-family="Helvetica,sans-Serif" font-size="10.00">putch</text>
</a>
</g>
</g>
<!-- Node2&#45;&gt;Node12 -->
<g id="edge12" class="edge">
<title>Node2&#45;&gt;Node12</title>
<path fill="none" stroke="midnightblue" d="M123.91,-79.14C126.65,-76.26 129.55,-73.03 132,-69.87 150.39,-46.22 141.76,-27.33 168,-12.87 224.24,18.13 301.61,-15.03 340.72,-36.15"/>
<polygon fill="midnightblue" stroke="midnightblue" points="339.36,-39.41 349.8,-41.22 342.77,-33.29 339.36,-39.41"/>
</g>
<!-- Node4 -->
<g id="node4" class="node">
<title>Node4</title>
<g id="a_node4"><a xlink:href="ioe_8c.html#a88a238fee7cd006afa69ea97e4914a09" target="_top" xlink:title=" ">
<polygon fill="none" stroke="black" points="316,-212.37 316,-231.37 417,-231.37 417,-212.37 316,-212.37"/>
<text text-anchor="middle" x="366.5" y="-219.37" font-family="Helvetica,sans-Serif" font-size="10.00">__am_lapic_bootap</text>
</a>
</g>
</g>
<!-- Node3&#45;&gt;Node4 -->
<g id="edge3" class="edge">
<title>Node3&#45;&gt;Node4</title>
<path fill="none" stroke="midnightblue" d="M260.45,-193.46C278.59,-198.37 300.87,-204.39 320.23,-209.63"/>
<polygon fill="midnightblue" stroke="midnightblue" points="319.49,-213.05 330.06,-212.28 321.32,-206.3 319.49,-213.05"/>
</g>
<!-- Node7 -->
<g id="node7" class="node">
<title>Node7</title>
<g id="a_node7"><a xlink:href="x86_8h.html#adfa01b89ceed9e7a87f185f4e441aa16" target="_top" xlink:title=" ">
<polygon fill="none" stroke="black" points="332.5,-174.37 332.5,-193.37 400.5,-193.37 400.5,-174.37 332.5,-174.37"/>
<text text-anchor="middle" x="366.5" y="-181.37" font-family="Helvetica,sans-Serif" font-size="10.00">boot_record</text>
</a>
</g>
</g>
<!-- Node3&#45;&gt;Node7 -->
<g id="edge6" class="edge">
<title>Node3&#45;&gt;Node7</title>
<path fill="none" stroke="midnightblue" d="M280.13,-183.87C294.08,-183.87 308.87,-183.87 322.14,-183.87"/>
<polygon fill="midnightblue" stroke="midnightblue" points="322.42,-187.37 332.42,-183.87 322.42,-180.37 322.42,-187.37"/>
</g>
<!-- Node3&#45;&gt;Node8 -->
<g id="edge7" class="edge">
<title>Node3&#45;&gt;Node8</title>
<path fill="none" stroke="midnightblue" d="M260.45,-174.28C279.37,-169.17 302.79,-162.83 322.71,-157.44"/>
<polygon fill="midnightblue" stroke="midnightblue" points="323.73,-160.79 332.47,-154.8 321.9,-154.04 323.73,-160.79"/>
</g>
<!-- Node5 -->
<g id="node5" class="node">
<title>Node5</title>
<g id="a_node5"><a xlink:href="ioe_8c.html#a72d9ed0bfe1066367763e044b7a7b7c3" target="_top" xlink:title=" ">
<polygon fill="none" stroke="black" points="453,-212.37 453,-231.37 497,-231.37 497,-212.37 453,-212.37"/>
<text text-anchor="middle" x="475" y="-219.37" font-family="Helvetica,sans-Serif" font-size="10.00">lapicw</text>
</a>
</g>
</g>
<!-- Node4&#45;&gt;Node5 -->
<g id="edge4" class="edge">
<title>Node4&#45;&gt;Node5</title>
<path fill="none" stroke="midnightblue" d="M417.01,-221.87C425.77,-221.87 434.67,-221.87 442.75,-221.87"/>
<polygon fill="midnightblue" stroke="midnightblue" points="442.82,-225.37 452.82,-221.87 442.82,-218.37 442.82,-225.37"/>
</g>
<!-- Node6 -->
<g id="node6" class="node">
<title>Node6</title>
<g id="a_node6"><a xlink:href="x86_8h.html#ade961b44e45ddacbc3c3b7609cf36dc6" target="_top" xlink:title=" ">
<polygon fill="none" stroke="black" points="457.5,-108.37 457.5,-127.37 492.5,-127.37 492.5,-108.37 457.5,-108.37"/>
<text text-anchor="middle" x="475" y="-115.37" font-family="Helvetica,sans-Serif" font-size="10.00">outb</text>
</a>
</g>
</g>
<!-- Node4&#45;&gt;Node6 -->
<g id="edge5" class="edge">
<title>Node4&#45;&gt;Node6</title>
<path fill="none" stroke="midnightblue" d="M400.98,-212.27C406.66,-209.76 412.25,-206.66 417,-202.87 439.49,-184.93 456.33,-155.69 465.67,-136.61"/>
<polygon fill="midnightblue" stroke="midnightblue" points="468.9,-137.98 469.97,-127.43 462.56,-135 468.9,-137.98"/>
</g>
<!-- Node12&#45;&gt;Node6 -->
<g id="edge13" class="edge">
<title>Node12&#45;&gt;Node6</title>
<path fill="none" stroke="midnightblue" d="M382.76,-60.47C400.39,-71.57 429.63,-89.96 450.25,-102.93"/>
<polygon fill="midnightblue" stroke="midnightblue" points="448.44,-105.93 458.77,-108.29 452.17,-100 448.44,-105.93"/>
</g>
</g>
</svg>
