<?xml version="1.0" encoding="UTF-8" standalone="no"?>
<!DOCTYPE svg PUBLIC "-//W3C//DTD SVG 1.1//EN"
 "http://www.w3.org/Graphics/SVG/1.1/DTD/svg11.dtd">
<!-- Generated by graphviz version 2.50.0 (20220203.2022)
 -->
<!-- Title: _start_c Pages: 1 -->
<svg width="887pt" height="498pt"
 viewBox="0.00 0.00 887.00 498.02" xmlns="http://www.w3.org/2000/svg" xmlns:xlink="http://www.w3.org/1999/xlink">
<g id="graph0" class="graph" transform="scale(1 1) rotate(0) translate(4 494.02)">
<title>_start_c</title>
<!-- Node1 -->
<g id="node1" class="node">
<title>Node1</title>
<g id="a_node1"><a xlink:title=" ">
<polygon fill="#bfbfbf" stroke="black" points="0,-285.5 0,-304.5 52,-304.5 52,-285.5 0,-285.5"/>
<text text-anchor="middle" x="26" y="-292.5" font-family="Helvetica,sans-Serif" font-size="10.00">_start_c</text>
</a>
</g>
</g>
<!-- Node2 -->
<g id="node2" class="node">
<title>Node2</title>
<g id="a_node2"><a xlink:href="trm_8c.html#a75e130ff99ad31f9a1df206b5ff8252a" target="_top" xlink:title=" ">
<polygon fill="none" stroke="black" points="234,-380.5 234,-399.5 332,-399.5 332,-380.5 234,-380.5"/>
<text text-anchor="middle" x="283" y="-387.5" font-family="Helvetica,sans-Serif" font-size="10.00">__am_bootcpu_init</text>
</a>
</g>
</g>
<!-- Node1&#45;&gt;Node2 -->
<g id="edge1" class="edge">
<title>Node1&#45;&gt;Node2</title>
<path fill="none" stroke="midnightblue" d="M33.61,-304.65C43.64,-318.46 64.08,-343.56 88,-356 130.14,-377.91 183.67,-386.05 223.82,-388.92"/>
<polygon fill="midnightblue" stroke="midnightblue" points="223.78,-392.42 233.98,-389.55 224.22,-385.44 223.78,-392.42"/>
</g>
<!-- Node20 -->
<g id="node20" class="node">
<title>Node20</title>
<g id="a_node20"><a xlink:href="mpe_8c.html#af9524b1c09898b69d9980310682a8bea" target="_top" xlink:title=" ">
<polygon fill="none" stroke="black" points="88,-304.5 88,-323.5 198,-323.5 198,-304.5 88,-304.5"/>
<text text-anchor="middle" x="143" y="-311.5" font-family="Helvetica,sans-Serif" font-size="10.00">__am_othercpu_entry</text>
</a>
</g>
</g>
<!-- Node1&#45;&gt;Node20 -->
<g id="edge21" class="edge">
<title>Node1&#45;&gt;Node20</title>
<path fill="none" stroke="midnightblue" d="M52.24,-299.17C59.83,-300.42 68.53,-301.86 77.46,-303.34"/>
<polygon fill="midnightblue" stroke="midnightblue" points="77.15,-306.83 87.59,-305.01 78.29,-299.93 77.15,-306.83"/>
</g>
<!-- Node24 -->
<g id="node24" class="node">
<title>Node24</title>
<g id="a_node24"><a xlink:href="x86_8h.html#a3aca1d1b71fb9d7c716c378b77f78a67" target="_top" xlink:title=" ">
<polygon fill="none" stroke="black" points="235.5,-342.5 235.5,-361.5 330.5,-361.5 330.5,-342.5 235.5,-342.5"/>
<text text-anchor="middle" x="283" y="-349.5" font-family="Helvetica,sans-Serif" font-size="10.00">stack_switch_call</text>
</a>
</g>
</g>
<!-- Node1&#45;&gt;Node24 -->
<g id="edge44" class="edge">
<title>Node1&#45;&gt;Node24</title>
<path fill="none" stroke="midnightblue" d="M38.77,-304.66C50.47,-313.67 69.33,-326.66 88,-333 132.42,-348.08 185.61,-352.4 225.05,-353.19"/>
<polygon fill="midnightblue" stroke="midnightblue" points="225.24,-356.7 235.28,-353.33 225.33,-349.7 225.24,-356.7"/>
</g>
<!-- Node25 -->
<g id="node25" class="node">
<title>Node25</title>
<g id="a_node25"><a xlink:href="x86-qemu_8h.html#a64bde2ec96916dd620625c36d85ef38a" target="_top" xlink:title=" ">
<polygon fill="none" stroke="black" points="253.5,-266.5 253.5,-285.5 312.5,-285.5 312.5,-266.5 253.5,-266.5"/>
<text text-anchor="middle" x="283" y="-273.5" font-family="Helvetica,sans-Serif" font-size="10.00">stack_top</text>
</a>
</g>
</g>
<!-- Node1&#45;&gt;Node25 -->
<g id="edge45" class="edge">
<title>Node1&#45;&gt;Node25</title>
<path fill="none" stroke="midnightblue" d="M52.38,-293.11C97.14,-289.77 190.36,-282.83 243.22,-278.89"/>
<polygon fill="midnightblue" stroke="midnightblue" points="243.52,-282.38 253.23,-278.14 243,-275.4 243.52,-282.38"/>
</g>
<!-- Node26 -->
<g id="node26" class="node">
<title>Node26</title>
<g id="a_node26"><a xlink:href="x86_8h.html#adfa01b89ceed9e7a87f185f4e441aa16" target="_top" xlink:title=" ">
<polygon fill="none" stroke="black" points="538.5,-157.5 538.5,-176.5 606.5,-176.5 606.5,-157.5 538.5,-157.5"/>
<text text-anchor="middle" x="572.5" y="-164.5" font-family="Helvetica,sans-Serif" font-size="10.00">boot_record</text>
</a>
</g>
</g>
<!-- Node1&#45;&gt;Node26 -->
<g id="edge28" class="edge">
<title>Node1&#45;&gt;Node26</title>
<path fill="none" stroke="midnightblue" d="M52.18,-288.22C63.17,-285.31 76.2,-281.91 88,-279 250.01,-239 443.61,-195.42 528.28,-176.57"/>
<polygon fill="midnightblue" stroke="midnightblue" points="529.3,-179.93 538.3,-174.34 527.78,-173.1 529.3,-179.93"/>
</g>
<!-- Node27 -->
<g id="node27" class="node">
<title>Node27</title>
<g id="a_node27"><a xlink:href="trm_8c.html#a12a49ff4d3a586b2315e292c5da3df7e" target="_top" xlink:title=" ">
<polygon fill="none" stroke="black" points="114,-171.5 114,-190.5 172,-190.5 172,-171.5 114,-171.5"/>
<text text-anchor="middle" x="143" y="-178.5" font-family="Helvetica,sans-Serif" font-size="10.00">call_main</text>
</a>
</g>
</g>
<!-- Node1&#45;&gt;Node27 -->
<g id="edge29" class="edge">
<title>Node1&#45;&gt;Node27</title>
<path fill="none" stroke="midnightblue" d="M34.37,-285.31C45.33,-271.15 66.93,-244.29 88,-224 98.11,-214.26 110.28,-204.42 120.51,-196.62"/>
<polygon fill="midnightblue" stroke="midnightblue" points="122.65,-199.39 128.55,-190.6 118.45,-193.79 122.65,-199.39"/>
</g>
<!-- Node3 -->
<g id="node3" class="node">
<title>Node3</title>
<g id="a_node3"><a xlink:href="trm_8c.html#afa4d35ce31ec846cb9da5f17455f54c0" target="_top" xlink:title=" ">
<polygon fill="none" stroke="black" points="381.5,-418.5 381.5,-437.5 466.5,-437.5 466.5,-418.5 381.5,-418.5"/>
<text text-anchor="middle" x="424" y="-425.5" font-family="Helvetica,sans-Serif" font-size="10.00">__am_heap_init</text>
</a>
</g>
</g>
<!-- Node2&#45;&gt;Node3 -->
<g id="edge2" class="edge">
<title>Node2&#45;&gt;Node3</title>
<path fill="none" stroke="midnightblue" d="M319.08,-399.59C337.02,-404.49 359.06,-410.52 378.22,-415.76"/>
<polygon fill="midnightblue" stroke="midnightblue" points="377.37,-419.15 387.94,-418.41 379.21,-412.4 377.37,-419.15"/>
</g>
<!-- Node6 -->
<g id="node6" class="node">
<title>Node6</title>
<g id="a_node6"><a xlink:href="ioe_8c.html#a0f69ba538f46238680ae9887bf11331a" target="_top" xlink:title=" ">
<polygon fill="none" stroke="black" points="379.5,-456.5 379.5,-475.5 468.5,-475.5 468.5,-456.5 379.5,-456.5"/>
<text text-anchor="middle" x="424" y="-463.5" font-family="Helvetica,sans-Serif" font-size="10.00">__am_ioapic_init</text>
</a>
</g>
</g>
<!-- Node2&#45;&gt;Node6 -->
<g id="edge5" class="edge">
<title>Node2&#45;&gt;Node6</title>
<path fill="none" stroke="midnightblue" d="M295.89,-399.57C311.63,-411.87 340.58,-433.27 368,-447 372.24,-449.12 376.77,-451.1 381.34,-452.93"/>
<polygon fill="midnightblue" stroke="midnightblue" points="380.12,-456.21 390.71,-456.44 382.58,-449.65 380.12,-456.21"/>
</g>
<!-- Node9 -->
<g id="node9" class="node">
<title>Node9</title>
<g id="a_node9"><a xlink:href="trm_8c.html#a6dbc147226148b9a52e4ddb3fcfb3f9f" target="_top" xlink:title=" ">
<polygon fill="none" stroke="black" points="382,-380.5 382,-399.5 466,-399.5 466,-380.5 382,-380.5"/>
<text text-anchor="middle" x="424" y="-387.5" font-family="Helvetica,sans-Serif" font-size="10.00">__am_lapic_init</text>
</a>
</g>
</g>
<!-- Node2&#45;&gt;Node9 -->
<g id="edge8" class="edge">
<title>Node2&#45;&gt;Node9</title>
<path fill="none" stroke="midnightblue" d="M332.23,-390C344.97,-390 358.77,-390 371.68,-390"/>
<polygon fill="midnightblue" stroke="midnightblue" points="371.79,-393.5 381.79,-390 371.79,-386.5 371.79,-393.5"/>
</g>
<!-- Node10 -->
<g id="node10" class="node">
<title>Node10</title>
<g id="a_node10"><a xlink:href="trm_8c.html#abac650c2a0dd8b7f13349871fd6ab6ee" target="_top" xlink:title=" ">
<polygon fill="none" stroke="black" points="377.5,-342.5 377.5,-361.5 470.5,-361.5 470.5,-342.5 377.5,-342.5"/>
<text text-anchor="middle" x="424" y="-349.5" font-family="Helvetica,sans-Serif" font-size="10.00">__am_percpu_init</text>
</a>
</g>
</g>
<!-- Node2&#45;&gt;Node10 -->
<g id="edge9" class="edge">
<title>Node2&#45;&gt;Node10</title>
<path fill="none" stroke="midnightblue" d="M319.08,-380.41C337.02,-375.51 359.06,-369.48 378.22,-364.24"/>
<polygon fill="midnightblue" stroke="midnightblue" points="379.21,-367.6 387.94,-361.59 377.37,-360.85 379.21,-367.6"/>
</g>
<!-- Node4 -->
<g id="node4" class="node">
<title>Node4</title>
<g id="a_node4"><a xlink:href="x86_8h.html#afdc603aa210ab8fd9995ce74940f5d7f" target="_top" xlink:title=" ">
<polygon fill="none" stroke="black" points="558,-418.5 558,-437.5 587,-437.5 587,-418.5 558,-418.5"/>
<text text-anchor="middle" x="572.5" y="-425.5" font-family="Helvetica,sans-Serif" font-size="10.00">inb</text>
</a>
</g>
</g>
<!-- Node3&#45;&gt;Node4 -->
<g id="edge3" class="edge">
<title>Node3&#45;&gt;Node4</title>
<path fill="none" stroke="midnightblue" d="M466.59,-428C492.93,-428 526.04,-428 547.94,-428"/>
<polygon fill="midnightblue" stroke="midnightblue" points="547.99,-431.5 557.99,-428 547.99,-424.5 547.99,-431.5"/>
</g>
<!-- Node5 -->
<g id="node5" class="node">
<title>Node5</title>
<g id="a_node5"><a xlink:href="x86_8h.html#ade961b44e45ddacbc3c3b7609cf36dc6" target="_top" xlink:title=" ">
<polygon fill="none" stroke="black" points="700,-195.5 700,-214.5 735,-214.5 735,-195.5 700,-195.5"/>
<text text-anchor="middle" x="717.5" y="-202.5" font-family="Helvetica,sans-Serif" font-size="10.00">outb</text>
</a>
</g>
</g>
<!-- Node3&#45;&gt;Node5 -->
<g id="edge4" class="edge">
<title>Node3&#45;&gt;Node5</title>
<path fill="none" stroke="midnightblue" d="M465.26,-418.37C470.61,-415.92 475.71,-412.84 480,-409 507.84,-384.06 489.43,-359.28 516,-333 555.31,-294.13 582.55,-310.98 629,-281 655.73,-263.74 682.82,-238.81 699.63,-222.27"/>
<polygon fill="midnightblue" stroke="midnightblue" points="702.41,-224.43 707.01,-214.89 697.46,-219.48 702.41,-224.43"/>
</g>
<!-- Node7 -->
<g id="node7" class="node">
<title>Node7</title>
<g id="a_node7"><a xlink:href="ioe_8c.html#a37f2f997f05e2447bda6bace9bd59efa" target="_top" xlink:title=" ">
<polygon fill="none" stroke="black" points="542,-456.5 542,-475.5 603,-475.5 603,-456.5 542,-456.5"/>
<text text-anchor="middle" x="572.5" y="-463.5" font-family="Helvetica,sans-Serif" font-size="10.00">ioapicread</text>
</a>
</g>
</g>
<!-- Node6&#45;&gt;Node7 -->
<g id="edge6" class="edge">
<title>Node6&#45;&gt;Node7</title>
<path fill="none" stroke="midnightblue" d="M468.56,-466C488.58,-466 512.16,-466 531.69,-466"/>
<polygon fill="midnightblue" stroke="midnightblue" points="531.79,-469.5 541.79,-466 531.79,-462.5 531.79,-469.5"/>
</g>
<!-- Node8 -->
<g id="node8" class="node">
<title>Node8</title>
<g id="a_node8"><a xlink:href="ioe_8c.html#aef6c47d7966a31659d7e494efed1b15c" target="_top" xlink:title=" ">
<polygon fill="none" stroke="black" points="811,-465.5 811,-484.5 874,-484.5 874,-465.5 811,-465.5"/>
<text text-anchor="middle" x="842.5" y="-472.5" font-family="Helvetica,sans-Serif" font-size="10.00">ioapicwrite</text>
</a>
</g>
</g>
<!-- Node6&#45;&gt;Node8 -->
<g id="edge7" class="edge">
<title>Node6&#45;&gt;Node8</title>
<path fill="none" stroke="midnightblue" d="M461.92,-475.51C478.35,-479.27 498.02,-483.14 516,-485 618.07,-495.54 739.02,-486.11 800.78,-479.73"/>
<polygon fill="midnightblue" stroke="midnightblue" points="801.31,-483.19 810.89,-478.65 800.57,-476.23 801.31,-483.19"/>
</g>
<!-- Node11 -->
<g id="node11" class="node">
<title>Node11</title>
<g id="a_node11"><a xlink:href="trm_8c.html#a30657d927e0438fe41ba851aa9d7bc31" target="_top" xlink:title=" ">
<polygon fill="none" stroke="black" points="519,-342.5 519,-361.5 626,-361.5 626,-342.5 519,-342.5"/>
<text text-anchor="middle" x="572.5" y="-349.5" font-family="Helvetica,sans-Serif" font-size="10.00">__am_percpu_initgdt</text>
</a>
</g>
</g>
<!-- Node10&#45;&gt;Node11 -->
<g id="edge10" class="edge">
<title>Node10&#45;&gt;Node11</title>
<path fill="none" stroke="midnightblue" d="M470.55,-352C482.61,-352 495.85,-352 508.66,-352"/>
<polygon fill="midnightblue" stroke="midnightblue" points="508.8,-355.5 518.8,-352 508.8,-348.5 508.8,-355.5"/>
</g>
<!-- Node15 -->
<g id="node15" class="node">
<title>Node15</title>
<g id="a_node15"><a xlink:href="cte_8c.html#adb128cbf8cb1844d1fef62c3647a3f25" target="_top" xlink:title=" ">
<polygon fill="none" stroke="black" points="520.5,-380.5 520.5,-399.5 624.5,-399.5 624.5,-380.5 520.5,-380.5"/>
<text text-anchor="middle" x="572.5" y="-387.5" font-family="Helvetica,sans-Serif" font-size="10.00">__am_percpu_initirq</text>
</a>
</g>
</g>
<!-- Node10&#45;&gt;Node15 -->
<g id="edge14" class="edge">
<title>Node10&#45;&gt;Node15</title>
<path fill="none" stroke="midnightblue" d="M461.97,-361.59C481.13,-366.56 504.71,-372.68 525.09,-377.96"/>
<polygon fill="midnightblue" stroke="midnightblue" points="524.24,-381.36 534.8,-380.48 526,-374.58 524.24,-381.36"/>
</g>
<!-- Node18 -->
<g id="node18" class="node">
<title>Node18</title>
<g id="a_node18"><a xlink:href="ioe_8c.html#afd452a54c6657d504fdbc70af4adb9cf" target="_top" xlink:title=" ">
<polygon fill="none" stroke="black" points="516,-252.5 516,-271.5 629,-271.5 629,-252.5 516,-252.5"/>
<text text-anchor="middle" x="572.5" y="-259.5" font-family="Helvetica,sans-Serif" font-size="10.00">__am_percpu_initlapic</text>
</a>
</g>
</g>
<!-- Node10&#45;&gt;Node18 -->
<g id="edge19" class="edge">
<title>Node10&#45;&gt;Node18</title>
<path fill="none" stroke="midnightblue" d="M460.79,-342.44C467.44,-339.9 474.14,-336.78 480,-333 499.55,-320.4 497.83,-309.53 516,-295 524.47,-288.23 534.47,-281.86 543.62,-276.56"/>
<polygon fill="midnightblue" stroke="midnightblue" points="545.4,-279.58 552.41,-271.64 541.98,-273.47 545.4,-279.58"/>
</g>
<!-- Node12 -->
<g id="node12" class="node">
<title>Node12</title>
<g id="a_node12"><a xlink:href="x86_8h.html#a4dc007b346b1364320af9d9e1c105455" target="_top" xlink:title=" ">
<polygon fill="none" stroke="black" points="693,-342.5 693,-361.5 742,-361.5 742,-342.5 693,-342.5"/>
<text text-anchor="middle" x="717.5" y="-349.5" font-family="Helvetica,sans-Serif" font-size="10.00">set_gdt</text>
</a>
</g>
</g>
<!-- Node11&#45;&gt;Node12 -->
<g id="edge11" class="edge">
<title>Node11&#45;&gt;Node12</title>
<path fill="none" stroke="midnightblue" d="M626.34,-352C645.14,-352 665.78,-352 682.57,-352"/>
<polygon fill="midnightblue" stroke="midnightblue" points="682.99,-355.5 692.99,-352 682.99,-348.5 682.99,-355.5"/>
</g>
<!-- Node14 -->
<g id="node14" class="node">
<title>Node14</title>
<g id="a_node14"><a xlink:href="x86_8h.html#a2d9f7bff4b1a6ec6b994dffdc4172bef" target="_top" xlink:title=" ">
<polygon fill="none" stroke="black" points="697,-304.5 697,-323.5 738,-323.5 738,-304.5 697,-304.5"/>
<text text-anchor="middle" x="717.5" y="-311.5" font-family="Helvetica,sans-Serif" font-size="10.00">set_tr</text>
</a>
</g>
</g>
<!-- Node11&#45;&gt;Node14 -->
<g id="edge13" class="edge">
<title>Node11&#45;&gt;Node14</title>
<path fill="none" stroke="midnightblue" d="M609.58,-342.41C633.44,-336.07 664.34,-327.86 686.78,-321.9"/>
<polygon fill="midnightblue" stroke="midnightblue" points="687.97,-325.2 696.74,-319.25 686.17,-318.44 687.97,-325.2"/>
</g>
<!-- Node13 -->
<g id="node13" class="node">
<title>Node13</title>
<g id="a_node13"><a xlink:href="amdev_8h.html#ab31b92691e50ae7e3b7d50598fad2e8c" target="_top" xlink:title=" ">
<polygon fill="none" stroke="black" points="806,-361.5 806,-380.5 879,-380.5 879,-361.5 806,-361.5"/>
<text text-anchor="middle" x="842.5" y="-368.5" font-family="Helvetica,sans-Serif" font-size="10.00">__attribute__</text>
</a>
</g>
</g>
<!-- Node12&#45;&gt;Node13 -->
<g id="edge12" class="edge">
<title>Node12&#45;&gt;Node13</title>
<path fill="none" stroke="midnightblue" d="M742.22,-355.66C757.34,-358 777.45,-361.11 795.61,-363.91"/>
<polygon fill="midnightblue" stroke="midnightblue" points="795.32,-367.41 805.74,-365.48 796.39,-360.49 795.32,-367.41"/>
</g>
<!-- Node16 -->
<g id="node16" class="node">
<title>Node16</title>
<g id="a_node16"><a xlink:href="ioe_8c.html#aaa8b5de13119943f63fd14ce0cbb748f" target="_top" xlink:title=" ">
<polygon fill="none" stroke="black" points="665,-437.5 665,-456.5 770,-456.5 770,-437.5 665,-437.5"/>
<text text-anchor="middle" x="717.5" y="-444.5" font-family="Helvetica,sans-Serif" font-size="10.00">__am_ioapic_enable</text>
</a>
</g>
</g>
<!-- Node15&#45;&gt;Node16 -->
<g id="edge15" class="edge">
<title>Node15&#45;&gt;Node16</title>
<path fill="none" stroke="midnightblue" d="M602.75,-399.53C611.27,-402.43 620.55,-405.72 629,-409 648.36,-416.51 669.75,-425.77 686.53,-433.28"/>
<polygon fill="midnightblue" stroke="midnightblue" points="685.28,-436.55 695.83,-437.47 688.15,-430.17 685.28,-436.55"/>
</g>
<!-- Node17 -->
<g id="node17" class="node">
<title>Node17</title>
<g id="a_node17"><a xlink:href="x86_8h.html#aec7546614338d8b90023fa2805432e22" target="_top" xlink:title=" ">
<polygon fill="none" stroke="black" points="694.5,-380.5 694.5,-399.5 740.5,-399.5 740.5,-380.5 694.5,-380.5"/>
<text text-anchor="middle" x="717.5" y="-387.5" font-family="Helvetica,sans-Serif" font-size="10.00">set_idt</text>
</a>
</g>
</g>
<!-- Node15&#45;&gt;Node17 -->
<g id="edge17" class="edge">
<title>Node15&#45;&gt;Node17</title>
<path fill="none" stroke="midnightblue" d="M624.72,-390C644.5,-390 666.53,-390 684.05,-390"/>
<polygon fill="midnightblue" stroke="midnightblue" points="684.32,-393.5 694.32,-390 684.32,-386.5 684.32,-393.5"/>
</g>
<!-- Node16&#45;&gt;Node8 -->
<g id="edge16" class="edge">
<title>Node16&#45;&gt;Node8</title>
<path fill="none" stroke="midnightblue" d="M760.49,-456.56C773.56,-459.53 787.94,-462.81 800.91,-465.76"/>
<polygon fill="midnightblue" stroke="midnightblue" points="800.43,-469.24 810.96,-468.05 801.98,-462.42 800.43,-469.24"/>
</g>
<!-- Node17&#45;&gt;Node13 -->
<g id="edge18" class="edge">
<title>Node17&#45;&gt;Node13</title>
<path fill="none" stroke="midnightblue" d="M740.77,-386.56C756.15,-384.18 777.14,-380.94 795.98,-378.03"/>
<polygon fill="midnightblue" stroke="midnightblue" points="796.53,-381.49 805.88,-376.5 795.46,-374.57 796.53,-381.49"/>
</g>
<!-- Node19 -->
<g id="node19" class="node">
<title>Node19</title>
<g id="a_node19"><a xlink:href="ioe_8c.html#a72d9ed0bfe1066367763e044b7a7b7c3" target="_top" xlink:title=" ">
<polygon fill="none" stroke="black" points="695.5,-138.5 695.5,-157.5 739.5,-157.5 739.5,-138.5 695.5,-138.5"/>
<text text-anchor="middle" x="717.5" y="-145.5" font-family="Helvetica,sans-Serif" font-size="10.00">lapicw</text>
</a>
</g>
</g>
<!-- Node18&#45;&gt;Node19 -->
<g id="edge20" class="edge">
<title>Node18&#45;&gt;Node19</title>
<path fill="none" stroke="midnightblue" d="M589.7,-252.2C601.13,-244.98 616.56,-234.61 629,-224 646.7,-208.9 647.57,-201.41 665,-186 673.96,-178.08 684.48,-170.1 693.68,-163.52"/>
<polygon fill="midnightblue" stroke="midnightblue" points="695.82,-166.29 701.99,-157.68 691.8,-160.56 695.82,-166.29"/>
</g>
<!-- Node21 -->
<g id="node21" class="node">
<title>Node21</title>
<g id="a_node21"><a xlink:href="mpe_8c.html#aec8f7f25be4263648b704092672a566b" target="_top" xlink:title=" ">
<polygon fill="none" stroke="black" points="243,-304.5 243,-323.5 323,-323.5 323,-304.5 243,-304.5"/>
<text text-anchor="middle" x="283" y="-311.5" font-family="Helvetica,sans-Serif" font-size="10.00">othercpu_entry</text>
</a>
</g>
</g>
<!-- Node20&#45;&gt;Node21 -->
<g id="edge22" class="edge">
<title>Node20&#45;&gt;Node21</title>
<path fill="none" stroke="midnightblue" d="M198.15,-314C209.59,-314 221.61,-314 232.86,-314"/>
<polygon fill="midnightblue" stroke="midnightblue" points="232.94,-317.5 242.94,-314 232.94,-310.5 232.94,-317.5"/>
</g>
<!-- Node20&#45;&gt;Node24 -->
<g id="edge26" class="edge">
<title>Node20&#45;&gt;Node24</title>
<path fill="none" stroke="midnightblue" d="M178.82,-323.59C196.64,-328.49 218.52,-334.52 237.54,-339.76"/>
<polygon fill="midnightblue" stroke="midnightblue" points="236.62,-343.13 247.19,-342.41 238.48,-336.38 236.62,-343.13"/>
</g>
<!-- Node20&#45;&gt;Node25 -->
<g id="edge27" class="edge">
<title>Node20&#45;&gt;Node25</title>
<path fill="none" stroke="midnightblue" d="M178.82,-304.41C198.5,-298.99 223.13,-292.21 243.39,-286.63"/>
<polygon fill="midnightblue" stroke="midnightblue" points="244.53,-289.95 253.24,-283.92 242.67,-283.2 244.53,-289.95"/>
</g>
<!-- Node21&#45;&gt;Node10 -->
<g id="edge23" class="edge">
<title>Node21&#45;&gt;Node10</title>
<path fill="none" stroke="midnightblue" d="M319.08,-323.59C337.02,-328.49 359.06,-334.52 378.22,-339.76"/>
<polygon fill="midnightblue" stroke="midnightblue" points="377.37,-343.15 387.94,-342.41 379.21,-336.4 377.37,-343.15"/>
</g>
<!-- Node22 -->
<g id="node22" class="node">
<title>Node22</title>
<g id="a_node22"><a xlink:href="mpe_8c.html#afc800fc7438b6762f113c46d25cab75b" target="_top" xlink:title=" ">
<polygon fill="none" stroke="black" points="383,-266.5 383,-285.5 465,-285.5 465,-266.5 383,-266.5"/>
<text text-anchor="middle" x="424" y="-273.5" font-family="Helvetica,sans-Serif" font-size="10.00">call_user_entry</text>
</a>
</g>
</g>
<!-- Node21&#45;&gt;Node22 -->
<g id="edge24" class="edge">
<title>Node21&#45;&gt;Node22</title>
<path fill="none" stroke="midnightblue" d="M319.08,-304.41C337.02,-299.51 359.06,-293.48 378.22,-288.24"/>
<polygon fill="midnightblue" stroke="midnightblue" points="379.21,-291.6 387.94,-285.59 377.37,-284.85 379.21,-291.6"/>
</g>
<!-- Node23 -->
<g id="node23" class="node">
<title>Node23</title>
<g id="a_node23"><a xlink:href="x86_8h.html#a48b2a6a16dc8d7e09d327aa3803f1112" target="_top" xlink:title=" ">
<polygon fill="none" stroke="black" points="405.5,-304.5 405.5,-323.5 442.5,-323.5 442.5,-304.5 405.5,-304.5"/>
<text text-anchor="middle" x="424" y="-311.5" font-family="Helvetica,sans-Serif" font-size="10.00">xchg</text>
</a>
</g>
</g>
<!-- Node21&#45;&gt;Node23 -->
<g id="edge25" class="edge">
<title>Node21&#45;&gt;Node23</title>
<path fill="none" stroke="midnightblue" d="M323.09,-314C346.06,-314 374.56,-314 395.24,-314"/>
<polygon fill="midnightblue" stroke="midnightblue" points="395.26,-317.5 405.26,-314 395.26,-310.5 395.26,-317.5"/>
</g>
<!-- Node28 -->
<g id="node28" class="node">
<title>Node28</title>
<g id="a_node28"><a xlink:href="trm_8c.html#a483cb97188e557c3c68d3a1572c2cc92" target="_top" xlink:title=" ">
<polygon fill="none" stroke="black" points="267,-114.5 267,-133.5 299,-133.5 299,-114.5 267,-114.5"/>
<text text-anchor="middle" x="283" y="-121.5" font-family="Helvetica,sans-Serif" font-size="10.00">halt</text>
</a>
</g>
</g>
<!-- Node27&#45;&gt;Node28 -->
<g id="edge30" class="edge">
<title>Node27&#45;&gt;Node28</title>
<path fill="none" stroke="midnightblue" d="M167.1,-171.46C192.16,-161.11 232.01,-144.65 257.58,-134.09"/>
<polygon fill="midnightblue" stroke="midnightblue" points="259.03,-137.27 266.94,-130.22 256.36,-130.8 259.03,-137.27"/>
</g>
<!-- Node36 -->
<g id="node36" class="node">
<title>Node36</title>
<g id="a_node36"><a xlink:href="trm_8c.html#aa12a9403d4e36817688700b1c1bd442e" target="_top" xlink:title=" ">
<polygon fill="none" stroke="black" points="264,-171.5 264,-190.5 302,-190.5 302,-171.5 264,-171.5"/>
<text text-anchor="middle" x="283" y="-178.5" font-family="Helvetica,sans-Serif" font-size="10.00">main</text>
</a>
</g>
</g>
<!-- Node27&#45;&gt;Node36 -->
<g id="edge43" class="edge">
<title>Node27&#45;&gt;Node36</title>
<path fill="none" stroke="midnightblue" d="M172.26,-181C196.06,-181 229.93,-181 253.73,-181"/>
<polygon fill="midnightblue" stroke="midnightblue" points="253.88,-184.5 263.88,-181 253.88,-177.5 253.88,-184.5"/>
</g>
<!-- Node29 -->
<g id="node29" class="node">
<title>Node29</title>
<g id="a_node29"><a xlink:href="mpe_8c.html#a0a540532023afb1f31b6f21ce053483b" target="_top" xlink:title=" ">
<polygon fill="none" stroke="black" points="368,-76.5 368,-95.5 480,-95.5 480,-76.5 368,-76.5"/>
<text text-anchor="middle" x="424" y="-83.5" font-family="Helvetica,sans-Serif" font-size="10.00">__am_stop_the_world</text>
</a>
</g>
</g>
<!-- Node28&#45;&gt;Node29 -->
<g id="edge31" class="edge">
<title>Node28&#45;&gt;Node29</title>
<path fill="none" stroke="midnightblue" d="M299.14,-119.86C318,-114.7 351.07,-105.66 378.29,-98.22"/>
<polygon fill="midnightblue" stroke="midnightblue" points="379.3,-101.58 388.02,-95.56 377.45,-94.82 379.3,-101.58"/>
</g>
<!-- Node31 -->
<g id="node31" class="node">
<title>Node31</title>
<g id="a_node31"><a xlink:href="mpe_8c.html#ab701de78cad32896c923ce900087e714" target="_top" xlink:title=" ">
<polygon fill="none" stroke="black" points="538.5,-57.5 538.5,-76.5 606.5,-76.5 606.5,-57.5 538.5,-57.5"/>
<text text-anchor="middle" x="572.5" y="-64.5" font-family="Helvetica,sans-Serif" font-size="10.00">cpu_current</text>
</a>
</g>
</g>
<!-- Node28&#45;&gt;Node31 -->
<g id="edge38" class="edge">
<title>Node28&#45;&gt;Node31</title>
<path fill="none" stroke="midnightblue" d="M293.8,-114.38C308.47,-100.71 337.68,-76.32 368,-67 421.24,-50.64 486.07,-54.43 528.04,-59.76"/>
<polygon fill="midnightblue" stroke="midnightblue" points="527.81,-63.26 538.19,-61.13 528.75,-56.32 527.81,-63.26"/>
</g>
<!-- Node32 -->
<g id="node32" class="node">
<title>Node32</title>
<g id="a_node32"><a xlink:href="x86_8h.html#acc919e7809ef1db2b20aa3804f540b5c" target="_top" xlink:title=" ">
<polygon fill="none" stroke="black" points="409.5,-0.5 409.5,-19.5 438.5,-19.5 438.5,-0.5 409.5,-0.5"/>
<text text-anchor="middle" x="424" y="-7.5" font-family="Helvetica,sans-Serif" font-size="10.00">cli</text>
</a>
</g>
</g>
<!-- Node28&#45;&gt;Node32 -->
<g id="edge37" class="edge">
<title>Node28&#45;&gt;Node32</title>
<path fill="none" stroke="midnightblue" d="M290.84,-114.38C304,-96.47 334.5,-57.7 368,-34 377.57,-27.23 389.35,-21.78 399.55,-17.79"/>
<polygon fill="midnightblue" stroke="midnightblue" points="400.9,-21.02 409.08,-14.29 398.49,-14.45 400.9,-21.02"/>
</g>
<!-- Node33 -->
<g id="node33" class="node">
<title>Node33</title>
<g id="a_node33"><a xlink:href="x86_8h.html#a2adfe40c0aadff727889d263815cb8ed" target="_top" xlink:title=" ">
<polygon fill="none" stroke="black" points="409.5,-152.5 409.5,-171.5 438.5,-171.5 438.5,-152.5 409.5,-152.5"/>
<text text-anchor="middle" x="424" y="-159.5" font-family="Helvetica,sans-Serif" font-size="10.00">hlt</text>
</a>
</g>
</g>
<!-- Node28&#45;&gt;Node33 -->
<g id="edge39" class="edge">
<title>Node28&#45;&gt;Node33</title>
<path fill="none" stroke="midnightblue" d="M299.14,-128.14C323.22,-134.72 370.46,-147.64 399.13,-155.47"/>
<polygon fill="midnightblue" stroke="midnightblue" points="398.55,-158.95 409.12,-158.21 400.4,-152.19 398.55,-158.95"/>
</g>
<!-- Node34 -->
<g id="node34" class="node">
<title>Node34</title>
<g id="a_node34"><a xlink:href="x86_8h.html#af92fc55c49437b9152499a13ba2b6585" target="_top" xlink:title=" ">
<polygon fill="none" stroke="black" points="405,-114.5 405,-133.5 443,-133.5 443,-114.5 405,-114.5"/>
<text text-anchor="middle" x="424" y="-121.5" font-family="Helvetica,sans-Serif" font-size="10.00">outw</text>
</a>
</g>
</g>
<!-- Node28&#45;&gt;Node34 -->
<g id="edge40" class="edge">
<title>Node28&#45;&gt;Node34</title>
<path fill="none" stroke="midnightblue" d="M299.14,-124C321.98,-124 365.63,-124 394.53,-124"/>
<polygon fill="midnightblue" stroke="midnightblue" points="394.81,-127.5 404.81,-124 394.81,-120.5 394.81,-127.5"/>
</g>
<!-- Node35 -->
<g id="node35" class="node">
<title>Node35</title>
<g id="a_node35"><a xlink:href="trm_8c.html#a6351d8706733262e7e325926b1a9aab7" target="_top" xlink:title=" ">
<polygon fill="none" stroke="black" points="552,-195.5 552,-214.5 593,-214.5 593,-195.5 552,-195.5"/>
<text text-anchor="middle" x="572.5" y="-202.5" font-family="Helvetica,sans-Serif" font-size="10.00">putch</text>
</a>
</g>
</g>
<!-- Node28&#45;&gt;Node35 -->
<g id="edge41" class="edge">
<title>Node28&#45;&gt;Node35</title>
<path fill="none" stroke="midnightblue" d="M296.59,-133.65C316.06,-148.37 352.81,-175.34 368,-181 426.9,-202.96 501.45,-206.04 541.98,-205.84"/>
<polygon fill="midnightblue" stroke="midnightblue" points="542.04,-209.34 551.99,-205.72 541.95,-202.34 542.04,-209.34"/>
</g>
<!-- Node29&#45;&gt;Node26 -->
<g id="edge35" class="edge">
<title>Node29&#45;&gt;Node26</title>
<path fill="none" stroke="midnightblue" d="M461.84,-95.61C468.19,-98.12 474.51,-101.22 480,-105 500.53,-119.14 495.45,-133.89 516,-148 519.99,-150.74 524.41,-153.12 528.96,-155.17"/>
<polygon fill="midnightblue" stroke="midnightblue" points="527.81,-158.48 538.4,-158.95 530.41,-151.98 527.81,-158.48"/>
</g>
<!-- Node30 -->
<g id="node30" class="node">
<title>Node30</title>
<g id="a_node30"><a xlink:href="ioe_8c.html#a88a238fee7cd006afa69ea97e4914a09" target="_top" xlink:title=" ">
<polygon fill="none" stroke="black" points="522,-119.5 522,-138.5 623,-138.5 623,-119.5 522,-119.5"/>
<text text-anchor="middle" x="572.5" y="-126.5" font-family="Helvetica,sans-Serif" font-size="10.00">__am_lapic_bootap</text>
</a>
</g>
</g>
<!-- Node29&#45;&gt;Node30 -->
<g id="edge32" class="edge">
<title>Node29&#45;&gt;Node30</title>
<path fill="none" stroke="midnightblue" d="M457.51,-95.54C478.66,-101.75 506.45,-109.91 529.3,-116.61"/>
<polygon fill="midnightblue" stroke="midnightblue" points="528.5,-120.03 539.08,-119.48 530.47,-113.31 528.5,-120.03"/>
</g>
<!-- Node29&#45;&gt;Node31 -->
<g id="edge36" class="edge">
<title>Node29&#45;&gt;Node31</title>
<path fill="none" stroke="midnightblue" d="M480.39,-78.82C496.19,-76.77 513.17,-74.57 528.14,-72.62"/>
<polygon fill="midnightblue" stroke="midnightblue" points="528.68,-76.08 538.14,-71.33 527.78,-69.14 528.68,-76.08"/>
</g>
<!-- Node30&#45;&gt;Node5 -->
<g id="edge34" class="edge">
<title>Node30&#45;&gt;Node5</title>
<path fill="none" stroke="midnightblue" d="M605.74,-138.53C613.51,-141.24 621.68,-144.43 629,-148 653.15,-159.77 678.65,-177.01 695.86,-189.45"/>
<polygon fill="midnightblue" stroke="midnightblue" points="693.91,-192.36 704.05,-195.46 698.06,-186.72 693.91,-192.36"/>
</g>
<!-- Node30&#45;&gt;Node19 -->
<g id="edge33" class="edge">
<title>Node30&#45;&gt;Node19</title>
<path fill="none" stroke="midnightblue" d="M623.11,-135.59C643.75,-138.33 667.07,-141.43 685.25,-143.85"/>
<polygon fill="midnightblue" stroke="midnightblue" points="684.93,-147.34 695.3,-145.18 685.85,-140.4 684.93,-147.34"/>
</g>
<!-- Node35&#45;&gt;Node5 -->
<g id="edge42" class="edge">
<title>Node35&#45;&gt;Node5</title>
<path fill="none" stroke="midnightblue" d="M593.08,-205C618.07,-205 661.41,-205 689.51,-205"/>
<polygon fill="midnightblue" stroke="midnightblue" points="689.82,-208.5 699.82,-205 689.82,-201.5 689.82,-208.5"/>
</g>
</g>
</svg>
