<?xml version="1.0" encoding="UTF-8" standalone="no"?>
<!DOCTYPE svg PUBLIC "-//W3C//DTD SVG 1.1//EN"
 "http://www.w3.org/Graphics/SVG/1.1/DTD/svg11.dtd">
<!-- Generated by graphviz version 3.0.0 (20220413.0106)
 -->
<!-- Title: syscall Pages: 1 -->
<svg width="232pt" height="332pt"
 viewBox="0.00 0.00 232.00 332.00" xmlns="http://www.w3.org/2000/svg" xmlns:xlink="http://www.w3.org/1999/xlink">
<g id="graph0" class="graph" transform="scale(1 1) rotate(0) translate(4 328)">
<title>syscall</title>
<!-- Node1 -->
<g id="node1" class="node">
<title>Node1</title>
<g id="a_node1"><a xlink:title=" ">
<polygon fill="#bfbfbf" stroke="black" points="177,-152.5 177,-171.5 224,-171.5 224,-152.5 177,-152.5"/>
<text text-anchor="middle" x="200.5" y="-159.5" font-family="Helvetica,sans-Serif" font-size="10.00">syscall</text>
</a>
</g>
</g>
<!-- Node2 -->
<g id="node2" class="node">
<title>Node2</title>
<g id="a_node2"><a xlink:href="ulib_8h.html#a0287d56588c2c988ad4a6b6d020e8996" target="_top" xlink:title=" ">
<polygon fill="none" stroke="black" points="102,-304.5 102,-323.5 134,-323.5 134,-304.5 102,-304.5"/>
<text text-anchor="middle" x="118" y="-311.5" font-family="Helvetica,sans-Serif" font-size="10.00">exit</text>
</a>
</g>
</g>
<!-- Node1&#45;&gt;Node2 -->
<g id="edge1" class="edge">
<title>Node1&#45;&gt;Node2</title>
<path fill="none" stroke="midnightblue" d="M193.88,-181.67C185.45,-208.95 167.62,-258.98 141,-295 138.48,-298.41 135.25,-301.63 132.04,-304.41"/>
<polygon fill="midnightblue" stroke="midnightblue" points="197.33,-182.37 196.83,-171.79 190.62,-180.37 197.33,-182.37"/>
</g>
<!-- Node4 -->
<g id="node4" class="node">
<title>Node4</title>
<g id="a_node4"><a xlink:href="ulib_8h.html#a7c4a087850a341a5631b2faa27d7a93e" target="_top" xlink:title=" ">
<polygon fill="none" stroke="black" points="101.5,-266.5 101.5,-285.5 134.5,-285.5 134.5,-266.5 101.5,-266.5"/>
<text text-anchor="middle" x="118" y="-273.5" font-family="Helvetica,sans-Serif" font-size="10.00">fork</text>
</a>
</g>
</g>
<!-- Node1&#45;&gt;Node4 -->
<g id="edge3" class="edge">
<title>Node1&#45;&gt;Node4</title>
<path fill="none" stroke="midnightblue" d="M190.29,-180.53C179.86,-200.53 161.62,-232.77 141,-257 138.25,-260.23 134.94,-263.38 131.73,-266.17"/>
<polygon fill="midnightblue" stroke="midnightblue" points="193.45,-182.03 194.88,-171.53 187.22,-178.85 193.45,-182.03"/>
</g>
<!-- Node5 -->
<g id="node5" class="node">
<title>Node5</title>
<g id="a_node5"><a xlink:href="ulib_8h.html#a96abb3e623e15f594cf8c8d02af19bc4" target="_top" xlink:title=" ">
<polygon fill="none" stroke="black" points="96.5,-228.5 96.5,-247.5 139.5,-247.5 139.5,-228.5 96.5,-228.5"/>
<text text-anchor="middle" x="118" y="-235.5" font-family="Helvetica,sans-Serif" font-size="10.00">getpid</text>
</a>
</g>
</g>
<!-- Node1&#45;&gt;Node5 -->
<g id="edge5" class="edge">
<title>Node1&#45;&gt;Node5</title>
<path fill="none" stroke="midnightblue" d="M182.48,-179.11C170.95,-190.58 155.26,-205.91 141,-219 137.58,-222.14 133.78,-225.48 130.31,-228.46"/>
<polygon fill="midnightblue" stroke="midnightblue" points="185.13,-181.41 189.74,-171.87 180.19,-176.46 185.13,-181.41"/>
</g>
<!-- Node6 -->
<g id="node6" class="node">
<title>Node6</title>
<g id="a_node6"><a xlink:href="ulib_8h.html#a56da44e9088a04b0dae5c1ff08553a92" target="_top" xlink:title=" ">
<polygon fill="none" stroke="black" points="103.5,-190.5 103.5,-209.5 132.5,-209.5 132.5,-190.5 103.5,-190.5"/>
<text text-anchor="middle" x="118" y="-197.5" font-family="Helvetica,sans-Serif" font-size="10.00">kill</text>
</a>
</g>
</g>
<!-- Node1&#45;&gt;Node6 -->
<g id="edge7" class="edge">
<title>Node1&#45;&gt;Node6</title>
<path fill="none" stroke="midnightblue" d="M169.85,-176C157.13,-182 142.89,-188.72 132.72,-193.52"/>
<polygon fill="midnightblue" stroke="midnightblue" points="171.64,-179.02 179.19,-171.59 168.65,-172.69 171.64,-179.02"/>
</g>
<!-- Node7 -->
<g id="node7" class="node">
<title>Node7</title>
<g id="a_node7"><a xlink:href="ulib_8h.html#a4d2d58202491423b6d7db8033189af0b" target="_top" xlink:title=" ">
<polygon fill="none" stroke="black" points="97.5,-152.5 97.5,-171.5 138.5,-171.5 138.5,-152.5 97.5,-152.5"/>
<text text-anchor="middle" x="118" y="-159.5" font-family="Helvetica,sans-Serif" font-size="10.00">kputc</text>
</a>
</g>
</g>
<!-- Node1&#45;&gt;Node7 -->
<g id="edge9" class="edge">
<title>Node1&#45;&gt;Node7</title>
<path fill="none" stroke="midnightblue" d="M166.35,-162C156.93,-162 146.97,-162 138.63,-162"/>
<polygon fill="midnightblue" stroke="midnightblue" points="166.65,-165.5 176.65,-162 166.65,-158.5 166.65,-165.5"/>
</g>
<!-- Node8 -->
<g id="node8" class="node">
<title>Node8</title>
<g id="a_node8"><a xlink:href="ulib_8h.html#aad5e4479c7144ac725c7e74ef86d2bc4" target="_top" xlink:title=" ">
<polygon fill="none" stroke="black" points="96,-114.5 96,-133.5 140,-133.5 140,-114.5 96,-114.5"/>
<text text-anchor="middle" x="118" y="-121.5" font-family="Helvetica,sans-Serif" font-size="10.00">mmap</text>
</a>
</g>
</g>
<!-- Node1&#45;&gt;Node8 -->
<g id="edge11" class="edge">
<title>Node1&#45;&gt;Node8</title>
<path fill="none" stroke="midnightblue" d="M169.84,-148C159.68,-143.2 148.55,-137.95 139.31,-133.59"/>
<polygon fill="midnightblue" stroke="midnightblue" points="168.65,-151.31 179.19,-152.41 171.64,-144.98 168.65,-151.31"/>
</g>
<!-- Node9 -->
<g id="node9" class="node">
<title>Node9</title>
<g id="a_node9"><a xlink:href="ulib_8h.html#a4a920ec7e1766548b0422c649629d2ac" target="_top" xlink:title=" ">
<polygon fill="none" stroke="black" points="98,-76.5 98,-95.5 138,-95.5 138,-76.5 98,-76.5"/>
<text text-anchor="middle" x="118" y="-83.5" font-family="Helvetica,sans-Serif" font-size="10.00">sleep</text>
</a>
</g>
</g>
<!-- Node1&#45;&gt;Node9 -->
<g id="edge12" class="edge">
<title>Node1&#45;&gt;Node9</title>
<path fill="none" stroke="midnightblue" d="M182.48,-144.89C170.95,-133.42 155.26,-118.09 141,-105 137.58,-101.86 133.78,-98.52 130.31,-95.54"/>
<polygon fill="midnightblue" stroke="midnightblue" points="180.19,-147.54 189.74,-152.13 185.13,-142.59 180.19,-147.54"/>
</g>
<!-- Node10 -->
<g id="node10" class="node">
<title>Node10</title>
<g id="a_node10"><a xlink:href="ulib_8h.html#accef0faab1366bd6c657070a9889e6d9" target="_top" xlink:title=" ">
<polygon fill="none" stroke="black" points="95,-38.5 95,-57.5 141,-57.5 141,-38.5 95,-38.5"/>
<text text-anchor="middle" x="118" y="-45.5" font-family="Helvetica,sans-Serif" font-size="10.00">uptime</text>
</a>
</g>
</g>
<!-- Node1&#45;&gt;Node10 -->
<g id="edge14" class="edge">
<title>Node1&#45;&gt;Node10</title>
<path fill="none" stroke="midnightblue" d="M190.29,-143.47C179.86,-123.47 161.62,-91.23 141,-67 138.25,-63.77 134.94,-60.62 131.73,-57.83"/>
<polygon fill="midnightblue" stroke="midnightblue" points="187.22,-145.15 194.88,-152.47 193.45,-141.97 187.22,-145.15"/>
</g>
<!-- Node11 -->
<g id="node11" class="node">
<title>Node11</title>
<g id="a_node11"><a xlink:href="ulib_8h.html#ac3388e95bdd865c354a121f4a6d24126" target="_top" xlink:title=" ">
<polygon fill="none" stroke="black" points="100.5,-0.5 100.5,-19.5 135.5,-19.5 135.5,-0.5 100.5,-0.5"/>
<text text-anchor="middle" x="118" y="-7.5" font-family="Helvetica,sans-Serif" font-size="10.00">wait</text>
</a>
</g>
</g>
<!-- Node1&#45;&gt;Node11 -->
<g id="edge16" class="edge">
<title>Node1&#45;&gt;Node11</title>
<path fill="none" stroke="midnightblue" d="M193.88,-142.33C185.45,-115.05 167.62,-65.02 141,-29 138.48,-25.59 135.25,-22.37 132.04,-19.59"/>
<polygon fill="midnightblue" stroke="midnightblue" points="190.62,-143.63 196.83,-152.21 197.33,-141.63 190.62,-143.63"/>
</g>
<!-- Node3 -->
<g id="node3" class="node">
<title>Node3</title>
<g id="a_node3"><a xlink:href="kernel_8h.html#a79a46817ea5301ce6a371e1f0e09d342" target="_top" xlink:title=" ">
<polygon fill="none" stroke="black" points="0,-171.5 0,-190.5 59,-190.5 59,-171.5 0,-171.5"/>
<text text-anchor="middle" x="29.5" y="-178.5" font-family="Helvetica,sans-Serif" font-size="10.00">MODULE</text>
</a>
</g>
</g>
<!-- Node2&#45;&gt;Node3 -->
<g id="edge2" class="edge">
<title>Node2&#45;&gt;Node3</title>
<path fill="none" stroke="midnightblue" d="M96.84,-297.13C96.2,-296.43 95.59,-295.72 95,-295 66.46,-260.18 43.48,-211.03 34.54,-190.54"/>
<polygon fill="midnightblue" stroke="midnightblue" points="94.57,-299.8 104.19,-304.23 99.43,-294.77 94.57,-299.8"/>
</g>
<!-- Node4&#45;&gt;Node3 -->
<g id="edge4" class="edge">
<title>Node4&#45;&gt;Node3</title>
<path fill="none" stroke="midnightblue" d="M97.42,-259.37C96.59,-258.58 95.78,-257.79 95,-257 72.83,-234.63 49.58,-205.66 37.99,-190.77"/>
<polygon fill="midnightblue" stroke="midnightblue" points="95.28,-262.16 105.05,-266.27 99.98,-256.97 95.28,-262.16"/>
</g>
<!-- Node5&#45;&gt;Node3 -->
<g id="edge6" class="edge">
<title>Node5&#45;&gt;Node3</title>
<path fill="none" stroke="midnightblue" d="M93.77,-222.69C78.23,-212.45 58.26,-199.29 44.96,-190.53"/>
<polygon fill="midnightblue" stroke="midnightblue" points="92.05,-225.75 102.33,-228.33 95.9,-219.91 92.05,-225.75"/>
</g>
<!-- Node6&#45;&gt;Node3 -->
<g id="edge8" class="edge">
<title>Node6&#45;&gt;Node3</title>
<path fill="none" stroke="midnightblue" d="M93.71,-194.88C83.12,-192.56 70.48,-189.78 59.3,-187.33"/>
<polygon fill="midnightblue" stroke="midnightblue" points="92.97,-198.3 103.48,-197.03 94.47,-191.47 92.97,-198.3"/>
</g>
<!-- Node7&#45;&gt;Node3 -->
<g id="edge10" class="edge">
<title>Node7&#45;&gt;Node3</title>
<path fill="none" stroke="midnightblue" d="M87.54,-168.47C78.4,-170.48 68.33,-172.69 59.24,-174.69"/>
<polygon fill="midnightblue" stroke="midnightblue" points="88.36,-171.88 97.37,-166.31 86.85,-165.04 88.36,-171.88"/>
</g>
<!-- Node9&#45;&gt;Node3 -->
<g id="edge13" class="edge">
<title>Node9&#45;&gt;Node3</title>
<path fill="none" stroke="midnightblue" d="M97.42,-102.63C96.59,-103.42 95.78,-104.21 95,-105 72.83,-127.37 49.58,-156.34 37.99,-171.23"/>
<polygon fill="midnightblue" stroke="midnightblue" points="99.98,-105.03 105.05,-95.73 95.28,-99.84 99.98,-105.03"/>
</g>
<!-- Node10&#45;&gt;Node3 -->
<g id="edge15" class="edge">
<title>Node10&#45;&gt;Node3</title>
<path fill="none" stroke="midnightblue" d="M96.84,-64.87C96.2,-65.57 95.59,-66.28 95,-67 66.46,-101.82 43.48,-150.97 34.54,-171.46"/>
<polygon fill="midnightblue" stroke="midnightblue" points="99.43,-67.23 104.19,-57.77 94.57,-62.2 99.43,-67.23"/>
</g>
<!-- Node11&#45;&gt;Node3 -->
<g id="edge17" class="edge">
<title>Node11&#45;&gt;Node3</title>
<path fill="none" stroke="midnightblue" d="M96.74,-26.78C96.13,-27.51 95.55,-28.25 95,-29 60.22,-76.72 39.65,-146.06 32.94,-171.33"/>
<polygon fill="midnightblue" stroke="midnightblue" points="99.35,-29.12 103.93,-19.57 94.39,-24.18 99.35,-29.12"/>
</g>
</g>
</svg>
