<?xml version="1.0" encoding="UTF-8" standalone="no"?>
<!DOCTYPE svg PUBLIC "-//W3C//DTD SVG 1.1//EN"
 "http://www.w3.org/Graphics/SVG/1.1/DTD/svg11.dtd">
<!-- Generated by graphviz version 3.0.0 (20220413.0106)
 -->
<!-- Title: user/ulib.h Pages: 1 -->
<svg width="360pt" height="95pt"
 viewBox="0.00 0.00 360.00 95.00" xmlns="http://www.w3.org/2000/svg" xmlns:xlink="http://www.w3.org/1999/xlink">
<g id="graph0" class="graph" transform="scale(1 1) rotate(0) translate(4 91)">
<title>user/ulib.h</title>
<!-- Node1 -->
<g id="node1" class="node">
<title>Node1</title>
<g id="a_node1"><a xlink:title=" ">
<polygon fill="#bfbfbf" stroke="black" points="109,-67.5 109,-86.5 170,-86.5 170,-67.5 109,-67.5"/>
<text text-anchor="middle" x="139.5" y="-74.5" font-family="Helvetica,sans-Serif" font-size="10.00">user/ulib.h</text>
</a>
</g>
</g>
<!-- Node2 -->
<g id="node2" class="node">
<title>Node2</title>
<g id="a_node2"><a xlink:title=" ">
<polygon fill="none" stroke="#bfbfbf" points="0,-6 0,-25 51,-25 51,-6 0,-6"/>
<text text-anchor="middle" x="25.5" y="-13" font-family="Helvetica,sans-Serif" font-size="10.00">stddef.h</text>
</a>
</g>
</g>
<!-- Node1&#45;&gt;Node2 -->
<g id="edge1" class="edge">
<title>Node1&#45;&gt;Node2</title>
<path fill="none" stroke="midnightblue" d="M123.17,-67.48C104.29,-57.62 72.99,-41.29 50.92,-29.77"/>
<polygon fill="midnightblue" stroke="midnightblue" points="52.29,-26.53 41.8,-25.01 49.05,-32.74 52.29,-26.53"/>
</g>
<!-- Node3 -->
<g id="node3" class="node">
<title>Node3</title>
<g id="a_node3"><a xlink:title=" ">
<polygon fill="none" stroke="#bfbfbf" points="69.5,-6 69.5,-25 117.5,-25 117.5,-6 69.5,-6"/>
<text text-anchor="middle" x="93.5" y="-13" font-family="Helvetica,sans-Serif" font-size="10.00">stdint.h</text>
</a>
</g>
</g>
<!-- Node1&#45;&gt;Node3 -->
<g id="edge2" class="edge">
<title>Node1&#45;&gt;Node3</title>
<path fill="none" stroke="midnightblue" d="M132.91,-67.48C126.01,-58.55 115,-44.31 106.37,-33.14"/>
<polygon fill="midnightblue" stroke="midnightblue" points="108.96,-30.78 100.08,-25.01 103.43,-35.06 108.96,-30.78"/>
</g>
<!-- Node4 -->
<g id="node4" class="node">
<title>Node4</title>
<g id="a_node4"><a xlink:href="syscall_8h.html" target="_top" xlink:title=" ">
<polygon fill="none" stroke="black" points="136,-0.5 136,-30.5 235,-30.5 235,-0.5 136,-0.5"/>
<text text-anchor="start" x="144" y="-18.5" font-family="Helvetica,sans-Serif" font-size="10.00">../kernel/framework</text>
<text text-anchor="middle" x="185.5" y="-7.5" font-family="Helvetica,sans-Serif" font-size="10.00">/syscall.h</text>
</a>
</g>
</g>
<!-- Node1&#45;&gt;Node4 -->
<g id="edge3" class="edge">
<title>Node1&#45;&gt;Node4</title>
<path fill="none" stroke="midnightblue" d="M146.09,-67.48C151.91,-59.94 160.66,-48.63 168.44,-38.57"/>
<polygon fill="midnightblue" stroke="midnightblue" points="171.31,-40.58 174.66,-30.52 165.77,-36.29 171.31,-40.58"/>
</g>
<!-- Node5 -->
<g id="node5" class="node">
<title>Node5</title>
<g id="a_node5"><a xlink:href="user_8h.html" target="_top" xlink:title=" ">
<polygon fill="none" stroke="black" points="253,-0.5 253,-30.5 352,-30.5 352,-0.5 253,-0.5"/>
<text text-anchor="start" x="261" y="-18.5" font-family="Helvetica,sans-Serif" font-size="10.00">../kernel/framework</text>
<text text-anchor="middle" x="302.5" y="-7.5" font-family="Helvetica,sans-Serif" font-size="10.00">/user.h</text>
</a>
</g>
</g>
<!-- Node1&#45;&gt;Node5 -->
<g id="edge4" class="edge">
<title>Node1&#45;&gt;Node5</title>
<path fill="none" stroke="midnightblue" d="M162.85,-67.48C186.68,-58.78 224.35,-45.03 254.56,-34"/>
<polygon fill="midnightblue" stroke="midnightblue" points="255.89,-37.24 264.08,-30.52 253.49,-30.66 255.89,-37.24"/>
</g>
</g>
</svg>
