<?xml version="1.0" encoding="UTF-8" standalone="no"?>
<!DOCTYPE svg PUBLIC "-//W3C//DTD SVG 1.1//EN"
 "http://www.w3.org/Graphics/SVG/1.1/DTD/svg11.dtd">
<!-- Generated by graphviz version 3.0.0 (20220413.0106)
 -->
<!-- Title: long_double_bits Pages: 1 -->
<svg width="97pt" height="173pt"
 viewBox="0.00 0.00 97.00 173.00" xmlns="http://www.w3.org/2000/svg" xmlns:xlink="http://www.w3.org/1999/xlink">
<g id="graph0" class="graph" transform="scale(1 1) rotate(0) translate(4 169)">
<title>long_double_bits</title>
<!-- Node1 -->
<g id="node1" class="node">
<title>Node1</title>
<g id="a_node1"><a xlink:title=" ">
<polygon fill="#bfbfbf" stroke="black" points="0,-0.5 0,-19.5 89,-19.5 89,-0.5 0,-0.5"/>
<text text-anchor="middle" x="44.5" y="-7.5" font-family="Helvetica,sans-Serif" font-size="10.00">long_double_bits</text>
</a>
</g>
</g>
<!-- Node2 -->
<g id="node2" class="node">
<title>Node2</title>
<g id="a_node2"><a xlink:href="structuqwords.html" target="_top" xlink:title=" ">
<polygon fill="none" stroke="black" points="18,-67.5 18,-86.5 71,-86.5 71,-67.5 18,-67.5"/>
<text text-anchor="middle" x="44.5" y="-74.5" font-family="Helvetica,sans-Serif" font-size="10.00">uqwords</text>
</a>
</g>
</g>
<!-- Node2&#45;&gt;Node1 -->
<g id="edge1" class="edge">
<title>Node2&#45;&gt;Node1</title>
<path fill="none" stroke="#9a32cd" stroke-dasharray="5,2" d="M44.5,-57.04C44.5,-44.67 44.5,-29.12 44.5,-19.63"/>
<polygon fill="#9a32cd" stroke="#9a32cd" points="41,-57.23 44.5,-67.23 48,-57.23 41,-57.23"/>
<text text-anchor="middle" x="48.5" y="-41" font-family="Helvetica,sans-Serif" font-size="10.00"> u</text>
</g>
<!-- Node3 -->
<g id="node3" class="node">
<title>Node3</title>
<g id="a_node3"><a xlink:href="unionudwords.html" target="_top" xlink:title=" ">
<polygon fill="none" stroke="black" points="18,-145.5 18,-164.5 71,-164.5 71,-145.5 18,-145.5"/>
<text text-anchor="middle" x="44.5" y="-152.5" font-family="Helvetica,sans-Serif" font-size="10.00">udwords</text>
</a>
</g>
</g>
<!-- Node3&#45;&gt;Node2 -->
<g id="edge2" class="edge">
<title>Node3&#45;&gt;Node2</title>
<path fill="none" stroke="#9a32cd" stroke-dasharray="5,2" d="M44.5,-135.22C44.5,-119.7 44.5,-98.36 44.5,-86.62"/>
<polygon fill="#9a32cd" stroke="#9a32cd" points="41,-135.28 44.5,-145.28 48,-135.28 41,-135.28"/>
<text text-anchor="middle" x="55" y="-119" font-family="Helvetica,sans-Serif" font-size="10.00"> high</text>
<text text-anchor="middle" x="55" y="-108" font-family="Helvetica,sans-Serif" font-size="10.00">low</text>
</g>
</g>
</svg>
