<?xml version="1.0" encoding="UTF-8" standalone="no"?>
<!DOCTYPE svg PUBLIC "-//W3C//DTD SVG 1.1//EN"
 "http://www.w3.org/Graphics/SVG/1.1/DTD/svg11.dtd">
<!-- Generated by graphviz version 3.0.0 (20220413.0106)
 -->
<!-- Title: vme_init Pages: 1 -->
<svg width="253pt" height="198pt"
 viewBox="0.00 0.00 253.00 198.11" xmlns="http://www.w3.org/2000/svg" xmlns:xlink="http://www.w3.org/1999/xlink">
<g id="graph0" class="graph" transform="scale(1 1) rotate(0) translate(4 194.11)">
<title>vme_init</title>
<!-- Node1 -->
<g id="node1" class="node">
<title>Node1</title>
<g id="a_node1"><a xlink:title=" ">
<polygon fill="#bfbfbf" stroke="black" points="0,-95.5 0,-114.5 53,-114.5 53,-95.5 0,-95.5"/>
<text text-anchor="middle" x="26.5" y="-102.5" font-family="Helvetica,sans-Serif" font-size="10.00">vme_init</text>
</a>
</g>
</g>
<!-- Node2 -->
<g id="node2" class="node">
<title>Node2</title>
<g id="a_node2"><a xlink:href="vme_8c.html#a55c43e36b332c6b9adc75d2fb8ec3030" target="_top" xlink:title=" ">
<polygon fill="none" stroke="black" points="196,-161.5 196,-180.5 242,-180.5 242,-161.5 196,-161.5"/>
<text text-anchor="middle" x="219" y="-168.5" font-family="Helvetica,sans-Serif" font-size="10.00">baseof</text>
</a>
</g>
</g>
<!-- Node1&#45;&gt;Node2 -->
<g id="edge1" class="edge">
<title>Node1&#45;&gt;Node2</title>
<path fill="none" stroke="midnightblue" d="M31.72,-114.51C39.91,-131.6 59.74,-167.04 89,-181 119.56,-195.58 158.86,-189.52 186.01,-182.08"/>
<polygon fill="midnightblue" stroke="midnightblue" points="187.17,-185.38 195.78,-179.2 185.19,-178.67 187.17,-185.38"/>
</g>
<!-- Node3 -->
<g id="node3" class="node">
<title>Node3</title>
<g id="a_node3"><a xlink:href="mpe_8c.html#ab701de78cad32896c923ce900087e714" target="_top" xlink:title=" ">
<polygon fill="none" stroke="black" points="89,-152.5 89,-171.5 157,-171.5 157,-152.5 89,-152.5"/>
<text text-anchor="middle" x="123" y="-159.5" font-family="Helvetica,sans-Serif" font-size="10.00">cpu_current</text>
</a>
</g>
</g>
<!-- Node1&#45;&gt;Node3 -->
<g id="edge2" class="edge">
<title>Node1&#45;&gt;Node3</title>
<path fill="none" stroke="midnightblue" d="M42.58,-114.5C54.99,-122.27 73.05,-133.48 89,-143 91.37,-144.41 93.84,-145.87 96.32,-147.32"/>
<polygon fill="midnightblue" stroke="midnightblue" points="94.75,-150.45 105.15,-152.43 98.25,-144.39 94.75,-150.45"/>
</g>
<!-- Node4 -->
<g id="node4" class="node">
<title>Node4</title>
<g id="a_node4"><a xlink:href="x86_8h.html#a0d3b02082a6db09da5dc3d4286a379d4" target="_top" xlink:title=" ">
<polygon fill="none" stroke="black" points="98.5,-114.5 98.5,-133.5 147.5,-133.5 147.5,-114.5 98.5,-114.5"/>
<text text-anchor="middle" x="123" y="-121.5" font-family="Helvetica,sans-Serif" font-size="10.00">get_cr0</text>
</a>
</g>
</g>
<!-- Node1&#45;&gt;Node4 -->
<g id="edge3" class="edge">
<title>Node1&#45;&gt;Node4</title>
<path fill="none" stroke="midnightblue" d="M53.32,-110.19C64.12,-112.36 76.8,-114.91 88.32,-117.23"/>
<polygon fill="midnightblue" stroke="midnightblue" points="87.98,-120.73 98.47,-119.27 89.36,-113.87 87.98,-120.73"/>
</g>
<!-- Node5 -->
<g id="node5" class="node">
<title>Node5</title>
<g id="a_node5"><a xlink:href="vme_8c.html#af7255ef9e9698b9a9332cad31a5ebd36" target="_top" xlink:title=" ">
<polygon fill="none" stroke="black" points="100.5,-76.5 100.5,-95.5 145.5,-95.5 145.5,-76.5 100.5,-76.5"/>
<text text-anchor="middle" x="123" y="-83.5" font-family="Helvetica,sans-Serif" font-size="10.00">ptwalk</text>
</a>
</g>
</g>
<!-- Node1&#45;&gt;Node5 -->
<g id="edge4" class="edge">
<title>Node1&#45;&gt;Node5</title>
<path fill="none" stroke="midnightblue" d="M53.32,-99.81C64.73,-97.51 78.26,-94.79 90.28,-92.38"/>
<polygon fill="midnightblue" stroke="midnightblue" points="91.25,-95.75 100.36,-90.35 89.87,-88.89 91.25,-95.75"/>
</g>
<!-- Node8 -->
<g id="node8" class="node">
<title>Node8</title>
<g id="a_node8"><a xlink:href="x86_8h.html#a190c25beee0716b8f20caf7b08d0f58e" target="_top" xlink:title=" ">
<polygon fill="none" stroke="black" points="98.5,-38.5 98.5,-57.5 147.5,-57.5 147.5,-38.5 98.5,-38.5"/>
<text text-anchor="middle" x="123" y="-45.5" font-family="Helvetica,sans-Serif" font-size="10.00">set_cr0</text>
</a>
</g>
</g>
<!-- Node1&#45;&gt;Node8 -->
<g id="edge8" class="edge">
<title>Node1&#45;&gt;Node8</title>
<path fill="none" stroke="midnightblue" d="M42.58,-95.5C54.99,-87.73 73.05,-76.52 89,-67 91.37,-65.59 93.84,-64.13 96.32,-62.68"/>
<polygon fill="midnightblue" stroke="midnightblue" points="98.25,-65.61 105.15,-57.57 94.75,-59.55 98.25,-65.61"/>
</g>
<!-- Node9 -->
<g id="node9" class="node">
<title>Node9</title>
<g id="a_node9"><a xlink:href="x86_8h.html#adae289a554a15acb37df8b8ff3b8c80a" target="_top" xlink:title=" ">
<polygon fill="none" stroke="black" points="98.5,-0.5 98.5,-19.5 147.5,-19.5 147.5,-0.5 98.5,-0.5"/>
<text text-anchor="middle" x="123" y="-7.5" font-family="Helvetica,sans-Serif" font-size="10.00">set_cr3</text>
</a>
</g>
</g>
<!-- Node1&#45;&gt;Node9 -->
<g id="edge9" class="edge">
<title>Node1&#45;&gt;Node9</title>
<path fill="none" stroke="midnightblue" d="M33.72,-95.16C43.87,-79.67 65.24,-49.27 89,-29 90.55,-27.68 92.2,-26.4 93.91,-25.18"/>
<polygon fill="midnightblue" stroke="midnightblue" points="96.18,-27.88 102.7,-19.52 92.4,-21.99 96.18,-27.88"/>
</g>
<!-- Node5&#45;&gt;Node2 -->
<g id="edge5" class="edge">
<title>Node5&#45;&gt;Node2</title>
<path fill="none" stroke="midnightblue" d="M142.79,-95.51C147.61,-98.3 152.66,-101.54 157,-105 174.98,-119.35 192.48,-139.05 204.09,-153.19"/>
<polygon fill="midnightblue" stroke="midnightblue" points="201.51,-155.58 210.51,-161.18 206.97,-151.19 201.51,-155.58"/>
</g>
<!-- Node6 -->
<g id="node6" class="node">
<title>Node6</title>
<g id="a_node6"><a xlink:href="vme_8c.html#a424824adb516648992a09edfac66469e" target="_top" xlink:title=" ">
<polygon fill="none" stroke="black" points="195.5,-95.5 195.5,-114.5 242.5,-114.5 242.5,-95.5 195.5,-95.5"/>
<text text-anchor="middle" x="219" y="-102.5" font-family="Helvetica,sans-Serif" font-size="10.00">indexof</text>
</a>
</g>
</g>
<!-- Node5&#45;&gt;Node6 -->
<g id="edge6" class="edge">
<title>Node5&#45;&gt;Node6</title>
<path fill="none" stroke="midnightblue" d="M145.8,-90.41C157.53,-92.78 172.22,-95.75 185.29,-98.39"/>
<polygon fill="midnightblue" stroke="midnightblue" points="184.84,-101.87 195.34,-100.42 186.23,-95.01 184.84,-101.87"/>
</g>
<!-- Node7 -->
<g id="node7" class="node">
<title>Node7</title>
<g id="a_node7"><a xlink:href="vme_8c.html#ac47719fc92b58613161d4f9ba152901a" target="_top" xlink:title=" ">
<polygon fill="none" stroke="black" points="193,-57.5 193,-76.5 245,-76.5 245,-57.5 193,-57.5"/>
<text text-anchor="middle" x="219" y="-64.5" font-family="Helvetica,sans-Serif" font-size="10.00">pgallocz</text>
</a>
</g>
</g>
<!-- Node5&#45;&gt;Node7 -->
<g id="edge7" class="edge">
<title>Node5&#45;&gt;Node7</title>
<path fill="none" stroke="midnightblue" d="M145.8,-81.59C156.82,-79.37 170.46,-76.61 182.9,-74.09"/>
<polygon fill="midnightblue" stroke="midnightblue" points="183.89,-77.47 192.99,-72.05 182.5,-70.6 183.89,-77.47"/>
</g>
</g>
</svg>
