<?xml version="1.0" encoding="UTF-8" standalone="no"?>
<!DOCTYPE svg PUBLIC "-//W3C//DTD SVG 1.1//EN"
 "http://www.w3.org/Graphics/SVG/1.1/DTD/svg11.dtd">
<!-- Generated by graphviz version 2.50.0 (20220203.2022)
 -->
<!-- Title: baseof Pages: 1 -->
<svg width="239pt" height="122pt"
 viewBox="0.00 0.00 239.00 122.00" xmlns="http://www.w3.org/2000/svg" xmlns:xlink="http://www.w3.org/1999/xlink">
<g id="graph0" class="graph" transform="scale(1 1) rotate(0) translate(4 118)">
<title>baseof</title>
<!-- Node1 -->
<g id="node1" class="node">
<title>Node1</title>
<g id="a_node1"><a xlink:title=" ">
<polygon fill="#bfbfbf" stroke="black" points="185,-56.5 185,-75.5 231,-75.5 231,-56.5 185,-56.5"/>
<text text-anchor="middle" x="208" y="-63.5" font-family="Helvetica,sans-Serif" font-size="10.00">baseof</text>
</a>
</g>
</g>
<!-- Node2 -->
<g id="node2" class="node">
<title>Node2</title>
<g id="a_node2"><a xlink:href="vme_8c.html#af7255ef9e9698b9a9332cad31a5ebd36" target="_top" xlink:title=" ">
<polygon fill="none" stroke="black" points="98.5,-94.5 98.5,-113.5 143.5,-113.5 143.5,-94.5 98.5,-94.5"/>
<text text-anchor="middle" x="121" y="-101.5" font-family="Helvetica,sans-Serif" font-size="10.00">ptwalk</text>
</a>
</g>
</g>
<!-- Node1&#45;&gt;Node2 -->
<g id="edge1" class="edge">
<title>Node1&#45;&gt;Node2</title>
<path fill="none" stroke="midnightblue" d="M176.34,-79.71C165.44,-84.58 153.41,-89.96 143.44,-94.41"/>
<polygon fill="midnightblue" stroke="midnightblue" points="177.85,-82.87 185.55,-75.59 174.99,-76.48 177.85,-82.87"/>
</g>
<!-- Node4 -->
<g id="node4" class="node">
<title>Node4</title>
<g id="a_node4"><a xlink:href="vme_8c.html#a102a03634ce449f78facc63eee85d9b8" target="_top" xlink:title=" ">
<polygon fill="none" stroke="black" points="2,-56.5 2,-75.5 55,-75.5 55,-56.5 2,-56.5"/>
<text text-anchor="middle" x="28.5" y="-63.5" font-family="Helvetica,sans-Serif" font-size="10.00">vme_init</text>
</a>
</g>
</g>
<!-- Node1&#45;&gt;Node4 -->
<g id="edge7" class="edge">
<title>Node1&#45;&gt;Node4</title>
<path fill="none" stroke="midnightblue" d="M174.44,-66C140.05,-66 86.54,-66 55.06,-66"/>
<polygon fill="midnightblue" stroke="midnightblue" points="174.88,-69.5 184.88,-66 174.88,-62.5 174.88,-69.5"/>
</g>
<!-- Node5 -->
<g id="node5" class="node">
<title>Node5</title>
<g id="a_node5"><a xlink:href="vme_8c.html#a901011ff1d62f072db4208fa9c1971a2" target="_top" xlink:title=" ">
<polygon fill="none" stroke="black" points="93,-0.5 93,-19.5 149,-19.5 149,-0.5 93,-0.5"/>
<text text-anchor="middle" x="121" y="-7.5" font-family="Helvetica,sans-Serif" font-size="10.00">teardown</text>
</a>
</g>
</g>
<!-- Node1&#45;&gt;Node5 -->
<g id="edge4" class="edge">
<title>Node1&#45;&gt;Node5</title>
<path fill="none" stroke="midnightblue" d="M183.46,-50.49C168.46,-40.61 149.5,-28.12 136.64,-19.64"/>
<polygon fill="midnightblue" stroke="midnightblue" points="181.92,-53.67 192.19,-56.25 185.77,-47.82 181.92,-53.67"/>
</g>
<!-- Node3 -->
<g id="node3" class="node">
<title>Node3</title>
<g id="a_node3"><a xlink:href="vme_8c.html#a81194a0d7c70a35be43bc54c27f4da63" target="_top" xlink:title=" ">
<polygon fill="none" stroke="black" points="11,-94.5 11,-113.5 46,-113.5 46,-94.5 11,-94.5"/>
<text text-anchor="middle" x="28.5" y="-101.5" font-family="Helvetica,sans-Serif" font-size="10.00">map</text>
</a>
</g>
</g>
<!-- Node2&#45;&gt;Node3 -->
<g id="edge2" class="edge">
<title>Node2&#45;&gt;Node3</title>
<path fill="none" stroke="midnightblue" d="M87.78,-104C73.68,-104 57.74,-104 46.1,-104"/>
<polygon fill="midnightblue" stroke="midnightblue" points="88.09,-107.5 98.09,-104 88.09,-100.5 88.09,-107.5"/>
</g>
<!-- Node2&#45;&gt;Node4 -->
<g id="edge3" class="edge">
<title>Node2&#45;&gt;Node4</title>
<path fill="none" stroke="midnightblue" d="M88.82,-90.91C76.77,-85.85 63.24,-80.17 52.15,-75.51"/>
<polygon fill="midnightblue" stroke="midnightblue" points="87.52,-94.16 98.09,-94.8 90.23,-87.7 87.52,-94.16"/>
</g>
<!-- Node5&#45;&gt;Node5 -->
<g id="edge5" class="edge">
<title>Node5&#45;&gt;Node5</title>
<path fill="none" stroke="midnightblue" d="M136.93,-29.4C135.86,-34.31 130.55,-38 121,-38 105.71,-38 101.3,-28.57 107.74,-19.76"/>
<polygon fill="midnightblue" stroke="midnightblue" points="140.3,-28.46 134.26,-19.76 133.55,-30.33 140.3,-28.46"/>
</g>
<!-- Node6 -->
<g id="node6" class="node">
<title>Node6</title>
<g id="a_node6"><a xlink:href="vme_8c.html#a3bf203e266e0adcf43ea137b5926463e" target="_top" xlink:title=" ">
<polygon fill="none" stroke="black" points="0,-0.5 0,-19.5 57,-19.5 57,-0.5 0,-0.5"/>
<text text-anchor="middle" x="28.5" y="-7.5" font-family="Helvetica,sans-Serif" font-size="10.00">unprotect</text>
</a>
</g>
</g>
<!-- Node5&#45;&gt;Node6 -->
<g id="edge6" class="edge">
<title>Node5&#45;&gt;Node6</title>
<path fill="none" stroke="midnightblue" d="M82.73,-10C74.21,-10 65.3,-10 57.26,-10"/>
<polygon fill="midnightblue" stroke="midnightblue" points="82.85,-13.5 92.85,-10 82.85,-6.5 82.85,-13.5"/>
</g>
</g>
</svg>
