<?xml version="1.0" encoding="UTF-8" standalone="no"?>
<!DOCTYPE svg PUBLIC "-//W3C//DTD SVG 1.1//EN"
 "http://www.w3.org/Graphics/SVG/1.1/DTD/svg11.dtd">
<!-- Generated by graphviz version 2.50.0 (20220203.2022)
 -->
<!-- Title: ptwalk Pages: 1 -->
<svg width="141pt" height="104pt"
 viewBox="0.00 0.00 141.00 104.00" xmlns="http://www.w3.org/2000/svg" xmlns:xlink="http://www.w3.org/1999/xlink">
<g id="graph0" class="graph" transform="scale(1 1) rotate(0) translate(4 100)">
<title>ptwalk</title>
<!-- Node1 -->
<g id="node1" class="node">
<title>Node1</title>
<g id="a_node1"><a xlink:title=" ">
<polygon fill="#bfbfbf" stroke="black" points="0,-38.5 0,-57.5 45,-57.5 45,-38.5 0,-38.5"/>
<text text-anchor="middle" x="22.5" y="-45.5" font-family="Helvetica,sans-Serif" font-size="10.00">ptwalk</text>
</a>
</g>
</g>
<!-- Node2 -->
<g id="node2" class="node">
<title>Node2</title>
<g id="a_node2"><a xlink:href="vme_8c.html#a55c43e36b332c6b9adc75d2fb8ec3030" target="_top" xlink:title=" ">
<polygon fill="none" stroke="black" points="84,-76.5 84,-95.5 130,-95.5 130,-76.5 84,-76.5"/>
<text text-anchor="middle" x="107" y="-83.5" font-family="Helvetica,sans-Serif" font-size="10.00">baseof</text>
</a>
</g>
</g>
<!-- Node1&#45;&gt;Node2 -->
<g id="edge1" class="edge">
<title>Node1&#45;&gt;Node2</title>
<path fill="none" stroke="midnightblue" d="M44.32,-57.59C53.89,-62 65.43,-67.31 75.93,-72.15"/>
<polygon fill="midnightblue" stroke="midnightblue" points="74.64,-75.41 85.19,-76.41 77.57,-69.05 74.64,-75.41"/>
</g>
<!-- Node3 -->
<g id="node3" class="node">
<title>Node3</title>
<g id="a_node3"><a xlink:href="vme_8c.html#a424824adb516648992a09edfac66469e" target="_top" xlink:title=" ">
<polygon fill="none" stroke="black" points="83.5,-38.5 83.5,-57.5 130.5,-57.5 130.5,-38.5 83.5,-38.5"/>
<text text-anchor="middle" x="107" y="-45.5" font-family="Helvetica,sans-Serif" font-size="10.00">indexof</text>
</a>
</g>
</g>
<!-- Node1&#45;&gt;Node3 -->
<g id="edge2" class="edge">
<title>Node1&#45;&gt;Node3</title>
<path fill="none" stroke="midnightblue" d="M45.18,-48C53.71,-48 63.7,-48 73.08,-48"/>
<polygon fill="midnightblue" stroke="midnightblue" points="73.32,-51.5 83.32,-48 73.32,-44.5 73.32,-51.5"/>
</g>
<!-- Node4 -->
<g id="node4" class="node">
<title>Node4</title>
<g id="a_node4"><a xlink:href="vme_8c.html#ac47719fc92b58613161d4f9ba152901a" target="_top" xlink:title=" ">
<polygon fill="none" stroke="black" points="81,-0.5 81,-19.5 133,-19.5 133,-0.5 81,-0.5"/>
<text text-anchor="middle" x="107" y="-7.5" font-family="Helvetica,sans-Serif" font-size="10.00">pgallocz</text>
</a>
</g>
</g>
<!-- Node1&#45;&gt;Node4 -->
<g id="edge3" class="edge">
<title>Node1&#45;&gt;Node4</title>
<path fill="none" stroke="midnightblue" d="M44.32,-38.41C53.89,-34 65.43,-28.69 75.93,-23.85"/>
<polygon fill="midnightblue" stroke="midnightblue" points="77.57,-26.95 85.19,-19.59 74.64,-20.59 77.57,-26.95"/>
</g>
</g>
</svg>
