<?xml version="1.0" encoding="UTF-8" standalone="no"?>
<!DOCTYPE svg PUBLIC "-//W3C//DTD SVG 1.1//EN"
 "http://www.w3.org/Graphics/SVG/1.1/DTD/svg11.dtd">
<!-- Generated by graphviz version 2.50.0 (20220203.2022)
 -->
<!-- Title: map Pages: 1 -->
<svg width="212pt" height="104pt"
 viewBox="0.00 0.00 212.00 104.00" xmlns="http://www.w3.org/2000/svg" xmlns:xlink="http://www.w3.org/1999/xlink">
<g id="graph0" class="graph" transform="scale(1 1) rotate(0) translate(4 100)">
<title>map</title>
<!-- Node1 -->
<g id="node1" class="node">
<title>Node1</title>
<g id="a_node1"><a xlink:title=" ">
<polygon fill="#bfbfbf" stroke="black" points="0,-38.5 0,-57.5 35,-57.5 35,-38.5 0,-38.5"/>
<text text-anchor="middle" x="17.5" y="-45.5" font-family="Helvetica,sans-Serif" font-size="10.00">map</text>
</a>
</g>
</g>
<!-- Node2 -->
<g id="node2" class="node">
<title>Node2</title>
<g id="a_node2"><a xlink:href="vme_8c.html#af7255ef9e9698b9a9332cad31a5ebd36" target="_top" xlink:title=" ">
<polygon fill="none" stroke="black" points="71,-38.5 71,-57.5 116,-57.5 116,-38.5 71,-38.5"/>
<text text-anchor="middle" x="93.5" y="-45.5" font-family="Helvetica,sans-Serif" font-size="10.00">ptwalk</text>
</a>
</g>
</g>
<!-- Node1&#45;&gt;Node2 -->
<g id="edge1" class="edge">
<title>Node1&#45;&gt;Node2</title>
<path fill="none" stroke="midnightblue" d="M35.29,-48C42.89,-48 52.14,-48 60.95,-48"/>
<polygon fill="midnightblue" stroke="midnightblue" points="60.99,-51.5 70.99,-48 60.99,-44.5 60.99,-51.5"/>
</g>
<!-- Node3 -->
<g id="node3" class="node">
<title>Node3</title>
<g id="a_node3"><a xlink:href="vme_8c.html#a55c43e36b332c6b9adc75d2fb8ec3030" target="_top" xlink:title=" ">
<polygon fill="none" stroke="black" points="155,-76.5 155,-95.5 201,-95.5 201,-76.5 155,-76.5"/>
<text text-anchor="middle" x="178" y="-83.5" font-family="Helvetica,sans-Serif" font-size="10.00">baseof</text>
</a>
</g>
</g>
<!-- Node2&#45;&gt;Node3 -->
<g id="edge2" class="edge">
<title>Node2&#45;&gt;Node3</title>
<path fill="none" stroke="midnightblue" d="M115.32,-57.59C124.89,-62 136.43,-67.31 146.93,-72.15"/>
<polygon fill="midnightblue" stroke="midnightblue" points="145.64,-75.41 156.19,-76.41 148.57,-69.05 145.64,-75.41"/>
</g>
<!-- Node4 -->
<g id="node4" class="node">
<title>Node4</title>
<g id="a_node4"><a xlink:href="vme_8c.html#a424824adb516648992a09edfac66469e" target="_top" xlink:title=" ">
<polygon fill="none" stroke="black" points="154.5,-38.5 154.5,-57.5 201.5,-57.5 201.5,-38.5 154.5,-38.5"/>
<text text-anchor="middle" x="178" y="-45.5" font-family="Helvetica,sans-Serif" font-size="10.00">indexof</text>
</a>
</g>
</g>
<!-- Node2&#45;&gt;Node4 -->
<g id="edge3" class="edge">
<title>Node2&#45;&gt;Node4</title>
<path fill="none" stroke="midnightblue" d="M116.18,-48C124.71,-48 134.7,-48 144.08,-48"/>
<polygon fill="midnightblue" stroke="midnightblue" points="144.32,-51.5 154.32,-48 144.32,-44.5 144.32,-51.5"/>
</g>
<!-- Node5 -->
<g id="node5" class="node">
<title>Node5</title>
<g id="a_node5"><a xlink:href="vme_8c.html#ac47719fc92b58613161d4f9ba152901a" target="_top" xlink:title=" ">
<polygon fill="none" stroke="black" points="152,-0.5 152,-19.5 204,-19.5 204,-0.5 152,-0.5"/>
<text text-anchor="middle" x="178" y="-7.5" font-family="Helvetica,sans-Serif" font-size="10.00">pgallocz</text>
</a>
</g>
</g>
<!-- Node2&#45;&gt;Node5 -->
<g id="edge4" class="edge">
<title>Node2&#45;&gt;Node5</title>
<path fill="none" stroke="midnightblue" d="M115.32,-38.41C124.89,-34 136.43,-28.69 146.93,-23.85"/>
<polygon fill="midnightblue" stroke="midnightblue" points="148.57,-26.95 156.19,-19.59 145.64,-20.59 148.57,-26.95"/>
</g>
</g>
</svg>
