<?xml version="1.0" encoding="UTF-8" standalone="no"?>
<!DOCTYPE svg PUBLIC "-//W3C//DTD SVG 1.1//EN"
 "http://www.w3.org/Graphics/SVG/1.1/DTD/svg11.dtd">
<!-- Generated by graphviz version 3.0.0 (20220413.0106)
 -->
<!-- Title: pgallocz Pages: 1 -->
<svg width="232pt" height="85pt"
 viewBox="0.00 0.00 232.00 85.00" xmlns="http://www.w3.org/2000/svg" xmlns:xlink="http://www.w3.org/1999/xlink">
<g id="graph0" class="graph" transform="scale(1 1) rotate(0) translate(4 81)">
<title>pgallocz</title>
<!-- Node1 -->
<g id="node1" class="node">
<title>Node1</title>
<g id="a_node1"><a xlink:title=" ">
<polygon fill="#bfbfbf" stroke="black" points="172,-38.5 172,-57.5 224,-57.5 224,-38.5 172,-38.5"/>
<text text-anchor="middle" x="198" y="-45.5" font-family="Helvetica,sans-Serif" font-size="10.00">pgallocz</text>
</a>
</g>
</g>
<!-- Node2 -->
<g id="node2" class="node">
<title>Node2</title>
<g id="a_node2"><a xlink:href="vme_8c.html#a58aa01621c117472b782593a1cbf4fde" target="_top" xlink:title=" ">
<polygon fill="none" stroke="black" points="89,-57.5 89,-76.5 136,-76.5 136,-57.5 89,-57.5"/>
<text text-anchor="middle" x="112.5" y="-64.5" font-family="Helvetica,sans-Serif" font-size="10.00">protect</text>
</a>
</g>
</g>
<!-- Node1&#45;&gt;Node2 -->
<g id="edge1" class="edge">
<title>Node1&#45;&gt;Node2</title>
<path fill="none" stroke="midnightblue" d="M162.01,-55.96C153.31,-57.94 144.2,-60.01 136.26,-61.82"/>
<polygon fill="midnightblue" stroke="midnightblue" points="162.97,-59.33 171.95,-53.7 161.42,-52.51 162.97,-59.33"/>
</g>
<!-- Node3 -->
<g id="node3" class="node">
<title>Node3</title>
<g id="a_node3"><a xlink:href="vme_8c.html#af7255ef9e9698b9a9332cad31a5ebd36" target="_top" xlink:title=" ">
<polygon fill="none" stroke="black" points="90,-19.5 90,-38.5 135,-38.5 135,-19.5 90,-19.5"/>
<text text-anchor="middle" x="112.5" y="-26.5" font-family="Helvetica,sans-Serif" font-size="10.00">ptwalk</text>
</a>
</g>
</g>
<!-- Node1&#45;&gt;Node3 -->
<g id="edge2" class="edge">
<title>Node1&#45;&gt;Node3</title>
<path fill="none" stroke="midnightblue" d="M161.96,-40.03C152.86,-37.96 143.32,-35.79 135.14,-33.92"/>
<polygon fill="midnightblue" stroke="midnightblue" points="161.42,-43.49 171.95,-42.3 162.97,-36.67 161.42,-43.49"/>
</g>
<!-- Node4 -->
<g id="node4" class="node">
<title>Node4</title>
<g id="a_node4"><a xlink:href="vme_8c.html#a81194a0d7c70a35be43bc54c27f4da63" target="_top" xlink:title=" ">
<polygon fill="none" stroke="black" points="9,-38.5 9,-57.5 44,-57.5 44,-38.5 9,-38.5"/>
<text text-anchor="middle" x="26.5" y="-45.5" font-family="Helvetica,sans-Serif" font-size="10.00">map</text>
</a>
</g>
</g>
<!-- Node3&#45;&gt;Node4 -->
<g id="edge3" class="edge">
<title>Node3&#45;&gt;Node4</title>
<path fill="none" stroke="midnightblue" d="M79.99,-36.13C67.76,-38.89 54.26,-41.95 44.02,-44.26"/>
<polygon fill="midnightblue" stroke="midnightblue" points="80.89,-39.51 89.87,-33.89 79.34,-32.69 80.89,-39.51"/>
</g>
<!-- Node5 -->
<g id="node5" class="node">
<title>Node5</title>
<g id="a_node5"><a xlink:href="vme_8c.html#a102a03634ce449f78facc63eee85d9b8" target="_top" xlink:title=" ">
<polygon fill="none" stroke="black" points="0,-0.5 0,-19.5 53,-19.5 53,-0.5 0,-0.5"/>
<text text-anchor="middle" x="26.5" y="-7.5" font-family="Helvetica,sans-Serif" font-size="10.00">vme_init</text>
</a>
</g>
</g>
<!-- Node3&#45;&gt;Node5 -->
<g id="edge4" class="edge">
<title>Node3&#45;&gt;Node5</title>
<path fill="none" stroke="midnightblue" d="M79.93,-21.86C71.13,-19.87 61.67,-17.73 53.24,-15.82"/>
<polygon fill="midnightblue" stroke="midnightblue" points="79.34,-25.31 89.87,-24.11 80.89,-18.49 79.34,-25.31"/>
</g>
</g>
</svg>
