<?xml version="1.0" encoding="UTF-8" standalone="no"?>
<!DOCTYPE svg PUBLIC "-//W3C//DTD SVG 1.1//EN"
 "http://www.w3.org/Graphics/SVG/1.1/DTD/svg11.dtd">
<!-- Generated by graphviz version 3.0.0 (20220413.0106)
 -->
<!-- Title: teardown Pages: 1 -->
<svg width="159pt" height="66pt"
 viewBox="0.00 0.00 159.00 66.00" xmlns="http://www.w3.org/2000/svg" xmlns:xlink="http://www.w3.org/1999/xlink">
<g id="graph0" class="graph" transform="scale(1 1) rotate(0) translate(4 62)">
<title>teardown</title>
<!-- Node1 -->
<g id="node1" class="node">
<title>Node1</title>
<g id="a_node1"><a xlink:title=" ">
<polygon fill="#bfbfbf" stroke="black" points="95,-19.5 95,-38.5 151,-38.5 151,-19.5 95,-19.5"/>
<text text-anchor="middle" x="123" y="-26.5" font-family="Helvetica,sans-Serif" font-size="10.00">teardown</text>
</a>
</g>
</g>
<!-- Node1&#45;&gt;Node1 -->
<g id="edge2" class="edge">
<title>Node1&#45;&gt;Node1</title>
<path fill="none" stroke="midnightblue" d="M140.04,-48.4C138.9,-53.31 133.22,-57 123,-57 106.65,-57 101.92,-47.57 108.82,-38.76"/>
<polygon fill="midnightblue" stroke="midnightblue" points="143.38,-47.35 137.18,-38.76 136.66,-49.34 143.38,-47.35"/>
</g>
<!-- Node2 -->
<g id="node2" class="node">
<title>Node2</title>
<g id="a_node2"><a xlink:href="kernel_8h.html#a7ef2d722f9c7f8acc1801144a5188825" target="_top" xlink:title=" ">
<polygon fill="none" stroke="black" points="0,-38.5 0,-57.5 59,-57.5 59,-38.5 0,-38.5"/>
<text text-anchor="middle" x="29.5" y="-45.5" font-family="Helvetica,sans-Serif" font-size="10.00">MODULE</text>
</a>
</g>
</g>
<!-- Node1&#45;&gt;Node2 -->
<g id="edge1" class="edge">
<title>Node1&#45;&gt;Node2</title>
<path fill="none" stroke="midnightblue" d="M84.51,-36.78C76.06,-38.54 67.23,-40.37 59.2,-42.04"/>
<polygon fill="midnightblue" stroke="midnightblue" points="85.47,-40.16 94.55,-34.7 84.04,-33.31 85.47,-40.16"/>
</g>
<!-- Node3 -->
<g id="node3" class="node">
<title>Node3</title>
<g id="a_node3"><a xlink:href="vme_8c.html#a3bf203e266e0adcf43ea137b5926463e" target="_top" xlink:title=" ">
<polygon fill="none" stroke="black" points="1,-0.5 1,-19.5 58,-19.5 58,-0.5 1,-0.5"/>
<text text-anchor="middle" x="29.5" y="-7.5" font-family="Helvetica,sans-Serif" font-size="10.00">unprotect</text>
</a>
</g>
</g>
<!-- Node1&#45;&gt;Node3 -->
<g id="edge3" class="edge">
<title>Node1&#45;&gt;Node3</title>
<path fill="none" stroke="midnightblue" d="M84.51,-21.22C75.72,-19.39 66.52,-17.48 58.25,-15.76"/>
<polygon fill="midnightblue" stroke="midnightblue" points="84.04,-24.69 94.55,-23.3 85.47,-17.84 84.04,-24.69"/>
</g>
</g>
</svg>
