<?xml version="1.0" encoding="UTF-8" standalone="no"?>
<!DOCTYPE svg PUBLIC "-//W3C//DTD SVG 1.1//EN"
 "http://www.w3.org/Graphics/SVG/1.1/DTD/svg11.dtd">
<!-- Generated by graphviz version 3.0.0 (20220413.0106)
 -->
<!-- Title: baseof Pages: 1 -->
<svg width="241pt" height="151pt"
 viewBox="0.00 0.00 241.00 151.00" xmlns="http://www.w3.org/2000/svg" xmlns:xlink="http://www.w3.org/1999/xlink">
<g id="graph0" class="graph" transform="scale(1 1) rotate(0) translate(4 147)">
<title>baseof</title>
<!-- Node1 -->
<g id="node1" class="node">
<title>Node1</title>
<g id="a_node1"><a xlink:title=" ">
<polygon fill="#bfbfbf" stroke="black" points="187,-85.5 187,-104.5 233,-104.5 233,-85.5 187,-85.5"/>
<text text-anchor="middle" x="210" y="-92.5" font-family="Helvetica,sans-Serif" font-size="10.00">baseof</text>
</a>
</g>
</g>
<!-- Node2 -->
<g id="node2" class="node">
<title>Node2</title>
<g id="a_node2"><a xlink:href="vme_8c.html#af7255ef9e9698b9a9332cad31a5ebd36" target="_top" xlink:title=" ">
<polygon fill="none" stroke="black" points="100.5,-123.5 100.5,-142.5 145.5,-142.5 145.5,-123.5 100.5,-123.5"/>
<text text-anchor="middle" x="123" y="-130.5" font-family="Helvetica,sans-Serif" font-size="10.00">ptwalk</text>
</a>
</g>
</g>
<!-- Node1&#45;&gt;Node2 -->
<g id="edge1" class="edge">
<title>Node1&#45;&gt;Node2</title>
<path fill="none" stroke="midnightblue" d="M178.34,-108.71C167.44,-113.58 155.41,-118.96 145.44,-123.41"/>
<polygon fill="midnightblue" stroke="midnightblue" points="179.85,-111.87 187.55,-104.59 176.99,-105.48 179.85,-111.87"/>
</g>
<!-- Node4 -->
<g id="node4" class="node">
<title>Node4</title>
<g id="a_node4"><a xlink:href="vme_8c.html#a102a03634ce449f78facc63eee85d9b8" target="_top" xlink:title=" ">
<polygon fill="none" stroke="black" points="3,-85.5 3,-104.5 56,-104.5 56,-85.5 3,-85.5"/>
<text text-anchor="middle" x="29.5" y="-92.5" font-family="Helvetica,sans-Serif" font-size="10.00">vme_init</text>
</a>
</g>
</g>
<!-- Node1&#45;&gt;Node4 -->
<g id="edge8" class="edge">
<title>Node1&#45;&gt;Node4</title>
<path fill="none" stroke="midnightblue" d="M176.7,-95C142.14,-95 88,-95 56.21,-95"/>
<polygon fill="midnightblue" stroke="midnightblue" points="176.75,-98.5 186.75,-95 176.75,-91.5 176.75,-98.5"/>
</g>
<!-- Node5 -->
<g id="node5" class="node">
<title>Node5</title>
<g id="a_node5"><a xlink:href="vme_8c.html#a901011ff1d62f072db4208fa9c1971a2" target="_top" xlink:title=" ">
<polygon fill="none" stroke="black" points="95,-29.5 95,-48.5 151,-48.5 151,-29.5 95,-29.5"/>
<text text-anchor="middle" x="123" y="-36.5" font-family="Helvetica,sans-Serif" font-size="10.00">teardown</text>
</a>
</g>
</g>
<!-- Node1&#45;&gt;Node5 -->
<g id="edge4" class="edge">
<title>Node1&#45;&gt;Node5</title>
<path fill="none" stroke="midnightblue" d="M185.46,-79.49C170.46,-69.61 151.5,-57.12 138.64,-48.64"/>
<polygon fill="midnightblue" stroke="midnightblue" points="183.92,-82.67 194.19,-85.25 187.77,-76.82 183.92,-82.67"/>
</g>
<!-- Node3 -->
<g id="node3" class="node">
<title>Node3</title>
<g id="a_node3"><a xlink:href="vme_8c.html#a81194a0d7c70a35be43bc54c27f4da63" target="_top" xlink:title=" ">
<polygon fill="none" stroke="black" points="12,-123.5 12,-142.5 47,-142.5 47,-123.5 12,-123.5"/>
<text text-anchor="middle" x="29.5" y="-130.5" font-family="Helvetica,sans-Serif" font-size="10.00">map</text>
</a>
</g>
</g>
<!-- Node2&#45;&gt;Node3 -->
<g id="edge2" class="edge">
<title>Node2&#45;&gt;Node3</title>
<path fill="none" stroke="midnightblue" d="M90.22,-133C75.73,-133 59.17,-133 47.17,-133"/>
<polygon fill="midnightblue" stroke="midnightblue" points="90.32,-136.5 100.32,-133 90.32,-129.5 90.32,-136.5"/>
</g>
<!-- Node2&#45;&gt;Node4 -->
<g id="edge3" class="edge">
<title>Node2&#45;&gt;Node4</title>
<path fill="none" stroke="midnightblue" d="M90.93,-120.1C78.72,-115.02 64.94,-109.3 53.63,-104.61"/>
<polygon fill="midnightblue" stroke="midnightblue" points="89.74,-123.39 100.32,-123.99 92.42,-116.93 89.74,-123.39"/>
</g>
<!-- Node5&#45;&gt;Node5 -->
<g id="edge6" class="edge">
<title>Node5&#45;&gt;Node5</title>
<path fill="none" stroke="midnightblue" d="M138.93,-58.4C137.86,-63.31 132.55,-67 123,-67 107.71,-67 103.3,-57.57 109.74,-48.76"/>
<polygon fill="midnightblue" stroke="midnightblue" points="142.3,-57.46 136.26,-48.76 135.55,-59.33 142.3,-57.46"/>
</g>
<!-- Node6 -->
<g id="node6" class="node">
<title>Node6</title>
<g id="a_node6"><a xlink:href="kernel_8h.html#a7ef2d722f9c7f8acc1801144a5188825" target="_top" xlink:title=" ">
<polygon fill="none" stroke="black" points="0,-38.5 0,-57.5 59,-57.5 59,-38.5 0,-38.5"/>
<text text-anchor="middle" x="29.5" y="-45.5" font-family="Helvetica,sans-Serif" font-size="10.00">MODULE</text>
</a>
</g>
</g>
<!-- Node5&#45;&gt;Node6 -->
<g id="edge5" class="edge">
<title>Node5&#45;&gt;Node6</title>
<path fill="none" stroke="midnightblue" d="M84.51,-42.69C76.06,-43.52 67.23,-44.39 59.2,-45.18"/>
<polygon fill="midnightblue" stroke="midnightblue" points="84.94,-46.16 94.55,-41.7 84.25,-39.2 84.94,-46.16"/>
</g>
<!-- Node7 -->
<g id="node7" class="node">
<title>Node7</title>
<g id="a_node7"><a xlink:href="vme_8c.html#a3bf203e266e0adcf43ea137b5926463e" target="_top" xlink:title=" ">
<polygon fill="none" stroke="black" points="1,-0.5 1,-19.5 58,-19.5 58,-0.5 1,-0.5"/>
<text text-anchor="middle" x="29.5" y="-7.5" font-family="Helvetica,sans-Serif" font-size="10.00">unprotect</text>
</a>
</g>
</g>
<!-- Node5&#45;&gt;Node7 -->
<g id="edge7" class="edge">
<title>Node5&#45;&gt;Node7</title>
<path fill="none" stroke="midnightblue" d="M84.8,-27.21C75.93,-24.4 66.61,-21.44 58.25,-18.8"/>
<polygon fill="midnightblue" stroke="midnightblue" points="83.96,-30.61 94.55,-30.3 86.07,-23.94 83.96,-30.61"/>
</g>
</g>
</svg>
