<?xml version="1.0" encoding="UTF-8" standalone="no"?>
<!DOCTYPE svg PUBLIC "-//W3C//DTD SVG 1.1//EN"
 "http://www.w3.org/Graphics/SVG/1.1/DTD/svg11.dtd">
<!-- Generated by graphviz version 2.50.0 (20220203.2022)
 -->
<!-- Title: __am_percpu_init Pages: 1 -->
<svg width="500pt" height="180pt"
 viewBox="0.00 0.00 500.00 180.00" xmlns="http://www.w3.org/2000/svg" xmlns:xlink="http://www.w3.org/1999/xlink">
<g id="graph0" class="graph" transform="scale(1 1) rotate(0) translate(4 176)">
<title>__am_percpu_init</title>
<!-- Node1 -->
<g id="node1" class="node">
<title>Node1</title>
<g id="a_node1"><a xlink:title=" ">
<polygon fill="#bfbfbf" stroke="black" points="0,-67.5 0,-86.5 93,-86.5 93,-67.5 0,-67.5"/>
<text text-anchor="middle" x="46.5" y="-74.5" font-family="Helvetica,sans-Serif" font-size="10.00">__am_percpu_init</text>
</a>
</g>
</g>
<!-- Node2 -->
<g id="node2" class="node">
<title>Node2</title>
<g id="a_node2"><a xlink:href="trm_8c.html#a30657d927e0438fe41ba851aa9d7bc31" target="_top" xlink:title=" ">
<polygon fill="none" stroke="black" points="132,-114.5 132,-133.5 239,-133.5 239,-114.5 132,-114.5"/>
<text text-anchor="middle" x="185.5" y="-121.5" font-family="Helvetica,sans-Serif" font-size="10.00">__am_percpu_initgdt</text>
</a>
</g>
</g>
<!-- Node1&#45;&gt;Node2 -->
<g id="edge1" class="edge">
<title>Node1&#45;&gt;Node2</title>
<path fill="none" stroke="midnightblue" d="M75.22,-86.51C95.79,-93.57 124.07,-103.27 146.71,-111.04"/>
<polygon fill="midnightblue" stroke="midnightblue" points="145.75,-114.41 156.35,-114.34 148.02,-107.79 145.75,-114.41"/>
</g>
<!-- Node6 -->
<g id="node6" class="node">
<title>Node6</title>
<g id="a_node6"><a xlink:href="cte_8c.html#adb128cbf8cb1844d1fef62c3647a3f25" target="_top" xlink:title=" ">
<polygon fill="none" stroke="black" points="133.5,-67.5 133.5,-86.5 237.5,-86.5 237.5,-67.5 133.5,-67.5"/>
<text text-anchor="middle" x="185.5" y="-74.5" font-family="Helvetica,sans-Serif" font-size="10.00">__am_percpu_initirq</text>
</a>
</g>
</g>
<!-- Node1&#45;&gt;Node6 -->
<g id="edge5" class="edge">
<title>Node1&#45;&gt;Node6</title>
<path fill="none" stroke="midnightblue" d="M93.12,-77C102.81,-77 113.19,-77 123.35,-77"/>
<polygon fill="midnightblue" stroke="midnightblue" points="123.41,-80.5 133.41,-77 123.41,-73.5 123.41,-80.5"/>
</g>
<!-- Node10 -->
<g id="node10" class="node">
<title>Node10</title>
<g id="a_node10"><a xlink:href="ioe_8c.html#afd452a54c6657d504fdbc70af4adb9cf" target="_top" xlink:title=" ">
<polygon fill="none" stroke="black" points="129,-10.5 129,-29.5 242,-29.5 242,-10.5 129,-10.5"/>
<text text-anchor="middle" x="185.5" y="-17.5" font-family="Helvetica,sans-Serif" font-size="10.00">__am_percpu_initlapic</text>
</a>
</g>
</g>
<!-- Node1&#45;&gt;Node10 -->
<g id="edge10" class="edge">
<title>Node1&#45;&gt;Node10</title>
<path fill="none" stroke="midnightblue" d="M70.43,-67.46C92.76,-58.17 126.9,-43.96 152.02,-33.51"/>
<polygon fill="midnightblue" stroke="midnightblue" points="153.61,-36.64 161.49,-29.57 150.92,-30.18 153.61,-36.64"/>
</g>
<!-- Node3 -->
<g id="node3" class="node">
<title>Node3</title>
<g id="a_node3"><a xlink:href="x86_8h.html#a4dc007b346b1364320af9d9e1c105455" target="_top" xlink:title=" ">
<polygon fill="none" stroke="black" points="306,-152.5 306,-171.5 355,-171.5 355,-152.5 306,-152.5"/>
<text text-anchor="middle" x="330.5" y="-159.5" font-family="Helvetica,sans-Serif" font-size="10.00">set_gdt</text>
</a>
</g>
</g>
<!-- Node2&#45;&gt;Node3 -->
<g id="edge2" class="edge">
<title>Node2&#45;&gt;Node3</title>
<path fill="none" stroke="midnightblue" d="M222.58,-133.59C245.16,-139.59 274.03,-147.26 296.08,-153.12"/>
<polygon fill="midnightblue" stroke="midnightblue" points="295.42,-156.57 305.99,-155.75 297.22,-149.8 295.42,-156.57"/>
</g>
<!-- Node5 -->
<g id="node5" class="node">
<title>Node5</title>
<g id="a_node5"><a xlink:href="x86_8h.html#a2d9f7bff4b1a6ec6b994dffdc4172bef" target="_top" xlink:title=" ">
<polygon fill="none" stroke="black" points="310,-114.5 310,-133.5 351,-133.5 351,-114.5 310,-114.5"/>
<text text-anchor="middle" x="330.5" y="-121.5" font-family="Helvetica,sans-Serif" font-size="10.00">set_tr</text>
</a>
</g>
</g>
<!-- Node2&#45;&gt;Node5 -->
<g id="edge4" class="edge">
<title>Node2&#45;&gt;Node5</title>
<path fill="none" stroke="midnightblue" d="M239.34,-124C259.77,-124 282.38,-124 299.84,-124"/>
<polygon fill="midnightblue" stroke="midnightblue" points="299.99,-127.5 309.99,-124 299.99,-120.5 299.99,-127.5"/>
</g>
<!-- Node4 -->
<g id="node4" class="node">
<title>Node4</title>
<g id="a_node4"><a xlink:href="amdev_8h.html#ab31b92691e50ae7e3b7d50598fad2e8c" target="_top" xlink:title=" ">
<polygon fill="none" stroke="black" points="419,-114.5 419,-133.5 492,-133.5 492,-114.5 419,-114.5"/>
<text text-anchor="middle" x="455.5" y="-121.5" font-family="Helvetica,sans-Serif" font-size="10.00">__attribute__</text>
</a>
</g>
</g>
<!-- Node3&#45;&gt;Node4 -->
<g id="edge3" class="edge">
<title>Node3&#45;&gt;Node4</title>
<path fill="none" stroke="midnightblue" d="M355.22,-154.67C371.74,-149.57 394.21,-142.63 413.6,-136.64"/>
<polygon fill="midnightblue" stroke="midnightblue" points="414.88,-139.9 423.4,-133.61 412.81,-133.22 414.88,-139.9"/>
</g>
<!-- Node7 -->
<g id="node7" class="node">
<title>Node7</title>
<g id="a_node7"><a xlink:href="ioe_8c.html#aaa8b5de13119943f63fd14ce0cbb748f" target="_top" xlink:title=" ">
<polygon fill="none" stroke="black" points="278,-38.5 278,-57.5 383,-57.5 383,-38.5 278,-38.5"/>
<text text-anchor="middle" x="330.5" y="-45.5" font-family="Helvetica,sans-Serif" font-size="10.00">__am_ioapic_enable</text>
</a>
</g>
</g>
<!-- Node6&#45;&gt;Node7 -->
<g id="edge6" class="edge">
<title>Node6&#45;&gt;Node7</title>
<path fill="none" stroke="midnightblue" d="M233.72,-67.42C246.04,-64.92 259.46,-62.2 272.25,-59.61"/>
<polygon fill="midnightblue" stroke="midnightblue" points="273.22,-62.98 282.33,-57.57 271.83,-56.12 273.22,-62.98"/>
</g>
<!-- Node9 -->
<g id="node9" class="node">
<title>Node9</title>
<g id="a_node9"><a xlink:href="x86_8h.html#aec7546614338d8b90023fa2805432e22" target="_top" xlink:title=" ">
<polygon fill="none" stroke="black" points="307.5,-76.5 307.5,-95.5 353.5,-95.5 353.5,-76.5 307.5,-76.5"/>
<text text-anchor="middle" x="330.5" y="-83.5" font-family="Helvetica,sans-Serif" font-size="10.00">set_idt</text>
</a>
</g>
</g>
<!-- Node6&#45;&gt;Node9 -->
<g id="edge8" class="edge">
<title>Node6&#45;&gt;Node9</title>
<path fill="none" stroke="midnightblue" d="M237.72,-80.22C257.5,-81.47 279.53,-82.86 297.05,-83.96"/>
<polygon fill="midnightblue" stroke="midnightblue" points="297.12,-87.47 307.32,-84.6 297.56,-80.48 297.12,-87.47"/>
</g>
<!-- Node8 -->
<g id="node8" class="node">
<title>Node8</title>
<g id="a_node8"><a xlink:href="ioe_8c.html#aef6c47d7966a31659d7e494efed1b15c" target="_top" xlink:title=" ">
<polygon fill="none" stroke="black" points="424,-38.5 424,-57.5 487,-57.5 487,-38.5 424,-38.5"/>
<text text-anchor="middle" x="455.5" y="-45.5" font-family="Helvetica,sans-Serif" font-size="10.00">ioapicwrite</text>
</a>
</g>
</g>
<!-- Node7&#45;&gt;Node8 -->
<g id="edge7" class="edge">
<title>Node7&#45;&gt;Node8</title>
<path fill="none" stroke="midnightblue" d="M383.31,-48C393.43,-48 403.92,-48 413.63,-48"/>
<polygon fill="midnightblue" stroke="midnightblue" points="413.8,-51.5 423.8,-48 413.8,-44.5 413.8,-51.5"/>
</g>
<!-- Node9&#45;&gt;Node4 -->
<g id="edge9" class="edge">
<title>Node9&#45;&gt;Node4</title>
<path fill="none" stroke="midnightblue" d="M353.77,-92.88C370.48,-98.04 393.8,-105.25 413.8,-111.43"/>
<polygon fill="midnightblue" stroke="midnightblue" points="413.01,-114.85 423.6,-114.45 415.08,-108.16 413.01,-114.85"/>
</g>
<!-- Node11 -->
<g id="node11" class="node">
<title>Node11</title>
<g id="a_node11"><a xlink:href="ioe_8c.html#a72d9ed0bfe1066367763e044b7a7b7c3" target="_top" xlink:title=" ">
<polygon fill="none" stroke="black" points="308.5,-0.5 308.5,-19.5 352.5,-19.5 352.5,-0.5 308.5,-0.5"/>
<text text-anchor="middle" x="330.5" y="-7.5" font-family="Helvetica,sans-Serif" font-size="10.00">lapicw</text>
</a>
</g>
</g>
<!-- Node10&#45;&gt;Node11 -->
<g id="edge11" class="edge">
<title>Node10&#45;&gt;Node11</title>
<path fill="none" stroke="midnightblue" d="M242.2,-16.11C261.24,-14.77 281.85,-13.33 298.27,-12.18"/>
<polygon fill="midnightblue" stroke="midnightblue" points="298.66,-15.67 308.39,-11.48 298.17,-8.68 298.66,-15.67"/>
</g>
</g>
</svg>
