<?xml version="1.0" encoding="UTF-8" standalone="no"?>
<!DOCTYPE svg PUBLIC "-//W3C//DTD SVG 1.1//EN"
 "http://www.w3.org/Graphics/SVG/1.1/DTD/svg11.dtd">
<!-- Generated by graphviz version 3.0.0 (20220413.0106)
 -->
<!-- Title: __am_othercpu_entry Pages: 1 -->
<svg width="767pt" height="227pt"
 viewBox="0.00 0.00 767.00 227.00" xmlns="http://www.w3.org/2000/svg" xmlns:xlink="http://www.w3.org/1999/xlink">
<g id="graph0" class="graph" transform="scale(1 1) rotate(0) translate(4 223)">
<title>__am_othercpu_entry</title>
<!-- Node1 -->
<g id="node1" class="node">
<title>Node1</title>
<g id="a_node1"><a xlink:title=" ">
<polygon fill="#bfbfbf" stroke="black" points="0,-38.5 0,-57.5 110,-57.5 110,-38.5 0,-38.5"/>
<text text-anchor="middle" x="55" y="-45.5" font-family="Helvetica,sans-Serif" font-size="10.00">__am_othercpu_entry</text>
</a>
</g>
</g>
<!-- Node2 -->
<g id="node2" class="node">
<title>Node2</title>
<g id="a_node2"><a xlink:href="mpe_8c.html#aec8f7f25be4263648b704092672a566b" target="_top" xlink:title=" ">
<polygon fill="none" stroke="black" points="153.5,-76.5 153.5,-95.5 233.5,-95.5 233.5,-76.5 153.5,-76.5"/>
<text text-anchor="middle" x="193.5" y="-83.5" font-family="Helvetica,sans-Serif" font-size="10.00">othercpu_entry</text>
</a>
</g>
</g>
<!-- Node1&#45;&gt;Node2 -->
<g id="edge1" class="edge">
<title>Node1&#45;&gt;Node2</title>
<path fill="none" stroke="midnightblue" d="M90.44,-57.59C107.98,-62.47 129.51,-68.46 148.26,-73.68"/>
<polygon fill="midnightblue" stroke="midnightblue" points="147.49,-77.1 158.07,-76.41 149.37,-70.36 147.49,-77.1"/>
</g>
<!-- Node15 -->
<g id="node15" class="node">
<title>Node15</title>
<g id="a_node15"><a xlink:href="x86_8h.html#a3aca1d1b71fb9d7c716c378b77f78a67" target="_top" xlink:title=" ">
<polygon fill="none" stroke="black" points="146,-38.5 146,-57.5 241,-57.5 241,-38.5 146,-38.5"/>
<text text-anchor="middle" x="193.5" y="-45.5" font-family="Helvetica,sans-Serif" font-size="10.00">stack_switch_call</text>
</a>
</g>
</g>
<!-- Node1&#45;&gt;Node15 -->
<g id="edge14" class="edge">
<title>Node1&#45;&gt;Node15</title>
<path fill="none" stroke="midnightblue" d="M110.34,-48C118.69,-48 127.33,-48 135.74,-48"/>
<polygon fill="midnightblue" stroke="midnightblue" points="135.83,-51.5 145.83,-48 135.83,-44.5 135.83,-51.5"/>
</g>
<!-- Node16 -->
<g id="node16" class="node">
<title>Node16</title>
<g id="a_node16"><a xlink:href="x86-qemu_8h.html#a64bde2ec96916dd620625c36d85ef38a" target="_top" xlink:title=" ">
<polygon fill="none" stroke="black" points="164,-0.5 164,-19.5 223,-19.5 223,-0.5 164,-0.5"/>
<text text-anchor="middle" x="193.5" y="-7.5" font-family="Helvetica,sans-Serif" font-size="10.00">stack_top</text>
</a>
</g>
</g>
<!-- Node1&#45;&gt;Node16 -->
<g id="edge15" class="edge">
<title>Node1&#45;&gt;Node16</title>
<path fill="none" stroke="midnightblue" d="M90.44,-38.41C109.77,-33.03 133.93,-26.31 153.89,-20.75"/>
<polygon fill="midnightblue" stroke="midnightblue" points="154.91,-24.1 163.6,-18.04 153.03,-17.35 154.91,-24.1"/>
</g>
<!-- Node3 -->
<g id="node3" class="node">
<title>Node3</title>
<g id="a_node3"><a xlink:href="trm_8c.html#abac650c2a0dd8b7f13349871fd6ab6ee" target="_top" xlink:title=" ">
<polygon fill="none" stroke="black" points="277,-114.5 277,-133.5 370,-133.5 370,-114.5 277,-114.5"/>
<text text-anchor="middle" x="323.5" y="-121.5" font-family="Helvetica,sans-Serif" font-size="10.00">__am_percpu_init</text>
</a>
</g>
</g>
<!-- Node2&#45;&gt;Node3 -->
<g id="edge2" class="edge">
<title>Node2&#45;&gt;Node3</title>
<path fill="none" stroke="midnightblue" d="M226.8,-95.59C243.02,-100.4 262.88,-106.3 280.29,-111.47"/>
<polygon fill="midnightblue" stroke="midnightblue" points="279.63,-114.92 290.21,-114.41 281.62,-108.21 279.63,-114.92"/>
</g>
<!-- Node13 -->
<g id="node13" class="node">
<title>Node13</title>
<g id="a_node13"><a xlink:href="mpe_8c.html#afc800fc7438b6762f113c46d25cab75b" target="_top" xlink:title=" ">
<polygon fill="none" stroke="black" points="282.5,-76.5 282.5,-95.5 364.5,-95.5 364.5,-76.5 282.5,-76.5"/>
<text text-anchor="middle" x="323.5" y="-83.5" font-family="Helvetica,sans-Serif" font-size="10.00">call_user_entry</text>
</a>
</g>
</g>
<!-- Node2&#45;&gt;Node13 -->
<g id="edge12" class="edge">
<title>Node2&#45;&gt;Node13</title>
<path fill="none" stroke="midnightblue" d="M233.6,-86C245.78,-86 259.39,-86 272.23,-86"/>
<polygon fill="midnightblue" stroke="midnightblue" points="272.31,-89.5 282.31,-86 272.31,-82.5 272.31,-89.5"/>
</g>
<!-- Node14 -->
<g id="node14" class="node">
<title>Node14</title>
<g id="a_node14"><a xlink:href="x86_8h.html#a48b2a6a16dc8d7e09d327aa3803f1112" target="_top" xlink:title=" ">
<polygon fill="none" stroke="black" points="305,-38.5 305,-57.5 342,-57.5 342,-38.5 305,-38.5"/>
<text text-anchor="middle" x="323.5" y="-45.5" font-family="Helvetica,sans-Serif" font-size="10.00">xchg</text>
</a>
</g>
</g>
<!-- Node2&#45;&gt;Node14 -->
<g id="edge13" class="edge">
<title>Node2&#45;&gt;Node14</title>
<path fill="none" stroke="midnightblue" d="M226.8,-76.41C247.86,-70.16 275.06,-62.08 295.07,-56.14"/>
<polygon fill="midnightblue" stroke="midnightblue" points="296.22,-59.45 304.81,-53.25 294.23,-52.74 296.22,-59.45"/>
</g>
<!-- Node4 -->
<g id="node4" class="node">
<title>Node4</title>
<g id="a_node4"><a xlink:href="trm_8c.html#a30657d927e0438fe41ba851aa9d7bc31" target="_top" xlink:title=" ">
<polygon fill="none" stroke="black" points="409,-161.5 409,-180.5 516,-180.5 516,-161.5 409,-161.5"/>
<text text-anchor="middle" x="462.5" y="-168.5" font-family="Helvetica,sans-Serif" font-size="10.00">__am_percpu_initgdt</text>
</a>
</g>
</g>
<!-- Node3&#45;&gt;Node4 -->
<g id="edge3" class="edge">
<title>Node3&#45;&gt;Node4</title>
<path fill="none" stroke="midnightblue" d="M352.22,-133.51C372.79,-140.57 401.07,-150.27 423.71,-158.04"/>
<polygon fill="midnightblue" stroke="midnightblue" points="422.75,-161.41 433.35,-161.34 425.02,-154.79 422.75,-161.41"/>
</g>
<!-- Node7 -->
<g id="node7" class="node">
<title>Node7</title>
<g id="a_node7"><a xlink:href="cte_8c.html#adb128cbf8cb1844d1fef62c3647a3f25" target="_top" xlink:title=" ">
<polygon fill="none" stroke="black" points="410.5,-114.5 410.5,-133.5 514.5,-133.5 514.5,-114.5 410.5,-114.5"/>
<text text-anchor="middle" x="462.5" y="-121.5" font-family="Helvetica,sans-Serif" font-size="10.00">__am_percpu_initirq</text>
</a>
</g>
</g>
<!-- Node3&#45;&gt;Node7 -->
<g id="edge6" class="edge">
<title>Node3&#45;&gt;Node7</title>
<path fill="none" stroke="midnightblue" d="M370.12,-124C379.81,-124 390.19,-124 400.35,-124"/>
<polygon fill="midnightblue" stroke="midnightblue" points="400.41,-127.5 410.41,-124 400.41,-120.5 400.41,-127.5"/>
</g>
<!-- Node11 -->
<g id="node11" class="node">
<title>Node11</title>
<g id="a_node11"><a xlink:href="ioe_8c.html#afd452a54c6657d504fdbc70af4adb9cf" target="_top" xlink:title=" ">
<polygon fill="none" stroke="black" points="406,-57.5 406,-76.5 519,-76.5 519,-57.5 406,-57.5"/>
<text text-anchor="middle" x="462.5" y="-64.5" font-family="Helvetica,sans-Serif" font-size="10.00">__am_percpu_initlapic</text>
</a>
</g>
</g>
<!-- Node3&#45;&gt;Node11 -->
<g id="edge10" class="edge">
<title>Node3&#45;&gt;Node11</title>
<path fill="none" stroke="midnightblue" d="M347.43,-114.46C369.76,-105.17 403.9,-90.96 429.02,-80.51"/>
<polygon fill="midnightblue" stroke="midnightblue" points="430.61,-83.64 438.49,-76.57 427.92,-77.18 430.61,-83.64"/>
</g>
<!-- Node5 -->
<g id="node5" class="node">
<title>Node5</title>
<g id="a_node5"><a xlink:href="x86_8h.html#a4dc007b346b1364320af9d9e1c105455" target="_top" xlink:title=" ">
<polygon fill="none" stroke="black" points="583,-199.5 583,-218.5 632,-218.5 632,-199.5 583,-199.5"/>
<text text-anchor="middle" x="607.5" y="-206.5" font-family="Helvetica,sans-Serif" font-size="10.00">set_gdt</text>
</a>
</g>
</g>
<!-- Node4&#45;&gt;Node5 -->
<g id="edge4" class="edge">
<title>Node4&#45;&gt;Node5</title>
<path fill="none" stroke="midnightblue" d="M499.58,-180.59C522.16,-186.59 551.03,-194.26 573.08,-200.12"/>
<polygon fill="midnightblue" stroke="midnightblue" points="572.42,-203.57 582.99,-202.75 574.22,-196.8 572.42,-203.57"/>
</g>
<!-- Node6 -->
<g id="node6" class="node">
<title>Node6</title>
<g id="a_node6"><a xlink:href="x86_8h.html#a2d9f7bff4b1a6ec6b994dffdc4172bef" target="_top" xlink:title=" ">
<polygon fill="none" stroke="black" points="587,-161.5 587,-180.5 628,-180.5 628,-161.5 587,-161.5"/>
<text text-anchor="middle" x="607.5" y="-168.5" font-family="Helvetica,sans-Serif" font-size="10.00">set_tr</text>
</a>
</g>
</g>
<!-- Node4&#45;&gt;Node6 -->
<g id="edge5" class="edge">
<title>Node4&#45;&gt;Node6</title>
<path fill="none" stroke="midnightblue" d="M516.34,-171C536.77,-171 559.38,-171 576.84,-171"/>
<polygon fill="midnightblue" stroke="midnightblue" points="576.99,-174.5 586.99,-171 576.99,-167.5 576.99,-174.5"/>
</g>
<!-- Node8 -->
<g id="node8" class="node">
<title>Node8</title>
<g id="a_node8"><a xlink:href="ioe_8c.html#aaa8b5de13119943f63fd14ce0cbb748f" target="_top" xlink:title=" ">
<polygon fill="none" stroke="black" points="555,-123.5 555,-142.5 660,-142.5 660,-123.5 555,-123.5"/>
<text text-anchor="middle" x="607.5" y="-130.5" font-family="Helvetica,sans-Serif" font-size="10.00">__am_ioapic_enable</text>
</a>
</g>
</g>
<!-- Node7&#45;&gt;Node8 -->
<g id="edge7" class="edge">
<title>Node7&#45;&gt;Node8</title>
<path fill="none" stroke="midnightblue" d="M514.72,-127.22C524.36,-127.83 534.53,-128.47 544.45,-129.09"/>
<polygon fill="midnightblue" stroke="midnightblue" points="544.47,-132.6 554.67,-129.74 544.91,-125.62 544.47,-132.6"/>
</g>
<!-- Node10 -->
<g id="node10" class="node">
<title>Node10</title>
<g id="a_node10"><a xlink:href="x86_8h.html#aec7546614338d8b90023fa2805432e22" target="_top" xlink:title=" ">
<polygon fill="none" stroke="black" points="584.5,-85.5 584.5,-104.5 630.5,-104.5 630.5,-85.5 584.5,-85.5"/>
<text text-anchor="middle" x="607.5" y="-92.5" font-family="Helvetica,sans-Serif" font-size="10.00">set_idt</text>
</a>
</g>
</g>
<!-- Node7&#45;&gt;Node10 -->
<g id="edge9" class="edge">
<title>Node7&#45;&gt;Node10</title>
<path fill="none" stroke="midnightblue" d="M510.72,-114.42C531.59,-110.19 555.58,-105.33 574.34,-101.52"/>
<polygon fill="midnightblue" stroke="midnightblue" points="575.06,-104.95 584.17,-99.53 573.67,-98.09 575.06,-104.95"/>
</g>
<!-- Node9 -->
<g id="node9" class="node">
<title>Node9</title>
<g id="a_node9"><a xlink:href="ioe_8c.html#aef6c47d7966a31659d7e494efed1b15c" target="_top" xlink:title=" ">
<polygon fill="none" stroke="black" points="696,-123.5 696,-142.5 759,-142.5 759,-123.5 696,-123.5"/>
<text text-anchor="middle" x="727.5" y="-130.5" font-family="Helvetica,sans-Serif" font-size="10.00">ioapicwrite</text>
</a>
</g>
</g>
<!-- Node8&#45;&gt;Node9 -->
<g id="edge8" class="edge">
<title>Node8&#45;&gt;Node9</title>
<path fill="none" stroke="midnightblue" d="M660.26,-133C668.79,-133 677.53,-133 685.75,-133"/>
<polygon fill="midnightblue" stroke="midnightblue" points="685.82,-136.5 695.82,-133 685.82,-129.5 685.82,-136.5"/>
</g>
<!-- Node12 -->
<g id="node12" class="node">
<title>Node12</title>
<g id="a_node12"><a xlink:href="ioe_8c.html#a72d9ed0bfe1066367763e044b7a7b7c3" target="_top" xlink:title=" ">
<polygon fill="none" stroke="black" points="585.5,-47.5 585.5,-66.5 629.5,-66.5 629.5,-47.5 585.5,-47.5"/>
<text text-anchor="middle" x="607.5" y="-54.5" font-family="Helvetica,sans-Serif" font-size="10.00">lapicw</text>
</a>
</g>
</g>
<!-- Node11&#45;&gt;Node12 -->
<g id="edge11" class="edge">
<title>Node11&#45;&gt;Node12</title>
<path fill="none" stroke="midnightblue" d="M519.2,-63.11C538.24,-61.77 558.85,-60.33 575.27,-59.18"/>
<polygon fill="midnightblue" stroke="midnightblue" points="575.66,-62.67 585.39,-58.48 575.17,-55.68 575.66,-62.67"/>
</g>
</g>
</svg>
