<?xml version="1.0" encoding="UTF-8" standalone="no"?>
<!DOCTYPE svg PUBLIC "-//W3C//DTD SVG 1.1//EN"
 "http://www.w3.org/Graphics/SVG/1.1/DTD/svg11.dtd">
<!-- Generated by graphviz version 2.50.0 (20220203.2022)
 -->
<!-- Title: sti Pages: 1 -->
<svg width="211pt" height="28pt"
 viewBox="0.00 0.00 211.00 28.00" xmlns="http://www.w3.org/2000/svg" xmlns:xlink="http://www.w3.org/1999/xlink">
<g id="graph0" class="graph" transform="scale(1 1) rotate(0) translate(4 24)">
<title>sti</title>
<!-- Node1 -->
<g id="node1" class="node">
<title>Node1</title>
<g id="a_node1"><a xlink:title=" ">
<polygon fill="#bfbfbf" stroke="black" points="174,-0.5 174,-19.5 203,-19.5 203,-0.5 174,-0.5"/>
<text text-anchor="middle" x="188.5" y="-7.5" font-family="Helvetica,sans-Serif" font-size="10.00">sti</text>
</a>
</g>
</g>
<!-- Node2 -->
<g id="node2" class="node">
<title>Node2</title>
<g id="a_node2"><a xlink:href="x86_2qemu_2cte_8c.html#a4a139958742786c5085172be1f69bfd0" target="_top" xlink:title=" ">
<polygon fill="none" stroke="black" points="106,-0.5 106,-19.5 138,-19.5 138,-0.5 106,-0.5"/>
<text text-anchor="middle" x="122" y="-7.5" font-family="Helvetica,sans-Serif" font-size="10.00">iset</text>
</a>
</g>
</g>
<!-- Node1&#45;&gt;Node2 -->
<g id="edge1" class="edge">
<title>Node1&#45;&gt;Node2</title>
<path fill="none" stroke="midnightblue" d="M163.61,-10C155.04,-10 145.62,-10 138.01,-10"/>
<polygon fill="midnightblue" stroke="midnightblue" points="163.82,-13.5 173.82,-10 163.82,-6.5 163.82,-13.5"/>
</g>
<!-- Node3 -->
<g id="node3" class="node">
<title>Node3</title>
<g id="a_node3"><a xlink:href="platform_8c.html#ab518f1443eb1cdfa46deda54dca8c7fc" target="_top" xlink:title=" ">
<polygon fill="none" stroke="black" points="0,-0.5 0,-19.5 70,-19.5 70,-0.5 0,-0.5"/>
<text text-anchor="middle" x="35" y="-7.5" font-family="Helvetica,sans-Serif" font-size="10.00">init_platform</text>
</a>
</g>
</g>
<!-- Node2&#45;&gt;Node3 -->
<g id="edge2" class="edge">
<title>Node2&#45;&gt;Node3</title>
<path fill="none" stroke="midnightblue" d="M95.62,-10C87.6,-10 78.62,-10 70.1,-10"/>
<polygon fill="midnightblue" stroke="midnightblue" points="95.8,-13.5 105.8,-10 95.8,-6.5 95.8,-13.5"/>
</g>
</g>
</svg>
