<?xml version="1.0" encoding="UTF-8" standalone="no"?>
<!DOCTYPE svg PUBLIC "-//W3C//DTD SVG 1.1//EN"
 "http://www.w3.org/Graphics/SVG/1.1/DTD/svg11.dtd">
<!-- Generated by graphviz version 2.50.0 (20220203.2022)
 -->
<!-- Title: lapicw Pages: 1 -->
<svg width="1044pt" height="208pt"
 viewBox="0.00 0.00 1044.00 208.00" xmlns="http://www.w3.org/2000/svg" xmlns:xlink="http://www.w3.org/1999/xlink">
<g id="graph0" class="graph" transform="scale(1 1) rotate(0) translate(4 204)">
<title>lapicw</title>
<!-- Node1 -->
<g id="node1" class="node">
<title>Node1</title>
<g id="a_node1"><a xlink:title=" ">
<polygon fill="#bfbfbf" stroke="black" points="992,-38.5 992,-57.5 1036,-57.5 1036,-38.5 992,-38.5"/>
<text text-anchor="middle" x="1014" y="-45.5" font-family="Helvetica,sans-Serif" font-size="10.00">lapicw</text>
</a>
</g>
</g>
<!-- Node2 -->
<g id="node2" class="node">
<title>Node2</title>
<g id="a_node2"><a xlink:href="x86_2qemu_2ioe_8c.html#a88a238fee7cd006afa69ea97e4914a09" target="_top" xlink:title=" ">
<polygon fill="none" stroke="black" points="849,-76.5 849,-95.5 950,-95.5 950,-76.5 849,-76.5"/>
<text text-anchor="middle" x="899.5" y="-83.5" font-family="Helvetica,sans-Serif" font-size="10.00">__am_lapic_bootap</text>
</a>
</g>
</g>
<!-- Node1&#45;&gt;Node2 -->
<g id="edge1" class="edge">
<title>Node1&#45;&gt;Node2</title>
<path fill="none" stroke="midnightblue" d="M982.03,-58.46C965.38,-64.08 945.01,-70.97 928.79,-76.44"/>
<polygon fill="midnightblue" stroke="midnightblue" points="983.49,-61.66 991.84,-55.15 981.25,-55.03 983.49,-61.66"/>
</g>
<!-- Node14 -->
<g id="node14" class="node">
<title>Node14</title>
<g id="a_node14"><a xlink:href="x86_2qemu_2ioe_8c.html#ab782c68363d0f254ba753ff69de0ce3f" target="_top" xlink:title=" ">
<polygon fill="none" stroke="black" points="857.5,-38.5 857.5,-57.5 941.5,-57.5 941.5,-38.5 857.5,-38.5"/>
<text text-anchor="middle" x="899.5" y="-45.5" font-family="Helvetica,sans-Serif" font-size="10.00">__am_lapic_eoi</text>
</a>
</g>
</g>
<!-- Node1&#45;&gt;Node14 -->
<g id="edge14" class="edge">
<title>Node1&#45;&gt;Node14</title>
<path fill="none" stroke="midnightblue" d="M981.56,-48C969.18,-48 954.8,-48 941.62,-48"/>
<polygon fill="midnightblue" stroke="midnightblue" points="981.84,-51.5 991.84,-48 981.84,-44.5 981.84,-51.5"/>
</g>
<!-- Node16 -->
<g id="node16" class="node">
<title>Node16</title>
<g id="a_node16"><a xlink:href="x86_2qemu_2ioe_8c.html#afd452a54c6657d504fdbc70af4adb9cf" target="_top" xlink:title=" ">
<polygon fill="none" stroke="black" points="843,-0.5 843,-19.5 956,-19.5 956,-0.5 843,-0.5"/>
<text text-anchor="middle" x="899.5" y="-7.5" font-family="Helvetica,sans-Serif" font-size="10.00">__am_percpu_initlapic</text>
</a>
</g>
</g>
<!-- Node1&#45;&gt;Node16 -->
<g id="edge16" class="edge">
<title>Node1&#45;&gt;Node16</title>
<path fill="none" stroke="midnightblue" d="M982.03,-37.54C965.38,-31.92 945.01,-25.03 928.79,-19.56"/>
<polygon fill="midnightblue" stroke="midnightblue" points="981.25,-40.97 991.84,-40.85 983.49,-34.34 981.25,-40.97"/>
</g>
<!-- Node3 -->
<g id="node3" class="node">
<title>Node3</title>
<g id="a_node3"><a xlink:href="x86_2qemu_2mpe_8c.html#a0a540532023afb1f31b6f21ce053483b" target="_top" xlink:title=" ">
<polygon fill="none" stroke="black" points="695,-114.5 695,-133.5 807,-133.5 807,-114.5 695,-114.5"/>
<text text-anchor="middle" x="751" y="-121.5" font-family="Helvetica,sans-Serif" font-size="10.00">__am_stop_the_world</text>
</a>
</g>
</g>
<!-- Node2&#45;&gt;Node3 -->
<g id="edge2" class="edge">
<title>Node2&#45;&gt;Node3</title>
<path fill="none" stroke="midnightblue" d="M851.8,-98.11C831.4,-103.4 807.82,-109.52 788.7,-114.48"/>
<polygon fill="midnightblue" stroke="midnightblue" points="852.73,-101.49 861.53,-95.59 850.97,-94.71 852.73,-101.49"/>
</g>
<!-- Node11 -->
<g id="node11" class="node">
<title>Node11</title>
<g id="a_node11"><a xlink:href="x86_2qemu_2mpe_8c.html#a2e4a724e2d067425ff3fd49bc0bf42e1" target="_top" xlink:title=" ">
<polygon fill="none" stroke="black" points="92,-95.5 92,-114.5 145,-114.5 145,-95.5 92,-95.5"/>
<text text-anchor="middle" x="118.5" y="-102.5" font-family="Helvetica,sans-Serif" font-size="10.00">mpe_init</text>
</a>
</g>
</g>
<!-- Node2&#45;&gt;Node11 -->
<g id="edge13" class="edge">
<title>Node2&#45;&gt;Node11</title>
<path fill="none" stroke="midnightblue" d="M838.79,-86C780.64,-86 689.75,-86 611,-86 611,-86 611,-86 335.5,-86 266.42,-86 185.39,-95.76 145.04,-101.29"/>
<polygon fill="midnightblue" stroke="midnightblue" points="838.9,-89.5 848.9,-86 838.9,-82.5 838.9,-89.5"/>
</g>
<!-- Node4 -->
<g id="node4" class="node">
<title>Node4</title>
<g id="a_node4"><a xlink:href="x86_2qemu_2trm_8c.html#a483cb97188e557c3c68d3a1572c2cc92" target="_top" xlink:title=" ">
<polygon fill="none" stroke="black" points="594,-114.5 594,-133.5 626,-133.5 626,-114.5 594,-114.5"/>
<text text-anchor="middle" x="610" y="-121.5" font-family="Helvetica,sans-Serif" font-size="10.00">halt</text>
</a>
</g>
</g>
<!-- Node3&#45;&gt;Node4 -->
<g id="edge3" class="edge">
<title>Node3&#45;&gt;Node4</title>
<path fill="none" stroke="midnightblue" d="M684.37,-124C662.56,-124 640.23,-124 626.03,-124"/>
<polygon fill="midnightblue" stroke="midnightblue" points="684.66,-127.5 694.66,-124 684.66,-120.5 684.66,-127.5"/>
</g>
<!-- Node5 -->
<g id="node5" class="node">
<title>Node5</title>
<g id="a_node5"><a xlink:href="input_8c.html#a77413c19d2c314aba317257b3cafb1c7" target="_top" xlink:title=" ">
<polygon fill="none" stroke="black" points="433.5,-152.5 433.5,-171.5 506.5,-171.5 506.5,-152.5 433.5,-152.5"/>
<text text-anchor="middle" x="470" y="-159.5" font-family="Helvetica,sans-Serif" font-size="10.00">event_thread</text>
</a>
</g>
</g>
<!-- Node4&#45;&gt;Node5 -->
<g id="edge4" class="edge">
<title>Node4&#45;&gt;Node5</title>
<path fill="none" stroke="midnightblue" d="M584.12,-130.85C562.23,-136.88 530.14,-145.71 505.73,-152.44"/>
<polygon fill="midnightblue" stroke="midnightblue" points="585.26,-134.17 593.97,-128.14 583.4,-127.42 585.26,-134.17"/>
</g>
<!-- Node13 -->
<g id="node13" class="node">
<title>Node13</title>
<g id="a_node13"><a xlink:href="platform_8c.html#ab518f1443eb1cdfa46deda54dca8c7fc" target="_top" xlink:title=" ">
<polygon fill="none" stroke="black" points="435,-114.5 435,-133.5 505,-133.5 505,-114.5 435,-114.5"/>
<text text-anchor="middle" x="470" y="-121.5" font-family="Helvetica,sans-Serif" font-size="10.00">init_platform</text>
</a>
</g>
</g>
<!-- Node4&#45;&gt;Node13 -->
<g id="edge12" class="edge">
<title>Node4&#45;&gt;Node13</title>
<path fill="none" stroke="midnightblue" d="M583.75,-124C561.7,-124 529.51,-124 505.16,-124"/>
<polygon fill="midnightblue" stroke="midnightblue" points="583.97,-127.5 593.97,-124 583.97,-120.5 583.97,-127.5"/>
</g>
<!-- Node6 -->
<g id="node6" class="node">
<title>Node6</title>
<g id="a_node6"><a xlink:href="input_8c.html#a02d166c8d2549e580fd16379de9e80f1" target="_top" xlink:title=" ">
<polygon fill="none" stroke="black" points="294,-149.5 294,-168.5 379,-168.5 379,-149.5 294,-149.5"/>
<text text-anchor="middle" x="336.5" y="-156.5" font-family="Helvetica,sans-Serif" font-size="10.00">__am_input_init</text>
</a>
</g>
</g>
<!-- Node5&#45;&gt;Node6 -->
<g id="edge5" class="edge">
<title>Node5&#45;&gt;Node6</title>
<path fill="none" stroke="midnightblue" d="M423.27,-160.96C408.94,-160.63 393.21,-160.27 379.18,-159.95"/>
<polygon fill="midnightblue" stroke="midnightblue" points="423.34,-164.46 433.41,-161.19 423.5,-157.46 423.34,-164.46"/>
</g>
<!-- Node7 -->
<g id="node7" class="node">
<title>Node7</title>
<g id="a_node7"><a xlink:href="native_2ioe_8c.html#a85e8849eae1811aa4fa0527476f39782" target="_top" xlink:title=" ">
<polygon fill="none" stroke="black" points="181,-147.5 181,-166.5 258,-166.5 258,-147.5 181,-147.5"/>
<text text-anchor="middle" x="219.5" y="-154.5" font-family="Helvetica,sans-Serif" font-size="10.00">__am_ioe_init</text>
</a>
</g>
</g>
<!-- Node6&#45;&gt;Node7 -->
<g id="edge6" class="edge">
<title>Node6&#45;&gt;Node7</title>
<path fill="none" stroke="midnightblue" d="M283.92,-158.1C275.24,-157.95 266.38,-157.8 258.14,-157.65"/>
<polygon fill="midnightblue" stroke="midnightblue" points="283.92,-161.6 293.98,-158.28 284.04,-154.6 283.92,-161.6"/>
</g>
<!-- Node8 -->
<g id="node8" class="node">
<title>Node8</title>
<g id="a_node8"><a xlink:href="native_2ioe_8c.html#ac7243d0dd8589da2317ee06ee132c2f0" target="_top" xlink:title=" ">
<polygon fill="none" stroke="black" points="98.5,-147.5 98.5,-166.5 138.5,-166.5 138.5,-147.5 98.5,-147.5"/>
<text text-anchor="middle" x="118.5" y="-154.5" font-family="Helvetica,sans-Serif" font-size="10.00">do_io</text>
</a>
</g>
</g>
<!-- Node7&#45;&gt;Node8 -->
<g id="edge7" class="edge">
<title>Node7&#45;&gt;Node8</title>
<path fill="none" stroke="midnightblue" d="M170.48,-157C159.15,-157 147.72,-157 138.56,-157"/>
<polygon fill="midnightblue" stroke="midnightblue" points="170.79,-160.5 180.79,-157 170.79,-153.5 170.79,-160.5"/>
</g>
<!-- Node7&#45;&gt;Node11 -->
<g id="edge10" class="edge">
<title>Node7&#45;&gt;Node11</title>
<path fill="none" stroke="midnightblue" d="M191.42,-142.78C174.41,-133.84 152.92,-122.55 137.88,-114.65"/>
<polygon fill="midnightblue" stroke="midnightblue" points="189.86,-145.91 200.34,-147.46 193.12,-139.71 189.86,-145.91"/>
</g>
<!-- Node9 -->
<g id="node9" class="node">
<title>Node9</title>
<g id="a_node9"><a xlink:href="x86_2qemu_2ioe_8c.html#a9e4d8844a1b291f3594ac00297a918a4" target="_top" xlink:title=" ">
<polygon fill="none" stroke="black" points="1.5,-180.5 1.5,-199.5 54.5,-199.5 54.5,-180.5 1.5,-180.5"/>
<text text-anchor="middle" x="28" y="-187.5" font-family="Helvetica,sans-Serif" font-size="10.00">ioe_read</text>
</a>
</g>
</g>
<!-- Node8&#45;&gt;Node9 -->
<g id="edge8" class="edge">
<title>Node8&#45;&gt;Node9</title>
<path fill="none" stroke="midnightblue" d="M88.69,-167.74C77.69,-171.84 65.23,-176.49 54.55,-180.47"/>
<polygon fill="midnightblue" stroke="midnightblue" points="90.15,-170.93 98.3,-164.16 87.7,-164.37 90.15,-170.93"/>
</g>
<!-- Node10 -->
<g id="node10" class="node">
<title>Node10</title>
<g id="a_node10"><a xlink:href="x86_2qemu_2ioe_8c.html#ad1964375eeefa10b564a3bf2bd322db0" target="_top" xlink:title=" ">
<polygon fill="none" stroke="black" points="0,-142.5 0,-161.5 56,-161.5 56,-142.5 0,-142.5"/>
<text text-anchor="middle" x="28" y="-149.5" font-family="Helvetica,sans-Serif" font-size="10.00">ioe_write</text>
</a>
</g>
</g>
<!-- Node8&#45;&gt;Node10 -->
<g id="edge9" class="edge">
<title>Node8&#45;&gt;Node10</title>
<path fill="none" stroke="midnightblue" d="M88.12,-155.34C77.83,-154.76 66.33,-154.11 56.22,-153.54"/>
<polygon fill="midnightblue" stroke="midnightblue" points="88.12,-158.85 98.3,-155.92 88.51,-151.86 88.12,-158.85"/>
</g>
<!-- Node12 -->
<g id="node12" class="node">
<title>Node12</title>
<g id="a_node12"><a xlink:href="kernel_2framework_2main_8c.html#ae66f6b31b5ad750f1fe042a706a4e3d4" target="_top" xlink:title=" ">
<polygon fill="none" stroke="black" points="9,-95.5 9,-114.5 47,-114.5 47,-95.5 9,-95.5"/>
<text text-anchor="middle" x="28" y="-102.5" font-family="Helvetica,sans-Serif" font-size="10.00">main</text>
</a>
</g>
</g>
<!-- Node11&#45;&gt;Node12 -->
<g id="edge11" class="edge">
<title>Node11&#45;&gt;Node12</title>
<path fill="none" stroke="midnightblue" d="M81.79,-105C69.93,-105 57.21,-105 47.24,-105"/>
<polygon fill="midnightblue" stroke="midnightblue" points="81.9,-108.5 91.9,-105 81.9,-101.5 81.9,-108.5"/>
</g>
<!-- Node15 -->
<g id="node15" class="node">
<title>Node15</title>
<g id="a_node15"><a xlink:href="x86_2qemu_2cte_8c.html#a10a4e011ab7b1f7e628c8b1f6b638067" target="_top" xlink:title=" ">
<polygon fill="none" stroke="black" points="706,-38.5 706,-57.5 796,-57.5 796,-38.5 706,-38.5"/>
<text text-anchor="middle" x="751" y="-45.5" font-family="Helvetica,sans-Serif" font-size="10.00">__am_irq_handle</text>
</a>
</g>
</g>
<!-- Node14&#45;&gt;Node15 -->
<g id="edge15" class="edge">
<title>Node14&#45;&gt;Node15</title>
<path fill="none" stroke="midnightblue" d="M847.2,-48C830.57,-48 812.28,-48 796.22,-48"/>
<polygon fill="midnightblue" stroke="midnightblue" points="847.3,-51.5 857.3,-48 847.3,-44.5 847.3,-51.5"/>
</g>
<!-- Node17 -->
<g id="node17" class="node">
<title>Node17</title>
<g id="a_node17"><a xlink:href="x86_2qemu_2trm_8c.html#abac650c2a0dd8b7f13349871fd6ab6ee" target="_top" xlink:title=" ">
<polygon fill="none" stroke="black" points="704.5,-0.5 704.5,-19.5 797.5,-19.5 797.5,-0.5 704.5,-0.5"/>
<text text-anchor="middle" x="751" y="-7.5" font-family="Helvetica,sans-Serif" font-size="10.00">__am_percpu_init</text>
</a>
</g>
</g>
<!-- Node16&#45;&gt;Node17 -->
<g id="edge17" class="edge">
<title>Node16&#45;&gt;Node17</title>
<path fill="none" stroke="midnightblue" d="M832.46,-10C820.7,-10 808.69,-10 797.66,-10"/>
<polygon fill="midnightblue" stroke="midnightblue" points="832.7,-13.5 842.7,-10 832.7,-6.5 832.7,-13.5"/>
</g>
<!-- Node18 -->
<g id="node18" class="node">
<title>Node18</title>
<g id="a_node18"><a xlink:href="x86_2qemu_2trm_8c.html#a75e130ff99ad31f9a1df206b5ff8252a" target="_top" xlink:title=" ">
<polygon fill="none" stroke="black" points="561,-38.5 561,-57.5 659,-57.5 659,-38.5 561,-38.5"/>
<text text-anchor="middle" x="610" y="-45.5" font-family="Helvetica,sans-Serif" font-size="10.00">__am_bootcpu_init</text>
</a>
</g>
</g>
<!-- Node17&#45;&gt;Node18 -->
<g id="edge18" class="edge">
<title>Node17&#45;&gt;Node18</title>
<path fill="none" stroke="midnightblue" d="M705.2,-22.25C686.05,-27.48 664.01,-33.51 646.06,-38.41"/>
<polygon fill="midnightblue" stroke="midnightblue" points="706.2,-25.6 714.92,-19.59 704.36,-18.85 706.2,-25.6"/>
</g>
<!-- Node20 -->
<g id="node20" class="node">
<title>Node20</title>
<g id="a_node20"><a xlink:href="x86_2qemu_2mpe_8c.html#aec8f7f25be4263648b704092672a566b" target="_top" xlink:title=" ">
<polygon fill="none" stroke="black" points="570,-0.5 570,-19.5 650,-19.5 650,-0.5 570,-0.5"/>
<text text-anchor="middle" x="610" y="-7.5" font-family="Helvetica,sans-Serif" font-size="10.00">othercpu_entry</text>
</a>
</g>
</g>
<!-- Node17&#45;&gt;Node20 -->
<g id="edge20" class="edge">
<title>Node17&#45;&gt;Node20</title>
<path fill="none" stroke="midnightblue" d="M694.39,-10C679.55,-10 663.83,-10 650.08,-10"/>
<polygon fill="midnightblue" stroke="midnightblue" points="694.49,-13.5 704.49,-10 694.49,-6.5 694.49,-13.5"/>
</g>
<!-- Node19 -->
<g id="node19" class="node">
<title>Node19</title>
<g id="a_node19"><a xlink:href="x86_2qemu_2trm_8c.html#a54a85aeee6f6a8ef875d4cca663f9fd8" target="_top" xlink:title=" ">
<polygon fill="none" stroke="black" points="310.5,-19.5 310.5,-38.5 362.5,-38.5 362.5,-19.5 310.5,-19.5"/>
<text text-anchor="middle" x="336.5" y="-26.5" font-family="Helvetica,sans-Serif" font-size="10.00">_start_c</text>
</a>
</g>
</g>
<!-- Node18&#45;&gt;Node19 -->
<g id="edge19" class="edge">
<title>Node18&#45;&gt;Node19</title>
<path fill="none" stroke="midnightblue" d="M550.59,-43.91C492.27,-39.83 405.37,-33.75 362.82,-30.77"/>
<polygon fill="midnightblue" stroke="midnightblue" points="550.55,-47.42 560.77,-44.63 551.04,-40.44 550.55,-47.42"/>
</g>
<!-- Node21 -->
<g id="node21" class="node">
<title>Node21</title>
<g id="a_node21"><a xlink:href="x86_2qemu_2mpe_8c.html#af9524b1c09898b69d9980310682a8bea" target="_top" xlink:title=" ">
<polygon fill="none" stroke="black" points="415,-0.5 415,-19.5 525,-19.5 525,-0.5 415,-0.5"/>
<text text-anchor="middle" x="470" y="-7.5" font-family="Helvetica,sans-Serif" font-size="10.00">__am_othercpu_entry</text>
</a>
</g>
</g>
<!-- Node20&#45;&gt;Node21 -->
<g id="edge21" class="edge">
<title>Node20&#45;&gt;Node21</title>
<path fill="none" stroke="midnightblue" d="M559.79,-10C548.58,-10 536.61,-10 525.21,-10"/>
<polygon fill="midnightblue" stroke="midnightblue" points="559.82,-13.5 569.82,-10 559.82,-6.5 559.82,-13.5"/>
</g>
<!-- Node21&#45;&gt;Node19 -->
<g id="edge22" class="edge">
<title>Node21&#45;&gt;Node19</title>
<path fill="none" stroke="midnightblue" d="M404.48,-19.32C389.56,-21.48 374.56,-23.65 362.54,-25.38"/>
<polygon fill="midnightblue" stroke="midnightblue" points="405.36,-22.73 414.75,-17.84 404.36,-15.8 405.36,-22.73"/>
</g>
</g>
</svg>
