<?xml version="1.0" encoding="UTF-8" standalone="no"?>
<!DOCTYPE svg PUBLIC "-//W3C//DTD SVG 1.1//EN"
 "http://www.w3.org/Graphics/SVG/1.1/DTD/svg11.dtd">
<!-- Generated by graphviz version 2.50.0 (20220203.2022)
 -->
<!-- Title: boot_record Pages: 1 -->
<svg width="816pt" height="208pt"
 viewBox="0.00 0.00 816.00 208.00" xmlns="http://www.w3.org/2000/svg" xmlns:xlink="http://www.w3.org/1999/xlink">
<g id="graph0" class="graph" transform="scale(1 1) rotate(0) translate(4 204)">
<title>boot_record</title>
<!-- Node1 -->
<g id="node1" class="node">
<title>Node1</title>
<g id="a_node1"><a xlink:title=" ">
<polygon fill="#bfbfbf" stroke="black" points="740,-57.5 740,-76.5 808,-76.5 808,-57.5 740,-57.5"/>
<text text-anchor="middle" x="774" y="-64.5" font-family="Helvetica,sans-Serif" font-size="10.00">boot_record</text>
</a>
</g>
</g>
<!-- Node2 -->
<g id="node2" class="node">
<title>Node2</title>
<g id="a_node2"><a xlink:href="x86_2qemu_2mpe_8c.html#a0a540532023afb1f31b6f21ce053483b" target="_top" xlink:title=" ">
<polygon fill="none" stroke="black" points="592,-114.5 592,-133.5 704,-133.5 704,-114.5 592,-114.5"/>
<text text-anchor="middle" x="648" y="-121.5" font-family="Helvetica,sans-Serif" font-size="10.00">__am_stop_the_world</text>
</a>
</g>
</g>
<!-- Node1&#45;&gt;Node2 -->
<g id="edge1" class="edge">
<title>Node1&#45;&gt;Node2</title>
<path fill="none" stroke="midnightblue" d="M744.13,-81.08C731.81,-87.02 717.25,-93.94 704,-100 693.29,-104.89 681.32,-110.14 671.29,-114.48"/>
<polygon fill="midnightblue" stroke="midnightblue" points="745.98,-84.08 753.46,-76.57 742.93,-77.77 745.98,-84.08"/>
</g>
<!-- Node10 -->
<g id="node10" class="node">
<title>Node10</title>
<g id="a_node10"><a xlink:href="x86_2qemu_2mpe_8c.html#a2e4a724e2d067425ff3fd49bc0bf42e1" target="_top" xlink:title=" ">
<polygon fill="none" stroke="black" points="92,-95.5 92,-114.5 145,-114.5 145,-95.5 92,-95.5"/>
<text text-anchor="middle" x="118.5" y="-102.5" font-family="Helvetica,sans-Serif" font-size="10.00">mpe_init</text>
</a>
</g>
</g>
<!-- Node1&#45;&gt;Node10 -->
<g id="edge14" class="edge">
<title>Node1&#45;&gt;Node10</title>
<path fill="none" stroke="midnightblue" d="M729.61,-72.68C683.07,-78.28 606.94,-86 541,-86 541,-86 541,-86 335.5,-86 266.42,-86 185.39,-95.76 145.04,-101.29"/>
<polygon fill="midnightblue" stroke="midnightblue" points="730.15,-76.14 739.65,-71.45 729.29,-69.2 730.15,-76.14"/>
</g>
<!-- Node13 -->
<g id="node13" class="node">
<title>Node13</title>
<g id="a_node13"><a xlink:href="x86_2qemu_2trm_8c.html#a54a85aeee6f6a8ef875d4cca663f9fd8" target="_top" xlink:title=" ">
<polygon fill="none" stroke="black" points="622,-38.5 622,-57.5 674,-57.5 674,-38.5 622,-38.5"/>
<text text-anchor="middle" x="648" y="-45.5" font-family="Helvetica,sans-Serif" font-size="10.00">_start_c</text>
</a>
</g>
</g>
<!-- Node1&#45;&gt;Node13 -->
<g id="edge12" class="edge">
<title>Node1&#45;&gt;Node13</title>
<path fill="none" stroke="midnightblue" d="M729.73,-60.37C711.12,-57.52 690.02,-54.28 674.06,-51.84"/>
<polygon fill="midnightblue" stroke="midnightblue" points="729.36,-63.85 739.77,-61.91 730.42,-56.93 729.36,-63.85"/>
</g>
<!-- Node14 -->
<g id="node14" class="node">
<title>Node14</title>
<g id="a_node14"><a xlink:href="abstract-machine_2am_2src_2x86_2qemu_2boot_2main_8c.html#a1799aa2202da76699182c2c1654510bb" target="_top" xlink:title=" ">
<polygon fill="none" stroke="black" points="615,-0.5 615,-19.5 681,-19.5 681,-0.5 615,-0.5"/>
<text text-anchor="middle" x="648" y="-7.5" font-family="Helvetica,sans-Serif" font-size="10.00">load_kernel</text>
</a>
</g>
</g>
<!-- Node1&#45;&gt;Node14 -->
<g id="edge13" class="edge">
<title>Node1&#45;&gt;Node14</title>
<path fill="none" stroke="midnightblue" d="M748.71,-52.29C735.72,-44.77 719.29,-35.79 704,-29 696.24,-25.56 687.66,-22.33 679.62,-19.54"/>
<polygon fill="midnightblue" stroke="midnightblue" points="747.1,-55.4 757.5,-57.46 750.65,-49.37 747.1,-55.4"/>
</g>
<!-- Node3 -->
<g id="node3" class="node">
<title>Node3</title>
<g id="a_node3"><a xlink:href="x86_2qemu_2trm_8c.html#a483cb97188e557c3c68d3a1572c2cc92" target="_top" xlink:title=" ">
<polygon fill="none" stroke="black" points="524,-114.5 524,-133.5 556,-133.5 556,-114.5 524,-114.5"/>
<text text-anchor="middle" x="540" y="-121.5" font-family="Helvetica,sans-Serif" font-size="10.00">halt</text>
</a>
</g>
</g>
<!-- Node2&#45;&gt;Node3 -->
<g id="edge2" class="edge">
<title>Node2&#45;&gt;Node3</title>
<path fill="none" stroke="midnightblue" d="M581.8,-124C572.32,-124 563.39,-124 556.31,-124"/>
<polygon fill="midnightblue" stroke="midnightblue" points="581.83,-127.5 591.83,-124 581.83,-120.5 581.83,-127.5"/>
</g>
<!-- Node4 -->
<g id="node4" class="node">
<title>Node4</title>
<g id="a_node4"><a xlink:href="input_8c.html#a77413c19d2c314aba317257b3cafb1c7" target="_top" xlink:title=" ">
<polygon fill="none" stroke="black" points="415,-152.5 415,-171.5 488,-171.5 488,-152.5 415,-152.5"/>
<text text-anchor="middle" x="451.5" y="-159.5" font-family="Helvetica,sans-Serif" font-size="10.00">event_thread</text>
</a>
</g>
</g>
<!-- Node3&#45;&gt;Node4 -->
<g id="edge3" class="edge">
<title>Node3&#45;&gt;Node4</title>
<path fill="none" stroke="midnightblue" d="M514.45,-134.79C501.77,-140.36 486.44,-147.09 474.2,-152.47"/>
<polygon fill="midnightblue" stroke="midnightblue" points="516.19,-137.85 523.93,-130.62 513.37,-131.44 516.19,-137.85"/>
</g>
<!-- Node12 -->
<g id="node12" class="node">
<title>Node12</title>
<g id="a_node12"><a xlink:href="platform_8c.html#ab518f1443eb1cdfa46deda54dca8c7fc" target="_top" xlink:title=" ">
<polygon fill="none" stroke="black" points="416.5,-114.5 416.5,-133.5 486.5,-133.5 486.5,-114.5 416.5,-114.5"/>
<text text-anchor="middle" x="451.5" y="-121.5" font-family="Helvetica,sans-Serif" font-size="10.00">init_platform</text>
</a>
</g>
</g>
<!-- Node3&#45;&gt;Node12 -->
<g id="edge11" class="edge">
<title>Node3&#45;&gt;Node12</title>
<path fill="none" stroke="midnightblue" d="M513.93,-124C505.45,-124 495.83,-124 486.76,-124"/>
<polygon fill="midnightblue" stroke="midnightblue" points="513.93,-127.5 523.93,-124 513.93,-120.5 513.93,-127.5"/>
</g>
<!-- Node5 -->
<g id="node5" class="node">
<title>Node5</title>
<g id="a_node5"><a xlink:href="input_8c.html#a02d166c8d2549e580fd16379de9e80f1" target="_top" xlink:title=" ">
<polygon fill="none" stroke="black" points="294,-149.5 294,-168.5 379,-168.5 379,-149.5 294,-149.5"/>
<text text-anchor="middle" x="336.5" y="-156.5" font-family="Helvetica,sans-Serif" font-size="10.00">__am_input_init</text>
</a>
</g>
</g>
<!-- Node4&#45;&gt;Node5 -->
<g id="edge4" class="edge">
<title>Node4&#45;&gt;Node5</title>
<path fill="none" stroke="midnightblue" d="M404.72,-160.78C396.33,-160.56 387.61,-160.33 379.34,-160.11"/>
<polygon fill="midnightblue" stroke="midnightblue" points="404.66,-164.28 414.75,-161.05 404.84,-157.29 404.66,-164.28"/>
</g>
<!-- Node6 -->
<g id="node6" class="node">
<title>Node6</title>
<g id="a_node6"><a xlink:href="native_2ioe_8c.html#a85e8849eae1811aa4fa0527476f39782" target="_top" xlink:title=" ">
<polygon fill="none" stroke="black" points="181,-147.5 181,-166.5 258,-166.5 258,-147.5 181,-147.5"/>
<text text-anchor="middle" x="219.5" y="-154.5" font-family="Helvetica,sans-Serif" font-size="10.00">__am_ioe_init</text>
</a>
</g>
</g>
<!-- Node5&#45;&gt;Node6 -->
<g id="edge5" class="edge">
<title>Node5&#45;&gt;Node6</title>
<path fill="none" stroke="midnightblue" d="M283.92,-158.1C275.24,-157.95 266.38,-157.8 258.14,-157.65"/>
<polygon fill="midnightblue" stroke="midnightblue" points="283.92,-161.6 293.98,-158.28 284.04,-154.6 283.92,-161.6"/>
</g>
<!-- Node7 -->
<g id="node7" class="node">
<title>Node7</title>
<g id="a_node7"><a xlink:href="native_2ioe_8c.html#ac7243d0dd8589da2317ee06ee132c2f0" target="_top" xlink:title=" ">
<polygon fill="none" stroke="black" points="98.5,-147.5 98.5,-166.5 138.5,-166.5 138.5,-147.5 98.5,-147.5"/>
<text text-anchor="middle" x="118.5" y="-154.5" font-family="Helvetica,sans-Serif" font-size="10.00">do_io</text>
</a>
</g>
</g>
<!-- Node6&#45;&gt;Node7 -->
<g id="edge6" class="edge">
<title>Node6&#45;&gt;Node7</title>
<path fill="none" stroke="midnightblue" d="M170.48,-157C159.15,-157 147.72,-157 138.56,-157"/>
<polygon fill="midnightblue" stroke="midnightblue" points="170.79,-160.5 180.79,-157 170.79,-153.5 170.79,-160.5"/>
</g>
<!-- Node6&#45;&gt;Node10 -->
<g id="edge9" class="edge">
<title>Node6&#45;&gt;Node10</title>
<path fill="none" stroke="midnightblue" d="M191.42,-142.78C174.41,-133.84 152.92,-122.55 137.88,-114.65"/>
<polygon fill="midnightblue" stroke="midnightblue" points="189.86,-145.91 200.34,-147.46 193.12,-139.71 189.86,-145.91"/>
</g>
<!-- Node8 -->
<g id="node8" class="node">
<title>Node8</title>
<g id="a_node8"><a xlink:href="x86_2qemu_2ioe_8c.html#a9e4d8844a1b291f3594ac00297a918a4" target="_top" xlink:title=" ">
<polygon fill="none" stroke="black" points="1.5,-180.5 1.5,-199.5 54.5,-199.5 54.5,-180.5 1.5,-180.5"/>
<text text-anchor="middle" x="28" y="-187.5" font-family="Helvetica,sans-Serif" font-size="10.00">ioe_read</text>
</a>
</g>
</g>
<!-- Node7&#45;&gt;Node8 -->
<g id="edge7" class="edge">
<title>Node7&#45;&gt;Node8</title>
<path fill="none" stroke="midnightblue" d="M88.69,-167.74C77.69,-171.84 65.23,-176.49 54.55,-180.47"/>
<polygon fill="midnightblue" stroke="midnightblue" points="90.15,-170.93 98.3,-164.16 87.7,-164.37 90.15,-170.93"/>
</g>
<!-- Node9 -->
<g id="node9" class="node">
<title>Node9</title>
<g id="a_node9"><a xlink:href="x86_2qemu_2ioe_8c.html#ad1964375eeefa10b564a3bf2bd322db0" target="_top" xlink:title=" ">
<polygon fill="none" stroke="black" points="0,-142.5 0,-161.5 56,-161.5 56,-142.5 0,-142.5"/>
<text text-anchor="middle" x="28" y="-149.5" font-family="Helvetica,sans-Serif" font-size="10.00">ioe_write</text>
</a>
</g>
</g>
<!-- Node7&#45;&gt;Node9 -->
<g id="edge8" class="edge">
<title>Node7&#45;&gt;Node9</title>
<path fill="none" stroke="midnightblue" d="M88.12,-155.34C77.83,-154.76 66.33,-154.11 56.22,-153.54"/>
<polygon fill="midnightblue" stroke="midnightblue" points="88.12,-158.85 98.3,-155.92 88.51,-151.86 88.12,-158.85"/>
</g>
<!-- Node11 -->
<g id="node11" class="node">
<title>Node11</title>
<g id="a_node11"><a xlink:href="kernel_2framework_2main_8c.html#ae66f6b31b5ad750f1fe042a706a4e3d4" target="_top" xlink:title=" ">
<polygon fill="none" stroke="black" points="9,-95.5 9,-114.5 47,-114.5 47,-95.5 9,-95.5"/>
<text text-anchor="middle" x="28" y="-102.5" font-family="Helvetica,sans-Serif" font-size="10.00">main</text>
</a>
</g>
</g>
<!-- Node10&#45;&gt;Node11 -->
<g id="edge10" class="edge">
<title>Node10&#45;&gt;Node11</title>
<path fill="none" stroke="midnightblue" d="M81.79,-105C69.93,-105 57.21,-105 47.24,-105"/>
<polygon fill="midnightblue" stroke="midnightblue" points="81.9,-108.5 91.9,-105 81.9,-101.5 81.9,-108.5"/>
</g>
</g>
</svg>
