<?xml version="1.0" encoding="UTF-8" standalone="no"?>
<!DOCTYPE svg PUBLIC "-//W3C//DTD SVG 1.1//EN"
 "http://www.w3.org/Graphics/SVG/1.1/DTD/svg11.dtd">
<!-- Generated by graphviz version 2.50.0 (20220203.2022)
 -->
<!-- Title: xchg Pages: 1 -->
<svg width="395pt" height="104pt"
 viewBox="0.00 0.00 395.00 104.00" xmlns="http://www.w3.org/2000/svg" xmlns:xlink="http://www.w3.org/1999/xlink">
<g id="graph0" class="graph" transform="scale(1 1) rotate(0) translate(4 100)">
<title>xchg</title>
<!-- Node1 -->
<g id="node1" class="node">
<title>Node1</title>
<g id="a_node1"><a xlink:title=" ">
<polygon fill="#bfbfbf" stroke="black" points="350,-38.5 350,-57.5 387,-57.5 387,-38.5 350,-38.5"/>
<text text-anchor="middle" x="368.5" y="-45.5" font-family="Helvetica,sans-Serif" font-size="10.00">xchg</text>
</a>
</g>
</g>
<!-- Node2 -->
<g id="node2" class="node">
<title>Node2</title>
<g id="a_node2"><a xlink:href="mpe_8c.html#aaaad47c97c82065cf463f83b98b23c30" target="_top" xlink:title=" ">
<polygon fill="none" stroke="black" points="238.5,-76.5 238.5,-95.5 309.5,-95.5 309.5,-76.5 238.5,-76.5"/>
<text text-anchor="middle" x="274" y="-83.5" font-family="Helvetica,sans-Serif" font-size="10.00">atomic_xchg</text>
</a>
</g>
</g>
<!-- Node1&#45;&gt;Node2 -->
<g id="edge1" class="edge">
<title>Node1&#45;&gt;Node2</title>
<path fill="none" stroke="midnightblue" d="M340.1,-59.26C326.84,-64.7 311.08,-71.18 298.39,-76.39"/>
<polygon fill="midnightblue" stroke="midnightblue" points="341.75,-62.36 349.67,-55.33 339.09,-55.89 341.75,-62.36"/>
</g>
<!-- Node3 -->
<g id="node3" class="node">
<title>Node3</title>
<g id="a_node3"><a xlink:href="mpe_8c.html#a2e4a724e2d067425ff3fd49bc0bf42e1" target="_top" xlink:title=" ">
<polygon fill="none" stroke="black" points="247.5,-38.5 247.5,-57.5 300.5,-57.5 300.5,-38.5 247.5,-38.5"/>
<text text-anchor="middle" x="274" y="-45.5" font-family="Helvetica,sans-Serif" font-size="10.00">mpe_init</text>
</a>
</g>
</g>
<!-- Node1&#45;&gt;Node3 -->
<g id="edge2" class="edge">
<title>Node1&#45;&gt;Node3</title>
<path fill="none" stroke="midnightblue" d="M339.5,-48C327.2,-48 312.86,-48 300.83,-48"/>
<polygon fill="midnightblue" stroke="midnightblue" points="339.67,-51.5 349.67,-48 339.67,-44.5 339.67,-51.5"/>
</g>
<!-- Node5 -->
<g id="node5" class="node">
<title>Node5</title>
<g id="a_node5"><a xlink:href="mpe_8c.html#aec8f7f25be4263648b704092672a566b" target="_top" xlink:title=" ">
<polygon fill="none" stroke="black" points="234,-0.5 234,-19.5 314,-19.5 314,-0.5 234,-0.5"/>
<text text-anchor="middle" x="274" y="-7.5" font-family="Helvetica,sans-Serif" font-size="10.00">othercpu_entry</text>
</a>
</g>
</g>
<!-- Node1&#45;&gt;Node5 -->
<g id="edge4" class="edge">
<title>Node1&#45;&gt;Node5</title>
<path fill="none" stroke="midnightblue" d="M340.1,-36.74C326.84,-31.3 311.08,-24.82 298.39,-19.61"/>
<polygon fill="midnightblue" stroke="midnightblue" points="339.09,-40.11 349.67,-40.67 341.75,-33.64 339.09,-40.11"/>
</g>
<!-- Node4 -->
<g id="node4" class="node">
<title>Node4</title>
<g id="a_node4"><a xlink:href="main_8c.html#ae66f6b31b5ad750f1fe042a706a4e3d4" target="_top" xlink:title=" ">
<polygon fill="none" stroke="black" points="124,-38.5 124,-57.5 162,-57.5 162,-38.5 124,-38.5"/>
<text text-anchor="middle" x="143" y="-45.5" font-family="Helvetica,sans-Serif" font-size="10.00">main</text>
</a>
</g>
</g>
<!-- Node3&#45;&gt;Node4 -->
<g id="edge3" class="edge">
<title>Node3&#45;&gt;Node4</title>
<path fill="none" stroke="midnightblue" d="M236.92,-48C212.62,-48 181.6,-48 162.26,-48"/>
<polygon fill="midnightblue" stroke="midnightblue" points="237.21,-51.5 247.2,-48 237.2,-44.5 237.21,-51.5"/>
</g>
<!-- Node6 -->
<g id="node6" class="node">
<title>Node6</title>
<g id="a_node6"><a xlink:href="mpe_8c.html#af9524b1c09898b69d9980310682a8bea" target="_top" xlink:title=" ">
<polygon fill="none" stroke="black" points="88,-0.5 88,-19.5 198,-19.5 198,-0.5 88,-0.5"/>
<text text-anchor="middle" x="143" y="-7.5" font-family="Helvetica,sans-Serif" font-size="10.00">__am_othercpu_entry</text>
</a>
</g>
</g>
<!-- Node5&#45;&gt;Node6 -->
<g id="edge5" class="edge">
<title>Node5&#45;&gt;Node6</title>
<path fill="none" stroke="midnightblue" d="M223.9,-10C215.48,-10 206.69,-10 198.15,-10"/>
<polygon fill="midnightblue" stroke="midnightblue" points="223.95,-13.5 233.95,-10 223.95,-6.5 223.95,-13.5"/>
</g>
<!-- Node7 -->
<g id="node7" class="node">
<title>Node7</title>
<g id="a_node7"><a xlink:href="trm_8c.html#a54a85aeee6f6a8ef875d4cca663f9fd8" target="_top" xlink:title=" ">
<polygon fill="none" stroke="black" points="0,-0.5 0,-19.5 52,-19.5 52,-0.5 0,-0.5"/>
<text text-anchor="middle" x="26" y="-7.5" font-family="Helvetica,sans-Serif" font-size="10.00">_start_c</text>
</a>
</g>
</g>
<!-- Node6&#45;&gt;Node7 -->
<g id="edge6" class="edge">
<title>Node6&#45;&gt;Node7</title>
<path fill="none" stroke="midnightblue" d="M77.64,-10C68.63,-10 59.84,-10 52.19,-10"/>
<polygon fill="midnightblue" stroke="midnightblue" points="77.87,-13.5 87.87,-10 77.87,-6.5 77.87,-13.5"/>
</g>
</g>
</svg>
