<?xml version="1.0" encoding="UTF-8" standalone="no"?>
<!DOCTYPE svg PUBLIC "-//W3C//DTD SVG 1.1//EN"
 "http://www.w3.org/Graphics/SVG/1.1/DTD/svg11.dtd">
<!-- Generated by graphviz version 2.50.0 (20220203.2022)
 -->
<!-- Title: rdtsc Pages: 1 -->
<svg width="333pt" height="122pt"
 viewBox="0.00 0.00 333.00 122.00" xmlns="http://www.w3.org/2000/svg" xmlns:xlink="http://www.w3.org/1999/xlink">
<g id="graph0" class="graph" transform="scale(1 1) rotate(0) translate(4 118)">
<title>rdtsc</title>
<!-- Node1 -->
<g id="node1" class="node">
<title>Node1</title>
<g id="a_node1"><a xlink:title=" ">
<polygon fill="#bfbfbf" stroke="black" points="287,-38.5 287,-57.5 325,-57.5 325,-38.5 287,-38.5"/>
<text text-anchor="middle" x="306" y="-45.5" font-family="Helvetica,sans-Serif" font-size="10.00">rdtsc</text>
</a>
</g>
</g>
<!-- Node2 -->
<g id="node2" class="node">
<title>Node2</title>
<g id="a_node2"><a xlink:href="ioe_8c.html#a8f4d57167e8d4b53c00c84e504f330ef" target="_top" xlink:title=" ">
<polygon fill="none" stroke="black" points="175,-76.5 175,-95.5 251,-95.5 251,-76.5 175,-76.5"/>
<text text-anchor="middle" x="213" y="-83.5" font-family="Helvetica,sans-Serif" font-size="10.00">estimate_freq</text>
</a>
</g>
</g>
<!-- Node1&#45;&gt;Node2 -->
<g id="edge1" class="edge">
<title>Node1&#45;&gt;Node2</title>
<path fill="none" stroke="midnightblue" d="M277.24,-59.59C264.33,-64.98 249.16,-71.32 236.91,-76.43"/>
<polygon fill="midnightblue" stroke="midnightblue" points="278.71,-62.77 286.58,-55.69 276.01,-56.31 278.71,-62.77"/>
</g>
<!-- Node3 -->
<g id="node3" class="node">
<title>Node3</title>
<g id="a_node3"><a xlink:href="ioe_8c.html#ac17b85035372c81a45e604e6b4783db2" target="_top" xlink:title=" ">
<polygon fill="none" stroke="black" points="83,-57.5 83,-76.5 139,-76.5 139,-57.5 83,-57.5"/>
<text text-anchor="middle" x="111" y="-64.5" font-family="Helvetica,sans-Serif" font-size="10.00">timer_init</text>
</a>
</g>
</g>
<!-- Node1&#45;&gt;Node3 -->
<g id="edge5" class="edge">
<title>Node1&#45;&gt;Node3</title>
<path fill="none" stroke="midnightblue" d="M276.76,-50.78C239.82,-54.42 175.54,-60.74 139.15,-64.33"/>
<polygon fill="midnightblue" stroke="midnightblue" points="277.23,-54.25 286.84,-49.79 276.55,-47.28 277.23,-54.25"/>
</g>
<!-- Node5 -->
<g id="node5" class="node">
<title>Node5</title>
<g id="a_node5"><a xlink:href="ioe_8c.html#a0c6d0b706112737c1ef52d21ac07eb47" target="_top" xlink:title=" ">
<polygon fill="none" stroke="black" points="176.5,-0.5 176.5,-19.5 249.5,-19.5 249.5,-0.5 176.5,-0.5"/>
<text text-anchor="middle" x="213" y="-7.5" font-family="Helvetica,sans-Serif" font-size="10.00">timer_uptime</text>
</a>
</g>
</g>
<!-- Node1&#45;&gt;Node5 -->
<g id="edge6" class="edge">
<title>Node1&#45;&gt;Node5</title>
<path fill="none" stroke="midnightblue" d="M277.24,-36.41C264.33,-31.02 249.16,-24.68 236.91,-19.57"/>
<polygon fill="midnightblue" stroke="midnightblue" points="276.01,-39.69 286.58,-40.31 278.71,-33.23 276.01,-39.69"/>
</g>
<!-- Node2&#45;&gt;Node2 -->
<g id="edge2" class="edge">
<title>Node2&#45;&gt;Node2</title>
<path fill="none" stroke="midnightblue" d="M230.04,-105.4C228.9,-110.31 223.22,-114 213,-114 196.65,-114 191.92,-104.57 198.82,-95.76"/>
<polygon fill="midnightblue" stroke="midnightblue" points="233.38,-104.35 227.18,-95.76 226.66,-106.34 233.38,-104.35"/>
</g>
<!-- Node2&#45;&gt;Node3 -->
<g id="edge3" class="edge">
<title>Node2&#45;&gt;Node3</title>
<path fill="none" stroke="midnightblue" d="M164.94,-77.06C156.14,-75.39 147.22,-73.69 139.27,-72.18"/>
<polygon fill="midnightblue" stroke="midnightblue" points="164.29,-80.5 174.76,-78.93 165.59,-73.62 164.29,-80.5"/>
</g>
<!-- Node4 -->
<g id="node4" class="node">
<title>Node4</title>
<g id="a_node4"><a xlink:href="ioe_8c.html#a45ecef4130276c1c79d872c582cd3839" target="_top" xlink:title=" ">
<polygon fill="none" stroke="black" points="0,-57.5 0,-76.5 47,-76.5 47,-57.5 0,-57.5"/>
<text text-anchor="middle" x="23.5" y="-64.5" font-family="Helvetica,sans-Serif" font-size="10.00">ioe_init</text>
</a>
</g>
</g>
<!-- Node3&#45;&gt;Node4 -->
<g id="edge4" class="edge">
<title>Node3&#45;&gt;Node4</title>
<path fill="none" stroke="midnightblue" d="M72.88,-67C64.09,-67 54.99,-67 47.08,-67"/>
<polygon fill="midnightblue" stroke="midnightblue" points="72.95,-70.5 82.95,-67 72.95,-63.5 72.95,-70.5"/>
</g>
</g>
</svg>
