<?xml version="1.0" encoding="UTF-8" standalone="no"?>
<!DOCTYPE svg PUBLIC "-//W3C//DTD SVG 1.1//EN"
 "http://www.w3.org/Graphics/SVG/1.1/DTD/svg11.dtd">
<!-- Generated by graphviz version 3.0.0 (20220413.0106)
 -->
<!-- Title: xchg Pages: 1 -->
<svg width="815pt" height="484pt"
 viewBox="0.00 0.00 815.00 484.00" xmlns="http://www.w3.org/2000/svg" xmlns:xlink="http://www.w3.org/1999/xlink">
<g id="graph0" class="graph" transform="scale(1 1) rotate(0) translate(4 480)">
<title>xchg</title>
<!-- Node1 -->
<g id="node1" class="node">
<title>Node1</title>
<g id="a_node1"><a xlink:title=" ">
<polygon fill="#bfbfbf" stroke="black" points="770,-171.5 770,-190.5 807,-190.5 807,-171.5 770,-171.5"/>
<text text-anchor="middle" x="788.5" y="-178.5" font-family="Helvetica,sans-Serif" font-size="10.00">xchg</text>
</a>
</g>
</g>
<!-- Node2 -->
<g id="node2" class="node">
<title>Node2</title>
<g id="a_node2"><a xlink:href="mpe_8c.html#aaaad47c97c82065cf463f83b98b23c30" target="_top" xlink:title=" ">
<polygon fill="none" stroke="black" points="658.5,-219.5 658.5,-238.5 729.5,-238.5 729.5,-219.5 658.5,-219.5"/>
<text text-anchor="middle" x="694" y="-226.5" font-family="Helvetica,sans-Serif" font-size="10.00">atomic_xchg</text>
</a>
</g>
</g>
<!-- Node1&#45;&gt;Node2 -->
<g id="edge1" class="edge">
<title>Node1&#45;&gt;Node2</title>
<path fill="none" stroke="midnightblue" d="M760.73,-194.89C745.55,-202.77 726.95,-212.42 713.41,-219.44"/>
<polygon fill="midnightblue" stroke="midnightblue" points="762.4,-197.97 769.67,-190.25 759.18,-191.75 762.4,-197.97"/>
</g>
<!-- Node19 -->
<g id="node19" class="node">
<title>Node19</title>
<g id="a_node19"><a xlink:href="mpe_8c.html#a2e4a724e2d067425ff3fd49bc0bf42e1" target="_top" xlink:title=" ">
<polygon fill="none" stroke="black" points="667.5,-171.5 667.5,-190.5 720.5,-190.5 720.5,-171.5 667.5,-171.5"/>
<text text-anchor="middle" x="694" y="-178.5" font-family="Helvetica,sans-Serif" font-size="10.00">mpe_init</text>
</a>
</g>
</g>
<!-- Node1&#45;&gt;Node19 -->
<g id="edge31" class="edge">
<title>Node1&#45;&gt;Node19</title>
<path fill="none" stroke="midnightblue" d="M759.5,-181C747.2,-181 732.86,-181 720.83,-181"/>
<polygon fill="midnightblue" stroke="midnightblue" points="759.67,-184.5 769.67,-181 759.67,-177.5 759.67,-184.5"/>
</g>
<!-- Node21 -->
<g id="node21" class="node">
<title>Node21</title>
<g id="a_node21"><a xlink:href="mpe_8c.html#aec8f7f25be4263648b704092672a566b" target="_top" xlink:title=" ">
<polygon fill="none" stroke="black" points="654,-95.5 654,-114.5 734,-114.5 734,-95.5 654,-95.5"/>
<text text-anchor="middle" x="694" y="-102.5" font-family="Helvetica,sans-Serif" font-size="10.00">othercpu_entry</text>
</a>
</g>
</g>
<!-- Node1&#45;&gt;Node21 -->
<g id="edge33" class="edge">
<title>Node1&#45;&gt;Node21</title>
<path fill="none" stroke="midnightblue" d="M767.93,-164.92C749.34,-149.65 722,-127.18 706.62,-114.55"/>
<polygon fill="midnightblue" stroke="midnightblue" points="765.84,-167.73 775.78,-171.37 770.28,-162.32 765.84,-167.73"/>
</g>
<!-- Node3 -->
<g id="node3" class="node">
<title>Node3</title>
<g id="a_node3"><a xlink:href="spinlock_8c.html#ab6f3c37ec37006951feccc3c05387cce" target="_top" xlink:title="acquire spinlock to current cpu">
<polygon fill="none" stroke="black" points="534,-228.5 534,-247.5 592,-247.5 592,-228.5 534,-228.5"/>
<text text-anchor="middle" x="563" y="-235.5" font-family="Helvetica,sans-Serif" font-size="10.00">spin_lock</text>
</a>
</g>
</g>
<!-- Node2&#45;&gt;Node3 -->
<g id="edge2" class="edge">
<title>Node2&#45;&gt;Node3</title>
<path fill="none" stroke="midnightblue" d="M648.36,-232.11C629.7,-233.42 608.58,-234.89 592.14,-236.04"/>
<polygon fill="midnightblue" stroke="midnightblue" points="648.7,-235.6 658.43,-231.41 648.21,-228.62 648.7,-235.6"/>
</g>
<!-- Node4 -->
<g id="node4" class="node">
<title>Node4</title>
<g id="a_node4"><a xlink:href="kmt_8c.html#af9c485ce0d89d6624e6e80e31d8ed207" target="_top" xlink:title="handler: save context to current task">
<polygon fill="none" stroke="black" points="233,-266.5 233,-285.5 329,-285.5 329,-266.5 233,-266.5"/>
<text text-anchor="middle" x="281" y="-273.5" font-family="Helvetica,sans-Serif" font-size="10.00">kmt_context_save</text>
</a>
</g>
</g>
<!-- Node3&#45;&gt;Node4 -->
<g id="edge3" class="edge">
<title>Node3&#45;&gt;Node4</title>
<path fill="none" stroke="midnightblue" d="M523.62,-244.22C507.67,-246.74 488.95,-249.61 472,-252 423.44,-258.84 367.76,-265.77 329.29,-270.41"/>
<polygon fill="midnightblue" stroke="midnightblue" points="524.33,-247.65 533.66,-242.62 523.23,-240.74 524.33,-247.65"/>
</g>
<!-- Node6 -->
<g id="node6" class="node">
<title>Node6</title>
<g id="a_node6"><a xlink:href="kmt_8c.html#af360ef0d98ca30e481cc58ea3695fd58" target="_top" xlink:title=" ">
<polygon fill="none" stroke="black" points="0,-171.5 0,-190.5 83,-190.5 83,-171.5 0,-171.5"/>
<text text-anchor="middle" x="41.5" y="-178.5" font-family="Helvetica,sans-Serif" font-size="10.00">MODULE_DEF</text>
</a>
</g>
</g>
<!-- Node3&#45;&gt;Node6 -->
<g id="edge22" class="edge">
<title>Node3&#45;&gt;Node6</title>
<path fill="none" stroke="midnightblue" d="M557.33,-257.26C547.89,-291.44 522.93,-361.87 472,-391 430.72,-414.61 412.42,-394.57 365,-391 247.97,-382.18 202.11,-377.86 119,-295 85.58,-261.68 58.09,-211.71 47.35,-190.77"/>
<polygon fill="midnightblue" stroke="midnightblue" points="560.73,-258.09 559.87,-247.53 553.96,-256.32 560.73,-258.09"/>
</g>
<!-- Node7 -->
<g id="node7" class="node">
<title>Node7</title>
<g id="a_node7"><a xlink:href="kmt_8c.html#a5ddb8743298012e84cf9cb5faf22212b" target="_top" xlink:title="create thread">
<polygon fill="none" stroke="black" points="125.5,-190.5 125.5,-209.5 190.5,-209.5 190.5,-190.5 125.5,-190.5"/>
<text text-anchor="middle" x="158" y="-197.5" font-family="Helvetica,sans-Serif" font-size="10.00">kmt_create</text>
</a>
</g>
</g>
<!-- Node3&#45;&gt;Node7 -->
<g id="edge6" class="edge">
<title>Node3&#45;&gt;Node7</title>
<path fill="none" stroke="midnightblue" d="M523.96,-234.41C444.87,-226.96 263.94,-209.9 190.68,-202.99"/>
<polygon fill="midnightblue" stroke="midnightblue" points="523.7,-237.9 533.98,-235.36 524.35,-230.93 523.7,-237.9"/>
</g>
<!-- Node8 -->
<g id="node8" class="node">
<title>Node8</title>
<g id="a_node8"><a xlink:href="kmt_8c.html#a13cbe2d83bf10c3302124613fa18f8a4" target="_top" xlink:title="print all tasks notice: do not garantee concurrency safety">
<polygon fill="none" stroke="black" points="368,-304.5 368,-323.5 469,-323.5 469,-304.5 368,-304.5"/>
<text text-anchor="middle" x="418.5" y="-311.5" font-family="Helvetica,sans-Serif" font-size="10.00">kmt_print_all_tasks</text>
</a>
</g>
</g>
<!-- Node3&#45;&gt;Node8 -->
<g id="edge8" class="edge">
<title>Node3&#45;&gt;Node8</title>
<path fill="none" stroke="midnightblue" d="M537.66,-252.91C519.75,-263.67 494.67,-278.3 472,-290 462.2,-295.05 451.13,-300.2 441.69,-304.42"/>
<polygon fill="midnightblue" stroke="midnightblue" points="539.57,-255.84 546.32,-247.67 535.95,-249.85 539.57,-255.84"/>
</g>
<!-- Node10 -->
<g id="node10" class="node">
<title>Node10</title>
<g id="a_node10"><a xlink:href="kmt_8c.html#ad4d70b4093829da1c0b0631abdff7747" target="_top" xlink:title="handler: schedule next task to run Notice: this should be the only handler which returns real Context">
<polygon fill="none" stroke="black" points="242.5,-342.5 242.5,-361.5 319.5,-361.5 319.5,-342.5 242.5,-342.5"/>
<text text-anchor="middle" x="281" y="-349.5" font-family="Helvetica,sans-Serif" font-size="10.00">kmt_schedule</text>
</a>
</g>
</g>
<!-- Node3&#45;&gt;Node10 -->
<g id="edge16" class="edge">
<title>Node3&#45;&gt;Node10</title>
<path fill="none" stroke="midnightblue" d="M555.62,-257.35C544.32,-288.02 517.6,-346.8 472,-371 417.1,-400.14 340.69,-376.4 303.74,-361.61"/>
<polygon fill="midnightblue" stroke="midnightblue" points="558.97,-258.37 558.97,-247.78 552.36,-256.06 558.97,-258.37"/>
</g>
<!-- Node11 -->
<g id="node11" class="node">
<title>Node11</title>
<g id="a_node11"><a xlink:href="kmt_8c.html#ab4e9dee1880e455874374b44b5785bc3" target="_top" xlink:title="print all current_tasks notice: do not garantee concurrency safety">
<polygon fill="none" stroke="black" points="365,-342.5 365,-361.5 472,-361.5 472,-342.5 365,-342.5"/>
<text text-anchor="middle" x="418.5" y="-349.5" font-family="Helvetica,sans-Serif" font-size="10.00">kmt_print_cpu_tasks</text>
</a>
</g>
</g>
<!-- Node3&#45;&gt;Node11 -->
<g id="edge13" class="edge">
<title>Node3&#45;&gt;Node11</title>
<path fill="none" stroke="midnightblue" d="M549.22,-255.89C533.31,-276.99 504.26,-311.87 472,-333 466.24,-336.77 459.64,-339.91 453.11,-342.48"/>
<polygon fill="midnightblue" stroke="midnightblue" points="552.09,-257.89 555.21,-247.77 546.46,-253.74 552.09,-257.89"/>
</g>
<!-- Node12 -->
<g id="node12" class="node">
<title>Node12</title>
<g id="a_node12"><a xlink:href="kmt_8c.html#a47d8887c87041abd5ea3148232b65c93" target="_top" xlink:title="tear down a thread">
<polygon fill="none" stroke="black" points="119,-152.5 119,-171.5 197,-171.5 197,-152.5 119,-152.5"/>
<text text-anchor="middle" x="158" y="-159.5" font-family="Helvetica,sans-Serif" font-size="10.00">kmt_teardown</text>
</a>
</g>
</g>
<!-- Node3&#45;&gt;Node12 -->
<g id="edge17" class="edge">
<title>Node3&#45;&gt;Node12</title>
<path fill="none" stroke="midnightblue" d="M523.75,-227.48C507.82,-223.3 489.08,-218.62 472,-215 373.61,-194.13 256.43,-176.08 197.26,-167.44"/>
<polygon fill="midnightblue" stroke="midnightblue" points="523.2,-230.96 533.77,-230.15 525,-224.19 523.2,-230.96"/>
</g>
<!-- Node13 -->
<g id="node13" class="node">
<title>Node13</title>
<g id="a_node13"><a xlink:href="kmt_8c.html#a75ea8dbba16d64a343a45962bd593930" target="_top" xlink:title="handler: handle yield interrupt (0x81)">
<polygon fill="none" stroke="black" points="252,-228.5 252,-247.5 310,-247.5 310,-228.5 252,-228.5"/>
<text text-anchor="middle" x="281" y="-235.5" font-family="Helvetica,sans-Serif" font-size="10.00">kmt_yield</text>
</a>
</g>
</g>
<!-- Node3&#45;&gt;Node13 -->
<g id="edge19" class="edge">
<title>Node3&#45;&gt;Node13</title>
<path fill="none" stroke="midnightblue" d="M523.82,-238C466.77,-238 360.62,-238 310.11,-238"/>
<polygon fill="midnightblue" stroke="midnightblue" points="523.87,-241.5 533.87,-238 523.87,-234.5 523.87,-241.5"/>
</g>
<!-- Node14 -->
<g id="node14" class="node">
<title>Node14</title>
<g id="a_node14"><a xlink:href="kernel_8h.html#a7ef2d722f9c7f8acc1801144a5188825" target="_top" xlink:title=" ">
<polygon fill="none" stroke="black" points="251.5,-76.5 251.5,-95.5 310.5,-95.5 310.5,-76.5 251.5,-76.5"/>
<text text-anchor="middle" x="281" y="-83.5" font-family="Helvetica,sans-Serif" font-size="10.00">MODULE</text>
</a>
</g>
</g>
<!-- Node3&#45;&gt;Node14 -->
<g id="edge21" class="edge">
<title>Node3&#45;&gt;Node14</title>
<path fill="none" stroke="midnightblue" d="M534.33,-223.1C524.96,-216.96 515.08,-209.13 508,-200 480.32,-164.33 507.83,-132.47 472,-105 425.04,-69 351.19,-73.96 310.79,-80.27"/>
<polygon fill="midnightblue" stroke="midnightblue" points="532.7,-226.21 543.05,-228.45 536.36,-220.24 532.7,-226.21"/>
</g>
<!-- Node15 -->
<g id="node15" class="node">
<title>Node15</title>
<g id="a_node15"><a xlink:href="os_8c.html#a2be1c9facb49d4439f41b1537d0f3ef8" target="_top" xlink:title="System trap entry.">
<polygon fill="none" stroke="black" points="394,-456.5 394,-475.5 443,-475.5 443,-456.5 394,-456.5"/>
<text text-anchor="middle" x="418.5" y="-463.5" font-family="Helvetica,sans-Serif" font-size="10.00">os_trap</text>
</a>
</g>
</g>
<!-- Node3&#45;&gt;Node15 -->
<g id="edge23" class="edge">
<title>Node3&#45;&gt;Node15</title>
<path fill="none" stroke="midnightblue" d="M558.16,-257.96C549.53,-297.85 525.07,-388.22 472,-442 464.12,-449.99 453.08,-455.58 443.16,-459.35"/>
<polygon fill="midnightblue" stroke="midnightblue" points="561.64,-258.41 560.23,-247.91 554.79,-257 561.64,-258.41"/>
</g>
<!-- Node17 -->
<g id="node17" class="node">
<title>Node17</title>
<g id="a_node17"><a xlink:href="sem_8c.html#ad994e433f3a6bf8626272437cb54c114" target="_top" xlink:title="wake up a task form tasks waiting for the semaphore instance">
<polygon fill="none" stroke="black" points="385.5,-114.5 385.5,-133.5 451.5,-133.5 451.5,-114.5 385.5,-114.5"/>
<text text-anchor="middle" x="418.5" y="-121.5" font-family="Helvetica,sans-Serif" font-size="10.00">sem_signal</text>
</a>
</g>
</g>
<!-- Node3&#45;&gt;Node17 -->
<g id="edge25" class="edge">
<title>Node3&#45;&gt;Node17</title>
<path fill="none" stroke="midnightblue" d="M536.83,-222.97C527.22,-216.57 516.53,-208.6 508,-200 488.2,-180.05 493.55,-166.04 472,-148 464.85,-142.02 455.97,-137.21 447.56,-133.52"/>
<polygon fill="midnightblue" stroke="midnightblue" points="534.95,-225.93 545.26,-228.38 538.73,-220.03 534.95,-225.93"/>
</g>
<!-- Node18 -->
<g id="node18" class="node">
<title>Node18</title>
<g id="a_node18"><a xlink:href="sem_8c.html#a85ca67864bb0af1966a5c2463bd16fe8" target="_top" xlink:title="release semaphore(Mutex) and sleep task holding the sem">
<polygon fill="none" stroke="black" points="389,-38.5 389,-57.5 448,-57.5 448,-38.5 389,-38.5"/>
<text text-anchor="middle" x="418.5" y="-45.5" font-family="Helvetica,sans-Serif" font-size="10.00">sem_wait</text>
</a>
</g>
</g>
<!-- Node3&#45;&gt;Node18 -->
<g id="edge28" class="edge">
<title>Node3&#45;&gt;Node18</title>
<path fill="none" stroke="midnightblue" d="M533.46,-223.16C524.17,-217.09 514.57,-209.29 508,-200 473.86,-151.76 510.44,-116.89 472,-72 465.74,-64.69 456.8,-59.49 448.06,-55.84"/>
<polygon fill="midnightblue" stroke="midnightblue" points="531.79,-226.24 542.15,-228.44 535.42,-220.26 531.79,-226.24"/>
</g>
<!-- Node5 -->
<g id="node5" class="node">
<title>Node5</title>
<g id="a_node5"><a xlink:href="kmt_8c.html#a0c68a294cecc4be7cb4b495f15b883a0" target="_top" xlink:title="initialize kmt module">
<polygon fill="none" stroke="black" points="132.5,-266.5 132.5,-285.5 183.5,-285.5 183.5,-266.5 132.5,-266.5"/>
<text text-anchor="middle" x="158" y="-273.5" font-family="Helvetica,sans-Serif" font-size="10.00">kmt_init</text>
</a>
</g>
</g>
<!-- Node4&#45;&gt;Node5 -->
<g id="edge4" class="edge">
<title>Node4&#45;&gt;Node5</title>
<path fill="none" stroke="midnightblue" d="M222.87,-276C209.02,-276 194.94,-276 183.53,-276"/>
<polygon fill="midnightblue" stroke="midnightblue" points="222.87,-279.5 232.87,-276 222.87,-272.5 222.87,-279.5"/>
</g>
<!-- Node5&#45;&gt;Node6 -->
<g id="edge5" class="edge">
<title>Node5&#45;&gt;Node6</title>
<path fill="none" stroke="midnightblue" d="M137.42,-259.76C113.46,-239.87 73.66,-206.85 54.09,-190.61"/>
<polygon fill="midnightblue" stroke="midnightblue" points="135.25,-262.5 145.18,-266.19 139.72,-257.11 135.25,-262.5"/>
</g>
<!-- Node7&#45;&gt;Node6 -->
<g id="edge7" class="edge">
<title>Node7&#45;&gt;Node6</title>
<path fill="none" stroke="midnightblue" d="M115.54,-193.12C104.94,-191.36 93.56,-189.47 83.01,-187.72"/>
<polygon fill="midnightblue" stroke="midnightblue" points="114.97,-196.57 125.41,-194.76 116.12,-189.67 114.97,-196.57"/>
</g>
<!-- Node9 -->
<g id="node9" class="node">
<title>Node9</title>
<g id="a_node9"><a xlink:href="kmt_8c.html#ad3fbc643b7b6092120c5152b4c890354" target="_top" xlink:title="handler: handle program errors">
<polygon fill="none" stroke="black" points="252,-304.5 252,-323.5 310,-323.5 310,-304.5 252,-304.5"/>
<text text-anchor="middle" x="281" y="-311.5" font-family="Helvetica,sans-Serif" font-size="10.00">kmt_error</text>
</a>
</g>
</g>
<!-- Node8&#45;&gt;Node9 -->
<g id="edge9" class="edge">
<title>Node8&#45;&gt;Node9</title>
<path fill="none" stroke="midnightblue" d="M357.61,-314C341.04,-314 323.82,-314 310.02,-314"/>
<polygon fill="midnightblue" stroke="midnightblue" points="357.81,-317.5 367.81,-314 357.81,-310.5 357.81,-317.5"/>
</g>
<!-- Node8&#45;&gt;Node10 -->
<g id="edge11" class="edge">
<title>Node8&#45;&gt;Node10</title>
<path fill="none" stroke="midnightblue" d="M373.58,-326.32C354.96,-331.54 333.59,-337.53 316.18,-342.41"/>
<polygon fill="midnightblue" stroke="midnightblue" points="374.62,-329.66 383.31,-323.59 372.73,-322.92 374.62,-329.66"/>
</g>
<!-- Node9&#45;&gt;Node5 -->
<g id="edge10" class="edge">
<title>Node9&#45;&gt;Node5</title>
<path fill="none" stroke="midnightblue" d="M242.31,-302.16C223.19,-296.16 200.5,-289.03 183.63,-283.74"/>
<polygon fill="midnightblue" stroke="midnightblue" points="241.35,-305.53 251.94,-305.19 243.44,-298.85 241.35,-305.53"/>
</g>
<!-- Node10&#45;&gt;Node5 -->
<g id="edge12" class="edge">
<title>Node10&#45;&gt;Node5</title>
<path fill="none" stroke="midnightblue" d="M243.23,-338.28C239.71,-336.63 236.25,-334.86 233,-333 208.8,-319.13 183.71,-298.17 169.86,-285.9"/>
<polygon fill="midnightblue" stroke="midnightblue" points="242,-341.56 252.56,-342.37 244.81,-335.15 242,-341.56"/>
</g>
<!-- Node11&#45;&gt;Node9 -->
<g id="edge14" class="edge">
<title>Node11&#45;&gt;Node9</title>
<path fill="none" stroke="midnightblue" d="M373.43,-339.64C352.66,-333.82 328.51,-327.04 310.24,-321.92"/>
<polygon fill="midnightblue" stroke="midnightblue" points="372.73,-343.08 383.31,-342.41 374.62,-336.34 372.73,-343.08"/>
</g>
<!-- Node11&#45;&gt;Node10 -->
<g id="edge15" class="edge">
<title>Node11&#45;&gt;Node10</title>
<path fill="none" stroke="midnightblue" d="M354.4,-352C342.55,-352 330.52,-352 319.75,-352"/>
<polygon fill="midnightblue" stroke="midnightblue" points="354.72,-355.5 364.72,-352 354.72,-348.5 354.72,-355.5"/>
</g>
<!-- Node12&#45;&gt;Node6 -->
<g id="edge18" class="edge">
<title>Node12&#45;&gt;Node6</title>
<path fill="none" stroke="midnightblue" d="M108.99,-169.97C100.41,-171.39 91.56,-172.86 83.21,-174.24"/>
<polygon fill="midnightblue" stroke="midnightblue" points="109.58,-173.42 118.87,-168.33 108.44,-166.51 109.58,-173.42"/>
</g>
<!-- Node13&#45;&gt;Node5 -->
<g id="edge20" class="edge">
<title>Node13&#45;&gt;Node5</title>
<path fill="none" stroke="midnightblue" d="M242.31,-249.84C223.19,-255.84 200.5,-262.97 183.63,-268.26"/>
<polygon fill="midnightblue" stroke="midnightblue" points="243.44,-253.15 251.94,-246.81 241.35,-246.47 243.44,-253.15"/>
</g>
<!-- Node16 -->
<g id="node16" class="node">
<title>Node16</title>
<g id="a_node16"><a xlink:href="os_8c.html#aafec7046aa50c914df86d0d22d4fc1d1" target="_top" xlink:title=" ">
<polygon fill="none" stroke="black" points="239.5,-456.5 239.5,-475.5 322.5,-475.5 322.5,-456.5 239.5,-456.5"/>
<text text-anchor="middle" x="281" y="-463.5" font-family="Helvetica,sans-Serif" font-size="10.00">MODULE_DEF</text>
</a>
</g>
</g>
<!-- Node15&#45;&gt;Node16 -->
<g id="edge24" class="edge">
<title>Node15&#45;&gt;Node16</title>
<path fill="none" stroke="midnightblue" d="M383.84,-466C365.29,-466 342.13,-466 322.58,-466"/>
<polygon fill="midnightblue" stroke="midnightblue" points="383.9,-469.5 393.9,-466 383.9,-462.5 383.9,-469.5"/>
</g>
<!-- Node17&#45;&gt;Node6 -->
<g id="edge27" class="edge">
<title>Node17&#45;&gt;Node6</title>
<path fill="none" stroke="midnightblue" d="M375.11,-121.5C316.46,-119.21 207.76,-119.17 119,-143 96.23,-149.11 72.23,-162.29 57.32,-171.4"/>
<polygon fill="midnightblue" stroke="midnightblue" points="375.32,-125.01 385.46,-121.95 375.62,-118.02 375.32,-125.01"/>
</g>
<!-- Node17&#45;&gt;Node14 -->
<g id="edge26" class="edge">
<title>Node17&#45;&gt;Node14</title>
<path fill="none" stroke="midnightblue" d="M375.7,-112.28C354.6,-106.36 329.55,-99.33 310.66,-94.04"/>
<polygon fill="midnightblue" stroke="midnightblue" points="374.81,-115.66 385.39,-114.99 376.7,-108.92 374.81,-115.66"/>
</g>
<!-- Node18&#45;&gt;Node6 -->
<g id="edge30" class="edge">
<title>Node18&#45;&gt;Node6</title>
<path fill="none" stroke="midnightblue" d="M378.66,-47.97C340.78,-48.87 281.89,-52.77 233,-67 178.61,-82.83 167.23,-94.29 119,-124 94.74,-138.94 68.55,-159.53 53.97,-171.44"/>
<polygon fill="midnightblue" stroke="midnightblue" points="378.83,-51.47 388.76,-47.79 378.7,-44.47 378.83,-51.47"/>
</g>
<!-- Node18&#45;&gt;Node14 -->
<g id="edge29" class="edge">
<title>Node18&#45;&gt;Node14</title>
<path fill="none" stroke="midnightblue" d="M378.87,-58.83C357.16,-64.92 330.54,-72.39 310.69,-77.95"/>
<polygon fill="midnightblue" stroke="midnightblue" points="380.08,-62.13 388.76,-56.06 378.19,-55.39 380.08,-62.13"/>
</g>
<!-- Node20 -->
<g id="node20" class="node">
<title>Node20</title>
<g id="a_node20"><a xlink:href="main_8c.html#ae66f6b31b5ad750f1fe042a706a4e3d4" target="_top" xlink:title=" ">
<polygon fill="none" stroke="black" points="544,-171.5 544,-190.5 582,-190.5 582,-171.5 544,-171.5"/>
<text text-anchor="middle" x="563" y="-178.5" font-family="Helvetica,sans-Serif" font-size="10.00">main</text>
</a>
</g>
</g>
<!-- Node19&#45;&gt;Node20 -->
<g id="edge32" class="edge">
<title>Node19&#45;&gt;Node20</title>
<path fill="none" stroke="midnightblue" d="M656.92,-181C632.62,-181 601.6,-181 582.26,-181"/>
<polygon fill="midnightblue" stroke="midnightblue" points="657.21,-184.5 667.2,-181 657.2,-177.5 657.21,-184.5"/>
</g>
<!-- Node22 -->
<g id="node22" class="node">
<title>Node22</title>
<g id="a_node22"><a xlink:href="mpe_8c.html#af9524b1c09898b69d9980310682a8bea" target="_top" xlink:title=" ">
<polygon fill="none" stroke="black" points="508,-19.5 508,-38.5 618,-38.5 618,-19.5 508,-19.5"/>
<text text-anchor="middle" x="563" y="-26.5" font-family="Helvetica,sans-Serif" font-size="10.00">__am_othercpu_entry</text>
</a>
</g>
</g>
<!-- Node21&#45;&gt;Node22 -->
<g id="edge34" class="edge">
<title>Node21&#45;&gt;Node22</title>
<path fill="none" stroke="midnightblue" d="M667.79,-90.14C641.85,-74.87 602.23,-51.53 580.21,-38.55"/>
<polygon fill="midnightblue" stroke="midnightblue" points="666.27,-93.31 676.66,-95.37 669.82,-87.28 666.27,-93.31"/>
</g>
<!-- Node23 -->
<g id="node23" class="node">
<title>Node23</title>
<g id="a_node23"><a xlink:href="trm_8c.html#a54a85aeee6f6a8ef875d4cca663f9fd8" target="_top" xlink:title=" ">
<polygon fill="none" stroke="black" points="392.5,-0.5 392.5,-19.5 444.5,-19.5 444.5,-0.5 392.5,-0.5"/>
<text text-anchor="middle" x="418.5" y="-7.5" font-family="Helvetica,sans-Serif" font-size="10.00">_start_c</text>
</a>
</g>
</g>
<!-- Node22&#45;&gt;Node23 -->
<g id="edge35" class="edge">
<title>Node22&#45;&gt;Node23</title>
<path fill="none" stroke="midnightblue" d="M497.67,-20.42C478.87,-17.92 459.41,-15.32 444.61,-13.35"/>
<polygon fill="midnightblue" stroke="midnightblue" points="497.35,-23.91 507.72,-21.76 498.27,-16.97 497.35,-23.91"/>
</g>
</g>
</svg>
