<?xml version="1.0" encoding="UTF-8" standalone="no"?>
<!DOCTYPE svg PUBLIC "-//W3C//DTD SVG 1.1//EN"
 "http://www.w3.org/Graphics/SVG/1.1/DTD/svg11.dtd">
<!-- Generated by graphviz version 2.50.0 (20220203.2022)
 -->
<!-- Title: mpe_init Pages: 1 -->
<svg width="938pt" height="522pt"
 viewBox="0.00 0.00 938.00 522.00" xmlns="http://www.w3.org/2000/svg" xmlns:xlink="http://www.w3.org/1999/xlink">
<g id="graph0" class="graph" transform="scale(1 1) rotate(0) translate(4 518)">
<title>mpe_init</title>
<!-- Node1 -->
<g id="node1" class="node">
<title>Node1</title>
<g id="a_node1"><a xlink:title=" ">
<polygon fill="#bfbfbf" stroke="black" points="0,-133.5 0,-152.5 53,-152.5 53,-133.5 0,-133.5"/>
<text text-anchor="middle" x="26.5" y="-140.5" font-family="Helvetica,sans-Serif" font-size="10.00">mpe_init</text>
</a>
</g>
</g>
<!-- Node2 -->
<g id="node2" class="node">
<title>Node2</title>
<g id="a_node2"><a xlink:href="native_2cte_8c.html#a324dd5bf3445b32ffc8ce5e6c0f33aa5" target="_top" xlink:title=" ">
<polygon fill="none" stroke="black" points="89,-399.5 89,-418.5 190,-418.5 190,-399.5 89,-399.5"/>
<text text-anchor="middle" x="139.5" y="-406.5" font-family="Helvetica,sans-Serif" font-size="10.00">__am_init_timer_irq</text>
</a>
</g>
</g>
<!-- Node1&#45;&gt;Node2 -->
<g id="edge1" class="edge">
<title>Node1&#45;&gt;Node2</title>
<path fill="none" stroke="midnightblue" d="M29.71,-152.83C36.35,-181.53 57.65,-267.29 89,-333 98.99,-353.95 113.89,-375.97 124.73,-390.88"/>
<polygon fill="midnightblue" stroke="midnightblue" points="122.11,-393.23 130.88,-399.18 127.74,-389.06 122.11,-393.23"/>
</g>
<!-- Node4 -->
<g id="node4" class="node">
<title>Node4</title>
<g id="a_node4"><a xlink:href="native_2ioe_8c.html#a85e8849eae1811aa4fa0527476f39782" target="_top" xlink:title=" ">
<polygon fill="none" stroke="black" points="101,-304.5 101,-323.5 178,-323.5 178,-304.5 101,-304.5"/>
<text text-anchor="middle" x="139.5" y="-311.5" font-family="Helvetica,sans-Serif" font-size="10.00">__am_ioe_init</text>
</a>
</g>
</g>
<!-- Node1&#45;&gt;Node4 -->
<g id="edge3" class="edge">
<title>Node1&#45;&gt;Node4</title>
<path fill="none" stroke="midnightblue" d="M33.79,-152.68C51.72,-180.31 103.34,-259.84 126.73,-295.87"/>
<polygon fill="midnightblue" stroke="midnightblue" points="123.9,-297.94 132.28,-304.42 129.77,-294.13 123.9,-297.94"/>
</g>
<!-- Node16 -->
<g id="node16" class="node">
<title>Node16</title>
<g id="a_node16"><a xlink:href="x86_2qemu_2ioe_8c.html#a88a238fee7cd006afa69ea97e4914a09" target="_top" xlink:title=" ">
<polygon fill="none" stroke="black" points="749,-190.5 749,-209.5 850,-209.5 850,-190.5 749,-190.5"/>
<text text-anchor="middle" x="799.5" y="-197.5" font-family="Helvetica,sans-Serif" font-size="10.00">__am_lapic_bootap</text>
</a>
</g>
</g>
<!-- Node1&#45;&gt;Node16 -->
<g id="edge28" class="edge">
<title>Node1&#45;&gt;Node16</title>
<path fill="none" stroke="midnightblue" d="M45.89,-152.51C57.88,-158.35 74.03,-165.54 89,-170 166.52,-193.1 187.62,-200 268.5,-200 268.5,-200 268.5,-200 512.5,-200 590.72,-200 680.98,-200 738.84,-200"/>
<polygon fill="midnightblue" stroke="midnightblue" points="738.9,-203.5 748.9,-200 738.9,-196.5 738.9,-203.5"/>
</g>
<!-- Node19 -->
<g id="node19" class="node">
<title>Node19</title>
<g id="a_node19"><a xlink:href="x86_8h.html#adfa01b89ceed9e7a87f185f4e441aa16" target="_top" xlink:title=" ">
<polygon fill="none" stroke="black" points="765.5,-152.5 765.5,-171.5 833.5,-171.5 833.5,-152.5 765.5,-152.5"/>
<text text-anchor="middle" x="799.5" y="-159.5" font-family="Helvetica,sans-Serif" font-size="10.00">boot_record</text>
</a>
</g>
</g>
<!-- Node1&#45;&gt;Node19 -->
<g id="edge29" class="edge">
<title>Node1&#45;&gt;Node19</title>
<path fill="none" stroke="midnightblue" d="M53.13,-146.35C97.1,-151.81 189.81,-162 268.5,-162 268.5,-162 268.5,-162 512.5,-162 598.56,-162 699.19,-162 755.21,-162"/>
<polygon fill="midnightblue" stroke="midnightblue" points="755.47,-165.5 765.47,-162 755.47,-158.5 755.47,-165.5"/>
</g>
<!-- Node29 -->
<g id="node29" class="node">
<title>Node29</title>
<g id="a_node29"><a xlink:href="x86_2qemu_2mpe_8c.html#afc800fc7438b6762f113c46d25cab75b" target="_top" xlink:title=" ">
<polygon fill="none" stroke="black" points="98.5,-114.5 98.5,-133.5 180.5,-133.5 180.5,-114.5 98.5,-114.5"/>
<text text-anchor="middle" x="139.5" y="-121.5" font-family="Helvetica,sans-Serif" font-size="10.00">call_user_entry</text>
</a>
</g>
</g>
<!-- Node1&#45;&gt;Node29 -->
<g id="edge30" class="edge">
<title>Node1&#45;&gt;Node29</title>
<path fill="none" stroke="midnightblue" d="M53.24,-138.59C63.65,-136.81 76.04,-134.69 88.11,-132.63"/>
<polygon fill="midnightblue" stroke="midnightblue" points="88.85,-136.05 98.11,-130.91 87.67,-129.15 88.85,-136.05"/>
</g>
<!-- Node30 -->
<g id="node30" class="node">
<title>Node30</title>
<g id="a_node30"><a xlink:href="native_2mpe_8c.html#af486ec575d47720d28eee63644206110" target="_top" xlink:title=" ">
<polygon fill="none" stroke="black" points="108.5,-76.5 108.5,-95.5 170.5,-95.5 170.5,-76.5 108.5,-76.5"/>
<text text-anchor="middle" x="139.5" y="-83.5" font-family="Helvetica,sans-Serif" font-size="10.00">cpu_count</text>
</a>
</g>
</g>
<!-- Node1&#45;&gt;Node30 -->
<g id="edge31" class="edge">
<title>Node1&#45;&gt;Node30</title>
<path fill="none" stroke="midnightblue" d="M41.24,-133.47C53.43,-125.28 71.91,-113.47 89,-105 93.01,-103.02 97.27,-101.1 101.56,-99.3"/>
<polygon fill="midnightblue" stroke="midnightblue" points="102.9,-102.53 110.87,-95.56 100.29,-96.04 102.9,-102.53"/>
</g>
<!-- Node31 -->
<g id="node31" class="node">
<title>Node31</title>
<g id="a_node31"><a xlink:href="x86_8h.html#a2948382efa6ca2d9520fa9bb11a63ff9" target="_top" xlink:title=" ">
<polygon fill="none" stroke="black" points="118,-38.5 118,-57.5 161,-57.5 161,-38.5 118,-38.5"/>
<text text-anchor="middle" x="139.5" y="-45.5" font-family="Helvetica,sans-Serif" font-size="10.00">pause</text>
</a>
</g>
</g>
<!-- Node1&#45;&gt;Node31 -->
<g id="edge32" class="edge">
<title>Node1&#45;&gt;Node31</title>
<path fill="none" stroke="midnightblue" d="M32.9,-133.48C42.34,-117.61 63.32,-85.66 89,-67 94.7,-62.85 101.42,-59.49 108.04,-56.81"/>
<polygon fill="midnightblue" stroke="midnightblue" points="109.34,-60.06 117.54,-53.36 106.95,-53.48 109.34,-60.06"/>
</g>
<!-- Node32 -->
<g id="node32" class="node">
<title>Node32</title>
<g id="a_node32"><a xlink:href="x86_8h.html#a48b2a6a16dc8d7e09d327aa3803f1112" target="_top" xlink:title=" ">
<polygon fill="none" stroke="black" points="121,-0.5 121,-19.5 158,-19.5 158,-0.5 121,-0.5"/>
<text text-anchor="middle" x="139.5" y="-7.5" font-family="Helvetica,sans-Serif" font-size="10.00">xchg</text>
</a>
</g>
</g>
<!-- Node1&#45;&gt;Node32 -->
<g id="edge33" class="edge">
<title>Node1&#45;&gt;Node32</title>
<path fill="none" stroke="midnightblue" d="M30.19,-133.28C36.69,-111.57 55.22,-58.7 89,-29 95.32,-23.44 103.44,-19.43 111.26,-16.57"/>
<polygon fill="midnightblue" stroke="midnightblue" points="112.38,-19.89 120.86,-13.53 110.27,-13.21 112.38,-19.89"/>
</g>
<!-- Node3 -->
<g id="node3" class="node">
<title>Node3</title>
<g id="a_node3"><a xlink:href="native_2cte_8c.html#a4a139958742786c5085172be1f69bfd0" target="_top" xlink:title=" ">
<polygon fill="none" stroke="black" points="253.5,-456.5 253.5,-475.5 285.5,-475.5 285.5,-456.5 253.5,-456.5"/>
<text text-anchor="middle" x="269.5" y="-463.5" font-family="Helvetica,sans-Serif" font-size="10.00">iset</text>
</a>
</g>
</g>
<!-- Node2&#45;&gt;Node3 -->
<g id="edge2" class="edge">
<title>Node2&#45;&gt;Node3</title>
<path fill="none" stroke="midnightblue" d="M161.92,-418.54C184.59,-428.63 220.3,-444.54 244.05,-455.11"/>
<polygon fill="midnightblue" stroke="midnightblue" points="242.87,-458.42 253.43,-459.29 245.72,-452.02 242.87,-458.42"/>
</g>
<!-- Node5 -->
<g id="node5" class="node">
<title>Node5</title>
<g id="a_node5"><a xlink:href="audio_8c.html#aeafbbf0a74478c9fbf1d6bb3e0d359d0" target="_top" xlink:title=" ">
<polygon fill="none" stroke="black" points="226,-304.5 226,-323.5 313,-323.5 313,-304.5 226,-304.5"/>
<text text-anchor="middle" x="269.5" y="-311.5" font-family="Helvetica,sans-Serif" font-size="10.00">__am_audio_init</text>
</a>
</g>
</g>
<!-- Node4&#45;&gt;Node5 -->
<g id="edge4" class="edge">
<title>Node4&#45;&gt;Node5</title>
<path fill="none" stroke="midnightblue" d="M178.21,-314C189.85,-314 202.89,-314 215.36,-314"/>
<polygon fill="midnightblue" stroke="midnightblue" points="215.67,-317.5 225.67,-314 215.67,-310.5 215.67,-317.5"/>
</g>
<!-- Node6 -->
<g id="node6" class="node">
<title>Node6</title>
<g id="a_node6"><a xlink:href="disk_8c.html#a85a821a1956812f3ed4b2ac56f17a3a9" target="_top" xlink:title=" ">
<polygon fill="none" stroke="black" points="228.5,-266.5 228.5,-285.5 310.5,-285.5 310.5,-266.5 228.5,-266.5"/>
<text text-anchor="middle" x="269.5" y="-273.5" font-family="Helvetica,sans-Serif" font-size="10.00">__am_disk_init</text>
</a>
</g>
</g>
<!-- Node4&#45;&gt;Node6 -->
<g id="edge5" class="edge">
<title>Node4&#45;&gt;Node6</title>
<path fill="none" stroke="midnightblue" d="M172.8,-304.41C189.02,-299.6 208.88,-293.7 226.29,-288.53"/>
<polygon fill="midnightblue" stroke="midnightblue" points="227.62,-291.79 236.21,-285.59 225.63,-285.08 227.62,-291.79"/>
</g>
<!-- Node7 -->
<g id="node7" class="node">
<title>Node7</title>
<g id="a_node7"><a xlink:href="gpu_8c.html#a374867a82bb68896aa79bea1f6d5eb2b" target="_top" xlink:title=" ">
<polygon fill="none" stroke="black" points="229.5,-228.5 229.5,-247.5 309.5,-247.5 309.5,-228.5 229.5,-228.5"/>
<text text-anchor="middle" x="269.5" y="-235.5" font-family="Helvetica,sans-Serif" font-size="10.00">__am_gpu_init</text>
</a>
</g>
</g>
<!-- Node4&#45;&gt;Node7 -->
<g id="edge6" class="edge">
<title>Node4&#45;&gt;Node7</title>
<path fill="none" stroke="midnightblue" d="M153.4,-304.4C169.77,-292.46 199.13,-271.82 226,-257 229.23,-255.22 232.67,-253.46 236.12,-251.79"/>
<polygon fill="midnightblue" stroke="midnightblue" points="237.62,-254.95 245.22,-247.57 234.67,-248.6 237.62,-254.95"/>
</g>
<!-- Node9 -->
<g id="node9" class="node">
<title>Node9</title>
<g id="a_node9"><a xlink:href="input_8c.html#a02d166c8d2549e580fd16379de9e80f1" target="_top" xlink:title=" ">
<polygon fill="none" stroke="black" points="227,-418.5 227,-437.5 312,-437.5 312,-418.5 227,-418.5"/>
<text text-anchor="middle" x="269.5" y="-425.5" font-family="Helvetica,sans-Serif" font-size="10.00">__am_input_init</text>
</a>
</g>
</g>
<!-- Node4&#45;&gt;Node9 -->
<g id="edge8" class="edge">
<title>Node4&#45;&gt;Node9</title>
<path fill="none" stroke="midnightblue" d="M146.99,-323.56C160.04,-342.17 191.2,-383.67 226,-409 228.33,-410.69 230.83,-412.29 233.42,-413.77"/>
<polygon fill="midnightblue" stroke="midnightblue" points="231.89,-416.92 242.38,-418.39 235.1,-410.7 231.89,-416.92"/>
</g>
<!-- Node27 -->
<g id="node27" class="node">
<title>Node27</title>
<g id="a_node27"><a xlink:href="timer_8c.html#a6fcdcd5b43b132b68a427c217be894b0" target="_top" xlink:title=" ">
<polygon fill="none" stroke="black" points="226.5,-380.5 226.5,-399.5 312.5,-399.5 312.5,-380.5 226.5,-380.5"/>
<text text-anchor="middle" x="269.5" y="-387.5" font-family="Helvetica,sans-Serif" font-size="10.00">__am_timer_init</text>
</a>
</g>
</g>
<!-- Node4&#45;&gt;Node27 -->
<g id="edge26" class="edge">
<title>Node4&#45;&gt;Node27</title>
<path fill="none" stroke="midnightblue" d="M153.4,-323.6C169.77,-335.54 199.13,-356.18 226,-371 229.23,-372.78 232.67,-374.54 236.12,-376.21"/>
<polygon fill="midnightblue" stroke="midnightblue" points="234.67,-379.4 245.22,-380.43 237.62,-373.05 234.67,-379.4"/>
</g>
<!-- Node28 -->
<g id="node28" class="node">
<title>Node28</title>
<g id="a_node28"><a xlink:href="native_2ioe_8c.html#a6ade281e99f1f270ffeebb9d82416221" target="_top" xlink:title=" ">
<polygon fill="none" stroke="black" points="255,-342.5 255,-361.5 284,-361.5 284,-342.5 255,-342.5"/>
<text text-anchor="middle" x="269.5" y="-349.5" font-family="Helvetica,sans-Serif" font-size="10.00">fail</text>
</a>
</g>
</g>
<!-- Node4&#45;&gt;Node28 -->
<g id="edge27" class="edge">
<title>Node4&#45;&gt;Node28</title>
<path fill="none" stroke="midnightblue" d="M172.8,-323.59C195.38,-330.29 225,-339.09 245.27,-345.1"/>
<polygon fill="midnightblue" stroke="midnightblue" points="244.35,-348.48 254.93,-347.97 246.34,-341.77 244.35,-348.48"/>
</g>
<!-- Node8 -->
<g id="node8" class="node">
<title>Node8</title>
<g id="a_node8"><a xlink:href="gpu_8c.html#a8671032d771362f684c8ee31cad0ed02" target="_top" xlink:title=" ">
<polygon fill="none" stroke="black" points="350,-228.5 350,-247.5 421,-247.5 421,-228.5 350,-228.5"/>
<text text-anchor="middle" x="385.5" y="-235.5" font-family="Helvetica,sans-Serif" font-size="10.00">texture_sync</text>
</a>
</g>
</g>
<!-- Node7&#45;&gt;Node8 -->
<g id="edge7" class="edge">
<title>Node7&#45;&gt;Node8</title>
<path fill="none" stroke="midnightblue" d="M309.73,-238C319.39,-238 329.8,-238 339.7,-238"/>
<polygon fill="midnightblue" stroke="midnightblue" points="339.77,-241.5 349.77,-238 339.77,-234.5 339.77,-241.5"/>
</g>
<!-- Node10 -->
<g id="node10" class="node">
<title>Node10</title>
<g id="a_node10"><a xlink:href="input_8c.html#a77413c19d2c314aba317257b3cafb1c7" target="_top" xlink:title=" ">
<polygon fill="none" stroke="black" points="349,-418.5 349,-437.5 422,-437.5 422,-418.5 349,-418.5"/>
<text text-anchor="middle" x="385.5" y="-425.5" font-family="Helvetica,sans-Serif" font-size="10.00">event_thread</text>
</a>
</g>
</g>
<!-- Node9&#45;&gt;Node10 -->
<g id="edge9" class="edge">
<title>Node9&#45;&gt;Node10</title>
<path fill="none" stroke="midnightblue" d="M312.3,-428C320.89,-428 329.97,-428 338.69,-428"/>
<polygon fill="midnightblue" stroke="midnightblue" points="338.71,-431.5 348.71,-428 338.71,-424.5 338.71,-431.5"/>
</g>
<!-- Node11 -->
<g id="node11" class="node">
<title>Node11</title>
<g id="a_node11"><a xlink:href="platform_8c.html#ac9a72275bbb5c5a92fdd21dfb051b5d4" target="_top" xlink:title=" ">
<polygon fill="none" stroke="black" points="458,-418.5 458,-437.5 565,-437.5 565,-418.5 458,-418.5"/>
<text text-anchor="middle" x="511.5" y="-425.5" font-family="Helvetica,sans-Serif" font-size="10.00">__am_send_kbd_intr</text>
</a>
</g>
</g>
<!-- Node10&#45;&gt;Node11 -->
<g id="edge10" class="edge">
<title>Node10&#45;&gt;Node11</title>
<path fill="none" stroke="midnightblue" d="M422.03,-428C430.06,-428 438.81,-428 447.59,-428"/>
<polygon fill="midnightblue" stroke="midnightblue" points="447.86,-431.5 457.86,-428 447.86,-424.5 447.86,-431.5"/>
</g>
<!-- Node12 -->
<g id="node12" class="node">
<title>Node12</title>
<g id="a_node12"><a xlink:href="x86_2qemu_2trm_8c.html#a483cb97188e557c3c68d3a1572c2cc92" target="_top" xlink:title=" ">
<polygon fill="none" stroke="black" points="495.5,-380.5 495.5,-399.5 527.5,-399.5 527.5,-380.5 495.5,-380.5"/>
<text text-anchor="middle" x="511.5" y="-387.5" font-family="Helvetica,sans-Serif" font-size="10.00">halt</text>
</a>
</g>
</g>
<!-- Node10&#45;&gt;Node12 -->
<g id="edge11" class="edge">
<title>Node10&#45;&gt;Node12</title>
<path fill="none" stroke="midnightblue" d="M417.79,-418.41C438.83,-411.96 466.19,-403.58 485.72,-397.59"/>
<polygon fill="midnightblue" stroke="midnightblue" points="486.88,-400.9 495.41,-394.62 484.82,-394.21 486.88,-400.9"/>
</g>
<!-- Node13 -->
<g id="node13" class="node">
<title>Node13</title>
<g id="a_node13"><a xlink:href="platform_8c.html#a66cf43dfc7e13b3775d6d2040722da59" target="_top" xlink:title=" ">
<polygon fill="none" stroke="black" points="606.5,-266.5 606.5,-285.5 707.5,-285.5 707.5,-266.5 606.5,-266.5"/>
<text text-anchor="middle" x="657" y="-273.5" font-family="Helvetica,sans-Serif" font-size="10.00">__am_exit_platform</text>
</a>
</g>
</g>
<!-- Node12&#45;&gt;Node13 -->
<g id="edge12" class="edge">
<title>Node12&#45;&gt;Node13</title>
<path fill="none" stroke="midnightblue" d="M518.9,-380.47C532.09,-361.54 564.15,-318.97 601,-295 604.1,-292.98 607.45,-291.15 610.9,-289.5"/>
<polygon fill="midnightblue" stroke="midnightblue" points="612.37,-292.67 620.19,-285.52 609.62,-286.24 612.37,-292.67"/>
</g>
<!-- Node15 -->
<g id="node15" class="node">
<title>Node15</title>
<g id="a_node15"><a xlink:href="x86_2qemu_2mpe_8c.html#a0a540532023afb1f31b6f21ce053483b" target="_top" xlink:title=" ">
<polygon fill="none" stroke="black" points="601,-228.5 601,-247.5 713,-247.5 713,-228.5 601,-228.5"/>
<text text-anchor="middle" x="657" y="-235.5" font-family="Helvetica,sans-Serif" font-size="10.00">__am_stop_the_world</text>
</a>
</g>
</g>
<!-- Node12&#45;&gt;Node15 -->
<g id="edge14" class="edge">
<title>Node12&#45;&gt;Node15</title>
<path fill="none" stroke="midnightblue" d="M516.28,-380.41C526.33,-356.14 556.02,-291.78 601,-257 603.32,-255.2 605.83,-253.57 608.44,-252.09"/>
<polygon fill="midnightblue" stroke="midnightblue" points="610.2,-255.12 617.65,-247.6 607.13,-248.83 610.2,-255.12"/>
</g>
<!-- Node21 -->
<g id="node21" class="node">
<title>Node21</title>
<g id="a_node21"><a xlink:href="x86_8h.html#acc919e7809ef1db2b20aa3804f540b5c" target="_top" xlink:title=" ">
<polygon fill="none" stroke="black" points="642.5,-494.5 642.5,-513.5 671.5,-513.5 671.5,-494.5 642.5,-494.5"/>
<text text-anchor="middle" x="657" y="-501.5" font-family="Helvetica,sans-Serif" font-size="10.00">cli</text>
</a>
</g>
</g>
<!-- Node12&#45;&gt;Node21 -->
<g id="edge20" class="edge">
<title>Node12&#45;&gt;Node21</title>
<path fill="none" stroke="midnightblue" d="M527.92,-392.34C539.35,-394.77 554.67,-399.61 565,-409 592.66,-434.14 573.16,-460.06 601,-485 609.69,-492.79 621.74,-497.41 632.34,-500.15"/>
<polygon fill="midnightblue" stroke="midnightblue" points="631.77,-503.61 642.28,-502.3 633.25,-496.76 631.77,-503.61"/>
</g>
<!-- Node22 -->
<g id="node22" class="node">
<title>Node22</title>
<g id="a_node22"><a xlink:href="x86_2qemu_2mpe_8c.html#ab701de78cad32896c923ce900087e714" target="_top" xlink:title=" ">
<polygon fill="none" stroke="black" points="623,-456.5 623,-475.5 691,-475.5 691,-456.5 623,-456.5"/>
<text text-anchor="middle" x="657" y="-463.5" font-family="Helvetica,sans-Serif" font-size="10.00">cpu_current</text>
</a>
</g>
</g>
<!-- Node12&#45;&gt;Node22 -->
<g id="edge21" class="edge">
<title>Node12&#45;&gt;Node22</title>
<path fill="none" stroke="midnightblue" d="M527.61,-393.46C538.59,-396.44 553.49,-401.46 565,-409 584.46,-421.75 581.45,-434.4 601,-447 604.83,-449.47 609.02,-451.66 613.32,-453.59"/>
<polygon fill="midnightblue" stroke="midnightblue" points="612.23,-456.92 622.81,-457.41 614.84,-450.43 612.23,-456.92"/>
</g>
<!-- Node23 -->
<g id="node23" class="node">
<title>Node23</title>
<g id="a_node23"><a xlink:href="x86_8h.html#a2adfe40c0aadff727889d263815cb8ed" target="_top" xlink:title=" ">
<polygon fill="none" stroke="black" points="642.5,-418.5 642.5,-437.5 671.5,-437.5 671.5,-418.5 642.5,-418.5"/>
<text text-anchor="middle" x="657" y="-425.5" font-family="Helvetica,sans-Serif" font-size="10.00">hlt</text>
</a>
</g>
</g>
<!-- Node12&#45;&gt;Node23 -->
<g id="edge22" class="edge">
<title>Node12&#45;&gt;Node23</title>
<path fill="none" stroke="midnightblue" d="M527.59,-393.99C552.58,-400.61 602.76,-413.9 632.45,-421.76"/>
<polygon fill="midnightblue" stroke="midnightblue" points="631.82,-425.22 642.38,-424.39 633.61,-418.45 631.82,-425.22"/>
</g>
<!-- Node24 -->
<g id="node24" class="node">
<title>Node24</title>
<g id="a_node24"><a xlink:href="x86_8h.html#af92fc55c49437b9152499a13ba2b6585" target="_top" xlink:title=" ">
<polygon fill="none" stroke="black" points="638,-380.5 638,-399.5 676,-399.5 676,-380.5 638,-380.5"/>
<text text-anchor="middle" x="657" y="-387.5" font-family="Helvetica,sans-Serif" font-size="10.00">outw</text>
</a>
</g>
</g>
<!-- Node12&#45;&gt;Node24 -->
<g id="edge23" class="edge">
<title>Node12&#45;&gt;Node24</title>
<path fill="none" stroke="midnightblue" d="M527.59,-390C551.3,-390 597.68,-390 627.73,-390"/>
<polygon fill="midnightblue" stroke="midnightblue" points="627.99,-393.5 637.99,-390 627.99,-386.5 627.99,-393.5"/>
</g>
<!-- Node25 -->
<g id="node25" class="node">
<title>Node25</title>
<g id="a_node25"><a xlink:href="stdio_8c.html#a55f3d956bb2ba20b5059e9e25484a47f" target="_top" xlink:title=" ">
<polygon fill="none" stroke="black" points="638,-342.5 638,-361.5 676,-361.5 676,-342.5 638,-342.5"/>
<text text-anchor="middle" x="657" y="-349.5" font-family="Helvetica,sans-Serif" font-size="10.00">printf</text>
</a>
</g>
</g>
<!-- Node12&#45;&gt;Node25 -->
<g id="edge24" class="edge">
<title>Node12&#45;&gt;Node25</title>
<path fill="none" stroke="midnightblue" d="M527.59,-386.01C551.4,-379.7 598.09,-367.34 628.13,-359.38"/>
<polygon fill="midnightblue" stroke="midnightblue" points="629.22,-362.71 637.99,-356.77 627.43,-355.95 629.22,-362.71"/>
</g>
<!-- Node26 -->
<g id="node26" class="node">
<title>Node26</title>
<g id="a_node26"><a xlink:href="native_2trm_8c.html#a6351d8706733262e7e325926b1a9aab7" target="_top" xlink:title=" ">
<polygon fill="none" stroke="black" points="636.5,-304.5 636.5,-323.5 677.5,-323.5 677.5,-304.5 636.5,-304.5"/>
<text text-anchor="middle" x="657" y="-311.5" font-family="Helvetica,sans-Serif" font-size="10.00">putch</text>
</a>
</g>
</g>
<!-- Node12&#45;&gt;Node26 -->
<g id="edge25" class="edge">
<title>Node12&#45;&gt;Node26</title>
<path fill="none" stroke="midnightblue" d="M525.12,-380.48C541.79,-368.24 572.4,-346.9 601,-333 609.16,-329.03 618.37,-325.51 626.88,-322.61"/>
<polygon fill="midnightblue" stroke="midnightblue" points="628.03,-325.92 636.46,-319.5 625.86,-319.26 628.03,-325.92"/>
</g>
<!-- Node14 -->
<g id="node14" class="node">
<title>Node14</title>
<g id="a_node14"><a xlink:href="x86_2qemu_2mpe_8c.html#af486ec575d47720d28eee63644206110" target="_top" xlink:title=" ">
<polygon fill="none" stroke="black" points="768.5,-266.5 768.5,-285.5 830.5,-285.5 830.5,-266.5 768.5,-266.5"/>
<text text-anchor="middle" x="799.5" y="-273.5" font-family="Helvetica,sans-Serif" font-size="10.00">cpu_count</text>
</a>
</g>
</g>
<!-- Node13&#45;&gt;Node14 -->
<g id="edge13" class="edge">
<title>Node13&#45;&gt;Node14</title>
<path fill="none" stroke="midnightblue" d="M707.54,-276C723.97,-276 742.06,-276 757.76,-276"/>
<polygon fill="midnightblue" stroke="midnightblue" points="758.19,-279.5 768.19,-276 758.19,-272.5 758.19,-279.5"/>
</g>
<!-- Node15&#45;&gt;Node16 -->
<g id="edge15" class="edge">
<title>Node15&#45;&gt;Node16</title>
<path fill="none" stroke="midnightblue" d="M693.45,-228.41C711.59,-223.51 733.87,-217.48 753.23,-212.24"/>
<polygon fill="midnightblue" stroke="midnightblue" points="754.32,-215.58 763.06,-209.59 752.49,-208.82 754.32,-215.58"/>
</g>
<!-- Node15&#45;&gt;Node19 -->
<g id="edge18" class="edge">
<title>Node15&#45;&gt;Node19</title>
<path fill="none" stroke="midnightblue" d="M671.39,-228.45C688.73,-216.37 720.15,-195.41 749,-181 753,-179 757.26,-177.08 761.55,-175.28"/>
<polygon fill="midnightblue" stroke="midnightblue" points="762.89,-178.51 770.86,-171.53 760.28,-172.01 762.89,-178.51"/>
</g>
<!-- Node20 -->
<g id="node20" class="node">
<title>Node20</title>
<g id="a_node20"><a xlink:href="native_2mpe_8c.html#a806195bfb27a695274680a7ab6400663" target="_top" xlink:title=" ">
<polygon fill="none" stroke="black" points="765.5,-228.5 765.5,-247.5 833.5,-247.5 833.5,-228.5 765.5,-228.5"/>
<text text-anchor="middle" x="799.5" y="-235.5" font-family="Helvetica,sans-Serif" font-size="10.00">cpu_current</text>
</a>
</g>
</g>
<!-- Node15&#45;&gt;Node20 -->
<g id="edge19" class="edge">
<title>Node15&#45;&gt;Node20</title>
<path fill="none" stroke="midnightblue" d="M713.13,-238C727.08,-238 741.87,-238 755.14,-238"/>
<polygon fill="midnightblue" stroke="midnightblue" points="755.42,-241.5 765.42,-238 755.42,-234.5 755.42,-241.5"/>
</g>
<!-- Node17 -->
<g id="node17" class="node">
<title>Node17</title>
<g id="a_node17"><a xlink:href="x86_2qemu_2ioe_8c.html#a72d9ed0bfe1066367763e044b7a7b7c3" target="_top" xlink:title=" ">
<polygon fill="none" stroke="black" points="886,-209.5 886,-228.5 930,-228.5 930,-209.5 886,-209.5"/>
<text text-anchor="middle" x="908" y="-216.5" font-family="Helvetica,sans-Serif" font-size="10.00">lapicw</text>
</a>
</g>
</g>
<!-- Node16&#45;&gt;Node17 -->
<g id="edge16" class="edge">
<title>Node16&#45;&gt;Node17</title>
<path fill="none" stroke="midnightblue" d="M850.01,-208.83C858.77,-210.4 867.67,-211.98 875.75,-213.42"/>
<polygon fill="midnightblue" stroke="midnightblue" points="875.36,-216.91 885.82,-215.22 876.59,-210.02 875.36,-216.91"/>
</g>
<!-- Node18 -->
<g id="node18" class="node">
<title>Node18</title>
<g id="a_node18"><a xlink:href="x86_8h.html#ade961b44e45ddacbc3c3b7609cf36dc6" target="_top" xlink:title=" ">
<polygon fill="none" stroke="black" points="890.5,-171.5 890.5,-190.5 925.5,-190.5 925.5,-171.5 890.5,-171.5"/>
<text text-anchor="middle" x="908" y="-178.5" font-family="Helvetica,sans-Serif" font-size="10.00">outb</text>
</a>
</g>
</g>
<!-- Node16&#45;&gt;Node18 -->
<g id="edge17" class="edge">
<title>Node16&#45;&gt;Node18</title>
<path fill="none" stroke="midnightblue" d="M850.01,-191.17C860.47,-189.3 871.13,-187.4 880.35,-185.75"/>
<polygon fill="midnightblue" stroke="midnightblue" points="881.2,-189.16 890.43,-183.96 879.97,-182.27 881.2,-189.16"/>
</g>
</g>
</svg>
