<?xml version="1.0" encoding="UTF-8" standalone="no"?>
<!DOCTYPE svg PUBLIC "-//W3C//DTD SVG 1.1//EN"
 "http://www.w3.org/Graphics/SVG/1.1/DTD/svg11.dtd">
<!-- Generated by graphviz version 3.0.0 (20220413.0106)
 -->
<!-- Title: xchg Pages: 1 -->
<svg width="815pt" height="368pt"
 viewBox="0.00 0.00 815.00 367.60" xmlns="http://www.w3.org/2000/svg" xmlns:xlink="http://www.w3.org/1999/xlink">
<g id="graph0" class="graph" transform="scale(1 1) rotate(0) translate(4 363.6)">
<title>xchg</title>
<!-- Node1 -->
<g id="node1" class="node">
<title>Node1</title>
<g id="a_node1"><a xlink:title=" ">
<polygon fill="#bfbfbf" stroke="black" points="770,-124.5 770,-143.5 807,-143.5 807,-124.5 770,-124.5"/>
<text text-anchor="middle" x="788.5" y="-131.5" font-family="Helvetica,sans-Serif" font-size="10.00">xchg</text>
</a>
</g>
</g>
<!-- Node2 -->
<g id="node2" class="node">
<title>Node2</title>
<g id="a_node2"><a xlink:href="mpe_8c.html#aaaad47c97c82065cf463f83b98b23c30" target="_top" xlink:title=" ">
<polygon fill="none" stroke="black" points="658.5,-167.5 658.5,-186.5 729.5,-186.5 729.5,-167.5 658.5,-167.5"/>
<text text-anchor="middle" x="694" y="-174.5" font-family="Helvetica,sans-Serif" font-size="10.00">atomic_xchg</text>
</a>
</g>
</g>
<!-- Node1&#45;&gt;Node2 -->
<g id="edge1" class="edge">
<title>Node1&#45;&gt;Node2</title>
<path fill="none" stroke="midnightblue" d="M760.34,-146.62C746.07,-153.26 728.86,-161.26 715.69,-167.38"/>
<polygon fill="midnightblue" stroke="midnightblue" points="762.07,-149.68 769.67,-142.29 759.12,-143.33 762.07,-149.68"/>
</g>
<!-- Node16 -->
<g id="node16" class="node">
<title>Node16</title>
<g id="a_node16"><a xlink:href="mpe_8c.html#a2e4a724e2d067425ff3fd49bc0bf42e1" target="_top" xlink:title=" ">
<polygon fill="none" stroke="black" points="667.5,-124.5 667.5,-143.5 720.5,-143.5 720.5,-124.5 667.5,-124.5"/>
<text text-anchor="middle" x="694" y="-131.5" font-family="Helvetica,sans-Serif" font-size="10.00">mpe_init</text>
</a>
</g>
</g>
<!-- Node1&#45;&gt;Node16 -->
<g id="edge23" class="edge">
<title>Node1&#45;&gt;Node16</title>
<path fill="none" stroke="midnightblue" d="M759.5,-134C747.2,-134 732.86,-134 720.83,-134"/>
<polygon fill="midnightblue" stroke="midnightblue" points="759.67,-137.5 769.67,-134 759.67,-130.5 759.67,-137.5"/>
</g>
<!-- Node18 -->
<g id="node18" class="node">
<title>Node18</title>
<g id="a_node18"><a xlink:href="mpe_8c.html#aec8f7f25be4263648b704092672a566b" target="_top" xlink:title=" ">
<polygon fill="none" stroke="black" points="654,-67.5 654,-86.5 734,-86.5 734,-67.5 654,-67.5"/>
<text text-anchor="middle" x="694" y="-74.5" font-family="Helvetica,sans-Serif" font-size="10.00">othercpu_entry</text>
</a>
</g>
</g>
<!-- Node1&#45;&gt;Node18 -->
<g id="edge25" class="edge">
<title>Node1&#45;&gt;Node18</title>
<path fill="none" stroke="midnightblue" d="M763.12,-118.98C746.44,-108.7 724.82,-95.38 710.46,-86.53"/>
<polygon fill="midnightblue" stroke="midnightblue" points="761.46,-122.06 771.81,-124.33 765.13,-116.1 761.46,-122.06"/>
</g>
<!-- Node3 -->
<g id="node3" class="node">
<title>Node3</title>
<g id="a_node3"><a xlink:href="spinlock_8c.html#ab6f3c37ec37006951feccc3c05387cce" target="_top" xlink:title="acquire spinlock to current cpu">
<polygon fill="none" stroke="black" points="534,-171.5 534,-190.5 592,-190.5 592,-171.5 534,-171.5"/>
<text text-anchor="middle" x="563" y="-178.5" font-family="Helvetica,sans-Serif" font-size="10.00">spin_lock</text>
</a>
</g>
</g>
<!-- Node2&#45;&gt;Node3 -->
<g id="edge2" class="edge">
<title>Node2&#45;&gt;Node3</title>
<path fill="none" stroke="midnightblue" d="M648.36,-178.38C629.7,-178.96 608.58,-179.62 592.14,-180.13"/>
<polygon fill="midnightblue" stroke="midnightblue" points="648.54,-181.88 658.43,-178.07 648.33,-174.88 648.54,-181.88"/>
</g>
<!-- Node4 -->
<g id="node4" class="node">
<title>Node4</title>
<g id="a_node4"><a xlink:href="kmt_8c.html#af9c485ce0d89d6624e6e80e31d8ed207" target="_top" xlink:title="handler: save context to current task">
<polygon fill="none" stroke="black" points="233,-190.5 233,-209.5 329,-209.5 329,-190.5 233,-190.5"/>
<text text-anchor="middle" x="281" y="-197.5" font-family="Helvetica,sans-Serif" font-size="10.00">kmt_context_save</text>
</a>
</g>
</g>
<!-- Node3&#45;&gt;Node4 -->
<g id="edge3" class="edge">
<title>Node3&#45;&gt;Node4</title>
<path fill="none" stroke="midnightblue" d="M523.67,-183.6C473.03,-187.04 383.84,-193.09 329.13,-196.8"/>
<polygon fill="midnightblue" stroke="midnightblue" points="524.13,-187.08 533.87,-182.91 523.66,-180.09 524.13,-187.08"/>
</g>
<!-- Node6 -->
<g id="node6" class="node">
<title>Node6</title>
<g id="a_node6"><a xlink:href="kmt_8c.html#af360ef0d98ca30e481cc58ea3695fd58" target="_top" xlink:title=" ">
<polygon fill="none" stroke="black" points="0,-190.5 0,-209.5 83,-209.5 83,-190.5 0,-190.5"/>
<text text-anchor="middle" x="41.5" y="-197.5" font-family="Helvetica,sans-Serif" font-size="10.00">MODULE_DEF</text>
</a>
</g>
</g>
<!-- Node3&#45;&gt;Node6 -->
<g id="edge20" class="edge">
<title>Node3&#45;&gt;Node6</title>
<path fill="none" stroke="midnightblue" d="M523.85,-192.06C507.94,-196.33 489.19,-200.92 472,-204 367.24,-222.78 339.3,-224.29 233,-219 181.21,-216.42 121.8,-209.93 83.29,-205.25"/>
<polygon fill="midnightblue" stroke="midnightblue" points="525.14,-195.34 533.86,-189.32 523.29,-188.58 525.14,-195.34"/>
</g>
<!-- Node7 -->
<g id="node7" class="node">
<title>Node7</title>
<g id="a_node7"><a xlink:href="kmt_8c.html#a5ddb8743298012e84cf9cb5faf22212b" target="_top" xlink:title="create thread">
<polygon fill="none" stroke="black" points="125.5,-76.5 125.5,-95.5 190.5,-95.5 190.5,-76.5 125.5,-76.5"/>
<text text-anchor="middle" x="158" y="-83.5" font-family="Helvetica,sans-Serif" font-size="10.00">kmt_create</text>
</a>
</g>
</g>
<!-- Node3&#45;&gt;Node7 -->
<g id="edge6" class="edge">
<title>Node3&#45;&gt;Node7</title>
<path fill="none" stroke="midnightblue" d="M527.08,-166.78C520.24,-162.97 513.5,-158.38 508,-153 484.13,-129.62 500.7,-104.1 472,-87 381.9,-33.32 249.75,-60.01 190.17,-76.4"/>
<polygon fill="midnightblue" stroke="midnightblue" points="525.84,-170.08 536.35,-171.49 529.02,-163.84 525.84,-170.08"/>
</g>
<!-- Node8 -->
<g id="node8" class="node">
<title>Node8</title>
<g id="a_node8"><a xlink:href="kmt_8c.html#a0ac321d3074b24b276695a080e835866" target="_top" xlink:title="print all tasks notice: do not garantee concurrency safety">
<polygon fill="none" stroke="black" points="368,-152.5 368,-171.5 469,-171.5 469,-152.5 368,-152.5"/>
<text text-anchor="middle" x="418.5" y="-159.5" font-family="Helvetica,sans-Serif" font-size="10.00">kmt_print_all_tasks</text>
</a>
</g>
</g>
<!-- Node3&#45;&gt;Node8 -->
<g id="edge8" class="edge">
<title>Node3&#45;&gt;Node8</title>
<path fill="none" stroke="midnightblue" d="M523.85,-175.91C507.08,-173.68 487.15,-171.02 469.23,-168.63"/>
<polygon fill="midnightblue" stroke="midnightblue" points="523.47,-179.39 533.85,-177.25 524.4,-172.46 523.47,-179.39"/>
</g>
<!-- Node10 -->
<g id="node10" class="node">
<title>Node10</title>
<g id="a_node10"><a xlink:href="kmt_8c.html#ad4d70b4093829da1c0b0631abdff7747" target="_top" xlink:title="handler: schedule next task to run Notice: this should be the only handler which returns real Context">
<polygon fill="none" stroke="black" points="242.5,-114.5 242.5,-133.5 319.5,-133.5 319.5,-114.5 242.5,-114.5"/>
<text text-anchor="middle" x="281" y="-121.5" font-family="Helvetica,sans-Serif" font-size="10.00">kmt_schedule</text>
</a>
</g>
</g>
<!-- Node3&#45;&gt;Node10 -->
<g id="edge16" class="edge">
<title>Node3&#45;&gt;Node10</title>
<path fill="none" stroke="midnightblue" d="M528.91,-166.84C521.63,-162.92 514.23,-158.28 508,-153 487.65,-135.76 495.85,-116.93 472,-105 416.7,-77.35 341.13,-100.07 304.18,-114.45"/>
<polygon fill="midnightblue" stroke="midnightblue" points="527.48,-170.03 537.99,-171.39 530.62,-163.78 527.48,-170.03"/>
</g>
<!-- Node11 -->
<g id="node11" class="node">
<title>Node11</title>
<g id="a_node11"><a xlink:href="kmt_8c.html#ac69761d0146d9aacda65da757868d3c7" target="_top" xlink:title="print all current_tasks notice: do not garantee concurrency safety">
<polygon fill="none" stroke="black" points="365,-114.5 365,-133.5 472,-133.5 472,-114.5 365,-114.5"/>
<text text-anchor="middle" x="418.5" y="-121.5" font-family="Helvetica,sans-Serif" font-size="10.00">kmt_print_cpu_tasks</text>
</a>
</g>
</g>
<!-- Node3&#45;&gt;Node11 -->
<g id="edge13" class="edge">
<title>Node3&#45;&gt;Node11</title>
<path fill="none" stroke="midnightblue" d="M530.74,-167.33C513.5,-159.91 491.67,-150.71 472,-143 463.88,-139.82 454.98,-136.52 446.85,-133.59"/>
<polygon fill="midnightblue" stroke="midnightblue" points="529.74,-170.71 540.31,-171.46 532.52,-164.28 529.74,-170.71"/>
</g>
<!-- Node12 -->
<g id="node12" class="node">
<title>Node12</title>
<g id="a_node12"><a xlink:href="kmt_8c.html#a47d8887c87041abd5ea3148232b65c93" target="_top" xlink:title="tear down a thread">
<polygon fill="none" stroke="black" points="119,-304.5 119,-323.5 197,-323.5 197,-304.5 119,-304.5"/>
<text text-anchor="middle" x="158" y="-311.5" font-family="Helvetica,sans-Serif" font-size="10.00">kmt_teardown</text>
</a>
</g>
</g>
<!-- Node3&#45;&gt;Node12 -->
<g id="edge17" class="edge">
<title>Node3&#45;&gt;Node12</title>
<path fill="none" stroke="midnightblue" d="M557.16,-200.62C547.54,-234.77 522.49,-304.22 472,-333 376.7,-387.33 237.51,-344.36 182.56,-323.6"/>
<polygon fill="midnightblue" stroke="midnightblue" points="560.56,-201.43 559.75,-190.87 553.8,-199.64 560.56,-201.43"/>
</g>
<!-- Node13 -->
<g id="node13" class="node">
<title>Node13</title>
<g id="a_node13"><a xlink:href="kernel_8h.html#a7ef2d722f9c7f8acc1801144a5188825" target="_top" xlink:title=" ">
<polygon fill="none" stroke="black" points="389,-304.5 389,-323.5 448,-323.5 448,-304.5 389,-304.5"/>
<text text-anchor="middle" x="418.5" y="-311.5" font-family="Helvetica,sans-Serif" font-size="10.00">MODULE</text>
</a>
</g>
</g>
<!-- Node3&#45;&gt;Node13 -->
<g id="edge19" class="edge">
<title>Node3&#45;&gt;Node13</title>
<path fill="none" stroke="midnightblue" d="M551.81,-199.59C537.22,-224.61 508.11,-268.95 472,-295 464.92,-300.1 456.34,-303.97 448.17,-306.83"/>
<polygon fill="midnightblue" stroke="midnightblue" points="554.94,-201.17 556.84,-190.74 548.86,-197.71 554.94,-201.17"/>
</g>
<!-- Node14 -->
<g id="node14" class="node">
<title>Node14</title>
<g id="a_node14"><a xlink:href="os_8c.html#a2be1c9facb49d4439f41b1537d0f3ef8" target="_top" xlink:title="System trap entry.">
<polygon fill="none" stroke="black" points="394,-266.5 394,-285.5 443,-285.5 443,-266.5 394,-266.5"/>
<text text-anchor="middle" x="418.5" y="-273.5" font-family="Helvetica,sans-Serif" font-size="10.00">os_trap</text>
</a>
</g>
</g>
<!-- Node3&#45;&gt;Node14 -->
<g id="edge21" class="edge">
<title>Node3&#45;&gt;Node14</title>
<path fill="none" stroke="midnightblue" d="M543.8,-197.51C526.26,-212.87 498.56,-235.77 472,-252 462.93,-257.54 452.38,-262.6 443.11,-266.64"/>
<polygon fill="midnightblue" stroke="midnightblue" points="546.38,-199.89 551.54,-190.63 541.73,-194.66 546.38,-199.89"/>
</g>
<!-- Node5 -->
<g id="node5" class="node">
<title>Node5</title>
<g id="a_node5"><a xlink:href="kmt_8c.html#a0c68a294cecc4be7cb4b495f15b883a0" target="_top" xlink:title="initialize kmt module">
<polygon fill="none" stroke="black" points="132.5,-171.5 132.5,-190.5 183.5,-190.5 183.5,-171.5 132.5,-171.5"/>
<text text-anchor="middle" x="158" y="-178.5" font-family="Helvetica,sans-Serif" font-size="10.00">kmt_init</text>
</a>
</g>
</g>
<!-- Node4&#45;&gt;Node5 -->
<g id="edge4" class="edge">
<title>Node4&#45;&gt;Node5</title>
<path fill="none" stroke="midnightblue" d="M222.87,-191.03C209.02,-188.85 194.94,-186.64 183.53,-184.85"/>
<polygon fill="midnightblue" stroke="midnightblue" points="222.45,-194.51 232.87,-192.6 223.54,-187.59 222.45,-194.51"/>
</g>
<!-- Node5&#45;&gt;Node6 -->
<g id="edge5" class="edge">
<title>Node5&#45;&gt;Node6</title>
<path fill="none" stroke="midnightblue" d="M122.51,-186.72C110.14,-188.78 96.08,-191.11 83.24,-193.24"/>
<polygon fill="midnightblue" stroke="midnightblue" points="123.14,-190.17 132.44,-185.08 122,-183.26 123.14,-190.17"/>
</g>
<!-- Node7&#45;&gt;Node6 -->
<g id="edge7" class="edge">
<title>Node7&#45;&gt;Node6</title>
<path fill="none" stroke="midnightblue" d="M140.09,-102.83C115.78,-127.04 71.74,-170.89 52.24,-190.31"/>
<polygon fill="midnightblue" stroke="midnightblue" points="142.62,-105.26 147.24,-95.72 137.68,-100.29 142.62,-105.26"/>
</g>
<!-- Node9 -->
<g id="node9" class="node">
<title>Node9</title>
<g id="a_node9"><a xlink:href="kmt_8c.html#ad3fbc643b7b6092120c5152b4c890354" target="_top" xlink:title="handler: handle program errors">
<polygon fill="none" stroke="black" points="252,-152.5 252,-171.5 310,-171.5 310,-152.5 252,-152.5"/>
<text text-anchor="middle" x="281" y="-159.5" font-family="Helvetica,sans-Serif" font-size="10.00">kmt_error</text>
</a>
</g>
</g>
<!-- Node8&#45;&gt;Node9 -->
<g id="edge9" class="edge">
<title>Node8&#45;&gt;Node9</title>
<path fill="none" stroke="midnightblue" d="M357.61,-162C341.04,-162 323.82,-162 310.02,-162"/>
<polygon fill="midnightblue" stroke="midnightblue" points="357.81,-165.5 367.81,-162 357.81,-158.5 357.81,-165.5"/>
</g>
<!-- Node8&#45;&gt;Node10 -->
<g id="edge11" class="edge">
<title>Node8&#45;&gt;Node10</title>
<path fill="none" stroke="midnightblue" d="M373.58,-149.68C354.96,-144.46 333.59,-138.47 316.18,-133.59"/>
<polygon fill="midnightblue" stroke="midnightblue" points="372.73,-153.08 383.31,-152.41 374.62,-146.34 372.73,-153.08"/>
</g>
<!-- Node9&#45;&gt;Node5 -->
<g id="edge10" class="edge">
<title>Node9&#45;&gt;Node5</title>
<path fill="none" stroke="midnightblue" d="M242.05,-167.96C222.98,-170.95 200.42,-174.5 183.63,-177.13"/>
<polygon fill="midnightblue" stroke="midnightblue" points="242.6,-171.42 251.94,-166.41 241.51,-164.5 242.6,-171.42"/>
</g>
<!-- Node10&#45;&gt;Node5 -->
<g id="edge12" class="edge">
<title>Node10&#45;&gt;Node5</title>
<path fill="none" stroke="midnightblue" d="M245.67,-137.46C241.38,-139.26 237.07,-141.14 233,-143 213.3,-152.02 191.28,-163.51 176.42,-171.49"/>
<polygon fill="midnightblue" stroke="midnightblue" points="247.03,-140.69 254.94,-133.64 244.36,-134.21 247.03,-140.69"/>
</g>
<!-- Node11&#45;&gt;Node9 -->
<g id="edge14" class="edge">
<title>Node11&#45;&gt;Node9</title>
<path fill="none" stroke="midnightblue" d="M373.43,-136.36C352.66,-142.18 328.51,-148.96 310.24,-154.08"/>
<polygon fill="midnightblue" stroke="midnightblue" points="374.62,-139.66 383.31,-133.59 372.73,-132.92 374.62,-139.66"/>
</g>
<!-- Node11&#45;&gt;Node10 -->
<g id="edge15" class="edge">
<title>Node11&#45;&gt;Node10</title>
<path fill="none" stroke="midnightblue" d="M354.4,-124C342.55,-124 330.52,-124 319.75,-124"/>
<polygon fill="midnightblue" stroke="midnightblue" points="354.72,-127.5 364.72,-124 354.72,-120.5 354.72,-127.5"/>
</g>
<!-- Node12&#45;&gt;Node6 -->
<g id="edge18" class="edge">
<title>Node12&#45;&gt;Node6</title>
<path fill="none" stroke="midnightblue" d="M140.09,-297.17C115.78,-272.96 71.74,-229.11 52.24,-209.69"/>
<polygon fill="midnightblue" stroke="midnightblue" points="137.68,-299.71 147.24,-304.28 142.62,-294.74 137.68,-299.71"/>
</g>
<!-- Node15 -->
<g id="node15" class="node">
<title>Node15</title>
<g id="a_node15"><a xlink:href="os_8c.html#aafec7046aa50c914df86d0d22d4fc1d1" target="_top" xlink:title=" ">
<polygon fill="none" stroke="black" points="239.5,-266.5 239.5,-285.5 322.5,-285.5 322.5,-266.5 239.5,-266.5"/>
<text text-anchor="middle" x="281" y="-273.5" font-family="Helvetica,sans-Serif" font-size="10.00">MODULE_DEF</text>
</a>
</g>
</g>
<!-- Node14&#45;&gt;Node15 -->
<g id="edge22" class="edge">
<title>Node14&#45;&gt;Node15</title>
<path fill="none" stroke="midnightblue" d="M383.84,-276C365.29,-276 342.13,-276 322.58,-276"/>
<polygon fill="midnightblue" stroke="midnightblue" points="383.9,-279.5 393.9,-276 383.9,-272.5 383.9,-279.5"/>
</g>
<!-- Node17 -->
<g id="node17" class="node">
<title>Node17</title>
<g id="a_node17"><a xlink:href="main_8c.html#ae66f6b31b5ad750f1fe042a706a4e3d4" target="_top" xlink:title=" ">
<polygon fill="none" stroke="black" points="544,-124.5 544,-143.5 582,-143.5 582,-124.5 544,-124.5"/>
<text text-anchor="middle" x="563" y="-131.5" font-family="Helvetica,sans-Serif" font-size="10.00">main</text>
</a>
</g>
</g>
<!-- Node16&#45;&gt;Node17 -->
<g id="edge24" class="edge">
<title>Node16&#45;&gt;Node17</title>
<path fill="none" stroke="midnightblue" d="M656.92,-134C632.62,-134 601.6,-134 582.26,-134"/>
<polygon fill="midnightblue" stroke="midnightblue" points="657.21,-137.5 667.2,-134 657.2,-130.5 657.21,-137.5"/>
</g>
<!-- Node19 -->
<g id="node19" class="node">
<title>Node19</title>
<g id="a_node19"><a xlink:href="mpe_8c.html#af9524b1c09898b69d9980310682a8bea" target="_top" xlink:title=" ">
<polygon fill="none" stroke="black" points="508,-29.5 508,-48.5 618,-48.5 618,-29.5 508,-29.5"/>
<text text-anchor="middle" x="563" y="-36.5" font-family="Helvetica,sans-Serif" font-size="10.00">__am_othercpu_entry</text>
</a>
</g>
</g>
<!-- Node18&#45;&gt;Node19 -->
<g id="edge26" class="edge">
<title>Node18&#45;&gt;Node19</title>
<path fill="none" stroke="midnightblue" d="M650.45,-64.46C632.9,-59.3 612.89,-53.4 596.54,-48.59"/>
<polygon fill="midnightblue" stroke="midnightblue" points="649.87,-67.94 660.45,-67.41 651.84,-61.23 649.87,-67.94"/>
</g>
<!-- Node20 -->
<g id="node20" class="node">
<title>Node20</title>
<g id="a_node20"><a xlink:href="trm_8c.html#a54a85aeee6f6a8ef875d4cca663f9fd8" target="_top" xlink:title=" ">
<polygon fill="none" stroke="black" points="392.5,-0.5 392.5,-19.5 444.5,-19.5 444.5,-0.5 392.5,-0.5"/>
<text text-anchor="middle" x="418.5" y="-7.5" font-family="Helvetica,sans-Serif" font-size="10.00">_start_c</text>
</a>
</g>
</g>
<!-- Node19&#45;&gt;Node20 -->
<g id="edge27" class="edge">
<title>Node19&#45;&gt;Node20</title>
<path fill="none" stroke="midnightblue" d="M505.11,-27.42C484.07,-23.14 461.28,-18.5 444.51,-15.09"/>
<polygon fill="midnightblue" stroke="midnightblue" points="504.45,-30.86 514.95,-29.42 505.84,-24 504.45,-30.86"/>
</g>
</g>
</svg>
