<?xml version="1.0" encoding="UTF-8" standalone="no"?>
<!DOCTYPE svg PUBLIC "-//W3C//DTD SVG 1.1//EN"
 "http://www.w3.org/Graphics/SVG/1.1/DTD/svg11.dtd">
<!-- Generated by graphviz version 2.50.0 (20220203.2022)
 -->
<!-- Title: inl Pages: 1 -->
<svg width="564pt" height="123pt"
 viewBox="0.00 0.00 564.00 123.00" xmlns="http://www.w3.org/2000/svg" xmlns:xlink="http://www.w3.org/1999/xlink">
<g id="graph0" class="graph" transform="scale(1 1) rotate(0) translate(4 119)">
<title>inl</title>
<!-- Node1 -->
<g id="node1" class="node">
<title>Node1</title>
<g id="a_node1"><a xlink:title=" ">
<polygon fill="#bfbfbf" stroke="black" points="527,-76.5 527,-95.5 556,-95.5 556,-76.5 527,-76.5"/>
<text text-anchor="middle" x="541.5" y="-83.5" font-family="Helvetica,sans-Serif" font-size="10.00">inl</text>
</a>
</g>
</g>
<!-- Node2 -->
<g id="node2" class="node">
<title>Node2</title>
<g id="a_node2"><a xlink:href="x86_2qemu_2ioe_8c.html#a98996b418230bb2594578ebd944e682c" target="_top" xlink:title=" ">
<polygon fill="none" stroke="black" points="431,-95.5 431,-114.5 491,-114.5 491,-95.5 431,-95.5"/>
<text text-anchor="middle" x="461" y="-102.5" font-family="Helvetica,sans-Serif" font-size="10.00">disk_blkio</text>
</a>
</g>
</g>
<!-- Node1&#45;&gt;Node2 -->
<g id="edge1" class="edge">
<title>Node1&#45;&gt;Node2</title>
<path fill="none" stroke="midnightblue" d="M516.92,-91.71C508.81,-93.67 499.62,-95.89 491.12,-97.95"/>
<polygon fill="midnightblue" stroke="midnightblue" points="517.93,-95.06 526.83,-89.31 516.28,-88.26 517.93,-95.06"/>
</g>
<!-- Node3 -->
<g id="node3" class="node">
<title>Node3</title>
<g id="a_node3"><a xlink:href="abstract-machine_2am_2src_2x86_2qemu_2boot_2main_8c.html#a5c78005e67963b2e5e1c05b5e462f186" target="_top" xlink:title=" ">
<polygon fill="none" stroke="black" points="431.5,-57.5 431.5,-76.5 490.5,-76.5 490.5,-57.5 431.5,-57.5"/>
<text text-anchor="middle" x="461" y="-64.5" font-family="Helvetica,sans-Serif" font-size="10.00">read_disk</text>
</a>
</g>
</g>
<!-- Node1&#45;&gt;Node3 -->
<g id="edge2" class="edge">
<title>Node1&#45;&gt;Node3</title>
<path fill="none" stroke="midnightblue" d="M517.1,-80.34C508.84,-78.34 499.45,-76.06 490.79,-73.97"/>
<polygon fill="midnightblue" stroke="midnightblue" points="516.28,-83.74 526.83,-82.69 517.93,-76.94 516.28,-83.74"/>
</g>
<!-- Node4 -->
<g id="node4" class="node">
<title>Node4</title>
<g id="a_node4"><a xlink:href="abstract-machine_2am_2src_2x86_2qemu_2boot_2main_8c.html#a053d271297a51949cf46c59a997e8621" target="_top" xlink:title=" ">
<polygon fill="none" stroke="black" points="310,-57.5 310,-76.5 395,-76.5 395,-57.5 310,-57.5"/>
<text text-anchor="middle" x="352.5" y="-64.5" font-family="Helvetica,sans-Serif" font-size="10.00">copy_from_disk</text>
</a>
</g>
</g>
<!-- Node3&#45;&gt;Node4 -->
<g id="edge3" class="edge">
<title>Node3&#45;&gt;Node4</title>
<path fill="none" stroke="midnightblue" d="M421.45,-67C412.96,-67 403.94,-67 395.34,-67"/>
<polygon fill="midnightblue" stroke="midnightblue" points="421.46,-70.5 431.46,-67 421.46,-63.5 421.46,-70.5"/>
</g>
<!-- Node5 -->
<g id="node5" class="node">
<title>Node5</title>
<g id="a_node5"><a xlink:href="abstract-machine_2am_2src_2x86_2qemu_2boot_2main_8c.html#a1799aa2202da76699182c2c1654510bb" target="_top" xlink:title=" ">
<polygon fill="none" stroke="black" points="0,-38.5 0,-57.5 66,-57.5 66,-38.5 0,-38.5"/>
<text text-anchor="middle" x="33" y="-45.5" font-family="Helvetica,sans-Serif" font-size="10.00">load_kernel</text>
</a>
</g>
</g>
<!-- Node4&#45;&gt;Node5 -->
<g id="edge4" class="edge">
<title>Node4&#45;&gt;Node5</title>
<path fill="none" stroke="midnightblue" d="M299.72,-71.08C249.06,-74.11 169.85,-76.3 102,-67 88.4,-65.14 73.68,-61.27 61.43,-57.5"/>
<polygon fill="midnightblue" stroke="midnightblue" points="300.01,-74.57 309.77,-70.44 299.57,-67.58 300.01,-74.57"/>
</g>
<!-- Node6 -->
<g id="node6" class="node">
<title>Node6</title>
<g id="a_node6"><a xlink:href="abstract-machine_2am_2src_2x86_2qemu_2boot_2main_8c.html#a3113c23ca15bbe1871820f4d9ae9c015" target="_top" xlink:title=" ">
<polygon fill="none" stroke="black" points="199,-38.5 199,-57.5 274,-57.5 274,-38.5 199,-38.5"/>
<text text-anchor="middle" x="236.5" y="-45.5" font-family="Helvetica,sans-Serif" font-size="10.00">load_program</text>
</a>
</g>
</g>
<!-- Node4&#45;&gt;Node6 -->
<g id="edge5" class="edge">
<title>Node4&#45;&gt;Node6</title>
<path fill="none" stroke="midnightblue" d="M299.66,-58.36C291.01,-56.92 282.2,-55.45 274.03,-54.09"/>
<polygon fill="midnightblue" stroke="midnightblue" points="299.26,-61.84 309.7,-60.03 300.41,-54.94 299.26,-61.84"/>
</g>
<!-- Node7 -->
<g id="node7" class="node">
<title>Node7</title>
<g id="a_node7"><a xlink:href="abstract-machine_2am_2src_2x86_2qemu_2boot_2main_8c.html#af9c31bdb55074382c4ac7b48cdaf6653" target="_top" xlink:title=" ">
<polygon fill="none" stroke="black" points="102,-38.5 102,-57.5 163,-57.5 163,-38.5 102,-38.5"/>
<text text-anchor="middle" x="132.5" y="-45.5" font-family="Helvetica,sans-Serif" font-size="10.00">load_elf32</text>
</a>
</g>
</g>
<!-- Node6&#45;&gt;Node7 -->
<g id="edge6" class="edge">
<title>Node6&#45;&gt;Node7</title>
<path fill="none" stroke="midnightblue" d="M188.82,-48C180.07,-48 171.14,-48 163.08,-48"/>
<polygon fill="midnightblue" stroke="midnightblue" points="188.96,-51.5 198.96,-48 188.96,-44.5 188.96,-51.5"/>
</g>
<!-- Node8 -->
<g id="node8" class="node">
<title>Node8</title>
<g id="a_node8"><a xlink:href="abstract-machine_2am_2src_2x86_2qemu_2boot_2main_8c.html#a64c8b07ebf7ef54bc8c4f300db46716e" target="_top" xlink:title=" ">
<polygon fill="none" stroke="black" points="102,-0.5 102,-19.5 163,-19.5 163,-0.5 102,-0.5"/>
<text text-anchor="middle" x="132.5" y="-7.5" font-family="Helvetica,sans-Serif" font-size="10.00">load_elf64</text>
</a>
</g>
</g>
<!-- Node6&#45;&gt;Node8 -->
<g id="edge8" class="edge">
<title>Node6&#45;&gt;Node8</title>
<path fill="none" stroke="midnightblue" d="M200.29,-34.88C186.8,-29.86 171.67,-24.22 159.23,-19.59"/>
<polygon fill="midnightblue" stroke="midnightblue" points="199.17,-38.2 209.76,-38.41 201.61,-31.64 199.17,-38.2"/>
</g>
<!-- Node7&#45;&gt;Node5 -->
<g id="edge7" class="edge">
<title>Node7&#45;&gt;Node5</title>
<path fill="none" stroke="midnightblue" d="M91.82,-48C83.28,-48 74.35,-48 66.14,-48"/>
<polygon fill="midnightblue" stroke="midnightblue" points="91.98,-51.5 101.98,-48 91.98,-44.5 91.98,-51.5"/>
</g>
<!-- Node8&#45;&gt;Node5 -->
<g id="edge9" class="edge">
<title>Node8&#45;&gt;Node5</title>
<path fill="none" stroke="midnightblue" d="M97.47,-23.26C84.67,-28.25 70.37,-33.82 58.6,-38.41"/>
<polygon fill="midnightblue" stroke="midnightblue" points="98.85,-26.48 106.9,-19.59 96.31,-19.96 98.85,-26.48"/>
</g>
</g>
</svg>
