<?xml version="1.0" encoding="UTF-8" standalone="no"?>
<!DOCTYPE svg PUBLIC "-//W3C//DTD SVG 1.1//EN"
 "http://www.w3.org/Graphics/SVG/1.1/DTD/svg11.dtd">
<!-- Generated by graphviz version 3.0.0 (20220413.0106)
 -->
<!-- Title: rdtsc Pages: 1 -->
<svg width="407pt" height="122pt"
 viewBox="0.00 0.00 407.00 122.00" xmlns="http://www.w3.org/2000/svg" xmlns:xlink="http://www.w3.org/1999/xlink">
<g id="graph0" class="graph" transform="scale(1 1) rotate(0) translate(4 118)">
<title>rdtsc</title>
<!-- Node1 -->
<g id="node1" class="node">
<title>Node1</title>
<g id="a_node1"><a xlink:title=" ">
<polygon fill="#bfbfbf" stroke="black" points="361,-38.5 361,-57.5 399,-57.5 399,-38.5 361,-38.5"/>
<text text-anchor="middle" x="380" y="-45.5" font-family="Helvetica,sans-Serif" font-size="10.00">rdtsc</text>
</a>
</g>
</g>
<!-- Node2 -->
<g id="node2" class="node">
<title>Node2</title>
<g id="a_node2"><a xlink:href="ioe_8c.html#a8f4d57167e8d4b53c00c84e504f330ef" target="_top" xlink:title=" ">
<polygon fill="none" stroke="black" points="249,-76.5 249,-95.5 325,-95.5 325,-76.5 249,-76.5"/>
<text text-anchor="middle" x="287" y="-83.5" font-family="Helvetica,sans-Serif" font-size="10.00">estimate_freq</text>
</a>
</g>
</g>
<!-- Node1&#45;&gt;Node2 -->
<g id="edge1" class="edge">
<title>Node1&#45;&gt;Node2</title>
<path fill="none" stroke="midnightblue" d="M351.24,-59.59C338.33,-64.98 323.16,-71.32 310.91,-76.43"/>
<polygon fill="midnightblue" stroke="midnightblue" points="352.71,-62.77 360.58,-55.69 350.01,-56.31 352.71,-62.77"/>
</g>
<!-- Node3 -->
<g id="node3" class="node">
<title>Node3</title>
<g id="a_node3"><a xlink:href="ioe_8c.html#ac17b85035372c81a45e604e6b4783db2" target="_top" xlink:title=" ">
<polygon fill="none" stroke="black" points="157,-57.5 157,-76.5 213,-76.5 213,-57.5 157,-57.5"/>
<text text-anchor="middle" x="185" y="-64.5" font-family="Helvetica,sans-Serif" font-size="10.00">timer_init</text>
</a>
</g>
</g>
<!-- Node1&#45;&gt;Node3 -->
<g id="edge6" class="edge">
<title>Node1&#45;&gt;Node3</title>
<path fill="none" stroke="midnightblue" d="M350.76,-50.78C313.82,-54.42 249.54,-60.74 213.15,-64.33"/>
<polygon fill="midnightblue" stroke="midnightblue" points="351.23,-54.25 360.84,-49.79 350.55,-47.28 351.23,-54.25"/>
</g>
<!-- Node6 -->
<g id="node6" class="node">
<title>Node6</title>
<g id="a_node6"><a xlink:href="ioe_8c.html#a0c6d0b706112737c1ef52d21ac07eb47" target="_top" xlink:title=" ">
<polygon fill="none" stroke="black" points="250.5,-0.5 250.5,-19.5 323.5,-19.5 323.5,-0.5 250.5,-0.5"/>
<text text-anchor="middle" x="287" y="-7.5" font-family="Helvetica,sans-Serif" font-size="10.00">timer_uptime</text>
</a>
</g>
</g>
<!-- Node1&#45;&gt;Node6 -->
<g id="edge7" class="edge">
<title>Node1&#45;&gt;Node6</title>
<path fill="none" stroke="midnightblue" d="M351.24,-36.41C338.33,-31.02 323.16,-24.68 310.91,-19.57"/>
<polygon fill="midnightblue" stroke="midnightblue" points="350.01,-39.69 360.58,-40.31 352.71,-33.23 350.01,-39.69"/>
</g>
<!-- Node2&#45;&gt;Node2 -->
<g id="edge2" class="edge">
<title>Node2&#45;&gt;Node2</title>
<path fill="none" stroke="midnightblue" d="M304.04,-105.4C302.9,-110.31 297.22,-114 287,-114 270.65,-114 265.92,-104.57 272.82,-95.76"/>
<polygon fill="midnightblue" stroke="midnightblue" points="307.38,-104.35 301.18,-95.76 300.66,-106.34 307.38,-104.35"/>
</g>
<!-- Node2&#45;&gt;Node3 -->
<g id="edge3" class="edge">
<title>Node2&#45;&gt;Node3</title>
<path fill="none" stroke="midnightblue" d="M238.94,-77.06C230.14,-75.39 221.22,-73.69 213.27,-72.18"/>
<polygon fill="midnightblue" stroke="midnightblue" points="238.29,-80.5 248.76,-78.93 239.59,-73.62 238.29,-80.5"/>
</g>
<!-- Node4 -->
<g id="node4" class="node">
<title>Node4</title>
<g id="a_node4"><a xlink:href="ioe_8c.html#a45ecef4130276c1c79d872c582cd3839" target="_top" xlink:title=" ">
<polygon fill="none" stroke="black" points="74,-57.5 74,-76.5 121,-76.5 121,-57.5 74,-57.5"/>
<text text-anchor="middle" x="97.5" y="-64.5" font-family="Helvetica,sans-Serif" font-size="10.00">ioe_init</text>
</a>
</g>
</g>
<!-- Node3&#45;&gt;Node4 -->
<g id="edge4" class="edge">
<title>Node3&#45;&gt;Node4</title>
<path fill="none" stroke="midnightblue" d="M146.88,-67C138.09,-67 128.99,-67 121.08,-67"/>
<polygon fill="midnightblue" stroke="midnightblue" points="146.95,-70.5 156.95,-67 146.95,-63.5 146.95,-70.5"/>
</g>
<!-- Node5 -->
<g id="node5" class="node">
<title>Node5</title>
<g id="a_node5"><a xlink:href="main_8c.html#ae66f6b31b5ad750f1fe042a706a4e3d4" target="_top" xlink:title=" ">
<polygon fill="none" stroke="black" points="0,-57.5 0,-76.5 38,-76.5 38,-57.5 0,-57.5"/>
<text text-anchor="middle" x="19" y="-64.5" font-family="Helvetica,sans-Serif" font-size="10.00">main</text>
</a>
</g>
</g>
<!-- Node4&#45;&gt;Node5 -->
<g id="edge5" class="edge">
<title>Node4&#45;&gt;Node5</title>
<path fill="none" stroke="midnightblue" d="M63.87,-67C55.01,-67 45.74,-67 38.02,-67"/>
<polygon fill="midnightblue" stroke="midnightblue" points="63.96,-70.5 73.96,-67 63.96,-63.5 63.96,-70.5"/>
</g>
</g>
</svg>
