<?xml version="1.0" encoding="UTF-8" standalone="no"?>
<!DOCTYPE svg PUBLIC "-//W3C//DTD SVG 1.1//EN"
 "http://www.w3.org/Graphics/SVG/1.1/DTD/svg11.dtd">
<!-- Generated by graphviz version 3.0.0 (20220413.0106)
 -->
<!-- Title: cli Pages: 1 -->
<svg width="903pt" height="447pt"
 viewBox="0.00 0.00 903.00 447.23" xmlns="http://www.w3.org/2000/svg" xmlns:xlink="http://www.w3.org/1999/xlink">
<g id="graph0" class="graph" transform="scale(1 1) rotate(0) translate(4 443.23)">
<title>cli</title>
<!-- Node1 -->
<g id="node1" class="node">
<title>Node1</title>
<g id="a_node1"><a xlink:title=" ">
<polygon fill="#bfbfbf" stroke="black" points="866,-239.73 866,-258.73 895,-258.73 895,-239.73 866,-239.73"/>
<text text-anchor="middle" x="880.5" y="-246.73" font-family="Helvetica,sans-Serif" font-size="10.00">cli</text>
</a>
</g>
</g>
<!-- Node2 -->
<g id="node2" class="node">
<title>Node2</title>
<g id="a_node2"><a xlink:href="trm_8c.html#a483cb97188e557c3c68d3a1572c2cc92" target="_top" xlink:title=" ">
<polygon fill="none" stroke="black" points="798,-286.73 798,-305.73 830,-305.73 830,-286.73 798,-286.73"/>
<text text-anchor="middle" x="814" y="-293.73" font-family="Helvetica,sans-Serif" font-size="10.00">halt</text>
</a>
</g>
</g>
<!-- Node1&#45;&gt;Node2 -->
<g id="edge1" class="edge">
<title>Node1&#45;&gt;Node2</title>
<path fill="none" stroke="midnightblue" d="M858.32,-264.66C848.5,-271.82 837.11,-280.12 828.48,-286.41"/>
<polygon fill="midnightblue" stroke="midnightblue" points="860.43,-267.46 866.45,-258.74 856.3,-261.8 860.43,-267.46"/>
</g>
<!-- Node5 -->
<g id="node5" class="node">
<title>Node5</title>
<g id="a_node5"><a xlink:href="cte_8c.html#a4a139958742786c5085172be1f69bfd0" target="_top" xlink:title=" ">
<polygon fill="none" stroke="black" points="798,-220.73 798,-239.73 830,-239.73 830,-220.73 798,-220.73"/>
<text text-anchor="middle" x="814" y="-227.73" font-family="Helvetica,sans-Serif" font-size="10.00">iset</text>
</a>
</g>
</g>
<!-- Node1&#45;&gt;Node5 -->
<g id="edge4" class="edge">
<title>Node1&#45;&gt;Node5</title>
<path fill="none" stroke="midnightblue" d="M856.18,-242.36C847.46,-239.79 837.79,-236.95 830.01,-234.65"/>
<polygon fill="midnightblue" stroke="midnightblue" points="855.24,-245.73 865.82,-245.2 857.22,-239.02 855.24,-245.73"/>
</g>
<!-- Node3 -->
<g id="node3" class="node">
<title>Node3</title>
<g id="a_node3"><a xlink:href="trm_8c.html#a12a49ff4d3a586b2315e292c5da3df7e" target="_top" xlink:title=" ">
<polygon fill="none" stroke="black" points="697.5,-315.73 697.5,-334.73 755.5,-334.73 755.5,-315.73 697.5,-315.73"/>
<text text-anchor="middle" x="726.5" y="-322.73" font-family="Helvetica,sans-Serif" font-size="10.00">call_main</text>
</a>
</g>
</g>
<!-- Node2&#45;&gt;Node3 -->
<g id="edge2" class="edge">
<title>Node2&#45;&gt;Node3</title>
<path fill="none" stroke="midnightblue" d="M788.23,-304.64C778.08,-308.08 766.27,-312.08 755.79,-315.64"/>
<polygon fill="midnightblue" stroke="midnightblue" points="789.37,-307.94 797.71,-301.42 787.12,-301.31 789.37,-307.94"/>
</g>
<!-- Node4 -->
<g id="node4" class="node">
<title>Node4</title>
<g id="a_node4"><a xlink:href="trm_8c.html#a54a85aeee6f6a8ef875d4cca663f9fd8" target="_top" xlink:title=" ">
<polygon fill="none" stroke="black" points="587.5,-315.73 587.5,-334.73 639.5,-334.73 639.5,-315.73 587.5,-315.73"/>
<text text-anchor="middle" x="613.5" y="-322.73" font-family="Helvetica,sans-Serif" font-size="10.00">_start_c</text>
</a>
</g>
</g>
<!-- Node3&#45;&gt;Node4 -->
<g id="edge3" class="edge">
<title>Node3&#45;&gt;Node4</title>
<path fill="none" stroke="midnightblue" d="M687.06,-325.23C671.43,-325.23 653.81,-325.23 639.84,-325.23"/>
<polygon fill="midnightblue" stroke="midnightblue" points="687.49,-328.73 697.49,-325.23 687.49,-321.73 687.49,-328.73"/>
</g>
<!-- Node6 -->
<g id="node6" class="node">
<title>Node6</title>
<g id="a_node6"><a xlink:href="pmm_8c.html#a20ccb461126d548299c6c21f157e6668" target="_top" xlink:title=" ">
<polygon fill="none" stroke="black" points="693.5,-125.73 693.5,-144.73 759.5,-144.73 759.5,-125.73 693.5,-125.73"/>
<text text-anchor="middle" x="726.5" y="-132.73" font-family="Helvetica,sans-Serif" font-size="10.00">kalloc_safe</text>
</a>
</g>
</g>
<!-- Node5&#45;&gt;Node6 -->
<g id="edge5" class="edge">
<title>Node5&#45;&gt;Node6</title>
<path fill="none" stroke="midnightblue" d="M803.47,-210.99C794.52,-194.4 779.85,-170.59 762,-154.23 758.07,-150.63 753.33,-147.46 748.64,-144.79"/>
<polygon fill="midnightblue" stroke="midnightblue" points="800.57,-213 808.28,-220.27 806.78,-209.78 800.57,-213"/>
</g>
<!-- Node8 -->
<g id="node8" class="node">
<title>Node8</title>
<g id="a_node8"><a xlink:href="pmm_8c.html#af2f46f4bce6a599542ce4d462aec9e2f" target="_top" xlink:title=" ">
<polygon fill="none" stroke="black" points="695.5,-163.73 695.5,-182.73 757.5,-182.73 757.5,-163.73 695.5,-163.73"/>
<text text-anchor="middle" x="726.5" y="-170.73" font-family="Helvetica,sans-Serif" font-size="10.00">kfree_safe</text>
</a>
</g>
</g>
<!-- Node5&#45;&gt;Node8 -->
<g id="edge7" class="edge">
<title>Node5&#45;&gt;Node8</title>
<path fill="none" stroke="midnightblue" d="M793.02,-214.35C783.79,-207.28 772.55,-199.03 762,-192.23 756.94,-188.98 751.28,-185.71 746.04,-182.83"/>
<polygon fill="midnightblue" stroke="midnightblue" points="791.13,-217.32 801.17,-220.69 795.43,-211.79 791.13,-217.32"/>
</g>
<!-- Node9 -->
<g id="node9" class="node">
<title>Node9</title>
<g id="a_node9"><a xlink:href="os_8c.html#a5f9cb32664e017ca15c49ec66e5342e4" target="_top" xlink:title="cpu start entry">
<polygon fill="none" stroke="black" points="479,-419.73 479,-438.73 525,-438.73 525,-419.73 479,-419.73"/>
<text text-anchor="middle" x="502" y="-426.73" font-family="Helvetica,sans-Serif" font-size="10.00">os_run</text>
</a>
</g>
</g>
<!-- Node5&#45;&gt;Node9 -->
<g id="edge9" class="edge">
<title>Node5&#45;&gt;Node9</title>
<path fill="none" stroke="midnightblue" d="M795.23,-246.56C785.95,-254.24 774.05,-262.87 762,-268.23 683.33,-303.26 641.66,-255.6 572,-306.23 551.4,-321.2 518.72,-393.05 507.2,-419.46"/>
<polygon fill="midnightblue" stroke="midnightblue" points="797.66,-249.08 802.94,-239.89 793.08,-243.79 797.66,-249.08"/>
</g>
<!-- Node11 -->
<g id="node11" class="node">
<title>Node11</title>
<g id="a_node11"><a xlink:href="spinlock_8c.html#afc9565dc7a5ddf77e1fa76f5d91caf78" target="_top" xlink:title="interrupt able">
<polygon fill="none" stroke="black" points="694,-201.73 694,-220.73 759,-220.73 759,-201.73 694,-201.73"/>
<text text-anchor="middle" x="726.5" y="-208.73" font-family="Helvetica,sans-Serif" font-size="10.00">spin_popcli</text>
</a>
</g>
</g>
<!-- Node5&#45;&gt;Node11 -->
<g id="edge11" class="edge">
<title>Node5&#45;&gt;Node11</title>
<path fill="none" stroke="midnightblue" d="M787.9,-224.65C778.95,-222.67 768.74,-220.4 759.3,-218.3"/>
<polygon fill="midnightblue" stroke="midnightblue" points="787.19,-228.08 797.71,-226.84 788.71,-221.25 787.19,-228.08"/>
</g>
<!-- Node26 -->
<g id="node26" class="node">
<title>Node26</title>
<g id="a_node26"><a xlink:href="spinlock_8c.html#ab213874cda54fdbbeb1bec1e5fa90b28" target="_top" xlink:title="interrupt disable">
<polygon fill="none" stroke="black" points="691,-239.73 691,-258.73 762,-258.73 762,-239.73 691,-239.73"/>
<text text-anchor="middle" x="726.5" y="-246.73" font-family="Helvetica,sans-Serif" font-size="10.00">spin_pushcli</text>
</a>
</g>
</g>
<!-- Node5&#45;&gt;Node26 -->
<g id="edge53" class="edge">
<title>Node5&#45;&gt;Node26</title>
<path fill="none" stroke="midnightblue" d="M787.84,-235.82C779.8,-237.61 770.75,-239.62 762.16,-241.53"/>
<polygon fill="midnightblue" stroke="midnightblue" points="788.71,-239.22 797.71,-233.63 787.19,-232.38 788.71,-239.22"/>
</g>
<!-- Node7 -->
<g id="node7" class="node">
<title>Node7</title>
<g id="a_node7"><a xlink:href="pmm_8c.html#a7ada9deb0ae8705f2cc158b0283aaeb3" target="_top" xlink:title=" ">
<polygon fill="none" stroke="black" points="572,-125.73 572,-144.73 655,-144.73 655,-125.73 572,-125.73"/>
<text text-anchor="middle" x="613.5" y="-132.73" font-family="Helvetica,sans-Serif" font-size="10.00">MODULE_DEF</text>
</a>
</g>
</g>
<!-- Node6&#45;&gt;Node7 -->
<g id="edge6" class="edge">
<title>Node6&#45;&gt;Node7</title>
<path fill="none" stroke="midnightblue" d="M683.29,-135.23C674.09,-135.23 664.38,-135.23 655.24,-135.23"/>
<polygon fill="midnightblue" stroke="midnightblue" points="683.39,-138.73 693.39,-135.23 683.39,-131.73 683.39,-138.73"/>
</g>
<!-- Node8&#45;&gt;Node7 -->
<g id="edge8" class="edge">
<title>Node8&#45;&gt;Node7</title>
<path fill="none" stroke="midnightblue" d="M687.61,-160.26C672.82,-155.2 656.17,-149.5 642.5,-144.82"/>
<polygon fill="midnightblue" stroke="midnightblue" points="686.9,-163.72 697.49,-163.64 689.16,-157.09 686.9,-163.72"/>
</g>
<!-- Node10 -->
<g id="node10" class="node">
<title>Node10</title>
<g id="a_node10"><a xlink:href="os_8c.html#aafec7046aa50c914df86d0d22d4fc1d1" target="_top" xlink:title=" ">
<polygon fill="none" stroke="black" points="206,-410.73 206,-429.73 289,-429.73 289,-410.73 206,-410.73"/>
<text text-anchor="middle" x="247.5" y="-417.73" font-family="Helvetica,sans-Serif" font-size="10.00">MODULE_DEF</text>
</a>
</g>
</g>
<!-- Node9&#45;&gt;Node10 -->
<g id="edge10" class="edge">
<title>Node9&#45;&gt;Node10</title>
<path fill="none" stroke="midnightblue" d="M468.34,-428.07C422.54,-426.44 339.29,-423.47 289.42,-421.69"/>
<polygon fill="midnightblue" stroke="midnightblue" points="468.47,-431.58 478.59,-428.43 468.72,-424.58 468.47,-431.58"/>
</g>
<!-- Node12 -->
<g id="node12" class="node">
<title>Node12</title>
<g id="a_node12"><a xlink:href="spinlock_8c.html#ad4be0d674a7ca4dc90c2dbf8b34562cc" target="_top" xlink:title="check current cpu has the lock">
<polygon fill="none" stroke="black" points="578,-201.73 578,-220.73 649,-220.73 649,-201.73 578,-201.73"/>
<text text-anchor="middle" x="613.5" y="-208.73" font-family="Helvetica,sans-Serif" font-size="10.00">spin_holding</text>
</a>
</g>
</g>
<!-- Node11&#45;&gt;Node12 -->
<g id="edge12" class="edge">
<title>Node11&#45;&gt;Node12</title>
<path fill="none" stroke="midnightblue" d="M683.81,-211.23C672.41,-211.23 660.17,-211.23 649.21,-211.23"/>
<polygon fill="midnightblue" stroke="midnightblue" points="683.99,-214.73 693.99,-211.23 683.99,-207.73 683.99,-214.73"/>
</g>
<!-- Node25 -->
<g id="node25" class="node">
<title>Node25</title>
<g id="a_node25"><a xlink:href="spinlock_8c.html#acdf118d615a4bc4064e991add9a80995" target="_top" xlink:title="release spinlock from current cpu">
<polygon fill="none" stroke="black" points="468,-163.73 468,-182.73 536,-182.73 536,-163.73 468,-163.73"/>
<text text-anchor="middle" x="502" y="-170.73" font-family="Helvetica,sans-Serif" font-size="10.00">spin_unlock</text>
</a>
</g>
</g>
<!-- Node11&#45;&gt;Node25 -->
<g id="edge52" class="edge">
<title>Node11&#45;&gt;Node25</title>
<path fill="none" stroke="midnightblue" d="M683.84,-198.98C674.41,-196.49 664.41,-194.08 655,-192.23 614.42,-184.27 567.06,-178.97 536.12,-176.04"/>
<polygon fill="midnightblue" stroke="midnightblue" points="683.22,-202.44 693.78,-201.68 685.05,-195.68 683.22,-202.44"/>
</g>
<!-- Node13 -->
<g id="node13" class="node">
<title>Node13</title>
<g id="a_node13"><a xlink:href="kmt_8c.html#af9c485ce0d89d6624e6e80e31d8ed207" target="_top" xlink:title="handler: save context to current task">
<polygon fill="none" stroke="black" points="330.5,-201.73 330.5,-220.73 426.5,-220.73 426.5,-201.73 330.5,-201.73"/>
<text text-anchor="middle" x="378.5" y="-208.73" font-family="Helvetica,sans-Serif" font-size="10.00">kmt_context_save</text>
</a>
</g>
</g>
<!-- Node12&#45;&gt;Node13 -->
<g id="edge13" class="edge">
<title>Node12&#45;&gt;Node13</title>
<path fill="none" stroke="midnightblue" d="M567.77,-211.23C527.35,-211.23 468.05,-211.23 426.84,-211.23"/>
<polygon fill="midnightblue" stroke="midnightblue" points="567.87,-214.73 577.87,-211.23 567.87,-207.73 567.87,-214.73"/>
</g>
<!-- Node16 -->
<g id="node16" class="node">
<title>Node16</title>
<g id="a_node16"><a xlink:href="kmt_8c.html#a5ddb8743298012e84cf9cb5faf22212b" target="_top" xlink:title="create thread">
<polygon fill="none" stroke="black" points="346,-277.73 346,-296.73 411,-296.73 411,-277.73 346,-277.73"/>
<text text-anchor="middle" x="378.5" y="-284.73" font-family="Helvetica,sans-Serif" font-size="10.00">kmt_create</text>
</a>
</g>
</g>
<!-- Node12&#45;&gt;Node16 -->
<g id="edge16" class="edge">
<title>Node12&#45;&gt;Node16</title>
<path fill="none" stroke="midnightblue" d="M595.53,-228.03C581.01,-241.31 558.88,-259.08 536,-268.23 495.09,-284.6 443.74,-287.9 411.26,-288.09"/>
<polygon fill="midnightblue" stroke="midnightblue" points="598.28,-230.25 603.15,-220.83 593.47,-225.16 598.28,-230.25"/>
</g>
<!-- Node17 -->
<g id="node17" class="node">
<title>Node17</title>
<g id="a_node17"><a xlink:href="kmt_8c.html#ad3fbc643b7b6092120c5152b4c890354" target="_top" xlink:title="handler: handle program errors">
<polygon fill="none" stroke="black" points="218.5,-68.73 218.5,-87.73 276.5,-87.73 276.5,-68.73 218.5,-68.73"/>
<text text-anchor="middle" x="247.5" y="-75.73" font-family="Helvetica,sans-Serif" font-size="10.00">kmt_error</text>
</a>
</g>
</g>
<!-- Node12&#45;&gt;Node17 -->
<g id="edge18" class="edge">
<title>Node12&#45;&gt;Node17</title>
<path fill="none" stroke="midnightblue" d="M598.08,-193.89C589.59,-183.02 579.16,-168.43 572,-154.23 548.84,-108.3 574.6,-78.24 536,-44.23 465.32,18.04 414.78,4.26 325,-24.23 297.42,-32.99 271.21,-55.67 257.8,-68.69"/>
<polygon fill="midnightblue" stroke="midnightblue" points="595.38,-196.11 604.37,-201.72 600.84,-191.73 595.38,-196.11"/>
</g>
<!-- Node18 -->
<g id="node18" class="node">
<title>Node18</title>
<g id="a_node18"><a xlink:href="kmt_8c.html#a0ac321d3074b24b276695a080e835866" target="_top" xlink:title="print all tasks notice: do not garantee concurrency safety">
<polygon fill="none" stroke="black" points="328,-49.73 328,-68.73 429,-68.73 429,-49.73 328,-49.73"/>
<text text-anchor="middle" x="378.5" y="-56.73" font-family="Helvetica,sans-Serif" font-size="10.00">kmt_print_all_tasks</text>
</a>
</g>
</g>
<!-- Node12&#45;&gt;Node18 -->
<g id="edge20" class="edge">
<title>Node12&#45;&gt;Node18</title>
<path fill="none" stroke="midnightblue" d="M600.93,-193.02C587.45,-173.06 563.48,-141.24 536,-121.23 500.2,-95.18 451.97,-78.25 418.55,-68.77"/>
<polygon fill="midnightblue" stroke="midnightblue" points="598.1,-195.08 606.52,-201.51 603.94,-191.24 598.1,-195.08"/>
</g>
<!-- Node19 -->
<g id="node19" class="node">
<title>Node19</title>
<g id="a_node19"><a xlink:href="kmt_8c.html#ad4d70b4093829da1c0b0631abdff7747" target="_top" xlink:title="handler: schedule next task to run Notice: this should be the only handler which returns real Context">
<polygon fill="none" stroke="black" points="209,-116.73 209,-135.73 286,-135.73 286,-116.73 209,-116.73"/>
<text text-anchor="middle" x="247.5" y="-123.73" font-family="Helvetica,sans-Serif" font-size="10.00">kmt_schedule</text>
</a>
</g>
</g>
<!-- Node12&#45;&gt;Node19 -->
<g id="edge27" class="edge">
<title>Node12&#45;&gt;Node19</title>
<path fill="none" stroke="midnightblue" d="M598.6,-193.14C590.43,-182.16 580.14,-167.71 572,-154.23 553.7,-123.95 561.96,-107.27 536,-83.23 499.29,-49.26 481.06,-49.97 432,-40.23 385.36,-30.97 366.65,-17.28 325,-40.23 298.76,-54.7 309.56,-75.44 289,-97.23 282,-104.65 272.85,-111.4 265.01,-116.51"/>
<polygon fill="midnightblue" stroke="midnightblue" points="596.05,-195.57 604.87,-201.45 601.64,-191.36 596.05,-195.57"/>
</g>
<!-- Node20 -->
<g id="node20" class="node">
<title>Node20</title>
<g id="a_node20"><a xlink:href="kmt_8c.html#ac69761d0146d9aacda65da757868d3c7" target="_top" xlink:title="print all current_tasks notice: do not garantee concurrency safety">
<polygon fill="none" stroke="black" points="325,-87.73 325,-106.73 432,-106.73 432,-87.73 325,-87.73"/>
<text text-anchor="middle" x="378.5" y="-94.73" font-family="Helvetica,sans-Serif" font-size="10.00">kmt_print_cpu_tasks</text>
</a>
</g>
</g>
<!-- Node12&#45;&gt;Node20 -->
<g id="edge24" class="edge">
<title>Node12&#45;&gt;Node20</title>
<path fill="none" stroke="midnightblue" d="M593.89,-194.93C579.01,-182.51 557.2,-165.67 536,-154.23 496.43,-132.88 447.19,-116.44 414.62,-106.82"/>
<polygon fill="midnightblue" stroke="midnightblue" points="591.9,-197.83 601.79,-201.65 596.44,-192.5 591.9,-197.83"/>
</g>
<!-- Node21 -->
<g id="node21" class="node">
<title>Node21</title>
<g id="a_node21"><a xlink:href="kmt_8c.html#a47d8887c87041abd5ea3148232b65c93" target="_top" xlink:title="tear down a thread">
<polygon fill="none" stroke="black" points="339.5,-315.73 339.5,-334.73 417.5,-334.73 417.5,-315.73 339.5,-315.73"/>
<text text-anchor="middle" x="378.5" y="-322.73" font-family="Helvetica,sans-Serif" font-size="10.00">kmt_teardown</text>
</a>
</g>
</g>
<!-- Node12&#45;&gt;Node21 -->
<g id="edge28" class="edge">
<title>Node12&#45;&gt;Node21</title>
<path fill="none" stroke="midnightblue" d="M599.99,-229.32C586.39,-247.56 562.95,-275.13 536,-290.23 499.08,-310.92 450.83,-319.38 417.72,-322.84"/>
<polygon fill="midnightblue" stroke="midnightblue" points="603.17,-230.9 606.18,-220.74 597.49,-226.81 603.17,-230.9"/>
</g>
<!-- Node22 -->
<g id="node22" class="node">
<title>Node22</title>
<g id="a_node22"><a xlink:href="os_8c.html#a2be1c9facb49d4439f41b1537d0f3ef8" target="_top" xlink:title="System trap entry.">
<polygon fill="none" stroke="black" points="354,-391.73 354,-410.73 403,-410.73 403,-391.73 354,-391.73"/>
<text text-anchor="middle" x="378.5" y="-398.73" font-family="Helvetica,sans-Serif" font-size="10.00">os_trap</text>
</a>
</g>
</g>
<!-- Node12&#45;&gt;Node22 -->
<g id="edge30" class="edge">
<title>Node12&#45;&gt;Node22</title>
<path fill="none" stroke="midnightblue" d="M600.46,-229.36C582.97,-255.36 551,-301.61 536,-315.23 495.25,-352.22 435.77,-379.26 403.13,-392.37"/>
<polygon fill="midnightblue" stroke="midnightblue" points="603.54,-231.05 606.19,-220.79 597.72,-227.16 603.54,-231.05"/>
</g>
<!-- Node23 -->
<g id="node23" class="node">
<title>Node23</title>
<g id="a_node23"><a xlink:href="spinlock_8c.html#ab6f3c37ec37006951feccc3c05387cce" target="_top" xlink:title="acquire spinlock to current cpu">
<polygon fill="none" stroke="black" points="473,-239.73 473,-258.73 531,-258.73 531,-239.73 473,-239.73"/>
<text text-anchor="middle" x="502" y="-246.73" font-family="Helvetica,sans-Serif" font-size="10.00">spin_lock</text>
</a>
</g>
</g>
<!-- Node12&#45;&gt;Node23 -->
<g id="edge32" class="edge">
<title>Node12&#45;&gt;Node23</title>
<path fill="none" stroke="midnightblue" d="M575.12,-224.2C560.53,-229.27 544.11,-234.97 530.62,-239.65"/>
<polygon fill="midnightblue" stroke="midnightblue" points="576.57,-227.41 584.87,-220.82 574.27,-220.79 576.57,-227.41"/>
</g>
<!-- Node12&#45;&gt;Node25 -->
<g id="edge42" class="edge">
<title>Node12&#45;&gt;Node25</title>
<path fill="none" stroke="midnightblue" d="M575.12,-198.26C560.53,-193.2 544.11,-187.5 530.62,-182.82"/>
<polygon fill="midnightblue" stroke="midnightblue" points="574.27,-201.67 584.87,-201.64 576.57,-195.06 574.27,-201.67"/>
</g>
<!-- Node14 -->
<g id="node14" class="node">
<title>Node14</title>
<g id="a_node14"><a xlink:href="kmt_8c.html#a0c68a294cecc4be7cb4b495f15b883a0" target="_top" xlink:title="initialize kmt module">
<polygon fill="none" stroke="black" points="119,-154.73 119,-173.73 170,-173.73 170,-154.73 119,-154.73"/>
<text text-anchor="middle" x="144.5" y="-161.73" font-family="Helvetica,sans-Serif" font-size="10.00">kmt_init</text>
</a>
</g>
</g>
<!-- Node13&#45;&gt;Node14 -->
<g id="edge14" class="edge">
<title>Node13&#45;&gt;Node14</title>
<path fill="none" stroke="midnightblue" d="M320.58,-199.7C272.45,-189.95 205.82,-176.45 170.24,-169.24"/>
<polygon fill="midnightblue" stroke="midnightblue" points="320.06,-203.17 330.55,-201.72 321.45,-196.31 320.06,-203.17"/>
</g>
<!-- Node15 -->
<g id="node15" class="node">
<title>Node15</title>
<g id="a_node15"><a xlink:href="kmt_8c.html#af360ef0d98ca30e481cc58ea3695fd58" target="_top" xlink:title=" ">
<polygon fill="none" stroke="black" points="0,-277.73 0,-296.73 83,-296.73 83,-277.73 0,-277.73"/>
<text text-anchor="middle" x="41.5" y="-284.73" font-family="Helvetica,sans-Serif" font-size="10.00">MODULE_DEF</text>
</a>
</g>
</g>
<!-- Node14&#45;&gt;Node15 -->
<g id="edge15" class="edge">
<title>Node14&#45;&gt;Node15</title>
<path fill="none" stroke="midnightblue" d="M129,-181.89C107.35,-208.26 67.32,-257.01 50.39,-277.63"/>
<polygon fill="midnightblue" stroke="midnightblue" points="131.93,-183.83 135.57,-173.88 126.52,-179.39 131.93,-183.83"/>
</g>
<!-- Node16&#45;&gt;Node15 -->
<g id="edge17" class="edge">
<title>Node16&#45;&gt;Node15</title>
<path fill="none" stroke="midnightblue" d="M335.74,-287.23C271.02,-287.23 147.29,-287.23 83.21,-287.23"/>
<polygon fill="midnightblue" stroke="midnightblue" points="335.98,-290.73 345.98,-287.23 335.98,-283.73 335.98,-290.73"/>
</g>
<!-- Node17&#45;&gt;Node14 -->
<g id="edge19" class="edge">
<title>Node17&#45;&gt;Node14</title>
<path fill="none" stroke="midnightblue" d="M223.67,-93.77C217.8,-97.99 211.56,-102.65 206,-107.23 187.06,-122.82 166.59,-142.84 154.98,-154.53"/>
<polygon fill="midnightblue" stroke="midnightblue" points="225.74,-96.59 231.91,-87.98 221.71,-90.87 225.74,-96.59"/>
</g>
<!-- Node18&#45;&gt;Node17 -->
<g id="edge21" class="edge">
<title>Node18&#45;&gt;Node17</title>
<path fill="none" stroke="midnightblue" d="M317.7,-68.04C303.44,-70.14 288.86,-72.29 276.79,-74.07"/>
<polygon fill="midnightblue" stroke="midnightblue" points="318.61,-71.44 327.99,-66.52 317.59,-64.52 318.61,-71.44"/>
</g>
<!-- Node18&#45;&gt;Node19 -->
<g id="edge22" class="edge">
<title>Node18&#45;&gt;Node19</title>
<path fill="none" stroke="midnightblue" d="M337.96,-72.51C333.53,-74.3 329.13,-76.22 325,-78.23 301.75,-89.57 276.69,-106.24 261.81,-116.65"/>
<polygon fill="midnightblue" stroke="midnightblue" points="339.53,-75.65 347.61,-68.8 337.02,-69.12 339.53,-75.65"/>
</g>
<!-- Node19&#45;&gt;Node14 -->
<g id="edge23" class="edge">
<title>Node19&#45;&gt;Node14</title>
<path fill="none" stroke="midnightblue" d="M211.49,-139.41C197.91,-144.51 182.68,-150.24 170.28,-154.91"/>
<polygon fill="midnightblue" stroke="midnightblue" points="212.89,-142.62 221.01,-135.82 210.42,-136.07 212.89,-142.62"/>
</g>
<!-- Node20&#45;&gt;Node17 -->
<g id="edge25" class="edge">
<title>Node20&#45;&gt;Node17</title>
<path fill="none" stroke="midnightblue" d="M314.56,-87.96C301.28,-86.01 287.92,-84.04 276.72,-82.39"/>
<polygon fill="midnightblue" stroke="midnightblue" points="314.26,-91.46 324.66,-89.45 315.28,-84.53 314.26,-91.46"/>
</g>
<!-- Node20&#45;&gt;Node19 -->
<g id="edge26" class="edge">
<title>Node20&#45;&gt;Node19</title>
<path fill="none" stroke="midnightblue" d="M325.13,-109.01C312.12,-111.93 298.43,-115.01 286.28,-117.74"/>
<polygon fill="midnightblue" stroke="midnightblue" points="325.91,-112.42 334.9,-106.81 324.38,-105.59 325.91,-112.42"/>
</g>
<!-- Node21&#45;&gt;Node15 -->
<g id="edge29" class="edge">
<title>Node21&#45;&gt;Node15</title>
<path fill="none" stroke="midnightblue" d="M329,-322.02C276.94,-318.26 191.89,-311.27 119,-301.23 107.36,-299.63 94.8,-297.5 83.29,-295.39"/>
<polygon fill="midnightblue" stroke="midnightblue" points="329.05,-325.53 339.27,-322.75 329.55,-318.55 329.05,-325.53"/>
</g>
<!-- Node22&#45;&gt;Node10 -->
<g id="edge31" class="edge">
<title>Node22&#45;&gt;Node10</title>
<path fill="none" stroke="midnightblue" d="M343.48,-406.24C326.85,-408.69 306.7,-411.66 289.25,-414.23"/>
<polygon fill="midnightblue" stroke="midnightblue" points="344.46,-409.64 353.84,-404.72 343.44,-402.71 344.46,-409.64"/>
</g>
<!-- Node23&#45;&gt;Node13 -->
<g id="edge33" class="edge">
<title>Node23&#45;&gt;Node13</title>
<path fill="none" stroke="midnightblue" d="M463.15,-237.39C446.08,-232.06 426.18,-225.83 410.08,-220.8"/>
<polygon fill="midnightblue" stroke="midnightblue" points="462.23,-240.77 472.82,-240.42 464.32,-234.09 462.23,-240.77"/>
</g>
<!-- Node23&#45;&gt;Node15 -->
<g id="edge40" class="edge">
<title>Node23&#45;&gt;Node15</title>
<path fill="none" stroke="midnightblue" d="M490.47,-267.55C475.55,-292.75 448.27,-335.94 432,-344.23 302,-410.48 117.93,-326.58 60.39,-296.9"/>
<polygon fill="midnightblue" stroke="midnightblue" points="493.51,-269.28 495.53,-258.88 487.47,-265.75 493.51,-269.28"/>
</g>
<!-- Node23&#45;&gt;Node16 -->
<g id="edge34" class="edge">
<title>Node23&#45;&gt;Node16</title>
<path fill="none" stroke="midnightblue" d="M463.15,-261.07C446.08,-266.41 426.18,-272.63 410.08,-277.67"/>
<polygon fill="midnightblue" stroke="midnightblue" points="464.32,-264.37 472.82,-258.05 462.23,-257.69 464.32,-264.37"/>
</g>
<!-- Node23&#45;&gt;Node18 -->
<g id="edge35" class="edge">
<title>Node23&#45;&gt;Node18</title>
<path fill="none" stroke="midnightblue" d="M488.99,-230.88C482.21,-219.96 473.92,-205.67 468,-192.23 446.56,-143.62 468.79,-116.57 432,-78.23 428.31,-74.39 423.78,-71.31 418.95,-68.86"/>
<polygon fill="midnightblue" stroke="midnightblue" points="486.15,-232.93 494.47,-239.49 492.06,-229.17 486.15,-232.93"/>
</g>
<!-- Node23&#45;&gt;Node19 -->
<g id="edge37" class="edge">
<title>Node23&#45;&gt;Node19</title>
<path fill="none" stroke="midnightblue" d="M462.94,-253.59C425.36,-256.04 367.49,-254.68 325,-230.23 286.14,-207.88 261.31,-156.98 252.3,-135.78"/>
<polygon fill="midnightblue" stroke="midnightblue" points="463.28,-257.07 472.98,-252.81 462.74,-250.09 463.28,-257.07"/>
</g>
<!-- Node23&#45;&gt;Node20 -->
<g id="edge36" class="edge">
<title>Node23&#45;&gt;Node20</title>
<path fill="none" stroke="midnightblue" d="M488.7,-231.01C475.35,-211.53 453.09,-179.98 432,-154.23 417.85,-136.96 399.98,-118.12 389.16,-107.01"/>
<polygon fill="midnightblue" stroke="midnightblue" points="485.98,-233.22 494.5,-239.52 491.76,-229.28 485.98,-233.22"/>
</g>
<!-- Node23&#45;&gt;Node21 -->
<g id="edge38" class="edge">
<title>Node23&#45;&gt;Node21</title>
<path fill="none" stroke="midnightblue" d="M484.12,-266.02C470.86,-278.47 451.44,-295.13 432,-306.23 425.6,-309.89 418.38,-313.04 411.38,-315.68"/>
<polygon fill="midnightblue" stroke="midnightblue" points="486.74,-268.36 491.52,-258.9 481.89,-263.31 486.74,-268.36"/>
</g>
<!-- Node23&#45;&gt;Node22 -->
<g id="edge41" class="edge">
<title>Node23&#45;&gt;Node22</title>
<path fill="none" stroke="midnightblue" d="M495.01,-268.53C485.63,-295.95 465.02,-346.31 432,-377.23 423.88,-384.84 412.93,-390.36 403.13,-394.17"/>
<polygon fill="midnightblue" stroke="midnightblue" points="498.37,-269.51 498.16,-258.92 491.72,-267.33 498.37,-269.51"/>
</g>
<!-- Node24 -->
<g id="node24" class="node">
<title>Node24</title>
<g id="a_node24"><a xlink:href="kernel_8h.html#a7ef2d722f9c7f8acc1801144a5188825" target="_top" xlink:title=" ">
<polygon fill="none" stroke="black" points="349,-163.73 349,-182.73 408,-182.73 408,-163.73 349,-163.73"/>
<text text-anchor="middle" x="378.5" y="-170.73" font-family="Helvetica,sans-Serif" font-size="10.00">MODULE</text>
</a>
</g>
</g>
<!-- Node23&#45;&gt;Node24 -->
<g id="edge39" class="edge">
<title>Node23&#45;&gt;Node24</title>
<path fill="none" stroke="midnightblue" d="M484.12,-232.44C470.86,-220 451.44,-203.33 432,-192.23 424.59,-188 416.07,-184.44 408.08,-181.58"/>
<polygon fill="midnightblue" stroke="midnightblue" points="481.89,-235.16 491.52,-239.56 486.74,-230.11 481.89,-235.16"/>
</g>
<!-- Node25&#45;&gt;Node13 -->
<g id="edge43" class="edge">
<title>Node25&#45;&gt;Node13</title>
<path fill="none" stroke="midnightblue" d="M460.46,-185.91C444.04,-191.05 425.4,-196.88 410.15,-201.65"/>
<polygon fill="midnightblue" stroke="midnightblue" points="461.84,-189.15 470.34,-182.82 459.75,-182.47 461.84,-189.15"/>
</g>
<!-- Node25&#45;&gt;Node15 -->
<g id="edge50" class="edge">
<title>Node25&#45;&gt;Node15</title>
<path fill="none" stroke="midnightblue" d="M497.44,-153.67C490.72,-123.15 472.98,-65.14 432,-40.23 345.86,12.12 295.92,-13.67 206,-59.23 110.63,-107.56 58.6,-240.63 45.71,-277.6"/>
<polygon fill="midnightblue" stroke="midnightblue" points="494.03,-154.45 499.44,-163.55 500.89,-153.06 494.03,-154.45"/>
</g>
<!-- Node25&#45;&gt;Node16 -->
<g id="edge44" class="edge">
<title>Node25&#45;&gt;Node16</title>
<path fill="none" stroke="midnightblue" d="M483.06,-190.06C457.26,-214.27 410.52,-258.12 389.83,-277.54"/>
<polygon fill="midnightblue" stroke="midnightblue" points="485.74,-192.35 490.64,-182.95 480.95,-187.24 485.74,-192.35"/>
</g>
<!-- Node25&#45;&gt;Node18 -->
<g id="edge45" class="edge">
<title>Node25&#45;&gt;Node18</title>
<path fill="none" stroke="midnightblue" d="M491.92,-154.7C480.62,-133.44 459.42,-98.86 432,-78.23 426.89,-74.39 420.92,-71.26 414.88,-68.74"/>
<polygon fill="midnightblue" stroke="midnightblue" points="488.85,-156.39 496.52,-163.69 495.08,-153.2 488.85,-156.39"/>
</g>
<!-- Node25&#45;&gt;Node19 -->
<g id="edge47" class="edge">
<title>Node25&#45;&gt;Node19</title>
<path fill="none" stroke="midnightblue" d="M459.37,-160.92C450.39,-158.51 440.92,-156.13 432,-154.23 382.04,-143.58 323.61,-135.39 286.34,-130.69"/>
<polygon fill="midnightblue" stroke="midnightblue" points="458.67,-164.36 469.24,-163.65 460.54,-157.61 458.67,-164.36"/>
</g>
<!-- Node25&#45;&gt;Node20 -->
<g id="edge46" class="edge">
<title>Node25&#45;&gt;Node20</title>
<path fill="none" stroke="midnightblue" d="M481.81,-156.98C468.39,-146.07 449.76,-131.81 432,-121.23 422.96,-115.85 412.5,-110.84 403.31,-106.81"/>
<polygon fill="midnightblue" stroke="midnightblue" points="479.88,-159.92 489.82,-163.6 484.34,-154.53 479.88,-159.92"/>
</g>
<!-- Node25&#45;&gt;Node21 -->
<g id="edge48" class="edge">
<title>Node25&#45;&gt;Node21</title>
<path fill="none" stroke="midnightblue" d="M489.9,-191.52C483.31,-202.59 474.91,-217.08 468,-230.23 450.62,-263.32 459.66,-281.09 432,-306.23 427.77,-310.08 422.7,-313.16 417.4,-315.63"/>
<polygon fill="midnightblue" stroke="midnightblue" points="493,-193.15 495.15,-182.78 487,-189.55 493,-193.15"/>
</g>
<!-- Node25&#45;&gt;Node22 -->
<g id="edge51" class="edge">
<title>Node25&#45;&gt;Node22</title>
<path fill="none" stroke="midnightblue" d="M488.99,-191.59C482.21,-202.5 473.92,-216.8 468,-230.23 446.56,-278.85 458.64,-298.26 432,-344.23 421.07,-363.09 402.95,-380.91 391.12,-391.45"/>
<polygon fill="midnightblue" stroke="midnightblue" points="492.06,-193.29 494.47,-182.97 486.15,-189.53 492.06,-193.29"/>
</g>
<!-- Node25&#45;&gt;Node24 -->
<g id="edge49" class="edge">
<title>Node25&#45;&gt;Node24</title>
<path fill="none" stroke="midnightblue" d="M457.35,-173.23C440.98,-173.23 422.79,-173.23 408.12,-173.23"/>
<polygon fill="midnightblue" stroke="midnightblue" points="457.8,-176.73 467.8,-173.23 457.8,-169.73 457.8,-176.73"/>
</g>
<!-- Node26&#45;&gt;Node12 -->
<g id="edge54" class="edge">
<title>Node26&#45;&gt;Node12</title>
<path fill="none" stroke="midnightblue" d="M687.61,-236.26C672.82,-231.2 656.17,-225.5 642.5,-220.82"/>
<polygon fill="midnightblue" stroke="midnightblue" points="686.9,-239.72 697.49,-239.64 689.16,-233.09 686.9,-239.72"/>
</g>
<!-- Node26&#45;&gt;Node23 -->
<g id="edge55" class="edge">
<title>Node26&#45;&gt;Node23</title>
<path fill="none" stroke="midnightblue" d="M680.45,-249.23C635.8,-249.23 568.78,-249.23 531.18,-249.23"/>
<polygon fill="midnightblue" stroke="midnightblue" points="680.73,-252.73 690.73,-249.23 680.73,-245.73 680.73,-252.73"/>
</g>
</g>
</svg>
