<?xml version="1.0" encoding="UTF-8" standalone="no"?>
<!DOCTYPE svg PUBLIC "-//W3C//DTD SVG 1.1//EN"
 "http://www.w3.org/Graphics/SVG/1.1/DTD/svg11.dtd">
<!-- Generated by graphviz version 3.0.0 (20220413.0106)
 -->
<!-- Title: sti Pages: 1 -->
<svg width="903pt" height="438pt"
 viewBox="0.00 0.00 903.00 437.67" xmlns="http://www.w3.org/2000/svg" xmlns:xlink="http://www.w3.org/1999/xlink">
<g id="graph0" class="graph" transform="scale(1 1) rotate(0) translate(4 433.67)">
<title>sti</title>
<!-- Node1 -->
<g id="node1" class="node">
<title>Node1</title>
<g id="a_node1"><a xlink:title=" ">
<polygon fill="#bfbfbf" stroke="black" points="866,-276.32 866,-295.32 895,-295.32 895,-276.32 866,-276.32"/>
<text text-anchor="middle" x="880.5" y="-283.32" font-family="Helvetica,sans-Serif" font-size="10.00">sti</text>
</a>
</g>
</g>
<!-- Node2 -->
<g id="node2" class="node">
<title>Node2</title>
<g id="a_node2"><a xlink:href="cte_8c.html#a4a139958742786c5085172be1f69bfd0" target="_top" xlink:title=" ">
<polygon fill="none" stroke="black" points="798,-276.32 798,-295.32 830,-295.32 830,-276.32 798,-276.32"/>
<text text-anchor="middle" x="814" y="-283.32" font-family="Helvetica,sans-Serif" font-size="10.00">iset</text>
</a>
</g>
</g>
<!-- Node1&#45;&gt;Node2 -->
<g id="edge1" class="edge">
<title>Node1&#45;&gt;Node2</title>
<path fill="none" stroke="midnightblue" d="M855.61,-285.82C847.04,-285.82 837.62,-285.82 830.01,-285.82"/>
<polygon fill="midnightblue" stroke="midnightblue" points="855.82,-289.32 865.82,-285.82 855.82,-282.32 855.82,-289.32"/>
</g>
<!-- Node3 -->
<g id="node3" class="node">
<title>Node3</title>
<g id="a_node3"><a xlink:href="pmm_8c.html#a20ccb461126d548299c6c21f157e6668" target="_top" xlink:title=" ">
<polygon fill="none" stroke="black" points="693.5,-314.32 693.5,-333.32 759.5,-333.32 759.5,-314.32 693.5,-314.32"/>
<text text-anchor="middle" x="726.5" y="-321.32" font-family="Helvetica,sans-Serif" font-size="10.00">kalloc_safe</text>
</a>
</g>
</g>
<!-- Node2&#45;&gt;Node3 -->
<g id="edge2" class="edge">
<title>Node2&#45;&gt;Node3</title>
<path fill="none" stroke="midnightblue" d="M788.4,-296.76C775.98,-302.28 761.05,-308.91 749.08,-314.23"/>
<polygon fill="midnightblue" stroke="midnightblue" points="790,-299.88 797.71,-292.62 787.15,-293.48 790,-299.88"/>
</g>
<!-- Node5 -->
<g id="node5" class="node">
<title>Node5</title>
<g id="a_node5"><a xlink:href="pmm_8c.html#af2f46f4bce6a599542ce4d462aec9e2f" target="_top" xlink:title=" ">
<polygon fill="none" stroke="black" points="695.5,-352.32 695.5,-371.32 757.5,-371.32 757.5,-352.32 695.5,-352.32"/>
<text text-anchor="middle" x="726.5" y="-359.32" font-family="Helvetica,sans-Serif" font-size="10.00">kfree_safe</text>
</a>
</g>
</g>
<!-- Node2&#45;&gt;Node5 -->
<g id="edge4" class="edge">
<title>Node2&#45;&gt;Node5</title>
<path fill="none" stroke="midnightblue" d="M799.71,-303.61C790.12,-315.65 776.38,-331.38 762,-342.82 757.61,-346.31 752.5,-349.52 747.57,-352.26"/>
<polygon fill="midnightblue" stroke="midnightblue" points="802.54,-305.66 805.9,-295.61 797.01,-301.37 802.54,-305.66"/>
</g>
<!-- Node6 -->
<g id="node6" class="node">
<title>Node6</title>
<g id="a_node6"><a xlink:href="os_8c.html#a5f9cb32664e017ca15c49ec66e5342e4" target="_top" xlink:title="cpu start entry">
<polygon fill="none" stroke="black" points="590.5,-286.32 590.5,-305.32 636.5,-305.32 636.5,-286.32 590.5,-286.32"/>
<text text-anchor="middle" x="613.5" y="-293.32" font-family="Helvetica,sans-Serif" font-size="10.00">os_run</text>
</a>
</g>
</g>
<!-- Node2&#45;&gt;Node6 -->
<g id="edge6" class="edge">
<title>Node2&#45;&gt;Node6</title>
<path fill="none" stroke="midnightblue" d="M787.7,-287.1C748.5,-289.07 673.75,-292.84 636.6,-294.71"/>
<polygon fill="midnightblue" stroke="midnightblue" points="787.94,-290.59 797.75,-286.59 787.59,-283.6 787.94,-290.59"/>
</g>
<!-- Node8 -->
<g id="node8" class="node">
<title>Node8</title>
<g id="a_node8"><a xlink:href="spinlock_8c.html#afc9565dc7a5ddf77e1fa76f5d91caf78" target="_top" xlink:title="interrupt able">
<polygon fill="none" stroke="black" points="694,-238.32 694,-257.32 759,-257.32 759,-238.32 694,-238.32"/>
<text text-anchor="middle" x="726.5" y="-245.32" font-family="Helvetica,sans-Serif" font-size="10.00">spin_popcli</text>
</a>
</g>
</g>
<!-- Node2&#45;&gt;Node8 -->
<g id="edge8" class="edge">
<title>Node2&#45;&gt;Node8</title>
<path fill="none" stroke="midnightblue" d="M788.4,-274.89C775.98,-269.37 761.05,-262.73 749.08,-257.41"/>
<polygon fill="midnightblue" stroke="midnightblue" points="787.15,-278.17 797.71,-279.03 790,-271.77 787.15,-278.17"/>
</g>
<!-- Node23 -->
<g id="node23" class="node">
<title>Node23</title>
<g id="a_node23"><a xlink:href="spinlock_8c.html#ab213874cda54fdbbeb1bec1e5fa90b28" target="_top" xlink:title="interrupt disable">
<polygon fill="none" stroke="black" points="691,-200.32 691,-219.32 762,-219.32 762,-200.32 691,-200.32"/>
<text text-anchor="middle" x="726.5" y="-207.32" font-family="Helvetica,sans-Serif" font-size="10.00">spin_pushcli</text>
</a>
</g>
</g>
<!-- Node2&#45;&gt;Node23 -->
<g id="edge50" class="edge">
<title>Node2&#45;&gt;Node23</title>
<path fill="none" stroke="midnightblue" d="M799.71,-268.03C790.12,-256 776.38,-240.27 762,-228.82 757.61,-225.33 752.5,-222.13 747.57,-219.39"/>
<polygon fill="midnightblue" stroke="midnightblue" points="797.01,-270.27 805.9,-276.03 802.54,-265.98 797.01,-270.27"/>
</g>
<!-- Node4 -->
<g id="node4" class="node">
<title>Node4</title>
<g id="a_node4"><a xlink:href="pmm_8c.html#a7ada9deb0ae8705f2cc158b0283aaeb3" target="_top" xlink:title=" ">
<polygon fill="none" stroke="black" points="572,-343.32 572,-362.32 655,-362.32 655,-343.32 572,-343.32"/>
<text text-anchor="middle" x="613.5" y="-350.32" font-family="Helvetica,sans-Serif" font-size="10.00">MODULE_DEF</text>
</a>
</g>
</g>
<!-- Node3&#45;&gt;Node4 -->
<g id="edge3" class="edge">
<title>Node3&#45;&gt;Node4</title>
<path fill="none" stroke="midnightblue" d="M683.49,-334.8C672.87,-337.57 661.55,-340.53 651.22,-343.23"/>
<polygon fill="midnightblue" stroke="midnightblue" points="684.6,-338.13 693.39,-332.21 682.83,-331.35 684.6,-338.13"/>
</g>
<!-- Node5&#45;&gt;Node4 -->
<g id="edge5" class="edge">
<title>Node5&#45;&gt;Node4</title>
<path fill="none" stroke="midnightblue" d="M685.25,-358.56C675.53,-357.77 665.14,-356.93 655.4,-356.14"/>
<polygon fill="midnightblue" stroke="midnightblue" points="685.21,-362.07 695.46,-359.39 685.78,-355.09 685.21,-362.07"/>
</g>
<!-- Node7 -->
<g id="node7" class="node">
<title>Node7</title>
<g id="a_node7"><a xlink:href="os_8c.html#aafec7046aa50c914df86d0d22d4fc1d1" target="_top" xlink:title=" ">
<polygon fill="none" stroke="black" points="206,-409.32 206,-428.32 289,-428.32 289,-409.32 206,-409.32"/>
<text text-anchor="middle" x="247.5" y="-416.32" font-family="Helvetica,sans-Serif" font-size="10.00">MODULE_DEF</text>
</a>
</g>
</g>
<!-- Node6&#45;&gt;Node7 -->
<g id="edge7" class="edge">
<title>Node6&#45;&gt;Node7</title>
<path fill="none" stroke="midnightblue" d="M592.25,-311.96C552.98,-342.84 467.27,-408.19 432,-418.82 384.57,-433.13 327.06,-430.05 289.21,-425.44"/>
<polygon fill="midnightblue" stroke="midnightblue" points="594.64,-314.53 600.32,-305.58 590.3,-309.04 594.64,-314.53"/>
</g>
<!-- Node9 -->
<g id="node9" class="node">
<title>Node9</title>
<g id="a_node9"><a xlink:href="spinlock_8c.html#ad4be0d674a7ca4dc90c2dbf8b34562cc" target="_top" xlink:title="check current cpu has the lock">
<polygon fill="none" stroke="black" points="578,-200.32 578,-219.32 649,-219.32 649,-200.32 578,-200.32"/>
<text text-anchor="middle" x="613.5" y="-207.32" font-family="Helvetica,sans-Serif" font-size="10.00">spin_holding</text>
</a>
</g>
</g>
<!-- Node8&#45;&gt;Node9 -->
<g id="edge9" class="edge">
<title>Node8&#45;&gt;Node9</title>
<path fill="none" stroke="midnightblue" d="M687.61,-234.85C672.82,-229.79 656.17,-224.09 642.5,-219.41"/>
<polygon fill="midnightblue" stroke="midnightblue" points="686.9,-238.31 697.49,-238.23 689.16,-231.68 686.9,-238.31"/>
</g>
<!-- Node22 -->
<g id="node22" class="node">
<title>Node22</title>
<g id="a_node22"><a xlink:href="spinlock_8c.html#acdf118d615a4bc4064e991add9a80995" target="_top" xlink:title="release spinlock from current cpu">
<polygon fill="none" stroke="black" points="468,-238.32 468,-257.32 536,-257.32 536,-238.32 468,-238.32"/>
<text text-anchor="middle" x="502" y="-245.32" font-family="Helvetica,sans-Serif" font-size="10.00">spin_unlock</text>
</a>
</g>
</g>
<!-- Node8&#45;&gt;Node22 -->
<g id="edge49" class="edge">
<title>Node8&#45;&gt;Node22</title>
<path fill="none" stroke="midnightblue" d="M683.55,-247.82C640.86,-247.82 575.53,-247.82 536.27,-247.82"/>
<polygon fill="midnightblue" stroke="midnightblue" points="683.62,-251.32 693.62,-247.82 683.62,-244.32 683.62,-251.32"/>
</g>
<!-- Node10 -->
<g id="node10" class="node">
<title>Node10</title>
<g id="a_node10"><a xlink:href="kmt_8c.html#af9c485ce0d89d6624e6e80e31d8ed207" target="_top" xlink:title="handler: save context to current task">
<polygon fill="none" stroke="black" points="330.5,-162.32 330.5,-181.32 426.5,-181.32 426.5,-162.32 330.5,-162.32"/>
<text text-anchor="middle" x="378.5" y="-169.32" font-family="Helvetica,sans-Serif" font-size="10.00">kmt_context_save</text>
</a>
</g>
</g>
<!-- Node9&#45;&gt;Node10 -->
<g id="edge10" class="edge">
<title>Node9&#45;&gt;Node10</title>
<path fill="none" stroke="midnightblue" d="M567.83,-204.89C539.2,-201.5 501.31,-196.58 468,-190.82 452.51,-188.15 435.62,-184.66 420.79,-181.41"/>
<polygon fill="midnightblue" stroke="midnightblue" points="567.59,-208.39 577.93,-206.07 568.4,-201.44 567.59,-208.39"/>
</g>
<!-- Node13 -->
<g id="node13" class="node">
<title>Node13</title>
<g id="a_node13"><a xlink:href="kmt_8c.html#a5ddb8743298012e84cf9cb5faf22212b" target="_top" xlink:title="create thread">
<polygon fill="none" stroke="black" points="346,-276.32 346,-295.32 411,-295.32 411,-276.32 346,-276.32"/>
<text text-anchor="middle" x="378.5" y="-283.32" font-family="Helvetica,sans-Serif" font-size="10.00">kmt_create</text>
</a>
</g>
</g>
<!-- Node9&#45;&gt;Node13 -->
<g id="edge13" class="edge">
<title>Node9&#45;&gt;Node13</title>
<path fill="none" stroke="midnightblue" d="M595.53,-226.62C581.01,-239.9 558.88,-257.67 536,-266.82 495.09,-283.19 443.74,-286.49 411.26,-286.68"/>
<polygon fill="midnightblue" stroke="midnightblue" points="598.28,-228.84 603.15,-219.42 593.47,-223.75 598.28,-228.84"/>
</g>
<!-- Node14 -->
<g id="node14" class="node">
<title>Node14</title>
<g id="a_node14"><a xlink:href="kmt_8c.html#ad3fbc643b7b6092120c5152b4c890354" target="_top" xlink:title="handler: handle program errors">
<polygon fill="none" stroke="black" points="218.5,-67.32 218.5,-86.32 276.5,-86.32 276.5,-67.32 218.5,-67.32"/>
<text text-anchor="middle" x="247.5" y="-74.32" font-family="Helvetica,sans-Serif" font-size="10.00">kmt_error</text>
</a>
</g>
</g>
<!-- Node9&#45;&gt;Node14 -->
<g id="edge15" class="edge">
<title>Node9&#45;&gt;Node14</title>
<path fill="none" stroke="midnightblue" d="M609.41,-189.93C602.79,-154.41 583.76,-80.32 536,-42.82 461.91,15.35 414.78,5.67 325,-22.82 297.42,-31.58 271.21,-54.26 257.8,-67.28"/>
<polygon fill="midnightblue" stroke="midnightblue" points="606,-190.75 611.15,-200.01 612.9,-189.56 606,-190.75"/>
</g>
<!-- Node15 -->
<g id="node15" class="node">
<title>Node15</title>
<g id="a_node15"><a xlink:href="kmt_8c.html#a0ac321d3074b24b276695a080e835866" target="_top" xlink:title="print all tasks notice: do not garantee concurrency safety">
<polygon fill="none" stroke="black" points="328,-86.32 328,-105.32 429,-105.32 429,-86.32 328,-86.32"/>
<text text-anchor="middle" x="378.5" y="-93.32" font-family="Helvetica,sans-Serif" font-size="10.00">kmt_print_all_tasks</text>
</a>
</g>
</g>
<!-- Node9&#45;&gt;Node15 -->
<g id="edge17" class="edge">
<title>Node9&#45;&gt;Node15</title>
<path fill="none" stroke="midnightblue" d="M593.89,-193.52C579.01,-181.1 557.2,-164.26 536,-152.82 496.43,-131.47 447.19,-115.03 414.62,-105.41"/>
<polygon fill="midnightblue" stroke="midnightblue" points="591.9,-196.42 601.79,-200.24 596.44,-191.09 591.9,-196.42"/>
</g>
<!-- Node16 -->
<g id="node16" class="node">
<title>Node16</title>
<g id="a_node16"><a xlink:href="kmt_8c.html#ad4d70b4093829da1c0b0631abdff7747" target="_top" xlink:title="handler: schedule next task to run Notice: this should be the only handler which returns real Context">
<polygon fill="none" stroke="black" points="209,-110.32 209,-129.32 286,-129.32 286,-110.32 209,-110.32"/>
<text text-anchor="middle" x="247.5" y="-117.32" font-family="Helvetica,sans-Serif" font-size="10.00">kmt_schedule</text>
</a>
</g>
</g>
<!-- Node9&#45;&gt;Node16 -->
<g id="edge24" class="edge">
<title>Node9&#45;&gt;Node16</title>
<path fill="none" stroke="midnightblue" d="M605.46,-190.36C594.56,-162.74 571.12,-112.14 536,-81.82 498.14,-49.14 481.06,-48.57 432,-38.82 385.36,-29.56 366.65,-15.87 325,-38.82 298.76,-53.29 310.49,-74.94 289,-95.82 283.14,-101.52 275.68,-106.43 268.76,-110.29"/>
<polygon fill="midnightblue" stroke="midnightblue" points="602.32,-191.94 609.14,-200.05 608.86,-189.46 602.32,-191.94"/>
</g>
<!-- Node17 -->
<g id="node17" class="node">
<title>Node17</title>
<g id="a_node17"><a xlink:href="kmt_8c.html#ac69761d0146d9aacda65da757868d3c7" target="_top" xlink:title="print all current_tasks notice: do not garantee concurrency safety">
<polygon fill="none" stroke="black" points="325,-48.32 325,-67.32 432,-67.32 432,-48.32 325,-48.32"/>
<text text-anchor="middle" x="378.5" y="-55.32" font-family="Helvetica,sans-Serif" font-size="10.00">kmt_print_cpu_tasks</text>
</a>
</g>
</g>
<!-- Node9&#45;&gt;Node17 -->
<g id="edge21" class="edge">
<title>Node9&#45;&gt;Node17</title>
<path fill="none" stroke="midnightblue" d="M600.93,-191.61C587.45,-171.65 563.48,-139.83 536,-119.82 500.2,-93.77 451.97,-76.84 418.55,-67.36"/>
<polygon fill="midnightblue" stroke="midnightblue" points="598.1,-193.67 606.52,-200.11 603.94,-189.83 598.1,-193.67"/>
</g>
<!-- Node18 -->
<g id="node18" class="node">
<title>Node18</title>
<g id="a_node18"><a xlink:href="kmt_8c.html#a47d8887c87041abd5ea3148232b65c93" target="_top" xlink:title="tear down a thread">
<polygon fill="none" stroke="black" points="339.5,-314.32 339.5,-333.32 417.5,-333.32 417.5,-314.32 339.5,-314.32"/>
<text text-anchor="middle" x="378.5" y="-321.32" font-family="Helvetica,sans-Serif" font-size="10.00">kmt_teardown</text>
</a>
</g>
</g>
<!-- Node9&#45;&gt;Node18 -->
<g id="edge25" class="edge">
<title>Node9&#45;&gt;Node18</title>
<path fill="none" stroke="midnightblue" d="M599.99,-227.91C586.39,-246.15 562.95,-273.72 536,-288.82 499.08,-309.51 450.83,-317.97 417.72,-321.43"/>
<polygon fill="midnightblue" stroke="midnightblue" points="603.17,-229.49 606.18,-219.33 597.49,-225.4 603.17,-229.49"/>
</g>
<!-- Node19 -->
<g id="node19" class="node">
<title>Node19</title>
<g id="a_node19"><a xlink:href="os_8c.html#a2be1c9facb49d4439f41b1537d0f3ef8" target="_top" xlink:title="System trap entry.">
<polygon fill="none" stroke="black" points="354,-390.32 354,-409.32 403,-409.32 403,-390.32 354,-390.32"/>
<text text-anchor="middle" x="378.5" y="-397.32" font-family="Helvetica,sans-Serif" font-size="10.00">os_trap</text>
</a>
</g>
</g>
<!-- Node9&#45;&gt;Node19 -->
<g id="edge27" class="edge">
<title>Node9&#45;&gt;Node19</title>
<path fill="none" stroke="midnightblue" d="M602.12,-228.19C588.9,-250.43 564.34,-288.1 536,-313.82 495.25,-350.81 435.77,-377.85 403.13,-390.96"/>
<polygon fill="midnightblue" stroke="midnightblue" points="605.22,-229.82 607.22,-219.42 599.17,-226.3 605.22,-229.82"/>
</g>
<!-- Node20 -->
<g id="node20" class="node">
<title>Node20</title>
<g id="a_node20"><a xlink:href="spinlock_8c.html#ab6f3c37ec37006951feccc3c05387cce" target="_top" xlink:title="acquire spinlock to current cpu">
<polygon fill="none" stroke="black" points="473,-162.32 473,-181.32 531,-181.32 531,-162.32 473,-162.32"/>
<text text-anchor="middle" x="502" y="-169.32" font-family="Helvetica,sans-Serif" font-size="10.00">spin_lock</text>
</a>
</g>
</g>
<!-- Node9&#45;&gt;Node20 -->
<g id="edge29" class="edge">
<title>Node9&#45;&gt;Node20</title>
<path fill="none" stroke="midnightblue" d="M575.12,-196.85C560.53,-191.79 544.11,-186.09 530.62,-181.41"/>
<polygon fill="midnightblue" stroke="midnightblue" points="574.27,-200.26 584.87,-200.23 576.57,-193.65 574.27,-200.26"/>
</g>
<!-- Node9&#45;&gt;Node22 -->
<g id="edge39" class="edge">
<title>Node9&#45;&gt;Node22</title>
<path fill="none" stroke="midnightblue" d="M575.12,-222.79C560.53,-227.86 544.11,-233.56 530.62,-238.24"/>
<polygon fill="midnightblue" stroke="midnightblue" points="576.57,-226 584.87,-219.41 574.27,-219.38 576.57,-226"/>
</g>
<!-- Node11 -->
<g id="node11" class="node">
<title>Node11</title>
<g id="a_node11"><a xlink:href="kmt_8c.html#a0c68a294cecc4be7cb4b495f15b883a0" target="_top" xlink:title="initialize kmt module">
<polygon fill="none" stroke="black" points="119,-129.32 119,-148.32 170,-148.32 170,-129.32 119,-129.32"/>
<text text-anchor="middle" x="144.5" y="-136.32" font-family="Helvetica,sans-Serif" font-size="10.00">kmt_init</text>
</a>
</g>
</g>
<!-- Node10&#45;&gt;Node11 -->
<g id="edge11" class="edge">
<title>Node10&#45;&gt;Node11</title>
<path fill="none" stroke="midnightblue" d="M320.3,-163.69C272.17,-156.84 205.67,-147.38 170.18,-142.33"/>
<polygon fill="midnightblue" stroke="midnightblue" points="319.88,-167.16 330.27,-165.11 320.86,-160.23 319.88,-167.16"/>
</g>
<!-- Node12 -->
<g id="node12" class="node">
<title>Node12</title>
<g id="a_node12"><a xlink:href="kmt_8c.html#af360ef0d98ca30e481cc58ea3695fd58" target="_top" xlink:title=" ">
<polygon fill="none" stroke="black" points="0,-276.32 0,-295.32 83,-295.32 83,-276.32 0,-276.32"/>
<text text-anchor="middle" x="41.5" y="-283.32" font-family="Helvetica,sans-Serif" font-size="10.00">MODULE_DEF</text>
</a>
</g>
</g>
<!-- Node11&#45;&gt;Node12 -->
<g id="edge12" class="edge">
<title>Node11&#45;&gt;Node12</title>
<path fill="none" stroke="midnightblue" d="M131.21,-156.71C109.73,-187.97 66.07,-251.52 49.28,-275.95"/>
<polygon fill="midnightblue" stroke="midnightblue" points="134.09,-158.69 136.87,-148.47 128.33,-154.73 134.09,-158.69"/>
</g>
<!-- Node13&#45;&gt;Node12 -->
<g id="edge14" class="edge">
<title>Node13&#45;&gt;Node12</title>
<path fill="none" stroke="midnightblue" d="M335.74,-285.82C271.02,-285.82 147.29,-285.82 83.21,-285.82"/>
<polygon fill="midnightblue" stroke="midnightblue" points="335.98,-289.32 345.98,-285.82 335.98,-282.32 335.98,-289.32"/>
</g>
<!-- Node14&#45;&gt;Node11 -->
<g id="edge16" class="edge">
<title>Node14&#45;&gt;Node11</title>
<path fill="none" stroke="midnightblue" d="M221.16,-91.7C216.12,-94.7 210.88,-97.84 206,-100.82 190.54,-110.26 173.04,-121.29 160.85,-129.03"/>
<polygon fill="midnightblue" stroke="midnightblue" points="223.07,-94.64 229.89,-86.54 219.5,-88.62 223.07,-94.64"/>
</g>
<!-- Node15&#45;&gt;Node14 -->
<g id="edge18" class="edge">
<title>Node15&#45;&gt;Node14</title>
<path fill="none" stroke="midnightblue" d="M317.7,-87.02C303.44,-84.91 288.86,-82.77 276.79,-80.99"/>
<polygon fill="midnightblue" stroke="midnightblue" points="317.59,-90.54 327.99,-88.53 318.61,-83.61 317.59,-90.54"/>
</g>
<!-- Node15&#45;&gt;Node16 -->
<g id="edge19" class="edge">
<title>Node15&#45;&gt;Node16</title>
<path fill="none" stroke="midnightblue" d="M318.08,-106.88C307.18,-108.91 296.08,-110.97 286.05,-112.84"/>
<polygon fill="midnightblue" stroke="midnightblue" points="318.8,-110.3 327.99,-105.03 317.52,-103.42 318.8,-110.3"/>
</g>
<!-- Node16&#45;&gt;Node11 -->
<g id="edge20" class="edge">
<title>Node16&#45;&gt;Node11</title>
<path fill="none" stroke="midnightblue" d="M199.05,-128.75C189.1,-130.62 178.98,-132.52 170.27,-134.16"/>
<polygon fill="midnightblue" stroke="midnightblue" points="199.71,-132.19 208.89,-126.9 198.42,-125.31 199.71,-132.19"/>
</g>
<!-- Node17&#45;&gt;Node14 -->
<g id="edge22" class="edge">
<title>Node17&#45;&gt;Node14</title>
<path fill="none" stroke="midnightblue" d="M314.56,-67.09C301.28,-69.05 287.92,-71.02 276.72,-72.67"/>
<polygon fill="midnightblue" stroke="midnightblue" points="315.28,-70.53 324.66,-65.61 314.26,-63.6 315.28,-70.53"/>
</g>
<!-- Node17&#45;&gt;Node16 -->
<g id="edge23" class="edge">
<title>Node17&#45;&gt;Node16</title>
<path fill="none" stroke="midnightblue" d="M338.92,-70.96C334.18,-72.81 329.45,-74.79 325,-76.82 313.3,-82.19 283.71,-99.21 264.95,-110.16"/>
<polygon fill="midnightblue" stroke="midnightblue" points="340.42,-74.13 348.55,-67.34 337.95,-67.58 340.42,-74.13"/>
</g>
<!-- Node18&#45;&gt;Node12 -->
<g id="edge26" class="edge">
<title>Node18&#45;&gt;Node12</title>
<path fill="none" stroke="midnightblue" d="M329,-320.61C276.94,-316.85 191.89,-309.86 119,-299.82 107.36,-298.22 94.8,-296.09 83.29,-293.98"/>
<polygon fill="midnightblue" stroke="midnightblue" points="329.05,-324.12 339.27,-321.34 329.55,-317.14 329.05,-324.12"/>
</g>
<!-- Node19&#45;&gt;Node7 -->
<g id="edge28" class="edge">
<title>Node19&#45;&gt;Node7</title>
<path fill="none" stroke="midnightblue" d="M343.48,-404.83C326.85,-407.28 306.7,-410.25 289.25,-412.82"/>
<polygon fill="midnightblue" stroke="midnightblue" points="344.46,-408.23 353.84,-403.31 343.44,-401.3 344.46,-408.23"/>
</g>
<!-- Node20&#45;&gt;Node10 -->
<g id="edge30" class="edge">
<title>Node20&#45;&gt;Node10</title>
<path fill="none" stroke="midnightblue" d="M462.7,-171.82C451.23,-171.82 438.52,-171.82 426.56,-171.82"/>
<polygon fill="midnightblue" stroke="midnightblue" points="462.82,-175.32 472.82,-171.82 462.82,-168.32 462.82,-175.32"/>
</g>
<!-- Node20&#45;&gt;Node12 -->
<g id="edge37" class="edge">
<title>Node20&#45;&gt;Node12</title>
<path fill="none" stroke="midnightblue" d="M497.44,-152.26C490.72,-121.74 472.98,-63.73 432,-38.82 345.86,13.53 299.28,-19.62 206,-57.82 162.06,-75.82 149.29,-83.26 119,-119.82 76.7,-170.9 52.48,-249.22 45.01,-276.26"/>
<polygon fill="midnightblue" stroke="midnightblue" points="494.03,-153.04 499.44,-162.14 500.89,-151.65 494.03,-153.04"/>
</g>
<!-- Node20&#45;&gt;Node13 -->
<g id="edge31" class="edge">
<title>Node20&#45;&gt;Node13</title>
<path fill="none" stroke="midnightblue" d="M483.06,-188.65C457.26,-212.86 410.52,-256.71 389.83,-276.13"/>
<polygon fill="midnightblue" stroke="midnightblue" points="485.74,-190.94 490.64,-181.54 480.95,-185.83 485.74,-190.94"/>
</g>
<!-- Node20&#45;&gt;Node15 -->
<g id="edge32" class="edge">
<title>Node20&#45;&gt;Node15</title>
<path fill="none" stroke="midnightblue" d="M481.81,-155.57C468.39,-144.66 449.76,-130.4 432,-119.82 422.96,-114.44 412.5,-109.43 403.31,-105.4"/>
<polygon fill="midnightblue" stroke="midnightblue" points="479.88,-158.51 489.82,-162.19 484.34,-153.12 479.88,-158.51"/>
</g>
<!-- Node20&#45;&gt;Node16 -->
<g id="edge34" class="edge">
<title>Node20&#45;&gt;Node16</title>
<path fill="none" stroke="midnightblue" d="M463.19,-160.75C453.11,-157.97 442.18,-155.13 432,-152.82 381.97,-141.46 323.55,-131.52 286.31,-125.59"/>
<polygon fill="midnightblue" stroke="midnightblue" points="462.37,-164.15 472.95,-163.48 464.26,-157.41 462.37,-164.15"/>
</g>
<!-- Node20&#45;&gt;Node17 -->
<g id="edge33" class="edge">
<title>Node20&#45;&gt;Node17</title>
<path fill="none" stroke="midnightblue" d="M491.92,-153.29C480.62,-132.03 459.42,-97.45 432,-76.82 426.89,-72.98 420.92,-69.85 414.88,-67.33"/>
<polygon fill="midnightblue" stroke="midnightblue" points="488.85,-154.98 496.52,-162.28 495.08,-151.79 488.85,-154.98"/>
</g>
<!-- Node20&#45;&gt;Node18 -->
<g id="edge35" class="edge">
<title>Node20&#45;&gt;Node18</title>
<path fill="none" stroke="midnightblue" d="M489.9,-190.11C483.31,-201.18 474.91,-215.67 468,-228.82 450.62,-261.91 459.66,-279.68 432,-304.82 427.77,-308.67 422.7,-311.75 417.4,-314.22"/>
<polygon fill="midnightblue" stroke="midnightblue" points="493,-191.74 495.15,-181.37 487,-188.14 493,-191.74"/>
</g>
<!-- Node20&#45;&gt;Node19 -->
<g id="edge38" class="edge">
<title>Node20&#45;&gt;Node19</title>
<path fill="none" stroke="midnightblue" d="M488.99,-190.18C482.21,-201.09 473.92,-215.39 468,-228.82 446.56,-277.44 458.64,-296.85 432,-342.82 421.07,-361.68 402.95,-379.5 391.12,-390.04"/>
<polygon fill="midnightblue" stroke="midnightblue" points="492.06,-191.88 494.47,-181.56 486.15,-188.12 492.06,-191.88"/>
</g>
<!-- Node21 -->
<g id="node21" class="node">
<title>Node21</title>
<g id="a_node21"><a xlink:href="kernel_8h.html#a7ef2d722f9c7f8acc1801144a5188825" target="_top" xlink:title=" ">
<polygon fill="none" stroke="black" points="349,-200.32 349,-219.32 408,-219.32 408,-200.32 349,-200.32"/>
<text text-anchor="middle" x="378.5" y="-207.32" font-family="Helvetica,sans-Serif" font-size="10.00">MODULE</text>
</a>
</g>
</g>
<!-- Node20&#45;&gt;Node21 -->
<g id="edge36" class="edge">
<title>Node20&#45;&gt;Node21</title>
<path fill="none" stroke="midnightblue" d="M462.85,-183.76C445.23,-189.26 424.67,-195.7 408.37,-200.79"/>
<polygon fill="midnightblue" stroke="midnightblue" points="464.32,-186.96 472.82,-180.64 462.23,-180.28 464.32,-186.96"/>
</g>
<!-- Node22&#45;&gt;Node10 -->
<g id="edge40" class="edge">
<title>Node22&#45;&gt;Node10</title>
<path fill="none" stroke="midnightblue" d="M478.71,-232.14C475.07,-229.43 471.39,-226.6 468,-223.82 451.2,-210.08 450.57,-202.07 432,-190.82 425.86,-187.11 418.89,-183.95 412.07,-181.34"/>
<polygon fill="midnightblue" stroke="midnightblue" points="476.78,-235.07 486.93,-238.12 480.9,-229.41 476.78,-235.07"/>
</g>
<!-- Node22&#45;&gt;Node12 -->
<g id="edge47" class="edge">
<title>Node22&#45;&gt;Node12</title>
<path fill="none" stroke="midnightblue" d="M490.47,-266.14C475.55,-291.34 448.27,-334.53 432,-342.82 302,-409.07 117.93,-325.18 60.39,-295.49"/>
<polygon fill="midnightblue" stroke="midnightblue" points="493.51,-267.87 495.53,-257.47 487.47,-264.34 493.51,-267.87"/>
</g>
<!-- Node22&#45;&gt;Node13 -->
<g id="edge41" class="edge">
<title>Node22&#45;&gt;Node13</title>
<path fill="none" stroke="midnightblue" d="M460.46,-260.5C444.04,-265.64 425.4,-271.47 410.15,-276.24"/>
<polygon fill="midnightblue" stroke="midnightblue" points="461.84,-263.74 470.34,-257.41 459.75,-257.06 461.84,-263.74"/>
</g>
<!-- Node22&#45;&gt;Node15 -->
<g id="edge42" class="edge">
<title>Node22&#45;&gt;Node15</title>
<path fill="none" stroke="midnightblue" d="M488.7,-229.6C475.35,-210.12 453.09,-178.57 432,-152.82 417.85,-135.55 399.98,-116.71 389.16,-105.6"/>
<polygon fill="midnightblue" stroke="midnightblue" points="485.98,-231.82 494.5,-238.11 491.76,-227.87 485.98,-231.82"/>
</g>
<!-- Node22&#45;&gt;Node16 -->
<g id="edge44" class="edge">
<title>Node22&#45;&gt;Node16</title>
<path fill="none" stroke="midnightblue" d="M457.52,-252.71C419.87,-254.82 365.28,-252.6 325,-228.82 284.98,-205.2 260.64,-151.48 252.03,-129.48"/>
<polygon fill="midnightblue" stroke="midnightblue" points="457.93,-256.19 467.66,-252.02 457.45,-249.21 457.93,-256.19"/>
</g>
<!-- Node22&#45;&gt;Node17 -->
<g id="edge43" class="edge">
<title>Node22&#45;&gt;Node17</title>
<path fill="none" stroke="midnightblue" d="M488.99,-229.47C482.21,-218.55 473.92,-204.26 468,-190.82 446.56,-142.21 468.79,-115.16 432,-76.82 428.31,-72.98 423.78,-69.91 418.95,-67.45"/>
<polygon fill="midnightblue" stroke="midnightblue" points="486.15,-231.52 494.47,-238.08 492.06,-227.77 486.15,-231.52"/>
</g>
<!-- Node22&#45;&gt;Node18 -->
<g id="edge45" class="edge">
<title>Node22&#45;&gt;Node18</title>
<path fill="none" stroke="midnightblue" d="M484.12,-264.61C470.86,-277.06 451.44,-293.72 432,-304.82 425.6,-308.48 418.38,-311.63 411.38,-314.27"/>
<polygon fill="midnightblue" stroke="midnightblue" points="486.74,-266.95 491.52,-257.49 481.89,-261.9 486.74,-266.95"/>
</g>
<!-- Node22&#45;&gt;Node19 -->
<g id="edge48" class="edge">
<title>Node22&#45;&gt;Node19</title>
<path fill="none" stroke="midnightblue" d="M495.01,-267.12C485.63,-294.54 465.02,-344.9 432,-375.82 423.88,-383.43 412.93,-388.95 403.13,-392.76"/>
<polygon fill="midnightblue" stroke="midnightblue" points="498.37,-268.1 498.16,-257.51 491.72,-265.92 498.37,-268.1"/>
</g>
<!-- Node22&#45;&gt;Node21 -->
<g id="edge46" class="edge">
<title>Node22&#45;&gt;Node21</title>
<path fill="none" stroke="midnightblue" d="M460.55,-235.17C443.35,-229.79 423.71,-223.65 408.06,-218.76"/>
<polygon fill="midnightblue" stroke="midnightblue" points="459.75,-238.59 470.34,-238.23 461.84,-231.91 459.75,-238.59"/>
</g>
<!-- Node23&#45;&gt;Node9 -->
<g id="edge51" class="edge">
<title>Node23&#45;&gt;Node9</title>
<path fill="none" stroke="midnightblue" d="M680.77,-209.82C670.31,-209.82 659.33,-209.82 649.37,-209.82"/>
<polygon fill="midnightblue" stroke="midnightblue" points="680.99,-213.32 690.99,-209.82 680.99,-206.32 680.99,-213.32"/>
</g>
<!-- Node23&#45;&gt;Node20 -->
<g id="edge52" class="edge">
<title>Node23&#45;&gt;Node20</title>
<path fill="none" stroke="midnightblue" d="M683.84,-197.57C674.41,-195.08 664.41,-192.67 655,-190.82 612.2,-182.42 561.86,-176.99 531.2,-174.17"/>
<polygon fill="midnightblue" stroke="midnightblue" points="683.22,-201.03 693.78,-200.27 685.05,-194.27 683.22,-201.03"/>
</g>
</g>
</svg>
