<?xml version="1.0" encoding="UTF-8" standalone="no"?>
<!DOCTYPE svg PUBLIC "-//W3C//DTD SVG 1.1//EN"
 "http://www.w3.org/Graphics/SVG/1.1/DTD/svg11.dtd">
<!-- Generated by graphviz version 2.50.0 (20220203.2022)
 -->
<!-- Title: protect Pages: 1 -->
<svg width="143pt" height="104pt"
 viewBox="0.00 0.00 143.00 104.00" xmlns="http://www.w3.org/2000/svg" xmlns:xlink="http://www.w3.org/1999/xlink">
<g id="graph0" class="graph" transform="scale(1 1) rotate(0) translate(4 100)">
<title>protect</title>
<!-- Node1 -->
<g id="node1" class="node">
<title>Node1</title>
<g id="a_node1"><a xlink:title=" ">
<polygon fill="#bfbfbf" stroke="black" points="0,-38.5 0,-57.5 47,-57.5 47,-38.5 0,-38.5"/>
<text text-anchor="middle" x="23.5" y="-45.5" font-family="Helvetica,sans-Serif" font-size="10.00">protect</text>
</a>
</g>
</g>
<!-- Node2 -->
<g id="node2" class="node">
<title>Node2</title>
<g id="a_node2"><a xlink:href="x86_2qemu_2vme_8c.html#a424824adb516648992a09edfac66469e" target="_top" xlink:title=" ">
<polygon fill="none" stroke="black" points="85.5,-76.5 85.5,-95.5 132.5,-95.5 132.5,-76.5 85.5,-76.5"/>
<text text-anchor="middle" x="109" y="-83.5" font-family="Helvetica,sans-Serif" font-size="10.00">indexof</text>
</a>
</g>
</g>
<!-- Node1&#45;&gt;Node2 -->
<g id="edge1" class="edge">
<title>Node1&#45;&gt;Node2</title>
<path fill="none" stroke="midnightblue" d="M45.57,-57.59C55.26,-62 66.94,-67.31 77.56,-72.15"/>
<polygon fill="midnightblue" stroke="midnightblue" points="76.38,-75.46 86.94,-76.41 79.28,-69.09 76.38,-75.46"/>
</g>
<!-- Node3 -->
<g id="node3" class="node">
<title>Node3</title>
<g id="a_node3"><a xlink:href="string_8c.html#a313175102214d45434bf045db18dddf0" target="_top" xlink:title=" ">
<polygon fill="none" stroke="black" points="83,-38.5 83,-57.5 135,-57.5 135,-38.5 83,-38.5"/>
<text text-anchor="middle" x="109" y="-45.5" font-family="Helvetica,sans-Serif" font-size="10.00">memset</text>
</a>
</g>
</g>
<!-- Node1&#45;&gt;Node3 -->
<g id="edge2" class="edge">
<title>Node1&#45;&gt;Node3</title>
<path fill="none" stroke="midnightblue" d="M47.32,-48C55.14,-48 64.1,-48 72.68,-48"/>
<polygon fill="midnightblue" stroke="midnightblue" points="72.86,-51.5 82.86,-48 72.86,-44.5 72.86,-51.5"/>
</g>
<!-- Node4 -->
<g id="node4" class="node">
<title>Node4</title>
<g id="a_node4"><a xlink:href="x86_2qemu_2vme_8c.html#ac47719fc92b58613161d4f9ba152901a" target="_top" xlink:title=" ">
<polygon fill="none" stroke="black" points="83,-0.5 83,-19.5 135,-19.5 135,-0.5 83,-0.5"/>
<text text-anchor="middle" x="109" y="-7.5" font-family="Helvetica,sans-Serif" font-size="10.00">pgallocz</text>
</a>
</g>
</g>
<!-- Node1&#45;&gt;Node4 -->
<g id="edge3" class="edge">
<title>Node1&#45;&gt;Node4</title>
<path fill="none" stroke="midnightblue" d="M45.57,-38.41C55.26,-34 66.94,-28.69 77.56,-23.85"/>
<polygon fill="midnightblue" stroke="midnightblue" points="79.28,-26.91 86.94,-19.59 76.38,-20.54 79.28,-26.91"/>
</g>
</g>
</svg>
