<?xml version="1.0" encoding="UTF-8" standalone="no"?>
<!DOCTYPE svg PUBLIC "-//W3C//DTD SVG 1.1//EN"
 "http://www.w3.org/Graphics/SVG/1.1/DTD/svg11.dtd">
<!-- Generated by graphviz version 3.0.0 (20220413.0106)
 -->
<!-- Title: cli Pages: 1 -->
<svg width="696pt" height="322pt"
 viewBox="0.00 0.00 696.00 322.00" xmlns="http://www.w3.org/2000/svg" xmlns:xlink="http://www.w3.org/1999/xlink">
<g id="graph0" class="graph" transform="scale(1 1) rotate(0) translate(4 318)">
<title>cli</title>
<!-- Node1 -->
<g id="node1" class="node">
<title>Node1</title>
<g id="a_node1"><a xlink:title=" ">
<polygon fill="#bfbfbf" stroke="black" points="659,-142.5 659,-161.5 688,-161.5 688,-142.5 659,-142.5"/>
<text text-anchor="middle" x="673.5" y="-149.5" font-family="Helvetica,sans-Serif" font-size="10.00">cli</text>
</a>
</g>
</g>
<!-- Node2 -->
<g id="node2" class="node">
<title>Node2</title>
<g id="a_node2"><a xlink:href="trm_8c.html#a483cb97188e557c3c68d3a1572c2cc92" target="_top" xlink:title=" ">
<polygon fill="none" stroke="black" points="591,-189.5 591,-208.5 623,-208.5 623,-189.5 591,-189.5"/>
<text text-anchor="middle" x="607" y="-196.5" font-family="Helvetica,sans-Serif" font-size="10.00">halt</text>
</a>
</g>
</g>
<!-- Node1&#45;&gt;Node2 -->
<g id="edge1" class="edge">
<title>Node1&#45;&gt;Node2</title>
<path fill="none" stroke="midnightblue" d="M651.32,-167.43C641.5,-174.59 630.11,-182.89 621.48,-189.18"/>
<polygon fill="midnightblue" stroke="midnightblue" points="653.43,-170.23 659.45,-161.51 649.3,-164.57 653.43,-170.23"/>
</g>
<!-- Node5 -->
<g id="node5" class="node">
<title>Node5</title>
<g id="a_node5"><a xlink:href="cte_8c.html#a4a139958742786c5085172be1f69bfd0" target="_top" xlink:title=" ">
<polygon fill="none" stroke="black" points="591,-123.5 591,-142.5 623,-142.5 623,-123.5 591,-123.5"/>
<text text-anchor="middle" x="607" y="-130.5" font-family="Helvetica,sans-Serif" font-size="10.00">iset</text>
</a>
</g>
</g>
<!-- Node1&#45;&gt;Node5 -->
<g id="edge4" class="edge">
<title>Node1&#45;&gt;Node5</title>
<path fill="none" stroke="midnightblue" d="M649.18,-145.13C640.46,-142.56 630.79,-139.71 623.01,-137.42"/>
<polygon fill="midnightblue" stroke="midnightblue" points="648.24,-148.5 658.82,-147.97 650.22,-141.79 648.24,-148.5"/>
</g>
<!-- Node3 -->
<g id="node3" class="node">
<title>Node3</title>
<g id="a_node3"><a xlink:href="trm_8c.html#a12a49ff4d3a586b2315e292c5da3df7e" target="_top" xlink:title=" ">
<polygon fill="none" stroke="black" points="490.5,-218.5 490.5,-237.5 548.5,-237.5 548.5,-218.5 490.5,-218.5"/>
<text text-anchor="middle" x="519.5" y="-225.5" font-family="Helvetica,sans-Serif" font-size="10.00">call_main</text>
</a>
</g>
</g>
<!-- Node2&#45;&gt;Node3 -->
<g id="edge2" class="edge">
<title>Node2&#45;&gt;Node3</title>
<path fill="none" stroke="midnightblue" d="M581.23,-207.4C571.08,-210.85 559.27,-214.85 548.79,-218.41"/>
<polygon fill="midnightblue" stroke="midnightblue" points="582.37,-210.71 590.71,-204.18 580.12,-204.08 582.37,-210.71"/>
</g>
<!-- Node4 -->
<g id="node4" class="node">
<title>Node4</title>
<g id="a_node4"><a xlink:href="trm_8c.html#a54a85aeee6f6a8ef875d4cca663f9fd8" target="_top" xlink:title=" ">
<polygon fill="none" stroke="black" points="380.5,-218.5 380.5,-237.5 432.5,-237.5 432.5,-218.5 380.5,-218.5"/>
<text text-anchor="middle" x="406.5" y="-225.5" font-family="Helvetica,sans-Serif" font-size="10.00">_start_c</text>
</a>
</g>
</g>
<!-- Node3&#45;&gt;Node4 -->
<g id="edge3" class="edge">
<title>Node3&#45;&gt;Node4</title>
<path fill="none" stroke="midnightblue" d="M480.06,-228C464.43,-228 446.81,-228 432.84,-228"/>
<polygon fill="midnightblue" stroke="midnightblue" points="480.49,-231.5 490.49,-228 480.49,-224.5 480.49,-231.5"/>
</g>
<!-- Node6 -->
<g id="node6" class="node">
<title>Node6</title>
<g id="a_node6"><a xlink:href="pmm_8c.html#a20ccb461126d548299c6c21f157e6668" target="_top" xlink:title=" ">
<polygon fill="none" stroke="black" points="486.5,-180.5 486.5,-199.5 552.5,-199.5 552.5,-180.5 486.5,-180.5"/>
<text text-anchor="middle" x="519.5" y="-187.5" font-family="Helvetica,sans-Serif" font-size="10.00">kalloc_safe</text>
</a>
</g>
</g>
<!-- Node5&#45;&gt;Node6 -->
<g id="edge5" class="edge">
<title>Node5&#45;&gt;Node6</title>
<path fill="none" stroke="midnightblue" d="M586.02,-148.88C576.79,-155.95 565.55,-164.21 555,-171 549.94,-174.26 544.28,-177.52 539.04,-180.4"/>
<polygon fill="midnightblue" stroke="midnightblue" points="588.43,-151.44 594.17,-142.54 584.13,-145.92 588.43,-151.44"/>
</g>
<!-- Node8 -->
<g id="node8" class="node">
<title>Node8</title>
<g id="a_node8"><a xlink:href="pmm_8c.html#af2f46f4bce6a599542ce4d462aec9e2f" target="_top" xlink:title=" ">
<polygon fill="none" stroke="black" points="488.5,-142.5 488.5,-161.5 550.5,-161.5 550.5,-142.5 488.5,-142.5"/>
<text text-anchor="middle" x="519.5" y="-149.5" font-family="Helvetica,sans-Serif" font-size="10.00">kfree_safe</text>
</a>
</g>
</g>
<!-- Node5&#45;&gt;Node8 -->
<g id="edge7" class="edge">
<title>Node5&#45;&gt;Node8</title>
<path fill="none" stroke="midnightblue" d="M580.73,-138.62C571.26,-140.72 560.4,-143.13 550.53,-145.33"/>
<polygon fill="midnightblue" stroke="midnightblue" points="581.71,-141.98 590.71,-136.4 580.19,-135.15 581.71,-141.98"/>
</g>
<!-- Node9 -->
<g id="node9" class="node">
<title>Node9</title>
<g id="a_node9"><a xlink:href="os_8c.html#a5f9cb32664e017ca15c49ec66e5342e4" target="_top" xlink:title="cpu start entry">
<polygon fill="none" stroke="black" points="383.5,-0.5 383.5,-19.5 429.5,-19.5 429.5,-0.5 383.5,-0.5"/>
<text text-anchor="middle" x="406.5" y="-7.5" font-family="Helvetica,sans-Serif" font-size="10.00">os_run</text>
</a>
</g>
</g>
<!-- Node5&#45;&gt;Node9 -->
<g id="edge9" class="edge">
<title>Node5&#45;&gt;Node9</title>
<path fill="none" stroke="midnightblue" d="M597.86,-114.19C589.48,-96.95 574.86,-71.92 555,-57 516.75,-28.27 460.38,-16.77 429.58,-12.43"/>
<polygon fill="midnightblue" stroke="midnightblue" points="594.69,-115.69 602.06,-123.3 601.05,-112.75 594.69,-115.69"/>
</g>
<!-- Node11 -->
<g id="node11" class="node">
<title>Node11</title>
<g id="a_node11"><a xlink:href="spinlock_8c.html#afc9565dc7a5ddf77e1fa76f5d91caf78" target="_top" xlink:title="interrupt able">
<polygon fill="none" stroke="black" points="487,-66.5 487,-85.5 552,-85.5 552,-66.5 487,-66.5"/>
<text text-anchor="middle" x="519.5" y="-73.5" font-family="Helvetica,sans-Serif" font-size="10.00">spin_popcli</text>
</a>
</g>
</g>
<!-- Node5&#45;&gt;Node11 -->
<g id="edge11" class="edge">
<title>Node5&#45;&gt;Node11</title>
<path fill="none" stroke="midnightblue" d="M586.02,-117.12C576.79,-110.05 565.55,-101.79 555,-95 549.94,-91.74 544.28,-88.48 539.04,-85.6"/>
<polygon fill="midnightblue" stroke="midnightblue" points="584.13,-120.08 594.17,-123.46 588.43,-114.56 584.13,-120.08"/>
</g>
<!-- Node24 -->
<g id="node24" class="node">
<title>Node24</title>
<g id="a_node24"><a xlink:href="spinlock_8c.html#ab213874cda54fdbbeb1bec1e5fa90b28" target="_top" xlink:title="interrupt disable">
<polygon fill="none" stroke="black" points="484,-104.5 484,-123.5 555,-123.5 555,-104.5 484,-104.5"/>
<text text-anchor="middle" x="519.5" y="-111.5" font-family="Helvetica,sans-Serif" font-size="10.00">spin_pushcli</text>
</a>
</g>
</g>
<!-- Node5&#45;&gt;Node24 -->
<g id="edge39" class="edge">
<title>Node5&#45;&gt;Node24</title>
<path fill="none" stroke="midnightblue" d="M580.84,-127.41C572.8,-125.62 563.75,-123.61 555.16,-121.7"/>
<polygon fill="midnightblue" stroke="midnightblue" points="580.19,-130.85 590.71,-129.6 581.71,-124.02 580.19,-130.85"/>
</g>
<!-- Node7 -->
<g id="node7" class="node">
<title>Node7</title>
<g id="a_node7"><a xlink:href="pmm_8c.html#a7ada9deb0ae8705f2cc158b0283aaeb3" target="_top" xlink:title=" ">
<polygon fill="none" stroke="black" points="365,-180.5 365,-199.5 448,-199.5 448,-180.5 365,-180.5"/>
<text text-anchor="middle" x="406.5" y="-187.5" font-family="Helvetica,sans-Serif" font-size="10.00">MODULE_DEF</text>
</a>
</g>
</g>
<!-- Node6&#45;&gt;Node7 -->
<g id="edge6" class="edge">
<title>Node6&#45;&gt;Node7</title>
<path fill="none" stroke="midnightblue" d="M476.29,-190C467.09,-190 457.38,-190 448.24,-190"/>
<polygon fill="midnightblue" stroke="midnightblue" points="476.39,-193.5 486.39,-190 476.39,-186.5 476.39,-193.5"/>
</g>
<!-- Node8&#45;&gt;Node7 -->
<g id="edge8" class="edge">
<title>Node8&#45;&gt;Node7</title>
<path fill="none" stroke="midnightblue" d="M480.61,-164.97C465.82,-170.03 449.17,-175.73 435.5,-180.41"/>
<polygon fill="midnightblue" stroke="midnightblue" points="482.16,-168.14 490.49,-161.59 479.9,-161.52 482.16,-168.14"/>
</g>
<!-- Node10 -->
<g id="node10" class="node">
<title>Node10</title>
<g id="a_node10"><a xlink:href="os_8c.html#aafec7046aa50c914df86d0d22d4fc1d1" target="_top" xlink:title=" ">
<polygon fill="none" stroke="black" points="0,-9.5 0,-28.5 83,-28.5 83,-9.5 0,-9.5"/>
<text text-anchor="middle" x="41.5" y="-16.5" font-family="Helvetica,sans-Serif" font-size="10.00">MODULE_DEF</text>
</a>
</g>
</g>
<!-- Node9&#45;&gt;Node10 -->
<g id="edge10" class="edge">
<title>Node9&#45;&gt;Node10</title>
<path fill="none" stroke="midnightblue" d="M373.08,-10.8C306.8,-12.45 155.9,-16.19 83.17,-17.99"/>
<polygon fill="midnightblue" stroke="midnightblue" points="373.43,-14.3 383.34,-10.55 373.26,-7.3 373.43,-14.3"/>
</g>
<!-- Node12 -->
<g id="node12" class="node">
<title>Node12</title>
<g id="a_node12"><a xlink:href="spinlock_8c.html#ad4be0d674a7ca4dc90c2dbf8b34562cc" target="_top" xlink:title="check current cpu has the lock">
<polygon fill="none" stroke="black" points="371,-104.5 371,-123.5 442,-123.5 442,-104.5 371,-104.5"/>
<text text-anchor="middle" x="406.5" y="-111.5" font-family="Helvetica,sans-Serif" font-size="10.00">spin_holding</text>
</a>
</g>
</g>
<!-- Node11&#45;&gt;Node12 -->
<g id="edge12" class="edge">
<title>Node11&#45;&gt;Node12</title>
<path fill="none" stroke="midnightblue" d="M480.61,-88.97C465.82,-94.03 449.17,-99.73 435.5,-104.41"/>
<polygon fill="midnightblue" stroke="midnightblue" points="482.16,-92.14 490.49,-85.59 479.9,-85.52 482.16,-92.14"/>
</g>
<!-- Node23 -->
<g id="node23" class="node">
<title>Node23</title>
<g id="a_node23"><a xlink:href="spinlock_8c.html#acdf118d615a4bc4064e991add9a80995" target="_top" xlink:title="release spinlock from current cpu">
<polygon fill="none" stroke="black" points="247,-66.5 247,-85.5 315,-85.5 315,-66.5 247,-66.5"/>
<text text-anchor="middle" x="281" y="-73.5" font-family="Helvetica,sans-Serif" font-size="10.00">spin_unlock</text>
</a>
</g>
</g>
<!-- Node11&#45;&gt;Node23 -->
<g id="edge38" class="edge">
<title>Node11&#45;&gt;Node23</title>
<path fill="none" stroke="midnightblue" d="M476.36,-76C430.32,-76 357.5,-76 315.29,-76"/>
<polygon fill="midnightblue" stroke="midnightblue" points="476.6,-79.5 486.6,-76 476.6,-72.5 476.6,-79.5"/>
</g>
<!-- Node13 -->
<g id="node13" class="node">
<title>Node13</title>
<g id="a_node13"><a xlink:href="kmt_8c.html#af9c485ce0d89d6624e6e80e31d8ed207" target="_top" xlink:title="handler: save context to current task">
<polygon fill="none" stroke="black" points="233,-294.5 233,-313.5 329,-313.5 329,-294.5 233,-294.5"/>
<text text-anchor="middle" x="281" y="-301.5" font-family="Helvetica,sans-Serif" font-size="10.00">kmt_context_save</text>
</a>
</g>
</g>
<!-- Node12&#45;&gt;Node13 -->
<g id="edge13" class="edge">
<title>Node12&#45;&gt;Node13</title>
<path fill="none" stroke="midnightblue" d="M390.72,-131.71C382.27,-142.53 372,-156.94 365,-171 341.33,-218.57 365.07,-245.99 329,-285 325.41,-288.88 320.93,-291.98 316.16,-294.46"/>
<polygon fill="midnightblue" stroke="midnightblue" points="393.47,-133.88 397,-123.89 388.01,-129.49 393.47,-133.88"/>
</g>
<!-- Node16 -->
<g id="node16" class="node">
<title>Node16</title>
<g id="a_node16"><a xlink:href="kmt_8c.html#a5ddb8743298012e84cf9cb5faf22212b" target="_top" xlink:title="create thread">
<polygon fill="none" stroke="black" points="125.5,-142.5 125.5,-161.5 190.5,-161.5 190.5,-142.5 125.5,-142.5"/>
<text text-anchor="middle" x="158" y="-149.5" font-family="Helvetica,sans-Serif" font-size="10.00">kmt_create</text>
</a>
</g>
</g>
<!-- Node12&#45;&gt;Node16 -->
<g id="edge16" class="edge">
<title>Node12&#45;&gt;Node16</title>
<path fill="none" stroke="midnightblue" d="M360.57,-117.19C325.61,-120.1 275.98,-125.16 233,-133 219.04,-135.55 203.82,-139.29 190.83,-142.77"/>
<polygon fill="midnightblue" stroke="midnightblue" points="361.24,-120.65 370.93,-116.36 360.68,-113.67 361.24,-120.65"/>
</g>
<!-- Node17 -->
<g id="node17" class="node">
<title>Node17</title>
<g id="a_node17"><a xlink:href="kmt_8c.html#ad3fbc643b7b6092120c5152b4c890354" target="_top" xlink:title="handler: handle program errors">
<polygon fill="none" stroke="black" points="252,-256.5 252,-275.5 310,-275.5 310,-256.5 252,-256.5"/>
<text text-anchor="middle" x="281" y="-263.5" font-family="Helvetica,sans-Serif" font-size="10.00">kmt_error</text>
</a>
</g>
</g>
<!-- Node12&#45;&gt;Node17 -->
<g id="edge18" class="edge">
<title>Node12&#45;&gt;Node17</title>
<path fill="none" stroke="midnightblue" d="M391.71,-131.69C383.45,-142.68 373.04,-157.28 365,-171 346.1,-203.25 356.19,-221.35 329,-247 323.75,-251.95 317.04,-255.68 310.35,-258.46"/>
<polygon fill="midnightblue" stroke="midnightblue" points="394.5,-133.81 397.78,-123.73 388.93,-129.56 394.5,-133.81"/>
</g>
<!-- Node18 -->
<g id="node18" class="node">
<title>Node18</title>
<g id="a_node18"><a xlink:href="kmt_8c.html#ad4d70b4093829da1c0b0631abdff7747" target="_top" xlink:title="handler: schedule next task to run Notice: this should be the only handler which returns real Context">
<polygon fill="none" stroke="black" points="242.5,-218.5 242.5,-237.5 319.5,-237.5 319.5,-218.5 242.5,-218.5"/>
<text text-anchor="middle" x="281" y="-225.5" font-family="Helvetica,sans-Serif" font-size="10.00">kmt_schedule</text>
</a>
</g>
</g>
<!-- Node12&#45;&gt;Node18 -->
<g id="edge20" class="edge">
<title>Node12&#45;&gt;Node18</title>
<path fill="none" stroke="midnightblue" d="M393.4,-132.11C379.61,-151.73 355.52,-183.02 329,-204 321.81,-209.68 313.07,-214.59 305.08,-218.46"/>
<polygon fill="midnightblue" stroke="midnightblue" points="396.37,-133.98 399.15,-123.76 390.6,-130.02 396.37,-133.98"/>
</g>
<!-- Node19 -->
<g id="node19" class="node">
<title>Node19</title>
<g id="a_node19"><a xlink:href="kmt_8c.html#a47d8887c87041abd5ea3148232b65c93" target="_top" xlink:title="tear down a thread">
<polygon fill="none" stroke="black" points="119,-218.5 119,-237.5 197,-237.5 197,-218.5 119,-218.5"/>
<text text-anchor="middle" x="158" y="-225.5" font-family="Helvetica,sans-Serif" font-size="10.00">kmt_teardown</text>
</a>
</g>
</g>
<!-- Node12&#45;&gt;Node19 -->
<g id="edge22" class="edge">
<title>Node12&#45;&gt;Node19</title>
<path fill="none" stroke="midnightblue" d="M386.97,-130.46C372.13,-142.96 350.35,-159.83 329,-171 286.11,-193.44 232.6,-209.65 197.2,-218.92"/>
<polygon fill="midnightblue" stroke="midnightblue" points="389.54,-132.86 394.84,-123.69 384.98,-127.55 389.54,-132.86"/>
</g>
<!-- Node20 -->
<g id="node20" class="node">
<title>Node20</title>
<g id="a_node20"><a xlink:href="os_8c.html#a2be1c9facb49d4439f41b1537d0f3ef8" target="_top" xlink:title="System trap entry.">
<polygon fill="none" stroke="black" points="133.5,-28.5 133.5,-47.5 182.5,-47.5 182.5,-28.5 133.5,-28.5"/>
<text text-anchor="middle" x="158" y="-35.5" font-family="Helvetica,sans-Serif" font-size="10.00">os_trap</text>
</a>
</g>
</g>
<!-- Node12&#45;&gt;Node20 -->
<g id="edge24" class="edge">
<title>Node12&#45;&gt;Node20</title>
<path fill="none" stroke="midnightblue" d="M388.55,-97.14C374.04,-83.83 351.92,-66.05 329,-57 279.69,-37.54 216.49,-35.98 182.75,-36.82"/>
<polygon fill="midnightblue" stroke="midnightblue" points="386.5,-100.02 396.16,-104.36 391.31,-94.94 386.5,-100.02"/>
</g>
<!-- Node21 -->
<g id="node21" class="node">
<title>Node21</title>
<g id="a_node21"><a xlink:href="spinlock_8c.html#ab6f3c37ec37006951feccc3c05387cce" target="_top" xlink:title="acquire spinlock to current cpu">
<polygon fill="none" stroke="black" points="252,-142.5 252,-161.5 310,-161.5 310,-142.5 252,-142.5"/>
<text text-anchor="middle" x="281" y="-149.5" font-family="Helvetica,sans-Serif" font-size="10.00">spin_lock</text>
</a>
</g>
</g>
<!-- Node12&#45;&gt;Node21 -->
<g id="edge26" class="edge">
<title>Node12&#45;&gt;Node21</title>
<path fill="none" stroke="midnightblue" d="M364.73,-126.55C346.86,-132.04 326.33,-138.36 310.2,-143.32"/>
<polygon fill="midnightblue" stroke="midnightblue" points="365.81,-129.88 374.34,-123.59 363.75,-123.18 365.81,-129.88"/>
</g>
<!-- Node12&#45;&gt;Node23 -->
<g id="edge32" class="edge">
<title>Node12&#45;&gt;Node23</title>
<path fill="none" stroke="midnightblue" d="M364.76,-101.46C347.96,-96.3 328.8,-90.4 313.15,-85.59"/>
<polygon fill="midnightblue" stroke="midnightblue" points="363.75,-104.82 374.34,-104.41 365.81,-98.12 363.75,-104.82"/>
</g>
<!-- Node14 -->
<g id="node14" class="node">
<title>Node14</title>
<g id="a_node14"><a xlink:href="kmt_8c.html#a0c68a294cecc4be7cb4b495f15b883a0" target="_top" xlink:title="initialize kmt module">
<polygon fill="none" stroke="black" points="132.5,-256.5 132.5,-275.5 183.5,-275.5 183.5,-256.5 132.5,-256.5"/>
<text text-anchor="middle" x="158" y="-263.5" font-family="Helvetica,sans-Serif" font-size="10.00">kmt_init</text>
</a>
</g>
</g>
<!-- Node13&#45;&gt;Node14 -->
<g id="edge14" class="edge">
<title>Node13&#45;&gt;Node14</title>
<path fill="none" stroke="midnightblue" d="M239.82,-291.38C221.31,-285.57 199.94,-278.86 183.82,-273.8"/>
<polygon fill="midnightblue" stroke="midnightblue" points="238.88,-294.75 249.47,-294.41 240.97,-288.08 238.88,-294.75"/>
</g>
<!-- Node15 -->
<g id="node15" class="node">
<title>Node15</title>
<g id="a_node15"><a xlink:href="kmt_8c.html#af360ef0d98ca30e481cc58ea3695fd58" target="_top" xlink:title=" ">
<polygon fill="none" stroke="black" points="0,-180.5 0,-199.5 83,-199.5 83,-180.5 0,-180.5"/>
<text text-anchor="middle" x="41.5" y="-187.5" font-family="Helvetica,sans-Serif" font-size="10.00">MODULE_DEF</text>
</a>
</g>
</g>
<!-- Node14&#45;&gt;Node15 -->
<g id="edge15" class="edge">
<title>Node14&#45;&gt;Node15</title>
<path fill="none" stroke="midnightblue" d="M127.19,-251.73C124.39,-250.2 121.62,-248.61 119,-247 94.74,-232.06 68.55,-211.47 53.97,-199.56"/>
<polygon fill="midnightblue" stroke="midnightblue" points="125.64,-254.87 136.13,-256.39 128.88,-248.67 125.64,-254.87"/>
</g>
<!-- Node16&#45;&gt;Node15 -->
<g id="edge17" class="edge">
<title>Node16&#45;&gt;Node15</title>
<path fill="none" stroke="midnightblue" d="M118.35,-164.83C102.99,-169.92 85.62,-175.69 71.38,-180.41"/>
<polygon fill="midnightblue" stroke="midnightblue" points="119.72,-168.06 128.11,-161.59 117.51,-161.42 119.72,-168.06"/>
</g>
<!-- Node17&#45;&gt;Node14 -->
<g id="edge19" class="edge">
<title>Node17&#45;&gt;Node14</title>
<path fill="none" stroke="midnightblue" d="M241.78,-266C222.77,-266 200.34,-266 183.63,-266"/>
<polygon fill="midnightblue" stroke="midnightblue" points="241.94,-269.5 251.94,-266 241.94,-262.5 241.94,-269.5"/>
</g>
<!-- Node18&#45;&gt;Node14 -->
<g id="edge21" class="edge">
<title>Node18&#45;&gt;Node14</title>
<path fill="none" stroke="midnightblue" d="M239.82,-240.62C221.31,-246.43 199.94,-253.14 183.82,-258.2"/>
<polygon fill="midnightblue" stroke="midnightblue" points="240.97,-243.92 249.47,-237.59 238.88,-237.25 240.97,-243.92"/>
</g>
<!-- Node19&#45;&gt;Node15 -->
<g id="edge23" class="edge">
<title>Node19&#45;&gt;Node15</title>
<path fill="none" stroke="midnightblue" d="M118.35,-215.17C102.99,-210.08 85.62,-204.31 71.38,-199.59"/>
<polygon fill="midnightblue" stroke="midnightblue" points="117.51,-218.58 128.11,-218.41 119.72,-211.94 117.51,-218.58"/>
</g>
<!-- Node20&#45;&gt;Node10 -->
<g id="edge25" class="edge">
<title>Node20&#45;&gt;Node10</title>
<path fill="none" stroke="midnightblue" d="M123.26,-32.4C110.74,-30.32 96.42,-27.95 83.34,-25.78"/>
<polygon fill="midnightblue" stroke="midnightblue" points="122.84,-35.88 133.28,-34.06 123.98,-28.97 122.84,-35.88"/>
</g>
<!-- Node21&#45;&gt;Node15 -->
<g id="edge30" class="edge">
<title>Node21&#45;&gt;Node15</title>
<path fill="none" stroke="midnightblue" d="M241.9,-161.59C227.85,-164.89 211.76,-168.41 197,-171 158.54,-177.75 114.27,-182.93 83.01,-186.17"/>
<polygon fill="midnightblue" stroke="midnightblue" points="242.81,-164.97 251.72,-159.23 241.18,-158.16 242.81,-164.97"/>
</g>
<!-- Node21&#45;&gt;Node16 -->
<g id="edge27" class="edge">
<title>Node21&#45;&gt;Node16</title>
<path fill="none" stroke="midnightblue" d="M241.59,-152C225.21,-152 206.33,-152 190.75,-152"/>
<polygon fill="midnightblue" stroke="midnightblue" points="241.94,-155.5 251.94,-152 241.94,-148.5 241.94,-155.5"/>
</g>
<!-- Node21&#45;&gt;Node19 -->
<g id="edge28" class="edge">
<title>Node21&#45;&gt;Node19</title>
<path fill="none" stroke="midnightblue" d="M249.67,-166.42C244.02,-169.4 238.25,-172.66 233,-176 215.9,-186.88 213.59,-192.35 197,-204 189.98,-208.93 181.97,-214.06 175.13,-218.3"/>
<polygon fill="midnightblue" stroke="midnightblue" points="251.62,-169.35 258.94,-161.69 248.44,-163.12 251.62,-169.35"/>
</g>
<!-- Node21&#45;&gt;Node20 -->
<g id="edge31" class="edge">
<title>Node21&#45;&gt;Node20</title>
<path fill="none" stroke="midnightblue" d="M262.13,-135.17C236.44,-110.96 189.9,-67.11 169.29,-47.69"/>
<polygon fill="midnightblue" stroke="midnightblue" points="260.01,-137.97 269.68,-142.28 264.81,-132.88 260.01,-137.97"/>
</g>
<!-- Node22 -->
<g id="node22" class="node">
<title>Node22</title>
<g id="a_node22"><a xlink:href="kernel_8h.html#a7ef2d722f9c7f8acc1801144a5188825" target="_top" xlink:title=" ">
<polygon fill="none" stroke="black" points="128.5,-104.5 128.5,-123.5 187.5,-123.5 187.5,-104.5 128.5,-104.5"/>
<text text-anchor="middle" x="158" y="-111.5" font-family="Helvetica,sans-Serif" font-size="10.00">MODULE</text>
</a>
</g>
</g>
<!-- Node21&#45;&gt;Node22 -->
<g id="edge29" class="edge">
<title>Node21&#45;&gt;Node22</title>
<path fill="none" stroke="midnightblue" d="M242,-140.07C224.46,-134.56 203.98,-128.13 187.75,-123.03"/>
<polygon fill="midnightblue" stroke="midnightblue" points="241.35,-143.53 251.94,-143.19 243.44,-136.85 241.35,-143.53"/>
</g>
<!-- Node23&#45;&gt;Node15 -->
<g id="edge36" class="edge">
<title>Node23&#45;&gt;Node15</title>
<path fill="none" stroke="midnightblue" d="M236.85,-72.51C202.8,-71.69 155.16,-75 119,-95 82.49,-115.19 56.87,-160.56 47,-180.4"/>
<polygon fill="midnightblue" stroke="midnightblue" points="236.84,-76.01 246.96,-72.88 237.09,-69.01 236.84,-76.01"/>
</g>
<!-- Node23&#45;&gt;Node16 -->
<g id="edge33" class="edge">
<title>Node23&#45;&gt;Node16</title>
<path fill="none" stroke="midnightblue" d="M249.12,-90.25C243.6,-93.22 238.01,-96.52 233,-100 215.17,-112.38 214.88,-120.69 197,-133 192.02,-136.43 186.33,-139.61 180.9,-142.35"/>
<polygon fill="midnightblue" stroke="midnightblue" points="250.94,-93.26 258.25,-85.59 247.75,-87.03 250.94,-93.26"/>
</g>
<!-- Node23&#45;&gt;Node19 -->
<g id="edge34" class="edge">
<title>Node23&#45;&gt;Node19</title>
<path fill="none" stroke="midnightblue" d="M265.45,-93.39C256.1,-104.63 243.74,-119.6 233,-133 208.16,-163.99 179.43,-201.31 166.27,-218.49"/>
<polygon fill="midnightblue" stroke="midnightblue" points="268.22,-95.54 271.93,-85.62 262.84,-91.05 268.22,-95.54"/>
</g>
<!-- Node23&#45;&gt;Node20 -->
<g id="edge37" class="edge">
<title>Node23&#45;&gt;Node20</title>
<path fill="none" stroke="midnightblue" d="M239.87,-63.4C220.9,-57.44 198.91,-50.53 182.65,-45.43"/>
<polygon fill="midnightblue" stroke="midnightblue" points="238.88,-66.75 249.47,-66.41 240.97,-60.08 238.88,-66.75"/>
</g>
<!-- Node23&#45;&gt;Node22 -->
<g id="edge35" class="edge">
<title>Node23&#45;&gt;Node22</title>
<path fill="none" stroke="midnightblue" d="M239.79,-88.63C222.8,-93.96 203.39,-100.06 187.86,-104.94"/>
<polygon fill="midnightblue" stroke="midnightblue" points="240.97,-91.92 249.47,-85.59 238.88,-85.25 240.97,-91.92"/>
</g>
<!-- Node24&#45;&gt;Node12 -->
<g id="edge40" class="edge">
<title>Node24&#45;&gt;Node12</title>
<path fill="none" stroke="midnightblue" d="M473.77,-114C463.31,-114 452.33,-114 442.37,-114"/>
<polygon fill="midnightblue" stroke="midnightblue" points="473.99,-117.5 483.99,-114 473.99,-110.5 473.99,-117.5"/>
</g>
<!-- Node24&#45;&gt;Node21 -->
<g id="edge41" class="edge">
<title>Node24&#45;&gt;Node21</title>
<path fill="none" stroke="midnightblue" d="M477.43,-126.17C467.84,-128.71 457.61,-131.17 448,-133 399.99,-142.16 343.26,-147.5 310.1,-150.07"/>
<polygon fill="midnightblue" stroke="midnightblue" points="478.42,-129.53 487.15,-123.53 476.58,-122.78 478.42,-129.53"/>
</g>
</g>
</svg>
