<?xml version="1.0" encoding="UTF-8" standalone="no"?>
<!DOCTYPE svg PUBLIC "-//W3C//DTD SVG 1.1//EN"
 "http://www.w3.org/Graphics/SVG/1.1/DTD/svg11.dtd">
<!-- Generated by graphviz version 2.50.0 (20220203.2022)
 -->
<!-- Title: ioe_read Pages: 1 -->
<svg width="990pt" height="313pt"
 viewBox="0.00 0.00 990.00 313.00" xmlns="http://www.w3.org/2000/svg" xmlns:xlink="http://www.w3.org/1999/xlink">
<g id="graph0" class="graph" transform="scale(1 1) rotate(0) translate(4 309)">
<title>ioe_read</title>
<!-- Node1 -->
<g id="node1" class="node">
<title>Node1</title>
<g id="a_node1"><a xlink:title=" ">
<polygon fill="#bfbfbf" stroke="black" points="0,-171.5 0,-190.5 53,-190.5 53,-171.5 0,-171.5"/>
<text text-anchor="middle" x="26.5" y="-178.5" font-family="Helvetica,sans-Serif" font-size="10.00">ioe_read</text>
</a>
</g>
</g>
<!-- Node2 -->
<g id="node2" class="node">
<title>Node2</title>
<g id="a_node2"><a xlink:href="native_2ioe_8c.html#ac7243d0dd8589da2317ee06ee132c2f0" target="_top" xlink:title=" ">
<polygon fill="none" stroke="black" points="89,-171.5 89,-190.5 129,-190.5 129,-171.5 89,-171.5"/>
<text text-anchor="middle" x="109" y="-178.5" font-family="Helvetica,sans-Serif" font-size="10.00">do_io</text>
</a>
</g>
</g>
<!-- Node1&#45;&gt;Node2 -->
<g id="edge1" class="edge">
<title>Node1&#45;&gt;Node2</title>
<path fill="none" stroke="midnightblue" d="M53.41,-181C61.49,-181 70.46,-181 78.75,-181"/>
<polygon fill="midnightblue" stroke="midnightblue" points="78.77,-184.5 88.77,-181 78.77,-177.5 78.77,-184.5"/>
</g>
<!-- Node3 -->
<g id="node3" class="node">
<title>Node3</title>
<g id="a_node3"><a xlink:href="native_2ioe_8c.html#a85e8849eae1811aa4fa0527476f39782" target="_top" xlink:title=" ">
<polygon fill="none" stroke="black" points="165,-171.5 165,-190.5 242,-190.5 242,-171.5 165,-171.5"/>
<text text-anchor="middle" x="203.5" y="-178.5" font-family="Helvetica,sans-Serif" font-size="10.00">__am_ioe_init</text>
</a>
</g>
</g>
<!-- Node2&#45;&gt;Node3 -->
<g id="edge2" class="edge">
<title>Node2&#45;&gt;Node3</title>
<path fill="none" stroke="midnightblue" d="M129.17,-181C136.62,-181 145.53,-181 154.53,-181"/>
<polygon fill="midnightblue" stroke="midnightblue" points="154.65,-184.5 164.65,-181 154.65,-177.5 154.65,-184.5"/>
</g>
<!-- Node4 -->
<g id="node4" class="node">
<title>Node4</title>
<g id="a_node4"><a xlink:href="audio_8c.html#aeafbbf0a74478c9fbf1d6bb3e0d359d0" target="_top" xlink:title=" ">
<polygon fill="none" stroke="black" points="278,-266.5 278,-285.5 365,-285.5 365,-266.5 278,-266.5"/>
<text text-anchor="middle" x="321.5" y="-273.5" font-family="Helvetica,sans-Serif" font-size="10.00">__am_audio_init</text>
</a>
</g>
</g>
<!-- Node3&#45;&gt;Node4 -->
<g id="edge3" class="edge">
<title>Node3&#45;&gt;Node4</title>
<path fill="none" stroke="midnightblue" d="M211.71,-190.54C223.91,-206.16 250.04,-237.41 278,-257 280.5,-258.75 283.19,-260.4 285.95,-261.94"/>
<polygon fill="midnightblue" stroke="midnightblue" points="284.42,-265.08 294.92,-266.46 287.57,-258.83 284.42,-265.08"/>
</g>
<!-- Node5 -->
<g id="node5" class="node">
<title>Node5</title>
<g id="a_node5"><a xlink:href="disk_8c.html#a85a821a1956812f3ed4b2ac56f17a3a9" target="_top" xlink:title=" ">
<polygon fill="none" stroke="black" points="280.5,-228.5 280.5,-247.5 362.5,-247.5 362.5,-228.5 280.5,-228.5"/>
<text text-anchor="middle" x="321.5" y="-235.5" font-family="Helvetica,sans-Serif" font-size="10.00">__am_disk_init</text>
</a>
</g>
</g>
<!-- Node3&#45;&gt;Node5 -->
<g id="edge4" class="edge">
<title>Node3&#45;&gt;Node5</title>
<path fill="none" stroke="midnightblue" d="M222.48,-190.66C237.27,-198.52 258.85,-209.78 278,-219 281.58,-220.73 285.36,-222.49 289.12,-224.22"/>
<polygon fill="midnightblue" stroke="midnightblue" points="287.78,-227.45 298.33,-228.37 290.66,-221.07 287.78,-227.45"/>
</g>
<!-- Node6 -->
<g id="node6" class="node">
<title>Node6</title>
<g id="a_node6"><a xlink:href="gpu_8c.html#a374867a82bb68896aa79bea1f6d5eb2b" target="_top" xlink:title=" ">
<polygon fill="none" stroke="black" points="281.5,-190.5 281.5,-209.5 361.5,-209.5 361.5,-190.5 281.5,-190.5"/>
<text text-anchor="middle" x="321.5" y="-197.5" font-family="Helvetica,sans-Serif" font-size="10.00">__am_gpu_init</text>
</a>
</g>
</g>
<!-- Node3&#45;&gt;Node6 -->
<g id="edge5" class="edge">
<title>Node3&#45;&gt;Node6</title>
<path fill="none" stroke="midnightblue" d="M242.16,-187.17C251.49,-188.7 261.62,-190.36 271.41,-191.96"/>
<polygon fill="midnightblue" stroke="midnightblue" points="271,-195.44 281.43,-193.6 272.13,-188.53 271,-195.44"/>
</g>
<!-- Node8 -->
<g id="node8" class="node">
<title>Node8</title>
<g id="a_node8"><a xlink:href="input_8c.html#a02d166c8d2549e580fd16379de9e80f1" target="_top" xlink:title=" ">
<polygon fill="none" stroke="black" points="279,-152.5 279,-171.5 364,-171.5 364,-152.5 279,-152.5"/>
<text text-anchor="middle" x="321.5" y="-159.5" font-family="Helvetica,sans-Serif" font-size="10.00">__am_input_init</text>
</a>
</g>
</g>
<!-- Node3&#45;&gt;Node8 -->
<g id="edge7" class="edge">
<title>Node3&#45;&gt;Node8</title>
<path fill="none" stroke="midnightblue" d="M242.16,-174.83C250.62,-173.45 259.74,-171.95 268.67,-170.49"/>
<polygon fill="midnightblue" stroke="midnightblue" points="269.31,-173.93 278.61,-168.86 268.18,-167.02 269.31,-173.93"/>
</g>
<!-- Node26 -->
<g id="node26" class="node">
<title>Node26</title>
<g id="a_node26"><a xlink:href="timer_8c.html#a6fcdcd5b43b132b68a427c217be894b0" target="_top" xlink:title=" ">
<polygon fill="none" stroke="black" points="278.5,-114.5 278.5,-133.5 364.5,-133.5 364.5,-114.5 278.5,-114.5"/>
<text text-anchor="middle" x="321.5" y="-121.5" font-family="Helvetica,sans-Serif" font-size="10.00">__am_timer_init</text>
</a>
</g>
</g>
<!-- Node3&#45;&gt;Node26 -->
<g id="edge25" class="edge">
<title>Node3&#45;&gt;Node26</title>
<path fill="none" stroke="midnightblue" d="M222.48,-171.34C237.27,-163.48 258.85,-152.22 278,-143 281.58,-141.27 285.36,-139.51 289.12,-137.78"/>
<polygon fill="midnightblue" stroke="midnightblue" points="290.66,-140.93 298.33,-133.63 287.78,-134.55 290.66,-140.93"/>
</g>
<!-- Node27 -->
<g id="node27" class="node">
<title>Node27</title>
<g id="a_node27"><a xlink:href="native_2ioe_8c.html#a6ade281e99f1f270ffeebb9d82416221" target="_top" xlink:title=" ">
<polygon fill="none" stroke="black" points="307,-76.5 307,-95.5 336,-95.5 336,-76.5 307,-76.5"/>
<text text-anchor="middle" x="321.5" y="-83.5" font-family="Helvetica,sans-Serif" font-size="10.00">fail</text>
</a>
</g>
</g>
<!-- Node3&#45;&gt;Node27 -->
<g id="edge26" class="edge">
<title>Node3&#45;&gt;Node27</title>
<path fill="none" stroke="midnightblue" d="M211.71,-171.46C223.91,-155.84 250.04,-124.59 278,-105 283.82,-100.92 290.66,-97.4 297.12,-94.54"/>
<polygon fill="midnightblue" stroke="midnightblue" points="298.85,-97.62 306.79,-90.6 296.2,-91.14 298.85,-97.62"/>
</g>
<!-- Node7 -->
<g id="node7" class="node">
<title>Node7</title>
<g id="a_node7"><a xlink:href="gpu_8c.html#a8671032d771362f684c8ee31cad0ed02" target="_top" xlink:title=" ">
<polygon fill="none" stroke="black" points="402,-190.5 402,-209.5 473,-209.5 473,-190.5 402,-190.5"/>
<text text-anchor="middle" x="437.5" y="-197.5" font-family="Helvetica,sans-Serif" font-size="10.00">texture_sync</text>
</a>
</g>
</g>
<!-- Node6&#45;&gt;Node7 -->
<g id="edge6" class="edge">
<title>Node6&#45;&gt;Node7</title>
<path fill="none" stroke="midnightblue" d="M361.73,-200C371.39,-200 381.8,-200 391.7,-200"/>
<polygon fill="midnightblue" stroke="midnightblue" points="391.77,-203.5 401.77,-200 391.77,-196.5 391.77,-203.5"/>
</g>
<!-- Node9 -->
<g id="node9" class="node">
<title>Node9</title>
<g id="a_node9"><a xlink:href="input_8c.html#a77413c19d2c314aba317257b3cafb1c7" target="_top" xlink:title=" ">
<polygon fill="none" stroke="black" points="401,-152.5 401,-171.5 474,-171.5 474,-152.5 401,-152.5"/>
<text text-anchor="middle" x="437.5" y="-159.5" font-family="Helvetica,sans-Serif" font-size="10.00">event_thread</text>
</a>
</g>
</g>
<!-- Node8&#45;&gt;Node9 -->
<g id="edge8" class="edge">
<title>Node8&#45;&gt;Node9</title>
<path fill="none" stroke="midnightblue" d="M364.3,-162C372.89,-162 381.97,-162 390.69,-162"/>
<polygon fill="midnightblue" stroke="midnightblue" points="390.71,-165.5 400.71,-162 390.71,-158.5 390.71,-165.5"/>
</g>
<!-- Node10 -->
<g id="node10" class="node">
<title>Node10</title>
<g id="a_node10"><a xlink:href="platform_8c.html#ac9a72275bbb5c5a92fdd21dfb051b5d4" target="_top" xlink:title=" ">
<polygon fill="none" stroke="black" points="510,-171.5 510,-190.5 617,-190.5 617,-171.5 510,-171.5"/>
<text text-anchor="middle" x="563.5" y="-178.5" font-family="Helvetica,sans-Serif" font-size="10.00">__am_send_kbd_intr</text>
</a>
</g>
</g>
<!-- Node9&#45;&gt;Node10 -->
<g id="edge9" class="edge">
<title>Node9&#45;&gt;Node10</title>
<path fill="none" stroke="midnightblue" d="M474.03,-167.44C482.14,-168.69 491,-170.04 499.87,-171.4"/>
<polygon fill="midnightblue" stroke="midnightblue" points="499.44,-174.88 509.86,-172.93 500.5,-167.96 499.44,-174.88"/>
</g>
<!-- Node11 -->
<g id="node11" class="node">
<title>Node11</title>
<g id="a_node11"><a xlink:href="x86_2qemu_2trm_8c.html#a483cb97188e557c3c68d3a1572c2cc92" target="_top" xlink:title=" ">
<polygon fill="none" stroke="black" points="547.5,-133.5 547.5,-152.5 579.5,-152.5 579.5,-133.5 547.5,-133.5"/>
<text text-anchor="middle" x="563.5" y="-140.5" font-family="Helvetica,sans-Serif" font-size="10.00">halt</text>
</a>
</g>
</g>
<!-- Node9&#45;&gt;Node11 -->
<g id="edge10" class="edge">
<title>Node9&#45;&gt;Node11</title>
<path fill="none" stroke="midnightblue" d="M474.03,-156.56C494.28,-153.45 519.16,-149.64 537.37,-146.85"/>
<polygon fill="midnightblue" stroke="midnightblue" points="538.14,-150.27 547.49,-145.3 537.08,-143.35 538.14,-150.27"/>
</g>
<!-- Node12 -->
<g id="node12" class="node">
<title>Node12</title>
<g id="a_node12"><a xlink:href="platform_8c.html#a66cf43dfc7e13b3775d6d2040722da59" target="_top" xlink:title=" ">
<polygon fill="none" stroke="black" points="658.5,-275.5 658.5,-294.5 759.5,-294.5 759.5,-275.5 658.5,-275.5"/>
<text text-anchor="middle" x="709" y="-282.5" font-family="Helvetica,sans-Serif" font-size="10.00">__am_exit_platform</text>
</a>
</g>
</g>
<!-- Node11&#45;&gt;Node12 -->
<g id="edge11" class="edge">
<title>Node11&#45;&gt;Node12</title>
<path fill="none" stroke="midnightblue" d="M579.67,-145.01C591.26,-147.29 606.92,-152.07 617,-162 649.17,-193.69 622.85,-223.39 653,-257 657.97,-262.54 664.29,-267.13 670.86,-270.89"/>
<polygon fill="midnightblue" stroke="midnightblue" points="669.38,-274.06 679.87,-275.5 672.56,-267.83 669.38,-274.06"/>
</g>
<!-- Node14 -->
<g id="node14" class="node">
<title>Node14</title>
<g id="a_node14"><a xlink:href="x86_2qemu_2mpe_8c.html#a0a540532023afb1f31b6f21ce053483b" target="_top" xlink:title=" ">
<polygon fill="none" stroke="black" points="653,-228.5 653,-247.5 765,-247.5 765,-228.5 653,-228.5"/>
<text text-anchor="middle" x="709" y="-235.5" font-family="Helvetica,sans-Serif" font-size="10.00">__am_stop_the_world</text>
</a>
</g>
</g>
<!-- Node11&#45;&gt;Node14 -->
<g id="edge13" class="edge">
<title>Node11&#45;&gt;Node14</title>
<path fill="none" stroke="midnightblue" d="M579.61,-145.7C590.87,-148.33 606.12,-153.25 617,-162 640.35,-180.78 629.52,-200.39 653,-219 655.26,-220.79 657.71,-222.42 660.26,-223.9"/>
<polygon fill="midnightblue" stroke="midnightblue" points="658.77,-227.07 669.29,-228.38 661.89,-220.8 658.77,-227.07"/>
</g>
<!-- Node20 -->
<g id="node20" class="node">
<title>Node20</title>
<g id="a_node20"><a xlink:href="x86_8h.html#acc919e7809ef1db2b20aa3804f540b5c" target="_top" xlink:title=" ">
<polygon fill="none" stroke="black" points="694.5,-190.5 694.5,-209.5 723.5,-209.5 723.5,-190.5 694.5,-190.5"/>
<text text-anchor="middle" x="709" y="-197.5" font-family="Helvetica,sans-Serif" font-size="10.00">cli</text>
</a>
</g>
</g>
<!-- Node11&#45;&gt;Node20 -->
<g id="edge19" class="edge">
<title>Node11&#45;&gt;Node20</title>
<path fill="none" stroke="midnightblue" d="M579.88,-147.94C590.47,-151.49 604.77,-156.59 617,-162 633.55,-169.32 636.4,-173.8 653,-181 663.18,-185.41 674.75,-189.54 684.64,-192.81"/>
<polygon fill="midnightblue" stroke="midnightblue" points="683.63,-196.16 694.22,-195.88 685.77,-189.49 683.63,-196.16"/>
</g>
<!-- Node21 -->
<g id="node21" class="node">
<title>Node21</title>
<g id="a_node21"><a xlink:href="x86_2qemu_2mpe_8c.html#ab701de78cad32896c923ce900087e714" target="_top" xlink:title=" ">
<polygon fill="none" stroke="black" points="675,-152.5 675,-171.5 743,-171.5 743,-152.5 675,-152.5"/>
<text text-anchor="middle" x="709" y="-159.5" font-family="Helvetica,sans-Serif" font-size="10.00">cpu_current</text>
</a>
</g>
</g>
<!-- Node11&#45;&gt;Node21 -->
<g id="edge20" class="edge">
<title>Node11&#45;&gt;Node21</title>
<path fill="none" stroke="midnightblue" d="M579.59,-145C599.58,-147.64 635.7,-152.43 664.55,-156.25"/>
<polygon fill="midnightblue" stroke="midnightblue" points="664.43,-159.76 674.8,-157.6 665.35,-152.82 664.43,-159.76"/>
</g>
<!-- Node22 -->
<g id="node22" class="node">
<title>Node22</title>
<g id="a_node22"><a xlink:href="x86_8h.html#a2adfe40c0aadff727889d263815cb8ed" target="_top" xlink:title=" ">
<polygon fill="none" stroke="black" points="694.5,-114.5 694.5,-133.5 723.5,-133.5 723.5,-114.5 694.5,-114.5"/>
<text text-anchor="middle" x="709" y="-121.5" font-family="Helvetica,sans-Serif" font-size="10.00">hlt</text>
</a>
</g>
</g>
<!-- Node11&#45;&gt;Node22 -->
<g id="edge21" class="edge">
<title>Node11&#45;&gt;Node22</title>
<path fill="none" stroke="midnightblue" d="M579.59,-141C604.58,-137.69 654.76,-131.05 684.45,-127.12"/>
<polygon fill="midnightblue" stroke="midnightblue" points="684.93,-130.59 694.38,-125.8 684.01,-123.65 684.93,-130.59"/>
</g>
<!-- Node23 -->
<g id="node23" class="node">
<title>Node23</title>
<g id="a_node23"><a xlink:href="x86_8h.html#af92fc55c49437b9152499a13ba2b6585" target="_top" xlink:title=" ">
<polygon fill="none" stroke="black" points="690,-76.5 690,-95.5 728,-95.5 728,-76.5 690,-76.5"/>
<text text-anchor="middle" x="709" y="-83.5" font-family="Helvetica,sans-Serif" font-size="10.00">outw</text>
</a>
</g>
</g>
<!-- Node11&#45;&gt;Node23 -->
<g id="edge22" class="edge">
<title>Node11&#45;&gt;Node23</title>
<path fill="none" stroke="midnightblue" d="M579.71,-136.07C597.23,-128.18 626.96,-115.07 653,-105 661.67,-101.65 671.21,-98.25 679.88,-95.27"/>
<polygon fill="midnightblue" stroke="midnightblue" points="681.2,-98.52 689.55,-92 678.95,-91.89 681.2,-98.52"/>
</g>
<!-- Node24 -->
<g id="node24" class="node">
<title>Node24</title>
<g id="a_node24"><a xlink:href="stdio_8c.html#a55f3d956bb2ba20b5059e9e25484a47f" target="_top" xlink:title=" ">
<polygon fill="none" stroke="black" points="690,-38.5 690,-57.5 728,-57.5 728,-38.5 690,-38.5"/>
<text text-anchor="middle" x="709" y="-45.5" font-family="Helvetica,sans-Serif" font-size="10.00">printf</text>
</a>
</g>
</g>
<!-- Node11&#45;&gt;Node24 -->
<g id="edge23" class="edge">
<title>Node11&#45;&gt;Node24</title>
<path fill="none" stroke="midnightblue" d="M573.4,-133.27C588.42,-117.38 620.33,-85.75 653,-67 661.4,-62.18 671.23,-58.3 680.23,-55.34"/>
<polygon fill="midnightblue" stroke="midnightblue" points="681.38,-58.65 689.93,-52.38 679.34,-51.95 681.38,-58.65"/>
</g>
<!-- Node25 -->
<g id="node25" class="node">
<title>Node25</title>
<g id="a_node25"><a xlink:href="native_2trm_8c.html#a6351d8706733262e7e325926b1a9aab7" target="_top" xlink:title=" ">
<polygon fill="none" stroke="black" points="688.5,-0.5 688.5,-19.5 729.5,-19.5 729.5,-0.5 688.5,-0.5"/>
<text text-anchor="middle" x="709" y="-7.5" font-family="Helvetica,sans-Serif" font-size="10.00">putch</text>
</a>
</g>
</g>
<!-- Node11&#45;&gt;Node25 -->
<g id="edge24" class="edge">
<title>Node11&#45;&gt;Node25</title>
<path fill="none" stroke="midnightblue" d="M569.5,-133.21C581.16,-111.35 612.26,-58.18 653,-29 660.56,-23.59 669.78,-19.61 678.51,-16.74"/>
<polygon fill="midnightblue" stroke="midnightblue" points="679.77,-20.02 688.38,-13.85 677.8,-13.3 679.77,-20.02"/>
</g>
<!-- Node13 -->
<g id="node13" class="node">
<title>Node13</title>
<g id="a_node13"><a xlink:href="x86_2qemu_2mpe_8c.html#af486ec575d47720d28eee63644206110" target="_top" xlink:title=" ">
<polygon fill="none" stroke="black" points="820.5,-285.5 820.5,-304.5 882.5,-304.5 882.5,-285.5 820.5,-285.5"/>
<text text-anchor="middle" x="851.5" y="-292.5" font-family="Helvetica,sans-Serif" font-size="10.00">cpu_count</text>
</a>
</g>
</g>
<!-- Node12&#45;&gt;Node13 -->
<g id="edge12" class="edge">
<title>Node12&#45;&gt;Node13</title>
<path fill="none" stroke="midnightblue" d="M759.54,-288.53C776.13,-289.71 794.41,-291.01 810.21,-292.13"/>
<polygon fill="midnightblue" stroke="midnightblue" points="809.96,-295.62 820.19,-292.84 810.46,-288.64 809.96,-295.62"/>
</g>
<!-- Node15 -->
<g id="node15" class="node">
<title>Node15</title>
<g id="a_node15"><a xlink:href="x86_2qemu_2ioe_8c.html#a88a238fee7cd006afa69ea97e4914a09" target="_top" xlink:title=" ">
<polygon fill="none" stroke="black" points="801,-247.5 801,-266.5 902,-266.5 902,-247.5 801,-247.5"/>
<text text-anchor="middle" x="851.5" y="-254.5" font-family="Helvetica,sans-Serif" font-size="10.00">__am_lapic_bootap</text>
</a>
</g>
</g>
<!-- Node14&#45;&gt;Node15 -->
<g id="edge14" class="edge">
<title>Node14&#45;&gt;Node15</title>
<path fill="none" stroke="midnightblue" d="M765.13,-245.45C773.43,-246.58 782.04,-247.74 790.44,-248.88"/>
<polygon fill="midnightblue" stroke="midnightblue" points="790.18,-252.38 800.56,-250.25 791.12,-245.44 790.18,-252.38"/>
</g>
<!-- Node18 -->
<g id="node18" class="node">
<title>Node18</title>
<g id="a_node18"><a xlink:href="x86_8h.html#adfa01b89ceed9e7a87f185f4e441aa16" target="_top" xlink:title=" ">
<polygon fill="none" stroke="black" points="817.5,-209.5 817.5,-228.5 885.5,-228.5 885.5,-209.5 817.5,-209.5"/>
<text text-anchor="middle" x="851.5" y="-216.5" font-family="Helvetica,sans-Serif" font-size="10.00">boot_record</text>
</a>
</g>
</g>
<!-- Node14&#45;&gt;Node18 -->
<g id="edge17" class="edge">
<title>Node14&#45;&gt;Node18</title>
<path fill="none" stroke="midnightblue" d="M765.13,-230.55C779.08,-228.66 793.87,-226.66 807.14,-224.86"/>
<polygon fill="midnightblue" stroke="midnightblue" points="807.98,-228.28 817.42,-223.47 807.05,-221.34 807.98,-228.28"/>
</g>
<!-- Node19 -->
<g id="node19" class="node">
<title>Node19</title>
<g id="a_node19"><a xlink:href="native_2mpe_8c.html#a806195bfb27a695274680a7ab6400663" target="_top" xlink:title=" ">
<polygon fill="none" stroke="black" points="817.5,-171.5 817.5,-190.5 885.5,-190.5 885.5,-171.5 817.5,-171.5"/>
<text text-anchor="middle" x="851.5" y="-178.5" font-family="Helvetica,sans-Serif" font-size="10.00">cpu_current</text>
</a>
</g>
</g>
<!-- Node14&#45;&gt;Node19 -->
<g id="edge18" class="edge">
<title>Node14&#45;&gt;Node19</title>
<path fill="none" stroke="midnightblue" d="M740.29,-228.47C748.41,-225.66 757.12,-222.42 765,-219 781.6,-211.8 784.53,-207.48 801,-200 805.22,-198.09 809.69,-196.19 814.15,-194.38"/>
<polygon fill="midnightblue" stroke="midnightblue" points="815.78,-197.5 823.8,-190.58 813.21,-190.99 815.78,-197.5"/>
</g>
<!-- Node16 -->
<g id="node16" class="node">
<title>Node16</title>
<g id="a_node16"><a xlink:href="x86_2qemu_2ioe_8c.html#a72d9ed0bfe1066367763e044b7a7b7c3" target="_top" xlink:title=" ">
<polygon fill="none" stroke="black" points="938,-266.5 938,-285.5 982,-285.5 982,-266.5 938,-266.5"/>
<text text-anchor="middle" x="960" y="-273.5" font-family="Helvetica,sans-Serif" font-size="10.00">lapicw</text>
</a>
</g>
</g>
<!-- Node15&#45;&gt;Node16 -->
<g id="edge15" class="edge">
<title>Node15&#45;&gt;Node16</title>
<path fill="none" stroke="midnightblue" d="M902.01,-265.83C910.77,-267.4 919.67,-268.98 927.75,-270.42"/>
<polygon fill="midnightblue" stroke="midnightblue" points="927.36,-273.91 937.82,-272.22 928.59,-267.02 927.36,-273.91"/>
</g>
<!-- Node17 -->
<g id="node17" class="node">
<title>Node17</title>
<g id="a_node17"><a xlink:href="x86_8h.html#ade961b44e45ddacbc3c3b7609cf36dc6" target="_top" xlink:title=" ">
<polygon fill="none" stroke="black" points="942.5,-228.5 942.5,-247.5 977.5,-247.5 977.5,-228.5 942.5,-228.5"/>
<text text-anchor="middle" x="960" y="-235.5" font-family="Helvetica,sans-Serif" font-size="10.00">outb</text>
</a>
</g>
</g>
<!-- Node15&#45;&gt;Node17 -->
<g id="edge16" class="edge">
<title>Node15&#45;&gt;Node17</title>
<path fill="none" stroke="midnightblue" d="M902.01,-248.17C912.47,-246.3 923.13,-244.4 932.35,-242.75"/>
<polygon fill="midnightblue" stroke="midnightblue" points="933.2,-246.16 942.43,-240.96 931.97,-239.27 933.2,-246.16"/>
</g>
</g>
</svg>
