<?xml version="1.0" encoding="UTF-8" standalone="no"?>
<!DOCTYPE svg PUBLIC "-//W3C//DTD SVG 1.1//EN"
 "http://www.w3.org/Graphics/SVG/1.1/DTD/svg11.dtd">
<!-- Generated by graphviz version 2.50.0 (20220203.2022)
 -->
<!-- Title: _start_c Pages: 1 -->
<svg width="868pt" height="370pt"
 viewBox="0.00 0.00 868.00 370.00" xmlns="http://www.w3.org/2000/svg" xmlns:xlink="http://www.w3.org/1999/xlink">
<g id="graph0" class="graph" transform="scale(1 1) rotate(0) translate(4 366)">
<title>_start_c</title>
<!-- Node1 -->
<g id="node1" class="node">
<title>Node1</title>
<g id="a_node1"><a xlink:title=" ">
<polygon fill="#bfbfbf" stroke="black" points="0,-114.5 0,-133.5 52,-133.5 52,-114.5 0,-114.5"/>
<text text-anchor="middle" x="26" y="-121.5" font-family="Helvetica,sans-Serif" font-size="10.00">_start_c</text>
</a>
</g>
</g>
<!-- Node2 -->
<g id="node2" class="node">
<title>Node2</title>
<g id="a_node2"><a xlink:href="x86_2qemu_2trm_8c.html#a75e130ff99ad31f9a1df206b5ff8252a" target="_top" xlink:title=" ">
<polygon fill="none" stroke="black" points="234,-209.5 234,-228.5 332,-228.5 332,-209.5 234,-209.5"/>
<text text-anchor="middle" x="283" y="-216.5" font-family="Helvetica,sans-Serif" font-size="10.00">__am_bootcpu_init</text>
</a>
</g>
</g>
<!-- Node1&#45;&gt;Node2 -->
<g id="edge1" class="edge">
<title>Node1&#45;&gt;Node2</title>
<path fill="none" stroke="midnightblue" d="M33.61,-133.65C43.64,-147.46 64.08,-172.56 88,-185 130.14,-206.91 183.67,-215.05 223.82,-217.92"/>
<polygon fill="midnightblue" stroke="midnightblue" points="223.78,-221.42 233.98,-218.55 224.22,-214.44 223.78,-221.42"/>
</g>
<!-- Node20 -->
<g id="node20" class="node">
<title>Node20</title>
<g id="a_node20"><a xlink:href="x86_2qemu_2mpe_8c.html#af9524b1c09898b69d9980310682a8bea" target="_top" xlink:title=" ">
<polygon fill="none" stroke="black" points="88,-133.5 88,-152.5 198,-152.5 198,-133.5 88,-133.5"/>
<text text-anchor="middle" x="143" y="-140.5" font-family="Helvetica,sans-Serif" font-size="10.00">__am_othercpu_entry</text>
</a>
</g>
</g>
<!-- Node1&#45;&gt;Node20 -->
<g id="edge21" class="edge">
<title>Node1&#45;&gt;Node20</title>
<path fill="none" stroke="midnightblue" d="M52.24,-128.17C59.83,-129.42 68.53,-130.86 77.46,-132.34"/>
<polygon fill="midnightblue" stroke="midnightblue" points="77.15,-135.83 87.59,-134.01 78.29,-128.93 77.15,-135.83"/>
</g>
<!-- Node24 -->
<g id="node24" class="node">
<title>Node24</title>
<g id="a_node24"><a xlink:href="x86_8h.html#a3aca1d1b71fb9d7c716c378b77f78a67" target="_top" xlink:title=" ">
<polygon fill="none" stroke="black" points="235.5,-171.5 235.5,-190.5 330.5,-190.5 330.5,-171.5 235.5,-171.5"/>
<text text-anchor="middle" x="283" y="-178.5" font-family="Helvetica,sans-Serif" font-size="10.00">stack_switch_call</text>
</a>
</g>
</g>
<!-- Node1&#45;&gt;Node24 -->
<g id="edge32" class="edge">
<title>Node1&#45;&gt;Node24</title>
<path fill="none" stroke="midnightblue" d="M38.77,-133.66C50.47,-142.67 69.33,-155.66 88,-162 132.42,-177.08 185.61,-181.4 225.05,-182.19"/>
<polygon fill="midnightblue" stroke="midnightblue" points="225.24,-185.7 235.28,-182.33 225.33,-178.7 225.24,-185.7"/>
</g>
<!-- Node25 -->
<g id="node25" class="node">
<title>Node25</title>
<g id="a_node25"><a xlink:href="src_2x86_2qemu_2x86-qemu_8h.html#a64bde2ec96916dd620625c36d85ef38a" target="_top" xlink:title=" ">
<polygon fill="none" stroke="black" points="253.5,-95.5 253.5,-114.5 312.5,-114.5 312.5,-95.5 253.5,-95.5"/>
<text text-anchor="middle" x="283" y="-102.5" font-family="Helvetica,sans-Serif" font-size="10.00">stack_top</text>
</a>
</g>
</g>
<!-- Node1&#45;&gt;Node25 -->
<g id="edge33" class="edge">
<title>Node1&#45;&gt;Node25</title>
<path fill="none" stroke="midnightblue" d="M52.38,-122.11C97.14,-118.77 190.36,-111.83 243.22,-107.89"/>
<polygon fill="midnightblue" stroke="midnightblue" points="243.52,-111.38 253.23,-107.14 243,-104.4 243.52,-111.38"/>
</g>
<!-- Node26 -->
<g id="node26" class="node">
<title>Node26</title>
<g id="a_node26"><a xlink:href="x86_8h.html#adfa01b89ceed9e7a87f185f4e441aa16" target="_top" xlink:title=" ">
<polygon fill="none" stroke="black" points="109,-57.5 109,-76.5 177,-76.5 177,-57.5 109,-57.5"/>
<text text-anchor="middle" x="143" y="-64.5" font-family="Helvetica,sans-Serif" font-size="10.00">boot_record</text>
</a>
</g>
</g>
<!-- Node1&#45;&gt;Node26 -->
<g id="edge28" class="edge">
<title>Node1&#45;&gt;Node26</title>
<path fill="none" stroke="midnightblue" d="M43.91,-114.4C56.05,-107.61 72.87,-98.44 88,-91 95.03,-87.54 102.66,-84.02 109.92,-80.77"/>
<polygon fill="midnightblue" stroke="midnightblue" points="111.75,-83.78 119.49,-76.54 108.93,-77.38 111.75,-83.78"/>
</g>
<!-- Node27 -->
<g id="node27" class="node">
<title>Node27</title>
<g id="a_node27"><a xlink:href="x86_2qemu_2trm_8c.html#a12a49ff4d3a586b2315e292c5da3df7e" target="_top" xlink:title=" ">
<polygon fill="none" stroke="black" points="114,-19.5 114,-38.5 172,-38.5 172,-19.5 114,-19.5"/>
<text text-anchor="middle" x="143" y="-26.5" font-family="Helvetica,sans-Serif" font-size="10.00">call_main</text>
</a>
</g>
</g>
<!-- Node1&#45;&gt;Node27 -->
<g id="edge29" class="edge">
<title>Node1&#45;&gt;Node27</title>
<path fill="none" stroke="midnightblue" d="M32.28,-114.4C41.53,-98.41 62.18,-66.29 88,-48 92.94,-44.5 98.58,-41.6 104.31,-39.19"/>
<polygon fill="midnightblue" stroke="midnightblue" points="105.78,-42.38 113.93,-35.62 103.34,-35.82 105.78,-42.38"/>
</g>
<!-- Node3 -->
<g id="node3" class="node">
<title>Node3</title>
<g id="a_node3"><a xlink:href="x86_2qemu_2trm_8c.html#afa4d35ce31ec846cb9da5f17455f54c0" target="_top" xlink:title=" ">
<polygon fill="none" stroke="black" points="372,-304.5 372,-323.5 457,-323.5 457,-304.5 372,-304.5"/>
<text text-anchor="middle" x="414.5" y="-311.5" font-family="Helvetica,sans-Serif" font-size="10.00">__am_heap_init</text>
</a>
</g>
</g>
<!-- Node2&#45;&gt;Node3 -->
<g id="edge2" class="edge">
<title>Node2&#45;&gt;Node3</title>
<path fill="none" stroke="midnightblue" d="M297.37,-228.81C319.78,-245.25 365.11,-278.5 392.03,-298.25"/>
<polygon fill="midnightblue" stroke="midnightblue" points="390.26,-301.29 400.39,-304.39 394.4,-295.65 390.26,-301.29"/>
</g>
<!-- Node6 -->
<g id="node6" class="node">
<title>Node6</title>
<g id="a_node6"><a xlink:href="x86_2qemu_2ioe_8c.html#a0f69ba538f46238680ae9887bf11331a" target="_top" xlink:title=" ">
<polygon fill="none" stroke="black" points="370,-247.5 370,-266.5 459,-266.5 459,-247.5 370,-247.5"/>
<text text-anchor="middle" x="414.5" y="-254.5" font-family="Helvetica,sans-Serif" font-size="10.00">__am_ioapic_init</text>
</a>
</g>
</g>
<!-- Node2&#45;&gt;Node6 -->
<g id="edge5" class="edge">
<title>Node2&#45;&gt;Node6</title>
<path fill="none" stroke="midnightblue" d="M316.68,-228.59C333.09,-233.4 353.18,-239.3 370.79,-244.47"/>
<polygon fill="midnightblue" stroke="midnightblue" points="370.25,-247.96 380.83,-247.41 372.22,-241.24 370.25,-247.96"/>
</g>
<!-- Node9 -->
<g id="node9" class="node">
<title>Node9</title>
<g id="a_node9"><a xlink:href="x86_2qemu_2trm_8c.html#a6dbc147226148b9a52e4ddb3fcfb3f9f" target="_top" xlink:title=" ">
<polygon fill="none" stroke="black" points="372.5,-209.5 372.5,-228.5 456.5,-228.5 456.5,-209.5 372.5,-209.5"/>
<text text-anchor="middle" x="414.5" y="-216.5" font-family="Helvetica,sans-Serif" font-size="10.00">__am_lapic_init</text>
</a>
</g>
</g>
<!-- Node2&#45;&gt;Node9 -->
<g id="edge8" class="edge">
<title>Node2&#45;&gt;Node9</title>
<path fill="none" stroke="midnightblue" d="M332.22,-219C342.04,-219 352.41,-219 362.32,-219"/>
<polygon fill="midnightblue" stroke="midnightblue" points="362.46,-222.5 372.46,-219 362.46,-215.5 362.46,-222.5"/>
</g>
<!-- Node10 -->
<g id="node10" class="node">
<title>Node10</title>
<g id="a_node10"><a xlink:href="x86_2qemu_2trm_8c.html#abac650c2a0dd8b7f13349871fd6ab6ee" target="_top" xlink:title=" ">
<polygon fill="none" stroke="black" points="368,-171.5 368,-190.5 461,-190.5 461,-171.5 368,-171.5"/>
<text text-anchor="middle" x="414.5" y="-178.5" font-family="Helvetica,sans-Serif" font-size="10.00">__am_percpu_init</text>
</a>
</g>
</g>
<!-- Node2&#45;&gt;Node10 -->
<g id="edge9" class="edge">
<title>Node2&#45;&gt;Node10</title>
<path fill="none" stroke="midnightblue" d="M316.68,-209.41C333.09,-204.6 353.18,-198.7 370.79,-193.53"/>
<polygon fill="midnightblue" stroke="midnightblue" points="372.22,-196.76 380.83,-190.59 370.25,-190.04 372.22,-196.76"/>
</g>
<!-- Node4 -->
<g id="node4" class="node">
<title>Node4</title>
<g id="a_node4"><a xlink:href="x86_8h.html#afdc603aa210ab8fd9995ce74940f5d7f" target="_top" xlink:title=" ">
<polygon fill="none" stroke="black" points="539,-304.5 539,-323.5 568,-323.5 568,-304.5 539,-304.5"/>
<text text-anchor="middle" x="553.5" y="-311.5" font-family="Helvetica,sans-Serif" font-size="10.00">inb</text>
</a>
</g>
</g>
<!-- Node3&#45;&gt;Node4 -->
<g id="edge3" class="edge">
<title>Node3&#45;&gt;Node4</title>
<path fill="none" stroke="midnightblue" d="M457.35,-314C480.74,-314 509.05,-314 528.68,-314"/>
<polygon fill="midnightblue" stroke="midnightblue" points="528.87,-317.5 538.87,-314 528.87,-310.5 528.87,-317.5"/>
</g>
<!-- Node5 -->
<g id="node5" class="node">
<title>Node5</title>
<g id="a_node5"><a xlink:href="x86_8h.html#ade961b44e45ddacbc3c3b7609cf36dc6" target="_top" xlink:title=" ">
<polygon fill="none" stroke="black" points="536,-342.5 536,-361.5 571,-361.5 571,-342.5 536,-342.5"/>
<text text-anchor="middle" x="553.5" y="-349.5" font-family="Helvetica,sans-Serif" font-size="10.00">outb</text>
</a>
</g>
</g>
<!-- Node3&#45;&gt;Node5 -->
<g id="edge4" class="edge">
<title>Node3&#45;&gt;Node5</title>
<path fill="none" stroke="midnightblue" d="M450.07,-323.59C473.64,-330.13 504.38,-338.65 526.01,-344.65"/>
<polygon fill="midnightblue" stroke="midnightblue" points="525.26,-348.08 535.83,-347.38 527.13,-341.33 525.26,-348.08"/>
</g>
<!-- Node7 -->
<g id="node7" class="node">
<title>Node7</title>
<g id="a_node7"><a xlink:href="x86_2qemu_2ioe_8c.html#a37f2f997f05e2447bda6bace9bd59efa" target="_top" xlink:title=" ">
<polygon fill="none" stroke="black" points="523,-228.5 523,-247.5 584,-247.5 584,-228.5 523,-228.5"/>
<text text-anchor="middle" x="553.5" y="-235.5" font-family="Helvetica,sans-Serif" font-size="10.00">ioapicread</text>
</a>
</g>
</g>
<!-- Node6&#45;&gt;Node7 -->
<g id="edge6" class="edge">
<title>Node6&#45;&gt;Node7</title>
<path fill="none" stroke="midnightblue" d="M459.22,-250.94C476.34,-248.56 495.85,-245.86 512.58,-243.54"/>
<polygon fill="midnightblue" stroke="midnightblue" points="513.17,-246.99 522.6,-242.15 512.21,-240.05 513.17,-246.99"/>
</g>
<!-- Node8 -->
<g id="node8" class="node">
<title>Node8</title>
<g id="a_node8"><a xlink:href="x86_2qemu_2ioe_8c.html#aef6c47d7966a31659d7e494efed1b15c" target="_top" xlink:title=" ">
<polygon fill="none" stroke="black" points="792,-209.5 792,-228.5 855,-228.5 855,-209.5 792,-209.5"/>
<text text-anchor="middle" x="823.5" y="-216.5" font-family="Helvetica,sans-Serif" font-size="10.00">ioapicwrite</text>
</a>
</g>
</g>
<!-- Node6&#45;&gt;Node8 -->
<g id="edge7" class="edge">
<title>Node6&#45;&gt;Node8</title>
<path fill="none" stroke="midnightblue" d="M459.21,-263.63C524.04,-272 648.99,-282.42 751,-257 768.84,-252.55 787.12,-242.73 800.73,-234.18"/>
<polygon fill="midnightblue" stroke="midnightblue" points="802.89,-236.95 809.34,-228.55 799.06,-231.1 802.89,-236.95"/>
</g>
<!-- Node11 -->
<g id="node11" class="node">
<title>Node11</title>
<g id="a_node11"><a xlink:href="x86_2qemu_2trm_8c.html#a30657d927e0438fe41ba851aa9d7bc31" target="_top" xlink:title=" ">
<polygon fill="none" stroke="black" points="500,-114.5 500,-133.5 607,-133.5 607,-114.5 500,-114.5"/>
<text text-anchor="middle" x="553.5" y="-121.5" font-family="Helvetica,sans-Serif" font-size="10.00">__am_percpu_initgdt</text>
</a>
</g>
</g>
<!-- Node10&#45;&gt;Node11 -->
<g id="edge10" class="edge">
<title>Node10&#45;&gt;Node11</title>
<path fill="none" stroke="midnightblue" d="M439.76,-171.34C446.68,-168.46 454.19,-165.21 461,-162 477.36,-154.28 480.39,-150.17 497,-143 501.84,-140.91 507,-138.89 512.14,-136.99"/>
<polygon fill="midnightblue" stroke="midnightblue" points="513.68,-140.16 521.93,-133.51 511.34,-133.56 513.68,-140.16"/>
</g>
<!-- Node15 -->
<g id="node15" class="node">
<title>Node15</title>
<g id="a_node15"><a xlink:href="x86_2qemu_2cte_8c.html#adb128cbf8cb1844d1fef62c3647a3f25" target="_top" xlink:title=" ">
<polygon fill="none" stroke="black" points="501.5,-152.5 501.5,-171.5 605.5,-171.5 605.5,-152.5 501.5,-152.5"/>
<text text-anchor="middle" x="553.5" y="-159.5" font-family="Helvetica,sans-Serif" font-size="10.00">__am_percpu_initirq</text>
</a>
</g>
</g>
<!-- Node10&#45;&gt;Node15 -->
<g id="edge14" class="edge">
<title>Node10&#45;&gt;Node15</title>
<path fill="none" stroke="midnightblue" d="M461.12,-174.67C470.81,-173.33 481.19,-171.89 491.35,-170.48"/>
<polygon fill="midnightblue" stroke="midnightblue" points="491.99,-173.93 501.41,-169.09 491.02,-166.99 491.99,-173.93"/>
</g>
<!-- Node18 -->
<g id="node18" class="node">
<title>Node18</title>
<g id="a_node18"><a xlink:href="x86_2qemu_2ioe_8c.html#afd452a54c6657d504fdbc70af4adb9cf" target="_top" xlink:title=" ">
<polygon fill="none" stroke="black" points="497,-190.5 497,-209.5 610,-209.5 610,-190.5 497,-190.5"/>
<text text-anchor="middle" x="553.5" y="-197.5" font-family="Helvetica,sans-Serif" font-size="10.00">__am_percpu_initlapic</text>
</a>
</g>
</g>
<!-- Node10&#45;&gt;Node18 -->
<g id="edge19" class="edge">
<title>Node10&#45;&gt;Node18</title>
<path fill="none" stroke="midnightblue" d="M461.12,-187.33C469.29,-188.46 477.95,-189.66 486.55,-190.85"/>
<polygon fill="midnightblue" stroke="midnightblue" points="486.21,-194.34 496.59,-192.25 487.17,-187.41 486.21,-194.34"/>
</g>
<!-- Node12 -->
<g id="node12" class="node">
<title>Node12</title>
<g id="a_node12"><a xlink:href="x86_8h.html#a4dc007b346b1364320af9d9e1c105455" target="_top" xlink:title=" ">
<polygon fill="none" stroke="black" points="674,-76.5 674,-95.5 723,-95.5 723,-76.5 674,-76.5"/>
<text text-anchor="middle" x="698.5" y="-83.5" font-family="Helvetica,sans-Serif" font-size="10.00">set_gdt</text>
</a>
</g>
</g>
<!-- Node11&#45;&gt;Node12 -->
<g id="edge11" class="edge">
<title>Node11&#45;&gt;Node12</title>
<path fill="none" stroke="midnightblue" d="M590.58,-114.41C613.16,-108.41 642.03,-100.74 664.08,-94.88"/>
<polygon fill="midnightblue" stroke="midnightblue" points="665.22,-98.2 673.99,-92.25 663.42,-91.43 665.22,-98.2"/>
</g>
<!-- Node14 -->
<g id="node14" class="node">
<title>Node14</title>
<g id="a_node14"><a xlink:href="x86_8h.html#a2d9f7bff4b1a6ec6b994dffdc4172bef" target="_top" xlink:title=" ">
<polygon fill="none" stroke="black" points="678,-114.5 678,-133.5 719,-133.5 719,-114.5 678,-114.5"/>
<text text-anchor="middle" x="698.5" y="-121.5" font-family="Helvetica,sans-Serif" font-size="10.00">set_tr</text>
</a>
</g>
</g>
<!-- Node11&#45;&gt;Node14 -->
<g id="edge13" class="edge">
<title>Node11&#45;&gt;Node14</title>
<path fill="none" stroke="midnightblue" d="M607.34,-124C627.77,-124 650.38,-124 667.84,-124"/>
<polygon fill="midnightblue" stroke="midnightblue" points="667.99,-127.5 677.99,-124 667.99,-120.5 667.99,-127.5"/>
</g>
<!-- Node13 -->
<g id="node13" class="node">
<title>Node13</title>
<g id="a_node13"><a xlink:href="amdev_8h.html#ab31b92691e50ae7e3b7d50598fad2e8c" target="_top" xlink:title=" ">
<polygon fill="none" stroke="black" points="787,-133.5 787,-152.5 860,-152.5 860,-133.5 787,-133.5"/>
<text text-anchor="middle" x="823.5" y="-140.5" font-family="Helvetica,sans-Serif" font-size="10.00">__attribute__</text>
</a>
</g>
</g>
<!-- Node12&#45;&gt;Node13 -->
<g id="edge12" class="edge">
<title>Node12&#45;&gt;Node13</title>
<path fill="none" stroke="midnightblue" d="M723.1,-93.95C731.95,-97.13 742.04,-100.99 751,-105 766.74,-112.05 783.82,-121.07 797.33,-128.55"/>
<polygon fill="midnightblue" stroke="midnightblue" points="795.63,-131.61 806.06,-133.44 799.05,-125.5 795.63,-131.61"/>
</g>
<!-- Node16 -->
<g id="node16" class="node">
<title>Node16</title>
<g id="a_node16"><a xlink:href="x86_2qemu_2ioe_8c.html#aaa8b5de13119943f63fd14ce0cbb748f" target="_top" xlink:title=" ">
<polygon fill="none" stroke="black" points="646,-190.5 646,-209.5 751,-209.5 751,-190.5 646,-190.5"/>
<text text-anchor="middle" x="698.5" y="-197.5" font-family="Helvetica,sans-Serif" font-size="10.00">__am_ioapic_enable</text>
</a>
</g>
</g>
<!-- Node15&#45;&gt;Node16 -->
<g id="edge15" class="edge">
<title>Node15&#45;&gt;Node16</title>
<path fill="none" stroke="midnightblue" d="M590.58,-171.59C609.13,-176.52 631.93,-182.57 651.7,-187.83"/>
<polygon fill="midnightblue" stroke="midnightblue" points="650.86,-191.23 661.43,-190.41 652.66,-184.46 650.86,-191.23"/>
</g>
<!-- Node17 -->
<g id="node17" class="node">
<title>Node17</title>
<g id="a_node17"><a xlink:href="x86_8h.html#aec7546614338d8b90023fa2805432e22" target="_top" xlink:title=" ">
<polygon fill="none" stroke="black" points="675.5,-152.5 675.5,-171.5 721.5,-171.5 721.5,-152.5 675.5,-152.5"/>
<text text-anchor="middle" x="698.5" y="-159.5" font-family="Helvetica,sans-Serif" font-size="10.00">set_idt</text>
</a>
</g>
</g>
<!-- Node15&#45;&gt;Node17 -->
<g id="edge17" class="edge">
<title>Node15&#45;&gt;Node17</title>
<path fill="none" stroke="midnightblue" d="M605.72,-162C625.5,-162 647.53,-162 665.05,-162"/>
<polygon fill="midnightblue" stroke="midnightblue" points="665.32,-165.5 675.32,-162 665.32,-158.5 665.32,-165.5"/>
</g>
<!-- Node16&#45;&gt;Node8 -->
<g id="edge16" class="edge">
<title>Node16&#45;&gt;Node8</title>
<path fill="none" stroke="midnightblue" d="M751.31,-208C761.43,-209.57 771.92,-211.19 781.63,-212.69"/>
<polygon fill="midnightblue" stroke="midnightblue" points="781.39,-216.19 791.8,-214.26 782.45,-209.27 781.39,-216.19"/>
</g>
<!-- Node17&#45;&gt;Node13 -->
<g id="edge18" class="edge">
<title>Node17&#45;&gt;Node13</title>
<path fill="none" stroke="midnightblue" d="M721.77,-158.56C737.15,-156.18 758.14,-152.94 776.98,-150.03"/>
<polygon fill="midnightblue" stroke="midnightblue" points="777.53,-153.49 786.88,-148.5 776.46,-146.57 777.53,-153.49"/>
</g>
<!-- Node19 -->
<g id="node19" class="node">
<title>Node19</title>
<g id="a_node19"><a xlink:href="x86_2qemu_2ioe_8c.html#a72d9ed0bfe1066367763e044b7a7b7c3" target="_top" xlink:title=" ">
<polygon fill="none" stroke="black" points="676.5,-228.5 676.5,-247.5 720.5,-247.5 720.5,-228.5 676.5,-228.5"/>
<text text-anchor="middle" x="698.5" y="-235.5" font-family="Helvetica,sans-Serif" font-size="10.00">lapicw</text>
</a>
</g>
</g>
<!-- Node18&#45;&gt;Node19 -->
<g id="edge20" class="edge">
<title>Node18&#45;&gt;Node19</title>
<path fill="none" stroke="midnightblue" d="M590.58,-209.59C613.87,-215.78 643.86,-223.75 666.15,-229.67"/>
<polygon fill="midnightblue" stroke="midnightblue" points="665.54,-233.13 676.1,-232.31 667.34,-226.36 665.54,-233.13"/>
</g>
<!-- Node21 -->
<g id="node21" class="node">
<title>Node21</title>
<g id="a_node21"><a xlink:href="x86_2qemu_2mpe_8c.html#aec8f7f25be4263648b704092672a566b" target="_top" xlink:title=" ">
<polygon fill="none" stroke="black" points="243,-133.5 243,-152.5 323,-152.5 323,-133.5 243,-133.5"/>
<text text-anchor="middle" x="283" y="-140.5" font-family="Helvetica,sans-Serif" font-size="10.00">othercpu_entry</text>
</a>
</g>
</g>
<!-- Node20&#45;&gt;Node21 -->
<g id="edge22" class="edge">
<title>Node20&#45;&gt;Node21</title>
<path fill="none" stroke="midnightblue" d="M198.15,-143C209.59,-143 221.61,-143 232.86,-143"/>
<polygon fill="midnightblue" stroke="midnightblue" points="232.94,-146.5 242.94,-143 232.94,-139.5 232.94,-146.5"/>
</g>
<!-- Node20&#45;&gt;Node24 -->
<g id="edge26" class="edge">
<title>Node20&#45;&gt;Node24</title>
<path fill="none" stroke="midnightblue" d="M178.82,-152.59C196.64,-157.49 218.52,-163.52 237.54,-168.76"/>
<polygon fill="midnightblue" stroke="midnightblue" points="236.62,-172.13 247.19,-171.41 238.48,-165.38 236.62,-172.13"/>
</g>
<!-- Node20&#45;&gt;Node25 -->
<g id="edge27" class="edge">
<title>Node20&#45;&gt;Node25</title>
<path fill="none" stroke="midnightblue" d="M178.82,-133.41C198.5,-127.99 223.13,-121.21 243.39,-115.63"/>
<polygon fill="midnightblue" stroke="midnightblue" points="244.53,-118.95 253.24,-112.92 242.67,-112.2 244.53,-118.95"/>
</g>
<!-- Node21&#45;&gt;Node10 -->
<g id="edge23" class="edge">
<title>Node21&#45;&gt;Node10</title>
<path fill="none" stroke="midnightblue" d="M316.68,-152.59C333.09,-157.4 353.18,-163.3 370.79,-168.47"/>
<polygon fill="midnightblue" stroke="midnightblue" points="370.25,-171.96 380.83,-171.41 372.22,-165.24 370.25,-171.96"/>
</g>
<!-- Node22 -->
<g id="node22" class="node">
<title>Node22</title>
<g id="a_node22"><a xlink:href="x86_2qemu_2mpe_8c.html#afc800fc7438b6762f113c46d25cab75b" target="_top" xlink:title=" ">
<polygon fill="none" stroke="black" points="373.5,-133.5 373.5,-152.5 455.5,-152.5 455.5,-133.5 373.5,-133.5"/>
<text text-anchor="middle" x="414.5" y="-140.5" font-family="Helvetica,sans-Serif" font-size="10.00">call_user_entry</text>
</a>
</g>
</g>
<!-- Node21&#45;&gt;Node22 -->
<g id="edge24" class="edge">
<title>Node21&#45;&gt;Node22</title>
<path fill="none" stroke="midnightblue" d="M323.21,-143C335.66,-143 349.61,-143 362.76,-143"/>
<polygon fill="midnightblue" stroke="midnightblue" points="363.08,-146.5 373.08,-143 363.08,-139.5 363.08,-146.5"/>
</g>
<!-- Node23 -->
<g id="node23" class="node">
<title>Node23</title>
<g id="a_node23"><a xlink:href="x86_8h.html#a48b2a6a16dc8d7e09d327aa3803f1112" target="_top" xlink:title=" ">
<polygon fill="none" stroke="black" points="396,-95.5 396,-114.5 433,-114.5 433,-95.5 396,-95.5"/>
<text text-anchor="middle" x="414.5" y="-102.5" font-family="Helvetica,sans-Serif" font-size="10.00">xchg</text>
</a>
</g>
</g>
<!-- Node21&#45;&gt;Node23 -->
<g id="edge25" class="edge">
<title>Node21&#45;&gt;Node23</title>
<path fill="none" stroke="midnightblue" d="M316.68,-133.41C338.12,-127.12 365.83,-118.99 386.11,-113.04"/>
<polygon fill="midnightblue" stroke="midnightblue" points="387.36,-116.32 395.97,-110.14 385.39,-109.6 387.36,-116.32"/>
</g>
<!-- Node28 -->
<g id="node28" class="node">
<title>Node28</title>
<g id="a_node28"><a xlink:href="native_2trm_8c.html#a483cb97188e557c3c68d3a1572c2cc92" target="_top" xlink:title=" ">
<polygon fill="none" stroke="black" points="267,-38.5 267,-57.5 299,-57.5 299,-38.5 267,-38.5"/>
<text text-anchor="middle" x="283" y="-45.5" font-family="Helvetica,sans-Serif" font-size="10.00">halt</text>
</a>
</g>
</g>
<!-- Node27&#45;&gt;Node28 -->
<g id="edge30" class="edge">
<title>Node27&#45;&gt;Node28</title>
<path fill="none" stroke="midnightblue" d="M172.26,-32.89C197.15,-36.32 233.06,-41.26 256.94,-44.55"/>
<polygon fill="midnightblue" stroke="midnightblue" points="256.6,-48.04 266.99,-45.93 257.56,-41.1 256.6,-48.04"/>
</g>
<!-- Node29 -->
<g id="node29" class="node">
<title>Node29</title>
<g id="a_node29"><a xlink:href="x86_2qemu_2trm_8c.html#aa12a9403d4e36817688700b1c1bd442e" target="_top" xlink:title=" ">
<polygon fill="none" stroke="black" points="264,-0.5 264,-19.5 302,-19.5 302,-0.5 264,-0.5"/>
<text text-anchor="middle" x="283" y="-7.5" font-family="Helvetica,sans-Serif" font-size="10.00">main</text>
</a>
</g>
</g>
<!-- Node27&#45;&gt;Node29 -->
<g id="edge31" class="edge">
<title>Node27&#45;&gt;Node29</title>
<path fill="none" stroke="midnightblue" d="M172.26,-25.11C196.06,-21.83 229.93,-17.17 253.73,-13.89"/>
<polygon fill="midnightblue" stroke="midnightblue" points="254.45,-17.33 263.88,-12.49 253.5,-10.39 254.45,-17.33"/>
</g>
</g>
</svg>
