<?xml version="1.0" encoding="UTF-8" standalone="no"?>
<!DOCTYPE svg PUBLIC "-//W3C//DTD SVG 1.1//EN"
 "http://www.w3.org/Graphics/SVG/1.1/DTD/svg11.dtd">
<!-- Generated by graphviz version 2.50.0 (20220203.2022)
 -->
<!-- Title: cpu_current Pages: 1 -->
<svg width="699pt" height="218pt"
 viewBox="0.00 0.00 699.00 218.00" xmlns="http://www.w3.org/2000/svg" xmlns:xlink="http://www.w3.org/1999/xlink">
<g id="graph0" class="graph" transform="scale(1 1) rotate(0) translate(4 214)">
<title>cpu_current</title>
<!-- Node1 -->
<g id="node1" class="node">
<title>Node1</title>
<g id="a_node1"><a xlink:title=" ">
<polygon fill="#bfbfbf" stroke="black" points="623,-76.5 623,-95.5 691,-95.5 691,-76.5 623,-76.5"/>
<text text-anchor="middle" x="657" y="-83.5" font-family="Helvetica,sans-Serif" font-size="10.00">cpu_current</text>
</a>
</g>
</g>
<!-- Node2 -->
<g id="node2" class="node">
<title>Node2</title>
<g id="a_node2"><a xlink:href="x86_2qemu_2cte_8c.html#a14d86719abbc247f8a0dd5eb2662ea88" target="_top" xlink:title=" ">
<polygon fill="none" stroke="black" points="536.5,-152.5 536.5,-171.5 584.5,-171.5 584.5,-152.5 536.5,-152.5"/>
<text text-anchor="middle" x="560.5" y="-159.5" font-family="Helvetica,sans-Serif" font-size="10.00">cte_init</text>
</a>
</g>
</g>
<!-- Node1&#45;&gt;Node2 -->
<g id="edge1" class="edge">
<title>Node1&#45;&gt;Node2</title>
<path fill="none" stroke="midnightblue" d="M636.62,-102.45C622.91,-113.98 604.01,-129.65 587,-143 583,-146.14 578.59,-149.47 574.57,-152.46"/>
<polygon fill="midnightblue" stroke="midnightblue" points="639.04,-104.99 644.42,-95.86 634.53,-99.64 639.04,-104.99"/>
</g>
<!-- Node3 -->
<g id="node3" class="node">
<title>Node3</title>
<g id="a_node3"><a xlink:href="x86_2qemu_2trm_8c.html#a483cb97188e557c3c68d3a1572c2cc92" target="_top" xlink:title=" ">
<polygon fill="none" stroke="black" points="544.5,-114.5 544.5,-133.5 576.5,-133.5 576.5,-114.5 544.5,-114.5"/>
<text text-anchor="middle" x="560.5" y="-121.5" font-family="Helvetica,sans-Serif" font-size="10.00">halt</text>
</a>
</g>
</g>
<!-- Node1&#45;&gt;Node3 -->
<g id="edge2" class="edge">
<title>Node1&#45;&gt;Node3</title>
<path fill="none" stroke="midnightblue" d="M622.76,-99.37C607.08,-105.67 589.15,-112.88 576.76,-117.87"/>
<polygon fill="midnightblue" stroke="midnightblue" points="624.18,-102.57 632.15,-95.59 621.57,-96.07 624.18,-102.57"/>
</g>
<!-- Node13 -->
<g id="node13" class="node">
<title>Node13</title>
<g id="a_node13"><a xlink:href="x86_2qemu_2ioe_8c.html#a45ecef4130276c1c79d872c582cd3839" target="_top" xlink:title=" ">
<polygon fill="none" stroke="black" points="537,-76.5 537,-95.5 584,-95.5 584,-76.5 537,-76.5"/>
<text text-anchor="middle" x="560.5" y="-83.5" font-family="Helvetica,sans-Serif" font-size="10.00">ioe_init</text>
</a>
</g>
</g>
<!-- Node1&#45;&gt;Node13 -->
<g id="edge12" class="edge">
<title>Node1&#45;&gt;Node13</title>
<path fill="none" stroke="midnightblue" d="M612.84,-86C602.98,-86 592.89,-86 584.29,-86"/>
<polygon fill="midnightblue" stroke="midnightblue" points="612.95,-89.5 622.95,-86 612.95,-82.5 612.95,-89.5"/>
</g>
<!-- Node14 -->
<g id="node14" class="node">
<title>Node14</title>
<g id="a_node14"><a xlink:href="os_8c.html#a5f9cb32664e017ca15c49ec66e5342e4" target="_top" xlink:title=" ">
<polygon fill="none" stroke="black" points="537.5,-38.5 537.5,-57.5 583.5,-57.5 583.5,-38.5 537.5,-38.5"/>
<text text-anchor="middle" x="560.5" y="-45.5" font-family="Helvetica,sans-Serif" font-size="10.00">os_run</text>
</a>
</g>
</g>
<!-- Node1&#45;&gt;Node14 -->
<g id="edge13" class="edge">
<title>Node1&#45;&gt;Node14</title>
<path fill="none" stroke="midnightblue" d="M622.65,-72.59C609.74,-67.4 595.31,-61.6 583.72,-56.93"/>
<polygon fill="midnightblue" stroke="midnightblue" points="621.57,-75.93 632.15,-76.41 624.18,-69.43 621.57,-75.93"/>
</g>
<!-- Node16 -->
<g id="node16" class="node">
<title>Node16</title>
<g id="a_node16"><a xlink:href="x86_2qemu_2vme_8c.html#a102a03634ce449f78facc63eee85d9b8" target="_top" xlink:title=" ">
<polygon fill="none" stroke="black" points="534,-0.5 534,-19.5 587,-19.5 587,-0.5 534,-0.5"/>
<text text-anchor="middle" x="560.5" y="-7.5" font-family="Helvetica,sans-Serif" font-size="10.00">vme_init</text>
</a>
</g>
</g>
<!-- Node1&#45;&gt;Node16 -->
<g id="edge15" class="edge">
<title>Node1&#45;&gt;Node16</title>
<path fill="none" stroke="midnightblue" d="M636.62,-69.55C622.91,-58.02 604.01,-42.35 587,-29 583,-25.86 578.59,-22.53 574.57,-19.54"/>
<polygon fill="midnightblue" stroke="midnightblue" points="634.53,-72.36 644.42,-76.14 639.04,-67.01 634.53,-72.36"/>
</g>
<!-- Node4 -->
<g id="node4" class="node">
<title>Node4</title>
<g id="a_node4"><a xlink:href="input_8c.html#a77413c19d2c314aba317257b3cafb1c7" target="_top" xlink:title=" ">
<polygon fill="none" stroke="black" points="420,-133.5 420,-152.5 493,-152.5 493,-133.5 420,-133.5"/>
<text text-anchor="middle" x="456.5" y="-140.5" font-family="Helvetica,sans-Serif" font-size="10.00">event_thread</text>
</a>
</g>
</g>
<!-- Node3&#45;&gt;Node4 -->
<g id="edge3" class="edge">
<title>Node3&#45;&gt;Node4</title>
<path fill="none" stroke="midnightblue" d="M534.4,-128.67C522.04,-130.98 506.91,-133.8 493.35,-136.32"/>
<polygon fill="midnightblue" stroke="midnightblue" points="535.26,-132.08 544.45,-126.8 533.98,-125.19 535.26,-132.08"/>
</g>
<!-- Node12 -->
<g id="node12" class="node">
<title>Node12</title>
<g id="a_node12"><a xlink:href="platform_8c.html#ab518f1443eb1cdfa46deda54dca8c7fc" target="_top" xlink:title=" ">
<polygon fill="none" stroke="black" points="421.5,-95.5 421.5,-114.5 491.5,-114.5 491.5,-95.5 421.5,-95.5"/>
<text text-anchor="middle" x="456.5" y="-102.5" font-family="Helvetica,sans-Serif" font-size="10.00">init_platform</text>
</a>
</g>
</g>
<!-- Node3&#45;&gt;Node12 -->
<g id="edge11" class="edge">
<title>Node3&#45;&gt;Node12</title>
<path fill="none" stroke="midnightblue" d="M534.43,-119.33C521.53,-116.93 505.62,-113.96 491.62,-111.36"/>
<polygon fill="midnightblue" stroke="midnightblue" points="533.98,-122.81 544.45,-121.2 535.26,-115.92 533.98,-122.81"/>
</g>
<!-- Node5 -->
<g id="node5" class="node">
<title>Node5</title>
<g id="a_node5"><a xlink:href="input_8c.html#a02d166c8d2549e580fd16379de9e80f1" target="_top" xlink:title=" ">
<polygon fill="none" stroke="black" points="294,-133.5 294,-152.5 379,-152.5 379,-133.5 294,-133.5"/>
<text text-anchor="middle" x="336.5" y="-140.5" font-family="Helvetica,sans-Serif" font-size="10.00">__am_input_init</text>
</a>
</g>
</g>
<!-- Node4&#45;&gt;Node5 -->
<g id="edge4" class="edge">
<title>Node4&#45;&gt;Node5</title>
<path fill="none" stroke="midnightblue" d="M409.62,-143C399.64,-143 389.13,-143 379.32,-143"/>
<polygon fill="midnightblue" stroke="midnightblue" points="409.78,-146.5 419.78,-143 409.78,-139.5 409.78,-146.5"/>
</g>
<!-- Node6 -->
<g id="node6" class="node">
<title>Node6</title>
<g id="a_node6"><a xlink:href="native_2ioe_8c.html#a85e8849eae1811aa4fa0527476f39782" target="_top" xlink:title=" ">
<polygon fill="none" stroke="black" points="181,-133.5 181,-152.5 258,-152.5 258,-133.5 181,-133.5"/>
<text text-anchor="middle" x="219.5" y="-140.5" font-family="Helvetica,sans-Serif" font-size="10.00">__am_ioe_init</text>
</a>
</g>
</g>
<!-- Node5&#45;&gt;Node6 -->
<g id="edge5" class="edge">
<title>Node5&#45;&gt;Node6</title>
<path fill="none" stroke="midnightblue" d="M283.92,-143C275.24,-143 266.38,-143 258.14,-143"/>
<polygon fill="midnightblue" stroke="midnightblue" points="283.98,-146.5 293.98,-143 283.98,-139.5 283.98,-146.5"/>
</g>
<!-- Node7 -->
<g id="node7" class="node">
<title>Node7</title>
<g id="a_node7"><a xlink:href="native_2ioe_8c.html#ac7243d0dd8589da2317ee06ee132c2f0" target="_top" xlink:title=" ">
<polygon fill="none" stroke="black" points="98.5,-152.5 98.5,-171.5 138.5,-171.5 138.5,-152.5 98.5,-152.5"/>
<text text-anchor="middle" x="118.5" y="-159.5" font-family="Helvetica,sans-Serif" font-size="10.00">do_io</text>
</a>
</g>
</g>
<!-- Node6&#45;&gt;Node7 -->
<g id="edge6" class="edge">
<title>Node6&#45;&gt;Node7</title>
<path fill="none" stroke="midnightblue" d="M170.83,-152.15C159.38,-154.35 147.81,-156.57 138.56,-158.34"/>
<polygon fill="midnightblue" stroke="midnightblue" points="171.63,-155.56 180.79,-150.24 170.31,-148.68 171.63,-155.56"/>
</g>
<!-- Node10 -->
<g id="node10" class="node">
<title>Node10</title>
<g id="a_node10"><a xlink:href="x86_2qemu_2mpe_8c.html#a2e4a724e2d067425ff3fd49bc0bf42e1" target="_top" xlink:title=" ">
<polygon fill="none" stroke="black" points="92,-114.5 92,-133.5 145,-133.5 145,-114.5 92,-114.5"/>
<text text-anchor="middle" x="118.5" y="-121.5" font-family="Helvetica,sans-Serif" font-size="10.00">mpe_init</text>
</a>
</g>
</g>
<!-- Node6&#45;&gt;Node10 -->
<g id="edge9" class="edge">
<title>Node6&#45;&gt;Node10</title>
<path fill="none" stroke="midnightblue" d="M170.86,-133.86C161.98,-132.15 153.03,-130.43 145.13,-128.92"/>
<polygon fill="midnightblue" stroke="midnightblue" points="170.31,-137.32 180.79,-135.76 171.63,-130.44 170.31,-137.32"/>
</g>
<!-- Node8 -->
<g id="node8" class="node">
<title>Node8</title>
<g id="a_node8"><a xlink:href="x86_2qemu_2ioe_8c.html#a9e4d8844a1b291f3594ac00297a918a4" target="_top" xlink:title=" ">
<polygon fill="none" stroke="black" points="1.5,-190.5 1.5,-209.5 54.5,-209.5 54.5,-190.5 1.5,-190.5"/>
<text text-anchor="middle" x="28" y="-197.5" font-family="Helvetica,sans-Serif" font-size="10.00">ioe_read</text>
</a>
</g>
</g>
<!-- Node7&#45;&gt;Node8 -->
<g id="edge7" class="edge">
<title>Node7&#45;&gt;Node8</title>
<path fill="none" stroke="midnightblue" d="M88.98,-174.24C76.77,-179.49 62.72,-185.52 51.29,-190.43"/>
<polygon fill="midnightblue" stroke="midnightblue" points="90.49,-177.41 98.3,-170.25 87.73,-170.97 90.49,-177.41"/>
</g>
<!-- Node9 -->
<g id="node9" class="node">
<title>Node9</title>
<g id="a_node9"><a xlink:href="x86_2qemu_2ioe_8c.html#ad1964375eeefa10b564a3bf2bd322db0" target="_top" xlink:title=" ">
<polygon fill="none" stroke="black" points="0,-152.5 0,-171.5 56,-171.5 56,-152.5 0,-152.5"/>
<text text-anchor="middle" x="28" y="-159.5" font-family="Helvetica,sans-Serif" font-size="10.00">ioe_write</text>
</a>
</g>
</g>
<!-- Node7&#45;&gt;Node9 -->
<g id="edge8" class="edge">
<title>Node7&#45;&gt;Node9</title>
<path fill="none" stroke="midnightblue" d="M88.12,-162C77.83,-162 66.33,-162 56.22,-162"/>
<polygon fill="midnightblue" stroke="midnightblue" points="88.3,-165.5 98.3,-162 88.3,-158.5 88.3,-165.5"/>
</g>
<!-- Node11 -->
<g id="node11" class="node">
<title>Node11</title>
<g id="a_node11"><a xlink:href="kernel_2framework_2main_8c.html#ae66f6b31b5ad750f1fe042a706a4e3d4" target="_top" xlink:title=" ">
<polygon fill="none" stroke="black" points="9,-114.5 9,-133.5 47,-133.5 47,-114.5 9,-114.5"/>
<text text-anchor="middle" x="28" y="-121.5" font-family="Helvetica,sans-Serif" font-size="10.00">main</text>
</a>
</g>
</g>
<!-- Node10&#45;&gt;Node11 -->
<g id="edge10" class="edge">
<title>Node10&#45;&gt;Node11</title>
<path fill="none" stroke="midnightblue" d="M81.79,-124C69.93,-124 57.21,-124 47.24,-124"/>
<polygon fill="midnightblue" stroke="midnightblue" points="81.9,-127.5 91.9,-124 81.9,-120.5 81.9,-127.5"/>
</g>
<!-- Node15 -->
<g id="node15" class="node">
<title>Node15</title>
<g id="a_node15"><a xlink:href="os_8c.html#aafec7046aa50c914df86d0d22d4fc1d1" target="_top" xlink:title=" ">
<polygon fill="none" stroke="black" points="415,-38.5 415,-57.5 498,-57.5 498,-38.5 415,-38.5"/>
<text text-anchor="middle" x="456.5" y="-45.5" font-family="Helvetica,sans-Serif" font-size="10.00">MODULE_DEF</text>
</a>
</g>
</g>
<!-- Node14&#45;&gt;Node15 -->
<g id="edge14" class="edge">
<title>Node14&#45;&gt;Node15</title>
<path fill="none" stroke="midnightblue" d="M527.07,-48C517.87,-48 507.72,-48 498.09,-48"/>
<polygon fill="midnightblue" stroke="midnightblue" points="527.37,-51.5 537.37,-48 527.37,-44.5 527.37,-51.5"/>
</g>
</g>
</svg>
