<?xml version="1.0" encoding="UTF-8" standalone="no"?>
<!DOCTYPE svg PUBLIC "-//W3C//DTD SVG 1.1//EN"
 "http://www.w3.org/Graphics/SVG/1.1/DTD/svg11.dtd">
<!-- Generated by graphviz version 3.0.0 (20220413.0106)
 -->
<!-- Title: get_efl Pages: 1 -->
<svg width="733pt" height="370pt"
 viewBox="0.00 0.00 733.00 370.00" xmlns="http://www.w3.org/2000/svg" xmlns:xlink="http://www.w3.org/1999/xlink">
<g id="graph0" class="graph" transform="scale(1 1) rotate(0) translate(4 366)">
<title>get_efl</title>
<!-- Node1 -->
<g id="node1" class="node">
<title>Node1</title>
<g id="a_node1"><a xlink:title=" ">
<polygon fill="#bfbfbf" stroke="black" points="680,-285.5 680,-304.5 725,-304.5 725,-285.5 680,-285.5"/>
<text text-anchor="middle" x="702.5" y="-292.5" font-family="Helvetica,sans-Serif" font-size="10.00">get_efl</text>
</a>
</g>
</g>
<!-- Node2 -->
<g id="node2" class="node">
<title>Node2</title>
<g id="a_node2"><a xlink:href="cte_8c.html#a79659a2b801c42951e38f3a8821acbae" target="_top" xlink:title=" ">
<polygon fill="none" stroke="black" points="591,-285.5 591,-304.5 644,-304.5 644,-285.5 591,-285.5"/>
<text text-anchor="middle" x="617.5" y="-292.5" font-family="Helvetica,sans-Serif" font-size="10.00">ienabled</text>
</a>
</g>
</g>
<!-- Node1&#45;&gt;Node2 -->
<g id="edge1" class="edge">
<title>Node1&#45;&gt;Node2</title>
<path fill="none" stroke="midnightblue" d="M669.52,-295C661.17,-295 652.27,-295 644.29,-295"/>
<polygon fill="midnightblue" stroke="midnightblue" points="669.69,-298.5 679.69,-295 669.69,-291.5 669.69,-298.5"/>
</g>
<!-- Node3 -->
<g id="node3" class="node">
<title>Node3</title>
<g id="a_node3"><a xlink:href="pmm_8c.html#a20ccb461126d548299c6c21f157e6668" target="_top" xlink:title=" ">
<polygon fill="none" stroke="black" points="486.5,-342.5 486.5,-361.5 552.5,-361.5 552.5,-342.5 486.5,-342.5"/>
<text text-anchor="middle" x="519.5" y="-349.5" font-family="Helvetica,sans-Serif" font-size="10.00">kalloc_safe</text>
</a>
</g>
</g>
<!-- Node2&#45;&gt;Node3 -->
<g id="edge2" class="edge">
<title>Node2&#45;&gt;Node3</title>
<path fill="none" stroke="midnightblue" d="M592.95,-309.94C581.57,-317.05 567.66,-325.61 555,-333 549.69,-336.1 543.84,-339.37 538.5,-342.31"/>
<polygon fill="midnightblue" stroke="midnightblue" points="594.86,-312.87 601.46,-304.58 591.13,-306.94 594.86,-312.87"/>
</g>
<!-- Node5 -->
<g id="node5" class="node">
<title>Node5</title>
<g id="a_node5"><a xlink:href="pmm_8c.html#af2f46f4bce6a599542ce4d462aec9e2f" target="_top" xlink:title=" ">
<polygon fill="none" stroke="black" points="488.5,-304.5 488.5,-323.5 550.5,-323.5 550.5,-304.5 488.5,-304.5"/>
<text text-anchor="middle" x="519.5" y="-311.5" font-family="Helvetica,sans-Serif" font-size="10.00">kfree_safe</text>
</a>
</g>
</g>
<!-- Node2&#45;&gt;Node5 -->
<g id="edge4" class="edge">
<title>Node2&#45;&gt;Node5</title>
<path fill="none" stroke="midnightblue" d="M580.81,-302.06C570.92,-304.02 560.28,-306.13 550.73,-308.02"/>
<polygon fill="midnightblue" stroke="midnightblue" points="581.64,-305.47 590.77,-300.09 580.28,-298.6 581.64,-305.47"/>
</g>
<!-- Node6 -->
<g id="node6" class="node">
<title>Node6</title>
<g id="a_node6"><a xlink:href="os_8c.html#a5f9cb32664e017ca15c49ec66e5342e4" target="_top" xlink:title="cpu start entry">
<polygon fill="none" stroke="black" points="383.5,-275.5 383.5,-294.5 429.5,-294.5 429.5,-275.5 383.5,-275.5"/>
<text text-anchor="middle" x="406.5" y="-282.5" font-family="Helvetica,sans-Serif" font-size="10.00">os_run</text>
</a>
</g>
</g>
<!-- Node2&#45;&gt;Node6 -->
<g id="edge6" class="edge">
<title>Node2&#45;&gt;Node6</title>
<path fill="none" stroke="midnightblue" d="M580.76,-293.29C537.36,-291.21 465.54,-287.78 429.52,-286.05"/>
<polygon fill="midnightblue" stroke="midnightblue" points="580.72,-296.79 590.87,-293.77 581.05,-289.8 580.72,-296.79"/>
</g>
<!-- Node8 -->
<g id="node8" class="node">
<title>Node8</title>
<g id="a_node8"><a xlink:href="spinlock_8c.html#ab213874cda54fdbbeb1bec1e5fa90b28" target="_top" xlink:title="interrupt disable">
<polygon fill="none" stroke="black" points="484,-228.5 484,-247.5 555,-247.5 555,-228.5 484,-228.5"/>
<text text-anchor="middle" x="519.5" y="-235.5" font-family="Helvetica,sans-Serif" font-size="10.00">spin_pushcli</text>
</a>
</g>
</g>
<!-- Node2&#45;&gt;Node8 -->
<g id="edge8" class="edge">
<title>Node2&#45;&gt;Node8</title>
<path fill="none" stroke="midnightblue" d="M591.2,-279.98C573.89,-269.7 551.45,-256.38 536.54,-247.53"/>
<polygon fill="midnightblue" stroke="midnightblue" points="589.83,-283.23 600.21,-285.33 593.4,-277.22 589.83,-283.23"/>
</g>
<!-- Node4 -->
<g id="node4" class="node">
<title>Node4</title>
<g id="a_node4"><a xlink:href="pmm_8c.html#a7ada9deb0ae8705f2cc158b0283aaeb3" target="_top" xlink:title=" ">
<polygon fill="none" stroke="black" points="365,-332.5 365,-351.5 448,-351.5 448,-332.5 365,-332.5"/>
<text text-anchor="middle" x="406.5" y="-339.5" font-family="Helvetica,sans-Serif" font-size="10.00">MODULE_DEF</text>
</a>
</g>
</g>
<!-- Node3&#45;&gt;Node4 -->
<g id="edge3" class="edge">
<title>Node3&#45;&gt;Node4</title>
<path fill="none" stroke="midnightblue" d="M476.29,-348.2C467.09,-347.37 457.38,-346.49 448.24,-345.67"/>
<polygon fill="midnightblue" stroke="midnightblue" points="476.12,-351.7 486.39,-349.11 476.75,-344.72 476.12,-351.7"/>
</g>
<!-- Node5&#45;&gt;Node4 -->
<g id="edge5" class="edge">
<title>Node5&#45;&gt;Node4</title>
<path fill="none" stroke="midnightblue" d="M478.48,-324.1C467.73,-326.81 456.15,-329.73 445.52,-332.41"/>
<polygon fill="midnightblue" stroke="midnightblue" points="479.62,-327.42 488.46,-321.58 477.91,-320.63 479.62,-327.42"/>
</g>
<!-- Node7 -->
<g id="node7" class="node">
<title>Node7</title>
<g id="a_node7"><a xlink:href="os_8c.html#aafec7046aa50c914df86d0d22d4fc1d1" target="_top" xlink:title=" ">
<polygon fill="none" stroke="black" points="0,-285.5 0,-304.5 83,-304.5 83,-285.5 0,-285.5"/>
<text text-anchor="middle" x="41.5" y="-292.5" font-family="Helvetica,sans-Serif" font-size="10.00">MODULE_DEF</text>
</a>
</g>
</g>
<!-- Node6&#45;&gt;Node7 -->
<g id="edge7" class="edge">
<title>Node6&#45;&gt;Node7</title>
<path fill="none" stroke="midnightblue" d="M373.1,-287.04C332.11,-289.5 259.36,-293.51 197,-295 158.39,-295.93 114.33,-295.81 83.17,-295.53"/>
<polygon fill="midnightblue" stroke="midnightblue" points="373.53,-290.52 383.3,-286.42 373.1,-283.53 373.53,-290.52"/>
</g>
<!-- Node9 -->
<g id="node9" class="node">
<title>Node9</title>
<g id="a_node9"><a xlink:href="spinlock_8c.html#ad4be0d674a7ca4dc90c2dbf8b34562cc" target="_top" xlink:title="check current cpu has the lock">
<polygon fill="none" stroke="black" points="371,-152.5 371,-171.5 442,-171.5 442,-152.5 371,-152.5"/>
<text text-anchor="middle" x="406.5" y="-159.5" font-family="Helvetica,sans-Serif" font-size="10.00">spin_holding</text>
</a>
</g>
</g>
<!-- Node8&#45;&gt;Node9 -->
<g id="edge9" class="edge">
<title>Node8&#45;&gt;Node9</title>
<path fill="none" stroke="midnightblue" d="M495.92,-222.54C473.59,-207.25 440.15,-184.36 421.44,-171.55"/>
<polygon fill="midnightblue" stroke="midnightblue" points="494.21,-225.61 504.44,-228.37 498.17,-219.84 494.21,-225.61"/>
</g>
<!-- Node18 -->
<g id="node18" class="node">
<title>Node18</title>
<g id="a_node18"><a xlink:href="spinlock_8c.html#ab6f3c37ec37006951feccc3c05387cce" target="_top" xlink:title="acquire spinlock to current cpu">
<polygon fill="none" stroke="black" points="252,-228.5 252,-247.5 310,-247.5 310,-228.5 252,-228.5"/>
<text text-anchor="middle" x="281" y="-235.5" font-family="Helvetica,sans-Serif" font-size="10.00">spin_lock</text>
</a>
</g>
</g>
<!-- Node8&#45;&gt;Node18 -->
<g id="edge35" class="edge">
<title>Node8&#45;&gt;Node18</title>
<path fill="none" stroke="midnightblue" d="M473.72,-238C425.57,-238 350.51,-238 310.07,-238"/>
<polygon fill="midnightblue" stroke="midnightblue" points="473.86,-241.5 483.86,-238 473.86,-234.5 473.86,-241.5"/>
</g>
<!-- Node10 -->
<g id="node10" class="node">
<title>Node10</title>
<g id="a_node10"><a xlink:href="kmt_8c.html#af9c485ce0d89d6624e6e80e31d8ed207" target="_top" xlink:title="handler: save context to current task">
<polygon fill="none" stroke="black" points="233,-38.5 233,-57.5 329,-57.5 329,-38.5 233,-38.5"/>
<text text-anchor="middle" x="281" y="-45.5" font-family="Helvetica,sans-Serif" font-size="10.00">kmt_context_save</text>
</a>
</g>
</g>
<!-- Node9&#45;&gt;Node10 -->
<g id="edge10" class="edge">
<title>Node9&#45;&gt;Node10</title>
<path fill="none" stroke="midnightblue" d="M394.78,-143.65C381.65,-122.59 357.61,-88.23 329,-67 324.05,-63.33 318.3,-60.24 312.54,-57.7"/>
<polygon fill="midnightblue" stroke="midnightblue" points="391.84,-145.55 400.02,-152.29 397.83,-141.92 391.84,-145.55"/>
</g>
<!-- Node13 -->
<g id="node13" class="node">
<title>Node13</title>
<g id="a_node13"><a xlink:href="kmt_8c.html#a5ddb8743298012e84cf9cb5faf22212b" target="_top" xlink:title="create thread">
<polygon fill="none" stroke="black" points="125.5,-114.5 125.5,-133.5 190.5,-133.5 190.5,-114.5 125.5,-114.5"/>
<text text-anchor="middle" x="158" y="-121.5" font-family="Helvetica,sans-Serif" font-size="10.00">kmt_create</text>
</a>
</g>
</g>
<!-- Node9&#45;&gt;Node13 -->
<g id="edge13" class="edge">
<title>Node9&#45;&gt;Node13</title>
<path fill="none" stroke="midnightblue" d="M361.24,-149.95C350.73,-147.39 339.51,-144.88 329,-143 281.06,-134.41 224.78,-129.03 190.51,-126.27"/>
<polygon fill="midnightblue" stroke="midnightblue" points="360.5,-153.38 371.05,-152.42 362.21,-146.59 360.5,-153.38"/>
</g>
<!-- Node14 -->
<g id="node14" class="node">
<title>Node14</title>
<g id="a_node14"><a xlink:href="kmt_8c.html#ad3fbc643b7b6092120c5152b4c890354" target="_top" xlink:title="handler: handle program errors">
<polygon fill="none" stroke="black" points="252,-0.5 252,-19.5 310,-19.5 310,-0.5 252,-0.5"/>
<text text-anchor="middle" x="281" y="-7.5" font-family="Helvetica,sans-Serif" font-size="10.00">kmt_error</text>
</a>
</g>
</g>
<!-- Node9&#45;&gt;Node14 -->
<g id="edge15" class="edge">
<title>Node9&#45;&gt;Node14</title>
<path fill="none" stroke="midnightblue" d="M398.99,-142.54C388.52,-113.97 365.34,-60.65 329,-29 323.56,-24.26 316.78,-20.61 310.08,-17.83"/>
<polygon fill="midnightblue" stroke="midnightblue" points="395.76,-143.91 402.39,-152.18 402.37,-141.59 395.76,-143.91"/>
</g>
<!-- Node15 -->
<g id="node15" class="node">
<title>Node15</title>
<g id="a_node15"><a xlink:href="kmt_8c.html#ad4d70b4093829da1c0b0631abdff7747" target="_top" xlink:title="handler: schedule next task to run Notice: this should be the only handler which returns real Context">
<polygon fill="none" stroke="black" points="242.5,-76.5 242.5,-95.5 319.5,-95.5 319.5,-76.5 242.5,-76.5"/>
<text text-anchor="middle" x="281" y="-83.5" font-family="Helvetica,sans-Serif" font-size="10.00">kmt_schedule</text>
</a>
</g>
</g>
<!-- Node9&#45;&gt;Node15 -->
<g id="edge17" class="edge">
<title>Node9&#45;&gt;Node15</title>
<path fill="none" stroke="midnightblue" d="M384.4,-146.61C369.29,-135.85 348.29,-121.42 329,-110 320.33,-104.87 310.43,-99.71 301.96,-95.5"/>
<polygon fill="midnightblue" stroke="midnightblue" points="382.39,-149.48 392.56,-152.47 386.48,-143.79 382.39,-149.48"/>
</g>
<!-- Node16 -->
<g id="node16" class="node">
<title>Node16</title>
<g id="a_node16"><a xlink:href="kmt_8c.html#a47d8887c87041abd5ea3148232b65c93" target="_top" xlink:title="tear down a thread">
<polygon fill="none" stroke="black" points="119,-152.5 119,-171.5 197,-171.5 197,-152.5 119,-152.5"/>
<text text-anchor="middle" x="158" y="-159.5" font-family="Helvetica,sans-Serif" font-size="10.00">kmt_teardown</text>
</a>
</g>
</g>
<!-- Node9&#45;&gt;Node16 -->
<g id="edge19" class="edge">
<title>Node9&#45;&gt;Node16</title>
<path fill="none" stroke="midnightblue" d="M364.8,-174.06C353.33,-176.92 340.77,-179.56 329,-181 286.65,-186.18 275.33,-186.35 233,-181 218.26,-179.14 202.26,-175.27 188.91,-171.5"/>
<polygon fill="midnightblue" stroke="midnightblue" points="365.77,-177.42 374.56,-171.51 364,-170.65 365.77,-177.42"/>
</g>
<!-- Node17 -->
<g id="node17" class="node">
<title>Node17</title>
<g id="a_node17"><a xlink:href="os_8c.html#a2be1c9facb49d4439f41b1537d0f3ef8" target="_top" xlink:title="System trap entry.">
<polygon fill="none" stroke="black" points="133.5,-266.5 133.5,-285.5 182.5,-285.5 182.5,-266.5 133.5,-266.5"/>
<text text-anchor="middle" x="158" y="-273.5" font-family="Helvetica,sans-Serif" font-size="10.00">os_trap</text>
</a>
</g>
</g>
<!-- Node9&#45;&gt;Node17 -->
<g id="edge21" class="edge">
<title>Node9&#45;&gt;Node17</title>
<path fill="none" stroke="midnightblue" d="M396.26,-180.77C384.17,-203.11 360.71,-239.59 329,-257 282.14,-282.73 217.13,-281.67 182.66,-278.77"/>
<polygon fill="midnightblue" stroke="midnightblue" points="399.51,-182.1 401.01,-171.61 393.3,-178.88 399.51,-182.1"/>
</g>
<!-- Node9&#45;&gt;Node18 -->
<g id="edge23" class="edge">
<title>Node9&#45;&gt;Node18</title>
<path fill="none" stroke="midnightblue" d="M384.4,-177.39C369.29,-188.15 348.29,-202.58 329,-214 320.33,-219.13 310.43,-224.29 301.96,-228.5"/>
<polygon fill="midnightblue" stroke="midnightblue" points="386.48,-180.21 392.56,-171.53 382.39,-174.52 386.48,-180.21"/>
</g>
<!-- Node20 -->
<g id="node20" class="node">
<title>Node20</title>
<g id="a_node20"><a xlink:href="spinlock_8c.html#acdf118d615a4bc4064e991add9a80995" target="_top" xlink:title="release spinlock from current cpu">
<polygon fill="none" stroke="black" points="247,-152.5 247,-171.5 315,-171.5 315,-152.5 247,-152.5"/>
<text text-anchor="middle" x="281" y="-159.5" font-family="Helvetica,sans-Serif" font-size="10.00">spin_unlock</text>
</a>
</g>
</g>
<!-- Node9&#45;&gt;Node20 -->
<g id="edge29" class="edge">
<title>Node9&#45;&gt;Node20</title>
<path fill="none" stroke="midnightblue" d="M360.65,-162C345.63,-162 329.16,-162 315.19,-162"/>
<polygon fill="midnightblue" stroke="midnightblue" points="360.77,-165.5 370.77,-162 360.77,-158.5 360.77,-165.5"/>
</g>
<!-- Node11 -->
<g id="node11" class="node">
<title>Node11</title>
<g id="a_node11"><a xlink:href="kmt_8c.html#a0c68a294cecc4be7cb4b495f15b883a0" target="_top" xlink:title="initialize kmt module">
<polygon fill="none" stroke="black" points="132.5,-38.5 132.5,-57.5 183.5,-57.5 183.5,-38.5 132.5,-38.5"/>
<text text-anchor="middle" x="158" y="-45.5" font-family="Helvetica,sans-Serif" font-size="10.00">kmt_init</text>
</a>
</g>
</g>
<!-- Node10&#45;&gt;Node11 -->
<g id="edge11" class="edge">
<title>Node10&#45;&gt;Node11</title>
<path fill="none" stroke="midnightblue" d="M222.87,-48C209.02,-48 194.94,-48 183.53,-48"/>
<polygon fill="midnightblue" stroke="midnightblue" points="222.87,-51.5 232.87,-48 222.87,-44.5 222.87,-51.5"/>
</g>
<!-- Node12 -->
<g id="node12" class="node">
<title>Node12</title>
<g id="a_node12"><a xlink:href="kmt_8c.html#af360ef0d98ca30e481cc58ea3695fd58" target="_top" xlink:title=" ">
<polygon fill="none" stroke="black" points="0,-114.5 0,-133.5 83,-133.5 83,-114.5 0,-114.5"/>
<text text-anchor="middle" x="41.5" y="-121.5" font-family="Helvetica,sans-Serif" font-size="10.00">MODULE_DEF</text>
</a>
</g>
</g>
<!-- Node11&#45;&gt;Node12 -->
<g id="edge12" class="edge">
<title>Node11&#45;&gt;Node12</title>
<path fill="none" stroke="midnightblue" d="M132.85,-63.08C128.23,-66.01 123.45,-69.08 119,-72 96.84,-86.52 71.46,-103.93 56.23,-114.47"/>
<polygon fill="midnightblue" stroke="midnightblue" points="134.8,-65.99 141.39,-57.69 131.07,-60.07 134.8,-65.99"/>
</g>
<!-- Node13&#45;&gt;Node12 -->
<g id="edge14" class="edge">
<title>Node13&#45;&gt;Node12</title>
<path fill="none" stroke="midnightblue" d="M115.21,-124C104.71,-124 93.45,-124 83.01,-124"/>
<polygon fill="midnightblue" stroke="midnightblue" points="115.41,-127.5 125.41,-124 115.41,-120.5 115.41,-127.5"/>
</g>
<!-- Node14&#45;&gt;Node11 -->
<g id="edge16" class="edge">
<title>Node14&#45;&gt;Node11</title>
<path fill="none" stroke="midnightblue" d="M242.31,-21.84C223.19,-27.84 200.5,-34.97 183.63,-40.26"/>
<polygon fill="midnightblue" stroke="midnightblue" points="243.44,-25.15 251.94,-18.81 241.35,-18.47 243.44,-25.15"/>
</g>
<!-- Node15&#45;&gt;Node11 -->
<g id="edge18" class="edge">
<title>Node15&#45;&gt;Node11</title>
<path fill="none" stroke="midnightblue" d="M239.82,-73.38C221.31,-67.57 199.94,-60.86 183.82,-55.8"/>
<polygon fill="midnightblue" stroke="midnightblue" points="238.88,-76.75 249.47,-76.41 240.97,-70.08 238.88,-76.75"/>
</g>
<!-- Node16&#45;&gt;Node12 -->
<g id="edge20" class="edge">
<title>Node16&#45;&gt;Node12</title>
<path fill="none" stroke="midnightblue" d="M118.35,-149.17C102.99,-144.08 85.62,-138.31 71.38,-133.59"/>
<polygon fill="midnightblue" stroke="midnightblue" points="117.51,-152.58 128.11,-152.41 119.72,-145.94 117.51,-152.58"/>
</g>
<!-- Node17&#45;&gt;Node7 -->
<g id="edge22" class="edge">
<title>Node17&#45;&gt;Node7</title>
<path fill="none" stroke="midnightblue" d="M123.26,-281.6C110.74,-283.68 96.42,-286.05 83.34,-288.22"/>
<polygon fill="midnightblue" stroke="midnightblue" points="123.98,-285.03 133.28,-279.94 122.84,-278.12 123.98,-285.03"/>
</g>
<!-- Node18&#45;&gt;Node12 -->
<g id="edge27" class="edge">
<title>Node18&#45;&gt;Node12</title>
<path fill="none" stroke="midnightblue" d="M241.8,-241.34C207.53,-242.59 156.95,-239.98 119,-219 82.49,-198.81 56.87,-153.44 47,-133.6"/>
<polygon fill="midnightblue" stroke="midnightblue" points="242.06,-244.83 251.88,-240.85 241.72,-237.84 242.06,-244.83"/>
</g>
<!-- Node18&#45;&gt;Node13 -->
<g id="edge24" class="edge">
<title>Node18&#45;&gt;Node13</title>
<path fill="none" stroke="midnightblue" d="M265.32,-220.47C243.67,-194.73 204.9,-149.11 197,-143 192.45,-139.48 187.14,-136.34 181.97,-133.68"/>
<polygon fill="midnightblue" stroke="midnightblue" points="262.82,-222.94 271.93,-228.34 268.18,-218.44 262.82,-222.94"/>
</g>
<!-- Node18&#45;&gt;Node16 -->
<g id="edge25" class="edge">
<title>Node18&#45;&gt;Node16</title>
<path fill="none" stroke="midnightblue" d="M249.12,-223.75C243.6,-220.78 238.01,-217.48 233,-214 215.17,-201.62 214.88,-193.31 197,-181 192.02,-177.57 186.33,-174.39 180.9,-171.65"/>
<polygon fill="midnightblue" stroke="midnightblue" points="247.75,-226.97 258.25,-228.41 250.94,-220.74 247.75,-226.97"/>
</g>
<!-- Node18&#45;&gt;Node17 -->
<g id="edge28" class="edge">
<title>Node18&#45;&gt;Node17</title>
<path fill="none" stroke="midnightblue" d="M242.17,-249.88C222.77,-255.97 199.74,-263.21 182.83,-268.52"/>
<polygon fill="midnightblue" stroke="midnightblue" points="243.44,-253.15 251.94,-246.81 241.35,-246.47 243.44,-253.15"/>
</g>
<!-- Node19 -->
<g id="node19" class="node">
<title>Node19</title>
<g id="a_node19"><a xlink:href="kernel_8h.html#a7ef2d722f9c7f8acc1801144a5188825" target="_top" xlink:title=" ">
<polygon fill="none" stroke="black" points="128.5,-190.5 128.5,-209.5 187.5,-209.5 187.5,-190.5 128.5,-190.5"/>
<text text-anchor="middle" x="158" y="-197.5" font-family="Helvetica,sans-Serif" font-size="10.00">MODULE</text>
</a>
</g>
</g>
<!-- Node18&#45;&gt;Node19 -->
<g id="edge26" class="edge">
<title>Node18&#45;&gt;Node19</title>
<path fill="none" stroke="midnightblue" d="M242,-226.07C224.46,-220.56 203.98,-214.13 187.75,-209.03"/>
<polygon fill="midnightblue" stroke="midnightblue" points="241.35,-229.53 251.94,-229.19 243.44,-222.85 241.35,-229.53"/>
</g>
<!-- Node20&#45;&gt;Node12 -->
<g id="edge33" class="edge">
<title>Node20&#45;&gt;Node12</title>
<path fill="none" stroke="midnightblue" d="M262.56,-145.29C246.84,-131.46 222.36,-112.87 197,-105 152.99,-91.34 99.07,-104.31 67.96,-114.49"/>
<polygon fill="midnightblue" stroke="midnightblue" points="260.59,-148.23 270.34,-152.38 265.31,-143.06 260.59,-148.23"/>
</g>
<!-- Node20&#45;&gt;Node13 -->
<g id="edge30" class="edge">
<title>Node20&#45;&gt;Node13</title>
<path fill="none" stroke="midnightblue" d="M239.62,-149.32C223.27,-144.19 204.71,-138.36 189.52,-133.59"/>
<polygon fill="midnightblue" stroke="midnightblue" points="238.88,-152.75 249.47,-152.41 240.97,-146.08 238.88,-152.75"/>
</g>
<!-- Node20&#45;&gt;Node16 -->
<g id="edge31" class="edge">
<title>Node20&#45;&gt;Node16</title>
<path fill="none" stroke="midnightblue" d="M236.84,-162C223.89,-162 209.77,-162 197.16,-162"/>
<polygon fill="midnightblue" stroke="midnightblue" points="236.94,-165.5 246.94,-162 236.94,-158.5 236.94,-165.5"/>
</g>
<!-- Node20&#45;&gt;Node17 -->
<g id="edge34" class="edge">
<title>Node20&#45;&gt;Node17</title>
<path fill="none" stroke="midnightblue" d="M262.13,-178.83C236.44,-203.04 189.9,-246.89 169.29,-266.31"/>
<polygon fill="midnightblue" stroke="midnightblue" points="264.81,-181.12 269.68,-171.72 260.01,-176.03 264.81,-181.12"/>
</g>
<!-- Node20&#45;&gt;Node19 -->
<g id="edge32" class="edge">
<title>Node20&#45;&gt;Node19</title>
<path fill="none" stroke="midnightblue" d="M239.79,-174.63C222.8,-179.96 203.39,-186.06 187.86,-190.94"/>
<polygon fill="midnightblue" stroke="midnightblue" points="240.97,-177.92 249.47,-171.59 238.88,-171.25 240.97,-177.92"/>
</g>
</g>
</svg>
