<?xml version="1.0" encoding="UTF-8" standalone="no"?>
<!DOCTYPE svg PUBLIC "-//W3C//DTD SVG 1.1//EN"
 "http://www.w3.org/Graphics/SVG/1.1/DTD/svg11.dtd">
<!-- Generated by graphviz version 2.50.0 (20220203.2022)
 -->
<!-- Title: cli Pages: 1 -->
<svg width="318pt" height="85pt"
 viewBox="0.00 0.00 318.00 85.00" xmlns="http://www.w3.org/2000/svg" xmlns:xlink="http://www.w3.org/1999/xlink">
<g id="graph0" class="graph" transform="scale(1 1) rotate(0) translate(4 81)">
<title>cli</title>
<!-- Node1 -->
<g id="node1" class="node">
<title>Node1</title>
<g id="a_node1"><a xlink:title=" ">
<polygon fill="#bfbfbf" stroke="black" points="281,-19.5 281,-38.5 310,-38.5 310,-19.5 281,-19.5"/>
<text text-anchor="middle" x="295.5" y="-26.5" font-family="Helvetica,sans-Serif" font-size="10.00">cli</text>
</a>
</g>
</g>
<!-- Node2 -->
<g id="node2" class="node">
<title>Node2</title>
<g id="a_node2"><a xlink:href="trm_8c.html#a483cb97188e557c3c68d3a1572c2cc92" target="_top" xlink:title=" ">
<polygon fill="none" stroke="black" points="213,-38.5 213,-57.5 245,-57.5 245,-38.5 213,-38.5"/>
<text text-anchor="middle" x="229" y="-45.5" font-family="Helvetica,sans-Serif" font-size="10.00">halt</text>
</a>
</g>
</g>
<!-- Node1&#45;&gt;Node2 -->
<g id="edge1" class="edge">
<title>Node1&#45;&gt;Node2</title>
<path fill="none" stroke="midnightblue" d="M271.18,-35.87C262.46,-38.44 252.79,-41.29 245.01,-43.58"/>
<polygon fill="midnightblue" stroke="midnightblue" points="272.22,-39.21 280.82,-33.03 270.24,-32.5 272.22,-39.21"/>
</g>
<!-- Node7 -->
<g id="node7" class="node">
<title>Node7</title>
<g id="a_node7"><a xlink:href="cte_8c.html#a4a139958742786c5085172be1f69bfd0" target="_top" xlink:title=" ">
<polygon fill="none" stroke="black" points="213,-0.5 213,-19.5 245,-19.5 245,-0.5 213,-0.5"/>
<text text-anchor="middle" x="229" y="-7.5" font-family="Helvetica,sans-Serif" font-size="10.00">iset</text>
</a>
</g>
</g>
<!-- Node1&#45;&gt;Node7 -->
<g id="edge6" class="edge">
<title>Node1&#45;&gt;Node7</title>
<path fill="none" stroke="midnightblue" d="M271.18,-22.13C262.46,-19.56 252.79,-16.71 245.01,-14.42"/>
<polygon fill="midnightblue" stroke="midnightblue" points="270.24,-25.5 280.82,-24.97 272.22,-18.79 270.24,-25.5"/>
</g>
<!-- Node3 -->
<g id="node3" class="node">
<title>Node3</title>
<g id="a_node3"><a xlink:href="trm_8c.html#a12a49ff4d3a586b2315e292c5da3df7e" target="_top" xlink:title=" ">
<polygon fill="none" stroke="black" points="119,-57.5 119,-76.5 177,-76.5 177,-57.5 119,-57.5"/>
<text text-anchor="middle" x="148" y="-64.5" font-family="Helvetica,sans-Serif" font-size="10.00">call_main</text>
</a>
</g>
</g>
<!-- Node2&#45;&gt;Node3 -->
<g id="edge2" class="edge">
<title>Node2&#45;&gt;Node3</title>
<path fill="none" stroke="midnightblue" d="M202.77,-54.07C194.66,-56.02 185.62,-58.19 177.3,-60.19"/>
<polygon fill="midnightblue" stroke="midnightblue" points="203.86,-57.4 212.77,-51.66 202.23,-50.6 203.86,-57.4"/>
</g>
<!-- Node5 -->
<g id="node5" class="node">
<title>Node5</title>
<g id="a_node5"><a xlink:href="os_8c.html#a5f9cb32664e017ca15c49ec66e5342e4" target="_top" xlink:title=" ">
<polygon fill="none" stroke="black" points="125,-19.5 125,-38.5 171,-38.5 171,-19.5 125,-19.5"/>
<text text-anchor="middle" x="148" y="-26.5" font-family="Helvetica,sans-Serif" font-size="10.00">os_run</text>
</a>
</g>
</g>
<!-- Node2&#45;&gt;Node5 -->
<g id="edge4" class="edge">
<title>Node2&#45;&gt;Node5</title>
<path fill="none" stroke="midnightblue" d="M202.8,-41.94C192.6,-39.49 180.92,-36.68 171.06,-34.31"/>
<polygon fill="midnightblue" stroke="midnightblue" points="202.23,-45.4 212.77,-44.34 203.86,-38.6 202.23,-45.4"/>
</g>
<!-- Node4 -->
<g id="node4" class="node">
<title>Node4</title>
<g id="a_node4"><a xlink:href="trm_8c.html#a54a85aeee6f6a8ef875d4cca663f9fd8" target="_top" xlink:title=" ">
<polygon fill="none" stroke="black" points="15.5,-57.5 15.5,-76.5 67.5,-76.5 67.5,-57.5 15.5,-57.5"/>
<text text-anchor="middle" x="41.5" y="-64.5" font-family="Helvetica,sans-Serif" font-size="10.00">_start_c</text>
</a>
</g>
</g>
<!-- Node3&#45;&gt;Node4 -->
<g id="edge3" class="edge">
<title>Node3&#45;&gt;Node4</title>
<path fill="none" stroke="midnightblue" d="M108.86,-67C95.16,-67 80.05,-67 67.72,-67"/>
<polygon fill="midnightblue" stroke="midnightblue" points="109,-70.5 119,-67 109,-63.5 109,-70.5"/>
</g>
<!-- Node6 -->
<g id="node6" class="node">
<title>Node6</title>
<g id="a_node6"><a xlink:href="os_8c.html#aafec7046aa50c914df86d0d22d4fc1d1" target="_top" xlink:title=" ">
<polygon fill="none" stroke="black" points="0,-19.5 0,-38.5 83,-38.5 83,-19.5 0,-19.5"/>
<text text-anchor="middle" x="41.5" y="-26.5" font-family="Helvetica,sans-Serif" font-size="10.00">MODULE_DEF</text>
</a>
</g>
</g>
<!-- Node5&#45;&gt;Node6 -->
<g id="edge5" class="edge">
<title>Node5&#45;&gt;Node6</title>
<path fill="none" stroke="midnightblue" d="M114.59,-29C104.66,-29 93.6,-29 83.19,-29"/>
<polygon fill="midnightblue" stroke="midnightblue" points="114.84,-32.5 124.84,-29 114.84,-25.5 114.84,-32.5"/>
</g>
</g>
</svg>
