<?xml version="1.0" encoding="UTF-8" standalone="no"?>
<!DOCTYPE svg PUBLIC "-//W3C//DTD SVG 1.1//EN"
 "http://www.w3.org/Graphics/SVG/1.1/DTD/svg11.dtd">
<!-- Generated by graphviz version 3.0.0 (20220413.0106)
 -->
<!-- Title: sti Pages: 1 -->
<svg width="696pt" height="328pt"
 viewBox="0.00 0.00 696.00 328.24" xmlns="http://www.w3.org/2000/svg" xmlns:xlink="http://www.w3.org/1999/xlink">
<g id="graph0" class="graph" transform="scale(1 1) rotate(0) translate(4 324.24)">
<title>sti</title>
<!-- Node1 -->
<g id="node1" class="node">
<title>Node1</title>
<g id="a_node1"><a xlink:title=" ">
<polygon fill="#bfbfbf" stroke="black" points="659,-152.5 659,-171.5 688,-171.5 688,-152.5 659,-152.5"/>
<text text-anchor="middle" x="673.5" y="-159.5" font-family="Helvetica,sans-Serif" font-size="10.00">sti</text>
</a>
</g>
</g>
<!-- Node2 -->
<g id="node2" class="node">
<title>Node2</title>
<g id="a_node2"><a xlink:href="cte_8c.html#a4a139958742786c5085172be1f69bfd0" target="_top" xlink:title=" ">
<polygon fill="none" stroke="black" points="591,-152.5 591,-171.5 623,-171.5 623,-152.5 591,-152.5"/>
<text text-anchor="middle" x="607" y="-159.5" font-family="Helvetica,sans-Serif" font-size="10.00">iset</text>
</a>
</g>
</g>
<!-- Node1&#45;&gt;Node2 -->
<g id="edge1" class="edge">
<title>Node1&#45;&gt;Node2</title>
<path fill="none" stroke="midnightblue" d="M648.61,-162C640.04,-162 630.62,-162 623.01,-162"/>
<polygon fill="midnightblue" stroke="midnightblue" points="648.82,-165.5 658.82,-162 648.82,-158.5 648.82,-165.5"/>
</g>
<!-- Node3 -->
<g id="node3" class="node">
<title>Node3</title>
<g id="a_node3"><a xlink:href="pmm_8c.html#a20ccb461126d548299c6c21f157e6668" target="_top" xlink:title=" ">
<polygon fill="none" stroke="black" points="486.5,-190.5 486.5,-209.5 552.5,-209.5 552.5,-190.5 486.5,-190.5"/>
<text text-anchor="middle" x="519.5" y="-197.5" font-family="Helvetica,sans-Serif" font-size="10.00">kalloc_safe</text>
</a>
</g>
</g>
<!-- Node2&#45;&gt;Node3 -->
<g id="edge2" class="edge">
<title>Node2&#45;&gt;Node3</title>
<path fill="none" stroke="midnightblue" d="M581.4,-172.94C568.98,-178.46 554.05,-185.09 542.08,-190.41"/>
<polygon fill="midnightblue" stroke="midnightblue" points="583,-176.05 590.71,-168.79 580.15,-169.66 583,-176.05"/>
</g>
<!-- Node5 -->
<g id="node5" class="node">
<title>Node5</title>
<g id="a_node5"><a xlink:href="pmm_8c.html#af2f46f4bce6a599542ce4d462aec9e2f" target="_top" xlink:title=" ">
<polygon fill="none" stroke="black" points="488.5,-228.5 488.5,-247.5 550.5,-247.5 550.5,-228.5 488.5,-228.5"/>
<text text-anchor="middle" x="519.5" y="-235.5" font-family="Helvetica,sans-Serif" font-size="10.00">kfree_safe</text>
</a>
</g>
</g>
<!-- Node2&#45;&gt;Node5 -->
<g id="edge4" class="edge">
<title>Node2&#45;&gt;Node5</title>
<path fill="none" stroke="midnightblue" d="M592.71,-179.79C583.12,-191.83 569.38,-207.56 555,-219 550.61,-222.49 545.5,-225.7 540.57,-228.44"/>
<polygon fill="midnightblue" stroke="midnightblue" points="595.54,-181.84 598.9,-171.79 590.01,-177.55 595.54,-181.84"/>
</g>
<!-- Node6 -->
<g id="node6" class="node">
<title>Node6</title>
<g id="a_node6"><a xlink:href="os_8c.html#a5f9cb32664e017ca15c49ec66e5342e4" target="_top" xlink:title="cpu start entry">
<polygon fill="none" stroke="black" points="383.5,-162.5 383.5,-181.5 429.5,-181.5 429.5,-162.5 383.5,-162.5"/>
<text text-anchor="middle" x="406.5" y="-169.5" font-family="Helvetica,sans-Serif" font-size="10.00">os_run</text>
</a>
</g>
</g>
<!-- Node2&#45;&gt;Node6 -->
<g id="edge6" class="edge">
<title>Node2&#45;&gt;Node6</title>
<path fill="none" stroke="midnightblue" d="M580.7,-163.27C541.5,-165.25 466.75,-169.02 429.6,-170.89"/>
<polygon fill="midnightblue" stroke="midnightblue" points="580.94,-166.77 590.75,-162.77 580.59,-159.78 580.94,-166.77"/>
</g>
<!-- Node8 -->
<g id="node8" class="node">
<title>Node8</title>
<g id="a_node8"><a xlink:href="spinlock_8c.html#afc9565dc7a5ddf77e1fa76f5d91caf78" target="_top" xlink:title="interrupt able">
<polygon fill="none" stroke="black" points="487,-76.5 487,-95.5 552,-95.5 552,-76.5 487,-76.5"/>
<text text-anchor="middle" x="519.5" y="-83.5" font-family="Helvetica,sans-Serif" font-size="10.00">spin_popcli</text>
</a>
</g>
</g>
<!-- Node2&#45;&gt;Node8 -->
<g id="edge8" class="edge">
<title>Node2&#45;&gt;Node8</title>
<path fill="none" stroke="midnightblue" d="M592.71,-144.21C583.12,-132.17 569.38,-116.44 555,-105 550.61,-101.51 545.5,-98.3 540.57,-95.56"/>
<polygon fill="midnightblue" stroke="midnightblue" points="590.01,-146.45 598.9,-152.21 595.54,-142.16 590.01,-146.45"/>
</g>
<!-- Node21 -->
<g id="node21" class="node">
<title>Node21</title>
<g id="a_node21"><a xlink:href="spinlock_8c.html#ab213874cda54fdbbeb1bec1e5fa90b28" target="_top" xlink:title="interrupt disable">
<polygon fill="none" stroke="black" points="484,-114.5 484,-133.5 555,-133.5 555,-114.5 484,-114.5"/>
<text text-anchor="middle" x="519.5" y="-121.5" font-family="Helvetica,sans-Serif" font-size="10.00">spin_pushcli</text>
</a>
</g>
</g>
<!-- Node2&#45;&gt;Node21 -->
<g id="edge36" class="edge">
<title>Node2&#45;&gt;Node21</title>
<path fill="none" stroke="midnightblue" d="M581.4,-151.06C568.98,-145.54 554.05,-138.91 542.08,-133.59"/>
<polygon fill="midnightblue" stroke="midnightblue" points="580.15,-154.34 590.71,-155.21 583,-147.95 580.15,-154.34"/>
</g>
<!-- Node4 -->
<g id="node4" class="node">
<title>Node4</title>
<g id="a_node4"><a xlink:href="pmm_8c.html#a7ada9deb0ae8705f2cc158b0283aaeb3" target="_top" xlink:title=" ">
<polygon fill="none" stroke="black" points="365,-209.5 365,-228.5 448,-228.5 448,-209.5 365,-209.5"/>
<text text-anchor="middle" x="406.5" y="-216.5" font-family="Helvetica,sans-Serif" font-size="10.00">MODULE_DEF</text>
</a>
</g>
</g>
<!-- Node3&#45;&gt;Node4 -->
<g id="edge3" class="edge">
<title>Node3&#45;&gt;Node4</title>
<path fill="none" stroke="midnightblue" d="M476.29,-207.23C467.09,-208.8 457.38,-210.46 448.24,-212.03"/>
<polygon fill="midnightblue" stroke="midnightblue" points="477.13,-210.63 486.39,-205.5 475.95,-203.73 477.13,-210.63"/>
</g>
<!-- Node5&#45;&gt;Node4 -->
<g id="edge5" class="edge">
<title>Node5&#45;&gt;Node4</title>
<path fill="none" stroke="midnightblue" d="M478.56,-231.16C468.75,-229.48 458.25,-227.69 448.4,-226"/>
<polygon fill="midnightblue" stroke="midnightblue" points="478.01,-234.62 488.46,-232.86 479.2,-227.72 478.01,-234.62"/>
</g>
<!-- Node7 -->
<g id="node7" class="node">
<title>Node7</title>
<g id="a_node7"><a xlink:href="os_8c.html#aafec7046aa50c914df86d0d22d4fc1d1" target="_top" xlink:title=" ">
<polygon fill="none" stroke="black" points="0,-247.5 0,-266.5 83,-266.5 83,-247.5 0,-247.5"/>
<text text-anchor="middle" x="41.5" y="-254.5" font-family="Helvetica,sans-Serif" font-size="10.00">MODULE_DEF</text>
</a>
</g>
</g>
<!-- Node6&#45;&gt;Node7 -->
<g id="edge7" class="edge">
<title>Node6&#45;&gt;Node7</title>
<path fill="none" stroke="midnightblue" d="M378.37,-187.33C373.45,-191 368.71,-195.26 365,-200 337.17,-235.56 366.16,-269.35 329,-295 242.91,-354.44 107.01,-291.85 59.54,-266.58"/>
<polygon fill="midnightblue" stroke="midnightblue" points="380.35,-190.22 386.66,-181.71 376.42,-184.42 380.35,-190.22"/>
</g>
<!-- Node9 -->
<g id="node9" class="node">
<title>Node9</title>
<g id="a_node9"><a xlink:href="spinlock_8c.html#ad4be0d674a7ca4dc90c2dbf8b34562cc" target="_top" xlink:title="check current cpu has the lock">
<polygon fill="none" stroke="black" points="371,-114.5 371,-133.5 442,-133.5 442,-114.5 371,-114.5"/>
<text text-anchor="middle" x="406.5" y="-121.5" font-family="Helvetica,sans-Serif" font-size="10.00">spin_holding</text>
</a>
</g>
</g>
<!-- Node8&#45;&gt;Node9 -->
<g id="edge9" class="edge">
<title>Node8&#45;&gt;Node9</title>
<path fill="none" stroke="midnightblue" d="M480.61,-98.97C465.82,-104.03 449.17,-109.73 435.5,-114.41"/>
<polygon fill="midnightblue" stroke="midnightblue" points="482.16,-102.14 490.49,-95.59 479.9,-95.52 482.16,-102.14"/>
</g>
<!-- Node20 -->
<g id="node20" class="node">
<title>Node20</title>
<g id="a_node20"><a xlink:href="spinlock_8c.html#acdf118d615a4bc4064e991add9a80995" target="_top" xlink:title="release spinlock from current cpu">
<polygon fill="none" stroke="black" points="247,-38.5 247,-57.5 315,-57.5 315,-38.5 247,-38.5"/>
<text text-anchor="middle" x="281" y="-45.5" font-family="Helvetica,sans-Serif" font-size="10.00">spin_unlock</text>
</a>
</g>
</g>
<!-- Node8&#45;&gt;Node20 -->
<g id="edge35" class="edge">
<title>Node8&#45;&gt;Node20</title>
<path fill="none" stroke="midnightblue" d="M476.95,-77.37C467.46,-75.51 457.39,-73.61 448,-72 402.08,-64.13 348.72,-56.72 315.15,-52.27"/>
<polygon fill="midnightblue" stroke="midnightblue" points="476.49,-80.85 486.98,-79.37 477.86,-73.98 476.49,-80.85"/>
</g>
<!-- Node10 -->
<g id="node10" class="node">
<title>Node10</title>
<g id="a_node10"><a xlink:href="kmt_8c.html#af9c485ce0d89d6624e6e80e31d8ed207" target="_top" xlink:title="handler: save context to current task">
<polygon fill="none" stroke="black" points="233,-190.5 233,-209.5 329,-209.5 329,-190.5 233,-190.5"/>
<text text-anchor="middle" x="281" y="-197.5" font-family="Helvetica,sans-Serif" font-size="10.00">kmt_context_save</text>
</a>
</g>
</g>
<!-- Node9&#45;&gt;Node10 -->
<g id="edge10" class="edge">
<title>Node9&#45;&gt;Node10</title>
<path fill="none" stroke="midnightblue" d="M384.4,-139.39C369.29,-150.15 348.29,-164.58 329,-176 320.33,-181.13 310.43,-186.29 301.96,-190.5"/>
<polygon fill="midnightblue" stroke="midnightblue" points="386.48,-142.21 392.56,-133.53 382.39,-136.52 386.48,-142.21"/>
</g>
<!-- Node13 -->
<g id="node13" class="node">
<title>Node13</title>
<g id="a_node13"><a xlink:href="kmt_8c.html#a5ddb8743298012e84cf9cb5faf22212b" target="_top" xlink:title="create thread">
<polygon fill="none" stroke="black" points="125.5,-0.5 125.5,-19.5 190.5,-19.5 190.5,-0.5 125.5,-0.5"/>
<text text-anchor="middle" x="158" y="-7.5" font-family="Helvetica,sans-Serif" font-size="10.00">kmt_create</text>
</a>
</g>
</g>
<!-- Node9&#45;&gt;Node13 -->
<g id="edge13" class="edge">
<title>Node9&#45;&gt;Node13</title>
<path fill="none" stroke="midnightblue" d="M396.26,-105.23C384.17,-82.89 360.71,-46.41 329,-29 285.53,-5.13 226.43,-4.32 190.59,-6.64"/>
<polygon fill="midnightblue" stroke="midnightblue" points="393.3,-107.12 401.01,-114.39 399.51,-103.9 393.3,-107.12"/>
</g>
<!-- Node14 -->
<g id="node14" class="node">
<title>Node14</title>
<g id="a_node14"><a xlink:href="kmt_8c.html#ad3fbc643b7b6092120c5152b4c890354" target="_top" xlink:title="handler: handle program errors">
<polygon fill="none" stroke="black" points="252,-266.5 252,-285.5 310,-285.5 310,-266.5 252,-266.5"/>
<text text-anchor="middle" x="281" y="-273.5" font-family="Helvetica,sans-Serif" font-size="10.00">kmt_error</text>
</a>
</g>
</g>
<!-- Node9&#45;&gt;Node14 -->
<g id="edge15" class="edge">
<title>Node9&#45;&gt;Node14</title>
<path fill="none" stroke="midnightblue" d="M378.8,-139.51C373.7,-143.41 368.78,-147.94 365,-153 335.74,-192.19 362.7,-221.54 329,-257 323.91,-262.36 317.1,-266.25 310.24,-269.05"/>
<polygon fill="midnightblue" stroke="midnightblue" points="381.15,-142.14 387.38,-133.58 377.17,-136.38 381.15,-142.14"/>
</g>
<!-- Node15 -->
<g id="node15" class="node">
<title>Node15</title>
<g id="a_node15"><a xlink:href="kmt_8c.html#ad4d70b4093829da1c0b0631abdff7747" target="_top" xlink:title="handler: schedule next task to run Notice: this should be the only handler which returns real Context">
<polygon fill="none" stroke="black" points="242.5,-228.5 242.5,-247.5 319.5,-247.5 319.5,-228.5 242.5,-228.5"/>
<text text-anchor="middle" x="281" y="-235.5" font-family="Helvetica,sans-Serif" font-size="10.00">kmt_schedule</text>
</a>
</g>
</g>
<!-- Node9&#45;&gt;Node15 -->
<g id="edge17" class="edge">
<title>Node9&#45;&gt;Node15</title>
<path fill="none" stroke="midnightblue" d="M380.35,-139.32C374.9,-143.35 369.44,-147.98 365,-153 342.86,-178.02 353.95,-196.77 329,-219 324.79,-222.75 319.75,-225.81 314.56,-228.29"/>
<polygon fill="midnightblue" stroke="midnightblue" points="382.52,-142.08 388.78,-133.53 378.55,-136.31 382.52,-142.08"/>
</g>
<!-- Node16 -->
<g id="node16" class="node">
<title>Node16</title>
<g id="a_node16"><a xlink:href="kmt_8c.html#a47d8887c87041abd5ea3148232b65c93" target="_top" xlink:title="tear down a thread">
<polygon fill="none" stroke="black" points="119,-114.5 119,-133.5 197,-133.5 197,-114.5 119,-114.5"/>
<text text-anchor="middle" x="158" y="-121.5" font-family="Helvetica,sans-Serif" font-size="10.00">kmt_teardown</text>
</a>
</g>
</g>
<!-- Node9&#45;&gt;Node16 -->
<g id="edge19" class="edge">
<title>Node9&#45;&gt;Node16</title>
<path fill="none" stroke="midnightblue" d="M360.83,-124C314.12,-124 241.56,-124 197.35,-124"/>
<polygon fill="midnightblue" stroke="midnightblue" points="360.97,-127.5 370.97,-124 360.97,-120.5 360.97,-127.5"/>
</g>
<!-- Node17 -->
<g id="node17" class="node">
<title>Node17</title>
<g id="a_node17"><a xlink:href="os_8c.html#a2be1c9facb49d4439f41b1537d0f3ef8" target="_top" xlink:title="System trap entry.">
<polygon fill="none" stroke="black" points="133.5,-190.5 133.5,-209.5 182.5,-209.5 182.5,-190.5 133.5,-190.5"/>
<text text-anchor="middle" x="158" y="-197.5" font-family="Helvetica,sans-Serif" font-size="10.00">os_trap</text>
</a>
</g>
</g>
<!-- Node9&#45;&gt;Node17 -->
<g id="edge21" class="edge">
<title>Node9&#45;&gt;Node17</title>
<path fill="none" stroke="midnightblue" d="M364.7,-136.58C312.72,-152.6 224.6,-179.77 182.61,-192.72"/>
<polygon fill="midnightblue" stroke="midnightblue" points="365.76,-139.92 374.28,-133.63 363.69,-133.23 365.76,-139.92"/>
</g>
<!-- Node18 -->
<g id="node18" class="node">
<title>Node18</title>
<g id="a_node18"><a xlink:href="spinlock_8c.html#ab6f3c37ec37006951feccc3c05387cce" target="_top" xlink:title="acquire spinlock to current cpu">
<polygon fill="none" stroke="black" points="252,-76.5 252,-95.5 310,-95.5 310,-76.5 252,-76.5"/>
<text text-anchor="middle" x="281" y="-83.5" font-family="Helvetica,sans-Serif" font-size="10.00">spin_lock</text>
</a>
</g>
</g>
<!-- Node9&#45;&gt;Node18 -->
<g id="edge23" class="edge">
<title>Node9&#45;&gt;Node18</title>
<path fill="none" stroke="midnightblue" d="M364.73,-111.45C346.86,-105.96 326.33,-99.64 310.2,-94.68"/>
<polygon fill="midnightblue" stroke="midnightblue" points="363.75,-114.82 374.34,-114.41 365.81,-108.12 363.75,-114.82"/>
</g>
<!-- Node9&#45;&gt;Node20 -->
<g id="edge29" class="edge">
<title>Node9&#45;&gt;Node20</title>
<path fill="none" stroke="midnightblue" d="M386.25,-107.47C371.33,-95.21 349.76,-78.67 329,-67 322.86,-63.55 315.97,-60.4 309.4,-57.7"/>
<polygon fill="midnightblue" stroke="midnightblue" points="384.3,-110.4 394.22,-114.13 388.79,-105.03 384.3,-110.4"/>
</g>
<!-- Node11 -->
<g id="node11" class="node">
<title>Node11</title>
<g id="a_node11"><a xlink:href="kmt_8c.html#a0c68a294cecc4be7cb4b495f15b883a0" target="_top" xlink:title="initialize kmt module">
<polygon fill="none" stroke="black" points="132.5,-228.5 132.5,-247.5 183.5,-247.5 183.5,-228.5 132.5,-228.5"/>
<text text-anchor="middle" x="158" y="-235.5" font-family="Helvetica,sans-Serif" font-size="10.00">kmt_init</text>
</a>
</g>
</g>
<!-- Node10&#45;&gt;Node11 -->
<g id="edge11" class="edge">
<title>Node10&#45;&gt;Node11</title>
<path fill="none" stroke="midnightblue" d="M239.82,-212.62C221.31,-218.43 199.94,-225.14 183.82,-230.2"/>
<polygon fill="midnightblue" stroke="midnightblue" points="240.97,-215.92 249.47,-209.59 238.88,-209.25 240.97,-215.92"/>
</g>
<!-- Node12 -->
<g id="node12" class="node">
<title>Node12</title>
<g id="a_node12"><a xlink:href="kmt_8c.html#af360ef0d98ca30e481cc58ea3695fd58" target="_top" xlink:title=" ">
<polygon fill="none" stroke="black" points="0,-114.5 0,-133.5 83,-133.5 83,-114.5 0,-114.5"/>
<text text-anchor="middle" x="41.5" y="-121.5" font-family="Helvetica,sans-Serif" font-size="10.00">MODULE_DEF</text>
</a>
</g>
</g>
<!-- Node11&#45;&gt;Node12 -->
<g id="edge12" class="edge">
<title>Node11&#45;&gt;Node12</title>
<path fill="none" stroke="midnightblue" d="M124.79,-223.18C122.77,-221.86 120.82,-220.47 119,-219 87.18,-193.36 59.86,-152.38 48.34,-133.77"/>
<polygon fill="midnightblue" stroke="midnightblue" points="123.52,-226.48 133.93,-228.45 127.02,-220.42 123.52,-226.48"/>
</g>
<!-- Node13&#45;&gt;Node12 -->
<g id="edge14" class="edge">
<title>Node13&#45;&gt;Node12</title>
<path fill="none" stroke="midnightblue" d="M130.53,-25.25C126.52,-27.97 122.54,-30.92 119,-34 89.57,-59.54 61.69,-96.74 49.26,-114.23"/>
<polygon fill="midnightblue" stroke="midnightblue" points="132.66,-28.04 139.2,-19.71 128.89,-22.14 132.66,-28.04"/>
</g>
<!-- Node14&#45;&gt;Node11 -->
<g id="edge16" class="edge">
<title>Node14&#45;&gt;Node11</title>
<path fill="none" stroke="midnightblue" d="M242.31,-264.16C223.19,-258.16 200.5,-251.03 183.63,-245.74"/>
<polygon fill="midnightblue" stroke="midnightblue" points="241.35,-267.53 251.94,-267.19 243.44,-260.85 241.35,-267.53"/>
</g>
<!-- Node15&#45;&gt;Node11 -->
<g id="edge18" class="edge">
<title>Node15&#45;&gt;Node11</title>
<path fill="none" stroke="midnightblue" d="M232.24,-238C215.59,-238 197.6,-238 183.61,-238"/>
<polygon fill="midnightblue" stroke="midnightblue" points="232.38,-241.5 242.38,-238 232.38,-234.5 232.38,-241.5"/>
</g>
<!-- Node16&#45;&gt;Node12 -->
<g id="edge20" class="edge">
<title>Node16&#45;&gt;Node12</title>
<path fill="none" stroke="midnightblue" d="M108.71,-124C100.22,-124 91.46,-124 83.21,-124"/>
<polygon fill="midnightblue" stroke="midnightblue" points="108.87,-127.5 118.87,-124 108.87,-120.5 108.87,-127.5"/>
</g>
<!-- Node17&#45;&gt;Node7 -->
<g id="edge22" class="edge">
<title>Node17&#45;&gt;Node7</title>
<path fill="none" stroke="midnightblue" d="M128.8,-214.04C107.94,-224.42 80.08,-238.29 61.73,-247.43"/>
<polygon fill="midnightblue" stroke="midnightblue" points="130.44,-217.13 137.84,-209.54 127.32,-210.86 130.44,-217.13"/>
</g>
<!-- Node18&#45;&gt;Node12 -->
<g id="edge27" class="edge">
<title>Node18&#45;&gt;Node12</title>
<path fill="none" stroke="midnightblue" d="M262.56,-102.71C246.84,-116.54 222.36,-135.13 197,-143 152.99,-156.66 99.07,-143.69 67.96,-133.51"/>
<polygon fill="midnightblue" stroke="midnightblue" points="265.31,-104.94 270.34,-95.62 260.59,-99.77 265.31,-104.94"/>
</g>
<!-- Node18&#45;&gt;Node13 -->
<g id="edge24" class="edge">
<title>Node18&#45;&gt;Node13</title>
<path fill="none" stroke="midnightblue" d="M243.23,-72.28C239.71,-70.63 236.25,-68.86 233,-67 208.8,-53.13 183.71,-32.17 169.86,-19.9"/>
<polygon fill="midnightblue" stroke="midnightblue" points="242,-75.56 252.56,-76.37 244.81,-69.15 242,-75.56"/>
</g>
<!-- Node18&#45;&gt;Node16 -->
<g id="edge25" class="edge">
<title>Node18&#45;&gt;Node16</title>
<path fill="none" stroke="midnightblue" d="M242.3,-97.84C225.3,-103.18 205.49,-109.4 189.46,-114.44"/>
<polygon fill="midnightblue" stroke="midnightblue" points="243.44,-101.15 251.94,-94.81 241.35,-94.47 243.44,-101.15"/>
</g>
<!-- Node18&#45;&gt;Node17 -->
<g id="edge28" class="edge">
<title>Node18&#45;&gt;Node17</title>
<path fill="none" stroke="midnightblue" d="M266.14,-103.6C250.56,-122.74 223.91,-153.58 197,-176 190.65,-181.29 183.04,-186.32 176.3,-190.39"/>
<polygon fill="midnightblue" stroke="midnightblue" points="268.95,-105.7 272.48,-95.71 263.49,-101.31 268.95,-105.7"/>
</g>
<!-- Node19 -->
<g id="node19" class="node">
<title>Node19</title>
<g id="a_node19"><a xlink:href="kernel_8h.html#a7ef2d722f9c7f8acc1801144a5188825" target="_top" xlink:title=" ">
<polygon fill="none" stroke="black" points="128.5,-76.5 128.5,-95.5 187.5,-95.5 187.5,-76.5 128.5,-76.5"/>
<text text-anchor="middle" x="158" y="-83.5" font-family="Helvetica,sans-Serif" font-size="10.00">MODULE</text>
</a>
</g>
</g>
<!-- Node18&#45;&gt;Node19 -->
<g id="edge26" class="edge">
<title>Node18&#45;&gt;Node19</title>
<path fill="none" stroke="midnightblue" d="M241.51,-86C224.08,-86 203.83,-86 187.75,-86"/>
<polygon fill="midnightblue" stroke="midnightblue" points="241.94,-89.5 251.94,-86 241.94,-82.5 241.94,-89.5"/>
</g>
<!-- Node20&#45;&gt;Node12 -->
<g id="edge33" class="edge">
<title>Node20&#45;&gt;Node12</title>
<path fill="none" stroke="midnightblue" d="M236.4,-47.11C203.13,-47.85 156.75,-51.97 119,-67 91.61,-77.91 65.32,-101.2 51.85,-114.39"/>
<polygon fill="midnightblue" stroke="midnightblue" points="236.75,-50.61 246.71,-46.98 236.67,-43.61 236.75,-50.61"/>
</g>
<!-- Node20&#45;&gt;Node13 -->
<g id="edge30" class="edge">
<title>Node20&#45;&gt;Node13</title>
<path fill="none" stroke="midnightblue" d="M239.62,-35.32C223.27,-30.19 204.71,-24.36 189.52,-19.59"/>
<polygon fill="midnightblue" stroke="midnightblue" points="238.88,-38.75 249.47,-38.41 240.97,-32.08 238.88,-38.75"/>
</g>
<!-- Node20&#45;&gt;Node16 -->
<g id="edge31" class="edge">
<title>Node20&#45;&gt;Node16</title>
<path fill="none" stroke="midnightblue" d="M241.57,-61.9C238.59,-63.46 235.69,-65.17 233,-67 213.78,-80.1 215.69,-91.14 197,-105 192.26,-108.51 186.77,-111.69 181.47,-114.39"/>
<polygon fill="midnightblue" stroke="midnightblue" points="243.13,-65.03 250.67,-57.59 240.13,-58.7 243.13,-65.03"/>
</g>
<!-- Node20&#45;&gt;Node17 -->
<g id="edge34" class="edge">
<title>Node20&#45;&gt;Node17</title>
<path fill="none" stroke="midnightblue" d="M238.39,-62.65C236.48,-63.98 234.66,-65.43 233,-67 205.81,-92.65 215.41,-110.48 197,-143 187.27,-160.18 174.18,-179.05 166.18,-190.19"/>
<polygon fill="midnightblue" stroke="midnightblue" points="240.36,-65.55 247.26,-57.51 236.85,-59.49 240.36,-65.55"/>
</g>
<!-- Node20&#45;&gt;Node19 -->
<g id="edge32" class="edge">
<title>Node20&#45;&gt;Node19</title>
<path fill="none" stroke="midnightblue" d="M239.79,-60.63C222.8,-65.96 203.39,-72.06 187.86,-76.94"/>
<polygon fill="midnightblue" stroke="midnightblue" points="240.97,-63.92 249.47,-57.59 238.88,-57.25 240.97,-63.92"/>
</g>
<!-- Node21&#45;&gt;Node9 -->
<g id="edge37" class="edge">
<title>Node21&#45;&gt;Node9</title>
<path fill="none" stroke="midnightblue" d="M473.77,-124C463.31,-124 452.33,-124 442.37,-124"/>
<polygon fill="midnightblue" stroke="midnightblue" points="473.99,-127.5 483.99,-124 473.99,-120.5 473.99,-127.5"/>
</g>
<!-- Node21&#45;&gt;Node18 -->
<g id="edge38" class="edge">
<title>Node21&#45;&gt;Node18</title>
<path fill="none" stroke="midnightblue" d="M477.43,-111.83C467.84,-109.29 457.61,-106.83 448,-105 399.99,-95.84 343.26,-90.5 310.1,-87.93"/>
<polygon fill="midnightblue" stroke="midnightblue" points="476.58,-115.22 487.15,-114.47 478.42,-108.47 476.58,-115.22"/>
</g>
</g>
</svg>
