<?xml version="1.0" encoding="UTF-8" standalone="no"?>
<!DOCTYPE svg PUBLIC "-//W3C//DTD SVG 1.1//EN"
 "http://www.w3.org/Graphics/SVG/1.1/DTD/svg11.dtd">
<!-- Generated by graphviz version 3.0.0 (20220413.0106)
 -->
<!-- Title: cli Pages: 1 -->
<svg width="903pt" height="605pt"
 viewBox="0.00 0.00 903.00 604.92" xmlns="http://www.w3.org/2000/svg" xmlns:xlink="http://www.w3.org/1999/xlink">
<g id="graph0" class="graph" transform="scale(1 1) rotate(0) translate(4 600.92)">
<title>cli</title>
<!-- Node1 -->
<g id="node1" class="node">
<title>Node1</title>
<g id="a_node1"><a xlink:title=" ">
<polygon fill="#bfbfbf" stroke="black" points="866,-303.42 866,-322.42 895,-322.42 895,-303.42 866,-303.42"/>
<text text-anchor="middle" x="880.5" y="-310.42" font-family="Helvetica,sans-Serif" font-size="10.00">cli</text>
</a>
</g>
</g>
<!-- Node2 -->
<g id="node2" class="node">
<title>Node2</title>
<g id="a_node2"><a xlink:href="trm_8c.html#a483cb97188e557c3c68d3a1572c2cc92" target="_top" xlink:title=" ">
<polygon fill="none" stroke="black" points="798,-350.42 798,-369.42 830,-369.42 830,-350.42 798,-350.42"/>
<text text-anchor="middle" x="814" y="-357.42" font-family="Helvetica,sans-Serif" font-size="10.00">halt</text>
</a>
</g>
</g>
<!-- Node1&#45;&gt;Node2 -->
<g id="edge1" class="edge">
<title>Node1&#45;&gt;Node2</title>
<path fill="none" stroke="midnightblue" d="M858.32,-328.35C848.5,-335.51 837.11,-343.81 828.48,-350.1"/>
<polygon fill="midnightblue" stroke="midnightblue" points="860.43,-331.15 866.45,-322.43 856.3,-325.49 860.43,-331.15"/>
</g>
<!-- Node5 -->
<g id="node5" class="node">
<title>Node5</title>
<g id="a_node5"><a xlink:href="cte_8c.html#a4a139958742786c5085172be1f69bfd0" target="_top" xlink:title=" ">
<polygon fill="none" stroke="black" points="798,-284.42 798,-303.42 830,-303.42 830,-284.42 798,-284.42"/>
<text text-anchor="middle" x="814" y="-291.42" font-family="Helvetica,sans-Serif" font-size="10.00">iset</text>
</a>
</g>
</g>
<!-- Node1&#45;&gt;Node5 -->
<g id="edge4" class="edge">
<title>Node1&#45;&gt;Node5</title>
<path fill="none" stroke="midnightblue" d="M856.18,-306.05C847.46,-303.48 837.79,-300.63 830.01,-298.34"/>
<polygon fill="midnightblue" stroke="midnightblue" points="855.24,-309.42 865.82,-308.89 857.22,-302.71 855.24,-309.42"/>
</g>
<!-- Node3 -->
<g id="node3" class="node">
<title>Node3</title>
<g id="a_node3"><a xlink:href="trm_8c.html#a12a49ff4d3a586b2315e292c5da3df7e" target="_top" xlink:title=" ">
<polygon fill="none" stroke="black" points="697.5,-379.42 697.5,-398.42 755.5,-398.42 755.5,-379.42 697.5,-379.42"/>
<text text-anchor="middle" x="726.5" y="-386.42" font-family="Helvetica,sans-Serif" font-size="10.00">call_main</text>
</a>
</g>
</g>
<!-- Node2&#45;&gt;Node3 -->
<g id="edge2" class="edge">
<title>Node2&#45;&gt;Node3</title>
<path fill="none" stroke="midnightblue" d="M788.23,-368.32C778.08,-371.77 766.27,-375.77 755.79,-379.33"/>
<polygon fill="midnightblue" stroke="midnightblue" points="789.37,-371.63 797.71,-365.1 787.12,-365 789.37,-371.63"/>
</g>
<!-- Node4 -->
<g id="node4" class="node">
<title>Node4</title>
<g id="a_node4"><a xlink:href="trm_8c.html#a54a85aeee6f6a8ef875d4cca663f9fd8" target="_top" xlink:title=" ">
<polygon fill="none" stroke="black" points="587.5,-379.42 587.5,-398.42 639.5,-398.42 639.5,-379.42 587.5,-379.42"/>
<text text-anchor="middle" x="613.5" y="-386.42" font-family="Helvetica,sans-Serif" font-size="10.00">_start_c</text>
</a>
</g>
</g>
<!-- Node3&#45;&gt;Node4 -->
<g id="edge3" class="edge">
<title>Node3&#45;&gt;Node4</title>
<path fill="none" stroke="midnightblue" d="M687.06,-388.92C671.43,-388.92 653.81,-388.92 639.84,-388.92"/>
<polygon fill="midnightblue" stroke="midnightblue" points="687.49,-392.42 697.49,-388.92 687.49,-385.42 687.49,-392.42"/>
</g>
<!-- Node6 -->
<g id="node6" class="node">
<title>Node6</title>
<g id="a_node6"><a xlink:href="pmm_8c.html#a20ccb461126d548299c6c21f157e6668" target="_top" xlink:title=" ">
<polygon fill="none" stroke="black" points="693.5,-227.42 693.5,-246.42 759.5,-246.42 759.5,-227.42 693.5,-227.42"/>
<text text-anchor="middle" x="726.5" y="-234.42" font-family="Helvetica,sans-Serif" font-size="10.00">kalloc_safe</text>
</a>
</g>
</g>
<!-- Node5&#45;&gt;Node6 -->
<g id="edge5" class="edge">
<title>Node5&#45;&gt;Node6</title>
<path fill="none" stroke="midnightblue" d="M793.02,-278.04C783.79,-270.97 772.55,-262.71 762,-255.92 756.94,-252.66 751.28,-249.4 746.04,-246.52"/>
<polygon fill="midnightblue" stroke="midnightblue" points="791.13,-281 801.17,-284.38 795.43,-275.48 791.13,-281"/>
</g>
<!-- Node8 -->
<g id="node8" class="node">
<title>Node8</title>
<g id="a_node8"><a xlink:href="pmm_8c.html#af2f46f4bce6a599542ce4d462aec9e2f" target="_top" xlink:title=" ">
<polygon fill="none" stroke="black" points="695.5,-189.42 695.5,-208.42 757.5,-208.42 757.5,-189.42 695.5,-189.42"/>
<text text-anchor="middle" x="726.5" y="-196.42" font-family="Helvetica,sans-Serif" font-size="10.00">kfree_safe</text>
</a>
</g>
</g>
<!-- Node5&#45;&gt;Node8 -->
<g id="edge7" class="edge">
<title>Node5&#45;&gt;Node8</title>
<path fill="none" stroke="midnightblue" d="M803.47,-274.68C794.52,-258.09 779.85,-234.27 762,-217.92 758.07,-214.32 753.33,-211.15 748.64,-208.48"/>
<polygon fill="midnightblue" stroke="midnightblue" points="800.57,-276.69 808.28,-283.95 806.78,-273.46 800.57,-276.69"/>
</g>
<!-- Node9 -->
<g id="node9" class="node">
<title>Node9</title>
<g id="a_node9"><a xlink:href="os_8c.html#a5f9cb32664e017ca15c49ec66e5342e4" target="_top" xlink:title="cpu start entry">
<polygon fill="none" stroke="black" points="479,-577.42 479,-596.42 525,-596.42 525,-577.42 479,-577.42"/>
<text text-anchor="middle" x="502" y="-584.42" font-family="Helvetica,sans-Serif" font-size="10.00">os_run</text>
</a>
</g>
</g>
<!-- Node5&#45;&gt;Node9 -->
<g id="edge9" class="edge">
<title>Node5&#45;&gt;Node9</title>
<path fill="none" stroke="midnightblue" d="M795.23,-310.24C785.95,-317.93 774.05,-326.56 762,-331.92 683.33,-366.95 635.43,-311.67 572,-369.92 529.73,-408.73 553.6,-439.3 536,-493.92 526.12,-524.58 512.95,-560.36 506.66,-577.21"/>
<polygon fill="midnightblue" stroke="midnightblue" points="797.66,-312.77 802.94,-303.58 793.08,-307.47 797.66,-312.77"/>
</g>
<!-- Node11 -->
<g id="node11" class="node">
<title>Node11</title>
<g id="a_node11"><a xlink:href="spinlock_8c.html#afc9565dc7a5ddf77e1fa76f5d91caf78" target="_top" xlink:title="interrupt able">
<polygon fill="none" stroke="black" points="694,-265.42 694,-284.42 759,-284.42 759,-265.42 694,-265.42"/>
<text text-anchor="middle" x="726.5" y="-272.42" font-family="Helvetica,sans-Serif" font-size="10.00">spin_popcli</text>
</a>
</g>
</g>
<!-- Node5&#45;&gt;Node11 -->
<g id="edge11" class="edge">
<title>Node5&#45;&gt;Node11</title>
<path fill="none" stroke="midnightblue" d="M787.9,-288.34C778.95,-286.35 768.74,-284.08 759.3,-281.99"/>
<polygon fill="midnightblue" stroke="midnightblue" points="787.19,-291.77 797.71,-290.52 788.71,-284.94 787.19,-291.77"/>
</g>
<!-- Node29 -->
<g id="node29" class="node">
<title>Node29</title>
<g id="a_node29"><a xlink:href="spinlock_8c.html#ab213874cda54fdbbeb1bec1e5fa90b28" target="_top" xlink:title="interrupt disable">
<polygon fill="none" stroke="black" points="691,-303.42 691,-322.42 762,-322.42 762,-303.42 691,-303.42"/>
<text text-anchor="middle" x="726.5" y="-310.42" font-family="Helvetica,sans-Serif" font-size="10.00">spin_pushcli</text>
</a>
</g>
</g>
<!-- Node5&#45;&gt;Node29 -->
<g id="edge67" class="edge">
<title>Node5&#45;&gt;Node29</title>
<path fill="none" stroke="midnightblue" d="M787.84,-299.51C779.8,-301.3 770.75,-303.31 762.16,-305.22"/>
<polygon fill="midnightblue" stroke="midnightblue" points="788.71,-302.9 797.71,-297.32 787.19,-296.07 788.71,-302.9"/>
</g>
<!-- Node7 -->
<g id="node7" class="node">
<title>Node7</title>
<g id="a_node7"><a xlink:href="pmm_8c.html#a7ada9deb0ae8705f2cc158b0283aaeb3" target="_top" xlink:title=" ">
<polygon fill="none" stroke="black" points="572,-189.42 572,-208.42 655,-208.42 655,-189.42 572,-189.42"/>
<text text-anchor="middle" x="613.5" y="-196.42" font-family="Helvetica,sans-Serif" font-size="10.00">MODULE_DEF</text>
</a>
</g>
</g>
<!-- Node6&#45;&gt;Node7 -->
<g id="edge6" class="edge">
<title>Node6&#45;&gt;Node7</title>
<path fill="none" stroke="midnightblue" d="M687.61,-223.95C672.82,-218.89 656.17,-213.19 642.5,-208.51"/>
<polygon fill="midnightblue" stroke="midnightblue" points="686.9,-227.4 697.49,-227.33 689.16,-220.78 686.9,-227.4"/>
</g>
<!-- Node8&#45;&gt;Node7 -->
<g id="edge8" class="edge">
<title>Node8&#45;&gt;Node7</title>
<path fill="none" stroke="midnightblue" d="M685.25,-198.92C675.53,-198.92 665.14,-198.92 655.4,-198.92"/>
<polygon fill="midnightblue" stroke="midnightblue" points="685.46,-202.42 695.46,-198.92 685.46,-195.42 685.46,-202.42"/>
</g>
<!-- Node10 -->
<g id="node10" class="node">
<title>Node10</title>
<g id="a_node10"><a xlink:href="os_8c.html#aafec7046aa50c914df86d0d22d4fc1d1" target="_top" xlink:title=" ">
<polygon fill="none" stroke="black" points="206,-569.42 206,-588.42 289,-588.42 289,-569.42 206,-569.42"/>
<text text-anchor="middle" x="247.5" y="-576.42" font-family="Helvetica,sans-Serif" font-size="10.00">MODULE_DEF</text>
</a>
</g>
</g>
<!-- Node9&#45;&gt;Node10 -->
<g id="edge10" class="edge">
<title>Node9&#45;&gt;Node10</title>
<path fill="none" stroke="midnightblue" d="M468.34,-585.89C422.54,-584.43 339.29,-581.8 289.42,-580.22"/>
<polygon fill="midnightblue" stroke="midnightblue" points="468.49,-589.39 478.59,-586.21 468.71,-582.4 468.49,-589.39"/>
</g>
<!-- Node12 -->
<g id="node12" class="node">
<title>Node12</title>
<g id="a_node12"><a xlink:href="spinlock_8c.html#ad4be0d674a7ca4dc90c2dbf8b34562cc" target="_top" xlink:title="check current cpu has the lock">
<polygon fill="none" stroke="black" points="578,-265.42 578,-284.42 649,-284.42 649,-265.42 578,-265.42"/>
<text text-anchor="middle" x="613.5" y="-272.42" font-family="Helvetica,sans-Serif" font-size="10.00">spin_holding</text>
</a>
</g>
</g>
<!-- Node11&#45;&gt;Node12 -->
<g id="edge12" class="edge">
<title>Node11&#45;&gt;Node12</title>
<path fill="none" stroke="midnightblue" d="M683.81,-274.92C672.41,-274.92 660.17,-274.92 649.21,-274.92"/>
<polygon fill="midnightblue" stroke="midnightblue" points="683.99,-278.42 693.99,-274.92 683.99,-271.42 683.99,-278.42"/>
</g>
<!-- Node28 -->
<g id="node28" class="node">
<title>Node28</title>
<g id="a_node28"><a xlink:href="spinlock_8c.html#acdf118d615a4bc4064e991add9a80995" target="_top" xlink:title="release spinlock from current cpu">
<polygon fill="none" stroke="black" points="468,-208.42 468,-227.42 536,-227.42 536,-208.42 468,-208.42"/>
<text text-anchor="middle" x="502" y="-215.42" font-family="Helvetica,sans-Serif" font-size="10.00">spin_unlock</text>
</a>
</g>
</g>
<!-- Node11&#45;&gt;Node28 -->
<g id="edge66" class="edge">
<title>Node11&#45;&gt;Node28</title>
<path fill="none" stroke="midnightblue" d="M684.22,-263.66C674.64,-261.08 664.47,-258.38 655,-255.92 614.19,-245.32 567.08,-233.63 536.25,-226.05"/>
<polygon fill="midnightblue" stroke="midnightblue" points="683.38,-267.06 693.95,-266.28 685.2,-260.3 683.38,-267.06"/>
</g>
<!-- Node13 -->
<g id="node13" class="node">
<title>Node13</title>
<g id="a_node13"><a xlink:href="kmt_8c.html#af9c485ce0d89d6624e6e80e31d8ed207" target="_top" xlink:title="handler: save context to current task">
<polygon fill="none" stroke="black" points="330.5,-398.42 330.5,-417.42 426.5,-417.42 426.5,-398.42 330.5,-398.42"/>
<text text-anchor="middle" x="378.5" y="-405.42" font-family="Helvetica,sans-Serif" font-size="10.00">kmt_context_save</text>
</a>
</g>
</g>
<!-- Node12&#45;&gt;Node13 -->
<g id="edge13" class="edge">
<title>Node12&#45;&gt;Node13</title>
<path fill="none" stroke="midnightblue" d="M598.53,-292.71C584.37,-309.71 561.03,-335.03 536,-350.92 499.75,-373.94 452.89,-389.43 419.94,-398.38"/>
<polygon fill="midnightblue" stroke="midnightblue" points="601.47,-294.64 605.06,-284.67 596.04,-290.23 601.47,-294.64"/>
</g>
<!-- Node16 -->
<g id="node16" class="node">
<title>Node16</title>
<g id="a_node16"><a xlink:href="kmt_8c.html#a5ddb8743298012e84cf9cb5faf22212b" target="_top" xlink:title="create thread">
<polygon fill="none" stroke="black" points="346,-474.42 346,-493.42 411,-493.42 411,-474.42 346,-474.42"/>
<text text-anchor="middle" x="378.5" y="-481.42" font-family="Helvetica,sans-Serif" font-size="10.00">kmt_create</text>
</a>
</g>
</g>
<!-- Node12&#45;&gt;Node16 -->
<g id="edge16" class="edge">
<title>Node12&#45;&gt;Node16</title>
<path fill="none" stroke="midnightblue" d="M599.68,-293.1C591.35,-305.25 580.51,-321.72 572,-336.92 553.74,-369.53 562.15,-386.21 536,-412.92 501.35,-448.31 445.84,-467.66 411.08,-476.89"/>
<polygon fill="midnightblue" stroke="midnightblue" points="602.65,-294.96 605.47,-284.75 596.9,-290.97 602.65,-294.96"/>
</g>
<!-- Node17 -->
<g id="node17" class="node">
<title>Node17</title>
<g id="a_node17"><a xlink:href="kmt_8c.html#ad3fbc643b7b6092120c5152b4c890354" target="_top" xlink:title="handler: handle program errors">
<polygon fill="none" stroke="black" points="218.5,-103.42 218.5,-122.42 276.5,-122.42 276.5,-103.42 218.5,-103.42"/>
<text text-anchor="middle" x="247.5" y="-110.42" font-family="Helvetica,sans-Serif" font-size="10.00">kmt_error</text>
</a>
</g>
</g>
<!-- Node12&#45;&gt;Node17 -->
<g id="edge18" class="edge">
<title>Node12&#45;&gt;Node17</title>
<path fill="none" stroke="midnightblue" d="M597.21,-257.44C588.59,-246.71 578.31,-232.31 572,-217.92 540.99,-147.19 591.62,-101.5 536,-47.92 468.22,17.38 411.2,7.86 325,-29.92 290.18,-45.18 264.2,-84.98 253.66,-103.36"/>
<polygon fill="midnightblue" stroke="midnightblue" points="594.58,-259.75 603.67,-265.19 599.95,-255.27 594.58,-259.75"/>
</g>
<!-- Node18 -->
<g id="node18" class="node">
<title>Node18</title>
<g id="a_node18"><a xlink:href="kmt_8c.html#a13cbe2d83bf10c3302124613fa18f8a4" target="_top" xlink:title="print all tasks notice: do not garantee concurrency safety">
<polygon fill="none" stroke="black" points="328,-132.42 328,-151.42 429,-151.42 429,-132.42 328,-132.42"/>
<text text-anchor="middle" x="378.5" y="-139.42" font-family="Helvetica,sans-Serif" font-size="10.00">kmt_print_all_tasks</text>
</a>
</g>
</g>
<!-- Node12&#45;&gt;Node18 -->
<g id="edge20" class="edge">
<title>Node12&#45;&gt;Node18</title>
<path fill="none" stroke="midnightblue" d="M598.53,-257.13C584.37,-240.13 561.03,-214.81 536,-198.92 499.75,-175.9 452.89,-160.41 419.94,-151.46"/>
<polygon fill="midnightblue" stroke="midnightblue" points="596.04,-259.61 605.06,-265.17 601.47,-255.2 596.04,-259.61"/>
</g>
<!-- Node19 -->
<g id="node19" class="node">
<title>Node19</title>
<g id="a_node19"><a xlink:href="kmt_8c.html#ad4d70b4093829da1c0b0631abdff7747" target="_top" xlink:title="handler: schedule next task to run Notice: this should be the only handler which returns real Context">
<polygon fill="none" stroke="black" points="209,-160.42 209,-179.42 286,-179.42 286,-160.42 209,-160.42"/>
<text text-anchor="middle" x="247.5" y="-167.42" font-family="Helvetica,sans-Serif" font-size="10.00">kmt_schedule</text>
</a>
</g>
</g>
<!-- Node12&#45;&gt;Node19 -->
<g id="edge27" class="edge">
<title>Node12&#45;&gt;Node19</title>
<path fill="none" stroke="midnightblue" d="M597.47,-257.32C588.94,-246.55 578.67,-232.14 572,-217.92 545.47,-161.3 578.73,-127.56 536,-81.92 502.67,-46.32 480.13,-54.8 432,-46.92 385.07,-39.23 364.65,-20.66 325,-46.92 290.8,-69.58 312.47,-98.27 289,-131.92 281.28,-142.99 269.89,-153.32 261.15,-160.4"/>
<polygon fill="midnightblue" stroke="midnightblue" points="594.8,-259.59 603.84,-265.11 600.22,-255.15 594.8,-259.59"/>
</g>
<!-- Node20 -->
<g id="node20" class="node">
<title>Node20</title>
<g id="a_node20"><a xlink:href="kmt_8c.html#ab4e9dee1880e455874374b44b5785bc3" target="_top" xlink:title="print all current_tasks notice: do not garantee concurrency safety">
<polygon fill="none" stroke="black" points="325,-94.42 325,-113.42 432,-113.42 432,-94.42 325,-94.42"/>
<text text-anchor="middle" x="378.5" y="-101.42" font-family="Helvetica,sans-Serif" font-size="10.00">kmt_print_cpu_tasks</text>
</a>
</g>
</g>
<!-- Node12&#45;&gt;Node20 -->
<g id="edge24" class="edge">
<title>Node12&#45;&gt;Node20</title>
<path fill="none" stroke="midnightblue" d="M599.46,-256.85C591.45,-245.69 581.03,-231.04 572,-217.92 555.64,-194.16 558.44,-182.04 536,-163.92 503.74,-137.87 458.9,-122.23 425.48,-113.48"/>
<polygon fill="midnightblue" stroke="midnightblue" points="596.85,-259.23 605.53,-265.3 602.53,-255.14 596.85,-259.23"/>
</g>
<!-- Node21 -->
<g id="node21" class="node">
<title>Node21</title>
<g id="a_node21"><a xlink:href="kmt_8c.html#a47d8887c87041abd5ea3148232b65c93" target="_top" xlink:title="tear down a thread">
<polygon fill="none" stroke="black" points="339.5,-436.42 339.5,-455.42 417.5,-455.42 417.5,-436.42 339.5,-436.42"/>
<text text-anchor="middle" x="378.5" y="-443.42" font-family="Helvetica,sans-Serif" font-size="10.00">kmt_teardown</text>
</a>
</g>
</g>
<!-- Node12&#45;&gt;Node21 -->
<g id="edge28" class="edge">
<title>Node12&#45;&gt;Node21</title>
<path fill="none" stroke="midnightblue" d="M600.67,-293.45C583.45,-319.99 551.82,-367.06 536,-379.92 500.88,-408.48 451.61,-426.52 417.79,-436.39"/>
<polygon fill="midnightblue" stroke="midnightblue" points="603.83,-295 606.3,-284.7 597.95,-291.21 603.83,-295"/>
</g>
<!-- Node22 -->
<g id="node22" class="node">
<title>Node22</title>
<g id="a_node22"><a xlink:href="kmt_8c.html#a75ea8dbba16d64a343a45962bd593930" target="_top" xlink:title="handler: handle yield interrupt (0x81)">
<polygon fill="none" stroke="black" points="349.5,-246.42 349.5,-265.42 407.5,-265.42 407.5,-246.42 349.5,-246.42"/>
<text text-anchor="middle" x="378.5" y="-253.42" font-family="Helvetica,sans-Serif" font-size="10.00">kmt_yield</text>
</a>
</g>
</g>
<!-- Node12&#45;&gt;Node22 -->
<g id="edge30" class="edge">
<title>Node12&#45;&gt;Node22</title>
<path fill="none" stroke="midnightblue" d="M567.62,-271.26C520.38,-267.41 447.48,-261.46 407.72,-258.22"/>
<polygon fill="midnightblue" stroke="midnightblue" points="567.62,-274.77 577.87,-272.1 568.19,-267.79 567.62,-274.77"/>
</g>
<!-- Node23 -->
<g id="node23" class="node">
<title>Node23</title>
<g id="a_node23"><a xlink:href="os_8c.html#a2be1c9facb49d4439f41b1537d0f3ef8" target="_top" xlink:title="System trap entry.">
<polygon fill="none" stroke="black" points="354,-550.42 354,-569.42 403,-569.42 403,-550.42 354,-550.42"/>
<text text-anchor="middle" x="378.5" y="-557.42" font-family="Helvetica,sans-Serif" font-size="10.00">os_trap</text>
</a>
</g>
</g>
<!-- Node12&#45;&gt;Node23 -->
<g id="edge32" class="edge">
<title>Node12&#45;&gt;Node23</title>
<path fill="none" stroke="midnightblue" d="M599.02,-292.76C590.42,-304.76 579.52,-321.21 572,-336.92 549.62,-383.71 564.9,-404.86 536,-447.92 502.26,-498.2 483.12,-503.47 432,-535.92 423.03,-541.61 412.49,-546.71 403.21,-550.72"/>
<polygon fill="midnightblue" stroke="midnightblue" points="601.96,-294.67 605.05,-284.53 596.32,-290.53 601.96,-294.67"/>
</g>
<!-- Node24 -->
<g id="node24" class="node">
<title>Node24</title>
<g id="a_node24"><a xlink:href="sem_8c.html#ad994e433f3a6bf8626272437cb54c114" target="_top" xlink:title="wake up a task form tasks waiting for the semaphore instance">
<polygon fill="none" stroke="black" points="345.5,-284.42 345.5,-303.42 411.5,-303.42 411.5,-284.42 345.5,-284.42"/>
<text text-anchor="middle" x="378.5" y="-291.42" font-family="Helvetica,sans-Serif" font-size="10.00">sem_signal</text>
</a>
</g>
</g>
<!-- Node12&#45;&gt;Node24 -->
<g id="edge34" class="edge">
<title>Node12&#45;&gt;Node24</title>
<path fill="none" stroke="midnightblue" d="M567.65,-278.58C521.95,-282.3 452.19,-287.99 411.69,-291.29"/>
<polygon fill="midnightblue" stroke="midnightblue" points="568.19,-282.05 577.87,-277.74 567.62,-275.07 568.19,-282.05"/>
</g>
<!-- Node26 -->
<g id="node26" class="node">
<title>Node26</title>
<g id="a_node26"><a xlink:href="sem_8c.html#a85ca67864bb0af1966a5c2463bd16fe8" target="_top" xlink:title="release semaphore(Mutex) and sleep task holding the sem">
<polygon fill="none" stroke="black" points="349,-56.42 349,-75.42 408,-75.42 408,-56.42 349,-56.42"/>
<text text-anchor="middle" x="378.5" y="-63.42" font-family="Helvetica,sans-Serif" font-size="10.00">sem_wait</text>
</a>
</g>
</g>
<!-- Node12&#45;&gt;Node26 -->
<g id="edge37" class="edge">
<title>Node12&#45;&gt;Node26</title>
<path fill="none" stroke="midnightblue" d="M598.33,-257.44C589.94,-246.53 579.51,-231.94 572,-217.92 550.88,-178.48 567.74,-155.44 536,-123.92 500.84,-89.01 442.83,-74.86 408.17,-69.31"/>
<polygon fill="midnightblue" stroke="midnightblue" points="595.6,-259.63 604.53,-265.33 601.1,-255.3 595.6,-259.63"/>
</g>
<!-- Node27 -->
<g id="node27" class="node">
<title>Node27</title>
<g id="a_node27"><a xlink:href="spinlock_8c.html#ab6f3c37ec37006951feccc3c05387cce" target="_top" xlink:title="acquire spinlock to current cpu">
<polygon fill="none" stroke="black" points="473,-322.42 473,-341.42 531,-341.42 531,-322.42 473,-322.42"/>
<text text-anchor="middle" x="502" y="-329.42" font-family="Helvetica,sans-Serif" font-size="10.00">spin_lock</text>
</a>
</g>
</g>
<!-- Node12&#45;&gt;Node27 -->
<g id="edge40" class="edge">
<title>Node12&#45;&gt;Node27</title>
<path fill="none" stroke="midnightblue" d="M585.01,-289.23C565.08,-299.6 538.7,-313.34 521.3,-322.39"/>
<polygon fill="midnightblue" stroke="midnightblue" points="586.67,-292.31 593.92,-284.59 583.44,-286.1 586.67,-292.31"/>
</g>
<!-- Node12&#45;&gt;Node28 -->
<g id="edge53" class="edge">
<title>Node12&#45;&gt;Node28</title>
<path fill="none" stroke="midnightblue" d="M585.01,-260.61C565.08,-250.24 538.7,-236.5 521.3,-227.45"/>
<polygon fill="midnightblue" stroke="midnightblue" points="583.44,-263.74 593.92,-265.25 586.67,-257.53 583.44,-263.74"/>
</g>
<!-- Node14 -->
<g id="node14" class="node">
<title>Node14</title>
<g id="a_node14"><a xlink:href="kmt_8c.html#a0c68a294cecc4be7cb4b495f15b883a0" target="_top" xlink:title="initialize kmt module">
<polygon fill="none" stroke="black" points="119,-217.42 119,-236.42 170,-236.42 170,-217.42 119,-217.42"/>
<text text-anchor="middle" x="144.5" y="-224.42" font-family="Helvetica,sans-Serif" font-size="10.00">kmt_init</text>
</a>
</g>
</g>
<!-- Node13&#45;&gt;Node14 -->
<g id="edge14" class="edge">
<title>Node13&#45;&gt;Node14</title>
<path fill="none" stroke="midnightblue" d="M354.13,-392.45C320.45,-369.83 256.73,-325.86 206,-283.92 187.09,-268.29 166.62,-248.28 154.99,-236.6"/>
<polygon fill="midnightblue" stroke="midnightblue" points="352.54,-395.59 362.8,-398.24 356.43,-389.77 352.54,-395.59"/>
</g>
<!-- Node15 -->
<g id="node15" class="node">
<title>Node15</title>
<g id="a_node15"><a xlink:href="kmt_8c.html#af360ef0d98ca30e481cc58ea3695fd58" target="_top" xlink:title=" ">
<polygon fill="none" stroke="black" points="0,-293.42 0,-312.42 83,-312.42 83,-293.42 0,-293.42"/>
<text text-anchor="middle" x="41.5" y="-300.42" font-family="Helvetica,sans-Serif" font-size="10.00">MODULE_DEF</text>
</a>
</g>
</g>
<!-- Node14&#45;&gt;Node15 -->
<g id="edge15" class="edge">
<title>Node14&#45;&gt;Node15</title>
<path fill="none" stroke="midnightblue" d="M122.68,-242.59C102.37,-257.87 72.13,-280.62 55.19,-293.37"/>
<polygon fill="midnightblue" stroke="midnightblue" points="124.82,-245.35 130.71,-236.55 120.61,-239.76 124.82,-245.35"/>
</g>
<!-- Node16&#45;&gt;Node15 -->
<g id="edge17" class="edge">
<title>Node16&#45;&gt;Node15</title>
<path fill="none" stroke="midnightblue" d="M339.93,-470.84C334.88,-468.93 329.79,-466.93 325,-464.92 230.78,-425.42 204.94,-418.16 119,-362.92 94.29,-347.04 67.83,-325.03 53.41,-312.56"/>
<polygon fill="midnightblue" stroke="midnightblue" points="338.92,-474.19 349.51,-474.37 341.34,-467.63 338.92,-474.19"/>
</g>
<!-- Node17&#45;&gt;Node14 -->
<g id="edge19" class="edge">
<title>Node17&#45;&gt;Node14</title>
<path fill="none" stroke="midnightblue" d="M227.71,-129.5C220.68,-135.97 212.76,-143.58 206,-150.92 185.2,-173.49 163.39,-202.38 152.53,-217.2"/>
<polygon fill="midnightblue" stroke="midnightblue" points="230.36,-131.82 235.43,-122.51 225.67,-126.63 230.36,-131.82"/>
</g>
<!-- Node18&#45;&gt;Node17 -->
<g id="edge21" class="edge">
<title>Node18&#45;&gt;Node17</title>
<path fill="none" stroke="midnightblue" d="M324.85,-130.08C308.41,-126.39 290.91,-122.45 276.82,-119.29"/>
<polygon fill="midnightblue" stroke="midnightblue" points="324.38,-133.57 334.9,-132.34 325.91,-126.74 324.38,-133.57"/>
</g>
<!-- Node18&#45;&gt;Node19 -->
<g id="edge22" class="edge">
<title>Node18&#45;&gt;Node19</title>
<path fill="none" stroke="midnightblue" d="M323.57,-153.62C311.05,-156.34 297.97,-159.18 286.31,-161.71"/>
<polygon fill="midnightblue" stroke="midnightblue" points="324.44,-157.02 333.47,-151.48 322.95,-150.18 324.44,-157.02"/>
</g>
<!-- Node19&#45;&gt;Node14 -->
<g id="edge23" class="edge">
<title>Node19&#45;&gt;Node14</title>
<path fill="none" stroke="midnightblue" d="M220.64,-184.51C202.32,-194.85 178.28,-208.42 162.38,-217.39"/>
<polygon fill="midnightblue" stroke="midnightblue" points="222.38,-187.55 229.37,-179.59 218.94,-181.46 222.38,-187.55"/>
</g>
<!-- Node20&#45;&gt;Node17 -->
<g id="edge25" class="edge">
<title>Node20&#45;&gt;Node17</title>
<path fill="none" stroke="midnightblue" d="M314.56,-108.31C301.28,-109.24 287.92,-110.17 276.72,-110.95"/>
<polygon fill="midnightblue" stroke="midnightblue" points="314.93,-111.79 324.66,-107.61 314.44,-104.81 314.93,-111.79"/>
</g>
<!-- Node20&#45;&gt;Node19 -->
<g id="edge26" class="edge">
<title>Node20&#45;&gt;Node19</title>
<path fill="none" stroke="midnightblue" d="M338.51,-117.02C333.9,-118.87 329.3,-120.85 325,-122.92 301.97,-134.02 277.05,-150.19 262.12,-160.37"/>
<polygon fill="midnightblue" stroke="midnightblue" points="339.81,-120.27 347.91,-113.44 337.32,-113.73 339.81,-120.27"/>
</g>
<!-- Node21&#45;&gt;Node15 -->
<g id="edge29" class="edge">
<title>Node21&#45;&gt;Node15</title>
<path fill="none" stroke="midnightblue" d="M340.34,-432.82C335.17,-430.89 329.94,-428.89 325,-426.92 225.78,-387.24 109.64,-334.1 63.21,-312.58"/>
<polygon fill="midnightblue" stroke="midnightblue" points="339.53,-436.25 350.12,-436.4 341.93,-429.68 339.53,-436.25"/>
</g>
<!-- Node22&#45;&gt;Node14 -->
<g id="edge31" class="edge">
<title>Node22&#45;&gt;Node14</title>
<path fill="none" stroke="midnightblue" d="M339.06,-251.12C291.17,-245.13 210.72,-235.07 170.29,-230.02"/>
<polygon fill="midnightblue" stroke="midnightblue" points="338.7,-254.6 349.05,-252.36 339.56,-247.65 338.7,-254.6"/>
</g>
<!-- Node23&#45;&gt;Node10 -->
<g id="edge33" class="edge">
<title>Node23&#45;&gt;Node10</title>
<path fill="none" stroke="midnightblue" d="M343.48,-564.93C326.85,-567.38 306.7,-570.35 289.25,-572.92"/>
<polygon fill="midnightblue" stroke="midnightblue" points="344.46,-568.32 353.84,-563.4 343.44,-561.4 344.46,-568.32"/>
</g>
<!-- Node24&#45;&gt;Node15 -->
<g id="edge36" class="edge">
<title>Node24&#45;&gt;Node15</title>
<path fill="none" stroke="midnightblue" d="M335.09,-295.06C270.14,-296.8 146.84,-300.12 83.03,-301.83"/>
<polygon fill="midnightblue" stroke="midnightblue" points="335.48,-298.55 345.38,-294.78 335.29,-291.55 335.48,-298.55"/>
</g>
<!-- Node25 -->
<g id="node25" class="node">
<title>Node25</title>
<g id="a_node25"><a xlink:href="kernel_8h.html#a7ef2d722f9c7f8acc1801144a5188825" target="_top" xlink:title=" ">
<polygon fill="none" stroke="black" points="218,-255.42 218,-274.42 277,-274.42 277,-255.42 218,-255.42"/>
<text text-anchor="middle" x="247.5" y="-262.42" font-family="Helvetica,sans-Serif" font-size="10.00">MODULE</text>
</a>
</g>
</g>
<!-- Node24&#45;&gt;Node25 -->
<g id="edge35" class="edge">
<title>Node24&#45;&gt;Node25</title>
<path fill="none" stroke="midnightblue" d="M335.35,-284.44C316.32,-280.17 294.33,-275.22 277.23,-271.38"/>
<polygon fill="midnightblue" stroke="midnightblue" points="334.76,-287.9 345.28,-286.68 336.29,-281.07 334.76,-287.9"/>
</g>
<!-- Node26&#45;&gt;Node15 -->
<g id="edge39" class="edge">
<title>Node26&#45;&gt;Node15</title>
<path fill="none" stroke="midnightblue" d="M338.68,-64.42C302.03,-64.73 246.76,-69.8 206,-93.92 119.97,-144.84 62.31,-259.6 46.74,-293.39"/>
<polygon fill="midnightblue" stroke="midnightblue" points="338.95,-67.92 348.96,-64.45 338.97,-60.92 338.95,-67.92"/>
</g>
<!-- Node26&#45;&gt;Node25 -->
<g id="edge38" class="edge">
<title>Node26&#45;&gt;Node25</title>
<path fill="none" stroke="midnightblue" d="M339.31,-75.08C334.03,-77.6 329.04,-80.82 325,-84.92 290.66,-119.75 308.56,-144.09 289,-188.92 278.24,-213.59 262.59,-241.14 254.24,-255.32"/>
<polygon fill="midnightblue" stroke="midnightblue" points="340.99,-78.17 349,-71.23 338.41,-71.67 340.99,-78.17"/>
</g>
<!-- Node27&#45;&gt;Node13 -->
<g id="edge41" class="edge">
<title>Node27&#45;&gt;Node13</title>
<path fill="none" stroke="midnightblue" d="M481.81,-348.17C468.39,-359.08 449.76,-373.34 432,-383.92 422.96,-389.31 412.5,-394.31 403.31,-398.34"/>
<polygon fill="midnightblue" stroke="midnightblue" points="484.34,-350.62 489.82,-341.56 479.88,-345.23 484.34,-350.62"/>
</g>
<!-- Node27&#45;&gt;Node15 -->
<g id="edge49" class="edge">
<title>Node27&#45;&gt;Node15</title>
<path fill="none" stroke="midnightblue" d="M496,-351.63C485.14,-392.73 458.25,-485.2 432,-502.92 392.58,-529.52 371.34,-513.61 325,-502.92 223.46,-479.49 198.35,-458.48 119,-390.92 89.71,-365.98 61.76,-329.59 49.29,-312.48"/>
<polygon fill="midnightblue" stroke="midnightblue" points="499.45,-352.28 498.57,-341.72 492.67,-350.52 499.45,-352.28"/>
</g>
<!-- Node27&#45;&gt;Node16 -->
<g id="edge42" class="edge">
<title>Node27&#45;&gt;Node16</title>
<path fill="none" stroke="midnightblue" d="M495.93,-351.12C487.41,-379.79 467.56,-433.75 432,-464.92 426.02,-470.16 418.49,-473.99 411.01,-476.78"/>
<polygon fill="midnightblue" stroke="midnightblue" points="499.31,-352.04 498.65,-341.47 492.57,-350.14 499.31,-352.04"/>
</g>
<!-- Node27&#45;&gt;Node18 -->
<g id="edge43" class="edge">
<title>Node27&#45;&gt;Node18</title>
<path fill="none" stroke="midnightblue" d="M489.13,-313.36C463.8,-273.74 405.18,-182.07 385.83,-151.81"/>
<polygon fill="midnightblue" stroke="midnightblue" points="486.47,-315.7 494.81,-322.24 492.37,-311.93 486.47,-315.7"/>
</g>
<!-- Node27&#45;&gt;Node19 -->
<g id="edge45" class="edge">
<title>Node27&#45;&gt;Node19</title>
<path fill="none" stroke="midnightblue" d="M462.81,-337.48C424.63,-340.97 365.87,-340.49 325,-312.92 324.61,-312.66 270.92,-211.97 253.73,-179.73"/>
<polygon fill="midnightblue" stroke="midnightblue" points="463.42,-340.94 473,-336.41 462.69,-333.98 463.42,-340.94"/>
</g>
<!-- Node27&#45;&gt;Node20 -->
<g id="edge44" class="edge">
<title>Node27&#45;&gt;Node20</title>
<path fill="none" stroke="midnightblue" d="M494.1,-312.59C487.31,-293.43 476.72,-263.23 468,-236.92 451.28,-186.49 468.79,-161.26 432,-122.92 428.31,-119.07 423.78,-116 418.95,-113.55"/>
<polygon fill="midnightblue" stroke="midnightblue" points="490.89,-313.99 497.54,-322.24 497.48,-311.65 490.89,-313.99"/>
</g>
<!-- Node27&#45;&gt;Node21 -->
<g id="edge46" class="edge">
<title>Node27&#45;&gt;Node21</title>
<path fill="none" stroke="midnightblue" d="M491.92,-350.45C480.62,-371.71 459.42,-406.29 432,-426.92 426.89,-430.77 420.92,-433.89 414.88,-436.41"/>
<polygon fill="midnightblue" stroke="midnightblue" points="495.08,-351.96 496.52,-341.46 488.85,-348.76 495.08,-351.96"/>
</g>
<!-- Node27&#45;&gt;Node22 -->
<g id="edge47" class="edge">
<title>Node27&#45;&gt;Node22</title>
<path fill="none" stroke="midnightblue" d="M484.12,-315.13C470.86,-302.68 451.44,-286.02 432,-274.92 424.42,-270.59 415.69,-266.96 407.54,-264.07"/>
<polygon fill="midnightblue" stroke="midnightblue" points="481.89,-317.84 491.52,-322.25 486.74,-312.8 481.89,-317.84"/>
</g>
<!-- Node27&#45;&gt;Node23 -->
<g id="edge50" class="edge">
<title>Node27&#45;&gt;Node23</title>
<path fill="none" stroke="midnightblue" d="M499.45,-351.81C495.34,-391.58 480.89,-481.74 432,-535.92 424.41,-544.33 413.3,-549.99 403.24,-553.69"/>
<polygon fill="midnightblue" stroke="midnightblue" points="502.94,-352.07 500.37,-341.79 495.97,-351.43 502.94,-352.07"/>
</g>
<!-- Node27&#45;&gt;Node24 -->
<g id="edge51" class="edge">
<title>Node27&#45;&gt;Node24</title>
<path fill="none" stroke="midnightblue" d="M463.15,-320.08C446.08,-314.74 426.18,-308.52 410.08,-303.48"/>
<polygon fill="midnightblue" stroke="midnightblue" points="462.23,-323.46 472.82,-323.11 464.32,-316.78 462.23,-323.46"/>
</g>
<!-- Node27&#45;&gt;Node25 -->
<g id="edge48" class="edge">
<title>Node27&#45;&gt;Node25</title>
<path fill="none" stroke="midnightblue" d="M464.91,-344.37C428.16,-354.9 370.28,-365.44 325,-345.92 290.72,-331.14 264.65,-292.61 253.89,-274.54"/>
<polygon fill="midnightblue" stroke="midnightblue" points="466.13,-347.66 474.69,-341.42 464.11,-340.96 466.13,-347.66"/>
</g>
<!-- Node27&#45;&gt;Node26 -->
<g id="edge52" class="edge">
<title>Node27&#45;&gt;Node26</title>
<path fill="none" stroke="midnightblue" d="M493.68,-312.72C486.58,-293.66 475.75,-263.53 468,-236.92 448.58,-170.27 478.2,-136.74 432,-84.92 425.81,-77.97 416.88,-73.57 408.13,-70.77"/>
<polygon fill="midnightblue" stroke="midnightblue" points="490.5,-314.19 497.3,-322.31 497.05,-311.72 490.5,-314.19"/>
</g>
<!-- Node28&#45;&gt;Node13 -->
<g id="edge54" class="edge">
<title>Node28&#45;&gt;Node13</title>
<path fill="none" stroke="midnightblue" d="M489.13,-236.48C463.8,-276.1 405.18,-367.77 385.83,-398.03"/>
<polygon fill="midnightblue" stroke="midnightblue" points="492.37,-237.91 494.81,-227.6 486.47,-234.14 492.37,-237.91"/>
</g>
<!-- Node28&#45;&gt;Node15 -->
<g id="edge62" class="edge">
<title>Node28&#45;&gt;Node15</title>
<path fill="none" stroke="midnightblue" d="M499.83,-198.25C496.43,-161.15 483.22,-81.49 432,-46.92 348.51,9.43 300.67,-29.5 206,-63.92 163.23,-79.47 148.45,-83.22 119,-117.92 71.32,-174.1 50.15,-264.1 44.28,-293.38"/>
<polygon fill="midnightblue" stroke="midnightblue" points="496.34,-198.59 500.6,-208.3 503.32,-198.06 496.34,-198.59"/>
</g>
<!-- Node28&#45;&gt;Node16 -->
<g id="edge55" class="edge">
<title>Node28&#45;&gt;Node16</title>
<path fill="none" stroke="midnightblue" d="M493.68,-237.12C486.58,-256.18 475.75,-286.31 468,-312.92 448.58,-379.57 478.2,-413.1 432,-464.92 426.52,-471.07 418.89,-475.23 411.14,-478.05"/>
<polygon fill="midnightblue" stroke="midnightblue" points="497.05,-238.12 497.3,-227.53 490.5,-235.65 497.05,-238.12"/>
</g>
<!-- Node28&#45;&gt;Node18 -->
<g id="edge56" class="edge">
<title>Node28&#45;&gt;Node18</title>
<path fill="none" stroke="midnightblue" d="M481.81,-201.67C468.39,-190.76 449.76,-176.5 432,-165.92 422.96,-160.53 412.5,-155.53 403.31,-151.5"/>
<polygon fill="midnightblue" stroke="midnightblue" points="479.88,-204.61 489.82,-208.28 484.34,-199.22 479.88,-204.61"/>
</g>
<!-- Node28&#45;&gt;Node19 -->
<g id="edge58" class="edge">
<title>Node28&#45;&gt;Node19</title>
<path fill="none" stroke="midnightblue" d="M458.15,-209.77C409.84,-200.59 332.05,-185.8 286.04,-177.06"/>
<polygon fill="midnightblue" stroke="midnightblue" points="457.51,-213.22 467.99,-211.64 458.82,-206.34 457.51,-213.22"/>
</g>
<!-- Node28&#45;&gt;Node20 -->
<g id="edge57" class="edge">
<title>Node28&#45;&gt;Node20</title>
<path fill="none" stroke="midnightblue" d="M491.92,-199.39C480.62,-178.13 459.42,-143.55 432,-122.92 426.89,-119.07 420.92,-115.95 414.88,-113.43"/>
<polygon fill="midnightblue" stroke="midnightblue" points="488.85,-201.08 496.52,-208.38 495.08,-197.88 488.85,-201.08"/>
</g>
<!-- Node28&#45;&gt;Node21 -->
<g id="edge59" class="edge">
<title>Node28&#45;&gt;Node21</title>
<path fill="none" stroke="midnightblue" d="M494.1,-237.25C487.31,-256.41 476.72,-286.61 468,-312.92 451.28,-363.35 468.79,-388.58 432,-426.92 427.97,-431.12 422.95,-434.39 417.62,-436.94"/>
<polygon fill="midnightblue" stroke="midnightblue" points="497.48,-238.19 497.54,-227.6 490.89,-235.85 497.48,-238.19"/>
</g>
<!-- Node28&#45;&gt;Node22 -->
<g id="edge60" class="edge">
<title>Node28&#45;&gt;Node22</title>
<path fill="none" stroke="midnightblue" d="M460.47,-230.59C443.14,-236.01 423.34,-242.21 407.65,-247.12"/>
<polygon fill="midnightblue" stroke="midnightblue" points="461.84,-233.83 470.34,-227.51 459.75,-227.15 461.84,-233.83"/>
</g>
<!-- Node28&#45;&gt;Node23 -->
<g id="edge63" class="edge">
<title>Node28&#45;&gt;Node23</title>
<path fill="none" stroke="midnightblue" d="M493.42,-237.05C486.12,-256.05 475.15,-286.14 468,-312.92 445.84,-395.96 470.6,-426.13 432,-502.92 422.21,-522.39 403.79,-540.05 391.58,-550.38"/>
<polygon fill="midnightblue" stroke="midnightblue" points="496.78,-238.07 497.15,-227.48 490.26,-235.53 496.78,-238.07"/>
</g>
<!-- Node28&#45;&gt;Node24 -->
<g id="edge64" class="edge">
<title>Node28&#45;&gt;Node24</title>
<path fill="none" stroke="midnightblue" d="M484.12,-234.71C470.86,-247.15 451.44,-263.82 432,-274.92 425.6,-278.57 418.38,-281.73 411.38,-284.37"/>
<polygon fill="midnightblue" stroke="midnightblue" points="486.74,-237.04 491.52,-227.59 481.89,-232 486.74,-237.04"/>
</g>
<!-- Node28&#45;&gt;Node25 -->
<g id="edge61" class="edge">
<title>Node28&#45;&gt;Node25</title>
<path fill="none" stroke="midnightblue" d="M457.7,-219.66C421.77,-221.8 369.54,-226.53 325,-236.92 305.99,-241.35 285.25,-249.14 270.16,-255.38"/>
<polygon fill="midnightblue" stroke="midnightblue" points="458.05,-223.14 467.84,-219.1 457.66,-216.16 458.05,-223.14"/>
</g>
<!-- Node28&#45;&gt;Node26 -->
<g id="edge65" class="edge">
<title>Node28&#45;&gt;Node26</title>
<path fill="none" stroke="midnightblue" d="M495.93,-198.72C487.41,-170.05 467.56,-116.09 432,-84.92 425.22,-78.98 416.44,-74.85 408,-71.99"/>
<polygon fill="midnightblue" stroke="midnightblue" points="492.57,-199.7 498.65,-208.37 499.31,-197.8 492.57,-199.7"/>
</g>
<!-- Node29&#45;&gt;Node12 -->
<g id="edge68" class="edge">
<title>Node29&#45;&gt;Node12</title>
<path fill="none" stroke="midnightblue" d="M687.61,-299.95C672.82,-294.89 656.17,-289.19 642.5,-284.51"/>
<polygon fill="midnightblue" stroke="midnightblue" points="686.9,-303.4 697.49,-303.33 689.16,-296.78 686.9,-303.4"/>
</g>
<!-- Node29&#45;&gt;Node27 -->
<g id="edge69" class="edge">
<title>Node29&#45;&gt;Node27</title>
<path fill="none" stroke="midnightblue" d="M680.74,-316.74C636.08,-320.56 568.86,-326.3 531.18,-329.51"/>
<polygon fill="midnightblue" stroke="midnightblue" points="681.07,-320.23 690.73,-315.89 680.47,-313.25 681.07,-320.23"/>
</g>
</g>
</svg>
