<?xml version="1.0" encoding="UTF-8" standalone="no"?>
<!DOCTYPE svg PUBLIC "-//W3C//DTD SVG 1.1//EN"
 "http://www.w3.org/Graphics/SVG/1.1/DTD/svg11.dtd">
<!-- Generated by graphviz version 2.50.0 (20220203.2022)
 -->
<!-- Title: inb Pages: 1 -->
<svg width="671pt" height="218pt"
 viewBox="0.00 0.00 671.00 218.00" xmlns="http://www.w3.org/2000/svg" xmlns:xlink="http://www.w3.org/1999/xlink">
<g id="graph0" class="graph" transform="scale(1 1) rotate(0) translate(4 214)">
<title>inb</title>
<!-- Node1 -->
<g id="node1" class="node">
<title>Node1</title>
<g id="a_node1"><a xlink:title=" ">
<polygon fill="#bfbfbf" stroke="black" points="634,-95.5 634,-114.5 663,-114.5 663,-95.5 634,-95.5"/>
<text text-anchor="middle" x="648.5" y="-102.5" font-family="Helvetica,sans-Serif" font-size="10.00">inb</text>
</a>
</g>
</g>
<!-- Node2 -->
<g id="node2" class="node">
<title>Node2</title>
<g id="a_node2"><a xlink:href="trm_8c.html#afa4d35ce31ec846cb9da5f17455f54c0" target="_top" xlink:title=" ">
<polygon fill="none" stroke="black" points="513,-190.5 513,-209.5 598,-209.5 598,-190.5 513,-190.5"/>
<text text-anchor="middle" x="555.5" y="-197.5" font-family="Helvetica,sans-Serif" font-size="10.00">__am_heap_init</text>
</a>
</g>
</g>
<!-- Node1&#45;&gt;Node2 -->
<g id="edge1" class="edge">
<title>Node1&#45;&gt;Node2</title>
<path fill="none" stroke="midnightblue" d="M638.94,-124.03C630.56,-140.87 616.37,-165.16 598,-181 593.68,-184.73 588.51,-187.86 583.3,-190.44"/>
<polygon fill="midnightblue" stroke="midnightblue" points="642.27,-125.18 643.4,-114.65 635.94,-122.18 642.27,-125.18"/>
</g>
<!-- Node5 -->
<g id="node5" class="node">
<title>Node5</title>
<g id="a_node5"><a xlink:href="ioe_8c.html#a9a985e3ea9e55d83a2a494ff3e1ca84b" target="_top" xlink:title=" ">
<polygon fill="none" stroke="black" points="519,-152.5 519,-171.5 592,-171.5 592,-152.5 519,-152.5"/>
<text text-anchor="middle" x="555.5" y="-159.5" font-family="Helvetica,sans-Serif" font-size="10.00">__attribute__</text>
</a>
</g>
</g>
<!-- Node1&#45;&gt;Node5 -->
<g id="edge4" class="edge">
<title>Node1&#45;&gt;Node5</title>
<path fill="none" stroke="midnightblue" d="M628.75,-121C619.78,-128.22 608.69,-136.56 598,-143 592.3,-146.43 585.87,-149.66 579.81,-152.44"/>
<polygon fill="midnightblue" stroke="midnightblue" points="631.13,-123.58 636.61,-114.51 626.67,-118.18 631.13,-123.58"/>
</g>
<!-- Node6 -->
<g id="node6" class="node">
<title>Node6</title>
<g id="a_node6"><a xlink:href="ioe_8c.html#a124b85735169c7add3c491093ffbc00e" target="_top" xlink:title=" ">
<polygon fill="none" stroke="black" points="529.5,-114.5 529.5,-133.5 581.5,-133.5 581.5,-114.5 529.5,-114.5"/>
<text text-anchor="middle" x="555.5" y="-121.5" font-family="Helvetica,sans-Serif" font-size="10.00">read_rtc</text>
</a>
</g>
</g>
<!-- Node1&#45;&gt;Node6 -->
<g id="edge5" class="edge">
<title>Node1&#45;&gt;Node6</title>
<path fill="none" stroke="midnightblue" d="M623.71,-109.97C610.83,-112.66 594.93,-115.98 581.83,-118.71"/>
<polygon fill="midnightblue" stroke="midnightblue" points="624.61,-113.36 633.68,-107.89 623.17,-106.5 624.61,-113.36"/>
</g>
<!-- Node13 -->
<g id="node13" class="node">
<title>Node13</title>
<g id="a_node13"><a xlink:href="ioe_8c.html#aa6bed8ea45612252dec485e7a9331a9d" target="_top" xlink:title=" ">
<polygon fill="none" stroke="black" points="187.5,-76.5 187.5,-95.5 238.5,-95.5 238.5,-76.5 187.5,-76.5"/>
<text text-anchor="middle" x="213" y="-83.5" font-family="Helvetica,sans-Serif" font-size="10.00">uart_init</text>
</a>
</g>
</g>
<!-- Node1&#45;&gt;Node13 -->
<g id="edge15" class="edge">
<title>Node1&#45;&gt;Node13</title>
<path fill="none" stroke="midnightblue" d="M623.14,-103.93C547.14,-100.6 314.93,-90.42 238.6,-87.08"/>
<polygon fill="midnightblue" stroke="midnightblue" points="623.42,-107.45 633.57,-104.39 623.73,-100.45 623.42,-107.45"/>
</g>
<!-- Node14 -->
<g id="node14" class="node">
<title>Node14</title>
<g id="a_node14"><a xlink:href="ioe_8c.html#a3eeca7b38eabb3bda0761e7713b35881" target="_top" xlink:title=" ">
<polygon fill="none" stroke="black" points="532.5,-38.5 532.5,-57.5 578.5,-57.5 578.5,-38.5 532.5,-38.5"/>
<text text-anchor="middle" x="555.5" y="-45.5" font-family="Helvetica,sans-Serif" font-size="10.00">uart_rx</text>
</a>
</g>
</g>
<!-- Node1&#45;&gt;Node14 -->
<g id="edge17" class="edge">
<title>Node1&#45;&gt;Node14</title>
<path fill="none" stroke="midnightblue" d="M625.5,-89.9C616.98,-84.17 607.11,-77.67 598,-72 590.08,-67.08 581.15,-61.87 573.61,-57.57"/>
<polygon fill="midnightblue" stroke="midnightblue" points="623.54,-92.8 633.78,-95.52 627.47,-87.01 623.54,-92.8"/>
</g>
<!-- Node15 -->
<g id="node15" class="node">
<title>Node15</title>
<g id="a_node15"><a xlink:href="ioe_8c.html#acbf8b730fa8737d9316857c2e9c16cb0" target="_top" xlink:title=" ">
<polygon fill="none" stroke="black" points="526.5,-0.5 526.5,-19.5 584.5,-19.5 584.5,-0.5 526.5,-0.5"/>
<text text-anchor="middle" x="555.5" y="-7.5" font-family="Helvetica,sans-Serif" font-size="10.00">wait_disk</text>
</a>
</g>
</g>
<!-- Node1&#45;&gt;Node15 -->
<g id="edge18" class="edge">
<title>Node1&#45;&gt;Node15</title>
<path fill="none" stroke="midnightblue" d="M638.94,-85.97C630.56,-69.13 616.37,-44.84 598,-29 593.68,-25.27 588.51,-22.14 583.3,-19.56"/>
<polygon fill="midnightblue" stroke="midnightblue" points="635.94,-87.82 643.4,-95.35 642.27,-84.82 635.94,-87.82"/>
</g>
<!-- Node3 -->
<g id="node3" class="node">
<title>Node3</title>
<g id="a_node3"><a xlink:href="trm_8c.html#a75e130ff99ad31f9a1df206b5ff8252a" target="_top" xlink:title=" ">
<polygon fill="none" stroke="black" points="379,-190.5 379,-209.5 477,-209.5 477,-190.5 379,-190.5"/>
<text text-anchor="middle" x="428" y="-197.5" font-family="Helvetica,sans-Serif" font-size="10.00">__am_bootcpu_init</text>
</a>
</g>
</g>
<!-- Node2&#45;&gt;Node3 -->
<g id="edge2" class="edge">
<title>Node2&#45;&gt;Node3</title>
<path fill="none" stroke="midnightblue" d="M502.6,-200C494.16,-200 485.46,-200 477.12,-200"/>
<polygon fill="midnightblue" stroke="midnightblue" points="502.71,-203.5 512.71,-200 502.71,-196.5 502.71,-203.5"/>
</g>
<!-- Node4 -->
<g id="node4" class="node">
<title>Node4</title>
<g id="a_node4"><a xlink:href="trm_8c.html#a54a85aeee6f6a8ef875d4cca663f9fd8" target="_top" xlink:title=" ">
<polygon fill="none" stroke="black" points="289,-190.5 289,-209.5 341,-209.5 341,-190.5 289,-190.5"/>
<text text-anchor="middle" x="315" y="-197.5" font-family="Helvetica,sans-Serif" font-size="10.00">_start_c</text>
</a>
</g>
</g>
<!-- Node3&#45;&gt;Node4 -->
<g id="edge3" class="edge">
<title>Node3&#45;&gt;Node4</title>
<path fill="none" stroke="midnightblue" d="M368.84,-200C359.12,-200 349.5,-200 341.2,-200"/>
<polygon fill="midnightblue" stroke="midnightblue" points="368.96,-203.5 378.96,-200 368.96,-196.5 368.96,-203.5"/>
</g>
<!-- Node7 -->
<g id="node7" class="node">
<title>Node7</title>
<g id="a_node7"><a xlink:href="ioe_8c.html#ad0681f53bec9167d7a8d4d848b3ce2e0" target="_top" xlink:title=" ">
<polygon fill="none" stroke="black" points="386.5,-114.5 386.5,-133.5 469.5,-133.5 469.5,-114.5 386.5,-114.5"/>
<text text-anchor="middle" x="428" y="-121.5" font-family="Helvetica,sans-Serif" font-size="10.00">read_rtc_async</text>
</a>
</g>
</g>
<!-- Node6&#45;&gt;Node7 -->
<g id="edge6" class="edge">
<title>Node6&#45;&gt;Node7</title>
<path fill="none" stroke="midnightblue" d="M519.27,-124C503.91,-124 485.81,-124 469.86,-124"/>
<polygon fill="midnightblue" stroke="midnightblue" points="519.4,-127.5 529.4,-124 519.4,-120.5 519.4,-127.5"/>
</g>
<!-- Node8 -->
<g id="node8" class="node">
<title>Node8</title>
<g id="a_node8"><a xlink:href="ioe_8c.html#a7b167e0bb31c8168406860a278ce693a" target="_top" xlink:title=" ">
<polygon fill="none" stroke="black" points="287.5,-152.5 287.5,-171.5 342.5,-171.5 342.5,-152.5 287.5,-152.5"/>
<text text-anchor="middle" x="315" y="-159.5" font-family="Helvetica,sans-Serif" font-size="10.00">timer_rtc</text>
</a>
</g>
</g>
<!-- Node6&#45;&gt;Node8 -->
<g id="edge14" class="edge">
<title>Node6&#45;&gt;Node8</title>
<path fill="none" stroke="midnightblue" d="M519.12,-133.64C505.97,-136.97 490.88,-140.49 477,-143 430.06,-151.49 374.7,-157.07 342.64,-159.87"/>
<polygon fill="midnightblue" stroke="midnightblue" points="520.38,-136.93 529.19,-131.04 518.63,-130.16 520.38,-136.93"/>
</g>
<!-- Node7&#45;&gt;Node8 -->
<g id="edge7" class="edge">
<title>Node7&#45;&gt;Node8</title>
<path fill="none" stroke="midnightblue" d="M389.31,-136.9C374.06,-142.13 356.79,-148.03 342.85,-152.81"/>
<polygon fill="midnightblue" stroke="midnightblue" points="390.66,-140.14 398.99,-133.59 388.4,-133.52 390.66,-140.14"/>
</g>
<!-- Node11 -->
<g id="node11" class="node">
<title>Node11</title>
<g id="a_node11"><a xlink:href="ioe_8c.html#a716ac8111009464db83866c3b49adbbb" target="_top" xlink:title=" ">
<polygon fill="none" stroke="black" points="287,-114.5 287,-133.5 343,-133.5 343,-114.5 287,-114.5"/>
<text text-anchor="middle" x="315" y="-121.5" font-family="Helvetica,sans-Serif" font-size="10.00">wait_sec</text>
</a>
</g>
</g>
<!-- Node7&#45;&gt;Node11 -->
<g id="edge10" class="edge">
<title>Node7&#45;&gt;Node11</title>
<path fill="none" stroke="midnightblue" d="M376.02,-124C364.7,-124 353.12,-124 343.2,-124"/>
<polygon fill="midnightblue" stroke="midnightblue" points="376.3,-127.5 386.3,-124 376.3,-120.5 376.3,-127.5"/>
</g>
<!-- Node9 -->
<g id="node9" class="node">
<title>Node9</title>
<g id="a_node9"><a xlink:href="ioe_8c.html#ac17b85035372c81a45e604e6b4783db2" target="_top" xlink:title=" ">
<polygon fill="none" stroke="black" points="83,-114.5 83,-133.5 139,-133.5 139,-114.5 83,-114.5"/>
<text text-anchor="middle" x="111" y="-121.5" font-family="Helvetica,sans-Serif" font-size="10.00">timer_init</text>
</a>
</g>
</g>
<!-- Node8&#45;&gt;Node9 -->
<g id="edge8" class="edge">
<title>Node8&#45;&gt;Node9</title>
<path fill="none" stroke="midnightblue" d="M277.02,-166.87C248.59,-169.39 208.62,-170.27 175,-161 155.68,-155.67 136.21,-142.83 124.13,-133.77"/>
<polygon fill="midnightblue" stroke="midnightblue" points="277.71,-170.32 287.31,-165.84 277.01,-163.35 277.71,-170.32"/>
</g>
<!-- Node10 -->
<g id="node10" class="node">
<title>Node10</title>
<g id="a_node10"><a xlink:href="ioe_8c.html#a45ecef4130276c1c79d872c582cd3839" target="_top" xlink:title=" ">
<polygon fill="none" stroke="black" points="0,-95.5 0,-114.5 47,-114.5 47,-95.5 0,-95.5"/>
<text text-anchor="middle" x="23.5" y="-102.5" font-family="Helvetica,sans-Serif" font-size="10.00">ioe_init</text>
</a>
</g>
</g>
<!-- Node9&#45;&gt;Node10 -->
<g id="edge9" class="edge">
<title>Node9&#45;&gt;Node10</title>
<path fill="none" stroke="midnightblue" d="M73.16,-115.81C64.29,-113.84 55.07,-111.79 47.08,-110.02"/>
<polygon fill="midnightblue" stroke="midnightblue" points="72.43,-119.24 82.95,-117.99 73.94,-112.4 72.43,-119.24"/>
</g>
<!-- Node12 -->
<g id="node12" class="node">
<title>Node12</title>
<g id="a_node12"><a xlink:href="ioe_8c.html#a8f4d57167e8d4b53c00c84e504f330ef" target="_top" xlink:title=" ">
<polygon fill="none" stroke="black" points="175,-114.5 175,-133.5 251,-133.5 251,-114.5 175,-114.5"/>
<text text-anchor="middle" x="213" y="-121.5" font-family="Helvetica,sans-Serif" font-size="10.00">estimate_freq</text>
</a>
</g>
</g>
<!-- Node11&#45;&gt;Node12 -->
<g id="edge11" class="edge">
<title>Node11&#45;&gt;Node12</title>
<path fill="none" stroke="midnightblue" d="M276.73,-124C268.39,-124 259.55,-124 251.22,-124"/>
<polygon fill="midnightblue" stroke="midnightblue" points="276.94,-127.5 286.94,-124 276.94,-120.5 276.94,-127.5"/>
</g>
<!-- Node12&#45;&gt;Node9 -->
<g id="edge13" class="edge">
<title>Node12&#45;&gt;Node9</title>
<path fill="none" stroke="midnightblue" d="M164.65,-124C155.95,-124 147.13,-124 139.27,-124"/>
<polygon fill="midnightblue" stroke="midnightblue" points="164.76,-127.5 174.76,-124 164.76,-120.5 164.76,-127.5"/>
</g>
<!-- Node12&#45;&gt;Node12 -->
<g id="edge12" class="edge">
<title>Node12&#45;&gt;Node12</title>
<path fill="none" stroke="midnightblue" d="M231.89,-143.4C230.63,-148.31 224.33,-152 213,-152 194.87,-152 189.63,-142.57 197.28,-133.76"/>
<polygon fill="midnightblue" stroke="midnightblue" points="235.17,-142.17 228.72,-133.76 228.52,-144.35 235.17,-142.17"/>
</g>
<!-- Node13&#45;&gt;Node10 -->
<g id="edge16" class="edge">
<title>Node13&#45;&gt;Node10</title>
<path fill="none" stroke="midnightblue" d="M177.41,-89.51C139.47,-93.35 79.69,-99.41 47.26,-102.69"/>
<polygon fill="midnightblue" stroke="midnightblue" points="177.89,-92.97 187.49,-88.48 177.19,-86.01 177.89,-92.97"/>
</g>
<!-- Node16 -->
<g id="node16" class="node">
<title>Node16</title>
<g id="a_node16"><a xlink:href="ioe_8c.html#a98996b418230bb2594578ebd944e682c" target="_top" xlink:title=" ">
<polygon fill="none" stroke="black" points="398,-0.5 398,-19.5 458,-19.5 458,-0.5 398,-0.5"/>
<text text-anchor="middle" x="428" y="-7.5" font-family="Helvetica,sans-Serif" font-size="10.00">disk_blkio</text>
</a>
</g>
</g>
<!-- Node15&#45;&gt;Node16 -->
<g id="edge19" class="edge">
<title>Node15&#45;&gt;Node16</title>
<path fill="none" stroke="midnightblue" d="M516.13,-10C497.56,-10 475.6,-10 458.38,-10"/>
<polygon fill="midnightblue" stroke="midnightblue" points="516.34,-13.5 526.34,-10 516.34,-6.5 516.34,-13.5"/>
</g>
</g>
</svg>
