<?xml version="1.0" encoding="UTF-8" standalone="no"?>
<!DOCTYPE svg PUBLIC "-//W3C//DTD SVG 1.1//EN"
 "http://www.w3.org/Graphics/SVG/1.1/DTD/svg11.dtd">
<!-- Generated by graphviz version 3.0.0 (20220413.0106)
 -->
<!-- Title: stack_switch_call Pages: 1 -->
<svg width="337pt" height="47pt"
 viewBox="0.00 0.00 337.00 47.00" xmlns="http://www.w3.org/2000/svg" xmlns:xlink="http://www.w3.org/1999/xlink">
<g id="graph0" class="graph" transform="scale(1 1) rotate(0) translate(4 43)">
<title>stack_switch_call</title>
<!-- Node1 -->
<g id="node1" class="node">
<title>Node1</title>
<g id="a_node1"><a xlink:title=" ">
<polygon fill="#bfbfbf" stroke="black" points="234,-0.5 234,-19.5 329,-19.5 329,-0.5 234,-0.5"/>
<text text-anchor="middle" x="281.5" y="-7.5" font-family="Helvetica,sans-Serif" font-size="10.00">stack_switch_call</text>
</a>
</g>
</g>
<!-- Node2 -->
<g id="node2" class="node">
<title>Node2</title>
<g id="a_node2"><a xlink:href="mpe_8c.html#af9524b1c09898b69d9980310682a8bea" target="_top" xlink:title=" ">
<polygon fill="none" stroke="black" points="88,-19.5 88,-38.5 198,-38.5 198,-19.5 88,-19.5"/>
<text text-anchor="middle" x="143" y="-26.5" font-family="Helvetica,sans-Serif" font-size="10.00">__am_othercpu_entry</text>
</a>
</g>
</g>
<!-- Node1&#45;&gt;Node2 -->
<g id="edge1" class="edge">
<title>Node1&#45;&gt;Node2</title>
<path fill="none" stroke="midnightblue" d="M223.8,-17.89C215.39,-19.06 206.74,-20.27 198.38,-21.43"/>
<polygon fill="midnightblue" stroke="midnightblue" points="224.48,-21.33 233.91,-16.49 223.52,-14.4 224.48,-21.33"/>
</g>
<!-- Node3 -->
<g id="node3" class="node">
<title>Node3</title>
<g id="a_node3"><a xlink:href="trm_8c.html#a54a85aeee6f6a8ef875d4cca663f9fd8" target="_top" xlink:title=" ">
<polygon fill="none" stroke="black" points="0,-0.5 0,-19.5 52,-19.5 52,-0.5 0,-0.5"/>
<text text-anchor="middle" x="26" y="-7.5" font-family="Helvetica,sans-Serif" font-size="10.00">_start_c</text>
</a>
</g>
</g>
<!-- Node1&#45;&gt;Node3 -->
<g id="edge3" class="edge">
<title>Node1&#45;&gt;Node3</title>
<path fill="none" stroke="midnightblue" d="M223.65,-10C169.99,-10 92.01,-10 52.29,-10"/>
<polygon fill="midnightblue" stroke="midnightblue" points="223.71,-13.5 233.71,-10 223.71,-6.5 223.71,-13.5"/>
</g>
<!-- Node2&#45;&gt;Node3 -->
<g id="edge2" class="edge">
<title>Node2&#45;&gt;Node3</title>
<path fill="none" stroke="midnightblue" d="M77.93,-18.41C68.82,-16.91 59.92,-15.44 52.19,-14.16"/>
<polygon fill="midnightblue" stroke="midnightblue" points="77.43,-21.88 87.87,-20.06 78.57,-14.97 77.43,-21.88"/>
</g>
</g>
</svg>
