<?xml version="1.0" encoding="UTF-8" standalone="no"?>
<!DOCTYPE svg PUBLIC "-//W3C//DTD SVG 1.1//EN"
 "http://www.w3.org/Graphics/SVG/1.1/DTD/svg11.dtd">
<!-- Generated by graphviz version 3.0.0 (20220413.0106)
 -->
<!-- Title: outb Pages: 1 -->
<svg width="829pt" height="303pt"
 viewBox="0.00 0.00 829.00 303.00" xmlns="http://www.w3.org/2000/svg" xmlns:xlink="http://www.w3.org/1999/xlink">
<g id="graph0" class="graph" transform="scale(1 1) rotate(0) translate(4 299)">
<title>outb</title>
<!-- Node1 -->
<g id="node1" class="node">
<title>Node1</title>
<g id="a_node1"><a xlink:title=" ">
<polygon fill="#bfbfbf" stroke="black" points="786,-161.5 786,-180.5 821,-180.5 821,-161.5 786,-161.5"/>
<text text-anchor="middle" x="803.5" y="-168.5" font-family="Helvetica,sans-Serif" font-size="10.00">outb</text>
</a>
</g>
</g>
<!-- Node2 -->
<g id="node2" class="node">
<title>Node2</title>
<g id="a_node2"><a xlink:href="trm_8c.html#afa4d35ce31ec846cb9da5f17455f54c0" target="_top" xlink:title=" ">
<polygon fill="none" stroke="black" points="657,-275.5 657,-294.5 742,-294.5 742,-275.5 657,-275.5"/>
<text text-anchor="middle" x="699.5" y="-282.5" font-family="Helvetica,sans-Serif" font-size="10.00">__am_heap_init</text>
</a>
</g>
</g>
<!-- Node1&#45;&gt;Node2 -->
<g id="edge1" class="edge">
<title>Node1&#45;&gt;Node2</title>
<path fill="none" stroke="midnightblue" d="M795.27,-190.16C786.95,-210.05 771.6,-241 750,-261 743.55,-266.97 735.35,-271.75 727.48,-275.42"/>
<polygon fill="midnightblue" stroke="midnightblue" points="798.62,-191.22 799.07,-180.64 792.12,-188.63 798.62,-191.22"/>
</g>
<!-- Node5 -->
<g id="node5" class="node">
<title>Node5</title>
<g id="a_node5"><a xlink:href="ioe_8c.html#a88a238fee7cd006afa69ea97e4914a09" target="_top" xlink:title=" ">
<polygon fill="none" stroke="black" points="649,-161.5 649,-180.5 750,-180.5 750,-161.5 649,-161.5"/>
<text text-anchor="middle" x="699.5" y="-168.5" font-family="Helvetica,sans-Serif" font-size="10.00">__am_lapic_bootap</text>
</a>
</g>
</g>
<!-- Node1&#45;&gt;Node5 -->
<g id="edge4" class="edge">
<title>Node1&#45;&gt;Node5</title>
<path fill="none" stroke="midnightblue" d="M775.46,-171C767.73,-171 759.05,-171 750.41,-171"/>
<polygon fill="midnightblue" stroke="midnightblue" points="775.66,-174.5 785.66,-171 775.66,-167.5 775.66,-174.5"/>
</g>
<!-- Node11 -->
<g id="node11" class="node">
<title>Node11</title>
<g id="a_node11"><a xlink:href="ioe_8c.html#a98996b418230bb2594578ebd944e682c" target="_top" xlink:title=" ">
<polygon fill="none" stroke="black" points="669.5,-199.5 669.5,-218.5 729.5,-218.5 729.5,-199.5 669.5,-199.5"/>
<text text-anchor="middle" x="699.5" y="-206.5" font-family="Helvetica,sans-Serif" font-size="10.00">disk_blkio</text>
</a>
</g>
</g>
<!-- Node1&#45;&gt;Node11 -->
<g id="edge11" class="edge">
<title>Node1&#45;&gt;Node11</title>
<path fill="none" stroke="midnightblue" d="M776.19,-180.8C760.8,-186.53 741.45,-193.74 726.17,-199.44"/>
<polygon fill="midnightblue" stroke="midnightblue" points="777.51,-184.05 785.66,-177.27 775.06,-177.49 777.51,-184.05"/>
</g>
<!-- Node12 -->
<g id="node12" class="node">
<title>Node12</title>
<g id="a_node12"><a xlink:href="trm_8c.html#a6351d8706733262e7e325926b1a9aab7" target="_top" xlink:title=" ">
<polygon fill="none" stroke="black" points="536.5,-237.5 536.5,-256.5 577.5,-256.5 577.5,-237.5 536.5,-237.5"/>
<text text-anchor="middle" x="557" y="-244.5" font-family="Helvetica,sans-Serif" font-size="10.00">putch</text>
</a>
</g>
</g>
<!-- Node1&#45;&gt;Node12 -->
<g id="edge12" class="edge">
<title>Node1&#45;&gt;Node12</title>
<path fill="none" stroke="midnightblue" d="M791.22,-189.05C781.91,-202.25 767.41,-219.32 750,-228 692.75,-256.55 614.05,-253.07 577.77,-249.47"/>
<polygon fill="midnightblue" stroke="midnightblue" points="794.17,-190.93 796.82,-180.67 788.35,-187.05 794.17,-190.93"/>
</g>
<!-- Node13 -->
<g id="node13" class="node">
<title>Node13</title>
<g id="a_node13"><a xlink:href="ioe_8c.html#a124b85735169c7add3c491093ffbc00e" target="_top" xlink:title=" ">
<polygon fill="none" stroke="black" points="673.5,-114.5 673.5,-133.5 725.5,-133.5 725.5,-114.5 673.5,-114.5"/>
<text text-anchor="middle" x="699.5" y="-121.5" font-family="Helvetica,sans-Serif" font-size="10.00">read_rtc</text>
</a>
</g>
</g>
<!-- Node1&#45;&gt;Node13 -->
<g id="edge14" class="edge">
<title>Node1&#45;&gt;Node13</title>
<path fill="none" stroke="midnightblue" d="M776.23,-158.9C759.13,-151.02 737.13,-140.88 721.25,-133.56"/>
<polygon fill="midnightblue" stroke="midnightblue" points="775.11,-162.23 785.66,-163.24 778.04,-155.88 775.11,-162.23"/>
</g>
<!-- Node20 -->
<g id="node20" class="node">
<title>Node20</title>
<g id="a_node20"><a xlink:href="ioe_8c.html#aa6bed8ea45612252dec485e7a9331a9d" target="_top" xlink:title=" ">
<polygon fill="none" stroke="black" points="267.5,-29.5 267.5,-48.5 318.5,-48.5 318.5,-29.5 267.5,-29.5"/>
<text text-anchor="middle" x="293" y="-36.5" font-family="Helvetica,sans-Serif" font-size="10.00">uart_init</text>
</a>
</g>
</g>
<!-- Node1&#45;&gt;Node20 -->
<g id="edge25" class="edge">
<title>Node1&#45;&gt;Node20</title>
<path fill="none" stroke="midnightblue" d="M792.91,-152.34C783.98,-136.98 769.16,-116.01 750,-105 604.16,-21.25 390.29,-30.55 318.51,-36.55"/>
<polygon fill="midnightblue" stroke="midnightblue" points="790.04,-154.38 797.92,-161.46 796.18,-151.01 790.04,-154.38"/>
</g>
<!-- Node21 -->
<g id="node21" class="node">
<title>Node21</title>
<g id="a_node21"><a xlink:href="ioe_8c.html#ae98b842dcd8760104640a30c32954f6b" target="_top" xlink:title=" ">
<polygon fill="none" stroke="black" points="676.5,-0.5 676.5,-19.5 722.5,-19.5 722.5,-0.5 676.5,-0.5"/>
<text text-anchor="middle" x="699.5" y="-7.5" font-family="Helvetica,sans-Serif" font-size="10.00">uart_tx</text>
</a>
</g>
</g>
<!-- Node1&#45;&gt;Node21 -->
<g id="edge27" class="edge">
<title>Node1&#45;&gt;Node21</title>
<path fill="none" stroke="midnightblue" d="M799.65,-151.35C794.51,-122.37 781.17,-67.96 750,-34 742.77,-26.12 732.39,-20.54 723,-16.76"/>
<polygon fill="midnightblue" stroke="midnightblue" points="796.23,-152.12 801.28,-161.43 803.14,-151 796.23,-152.12"/>
</g>
<!-- Node3 -->
<g id="node3" class="node">
<title>Node3</title>
<g id="a_node3"><a xlink:href="trm_8c.html#a75e130ff99ad31f9a1df206b5ff8252a" target="_top" xlink:title=" ">
<polygon fill="none" stroke="black" points="367,-275.5 367,-294.5 465,-294.5 465,-275.5 367,-275.5"/>
<text text-anchor="middle" x="416" y="-282.5" font-family="Helvetica,sans-Serif" font-size="10.00">__am_bootcpu_init</text>
</a>
</g>
</g>
<!-- Node2&#45;&gt;Node3 -->
<g id="edge2" class="edge">
<title>Node2&#45;&gt;Node3</title>
<path fill="none" stroke="midnightblue" d="M646.66,-285C594.86,-285 515.85,-285 465.32,-285"/>
<polygon fill="midnightblue" stroke="midnightblue" points="646.96,-288.5 656.96,-285 646.96,-281.5 646.96,-288.5"/>
</g>
<!-- Node4 -->
<g id="node4" class="node">
<title>Node4</title>
<g id="a_node4"><a xlink:href="trm_8c.html#a54a85aeee6f6a8ef875d4cca663f9fd8" target="_top" xlink:title=" ">
<polygon fill="none" stroke="black" points="165,-256.5 165,-275.5 217,-275.5 217,-256.5 165,-256.5"/>
<text text-anchor="middle" x="191" y="-263.5" font-family="Helvetica,sans-Serif" font-size="10.00">_start_c</text>
</a>
</g>
</g>
<!-- Node3&#45;&gt;Node4 -->
<g id="edge3" class="edge">
<title>Node3&#45;&gt;Node4</title>
<path fill="none" stroke="midnightblue" d="M356.89,-280.05C311.59,-276.19 250.89,-271.02 217.2,-268.15"/>
<polygon fill="midnightblue" stroke="midnightblue" points="356.63,-283.54 366.89,-280.9 357.22,-276.56 356.63,-283.54"/>
</g>
<!-- Node6 -->
<g id="node6" class="node">
<title>Node6</title>
<g id="a_node6"><a xlink:href="mpe_8c.html#a0a540532023afb1f31b6f21ce053483b" target="_top" xlink:title=" ">
<polygon fill="none" stroke="black" points="501,-199.5 501,-218.5 613,-218.5 613,-199.5 501,-199.5"/>
<text text-anchor="middle" x="557" y="-206.5" font-family="Helvetica,sans-Serif" font-size="10.00">__am_stop_the_world</text>
</a>
</g>
</g>
<!-- Node5&#45;&gt;Node6 -->
<g id="edge5" class="edge">
<title>Node5&#45;&gt;Node6</title>
<path fill="none" stroke="midnightblue" d="M653.22,-183.25C633.86,-188.48 611.58,-194.51 593.44,-199.41"/>
<polygon fill="midnightblue" stroke="midnightblue" points="654.31,-186.58 663.05,-180.59 652.48,-179.82 654.31,-186.58"/>
</g>
<!-- Node9 -->
<g id="node9" class="node">
<title>Node9</title>
<g id="a_node9"><a xlink:href="mpe_8c.html#a2e4a724e2d067425ff3fd49bc0bf42e1" target="_top" xlink:title=" ">
<polygon fill="none" stroke="black" points="74,-142.5 74,-161.5 127,-161.5 127,-142.5 74,-142.5"/>
<text text-anchor="middle" x="100.5" y="-149.5" font-family="Helvetica,sans-Serif" font-size="10.00">mpe_init</text>
</a>
</g>
</g>
<!-- Node5&#45;&gt;Node9 -->
<g id="edge9" class="edge">
<title>Node5&#45;&gt;Node9</title>
<path fill="none" stroke="midnightblue" d="M638.65,-171C581.67,-171 493.49,-171 417,-171 417,-171 417,-171 292,-171 232.84,-171 163.85,-161.81 127.3,-156.22"/>
<polygon fill="midnightblue" stroke="midnightblue" points="638.92,-174.5 648.92,-171 638.92,-167.5 638.92,-174.5"/>
</g>
<!-- Node7 -->
<g id="node7" class="node">
<title>Node7</title>
<g id="a_node7"><a xlink:href="trm_8c.html#a483cb97188e557c3c68d3a1572c2cc92" target="_top" xlink:title=" ">
<polygon fill="none" stroke="black" points="400,-237.5 400,-256.5 432,-256.5 432,-237.5 400,-237.5"/>
<text text-anchor="middle" x="416" y="-244.5" font-family="Helvetica,sans-Serif" font-size="10.00">halt</text>
</a>
</g>
</g>
<!-- Node6&#45;&gt;Node7 -->
<g id="edge6" class="edge">
<title>Node6&#45;&gt;Node7</title>
<path fill="none" stroke="midnightblue" d="M511.19,-221.25C483.96,-228.69 450.92,-237.73 432.09,-242.87"/>
<polygon fill="midnightblue" stroke="midnightblue" points="512.2,-224.6 520.92,-218.59 510.36,-217.85 512.2,-224.6"/>
</g>
<!-- Node8 -->
<g id="node8" class="node">
<title>Node8</title>
<g id="a_node8"><a xlink:href="trm_8c.html#a12a49ff4d3a586b2315e292c5da3df7e" target="_top" xlink:title=" ">
<polygon fill="none" stroke="black" points="264,-237.5 264,-256.5 322,-256.5 322,-237.5 264,-237.5"/>
<text text-anchor="middle" x="293" y="-244.5" font-family="Helvetica,sans-Serif" font-size="10.00">call_main</text>
</a>
</g>
</g>
<!-- Node7&#45;&gt;Node8 -->
<g id="edge7" class="edge">
<title>Node7&#45;&gt;Node8</title>
<path fill="none" stroke="midnightblue" d="M389.59,-247C369.85,-247 342.49,-247 322.1,-247"/>
<polygon fill="midnightblue" stroke="midnightblue" points="389.68,-250.5 399.68,-247 389.68,-243.5 389.68,-250.5"/>
</g>
<!-- Node8&#45;&gt;Node4 -->
<g id="edge8" class="edge">
<title>Node8&#45;&gt;Node4</title>
<path fill="none" stroke="midnightblue" d="M253.87,-254.24C241.59,-256.58 228.29,-259.1 217.18,-261.22"/>
<polygon fill="midnightblue" stroke="midnightblue" points="254.71,-257.65 263.88,-252.34 253.4,-250.77 254.71,-257.65"/>
</g>
<!-- Node10 -->
<g id="node10" class="node">
<title>Node10</title>
<g id="a_node10"><a xlink:href="main_8c.html#ae66f6b31b5ad750f1fe042a706a4e3d4" target="_top" xlink:title=" ">
<polygon fill="none" stroke="black" points="0,-105.5 0,-124.5 38,-124.5 38,-105.5 0,-105.5"/>
<text text-anchor="middle" x="19" y="-112.5" font-family="Helvetica,sans-Serif" font-size="10.00">main</text>
</a>
</g>
</g>
<!-- Node9&#45;&gt;Node10 -->
<g id="edge10" class="edge">
<title>Node9&#45;&gt;Node10</title>
<path fill="none" stroke="midnightblue" d="M69.69,-138.13C59.12,-133.21 47.55,-127.82 38.23,-123.49"/>
<polygon fill="midnightblue" stroke="midnightblue" points="68.48,-141.43 79.03,-142.47 71.44,-135.08 68.48,-141.43"/>
</g>
<!-- Node12&#45;&gt;Node7 -->
<g id="edge13" class="edge">
<title>Node12&#45;&gt;Node7</title>
<path fill="none" stroke="midnightblue" d="M526.06,-247C497.21,-247 454.72,-247 432.24,-247"/>
<polygon fill="midnightblue" stroke="midnightblue" points="526.38,-250.5 536.38,-247 526.38,-243.5 526.38,-250.5"/>
</g>
<!-- Node14 -->
<g id="node14" class="node">
<title>Node14</title>
<g id="a_node14"><a xlink:href="ioe_8c.html#ad0681f53bec9167d7a8d4d848b3ce2e0" target="_top" xlink:title=" ">
<polygon fill="none" stroke="black" points="515.5,-114.5 515.5,-133.5 598.5,-133.5 598.5,-114.5 515.5,-114.5"/>
<text text-anchor="middle" x="557" y="-121.5" font-family="Helvetica,sans-Serif" font-size="10.00">read_rtc_async</text>
</a>
</g>
</g>
<!-- Node13&#45;&gt;Node14 -->
<g id="edge15" class="edge">
<title>Node13&#45;&gt;Node14</title>
<path fill="none" stroke="midnightblue" d="M663.31,-124C643.65,-124 619.07,-124 598.6,-124"/>
<polygon fill="midnightblue" stroke="midnightblue" points="663.38,-127.5 673.38,-124 663.38,-120.5 663.38,-127.5"/>
</g>
<!-- Node15 -->
<g id="node15" class="node">
<title>Node15</title>
<g id="a_node15"><a xlink:href="ioe_8c.html#a7b167e0bb31c8168406860a278ce693a" target="_top" xlink:title=" ">
<polygon fill="none" stroke="black" points="388.5,-76.5 388.5,-95.5 443.5,-95.5 443.5,-76.5 388.5,-76.5"/>
<text text-anchor="middle" x="416" y="-83.5" font-family="Helvetica,sans-Serif" font-size="10.00">timer_rtc</text>
</a>
</g>
</g>
<!-- Node13&#45;&gt;Node15 -->
<g id="edge24" class="edge">
<title>Node13&#45;&gt;Node15</title>
<path fill="none" stroke="midnightblue" d="M663.12,-115.12C647.79,-111.54 629.59,-107.64 613,-105 552.9,-95.45 481.62,-89.99 443.76,-87.56"/>
<polygon fill="midnightblue" stroke="midnightblue" points="662.68,-118.61 673.22,-117.53 664.3,-111.8 662.68,-118.61"/>
</g>
<!-- Node14&#45;&gt;Node15 -->
<g id="edge16" class="edge">
<title>Node14&#45;&gt;Node15</title>
<path fill="none" stroke="midnightblue" d="M511.03,-111.71C488.82,-105.63 462.77,-98.51 443.73,-93.31"/>
<polygon fill="midnightblue" stroke="midnightblue" points="510.36,-115.15 520.92,-114.41 512.2,-108.4 510.36,-115.15"/>
</g>
<!-- Node18 -->
<g id="node18" class="node">
<title>Node18</title>
<g id="a_node18"><a xlink:href="ioe_8c.html#a716ac8111009464db83866c3b49adbbb" target="_top" xlink:title=" ">
<polygon fill="none" stroke="black" points="388,-114.5 388,-133.5 444,-133.5 444,-114.5 388,-114.5"/>
<text text-anchor="middle" x="416" y="-121.5" font-family="Helvetica,sans-Serif" font-size="10.00">wait_sec</text>
</a>
</g>
</g>
<!-- Node14&#45;&gt;Node18 -->
<g id="edge20" class="edge">
<title>Node14&#45;&gt;Node18</title>
<path fill="none" stroke="midnightblue" d="M505.2,-124C484.56,-124 461.55,-124 444.2,-124"/>
<polygon fill="midnightblue" stroke="midnightblue" points="505.42,-127.5 515.42,-124 505.42,-120.5 505.42,-127.5"/>
</g>
<!-- Node16 -->
<g id="node16" class="node">
<title>Node16</title>
<g id="a_node16"><a xlink:href="ioe_8c.html#ac17b85035372c81a45e604e6b4783db2" target="_top" xlink:title=" ">
<polygon fill="none" stroke="black" points="163,-86.5 163,-105.5 219,-105.5 219,-86.5 163,-86.5"/>
<text text-anchor="middle" x="191" y="-93.5" font-family="Helvetica,sans-Serif" font-size="10.00">timer_init</text>
</a>
</g>
</g>
<!-- Node15&#45;&gt;Node16 -->
<g id="edge17" class="edge">
<title>Node15&#45;&gt;Node16</title>
<path fill="none" stroke="midnightblue" d="M377.95,-87.66C333.26,-89.67 259.17,-92.99 219.34,-94.77"/>
<polygon fill="midnightblue" stroke="midnightblue" points="378.27,-91.15 388.1,-87.21 377.95,-84.16 378.27,-91.15"/>
</g>
<!-- Node17 -->
<g id="node17" class="node">
<title>Node17</title>
<g id="a_node17"><a xlink:href="ioe_8c.html#a45ecef4130276c1c79d872c582cd3839" target="_top" xlink:title=" ">
<polygon fill="none" stroke="black" points="77,-86.5 77,-105.5 124,-105.5 124,-86.5 77,-86.5"/>
<text text-anchor="middle" x="100.5" y="-93.5" font-family="Helvetica,sans-Serif" font-size="10.00">ioe_init</text>
</a>
</g>
</g>
<!-- Node16&#45;&gt;Node17 -->
<g id="edge18" class="edge">
<title>Node16&#45;&gt;Node17</title>
<path fill="none" stroke="midnightblue" d="M152.72,-96C143.03,-96 132.88,-96 124.2,-96"/>
<polygon fill="midnightblue" stroke="midnightblue" points="152.97,-99.5 162.97,-96 152.97,-92.5 152.97,-99.5"/>
</g>
<!-- Node17&#45;&gt;Node10 -->
<g id="edge19" class="edge">
<title>Node17&#45;&gt;Node10</title>
<path fill="none" stroke="midnightblue" d="M66.98,-103.77C57.12,-106.13 46.64,-108.63 38.08,-110.68"/>
<polygon fill="midnightblue" stroke="midnightblue" points="68.02,-107.12 76.93,-101.39 66.39,-100.31 68.02,-107.12"/>
</g>
<!-- Node19 -->
<g id="node19" class="node">
<title>Node19</title>
<g id="a_node19"><a xlink:href="ioe_8c.html#a8f4d57167e8d4b53c00c84e504f330ef" target="_top" xlink:title=" ">
<polygon fill="none" stroke="black" points="255,-105.5 255,-124.5 331,-124.5 331,-105.5 255,-105.5"/>
<text text-anchor="middle" x="293" y="-112.5" font-family="Helvetica,sans-Serif" font-size="10.00">estimate_freq</text>
</a>
</g>
</g>
<!-- Node18&#45;&gt;Node19 -->
<g id="edge21" class="edge">
<title>Node18&#45;&gt;Node19</title>
<path fill="none" stroke="midnightblue" d="M377.54,-121.21C362.79,-120.12 345.88,-118.86 331.16,-117.76"/>
<polygon fill="midnightblue" stroke="midnightblue" points="377.61,-124.73 387.85,-121.98 378.13,-117.75 377.61,-124.73"/>
</g>
<!-- Node19&#45;&gt;Node16 -->
<g id="edge23" class="edge">
<title>Node19&#45;&gt;Node16</title>
<path fill="none" stroke="midnightblue" d="M244.94,-106.06C236.14,-104.39 227.22,-102.69 219.27,-101.18"/>
<polygon fill="midnightblue" stroke="midnightblue" points="244.29,-109.5 254.76,-107.93 245.59,-102.62 244.29,-109.5"/>
</g>
<!-- Node19&#45;&gt;Node19 -->
<g id="edge22" class="edge">
<title>Node19&#45;&gt;Node19</title>
<path fill="none" stroke="midnightblue" d="M311.89,-134.4C310.63,-139.31 304.33,-143 293,-143 274.87,-143 269.63,-133.57 277.28,-124.76"/>
<polygon fill="midnightblue" stroke="midnightblue" points="315.17,-133.17 308.72,-124.76 308.52,-135.35 315.17,-133.17"/>
</g>
<!-- Node20&#45;&gt;Node17 -->
<g id="edge26" class="edge">
<title>Node20&#45;&gt;Node17</title>
<path fill="none" stroke="midnightblue" d="M257.48,-49.04C231.48,-56.63 194.97,-67.35 163,-77 150.16,-80.87 135.85,-85.29 124.26,-88.89"/>
<polygon fill="midnightblue" stroke="midnightblue" points="258.62,-52.35 267.24,-46.19 256.66,-45.63 258.62,-52.35"/>
</g>
</g>
</svg>
