<?xml version="1.0" encoding="UTF-8" standalone="no"?>
<!DOCTYPE svg PUBLIC "-//W3C//DTD SVG 1.1//EN"
 "http://www.w3.org/Graphics/SVG/1.1/DTD/svg11.dtd">
<!-- Generated by graphviz version 2.50.0 (20220203.2022)
 -->
<!-- Title: outb Pages: 1 -->
<svg width="974pt" height="440pt"
 viewBox="0.00 0.00 974.00 440.00" xmlns="http://www.w3.org/2000/svg" xmlns:xlink="http://www.w3.org/1999/xlink">
<g id="graph0" class="graph" transform="scale(1 1) rotate(0) translate(4 436)">
<title>outb</title>
<!-- Node1 -->
<g id="node1" class="node">
<title>Node1</title>
<g id="a_node1"><a xlink:title=" ">
<polygon fill="#bfbfbf" stroke="black" points="931,-227.5 931,-246.5 966,-246.5 966,-227.5 931,-227.5"/>
<text text-anchor="middle" x="948.5" y="-234.5" font-family="Helvetica,sans-Serif" font-size="10.00">outb</text>
</a>
</g>
</g>
<!-- Node2 -->
<g id="node2" class="node">
<title>Node2</title>
<g id="a_node2"><a xlink:href="x86_2qemu_2trm_8c.html#afa4d35ce31ec846cb9da5f17455f54c0" target="_top" xlink:title=" ">
<polygon fill="none" stroke="black" points="802,-379.5 802,-398.5 887,-398.5 887,-379.5 802,-379.5"/>
<text text-anchor="middle" x="844.5" y="-386.5" font-family="Helvetica,sans-Serif" font-size="10.00">__am_heap_init</text>
</a>
</g>
</g>
<!-- Node1&#45;&gt;Node2 -->
<g id="edge1" class="edge">
<title>Node1&#45;&gt;Node2</title>
<path fill="none" stroke="midnightblue" d="M941.77,-256.43C933.99,-280.46 918.35,-321.76 895,-351 885.81,-362.51 872.41,-372.52 861.87,-379.37"/>
<polygon fill="midnightblue" stroke="midnightblue" points="945.16,-257.3 944.78,-246.71 938.48,-255.22 945.16,-257.3"/>
</g>
<!-- Node5 -->
<g id="node5" class="node">
<title>Node5</title>
<g id="a_node5"><a xlink:href="x86_2qemu_2ioe_8c.html#a88a238fee7cd006afa69ea97e4914a09" target="_top" xlink:title=" ">
<polygon fill="none" stroke="black" points="794,-322.5 794,-341.5 895,-341.5 895,-322.5 794,-322.5"/>
<text text-anchor="middle" x="844.5" y="-329.5" font-family="Helvetica,sans-Serif" font-size="10.00">__am_lapic_bootap</text>
</a>
</g>
</g>
<!-- Node1&#45;&gt;Node5 -->
<g id="edge4" class="edge">
<title>Node1&#45;&gt;Node5</title>
<path fill="none" stroke="midnightblue" d="M938.78,-255.55C929.92,-272.59 914.71,-297.5 895,-313 890.15,-316.81 884.45,-319.93 878.68,-322.46"/>
<polygon fill="midnightblue" stroke="midnightblue" points="941.94,-257.06 943.25,-246.55 935.67,-253.95 941.94,-257.06"/>
</g>
<!-- Node17 -->
<g id="node17" class="node">
<title>Node17</title>
<g id="a_node17"><a xlink:href="x86_2qemu_2ioe_8c.html#a98996b418230bb2594578ebd944e682c" target="_top" xlink:title=" ">
<polygon fill="none" stroke="black" points="814.5,-284.5 814.5,-303.5 874.5,-303.5 874.5,-284.5 814.5,-284.5"/>
<text text-anchor="middle" x="844.5" y="-291.5" font-family="Helvetica,sans-Serif" font-size="10.00">disk_blkio</text>
</a>
</g>
</g>
<!-- Node1&#45;&gt;Node17 -->
<g id="edge17" class="edge">
<title>Node1&#45;&gt;Node17</title>
<path fill="none" stroke="midnightblue" d="M927.96,-253.01C918.41,-260.34 906.51,-268.76 895,-275 888.44,-278.55 881.08,-281.76 874.08,-284.48"/>
<polygon fill="midnightblue" stroke="midnightblue" points="930.3,-255.62 935.99,-246.69 925.97,-250.12 930.3,-255.62"/>
</g>
<!-- Node18 -->
<g id="node18" class="node">
<title>Node18</title>
<g id="a_node18"><a xlink:href="x86_2qemu_2trm_8c.html#a6351d8706733262e7e325926b1a9aab7" target="_top" xlink:title=" ">
<polygon fill="none" stroke="black" points="824,-246.5 824,-265.5 865,-265.5 865,-246.5 824,-246.5"/>
<text text-anchor="middle" x="844.5" y="-253.5" font-family="Helvetica,sans-Serif" font-size="10.00">putch</text>
</a>
</g>
</g>
<!-- Node1&#45;&gt;Node18 -->
<g id="edge18" class="edge">
<title>Node1&#45;&gt;Node18</title>
<path fill="none" stroke="midnightblue" d="M920.55,-242.02C903.15,-245.26 880.9,-249.41 865.16,-252.34"/>
<polygon fill="midnightblue" stroke="midnightblue" points="921.47,-245.41 930.66,-240.14 920.18,-238.53 921.47,-245.41"/>
</g>
<!-- Node21 -->
<g id="node21" class="node">
<title>Node21</title>
<g id="a_node21"><a xlink:href="abstract-machine_2am_2src_2x86_2qemu_2boot_2main_8c.html#a5c78005e67963b2e5e1c05b5e462f186" target="_top" xlink:title=" ">
<polygon fill="none" stroke="black" points="815,-208.5 815,-227.5 874,-227.5 874,-208.5 815,-208.5"/>
<text text-anchor="middle" x="844.5" y="-215.5" font-family="Helvetica,sans-Serif" font-size="10.00">read_disk</text>
</a>
</g>
</g>
<!-- Node1&#45;&gt;Node21 -->
<g id="edge21" class="edge">
<title>Node1&#45;&gt;Node21</title>
<path fill="none" stroke="midnightblue" d="M920.51,-231.97C906.29,-229.32 888.84,-226.07 874.35,-223.37"/>
<polygon fill="midnightblue" stroke="midnightblue" points="920.18,-235.47 930.66,-233.86 921.47,-228.59 920.18,-235.47"/>
</g>
<!-- Node27 -->
<g id="node27" class="node">
<title>Node27</title>
<g id="a_node27"><a xlink:href="x86_2qemu_2ioe_8c.html#a124b85735169c7add3c491093ffbc00e" target="_top" xlink:title=" ">
<polygon fill="none" stroke="black" points="818.5,-151.5 818.5,-170.5 870.5,-170.5 870.5,-151.5 818.5,-151.5"/>
<text text-anchor="middle" x="844.5" y="-158.5" font-family="Helvetica,sans-Serif" font-size="10.00">read_rtc</text>
</a>
</g>
</g>
<!-- Node1&#45;&gt;Node27 -->
<g id="edge29" class="edge">
<title>Node1&#45;&gt;Node27</title>
<path fill="none" stroke="midnightblue" d="M926.47,-221.33C905.96,-206.05 875.43,-183.3 858.31,-170.55"/>
<polygon fill="midnightblue" stroke="midnightblue" points="924.47,-224.21 934.58,-227.37 928.65,-218.59 924.47,-224.21"/>
</g>
<!-- Node34 -->
<g id="node34" class="node">
<title>Node34</title>
<g id="a_node34"><a xlink:href="x86_2qemu_2ioe_8c.html#aa6bed8ea45612252dec485e7a9331a9d" target="_top" xlink:title=" ">
<polygon fill="none" stroke="black" points="311,-38.5 311,-57.5 362,-57.5 362,-38.5 311,-38.5"/>
<text text-anchor="middle" x="336.5" y="-45.5" font-family="Helvetica,sans-Serif" font-size="10.00">uart_init</text>
</a>
</g>
</g>
<!-- Node1&#45;&gt;Node34 -->
<g id="edge39" class="edge">
<title>Node1&#45;&gt;Node34</title>
<path fill="none" stroke="midnightblue" d="M940.99,-218.01C933,-197.09 917.66,-163.56 895,-142 826.17,-76.5 798.01,-48 703,-48 703,-48 703,-48 567.5,-48 492.63,-48 404.05,-48 362.01,-48"/>
<polygon fill="midnightblue" stroke="midnightblue" points="937.71,-219.22 944.41,-227.42 944.28,-216.82 937.71,-219.22"/>
</g>
<!-- Node35 -->
<g id="node35" class="node">
<title>Node35</title>
<g id="a_node35"><a xlink:href="x86_2qemu_2ioe_8c.html#ae98b842dcd8760104640a30c32954f6b" target="_top" xlink:title=" ">
<polygon fill="none" stroke="black" points="821.5,-0.5 821.5,-19.5 867.5,-19.5 867.5,-0.5 821.5,-0.5"/>
<text text-anchor="middle" x="844.5" y="-7.5" font-family="Helvetica,sans-Serif" font-size="10.00">uart_tx</text>
</a>
</g>
</g>
<!-- Node1&#45;&gt;Node35 -->
<g id="edge41" class="edge">
<title>Node1&#45;&gt;Node35</title>
<path fill="none" stroke="midnightblue" d="M947.64,-217.13C946.88,-177.75 939.92,-88.85 895,-34 888.04,-25.5 877.35,-19.8 867.67,-16.09"/>
<polygon fill="midnightblue" stroke="midnightblue" points="944.14,-217.29 947.71,-227.27 951.14,-217.24 944.14,-217.29"/>
</g>
<!-- Node3 -->
<g id="node3" class="node">
<title>Node3</title>
<g id="a_node3"><a xlink:href="x86_2qemu_2trm_8c.html#a75e130ff99ad31f9a1df206b5ff8252a" target="_top" xlink:title=" ">
<polygon fill="none" stroke="black" points="653,-398.5 653,-417.5 751,-417.5 751,-398.5 653,-398.5"/>
<text text-anchor="middle" x="702" y="-405.5" font-family="Helvetica,sans-Serif" font-size="10.00">__am_bootcpu_init</text>
</a>
</g>
</g>
<!-- Node2&#45;&gt;Node3 -->
<g id="edge2" class="edge">
<title>Node2&#45;&gt;Node3</title>
<path fill="none" stroke="midnightblue" d="M791.76,-396C778.44,-397.8 764.16,-399.73 751.03,-401.5"/>
<polygon fill="midnightblue" stroke="midnightblue" points="792.29,-399.46 801.73,-394.65 791.35,-392.52 792.29,-399.46"/>
</g>
<!-- Node4 -->
<g id="node4" class="node">
<title>Node4</title>
<g id="a_node4"><a xlink:href="x86_2qemu_2trm_8c.html#a54a85aeee6f6a8ef875d4cca663f9fd8" target="_top" xlink:title=" ">
<polygon fill="none" stroke="black" points="542.5,-398.5 542.5,-417.5 594.5,-417.5 594.5,-398.5 542.5,-398.5"/>
<text text-anchor="middle" x="568.5" y="-405.5" font-family="Helvetica,sans-Serif" font-size="10.00">_start_c</text>
</a>
</g>
</g>
<!-- Node3&#45;&gt;Node4 -->
<g id="edge3" class="edge">
<title>Node3&#45;&gt;Node4</title>
<path fill="none" stroke="midnightblue" d="M642.49,-408C625.77,-408 608.42,-408 594.83,-408"/>
<polygon fill="midnightblue" stroke="midnightblue" points="642.78,-411.5 652.78,-408 642.78,-404.5 642.78,-411.5"/>
</g>
<!-- Node6 -->
<g id="node6" class="node">
<title>Node6</title>
<g id="a_node6"><a xlink:href="x86_2qemu_2mpe_8c.html#a0a540532023afb1f31b6f21ce053483b" target="_top" xlink:title=" ">
<polygon fill="none" stroke="black" points="646,-360.5 646,-379.5 758,-379.5 758,-360.5 646,-360.5"/>
<text text-anchor="middle" x="702" y="-367.5" font-family="Helvetica,sans-Serif" font-size="10.00">__am_stop_the_world</text>
</a>
</g>
</g>
<!-- Node5&#45;&gt;Node6 -->
<g id="edge5" class="edge">
<title>Node5&#45;&gt;Node6</title>
<path fill="none" stroke="midnightblue" d="M798.22,-344.25C778.86,-349.48 756.58,-355.51 738.44,-360.41"/>
<polygon fill="midnightblue" stroke="midnightblue" points="799.31,-347.58 808.05,-341.59 797.48,-340.82 799.31,-347.58"/>
</g>
<!-- Node14 -->
<g id="node14" class="node">
<title>Node14</title>
<g id="a_node14"><a xlink:href="x86_2qemu_2mpe_8c.html#a2e4a724e2d067425ff3fd49bc0bf42e1" target="_top" xlink:title=" ">
<polygon fill="none" stroke="black" points="92,-331.5 92,-350.5 145,-350.5 145,-331.5 92,-331.5"/>
<text text-anchor="middle" x="118.5" y="-338.5" font-family="Helvetica,sans-Serif" font-size="10.00">mpe_init</text>
</a>
</g>
</g>
<!-- Node5&#45;&gt;Node14 -->
<g id="edge16" class="edge">
<title>Node5&#45;&gt;Node14</title>
<path fill="none" stroke="midnightblue" d="M783.49,-332C727.97,-332 643.17,-332 569.5,-332 569.5,-332 569.5,-332 335.5,-332 266.63,-332 185.51,-336.62 145.09,-339.24"/>
<polygon fill="midnightblue" stroke="midnightblue" points="783.5,-335.5 793.5,-332 783.5,-328.5 783.5,-335.5"/>
</g>
<!-- Node7 -->
<g id="node7" class="node">
<title>Node7</title>
<g id="a_node7"><a xlink:href="x86_2qemu_2trm_8c.html#a483cb97188e557c3c68d3a1572c2cc92" target="_top" xlink:title=" ">
<polygon fill="none" stroke="black" points="552.5,-360.5 552.5,-379.5 584.5,-379.5 584.5,-360.5 552.5,-360.5"/>
<text text-anchor="middle" x="568.5" y="-367.5" font-family="Helvetica,sans-Serif" font-size="10.00">halt</text>
</a>
</g>
</g>
<!-- Node6&#45;&gt;Node7 -->
<g id="edge6" class="edge">
<title>Node6&#45;&gt;Node7</title>
<path fill="none" stroke="midnightblue" d="M635.75,-370C616.67,-370 597.53,-370 584.77,-370"/>
<polygon fill="midnightblue" stroke="midnightblue" points="635.99,-373.5 645.99,-370 635.99,-366.5 635.99,-373.5"/>
</g>
<!-- Node8 -->
<g id="node8" class="node">
<title>Node8</title>
<g id="a_node8"><a xlink:href="input_8c.html#a77413c19d2c314aba317257b3cafb1c7" target="_top" xlink:title=" ">
<polygon fill="none" stroke="black" points="416.5,-398.5 416.5,-417.5 489.5,-417.5 489.5,-398.5 416.5,-398.5"/>
<text text-anchor="middle" x="453" y="-405.5" font-family="Helvetica,sans-Serif" font-size="10.00">event_thread</text>
</a>
</g>
</g>
<!-- Node7&#45;&gt;Node8 -->
<g id="edge7" class="edge">
<title>Node7&#45;&gt;Node8</title>
<path fill="none" stroke="midnightblue" d="M542.56,-378.35C524.85,-384.28 501.04,-392.25 482.57,-398.43"/>
<polygon fill="midnightblue" stroke="midnightblue" points="543.82,-381.62 552.19,-375.12 541.6,-374.98 543.82,-381.62"/>
</g>
<!-- Node16 -->
<g id="node16" class="node">
<title>Node16</title>
<g id="a_node16"><a xlink:href="platform_8c.html#ab518f1443eb1cdfa46deda54dca8c7fc" target="_top" xlink:title=" ">
<polygon fill="none" stroke="black" points="418,-360.5 418,-379.5 488,-379.5 488,-360.5 418,-360.5"/>
<text text-anchor="middle" x="453" y="-367.5" font-family="Helvetica,sans-Serif" font-size="10.00">init_platform</text>
</a>
</g>
</g>
<!-- Node7&#45;&gt;Node16 -->
<g id="edge15" class="edge">
<title>Node7&#45;&gt;Node16</title>
<path fill="none" stroke="midnightblue" d="M542.04,-370C526.13,-370 505.45,-370 488.12,-370"/>
<polygon fill="midnightblue" stroke="midnightblue" points="542.19,-373.5 552.19,-370 542.19,-366.5 542.19,-373.5"/>
</g>
<!-- Node9 -->
<g id="node9" class="node">
<title>Node9</title>
<g id="a_node9"><a xlink:href="input_8c.html#a02d166c8d2549e580fd16379de9e80f1" target="_top" xlink:title=" ">
<polygon fill="none" stroke="black" points="294,-395.5 294,-414.5 379,-414.5 379,-395.5 294,-395.5"/>
<text text-anchor="middle" x="336.5" y="-402.5" font-family="Helvetica,sans-Serif" font-size="10.00">__am_input_init</text>
</a>
</g>
</g>
<!-- Node8&#45;&gt;Node9 -->
<g id="edge8" class="edge">
<title>Node8&#45;&gt;Node9</title>
<path fill="none" stroke="midnightblue" d="M406.14,-406.8C397.21,-406.56 387.88,-406.32 379.1,-406.09"/>
<polygon fill="midnightblue" stroke="midnightblue" points="406.31,-410.3 416.4,-407.07 406.49,-403.31 406.31,-410.3"/>
</g>
<!-- Node10 -->
<g id="node10" class="node">
<title>Node10</title>
<g id="a_node10"><a xlink:href="native_2ioe_8c.html#a85e8849eae1811aa4fa0527476f39782" target="_top" xlink:title=" ">
<polygon fill="none" stroke="black" points="181,-376.5 181,-395.5 258,-395.5 258,-376.5 181,-376.5"/>
<text text-anchor="middle" x="219.5" y="-383.5" font-family="Helvetica,sans-Serif" font-size="10.00">__am_ioe_init</text>
</a>
</g>
</g>
<!-- Node9&#45;&gt;Node10 -->
<g id="edge9" class="edge">
<title>Node9&#45;&gt;Node10</title>
<path fill="none" stroke="midnightblue" d="M283.92,-396.48C275.24,-395.04 266.38,-393.58 258.14,-392.22"/>
<polygon fill="midnightblue" stroke="midnightblue" points="283.55,-399.96 293.98,-398.14 284.69,-393.06 283.55,-399.96"/>
</g>
<!-- Node11 -->
<g id="node11" class="node">
<title>Node11</title>
<g id="a_node11"><a xlink:href="native_2ioe_8c.html#ac7243d0dd8589da2317ee06ee132c2f0" target="_top" xlink:title=" ">
<polygon fill="none" stroke="black" points="98.5,-376.5 98.5,-395.5 138.5,-395.5 138.5,-376.5 98.5,-376.5"/>
<text text-anchor="middle" x="118.5" y="-383.5" font-family="Helvetica,sans-Serif" font-size="10.00">do_io</text>
</a>
</g>
</g>
<!-- Node10&#45;&gt;Node11 -->
<g id="edge10" class="edge">
<title>Node10&#45;&gt;Node11</title>
<path fill="none" stroke="midnightblue" d="M170.48,-386C159.15,-386 147.72,-386 138.56,-386"/>
<polygon fill="midnightblue" stroke="midnightblue" points="170.79,-389.5 180.79,-386 170.79,-382.5 170.79,-389.5"/>
</g>
<!-- Node10&#45;&gt;Node14 -->
<g id="edge13" class="edge">
<title>Node10&#45;&gt;Node14</title>
<path fill="none" stroke="midnightblue" d="M188.32,-372.28C172.84,-365.25 154.37,-356.85 140.47,-350.53"/>
<polygon fill="midnightblue" stroke="midnightblue" points="186.95,-375.5 197.5,-376.46 189.85,-369.13 186.95,-375.5"/>
</g>
<!-- Node12 -->
<g id="node12" class="node">
<title>Node12</title>
<g id="a_node12"><a xlink:href="x86_2qemu_2ioe_8c.html#a9e4d8844a1b291f3594ac00297a918a4" target="_top" xlink:title=" ">
<polygon fill="none" stroke="black" points="1.5,-412.5 1.5,-431.5 54.5,-431.5 54.5,-412.5 1.5,-412.5"/>
<text text-anchor="middle" x="28" y="-419.5" font-family="Helvetica,sans-Serif" font-size="10.00">ioe_read</text>
</a>
</g>
</g>
<!-- Node11&#45;&gt;Node12 -->
<g id="edge11" class="edge">
<title>Node11&#45;&gt;Node12</title>
<path fill="none" stroke="midnightblue" d="M88.92,-397.63C77.18,-402.4 63.74,-407.87 52.58,-412.41"/>
<polygon fill="midnightblue" stroke="midnightblue" points="90.35,-400.82 98.3,-393.81 87.72,-394.34 90.35,-400.82"/>
</g>
<!-- Node13 -->
<g id="node13" class="node">
<title>Node13</title>
<g id="a_node13"><a xlink:href="x86_2qemu_2ioe_8c.html#ad1964375eeefa10b564a3bf2bd322db0" target="_top" xlink:title=" ">
<polygon fill="none" stroke="black" points="0,-374.5 0,-393.5 56,-393.5 56,-374.5 0,-374.5"/>
<text text-anchor="middle" x="28" y="-381.5" font-family="Helvetica,sans-Serif" font-size="10.00">ioe_write</text>
</a>
</g>
</g>
<!-- Node11&#45;&gt;Node13 -->
<g id="edge12" class="edge">
<title>Node11&#45;&gt;Node13</title>
<path fill="none" stroke="midnightblue" d="M88.12,-385.34C77.83,-385.1 66.33,-384.84 56.22,-384.62"/>
<polygon fill="midnightblue" stroke="midnightblue" points="88.22,-388.84 98.3,-385.57 88.38,-381.84 88.22,-388.84"/>
</g>
<!-- Node15 -->
<g id="node15" class="node">
<title>Node15</title>
<g id="a_node15"><a xlink:href="kernel_2framework_2main_8c.html#ae66f6b31b5ad750f1fe042a706a4e3d4" target="_top" xlink:title=" ">
<polygon fill="none" stroke="black" points="9,-331.5 9,-350.5 47,-350.5 47,-331.5 9,-331.5"/>
<text text-anchor="middle" x="28" y="-338.5" font-family="Helvetica,sans-Serif" font-size="10.00">main</text>
</a>
</g>
</g>
<!-- Node14&#45;&gt;Node15 -->
<g id="edge14" class="edge">
<title>Node14&#45;&gt;Node15</title>
<path fill="none" stroke="midnightblue" d="M81.79,-341C69.93,-341 57.21,-341 47.24,-341"/>
<polygon fill="midnightblue" stroke="midnightblue" points="81.9,-344.5 91.9,-341 81.9,-337.5 81.9,-344.5"/>
</g>
<!-- Node19 -->
<g id="node19" class="node">
<title>Node19</title>
<g id="a_node19"><a xlink:href="os_8c.html#a5f9cb32664e017ca15c49ec66e5342e4" target="_top" xlink:title=" ">
<polygon fill="none" stroke="black" points="679,-265.5 679,-284.5 725,-284.5 725,-265.5 679,-265.5"/>
<text text-anchor="middle" x="702" y="-272.5" font-family="Helvetica,sans-Serif" font-size="10.00">os_run</text>
</a>
</g>
</g>
<!-- Node18&#45;&gt;Node19 -->
<g id="edge19" class="edge">
<title>Node18&#45;&gt;Node19</title>
<path fill="none" stroke="midnightblue" d="M813.74,-260.02C787.23,-263.61 749.04,-268.77 725.15,-272.01"/>
<polygon fill="midnightblue" stroke="midnightblue" points="814.52,-263.45 823.96,-258.64 813.59,-256.51 814.52,-263.45"/>
</g>
<!-- Node20 -->
<g id="node20" class="node">
<title>Node20</title>
<g id="a_node20"><a xlink:href="os_8c.html#aafec7046aa50c914df86d0d22d4fc1d1" target="_top" xlink:title=" ">
<polygon fill="none" stroke="black" points="527,-284.5 527,-303.5 610,-303.5 610,-284.5 527,-284.5"/>
<text text-anchor="middle" x="568.5" y="-291.5" font-family="Helvetica,sans-Serif" font-size="10.00">MODULE_DEF</text>
</a>
</g>
</g>
<!-- Node19&#45;&gt;Node20 -->
<g id="edge20" class="edge">
<title>Node19&#45;&gt;Node20</title>
<path fill="none" stroke="midnightblue" d="M668.64,-279.68C651,-282.22 629,-285.4 610.21,-288.12"/>
<polygon fill="midnightblue" stroke="midnightblue" points="669.59,-283.07 678.99,-278.18 668.59,-276.15 669.59,-283.07"/>
</g>
<!-- Node22 -->
<g id="node22" class="node">
<title>Node22</title>
<g id="a_node22"><a xlink:href="abstract-machine_2am_2src_2x86_2qemu_2boot_2main_8c.html#a053d271297a51949cf46c59a997e8621" target="_top" xlink:title=" ">
<polygon fill="none" stroke="black" points="659.5,-208.5 659.5,-227.5 744.5,-227.5 744.5,-208.5 659.5,-208.5"/>
<text text-anchor="middle" x="702" y="-215.5" font-family="Helvetica,sans-Serif" font-size="10.00">copy_from_disk</text>
</a>
</g>
</g>
<!-- Node21&#45;&gt;Node22 -->
<g id="edge22" class="edge">
<title>Node21&#45;&gt;Node22</title>
<path fill="none" stroke="midnightblue" d="M804.51,-218C785.85,-218 763.5,-218 744.52,-218"/>
<polygon fill="midnightblue" stroke="midnightblue" points="804.73,-221.5 814.73,-218 804.73,-214.5 804.73,-221.5"/>
</g>
<!-- Node23 -->
<g id="node23" class="node">
<title>Node23</title>
<g id="a_node23"><a xlink:href="abstract-machine_2am_2src_2x86_2qemu_2boot_2main_8c.html#a1799aa2202da76699182c2c1654510bb" target="_top" xlink:title=" ">
<polygon fill="none" stroke="black" points="303.5,-208.5 303.5,-227.5 369.5,-227.5 369.5,-208.5 303.5,-208.5"/>
<text text-anchor="middle" x="336.5" y="-215.5" font-family="Helvetica,sans-Serif" font-size="10.00">load_kernel</text>
</a>
</g>
</g>
<!-- Node22&#45;&gt;Node23 -->
<g id="edge23" class="edge">
<title>Node22&#45;&gt;Node23</title>
<path fill="none" stroke="midnightblue" d="M654.12,-229.71C640.03,-232.71 624.47,-235.51 610,-237 523.79,-245.9 501.04,-247.39 415,-237 399.6,-235.14 382.84,-231.27 368.86,-227.51"/>
<polygon fill="midnightblue" stroke="midnightblue" points="655.07,-233.09 664.08,-227.51 653.56,-226.25 655.07,-233.09"/>
</g>
<!-- Node24 -->
<g id="node24" class="node">
<title>Node24</title>
<g id="a_node24"><a xlink:href="abstract-machine_2am_2src_2x86_2qemu_2boot_2main_8c.html#a3113c23ca15bbe1871820f4d9ae9c015" target="_top" xlink:title=" ">
<polygon fill="none" stroke="black" points="531,-208.5 531,-227.5 606,-227.5 606,-208.5 531,-208.5"/>
<text text-anchor="middle" x="568.5" y="-215.5" font-family="Helvetica,sans-Serif" font-size="10.00">load_program</text>
</a>
</g>
</g>
<!-- Node22&#45;&gt;Node24 -->
<g id="edge24" class="edge">
<title>Node22&#45;&gt;Node24</title>
<path fill="none" stroke="midnightblue" d="M649.18,-218C634.88,-218 619.66,-218 606.39,-218"/>
<polygon fill="midnightblue" stroke="midnightblue" points="649.39,-221.5 659.39,-218 649.39,-214.5 649.39,-221.5"/>
</g>
<!-- Node25 -->
<g id="node25" class="node">
<title>Node25</title>
<g id="a_node25"><a xlink:href="abstract-machine_2am_2src_2x86_2qemu_2boot_2main_8c.html#af9c31bdb55074382c4ac7b48cdaf6653" target="_top" xlink:title=" ">
<polygon fill="none" stroke="black" points="422.5,-208.5 422.5,-227.5 483.5,-227.5 483.5,-208.5 422.5,-208.5"/>
<text text-anchor="middle" x="453" y="-215.5" font-family="Helvetica,sans-Serif" font-size="10.00">load_elf32</text>
</a>
</g>
</g>
<!-- Node24&#45;&gt;Node25 -->
<g id="edge25" class="edge">
<title>Node24&#45;&gt;Node25</title>
<path fill="none" stroke="midnightblue" d="M520.66,-218C508.14,-218 494.96,-218 483.65,-218"/>
<polygon fill="midnightblue" stroke="midnightblue" points="520.96,-221.5 530.96,-218 520.96,-214.5 520.96,-221.5"/>
</g>
<!-- Node26 -->
<g id="node26" class="node">
<title>Node26</title>
<g id="a_node26"><a xlink:href="abstract-machine_2am_2src_2x86_2qemu_2boot_2main_8c.html#a64c8b07ebf7ef54bc8c4f300db46716e" target="_top" xlink:title=" ">
<polygon fill="none" stroke="black" points="422.5,-170.5 422.5,-189.5 483.5,-189.5 483.5,-170.5 422.5,-170.5"/>
<text text-anchor="middle" x="453" y="-177.5" font-family="Helvetica,sans-Serif" font-size="10.00">load_elf64</text>
</a>
</g>
</g>
<!-- Node24&#45;&gt;Node26 -->
<g id="edge27" class="edge">
<title>Node24&#45;&gt;Node26</title>
<path fill="none" stroke="midnightblue" d="M529.19,-205.17C513.96,-200.08 496.74,-194.31 482.63,-189.59"/>
<polygon fill="midnightblue" stroke="midnightblue" points="528.27,-208.56 538.86,-208.41 530.49,-201.92 528.27,-208.56"/>
</g>
<!-- Node25&#45;&gt;Node23 -->
<g id="edge26" class="edge">
<title>Node25&#45;&gt;Node23</title>
<path fill="none" stroke="midnightblue" d="M411.95,-218C398.07,-218 382.7,-218 369.54,-218"/>
<polygon fill="midnightblue" stroke="midnightblue" points="412.22,-221.5 422.22,-218 412.22,-214.5 412.22,-221.5"/>
</g>
<!-- Node26&#45;&gt;Node23 -->
<g id="edge28" class="edge">
<title>Node26&#45;&gt;Node23</title>
<path fill="none" stroke="midnightblue" d="M413.35,-192.83C397.99,-197.92 380.62,-203.69 366.38,-208.41"/>
<polygon fill="midnightblue" stroke="midnightblue" points="414.72,-196.06 423.11,-189.59 412.51,-189.42 414.72,-196.06"/>
</g>
<!-- Node28 -->
<g id="node28" class="node">
<title>Node28</title>
<g id="a_node28"><a xlink:href="x86_2qemu_2ioe_8c.html#ad0681f53bec9167d7a8d4d848b3ce2e0" target="_top" xlink:title=" ">
<polygon fill="none" stroke="black" points="660.5,-113.5 660.5,-132.5 743.5,-132.5 743.5,-113.5 660.5,-113.5"/>
<text text-anchor="middle" x="702" y="-120.5" font-family="Helvetica,sans-Serif" font-size="10.00">read_rtc_async</text>
</a>
</g>
</g>
<!-- Node27&#45;&gt;Node28 -->
<g id="edge30" class="edge">
<title>Node27&#45;&gt;Node28</title>
<path fill="none" stroke="midnightblue" d="M808.67,-151.58C787.2,-145.77 759.74,-138.35 738.19,-132.52"/>
<polygon fill="midnightblue" stroke="midnightblue" points="807.81,-154.97 818.38,-154.21 809.64,-148.22 807.81,-154.97"/>
</g>
<!-- Node29 -->
<g id="node29" class="node">
<title>Node29</title>
<g id="a_node29"><a xlink:href="x86_2qemu_2ioe_8c.html#a7b167e0bb31c8168406860a278ce693a" target="_top" xlink:title=" ">
<polygon fill="none" stroke="black" points="541,-132.5 541,-151.5 596,-151.5 596,-132.5 541,-132.5"/>
<text text-anchor="middle" x="568.5" y="-139.5" font-family="Helvetica,sans-Serif" font-size="10.00">timer_rtc</text>
</a>
</g>
</g>
<!-- Node27&#45;&gt;Node29 -->
<g id="edge38" class="edge">
<title>Node27&#45;&gt;Node29</title>
<path fill="none" stroke="midnightblue" d="M808.14,-158.55C752.58,-154.7 646.08,-147.31 596.33,-143.86"/>
<polygon fill="midnightblue" stroke="midnightblue" points="808,-162.05 818.21,-159.25 808.48,-155.06 808,-162.05"/>
</g>
<!-- Node28&#45;&gt;Node29 -->
<g id="edge31" class="edge">
<title>Node28&#45;&gt;Node29</title>
<path fill="none" stroke="midnightblue" d="M650.46,-130.3C632.05,-132.96 611.95,-135.87 596.39,-138.11"/>
<polygon fill="midnightblue" stroke="midnightblue" points="651.08,-133.75 660.47,-128.86 650.07,-126.82 651.08,-133.75"/>
</g>
<!-- Node32 -->
<g id="node32" class="node">
<title>Node32</title>
<g id="a_node32"><a xlink:href="x86_2qemu_2ioe_8c.html#a716ac8111009464db83866c3b49adbbb" target="_top" xlink:title=" ">
<polygon fill="none" stroke="black" points="540.5,-85.5 540.5,-104.5 596.5,-104.5 596.5,-85.5 540.5,-85.5"/>
<text text-anchor="middle" x="568.5" y="-92.5" font-family="Helvetica,sans-Serif" font-size="10.00">wait_sec</text>
</a>
</g>
</g>
<!-- Node28&#45;&gt;Node32 -->
<g id="edge34" class="edge">
<title>Node28&#45;&gt;Node32</title>
<path fill="none" stroke="midnightblue" d="M650.53,-112.25C632.26,-108.36 612.32,-104.12 596.79,-100.81"/>
<polygon fill="midnightblue" stroke="midnightblue" points="649.96,-115.71 660.47,-114.37 651.42,-108.86 649.96,-115.71"/>
</g>
<!-- Node30 -->
<g id="node30" class="node">
<title>Node30</title>
<g id="a_node30"><a xlink:href="x86_2qemu_2ioe_8c.html#ac17b85035372c81a45e604e6b4783db2" target="_top" xlink:title=" ">
<polygon fill="none" stroke="black" points="308.5,-76.5 308.5,-95.5 364.5,-95.5 364.5,-76.5 308.5,-76.5"/>
<text text-anchor="middle" x="336.5" y="-83.5" font-family="Helvetica,sans-Serif" font-size="10.00">timer_init</text>
</a>
</g>
</g>
<!-- Node29&#45;&gt;Node30 -->
<g id="edge32" class="edge">
<title>Node29&#45;&gt;Node30</title>
<path fill="none" stroke="midnightblue" d="M530.78,-140.72C499.46,-138.86 453.53,-134.28 415,-123 392.68,-116.47 368.78,-104.16 353.52,-95.54"/>
<polygon fill="midnightblue" stroke="midnightblue" points="530.63,-144.22 540.8,-141.26 531,-137.23 530.63,-144.22"/>
</g>
<!-- Node31 -->
<g id="node31" class="node">
<title>Node31</title>
<g id="a_node31"><a xlink:href="x86_2qemu_2ioe_8c.html#a45ecef4130276c1c79d872c582cd3839" target="_top" xlink:title=" ">
<polygon fill="none" stroke="black" points="196,-57.5 196,-76.5 243,-76.5 243,-57.5 196,-57.5"/>
<text text-anchor="middle" x="219.5" y="-64.5" font-family="Helvetica,sans-Serif" font-size="10.00">ioe_init</text>
</a>
</g>
</g>
<!-- Node30&#45;&gt;Node31 -->
<g id="edge33" class="edge">
<title>Node30&#45;&gt;Node31</title>
<path fill="none" stroke="midnightblue" d="M298.28,-79.85C280.17,-76.86 258.98,-73.36 243.3,-70.77"/>
<polygon fill="midnightblue" stroke="midnightblue" points="297.81,-83.32 308.25,-81.5 298.95,-76.41 297.81,-83.32"/>
</g>
<!-- Node33 -->
<g id="node33" class="node">
<title>Node33</title>
<g id="a_node33"><a xlink:href="x86_2qemu_2ioe_8c.html#a8f4d57167e8d4b53c00c84e504f330ef" target="_top" xlink:title=" ">
<polygon fill="none" stroke="black" points="415,-76.5 415,-95.5 491,-95.5 491,-76.5 415,-76.5"/>
<text text-anchor="middle" x="453" y="-83.5" font-family="Helvetica,sans-Serif" font-size="10.00">estimate_freq</text>
</a>
</g>
</g>
<!-- Node32&#45;&gt;Node33 -->
<g id="edge35" class="edge">
<title>Node32&#45;&gt;Node33</title>
<path fill="none" stroke="midnightblue" d="M530.21,-92.04C517.7,-91.05 503.77,-89.95 491.26,-88.95"/>
<polygon fill="midnightblue" stroke="midnightblue" points="530.07,-95.54 540.31,-92.84 530.62,-88.56 530.07,-95.54"/>
</g>
<!-- Node33&#45;&gt;Node30 -->
<g id="edge37" class="edge">
<title>Node33&#45;&gt;Node30</title>
<path fill="none" stroke="midnightblue" d="M404.62,-86C391.01,-86 376.64,-86 364.7,-86"/>
<polygon fill="midnightblue" stroke="midnightblue" points="404.83,-89.5 414.83,-86 404.83,-82.5 404.83,-89.5"/>
</g>
<!-- Node33&#45;&gt;Node33 -->
<g id="edge36" class="edge">
<title>Node33&#45;&gt;Node33</title>
<path fill="none" stroke="midnightblue" d="M474.11,-105.4C472.7,-110.31 465.66,-114 453,-114 432.74,-114 426.88,-104.57 435.43,-95.76"/>
<polygon fill="midnightblue" stroke="midnightblue" points="477.3,-103.94 470.57,-95.76 470.73,-106.35 477.3,-103.94"/>
</g>
<!-- Node34&#45;&gt;Node31 -->
<g id="edge40" class="edge">
<title>Node34&#45;&gt;Node31</title>
<path fill="none" stroke="midnightblue" d="M300.9,-53.72C282.2,-56.81 259.64,-60.53 243.18,-63.25"/>
<polygon fill="midnightblue" stroke="midnightblue" points="301.53,-57.16 310.83,-52.08 300.39,-50.25 301.53,-57.16"/>
</g>
</g>
</svg>
