<?xml version="1.0" encoding="UTF-8" standalone="no"?>
<!DOCTYPE svg PUBLIC "-//W3C//DTD SVG 1.1//EN"
 "http://www.w3.org/Graphics/SVG/1.1/DTD/svg11.dtd">
<!-- Generated by graphviz version 3.0.0 (20220413.0106)
 -->
<!-- Title: xchg Pages: 1 -->
<svg width="540pt" height="218pt"
 viewBox="0.00 0.00 540.00 218.00" xmlns="http://www.w3.org/2000/svg" xmlns:xlink="http://www.w3.org/1999/xlink">
<g id="graph0" class="graph" transform="scale(1 1) rotate(0) translate(4 214)">
<title>xchg</title>
<!-- Node1 -->
<g id="node1" class="node">
<title>Node1</title>
<g id="a_node1"><a xlink:title=" ">
<polygon fill="#bfbfbf" stroke="black" points="495,-71.5 495,-90.5 532,-90.5 532,-71.5 495,-71.5"/>
<text text-anchor="middle" x="513.5" y="-78.5" font-family="Helvetica,sans-Serif" font-size="10.00">xchg</text>
</a>
</g>
</g>
<!-- Node2 -->
<g id="node2" class="node">
<title>Node2</title>
<g id="a_node2"><a xlink:href="mpe_8c.html#aaaad47c97c82065cf463f83b98b23c30" target="_top" xlink:title=" ">
<polygon fill="none" stroke="black" points="383.5,-110.5 383.5,-129.5 454.5,-129.5 454.5,-110.5 383.5,-110.5"/>
<text text-anchor="middle" x="419" y="-117.5" font-family="Helvetica,sans-Serif" font-size="10.00">atomic_xchg</text>
</a>
</g>
</g>
<!-- Node1&#45;&gt;Node2 -->
<g id="edge1" class="edge">
<title>Node1&#45;&gt;Node2</title>
<path fill="none" stroke="midnightblue" d="M485.35,-92.45C471.8,-98.16 455.59,-105 442.7,-110.43"/>
<polygon fill="midnightblue" stroke="midnightblue" points="486.81,-95.63 494.67,-88.52 484.09,-89.18 486.81,-95.63"/>
</g>
<!-- Node10 -->
<g id="node10" class="node">
<title>Node10</title>
<g id="a_node10"><a xlink:href="mpe_8c.html#a2e4a724e2d067425ff3fd49bc0bf42e1" target="_top" xlink:title=" ">
<polygon fill="none" stroke="black" points="392.5,-71.5 392.5,-90.5 445.5,-90.5 445.5,-71.5 392.5,-71.5"/>
<text text-anchor="middle" x="419" y="-78.5" font-family="Helvetica,sans-Serif" font-size="10.00">mpe_init</text>
</a>
</g>
</g>
<!-- Node1&#45;&gt;Node10 -->
<g id="edge11" class="edge">
<title>Node1&#45;&gt;Node10</title>
<path fill="none" stroke="midnightblue" d="M484.5,-81C472.2,-81 457.86,-81 445.83,-81"/>
<polygon fill="midnightblue" stroke="midnightblue" points="484.67,-84.5 494.67,-81 484.67,-77.5 484.67,-84.5"/>
</g>
<!-- Node12 -->
<g id="node12" class="node">
<title>Node12</title>
<g id="a_node12"><a xlink:href="mpe_8c.html#aec8f7f25be4263648b704092672a566b" target="_top" xlink:title=" ">
<polygon fill="none" stroke="black" points="379,-28.5 379,-47.5 459,-47.5 459,-28.5 379,-28.5"/>
<text text-anchor="middle" x="419" y="-35.5" font-family="Helvetica,sans-Serif" font-size="10.00">othercpu_entry</text>
</a>
</g>
</g>
<!-- Node1&#45;&gt;Node12 -->
<g id="edge13" class="edge">
<title>Node1&#45;&gt;Node12</title>
<path fill="none" stroke="midnightblue" d="M485.34,-68.38C471.07,-61.74 453.86,-53.74 440.69,-47.62"/>
<polygon fill="midnightblue" stroke="midnightblue" points="484.12,-71.67 494.67,-72.71 487.07,-65.32 484.12,-71.67"/>
</g>
<!-- Node3 -->
<g id="node3" class="node">
<title>Node3</title>
<g id="a_node3"><a xlink:href="spinlock_8c.html#ab6f3c37ec37006951feccc3c05387cce" target="_top" xlink:title="acquire spinlock to current cpu">
<polygon fill="none" stroke="black" points="259,-111.5 259,-130.5 317,-130.5 317,-111.5 259,-111.5"/>
<text text-anchor="middle" x="288" y="-118.5" font-family="Helvetica,sans-Serif" font-size="10.00">spin_lock</text>
</a>
</g>
</g>
<!-- Node2&#45;&gt;Node3 -->
<g id="edge2" class="edge">
<title>Node2&#45;&gt;Node3</title>
<path fill="none" stroke="midnightblue" d="M373.36,-120.35C354.7,-120.49 333.58,-120.65 317.14,-120.78"/>
<polygon fill="midnightblue" stroke="midnightblue" points="373.46,-123.85 383.43,-120.27 373.4,-116.85 373.46,-123.85"/>
</g>
<!-- Node4 -->
<g id="node4" class="node">
<title>Node4</title>
<g id="a_node4"><a xlink:href="kmt_8c.html#a5ddb8743298012e84cf9cb5faf22212b" target="_top" xlink:title="create thread">
<polygon fill="none" stroke="black" points="125.5,-190.5 125.5,-209.5 190.5,-209.5 190.5,-190.5 125.5,-190.5"/>
<text text-anchor="middle" x="158" y="-197.5" font-family="Helvetica,sans-Serif" font-size="10.00">kmt_create</text>
</a>
</g>
</g>
<!-- Node3&#45;&gt;Node4 -->
<g id="edge3" class="edge">
<title>Node3&#45;&gt;Node4</title>
<path fill="none" stroke="midnightblue" d="M262.71,-135.99C236.77,-152 196.44,-176.89 174.49,-190.44"/>
<polygon fill="midnightblue" stroke="midnightblue" points="264.89,-138.76 271.56,-130.53 261.21,-132.8 264.89,-138.76"/>
</g>
<!-- Node5 -->
<g id="node5" class="node">
<title>Node5</title>
<g id="a_node5"><a xlink:href="kmt_8c.html#af360ef0d98ca30e481cc58ea3695fd58" target="_top" xlink:title=" ">
<polygon fill="none" stroke="black" points="0,-152.5 0,-171.5 83,-171.5 83,-152.5 0,-152.5"/>
<text text-anchor="middle" x="41.5" y="-159.5" font-family="Helvetica,sans-Serif" font-size="10.00">MODULE_DEF</text>
</a>
</g>
</g>
<!-- Node3&#45;&gt;Node5 -->
<g id="edge8" class="edge">
<title>Node3&#45;&gt;Node5</title>
<path fill="none" stroke="midnightblue" d="M248.8,-131.39C232.87,-135.44 214.13,-139.86 197,-143 158.59,-150.03 114.31,-155.18 83.03,-158.33"/>
<polygon fill="midnightblue" stroke="midnightblue" points="250.01,-134.69 258.81,-128.79 248.25,-127.92 250.01,-134.69"/>
</g>
<!-- Node6 -->
<g id="node6" class="node">
<title>Node6</title>
<g id="a_node6"><a xlink:href="kmt_8c.html#a47d8887c87041abd5ea3148232b65c93" target="_top" xlink:title="tear down a thread">
<polygon fill="none" stroke="black" points="119,-114.5 119,-133.5 197,-133.5 197,-114.5 119,-114.5"/>
<text text-anchor="middle" x="158" y="-121.5" font-family="Helvetica,sans-Serif" font-size="10.00">kmt_teardown</text>
</a>
</g>
</g>
<!-- Node3&#45;&gt;Node6 -->
<g id="edge5" class="edge">
<title>Node3&#45;&gt;Node6</title>
<path fill="none" stroke="midnightblue" d="M248.66,-121.9C232.39,-122.28 213.47,-122.72 197.22,-123.1"/>
<polygon fill="midnightblue" stroke="midnightblue" points="248.99,-125.39 258.91,-121.66 248.83,-118.39 248.99,-125.39"/>
</g>
<!-- Node7 -->
<g id="node7" class="node">
<title>Node7</title>
<g id="a_node7"><a xlink:href="kernel_8h.html#a7ef2d722f9c7f8acc1801144a5188825" target="_top" xlink:title=" ">
<polygon fill="none" stroke="black" points="128.5,-76.5 128.5,-95.5 187.5,-95.5 187.5,-76.5 128.5,-76.5"/>
<text text-anchor="middle" x="158" y="-83.5" font-family="Helvetica,sans-Serif" font-size="10.00">MODULE</text>
</a>
</g>
</g>
<!-- Node3&#45;&gt;Node7 -->
<g id="edge7" class="edge">
<title>Node3&#45;&gt;Node7</title>
<path fill="none" stroke="midnightblue" d="M249.08,-110.63C229.5,-105.28 206,-98.85 187.91,-93.91"/>
<polygon fill="midnightblue" stroke="midnightblue" points="248.34,-114.06 258.91,-113.32 250.19,-107.31 248.34,-114.06"/>
</g>
<!-- Node8 -->
<g id="node8" class="node">
<title>Node8</title>
<g id="a_node8"><a xlink:href="os_8c.html#a2be1c9facb49d4439f41b1537d0f3ef8" target="_top" xlink:title="System trap entry.">
<polygon fill="none" stroke="black" points="133.5,-38.5 133.5,-57.5 182.5,-57.5 182.5,-38.5 133.5,-38.5"/>
<text text-anchor="middle" x="158" y="-45.5" font-family="Helvetica,sans-Serif" font-size="10.00">os_trap</text>
</a>
</g>
</g>
<!-- Node3&#45;&gt;Node8 -->
<g id="edge9" class="edge">
<title>Node3&#45;&gt;Node8</title>
<path fill="none" stroke="midnightblue" d="M249.4,-108.47C243.73,-105.99 238.09,-103.17 233,-100 214.57,-88.54 214.88,-79.31 197,-67 192.02,-63.57 186.33,-60.39 180.9,-57.65"/>
<polygon fill="midnightblue" stroke="midnightblue" points="248.28,-111.8 258.86,-112.31 250.91,-105.31 248.28,-111.8"/>
</g>
<!-- Node4&#45;&gt;Node5 -->
<g id="edge4" class="edge">
<title>Node4&#45;&gt;Node5</title>
<path fill="none" stroke="midnightblue" d="M118.35,-187.17C102.99,-182.08 85.62,-176.31 71.38,-171.59"/>
<polygon fill="midnightblue" stroke="midnightblue" points="117.51,-190.58 128.11,-190.41 119.72,-183.94 117.51,-190.58"/>
</g>
<!-- Node6&#45;&gt;Node5 -->
<g id="edge6" class="edge">
<title>Node6&#45;&gt;Node5</title>
<path fill="none" stroke="midnightblue" d="M118.35,-136.83C102.99,-141.92 85.62,-147.69 71.38,-152.41"/>
<polygon fill="midnightblue" stroke="midnightblue" points="119.72,-140.06 128.11,-133.59 117.51,-133.42 119.72,-140.06"/>
</g>
<!-- Node9 -->
<g id="node9" class="node">
<title>Node9</title>
<g id="a_node9"><a xlink:href="os_8c.html#aafec7046aa50c914df86d0d22d4fc1d1" target="_top" xlink:title=" ">
<polygon fill="none" stroke="black" points="0,-38.5 0,-57.5 83,-57.5 83,-38.5 0,-38.5"/>
<text text-anchor="middle" x="41.5" y="-45.5" font-family="Helvetica,sans-Serif" font-size="10.00">MODULE_DEF</text>
</a>
</g>
</g>
<!-- Node8&#45;&gt;Node9 -->
<g id="edge10" class="edge">
<title>Node8&#45;&gt;Node9</title>
<path fill="none" stroke="midnightblue" d="M123.26,-48C110.74,-48 96.42,-48 83.34,-48"/>
<polygon fill="midnightblue" stroke="midnightblue" points="123.28,-51.5 133.28,-48 123.28,-44.5 123.28,-51.5"/>
</g>
<!-- Node11 -->
<g id="node11" class="node">
<title>Node11</title>
<g id="a_node11"><a xlink:href="main_8c.html#ae66f6b31b5ad750f1fe042a706a4e3d4" target="_top" xlink:title=" ">
<polygon fill="none" stroke="black" points="269,-71.5 269,-90.5 307,-90.5 307,-71.5 269,-71.5"/>
<text text-anchor="middle" x="288" y="-78.5" font-family="Helvetica,sans-Serif" font-size="10.00">main</text>
</a>
</g>
</g>
<!-- Node10&#45;&gt;Node11 -->
<g id="edge12" class="edge">
<title>Node10&#45;&gt;Node11</title>
<path fill="none" stroke="midnightblue" d="M381.92,-81C357.62,-81 326.6,-81 307.26,-81"/>
<polygon fill="midnightblue" stroke="midnightblue" points="382.21,-84.5 392.2,-81 382.2,-77.5 382.21,-84.5"/>
</g>
<!-- Node13 -->
<g id="node13" class="node">
<title>Node13</title>
<g id="a_node13"><a xlink:href="mpe_8c.html#af9524b1c09898b69d9980310682a8bea" target="_top" xlink:title=" ">
<polygon fill="none" stroke="black" points="233,-19.5 233,-38.5 343,-38.5 343,-19.5 233,-19.5"/>
<text text-anchor="middle" x="288" y="-26.5" font-family="Helvetica,sans-Serif" font-size="10.00">__am_othercpu_entry</text>
</a>
</g>
</g>
<!-- Node12&#45;&gt;Node13 -->
<g id="edge14" class="edge">
<title>Node12&#45;&gt;Node13</title>
<path fill="none" stroke="midnightblue" d="M368.9,-34.57C360.48,-33.99 351.69,-33.37 343.15,-32.78"/>
<polygon fill="midnightblue" stroke="midnightblue" points="368.73,-38.07 378.95,-35.28 369.21,-31.09 368.73,-38.07"/>
</g>
<!-- Node14 -->
<g id="node14" class="node">
<title>Node14</title>
<g id="a_node14"><a xlink:href="trm_8c.html#a54a85aeee6f6a8ef875d4cca663f9fd8" target="_top" xlink:title=" ">
<polygon fill="none" stroke="black" points="132,-0.5 132,-19.5 184,-19.5 184,-0.5 132,-0.5"/>
<text text-anchor="middle" x="158" y="-7.5" font-family="Helvetica,sans-Serif" font-size="10.00">_start_c</text>
</a>
</g>
</g>
<!-- Node13&#45;&gt;Node14 -->
<g id="edge15" class="edge">
<title>Node13&#45;&gt;Node14</title>
<path fill="none" stroke="midnightblue" d="M222.75,-19.46C209.01,-17.42 195.28,-15.39 184.11,-13.73"/>
<polygon fill="midnightblue" stroke="midnightblue" points="222.31,-22.94 232.72,-20.94 223.34,-16.01 222.31,-22.94"/>
</g>
</g>
</svg>
