<?xml version="1.0" encoding="UTF-8" standalone="no"?>
<!DOCTYPE svg PUBLIC "-//W3C//DTD SVG 1.1//EN"
 "http://www.w3.org/Graphics/SVG/1.1/DTD/svg11.dtd">
<!-- Generated by graphviz version 2.50.0 (20220203.2022)
 -->
<!-- Title: outb Pages: 1 -->
<svg width="776pt" height="294pt"
 viewBox="0.00 0.00 776.00 294.00" xmlns="http://www.w3.org/2000/svg" xmlns:xlink="http://www.w3.org/1999/xlink">
<g id="graph0" class="graph" transform="scale(1 1) rotate(0) translate(4 290)">
<title>outb</title>
<!-- Node1 -->
<g id="node1" class="node">
<title>Node1</title>
<g id="a_node1"><a xlink:title=" ">
<polygon fill="#bfbfbf" stroke="black" points="733,-124.5 733,-143.5 768,-143.5 768,-124.5 733,-124.5"/>
<text text-anchor="middle" x="750.5" y="-131.5" font-family="Helvetica,sans-Serif" font-size="10.00">outb</text>
</a>
</g>
</g>
<!-- Node2 -->
<g id="node2" class="node">
<title>Node2</title>
<g id="a_node2"><a xlink:href="trm_8c.html#afa4d35ce31ec846cb9da5f17455f54c0" target="_top" xlink:title=" ">
<polygon fill="none" stroke="black" points="604,-257.5 604,-276.5 689,-276.5 689,-257.5 604,-257.5"/>
<text text-anchor="middle" x="646.5" y="-264.5" font-family="Helvetica,sans-Serif" font-size="10.00">__am_heap_init</text>
</a>
</g>
</g>
<!-- Node1&#45;&gt;Node2 -->
<g id="edge1" class="edge">
<title>Node1&#45;&gt;Node2</title>
<path fill="none" stroke="midnightblue" d="M741.76,-153.1C732.94,-173.37 717.09,-205.64 697,-229 687.25,-240.33 673.63,-250.49 663.14,-257.45"/>
<polygon fill="midnightblue" stroke="midnightblue" points="745.06,-154.28 745.72,-143.7 738.61,-151.56 745.06,-154.28"/>
</g>
<!-- Node5 -->
<g id="node5" class="node">
<title>Node5</title>
<g id="a_node5"><a xlink:href="ioe_8c.html#a88a238fee7cd006afa69ea97e4914a09" target="_top" xlink:title=" ">
<polygon fill="none" stroke="black" points="596,-200.5 596,-219.5 697,-219.5 697,-200.5 596,-200.5"/>
<text text-anchor="middle" x="646.5" y="-207.5" font-family="Helvetica,sans-Serif" font-size="10.00">__am_lapic_bootap</text>
</a>
</g>
</g>
<!-- Node1&#45;&gt;Node5 -->
<g id="edge4" class="edge">
<title>Node1&#45;&gt;Node5</title>
<path fill="none" stroke="midnightblue" d="M736.53,-151.98C726.83,-164.36 712.58,-180.42 697,-191 691.52,-194.72 685.2,-197.85 678.96,-200.43"/>
<polygon fill="midnightblue" stroke="midnightblue" points="739.52,-153.84 742.75,-143.75 733.93,-149.62 739.52,-153.84"/>
</g>
<!-- Node13 -->
<g id="node13" class="node">
<title>Node13</title>
<g id="a_node13"><a xlink:href="ioe_8c.html#a98996b418230bb2594578ebd944e682c" target="_top" xlink:title=" ">
<polygon fill="none" stroke="black" points="616.5,-162.5 616.5,-181.5 676.5,-181.5 676.5,-162.5 616.5,-162.5"/>
<text text-anchor="middle" x="646.5" y="-169.5" font-family="Helvetica,sans-Serif" font-size="10.00">disk_blkio</text>
</a>
</g>
</g>
<!-- Node1&#45;&gt;Node13 -->
<g id="edge13" class="edge">
<title>Node1&#45;&gt;Node13</title>
<path fill="none" stroke="midnightblue" d="M723.19,-143.8C707.8,-149.53 688.45,-156.74 673.17,-162.44"/>
<polygon fill="midnightblue" stroke="midnightblue" points="724.51,-147.05 732.66,-140.27 722.06,-140.49 724.51,-147.05"/>
</g>
<!-- Node14 -->
<g id="node14" class="node">
<title>Node14</title>
<g id="a_node14"><a xlink:href="trm_8c.html#a6351d8706733262e7e325926b1a9aab7" target="_top" xlink:title=" ">
<polygon fill="none" stroke="black" points="483.5,-152.5 483.5,-171.5 524.5,-171.5 524.5,-152.5 483.5,-152.5"/>
<text text-anchor="middle" x="504" y="-159.5" font-family="Helvetica,sans-Serif" font-size="10.00">putch</text>
</a>
</g>
</g>
<!-- Node1&#45;&gt;Node14 -->
<g id="edge14" class="edge">
<title>Node1&#45;&gt;Node14</title>
<path fill="none" stroke="midnightblue" d="M722.72,-137.07C673.16,-142.74 568.19,-154.76 524.6,-159.75"/>
<polygon fill="midnightblue" stroke="midnightblue" points="723.16,-140.54 732.69,-135.92 722.36,-133.59 723.16,-140.54"/>
</g>
<!-- Node15 -->
<g id="node15" class="node">
<title>Node15</title>
<g id="a_node15"><a xlink:href="ioe_8c.html#a124b85735169c7add3c491093ffbc00e" target="_top" xlink:title=" ">
<polygon fill="none" stroke="black" points="620.5,-86.5 620.5,-105.5 672.5,-105.5 672.5,-86.5 620.5,-86.5"/>
<text text-anchor="middle" x="646.5" y="-93.5" font-family="Helvetica,sans-Serif" font-size="10.00">read_rtc</text>
</a>
</g>
</g>
<!-- Node1&#45;&gt;Node15 -->
<g id="edge17" class="edge">
<title>Node1&#45;&gt;Node15</title>
<path fill="none" stroke="midnightblue" d="M723.12,-124.17C707.61,-118.39 688.1,-111.12 672.78,-105.42"/>
<polygon fill="midnightblue" stroke="midnightblue" points="722.06,-127.51 732.66,-127.73 724.51,-120.95 722.06,-127.51"/>
</g>
<!-- Node22 -->
<g id="node22" class="node">
<title>Node22</title>
<g id="a_node22"><a xlink:href="ioe_8c.html#aa6bed8ea45612252dec485e7a9331a9d" target="_top" xlink:title=" ">
<polygon fill="none" stroke="black" points="214.5,-38.5 214.5,-57.5 265.5,-57.5 265.5,-38.5 214.5,-38.5"/>
<text text-anchor="middle" x="240" y="-45.5" font-family="Helvetica,sans-Serif" font-size="10.00">uart_init</text>
</a>
</g>
</g>
<!-- Node1&#45;&gt;Node22 -->
<g id="edge27" class="edge">
<title>Node1&#45;&gt;Node22</title>
<path fill="none" stroke="midnightblue" d="M738.31,-115.78C729.04,-102.48 714.56,-85.38 697,-77 546.82,-5.38 336.62,-31.65 265.57,-43.48"/>
<polygon fill="midnightblue" stroke="midnightblue" points="735.45,-117.79 743.87,-124.22 741.29,-113.94 735.45,-117.79"/>
</g>
<!-- Node23 -->
<g id="node23" class="node">
<title>Node23</title>
<g id="a_node23"><a xlink:href="ioe_8c.html#ae98b842dcd8760104640a30c32954f6b" target="_top" xlink:title=" ">
<polygon fill="none" stroke="black" points="623.5,-0.5 623.5,-19.5 669.5,-19.5 669.5,-0.5 623.5,-0.5"/>
<text text-anchor="middle" x="646.5" y="-7.5" font-family="Helvetica,sans-Serif" font-size="10.00">uart_tx</text>
</a>
</g>
</g>
<!-- Node1&#45;&gt;Node23 -->
<g id="edge29" class="edge">
<title>Node1&#45;&gt;Node23</title>
<path fill="none" stroke="midnightblue" d="M743.48,-114.63C735.8,-92.64 720.6,-56.86 697,-34 689.32,-26.56 678.88,-21.03 669.57,-17.17"/>
<polygon fill="midnightblue" stroke="midnightblue" points="740.19,-115.81 746.66,-124.2 746.83,-113.61 740.19,-115.81"/>
</g>
<!-- Node3 -->
<g id="node3" class="node">
<title>Node3</title>
<g id="a_node3"><a xlink:href="trm_8c.html#a75e130ff99ad31f9a1df206b5ff8252a" target="_top" xlink:title=" ">
<polygon fill="none" stroke="black" points="314,-266.5 314,-285.5 412,-285.5 412,-266.5 314,-266.5"/>
<text text-anchor="middle" x="363" y="-273.5" font-family="Helvetica,sans-Serif" font-size="10.00">__am_bootcpu_init</text>
</a>
</g>
</g>
<!-- Node2&#45;&gt;Node3 -->
<g id="edge2" class="edge">
<title>Node2&#45;&gt;Node3</title>
<path fill="none" stroke="midnightblue" d="M593.66,-268.66C541.86,-270.31 462.85,-272.84 412.32,-274.46"/>
<polygon fill="midnightblue" stroke="midnightblue" points="594.08,-272.15 603.96,-268.33 593.86,-265.15 594.08,-272.15"/>
</g>
<!-- Node4 -->
<g id="node4" class="node">
<title>Node4</title>
<g id="a_node4"><a xlink:href="trm_8c.html#a54a85aeee6f6a8ef875d4cca663f9fd8" target="_top" xlink:title=" ">
<polygon fill="none" stroke="black" points="98.5,-220.5 98.5,-239.5 150.5,-239.5 150.5,-220.5 98.5,-220.5"/>
<text text-anchor="middle" x="124.5" y="-227.5" font-family="Helvetica,sans-Serif" font-size="10.00">_start_c</text>
</a>
</g>
</g>
<!-- Node3&#45;&gt;Node4 -->
<g id="edge3" class="edge">
<title>Node3&#45;&gt;Node4</title>
<path fill="none" stroke="midnightblue" d="M303.89,-266.66C273.46,-261.56 235.63,-254.89 202,-248 184.76,-244.47 165.47,-239.92 150.57,-236.29"/>
<polygon fill="midnightblue" stroke="midnightblue" points="303.47,-270.14 313.9,-268.33 304.61,-263.23 303.47,-270.14"/>
</g>
<!-- Node6 -->
<g id="node6" class="node">
<title>Node6</title>
<g id="a_node6"><a xlink:href="mpe_8c.html#a0a540532023afb1f31b6f21ce053483b" target="_top" xlink:title=" ">
<polygon fill="none" stroke="black" points="448,-190.5 448,-209.5 560,-209.5 560,-190.5 448,-190.5"/>
<text text-anchor="middle" x="504" y="-197.5" font-family="Helvetica,sans-Serif" font-size="10.00">__am_stop_the_world</text>
</a>
</g>
</g>
<!-- Node5&#45;&gt;Node6 -->
<g id="edge5" class="edge">
<title>Node5&#45;&gt;Node6</title>
<path fill="none" stroke="midnightblue" d="M585.79,-205.75C577.34,-205.15 568.68,-204.53 560.31,-203.94"/>
<polygon fill="midnightblue" stroke="midnightblue" points="585.74,-209.26 595.96,-206.47 586.24,-202.27 585.74,-209.26"/>
</g>
<!-- Node11 -->
<g id="node11" class="node">
<title>Node11</title>
<g id="a_node11"><a xlink:href="mpe_8c.html#a2e4a724e2d067425ff3fd49bc0bf42e1" target="_top" xlink:title=" ">
<polygon fill="none" stroke="black" points="477.5,-228.5 477.5,-247.5 530.5,-247.5 530.5,-228.5 477.5,-228.5"/>
<text text-anchor="middle" x="504" y="-235.5" font-family="Helvetica,sans-Serif" font-size="10.00">mpe_init</text>
</a>
</g>
</g>
<!-- Node5&#45;&gt;Node11 -->
<g id="edge11" class="edge">
<title>Node5&#45;&gt;Node11</title>
<path fill="none" stroke="midnightblue" d="M587.64,-221.53C567.82,-225.48 546.63,-229.7 530.67,-232.88"/>
<polygon fill="midnightblue" stroke="midnightblue" points="588.42,-224.94 597.54,-219.56 587.05,-218.08 588.42,-224.94"/>
</g>
<!-- Node7 -->
<g id="node7" class="node">
<title>Node7</title>
<g id="a_node7"><a xlink:href="trm_8c.html#a483cb97188e557c3c68d3a1572c2cc92" target="_top" xlink:title=" ">
<polygon fill="none" stroke="black" points="347,-190.5 347,-209.5 379,-209.5 379,-190.5 347,-190.5"/>
<text text-anchor="middle" x="363" y="-197.5" font-family="Helvetica,sans-Serif" font-size="10.00">halt</text>
</a>
</g>
</g>
<!-- Node6&#45;&gt;Node7 -->
<g id="edge6" class="edge">
<title>Node6&#45;&gt;Node7</title>
<path fill="none" stroke="midnightblue" d="M437.37,-200C415.56,-200 393.23,-200 379.03,-200"/>
<polygon fill="midnightblue" stroke="midnightblue" points="437.66,-203.5 447.66,-200 437.66,-196.5 437.66,-203.5"/>
</g>
<!-- Node8 -->
<g id="node8" class="node">
<title>Node8</title>
<g id="a_node8"><a xlink:href="trm_8c.html#a12a49ff4d3a586b2315e292c5da3df7e" target="_top" xlink:title=" ">
<polygon fill="none" stroke="black" points="211,-219.5 211,-238.5 269,-238.5 269,-219.5 211,-219.5"/>
<text text-anchor="middle" x="240" y="-226.5" font-family="Helvetica,sans-Serif" font-size="10.00">call_main</text>
</a>
</g>
</g>
<!-- Node7&#45;&gt;Node8 -->
<g id="edge7" class="edge">
<title>Node7&#45;&gt;Node8</title>
<path fill="none" stroke="midnightblue" d="M336.86,-206.03C317.1,-210.76 289.59,-217.35 269.1,-222.26"/>
<polygon fill="midnightblue" stroke="midnightblue" points="337.77,-209.41 346.68,-203.67 336.13,-202.6 337.77,-209.41"/>
</g>
<!-- Node9 -->
<g id="node9" class="node">
<title>Node9</title>
<g id="a_node9"><a xlink:href="os_8c.html#a5f9cb32664e017ca15c49ec66e5342e4" target="_top" xlink:title=" ">
<polygon fill="none" stroke="black" points="217,-180.5 217,-199.5 263,-199.5 263,-180.5 217,-180.5"/>
<text text-anchor="middle" x="240" y="-187.5" font-family="Helvetica,sans-Serif" font-size="10.00">os_run</text>
</a>
</g>
</g>
<!-- Node7&#45;&gt;Node9 -->
<g id="edge9" class="edge">
<title>Node7&#45;&gt;Node9</title>
<path fill="none" stroke="midnightblue" d="M336.55,-197.9C314.82,-196.1 283.9,-193.55 263.17,-191.83"/>
<polygon fill="midnightblue" stroke="midnightblue" points="336.42,-201.4 346.68,-198.73 337,-194.42 336.42,-201.4"/>
</g>
<!-- Node8&#45;&gt;Node4 -->
<g id="edge8" class="edge">
<title>Node8&#45;&gt;Node4</title>
<path fill="none" stroke="midnightblue" d="M200.5,-229.34C183.99,-229.48 165.18,-229.65 150.53,-229.78"/>
<polygon fill="midnightblue" stroke="midnightblue" points="200.98,-232.84 210.94,-229.25 200.91,-225.84 200.98,-232.84"/>
</g>
<!-- Node10 -->
<g id="node10" class="node">
<title>Node10</title>
<g id="a_node10"><a xlink:href="os_8c.html#aafec7046aa50c914df86d0d22d4fc1d1" target="_top" xlink:title=" ">
<polygon fill="none" stroke="black" points="83,-180.5 83,-199.5 166,-199.5 166,-180.5 83,-180.5"/>
<text text-anchor="middle" x="124.5" y="-187.5" font-family="Helvetica,sans-Serif" font-size="10.00">MODULE_DEF</text>
</a>
</g>
</g>
<!-- Node9&#45;&gt;Node10 -->
<g id="edge10" class="edge">
<title>Node9&#45;&gt;Node10</title>
<path fill="none" stroke="midnightblue" d="M206.84,-190C194.28,-190 179.73,-190 166.43,-190"/>
<polygon fill="midnightblue" stroke="midnightblue" points="206.85,-193.5 216.85,-190 206.85,-186.5 206.85,-193.5"/>
</g>
<!-- Node12 -->
<g id="node12" class="node">
<title>Node12</title>
<g id="a_node12"><a xlink:href="main_8c.html#ae66f6b31b5ad750f1fe042a706a4e3d4" target="_top" xlink:title=" ">
<polygon fill="none" stroke="black" points="344,-228.5 344,-247.5 382,-247.5 382,-228.5 344,-228.5"/>
<text text-anchor="middle" x="363" y="-235.5" font-family="Helvetica,sans-Serif" font-size="10.00">main</text>
</a>
</g>
</g>
<!-- Node11&#45;&gt;Node12 -->
<g id="edge12" class="edge">
<title>Node11&#45;&gt;Node12</title>
<path fill="none" stroke="midnightblue" d="M466.88,-238C439.7,-238 403.57,-238 382.15,-238"/>
<polygon fill="midnightblue" stroke="midnightblue" points="467.18,-241.5 477.18,-238 467.18,-234.5 467.18,-241.5"/>
</g>
<!-- Node14&#45;&gt;Node7 -->
<g id="edge15" class="edge">
<title>Node14&#45;&gt;Node7</title>
<path fill="none" stroke="midnightblue" d="M473.44,-170.08C444.58,-177.97 401.82,-189.66 379.24,-195.83"/>
<polygon fill="midnightblue" stroke="midnightblue" points="474.66,-173.38 483.38,-167.36 472.81,-166.62 474.66,-173.38"/>
</g>
<!-- Node14&#45;&gt;Node9 -->
<g id="edge16" class="edge">
<title>Node14&#45;&gt;Node9</title>
<path fill="none" stroke="midnightblue" d="M473.23,-164.78C435.98,-168.32 370.23,-174.71 314,-181 296.87,-182.92 277.5,-185.31 263.03,-187.15"/>
<polygon fill="midnightblue" stroke="midnightblue" points="473.77,-168.25 483.39,-163.82 473.11,-161.28 473.77,-168.25"/>
</g>
<!-- Node16 -->
<g id="node16" class="node">
<title>Node16</title>
<g id="a_node16"><a xlink:href="ioe_8c.html#ad0681f53bec9167d7a8d4d848b3ce2e0" target="_top" xlink:title=" ">
<polygon fill="none" stroke="black" points="462.5,-114.5 462.5,-133.5 545.5,-133.5 545.5,-114.5 462.5,-114.5"/>
<text text-anchor="middle" x="504" y="-121.5" font-family="Helvetica,sans-Serif" font-size="10.00">read_rtc_async</text>
</a>
</g>
</g>
<!-- Node15&#45;&gt;Node16 -->
<g id="edge18" class="edge">
<title>Node15&#45;&gt;Node16</title>
<path fill="none" stroke="midnightblue" d="M610.31,-103.01C590.65,-106.93 566.07,-111.83 545.6,-115.91"/>
<polygon fill="midnightblue" stroke="midnightblue" points="611.26,-106.39 620.38,-101.01 609.89,-99.53 611.26,-106.39"/>
</g>
<!-- Node17 -->
<g id="node17" class="node">
<title>Node17</title>
<g id="a_node17"><a xlink:href="ioe_8c.html#a7b167e0bb31c8168406860a278ce693a" target="_top" xlink:title=" ">
<polygon fill="none" stroke="black" points="335.5,-76.5 335.5,-95.5 390.5,-95.5 390.5,-76.5 335.5,-76.5"/>
<text text-anchor="middle" x="363" y="-83.5" font-family="Helvetica,sans-Serif" font-size="10.00">timer_rtc</text>
</a>
</g>
</g>
<!-- Node15&#45;&gt;Node17 -->
<g id="edge26" class="edge">
<title>Node15&#45;&gt;Node17</title>
<path fill="none" stroke="midnightblue" d="M610.01,-94.74C552.92,-92.71 441.9,-88.77 390.86,-86.95"/>
<polygon fill="midnightblue" stroke="midnightblue" points="609.9,-98.24 620.02,-95.09 610.15,-91.24 609.9,-98.24"/>
</g>
<!-- Node16&#45;&gt;Node17 -->
<g id="edge19" class="edge">
<title>Node16&#45;&gt;Node17</title>
<path fill="none" stroke="midnightblue" d="M458.03,-111.71C435.82,-105.63 409.77,-98.51 390.73,-93.31"/>
<polygon fill="midnightblue" stroke="midnightblue" points="457.36,-115.15 467.92,-114.41 459.2,-108.4 457.36,-115.15"/>
</g>
<!-- Node20 -->
<g id="node20" class="node">
<title>Node20</title>
<g id="a_node20"><a xlink:href="ioe_8c.html#a716ac8111009464db83866c3b49adbbb" target="_top" xlink:title=" ">
<polygon fill="none" stroke="black" points="335,-114.5 335,-133.5 391,-133.5 391,-114.5 335,-114.5"/>
<text text-anchor="middle" x="363" y="-121.5" font-family="Helvetica,sans-Serif" font-size="10.00">wait_sec</text>
</a>
</g>
</g>
<!-- Node16&#45;&gt;Node20 -->
<g id="edge22" class="edge">
<title>Node16&#45;&gt;Node20</title>
<path fill="none" stroke="midnightblue" d="M452.2,-124C431.56,-124 408.55,-124 391.2,-124"/>
<polygon fill="midnightblue" stroke="midnightblue" points="452.42,-127.5 462.42,-124 452.42,-120.5 452.42,-127.5"/>
</g>
<!-- Node18 -->
<g id="node18" class="node">
<title>Node18</title>
<g id="a_node18"><a xlink:href="ioe_8c.html#ac17b85035372c81a45e604e6b4783db2" target="_top" xlink:title=" ">
<polygon fill="none" stroke="black" points="96.5,-76.5 96.5,-95.5 152.5,-95.5 152.5,-76.5 96.5,-76.5"/>
<text text-anchor="middle" x="124.5" y="-83.5" font-family="Helvetica,sans-Serif" font-size="10.00">timer_init</text>
</a>
</g>
</g>
<!-- Node17&#45;&gt;Node18 -->
<g id="edge20" class="edge">
<title>Node17&#45;&gt;Node18</title>
<path fill="none" stroke="midnightblue" d="M325.12,-86C277.39,-86 195.31,-86 152.8,-86"/>
<polygon fill="midnightblue" stroke="midnightblue" points="325.33,-89.5 335.33,-86 325.33,-82.5 325.33,-89.5"/>
</g>
<!-- Node19 -->
<g id="node19" class="node">
<title>Node19</title>
<g id="a_node19"><a xlink:href="ioe_8c.html#a45ecef4130276c1c79d872c582cd3839" target="_top" xlink:title=" ">
<polygon fill="none" stroke="black" points="0,-57.5 0,-76.5 47,-76.5 47,-57.5 0,-57.5"/>
<text text-anchor="middle" x="23.5" y="-64.5" font-family="Helvetica,sans-Serif" font-size="10.00">ioe_init</text>
</a>
</g>
</g>
<!-- Node18&#45;&gt;Node19 -->
<g id="edge21" class="edge">
<title>Node18&#45;&gt;Node19</title>
<path fill="none" stroke="midnightblue" d="M86.25,-78.85C73.11,-76.33 58.73,-73.57 47.17,-71.35"/>
<polygon fill="midnightblue" stroke="midnightblue" points="85.97,-82.36 96.45,-80.81 87.29,-75.49 85.97,-82.36"/>
</g>
<!-- Node21 -->
<g id="node21" class="node">
<title>Node21</title>
<g id="a_node21"><a xlink:href="ioe_8c.html#a8f4d57167e8d4b53c00c84e504f330ef" target="_top" xlink:title=" ">
<polygon fill="none" stroke="black" points="202,-114.5 202,-133.5 278,-133.5 278,-114.5 202,-114.5"/>
<text text-anchor="middle" x="240" y="-121.5" font-family="Helvetica,sans-Serif" font-size="10.00">estimate_freq</text>
</a>
</g>
</g>
<!-- Node20&#45;&gt;Node21 -->
<g id="edge23" class="edge">
<title>Node20&#45;&gt;Node21</title>
<path fill="none" stroke="midnightblue" d="M324.54,-124C309.79,-124 292.88,-124 278.16,-124"/>
<polygon fill="midnightblue" stroke="midnightblue" points="324.85,-127.5 334.85,-124 324.85,-120.5 324.85,-127.5"/>
</g>
<!-- Node21&#45;&gt;Node18 -->
<g id="edge25" class="edge">
<title>Node21&#45;&gt;Node18</title>
<path fill="none" stroke="midnightblue" d="M200.83,-111.22C185,-105.92 167,-99.9 152.57,-95.06"/>
<polygon fill="midnightblue" stroke="midnightblue" points="199.77,-114.56 210.36,-114.41 201.99,-107.92 199.77,-114.56"/>
</g>
<!-- Node21&#45;&gt;Node21 -->
<g id="edge24" class="edge">
<title>Node21&#45;&gt;Node21</title>
<path fill="none" stroke="midnightblue" d="M261.11,-143.4C259.7,-148.31 252.66,-152 240,-152 219.74,-152 213.88,-142.57 222.43,-133.76"/>
<polygon fill="midnightblue" stroke="midnightblue" points="264.3,-141.94 257.57,-133.76 257.73,-144.35 264.3,-141.94"/>
</g>
<!-- Node22&#45;&gt;Node19 -->
<g id="edge28" class="edge">
<title>Node22&#45;&gt;Node19</title>
<path fill="none" stroke="midnightblue" d="M204.39,-51.07C160.14,-54.99 84.77,-61.66 47.2,-64.99"/>
<polygon fill="midnightblue" stroke="midnightblue" points="204.74,-54.55 214.39,-50.18 204.12,-47.58 204.74,-54.55"/>
</g>
</g>
</svg>
