<?xml version="1.0" encoding="UTF-8" standalone="no"?>
<!DOCTYPE svg PUBLIC "-//W3C//DTD SVG 1.1//EN"
 "http://www.w3.org/Graphics/SVG/1.1/DTD/svg11.dtd">
<!-- Generated by graphviz version 2.50.0 (20220203.2022)
 -->
<!-- Title: ioe_write Pages: 1 -->
<svg width="993pt" height="313pt"
 viewBox="0.00 0.00 993.00 313.00" xmlns="http://www.w3.org/2000/svg" xmlns:xlink="http://www.w3.org/1999/xlink">
<g id="graph0" class="graph" transform="scale(1 1) rotate(0) translate(4 309)">
<title>ioe_write</title>
<!-- Node1 -->
<g id="node1" class="node">
<title>Node1</title>
<g id="a_node1"><a xlink:title=" ">
<polygon fill="#bfbfbf" stroke="black" points="0,-171.5 0,-190.5 56,-190.5 56,-171.5 0,-171.5"/>
<text text-anchor="middle" x="28" y="-178.5" font-family="Helvetica,sans-Serif" font-size="10.00">ioe_write</text>
</a>
</g>
</g>
<!-- Node2 -->
<g id="node2" class="node">
<title>Node2</title>
<g id="a_node2"><a xlink:href="native_2ioe_8c.html#ac7243d0dd8589da2317ee06ee132c2f0" target="_top" xlink:title=" ">
<polygon fill="none" stroke="black" points="92,-171.5 92,-190.5 132,-190.5 132,-171.5 92,-171.5"/>
<text text-anchor="middle" x="112" y="-178.5" font-family="Helvetica,sans-Serif" font-size="10.00">do_io</text>
</a>
</g>
</g>
<!-- Node1&#45;&gt;Node2 -->
<g id="edge1" class="edge">
<title>Node1&#45;&gt;Node2</title>
<path fill="none" stroke="midnightblue" d="M56.3,-181C64.49,-181 73.51,-181 81.81,-181"/>
<polygon fill="midnightblue" stroke="midnightblue" points="81.84,-184.5 91.84,-181 81.84,-177.5 81.84,-184.5"/>
</g>
<!-- Node3 -->
<g id="node3" class="node">
<title>Node3</title>
<g id="a_node3"><a xlink:href="native_2ioe_8c.html#a85e8849eae1811aa4fa0527476f39782" target="_top" xlink:title=" ">
<polygon fill="none" stroke="black" points="168,-171.5 168,-190.5 245,-190.5 245,-171.5 168,-171.5"/>
<text text-anchor="middle" x="206.5" y="-178.5" font-family="Helvetica,sans-Serif" font-size="10.00">__am_ioe_init</text>
</a>
</g>
</g>
<!-- Node2&#45;&gt;Node3 -->
<g id="edge2" class="edge">
<title>Node2&#45;&gt;Node3</title>
<path fill="none" stroke="midnightblue" d="M132.17,-181C139.62,-181 148.53,-181 157.53,-181"/>
<polygon fill="midnightblue" stroke="midnightblue" points="157.65,-184.5 167.65,-181 157.65,-177.5 157.65,-184.5"/>
</g>
<!-- Node4 -->
<g id="node4" class="node">
<title>Node4</title>
<g id="a_node4"><a xlink:href="audio_8c.html#aeafbbf0a74478c9fbf1d6bb3e0d359d0" target="_top" xlink:title=" ">
<polygon fill="none" stroke="black" points="281,-266.5 281,-285.5 368,-285.5 368,-266.5 281,-266.5"/>
<text text-anchor="middle" x="324.5" y="-273.5" font-family="Helvetica,sans-Serif" font-size="10.00">__am_audio_init</text>
</a>
</g>
</g>
<!-- Node3&#45;&gt;Node4 -->
<g id="edge3" class="edge">
<title>Node3&#45;&gt;Node4</title>
<path fill="none" stroke="midnightblue" d="M214.71,-190.54C226.91,-206.16 253.04,-237.41 281,-257 283.5,-258.75 286.19,-260.4 288.95,-261.94"/>
<polygon fill="midnightblue" stroke="midnightblue" points="287.42,-265.08 297.92,-266.46 290.57,-258.83 287.42,-265.08"/>
</g>
<!-- Node5 -->
<g id="node5" class="node">
<title>Node5</title>
<g id="a_node5"><a xlink:href="disk_8c.html#a85a821a1956812f3ed4b2ac56f17a3a9" target="_top" xlink:title=" ">
<polygon fill="none" stroke="black" points="283.5,-228.5 283.5,-247.5 365.5,-247.5 365.5,-228.5 283.5,-228.5"/>
<text text-anchor="middle" x="324.5" y="-235.5" font-family="Helvetica,sans-Serif" font-size="10.00">__am_disk_init</text>
</a>
</g>
</g>
<!-- Node3&#45;&gt;Node5 -->
<g id="edge4" class="edge">
<title>Node3&#45;&gt;Node5</title>
<path fill="none" stroke="midnightblue" d="M225.48,-190.66C240.27,-198.52 261.85,-209.78 281,-219 284.58,-220.73 288.36,-222.49 292.12,-224.22"/>
<polygon fill="midnightblue" stroke="midnightblue" points="290.78,-227.45 301.33,-228.37 293.66,-221.07 290.78,-227.45"/>
</g>
<!-- Node6 -->
<g id="node6" class="node">
<title>Node6</title>
<g id="a_node6"><a xlink:href="gpu_8c.html#a374867a82bb68896aa79bea1f6d5eb2b" target="_top" xlink:title=" ">
<polygon fill="none" stroke="black" points="284.5,-190.5 284.5,-209.5 364.5,-209.5 364.5,-190.5 284.5,-190.5"/>
<text text-anchor="middle" x="324.5" y="-197.5" font-family="Helvetica,sans-Serif" font-size="10.00">__am_gpu_init</text>
</a>
</g>
</g>
<!-- Node3&#45;&gt;Node6 -->
<g id="edge5" class="edge">
<title>Node3&#45;&gt;Node6</title>
<path fill="none" stroke="midnightblue" d="M245.16,-187.17C254.49,-188.7 264.62,-190.36 274.41,-191.96"/>
<polygon fill="midnightblue" stroke="midnightblue" points="274,-195.44 284.43,-193.6 275.13,-188.53 274,-195.44"/>
</g>
<!-- Node8 -->
<g id="node8" class="node">
<title>Node8</title>
<g id="a_node8"><a xlink:href="input_8c.html#a02d166c8d2549e580fd16379de9e80f1" target="_top" xlink:title=" ">
<polygon fill="none" stroke="black" points="282,-152.5 282,-171.5 367,-171.5 367,-152.5 282,-152.5"/>
<text text-anchor="middle" x="324.5" y="-159.5" font-family="Helvetica,sans-Serif" font-size="10.00">__am_input_init</text>
</a>
</g>
</g>
<!-- Node3&#45;&gt;Node8 -->
<g id="edge7" class="edge">
<title>Node3&#45;&gt;Node8</title>
<path fill="none" stroke="midnightblue" d="M245.16,-174.83C253.62,-173.45 262.74,-171.95 271.67,-170.49"/>
<polygon fill="midnightblue" stroke="midnightblue" points="272.31,-173.93 281.61,-168.86 271.18,-167.02 272.31,-173.93"/>
</g>
<!-- Node26 -->
<g id="node26" class="node">
<title>Node26</title>
<g id="a_node26"><a xlink:href="timer_8c.html#a6fcdcd5b43b132b68a427c217be894b0" target="_top" xlink:title=" ">
<polygon fill="none" stroke="black" points="281.5,-114.5 281.5,-133.5 367.5,-133.5 367.5,-114.5 281.5,-114.5"/>
<text text-anchor="middle" x="324.5" y="-121.5" font-family="Helvetica,sans-Serif" font-size="10.00">__am_timer_init</text>
</a>
</g>
</g>
<!-- Node3&#45;&gt;Node26 -->
<g id="edge25" class="edge">
<title>Node3&#45;&gt;Node26</title>
<path fill="none" stroke="midnightblue" d="M225.48,-171.34C240.27,-163.48 261.85,-152.22 281,-143 284.58,-141.27 288.36,-139.51 292.12,-137.78"/>
<polygon fill="midnightblue" stroke="midnightblue" points="293.66,-140.93 301.33,-133.63 290.78,-134.55 293.66,-140.93"/>
</g>
<!-- Node27 -->
<g id="node27" class="node">
<title>Node27</title>
<g id="a_node27"><a xlink:href="native_2ioe_8c.html#a6ade281e99f1f270ffeebb9d82416221" target="_top" xlink:title=" ">
<polygon fill="none" stroke="black" points="310,-76.5 310,-95.5 339,-95.5 339,-76.5 310,-76.5"/>
<text text-anchor="middle" x="324.5" y="-83.5" font-family="Helvetica,sans-Serif" font-size="10.00">fail</text>
</a>
</g>
</g>
<!-- Node3&#45;&gt;Node27 -->
<g id="edge26" class="edge">
<title>Node3&#45;&gt;Node27</title>
<path fill="none" stroke="midnightblue" d="M214.71,-171.46C226.91,-155.84 253.04,-124.59 281,-105 286.82,-100.92 293.66,-97.4 300.12,-94.54"/>
<polygon fill="midnightblue" stroke="midnightblue" points="301.85,-97.62 309.79,-90.6 299.2,-91.14 301.85,-97.62"/>
</g>
<!-- Node7 -->
<g id="node7" class="node">
<title>Node7</title>
<g id="a_node7"><a xlink:href="gpu_8c.html#a8671032d771362f684c8ee31cad0ed02" target="_top" xlink:title=" ">
<polygon fill="none" stroke="black" points="405,-190.5 405,-209.5 476,-209.5 476,-190.5 405,-190.5"/>
<text text-anchor="middle" x="440.5" y="-197.5" font-family="Helvetica,sans-Serif" font-size="10.00">texture_sync</text>
</a>
</g>
</g>
<!-- Node6&#45;&gt;Node7 -->
<g id="edge6" class="edge">
<title>Node6&#45;&gt;Node7</title>
<path fill="none" stroke="midnightblue" d="M364.73,-200C374.39,-200 384.8,-200 394.7,-200"/>
<polygon fill="midnightblue" stroke="midnightblue" points="394.77,-203.5 404.77,-200 394.77,-196.5 394.77,-203.5"/>
</g>
<!-- Node9 -->
<g id="node9" class="node">
<title>Node9</title>
<g id="a_node9"><a xlink:href="input_8c.html#a77413c19d2c314aba317257b3cafb1c7" target="_top" xlink:title=" ">
<polygon fill="none" stroke="black" points="404,-152.5 404,-171.5 477,-171.5 477,-152.5 404,-152.5"/>
<text text-anchor="middle" x="440.5" y="-159.5" font-family="Helvetica,sans-Serif" font-size="10.00">event_thread</text>
</a>
</g>
</g>
<!-- Node8&#45;&gt;Node9 -->
<g id="edge8" class="edge">
<title>Node8&#45;&gt;Node9</title>
<path fill="none" stroke="midnightblue" d="M367.3,-162C375.89,-162 384.97,-162 393.69,-162"/>
<polygon fill="midnightblue" stroke="midnightblue" points="393.71,-165.5 403.71,-162 393.71,-158.5 393.71,-165.5"/>
</g>
<!-- Node10 -->
<g id="node10" class="node">
<title>Node10</title>
<g id="a_node10"><a xlink:href="platform_8c.html#ac9a72275bbb5c5a92fdd21dfb051b5d4" target="_top" xlink:title=" ">
<polygon fill="none" stroke="black" points="513,-171.5 513,-190.5 620,-190.5 620,-171.5 513,-171.5"/>
<text text-anchor="middle" x="566.5" y="-178.5" font-family="Helvetica,sans-Serif" font-size="10.00">__am_send_kbd_intr</text>
</a>
</g>
</g>
<!-- Node9&#45;&gt;Node10 -->
<g id="edge9" class="edge">
<title>Node9&#45;&gt;Node10</title>
<path fill="none" stroke="midnightblue" d="M477.03,-167.44C485.14,-168.69 494,-170.04 502.87,-171.4"/>
<polygon fill="midnightblue" stroke="midnightblue" points="502.44,-174.88 512.86,-172.93 503.5,-167.96 502.44,-174.88"/>
</g>
<!-- Node11 -->
<g id="node11" class="node">
<title>Node11</title>
<g id="a_node11"><a xlink:href="x86_2qemu_2trm_8c.html#a483cb97188e557c3c68d3a1572c2cc92" target="_top" xlink:title=" ">
<polygon fill="none" stroke="black" points="550.5,-133.5 550.5,-152.5 582.5,-152.5 582.5,-133.5 550.5,-133.5"/>
<text text-anchor="middle" x="566.5" y="-140.5" font-family="Helvetica,sans-Serif" font-size="10.00">halt</text>
</a>
</g>
</g>
<!-- Node9&#45;&gt;Node11 -->
<g id="edge10" class="edge">
<title>Node9&#45;&gt;Node11</title>
<path fill="none" stroke="midnightblue" d="M477.03,-156.56C497.28,-153.45 522.16,-149.64 540.37,-146.85"/>
<polygon fill="midnightblue" stroke="midnightblue" points="541.14,-150.27 550.49,-145.3 540.08,-143.35 541.14,-150.27"/>
</g>
<!-- Node12 -->
<g id="node12" class="node">
<title>Node12</title>
<g id="a_node12"><a xlink:href="platform_8c.html#a66cf43dfc7e13b3775d6d2040722da59" target="_top" xlink:title=" ">
<polygon fill="none" stroke="black" points="661.5,-275.5 661.5,-294.5 762.5,-294.5 762.5,-275.5 661.5,-275.5"/>
<text text-anchor="middle" x="712" y="-282.5" font-family="Helvetica,sans-Serif" font-size="10.00">__am_exit_platform</text>
</a>
</g>
</g>
<!-- Node11&#45;&gt;Node12 -->
<g id="edge11" class="edge">
<title>Node11&#45;&gt;Node12</title>
<path fill="none" stroke="midnightblue" d="M582.67,-145.01C594.26,-147.29 609.92,-152.07 620,-162 652.17,-193.69 625.85,-223.39 656,-257 660.97,-262.54 667.29,-267.13 673.86,-270.89"/>
<polygon fill="midnightblue" stroke="midnightblue" points="672.38,-274.06 682.87,-275.5 675.56,-267.83 672.38,-274.06"/>
</g>
<!-- Node14 -->
<g id="node14" class="node">
<title>Node14</title>
<g id="a_node14"><a xlink:href="x86_2qemu_2mpe_8c.html#a0a540532023afb1f31b6f21ce053483b" target="_top" xlink:title=" ">
<polygon fill="none" stroke="black" points="656,-228.5 656,-247.5 768,-247.5 768,-228.5 656,-228.5"/>
<text text-anchor="middle" x="712" y="-235.5" font-family="Helvetica,sans-Serif" font-size="10.00">__am_stop_the_world</text>
</a>
</g>
</g>
<!-- Node11&#45;&gt;Node14 -->
<g id="edge13" class="edge">
<title>Node11&#45;&gt;Node14</title>
<path fill="none" stroke="midnightblue" d="M582.61,-145.7C593.87,-148.33 609.12,-153.25 620,-162 643.35,-180.78 632.52,-200.39 656,-219 658.26,-220.79 660.71,-222.42 663.26,-223.9"/>
<polygon fill="midnightblue" stroke="midnightblue" points="661.77,-227.07 672.29,-228.38 664.89,-220.8 661.77,-227.07"/>
</g>
<!-- Node20 -->
<g id="node20" class="node">
<title>Node20</title>
<g id="a_node20"><a xlink:href="x86_8h.html#acc919e7809ef1db2b20aa3804f540b5c" target="_top" xlink:title=" ">
<polygon fill="none" stroke="black" points="697.5,-190.5 697.5,-209.5 726.5,-209.5 726.5,-190.5 697.5,-190.5"/>
<text text-anchor="middle" x="712" y="-197.5" font-family="Helvetica,sans-Serif" font-size="10.00">cli</text>
</a>
</g>
</g>
<!-- Node11&#45;&gt;Node20 -->
<g id="edge19" class="edge">
<title>Node11&#45;&gt;Node20</title>
<path fill="none" stroke="midnightblue" d="M582.88,-147.94C593.47,-151.49 607.77,-156.59 620,-162 636.55,-169.32 639.4,-173.8 656,-181 666.18,-185.41 677.75,-189.54 687.64,-192.81"/>
<polygon fill="midnightblue" stroke="midnightblue" points="686.63,-196.16 697.22,-195.88 688.77,-189.49 686.63,-196.16"/>
</g>
<!-- Node21 -->
<g id="node21" class="node">
<title>Node21</title>
<g id="a_node21"><a xlink:href="x86_2qemu_2mpe_8c.html#ab701de78cad32896c923ce900087e714" target="_top" xlink:title=" ">
<polygon fill="none" stroke="black" points="678,-152.5 678,-171.5 746,-171.5 746,-152.5 678,-152.5"/>
<text text-anchor="middle" x="712" y="-159.5" font-family="Helvetica,sans-Serif" font-size="10.00">cpu_current</text>
</a>
</g>
</g>
<!-- Node11&#45;&gt;Node21 -->
<g id="edge20" class="edge">
<title>Node11&#45;&gt;Node21</title>
<path fill="none" stroke="midnightblue" d="M582.59,-145C602.58,-147.64 638.7,-152.43 667.55,-156.25"/>
<polygon fill="midnightblue" stroke="midnightblue" points="667.43,-159.76 677.8,-157.6 668.35,-152.82 667.43,-159.76"/>
</g>
<!-- Node22 -->
<g id="node22" class="node">
<title>Node22</title>
<g id="a_node22"><a xlink:href="x86_8h.html#a2adfe40c0aadff727889d263815cb8ed" target="_top" xlink:title=" ">
<polygon fill="none" stroke="black" points="697.5,-114.5 697.5,-133.5 726.5,-133.5 726.5,-114.5 697.5,-114.5"/>
<text text-anchor="middle" x="712" y="-121.5" font-family="Helvetica,sans-Serif" font-size="10.00">hlt</text>
</a>
</g>
</g>
<!-- Node11&#45;&gt;Node22 -->
<g id="edge21" class="edge">
<title>Node11&#45;&gt;Node22</title>
<path fill="none" stroke="midnightblue" d="M582.59,-141C607.58,-137.69 657.76,-131.05 687.45,-127.12"/>
<polygon fill="midnightblue" stroke="midnightblue" points="687.93,-130.59 697.38,-125.8 687.01,-123.65 687.93,-130.59"/>
</g>
<!-- Node23 -->
<g id="node23" class="node">
<title>Node23</title>
<g id="a_node23"><a xlink:href="x86_8h.html#af92fc55c49437b9152499a13ba2b6585" target="_top" xlink:title=" ">
<polygon fill="none" stroke="black" points="693,-76.5 693,-95.5 731,-95.5 731,-76.5 693,-76.5"/>
<text text-anchor="middle" x="712" y="-83.5" font-family="Helvetica,sans-Serif" font-size="10.00">outw</text>
</a>
</g>
</g>
<!-- Node11&#45;&gt;Node23 -->
<g id="edge22" class="edge">
<title>Node11&#45;&gt;Node23</title>
<path fill="none" stroke="midnightblue" d="M582.71,-136.07C600.23,-128.18 629.96,-115.07 656,-105 664.67,-101.65 674.21,-98.25 682.88,-95.27"/>
<polygon fill="midnightblue" stroke="midnightblue" points="684.2,-98.52 692.55,-92 681.95,-91.89 684.2,-98.52"/>
</g>
<!-- Node24 -->
<g id="node24" class="node">
<title>Node24</title>
<g id="a_node24"><a xlink:href="stdio_8c.html#a55f3d956bb2ba20b5059e9e25484a47f" target="_top" xlink:title=" ">
<polygon fill="none" stroke="black" points="693,-38.5 693,-57.5 731,-57.5 731,-38.5 693,-38.5"/>
<text text-anchor="middle" x="712" y="-45.5" font-family="Helvetica,sans-Serif" font-size="10.00">printf</text>
</a>
</g>
</g>
<!-- Node11&#45;&gt;Node24 -->
<g id="edge23" class="edge">
<title>Node11&#45;&gt;Node24</title>
<path fill="none" stroke="midnightblue" d="M576.4,-133.27C591.42,-117.38 623.33,-85.75 656,-67 664.4,-62.18 674.23,-58.3 683.23,-55.34"/>
<polygon fill="midnightblue" stroke="midnightblue" points="684.38,-58.65 692.93,-52.38 682.34,-51.95 684.38,-58.65"/>
</g>
<!-- Node25 -->
<g id="node25" class="node">
<title>Node25</title>
<g id="a_node25"><a xlink:href="native_2trm_8c.html#a6351d8706733262e7e325926b1a9aab7" target="_top" xlink:title=" ">
<polygon fill="none" stroke="black" points="691.5,-0.5 691.5,-19.5 732.5,-19.5 732.5,-0.5 691.5,-0.5"/>
<text text-anchor="middle" x="712" y="-7.5" font-family="Helvetica,sans-Serif" font-size="10.00">putch</text>
</a>
</g>
</g>
<!-- Node11&#45;&gt;Node25 -->
<g id="edge24" class="edge">
<title>Node11&#45;&gt;Node25</title>
<path fill="none" stroke="midnightblue" d="M572.5,-133.21C584.16,-111.35 615.26,-58.18 656,-29 663.56,-23.59 672.78,-19.61 681.51,-16.74"/>
<polygon fill="midnightblue" stroke="midnightblue" points="682.77,-20.02 691.38,-13.85 680.8,-13.3 682.77,-20.02"/>
</g>
<!-- Node13 -->
<g id="node13" class="node">
<title>Node13</title>
<g id="a_node13"><a xlink:href="x86_2qemu_2mpe_8c.html#af486ec575d47720d28eee63644206110" target="_top" xlink:title=" ">
<polygon fill="none" stroke="black" points="823.5,-285.5 823.5,-304.5 885.5,-304.5 885.5,-285.5 823.5,-285.5"/>
<text text-anchor="middle" x="854.5" y="-292.5" font-family="Helvetica,sans-Serif" font-size="10.00">cpu_count</text>
</a>
</g>
</g>
<!-- Node12&#45;&gt;Node13 -->
<g id="edge12" class="edge">
<title>Node12&#45;&gt;Node13</title>
<path fill="none" stroke="midnightblue" d="M762.54,-288.53C779.13,-289.71 797.41,-291.01 813.21,-292.13"/>
<polygon fill="midnightblue" stroke="midnightblue" points="812.96,-295.62 823.19,-292.84 813.46,-288.64 812.96,-295.62"/>
</g>
<!-- Node15 -->
<g id="node15" class="node">
<title>Node15</title>
<g id="a_node15"><a xlink:href="x86_2qemu_2ioe_8c.html#a88a238fee7cd006afa69ea97e4914a09" target="_top" xlink:title=" ">
<polygon fill="none" stroke="black" points="804,-247.5 804,-266.5 905,-266.5 905,-247.5 804,-247.5"/>
<text text-anchor="middle" x="854.5" y="-254.5" font-family="Helvetica,sans-Serif" font-size="10.00">__am_lapic_bootap</text>
</a>
</g>
</g>
<!-- Node14&#45;&gt;Node15 -->
<g id="edge14" class="edge">
<title>Node14&#45;&gt;Node15</title>
<path fill="none" stroke="midnightblue" d="M768.13,-245.45C776.43,-246.58 785.04,-247.74 793.44,-248.88"/>
<polygon fill="midnightblue" stroke="midnightblue" points="793.18,-252.38 803.56,-250.25 794.12,-245.44 793.18,-252.38"/>
</g>
<!-- Node18 -->
<g id="node18" class="node">
<title>Node18</title>
<g id="a_node18"><a xlink:href="x86_8h.html#adfa01b89ceed9e7a87f185f4e441aa16" target="_top" xlink:title=" ">
<polygon fill="none" stroke="black" points="820.5,-209.5 820.5,-228.5 888.5,-228.5 888.5,-209.5 820.5,-209.5"/>
<text text-anchor="middle" x="854.5" y="-216.5" font-family="Helvetica,sans-Serif" font-size="10.00">boot_record</text>
</a>
</g>
</g>
<!-- Node14&#45;&gt;Node18 -->
<g id="edge17" class="edge">
<title>Node14&#45;&gt;Node18</title>
<path fill="none" stroke="midnightblue" d="M768.13,-230.55C782.08,-228.66 796.87,-226.66 810.14,-224.86"/>
<polygon fill="midnightblue" stroke="midnightblue" points="810.98,-228.28 820.42,-223.47 810.05,-221.34 810.98,-228.28"/>
</g>
<!-- Node19 -->
<g id="node19" class="node">
<title>Node19</title>
<g id="a_node19"><a xlink:href="native_2mpe_8c.html#a806195bfb27a695274680a7ab6400663" target="_top" xlink:title=" ">
<polygon fill="none" stroke="black" points="820.5,-171.5 820.5,-190.5 888.5,-190.5 888.5,-171.5 820.5,-171.5"/>
<text text-anchor="middle" x="854.5" y="-178.5" font-family="Helvetica,sans-Serif" font-size="10.00">cpu_current</text>
</a>
</g>
</g>
<!-- Node14&#45;&gt;Node19 -->
<g id="edge18" class="edge">
<title>Node14&#45;&gt;Node19</title>
<path fill="none" stroke="midnightblue" d="M743.29,-228.47C751.41,-225.66 760.12,-222.42 768,-219 784.6,-211.8 787.53,-207.48 804,-200 808.22,-198.09 812.69,-196.19 817.15,-194.38"/>
<polygon fill="midnightblue" stroke="midnightblue" points="818.78,-197.5 826.8,-190.58 816.21,-190.99 818.78,-197.5"/>
</g>
<!-- Node16 -->
<g id="node16" class="node">
<title>Node16</title>
<g id="a_node16"><a xlink:href="x86_2qemu_2ioe_8c.html#a72d9ed0bfe1066367763e044b7a7b7c3" target="_top" xlink:title=" ">
<polygon fill="none" stroke="black" points="941,-266.5 941,-285.5 985,-285.5 985,-266.5 941,-266.5"/>
<text text-anchor="middle" x="963" y="-273.5" font-family="Helvetica,sans-Serif" font-size="10.00">lapicw</text>
</a>
</g>
</g>
<!-- Node15&#45;&gt;Node16 -->
<g id="edge15" class="edge">
<title>Node15&#45;&gt;Node16</title>
<path fill="none" stroke="midnightblue" d="M905.01,-265.83C913.77,-267.4 922.67,-268.98 930.75,-270.42"/>
<polygon fill="midnightblue" stroke="midnightblue" points="930.36,-273.91 940.82,-272.22 931.59,-267.02 930.36,-273.91"/>
</g>
<!-- Node17 -->
<g id="node17" class="node">
<title>Node17</title>
<g id="a_node17"><a xlink:href="x86_8h.html#ade961b44e45ddacbc3c3b7609cf36dc6" target="_top" xlink:title=" ">
<polygon fill="none" stroke="black" points="945.5,-228.5 945.5,-247.5 980.5,-247.5 980.5,-228.5 945.5,-228.5"/>
<text text-anchor="middle" x="963" y="-235.5" font-family="Helvetica,sans-Serif" font-size="10.00">outb</text>
</a>
</g>
</g>
<!-- Node15&#45;&gt;Node17 -->
<g id="edge16" class="edge">
<title>Node15&#45;&gt;Node17</title>
<path fill="none" stroke="midnightblue" d="M905.01,-248.17C915.47,-246.3 926.13,-244.4 935.35,-242.75"/>
<polygon fill="midnightblue" stroke="midnightblue" points="936.2,-246.16 945.43,-240.96 934.97,-239.27 936.2,-246.16"/>
</g>
</g>
</svg>
