<?xml version="1.0" encoding="UTF-8" standalone="no"?>
<!DOCTYPE svg PUBLIC "-//W3C//DTD SVG 1.1//EN"
 "http://www.w3.org/Graphics/SVG/1.1/DTD/svg11.dtd">
<!-- Generated by graphviz version 3.0.0 (20220413.0106)
 -->
<!-- Title: get_efl Pages: 1 -->
<svg width="940pt" height="437pt"
 viewBox="0.00 0.00 940.00 436.82" xmlns="http://www.w3.org/2000/svg" xmlns:xlink="http://www.w3.org/1999/xlink">
<g id="graph0" class="graph" transform="scale(1 1) rotate(0) translate(4 432.82)">
<title>get_efl</title>
<!-- Node1 -->
<g id="node1" class="node">
<title>Node1</title>
<g id="a_node1"><a xlink:title=" ">
<polygon fill="#bfbfbf" stroke="black" points="887,-352.32 887,-371.32 932,-371.32 932,-352.32 887,-352.32"/>
<text text-anchor="middle" x="909.5" y="-359.32" font-family="Helvetica,sans-Serif" font-size="10.00">get_efl</text>
</a>
</g>
</g>
<!-- Node2 -->
<g id="node2" class="node">
<title>Node2</title>
<g id="a_node2"><a xlink:href="cte_8c.html#a79659a2b801c42951e38f3a8821acbae" target="_top" xlink:title=" ">
<polygon fill="none" stroke="black" points="798,-352.32 798,-371.32 851,-371.32 851,-352.32 798,-352.32"/>
<text text-anchor="middle" x="824.5" y="-359.32" font-family="Helvetica,sans-Serif" font-size="10.00">ienabled</text>
</a>
</g>
</g>
<!-- Node1&#45;&gt;Node2 -->
<g id="edge1" class="edge">
<title>Node1&#45;&gt;Node2</title>
<path fill="none" stroke="midnightblue" d="M876.52,-361.82C868.17,-361.82 859.27,-361.82 851.29,-361.82"/>
<polygon fill="midnightblue" stroke="midnightblue" points="876.69,-365.32 886.69,-361.82 876.69,-358.32 876.69,-365.32"/>
</g>
<!-- Node3 -->
<g id="node3" class="node">
<title>Node3</title>
<g id="a_node3"><a xlink:href="pmm_8c.html#a20ccb461126d548299c6c21f157e6668" target="_top" xlink:title=" ">
<polygon fill="none" stroke="black" points="693.5,-409.32 693.5,-428.32 759.5,-428.32 759.5,-409.32 693.5,-409.32"/>
<text text-anchor="middle" x="726.5" y="-416.32" font-family="Helvetica,sans-Serif" font-size="10.00">kalloc_safe</text>
</a>
</g>
</g>
<!-- Node2&#45;&gt;Node3 -->
<g id="edge2" class="edge">
<title>Node2&#45;&gt;Node3</title>
<path fill="none" stroke="midnightblue" d="M799.95,-376.76C788.57,-383.88 774.66,-392.43 762,-399.82 756.69,-402.93 750.84,-406.2 745.5,-409.13"/>
<polygon fill="midnightblue" stroke="midnightblue" points="801.86,-379.69 808.46,-371.41 798.13,-373.76 801.86,-379.69"/>
</g>
<!-- Node5 -->
<g id="node5" class="node">
<title>Node5</title>
<g id="a_node5"><a xlink:href="pmm_8c.html#af2f46f4bce6a599542ce4d462aec9e2f" target="_top" xlink:title=" ">
<polygon fill="none" stroke="black" points="695.5,-371.32 695.5,-390.32 757.5,-390.32 757.5,-371.32 695.5,-371.32"/>
<text text-anchor="middle" x="726.5" y="-378.32" font-family="Helvetica,sans-Serif" font-size="10.00">kfree_safe</text>
</a>
</g>
</g>
<!-- Node2&#45;&gt;Node5 -->
<g id="edge4" class="edge">
<title>Node2&#45;&gt;Node5</title>
<path fill="none" stroke="midnightblue" d="M787.81,-368.89C777.92,-370.84 767.28,-372.95 757.73,-374.84"/>
<polygon fill="midnightblue" stroke="midnightblue" points="788.64,-372.29 797.77,-366.91 787.28,-365.42 788.64,-372.29"/>
</g>
<!-- Node6 -->
<g id="node6" class="node">
<title>Node6</title>
<g id="a_node6"><a xlink:href="os_8c.html#a5f9cb32664e017ca15c49ec66e5342e4" target="_top" xlink:title="cpu start entry">
<polygon fill="none" stroke="black" points="590.5,-343.32 590.5,-362.32 636.5,-362.32 636.5,-343.32 590.5,-343.32"/>
<text text-anchor="middle" x="613.5" y="-350.32" font-family="Helvetica,sans-Serif" font-size="10.00">os_run</text>
</a>
</g>
</g>
<!-- Node2&#45;&gt;Node6 -->
<g id="edge6" class="edge">
<title>Node2&#45;&gt;Node6</title>
<path fill="none" stroke="midnightblue" d="M787.76,-360.28C744.36,-358.42 672.54,-355.32 636.52,-353.77"/>
<polygon fill="midnightblue" stroke="midnightblue" points="787.73,-363.79 797.87,-360.72 788.03,-356.79 787.73,-363.79"/>
</g>
<!-- Node8 -->
<g id="node8" class="node">
<title>Node8</title>
<g id="a_node8"><a xlink:href="spinlock_8c.html#ab213874cda54fdbbeb1bec1e5fa90b28" target="_top" xlink:title="interrupt disable">
<polygon fill="none" stroke="black" points="691,-238.32 691,-257.32 762,-257.32 762,-238.32 691,-238.32"/>
<text text-anchor="middle" x="726.5" y="-245.32" font-family="Helvetica,sans-Serif" font-size="10.00">spin_pushcli</text>
</a>
</g>
</g>
<!-- Node2&#45;&gt;Node8 -->
<g id="edge8" class="edge">
<title>Node2&#45;&gt;Node8</title>
<path fill="none" stroke="midnightblue" d="M808.79,-344.36C788.31,-320.03 751.87,-276.76 735.66,-257.52"/>
<polygon fill="midnightblue" stroke="midnightblue" points="806.2,-346.71 815.32,-352.1 811.55,-342.2 806.2,-346.71"/>
</g>
<!-- Node4 -->
<g id="node4" class="node">
<title>Node4</title>
<g id="a_node4"><a xlink:href="pmm_8c.html#a7ada9deb0ae8705f2cc158b0283aaeb3" target="_top" xlink:title=" ">
<polygon fill="none" stroke="black" points="572,-400.32 572,-419.32 655,-419.32 655,-400.32 572,-400.32"/>
<text text-anchor="middle" x="613.5" y="-407.32" font-family="Helvetica,sans-Serif" font-size="10.00">MODULE_DEF</text>
</a>
</g>
</g>
<!-- Node3&#45;&gt;Node4 -->
<g id="edge3" class="edge">
<title>Node3&#45;&gt;Node4</title>
<path fill="none" stroke="midnightblue" d="M683.29,-415.4C674.09,-414.65 664.38,-413.87 655.24,-413.13"/>
<polygon fill="midnightblue" stroke="midnightblue" points="683.14,-418.9 693.39,-416.22 683.71,-411.92 683.14,-418.9"/>
</g>
<!-- Node5&#45;&gt;Node4 -->
<g id="edge5" class="edge">
<title>Node5&#45;&gt;Node4</title>
<path fill="none" stroke="midnightblue" d="M685.77,-391.2C674.39,-394.18 662.05,-397.4 650.89,-400.32"/>
<polygon fill="midnightblue" stroke="midnightblue" points="686.67,-394.59 695.46,-388.67 684.9,-387.81 686.67,-394.59"/>
</g>
<!-- Node7 -->
<g id="node7" class="node">
<title>Node7</title>
<g id="a_node7"><a xlink:href="os_8c.html#aafec7046aa50c914df86d0d22d4fc1d1" target="_top" xlink:title=" ">
<polygon fill="none" stroke="black" points="206,-409.32 206,-428.32 289,-428.32 289,-409.32 206,-409.32"/>
<text text-anchor="middle" x="247.5" y="-416.32" font-family="Helvetica,sans-Serif" font-size="10.00">MODULE_DEF</text>
</a>
</g>
</g>
<!-- Node6&#45;&gt;Node7 -->
<g id="edge7" class="edge">
<title>Node6&#45;&gt;Node7</title>
<path fill="none" stroke="midnightblue" d="M584.28,-366.68C549.46,-382.93 488.01,-408.9 432,-418.82 383.53,-427.41 326.73,-425.63 289.31,-422.87"/>
<polygon fill="midnightblue" stroke="midnightblue" points="585.82,-369.82 593.36,-362.38 582.83,-363.49 585.82,-369.82"/>
</g>
<!-- Node9 -->
<g id="node9" class="node">
<title>Node9</title>
<g id="a_node9"><a xlink:href="spinlock_8c.html#ad4be0d674a7ca4dc90c2dbf8b34562cc" target="_top" xlink:title="check current cpu has the lock">
<polygon fill="none" stroke="black" points="578,-200.32 578,-219.32 649,-219.32 649,-200.32 578,-200.32"/>
<text text-anchor="middle" x="613.5" y="-207.32" font-family="Helvetica,sans-Serif" font-size="10.00">spin_holding</text>
</a>
</g>
</g>
<!-- Node8&#45;&gt;Node9 -->
<g id="edge9" class="edge">
<title>Node8&#45;&gt;Node9</title>
<path fill="none" stroke="midnightblue" d="M687.61,-234.85C672.82,-229.79 656.17,-224.09 642.5,-219.41"/>
<polygon fill="midnightblue" stroke="midnightblue" points="686.9,-238.31 697.49,-238.23 689.16,-231.68 686.9,-238.31"/>
</g>
<!-- Node20 -->
<g id="node20" class="node">
<title>Node20</title>
<g id="a_node20"><a xlink:href="spinlock_8c.html#ab6f3c37ec37006951feccc3c05387cce" target="_top" xlink:title="acquire spinlock to current cpu">
<polygon fill="none" stroke="black" points="473,-238.32 473,-257.32 531,-257.32 531,-238.32 473,-238.32"/>
<text text-anchor="middle" x="502" y="-245.32" font-family="Helvetica,sans-Serif" font-size="10.00">spin_lock</text>
</a>
</g>
</g>
<!-- Node8&#45;&gt;Node20 -->
<g id="edge49" class="edge">
<title>Node8&#45;&gt;Node20</title>
<path fill="none" stroke="midnightblue" d="M680.45,-247.82C635.8,-247.82 568.78,-247.82 531.18,-247.82"/>
<polygon fill="midnightblue" stroke="midnightblue" points="680.73,-251.32 690.73,-247.82 680.73,-244.32 680.73,-251.32"/>
</g>
<!-- Node10 -->
<g id="node10" class="node">
<title>Node10</title>
<g id="a_node10"><a xlink:href="kmt_8c.html#af9c485ce0d89d6624e6e80e31d8ed207" target="_top" xlink:title="handler: save context to current task">
<polygon fill="none" stroke="black" points="330.5,-200.32 330.5,-219.32 426.5,-219.32 426.5,-200.32 330.5,-200.32"/>
<text text-anchor="middle" x="378.5" y="-207.32" font-family="Helvetica,sans-Serif" font-size="10.00">kmt_context_save</text>
</a>
</g>
</g>
<!-- Node9&#45;&gt;Node10 -->
<g id="edge10" class="edge">
<title>Node9&#45;&gt;Node10</title>
<path fill="none" stroke="midnightblue" d="M567.77,-209.82C527.35,-209.82 468.05,-209.82 426.84,-209.82"/>
<polygon fill="midnightblue" stroke="midnightblue" points="567.87,-213.32 577.87,-209.82 567.87,-206.32 567.87,-213.32"/>
</g>
<!-- Node13 -->
<g id="node13" class="node">
<title>Node13</title>
<g id="a_node13"><a xlink:href="kmt_8c.html#a5ddb8743298012e84cf9cb5faf22212b" target="_top" xlink:title="create thread">
<polygon fill="none" stroke="black" points="346,-276.32 346,-295.32 411,-295.32 411,-276.32 346,-276.32"/>
<text text-anchor="middle" x="378.5" y="-283.32" font-family="Helvetica,sans-Serif" font-size="10.00">kmt_create</text>
</a>
</g>
</g>
<!-- Node9&#45;&gt;Node13 -->
<g id="edge13" class="edge">
<title>Node9&#45;&gt;Node13</title>
<path fill="none" stroke="midnightblue" d="M595.53,-226.62C581.01,-239.9 558.88,-257.67 536,-266.82 495.09,-283.19 443.74,-286.49 411.26,-286.68"/>
<polygon fill="midnightblue" stroke="midnightblue" points="598.28,-228.84 603.15,-219.42 593.47,-223.75 598.28,-228.84"/>
</g>
<!-- Node14 -->
<g id="node14" class="node">
<title>Node14</title>
<g id="a_node14"><a xlink:href="kmt_8c.html#ad3fbc643b7b6092120c5152b4c890354" target="_top" xlink:title="handler: handle program errors">
<polygon fill="none" stroke="black" points="218.5,-67.32 218.5,-86.32 276.5,-86.32 276.5,-67.32 218.5,-67.32"/>
<text text-anchor="middle" x="247.5" y="-74.32" font-family="Helvetica,sans-Serif" font-size="10.00">kmt_error</text>
</a>
</g>
</g>
<!-- Node9&#45;&gt;Node14 -->
<g id="edge15" class="edge">
<title>Node9&#45;&gt;Node14</title>
<path fill="none" stroke="midnightblue" d="M609.41,-189.93C602.79,-154.41 583.76,-80.32 536,-42.82 461.91,15.35 414.78,5.67 325,-22.82 297.42,-31.58 271.21,-54.26 257.8,-67.28"/>
<polygon fill="midnightblue" stroke="midnightblue" points="606,-190.75 611.15,-200.01 612.9,-189.56 606,-190.75"/>
</g>
<!-- Node15 -->
<g id="node15" class="node">
<title>Node15</title>
<g id="a_node15"><a xlink:href="kmt_8c.html#a0ac321d3074b24b276695a080e835866" target="_top" xlink:title="print all tasks notice: do not garantee concurrency safety">
<polygon fill="none" stroke="black" points="328,-86.32 328,-105.32 429,-105.32 429,-86.32 328,-86.32"/>
<text text-anchor="middle" x="378.5" y="-93.32" font-family="Helvetica,sans-Serif" font-size="10.00">kmt_print_all_tasks</text>
</a>
</g>
</g>
<!-- Node9&#45;&gt;Node15 -->
<g id="edge17" class="edge">
<title>Node9&#45;&gt;Node15</title>
<path fill="none" stroke="midnightblue" d="M593.89,-193.52C579.01,-181.1 557.2,-164.26 536,-152.82 496.43,-131.47 447.19,-115.03 414.62,-105.41"/>
<polygon fill="midnightblue" stroke="midnightblue" points="591.9,-196.42 601.79,-200.24 596.44,-191.09 591.9,-196.42"/>
</g>
<!-- Node16 -->
<g id="node16" class="node">
<title>Node16</title>
<g id="a_node16"><a xlink:href="kmt_8c.html#ad4d70b4093829da1c0b0631abdff7747" target="_top" xlink:title="handler: schedule next task to run Notice: this should be the only handler which returns real Context">
<polygon fill="none" stroke="black" points="209,-115.32 209,-134.32 286,-134.32 286,-115.32 209,-115.32"/>
<text text-anchor="middle" x="247.5" y="-122.32" font-family="Helvetica,sans-Serif" font-size="10.00">kmt_schedule</text>
</a>
</g>
</g>
<!-- Node9&#45;&gt;Node16 -->
<g id="edge24" class="edge">
<title>Node9&#45;&gt;Node16</title>
<path fill="none" stroke="midnightblue" d="M605.46,-190.36C594.56,-162.74 571.12,-112.14 536,-81.82 498.14,-49.14 481.06,-48.57 432,-38.82 385.36,-29.56 366.65,-15.87 325,-38.82 298.76,-53.29 309.56,-74.03 289,-95.82 282,-103.25 272.85,-109.99 265.01,-115.1"/>
<polygon fill="midnightblue" stroke="midnightblue" points="602.32,-191.94 609.14,-200.05 608.86,-189.46 602.32,-191.94"/>
</g>
<!-- Node17 -->
<g id="node17" class="node">
<title>Node17</title>
<g id="a_node17"><a xlink:href="kmt_8c.html#ac69761d0146d9aacda65da757868d3c7" target="_top" xlink:title="print all current_tasks notice: do not garantee concurrency safety">
<polygon fill="none" stroke="black" points="325,-48.32 325,-67.32 432,-67.32 432,-48.32 325,-48.32"/>
<text text-anchor="middle" x="378.5" y="-55.32" font-family="Helvetica,sans-Serif" font-size="10.00">kmt_print_cpu_tasks</text>
</a>
</g>
</g>
<!-- Node9&#45;&gt;Node17 -->
<g id="edge21" class="edge">
<title>Node9&#45;&gt;Node17</title>
<path fill="none" stroke="midnightblue" d="M600.93,-191.61C587.45,-171.65 563.48,-139.83 536,-119.82 500.2,-93.77 451.97,-76.84 418.55,-67.36"/>
<polygon fill="midnightblue" stroke="midnightblue" points="598.1,-193.67 606.52,-200.11 603.94,-189.83 598.1,-193.67"/>
</g>
<!-- Node18 -->
<g id="node18" class="node">
<title>Node18</title>
<g id="a_node18"><a xlink:href="kmt_8c.html#a47d8887c87041abd5ea3148232b65c93" target="_top" xlink:title="tear down a thread">
<polygon fill="none" stroke="black" points="339.5,-314.32 339.5,-333.32 417.5,-333.32 417.5,-314.32 339.5,-314.32"/>
<text text-anchor="middle" x="378.5" y="-321.32" font-family="Helvetica,sans-Serif" font-size="10.00">kmt_teardown</text>
</a>
</g>
</g>
<!-- Node9&#45;&gt;Node18 -->
<g id="edge25" class="edge">
<title>Node9&#45;&gt;Node18</title>
<path fill="none" stroke="midnightblue" d="M599.99,-227.91C586.39,-246.15 562.95,-273.72 536,-288.82 499.08,-309.51 450.83,-317.97 417.72,-321.43"/>
<polygon fill="midnightblue" stroke="midnightblue" points="603.17,-229.49 606.18,-219.33 597.49,-225.4 603.17,-229.49"/>
</g>
<!-- Node19 -->
<g id="node19" class="node">
<title>Node19</title>
<g id="a_node19"><a xlink:href="os_8c.html#a2be1c9facb49d4439f41b1537d0f3ef8" target="_top" xlink:title="System trap entry.">
<polygon fill="none" stroke="black" points="354,-390.32 354,-409.32 403,-409.32 403,-390.32 354,-390.32"/>
<text text-anchor="middle" x="378.5" y="-397.32" font-family="Helvetica,sans-Serif" font-size="10.00">os_trap</text>
</a>
</g>
</g>
<!-- Node9&#45;&gt;Node19 -->
<g id="edge27" class="edge">
<title>Node9&#45;&gt;Node19</title>
<path fill="none" stroke="midnightblue" d="M602.12,-228.19C588.9,-250.43 564.34,-288.1 536,-313.82 495.25,-350.81 435.77,-377.85 403.13,-390.96"/>
<polygon fill="midnightblue" stroke="midnightblue" points="605.22,-229.82 607.22,-219.42 599.17,-226.3 605.22,-229.82"/>
</g>
<!-- Node9&#45;&gt;Node20 -->
<g id="edge29" class="edge">
<title>Node9&#45;&gt;Node20</title>
<path fill="none" stroke="midnightblue" d="M575.12,-222.79C560.53,-227.86 544.11,-233.56 530.62,-238.24"/>
<polygon fill="midnightblue" stroke="midnightblue" points="576.57,-226 584.87,-219.41 574.27,-219.38 576.57,-226"/>
</g>
<!-- Node22 -->
<g id="node22" class="node">
<title>Node22</title>
<g id="a_node22"><a xlink:href="spinlock_8c.html#acdf118d615a4bc4064e991add9a80995" target="_top" xlink:title="release spinlock from current cpu">
<polygon fill="none" stroke="black" points="468,-162.32 468,-181.32 536,-181.32 536,-162.32 468,-162.32"/>
<text text-anchor="middle" x="502" y="-169.32" font-family="Helvetica,sans-Serif" font-size="10.00">spin_unlock</text>
</a>
</g>
</g>
<!-- Node9&#45;&gt;Node22 -->
<g id="edge39" class="edge">
<title>Node9&#45;&gt;Node22</title>
<path fill="none" stroke="midnightblue" d="M575.12,-196.85C560.53,-191.79 544.11,-186.09 530.62,-181.41"/>
<polygon fill="midnightblue" stroke="midnightblue" points="574.27,-200.26 584.87,-200.23 576.57,-193.65 574.27,-200.26"/>
</g>
<!-- Node11 -->
<g id="node11" class="node">
<title>Node11</title>
<g id="a_node11"><a xlink:href="kmt_8c.html#a0c68a294cecc4be7cb4b495f15b883a0" target="_top" xlink:title="initialize kmt module">
<polygon fill="none" stroke="black" points="119,-153.32 119,-172.32 170,-172.32 170,-153.32 119,-153.32"/>
<text text-anchor="middle" x="144.5" y="-160.32" font-family="Helvetica,sans-Serif" font-size="10.00">kmt_init</text>
</a>
</g>
</g>
<!-- Node10&#45;&gt;Node11 -->
<g id="edge11" class="edge">
<title>Node10&#45;&gt;Node11</title>
<path fill="none" stroke="midnightblue" d="M320.58,-198.29C272.45,-188.54 205.82,-175.04 170.24,-167.83"/>
<polygon fill="midnightblue" stroke="midnightblue" points="320.06,-201.76 330.55,-200.31 321.45,-194.9 320.06,-201.76"/>
</g>
<!-- Node12 -->
<g id="node12" class="node">
<title>Node12</title>
<g id="a_node12"><a xlink:href="kmt_8c.html#af360ef0d98ca30e481cc58ea3695fd58" target="_top" xlink:title=" ">
<polygon fill="none" stroke="black" points="0,-276.32 0,-295.32 83,-295.32 83,-276.32 0,-276.32"/>
<text text-anchor="middle" x="41.5" y="-283.32" font-family="Helvetica,sans-Serif" font-size="10.00">MODULE_DEF</text>
</a>
</g>
</g>
<!-- Node11&#45;&gt;Node12 -->
<g id="edge12" class="edge">
<title>Node11&#45;&gt;Node12</title>
<path fill="none" stroke="midnightblue" d="M129,-180.48C107.35,-206.85 67.32,-255.6 50.39,-276.22"/>
<polygon fill="midnightblue" stroke="midnightblue" points="131.93,-182.42 135.57,-172.47 126.52,-177.98 131.93,-182.42"/>
</g>
<!-- Node13&#45;&gt;Node12 -->
<g id="edge14" class="edge">
<title>Node13&#45;&gt;Node12</title>
<path fill="none" stroke="midnightblue" d="M335.74,-285.82C271.02,-285.82 147.29,-285.82 83.21,-285.82"/>
<polygon fill="midnightblue" stroke="midnightblue" points="335.98,-289.32 345.98,-285.82 335.98,-282.32 335.98,-289.32"/>
</g>
<!-- Node14&#45;&gt;Node11 -->
<g id="edge16" class="edge">
<title>Node14&#45;&gt;Node11</title>
<path fill="none" stroke="midnightblue" d="M223.67,-92.36C217.8,-96.58 211.56,-101.25 206,-105.82 187.06,-121.41 166.59,-141.43 154.98,-153.12"/>
<polygon fill="midnightblue" stroke="midnightblue" points="225.74,-95.18 231.91,-86.57 221.71,-89.46 225.74,-95.18"/>
</g>
<!-- Node15&#45;&gt;Node14 -->
<g id="edge18" class="edge">
<title>Node15&#45;&gt;Node14</title>
<path fill="none" stroke="midnightblue" d="M317.7,-87.02C303.44,-84.91 288.86,-82.77 276.79,-80.99"/>
<polygon fill="midnightblue" stroke="midnightblue" points="317.59,-90.54 327.99,-88.53 318.61,-83.61 317.59,-90.54"/>
</g>
<!-- Node15&#45;&gt;Node16 -->
<g id="edge19" class="edge">
<title>Node15&#45;&gt;Node16</title>
<path fill="none" stroke="midnightblue" d="M325.13,-107.6C312.12,-110.52 298.43,-113.6 286.28,-116.33"/>
<polygon fill="midnightblue" stroke="midnightblue" points="325.91,-111.01 334.9,-105.4 324.38,-104.18 325.91,-111.01"/>
</g>
<!-- Node16&#45;&gt;Node11 -->
<g id="edge20" class="edge">
<title>Node16&#45;&gt;Node11</title>
<path fill="none" stroke="midnightblue" d="M211.49,-138C197.91,-143.1 182.68,-148.83 170.28,-153.5"/>
<polygon fill="midnightblue" stroke="midnightblue" points="212.89,-141.21 221.01,-134.41 210.42,-134.66 212.89,-141.21"/>
</g>
<!-- Node17&#45;&gt;Node14 -->
<g id="edge22" class="edge">
<title>Node17&#45;&gt;Node14</title>
<path fill="none" stroke="midnightblue" d="M314.56,-67.09C301.28,-69.05 287.92,-71.02 276.72,-72.67"/>
<polygon fill="midnightblue" stroke="midnightblue" points="315.28,-70.53 324.66,-65.61 314.26,-63.6 315.28,-70.53"/>
</g>
<!-- Node17&#45;&gt;Node16 -->
<g id="edge23" class="edge">
<title>Node17&#45;&gt;Node16</title>
<path fill="none" stroke="midnightblue" d="M337.96,-71.1C333.53,-72.89 329.13,-74.81 325,-76.82 301.75,-88.16 276.69,-104.83 261.81,-115.24"/>
<polygon fill="midnightblue" stroke="midnightblue" points="339.53,-74.24 347.61,-67.39 337.02,-67.71 339.53,-74.24"/>
</g>
<!-- Node18&#45;&gt;Node12 -->
<g id="edge26" class="edge">
<title>Node18&#45;&gt;Node12</title>
<path fill="none" stroke="midnightblue" d="M329,-320.61C276.94,-316.85 191.89,-309.86 119,-299.82 107.36,-298.22 94.8,-296.09 83.29,-293.98"/>
<polygon fill="midnightblue" stroke="midnightblue" points="329.05,-324.12 339.27,-321.34 329.55,-317.14 329.05,-324.12"/>
</g>
<!-- Node19&#45;&gt;Node7 -->
<g id="edge28" class="edge">
<title>Node19&#45;&gt;Node7</title>
<path fill="none" stroke="midnightblue" d="M343.48,-404.83C326.85,-407.28 306.7,-410.25 289.25,-412.82"/>
<polygon fill="midnightblue" stroke="midnightblue" points="344.46,-408.23 353.84,-403.31 343.44,-401.3 344.46,-408.23"/>
</g>
<!-- Node20&#45;&gt;Node10 -->
<g id="edge30" class="edge">
<title>Node20&#45;&gt;Node10</title>
<path fill="none" stroke="midnightblue" d="M463.15,-235.98C446.08,-230.65 426.18,-224.42 410.08,-219.39"/>
<polygon fill="midnightblue" stroke="midnightblue" points="462.23,-239.36 472.82,-239.01 464.32,-232.68 462.23,-239.36"/>
</g>
<!-- Node20&#45;&gt;Node12 -->
<g id="edge37" class="edge">
<title>Node20&#45;&gt;Node12</title>
<path fill="none" stroke="midnightblue" d="M490.47,-266.14C475.55,-291.34 448.27,-334.53 432,-342.82 302,-409.07 117.93,-325.18 60.39,-295.49"/>
<polygon fill="midnightblue" stroke="midnightblue" points="493.51,-267.87 495.53,-257.47 487.47,-264.34 493.51,-267.87"/>
</g>
<!-- Node20&#45;&gt;Node13 -->
<g id="edge31" class="edge">
<title>Node20&#45;&gt;Node13</title>
<path fill="none" stroke="midnightblue" d="M463.15,-259.66C446.08,-265 426.18,-271.22 410.08,-276.26"/>
<polygon fill="midnightblue" stroke="midnightblue" points="464.32,-262.96 472.82,-256.64 462.23,-256.28 464.32,-262.96"/>
</g>
<!-- Node20&#45;&gt;Node15 -->
<g id="edge32" class="edge">
<title>Node20&#45;&gt;Node15</title>
<path fill="none" stroke="midnightblue" d="M488.7,-229.6C475.35,-210.12 453.09,-178.57 432,-152.82 417.85,-135.55 399.98,-116.71 389.16,-105.6"/>
<polygon fill="midnightblue" stroke="midnightblue" points="485.98,-231.82 494.5,-238.11 491.76,-227.87 485.98,-231.82"/>
</g>
<!-- Node20&#45;&gt;Node16 -->
<g id="edge34" class="edge">
<title>Node20&#45;&gt;Node16</title>
<path fill="none" stroke="midnightblue" d="M462.94,-252.18C425.36,-254.63 367.49,-253.27 325,-228.82 286.14,-206.47 261.31,-155.57 252.3,-134.37"/>
<polygon fill="midnightblue" stroke="midnightblue" points="463.28,-255.66 472.98,-251.4 462.74,-248.68 463.28,-255.66"/>
</g>
<!-- Node20&#45;&gt;Node17 -->
<g id="edge33" class="edge">
<title>Node20&#45;&gt;Node17</title>
<path fill="none" stroke="midnightblue" d="M488.99,-229.47C482.21,-218.55 473.92,-204.26 468,-190.82 446.56,-142.21 468.79,-115.16 432,-76.82 428.31,-72.98 423.78,-69.91 418.95,-67.45"/>
<polygon fill="midnightblue" stroke="midnightblue" points="486.15,-231.52 494.47,-238.08 492.06,-227.77 486.15,-231.52"/>
</g>
<!-- Node20&#45;&gt;Node18 -->
<g id="edge35" class="edge">
<title>Node20&#45;&gt;Node18</title>
<path fill="none" stroke="midnightblue" d="M484.12,-264.61C470.86,-277.06 451.44,-293.72 432,-304.82 425.6,-308.48 418.38,-311.63 411.38,-314.27"/>
<polygon fill="midnightblue" stroke="midnightblue" points="486.74,-266.95 491.52,-257.49 481.89,-261.9 486.74,-266.95"/>
</g>
<!-- Node20&#45;&gt;Node19 -->
<g id="edge38" class="edge">
<title>Node20&#45;&gt;Node19</title>
<path fill="none" stroke="midnightblue" d="M495.01,-267.12C485.63,-294.54 465.02,-344.9 432,-375.82 423.88,-383.43 412.93,-388.95 403.13,-392.76"/>
<polygon fill="midnightblue" stroke="midnightblue" points="498.37,-268.1 498.16,-257.51 491.72,-265.92 498.37,-268.1"/>
</g>
<!-- Node21 -->
<g id="node21" class="node">
<title>Node21</title>
<g id="a_node21"><a xlink:href="kernel_8h.html#a7ef2d722f9c7f8acc1801144a5188825" target="_top" xlink:title=" ">
<polygon fill="none" stroke="black" points="349,-162.32 349,-181.32 408,-181.32 408,-162.32 349,-162.32"/>
<text text-anchor="middle" x="378.5" y="-169.32" font-family="Helvetica,sans-Serif" font-size="10.00">MODULE</text>
</a>
</g>
</g>
<!-- Node20&#45;&gt;Node21 -->
<g id="edge36" class="edge">
<title>Node20&#45;&gt;Node21</title>
<path fill="none" stroke="midnightblue" d="M484.12,-231.03C470.86,-218.59 451.44,-201.93 432,-190.82 424.59,-186.59 416.07,-183.03 408.08,-180.17"/>
<polygon fill="midnightblue" stroke="midnightblue" points="481.89,-233.75 491.52,-238.15 486.74,-228.7 481.89,-233.75"/>
</g>
<!-- Node22&#45;&gt;Node10 -->
<g id="edge40" class="edge">
<title>Node22&#45;&gt;Node10</title>
<path fill="none" stroke="midnightblue" d="M460.46,-184.5C444.04,-189.64 425.4,-195.47 410.15,-200.24"/>
<polygon fill="midnightblue" stroke="midnightblue" points="461.84,-187.74 470.34,-181.41 459.75,-181.06 461.84,-187.74"/>
</g>
<!-- Node22&#45;&gt;Node12 -->
<g id="edge47" class="edge">
<title>Node22&#45;&gt;Node12</title>
<path fill="none" stroke="midnightblue" d="M497.44,-152.26C490.72,-121.74 472.98,-63.73 432,-38.82 345.86,13.53 295.92,-12.27 206,-57.82 110.63,-106.15 58.6,-239.22 45.71,-276.19"/>
<polygon fill="midnightblue" stroke="midnightblue" points="494.03,-153.04 499.44,-162.14 500.89,-151.65 494.03,-153.04"/>
</g>
<!-- Node22&#45;&gt;Node13 -->
<g id="edge41" class="edge">
<title>Node22&#45;&gt;Node13</title>
<path fill="none" stroke="midnightblue" d="M483.06,-188.65C457.26,-212.86 410.52,-256.71 389.83,-276.13"/>
<polygon fill="midnightblue" stroke="midnightblue" points="485.74,-190.94 490.64,-181.54 480.95,-185.83 485.74,-190.94"/>
</g>
<!-- Node22&#45;&gt;Node15 -->
<g id="edge42" class="edge">
<title>Node22&#45;&gt;Node15</title>
<path fill="none" stroke="midnightblue" d="M481.81,-155.57C468.39,-144.66 449.76,-130.4 432,-119.82 422.96,-114.44 412.5,-109.43 403.31,-105.4"/>
<polygon fill="midnightblue" stroke="midnightblue" points="479.88,-158.51 489.82,-162.19 484.34,-153.12 479.88,-158.51"/>
</g>
<!-- Node22&#45;&gt;Node16 -->
<g id="edge44" class="edge">
<title>Node22&#45;&gt;Node16</title>
<path fill="none" stroke="midnightblue" d="M459.37,-159.51C450.39,-157.1 440.92,-154.72 432,-152.82 382.04,-142.17 323.61,-133.98 286.34,-129.28"/>
<polygon fill="midnightblue" stroke="midnightblue" points="458.67,-162.95 469.24,-162.24 460.54,-156.2 458.67,-162.95"/>
</g>
<!-- Node22&#45;&gt;Node17 -->
<g id="edge43" class="edge">
<title>Node22&#45;&gt;Node17</title>
<path fill="none" stroke="midnightblue" d="M491.92,-153.29C480.62,-132.03 459.42,-97.45 432,-76.82 426.89,-72.98 420.92,-69.85 414.88,-67.33"/>
<polygon fill="midnightblue" stroke="midnightblue" points="488.85,-154.98 496.52,-162.28 495.08,-151.79 488.85,-154.98"/>
</g>
<!-- Node22&#45;&gt;Node18 -->
<g id="edge45" class="edge">
<title>Node22&#45;&gt;Node18</title>
<path fill="none" stroke="midnightblue" d="M489.9,-190.11C483.31,-201.18 474.91,-215.67 468,-228.82 450.62,-261.91 459.66,-279.68 432,-304.82 427.77,-308.67 422.7,-311.75 417.4,-314.22"/>
<polygon fill="midnightblue" stroke="midnightblue" points="493,-191.74 495.15,-181.37 487,-188.14 493,-191.74"/>
</g>
<!-- Node22&#45;&gt;Node19 -->
<g id="edge48" class="edge">
<title>Node22&#45;&gt;Node19</title>
<path fill="none" stroke="midnightblue" d="M488.99,-190.18C482.21,-201.09 473.92,-215.39 468,-228.82 446.56,-277.44 458.64,-296.85 432,-342.82 421.07,-361.68 402.95,-379.5 391.12,-390.04"/>
<polygon fill="midnightblue" stroke="midnightblue" points="492.06,-191.88 494.47,-181.56 486.15,-188.12 492.06,-191.88"/>
</g>
<!-- Node22&#45;&gt;Node21 -->
<g id="edge46" class="edge">
<title>Node22&#45;&gt;Node21</title>
<path fill="none" stroke="midnightblue" d="M457.35,-171.82C440.98,-171.82 422.79,-171.82 408.12,-171.82"/>
<polygon fill="midnightblue" stroke="midnightblue" points="457.8,-175.32 467.8,-171.82 457.8,-168.32 457.8,-175.32"/>
</g>
</g>
</svg>
