<?xml version="1.0" encoding="UTF-8" standalone="no"?>
<!DOCTYPE svg PUBLIC "-//W3C//DTD SVG 1.1//EN"
 "http://www.w3.org/Graphics/SVG/1.1/DTD/svg11.dtd">
<!-- Generated by graphviz version 3.0.0 (20220413.0106)
 -->
<!-- Title: inb Pages: 1 -->
<svg width="745pt" height="218pt"
 viewBox="0.00 0.00 745.00 218.00" xmlns="http://www.w3.org/2000/svg" xmlns:xlink="http://www.w3.org/1999/xlink">
<g id="graph0" class="graph" transform="scale(1 1) rotate(0) translate(4 214)">
<title>inb</title>
<!-- Node1 -->
<g id="node1" class="node">
<title>Node1</title>
<g id="a_node1"><a xlink:title=" ">
<polygon fill="#bfbfbf" stroke="black" points="708,-95.5 708,-114.5 737,-114.5 737,-95.5 708,-95.5"/>
<text text-anchor="middle" x="722.5" y="-102.5" font-family="Helvetica,sans-Serif" font-size="10.00">inb</text>
</a>
</g>
</g>
<!-- Node2 -->
<g id="node2" class="node">
<title>Node2</title>
<g id="a_node2"><a xlink:href="trm_8c.html#afa4d35ce31ec846cb9da5f17455f54c0" target="_top" xlink:title=" ">
<polygon fill="none" stroke="black" points="587,-190.5 587,-209.5 672,-209.5 672,-190.5 587,-190.5"/>
<text text-anchor="middle" x="629.5" y="-197.5" font-family="Helvetica,sans-Serif" font-size="10.00">__am_heap_init</text>
</a>
</g>
</g>
<!-- Node1&#45;&gt;Node2 -->
<g id="edge1" class="edge">
<title>Node1&#45;&gt;Node2</title>
<path fill="none" stroke="midnightblue" d="M712.94,-124.03C704.56,-140.87 690.37,-165.16 672,-181 667.68,-184.73 662.51,-187.86 657.3,-190.44"/>
<polygon fill="midnightblue" stroke="midnightblue" points="716.27,-125.18 717.4,-114.65 709.94,-122.18 716.27,-125.18"/>
</g>
<!-- Node5 -->
<g id="node5" class="node">
<title>Node5</title>
<g id="a_node5"><a xlink:href="ioe_8c.html#a9a985e3ea9e55d83a2a494ff3e1ca84b" target="_top" xlink:title=" ">
<polygon fill="none" stroke="black" points="593,-152.5 593,-171.5 666,-171.5 666,-152.5 593,-152.5"/>
<text text-anchor="middle" x="629.5" y="-159.5" font-family="Helvetica,sans-Serif" font-size="10.00">__attribute__</text>
</a>
</g>
</g>
<!-- Node1&#45;&gt;Node5 -->
<g id="edge4" class="edge">
<title>Node1&#45;&gt;Node5</title>
<path fill="none" stroke="midnightblue" d="M702.75,-121C693.78,-128.22 682.69,-136.56 672,-143 666.3,-146.43 659.87,-149.66 653.81,-152.44"/>
<polygon fill="midnightblue" stroke="midnightblue" points="705.13,-123.58 710.61,-114.51 700.67,-118.18 705.13,-123.58"/>
</g>
<!-- Node6 -->
<g id="node6" class="node">
<title>Node6</title>
<g id="a_node6"><a xlink:href="ioe_8c.html#a124b85735169c7add3c491093ffbc00e" target="_top" xlink:title=" ">
<polygon fill="none" stroke="black" points="603.5,-114.5 603.5,-133.5 655.5,-133.5 655.5,-114.5 603.5,-114.5"/>
<text text-anchor="middle" x="629.5" y="-121.5" font-family="Helvetica,sans-Serif" font-size="10.00">read_rtc</text>
</a>
</g>
</g>
<!-- Node1&#45;&gt;Node6 -->
<g id="edge5" class="edge">
<title>Node1&#45;&gt;Node6</title>
<path fill="none" stroke="midnightblue" d="M697.71,-109.97C684.83,-112.66 668.93,-115.98 655.83,-118.71"/>
<polygon fill="midnightblue" stroke="midnightblue" points="698.61,-113.36 707.68,-107.89 697.17,-106.5 698.61,-113.36"/>
</g>
<!-- Node14 -->
<g id="node14" class="node">
<title>Node14</title>
<g id="a_node14"><a xlink:href="ioe_8c.html#aa6bed8ea45612252dec485e7a9331a9d" target="_top" xlink:title=" ">
<polygon fill="none" stroke="black" points="261.5,-76.5 261.5,-95.5 312.5,-95.5 312.5,-76.5 261.5,-76.5"/>
<text text-anchor="middle" x="287" y="-83.5" font-family="Helvetica,sans-Serif" font-size="10.00">uart_init</text>
</a>
</g>
</g>
<!-- Node1&#45;&gt;Node14 -->
<g id="edge16" class="edge">
<title>Node1&#45;&gt;Node14</title>
<path fill="none" stroke="midnightblue" d="M697.14,-103.93C621.14,-100.6 388.93,-90.42 312.6,-87.08"/>
<polygon fill="midnightblue" stroke="midnightblue" points="697.42,-107.45 707.57,-104.39 697.73,-100.45 697.42,-107.45"/>
</g>
<!-- Node15 -->
<g id="node15" class="node">
<title>Node15</title>
<g id="a_node15"><a xlink:href="ioe_8c.html#a3eeca7b38eabb3bda0761e7713b35881" target="_top" xlink:title=" ">
<polygon fill="none" stroke="black" points="606.5,-38.5 606.5,-57.5 652.5,-57.5 652.5,-38.5 606.5,-38.5"/>
<text text-anchor="middle" x="629.5" y="-45.5" font-family="Helvetica,sans-Serif" font-size="10.00">uart_rx</text>
</a>
</g>
</g>
<!-- Node1&#45;&gt;Node15 -->
<g id="edge18" class="edge">
<title>Node1&#45;&gt;Node15</title>
<path fill="none" stroke="midnightblue" d="M699.5,-89.9C690.98,-84.17 681.11,-77.67 672,-72 664.08,-67.08 655.15,-61.87 647.61,-57.57"/>
<polygon fill="midnightblue" stroke="midnightblue" points="697.54,-92.8 707.78,-95.52 701.47,-87.01 697.54,-92.8"/>
</g>
<!-- Node16 -->
<g id="node16" class="node">
<title>Node16</title>
<g id="a_node16"><a xlink:href="ioe_8c.html#acbf8b730fa8737d9316857c2e9c16cb0" target="_top" xlink:title=" ">
<polygon fill="none" stroke="black" points="600.5,-0.5 600.5,-19.5 658.5,-19.5 658.5,-0.5 600.5,-0.5"/>
<text text-anchor="middle" x="629.5" y="-7.5" font-family="Helvetica,sans-Serif" font-size="10.00">wait_disk</text>
</a>
</g>
</g>
<!-- Node1&#45;&gt;Node16 -->
<g id="edge19" class="edge">
<title>Node1&#45;&gt;Node16</title>
<path fill="none" stroke="midnightblue" d="M712.94,-85.97C704.56,-69.13 690.37,-44.84 672,-29 667.68,-25.27 662.51,-22.14 657.3,-19.56"/>
<polygon fill="midnightblue" stroke="midnightblue" points="709.94,-87.82 717.4,-95.35 716.27,-84.82 709.94,-87.82"/>
</g>
<!-- Node3 -->
<g id="node3" class="node">
<title>Node3</title>
<g id="a_node3"><a xlink:href="trm_8c.html#a75e130ff99ad31f9a1df206b5ff8252a" target="_top" xlink:title=" ">
<polygon fill="none" stroke="black" points="453,-190.5 453,-209.5 551,-209.5 551,-190.5 453,-190.5"/>
<text text-anchor="middle" x="502" y="-197.5" font-family="Helvetica,sans-Serif" font-size="10.00">__am_bootcpu_init</text>
</a>
</g>
</g>
<!-- Node2&#45;&gt;Node3 -->
<g id="edge2" class="edge">
<title>Node2&#45;&gt;Node3</title>
<path fill="none" stroke="midnightblue" d="M576.6,-200C568.16,-200 559.46,-200 551.12,-200"/>
<polygon fill="midnightblue" stroke="midnightblue" points="576.71,-203.5 586.71,-200 576.71,-196.5 576.71,-203.5"/>
</g>
<!-- Node4 -->
<g id="node4" class="node">
<title>Node4</title>
<g id="a_node4"><a xlink:href="trm_8c.html#a54a85aeee6f6a8ef875d4cca663f9fd8" target="_top" xlink:title=" ">
<polygon fill="none" stroke="black" points="363,-190.5 363,-209.5 415,-209.5 415,-190.5 363,-190.5"/>
<text text-anchor="middle" x="389" y="-197.5" font-family="Helvetica,sans-Serif" font-size="10.00">_start_c</text>
</a>
</g>
</g>
<!-- Node3&#45;&gt;Node4 -->
<g id="edge3" class="edge">
<title>Node3&#45;&gt;Node4</title>
<path fill="none" stroke="midnightblue" d="M442.84,-200C433.12,-200 423.5,-200 415.2,-200"/>
<polygon fill="midnightblue" stroke="midnightblue" points="442.96,-203.5 452.96,-200 442.96,-196.5 442.96,-203.5"/>
</g>
<!-- Node7 -->
<g id="node7" class="node">
<title>Node7</title>
<g id="a_node7"><a xlink:href="ioe_8c.html#ad0681f53bec9167d7a8d4d848b3ce2e0" target="_top" xlink:title=" ">
<polygon fill="none" stroke="black" points="460.5,-114.5 460.5,-133.5 543.5,-133.5 543.5,-114.5 460.5,-114.5"/>
<text text-anchor="middle" x="502" y="-121.5" font-family="Helvetica,sans-Serif" font-size="10.00">read_rtc_async</text>
</a>
</g>
</g>
<!-- Node6&#45;&gt;Node7 -->
<g id="edge6" class="edge">
<title>Node6&#45;&gt;Node7</title>
<path fill="none" stroke="midnightblue" d="M593.27,-124C577.91,-124 559.81,-124 543.86,-124"/>
<polygon fill="midnightblue" stroke="midnightblue" points="593.4,-127.5 603.4,-124 593.4,-120.5 593.4,-127.5"/>
</g>
<!-- Node8 -->
<g id="node8" class="node">
<title>Node8</title>
<g id="a_node8"><a xlink:href="ioe_8c.html#a7b167e0bb31c8168406860a278ce693a" target="_top" xlink:title=" ">
<polygon fill="none" stroke="black" points="361.5,-152.5 361.5,-171.5 416.5,-171.5 416.5,-152.5 361.5,-152.5"/>
<text text-anchor="middle" x="389" y="-159.5" font-family="Helvetica,sans-Serif" font-size="10.00">timer_rtc</text>
</a>
</g>
</g>
<!-- Node6&#45;&gt;Node8 -->
<g id="edge15" class="edge">
<title>Node6&#45;&gt;Node8</title>
<path fill="none" stroke="midnightblue" d="M593.12,-133.64C579.97,-136.97 564.88,-140.49 551,-143 504.06,-151.49 448.7,-157.07 416.64,-159.87"/>
<polygon fill="midnightblue" stroke="midnightblue" points="594.38,-136.93 603.19,-131.04 592.63,-130.16 594.38,-136.93"/>
</g>
<!-- Node7&#45;&gt;Node8 -->
<g id="edge7" class="edge">
<title>Node7&#45;&gt;Node8</title>
<path fill="none" stroke="midnightblue" d="M463.31,-136.9C448.06,-142.13 430.79,-148.03 416.85,-152.81"/>
<polygon fill="midnightblue" stroke="midnightblue" points="464.66,-140.14 472.99,-133.59 462.4,-133.52 464.66,-140.14"/>
</g>
<!-- Node12 -->
<g id="node12" class="node">
<title>Node12</title>
<g id="a_node12"><a xlink:href="ioe_8c.html#a716ac8111009464db83866c3b49adbbb" target="_top" xlink:title=" ">
<polygon fill="none" stroke="black" points="361,-114.5 361,-133.5 417,-133.5 417,-114.5 361,-114.5"/>
<text text-anchor="middle" x="389" y="-121.5" font-family="Helvetica,sans-Serif" font-size="10.00">wait_sec</text>
</a>
</g>
</g>
<!-- Node7&#45;&gt;Node12 -->
<g id="edge11" class="edge">
<title>Node7&#45;&gt;Node12</title>
<path fill="none" stroke="midnightblue" d="M450.02,-124C438.7,-124 427.12,-124 417.2,-124"/>
<polygon fill="midnightblue" stroke="midnightblue" points="450.3,-127.5 460.3,-124 450.3,-120.5 450.3,-127.5"/>
</g>
<!-- Node9 -->
<g id="node9" class="node">
<title>Node9</title>
<g id="a_node9"><a xlink:href="ioe_8c.html#ac17b85035372c81a45e604e6b4783db2" target="_top" xlink:title=" ">
<polygon fill="none" stroke="black" points="157,-114.5 157,-133.5 213,-133.5 213,-114.5 157,-114.5"/>
<text text-anchor="middle" x="185" y="-121.5" font-family="Helvetica,sans-Serif" font-size="10.00">timer_init</text>
</a>
</g>
</g>
<!-- Node8&#45;&gt;Node9 -->
<g id="edge8" class="edge">
<title>Node8&#45;&gt;Node9</title>
<path fill="none" stroke="midnightblue" d="M351.02,-166.87C322.59,-169.39 282.62,-170.27 249,-161 229.68,-155.67 210.21,-142.83 198.13,-133.77"/>
<polygon fill="midnightblue" stroke="midnightblue" points="351.71,-170.32 361.31,-165.84 351.01,-163.35 351.71,-170.32"/>
</g>
<!-- Node10 -->
<g id="node10" class="node">
<title>Node10</title>
<g id="a_node10"><a xlink:href="ioe_8c.html#a45ecef4130276c1c79d872c582cd3839" target="_top" xlink:title=" ">
<polygon fill="none" stroke="black" points="74,-95.5 74,-114.5 121,-114.5 121,-95.5 74,-95.5"/>
<text text-anchor="middle" x="97.5" y="-102.5" font-family="Helvetica,sans-Serif" font-size="10.00">ioe_init</text>
</a>
</g>
</g>
<!-- Node9&#45;&gt;Node10 -->
<g id="edge9" class="edge">
<title>Node9&#45;&gt;Node10</title>
<path fill="none" stroke="midnightblue" d="M147.16,-115.81C138.29,-113.84 129.07,-111.79 121.08,-110.02"/>
<polygon fill="midnightblue" stroke="midnightblue" points="146.43,-119.24 156.95,-117.99 147.94,-112.4 146.43,-119.24"/>
</g>
<!-- Node11 -->
<g id="node11" class="node">
<title>Node11</title>
<g id="a_node11"><a xlink:href="main_8c.html#ae66f6b31b5ad750f1fe042a706a4e3d4" target="_top" xlink:title=" ">
<polygon fill="none" stroke="black" points="0,-95.5 0,-114.5 38,-114.5 38,-95.5 0,-95.5"/>
<text text-anchor="middle" x="19" y="-102.5" font-family="Helvetica,sans-Serif" font-size="10.00">main</text>
</a>
</g>
</g>
<!-- Node10&#45;&gt;Node11 -->
<g id="edge10" class="edge">
<title>Node10&#45;&gt;Node11</title>
<path fill="none" stroke="midnightblue" d="M63.87,-105C55.01,-105 45.74,-105 38.02,-105"/>
<polygon fill="midnightblue" stroke="midnightblue" points="63.96,-108.5 73.96,-105 63.96,-101.5 63.96,-108.5"/>
</g>
<!-- Node13 -->
<g id="node13" class="node">
<title>Node13</title>
<g id="a_node13"><a xlink:href="ioe_8c.html#a8f4d57167e8d4b53c00c84e504f330ef" target="_top" xlink:title=" ">
<polygon fill="none" stroke="black" points="249,-114.5 249,-133.5 325,-133.5 325,-114.5 249,-114.5"/>
<text text-anchor="middle" x="287" y="-121.5" font-family="Helvetica,sans-Serif" font-size="10.00">estimate_freq</text>
</a>
</g>
</g>
<!-- Node12&#45;&gt;Node13 -->
<g id="edge12" class="edge">
<title>Node12&#45;&gt;Node13</title>
<path fill="none" stroke="midnightblue" d="M350.73,-124C342.39,-124 333.55,-124 325.22,-124"/>
<polygon fill="midnightblue" stroke="midnightblue" points="350.94,-127.5 360.94,-124 350.94,-120.5 350.94,-127.5"/>
</g>
<!-- Node13&#45;&gt;Node9 -->
<g id="edge14" class="edge">
<title>Node13&#45;&gt;Node9</title>
<path fill="none" stroke="midnightblue" d="M238.65,-124C229.95,-124 221.13,-124 213.27,-124"/>
<polygon fill="midnightblue" stroke="midnightblue" points="238.76,-127.5 248.76,-124 238.76,-120.5 238.76,-127.5"/>
</g>
<!-- Node13&#45;&gt;Node13 -->
<g id="edge13" class="edge">
<title>Node13&#45;&gt;Node13</title>
<path fill="none" stroke="midnightblue" d="M305.89,-143.4C304.63,-148.31 298.33,-152 287,-152 268.87,-152 263.63,-142.57 271.28,-133.76"/>
<polygon fill="midnightblue" stroke="midnightblue" points="309.17,-142.17 302.72,-133.76 302.52,-144.35 309.17,-142.17"/>
</g>
<!-- Node14&#45;&gt;Node10 -->
<g id="edge17" class="edge">
<title>Node14&#45;&gt;Node10</title>
<path fill="none" stroke="midnightblue" d="M251.41,-89.51C213.47,-93.35 153.69,-99.41 121.26,-102.69"/>
<polygon fill="midnightblue" stroke="midnightblue" points="251.89,-92.97 261.49,-88.48 251.19,-86.01 251.89,-92.97"/>
</g>
<!-- Node17 -->
<g id="node17" class="node">
<title>Node17</title>
<g id="a_node17"><a xlink:href="ioe_8c.html#a98996b418230bb2594578ebd944e682c" target="_top" xlink:title=" ">
<polygon fill="none" stroke="black" points="472,-0.5 472,-19.5 532,-19.5 532,-0.5 472,-0.5"/>
<text text-anchor="middle" x="502" y="-7.5" font-family="Helvetica,sans-Serif" font-size="10.00">disk_blkio</text>
</a>
</g>
</g>
<!-- Node16&#45;&gt;Node17 -->
<g id="edge20" class="edge">
<title>Node16&#45;&gt;Node17</title>
<path fill="none" stroke="midnightblue" d="M590.13,-10C571.56,-10 549.6,-10 532.38,-10"/>
<polygon fill="midnightblue" stroke="midnightblue" points="590.34,-13.5 600.34,-10 590.34,-6.5 590.34,-13.5"/>
</g>
</g>
</svg>
